<svg 
 xmlns="http://www.w3.org/2000/svg"
 xmlns:xlink="http://www.w3.org/1999/xlink"
 width="11px" height="18px">
<path fill-rule="evenodd"  fill="rgb(255, 255, 255)"
 d="M10.523,0.010 L8.100,0.006 C5.379,0.006 3.621,1.744 3.621,4.435 L3.621,6.476 L1.185,6.476 C0.975,6.476 0.804,6.641 0.804,6.843 L0.804,9.802 C0.804,10.004 0.975,10.169 1.185,10.169 L3.621,10.169 L3.621,17.633 C3.621,17.836 3.791,18.000 4.002,18.000 L7.179,18.000 C7.389,18.000 7.560,17.836 7.560,17.633 L7.560,10.169 L10.407,10.169 C10.618,10.169 10.788,10.004 10.788,9.802 L10.789,6.843 C10.789,6.746 10.749,6.653 10.678,6.584 C10.606,6.515 10.509,6.476 10.408,6.476 L7.560,6.476 L7.560,4.745 C7.560,3.914 7.766,3.491 8.891,3.491 L10.522,3.491 C10.733,3.491 10.903,3.326 10.903,3.124 L10.903,0.377 C10.903,0.174 10.733,0.010 10.523,0.010 Z"/>
</svg>