<svg 
 xmlns="http://www.w3.org/2000/svg"
 xmlns:xlink="http://www.w3.org/1999/xlink"
 width="14px" height="14px">
<path fill-rule="evenodd"  fill="rgb(255, 255, 255)"
 d="M12.600,-0.000 L1.400,-0.000 C0.630,-0.000 -0.000,0.630 -0.000,1.400 L-0.000,12.600 C-0.000,13.370 0.630,14.000 1.400,14.000 L12.600,14.000 C13.370,14.000 14.000,13.370 14.000,12.600 L14.000,1.400 C14.000,0.630 13.370,-0.000 12.600,-0.000 ZM7.000,4.200 C8.540,4.200 9.800,5.460 9.800,7.000 C9.800,8.540 8.540,9.800 7.000,9.800 C5.460,9.800 4.200,8.540 4.200,7.000 C4.200,5.460 5.460,4.200 7.000,4.200 ZM1.750,12.600 C1.540,12.600 1.400,12.460 1.400,12.250 L1.400,6.300 L2.870,6.300 C2.800,6.510 2.800,6.790 2.800,7.000 C2.800,9.310 4.690,11.200 7.000,11.200 C9.310,11.200 11.200,9.310 11.200,7.000 C11.200,6.790 11.200,6.510 11.130,6.300 L12.600,6.300 L12.600,12.250 C12.600,12.460 12.460,12.600 12.250,12.600 L1.750,12.600 ZM12.600,3.150 C12.600,3.360 12.460,3.500 12.250,3.500 L10.850,3.500 C10.640,3.500 10.500,3.360 10.500,3.150 L10.500,1.750 C10.500,1.540 10.640,1.400 10.850,1.400 L12.250,1.400 C12.460,1.400 12.600,1.540 12.600,1.750 L12.600,3.150 Z"/>
</svg>