<svg 
 xmlns="http://www.w3.org/2000/svg"
 xmlns:xlink="http://www.w3.org/1999/xlink"
 width="11px" height="19px">
<path fill-rule="evenodd"  fill="rgb(255, 255, 255)"
 d="M9.609,12.161 L9.610,12.162 C8.632,12.757 7.284,12.992 6.395,13.081 C6.174,12.870 9.793,16.322 9.868,16.392 C10.865,17.370 9.243,18.897 8.235,17.953 C7.553,17.291 6.553,16.334 5.509,15.336 L2.783,17.950 C1.776,18.890 0.154,17.349 1.162,16.389 C5.914,11.844 4.264,13.422 4.624,13.078 C3.745,12.989 2.378,12.766 1.388,12.158 C0.223,11.441 -0.288,11.021 0.162,10.142 C0.427,9.643 1.151,9.222 2.111,9.947 C2.111,9.947 3.408,10.936 5.501,10.936 C7.594,10.936 8.891,9.947 8.891,9.947 C9.852,9.226 10.574,9.643 10.841,10.142 C11.284,11.021 10.774,11.440 9.609,12.161 ZM5.500,9.603 C2.948,9.603 0.865,7.621 0.865,5.182 C0.865,2.732 2.948,0.750 5.500,0.750 C8.051,0.750 10.134,2.732 10.134,5.182 C10.134,7.621 8.051,9.603 5.500,9.603 ZM5.500,2.995 C4.246,2.995 3.223,3.972 3.224,5.182 C3.224,6.380 4.246,7.358 5.500,7.358 C6.753,7.358 7.776,6.380 7.776,5.182 C7.776,3.973 6.753,2.995 5.500,2.995 Z"/>
</svg>