<svg 
 xmlns="http://www.w3.org/2000/svg"
 xmlns:xlink="http://www.w3.org/1999/xlink"
 width="16px" height="11px">
<path fill-rule="evenodd"  fill="rgb(255, 255, 255)"
 d="M15.914,9.175 C15.895,9.133 15.877,9.099 15.860,9.071 C15.582,8.571 15.052,7.957 14.269,7.230 L14.253,7.213 L14.244,7.205 L14.236,7.197 L14.227,7.197 C13.872,6.858 13.647,6.630 13.553,6.513 C13.380,6.291 13.342,6.066 13.436,5.838 C13.503,5.667 13.753,5.303 14.186,4.747 C14.413,4.453 14.594,4.217 14.727,4.040 C15.688,2.762 16.104,1.946 15.977,1.591 L15.927,1.508 C15.894,1.458 15.808,1.412 15.669,1.370 C15.530,1.328 15.352,1.322 15.136,1.349 L12.737,1.366 C12.698,1.352 12.642,1.354 12.570,1.370 C12.498,1.387 12.462,1.395 12.462,1.395 L12.420,1.416 L12.387,1.441 C12.359,1.458 12.329,1.487 12.295,1.528 C12.262,1.570 12.234,1.619 12.212,1.674 C11.951,2.346 11.654,2.971 11.321,3.548 C11.115,3.893 10.927,4.191 10.754,4.444 C10.582,4.696 10.438,4.882 10.321,5.002 C10.205,5.121 10.099,5.217 10.005,5.289 C9.910,5.361 9.838,5.392 9.788,5.381 C9.738,5.370 9.691,5.359 9.647,5.347 C9.569,5.298 9.506,5.230 9.459,5.143 C9.412,5.057 9.380,4.949 9.363,4.818 C9.347,4.688 9.337,4.575 9.334,4.481 C9.332,4.387 9.333,4.253 9.338,4.081 C9.344,3.909 9.347,3.793 9.347,3.731 C9.347,3.520 9.351,3.291 9.359,3.044 C9.368,2.797 9.374,2.601 9.380,2.457 C9.386,2.313 9.388,2.160 9.388,1.999 C9.388,1.838 9.378,1.711 9.359,1.620 C9.340,1.528 9.311,1.439 9.272,1.353 C9.233,1.267 9.176,1.201 9.101,1.154 C9.026,1.106 8.933,1.069 8.822,1.041 C8.528,0.974 8.153,0.938 7.697,0.933 C6.665,0.922 6.001,0.988 5.707,1.133 C5.590,1.194 5.485,1.277 5.390,1.382 C5.290,1.505 5.276,1.571 5.348,1.582 C5.682,1.632 5.918,1.752 6.056,1.941 L6.107,2.040 C6.145,2.113 6.184,2.240 6.223,2.424 C6.262,2.607 6.287,2.810 6.298,3.032 C6.326,3.437 6.326,3.784 6.298,4.073 C6.270,4.362 6.244,4.586 6.219,4.748 C6.194,4.909 6.156,5.039 6.107,5.139 C6.056,5.239 6.023,5.300 6.006,5.322 C5.990,5.344 5.976,5.358 5.965,5.364 C5.893,5.392 5.818,5.406 5.740,5.406 C5.662,5.406 5.568,5.367 5.457,5.289 C5.346,5.211 5.231,5.104 5.111,4.968 C4.992,4.832 4.857,4.642 4.707,4.398 C4.557,4.153 4.402,3.865 4.241,3.531 L4.107,3.290 C4.024,3.134 3.910,2.908 3.766,2.611 C3.622,2.314 3.494,2.026 3.383,1.749 C3.338,1.632 3.272,1.543 3.183,1.482 L3.141,1.457 C3.114,1.435 3.069,1.412 3.008,1.387 C2.947,1.362 2.883,1.343 2.816,1.332 L0.534,1.349 C0.301,1.349 0.143,1.402 0.059,1.507 L0.026,1.557 C0.009,1.585 0.001,1.630 0.001,1.691 C0.001,1.752 0.018,1.826 0.051,1.915 C0.384,2.699 0.746,3.454 1.138,4.181 C1.529,4.908 1.869,5.494 2.158,5.938 C2.447,6.383 2.741,6.802 3.041,7.196 C3.341,7.591 3.539,7.843 3.637,7.954 C3.734,8.065 3.810,8.148 3.866,8.204 L4.074,8.404 C4.207,8.537 4.403,8.697 4.661,8.883 C4.920,9.069 5.206,9.252 5.519,9.433 C5.833,9.613 6.198,9.760 6.615,9.874 C7.031,9.988 7.436,10.034 7.831,10.012 L8.789,10.012 C8.983,9.995 9.130,9.934 9.230,9.828 L9.263,9.787 C9.286,9.754 9.306,9.702 9.326,9.633 C9.345,9.563 9.355,9.487 9.355,9.404 C9.349,9.165 9.367,8.950 9.409,8.758 C9.450,8.567 9.498,8.422 9.551,8.325 C9.603,8.228 9.663,8.146 9.730,8.080 C9.796,8.013 9.844,7.973 9.871,7.959 C9.899,7.945 9.921,7.935 9.938,7.930 C10.071,7.885 10.228,7.928 10.409,8.059 C10.589,8.189 10.759,8.350 10.917,8.542 C11.075,8.733 11.265,8.949 11.487,9.187 C11.710,9.426 11.904,9.604 12.070,9.721 L12.237,9.820 C12.348,9.887 12.493,9.948 12.670,10.004 C12.848,10.059 13.003,10.073 13.137,10.045 L15.269,10.012 C15.480,10.012 15.644,9.977 15.760,9.908 C15.877,9.839 15.946,9.762 15.969,9.679 C15.991,9.596 15.992,9.501 15.973,9.395 C15.953,9.290 15.934,9.217 15.914,9.175 Z"/>
</svg>