<svg width="20" height="19" viewBox="0 0 20 19" fill="none" xmlns="http://www.w3.org/2000/svg">
<path d="M1.52051 1.47949L3.42717 1.80949L4.30992 12.3264C4.34383 12.7403 4.53253 13.1261 4.83837 13.407C5.14421 13.6878 5.54469 13.843 5.95992 13.8417H15.9608C16.3583 13.8421 16.7427 13.699 17.0432 13.4386C17.3436 13.1782 17.54 12.8181 17.5961 12.4245L18.4669 6.41299C18.4901 6.25312 18.4816 6.09023 18.4418 5.93366C18.402 5.77708 18.3318 5.62988 18.2351 5.50047C18.1384 5.37107 18.0171 5.262 17.8782 5.1795C17.7393 5.09699 17.5855 5.04268 17.4256 5.01966C17.3669 5.01324 3.73334 5.00866 3.73334 5.00866" stroke="#272343" stroke-width="1.5" stroke-linecap="round" stroke-linejoin="round"/>
<path d="M11.9473 8.39551H14.4892" stroke="#272343" stroke-width="1.5" stroke-linecap="round" stroke-linejoin="round"/>
<path fill-rule="evenodd" clip-rule="evenodd" d="M5.55737 17.02C5.62459 17.0171 5.6917 17.0279 5.75466 17.0516C5.81762 17.0753 5.87513 17.1116 5.92371 17.1581C5.9723 17.2047 6.01097 17.2606 6.03738 17.3224C6.06379 17.3843 6.07741 17.4509 6.07741 17.5182C6.07741 17.5855 6.06379 17.6521 6.03738 17.714C6.01097 17.7758 5.9723 17.8317 5.92371 17.8783C5.87513 17.9248 5.81762 17.9611 5.75466 17.9848C5.6917 18.0085 5.62459 18.0193 5.55737 18.0164C5.42893 18.0109 5.30759 17.956 5.21866 17.8632C5.12972 17.7703 5.08008 17.6468 5.08008 17.5182C5.08008 17.3896 5.12972 17.2661 5.21866 17.1732C5.30759 17.0804 5.42893 17.0255 5.55737 17.02Z" fill="#272343" stroke="#272343" stroke-width="1.5" stroke-linecap="round" stroke-linejoin="round"/>
<path fill-rule="evenodd" clip-rule="evenodd" d="M15.898 17.0195C16.0305 17.0195 16.1576 17.0722 16.2513 17.1659C16.345 17.2595 16.3976 17.3866 16.3976 17.5191C16.3976 17.6516 16.345 17.7787 16.2513 17.8724C16.1576 17.9661 16.0305 18.0187 15.898 18.0187C15.7655 18.0187 15.6385 17.9661 15.5448 17.8724C15.4511 17.7787 15.3984 17.6516 15.3984 17.5191C15.3984 17.3866 15.4511 17.2595 15.5448 17.1659C15.6385 17.0722 15.7655 17.0195 15.898 17.0195Z" fill="#272343" stroke="#272343" stroke-width="1.5" stroke-linecap="round" stroke-linejoin="round"/>
</svg>
