<svg width="72" height="55" viewBox="0 0 72 55" fill="none" xmlns="http://www.w3.org/2000/svg">
<path d="M6.332 50.283C2.212 45.907 0 40.999 0 33.043C0 19.043 9.828 6.49501 24.12 0.291016L27.692 5.80302C14.352 13.019 11.744 22.383 10.704 28.287C12.852 27.175 15.664 26.787 18.42 27.043C25.636 27.711 31.324 33.635 31.324 40.999C31.324 44.712 29.849 48.273 27.2235 50.8985C24.598 53.524 21.037 54.999 17.324 54.999C13.032 54.999 8.928 53.039 6.332 50.283V50.283ZM46.332 50.283C42.212 45.907 40 40.999 40 33.043C40 19.043 49.828 6.49501 64.12 0.291016L67.692 5.80302C54.352 13.019 51.744 22.383 50.704 28.287C52.852 27.175 55.664 26.787 58.42 27.043C65.636 27.711 71.324 33.635 71.324 40.999C71.324 44.712 69.849 48.273 67.2235 50.8985C64.598 53.524 61.037 54.999 57.324 54.999C53.032 54.999 48.928 53.039 46.332 50.283V50.283Z" fill="#245D51" fill-opacity="0.1"/>
</svg>
