
<svg width="15" height="16" viewBox="0 0 15 16" fill="none" xmlns="http://www.w3.org/2000/svg">
<path d="M14.9785 6.27915C14.9268 6.12004 14.7893 6.00411 14.6237 5.98006L9.97369 5.30433L7.89408 1.09065C7.82005 0.940654 7.6673 0.845703 7.50001 0.845703C7.33276 0.845703 7.17997 0.940683 7.10594 1.09065L5.02622 5.30436L0.376256 5.98006C0.210729 6.00411 0.0732095 6.12007 0.0215299 6.27915C-0.030179 6.43823 0.012946 6.61287 0.132711 6.72962L3.49739 10.0095L2.70321 14.6409C2.67494 14.8057 2.74274 14.9724 2.87806 15.0707C3.01335 15.1689 3.19271 15.1819 3.34086 15.1041L7.49998 12.9175L11.659 15.1041C11.7233 15.138 11.7935 15.1546 11.8635 15.1546C11.9546 15.1546 12.0453 15.1263 12.1218 15.0707C12.2571 14.9724 12.3249 14.8058 12.2966 14.6409L11.5022 10.0095L14.8673 6.72965C14.987 6.61287 15.0302 6.43823 14.9785 6.27915ZM10.7233 9.54141C10.6197 9.64237 10.5724 9.78785 10.5969 9.93041L11.2799 13.9118L7.70453 12.032C7.57651 11.9648 7.42355 11.9648 7.29552 12.032L3.71999 13.9118L4.40272 9.93038C4.42716 9.78782 4.3799 9.6424 4.27637 9.54144L1.38386 6.7218L5.38127 6.14087C5.52441 6.12007 5.6481 6.03019 5.71214 5.90049L7.49998 2.27805L9.28776 5.90046C9.35181 6.03016 9.4755 6.12007 9.61864 6.14087L13.6161 6.72177L10.7233 9.54141Z" fill="#FD9C12"/>
</svg>
