<svg width="16" height="16" viewBox="0 0 15 16" fill="none" xmlns="http://www.w3.org/2000/svg">
<path d="M14.9785 6.27914C14.9268 6.12003 14.7893 6.00407 14.6238 5.98005L9.9737 5.30432L7.89407 1.09065C7.82006 0.940654 7.66728 0.845703 7.50003 0.845703C7.33274 0.845703 7.17999 0.940654 7.10595 1.09065L5.02624 5.30432L0.376254 5.98005C0.210757 6.00407 0.0732087 6.12003 0.0215293 6.27911C-0.0301795 6.43822 0.0129453 6.61286 0.13274 6.72961L3.49741 10.0095L2.70324 14.6408C2.67494 14.8057 2.74273 14.9723 2.87805 15.0706C2.9546 15.1262 3.04528 15.1545 3.13639 15.1545C3.20635 15.1545 3.27655 15.1379 3.34082 15.1041L7.5 12.9174L11.659 15.104C11.8071 15.1819 11.9865 15.1689 12.1218 15.0706C12.2571 14.9723 12.3249 14.8056 12.2967 14.6408L11.5022 10.0095L14.8673 6.72958C14.987 6.61286 15.0302 6.43822 14.9785 6.27914Z" fill="#FD9C12"/>
</svg>