<svg width="50" height="50" viewBox="0 0 50 50" fill="none" xmlns="http://www.w3.org/2000/svg">
<g clip-path="url(#clip0_13_1919)">
<path d="M16.1289 36.291H33.8708V41.1297H16.1289V36.291Z" fill="#FD9C12"/>
<path d="M41.1282 30.6456H36.2895C34.9558 30.6456 33.8701 29.5599 33.8701 28.2262V25.0004C33.8701 23.6667 34.9558 22.5811 36.2895 22.5811H41.1282C42.4619 22.5811 43.5475 23.6667 43.5475 25.0004V28.2262C43.5475 29.5599 42.4619 30.6456 41.1282 30.6456Z" fill="#FD9C12"/>
<path d="M13.7092 30.6456H8.87053C7.53681 30.6456 6.45117 29.5599 6.45117 28.2262V25.0004C6.45117 23.6667 7.53681 22.5811 8.87053 22.5811H13.7092C15.043 22.5811 16.1286 23.6667 16.1286 25.0004V28.2262C16.1286 29.5599 15.043 30.6456 13.7092 30.6456Z" fill="#FD9C12"/>
<path d="M16.1289 25.8066H33.8708V27.4195H16.1289V25.8066Z" fill="white"/>
<path d="M9.67773 25.8066H12.9035V27.4195H9.67773V25.8066Z" fill="white"/>
<path d="M37.0967 25.8066H40.3225V27.4195H37.0967V25.8066Z" fill="white"/>
<path d="M50 20.1613C50 17.0485 47.4668 14.5161 44.3548 14.5161H41.787C41.8776 14.2629 41.9355 13.9936 41.9355 13.7097V10.4839C41.9355 4.70325 37.2322 0 31.4516 0H18.5484C12.7678 0 8.06452 4.70325 8.06452 10.4839V13.7097C8.06452 13.9936 8.1224 14.2629 8.21297 14.5161H5.64516C2.53316 14.5161 0 17.0485 0 20.1613V27.4194H1.6129V45.9677C1.6129 48.191 3.42191 50 5.64516 50H44.3548C46.5781 50 48.3871 48.191 48.3871 45.9677V27.4194H50V20.1613ZM9.67742 13.7097V10.4839C9.67742 5.59279 13.6573 1.6129 18.5484 1.6129H31.4516C36.3427 1.6129 40.3226 5.59279 40.3226 10.4839V13.7097C40.3226 14.1539 39.9611 14.5161 39.5161 14.5161H30.7936C31.1275 13.5797 32.0147 12.9032 33.0645 12.9032H38.7097V11.2903C38.7097 6.84342 35.0921 3.22581 30.6452 3.22581H19.3548C14.9079 3.22581 11.2903 6.84342 11.2903 11.2903V12.9032H16.9355C17.9853 12.9032 18.8725 13.5797 19.2064 14.5161H10.4839C10.0389 14.5161 9.67742 14.1539 9.67742 13.7097ZM20.8862 14.5161C20.5114 12.6784 18.8831 11.2903 16.9355 11.2903H12.9032C12.9032 7.73296 15.7975 4.83871 19.3548 4.83871H30.6452C34.2025 4.83871 37.0968 7.73296 37.0968 11.2903H33.0645C31.1177 11.2903 29.4886 12.6784 29.1138 14.5161H20.8862ZM48.3871 25.8065H43.5484V27.4194H46.7742V45.9677C46.7742 47.3015 45.6886 48.3871 44.3548 48.3871H5.64516C4.31145 48.3871 3.22581 47.3015 3.22581 45.9677V27.4194H6.45161V25.8065H1.6129V20.1613C1.6129 17.938 3.42191 16.129 5.64516 16.129H44.3548C46.5781 16.129 48.3871 17.938 48.3871 20.1613V25.8065Z" fill="white"/>
<path d="M38.4198 32.2578C36.0198 32.2578 33.7851 33.5084 32.5892 35.4836H17.4107C16.2148 33.5084 13.9794 32.2578 11.5801 32.2578C9.71321 32.2578 7.97311 32.982 6.68271 34.2964L6.45117 34.5319V37.0965H10.5303L11.219 38.7094L10.5303 40.3223H6.45117V42.887L6.68192 43.1225C7.97311 44.4369 9.71242 45.161 11.5793 45.161C13.9794 45.161 16.214 43.9104 17.4099 41.9352H32.5876C33.7835 43.9104 36.019 45.161 38.4182 45.161C40.2851 45.161 42.0252 44.4369 43.3156 43.1225L43.5479 42.887V40.3223H39.4688L38.7801 38.7094L39.4688 37.0965H43.5479V34.5319L43.3172 34.2964C42.026 32.982 40.2867 32.2578 38.4198 32.2578ZM41.935 35.4836H38.4045L37.0255 38.7094L38.4045 41.9352H41.935V42.2136C40.9778 43.0772 39.7413 43.5481 38.4198 43.5481C36.4498 43.5481 34.6301 42.457 33.7859 40.7685L33.5626 40.3223H30.6447V38.7094H29.0318V40.3223H24.1931V38.7094H22.5802V40.3223H17.7415V38.7094H16.1286V40.9102C15.2544 42.5153 13.4923 43.5481 11.5793 43.5481C10.257 43.5481 9.02056 43.0772 8.06408 42.2136V41.9352H11.5947L12.9737 38.7094L11.5947 35.4836H8.06408V35.2052C9.02134 34.3417 10.2578 33.8707 11.5793 33.8707C13.5494 33.8707 15.369 34.9619 16.2133 36.6504L16.4365 37.0965H19.3544V38.7094H20.9673V37.0965H25.806V38.7094H27.4189V37.0965H32.2576V38.7094H33.8705V36.5086C34.7447 34.9036 36.5069 33.8707 38.4198 33.8707C39.7421 33.8707 40.9786 34.3417 41.935 35.2052V35.4836Z" fill="white"/>
</g>
<defs>
<clipPath id="clip0_13_1919">
<rect width="50" height="50" fill="white"/>
</clipPath>
</defs>
</svg>
