<svg width="50" height="50" viewBox="0 0 50 50" fill="none" xmlns="http://www.w3.org/2000/svg">
<g clip-path="url(#clip0_13_1957)">
<path d="M0 49.9998H12.0969V48.3868H1.61294V21.7739H12.0969V20.1611H0V49.9998Z" fill="white"/>
<path d="M37.9033 20.1611V21.7739H48.3872V48.3868H37.9033V49.9998H50.0002V20.1611H37.9033Z" fill="white"/>
<path d="M8.87087 24.1934H4.03223V29.032H8.87087V24.1934ZM7.25793 27.4192H5.64499V25.8063H7.25793V27.4192Z" fill="white"/>
<path d="M8.87087 31.4512H4.03223V36.2898H8.87087V31.4512ZM7.25793 34.677H5.64499V33.0641H7.25793V34.677Z" fill="white"/>
<path d="M4.03223 43.5486H8.87087V38.71H4.03223V43.5486ZM5.64499 40.3227H7.25793V41.9357H5.64499V40.3227Z" fill="white"/>
<path d="M45.9675 24.1934H41.1289V29.032H45.9675V24.1934ZM44.3548 27.4192H42.7418V25.8063H44.3548V27.4192Z" fill="white"/>
<path d="M41.1289 36.2908H45.9675V31.4521H41.1289V36.2908ZM42.7418 33.0649H44.3548V34.6779H42.7418V33.0649Z" fill="white"/>
<path d="M41.1289 43.5486H45.9675V38.71H41.1289V43.5486ZM42.7418 40.3227H44.3548V41.9357H42.7418V40.3227Z" fill="white"/>
<path d="M38.7093 49.9996H11.29V6.45117H38.7094L38.7093 49.9996Z" fill="#FD9C12"/>
<path d="M37.903 1.61294V0H36.2902H35.4837H14.5159H13.7094H12.0967V1.61294H13.7094V7.25804H15.3224V1.61294H34.6773V7.25804H36.2902V1.61294H37.903Z" fill="white"/>
<path d="M20.1611 10.4844H15.3223V15.323H20.1609L20.1611 10.4844ZM18.5481 13.7101H16.9352V12.0971H18.5481V13.7101Z" fill="white"/>
<path d="M27.4197 10.4844H22.5811V15.323H27.4197V10.4844ZM25.8068 13.7101H24.1938V12.0971H25.8068V13.7101Z" fill="white"/>
<path d="M34.6777 10.4844H29.8389V15.323H34.6775L34.6777 10.4844ZM33.0647 13.7101H31.4518V12.0971H33.0647V13.7101Z" fill="white"/>
<path d="M33.0641 35.4844H16.935H16.1286H14.5156V37.0973H16.1286V50.0005H33.8705V37.0973H35.4835V35.4844H33.8705H33.0641ZM17.7415 37.0973H24.1931V40.3232H23.3866C22.0528 40.3232 20.9672 41.4087 20.9672 42.7426C20.9672 44.0764 22.0528 45.162 23.3866 45.162H24.1931V48.3879H17.7415V37.0973ZM24.1931 43.5489H23.3866C22.9422 43.5489 22.5801 43.1877 22.5801 42.7424C22.5801 42.2972 22.9422 41.9359 23.3866 41.9359H24.1931V43.5489ZM25.806 41.9359H26.6125C27.0569 41.9359 27.4189 42.2972 27.4189 42.7424C27.4189 43.1877 27.0569 43.5489 26.6125 43.5489H25.806V41.9359ZM32.2576 48.3875H25.806V45.1616H26.6125C27.9463 45.1616 29.0319 44.0761 29.0319 42.7422C29.0319 41.4084 27.9463 40.3228 26.6125 40.3228H25.806V37.097H32.2576V48.3875Z" fill="white"/>
<path d="M15.3223 22.5808H20.1609V17.7422H15.3223V22.5808ZM16.9352 19.3551H18.5481V20.9681H16.9352V19.3551Z" fill="white"/>
<path d="M22.5811 22.5808H27.4197V17.7422H22.5811V22.5808ZM24.194 19.3551H25.8069V20.9681H24.194V19.3551Z" fill="white"/>
<path d="M29.8389 22.5808H34.6775V17.7422H29.8389V22.5808ZM31.4518 19.3551H33.0647V20.9681H31.4518V19.3551Z" fill="white"/>
<path d="M15.3223 29.8386H20.1609V25H15.3223V29.8386ZM16.9352 26.6129H18.5481V28.2259H16.9352V26.6129Z" fill="white"/>
<path d="M22.5811 29.8386H27.4197V25H22.5811V29.8386ZM24.194 26.6129H25.8069V28.2259H24.194V26.6129Z" fill="white"/>
<path d="M29.8389 29.8386H34.6775V25H29.8389V29.8386ZM31.4518 26.6129H33.0647V28.2259H31.4518V26.6129Z" fill="white"/>
<path d="M32.2576 32.2578H14.5156V33.8707H32.2576V32.2578Z" fill="white"/>
<path d="M35.484 32.2578H33.8711V33.8707H35.484V32.2578Z" fill="white"/>
</g>
<defs>
<clipPath id="clip0_13_1957">
<rect width="50" height="50" fill="white"/>
</clipPath>
</defs>
</svg>
