<svg width="50" height="50" viewBox="0 0 50 50" fill="none" xmlns="http://www.w3.org/2000/svg">
<g clip-path="url(#clip0_13_1986)">
<path d="M39.5157 43.5479C37.2923 43.5479 35.4834 41.739 35.4834 39.5157C35.4834 37.2923 37.2923 35.4834 39.5157 35.4834C41.739 35.4834 43.5479 37.2923 43.5479 39.5157C43.5479 41.739 41.739 43.5479 39.5157 43.5479Z" fill="#FD9C12"/>
<path d="M29.8459 43.5474C28.4512 43.5474 27.093 42.8242 26.3471 41.532C25.2354 39.6065 25.8974 37.1357 27.823 36.0239C29.7484 34.9121 32.2193 35.5742 33.3311 37.4998C34.4428 39.4253 33.7808 41.8961 31.8552 43.0079C31.222 43.3737 30.5295 43.5474 29.8459 43.5474Z" fill="#FD9C12"/>
<path d="M20.1612 43.5479C17.9378 43.5479 16.1289 41.739 16.1289 39.5157C16.1289 37.2923 17.9378 35.4834 20.1612 35.4834C22.3846 35.4834 24.1934 37.2923 24.1934 39.5157C24.1934 41.739 22.3846 43.5479 20.1612 43.5479Z" fill="#FD9C12"/>
<path d="M10.4834 43.5479C8.26004 43.5479 6.45117 41.739 6.45117 39.5157C6.45117 37.2923 8.26004 35.4834 10.4834 35.4834C12.7068 35.4834 14.5157 37.2923 14.5157 39.5157C14.5157 41.739 12.7068 43.5479 10.4834 43.5479Z" fill="#FD9C12"/>
<path d="M39.5164 40.3229C39.9618 40.3229 40.3229 39.9618 40.3229 39.5164C40.3229 39.071 39.9618 38.71 39.5164 38.71C39.071 38.71 38.71 39.071 38.71 39.5164C38.71 39.9618 39.071 40.3229 39.5164 40.3229Z" fill="white"/>
<path d="M29.8387 40.3229C30.2841 40.3229 30.6451 39.9618 30.6451 39.5164C30.6451 39.071 30.2841 38.71 29.8387 38.71C29.3933 38.71 29.0322 39.071 29.0322 39.5164C29.0322 39.9618 29.3933 40.3229 29.8387 40.3229Z" fill="white"/>
<path d="M20.1609 40.3229C20.6063 40.3229 20.9674 39.9618 20.9674 39.5164C20.9674 39.071 20.6063 38.71 20.1609 38.71C19.7156 38.71 19.3545 39.071 19.3545 39.5164C19.3545 39.9618 19.7156 40.3229 20.1609 40.3229Z" fill="white"/>
<path d="M10.4842 40.3229C10.9296 40.3229 11.2906 39.9618 11.2906 39.5164C11.2906 39.071 10.9296 38.71 10.4842 38.71C10.0388 38.71 9.67773 39.071 9.67773 39.5164C9.67773 39.9618 10.0388 40.3229 10.4842 40.3229Z" fill="white"/>
<path d="M45.9677 19.3548H45.1613V13.0485C45.1613 11.1331 43.7981 9.47016 41.9199 9.09456L41.129 8.93639V4.83871C42.463 4.83871 43.5484 3.75343 43.5484 2.41935C43.5484 1.08528 42.463 0 41.129 0H34.6774C33.3434 0 32.2581 1.08528 32.2581 2.41935C32.2581 3.75343 33.3434 4.83871 34.6774 4.83871V8.93639L33.8866 9.09456C32.886 9.29466 32.0317 9.86028 31.4516 10.6347C30.8716 9.86028 30.0172 9.29476 29.0166 9.09456L28.2258 8.93639V4.83871C29.5598 4.83871 30.6452 3.75343 30.6452 2.41935C30.6452 1.08528 29.5598 0 28.2258 0H21.7742C20.4402 0 19.3548 1.08528 19.3548 2.41935C19.3548 3.75343 20.4402 4.83871 21.7742 4.83871V8.93639L20.9834 9.09456C19.9828 9.29466 19.1284 9.86028 18.5484 10.6347C17.9683 9.86028 17.114 9.29476 16.1134 9.09456L15.3226 8.93639V4.83871C16.6566 4.83871 17.7419 3.75343 17.7419 2.41935C17.7419 1.08528 16.6566 0 15.3226 0H8.87097C7.537 0 6.45161 1.08528 6.45161 2.41935C6.45161 3.75343 7.537 4.83871 8.87097 4.83871V8.93639L8.08014 9.09456C6.20192 9.47026 4.83871 11.1331 4.83871 13.0485V19.3548H4.03226C1.80887 19.3548 0 21.1637 0 23.3871V29.8387C0 31.786 1.3876 33.4151 3.22581 33.7898V47.5806C3.22581 48.9146 4.31119 50 5.64516 50H44.3548C45.6888 50 46.7742 48.9146 46.7742 47.5806V33.7898C48.6124 33.4151 50 31.786 50 29.8387V23.3871C50 21.1637 48.1911 19.3548 45.9677 19.3548ZM33.871 2.41935C33.871 1.9747 34.2328 1.6129 34.6774 1.6129H41.129C41.5737 1.6129 41.9355 1.9747 41.9355 2.41935C41.9355 2.86401 41.5737 3.22581 41.129 3.22581H34.6774C34.2328 3.22581 33.871 2.86401 33.871 2.41935ZM39.5161 4.83871V9.26351L37.9032 10.8764L36.2903 9.26351V4.83871H39.5161ZM34.203 10.6762L35.2189 10.4731L37.9032 13.1574L40.5876 10.473L41.6034 10.6761C42.7304 10.9015 43.5484 11.8992 43.5484 13.0485V26.6129C43.5484 27.9469 42.463 29.0323 41.129 29.0323H34.6774C33.3434 29.0323 32.2581 27.9469 32.2581 26.6129V13.0485C32.2581 11.8993 33.076 10.9016 34.203 10.6762ZM20.9677 2.41935C20.9677 1.9747 21.3295 1.6129 21.7742 1.6129H28.2258C28.6705 1.6129 29.0323 1.9747 29.0323 2.41935C29.0323 2.86401 28.6705 3.22581 28.2258 3.22581H21.7742C21.3295 3.22581 20.9677 2.86401 20.9677 2.41935ZM26.6129 4.83871V9.26351L25 10.8764L23.3871 9.26351V4.83871H26.6129ZM21.2998 10.6762L22.3156 10.4731L25 13.1574L27.6844 10.473L28.7002 10.6761C29.8272 10.9015 30.6452 11.8992 30.6452 13.0485V26.6129C30.6452 27.9469 29.5598 29.0323 28.2258 29.0323H21.7742C20.4402 29.0323 19.3548 27.9469 19.3548 26.6129V13.0485C19.3548 11.8993 20.1728 10.9016 21.2998 10.6762ZM8.06452 2.41935C8.06452 1.9747 8.42631 1.6129 8.87097 1.6129H15.3226C15.7672 1.6129 16.129 1.9747 16.129 2.41935C16.129 2.86401 15.7672 3.22581 15.3226 3.22581H8.87097C8.42631 3.22581 8.06452 2.86401 8.06452 2.41935ZM13.7097 4.83871V9.26351L12.0968 10.8764L10.4839 9.26351V4.83871H13.7097ZM6.45161 13.0485C6.45161 11.8993 7.26956 10.9015 8.39657 10.6761L9.4124 10.473L12.0968 13.1574L14.7811 10.473L15.797 10.6761C16.924 10.9015 17.7419 11.8992 17.7419 13.0485V26.6129C17.7419 27.9469 16.6566 29.0323 15.3226 29.0323H8.87097C7.537 29.0323 6.45161 27.9469 6.45161 26.6129V13.0485ZM45.1613 33.871V45.1613H4.83871V33.871H45.1613ZM44.3548 48.3871H5.64516C5.2005 48.3871 4.83871 48.0253 4.83871 47.5806V46.7742H45.1613V47.5806C45.1613 48.0253 44.7995 48.3871 44.3548 48.3871ZM48.3871 29.8387C48.3871 31.1727 47.3017 32.2581 45.9677 32.2581H4.03226C2.69829 32.2581 1.6129 31.1727 1.6129 29.8387V23.3871C1.6129 22.053 2.69829 20.9677 4.03226 20.9677H4.83871V26.6129C4.83871 28.8363 6.64758 30.6452 8.87097 30.6452H15.3226C16.6402 30.6452 17.8121 30.0098 18.5484 29.0294C19.2847 30.0098 20.4566 30.6452 21.7742 30.6452H28.2258C29.5434 30.6452 30.7153 30.0098 31.4516 29.0294C32.1879 30.0098 33.3598 30.6452 34.6774 30.6452H41.129C43.3524 30.6452 45.1613 28.8363 45.1613 26.6129V20.9677H45.9677C47.3017 20.9677 48.3871 22.053 48.3871 23.3871V29.8387Z" fill="white"/>
<path d="M29.0323 14.5166H20.9678V25.8069H29.0323V14.5166ZM27.4194 24.194H22.5807V16.1295H27.4194V24.194Z" fill="white"/>
<path d="M16.129 14.5166H8.06445V25.8069H16.129V14.5166ZM14.5161 24.194H9.67736V16.1295H14.5161V24.194Z" fill="white"/>
<path d="M41.9356 14.5166H33.8711V25.8069H41.9356V14.5166ZM40.3227 24.194H35.484V16.1295H40.3227V24.194Z" fill="white"/>
</g>
<defs>
<clipPath id="clip0_13_1986">
<rect width="50" height="50" fill="white"/>
</clipPath>
</defs>
</svg>
