<svg width="50" height="50" viewBox="0 0 50 50" fill="none" xmlns="http://www.w3.org/2000/svg">
<g clip-path="url(#clip0_13_2041)">
<path d="M16.1289 0.806641V7.25825C16.1289 8.59197 17.2145 9.67761 18.5483 9.67761H42.7418C44.0755 9.67761 45.1612 8.59197 45.1612 7.25825V0.806641H16.1289Z" fill="#FD9C12"/>
<path d="M30.6448 20.9678C27.2981 20.9678 24.3188 22.55 22.3987 25H22.5803C23.0252 25 23.3867 25.3615 23.3867 25.8065V27.4194C23.3867 27.8644 23.0252 28.2258 22.5803 28.2258H21.7738V29.0323L21.2158 36.0049C22.915 39.5083 26.4971 41.9355 30.6448 41.9355C36.4254 41.9355 41.1286 37.2323 41.1286 31.4516C41.1286 25.671 36.4254 20.9678 30.6448 20.9678ZM30.6448 37.9033C27.0874 37.9033 24.1932 35.009 24.1932 31.4516C24.1932 27.8943 27.0874 25 30.6448 25C34.2021 25 37.0964 27.8943 37.0964 31.4516C37.0964 35.009 34.2021 37.9033 30.6448 37.9033Z" fill="#FD9C12"/>
<path d="M45.9677 0H15.3226C13.0993 0 11.2903 1.809 11.2903 4.03226V24.1936H1.6129C0.723365 24.1936 0 24.9169 0 25.8065V27.4194C0 28.3089 0.723365 29.0323 1.6129 29.0323H1.61527V29.0968L2.99033 46.2895C3.15808 48.3702 4.92258 50 7.00959 50H44.3548C45.6886 50 46.7742 48.9144 46.7742 47.5807V45.0798C48.6119 44.7049 50 43.0766 50 41.129V4.03226C50 1.809 48.191 0 45.9677 0ZM15.3226 1.6129H45.9677C47.3015 1.6129 48.3871 2.69854 48.3871 4.03226V17.7419H29.0323V9.67742H41.9355V8.06452H40.0147L38.4017 4.83871H22.8886L21.2757 8.06452H19.3548V9.67742H27.4194V17.7419H12.9032V4.03226C12.9032 2.69854 13.9889 1.6129 15.3226 1.6129ZM23.0792 8.06452L23.8856 6.45161H37.4047L38.2112 8.06452H23.0792ZM1.6129 25.8065H22.5806L22.5822 27.4194H1.6129V25.8065ZM11.6865 29.0323H12.5063L15.3289 32.1517L12.0968 35.7249L8.86388 32.1517L11.6865 29.0323ZM7.77667 30.9499L6.0413 29.0323H9.51203L7.77667 30.9499ZM14.6815 29.0323H18.1523L16.4169 30.9499L14.6815 29.0323ZM11.9936 45.1613L8.86388 41.7016L12.0968 38.1281L15.3297 41.7016L12.1999 45.1613H11.9936ZM13.184 36.9267L16.4169 33.3532L19.6502 36.9267L16.4169 40.5002L13.184 36.9267ZM11.0096 36.9267L7.77667 40.5002L4.54338 36.9267L7.77667 33.3532L11.0096 36.9267ZM6.68945 41.7016L4.44021 44.1871L4.00312 38.7329L6.68945 41.7016ZM7.77667 42.9034L9.81918 45.1613H5.73376L7.77667 42.9034ZM16.4169 42.9034L18.4598 45.1613H14.3744L16.4169 42.9034ZM19.7533 44.1871L17.5049 41.7016L20.1896 38.7337L19.7533 44.1871ZM20.4547 35.413L17.5041 32.1517L20.3267 29.0323H20.9646L20.4547 35.413ZM3.86687 29.0323L6.68945 32.1517L3.73693 35.4146L3.22581 29.0323H3.86687ZM16.9355 48.3871H7.00959C5.97357 48.3871 5.07813 47.713 4.74027 46.7742H19.4525C19.1146 47.713 18.2192 48.3871 17.1832 48.3871H16.9355ZM44.3548 48.3871H20.3999C20.8492 47.7945 21.1402 47.0743 21.2032 46.2895L21.2934 45.1613H45.1613V47.5807C45.1613 48.0256 44.7998 48.3871 44.3548 48.3871ZM45.9677 43.5484H21.4218L22.5806 29.0323C23.4702 29.0323 24.1936 28.3089 24.1936 27.4194V25.8065C24.1936 24.9169 23.4702 24.1936 22.5806 24.1936H12.9032V19.3548H48.3871V41.129C48.3871 42.4628 47.3015 43.5484 45.9677 43.5484Z" fill="white"/>
<path d="M16.936 16.1287C18.2697 16.1287 19.3553 15.0431 19.3553 13.7094C19.3553 12.3757 18.2697 11.29 16.936 11.29C15.6022 11.29 14.5166 12.3757 14.5166 13.7094C14.5166 15.0431 15.6022 16.1287 16.936 16.1287ZM16.936 12.9029C17.3809 12.9029 17.7424 13.2652 17.7424 13.7094C17.7424 14.1536 17.3809 14.5158 16.936 14.5158C16.491 14.5158 16.1295 14.1536 16.1295 13.7094C16.1295 13.2652 16.491 12.9029 16.936 12.9029Z" fill="white"/>
<path d="M23.3871 16.1287C24.7208 16.1287 25.8065 15.0431 25.8065 13.7094C25.8065 12.3757 24.7208 11.29 23.3871 11.29C22.0534 11.29 20.9678 12.3757 20.9678 13.7094C20.9678 15.0431 22.0534 16.1287 23.3871 16.1287ZM23.3871 12.9029C23.8321 12.9029 24.1936 13.2652 24.1936 13.7094C24.1936 14.1536 23.8321 14.5158 23.3871 14.5158C22.9422 14.5158 22.5807 14.1536 22.5807 13.7094C22.5807 13.2652 22.9422 12.9029 23.3871 12.9029Z" fill="white"/>
<path d="M30.6455 11.29H32.2584V12.9029H30.6455V11.29Z" fill="white"/>
<path d="M30.6455 14.5166H32.2584V16.1295H30.6455V14.5166Z" fill="white"/>
<path d="M33.8711 11.29H35.484V12.9029H33.8711V11.29Z" fill="white"/>
<path d="M33.8711 14.5166H35.484V16.1295H33.8711V14.5166Z" fill="white"/>
<path d="M37.0967 16.1287H46.7741V11.29H37.0967V16.1287ZM38.7096 12.9029H45.1612V14.5158H38.7096V12.9029Z" fill="white"/>
<path d="M30.6448 24.1934C26.6425 24.1934 23.3867 27.4491 23.3867 31.4514C23.3867 35.4538 26.6425 38.7095 30.6448 38.7095C34.6471 38.7095 37.9028 35.4538 37.9028 31.4514C37.9028 27.4491 34.6471 24.1934 30.6448 24.1934ZM30.6448 37.0966C27.5328 37.0966 24.9996 34.5634 24.9996 31.4514C24.9996 28.3394 27.5328 25.8063 30.6448 25.8063C33.7568 25.8063 36.2899 28.3394 36.2899 31.4514C36.2899 34.5634 33.7568 37.0966 30.6448 37.0966Z" fill="white"/>
</g>
<defs>
<clipPath id="clip0_13_2041">
<rect width="50" height="50" fill="white"/>
</clipPath>
</defs>
</svg>
