<svg width="50" height="50" viewBox="0 0 50 50" fill="none" xmlns="http://www.w3.org/2000/svg">
<path d="M37.903 38.7093C34.7903 38.7093 32.2578 36.1768 32.2578 33.0641C32.2578 29.9514 34.7903 27.4189 37.903 27.4189C41.0157 27.4189 43.5481 29.9514 43.5481 33.0641C43.5481 36.1768 41.0157 38.7093 37.903 38.7093ZM37.903 31.4512C37.0137 31.4512 36.2901 32.1748 36.2901 33.0641C36.2901 33.9534 37.0137 34.677 37.903 34.677C38.7923 34.677 39.5159 33.9534 39.5159 33.0641C39.5159 32.1748 38.7923 31.4512 37.903 31.4512Z" fill="#FD9C12"/>
<path d="M14.5165 41.9355H4.83909C3.06036 41.9355 1.61328 43.3826 1.61328 45.1614V46.7743C1.61328 48.553 3.06036 50.0001 4.83909 50.0001H14.5165C16.2952 50.0001 17.7423 48.553 17.7423 46.7743V45.1614C17.7423 43.3826 16.2952 41.9355 14.5165 41.9355ZM16.1294 46.7743C16.1294 47.6636 15.4058 48.3872 14.5165 48.3872H4.83909C3.94977 48.3872 3.22618 47.6636 3.22618 46.7743V45.1614C3.22618 44.272 3.94977 43.5485 4.83909 43.5485H14.5165C15.4058 43.5485 16.1294 44.272 16.1294 45.1614V46.7743Z" fill="white"/>
<path d="M4.26855 44.9247L5.3113 45.9673L4.26855 47.01L5.40908 48.1505L7.59214 45.9673L5.40908 43.7842L4.26855 44.9247Z" fill="white"/>
<path d="M8.30078 44.9247L9.34352 45.9673L8.30078 47.01L9.44131 48.1505L11.6244 45.9673L9.44131 43.7842L8.30078 44.9247Z" fill="white"/>
<path d="M12.333 44.9247L13.3757 45.9673L12.333 47.01L13.4735 48.1505L15.6566 45.9673L13.4735 43.7842L12.333 44.9247Z" fill="white"/>
<path d="M48.3871 30.6453V26.8523C48.3871 24.0113 46.2612 21.6031 43.4421 21.2508L41.6186 21.0229L38.3914 15.6441C37.377 13.9535 35.5222 12.9033 33.5507 12.9033H21.288C19.3164 12.9033 17.4616 13.9535 16.4473 15.644L13.2047 21.0485L4.60484 22.661C1.93659 23.1613 0 25.4948 0 28.2094V33.0646C0 34.3986 1.08538 35.484 2.41935 35.484H8.06452V33.0646C8.06452 31.9748 8.49254 30.9538 9.26966 30.1895C10.0466 29.4255 11.0729 29.015 12.166 29.033C14.3512 29.0695 16.129 30.9138 16.129 33.1442V35.484H24.1935V40.3227H22.5806V45.1614H19.3548V50.0001H33.871V45.1614H30.6452V40.3227H29.0323V35.484H32.8038C32.5649 34.9825 32.3984 34.4403 32.3165 33.8711H17.7419V33.1442C17.7419 32.8431 17.7179 32.5474 17.6729 32.2582H32.3166C32.3985 31.6889 32.565 31.1468 32.8039 30.6453H29.0323V22.5807H35.9096V27.7842C36.4166 27.592 36.9584 27.4716 37.5225 27.4338V21.584L35.4638 17.4665C35.0512 16.6415 34.2221 16.1291 33.2998 16.1291H21.288C20.443 16.1291 19.6481 16.5792 19.2134 17.3037L16.6663 21.5489L16.6219 29.7375C15.6081 28.3591 14.0002 27.4504 12.1928 27.4203C10.6681 27.3961 9.22631 27.97 8.13861 29.0395C7.65806 29.5121 7.27329 30.055 6.99294 30.6453H1.6129V29.0324H4.03226C5.81099 29.0324 7.25806 27.5853 7.25806 25.8065V25.0001H6.45161C5.60897 25.0001 4.78407 24.8362 4.01482 24.5219C4.29425 24.3983 4.59103 24.3045 4.90202 24.2463L14.2146 22.5002L17.8303 16.474C18.5549 15.2664 19.8797 14.5163 21.288 14.5163H33.5507C34.959 14.5163 36.2838 15.2664 37.0084 16.474L40.6395 22.5259L43.2421 22.8513C44.1483 22.9646 44.9534 23.3758 45.5658 23.9781C44.7784 24.6337 43.7809 25.0001 42.7419 25.0001H41.9355V25.8065C41.9355 27.5853 43.3826 29.0324 45.1613 29.0324H46.7742V30.6453H43.0026C43.2415 31.1468 43.4081 31.6889 43.4899 32.2582H48.3871V33.8711H43.4898C43.408 34.4403 43.2414 34.9825 43.0025 35.484H48.3871C49.2764 35.484 50 34.7604 50 33.8711V32.2582C50 31.3688 49.2764 30.6453 48.3871 30.6453ZM32.2581 48.3872H20.9677V46.7743H32.2581V48.3872ZM24.1935 45.1614V41.9356H29.0323V45.1614H24.1935ZM27.4194 40.3227H25.8065V35.484H27.4194V40.3227ZM27.4194 30.6453H18.2299L18.2737 22.5807H27.4194V30.6453ZM34.0212 18.1878L35.4112 20.9678H29.0323V17.742H33.2998C33.6073 17.742 33.8837 17.9129 34.0212 18.1878ZM20.5966 18.1336C20.7414 17.892 21.0064 17.742 21.288 17.742H27.4194V20.9678H18.896L20.5966 18.1336ZM6.50917 32.2582C6.47157 32.523 6.45161 32.7921 6.45161 33.0646V33.8711H2.41935C1.9747 33.8711 1.6129 33.5093 1.6129 33.0646V32.2582H6.50917ZM4.03226 27.4194H1.69173C1.82651 26.7443 2.13024 26.1252 2.56179 25.6128C3.4622 26.1094 4.44415 26.4275 5.4621 26.5526C5.19234 27.0674 4.65262 27.4194 4.03226 27.4194ZM45.1613 27.4194C44.5331 27.4194 43.9875 27.0585 43.7214 26.533C44.7259 26.3675 45.6713 25.9493 46.47 25.3203C46.6657 25.7947 46.7742 26.3123 46.7742 26.8523V27.4194H45.1613Z" fill="white"/>
<path d="M37.9028 30.6455C36.5687 30.6455 35.4834 31.7308 35.4834 33.0649C35.4834 34.3989 36.5687 35.4842 37.9028 35.4842C39.2368 35.4842 40.3221 34.3989 40.3221 33.0649C40.3221 31.7308 39.2368 30.6455 37.9028 30.6455ZM37.9028 33.8713C37.4581 33.8713 37.0963 33.5095 37.0963 33.0649C37.0963 32.6202 37.4581 32.2584 37.9028 32.2584C38.3474 32.2584 38.7092 32.6202 38.7092 33.0649C38.7092 33.5095 38.3474 33.8713 37.9028 33.8713Z" fill="white"/>
<path d="M1.88574 9.67742L2.58615 10.8878C3.88131 13.1258 6.28937 14.5161 8.87052 14.5161C11.2932 14.5161 13.5634 13.2913 14.904 11.2903H45.9673C48.1907 11.2903 49.9995 9.48145 49.9995 7.25806C49.9995 5.03468 48.1907 3.22581 45.9673 3.22581H14.904C13.5634 1.2248 11.2932 0 8.87052 0C6.28937 0 3.88131 1.39032 2.58615 3.62833L1.88574 4.83871H8.06407V9.67742H1.88574ZM4.92395 3.22581C5.96679 2.20796 7.38171 1.6129 8.87052 1.6129C10.878 1.6129 12.7511 2.69476 13.7588 4.43619L13.8152 4.53367C14.2734 5.36371 14.5157 6.30292 14.5157 7.25806V8.06452H38.7092V6.45161H16.0837C16.0222 5.9005 15.8958 5.35958 15.7121 4.83871H45.9673C47.3013 4.83871 48.3866 5.92409 48.3866 7.25806C48.3866 8.59204 47.3013 9.67742 45.9673 9.67742H13.9918L13.7588 10.0799C12.7511 11.8214 10.878 12.9032 8.87052 12.9032C7.38171 12.9032 5.96679 12.3082 4.92395 11.2903H9.67697V3.22581H4.92395Z" fill="white"/>
<path d="M40.3223 6.45117H41.9352V8.06407H40.3223V6.45117Z" fill="white"/>
<path d="M43.5488 6.45117H45.1617V8.06407H43.5488V6.45117Z" fill="white"/>
</svg>
