<?xml version="1.0" standalone="no"?>
<!DOCTYPE svg PUBLIC "-//W3C//DTD SVG 1.1//EN" "http://www.w3.org/Graphics/SVG/1.1/DTD/svg11.dtd" >
<svg xmlns="http://www.w3.org/2000/svg" xmlns:xlink="http://www.w3.org/1999/xlink" version="1.1">
<metadata>
Created by FontForge 20170731 at Wed Jun 12 10:54:41 2019
 By Aleksey,,,
Copyright 2017 The Literata Project Authors (https://github.com/googlefonts/literata)
</metadata>
<defs>
<font id="Literata-Italic" horiz-adv-x="500" >
  <font-face 
    font-family="Literata"
    font-weight="400"
    font-style="italic"
    font-stretch="normal"
    units-per-em="1000"
    panose-1="0 0 0 0 0 0 0 0 0 0"
    ascent="800"
    descent="-200"
    x-height="507"
    cap-height="700"
    bbox="-353 -270 1388 1137"
    underline-thickness="50"
    underline-position="-175"
    slope="-3"
    unicode-range="U+000D-FB02"
  />
<missing-glyph 
d="M55 700h400v-700h-400v700zM115 640v-580h280v580h-280z" />
    <glyph glyph-name="fi" unicode="fi" horiz-adv-x="622" 
d="M339 734q-56 0 -90 -35t-37 -97l-5 -95h143q20 0 49 7t52 7q41 0 59 -28t14 -85l-23 -318q-1 -25 3.5 -34t19.5 -9q12 0 26 7.5t36 26.5l25 -38q-18 -18 -38.5 -31t-42 -19.5t-42.5 -6.5q-40 0 -59.5 22.5t-15.5 68.5l26 331q2 21 -5 30.5t-25 9.5h-202l-14 -326
q-2 -63 -14 -123t-30.5 -108.5t-40.5 -74.5q-18 -22 -38.5 -33.5t-42.5 -11.5q-29 0 -48 13.5t-19 35.5q0 33 24 66l41 -17q29 -12 48 1.5t23 47.5q3 25 4.5 50t2.5 55l15 425h-86l7 52l81 8l3 51q4 69 32.5 119t77 77t112.5 27q51 0 89.5 -14t60 -39t21.5 -58
q0 -29 -18 -47t-48 -18q-17 0 -33 8t-26 22l12 29q14 33 -3 51t-61 18z" />
    <glyph glyph-name="fl" unicode="fl" horiz-adv-x="623" 
d="M443 617q-13 2 -25.5 9t-20.5 17l14 25q17 31 -7.5 48.5t-67.5 17.5q-65 0 -93.5 -38t-31.5 -94l-5 -95h144l-4 -59h-140l-14 -326q-2 -54 -12.5 -113.5t-29 -111t-43.5 -81.5q-37 -45 -81 -45q-31 0 -48.5 13.5t-17.5 34.5q0 14 5 31t18 36l41 -17q26 -10 46.5 0.5
t24.5 48.5q3 25 4.5 50t2.5 55l15 425h-86l7 52l81 8l3 51q4 64 28 114.5t71 79.5t119 29q26 0 65 -9t68 -31l42 25l16 -11l-23 -666q-1 -22 4 -32t21 -10t30.5 10t29.5 23l25 -38q-16 -16 -46.5 -36.5t-74.5 -20.5q-47 0 -62.5 25.5t-14.5 65.5z" />
    <glyph glyph-name="f_f" unicode="ff" horiz-adv-x="672" 
d="M27 -229q-31 0 -48.5 15t-17.5 40q0 29 23 60l41 -17q13 -5 25 -5q20 0 31 14t15.5 49t6.5 96l15 425h-86l7 52l81 8q10 86 36.5 140.5t70.5 81t108 26.5q41 0 74.5 -12.5t62.5 -39.5q27 39 67 58.5t90 19.5q41 0 72 -14t48.5 -39t17.5 -58q0 -26 -16 -42t-42 -16
q-16 0 -30 7t-23 19l10 27q2 6 4 14.5t2 15.5q0 38 -49 38q-48 0 -76 -35t-31 -97l-5 -95h144l-4 -59h-140l-14 -326q-3 -75 -17.5 -139t-37 -111.5t-51 -74t-60.5 -26.5q-31 0 -48.5 15t-17.5 40q0 29 23 60l41 -17q13 -5 25 -5q19 0 30 13.5t16 48t7 97.5l15 425h-215
l-14 -326q-3 -75 -17.5 -139t-37 -111.5t-51 -74t-60.5 -26.5zM207 508h217l3 51q3 45 13 75q-13 37 -41 55.5t-70 18.5q-52 0 -82 -33.5t-35 -98.5z" />
    <glyph glyph-name="f_f_i" unicode="ffi" horiz-adv-x="922" 
d="M27 -229q-31 0 -48.5 15t-17.5 40q0 29 23 60l41 -17q13 -5 25 -5q19 0 29.5 13t16 47.5t7.5 98.5l15 425h-86l7 52l81 8q15 128 67 188t148 60q81 0 137 -52q54 78 157 78q62 0 100 -30.5t38 -80.5q0 -26 -16 -42t-42 -16q-16 0 -30 7t-23 19l10 27q2 7 4 15t2 15
q0 38 -49 38q-48 0 -76 -35t-31 -97l-5 -95h231q47 0 65 -18t18 -62q0 -12 -0.5 -17.5t-0.5 -10.5l-23 -309q-1 -25 3.5 -34t19.5 -9q11 0 25 7.5t37 26.5l25 -38q-18 -18 -38.5 -31t-42 -19.5t-42.5 -6.5q-42 0 -60.5 22.5t-14.5 68.5l26 330q2 23 -3.5 32t-21.5 9h-203
l-14 -326q-3 -78 -17 -142t-36 -111t-51 -72.5t-62 -25.5q-31 0 -48.5 15t-17.5 40q0 29 23 60l41 -17q13 -5 25 -5q20 0 30.5 13t15.5 47.5t7 98.5l15 425h-215l-14 -326q-3 -77 -17 -141.5t-36.5 -111.5t-51 -72.5t-61.5 -25.5zM207 508h217q3 39 4.5 60.5t4.5 35.5t7 30
q-27 74 -111 74q-52 0 -82 -33.5t-35 -98.5z" />
    <glyph glyph-name="f_f_l" unicode="ffl" horiz-adv-x="915" 
d="M26 -229q-28 0 -47 13.5t-19 34.5q0 15 5 32t18 35l41 -17q26 -10 46.5 0.5t24.5 48.5q3 25 4.5 49.5t2.5 55.5l15 425h-86l7 52l81 8l3 25q13 105 65.5 164t146.5 59q47 0 79.5 -14.5t57.5 -37.5q26 37 65 57.5t92 20.5q40 0 77.5 -4t69 -10.5t50.5 -16.5l-25 -661
q-1 -24 4.5 -33.5t20.5 -8.5q17 2 31 11t29 22l25 -38q-16 -16 -46.5 -36.5t-74.5 -20.5q-47 0 -62.5 25.5t-14.5 65.5l17 371h-219l-14 -326q-2 -54 -13 -113.5t-29 -111t-43 -81.5q-37 -45 -81 -45q-30 0 -48 13t-18 35q0 15 5 32t18 35l41 -17q26 -10 46.5 0.5t24.5 48.5
q3 25 4.5 49.5t2.5 55.5l15 425h-215l-14 -326q-2 -54 -13 -113.5t-29 -111t-43 -81.5q-37 -45 -81 -45zM206 507l217 1l3 51q2 20 5 39t8 36q-13 35 -40 54.5t-71 19.5q-47 0 -79.5 -30.5t-37.5 -101.5zM510 507h221l9 193q-36 18 -64 26t-54 8q-52 0 -78 -38t-29 -94z" />
    <glyph glyph-name=".notdef" 
d="M55 700h400v-700h-400v700zM115 640v-580h280v580h-280z" />
    <glyph glyph-name=".null" horiz-adv-x="0" 
 />
    <glyph glyph-name="nonmarkingreturn" horiz-adv-x="333" 
 />
    <glyph glyph-name="CR" unicode="&#xd;" horiz-adv-x="0" 
 />
    <glyph glyph-name="space" unicode=" " horiz-adv-x="190" 
 />
    <glyph glyph-name="exclam" unicode="!" horiz-adv-x="329" 
d="M142 533q0 29 0.5 60t0.5 58q0 33 17.5 48.5t44.5 15.5q19 0 34.5 -7.5t24.5 -16.5q-11 -32 -21.5 -73t-20 -98t-18 -136.5t-14.5 -189.5h-48v339zM93 50q0 32 21 50.5t52 18.5t49.5 -18.5t18.5 -49.5t-21 -48t-52 -17t-49.5 16.5t-18.5 47.5z" />
    <glyph glyph-name="quotedbl" unicode="&#x22;" horiz-adv-x="402" 
d="M163 547h-34l-18 158q-1 10 0 19q1 22 16 39t40 17q14 0 27 -10t12 -27q0 -11 -4 -26zM315 547h-34l-18 158q-1 10 0 19q1 22 16 39t40 17q14 0 27 -10t12 -27q0 -11 -4 -26z" />
    <glyph glyph-name="numbersign" unicode="#" horiz-adv-x="674" 
d="M147 0l25 140h-123l13 51h121l33 176h-125l12 52h123l25 131h54l-25 -131h184l24 131h55l-25 -131h125l-11 -52h-123l-33 -176h130l-11 -51h-129l-26 -140h-54l26 140h-185l-26 -140h-54zM269 367l-32 -176h185l33 176h-186z" />
    <glyph glyph-name="dollar" unicode="$" horiz-adv-x="496" 
d="M237 -80l30 868h41l-30 -868h-41zM472 197q0 -62 -30.5 -109.5t-84.5 -74.5t-125 -27q-55 0 -98.5 16.5t-68.5 46t-25 66.5q0 32 17.5 52t45.5 20q19 0 37 -7t30 -19l-16 -33q-17 -35 6.5 -57t78.5 -22q69 0 110.5 36t41.5 94q0 25 -12 45t-42.5 41.5t-84.5 49.5
q-68 36 -108 67t-57 64t-17 73q0 57 29 101.5t80 69.5t117 25q51 0 92 -17.5t65 -47.5t24 -68q0 -28 -16.5 -46t-43.5 -18q-18 0 -36 7t-29 17l19 37q17 32 -6.5 53t-73.5 21q-67 0 -103 -27.5t-36 -80.5q0 -28 14.5 -52t50 -49t98.5 -58q62 -33 96 -59.5t47.5 -56.5
t13.5 -73z" />
    <glyph glyph-name="percent" unicode="%" horiz-adv-x="833" 
d="M573 597h69l-381 -608h-70zM55 429q0 62 23 99t59.5 53t75.5 16q36 0 68 -16t52 -50t20 -88q0 -55 -21.5 -92.5t-56.5 -57t-78 -19.5q-67 0 -104.5 44t-37.5 111zM128 433q0 -43 18 -75t57 -32q35 0 55.5 28.5t20.5 87.5q0 48 -18.5 76.5t-56.5 28.5q-33 0 -54.5 -27.5
t-21.5 -86.5zM478 144q0 62 23.5 99t59.5 53t75 16q36 0 68 -16t52 -50t20 -88q0 -55 -21.5 -92.5t-56.5 -57t-78 -19.5q-67 0 -104.5 44t-37.5 111zM551 148q0 -43 18 -75t57 -32q35 0 55.5 28.5t20.5 87.5q0 48 -18.5 76.5t-56.5 28.5q-33 0 -54.5 -27.5t-21.5 -86.5z" />
    <glyph glyph-name="ampersand" unicode="&#x26;" horiz-adv-x="725" 
d="M301 -14q-108 0 -169.5 46t-61.5 127q0 65 45.5 115.5t124.5 72.5l1 8q-153 15 -153 139q0 62 38 112t103 79.5t146 29.5q78 0 126.5 -33t48.5 -89q0 -29 -21.5 -49t-50.5 -20q-17 0 -31.5 8.5t-22.5 22.5l17 27q20 33 -4 56.5t-77 23.5q-79 0 -127 -43t-48 -113
q0 -61 33.5 -90t104.5 -29q14 0 28 1.5t35 4.5l5 -49q-107 -9 -165.5 -53t-58.5 -116q0 -66 37.5 -99t111.5 -33q86 0 138.5 46t52.5 122q0 75 -27 128l30 43l64 -8q29 -4 42 9t4 37l-15 39q14 8 27 10.5t26 2.5q28 0 44 -17t16 -46q0 -36 -28 -58.5t-73 -22.5
q-17 0 -39.5 2t-39.5 6l6 -8q23 -34 32.5 -64t7.5 -61q-3 -66 -39.5 -114.5t-98.5 -75.5t-145 -27z" />
    <glyph glyph-name="quotesingle" unicode="'" horiz-adv-x="250" 
d="M163 547h-34l-18 158q-1 10 0 19q1 22 16 39t40 17q14 0 27 -10t12 -27q0 -11 -4 -26z" />
    <glyph glyph-name="parenleft" unicode="(" horiz-adv-x="332" 
d="M84 276q0 92 24 185.5t71 182.5t114 167l36 -20q-49 -80 -83 -166t-51 -174.5t-17 -176.5q0 -84 16 -168.5t42 -160t54 -134.5l-37 -21q-27 32 -56.5 82.5t-55 114.5t-41.5 137.5t-16 151.5z" />
    <glyph glyph-name="parenright" unicode=")" horiz-adv-x="332" 
d="M269 325q0 -92 -24 -185.5t-70.5 -182t-114.5 -167.5l-36 20q50 80 83.5 166t50.5 174.5t17 176.5q0 85 -16 169t-41.5 159.5t-54.5 134.5l37 21q27 -32 56.5 -82.5t55 -114.5t41.5 -137.5t16 -151.5z" />
    <glyph glyph-name="asterisk" unicode="*" horiz-adv-x="473" 
d="M243 620l-15 107q-4 29 6.5 42t29.5 13q10 0 20 -4.5t18 -12.5l-30 -146l90 75q9 8 22.5 9t23.5 -7t10 -27q0 -6 -1 -13t-4 -15l-129 -45l100 -40q14 -5 20.5 -16t6.5 -22q0 -14 -11 -25.5t-34 -13.5l-98 94l18 -110q3 -19 -6 -32t-27 -14q-9 -1 -22 5t-21 19l28 133
l-81 -71q-9 -8 -25 -10t-28.5 5.5t-12.5 29.5q0 5 0.5 12.5t2.5 14.5l134 44l-96 32q-19 7 -25 15.5t-6 21.5q0 14 11 25.5t36 14.5z" />
    <glyph glyph-name="plus" unicode="+" horiz-adv-x="582" 
d="M330 276l-7 -195h-67l7 195h-177l2 63h177l7 182h67l-7 -182h184l-2 -63h-184z" />
    <glyph glyph-name="comma" unicode="," horiz-adv-x="328" 
d="M109 -168l-28 37q37 28 59.5 56.5t22.5 47.5q0 20 -22 28l-38 13q-11 28 -5.5 52.5t24 39.5t46.5 15q35 0 56.5 -24.5t21.5 -65.5q0 -33 -17 -68.5t-47.5 -69t-72.5 -61.5z" />
    <glyph glyph-name="hyphen" unicode="-" horiz-adv-x="354" 
d="M55 329h267l-3 -82h-267z" />
    <glyph glyph-name="period" unicode="." horiz-adv-x="319" 
d="M85 50q0 34 22 56t58 22q35 0 56 -19t21 -50q0 -36 -23.5 -56t-58.5 -20q-33 0 -54 17.5t-21 49.5z" />
    <glyph glyph-name="slash" unicode="/" horiz-adv-x="428" 
d="M373 802h63l-356 -912h-64z" />
    <glyph glyph-name="zero" unicode="0" horiz-adv-x="572" 
d="M52 303q0 125 34 217.5t96 143t146 50.5q104 0 163.5 -83t59.5 -230q0 -123 -34 -216.5t-95 -145.5t-142 -52q-72 0 -123 37.5t-78 108.5t-27 170zM314 662q-79 0 -122.5 -92t-43.5 -259q0 -130 37.5 -199.5t107.5 -69.5q77 0 119 94t42 266q0 131 -34.5 195.5
t-105.5 64.5z" />
    <glyph glyph-name="one" unicode="1" horiz-adv-x="392" 
d="M184 636h-127l7 51l191 25l17 -10l-23 -639l109 -16l-6 -47h-310l6 46l116 16z" />
    <glyph glyph-name="two" unicode="2" horiz-adv-x="522" 
d="M45 561q0 42 28.5 77t76.5 56t104 21q94 0 149.5 -49.5t55.5 -133.5q0 -34 -6.5 -64t-25 -63t-54 -76.5t-93 -104t-142.5 -146.5v-5h172q41 0 65 9.5t39.5 35t30.5 74.5h51l-25 -192h-415l-8 69q90 90 150.5 158.5t96.5 121.5t52 97t16 86q0 59 -33 95t-87 36
q-40 0 -68 -15t-36 -37.5t11 -44.5l21 -24q-8 -19 -25 -30.5t-37 -11.5q-29 0 -46.5 16.5t-17.5 44.5z" />
    <glyph glyph-name="three" unicode="3" horiz-adv-x="523" 
d="M462 557q0 -57 -36 -102.5t-100 -70.5v-8q83 -9 123.5 -47.5t40.5 -109.5q0 -65 -38.5 -118t-104 -84t-147.5 -31q-76 0 -122.5 31t-46.5 81q0 29 19.5 49t48.5 20q17 0 31.5 -8.5t23.5 -22.5l-16 -27q-17 -29 2 -49.5t63 -20.5q55 0 96 22.5t64 62.5t23 93
q0 59 -34.5 89t-102.5 30q-39 0 -71 -6l-7 49q95 11 147.5 56t52.5 115q0 55 -32 84t-93 29q-40 0 -65.5 -12.5t-31 -32.5t13.5 -42l21 -24q-8 -19 -25 -30.5t-37 -11.5q-28 0 -44.5 16.5t-16.5 44.5q0 40 27.5 72.5t74 52t102.5 19.5q94 0 145.5 -41.5t51.5 -116.5z" />
    <glyph glyph-name="four" unicode="4" horiz-adv-x="553" 
d="M428 239h109l-6 -66h-106l-4 -111l88 -14l-6 -48h-310l6 44l135 18l5 111h-314l-7 48l335 474l86 15l11 -9zM342 239l21 367l-260 -367h239z" />
    <glyph glyph-name="five" unicode="5" horiz-adv-x="519" 
d="M388 246q0 71 -31.5 105t-96.5 34q-28 0 -61.5 -7.5t-71.5 -22.5l-31 36l28 295l16 14h323l-12 -87h-272l-23 -194q25 16 65.5 26t76.5 10q88 0 138.5 -53t50.5 -144q0 -80 -37 -141.5t-102.5 -96t-151.5 -34.5q-76 0 -122.5 31t-46.5 81q0 29 19.5 49t48.5 20
q17 0 31.5 -8.5t23.5 -22.5l-16 -27q-17 -29 1.5 -49.5t63.5 -20.5q57 0 99.5 26t66 73t23.5 108z" />
    <glyph glyph-name="six" unicode="6" horiz-adv-x="539" 
d="M271 -14q-102 0 -158.5 76t-56.5 215q0 129 40 228t111 154.5t164 55.5q66 0 107.5 -33t41.5 -85q0 -28 -16.5 -46t-43.5 -18q-18 0 -36 7t-29 17l19 37q14 28 -0.5 46t-51.5 18q-55 0 -101.5 -40t-77.5 -109.5t-41 -160.5l4 -3q54 56 101.5 82.5t94.5 26.5
q78 0 122 -51.5t44 -143.5q0 -80 -30.5 -141.5t-83.5 -96.5t-123 -35zM273 42q66 0 104 54.5t38 149.5q0 70 -24 106.5t-70 36.5q-26 0 -57.5 -15t-62 -41t-55.5 -60q-2 -69 13 -121t44.5 -81t69.5 -29z" />
    <glyph glyph-name="seven" unicode="7" horiz-adv-x="515" 
d="M158 0l-6 10l299 603h-257q-37 0 -54.5 -12t-28.5 -46l-16 -53l-51 8l26 190h445l8 -51l-258 -649h-107z" />
    <glyph glyph-name="eight" unicode="8" horiz-adv-x="533" 
d="M45 167q0 64 38 115.5t112 89.5q-111 64 -111 164q0 54 27 94t76 62.5t114 22.5q84 0 135.5 -41.5t51.5 -109.5q0 -103 -124 -179q77 -40 108.5 -82t31.5 -107q0 -60 -31.5 -107.5t-85.5 -75t-124 -27.5q-64 0 -113.5 23t-77 64t-27.5 94zM244 348q-56 -34 -82 -74
t-26 -92q0 -64 36 -101t98 -37q66 0 103.5 38.5t37.5 105.5q0 26 -5.5 44t-22.5 34t-50.5 35.5t-88.5 46.5zM169 552q0 -44 31 -75t110 -67q51 34 74.5 67.5t23.5 73.5q0 50 -30 79.5t-82 29.5q-59 0 -93 -28.5t-34 -79.5z" />
    <glyph glyph-name="nine" unicode="9" horiz-adv-x="531" 
d="M232 -14q-34 0 -70 13.5t-66 37.5t-48 54l37 36q32 -35 71 -55t76 -20q82 0 132 79t60 225l-4 3q-54 -56 -101.5 -82.5t-94.5 -26.5q-78 0 -122 52t-44 143q0 79 30.5 140t84 95.5t122.5 34.5q103 0 159 -75t56 -213q0 -142 -32 -240.5t-94 -149.5t-152 -51zM245 315
q26 0 57.5 15t62.5 41.5t55 59.5q2 67 -14 118t-45 80.5t-68 29.5q-64 0 -103 -54.5t-39 -146.5q0 -70 24 -106.5t70 -36.5z" />
    <glyph glyph-name="colon" unicode=":" horiz-adv-x="319" 
d="M85 50q0 34 22 56t58 22q35 0 56 -19t21 -50q0 -36 -23.5 -56t-58.5 -20q-33 0 -54 17.5t-21 49.5zM102 441q0 34 22 56t58 22q35 0 56 -19t21 -50q0 -36 -23.5 -56t-58.5 -20q-33 0 -54 17.5t-21 49.5z" />
    <glyph glyph-name="semicolon" unicode=";" horiz-adv-x="328" 
d="M102 441q0 34 22 56t58 22q35 0 56 -19t21 -50q0 -36 -23.5 -56t-58.5 -20q-33 0 -54 17.5t-21 49.5zM100 -168l-28 37q37 28 59.5 56.5t22.5 47.5q0 20 -22 28l-38 13q-11 28 -5.5 52.5t24 39.5t46.5 15q35 0 56.5 -24.5t21.5 -65.5q0 -33 -17 -68.5t-47.5 -69
t-72.5 -61.5z" />
    <glyph glyph-name="less" unicode="&#x3c;" horiz-adv-x="582" 
d="M466 532l28 -52l-337 -195l324 -194l-32 -54l-370 226l1 42z" />
    <glyph glyph-name="equal" unicode="=" horiz-adv-x="582" 
d="M83 182l2 63h428l-2 -63h-428zM89 362l2 63h428l-2 -63h-428z" />
    <glyph glyph-name="greater" unicode="&#x3e;" horiz-adv-x="582" 
d="M135 37l-28 54l336 194l-323 195l32 52l370 -227l-1 -42z" />
    <glyph glyph-name="question" unicode="?" horiz-adv-x="512" 
d="M178 382q98 21 145.5 66.5t47.5 103.5q0 51 -30.5 81t-88.5 30q-41 0 -66.5 -13t-30.5 -32.5t14 -41.5l21 -24q-7 -18 -24 -30t-38 -12q-28 0 -44.5 16.5t-16.5 44.5q0 46 30.5 78t77 49t92.5 17q53 0 96 -18t69 -55t26 -95q0 -49 -21.5 -92.5t-67 -78t-117.5 -57.5
l27 -125h-63zM176 50q0 32 21 50.5t52 18.5t49.5 -18.5t18.5 -49.5t-21 -48t-52 -17t-49.5 16.5t-18.5 47.5z" />
    <glyph glyph-name="at" unicode="@" horiz-adv-x="860" 
d="M436 395q30 0 57 -6t47 -17l52 22l14 -6l-10 -287q-1 -37 5 -47t29 -10q45 0 80 49.5t35 143.5q0 129 -71.5 203t-222.5 74q-90 0 -162.5 -38t-115.5 -111t-43 -179q0 -90 27 -151t71 -96.5t96 -51t101 -15.5q72 0 119.5 20t87.5 52l32 -39q-91 -88 -243 -88
q-69 0 -133 21t-114.5 65.5t-79.5 114t-29 166.5q0 109 45.5 195.5t132 137.5t208.5 51q108 0 187.5 -36t123.5 -107.5t44 -180.5q0 -88 -28 -144.5t-74 -83.5t-99 -27q-35 0 -51 11t-20 32.5t-3 50.5l6 127h-4l-21 -73q-14 -49 -34.5 -82t-46.5 -49.5t-56 -16.5
q-49 0 -78 20.5t-42 56.5t-13 81q0 88 27.5 142.5t72 80t94.5 25.5zM528 330q-16 8 -38.5 12.5t-43.5 4.5q-44 0 -71.5 -28.5t-40 -73t-12.5 -92.5q0 -46 13.5 -73.5t48.5 -27.5q27 0 47 23.5t35.5 62.5t29.5 85z" />
    <glyph glyph-name="A" unicode="A" horiz-adv-x="691" 
d="M421 706l182 -649l85 -11l-6 -46h-266l6 46l81 12l-46 173h-240l-60 -173l91 -12l-6 -46h-234l6 46l79 12l229 637zM237 288h205l-87 331h-3z" />
    <glyph glyph-name="B" unicode="B" horiz-adv-x="615" 
d="M562 549q0 -55 -40 -102t-109 -73v-5q177 -24 177 -164q0 -97 -81 -151t-225 -54h-234l5 44l89 16l25 577l-87 17l6 46h227q125 0 186 -37t61 -114zM290 378q175 27 175 159q0 57 -38 83t-121 26h-51l-23 -592h64q197 0 197 154q0 126 -145 126q-17 0 -29.5 -1t-30.5 -5z
" />
    <glyph glyph-name="C" unicode="C" horiz-adv-x="624" 
d="M489 571q17 34 -16 57.5t-98 23.5q-106 0 -163 -82.5t-57 -235.5q0 -84 24.5 -147t69.5 -97.5t105 -34.5q53 0 100 27.5t96 85.5l39 -40q-103 -142 -245 -142q-86 0 -149.5 42t-98.5 118t-35 179q0 119 39.5 206.5t111 135.5t167.5 48q61 0 111 -20t79.5 -53.5
t29.5 -75.5q0 -26 -15.5 -42.5t-39.5 -16.5q-42 0 -72 30z" />
    <glyph glyph-name="D" unicode="D" horiz-adv-x="732" 
d="M50 0l5 45l89 15l25 577l-87 17l6 46h267q161 0 249.5 -80.5t88.5 -227.5q0 -124 -50 -211.5t-145 -134t-230 -46.5h-218zM232 55h28q163 0 249.5 84.5t86.5 243.5q0 125 -66 194t-186 69h-89z" />
    <glyph glyph-name="E" unicode="E" horiz-adv-x="600" 
d="M168 637l-86 17l6 46h454l14 -168l-55 -9l-11 36q-10 35 -21.5 53t-28.5 24.5t-46 6.5h-139l-10 -252h249l-5 -63h-247l-11 -270h157q44 0 65 17.5t38 67.5l14 41h55l-24 -184h-479l6 46l82 13z" />
    <glyph glyph-name="F" unicode="F" horiz-adv-x="561" 
d="M63 46l82 13l23 578l-86 17l6 46h454l14 -167l-54 -10l-13 39q-11 33 -22.5 50.5t-28 24t-44.5 6.5h-139l-11 -260h239l-5 -63h-237l-12 -262l129 -12l-6 -46h-295z" />
    <glyph glyph-name="G" unicode="G" horiz-adv-x="639" 
d="M602 332l-12 -273q-29 -21 -68 -37.5t-80.5 -26t-80.5 -9.5q-91 0 -158.5 41.5t-104.5 118t-37 179.5q0 119 41 206.5t116 135.5t176 48q64 0 115 -20t81 -53.5t30 -75.5q0 -26 -15.5 -42.5t-39.5 -16.5q-20 0 -39 8t-33 22l17 34q17 35 -16.5 58t-100.5 23
q-113 0 -175.5 -83.5t-62.5 -235.5q0 -86 26 -149.5t73 -98t111 -34.5q39 0 76.5 10t63.5 27l7 178l-85 20l6 46h169z" />
    <glyph glyph-name="H" unicode="H" horiz-adv-x="769" 
d="M557 328h-314l-10 -269l95 -13l-6 -46h-265l6 46l82 13l23 578l-86 17l6 46h258l-6 -46l-85 -17l-10 -246h314l11 246l-86 17l6 46h257l-6 -46l-85 -17l-22 -578l95 -13l-6 -46h-265l6 46l82 13z" />
    <glyph glyph-name="I" unicode="I" horiz-adv-x="366" 
d="M168 637l-86 17l6 46h256l-6 -46l-85 -17l-22 -578l95 -13l-6 -46h-265l6 46l82 13z" />
    <glyph glyph-name="J" unicode="J" horiz-adv-x="367" 
d="M169 637l-102 17l6 46h272l-6 -46l-85 -17l-22 -578q-2 -61 -18 -107.5t-51.5 -89t-97.5 -91.5l-27 39q39 43 61 79.5t32.5 76t12.5 93.5z" />
    <glyph glyph-name="K" unicode="K" horiz-adv-x="695" 
d="M580 -14q-44 0 -72 16t-49.5 60t-47.5 129q-15 51 -34 82.5t-45 48t-63 20.5l2 31l254 266l-82 13l9 48h238l-7 -47l-78 -15l-249 -250v-6q41 -17 67.5 -38t44.5 -53t33 -83q21 -68 36 -103.5t31 -47.5t39 -12t59 18l20 -35q-20 -19 -48.5 -30.5t-57.5 -11.5zM55 0l6 46
l82 13l25 578l-86 17l6 46h256l-6 -46l-85 -17l-22 -578l95 -13l-6 -46h-265z" />
    <glyph glyph-name="L" unicode="L" horiz-adv-x="589" 
d="M62 46l82 13l24 578l-86 17l6 46h277l-6 -46l-105 -17l-24 -579h150q44 0 65.5 17.5t37.5 67.5l16 51h55l-26 -194h-472z" />
    <glyph glyph-name="M" unicode="M" horiz-adv-x="932" 
d="M717 622l-201 -616l-97 -17l-184 623l-38 -552l89 -14l-6 -46h-238l6 46l83 14l40 577l-85 17l6 46h211l176 -614l201 614h207l-6 -48l-79 -15l20 -578l95 -13l-6 -46h-265l6 46l82 13z" />
    <glyph glyph-name="N" unicode="N" horiz-adv-x="743" 
d="M561 119l18 518l-85 17l6 46h237l-6 -46l-85 -17l-25 -637l-92 -11l-304 630l-20 -560l94 -13l-6 -46h-243l6 46l81 13l24 582l-79 11l6 48h197z" />
    <glyph glyph-name="O" unicode="O" horiz-adv-x="715" 
d="M61 328q0 119 40 205.5t113 134t173 47.5q89 0 153.5 -40.5t100 -115.5t35.5 -177q0 -119 -40 -208t-112 -138.5t-169 -49.5q-89 0 -155.5 42t-102.5 119t-36 181zM156 349q0 -138 57 -218t155 -80q101 0 155.5 82t54.5 231q0 137 -53.5 213t-151.5 76q-103 0 -160 -80
t-57 -224z" />
    <glyph glyph-name="P" unicode="P" horiz-adv-x="584" 
d="M287 339q7 -1 14 -1h17q154 0 154 165q0 143 -166 143h-51l-23 -587l128 -14l-4 -45h-306l5 44l89 16l25 577l-87 17l6 46h227q125 0 189.5 -50t64.5 -148q0 -65 -31 -114.5t-86.5 -76.5t-129.5 -27q-9 0 -18.5 1t-19.5 2z" />
    <glyph glyph-name="Q" unicode="Q" horiz-adv-x="712" 
d="M62 346q0 114 40 196.5t113 127.5t173 45q88 0 152.5 -40t100.5 -113t36 -172q0 -106 -33 -181.5t-98 -120t-161 -56.5v-8q40 -7 73.5 -22.5t73.5 -44.5q54 -39 76.5 -43t29.5 23l8 30q41 0 64 -17.5t23 -49.5t-23 -53t-59 -21q-33 0 -69 17t-86 57q-42 35 -68.5 52.5
t-46.5 23.5t-46 6q-18 0 -33.5 -3t-36.5 -10.5t-54 -22.5l-24 54q23 11 45.5 19.5t44.5 12.5v5q-67 18 -115.5 60.5t-74 106t-25.5 142.5zM157 355q0 -136 53 -208t153 -72q66 0 114.5 37.5t75 105t26.5 158.5q0 130 -54.5 203.5t-150.5 73.5q-104 0 -160.5 -77.5
t-56.5 -220.5z" />
    <glyph glyph-name="R" unicode="R" horiz-adv-x="681" 
d="M290 370q81 2 128 43t47 110q0 66 -37 94.5t-122 28.5h-51l-22 -588l108 -14l-5 -44h-286l5 44l89 16l25 577l-87 17l6 46h227q128 0 187.5 -40.5t59.5 -127.5q0 -48 -26.5 -89t-73.5 -68t-107 -34v-3q34 -14 54.5 -35t39.5 -60l58 -120q23 -46 41.5 -62t48.5 -16
q23 0 59 18l20 -35q-20 -19 -48.5 -30.5t-57.5 -11.5q-55 0 -92.5 27t-62.5 85l-42 99q-23 55 -41.5 81.5t-45.5 42.5z" />
    <glyph glyph-name="S" unicode="S" horiz-adv-x="496" 
d="M472 197q0 -62 -30.5 -109.5t-84.5 -74.5t-125 -27q-55 0 -98.5 16.5t-68.5 46t-25 66.5q0 32 17.5 52t45.5 20q19 0 37 -7t30 -19l-16 -33q-17 -35 6.5 -57t78.5 -22q69 0 110.5 36t41.5 94q0 25 -12 45t-42.5 41.5t-84.5 49.5q-68 36 -108 67t-57 64t-17 73
q0 57 29 101.5t80 69.5t117 25q51 0 92 -17.5t65 -47.5t24 -68q0 -28 -16.5 -46t-43.5 -18q-18 0 -36 7t-29 17l19 37q17 32 -6.5 53t-73.5 21q-67 0 -103 -27.5t-36 -80.5q0 -28 14.5 -52t50 -49t98.5 -58q62 -33 96 -59.5t47.5 -56.5t13.5 -73z" />
    <glyph glyph-name="T" unicode="T" horiz-adv-x="621" 
d="M165 46l105 13l25 584h-88q-30 0 -47.5 -6t-28.5 -23.5t-22 -51.5l-13 -39l-56 11l24 166h553l14 -167l-54 -10l-13 39q-11 33 -22.5 50.5t-28 24t-44.5 6.5h-89l-26 -585l109 -12l-6 -46h-298z" />
    <glyph glyph-name="U" unicode="U" horiz-adv-x="758" 
d="M617 60l86 -13l-7 -47h-152l-7 12l35 353h-4q-31 -138 -68.5 -221t-85.5 -120.5t-114 -37.5q-92 0 -136 60t-38 176l22 417l-76 15l6 46h248l-6 -46l-85 -17l-21 -407q-4 -91 19 -131.5t80 -40.5q46 0 82 31t63.5 84t47.5 119.5t34 138.5t23 139l9 67l-83 17l6 46h232
l-6 -46l-73 -17z" />
    <glyph glyph-name="V" unicode="V" horiz-adv-x="690" 
d="M359 86h4l200 552l-87 18l6 44h237l-7 -48l-80 -17l-234 -633l-103 -13l-190 649l-77 15l7 47h263l-6 -47l-88 -13z" />
    <glyph glyph-name="W" unicode="W" horiz-adv-x="1001" 
d="M710 86h4l160 552l-87 18l6 44h237l-7 -48l-80 -17l-194 -635l-105 -10l-117 418l-159 -408l-105 -10l-158 648l-77 15l7 47h263l-6 -47l-88 -13l125 -554h4l165 426l-48 173l96 16z" />
    <glyph glyph-name="X" unicode="X" horiz-adv-x="693" 
d="M172 61l81 -17l-6 -44h-232l7 48l77 16l203 280l-189 295l-70 14l7 47h256l-6 -47l-76 -12l137 -228l156 225l-82 18l6 44h232l-7 -48l-78 -17l-193 -268l196 -305l86 -15l-7 -47h-264l6 47l74 12l-149 238z" />
    <glyph glyph-name="Y" unicode="Y" horiz-adv-x="670" 
d="M366 327h4l173 311l-87 18l6 44h237l-7 -48l-80 -17l-218 -374l-8 -202l95 -13l-6 -46h-265l6 46l82 13l11 200l-204 379l-77 15l7 47h258l-6 -47l-83 -13z" />
    <glyph glyph-name="Z" unicode="Z" horiz-adv-x="611" 
d="M579 650l-413 -595h210q40 0 64 8.5t38.5 30t25.5 60.5l13 45h55l-26 -199h-491l2 48l415 599h-206q-36 0 -56 -6.5t-32 -25t-23 -55.5l-14 -46l-57 10l25 176h464z" />
    <glyph glyph-name="bracketleft" unicode="[" horiz-adv-x="333" 
d="M182 -154l105 -9l-6 -49h-184l38 1024h181l-4 -48l-97 -9z" />
    <glyph glyph-name="backslash" unicode="\" horiz-adv-x="428" 
d="M404 -110h-64l-292 912h63z" />
    <glyph glyph-name="bracketright" unicode="]" horiz-adv-x="333" 
d="M173 754l-100 9l6 49h179l-38 -1024h-185l4 52l101 9z" />
    <glyph glyph-name="asciicircum" unicode="^" horiz-adv-x="582" 
d="M547 374l-50 -30l-184 291l-204 -291l-48 30l233 338h42z" />
    <glyph glyph-name="underscore" unicode="_" 
d="M11 -103l2 63h470l-2 -63h-470z" />
    <glyph glyph-name="grave" unicode="`" 
d="M358 605l-25 -25l-134 98q-31 23 -29 50q1 17 16.5 30t46.5 11z" />
    <glyph glyph-name="a" unicode="a" horiz-adv-x="575" 
d="M466 90q-1 -25 4.5 -34t20.5 -9q10 0 22.5 6.5t26.5 18.5l25 -38q-16 -16 -47 -32t-62 -16q-77 0 -68 100l17 188l-7 1l-22 -82q-18 -67 -40 -113t-53.5 -70t-79.5 -24q-53 0 -87.5 28t-51 76.5t-16.5 110.5q0 95 30 167t82 112.5t118 40.5q35 0 65.5 -8t48.5 -17l70 23
l17 -8zM216 54q23 0 40.5 10t32.5 38t32.5 79.5t40.5 135.5l33 119q-19 10 -50 17t-58 7q-44 0 -77.5 -32.5t-52 -90t-18.5 -132.5q0 -79 18.5 -115t58.5 -36z" />
    <glyph glyph-name="b" unicode="b" horiz-adv-x="574" 
d="M282 -14q-32 0 -68.5 6.5t-69 17t-54.5 22.5l23 666l-93 21l6 48h156l16 -11l-12 -331l-27 -235l8 -2l37 138q18 68 41 111t54.5 63.5t76.5 20.5q77 0 112.5 -57t35.5 -156q0 -104 -31 -176t-85.5 -109t-125.5 -37zM363 451q-24 0 -41 -9.5t-32.5 -37.5t-33.5 -80
t-42 -138l-33 -115q18 -8 42.5 -15.5t57.5 -7.5q35 0 63 18.5t48 52.5t31 80.5t11 101.5q0 38 -4.5 72.5t-19.5 56t-47 21.5z" />
    <glyph glyph-name="c" unicode="c" horiz-adv-x="488" 
d="M291 521q44 0 78 -15.5t54 -43.5t20 -68q0 -28 -16 -46t-45 -18q-21 0 -37.5 12t-24.5 30l21 24q20 22 16 37.5t-23 23.5t-45 8q-46 0 -80 -26t-52.5 -78.5t-18.5 -132.5q0 -48 13.5 -88t41 -64t68.5 -24q35 0 69.5 19.5t68.5 57.5l35 -36q-9 -12 -25.5 -30t-41 -35.5
t-55.5 -29.5t-69 -12q-63 0 -107 31t-66.5 85.5t-22.5 122.5q0 86 30 153t85 105t129 38z" />
    <glyph glyph-name="d" unicode="d" horiz-adv-x="575" 
d="M464 86q-1 -22 4.5 -31t21.5 -9q14 0 28 7.5t29 17.5l23 -34q-11 -10 -30.5 -22t-41.5 -20.5t-43 -8.5q-44 0 -58 28.5t-10 71.5l16 188l-7 1l-23 -86q-18 -67 -39.5 -112t-54 -68t-82.5 -23q-53 0 -86.5 30t-49 80.5t-15.5 109.5q0 94 29 164.5t81.5 110.5t122.5 40
q30 0 62 -8t50 -17l8 202l-93 21l6 48h156l16 -11zM213 54q24 0 42 11t33.5 39t33 79.5t39.5 132.5l33 121q-19 10 -51.5 16.5t-55.5 6.5q-47 0 -81 -32.5t-52 -88.5t-18 -128q0 -78 19.5 -117.5t57.5 -39.5z" />
    <glyph glyph-name="e" unicode="e" horiz-adv-x="480" 
d="M287 521q75 0 110 -34.5t35 -92.5q0 -55 -28 -88t-70 -51t-85 -29l-111 -27q3 -33 17 -67t41.5 -57t68.5 -23q33 0 63 15t67 50l34 -37q-11 -14 -35.5 -36.5t-61.5 -40t-87 -17.5q-64 0 -108.5 31t-67 85.5t-22.5 122.5q0 86 30 153t84 105t126 38zM343 391
q0 29 -14 51.5t-49 22.5q-62 0 -99.5 -55.5t-42.5 -153.5l101 26q53 14 78.5 37t25.5 72z" />
    <glyph glyph-name="f" unicode="f" horiz-adv-x="367" 
d="M318 734q-52 0 -78 -38t-29 -94l-5 -95h144l-4 -59h-140l-14 -326q-2 -54 -13 -113.5t-29 -111t-43 -81.5q-18 -22 -38.5 -33.5t-42.5 -11.5q-29 0 -47.5 13.5t-18.5 34.5q0 36 23 67l41 -17q26 -10 46.5 0.5t24.5 48.5q2 20 4 46.5t3 58.5l15 425h-86l7 52l81 8l3 51
q4 64 27.5 114.5t67 79.5t107.5 29q31 0 62.5 -10.5t53.5 -34.5t22 -66q0 -26 -16 -42t-42 -16q-16 0 -30 7t-23 19l10 27q25 68 -43 68z" />
    <glyph glyph-name="g" unicode="g" horiz-adv-x="552" 
d="M405 274l-7 1l-23 -86q-18 -67 -39.5 -111.5t-54 -66.5t-82.5 -22q-53 0 -86.5 29.5t-49 79t-15.5 108.5q0 94 29 164.5t81.5 110.5t122.5 40q30 0 64.5 -6t63.5 -18l38 25l30 -10l-16 -431q-2 -59 -15.5 -114.5t-43.5 -100t-79.5 -70.5t-123.5 -26q-35 0 -70 9
t-58.5 30.5t-23.5 57.5q0 34 19 53.5t45 19.5q16 0 32 -7t25 -19l-9 -29q-10 -34 2.5 -50t53.5 -16q78 0 120 69.5t52 187.5zM215 57q24 0 42 11t34 39t33 79t39 130l33 121q-19 10 -51.5 16.5t-55.5 6.5q-47 0 -81 -32.5t-52 -88.5t-18 -128q0 -73 18 -113.5t59 -40.5z" />
    <glyph glyph-name="h" unicode="h" horiz-adv-x="598" 
d="M581 38q-11 -10 -31 -21.5t-42.5 -19.5t-43.5 -8q-30 0 -46.5 10.5t-22.5 29.5t-4 43l25 282q5 53 -4.5 73t-34.5 20q-30 0 -46.5 -25t-39.5 -92l-117 -330h-82l26 698l-93 21l6 48h156l16 -11l-14 -347l-24 -257l7 -2l73 217q27 80 61.5 117t91.5 37q67 0 89 -43
t14 -130l-22 -255q-2 -22 2.5 -32.5t20.5 -10.5q11 0 26.5 6.5t29.5 17.5z" />
    <glyph glyph-name="i" unicode="i" horiz-adv-x="306" 
d="M123 416q2 23 -3.5 32t-21.5 9q-13 0 -27.5 -3.5t-35.5 -12.5l-16 45q19 11 51 23t65 12q41 0 59.5 -27t13.5 -86l-23 -318q-1 -22 3 -32.5t20 -10.5q11 0 26.5 8.5t35.5 25.5l25 -38q-10 -10 -28 -23.5t-42 -23.5t-53 -10q-47 0 -62.5 27.5t-12.5 63.5zM96 686
q0 29 18 48t47 19t46.5 -18.5t17.5 -47.5t-17.5 -48t-46.5 -19t-47 18.5t-18 47.5z" />
    <glyph glyph-name="j" unicode="j" horiz-adv-x="289" 
d="M191 122q-2 -54 -12.5 -113.5t-29 -111t-43.5 -81.5q-18 -22 -38.5 -33.5t-42.5 -11.5q-31 0 -49 15.5t-18 34.5q0 14 5.5 30.5t18.5 34.5l41 -17q26 -10 46.5 0.5t24.5 48.5q3 25 4.5 46.5t2.5 58.5l16 393q1 23 -4.5 32t-20.5 9q-28 0 -63 -16l-16 45q19 11 51 23
t65 12q41 0 59 -27t14 -86zM83 686q0 29 18 48t47 19t46.5 -18.5t17.5 -47.5t-17.5 -48t-46.5 -19t-47 18.5t-18 47.5z" />
    <glyph glyph-name="k" unicode="k" horiz-adv-x="564" 
d="M121 698l-93 21l6 48h155l16 -11l-21 -457q41 8 80 23t79 42q30 20 35 41t-15 33l-28 17q6 32 27 49t49 17q32 0 49 -21t17 -49q0 -39 -23.5 -68t-76.5 -62q-18 -11 -35.5 -20.5t-34.5 -17.5l105 -178q18 -30 32 -44t33 -14q17 0 29.5 6t25.5 13l22 -36q-15 -14 -45 -29
t-65 -15q-33 0 -56.5 18t-48.5 61l-107 188q-13 -4 -25 -7.5t-25 -6.5l-11 -239h-81z" />
    <glyph glyph-name="l" unicode="l" horiz-adv-x="294" 
d="M118 698l-93 21l6 48h155l16 -11l-23 -666q-1 -22 4 -32t21 -10q11 0 26 8.5t34 24.5l25 -38q-10 -10 -27.5 -23.5t-41 -23.5t-52.5 -10q-47 0 -62.5 25.5t-14.5 65.5z" />
    <glyph glyph-name="m" unicode="m" horiz-adv-x="883" 
d="M408 354q5 53 -6 73t-36 20q-20 0 -32.5 -10.5t-22.5 -36t-25 -70.5l-107 -330h-82l16 416q1 21 -5 30.5t-22 9.5q-8 0 -21 -4t-38 -14l-17 50q11 6 30.5 14t42 13.5t42.5 5.5q43 0 59 -26t11 -76l-25 -267l7 -2l64 217q24 81 55.5 117.5t88.5 36.5q62 0 83.5 -41.5
t13.5 -122.5l-22 -208l8 -2l72 220q26 80 57 117t88 37q67 0 88 -43t13 -130l-22 -258q-2 -22 2.5 -32.5t20.5 -10.5q26 0 56 24l23 -36q-11 -10 -31 -21.5t-42.5 -19.5t-43.5 -8q-45 0 -60.5 23.5t-12.5 59.5l25 285q5 53 -3.5 73t-33.5 20q-16 0 -26.5 -8t-22 -33
t-30.5 -76l-121 -330h-85z" />
    <glyph glyph-name="n" unicode="n" horiz-adv-x="603" 
d="M586 35q-11 -10 -31 -21.5t-42.5 -19.5t-43.5 -8q-81 0 -73 83l25 285q5 53 -4.5 73t-34.5 20q-20 0 -33.5 -10.5t-25 -36t-27.5 -70.5l-117 -330h-82l16 416q1 22 -5.5 31t-21.5 9q-10 0 -24 -4.5t-35 -13.5l-17 50q11 6 30.5 14t42 13.5t42.5 5.5q43 0 59 -26t11 -76
l-25 -267l7 -2l73 217q27 80 61.5 117t91.5 37q67 0 89 -43t14 -130l-22 -258q-2 -22 2.5 -32.5t20.5 -10.5q11 0 26.5 6.5t29.5 17.5z" />
    <glyph glyph-name="o" unicode="o" horiz-adv-x="539" 
d="M254 -14q-99 0 -152.5 68t-53.5 181q0 56 13 107.5t40.5 91.5t72.5 63.5t109 23.5q66 0 112.5 -30.5t71 -86t24.5 -130.5q0 -76 -24 -141.5t-76 -106t-137 -40.5zM260 45q54 0 83.5 32.5t41.5 85t12 112.5q0 55 -11.5 97t-38 66.5t-72.5 24.5q-40 0 -66 -19t-40.5 -51.5
t-20 -74.5t-5.5 -87q0 -83 28 -134.5t89 -51.5z" />
    <glyph glyph-name="p" unicode="p" horiz-adv-x="579" 
d="M112 421q1 17 -5 26t-19 9q-11 0 -31 -5.5t-31 -13.5l-17 51q16 8 34 15.5t39 12.5t44 5q43 0 58.5 -25.5t10.5 -70.5l-27 -235l8 -2l37 138q18 68 41 111t54.5 63.5t76.5 20.5q77 0 112.5 -57t35.5 -156q0 -104 -32 -176t-86 -109t-120 -37q-37 0 -68 9t-48 18l-12 -179
l93 -10l-5 -48l-157 -3l-16 12l18 276zM372 451q-24 0 -40.5 -9t-31.5 -35.5t-33 -79.5t-44 -141l-34 -115q18 -8 42.5 -15.5t56.5 -7.5q47 0 82 32.5t54 89.5t19 131q0 21 -1.5 46.5t-8 49.5t-21 39t-40.5 15z" />
    <glyph glyph-name="q" unicode="q" horiz-adv-x="548" 
d="M446 -127q-1 -22 4.5 -31t21.5 -9q9 0 20.5 5t30.5 18l23 -34q-16 -16 -47 -32.5t-62 -16.5q-44 0 -57 28.5t-11 71.5l13 214l21 187l-7 1l-23 -86q-18 -67 -39.5 -112t-54 -68t-82.5 -23q-53 0 -86.5 30t-49 80.5t-15.5 109.5q0 94 29 164.5t81.5 110.5t122.5 40
q30 0 64.5 -6t63.5 -18l38 25l30 -10zM213 54q23 0 41 10.5t34 38.5t33.5 79.5t39.5 133.5l33 121q-19 10 -51.5 16.5t-55.5 6.5q-47 0 -81 -32.5t-52 -88.5t-18 -128q0 -73 20.5 -115t56.5 -42z" />
    <glyph glyph-name="r" unicode="r" horiz-adv-x="466" 
d="M114 416q1 21 -5 30.5t-22 9.5q-17 0 -59 -18l-17 50q11 6 30.5 14t42 13.5t42.5 5.5q43 0 59 -26t11 -76l-14 -142l6 -1l54 127q19 45 36 71t36 36.5t45 10.5q38 0 57.5 -20.5t19.5 -47.5q0 -21 -12 -40t-35 -29l-23 27q-11 14 -18 18t-16 4q-10 0 -17.5 -6t-17.5 -24.5
t-27 -56.5q-28 -61 -45.5 -101t-27 -67t-14 -49t-6.5 -47l-9 -82h-74z" />
    <glyph glyph-name="s" unicode="s" horiz-adv-x="438" 
d="M208 44q44 0 72.5 20.5t28.5 58.5q0 37 -30.5 58t-70.5 40q-32 16 -64 34.5t-53 46.5t-21 72q0 22 9 47.5t30 48t55.5 37t85.5 14.5q40 0 73 -12.5t52.5 -34t19.5 -49.5q0 -23 -13.5 -36t-34.5 -13q-17 0 -30.5 5.5t-20.5 11.5l6 29q5 20 -7.5 33t-48.5 13q-56 0 -78 -23
t-22 -51q0 -31 29.5 -51t67.5 -40q33 -17 65.5 -37t53.5 -48.5t21 -71.5q0 -46 -22 -82t-63.5 -57t-101.5 -21q-47 0 -83 12t-56.5 33t-20.5 48q0 28 17 41t39 13q12 0 24.5 -3t19.5 -8v-26q0 -28 16 -40t56 -12z" />
    <glyph glyph-name="t" unicode="t" horiz-adv-x="409" 
d="M47 501l76 8l41 165h55l-10 -167h156l-4 -59h-155l-15 -311q-2 -42 13.5 -63.5t51.5 -21.5q29 0 53.5 15.5t47.5 37.5l32 -35q-26 -35 -65.5 -59.5t-88.5 -24.5q-73 0 -103 40t-27 107l14 315h-80z" />
    <glyph glyph-name="u" unicode="u" horiz-adv-x="600" 
d="M19 472q15 13 35.5 24t42.5 18t39 7q81 0 73 -83l-25 -282q-4 -54 3.5 -75t31.5 -21q18 0 31 9.5t25.5 35.5t29.5 75l113 328h82l-16 -417q-1 -22 5.5 -31t21.5 -9q12 0 27.5 5.5t31.5 12.5l17 -50q-22 -13 -57 -23t-58 -10q-40 0 -57 25t-13 77l25 270l-8 1l-68 -219
q-25 -82 -61 -118t-92 -36q-61 0 -84 40.5t-15 135.5l22 255q2 25 -2.5 34t-20.5 9q-12 0 -27.5 -6.5t-28.5 -17.5z" />
    <glyph glyph-name="v" unicode="v" horiz-adv-x="534" 
d="M413 521q43 0 62 -31t19 -75q0 -45 -9 -101.5t-28.5 -114t-50.5 -106t-76 -78t-104 -29.5q-24 0 -48 5.5t-44 22t-31.5 49t-8.5 86.5l13 272q2 24 -10 32t-31 2l-45 -14l-17 47q17 10 51 21.5t65 11.5q44 0 60.5 -23.5t14.5 -60.5l-16 -281q-3 -48 7.5 -76.5t53.5 -28.5
q44 0 76.5 30t54 77t33 97.5t14.5 90.5q2 40 -6 55t-28 22l-35 13q-4 33 11.5 59t52.5 26z" />
    <glyph glyph-name="w" unicode="w" horiz-adv-x="788" 
d="M452 508q6 -28 8.5 -59.5t2.5 -63.5q0 -55 -5.5 -113t-12.5 -108q-7 -51 4.5 -81.5t57.5 -30.5q38 0 67 30t49.5 76.5t32 97t14.5 90.5q2 40 -6.5 55t-28.5 22l-35 13q-3 34 11 59.5t51 25.5q43 0 64 -27.5t21 -83.5q0 -47 -9 -103.5t-28 -113t-49 -103.5t-72 -75.5
t-97 -28.5q-23 0 -47.5 9t-42.5 31.5t-23 60.5q-26 -49 -64.5 -75t-94.5 -26q-18 0 -40.5 5.5t-43 22t-33 49t-9.5 86.5l13 272q2 24 -10 32t-31 2l-45 -14l-17 47q12 7 31 14.5t42 13t43 5.5q44 0 60.5 -23.5t14.5 -60.5l-16 -281q-3 -51 12 -78t51 -27q38 0 64 26.5
t42 71.5t23.5 101.5t7.5 115.5q0 34 -2 67.5t-6 64.5z" />
    <glyph glyph-name="x" unicode="x" horiz-adv-x="539" 
d="M294 307l56 49q35 31 46 53t-12 38l-28 21q6 23 24.5 38t44.5 15q30 0 46 -19.5t16 -44.5q0 -21 -9 -40t-34 -45t-75 -69l-52 -45l74 -159q15 -32 26.5 -42t28.5 -10t30 6t26 13l22 -36q-19 -16 -45.5 -30t-60.5 -14q-40 0 -63 16.5t-40 52.5l-73 155l-85 -68
q-34 -27 -37.5 -49.5t27.5 -33.5l24 -9q-5 -28 -23 -46t-44 -18q-35 0 -51.5 20.5t-16.5 47.5t10 48t33 43.5t61 52.5l78 62l-73 155q-13 29 -25.5 35t-23.5 6t-29 -6.5t-30 -12.5l-17 50q17 9 47.5 21.5t64.5 12.5q36 0 57 -15.5t35 -46.5z" />
    <glyph glyph-name="y" unicode="y" horiz-adv-x="529" 
d="M298 -57q-20 -46 -42 -85.5t-55 -63t-86 -23.5q-39 0 -65.5 19t-26.5 51q0 26 17 46t47 24l15 -28q15 -27 24 -35t24 -8q24 0 39.5 20.5t37.5 70.5l30 69h-9q-32 0 -52 14.5t-38 44.5q-25 42 -40.5 120t-15.5 174q0 17 0.5 38.5t0.5 37.5t-5.5 22t-16.5 6t-31.5 -6
t-32.5 -12l-17 49q17 9 50.5 21t67.5 12q40 0 56 -23t16 -63q0 -17 -1 -34.5t-1 -40.5q0 -88 9.5 -149.5t28.5 -102.5q12 -25 21.5 -33t23.5 -8h16l113 271q16 38 13 57t-28 28l-35 13q-5 37 12.5 61t54.5 24t55.5 -24t18.5 -60q0 -20 -6.5 -46.5t-21.5 -66t-41 -98.5z" />
    <glyph glyph-name="z" unicode="z" horiz-adv-x="474" 
d="M81 507h355l12 -37l-313 -398q16 4 32 5.5t32 1.5q32 0 63 -6.5t56 -6.5q15 0 25.5 7.5t21.5 32t28 75.5h49l-27 -181q-45 -11 -90.5 -8t-88.5 10t-82 7q-29 0 -47 -4.5t-32 -11.5l-35 48l309 398h-159q-26 0 -40.5 -6.5t-23 -27.5t-19.5 -63l-51 -3l14 157z" />
    <glyph glyph-name="braceleft" unicode="{" horiz-adv-x="372" 
d="M68 335q51 2 75.5 25.5t24.5 70.5q0 38 -3 89t-6 101t-3 82q0 56 34 87.5t93 31.5q17 0 36.5 -2.5t34.5 -6.5l-11 -49q-14 2 -26 3t-23 1q-25 0 -38 -16.5t-13 -49.5q0 -17 1.5 -50t4 -72.5t4 -77t1.5 -62.5q0 -36 -12.5 -62t-37.5 -43.5t-64 -26.5q55 -14 78.5 -45
t23.5 -89q0 -24 -4 -64.5t-10 -83.5t-10 -78.5t-4 -50.5q0 -37 12.5 -53.5t40.5 -16.5q12 0 25 1t23 3l8 -49q-16 -4 -34.5 -6.5t-37.5 -2.5q-60 0 -92.5 31.5t-32.5 89.5q0 23 4.5 60t10.5 79.5t10.5 82t4.5 66.5q0 36 -9 57t-28.5 30t-53.5 9z" />
    <glyph glyph-name="bar" unicode="|" horiz-adv-x="424" 
d="M239 -110h-62l32 912h61z" />
    <glyph glyph-name="braceright" unicode="}" horiz-adv-x="372" 
d="M325 278q-50 -1 -75 -25t-25 -71q0 -28 2 -67.5t4.5 -81.5t4.5 -79.5t2 -61.5q0 -55 -34 -87t-93 -32q-16 0 -36 2.5t-35 6.5l11 49q14 -2 26.5 -3t22.5 -1q51 0 51 66q0 17 -2 53t-4 79t-4 83t-2 65q0 54 28 86.5t86 45.5q-55 14 -78.5 45t-23.5 89q0 24 4 61.5
t8.5 77.5t8.5 72.5t4 47.5q0 38 -12 54t-41 16q-12 0 -24.5 -1t-23.5 -3l-8 49q33 9 72 9q60 0 92.5 -31.5t32.5 -89.5q0 -23 -4 -57.5t-9.5 -73.5t-9.5 -75.5t-4 -63.5q0 -52 20 -73t71 -23z" />
    <glyph glyph-name="asciitilde" unicode="~" horiz-adv-x="582" 
d="M459 241q-25 0 -58.5 6.5t-69.5 14.5t-69.5 14.5t-57.5 6.5q-15 0 -23.5 -7.5t-25.5 -36.5l-51 19q26 55 46 73.5t54 18.5q24 0 58 -6.5t71 -14.5t70.5 -14.5t57.5 -6.5q14 0 23.5 9.5t23.5 34.5l51 -19q-18 -40 -33.5 -59.5t-31 -26t-35.5 -6.5z" />
    <glyph glyph-name="uni00A0" unicode="&#xa0;" horiz-adv-x="190" 
 />
    <glyph glyph-name="exclamdown" unicode="&#xa1;" horiz-adv-x="329" 
d="M201 -26q0 -29 -0.5 -60t-0.5 -58q0 -33 -17.5 -48.5t-44.5 -15.5q-19 0 -34.5 7.5t-24.5 16.5q11 32 21.5 73t20 98t18 136.5t14.5 189.5h48v-339zM250 457q0 -32 -21 -50.5t-52 -18.5t-49.5 18.5t-18.5 49.5t21 48t52 17t49.5 -16.5t18.5 -47.5z" />
    <glyph glyph-name="cent" unicode="&#xa2;" horiz-adv-x="489" 
d="M175 -29l126 667h40l-126 -667h-40zM294 571q44 0 78 -15.5t54 -43.5t20 -68q0 -28 -16 -46t-45 -18q-21 0 -37.5 12t-24.5 30l21 24q20 22 16 37.5t-23 23.5t-45 8q-46 0 -80 -26t-52.5 -78.5t-18.5 -132.5q0 -48 13.5 -88t41 -64t68.5 -24q35 0 69.5 19.5t68.5 57.5
l35 -36q-9 -12 -25.5 -30t-41 -35.5t-55.5 -29.5t-69 -12q-63 0 -107 31t-66.5 85.5t-22.5 122.5q0 86 30 153t85 105t129 38z" />
    <glyph glyph-name="sterling" unicode="&#xa3;" horiz-adv-x="591" 
d="M66 33q47 34 86.5 47t72.5 15q-19 35 -41 79.5t-40 88t-28 72.5h-84l7 53h63q-4 17 -5.5 34.5t-1.5 35.5q0 80 31.5 137.5t88 88.5t131.5 31q84 0 131 -36.5t47 -91.5q0 -29 -17 -46.5t-43 -17.5q-22 0 -39.5 8t-25.5 16l19 37q14 26 -2.5 50.5t-75.5 24.5
q-76 0 -113 -48.5t-37 -142.5q0 -22 1 -41.5t2 -38.5h235l-4 -53h-222q6 -30 17 -64.5t28.5 -78.5t42.5 -101q16 -3 30.5 -8t28.5 -11q22 -9 44.5 -15.5t46.5 -6.5q25 0 39.5 14.5t14.5 39.5q0 32 -24 47.5t-48 25.5l19 47q61 -17 96 -47.5t35 -83.5q0 -26 -13 -51
t-38.5 -40.5t-62.5 -15.5q-35 0 -62.5 8t-53.5 18q-24 9 -48.5 16t-53.5 7q-37 0 -74 -13t-69 -36z" />
    <glyph glyph-name="currency" unicode="&#xa4;" horiz-adv-x="539" 
d="M104 310q0 31 7.5 57.5t22.5 48.5l-62 84l31 30l80 -65q52 30 108 30t98 -25l83 63l29 -30l-66 -80q22 -37 22 -99q0 -33 -8 -62t-25 -53l63 -84l-31 -30l-84 67q-20 -13 -45.5 -19.5t-54.5 -6.5q-58 0 -99 24l-84 -64l-29 30l67 82q-11 19 -17 45t-6 57zM179 315
q0 -61 24.5 -93.5t70.5 -32.5q53 0 81 33.5t28 94.5q0 62 -23.5 92.5t-72.5 30.5q-52 0 -80 -32.5t-28 -92.5z" />
    <glyph glyph-name="yen" unicode="&#xa5;" horiz-adv-x="670" 
d="M324 331h-238l7 55h205zM81 213l7 54h517l-2 -54h-522zM607 331h-216l32 55h186zM366 327h4l173 311l-87 18l6 44h237l-7 -48l-80 -17l-218 -374l-8 -202l95 -13l-6 -46h-265l6 46l82 13l11 200l-204 379l-77 15l7 47h258l-6 -47l-83 -13z" />
    <glyph glyph-name="brokenbar" unicode="&#xa6;" horiz-adv-x="424" 
d="M239 -110h-62l14 399h61zM258 432h-62l13 371h61z" />
    <glyph glyph-name="section" unicode="&#xa7;" horiz-adv-x="618" 
d="M544 225q0 -21 -6.5 -40.5t-13.5 -30.5l-40 8q0 45 -23.5 76.5t-60 56.5t-77.5 48.5t-77.5 51t-60 63.5t-23.5 87q0 42 21.5 81t63.5 64t103 25q46 0 83.5 -15t60.5 -42t23 -64q0 -28 -16.5 -45t-38.5 -17q-23 0 -41.5 9t-30.5 21l17 34q14 29 -5 47t-57 18
q-56 0 -79 -31t-23 -72q0 -34 21.5 -61.5t56 -51.5t73 -47t73 -48.5t56 -55.5t21.5 -69zM107 334q0 21 6.5 40.5t13.5 30.5l40 -8q0 -45 23.5 -77t60 -57t77.5 -48.5t77.5 -50.5t60 -63t23.5 -87q0 -42 -21.5 -81t-63.5 -64t-103 -25q-45 0 -84 12t-62.5 36.5t-23.5 62.5
q0 32 19.5 49.5t41.5 17.5q23 0 40.5 -8t29.5 -20l-17 -34q-14 -28 3.5 -45t57.5 -17q56 0 79 31.5t23 71.5q0 34 -21.5 61.5t-56 51.5t-73 47t-73 48.5t-56 56t-21.5 68.5z" />
    <glyph glyph-name="dieresis" unicode="&#xa8;" 
d="M120 680q0 27 18.5 46t45.5 19q29 0 44.5 -16.5t15.5 -43.5q0 -28 -18 -46.5t-47 -18.5q-27 0 -43 16.5t-16 43.5zM318 680q0 27 18.5 46t46.5 19t43.5 -16.5t15.5 -43.5q0 -28 -18 -46.5t-46 -18.5t-44 16.5t-16 43.5z" />
    <glyph glyph-name="copyright" unicode="&#xa9;" horiz-adv-x="795" 
d="M397 -12q-113 0 -188 42.5t-112 116t-37 164.5q0 79 27 141.5t73.5 106t108 66t130.5 22.5q102 0 177.5 -39.5t117 -112t41.5 -170.5q0 -101 -42 -177t-118 -118t-178 -42zM396 106q-49 0 -83.5 19t-55 49t-30 64.5t-9.5 64.5q0 72 27 120.5t71.5 73t97.5 24.5
q37 0 68 -14.5t50.5 -38t19.5 -51.5q0 -16 -10 -26.5t-27 -10.5q-14 0 -25 5t-19 12l10 19q13 23 -7.5 42.5t-58.5 19.5q-58 0 -91 -42t-33 -128q0 -40 11.5 -75.5t36 -57.5t64.5 -22q38 0 66.5 17t52.5 44l26 -27q-22 -28 -59 -54.5t-93 -26.5zM399 40q86 0 147.5 35
t95 97.5t33.5 146.5q0 88 -35.5 149.5t-97.5 94t-143 32.5q-79 0 -142 -34.5t-99 -97.5t-36 -151q0 -82 33 -143.5t95.5 -95t148.5 -33.5z" />
    <glyph glyph-name="ordfeminine" unicode="&#xaa;" horiz-adv-x="446" 
d="M375 442q-1 -16 2.5 -23.5t15.5 -7.5q8 0 16.5 4.5t18.5 12.5l18 -30q-12 -11 -36.5 -23.5t-47.5 -12.5q-32 0 -41.5 21.5t-7.5 49.5l12 134h-5l-16 -58q-13 -47 -28.5 -80t-38.5 -50t-58 -17q-58 0 -86 43.5t-28 109.5q0 67 22.5 118t60.5 80t86 29q25 0 47 -5.5
t35 -12.5l55 17l13 -6zM188 416q26 0 42 19t29.5 59t31.5 103l23 81q-13 7 -33 12t-40 5q-31 0 -55 -22t-37 -62t-13 -93q0 -56 13.5 -79t38.5 -23z" />
    <glyph glyph-name="guillemotleft" unicode="&#xab;" horiz-adv-x="499" 
d="M275 445q-30 -49 -61.5 -90t-74.5 -86q24 -27 44.5 -53.5t41 -58t44.5 -74.5l-35 -26q-53 64 -97.5 107.5t-90.5 77.5l10 57q51 38 100 82.5t86 88.5zM466 445q-30 -49 -61.5 -90t-74.5 -86q24 -27 44.5 -53.5t41 -58t44.5 -74.5l-35 -26q-53 64 -97.5 107.5t-90.5 77.5
l10 57q51 38 100 82.5t86 88.5z" />
    <glyph glyph-name="logicalnot" unicode="&#xac;" horiz-adv-x="582" 
d="M495 154h-67l6 150h-361l3 63h428z" />
    <glyph glyph-name="uni00AD" unicode="&#xad;" horiz-adv-x="354" 
d="M45 329h267l-3 -82h-267z" />
    <glyph glyph-name="registered" unicode="&#xae;" horiz-adv-x="463" 
d="M246 401q-56 0 -97.5 21.5t-63.5 60.5t-22 93t23.5 95t65 64.5t95.5 23.5q83 0 133 -48t50 -128q0 -53 -23.5 -94.5t-64.5 -64.5t-96 -23zM325 465q11 0 20.5 3t16.5 10l-5 13q-4 -1 -8.5 -2.5t-8.5 -1.5q-10 0 -17 9.5t-15 34.5q-7 22 -16.5 32.5t-28.5 17.5v3
q29 5 47.5 21.5t18.5 37.5q0 29 -23.5 44.5t-68.5 15.5h-80l-5 -16l28 -4l-7 -194l-30 -4l-2 -16h98l2 16l-30 5l6 193h17q29 0 42 -9t13 -30q0 -23 -14 -36t-40 -13h-2l-4 -19q14 -2 22 -10t15 -31q14 -42 25.5 -56t33.5 -14z" />
    <glyph glyph-name="macron" unicode="&#xaf;" 
d="M142 708h283l-4 -73h-283z" />
    <glyph glyph-name="degree" unicode="&#xb0;" horiz-adv-x="329" 
d="M164 548q-62 0 -91.5 34t-29.5 84q0 47 31.5 82t92.5 35q59 0 89 -32t30 -83q0 -49 -31.5 -84.5t-90.5 -35.5zM166 599q29 0 46 19.5t17 47.5q0 31 -17.5 49t-48.5 18q-29 0 -45.5 -19t-16.5 -48q0 -28 15.5 -47.5t49.5 -19.5z" />
    <glyph glyph-name="plusminus" unicode="&#xb1;" horiz-adv-x="582" 
d="M322 306l-7 -165h-67l7 165h-177l3 63h177l7 152h67l-7 -152h184l-3 -63h-184zM65 1l3 63h428l-3 -63h-428z" />
    <glyph glyph-name="uni00B2" unicode="&#xb2;" horiz-adv-x="389" 
d="M201 795q-54 0 -70.5 -21t4.5 -47l16 -20q-5 -14 -18.5 -21t-30.5 -7q-22 0 -35 14.5t-13 34.5q0 34 21 58.5t57 37.5t79 13q74 0 115.5 -30t41.5 -92q0 -24 -9.5 -50t-33.5 -57.5t-68 -72.5t-113 -96h109q29 0 44.5 4t25 19t20.5 47h36l-13 -135h-304l1 43
q73 66 118 110.5t68.5 76t32 55.5t8.5 49q0 40 -24 63.5t-65 23.5z" />
    <glyph glyph-name="uni00B3" unicode="&#xb3;" horiz-adv-x="395" 
d="M360 738q0 -37 -23.5 -67t-64.5 -46v-6q54 -5 79.5 -30t25.5 -72q0 -44 -26.5 -79.5t-72.5 -55.5t-104 -20q-39 0 -67 9.5t-43 27.5t-15 42q0 25 13.5 39t38.5 14q12 0 26 -8t20 -19l-12 -23q-8 -16 4.5 -26.5t39.5 -10.5q55 0 87.5 30.5t32.5 80.5q0 35 -22 52.5
t-66 17.5q-13 0 -24 -1t-21 -3l-6 44q64 8 97 34.5t33 70.5q0 31 -22 46.5t-65 15.5q-38 0 -54 -16t3 -37l14 -15q-6 -16 -19 -25t-29 -9q-22 0 -35.5 14t-13.5 36q0 28 19 49.5t52 34t75 12.5q68 0 106.5 -26.5t38.5 -74.5z" />
    <glyph glyph-name="acute" unicode="&#xb4;" 
d="M308 746q12 15 21.5 22t23.5 7q22 0 31.5 -17.5t4.5 -52.5l-167 -123l-22 23z" />
    <glyph glyph-name="uni00B5" unicode="&#xb5;" horiz-adv-x="559" 
d="M440 -14q-30 0 -49 15t-28.5 37.5t-9.5 45.5h-1q-19 -34 -42 -55.5t-46.5 -32t-43.5 -10.5q-30 0 -53.5 12.5t-34.5 22.5h-1q0 -75 8 -137t16 -95l-97 -19l-11 5v49v48.5v48.5q0 79 4.5 177.5t12 204t14.5 205.5l88 8l11 -5q-9 -66 -16 -122t-12 -102t-8.5 -83t-5 -66.5
t-1.5 -51.5q13 -9 35.5 -17.5t40.5 -8.5q58 0 93.5 40.5t40.5 120.5l20 287l88 8l11 -5q-4 -26 -9 -66t-11 -86t-10.5 -91t-7.5 -82t-3 -59q0 -31 11 -53t39 -22q11 0 28.5 7t27.5 13l21 -39q-28 -21 -55.5 -34t-53.5 -13z" />
    <glyph glyph-name="paragraph" unicode="&#xb6;" horiz-adv-x="578" 
d="M340 -82q3 25 4.5 45t2.5 60l26 677h172l-6 -46l-83 -17l-19 -515q-2 -63 -14 -123t-30.5 -108.5t-40.5 -74.5q-37 -45 -81 -45q-28 0 -47 13.5t-19 34.5q0 36 23 67l41 -17q29 -12 48 1.5t23 47.5zM288 238h-16q-98 0 -150.5 55t-52.5 158q0 120 60 184.5t172 64.5h12z
" />
    <glyph glyph-name="periodcentered" unicode="&#xb7;" horiz-adv-x="319" 
d="M95 305q0 34 22 56t58 22q35 0 56 -19t21 -50q0 -36 -23.5 -56t-58.5 -20q-33 0 -54 17.5t-21 49.5z" />
    <glyph glyph-name="cedilla" unicode="&#xb8;" 
d="M270 13l-21 -65q28 -1 50.5 -8.5t35.5 -24.5t13 -45q0 -45 -34 -72t-84 -27q-21 0 -43.5 5t-38.5 12l15 46q8 -3 25 -7t32 -4q23 0 37.5 10t14.5 32q0 19 -11 27.5t-26.5 10.5t-30.5 0l-8 21l28 89h46z" />
    <glyph glyph-name="uni00B9" unicode="&#xb9;" horiz-adv-x="302" 
d="M208 427l79 -13l-2 -40h-235l3 40l84 13l17 351h-90l6 42l142 16l15 -6z" />
    <glyph glyph-name="ordmasculine" unicode="&#xba;" horiz-adv-x="427" 
d="M223 362q-72 0 -113 48.5t-41 127.5q0 54 18 100t56.5 74.5t100.5 28.5q76 0 116 -47.5t40 -127.5q0 -54 -18.5 -100.5t-57.5 -75t-101 -28.5zM227 410q39 0 60 21.5t29 57t8 78.5q0 58 -18 92.5t-68 34.5q-37 0 -57 -22t-27.5 -57.5t-7.5 -78.5q0 -59 19 -92.5t62 -33.5
z" />
    <glyph glyph-name="guillemotright" unicode="&#xbb;" horiz-adv-x="499" 
d="M53 82q43 65 75.5 107t66.5 77q-27 32 -47 58t-37 54t-36 64l36 26q84 -110 178 -183l-12 -57q-47 -32 -99 -78.5t-93 -92.5zM244 82q43 65 75.5 107t66.5 77q-27 32 -47 58t-37 54t-36 64l36 26q84 -110 178 -183l-12 -57q-47 -32 -99 -78.5t-93 -92.5z" />
    <glyph glyph-name="onequarter" unicode="&#xbc;" horiz-adv-x="958" 
d="M649 713h67l-413 -724h-68zM218 301l79 -13l-2 -40h-235l3 40l84 13l17 351h-90l6 42l142 16l15 -6zM821 133h78l-2 -51h-78l-3 -82h-74l3 82h-218l-7 46l230 319l74 10l11 -6zM747 133l12 249l-177 -249h165z" />
    <glyph glyph-name="onehalf" unicode="&#xbd;" horiz-adv-x="922" 
d="M626 713h67l-413 -724h-68zM213 301l79 -13l-2 -40h-235l3 40l84 13l17 351h-90l6 42l142 16l15 -6zM725 422q-54 0 -70.5 -21t4.5 -47l16 -20q-5 -14 -18.5 -21t-30.5 -7q-22 0 -35 14.5t-13 34.5q0 34 21 58.5t57 37.5t79 13q74 0 115.5 -30t41.5 -92q0 -24 -9.5 -50
t-33.5 -57.5t-68 -72.5t-113 -96h109q29 0 44.5 4t25 19t20.5 47h36l-13 -135h-304l1 43q73 66 118 110.5t68.5 76t32 55.5t8.5 49q0 40 -24 63.5t-65 23.5z" />
    <glyph glyph-name="threequarters" unicode="&#xbe;" horiz-adv-x="966" 
d="M700 713h67l-413 -724h-68zM848 133h78l-2 -51h-78l-3 -82h-74l3 82h-218l-7 46l230 319l74 10l11 -6zM774 133l12 249l-177 -249h165zM385 611q0 -37 -23.5 -67t-64.5 -46v-6q54 -5 79.5 -30t25.5 -72q0 -44 -26.5 -79.5t-72.5 -55.5t-104 -20q-39 0 -67 9.5t-43 27.5
t-15 42q0 25 13.5 39t38.5 14q12 0 26 -8t20 -19l-12 -23q-8 -16 4.5 -26.5t39.5 -10.5q55 0 87.5 30.5t32.5 80.5q0 35 -22 52.5t-66 17.5q-13 0 -24 -1t-21 -3l-6 44q64 8 97 34.5t33 70.5q0 31 -22 46.5t-65 15.5q-38 0 -54 -16t3 -37l14 -15q-6 -16 -19 -25t-29 -9
q-22 0 -35.5 14t-13.5 36q0 28 19 49.5t52 34t75 12.5q68 0 106.5 -26.5t38.5 -74.5z" />
    <glyph glyph-name="questiondown" unicode="&#xbf;" horiz-adv-x="512" 
d="M354 125q-98 -21 -145.5 -66.5t-47.5 -103.5q0 -51 30.5 -81t88.5 -30q41 0 66.5 13t30.5 32.5t-14 41.5l-21 24q7 18 24 30t38 12q28 0 44.5 -16.5t16.5 -44.5q0 -46 -30.5 -78t-77 -49t-92.5 -17q-53 0 -96 18t-69 55t-26 95q0 49 21.5 92.5t67 78t117.5 57.5l-27 125
h63zM356 457q0 -32 -21 -50.5t-52 -18.5t-49.5 18.5t-18.5 49.5t21 48t52 17t49.5 -16.5t18.5 -47.5z" />
    <glyph glyph-name="Agrave" unicode="&#xc0;" horiz-adv-x="691" 
d="M421 706l182 -649l85 -11l-6 -46h-266l6 46l81 12l-46 173h-240l-60 -173l91 -12l-6 -46h-234l6 46l79 12l229 637zM237 288h205l-87 331h-3zM460 781l-20 -29l-152 70q-19 8 -29 21.5t-10 27.5q0 15 13 29.5t41 19.5z" />
    <glyph glyph-name="Aacute" unicode="&#xc1;" horiz-adv-x="691" 
d="M421 706l182 -649l85 -11l-6 -46h-266l6 46l81 12l-46 173h-240l-60 -173l91 -12l-6 -46h-234l6 46l79 12l229 637zM237 288h205l-87 331h-3zM412 899q12 11 21.5 16.5t19.5 5.5q18 0 29 -13t11 -32q0 -8 -2 -17t-6 -20l-184 -87l-19 27z" />
    <glyph glyph-name="Acircumflex" unicode="&#xc2;" horiz-adv-x="691" 
d="M421 706l182 -649l85 -11l-6 -46h-266l6 46l81 12l-46 173h-240l-60 -173l91 -12l-6 -46h-234l6 46l79 12l229 637zM237 288h205l-87 331h-3zM540 774l-25 -24l-137 88l-136 -87l-22 26l115 126q29 30 48 30q9 0 14 -1t10 -3z" />
    <glyph glyph-name="Atilde" unicode="&#xc3;" horiz-adv-x="691" 
d="M421 706l182 -649l85 -11l-6 -46h-266l6 46l81 12l-46 173h-240l-60 -173l91 -12l-6 -46h-234l6 46l79 12l229 637zM237 288h205l-87 331h-3zM452 776q-22 0 -42 5.5t-47 18.5q-32 16 -49 22.5t-22 6.5q-13 0 -21.5 -7t-24.5 -30l-31 19q18 36 32.5 55.5t29.5 27.5t35 8
q11 0 27.5 -5.5t57.5 -22.5q32 -13 47.5 -18.5t25.5 -5.5q11 0 20 7.5t25 29.5l31 -19q-28 -53 -47.5 -72.5t-46.5 -19.5z" />
    <glyph glyph-name="Adieresis" unicode="&#xc4;" horiz-adv-x="691" 
d="M421 706l182 -649l85 -11l-6 -46h-266l6 46l81 12l-46 173h-240l-60 -173l91 -12l-6 -46h-234l6 46l79 12l229 637zM237 288h205l-87 331h-3zM218 831q0 27 18.5 46t45.5 19q29 0 44.5 -16.5t15.5 -43.5q0 -28 -18 -46.5t-47 -18.5q-27 0 -43 16.5t-16 43.5zM416 831
q0 27 18.5 46t46.5 19t43.5 -16.5t15.5 -43.5q0 -28 -18 -46.5t-46 -18.5t-44 16.5t-16 43.5z" />
    <glyph glyph-name="Aring" unicode="&#xc5;" horiz-adv-x="691" 
d="M421 706l182 -649l85 -11l-6 -46h-266l6 46l81 12l-46 173h-240l-60 -173l91 -12l-6 -46h-234l6 46l79 12l229 637zM237 288h205l-87 331h-3zM375 742q-52 0 -75 26t-23 71q0 27 12.5 50.5t37 37.5t58.5 14q49 0 72.5 -25t23.5 -69q0 -45 -28.5 -75t-77.5 -30zM378 788
q26 0 36.5 17t10.5 39q0 21 -10.5 36.5t-34.5 15.5q-25 0 -36.5 -18t-11.5 -38t10 -36t36 -16z" />
    <glyph glyph-name="AE" unicode="&#xc6;" horiz-adv-x="921" 
d="M766 700l14 -168l-55 -9l-11 36q-9 32 -19.5 50t-27.5 26t-49 8h-179l70 -252h244l-5 -63h-221l71 -270h111q46 0 66.5 18t36.5 67l14 41h55l-24 -184h-441l6 46l81 12l-46 173h-240l-60 -173l91 -12l-6 -46h-234l6 46l79 12l229 642h444zM237 288h205l-87 331h-3z" />
    <glyph glyph-name="Ccedilla" unicode="&#xc7;" horiz-adv-x="624" 
d="M489 571q17 34 -16 57.5t-98 23.5q-106 0 -163 -82.5t-57 -235.5q0 -84 24.5 -147t69.5 -97.5t105 -34.5q53 0 100 27.5t96 85.5l39 -40q-103 -142 -245 -142q-86 0 -149.5 42t-98.5 118t-35 179q0 119 39.5 206.5t111 135.5t167.5 48q61 0 111 -20t79.5 -53.5
t29.5 -75.5q0 -26 -15.5 -42.5t-39.5 -16.5q-42 0 -72 30zM370 13l-21 -65q28 -1 50.5 -8.5t35.5 -24.5t13 -45q0 -45 -34 -72t-84 -27q-21 0 -43.5 5t-38.5 12l15 46q8 -3 25 -7t32 -4q23 0 37.5 10t14.5 32q0 19 -11 27.5t-26.5 10.5t-30.5 0l-8 21l28 89h46z" />
    <glyph glyph-name="Egrave" unicode="&#xc8;" horiz-adv-x="600" 
d="M168 637l-86 17l6 46h454l14 -168l-55 -9l-11 36q-10 35 -21.5 53t-28.5 24.5t-46 6.5h-139l-10 -252h249l-5 -63h-247l-11 -270h157q44 0 65 17.5t38 67.5l14 41h55l-24 -184h-479l6 46l82 13zM425 781l-20 -29l-152 70q-19 8 -29 21.5t-10 27.5q0 15 13 29.5t41 19.5z
" />
    <glyph glyph-name="Eacute" unicode="&#xc9;" horiz-adv-x="600" 
d="M168 637l-86 17l6 46h454l14 -168l-55 -9l-11 36q-10 35 -21.5 53t-28.5 24.5t-46 6.5h-139l-10 -252h249l-5 -63h-247l-11 -270h157q44 0 65 17.5t38 67.5l14 41h55l-24 -184h-479l6 46l82 13zM377 899q12 11 21.5 16.5t19.5 5.5q18 0 29 -13t11 -32q0 -8 -2 -17t-6 -20
l-184 -87l-19 27z" />
    <glyph glyph-name="Ecircumflex" unicode="&#xca;" horiz-adv-x="600" 
d="M168 637l-86 17l6 46h454l14 -168l-55 -9l-11 36q-10 35 -21.5 53t-28.5 24.5t-46 6.5h-139l-10 -252h249l-5 -63h-247l-11 -270h157q44 0 65 17.5t38 67.5l14 41h55l-24 -184h-479l6 46l82 13zM505 774l-25 -24l-137 88l-136 -87l-22 26l115 126q29 30 48 30q9 0 14 -1
t10 -3z" />
    <glyph glyph-name="Edieresis" unicode="&#xcb;" horiz-adv-x="600" 
d="M168 637l-86 17l6 46h454l14 -168l-55 -9l-11 36q-10 35 -21.5 53t-28.5 24.5t-46 6.5h-139l-10 -252h249l-5 -63h-247l-11 -270h157q44 0 65 17.5t38 67.5l14 41h55l-24 -184h-479l6 46l82 13zM183 831q0 27 18.5 46t45.5 19q29 0 44.5 -16.5t15.5 -43.5
q0 -28 -18 -46.5t-47 -18.5q-27 0 -43 16.5t-16 43.5zM381 831q0 27 18.5 46t46.5 19t43.5 -16.5t15.5 -43.5q0 -28 -18 -46.5t-46 -18.5t-44 16.5t-16 43.5z" />
    <glyph glyph-name="Igrave" unicode="&#xcc;" horiz-adv-x="366" 
d="M168 637l-86 17l6 46h256l-6 -46l-85 -17l-22 -578l95 -13l-6 -46h-265l6 46l82 13zM299 781l-20 -29l-152 70q-19 8 -29 21.5t-10 27.5q0 15 13 29.5t41 19.5z" />
    <glyph glyph-name="Iacute" unicode="&#xcd;" horiz-adv-x="366" 
d="M168 637l-86 17l6 46h256l-6 -46l-85 -17l-22 -578l95 -13l-6 -46h-265l6 46l82 13zM251 899q12 11 21.5 16.5t19.5 5.5q18 0 29 -13t11 -32q0 -8 -2 -17t-6 -20l-184 -87l-19 27z" />
    <glyph glyph-name="Icircumflex" unicode="&#xce;" horiz-adv-x="366" 
d="M168 637l-86 17l6 46h256l-6 -46l-85 -17l-22 -578l95 -13l-6 -46h-265l6 46l82 13zM379 774l-25 -24l-137 88l-136 -87l-22 26l115 126q29 30 48 30q9 0 14 -1t10 -3z" />
    <glyph glyph-name="Idieresis" unicode="&#xcf;" horiz-adv-x="366" 
d="M168 637l-86 17l6 46h256l-6 -46l-85 -17l-22 -578l95 -13l-6 -46h-265l6 46l82 13zM57 831q0 27 18.5 46t45.5 19q29 0 44.5 -16.5t15.5 -43.5q0 -28 -18 -46.5t-47 -18.5q-27 0 -43 16.5t-16 43.5zM255 831q0 27 18.5 46t46.5 19t43.5 -16.5t15.5 -43.5
q0 -28 -18 -46.5t-46 -18.5t-44 16.5t-16 43.5z" />
    <glyph glyph-name="Eth" unicode="&#xd0;" horiz-adv-x="732" 
d="M50 391h395l-8 -60h-396zM50 0l5 45l89 15l25 577l-87 17l6 46h267q161 0 249.5 -80.5t88.5 -227.5q0 -124 -50 -211.5t-145 -134t-230 -46.5h-218zM232 55h28q163 0 249.5 84.5t86.5 243.5q0 125 -66 194t-186 69h-89z" />
    <glyph glyph-name="Ntilde" unicode="&#xd1;" horiz-adv-x="743" 
d="M561 119l18 518l-85 17l6 46h237l-6 -46l-85 -17l-25 -637l-92 -11l-304 630l-20 -560l94 -13l-6 -46h-243l6 46l81 13l24 582l-79 11l6 48h197zM478 776q-22 0 -42 5.5t-47 18.5q-32 16 -49 22.5t-22 6.5q-13 0 -21.5 -7t-24.5 -30l-31 19q18 36 32.5 55.5t29.5 27.5
t35 8q11 0 27.5 -5.5t57.5 -22.5q32 -13 47.5 -18.5t25.5 -5.5q11 0 20 7.5t25 29.5l31 -19q-28 -53 -47.5 -72.5t-46.5 -19.5z" />
    <glyph glyph-name="Ograve" unicode="&#xd2;" horiz-adv-x="715" 
d="M61 328q0 119 40 205.5t113 134t173 47.5q89 0 153.5 -40.5t100 -115.5t35.5 -177q0 -119 -40 -208t-112 -138.5t-169 -49.5q-89 0 -155.5 42t-102.5 119t-36 181zM156 349q0 -138 57 -218t155 -80q101 0 155.5 82t54.5 231q0 137 -53.5 213t-151.5 76q-103 0 -160 -80
t-57 -224zM473 781l-20 -29l-152 70q-19 8 -29 21.5t-10 27.5q0 15 13 29.5t41 19.5z" />
    <glyph glyph-name="Oacute" unicode="&#xd3;" horiz-adv-x="715" 
d="M61 328q0 119 40 205.5t113 134t173 47.5q89 0 153.5 -40.5t100 -115.5t35.5 -177q0 -119 -40 -208t-112 -138.5t-169 -49.5q-89 0 -155.5 42t-102.5 119t-36 181zM156 349q0 -138 57 -218t155 -80q101 0 155.5 82t54.5 231q0 137 -53.5 213t-151.5 76q-103 0 -160 -80
t-57 -224zM425 899q12 11 21.5 16.5t19.5 5.5q18 0 29 -13t11 -32q0 -8 -2 -17t-6 -20l-184 -87l-19 27z" />
    <glyph glyph-name="Ocircumflex" unicode="&#xd4;" horiz-adv-x="715" 
d="M61 328q0 119 40 205.5t113 134t173 47.5q89 0 153.5 -40.5t100 -115.5t35.5 -177q0 -119 -40 -208t-112 -138.5t-169 -49.5q-89 0 -155.5 42t-102.5 119t-36 181zM156 349q0 -138 57 -218t155 -80q101 0 155.5 82t54.5 231q0 137 -53.5 213t-151.5 76q-103 0 -160 -80
t-57 -224zM553 774l-25 -24l-137 88l-136 -87l-22 26l115 126q29 30 48 30q9 0 14 -1t10 -3z" />
    <glyph glyph-name="Otilde" unicode="&#xd5;" horiz-adv-x="715" 
d="M61 328q0 119 40 205.5t113 134t173 47.5q89 0 153.5 -40.5t100 -115.5t35.5 -177q0 -119 -40 -208t-112 -138.5t-169 -49.5q-89 0 -155.5 42t-102.5 119t-36 181zM156 349q0 -138 57 -218t155 -80q101 0 155.5 82t54.5 231q0 137 -53.5 213t-151.5 76q-103 0 -160 -80
t-57 -224zM465 776q-22 0 -42 5.5t-47 18.5q-32 16 -49 22.5t-22 6.5q-13 0 -21.5 -7t-24.5 -30l-31 19q18 36 32.5 55.5t29.5 27.5t35 8q11 0 27.5 -5.5t57.5 -22.5q32 -13 47.5 -18.5t25.5 -5.5q11 0 20 7.5t25 29.5l31 -19q-28 -53 -47.5 -72.5t-46.5 -19.5z" />
    <glyph glyph-name="Odieresis" unicode="&#xd6;" horiz-adv-x="715" 
d="M61 328q0 119 40 205.5t113 134t173 47.5q89 0 153.5 -40.5t100 -115.5t35.5 -177q0 -119 -40 -208t-112 -138.5t-169 -49.5q-89 0 -155.5 42t-102.5 119t-36 181zM156 349q0 -138 57 -218t155 -80q101 0 155.5 82t54.5 231q0 137 -53.5 213t-151.5 76q-103 0 -160 -80
t-57 -224zM231 831q0 27 18.5 46t45.5 19q29 0 44.5 -16.5t15.5 -43.5q0 -28 -18 -46.5t-47 -18.5q-27 0 -43 16.5t-16 43.5zM429 831q0 27 18.5 46t46.5 19t43.5 -16.5t15.5 -43.5q0 -28 -18 -46.5t-46 -18.5t-44 16.5t-16 43.5z" />
    <glyph glyph-name="multiply" unicode="&#xd7;" horiz-adv-x="582" 
d="M288 263l-140 -134l-41 42l140 136l-136 139l47 42l133 -138l145 138l40 -44l-144 -138l137 -142l-46 -44z" />
    <glyph glyph-name="Oslash" unicode="&#xd8;" horiz-adv-x="715" 
d="M612 715h76l-565 -729h-77zM61 328q0 119 40 205.5t113 134t173 47.5q89 0 153.5 -40.5t100 -115.5t35.5 -177q0 -119 -40 -208t-112 -138.5t-169 -49.5q-89 0 -155.5 42t-102.5 119t-36 181zM156 349q0 -138 57 -218t155 -80q101 0 155.5 82t54.5 231q0 137 -53.5 213
t-151.5 76q-103 0 -160 -80t-57 -224z" />
    <glyph glyph-name="Ugrave" unicode="&#xd9;" horiz-adv-x="758" 
d="M617 60l86 -13l-7 -47h-152l-7 12l35 353h-4q-31 -138 -68.5 -221t-85.5 -120.5t-114 -37.5q-92 0 -136 60t-38 176l22 417l-76 15l6 46h248l-6 -46l-85 -17l-21 -407q-4 -91 19 -131.5t80 -40.5q46 0 82 31t63.5 84t47.5 119.5t34 138.5t23 139l9 67l-83 17l6 46h232
l-6 -46l-73 -17zM490 781l-20 -29l-152 70q-19 8 -29 21.5t-10 27.5q0 15 13 29.5t41 19.5z" />
    <glyph glyph-name="Uacute" unicode="&#xda;" horiz-adv-x="758" 
d="M617 60l86 -13l-7 -47h-152l-7 12l35 353h-4q-31 -138 -68.5 -221t-85.5 -120.5t-114 -37.5q-92 0 -136 60t-38 176l22 417l-76 15l6 46h248l-6 -46l-85 -17l-21 -407q-4 -91 19 -131.5t80 -40.5q46 0 82 31t63.5 84t47.5 119.5t34 138.5t23 139l9 67l-83 17l6 46h232
l-6 -46l-73 -17zM442 899q12 11 21.5 16.5t19.5 5.5q18 0 29 -13t11 -32q0 -8 -2 -17t-6 -20l-184 -87l-19 27z" />
    <glyph glyph-name="Ucircumflex" unicode="&#xdb;" horiz-adv-x="758" 
d="M617 60l86 -13l-7 -47h-152l-7 12l35 353h-4q-31 -138 -68.5 -221t-85.5 -120.5t-114 -37.5q-92 0 -136 60t-38 176l22 417l-76 15l6 46h248l-6 -46l-85 -17l-21 -407q-4 -91 19 -131.5t80 -40.5q46 0 82 31t63.5 84t47.5 119.5t34 138.5t23 139l9 67l-83 17l6 46h232
l-6 -46l-73 -17zM570 774l-25 -24l-137 88l-136 -87l-22 26l115 126q29 30 48 30q9 0 14 -1t10 -3z" />
    <glyph glyph-name="Udieresis" unicode="&#xdc;" horiz-adv-x="758" 
d="M617 60l86 -13l-7 -47h-152l-7 12l35 353h-4q-31 -138 -68.5 -221t-85.5 -120.5t-114 -37.5q-92 0 -136 60t-38 176l22 417l-76 15l6 46h248l-6 -46l-85 -17l-21 -407q-4 -91 19 -131.5t80 -40.5q46 0 82 31t63.5 84t47.5 119.5t34 138.5t23 139l9 67l-83 17l6 46h232
l-6 -46l-73 -17zM248 831q0 27 18.5 46t45.5 19q29 0 44.5 -16.5t15.5 -43.5q0 -28 -18 -46.5t-47 -18.5q-27 0 -43 16.5t-16 43.5zM446 831q0 27 18.5 46t46.5 19t43.5 -16.5t15.5 -43.5q0 -28 -18 -46.5t-46 -18.5t-44 16.5t-16 43.5z" />
    <glyph glyph-name="Yacute" unicode="&#xdd;" horiz-adv-x="670" 
d="M366 327h4l173 311l-87 18l6 44h237l-7 -48l-80 -17l-218 -374l-8 -202l95 -13l-6 -46h-265l6 46l82 13l11 200l-204 379l-77 15l7 47h258l-6 -47l-83 -13zM412 899q12 11 21.5 16.5t19.5 5.5q18 0 29 -13t11 -32q0 -8 -2 -17t-6 -20l-184 -87l-19 27z" />
    <glyph glyph-name="Thorn" unicode="&#xde;" horiz-adv-x="587" 
d="M50 0l5 44l89 16l25 577l-87 17l6 46h283l-6 -46l-111 -14l-3 -81h59q75 0 132.5 -19.5t89.5 -63t32 -115.5q0 -63 -30 -110t-85.5 -73t-131.5 -26h-81l-4 -93l128 -14l-4 -45h-306zM238 206h75q154 0 154 156q0 53 -21 84t-58 45t-87 14h-51z" />
    <glyph glyph-name="germandbls" unicode="&#xdf;" horiz-adv-x="615" 
d="M415 44q39 0 66 24.5t27 62.5q0 28 -14.5 47.5t-38 34.5t-49.5 30t-49.5 32.5t-38 41t-14.5 57.5q0 36 14.5 64t36 51.5t43.5 46.5t36.5 50t14.5 62q0 44 -30.5 65t-74.5 21q-71 0 -105.5 -38t-36.5 -94l-19 -480q-2 -54 -12.5 -113.5t-29 -111t-43.5 -81.5
q-18 -22 -38.5 -33.5t-42.5 -11.5q-28 0 -47 13.5t-19 32.5q0 14 5 32t18 37l41 -17q29 -12 48 1.5t23 47.5q3 25 4.5 46.5t2.5 58.5l20 536q3 64 31.5 114.5t81 79.5t125.5 29q44 0 85 -13.5t67 -42.5t26 -74q0 -34 -15 -61.5t-37 -50.5t-44 -44t-37 -43.5t-15 -49.5
q0 -28 20 -47.5t50 -37t59.5 -38.5t49.5 -51t20 -76q0 -45 -21 -83t-61 -61t-97 -23q-69 0 -113.5 26t-44.5 67q0 28 17 41t39 13q12 0 24.5 -3t19.5 -8v-26q0 -28 16 -40t56 -12z" />
    <glyph glyph-name="agrave" unicode="&#xe0;" horiz-adv-x="575" 
d="M466 90q-1 -25 4.5 -34t20.5 -9q10 0 22.5 6.5t26.5 18.5l25 -38q-16 -16 -47 -32t-62 -16q-77 0 -68 100l17 188l-7 1l-22 -82q-18 -67 -40 -113t-53.5 -70t-79.5 -24q-53 0 -87.5 28t-51 76.5t-16.5 110.5q0 95 30 167t82 112.5t118 40.5q35 0 65.5 -8t48.5 -17l70 23
l17 -8zM216 54q23 0 40.5 10t32.5 38t32.5 79.5t40.5 135.5l33 119q-19 10 -50 17t-58 7q-44 0 -77.5 -32.5t-52 -90t-18.5 -132.5q0 -79 18.5 -115t58.5 -36zM385 605l-25 -25l-134 98q-31 23 -29 50q1 17 16.5 30t46.5 11z" />
    <glyph glyph-name="aacute" unicode="&#xe1;" horiz-adv-x="575" 
d="M466 90q-1 -25 4.5 -34t20.5 -9q10 0 22.5 6.5t26.5 18.5l25 -38q-16 -16 -47 -32t-62 -16q-77 0 -68 100l17 188l-7 1l-22 -82q-18 -67 -40 -113t-53.5 -70t-79.5 -24q-53 0 -87.5 28t-51 76.5t-16.5 110.5q0 95 30 167t82 112.5t118 40.5q35 0 65.5 -8t48.5 -17l70 23
l17 -8zM216 54q23 0 40.5 10t32.5 38t32.5 79.5t40.5 135.5l33 119q-19 10 -50 17t-58 7q-44 0 -77.5 -32.5t-52 -90t-18.5 -132.5q0 -79 18.5 -115t58.5 -36zM335 746q12 15 21.5 22t23.5 7q22 0 31.5 -17.5t4.5 -52.5l-167 -123l-22 23z" />
    <glyph glyph-name="acircumflex" unicode="&#xe2;" horiz-adv-x="575" 
d="M466 90q-1 -25 4.5 -34t20.5 -9q10 0 22.5 6.5t26.5 18.5l25 -38q-16 -16 -47 -32t-62 -16q-77 0 -68 100l17 188l-7 1l-22 -82q-18 -67 -40 -113t-53.5 -70t-79.5 -24q-53 0 -87.5 28t-51 76.5t-16.5 110.5q0 95 30 167t82 112.5t118 40.5q35 0 65.5 -8t48.5 -17l70 23
l17 -8zM216 54q23 0 40.5 10t32.5 38t32.5 79.5t40.5 135.5l33 119q-19 10 -50 17t-58 7q-44 0 -77.5 -32.5t-52 -90t-18.5 -132.5q0 -79 18.5 -115t58.5 -36zM458 605l-25 -25l-126 102l-127 -100l-22 23l108 141q13 17 23.5 24t21.5 7q9 0 15 -1t13 -3z" />
    <glyph glyph-name="atilde" unicode="&#xe3;" horiz-adv-x="575" 
d="M466 90q-1 -25 4.5 -34t20.5 -9q10 0 22.5 6.5t26.5 18.5l25 -38q-16 -16 -47 -32t-62 -16q-77 0 -68 100l17 188l-7 1l-22 -82q-18 -67 -40 -113t-53.5 -70t-79.5 -24q-53 0 -87.5 28t-51 76.5t-16.5 110.5q0 95 30 167t82 112.5t118 40.5q35 0 65.5 -8t48.5 -17l70 23
l17 -8zM216 54q23 0 40.5 10t32.5 38t32.5 79.5t40.5 135.5l33 119q-19 10 -50 17t-58 7q-44 0 -77.5 -32.5t-52 -90t-18.5 -132.5q0 -79 18.5 -115t58.5 -36zM382 620q-22 0 -42 5.5t-47 18.5q-62 29 -71 29q-13 0 -21.5 -7t-24.5 -30l-31 19q18 36 32.5 55.5t29.5 27.5
t35 8q11 0 27.5 -5.5t57.5 -22.5q27 -11 46 -17.5t27 -6.5q11 0 20 7.5t25 29.5l31 -19q-28 -53 -47.5 -72.5t-46.5 -19.5z" />
    <glyph glyph-name="adieresis" unicode="&#xe4;" horiz-adv-x="575" 
d="M466 90q-1 -25 4.5 -34t20.5 -9q10 0 22.5 6.5t26.5 18.5l25 -38q-16 -16 -47 -32t-62 -16q-77 0 -68 100l17 188l-7 1l-22 -82q-18 -67 -40 -113t-53.5 -70t-79.5 -24q-53 0 -87.5 28t-51 76.5t-16.5 110.5q0 95 30 167t82 112.5t118 40.5q35 0 65.5 -8t48.5 -17l70 23
l17 -8zM216 54q23 0 40.5 10t32.5 38t32.5 79.5t40.5 135.5l33 119q-19 10 -50 17t-58 7q-44 0 -77.5 -32.5t-52 -90t-18.5 -132.5q0 -79 18.5 -115t58.5 -36zM147 680q0 27 18.5 46t45.5 19q29 0 44.5 -16.5t15.5 -43.5q0 -28 -18 -46.5t-47 -18.5q-27 0 -43 16.5t-16 43.5
zM345 680q0 27 18.5 46t46.5 19t43.5 -16.5t15.5 -43.5q0 -28 -18 -46.5t-46 -18.5t-44 16.5t-16 43.5z" />
    <glyph glyph-name="aring" unicode="&#xe5;" horiz-adv-x="575" 
d="M466 90q-1 -25 4.5 -34t20.5 -9q10 0 22.5 6.5t26.5 18.5l25 -38q-16 -16 -47 -32t-62 -16q-77 0 -68 100l17 188l-7 1l-22 -82q-18 -67 -40 -113t-53.5 -70t-79.5 -24q-53 0 -87.5 28t-51 76.5t-16.5 110.5q0 95 30 167t82 112.5t118 40.5q35 0 65.5 -8t48.5 -17l70 23
l17 -8zM216 54q23 0 40.5 10t32.5 38t32.5 79.5t40.5 135.5l33 119q-19 10 -50 17t-58 7q-44 0 -77.5 -32.5t-52 -90t-18.5 -132.5q0 -79 18.5 -115t58.5 -36zM302 582q-52 0 -75 26t-23 71q0 27 12.5 50.5t37 37.5t58.5 14q49 0 72.5 -25t23.5 -69q0 -45 -28.5 -75
t-77.5 -30zM305 628q26 0 36.5 17t10.5 39q0 21 -10.5 36.5t-34.5 15.5q-25 0 -36.5 -18t-11.5 -38t10 -36t36 -16z" />
    <glyph glyph-name="ae" unicode="&#xe6;" horiz-adv-x="776" 
d="M593 521q68 0 101.5 -34.5t33.5 -92.5q0 -55 -28 -88t-70 -51t-85 -29l-111 -27q3 -33 17 -67t41.5 -57t68.5 -23q61 0 130 65l34 -37q-22 -28 -52.5 -49.5t-64.5 -33t-67 -11.5q-53 0 -89.5 22t-57 60.5t-28.5 89.5q-17 -56 -38 -94.5t-51 -58t-74 -19.5q-53 0 -87.5 28
t-51 76.5t-16.5 110.5q0 95 30 167t82 112.5t118 40.5q35 0 65.5 -8t48.5 -17l63 25l17 -8l-8 -46q26 26 59 40t70 14zM216 54q23 0 40.5 10.5t33.5 38.5t33.5 80t40.5 134l33 119q-19 10 -51 17t-59 7q-44 0 -77.5 -32.5t-52 -90t-18.5 -132.5q0 -78 18.5 -114.5
t58.5 -36.5zM639 391q0 29 -14 51.5t-49 22.5q-62 0 -99.5 -55.5t-42.5 -153.5l101 26q53 14 78.5 37t25.5 72z" />
    <glyph glyph-name="ccedilla" unicode="&#xe7;" horiz-adv-x="488" 
d="M291 521q44 0 78 -15.5t54 -43.5t20 -68q0 -28 -16 -46t-45 -18q-21 0 -37.5 12t-24.5 30l21 24q20 22 16 37.5t-23 23.5t-45 8q-46 0 -80 -26t-52.5 -78.5t-18.5 -132.5q0 -48 13.5 -88t41 -64t68.5 -24q35 0 69.5 19.5t68.5 57.5l35 -36q-9 -12 -25.5 -30t-41 -35.5
t-55.5 -29.5t-69 -12q-63 0 -107 31t-66.5 85.5t-22.5 122.5q0 86 30 153t85 105t129 38zM271 13l-21 -65q28 -1 50.5 -8.5t35.5 -24.5t13 -45q0 -45 -34 -72t-84 -27q-21 0 -43.5 5t-38.5 12l15 46q8 -3 25 -7t32 -4q23 0 37.5 10t14.5 32q0 19 -11 27.5t-26.5 10.5
t-30.5 0l-8 21l28 89h46z" />
    <glyph glyph-name="egrave" unicode="&#xe8;" horiz-adv-x="480" 
d="M287 521q75 0 110 -34.5t35 -92.5q0 -55 -28 -88t-70 -51t-85 -29l-111 -27q3 -33 17 -67t41.5 -57t68.5 -23q33 0 63 15t67 50l34 -37q-11 -14 -35.5 -36.5t-61.5 -40t-87 -17.5q-64 0 -108.5 31t-67 85.5t-22.5 122.5q0 86 30 153t84 105t126 38zM343 391
q0 29 -14 51.5t-49 22.5q-62 0 -99.5 -55.5t-42.5 -153.5l101 26q53 14 78.5 37t25.5 72zM358 605l-25 -25l-134 98q-31 23 -29 50q1 17 16.5 30t46.5 11z" />
    <glyph glyph-name="eacute" unicode="&#xe9;" horiz-adv-x="480" 
d="M287 521q75 0 110 -34.5t35 -92.5q0 -55 -28 -88t-70 -51t-85 -29l-111 -27q3 -33 17 -67t41.5 -57t68.5 -23q33 0 63 15t67 50l34 -37q-11 -14 -35.5 -36.5t-61.5 -40t-87 -17.5q-64 0 -108.5 31t-67 85.5t-22.5 122.5q0 86 30 153t84 105t126 38zM343 391
q0 29 -14 51.5t-49 22.5q-62 0 -99.5 -55.5t-42.5 -153.5l101 26q53 14 78.5 37t25.5 72zM308 746q12 15 21.5 22t23.5 7q22 0 31.5 -17.5t4.5 -52.5l-167 -123l-22 23z" />
    <glyph glyph-name="ecircumflex" unicode="&#xea;" horiz-adv-x="480" 
d="M287 521q75 0 110 -34.5t35 -92.5q0 -55 -28 -88t-70 -51t-85 -29l-111 -27q3 -33 17 -67t41.5 -57t68.5 -23q33 0 63 15t67 50l34 -37q-11 -14 -35.5 -36.5t-61.5 -40t-87 -17.5q-64 0 -108.5 31t-67 85.5t-22.5 122.5q0 86 30 153t84 105t126 38zM343 391
q0 29 -14 51.5t-49 22.5q-62 0 -99.5 -55.5t-42.5 -153.5l101 26q53 14 78.5 37t25.5 72zM431 605l-25 -25l-126 102l-127 -100l-22 23l108 141q13 17 23.5 24t21.5 7q9 0 15 -1t13 -3z" />
    <glyph glyph-name="edieresis" unicode="&#xeb;" horiz-adv-x="480" 
d="M287 521q75 0 110 -34.5t35 -92.5q0 -55 -28 -88t-70 -51t-85 -29l-111 -27q3 -33 17 -67t41.5 -57t68.5 -23q33 0 63 15t67 50l34 -37q-11 -14 -35.5 -36.5t-61.5 -40t-87 -17.5q-64 0 -108.5 31t-67 85.5t-22.5 122.5q0 86 30 153t84 105t126 38zM343 391
q0 29 -14 51.5t-49 22.5q-62 0 -99.5 -55.5t-42.5 -153.5l101 26q53 14 78.5 37t25.5 72zM120 680q0 27 18.5 46t45.5 19q29 0 44.5 -16.5t15.5 -43.5q0 -28 -18 -46.5t-47 -18.5q-27 0 -43 16.5t-16 43.5zM318 680q0 27 18.5 46t46.5 19t43.5 -16.5t15.5 -43.5
q0 -28 -18 -46.5t-46 -18.5t-44 16.5t-16 43.5z" />
    <glyph glyph-name="igrave" unicode="&#xec;" horiz-adv-x="306" 
d="M123 416q2 23 -3.5 32t-21.5 9q-27 0 -63 -16l-16 45q26 16 58.5 25.5t57.5 9.5q82 0 73 -113l-23 -318q-1 -25 3.5 -34t19.5 -9q12 0 26.5 7.5t35.5 26.5l25 -38q-18 -18 -38.5 -31t-42 -19.5t-42.5 -6.5q-82 0 -75 91zM218 605l-25 -25l-134 98q-31 23 -29 50
q1 17 16.5 30t46.5 11z" />
    <glyph glyph-name="iacute" unicode="&#xed;" horiz-adv-x="306" 
d="M123 416q2 23 -3.5 32t-21.5 9q-27 0 -63 -16l-16 45q26 16 58.5 25.5t57.5 9.5q82 0 73 -113l-23 -318q-1 -25 3.5 -34t19.5 -9q12 0 26.5 7.5t35.5 26.5l25 -38q-18 -18 -38.5 -31t-42 -19.5t-42.5 -6.5q-82 0 -75 91zM168 746q12 15 21.5 22t23.5 7q22 0 31.5 -17.5
t4.5 -52.5l-167 -123l-22 23z" />
    <glyph glyph-name="icircumflex" unicode="&#xee;" horiz-adv-x="306" 
d="M123 416q2 23 -3.5 32t-21.5 9q-27 0 -63 -16l-16 45q26 16 58.5 25.5t57.5 9.5q82 0 73 -113l-23 -318q-1 -25 3.5 -34t19.5 -9q12 0 26.5 7.5t35.5 26.5l25 -38q-18 -18 -38.5 -31t-42 -19.5t-42.5 -6.5q-82 0 -75 91zM291 605l-25 -25l-126 102l-127 -100l-22 23
l108 141q13 17 23.5 24t21.5 7q9 0 15 -1t13 -3z" />
    <glyph glyph-name="idieresis" unicode="&#xef;" horiz-adv-x="306" 
d="M123 416q2 23 -3.5 32t-21.5 9q-27 0 -63 -16l-16 45q26 16 58.5 25.5t57.5 9.5q82 0 73 -113l-23 -318q-1 -25 3.5 -34t19.5 -9q12 0 26.5 7.5t35.5 26.5l25 -38q-18 -18 -38.5 -31t-42 -19.5t-42.5 -6.5q-82 0 -75 91zM-20 680q0 27 18.5 46t45.5 19q29 0 44.5 -16.5
t15.5 -43.5q0 -28 -18 -46.5t-47 -18.5q-27 0 -43 16.5t-16 43.5zM178 680q0 27 18.5 46t46.5 19t43.5 -16.5t15.5 -43.5q0 -28 -18 -46.5t-46 -18.5t-44 16.5t-16 43.5z" />
    <glyph glyph-name="eth" unicode="&#xf0;" horiz-adv-x="533" 
d="M276 676q-23 18 -52.5 31t-65.5 20l10 44q54 -7 96.5 -22t75.5 -38l115 63l20 -46l-94 -51q46 -45 68 -103.5t29 -121.5t7 -122q0 -98 -23.5 -176t-74 -123t-133.5 -45q-99 0 -152.5 68t-53.5 181q0 75 21.5 140.5t68.5 105.5t125 40q38 0 70.5 -17.5t51.5 -48.5l4 2
q-8 50 -25.5 97.5t-49.5 85.5l-99 -54l-20 46zM260 45q54 0 82.5 32.5t39.5 85.5t11 113q0 55 -12 97t-38.5 66t-72.5 24q-53 0 -80.5 -33t-37 -85.5t-9.5 -113.5q0 -55 12.5 -97t38.5 -65.5t66 -23.5z" />
    <glyph glyph-name="ntilde" unicode="&#xf1;" horiz-adv-x="603" 
d="M586 35q-11 -10 -31 -21.5t-42.5 -19.5t-43.5 -8q-81 0 -73 83l25 285q5 53 -4.5 73t-34.5 20q-20 0 -33.5 -10.5t-25 -36t-27.5 -70.5l-117 -330h-82l16 416q1 22 -5.5 31t-21.5 9q-10 0 -24 -4.5t-35 -13.5l-17 50q11 6 30.5 14t42 13.5t42.5 5.5q43 0 59 -26t11 -76
l-25 -267l7 -2l73 217q27 80 61.5 117t91.5 37q67 0 89 -43t14 -130l-22 -258q-2 -22 2.5 -32.5t20.5 -10.5q11 0 26.5 6.5t29.5 17.5zM375 620q-22 0 -42 5.5t-47 18.5q-62 29 -71 29q-13 0 -21.5 -7t-24.5 -30l-31 19q18 36 32.5 55.5t29.5 27.5t35 8q11 0 27.5 -5.5
t57.5 -22.5q27 -11 46 -17.5t27 -6.5q11 0 20 7.5t25 29.5l31 -19q-28 -53 -47.5 -72.5t-46.5 -19.5z" />
    <glyph glyph-name="ograve" unicode="&#xf2;" horiz-adv-x="539" 
d="M254 -14q-99 0 -152.5 68t-53.5 181q0 56 13 107.5t40.5 91.5t72.5 63.5t109 23.5q66 0 112.5 -30.5t71 -86t24.5 -130.5q0 -76 -24 -141.5t-76 -106t-137 -40.5zM260 45q54 0 83.5 32.5t41.5 85t12 112.5q0 55 -11.5 97t-38 66.5t-72.5 24.5q-40 0 -66 -19t-40.5 -51.5
t-20 -74.5t-5.5 -87q0 -83 28 -134.5t89 -51.5zM365 605l-25 -25l-134 98q-31 23 -29 50q1 17 16.5 30t46.5 11z" />
    <glyph glyph-name="oacute" unicode="&#xf3;" horiz-adv-x="539" 
d="M254 -14q-99 0 -152.5 68t-53.5 181q0 56 13 107.5t40.5 91.5t72.5 63.5t109 23.5q66 0 112.5 -30.5t71 -86t24.5 -130.5q0 -76 -24 -141.5t-76 -106t-137 -40.5zM260 45q54 0 83.5 32.5t41.5 85t12 112.5q0 55 -11.5 97t-38 66.5t-72.5 24.5q-40 0 -66 -19t-40.5 -51.5
t-20 -74.5t-5.5 -87q0 -83 28 -134.5t89 -51.5zM315 746q12 15 21.5 22t23.5 7q22 0 31.5 -17.5t4.5 -52.5l-167 -123l-22 23z" />
    <glyph glyph-name="ocircumflex" unicode="&#xf4;" horiz-adv-x="539" 
d="M254 -14q-99 0 -152.5 68t-53.5 181q0 56 13 107.5t40.5 91.5t72.5 63.5t109 23.5q66 0 112.5 -30.5t71 -86t24.5 -130.5q0 -76 -24 -141.5t-76 -106t-137 -40.5zM260 45q54 0 83.5 32.5t41.5 85t12 112.5q0 55 -11.5 97t-38 66.5t-72.5 24.5q-40 0 -66 -19t-40.5 -51.5
t-20 -74.5t-5.5 -87q0 -83 28 -134.5t89 -51.5zM438 605l-25 -25l-126 102l-127 -100l-22 23l108 141q13 17 23.5 24t21.5 7q9 0 15 -1t13 -3z" />
    <glyph glyph-name="otilde" unicode="&#xf5;" horiz-adv-x="539" 
d="M254 -14q-99 0 -152.5 68t-53.5 181q0 56 13 107.5t40.5 91.5t72.5 63.5t109 23.5q66 0 112.5 -30.5t71 -86t24.5 -130.5q0 -76 -24 -141.5t-76 -106t-137 -40.5zM260 45q54 0 83.5 32.5t41.5 85t12 112.5q0 55 -11.5 97t-38 66.5t-72.5 24.5q-40 0 -66 -19t-40.5 -51.5
t-20 -74.5t-5.5 -87q0 -83 28 -134.5t89 -51.5zM362 620q-22 0 -42 5.5t-47 18.5q-62 29 -71 29q-13 0 -21.5 -7t-24.5 -30l-31 19q18 36 32.5 55.5t29.5 27.5t35 8q11 0 27.5 -5.5t57.5 -22.5q27 -11 46 -17.5t27 -6.5q11 0 20 7.5t25 29.5l31 -19q-28 -53 -47.5 -72.5
t-46.5 -19.5z" />
    <glyph glyph-name="odieresis" unicode="&#xf6;" horiz-adv-x="539" 
d="M254 -14q-99 0 -152.5 68t-53.5 181q0 56 13 107.5t40.5 91.5t72.5 63.5t109 23.5q66 0 112.5 -30.5t71 -86t24.5 -130.5q0 -76 -24 -141.5t-76 -106t-137 -40.5zM260 45q54 0 83.5 32.5t41.5 85t12 112.5q0 55 -11.5 97t-38 66.5t-72.5 24.5q-40 0 -66 -19t-40.5 -51.5
t-20 -74.5t-5.5 -87q0 -83 28 -134.5t89 -51.5zM127 680q0 27 18.5 46t45.5 19q29 0 44.5 -16.5t15.5 -43.5q0 -28 -18 -46.5t-47 -18.5q-27 0 -43 16.5t-16 43.5zM325 680q0 27 18.5 46t46.5 19t43.5 -16.5t15.5 -43.5q0 -28 -18 -46.5t-46 -18.5t-44 16.5t-16 43.5z" />
    <glyph glyph-name="divide" unicode="&#xf7;" horiz-adv-x="582" 
d="M78 275l3 63h428l-3 -63h-428zM234 458q2 26 22 44t46 18q27 0 46 -17.5t17 -43.5q-1 -26 -21 -44t-47 -18q-26 0 -45 17.5t-18 43.5zM283 89q-26 0 -44.5 17.5t-17.5 43.5t21 44t46 18q27 0 46 -17.5t18 -43.5t-21.5 -44t-47.5 -18z" />
    <glyph glyph-name="oslash" unicode="&#xf8;" horiz-adv-x="539" 
d="M445 521h67l-431 -535h-68zM254 -14q-99 0 -152.5 68t-53.5 181q0 56 13 107.5t40.5 91.5t72.5 63.5t109 23.5q66 0 112.5 -30.5t71 -86t24.5 -130.5q0 -76 -24 -141.5t-76 -106t-137 -40.5zM260 45q54 0 83.5 32.5t41.5 85t12 112.5q0 55 -11.5 97t-38 66.5t-72.5 24.5
q-40 0 -66 -19t-40.5 -51.5t-20 -74.5t-5.5 -87q0 -83 28 -134.5t89 -51.5z" />
    <glyph glyph-name="ugrave" unicode="&#xf9;" horiz-adv-x="600" 
d="M19 472q15 13 35.5 24t42.5 18t39 7q81 0 73 -83l-25 -282q-4 -54 3.5 -75t31.5 -21q18 0 31 9.5t25.5 35.5t29.5 75l113 328h82l-16 -417q-1 -22 5.5 -31t21.5 -9q12 0 27.5 5.5t31.5 12.5l17 -50q-22 -13 -57 -23t-58 -10q-40 0 -57 25t-13 77l25 270l-8 1l-68 -219
q-25 -82 -61 -118t-92 -36q-61 0 -84 40.5t-15 135.5l22 255q2 25 -2.5 34t-20.5 9q-12 0 -27.5 -6.5t-28.5 -17.5zM380 605l-25 -25l-134 98q-31 23 -29 50q1 17 16.5 30t46.5 11z" />
    <glyph glyph-name="uacute" unicode="&#xfa;" horiz-adv-x="600" 
d="M19 472q15 13 35.5 24t42.5 18t39 7q81 0 73 -83l-25 -282q-4 -54 3.5 -75t31.5 -21q18 0 31 9.5t25.5 35.5t29.5 75l113 328h82l-16 -417q-1 -22 5.5 -31t21.5 -9q12 0 27.5 5.5t31.5 12.5l17 -50q-22 -13 -57 -23t-58 -10q-40 0 -57 25t-13 77l25 270l-8 1l-68 -219
q-25 -82 -61 -118t-92 -36q-61 0 -84 40.5t-15 135.5l22 255q2 25 -2.5 34t-20.5 9q-12 0 -27.5 -6.5t-28.5 -17.5zM330 746q12 15 21.5 22t23.5 7q22 0 31.5 -17.5t4.5 -52.5l-167 -123l-22 23z" />
    <glyph glyph-name="ucircumflex" unicode="&#xfb;" horiz-adv-x="600" 
d="M19 472q15 13 35.5 24t42.5 18t39 7q81 0 73 -83l-25 -282q-4 -54 3.5 -75t31.5 -21q18 0 31 9.5t25.5 35.5t29.5 75l113 328h82l-16 -417q-1 -22 5.5 -31t21.5 -9q12 0 27.5 5.5t31.5 12.5l17 -50q-22 -13 -57 -23t-58 -10q-40 0 -57 25t-13 77l25 270l-8 1l-68 -219
q-25 -82 -61 -118t-92 -36q-61 0 -84 40.5t-15 135.5l22 255q2 25 -2.5 34t-20.5 9q-12 0 -27.5 -6.5t-28.5 -17.5zM453 605l-25 -25l-126 102l-127 -100l-22 23l108 141q13 17 23.5 24t21.5 7q9 0 15 -1t13 -3z" />
    <glyph glyph-name="udieresis" unicode="&#xfc;" horiz-adv-x="600" 
d="M19 472q15 13 35.5 24t42.5 18t39 7q81 0 73 -83l-25 -282q-4 -54 3.5 -75t31.5 -21q18 0 31 9.5t25.5 35.5t29.5 75l113 328h82l-16 -417q-1 -22 5.5 -31t21.5 -9q12 0 27.5 5.5t31.5 12.5l17 -50q-22 -13 -57 -23t-58 -10q-40 0 -57 25t-13 77l25 270l-8 1l-68 -219
q-25 -82 -61 -118t-92 -36q-61 0 -84 40.5t-15 135.5l22 255q2 25 -2.5 34t-20.5 9q-12 0 -27.5 -6.5t-28.5 -17.5zM142 680q0 27 18.5 46t45.5 19q29 0 44.5 -16.5t15.5 -43.5q0 -28 -18 -46.5t-47 -18.5q-27 0 -43 16.5t-16 43.5zM340 680q0 27 18.5 46t46.5 19
t43.5 -16.5t15.5 -43.5q0 -28 -18 -46.5t-46 -18.5t-44 16.5t-16 43.5z" />
    <glyph glyph-name="yacute" unicode="&#xfd;" horiz-adv-x="529" 
d="M298 -57q-20 -46 -42 -85.5t-55 -63t-86 -23.5q-39 0 -65.5 19t-26.5 51q0 26 17 46t47 24l15 -28q15 -27 24 -35t24 -8q24 0 39.5 20.5t37.5 70.5l30 69h-9q-32 0 -52 14.5t-38 44.5q-25 42 -40.5 120t-15.5 174q0 17 0.5 38.5t0.5 37.5t-5.5 22t-16.5 6t-31.5 -6
t-32.5 -12l-17 49q17 9 50.5 21t67.5 12q40 0 56 -23t16 -63q0 -17 -1 -34.5t-1 -40.5q0 -88 9.5 -149.5t28.5 -102.5q12 -25 21.5 -33t23.5 -8h16l113 271q16 38 13 57t-28 28l-35 13q-5 37 12.5 61t54.5 24t55.5 -24t18.5 -60q0 -20 -6.5 -46.5t-21.5 -66t-41 -98.5z
M306 746q12 15 21.5 22t23.5 7q22 0 31.5 -17.5t4.5 -52.5l-167 -123l-22 23z" />
    <glyph glyph-name="thorn" unicode="&#xfe;" horiz-adv-x="488" 
d="M93 -227l-16 12l18 276l22 637l-93 21l6 48h156l16 -11l-12 -331l-27 -235l8 -2l37 138q18 68 41 111t54.5 63.5t76.5 20.5q77 0 112.5 -57t35.5 -156q0 -104 -32 -176t-85.5 -109t-120.5 -37q-37 0 -68 9t-48 18l-12 -179l93 -10l-5 -48zM285 48q47 0 81 32.5t53 89.5
t19 131q0 21 -1.5 46.5t-8 49.5t-21 39t-40.5 15q-24 0 -41.5 -9.5t-33 -37t-33 -80t-41.5 -138.5l-33 -115q18 -8 42.5 -15.5t57.5 -7.5z" />
    <glyph glyph-name="ydieresis" unicode="&#xff;" horiz-adv-x="529" 
d="M298 -57q-20 -46 -42 -85.5t-55 -63t-86 -23.5q-39 0 -65.5 19t-26.5 51q0 26 17 46t47 24l15 -28q15 -27 24 -35t24 -8q24 0 39.5 20.5t37.5 70.5l30 69h-9q-32 0 -52 14.5t-38 44.5q-25 42 -40.5 120t-15.5 174q0 17 0.5 38.5t0.5 37.5t-5.5 22t-16.5 6t-31.5 -6
t-32.5 -12l-17 49q17 9 50.5 21t67.5 12q40 0 56 -23t16 -63q0 -17 -1 -34.5t-1 -40.5q0 -88 9.5 -149.5t28.5 -102.5q12 -25 21.5 -33t23.5 -8h16l113 271q16 38 13 57t-28 28l-35 13q-5 37 12.5 61t54.5 24t55.5 -24t18.5 -60q0 -20 -6.5 -46.5t-21.5 -66t-41 -98.5z
M118 680q0 27 18.5 46t45.5 19q29 0 44.5 -16.5t15.5 -43.5q0 -28 -18 -46.5t-47 -18.5q-27 0 -43 16.5t-16 43.5zM316 680q0 27 18.5 46t46.5 19t43.5 -16.5t15.5 -43.5q0 -28 -18 -46.5t-46 -18.5t-44 16.5t-16 43.5z" />
    <glyph glyph-name="Amacron" unicode="&#x100;" horiz-adv-x="691" 
d="M421 706l182 -649l85 -11l-6 -46h-266l6 46l81 12l-46 173h-240l-60 -173l91 -12l-6 -46h-234l6 46l79 12l229 637zM237 288h205l-87 331h-3zM241 868h283l-4 -73h-283z" />
    <glyph glyph-name="amacron" unicode="&#x101;" horiz-adv-x="575" 
d="M466 90q-1 -25 4.5 -34t20.5 -9q10 0 22.5 6.5t26.5 18.5l25 -38q-16 -16 -47 -32t-62 -16q-77 0 -68 100l17 188l-7 1l-22 -82q-18 -67 -40 -113t-53.5 -70t-79.5 -24q-53 0 -87.5 28t-51 76.5t-16.5 110.5q0 95 30 167t82 112.5t118 40.5q35 0 65.5 -8t48.5 -17l70 23
l17 -8zM216 54q23 0 40.5 10t32.5 38t32.5 79.5t40.5 135.5l33 119q-19 10 -50 17t-58 7q-44 0 -77.5 -32.5t-52 -90t-18.5 -132.5q0 -79 18.5 -115t58.5 -36zM169 708h283l-4 -73h-283z" />
    <glyph glyph-name="Abreve" unicode="&#x102;" horiz-adv-x="691" 
d="M421 706l182 -649l85 -11l-6 -46h-266l6 46l81 12l-46 173h-240l-60 -173l91 -12l-6 -46h-234l6 46l79 12l229 637zM237 288h205l-87 331h-3zM264 928q23 -96 119 -96q50 0 78 26t41 69l38 -10q-5 -40 -24 -78t-53.5 -62.5t-87.5 -24.5q-50 0 -82.5 23t-49 60.5
t-19.5 80.5z" />
    <glyph glyph-name="abreve" unicode="&#x103;" horiz-adv-x="575" 
d="M466 90q-1 -25 4.5 -34t20.5 -9q10 0 22.5 6.5t26.5 18.5l25 -38q-16 -16 -47 -32t-62 -16q-77 0 -68 100l17 188l-7 1l-22 -82q-18 -67 -40 -113t-53.5 -70t-79.5 -24q-53 0 -87.5 28t-51 76.5t-16.5 110.5q0 95 30 167t82 112.5t118 40.5q35 0 65.5 -8t48.5 -17l70 23
l17 -8zM216 54q23 0 40.5 10t32.5 38t32.5 79.5t40.5 135.5l33 119q-19 10 -50 17t-58 7q-44 0 -77.5 -32.5t-52 -90t-18.5 -132.5q0 -79 18.5 -115t58.5 -36zM194 768q14 -49 37 -75t67 -26q45 0 74.5 28.5t42.5 71.5l38 -10q-5 -39 -24.5 -78.5t-53 -65.5t-82.5 -26
q-47 0 -76 24.5t-43.5 63t-19.5 81.5z" />
    <glyph glyph-name="Aogonek" unicode="&#x104;" horiz-adv-x="691" 
d="M421 706l182 -649l85 -11l-6 -46h-93q-39 -33 -60 -66t-21 -62q0 -33 31 -33q26 0 57 33l28 -28q-23 -34 -55.5 -53.5t-68.5 -19.5q-34 0 -54.5 20.5t-20.5 53.5q0 38 28.5 78.5t79.5 76.5h-117l6 46l81 12l-46 173h-240l-60 -173l91 -12l-6 -46h-234l6 46l79 12l229 637
zM237 288h205l-87 331h-3z" />
    <glyph glyph-name="aogonek" unicode="&#x105;" horiz-adv-x="575" 
d="M466 90q-1 -25 4.5 -34t20.5 -9q19 0 49 25l25 -38q-61 -46 -95 -88.5t-34 -73.5q0 -33 31 -33q26 0 57 33l28 -28q-23 -34 -55.5 -53.5t-68.5 -19.5q-34 0 -54.5 20.5t-20.5 53.5q0 22 8 40.5t29 42t59 58.5q-70 5 -61 100l17 188l-7 1l-22 -82q-20 -76 -44 -121.5
t-55 -65.5t-74 -20q-73 0 -114 56.5t-41 158.5q0 94 29.5 166t81.5 113t119 41q29 0 60.5 -7t53.5 -18l70 23l17 -8zM216 54q23 0 40.5 10.5t33 38.5t33 80t39.5 134l33 119q-20 11 -51 17.5t-57 6.5q-44 0 -77.5 -32.5t-52 -89.5t-18.5 -133q0 -77 18.5 -114t58.5 -37z" />
    <glyph glyph-name="Cacute" unicode="&#x106;" horiz-adv-x="624" 
d="M489 571q17 34 -16 57.5t-98 23.5q-106 0 -163 -82.5t-57 -235.5q0 -84 24.5 -147t69.5 -97.5t105 -34.5q53 0 100 27.5t96 85.5l39 -40q-103 -142 -245 -142q-86 0 -149.5 42t-98.5 118t-35 179q0 119 39.5 206.5t111 135.5t167.5 48q61 0 111 -20t79.5 -53.5
t29.5 -75.5q0 -26 -15.5 -42.5t-39.5 -16.5q-42 0 -72 30zM412 899q12 11 21.5 16.5t19.5 5.5q18 0 29 -13t11 -32q0 -8 -2 -17t-6 -20l-184 -87l-19 27z" />
    <glyph glyph-name="cacute" unicode="&#x107;" horiz-adv-x="488" 
d="M291 521q44 0 78 -15.5t54 -43.5t20 -68q0 -28 -16 -46t-45 -18q-21 0 -37.5 12t-24.5 30l21 24q20 22 16 37.5t-23 23.5t-45 8q-46 0 -80 -26t-52.5 -78.5t-18.5 -132.5q0 -48 13.5 -88t41 -64t68.5 -24q35 0 69.5 19.5t68.5 57.5l35 -36q-9 -12 -25.5 -30t-41 -35.5
t-55.5 -29.5t-69 -12q-63 0 -107 31t-66.5 85.5t-22.5 122.5q0 86 30 153t85 105t129 38zM317 746q12 15 21.5 22t23.5 7q22 0 31.5 -17.5t4.5 -52.5l-167 -123l-22 23z" />
    <glyph glyph-name="Ccircumflex" unicode="&#x108;" horiz-adv-x="624" 
d="M489 571q17 34 -16 57.5t-98 23.5q-106 0 -163 -82.5t-57 -235.5q0 -84 24.5 -147t69.5 -97.5t105 -34.5q53 0 100 27.5t96 85.5l39 -40q-103 -142 -245 -142q-86 0 -149.5 42t-98.5 118t-35 179q0 119 39.5 206.5t111 135.5t167.5 48q61 0 111 -20t79.5 -53.5
t29.5 -75.5q0 -26 -15.5 -42.5t-39.5 -16.5q-42 0 -72 30zM540 774l-25 -24l-137 88l-136 -87l-22 26l115 126q29 30 48 30q9 0 14 -1t10 -3z" />
    <glyph glyph-name="ccircumflex" unicode="&#x109;" horiz-adv-x="488" 
d="M291 521q44 0 78 -15.5t54 -43.5t20 -68q0 -28 -16 -46t-45 -18q-21 0 -37.5 12t-24.5 30l21 24q20 22 16 37.5t-23 23.5t-45 8q-46 0 -80 -26t-52.5 -78.5t-18.5 -132.5q0 -48 13.5 -88t41 -64t68.5 -24q35 0 69.5 19.5t68.5 57.5l35 -36q-9 -12 -25.5 -30t-41 -35.5
t-55.5 -29.5t-69 -12q-63 0 -107 31t-66.5 85.5t-22.5 122.5q0 86 30 153t85 105t129 38zM440 605l-25 -25l-126 102l-127 -100l-22 23l108 141q13 17 23.5 24t21.5 7q9 0 15 -1t13 -3z" />
    <glyph glyph-name="Cdotaccent" unicode="&#x10a;" horiz-adv-x="624" 
d="M489 571q17 34 -16 57.5t-98 23.5q-106 0 -163 -82.5t-57 -235.5q0 -84 24.5 -147t69.5 -97.5t105 -34.5q53 0 100 27.5t96 85.5l39 -40q-103 -142 -245 -142q-86 0 -149.5 42t-98.5 118t-35 179q0 119 39.5 206.5t111 135.5t167.5 48q61 0 111 -20t79.5 -53.5
t29.5 -75.5q0 -26 -15.5 -42.5t-39.5 -16.5q-42 0 -72 30zM315 833q0 29 18 48t47 19t46.5 -18.5t17.5 -47.5t-17.5 -48t-46.5 -19t-47 18.5t-18 47.5z" />
    <glyph glyph-name="cdotaccent" unicode="&#x10b;" horiz-adv-x="488" 
d="M291 521q44 0 78 -15.5t54 -43.5t20 -68q0 -28 -16 -46t-45 -18q-21 0 -37.5 12t-24.5 30l21 24q20 22 16 37.5t-23 23.5t-45 8q-46 0 -80 -26t-52.5 -78.5t-18.5 -132.5q0 -48 13.5 -88t41 -64t68.5 -24q35 0 69.5 19.5t68.5 57.5l35 -36q-9 -12 -25.5 -30t-41 -35.5
t-55.5 -29.5t-69 -12q-63 0 -107 31t-66.5 85.5t-22.5 122.5q0 86 30 153t85 105t129 38zM223 686q0 29 18 48t47 19t46.5 -18.5t17.5 -47.5t-17.5 -48t-46.5 -19t-47 18.5t-18 47.5z" />
    <glyph glyph-name="Ccaron" unicode="&#x10c;" horiz-adv-x="624" 
d="M489 571q17 34 -16 57.5t-98 23.5q-106 0 -163 -82.5t-57 -235.5q0 -84 24.5 -147t69.5 -97.5t105 -34.5q53 0 100 27.5t96 85.5l39 -40q-103 -142 -245 -142q-86 0 -149.5 42t-98.5 118t-35 179q0 119 39.5 206.5t111 135.5t167.5 48q61 0 111 -20t79.5 -53.5
t29.5 -75.5q0 -26 -15.5 -42.5t-39.5 -16.5q-42 0 -72 30zM228 912l25 24l137 -88l136 87l22 -26l-115 -126q-29 -30 -48 -30q-15 0 -24 4z" />
    <glyph glyph-name="ccaron" unicode="&#x10d;" horiz-adv-x="488" 
d="M291 521q44 0 78 -15.5t54 -43.5t20 -68q0 -28 -16 -46t-45 -18q-21 0 -37.5 12t-24.5 30l21 24q20 22 16 37.5t-23 23.5t-45 8q-46 0 -80 -26t-52.5 -78.5t-18.5 -132.5q0 -48 13.5 -88t41 -64t68.5 -24q35 0 69.5 19.5t68.5 57.5l35 -36q-9 -12 -25.5 -30t-41 -35.5
t-55.5 -29.5t-69 -12q-63 0 -107 31t-66.5 85.5t-22.5 122.5q0 86 30 153t85 105t129 38zM140 752l25 25l126 -103l127 101l22 -23l-108 -141q-13 -17 -23.5 -24t-21.5 -7q-9 0 -15 1t-13 3z" />
    <glyph glyph-name="Dcaron" unicode="&#x10e;" horiz-adv-x="732" 
d="M50 0l5 45l89 15l25 577l-87 17l6 46h267q161 0 249.5 -80.5t88.5 -227.5q0 -124 -50 -211.5t-145 -134t-230 -46.5h-218zM232 55h28q163 0 249.5 84.5t86.5 243.5q0 125 -66 194t-186 69h-89zM218 912l25 24l137 -88l136 87l22 -26l-115 -126q-29 -30 -48 -30
q-15 0 -24 4z" />
    <glyph glyph-name="dcaron" unicode="&#x10f;" horiz-adv-x="665" 
d="M464 86q-1 -22 4.5 -31t21.5 -9q14 0 28 7.5t29 17.5l23 -34q-11 -10 -30.5 -22t-41.5 -20.5t-43 -8.5q-44 0 -58 28.5t-10 71.5l16 188l-7 1l-23 -86q-18 -67 -39.5 -112t-54 -68t-82.5 -23q-53 0 -86.5 30t-49 80.5t-15.5 109.5q0 94 29 164.5t81.5 110.5t122.5 40
q30 0 62 -8t50 -17l8 202l-93 21l6 48h156l16 -11zM213 54q24 0 42 11t33.5 39t33 79.5t39.5 132.5l33 121q-19 10 -51.5 16.5t-55.5 6.5q-47 0 -81 -32.5t-52 -88.5t-18 -128q0 -78 19.5 -117.5t57.5 -39.5zM576 542l-27 27q24 29 36 50.5t12 37.5q0 7 -2.5 13.5
t-10.5 12.5l-23 18q-5 24 7 45.5t42 21.5q28 0 45 -17.5t17 -50.5q0 -36 -22 -72t-74 -86z" />
    <glyph glyph-name="Dcroat" unicode="&#x110;" horiz-adv-x="732" 
d="M50 391h395l-8 -60h-396zM50 0l5 45l89 15l25 577l-87 17l6 46h267q161 0 249.5 -80.5t88.5 -227.5q0 -124 -50 -211.5t-145 -134t-230 -46.5h-218zM232 55h28q163 0 249.5 84.5t86.5 243.5q0 125 -66 194t-186 69h-89z" />
    <glyph glyph-name="dcroat" unicode="&#x111;" horiz-adv-x="575" 
d="M48 206q0 94 29 164.5t81.5 110.5t122.5 40q30 0 62 -8t50 -17l3 85h-138l8 57h133l2 60l-93 21l6 48h156l16 -11l-4 -118h102l-7 -57h-96l-15 -495q-1 -22 4.5 -31t21.5 -9q14 0 28 7.5t29 17.5l23 -34q-11 -10 -30.5 -22t-41.5 -20.5t-43 -8.5q-44 0 -58 28.5t-10 71.5
l16 188l-7 1l-23 -86q-18 -67 -39.5 -112t-54 -68t-82.5 -23q-53 0 -86.5 30t-49 80.5t-15.5 109.5zM138 211q0 -85 20.5 -121t56.5 -36q23 0 41 10t33.5 37t33 79t40.5 136l33 121q-19 10 -51.5 16.5t-55.5 6.5q-47 0 -81 -32.5t-52 -88.5t-18 -128z" />
    <glyph glyph-name="Emacron" unicode="&#x112;" horiz-adv-x="600" 
d="M168 637l-86 17l6 46h454l14 -168l-55 -9l-11 36q-10 35 -21.5 53t-28.5 24.5t-46 6.5h-139l-10 -252h249l-5 -63h-247l-11 -270h157q44 0 65 17.5t38 67.5l14 41h55l-24 -184h-479l6 46l82 13zM206 868h283l-4 -73h-283z" />
    <glyph glyph-name="emacron" unicode="&#x113;" horiz-adv-x="480" 
d="M287 521q75 0 110 -34.5t35 -92.5q0 -55 -28 -88t-70 -51t-85 -29l-111 -27q3 -33 17 -67t41.5 -57t68.5 -23q33 0 63 15t67 50l34 -37q-11 -14 -35.5 -36.5t-61.5 -40t-87 -17.5q-64 0 -108.5 31t-67 85.5t-22.5 122.5q0 86 30 153t84 105t126 38zM343 391
q0 29 -14 51.5t-49 22.5q-62 0 -99.5 -55.5t-42.5 -153.5l101 26q53 14 78.5 37t25.5 72zM142 708h283l-4 -73h-283z" />
    <glyph glyph-name="Ebreve" unicode="&#x114;" horiz-adv-x="600" 
d="M168 637l-86 17l6 46h454l14 -168l-55 -9l-11 36q-10 35 -21.5 53t-28.5 24.5t-46 6.5h-139l-10 -252h249l-5 -63h-247l-11 -270h157q44 0 65 17.5t38 67.5l14 41h55l-24 -184h-479l6 46l82 13zM229 928q23 -96 119 -96q50 0 78 26t41 69l38 -10q-5 -40 -24 -78
t-53.5 -62.5t-87.5 -24.5q-50 0 -82.5 23t-49 60.5t-19.5 80.5z" />
    <glyph glyph-name="ebreve" unicode="&#x115;" horiz-adv-x="480" 
d="M287 521q75 0 110 -34.5t35 -92.5q0 -55 -28 -88t-70 -51t-85 -29l-111 -27q3 -33 17 -67t41.5 -57t68.5 -23q33 0 63 15t67 50l34 -37q-11 -14 -35.5 -36.5t-61.5 -40t-87 -17.5q-64 0 -108.5 31t-67 85.5t-22.5 122.5q0 86 30 153t84 105t126 38zM343 391
q0 29 -14 51.5t-49 22.5q-62 0 -99.5 -55.5t-42.5 -153.5l101 26q53 14 78.5 37t25.5 72zM167 768q14 -49 37 -75t67 -26q45 0 74.5 28.5t42.5 71.5l38 -10q-5 -39 -24.5 -78.5t-53 -65.5t-82.5 -26q-47 0 -76 24.5t-43.5 63t-19.5 81.5z" />
    <glyph glyph-name="Edotaccent" unicode="&#x116;" horiz-adv-x="600" 
d="M168 637l-86 17l6 46h454l14 -168l-55 -9l-11 36q-10 35 -21.5 53t-28.5 24.5t-46 6.5h-139l-10 -252h249l-5 -63h-247l-11 -270h157q44 0 65 17.5t38 67.5l14 41h55l-24 -184h-479l6 46l82 13zM280 833q0 29 18 48t47 19t46.5 -18.5t17.5 -47.5t-17.5 -48t-46.5 -19
t-47 18.5t-18 47.5z" />
    <glyph glyph-name="edotaccent" unicode="&#x117;" horiz-adv-x="480" 
d="M287 521q75 0 110 -34.5t35 -92.5q0 -55 -28 -88t-70 -51t-85 -29l-111 -27q3 -33 17 -67t41.5 -57t68.5 -23q33 0 63 15t67 50l34 -37q-11 -14 -35.5 -36.5t-61.5 -40t-87 -17.5q-64 0 -108.5 31t-67 85.5t-22.5 122.5q0 86 30 153t84 105t126 38zM343 391
q0 29 -14 51.5t-49 22.5q-62 0 -99.5 -55.5t-42.5 -153.5l101 26q53 14 78.5 37t25.5 72zM214 686q0 29 18 48t47 19t46.5 -18.5t17.5 -47.5t-17.5 -48t-46.5 -19t-47 18.5t-18 47.5z" />
    <glyph glyph-name="Eogonek" unicode="&#x118;" horiz-adv-x="600" 
d="M63 46l82 13l23 578l-86 17l6 46h454l14 -168l-55 -9l-11 36q-9 32 -19.5 50t-27.5 26t-49 8h-139l-10 -252h249l-5 -63h-247l-11 -270h157q46 0 66.5 18t36.5 67l14 41h55l-24 -184q-35 -16 -63 -37t-44 -44.5t-16 -46.5q0 -16 7.5 -24.5t23.5 -8.5q14 0 29 9.5t28 23.5
l28 -28q-19 -29 -51 -51t-73 -22q-30 0 -52.5 18.5t-22.5 55.5q0 34 22.5 63.5t54 53t58.5 38.5h-408z" />
    <glyph glyph-name="eogonek" unicode="&#x119;" horiz-adv-x="480" 
d="M285 -229q-33 0 -54 19t-21 50q0 36 21 70t75 85q-14 -4 -29 -6.5t-32 -2.5q-91 0 -144.5 65t-53.5 174q0 88 30.5 154.5t84.5 104t125 37.5t108 -32.5t37 -94.5t-44.5 -103.5t-138.5 -64.5l-111 -27q6 -65 41.5 -106t85.5 -41q32 0 62.5 15.5t67.5 49.5l34 -37
q-6 -7 -15.5 -17.5t-21.5 -22.5q-31 -31 -53 -61.5t-34 -57.5t-12 -48q0 -34 31 -34q27 0 57 33l28 -28q-23 -34 -55.5 -53.5t-68.5 -19.5zM138 256l101 26q57 15 80.5 39.5t23.5 69.5q0 35 -16.5 54.5t-46.5 19.5q-62 0 -99.5 -55t-42.5 -154z" />
    <glyph glyph-name="Ecaron" unicode="&#x11a;" horiz-adv-x="600" 
d="M168 637l-86 17l6 46h454l14 -168l-55 -9l-11 36q-10 35 -21.5 53t-28.5 24.5t-46 6.5h-139l-10 -252h249l-5 -63h-247l-11 -270h157q44 0 65 17.5t38 67.5l14 41h55l-24 -184h-479l6 46l82 13zM193 912l25 24l137 -88l136 87l22 -26l-115 -126q-29 -30 -48 -30
q-15 0 -24 4z" />
    <glyph glyph-name="ecaron" unicode="&#x11b;" horiz-adv-x="480" 
d="M287 521q75 0 110 -34.5t35 -92.5q0 -55 -28 -88t-70 -51t-85 -29l-111 -27q3 -33 17 -67t41.5 -57t68.5 -23q33 0 63 15t67 50l34 -37q-11 -14 -35.5 -36.5t-61.5 -40t-87 -17.5q-64 0 -108.5 31t-67 85.5t-22.5 122.5q0 86 30 153t84 105t126 38zM343 391
q0 29 -14 51.5t-49 22.5q-62 0 -99.5 -55.5t-42.5 -153.5l101 26q53 14 78.5 37t25.5 72zM131 752l25 25l126 -103l127 101l22 -23l-108 -141q-13 -17 -23.5 -24t-21.5 -7q-9 0 -15 1t-13 3z" />
    <glyph glyph-name="Gcircumflex" unicode="&#x11c;" horiz-adv-x="639" 
d="M602 332l-12 -273q-29 -21 -68 -37.5t-80.5 -26t-80.5 -9.5q-91 0 -158.5 41.5t-104.5 118t-37 179.5q0 119 41 206.5t116 135.5t176 48q64 0 115 -20t81 -53.5t30 -75.5q0 -26 -15.5 -42.5t-39.5 -16.5q-20 0 -39 8t-33 22l17 34q17 35 -16.5 58t-100.5 23
q-113 0 -175.5 -83.5t-62.5 -235.5q0 -86 26 -149.5t73 -98t111 -34.5q39 0 76.5 10t63.5 27l7 178l-85 20l6 46h169zM548 774l-25 -24l-137 88l-136 -87l-22 26l115 126q29 30 48 30q9 0 14 -1t10 -3z" />
    <glyph glyph-name="gcircumflex" unicode="&#x11d;" horiz-adv-x="552" 
d="M405 274l-7 1l-23 -86q-18 -67 -39.5 -111.5t-54 -66.5t-82.5 -22q-53 0 -86.5 29.5t-49 79t-15.5 108.5q0 94 29 164.5t81.5 110.5t122.5 40q30 0 64.5 -6t63.5 -18l38 25l30 -10l-16 -431q-2 -59 -15.5 -114.5t-43.5 -100t-79.5 -70.5t-123.5 -26q-35 0 -70 9
t-58.5 30.5t-23.5 57.5q0 34 19 53.5t45 19.5q16 0 32 -7t25 -19l-9 -29q-10 -34 2.5 -50t53.5 -16q78 0 120 69.5t52 187.5zM215 57q24 0 42 11t34 39t33 79t39 130l33 121q-19 10 -51.5 16.5t-55.5 6.5q-47 0 -81 -32.5t-52 -88.5t-18 -128q0 -73 18 -113.5t59 -40.5z
M451 605l-25 -25l-126 102l-127 -100l-22 23l108 141q13 17 23.5 24t21.5 7q9 0 15 -1t13 -3z" />
    <glyph glyph-name="Gbreve" unicode="&#x11e;" horiz-adv-x="639" 
d="M602 332l-12 -273q-29 -21 -68 -37.5t-80.5 -26t-80.5 -9.5q-91 0 -158.5 41.5t-104.5 118t-37 179.5q0 119 41 206.5t116 135.5t176 48q64 0 115 -20t81 -53.5t30 -75.5q0 -26 -15.5 -42.5t-39.5 -16.5q-20 0 -39 8t-33 22l17 34q17 35 -16.5 58t-100.5 23
q-113 0 -175.5 -83.5t-62.5 -235.5q0 -86 26 -149.5t73 -98t111 -34.5q39 0 76.5 10t63.5 27l7 178l-85 20l6 46h169zM272 928q23 -96 119 -96q50 0 78 26t41 69l38 -10q-5 -40 -24 -78t-53.5 -62.5t-87.5 -24.5q-50 0 -82.5 23t-49 60.5t-19.5 80.5z" />
    <glyph glyph-name="gbreve" unicode="&#x11f;" horiz-adv-x="552" 
d="M405 274l-7 1l-23 -86q-18 -67 -39.5 -111.5t-54 -66.5t-82.5 -22q-53 0 -86.5 29.5t-49 79t-15.5 108.5q0 94 29 164.5t81.5 110.5t122.5 40q30 0 64.5 -6t63.5 -18l38 25l30 -10l-16 -431q-2 -59 -15.5 -114.5t-43.5 -100t-79.5 -70.5t-123.5 -26q-35 0 -70 9
t-58.5 30.5t-23.5 57.5q0 34 19 53.5t45 19.5q16 0 32 -7t25 -19l-9 -29q-10 -34 2.5 -50t53.5 -16q78 0 120 69.5t52 187.5zM215 57q24 0 42 11t34 39t33 79t39 130l33 121q-19 10 -51.5 16.5t-55.5 6.5q-47 0 -81 -32.5t-52 -88.5t-18 -128q0 -73 18 -113.5t59 -40.5z
M187 768q14 -49 37 -75t67 -26q45 0 74.5 28.5t42.5 71.5l38 -10q-5 -39 -24.5 -78.5t-53 -65.5t-82.5 -26q-47 0 -76 24.5t-43.5 63t-19.5 81.5z" />
    <glyph glyph-name="Gdotaccent" unicode="&#x120;" horiz-adv-x="639" 
d="M602 332l-12 -273q-29 -21 -68 -37.5t-80.5 -26t-80.5 -9.5q-91 0 -158.5 41.5t-104.5 118t-37 179.5q0 119 41 206.5t116 135.5t176 48q64 0 115 -20t81 -53.5t30 -75.5q0 -26 -15.5 -42.5t-39.5 -16.5q-20 0 -39 8t-33 22l17 34q17 35 -16.5 58t-100.5 23
q-113 0 -175.5 -83.5t-62.5 -235.5q0 -86 26 -149.5t73 -98t111 -34.5q39 0 76.5 10t63.5 27l7 178l-85 20l6 46h169zM323 833q0 29 18 48t47 19t46.5 -18.5t17.5 -47.5t-17.5 -48t-46.5 -19t-47 18.5t-18 47.5z" />
    <glyph glyph-name="gdotaccent" unicode="&#x121;" horiz-adv-x="552" 
d="M405 274l-7 1l-23 -86q-18 -67 -39.5 -111.5t-54 -66.5t-82.5 -22q-53 0 -86.5 29.5t-49 79t-15.5 108.5q0 94 29 164.5t81.5 110.5t122.5 40q30 0 64.5 -6t63.5 -18l38 25l30 -10l-16 -431q-2 -59 -15.5 -114.5t-43.5 -100t-79.5 -70.5t-123.5 -26q-35 0 -70 9
t-58.5 30.5t-23.5 57.5q0 34 19 53.5t45 19.5q16 0 32 -7t25 -19l-9 -29q-10 -34 2.5 -50t53.5 -16q78 0 120 69.5t52 187.5zM215 57q24 0 42 11t34 39t33 79t39 130l33 121q-19 10 -51.5 16.5t-55.5 6.5q-47 0 -81 -32.5t-52 -88.5t-18 -128q0 -73 18 -113.5t59 -40.5z
M234 686q0 29 18 48t47 19t46.5 -18.5t17.5 -47.5t-17.5 -48t-46.5 -19t-47 18.5t-18 47.5z" />
    <glyph glyph-name="uni0122" unicode="&#x122;" horiz-adv-x="639" 
d="M602 332l-12 -273q-29 -21 -68 -37.5t-80.5 -26t-80.5 -9.5q-91 0 -158.5 41.5t-104.5 118t-37 179.5q0 119 41 206.5t116 135.5t176 48q64 0 115 -20t81 -53.5t30 -75.5q0 -26 -15.5 -42.5t-39.5 -16.5q-20 0 -39 8t-33 22l17 34q17 35 -16.5 58t-100.5 23
q-113 0 -175.5 -83.5t-62.5 -235.5q0 -86 26 -149.5t73 -98t111 -34.5q39 0 76.5 10t63.5 27l7 178l-85 20l6 46h169zM291 -141q0 29 18 48t47 19t46.5 -18.5t17.5 -47.5t-17.5 -48t-46.5 -19t-47 18.5t-18 47.5z" />
    <glyph glyph-name="uni0123" unicode="&#x123;" horiz-adv-x="552" 
d="M405 274l-7 1l-23 -86q-18 -67 -39.5 -111.5t-54 -66.5t-82.5 -22q-53 0 -86.5 29.5t-49 79t-15.5 108.5q0 94 29 164.5t81.5 110.5t122.5 40q30 0 64.5 -6t63.5 -18l38 25l30 -10l-16 -431q-2 -59 -15.5 -114.5t-43.5 -100t-79.5 -70.5t-123.5 -26q-35 0 -70 9
t-58.5 30.5t-23.5 57.5q0 34 19 53.5t45 19.5q16 0 32 -7t25 -19l-9 -29q-10 -34 2.5 -50t53.5 -16q78 0 120 69.5t52 187.5zM215 57q24 0 42 11t34 39t33 79t39 130l33 121q-19 10 -51.5 16.5t-55.5 6.5q-47 0 -81 -32.5t-52 -88.5t-18 -128q0 -73 18 -113.5t59 -40.5z
M288 580q-29 0 -46 20.5t-17 45.5q0 32 25.5 72.5t74.5 73.5l24 -30q-17 -13 -32.5 -32.5t-15.5 -38.5q0 -7 3 -11.5t12 -7.5l28 -10q7 -16 2.5 -35.5t-19 -33t-39.5 -13.5z" />
    <glyph glyph-name="Hcircumflex" unicode="&#x124;" horiz-adv-x="769" 
d="M557 328h-314l-10 -269l95 -13l-6 -46h-265l6 46l82 13l23 578l-86 17l6 46h258l-6 -46l-85 -17l-10 -246h314l11 246l-86 17l6 46h257l-6 -46l-85 -17l-22 -578l95 -13l-6 -46h-265l6 46l82 13zM578 774l-25 -24l-137 88l-136 -87l-22 26l115 126q29 30 48 30q9 0 14 -1
t10 -3z" />
    <glyph glyph-name="hcircumflex" unicode="&#x125;" horiz-adv-x="598" 
d="M581 38q-11 -10 -31 -21.5t-42.5 -19.5t-43.5 -8q-30 0 -46.5 10.5t-22.5 29.5t-4 43l25 282q5 53 -4.5 73t-34.5 20q-30 0 -46.5 -25t-39.5 -92l-117 -330h-82l26 698l-93 21l6 48h156l16 -11l-14 -347l-24 -257l7 -2l73 217q27 80 61.5 117t91.5 37q67 0 89 -43
t14 -130l-22 -255q-2 -22 2.5 -32.5t20.5 -10.5q11 0 26.5 6.5t29.5 17.5zM284 824l-25 -24l-137 88l-136 -87l-22 26l115 126q29 30 48 30q9 0 14 -1t10 -3z" />
    <glyph glyph-name="Hbar" unicode="&#x126;" horiz-adv-x="769" 
d="M56 550h710l-7 -58h-711zM557 328h-314l-10 -269l95 -13l-6 -46h-265l6 46l82 13l23 578l-86 17l6 46h258l-6 -46l-85 -17l-10 -246h314l11 246l-86 17l6 46h257l-6 -46l-85 -17l-22 -578l95 -13l-6 -46h-265l6 46l82 13z" />
    <glyph glyph-name="hbar" unicode="&#x127;" horiz-adv-x="598" 
d="M15 581l8 57h93l2 60l-93 21l6 48h156l16 -11l-5 -118h173l-7 -57h-168l-7 -172l-24 -257l7 -2l73 217q29 84 63.5 119t89.5 35q63 0 87 -40.5t16 -132.5l-22 -255q-2 -25 2.5 -34t20.5 -9q29 0 56 24l23 -36q-22 -19 -56.5 -34t-60.5 -15q-40 0 -58.5 21t-14.5 62
l25 282q5 50 -4 71.5t-35 21.5q-18 0 -31 -9t-25.5 -34t-29.5 -74l-117 -330h-82l22 581h-99z" />
    <glyph glyph-name="Itilde" unicode="&#x128;" horiz-adv-x="366" 
d="M168 637l-86 17l6 46h256l-6 -46l-85 -17l-22 -578l95 -13l-6 -46h-265l6 46l82 13zM291 776q-22 0 -42 5.5t-47 18.5q-32 16 -49 22.5t-22 6.5q-13 0 -21.5 -7t-24.5 -30l-31 19q18 36 32.5 55.5t29.5 27.5t35 8q11 0 27.5 -5.5t57.5 -22.5q32 -13 47.5 -18.5t25.5 -5.5
q11 0 20 7.5t25 29.5l31 -19q-28 -53 -47.5 -72.5t-46.5 -19.5z" />
    <glyph glyph-name="itilde" unicode="&#x129;" horiz-adv-x="306" 
d="M123 416q2 23 -3.5 32t-21.5 9q-27 0 -63 -16l-16 45q26 16 58.5 25.5t57.5 9.5q82 0 73 -113l-23 -318q-1 -25 3.5 -34t19.5 -9q12 0 26.5 7.5t35.5 26.5l25 -38q-18 -18 -38.5 -31t-42 -19.5t-42.5 -6.5q-82 0 -75 91zM215 620q-22 0 -42 5.5t-47 18.5q-62 29 -71 29
q-13 0 -21.5 -7t-24.5 -30l-31 19q18 36 32.5 55.5t29.5 27.5t35 8q11 0 27.5 -5.5t57.5 -22.5q27 -11 46 -17.5t27 -6.5q11 0 20 7.5t25 29.5l31 -19q-28 -53 -47.5 -72.5t-46.5 -19.5z" />
    <glyph glyph-name="Imacron" unicode="&#x12a;" horiz-adv-x="366" 
d="M168 637l-86 17l6 46h256l-6 -46l-85 -17l-22 -578l95 -13l-6 -46h-265l6 46l82 13zM80 868h283l-4 -73h-283z" />
    <glyph glyph-name="imacron" unicode="&#x12b;" horiz-adv-x="306" 
d="M123 416q2 23 -3.5 32t-21.5 9q-27 0 -63 -16l-16 45q26 16 58.5 25.5t57.5 9.5q82 0 73 -113l-23 -318q-1 -25 3.5 -34t19.5 -9q12 0 26.5 7.5t35.5 26.5l25 -38q-18 -18 -38.5 -31t-42 -19.5t-42.5 -6.5q-82 0 -75 91zM2 708h283l-4 -73h-283z" />
    <glyph glyph-name="Ibreve" unicode="&#x12c;" horiz-adv-x="366" 
d="M168 637l-86 17l6 46h256l-6 -46l-85 -17l-22 -578l95 -13l-6 -46h-265l6 46l82 13zM103 928q23 -96 119 -96q50 0 78 26t41 69l38 -10q-5 -40 -24 -78t-53.5 -62.5t-87.5 -24.5q-50 0 -82.5 23t-49 60.5t-19.5 80.5z" />
    <glyph glyph-name="ibreve" unicode="&#x12d;" horiz-adv-x="306" 
d="M123 416q2 23 -3.5 32t-21.5 9q-27 0 -63 -16l-16 45q26 16 58.5 25.5t57.5 9.5q82 0 73 -113l-23 -318q-1 -25 3.5 -34t19.5 -9q12 0 26.5 7.5t35.5 26.5l25 -38q-18 -18 -38.5 -31t-42 -19.5t-42.5 -6.5q-82 0 -75 91zM33 768q14 -49 37 -75t67 -26q45 0 74.5 28.5
t42.5 71.5l38 -10q-5 -39 -24.5 -78.5t-53 -65.5t-82.5 -26q-47 0 -76 24.5t-43.5 63t-19.5 81.5z" />
    <glyph glyph-name="Iogonek" unicode="&#x12e;" horiz-adv-x="366" 
d="M168 637l-86 17l6 46h256l-6 -46l-85 -17l-22 -578l95 -13l-6 -46h-80q-19 -16 -38 -37t-31 -44t-12 -47q0 -16 7.5 -24.5t23.5 -8.5q14 0 29 9.5t28 23.5l28 -28q-19 -29 -51 -51t-73 -22q-30 0 -52.5 18.5t-22.5 55.5q0 32 16.5 60.5t41.5 52.5t50 42h-129l6 46l82 13z
" />
    <glyph glyph-name="iogonek" unicode="&#x12f;" horiz-adv-x="306" 
d="M123 416q2 23 -3.5 32t-21.5 9q-27 0 -63 -16l-16 45q26 16 58.5 25.5t57.5 9.5q80 0 73 -113l-23 -318q-1 -25 3.5 -34t19.5 -9q12 0 26.5 7.5t35.5 26.5l25 -38q-9 -9 -20 -18.5t-22 -17.5q-28 -20 -49 -43.5t-32.5 -47t-11.5 -44.5q0 -33 31 -33q26 0 57 33l28 -28
q-23 -34 -55.5 -53.5t-68.5 -19.5q-34 0 -54.5 20.5t-20.5 53.5q0 32 22.5 66.5t69.5 74.5q-79 0 -72 91zM96 686q0 30 18.5 48.5t46.5 18.5q29 0 46.5 -18.5t17.5 -47.5t-17.5 -48t-46.5 -19t-47 18.5t-18 47.5z" />
    <glyph glyph-name="Idotaccent" unicode="&#x130;" horiz-adv-x="366" 
d="M168 637l-86 17l6 46h256l-6 -46l-85 -17l-22 -578l95 -13l-6 -46h-265l6 46l82 13zM154 833q0 29 18 48t47 19t46.5 -18.5t17.5 -47.5t-17.5 -48t-46.5 -19t-47 18.5t-18 47.5z" />
    <glyph glyph-name="dotlessi" unicode="&#x131;" horiz-adv-x="306" 
d="M123 416q2 23 -3.5 32t-21.5 9q-27 0 -63 -16l-16 45q26 16 58.5 25.5t57.5 9.5q82 0 73 -113l-23 -318q-1 -25 3.5 -34t19.5 -9q12 0 26.5 7.5t35.5 26.5l25 -38q-18 -18 -38.5 -31t-42 -19.5t-42.5 -6.5q-82 0 -75 91z" />
    <glyph glyph-name="IJ" unicode="&#x132;" horiz-adv-x="733" 
d="M168 637l-86 17l6 46h256l-6 -46l-85 -17l-22 -578l95 -13l-6 -46h-265l6 46l82 13zM535 637l-102 17l6 46h272l-6 -46l-85 -17l-22 -578q-2 -61 -18 -107.5t-51.5 -89t-97.5 -91.5l-27 39q39 43 61 79.5t32.5 76t12.5 93.5z" />
    <glyph glyph-name="ij" unicode="&#x133;" horiz-adv-x="595" 
d="M123 416q2 23 -3.5 32t-21.5 9q-13 0 -27.5 -3.5t-35.5 -12.5l-16 45q19 11 51 23t65 12q41 0 59.5 -27t13.5 -86l-23 -318q-1 -22 3 -32.5t20 -10.5q11 0 26.5 8.5t35.5 25.5l25 -38q-10 -10 -28 -23.5t-42 -23.5t-53 -10q-47 0 -62.5 27.5t-12.5 63.5zM96 686
q0 29 18 48t47 19t46.5 -18.5t17.5 -47.5t-17.5 -48t-46.5 -19t-47 18.5t-18 47.5zM497 122q-2 -54 -12.5 -113.5t-29 -111t-43.5 -81.5q-18 -22 -38.5 -33.5t-42.5 -11.5q-31 0 -49 15.5t-18 34.5q0 14 5.5 30.5t18.5 34.5l41 -17q26 -10 46.5 0.5t24.5 48.5q3 25 4.5 46.5
t2.5 58.5l16 393q1 23 -4.5 32t-20.5 9q-28 0 -63 -16l-16 45q19 11 51 23t65 12q41 0 59 -27t14 -86zM389 686q0 29 18 48t47 19t46.5 -18.5t17.5 -47.5t-17.5 -48t-46.5 -19t-47 18.5t-18 47.5z" />
    <glyph glyph-name="Jcircumflex" unicode="&#x134;" horiz-adv-x="367" 
d="M169 637l-102 17l6 46h272l-6 -46l-85 -17l-22 -578q-2 -61 -18 -107.5t-51.5 -89t-97.5 -91.5l-27 39q39 43 61 79.5t32.5 76t12.5 93.5zM383 774l-25 -24l-137 88l-136 -87l-22 26l115 126q29 30 48 30q9 0 14 -1t10 -3z" />
    <glyph glyph-name="jcircumflex" unicode="&#x135;" horiz-adv-x="289" 
d="M191 122q-2 -63 -14 -123t-30.5 -108.5t-40.5 -74.5q-37 -45 -81 -45q-31 0 -49 13.5t-18 36.5q0 32 24 65l41 -17q29 -12 48 1.5t23 47.5q2 20 4 45.5t3 59.5l16 393q1 23 -4.5 32t-20.5 9q-12 0 -28 -4t-35 -12l-16 45q26 16 58.5 25.5t57.5 9.5q41 0 58 -27.5
t15 -85.5zM286 605l-25 -25l-126 102l-127 -100l-22 23l108 141q13 17 23.5 24t21.5 7q9 0 15 -1t13 -3z" />
    <glyph glyph-name="uni0136" unicode="&#x136;" horiz-adv-x="695" 
d="M580 -14q-44 0 -72 16t-49.5 60t-47.5 129q-15 51 -34 82.5t-45 48t-63 20.5l2 31l254 266l-82 13l9 48h238l-7 -47l-78 -15l-249 -250v-6q41 -17 67.5 -38t44.5 -53t33 -83q21 -68 36 -103.5t31 -47.5t39 -12t59 18l20 -35q-20 -19 -48.5 -30.5t-57.5 -11.5zM55 0l6 46
l82 13l25 578l-86 17l6 46h256l-6 -46l-85 -17l-22 -578l95 -13l-6 -46h-265zM307 -268l-24 30q17 14 32.5 33t15.5 38q0 7 -3 11.5t-12 7.5l-28 10q-6 17 -2 36t19 32.5t39 13.5q29 0 46 -20t17 -46q0 -32 -25 -72.5t-75 -73.5z" />
    <glyph glyph-name="uni0137" unicode="&#x137;" horiz-adv-x="564" 
d="M121 698l-93 21l6 48h155l16 -11l-21 -457q41 8 80 23t79 42q30 20 35 41t-15 33l-28 17q6 32 27 49t49 17q32 0 49 -21t17 -49q0 -39 -23.5 -68t-76.5 -62q-18 -11 -35.5 -20.5t-34.5 -17.5l105 -178q18 -30 32 -44t33 -14q17 0 29.5 6t25.5 13l22 -36q-15 -14 -45 -29
t-65 -15q-33 0 -56.5 18t-48.5 61l-107 188q-13 -4 -25 -7.5t-25 -6.5l-11 -239h-81zM220 -258l-24 30q17 14 32.5 33t15.5 38q0 7 -3 11.5t-12 7.5l-28 10q-6 17 -2 36t19 32.5t39 13.5q29 0 46 -20t17 -46q0 -32 -25 -72.5t-75 -73.5z" />
    <glyph glyph-name="kgreenlandic" unicode="&#x138;" horiz-adv-x="563" 
d="M186 299q40 8 78 23.5t78 41.5q30 20 35 41t-15 33l-28 17q6 32 27 49t49 17q32 0 49 -21t17 -49q0 -39 -23.5 -68t-76.5 -62q-18 -11 -35.5 -20.5t-34.5 -17.5l105 -178q20 -34 34 -46t31 -12t29.5 6t25.5 13l22 -36q-15 -14 -45 -29t-65 -15q-34 0 -56.5 17.5
t-48.5 61.5l-107 188q-13 -4 -25.5 -7.5t-22.5 -5.5l-13 -240h-81l22 416q2 25 -3 33t-19 8q-27 0 -63 -16l-16 45q19 11 51 23t65 12q41 0 55 -27t11 -86z" />
    <glyph glyph-name="Lacute" unicode="&#x139;" horiz-adv-x="589" 
d="M62 46l82 13l24 578l-86 17l6 46h277l-6 -46l-105 -17l-24 -579h150q44 0 65.5 17.5t37.5 67.5l16 51h55l-26 -194h-472zM258 899q12 11 21.5 16.5t19.5 5.5q18 0 29 -13t11 -32q0 -8 -2 -17t-6 -20l-184 -87l-19 27z" />
    <glyph glyph-name="lacute" unicode="&#x13a;" horiz-adv-x="297" 
d="M118 698l-93 21l6 48h155l16 -11l-23 -666q-1 -22 4 -32t21 -10q11 0 26 8.5t34 24.5l25 -38q-10 -10 -27.5 -23.5t-41 -23.5t-52.5 -10q-47 0 -62.5 25.5t-14.5 65.5zM160 947q12 11 21.5 16.5t19.5 5.5q18 0 29 -13t11 -32q0 -8 -2 -17t-6 -20l-184 -87l-19 27z" />
    <glyph glyph-name="uni013B" unicode="&#x13b;" horiz-adv-x="589" 
d="M62 46l82 13l24 578l-86 17l6 46h277l-6 -46l-105 -17l-24 -579h150q44 0 65.5 17.5t37.5 67.5l16 51h55l-26 -194h-472zM272 -268l-24 30q17 14 32.5 33t15.5 38q0 7 -3 11.5t-12 7.5l-28 10q-6 17 -2 36t19 32.5t39 13.5q29 0 46 -20t17 -46q0 -32 -25 -72.5t-75 -73.5
z" />
    <glyph glyph-name="uni013C" unicode="&#x13c;" horiz-adv-x="294" 
d="M118 698l-93 21l6 48h155l16 -11l-23 -666q-1 -22 4 -32t21 -10q11 0 26 8.5t34 24.5l25 -38q-10 -10 -27.5 -23.5t-41 -23.5t-52.5 -10q-47 0 -62.5 25.5t-14.5 65.5zM120 -258l-24 30q17 14 32.5 33t15.5 38q0 7 -3 11.5t-12 7.5l-28 10q-6 17 -2 36t19 32.5t39 13.5
q29 0 46 -20t17 -46q0 -32 -25 -72.5t-75 -73.5z" />
    <glyph glyph-name="Lcaron" unicode="&#x13d;" horiz-adv-x="590" 
d="M62 46l82 13l24 578l-86 17l6 46h277l-6 -46l-105 -17l-24 -579h150q44 0 65.5 17.5t37.5 67.5l16 51h55l-26 -194h-472zM436 542l-27 27q24 29 36 50.5t12 37.5q0 7 -2.5 13.5t-10.5 12.5l-23 18q-5 24 7 45.5t42 21.5q28 0 45 -17.5t17 -50.5q0 -36 -22 -72t-74 -86z
" />
    <glyph glyph-name="lcaron" unicode="&#x13e;" horiz-adv-x="382" 
d="M118 698l-93 21l6 48h155l16 -11l-23 -666q-1 -22 4 -32t21 -10q11 0 26 8.5t34 24.5l25 -38q-10 -10 -27.5 -23.5t-41 -23.5t-52.5 -10q-47 0 -62.5 25.5t-14.5 65.5zM283 542l-27 27q24 29 36 50.5t12 37.5q0 7 -2.5 13.5t-10.5 12.5l-23 18q-5 24 7 45.5t42 21.5
q28 0 45 -17.5t17 -50.5q0 -36 -22 -72t-74 -86z" />
    <glyph glyph-name="Ldot" unicode="&#x13f;" horiz-adv-x="590" 
d="M62 46l82 13l24 578l-86 17l6 46h277l-6 -46l-105 -17l-24 -579h150q44 0 65.5 17.5t37.5 67.5l16 51h55l-26 -194h-472zM424 370q0 34 22 56t58 22q35 0 56 -19t21 -50q0 -36 -23.5 -56t-58.5 -20q-33 0 -54 17.5t-21 49.5z" />
    <glyph glyph-name="ldot" unicode="&#x140;" horiz-adv-x="388" 
d="M118 698l-93 21l6 48h155l16 -11l-23 -666q-1 -22 4 -32t21 -10q11 0 26 8.5t34 24.5l25 -38q-10 -10 -27.5 -23.5t-41 -23.5t-52.5 -10q-47 0 -62.5 25.5t-14.5 65.5zM273 401q0 29 18 48t47 19t46.5 -18.5t17.5 -47.5t-17.5 -48t-46.5 -19t-47 18.5t-18 47.5z" />
    <glyph glyph-name="Lslash" unicode="&#x141;" horiz-adv-x="590" 
d="M225 311l-51 -18l-131 -80l7 70l124 76l56 21l219 132l-7 -70zM62 46l82 13l24 578l-86 17l6 46h277l-6 -46l-105 -17l-24 -579h150q44 0 65.5 17.5t37.5 67.5l16 51h55l-26 -194h-472z" />
    <glyph glyph-name="lslash" unicode="&#x142;" horiz-adv-x="337" 
d="M183 362l-51 -18l-112 -60l7 70l105 56l56 21l129 74l-7 -70zM133 698l-93 21l6 48h155l16 -11l-23 -666q-1 -22 4 -32t21 -10q11 0 26 8.5t34 24.5l25 -38q-10 -10 -27.5 -23.5t-41 -23.5t-52.5 -10q-47 0 -62.5 25.5t-14.5 65.5z" />
    <glyph glyph-name="Nacute" unicode="&#x143;" horiz-adv-x="743" 
d="M561 119l18 518l-85 17l6 46h237l-6 -46l-85 -17l-25 -637l-92 -11l-304 630l-20 -560l94 -13l-6 -46h-243l6 46l81 13l24 582l-79 11l6 48h197zM438 899q12 11 21.5 16.5t19.5 5.5q18 0 29 -13t11 -32q0 -8 -2 -17t-6 -20l-184 -87l-19 27z" />
    <glyph glyph-name="nacute" unicode="&#x144;" horiz-adv-x="603" 
d="M586 35q-11 -10 -31 -21.5t-42.5 -19.5t-43.5 -8q-81 0 -73 83l25 285q5 53 -4.5 73t-34.5 20q-20 0 -33.5 -10.5t-25 -36t-27.5 -70.5l-117 -330h-82l16 416q1 22 -5.5 31t-21.5 9q-10 0 -24 -4.5t-35 -13.5l-17 50q11 6 30.5 14t42 13.5t42.5 5.5q43 0 59 -26t11 -76
l-25 -267l7 -2l73 217q27 80 61.5 117t91.5 37q67 0 89 -43t14 -130l-22 -258q-2 -22 2.5 -32.5t20.5 -10.5q11 0 26.5 6.5t29.5 17.5zM328 746q12 15 21.5 22t23.5 7q22 0 31.5 -17.5t4.5 -52.5l-167 -123l-22 23z" />
    <glyph glyph-name="uni0145" unicode="&#x145;" horiz-adv-x="743" 
d="M561 119l18 518l-85 17l6 46h237l-6 -46l-85 -17l-25 -637l-92 -11l-304 630l-20 -560l94 -13l-6 -46h-243l6 46l81 13l24 582l-79 11l6 48h197zM327 -268l-24 30q17 14 32.5 33t15.5 38q0 7 -3 11.5t-12 7.5l-28 10q-6 17 -2 36t19 32.5t39 13.5q29 0 46 -20t17 -46
q0 -32 -25 -72.5t-75 -73.5z" />
    <glyph glyph-name="uni0146" unicode="&#x146;" horiz-adv-x="603" 
d="M586 35q-11 -10 -31 -21.5t-42.5 -19.5t-43.5 -8q-81 0 -73 83l25 285q5 53 -4.5 73t-34.5 20q-20 0 -33.5 -10.5t-25 -36t-27.5 -70.5l-117 -330h-82l16 416q1 22 -5.5 31t-21.5 9q-10 0 -24 -4.5t-35 -13.5l-17 50q11 6 30.5 14t42 13.5t42.5 5.5q43 0 59 -26t11 -76
l-25 -267l7 -2l73 217q27 80 61.5 117t91.5 37q67 0 89 -43t14 -130l-22 -258q-2 -22 2.5 -32.5t20.5 -10.5q11 0 26.5 6.5t29.5 17.5zM254 -258l-24 30q17 14 32.5 33t15.5 38q0 7 -3 11.5t-12 7.5l-28 10q-6 17 -2 36t19 32.5t39 13.5q29 0 46 -20t17 -46q0 -32 -25 -72.5
t-75 -73.5z" />
    <glyph glyph-name="Ncaron" unicode="&#x147;" horiz-adv-x="743" 
d="M561 119l18 518l-85 17l6 46h237l-6 -46l-85 -17l-25 -637l-92 -11l-304 630l-20 -560l94 -13l-6 -46h-243l6 46l81 13l24 582l-79 11l6 48h197zM254 912l25 24l137 -88l136 87l22 -26l-115 -126q-29 -30 -48 -30q-15 0 -24 4z" />
    <glyph glyph-name="ncaron" unicode="&#x148;" horiz-adv-x="603" 
d="M586 35q-11 -10 -31 -21.5t-42.5 -19.5t-43.5 -8q-81 0 -73 83l25 285q5 53 -4.5 73t-34.5 20q-20 0 -33.5 -10.5t-25 -36t-27.5 -70.5l-117 -330h-82l16 416q1 22 -5.5 31t-21.5 9q-10 0 -24 -4.5t-35 -13.5l-17 50q11 6 30.5 14t42 13.5t42.5 5.5q43 0 59 -26t11 -76
l-25 -267l7 -2l73 217q27 80 61.5 117t91.5 37q67 0 89 -43t14 -130l-22 -258q-2 -22 2.5 -32.5t20.5 -10.5q11 0 26.5 6.5t29.5 17.5zM151 752l25 25l126 -103l127 101l22 -23l-108 -141q-13 -17 -23.5 -24t-21.5 -7q-9 0 -15 1t-13 3z" />
    <glyph glyph-name="napostrophe" unicode="&#x149;" horiz-adv-x="707" 
d="M690 35q-11 -10 -31 -21.5t-42.5 -19.5t-43.5 -8q-81 0 -73 83l25 285q5 53 -4.5 73t-34.5 20q-20 0 -33.5 -10.5t-25 -36t-27.5 -70.5l-117 -330h-82l16 416q1 22 -5.5 31t-21.5 9q-10 0 -24 -4.5t-35 -13.5l-17 50q11 6 30.5 14t42 13.5t42.5 5.5q43 0 59 -26t11 -76
l-25 -267l7 -2l73 217q27 80 61.5 117t91.5 37q67 0 89 -43t14 -130l-22 -258q-2 -22 2.5 -32.5t20.5 -10.5q11 0 26.5 6.5t29.5 17.5zM31 494l-24 30q17 14 32.5 33t15.5 38q0 7 -3 11.5t-12 7.5l-28 10q-6 17 -2 36t19 32.5t39 13.5q29 0 46 -20t17 -46q0 -32 -25 -72.5
t-75 -73.5z" />
    <glyph glyph-name="Eng" unicode="&#x14a;" horiz-adv-x="756" 
d="M57 0l6 46l81 13l24 582l-79 11l6 48h197l276 -581l18 518l-85 17l6 46h237l-6 -46l-85 -17l-21 -542q-3 -91 -21.5 -151.5t-55 -101t-94.5 -71.5l-26 41q47 36 68 82t27 108l-298 617l-20 -560l94 -13l-6 -46h-243z" />
    <glyph glyph-name="eng" unicode="&#x14b;" horiz-adv-x="597" 
d="M317 -229q-31 0 -49 14t-18 36q0 14 5.5 30.5t18.5 34.5l41 -17q26 -10 47 0.5t24 48.5l35 436q4 50 -4.5 71.5t-34.5 21.5q-18 0 -31 -9t-25.5 -34t-29.5 -74l-117 -330h-82l16 416q1 22 -5.5 31t-21.5 9q-10 0 -24 -4.5t-35 -13.5l-17 50q11 6 30.5 14t42 13.5
t42.5 5.5q43 0 59 -26t11 -76l-25 -267l7 -2l73 217q27 80 61.5 117t91.5 37q67 0 89 -42.5t14 -130.5l-19 -226q-4 -54 -15.5 -113.5t-30 -111t-43.5 -81.5q-18 -22 -38.5 -33.5t-42.5 -11.5z" />
    <glyph glyph-name="Omacron" unicode="&#x14c;" horiz-adv-x="715" 
d="M61 328q0 119 40 205.5t113 134t173 47.5q89 0 153.5 -40.5t100 -115.5t35.5 -177q0 -119 -40 -208t-112 -138.5t-169 -49.5q-89 0 -155.5 42t-102.5 119t-36 181zM156 349q0 -138 57 -218t155 -80q101 0 155.5 82t54.5 231q0 137 -53.5 213t-151.5 76q-103 0 -160 -80
t-57 -224zM254 868h283l-4 -73h-283z" />
    <glyph glyph-name="omacron" unicode="&#x14d;" horiz-adv-x="539" 
d="M254 -14q-99 0 -152.5 68t-53.5 181q0 56 13 107.5t40.5 91.5t72.5 63.5t109 23.5q66 0 112.5 -30.5t71 -86t24.5 -130.5q0 -76 -24 -141.5t-76 -106t-137 -40.5zM260 45q54 0 83.5 32.5t41.5 85t12 112.5q0 55 -11.5 97t-38 66.5t-72.5 24.5q-40 0 -66 -19t-40.5 -51.5
t-20 -74.5t-5.5 -87q0 -83 28 -134.5t89 -51.5zM149 708h283l-4 -73h-283z" />
    <glyph glyph-name="Obreve" unicode="&#x14e;" horiz-adv-x="715" 
d="M61 328q0 119 40 205.5t113 134t173 47.5q89 0 153.5 -40.5t100 -115.5t35.5 -177q0 -119 -40 -208t-112 -138.5t-169 -49.5q-89 0 -155.5 42t-102.5 119t-36 181zM156 349q0 -138 57 -218t155 -80q101 0 155.5 82t54.5 231q0 137 -53.5 213t-151.5 76q-103 0 -160 -80
t-57 -224zM277 928q23 -96 119 -96q50 0 78 26t41 69l38 -10q-5 -40 -24 -78t-53.5 -62.5t-87.5 -24.5q-50 0 -82.5 23t-49 60.5t-19.5 80.5z" />
    <glyph glyph-name="obreve" unicode="&#x14f;" horiz-adv-x="539" 
d="M254 -14q-99 0 -152.5 68t-53.5 181q0 56 13 107.5t40.5 91.5t72.5 63.5t109 23.5q66 0 112.5 -30.5t71 -86t24.5 -130.5q0 -76 -24 -141.5t-76 -106t-137 -40.5zM260 45q54 0 83.5 32.5t41.5 85t12 112.5q0 55 -11.5 97t-38 66.5t-72.5 24.5q-40 0 -66 -19t-40.5 -51.5
t-20 -74.5t-5.5 -87q0 -83 28 -134.5t89 -51.5zM180 768q14 -49 37 -75t67 -26q45 0 74.5 28.5t42.5 71.5l38 -10q-5 -39 -24.5 -78.5t-53 -65.5t-82.5 -26q-47 0 -76 24.5t-43.5 63t-19.5 81.5z" />
    <glyph glyph-name="Ohungarumlaut" unicode="&#x150;" horiz-adv-x="715" 
d="M61 328q0 119 40 205.5t113 134t173 47.5q89 0 153.5 -40.5t100 -115.5t35.5 -177q0 -119 -40 -208t-112 -138.5t-169 -49.5q-89 0 -155.5 42t-102.5 119t-36 181zM156 349q0 -138 57 -218t155 -80q101 0 155.5 82t54.5 231q0 137 -53.5 213t-151.5 76q-103 0 -160 -80
t-57 -224zM552 899q12 11 21.5 16.5t19.5 5.5q18 0 29 -13t11 -32q0 -8 -2 -17t-6 -20l-177 -87l-19 27zM371 901q11 11 21 16.5t20 5.5q18 0 29 -12.5t11 -31.5q0 -8 -2 -16.5t-6 -19.5l-174 -91l-19 27z" />
    <glyph glyph-name="ohungarumlaut" unicode="&#x151;" horiz-adv-x="539" 
d="M254 -14q-99 0 -152.5 68t-53.5 181q0 56 13 107.5t40.5 91.5t72.5 63.5t109 23.5q66 0 112.5 -30.5t71 -86t24.5 -130.5q0 -76 -24 -141.5t-76 -106t-137 -40.5zM260 45q54 0 83.5 32.5t41.5 85t12 112.5q0 55 -11.5 97t-38 66.5t-72.5 24.5q-40 0 -66 -19t-40.5 -51.5
t-20 -74.5t-5.5 -87q0 -83 28 -134.5t89 -51.5zM416 739q11 17 20 23t22 6q20 0 30.5 -17.5t5.5 -52.5l-148 -116l-22 23zM263 742q11 17 20 23t22 6q22 0 31.5 -17.5t4.5 -52.5l-142 -119l-22 23z" />
    <glyph glyph-name="OE" unicode="&#x152;" horiz-adv-x="997" 
d="M61 328q0 106 27.5 180t74.5 119.5t105 66.5t119 21q52 0 97 -15h455l14 -168l-55 -9l-11 36q-9 32 -19.5 50t-27.5 26t-49 8h-211q44 -41 69.5 -104t26.5 -148h215l-5 -63h-213q-7 -91 -39 -159t-82 -111h233q46 0 66.5 18t36.5 67l14 41h55l-24 -184h-484
q-47 -14 -94 -14q-97 0 -162.5 46t-98.5 123.5t-33 172.5zM156 349q0 -88 24.5 -155t72 -105t115.5 -38q62 0 109 33.5t74 103t27 176.5q0 139 -54 214t-151 75q-59 0 -108.5 -30.5t-79 -97t-29.5 -176.5z" />
    <glyph glyph-name="oe" unicode="&#x153;" horiz-adv-x="823" 
d="M630 521q75 0 110 -34.5t35 -92.5q0 -62 -44.5 -103.5t-138.5 -64.5l-111 -27q3 -33 17 -67t41.5 -57t68.5 -23q61 0 130 65l34 -37q-22 -28 -52.5 -49.5t-64.5 -33t-67 -11.5q-56 0 -96 31t-58 79q-28 -49 -71.5 -79.5t-108.5 -30.5q-99 0 -152.5 68t-53.5 181
q0 56 13 107.5t40.5 91.5t72.5 63.5t109 23.5q61 0 102.5 -32t61.5 -82q26 50 75 82t108 32zM260 45q54 0 83.5 32.5t41.5 85t12 112.5q0 55 -11.5 97t-38 66.5t-72.5 24.5q-40 0 -66 -19t-40.5 -51.5t-20 -74.5t-5.5 -87q0 -83 28 -134.5t89 -51.5zM686 391q0 29 -14 51.5
t-49 22.5q-62 0 -99.5 -55.5t-42.5 -153.5l101 26q57 15 80.5 39.5t23.5 69.5z" />
    <glyph glyph-name="Racute" unicode="&#x154;" horiz-adv-x="681" 
d="M290 370q81 2 128 43t47 110q0 66 -37 94.5t-122 28.5h-51l-22 -588l108 -14l-5 -44h-286l5 44l89 16l25 577l-87 17l6 46h227q128 0 187.5 -40.5t59.5 -127.5q0 -48 -26.5 -89t-73.5 -68t-107 -34v-3q34 -14 54.5 -35t39.5 -60l58 -120q23 -46 41.5 -62t48.5 -16
q23 0 59 18l20 -35q-20 -19 -48.5 -30.5t-57.5 -11.5q-55 0 -92.5 27t-62.5 85l-42 99q-23 55 -41.5 81.5t-45.5 42.5zM363 899q12 11 21.5 16.5t19.5 5.5q18 0 29 -13t11 -32q0 -8 -2 -17t-6 -20l-184 -87l-19 27z" />
    <glyph glyph-name="racute" unicode="&#x155;" horiz-adv-x="466" 
d="M114 416q1 21 -5 30.5t-22 9.5q-17 0 -59 -18l-17 50q11 6 30.5 14t42 13.5t42.5 5.5q43 0 59 -26t11 -76l-14 -142l6 -1l54 127q19 45 36 71t36 36.5t45 10.5q38 0 57.5 -20.5t19.5 -47.5q0 -21 -12 -40t-35 -29l-23 27q-11 14 -18 18t-16 4q-10 0 -17.5 -6t-17.5 -24.5
t-27 -56.5q-28 -61 -45.5 -101t-27 -67t-14 -49t-6.5 -47l-9 -82h-74zM304 746q12 15 21.5 22t23.5 7q22 0 31.5 -17.5t4.5 -52.5l-167 -123l-22 23z" />
    <glyph glyph-name="uni0156" unicode="&#x156;" horiz-adv-x="681" 
d="M290 370q81 2 128 43t47 110q0 66 -37 94.5t-122 28.5h-51l-22 -588l108 -14l-5 -44h-286l5 44l89 16l25 577l-87 17l6 46h227q128 0 187.5 -40.5t59.5 -127.5q0 -48 -26.5 -89t-73.5 -68t-107 -34v-3q34 -14 54.5 -35t39.5 -60l58 -120q23 -46 41.5 -62t48.5 -16
q23 0 59 18l20 -35q-20 -19 -48.5 -30.5t-57.5 -11.5q-55 0 -92.5 27t-62.5 85l-42 99q-23 55 -41.5 81.5t-45.5 42.5zM308 -249l-24 30q17 14 32.5 33t15.5 38q0 7 -3 11.5t-12 7.5l-28 10q-6 17 -2 36t19 32.5t39 13.5q29 0 46 -20t17 -46q0 -32 -25 -72.5t-75 -73.5z" />
    <glyph glyph-name="uni0157" unicode="&#x157;" horiz-adv-x="466" 
d="M114 416q1 21 -5 30.5t-22 9.5q-17 0 -59 -18l-17 50q11 6 30.5 14t42 13.5t42.5 5.5q43 0 59 -26t11 -76l-14 -142l6 -1l54 127q19 45 36 71t36 36.5t45 10.5q38 0 57.5 -20.5t19.5 -47.5q0 -21 -12 -40t-35 -29l-23 27q-11 14 -18 18t-16 4q-10 0 -17.5 -6t-17.5 -24.5
t-27 -56.5q-28 -61 -45.5 -101t-27 -67t-14 -49t-6.5 -47l-9 -82h-74zM103 -258l-24 30q17 14 32.5 33t15.5 38q0 7 -3 11.5t-12 7.5l-28 10q-6 17 -2 36t19 32.5t39 13.5q29 0 46 -20t17 -46q0 -32 -25 -72.5t-75 -73.5z" />
    <glyph glyph-name="Rcaron" unicode="&#x158;" horiz-adv-x="681" 
d="M290 370q81 2 128 43t47 110q0 66 -37 94.5t-122 28.5h-51l-22 -588l108 -14l-5 -44h-286l5 44l89 16l25 577l-87 17l6 46h227q128 0 187.5 -40.5t59.5 -127.5q0 -48 -26.5 -89t-73.5 -68t-107 -34v-3q34 -14 54.5 -35t39.5 -60l58 -120q23 -46 41.5 -62t48.5 -16
q23 0 59 18l20 -35q-20 -19 -48.5 -30.5t-57.5 -11.5q-55 0 -92.5 27t-62.5 85l-42 99q-23 55 -41.5 81.5t-45.5 42.5zM179 912l25 24l137 -88l136 87l22 -26l-115 -126q-29 -30 -48 -30q-15 0 -24 4z" />
    <glyph glyph-name="rcaron" unicode="&#x159;" horiz-adv-x="466" 
d="M114 416q1 21 -5 30.5t-22 9.5q-17 0 -59 -18l-17 50q11 6 30.5 14t42 13.5t42.5 5.5q43 0 59 -26t11 -76l-14 -142l6 -1l54 127q19 45 36 71t36 36.5t45 10.5q38 0 57.5 -20.5t19.5 -47.5q0 -21 -12 -40t-35 -29l-23 27q-11 14 -18 18t-16 4q-10 0 -17.5 -6t-17.5 -24.5
t-27 -56.5q-28 -61 -45.5 -101t-27 -67t-14 -49t-6.5 -47l-9 -82h-74zM108 752l25 25l126 -103l127 101l22 -23l-108 -141q-13 -17 -23.5 -24t-21.5 -7q-9 0 -15 1t-13 3z" />
    <glyph glyph-name="Sacute" unicode="&#x15a;" horiz-adv-x="496" 
d="M472 197q0 -62 -30.5 -109.5t-84.5 -74.5t-125 -27q-55 0 -98.5 16.5t-68.5 46t-25 66.5q0 32 17.5 52t45.5 20q19 0 37 -7t30 -19l-16 -33q-17 -35 6.5 -57t78.5 -22q69 0 110.5 36t41.5 94q0 25 -12 45t-42.5 41.5t-84.5 49.5q-68 36 -108 67t-57 64t-17 73
q0 57 29 101.5t80 69.5t117 25q51 0 92 -17.5t65 -47.5t24 -68q0 -28 -16.5 -46t-43.5 -18q-18 0 -36 7t-29 17l19 37q17 32 -6.5 53t-73.5 21q-67 0 -103 -27.5t-36 -80.5q0 -28 14.5 -52t50 -49t98.5 -58q62 -33 96 -59.5t47.5 -56.5t13.5 -73zM328 899q12 11 21.5 16.5
t19.5 5.5q18 0 29 -13t11 -32q0 -8 -2 -17t-6 -20l-184 -87l-19 27z" />
    <glyph glyph-name="sacute" unicode="&#x15b;" horiz-adv-x="438" 
d="M208 44q44 0 72.5 20.5t28.5 58.5q0 37 -30.5 58t-70.5 40q-32 16 -64 34.5t-53 46.5t-21 72q0 22 9 47.5t30 48t55.5 37t85.5 14.5q40 0 73 -12.5t52.5 -34t19.5 -49.5q0 -23 -13.5 -36t-34.5 -13q-17 0 -30.5 5.5t-20.5 11.5l6 29q5 20 -7.5 33t-48.5 13q-56 0 -78 -23
t-22 -51q0 -31 29.5 -51t67.5 -40q33 -17 65.5 -37t53.5 -48.5t21 -71.5q0 -46 -22 -82t-63.5 -57t-101.5 -21q-47 0 -83 12t-56.5 33t-20.5 48q0 28 17 41t39 13q12 0 24.5 -3t19.5 -8v-26q0 -28 16 -40t56 -12zM276 746q12 15 21.5 22t23.5 7q22 0 31.5 -17.5t4.5 -52.5
l-167 -123l-22 23z" />
    <glyph glyph-name="Scircumflex" unicode="&#x15c;" horiz-adv-x="496" 
d="M472 197q0 -62 -30.5 -109.5t-84.5 -74.5t-125 -27q-55 0 -98.5 16.5t-68.5 46t-25 66.5q0 32 17.5 52t45.5 20q19 0 37 -7t30 -19l-16 -33q-17 -35 6.5 -57t78.5 -22q69 0 110.5 36t41.5 94q0 25 -12 45t-42.5 41.5t-84.5 49.5q-68 36 -108 67t-57 64t-17 73
q0 57 29 101.5t80 69.5t117 25q51 0 92 -17.5t65 -47.5t24 -68q0 -28 -16.5 -46t-43.5 -18q-18 0 -36 7t-29 17l19 37q17 32 -6.5 53t-73.5 21q-67 0 -103 -27.5t-36 -80.5q0 -28 14.5 -52t50 -49t98.5 -58q62 -33 96 -59.5t47.5 -56.5t13.5 -73zM456 774l-25 -24l-137 88
l-136 -87l-22 26l115 126q29 30 48 30q9 0 14 -1t10 -3z" />
    <glyph glyph-name="scircumflex" unicode="&#x15d;" horiz-adv-x="438" 
d="M208 44q44 0 72.5 20.5t28.5 58.5q0 37 -30.5 58t-70.5 40q-32 16 -64 34.5t-53 46.5t-21 72q0 22 9 47.5t30 48t55.5 37t85.5 14.5q40 0 73 -12.5t52.5 -34t19.5 -49.5q0 -23 -13.5 -36t-34.5 -13q-17 0 -30.5 5.5t-20.5 11.5l6 29q5 20 -7.5 33t-48.5 13q-56 0 -78 -23
t-22 -51q0 -31 29.5 -51t67.5 -40q33 -17 65.5 -37t53.5 -48.5t21 -71.5q0 -46 -22 -82t-63.5 -57t-101.5 -21q-47 0 -83 12t-56.5 33t-20.5 48q0 28 17 41t39 13q12 0 24.5 -3t19.5 -8v-26q0 -28 16 -40t56 -12zM399 605l-25 -25l-126 102l-127 -100l-22 23l108 141
q13 17 23.5 24t21.5 7q9 0 15 -1t13 -3z" />
    <glyph glyph-name="Scedilla" unicode="&#x15e;" horiz-adv-x="496" 
d="M472 197q0 -62 -30.5 -109.5t-84.5 -74.5t-125 -27q-55 0 -98.5 16.5t-68.5 46t-25 66.5q0 32 17.5 52t45.5 20q19 0 37 -7t30 -19l-16 -33q-17 -35 6.5 -57t78.5 -22q69 0 110.5 36t41.5 94q0 25 -12 45t-42.5 41.5t-84.5 49.5q-68 36 -108 67t-57 64t-17 73
q0 57 29 101.5t80 69.5t117 25q51 0 92 -17.5t65 -47.5t24 -68q0 -28 -16.5 -46t-43.5 -18q-18 0 -36 7t-29 17l19 37q17 32 -6.5 53t-73.5 21q-67 0 -103 -27.5t-36 -80.5q0 -28 14.5 -52t50 -49t98.5 -58q62 -33 96 -59.5t47.5 -56.5t13.5 -73zM275 11l-21 -65
q28 -1 50.5 -8.5t35.5 -24.5t13 -45q0 -45 -34 -72t-84 -27q-21 0 -43.5 5t-38.5 12l15 46q8 -3 25 -7t32 -4q23 0 37.5 10t14.5 32q0 19 -11 27.5t-26.5 10.5t-30.5 0l-8 21l28 89h46z" />
    <glyph glyph-name="scedilla" unicode="&#x15f;" horiz-adv-x="438" 
d="M208 44q44 0 72.5 20.5t28.5 58.5q0 37 -30.5 58t-70.5 40q-32 16 -64 34.5t-53 46.5t-21 72q0 22 9 47.5t30 48t55.5 37t85.5 14.5q40 0 73 -12.5t52.5 -34t19.5 -49.5q0 -23 -13.5 -36t-34.5 -13q-17 0 -30.5 5.5t-20.5 11.5l6 29q5 20 -7.5 33t-48.5 13q-56 0 -78 -23
t-22 -51q0 -31 29.5 -51t67.5 -40q33 -17 65.5 -37t53.5 -48.5t21 -71.5q0 -46 -22 -82t-63.5 -57t-101.5 -21q-47 0 -83 12t-56.5 33t-20.5 48q0 28 17 41t39 13q12 0 24.5 -3t19.5 -8v-26q0 -28 16 -40t56 -12zM228 13l-21 -65q28 -1 50.5 -8.5t35.5 -24.5t13 -45
q0 -45 -34 -72t-84 -27q-21 0 -43.5 5t-38.5 12l15 46q8 -3 25 -7t32 -4q23 0 37.5 10t14.5 32q0 19 -11 27.5t-26.5 10.5t-30.5 0l-8 21l28 89h46z" />
    <glyph glyph-name="Scaron" unicode="&#x160;" horiz-adv-x="496" 
d="M472 197q0 -62 -30.5 -109.5t-84.5 -74.5t-125 -27q-55 0 -98.5 16.5t-68.5 46t-25 66.5q0 32 17.5 52t45.5 20q19 0 37 -7t30 -19l-16 -33q-17 -35 6.5 -57t78.5 -22q69 0 110.5 36t41.5 94q0 25 -12 45t-42.5 41.5t-84.5 49.5q-68 36 -108 67t-57 64t-17 73
q0 57 29 101.5t80 69.5t117 25q51 0 92 -17.5t65 -47.5t24 -68q0 -28 -16.5 -46t-43.5 -18q-18 0 -36 7t-29 17l19 37q17 32 -6.5 53t-73.5 21q-67 0 -103 -27.5t-36 -80.5q0 -28 14.5 -52t50 -49t98.5 -58q62 -33 96 -59.5t47.5 -56.5t13.5 -73zM144 912l25 24l137 -88
l136 87l22 -26l-115 -126q-29 -30 -48 -30q-15 0 -24 4z" />
    <glyph glyph-name="scaron" unicode="&#x161;" horiz-adv-x="438" 
d="M208 44q44 0 72.5 20.5t28.5 58.5q0 37 -30.5 58t-70.5 40q-32 16 -64 34.5t-53 46.5t-21 72q0 22 9 47.5t30 48t55.5 37t85.5 14.5q40 0 73 -12.5t52.5 -34t19.5 -49.5q0 -23 -13.5 -36t-34.5 -13q-17 0 -30.5 5.5t-20.5 11.5l6 29q5 20 -7.5 33t-48.5 13q-56 0 -78 -23
t-22 -51q0 -31 29.5 -51t67.5 -40q33 -17 65.5 -37t53.5 -48.5t21 -71.5q0 -46 -22 -82t-63.5 -57t-101.5 -21q-47 0 -83 12t-56.5 33t-20.5 48q0 28 17 41t39 13q12 0 24.5 -3t19.5 -8v-26q0 -28 16 -40t56 -12zM99 752l25 25l126 -103l127 101l22 -23l-108 -141
q-13 -17 -23.5 -24t-21.5 -7q-9 0 -15 1t-13 3z" />
    <glyph glyph-name="uni0162" unicode="&#x162;" horiz-adv-x="621" 
d="M165 46l105 13l25 584h-88q-30 0 -47.5 -6t-28.5 -23.5t-22 -51.5l-13 -39l-56 11l24 166h553l14 -167l-54 -10l-13 39q-11 33 -22.5 50.5t-28 24t-44.5 6.5h-89l-26 -585l109 -12l-6 -46h-298zM343 13l-21 -65q28 -1 50.5 -8.5t35.5 -24.5t13 -45q0 -45 -34 -72t-84 -27
q-21 0 -43.5 5t-38.5 12l15 46q8 -3 25 -7t32 -4q23 0 37.5 10t14.5 32q0 19 -11 27.5t-26.5 10.5t-30.5 0l-8 21l28 89h46z" />
    <glyph glyph-name="uni0163" unicode="&#x163;" horiz-adv-x="409" 
d="M47 501l76 8l41 165h55l-10 -167h156l-4 -59h-155l-15 -311q-2 -42 13.5 -63.5t51.5 -21.5q29 0 53.5 15.5t47.5 37.5l32 -35q-26 -35 -65.5 -59.5t-88.5 -24.5q-73 0 -103 40t-27 107l14 315h-80zM252 13l-21 -65q28 -1 50.5 -8.5t35.5 -24.5t13 -45q0 -45 -34 -72
t-84 -27q-21 0 -43.5 5t-38.5 12l15 46q8 -3 25 -7t32 -4q23 0 37.5 10t14.5 32q0 19 -11 27.5t-26.5 10.5t-30.5 0l-8 21l28 89h46z" />
    <glyph glyph-name="Tcaron" unicode="&#x164;" horiz-adv-x="621" 
d="M165 46l105 13l25 584h-88q-30 0 -47.5 -6t-28.5 -23.5t-22 -51.5l-13 -39l-56 11l24 166h553l14 -167l-54 -10l-13 39q-11 33 -22.5 50.5t-28 24t-44.5 6.5h-89l-26 -585l109 -12l-6 -46h-298zM200 912l25 24l137 -88l136 87l22 -26l-115 -126q-29 -30 -48 -30
q-15 0 -24 4z" />
    <glyph glyph-name="tcaron" unicode="&#x165;" horiz-adv-x="409" 
d="M47 501l76 8l41 165h55l-10 -167h156l-4 -59h-155l-15 -311q-2 -42 13.5 -63.5t51.5 -21.5q29 0 53.5 15.5t47.5 37.5l32 -35q-26 -35 -65.5 -59.5t-88.5 -24.5q-73 0 -103 40t-27 107l14 315h-80zM331 576l-27 27q24 29 36 50.5t12 37.5q0 7 -2.5 13.5t-10.5 12.5
l-23 18q-5 24 7 45.5t42 21.5q28 0 45 -17.5t17 -50.5q0 -36 -22 -72t-74 -86z" />
    <glyph glyph-name="Tbar" unicode="&#x166;" horiz-adv-x="621" 
d="M115 315l8 63h402v-63h-410zM165 46l105 13l25 584h-88q-30 0 -47.5 -6t-28.5 -23.5t-22 -51.5l-13 -39l-56 11l24 166h553l14 -167l-54 -10l-13 39q-11 33 -22.5 50.5t-28 24t-44.5 6.5h-89l-26 -585l109 -12l-6 -46h-298z" />
    <glyph glyph-name="tbar" unicode="&#x167;" horiz-adv-x="404" 
d="M32 262l8 59h325v-59h-333zM47 501l76 8l41 165h55l-10 -167h156l-4 -59h-155l-15 -311q-2 -42 13.5 -63.5t51.5 -21.5q29 0 53.5 15.5t47.5 37.5l32 -35q-26 -35 -65.5 -59.5t-88.5 -24.5q-73 0 -103 40t-27 107l14 315h-80z" />
    <glyph glyph-name="Utilde" unicode="&#x168;" horiz-adv-x="758" 
d="M617 60l86 -13l-7 -47h-152l-7 12l35 353h-4q-31 -138 -68.5 -221t-85.5 -120.5t-114 -37.5q-92 0 -136 60t-38 176l22 417l-76 15l6 46h248l-6 -46l-85 -17l-21 -407q-4 -91 19 -131.5t80 -40.5q46 0 82 31t63.5 84t47.5 119.5t34 138.5t23 139l9 67l-83 17l6 46h232
l-6 -46l-73 -17zM482 776q-22 0 -42 5.5t-47 18.5q-32 16 -49 22.5t-22 6.5q-13 0 -21.5 -7t-24.5 -30l-31 19q18 36 32.5 55.5t29.5 27.5t35 8q11 0 27.5 -5.5t57.5 -22.5q32 -13 47.5 -18.5t25.5 -5.5q11 0 20 7.5t25 29.5l31 -19q-28 -53 -47.5 -72.5t-46.5 -19.5z" />
    <glyph glyph-name="utilde" unicode="&#x169;" horiz-adv-x="600" 
d="M19 472q15 13 35.5 24t42.5 18t39 7q81 0 73 -83l-25 -282q-4 -54 3.5 -75t31.5 -21q18 0 31 9.5t25.5 35.5t29.5 75l113 328h82l-16 -417q-1 -22 5.5 -31t21.5 -9q12 0 27.5 5.5t31.5 12.5l17 -50q-22 -13 -57 -23t-58 -10q-40 0 -57 25t-13 77l25 270l-8 1l-68 -219
q-25 -82 -61 -118t-92 -36q-61 0 -84 40.5t-15 135.5l22 255q2 25 -2.5 34t-20.5 9q-12 0 -27.5 -6.5t-28.5 -17.5zM377 620q-22 0 -42 5.5t-47 18.5q-62 29 -71 29q-13 0 -21.5 -7t-24.5 -30l-31 19q18 36 32.5 55.5t29.5 27.5t35 8q11 0 27.5 -5.5t57.5 -22.5
q27 -11 46 -17.5t27 -6.5q11 0 20 7.5t25 29.5l31 -19q-28 -53 -47.5 -72.5t-46.5 -19.5z" />
    <glyph glyph-name="Umacron" unicode="&#x16a;" horiz-adv-x="758" 
d="M617 60l86 -13l-7 -47h-152l-7 12l35 353h-4q-31 -138 -68.5 -221t-85.5 -120.5t-114 -37.5q-92 0 -136 60t-38 176l22 417l-76 15l6 46h248l-6 -46l-85 -17l-21 -407q-4 -91 19 -131.5t80 -40.5q46 0 82 31t63.5 84t47.5 119.5t34 138.5t23 139l9 67l-83 17l6 46h232
l-6 -46l-73 -17zM271 868h283l-4 -73h-283z" />
    <glyph glyph-name="umacron" unicode="&#x16b;" horiz-adv-x="600" 
d="M19 472q15 13 35.5 24t42.5 18t39 7q81 0 73 -83l-25 -282q-4 -54 3.5 -75t31.5 -21q18 0 31 9.5t25.5 35.5t29.5 75l113 328h82l-16 -417q-1 -22 5.5 -31t21.5 -9q12 0 27.5 5.5t31.5 12.5l17 -50q-22 -13 -57 -23t-58 -10q-40 0 -57 25t-13 77l25 270l-8 1l-68 -219
q-25 -82 -61 -118t-92 -36q-61 0 -84 40.5t-15 135.5l22 255q2 25 -2.5 34t-20.5 9q-12 0 -27.5 -6.5t-28.5 -17.5zM164 708h283l-4 -73h-283z" />
    <glyph glyph-name="Ubreve" unicode="&#x16c;" horiz-adv-x="758" 
d="M617 60l86 -13l-7 -47h-152l-7 12l35 353h-4q-31 -138 -68.5 -221t-85.5 -120.5t-114 -37.5q-92 0 -136 60t-38 176l22 417l-76 15l6 46h248l-6 -46l-85 -17l-21 -407q-4 -91 19 -131.5t80 -40.5q46 0 82 31t63.5 84t47.5 119.5t34 138.5t23 139l9 67l-83 17l6 46h232
l-6 -46l-73 -17zM294 928q23 -96 119 -96q50 0 78 26t41 69l38 -10q-5 -40 -24 -78t-53.5 -62.5t-87.5 -24.5q-50 0 -82.5 23t-49 60.5t-19.5 80.5z" />
    <glyph glyph-name="ubreve" unicode="&#x16d;" horiz-adv-x="600" 
d="M19 472q15 13 35.5 24t42.5 18t39 7q81 0 73 -83l-25 -282q-4 -54 3.5 -75t31.5 -21q18 0 31 9.5t25.5 35.5t29.5 75l113 328h82l-16 -417q-1 -22 5.5 -31t21.5 -9q12 0 27.5 5.5t31.5 12.5l17 -50q-22 -13 -57 -23t-58 -10q-40 0 -57 25t-13 77l25 270l-8 1l-68 -219
q-25 -82 -61 -118t-92 -36q-61 0 -84 40.5t-15 135.5l22 255q2 25 -2.5 34t-20.5 9q-12 0 -27.5 -6.5t-28.5 -17.5zM189 768q14 -49 37 -75t67 -26q45 0 74.5 28.5t42.5 71.5l38 -10q-5 -39 -24.5 -78.5t-53 -65.5t-82.5 -26q-47 0 -76 24.5t-43.5 63t-19.5 81.5z" />
    <glyph glyph-name="Uring" unicode="&#x16e;" horiz-adv-x="758" 
d="M617 60l86 -13l-7 -47h-152l-7 12l35 353h-4q-31 -138 -68.5 -221t-85.5 -120.5t-114 -37.5q-92 0 -136 60t-38 176l22 417l-76 15l6 46h248l-6 -46l-85 -17l-21 -407q-4 -91 19 -131.5t80 -40.5q46 0 82 31t63.5 84t47.5 119.5t34 138.5t23 139l9 67l-83 17l6 46h232
l-6 -46l-73 -17zM405 742q-52 0 -75 26t-23 71q0 27 12.5 50.5t37 37.5t58.5 14q49 0 72.5 -25t23.5 -69q0 -45 -28.5 -75t-77.5 -30zM408 788q26 0 36.5 17t10.5 39q0 21 -10.5 36.5t-34.5 15.5q-25 0 -36.5 -18t-11.5 -38t10 -36t36 -16z" />
    <glyph glyph-name="uring" unicode="&#x16f;" horiz-adv-x="600" 
d="M19 472q15 13 35.5 24t42.5 18t39 7q81 0 73 -83l-25 -282q-4 -54 3.5 -75t31.5 -21q18 0 31 9.5t25.5 35.5t29.5 75l113 328h82l-16 -417q-1 -22 5.5 -31t21.5 -9q12 0 27.5 5.5t31.5 12.5l17 -50q-22 -13 -57 -23t-58 -10q-40 0 -57 25t-13 77l25 270l-8 1l-68 -219
q-25 -82 -61 -118t-92 -36q-61 0 -84 40.5t-15 135.5l22 255q2 25 -2.5 34t-20.5 9q-12 0 -27.5 -6.5t-28.5 -17.5zM297 582q-52 0 -75 26t-23 71q0 27 12.5 50.5t37 37.5t58.5 14q49 0 72.5 -25t23.5 -69q0 -45 -28.5 -75t-77.5 -30zM300 628q26 0 36.5 17t10.5 39
q0 21 -10.5 36.5t-34.5 15.5q-25 0 -36.5 -18t-11.5 -38t10 -36t36 -16z" />
    <glyph glyph-name="Uhungarumlaut" unicode="&#x170;" horiz-adv-x="758" 
d="M617 60l86 -13l-7 -47h-152l-7 12l35 353h-4q-31 -138 -68.5 -221t-85.5 -120.5t-114 -37.5q-92 0 -136 60t-38 176l22 417l-76 15l6 46h248l-6 -46l-85 -17l-21 -407q-4 -91 19 -131.5t80 -40.5q46 0 82 31t63.5 84t47.5 119.5t34 138.5t23 139l9 67l-83 17l6 46h232
l-6 -46l-73 -17zM569 899q12 11 21.5 16.5t19.5 5.5q18 0 29 -13t11 -32q0 -8 -2 -17t-6 -20l-177 -87l-19 27zM388 901q11 11 21 16.5t20 5.5q18 0 29 -12.5t11 -31.5q0 -8 -2 -16.5t-6 -19.5l-174 -91l-19 27z" />
    <glyph glyph-name="uhungarumlaut" unicode="&#x171;" horiz-adv-x="600" 
d="M19 472q15 13 35.5 24t42.5 18t39 7q81 0 73 -83l-25 -282q-4 -54 3.5 -75t31.5 -21q18 0 31 9.5t25.5 35.5t29.5 75l113 328h82l-16 -417q-1 -22 5.5 -31t21.5 -9q12 0 27.5 5.5t31.5 12.5l17 -50q-22 -13 -57 -23t-58 -10q-40 0 -57 25t-13 77l25 270l-8 1l-68 -219
q-25 -82 -61 -118t-92 -36q-61 0 -84 40.5t-15 135.5l22 255q2 25 -2.5 34t-20.5 9q-12 0 -27.5 -6.5t-28.5 -17.5zM431 739q11 17 20 23t22 6q20 0 30.5 -17.5t5.5 -52.5l-148 -116l-22 23zM278 742q11 17 20 23t22 6q22 0 31.5 -17.5t4.5 -52.5l-142 -119l-22 23z" />
    <glyph glyph-name="Uogonek" unicode="&#x172;" horiz-adv-x="758" 
d="M617 60l86 -13l-7 -47q-30 -15 -58 -35.5t-45.5 -44.5t-17.5 -48q0 -16 7.5 -24.5t23.5 -8.5q14 0 29 9.5t28 23.5l28 -28q-19 -29 -51 -51t-73 -22q-30 0 -52.5 18t-22.5 50q0 35 17 62t45.5 51t62.5 48h-73l-7 12l35 353h-4q-20 -87 -43 -156.5t-53.5 -119.5
t-72.5 -76.5t-99 -26.5q-71 0 -110 32t-53 85.5t-11 118.5l22 417l-76 15l6 46h248l-6 -46l-85 -17l-21 -407q-5 -96 19.5 -134t79.5 -38q42 0 76.5 24.5t62.5 79.5q20 39 37 90t31.5 106.5t25.5 110t17 101.5l9 67l-83 17l6 46h232l-6 -46l-73 -17z" />
    <glyph glyph-name="uogonek" unicode="&#x173;" horiz-adv-x="600" 
d="M19 472q15 13 35.5 24t42.5 18t39 7q81 0 73 -83l-25 -282q-4 -54 3.5 -75t31.5 -21q18 0 31 9.5t25.5 35.5t29.5 75l113 328h82l-16 -417q-1 -22 5.5 -31t21.5 -9q12 0 27.5 5.5t31.5 12.5l17 -50q-61 -34 -91.5 -70.5t-30.5 -76.5q0 -33 31 -33q26 0 57 33l28 -28
q-23 -34 -55.5 -53.5t-68.5 -19.5q-34 0 -54.5 20.5t-20.5 53.5q0 32 22 66t71 75q-42 0 -59.5 25t-13.5 77l25 270l-8 1l-68 -219q-25 -82 -61 -118t-92 -36q-61 0 -84 40.5t-15 135.5l22 255q2 25 -2.5 34t-20.5 9q-12 0 -27.5 -6.5t-28.5 -17.5z" />
    <glyph glyph-name="Wcircumflex" unicode="&#x174;" horiz-adv-x="1001" 
d="M710 86h4l160 552l-87 18l6 44h237l-7 -48l-80 -17l-194 -635l-105 -10l-117 418l-159 -408l-105 -10l-158 648l-77 15l7 47h263l-6 -47l-88 -13l125 -554h4l165 426l-48 173l96 16zM689 774l-25 -24l-137 88l-136 -87l-22 26l115 126q29 30 48 30q9 0 14 -1t10 -3z" />
    <glyph glyph-name="wcircumflex" unicode="&#x175;" horiz-adv-x="788" 
d="M452 508q6 -28 8.5 -59.5t2.5 -63.5q0 -55 -5.5 -113t-12.5 -108q-7 -51 4.5 -81.5t57.5 -30.5q38 0 67 30t49.5 76.5t32 97t14.5 90.5q2 40 -6.5 55t-28.5 22l-35 13q-3 34 11 59.5t51 25.5q43 0 64 -27.5t21 -83.5q0 -47 -9 -103.5t-28 -113t-49 -103.5t-72 -75.5
t-97 -28.5q-23 0 -47.5 9t-42.5 31.5t-23 60.5q-26 -49 -64.5 -75t-94.5 -26q-18 0 -40.5 5.5t-43 22t-33 49t-9.5 86.5l13 272q2 24 -10 32t-31 2l-45 -14l-17 47q12 7 31 14.5t42 13t43 5.5q44 0 60.5 -23.5t14.5 -60.5l-16 -281q-3 -51 12 -78t51 -27q38 0 64 26.5
t42 71.5t23.5 101.5t7.5 115.5q0 34 -2 67.5t-6 64.5zM572 605l-25 -25l-126 102l-127 -100l-22 23l108 141q13 17 23.5 24t21.5 7q9 0 15 -1t13 -3z" />
    <glyph glyph-name="Ycircumflex" unicode="&#x176;" horiz-adv-x="670" 
d="M366 327h4l173 311l-87 18l6 44h237l-7 -48l-80 -17l-218 -374l-8 -202l95 -13l-6 -46h-265l6 46l82 13l11 200l-204 379l-77 15l7 47h258l-6 -47l-83 -13zM540 774l-25 -24l-137 88l-136 -87l-22 26l115 126q29 30 48 30q9 0 14 -1t10 -3z" />
    <glyph glyph-name="ycircumflex" unicode="&#x177;" horiz-adv-x="529" 
d="M298 -57q-20 -46 -42 -85.5t-55 -63t-86 -23.5q-39 0 -65.5 19t-26.5 51q0 26 17 46t47 24l15 -28q15 -27 24 -35t24 -8q24 0 39.5 20.5t37.5 70.5l30 69h-9q-32 0 -52 14.5t-38 44.5q-25 42 -40.5 120t-15.5 174q0 17 0.5 38.5t0.5 37.5t-5.5 22t-16.5 6t-31.5 -6
t-32.5 -12l-17 49q17 9 50.5 21t67.5 12q40 0 56 -23t16 -63q0 -17 -1 -34.5t-1 -40.5q0 -88 9.5 -149.5t28.5 -102.5q12 -25 21.5 -33t23.5 -8h16l113 271q16 38 13 57t-28 28l-35 13q-5 37 12.5 61t54.5 24t55.5 -24t18.5 -60q0 -20 -6.5 -46.5t-21.5 -66t-41 -98.5z
M429 605l-25 -25l-126 102l-127 -100l-22 23l108 141q13 17 23.5 24t21.5 7q9 0 15 -1t13 -3z" />
    <glyph glyph-name="Ydieresis" unicode="&#x178;" horiz-adv-x="670" 
d="M366 327h4l173 311l-87 18l6 44h237l-7 -48l-80 -17l-218 -374l-8 -202l95 -13l-6 -46h-265l6 46l82 13l11 200l-204 379l-77 15l7 47h258l-6 -47l-83 -13zM218 831q0 27 18.5 46t45.5 19q29 0 44.5 -16.5t15.5 -43.5q0 -28 -18 -46.5t-47 -18.5q-27 0 -43 16.5t-16 43.5
zM416 831q0 27 18.5 46t46.5 19t43.5 -16.5t15.5 -43.5q0 -28 -18 -46.5t-46 -18.5t-44 16.5t-16 43.5z" />
    <glyph glyph-name="Zacute" unicode="&#x179;" horiz-adv-x="611" 
d="M579 650l-413 -595h210q40 0 64 8.5t38.5 30t25.5 60.5l13 45h55l-26 -199h-491l2 48l415 599h-206q-36 0 -56 -6.5t-32 -25t-23 -55.5l-14 -46l-57 10l25 176h464zM374 899q12 11 21.5 16.5t19.5 5.5q18 0 29 -13t11 -32q0 -8 -2 -17t-6 -20l-184 -87l-19 27z" />
    <glyph glyph-name="zacute" unicode="&#x17a;" horiz-adv-x="474" 
d="M81 507h355l12 -37l-313 -398q16 4 32 5.5t32 1.5q32 0 63 -6.5t56 -6.5q15 0 25.5 7.5t21.5 32t28 75.5h49l-27 -181q-45 -11 -90.5 -8t-88.5 10t-82 7q-29 0 -47 -4.5t-32 -11.5l-35 48l309 398h-159q-26 0 -40.5 -6.5t-23 -27.5t-19.5 -63l-51 -3l14 157zM292 746
q12 15 21.5 22t23.5 7q22 0 31.5 -17.5t4.5 -52.5l-167 -123l-22 23z" />
    <glyph glyph-name="Zdotaccent" unicode="&#x17b;" horiz-adv-x="611" 
d="M579 650l-413 -595h210q40 0 64 8.5t38.5 30t25.5 60.5l13 45h55l-26 -199h-491l2 48l415 599h-206q-36 0 -56 -6.5t-32 -25t-23 -55.5l-14 -46l-57 10l25 176h464zM277 833q0 29 18 48t47 19t46.5 -18.5t17.5 -47.5t-17.5 -48t-46.5 -19t-47 18.5t-18 47.5z" />
    <glyph glyph-name="zdotaccent" unicode="&#x17c;" horiz-adv-x="474" 
d="M81 507h355l12 -37l-313 -398q16 4 32 5.5t32 1.5q32 0 63 -6.5t56 -6.5q15 0 25.5 7.5t21.5 32t28 75.5h49l-27 -181q-45 -11 -90.5 -8t-88.5 10t-82 7q-29 0 -47 -4.5t-32 -11.5l-35 48l309 398h-159q-26 0 -40.5 -6.5t-23 -27.5t-19.5 -63l-51 -3l14 157zM198 686
q0 29 18 48t47 19t46.5 -18.5t17.5 -47.5t-17.5 -48t-46.5 -19t-47 18.5t-18 47.5z" />
    <glyph glyph-name="Zcaron" unicode="&#x17d;" horiz-adv-x="611" 
d="M579 650l-413 -595h210q40 0 64 8.5t38.5 30t25.5 60.5l13 45h55l-26 -199h-491l2 48l415 599h-206q-36 0 -56 -6.5t-32 -25t-23 -55.5l-14 -46l-57 10l25 176h464zM190 912l25 24l137 -88l136 87l22 -26l-115 -126q-29 -30 -48 -30q-15 0 -24 4z" />
    <glyph glyph-name="zcaron" unicode="&#x17e;" horiz-adv-x="474" 
d="M81 507h355l12 -37l-313 -398q16 4 32 5.5t32 1.5q32 0 63 -6.5t56 -6.5q15 0 25.5 7.5t21.5 32t28 75.5h49l-27 -181q-45 -11 -90.5 -8t-88.5 10t-82 7q-29 0 -47 -4.5t-32 -11.5l-35 48l309 398h-159q-26 0 -40.5 -6.5t-23 -27.5t-19.5 -63l-51 -3l14 157zM115 752
l25 25l126 -103l127 101l22 -23l-108 -141q-13 -17 -23.5 -24t-21.5 -7q-9 0 -15 1t-13 3z" />
    <glyph glyph-name="uni018F" unicode="&#x18f;" horiz-adv-x="677" 
d="M303 -14q-71 0 -123 28.5t-79.5 81.5t-27.5 126q0 35 6 69.5t17 68.5h443q-2 143 -48 209.5t-144 66.5q-60 0 -109 -23.5t-108 -79.5l-38 37q116 144 274 144q83 0 143.5 -41t94 -115.5t33.5 -176.5q0 -117 -42 -206t-117 -139t-175 -50zM317 48q86 0 144.5 66t73.5 179
h-362q-4 -21 -6.5 -41t-2.5 -43q0 -81 38 -121t115 -40z" />
    <glyph glyph-name="florin" unicode="&#x192;" horiz-adv-x="529" 
d="M46 -145q41 0 66 35t33 100l48 391h-80l7 54h80l6 43q10 71 39 124t72.5 83t96.5 30q40 0 70.5 -14t48 -39t17.5 -58q0 -26 -16 -42t-42 -16q-16 0 -30 7t-23 19l10 27q12 33 1 50.5t-44 17.5q-40 0 -66 -34.5t-34 -100.5l-12 -95h146l-8 -56h-146l-41 -336
q-9 -73 -37.5 -126.5t-73 -82.5t-100.5 -29q-38 0 -67 13t-45.5 36t-16.5 52t16.5 47t42.5 18q16 0 30 -7t23 -19l-10 -27q-12 -32 -2 -48.5t41 -16.5z" />
    <glyph glyph-name="Ohorn" unicode="&#x1a0;" horiz-adv-x="795" 
d="M61 328q0 106 27.5 180t74.5 119.5t105 66.5t119 21q93 0 164.5 -48.5t102.5 -142.5q21 10 42 25.5t35 36.5t14 47q0 22 -21 25l-32 5q-5 8 -7.5 16.5t-2.5 18.5q0 26 17 45t49 19t50.5 -21.5t18.5 -55.5q0 -39 -17.5 -80t-51 -75t-81.5 -54q9 -43 9 -94
q0 -129 -43.5 -217t-116 -133.5t-161.5 -45.5q-97 0 -162.5 46t-98.5 123.5t-33 172.5zM156 349q0 -88 24.5 -155t72 -105t115.5 -38q62 0 109 33.5t74 103t27 176.5q0 139 -54 214t-151 75q-59 0 -108.5 -30.5t-79 -97t-29.5 -176.5z" />
    <glyph glyph-name="ohorn" unicode="&#x1a1;" horiz-adv-x="595" 
d="M48 235q0 56 13 107.5t40.5 91.5t72.5 63.5t109 23.5q56 0 99 -23.5t69 -64.5q27 16 49.5 41t22.5 58q0 22 -21 25l-32 5q-5 8 -7.5 16.5t-2.5 18.5q0 26 17 45t49 19t50.5 -21.5t18.5 -55.5q0 -35 -14.5 -72t-41.5 -69.5t-67 -54.5q9 -25 14 -53.5t5 -60.5
q0 -76 -24 -141.5t-76 -106t-137 -40.5q-99 0 -152.5 68t-53.5 181zM260 45q54 0 83.5 32.5t41.5 85t12 112.5q0 55 -11.5 97t-38 66.5t-72.5 24.5q-40 0 -66 -19t-40.5 -51.5t-20 -74.5t-5.5 -87q0 -83 28 -134.5t89 -51.5z" />
    <glyph glyph-name="Uhorn" unicode="&#x1af;" horiz-adv-x="812" 
d="M641 511q29 7 57 24.5t46 42t18 52.5q0 22 -21 25l-32 5q-5 8 -7.5 16.5t-2.5 18.5q0 26 17 45t49 19t50.5 -21.5t18.5 -55.5q0 -43 -21.5 -88.5t-64.5 -81.5t-110 -52l-21 -400l86 -13l-7 -47h-152l-7 12l35 353h-4q-20 -87 -43 -156.5t-53.5 -119.5t-72.5 -76.5
t-99 -26.5q-71 0 -110 32t-53 85.5t-11 118.5l22 417l-76 15l6 46h248l-6 -46l-85 -17l-21 -407q-5 -96 19.5 -134t79.5 -38q42 0 76.5 24.5t62.5 79.5q20 39 37 90t31.5 106.5t25.5 110t17 101.5l9 67l-83 17l6 46h156z" />
    <glyph glyph-name="uhorn" unicode="&#x1b0;" horiz-adv-x="672" 
d="M19 472q15 13 35.5 24t42.5 18t39 7q81 0 73 -83l-25 -282q-4 -54 3.5 -75t31.5 -21q18 0 31 9.5t25.5 35.5t29.5 75l113 328h82l-4 -91q47 20 75.5 51.5t28.5 63.5q0 22 -21 25l-32 5q-5 7 -7.5 15.5t-2.5 19.5q0 29 18 46.5t48 17.5q31 0 50 -21t19 -56
q0 -48 -23 -92.5t-63 -78t-92 -48.5l-10 -274q-1 -22 5.5 -31t21.5 -9q17 0 59 18l17 -50q-21 -13 -55.5 -23t-59.5 -10q-40 0 -57 25t-13 77l25 270l-8 1l-68 -219q-17 -55 -38 -89t-49 -49.5t-66 -15.5q-61 0 -84 40.5t-15 135.5l22 255q2 25 -2.5 34t-20.5 9
q-13 0 -28.5 -6.5t-27.5 -17.5z" />
    <glyph glyph-name="uni01C4" unicode="&#x1c4;" horiz-adv-x="1336" 
d="M50 0l5 45l89 15l25 577l-87 17l6 46h267q161 0 249.5 -80.5t88.5 -227.5q0 -124 -50 -211.5t-145 -134t-230 -46.5h-218zM232 55h28q163 0 249.5 84.5t86.5 243.5q0 125 -66 194t-186 69h-89zM1304 650l-413 -595h210q40 0 64 8.5t38.5 30t25.5 60.5l13 45h55l-26 -199
h-491l2 48l415 599h-206q-36 0 -56 -6.5t-32 -25t-23 -55.5l-14 -46l-57 10l25 176h464zM915 912l25 24l137 -88l136 87l22 -26l-115 -126q-29 -30 -48 -30q-15 0 -24 4z" />
    <glyph glyph-name="uni01C5" unicode="&#x1c5;" horiz-adv-x="1201" 
d="M50 0l5 45l89 15l25 577l-87 17l6 46h267q161 0 249.5 -80.5t88.5 -227.5q0 -124 -50 -211.5t-145 -134t-230 -46.5h-218zM232 55h28q163 0 249.5 84.5t86.5 243.5q0 125 -66 194t-186 69h-89zM808 507h355l12 -37l-313 -398q16 4 32 5.5t32 1.5q32 0 63 -6.5t56 -6.5
q15 0 25.5 7.5t21.5 32t28 75.5h49l-27 -181q-45 -11 -90.5 -8t-88.5 10t-82 7q-29 0 -47 -4.5t-32 -11.5l-35 48l309 398h-159q-26 0 -40.5 -6.5t-23 -27.5t-19.5 -63l-51 -3l14 157zM842 752l25 25l126 -103l127 101l22 -23l-108 -141q-13 -17 -23.5 -24t-21.5 -7
q-9 0 -15 1t-13 3z" />
    <glyph glyph-name="uni01C6" unicode="&#x1c6;" horiz-adv-x="1049" 
d="M464 86q-1 -22 4.5 -31t21.5 -9q14 0 28 7.5t29 17.5l23 -34q-11 -10 -30.5 -22t-41.5 -20.5t-43 -8.5q-44 0 -58 28.5t-10 71.5l16 188l-7 1l-23 -86q-18 -67 -39.5 -112t-54 -68t-82.5 -23q-53 0 -86.5 30t-49 80.5t-15.5 109.5q0 94 29 164.5t81.5 110.5t122.5 40
q30 0 62 -8t50 -17l8 202l-93 21l6 48h156l16 -11zM213 54q24 0 42 11t33.5 39t33 79.5t39.5 132.5l33 121q-19 10 -51.5 16.5t-55.5 6.5q-47 0 -81 -32.5t-52 -88.5t-18 -128q0 -78 19.5 -117.5t57.5 -39.5zM656 507h355l12 -37l-313 -398q16 4 32 5.5t32 1.5q32 0 63 -6.5
t56 -6.5q15 0 25.5 7.5t21.5 32t28 75.5h49l-27 -181q-45 -11 -90.5 -8t-88.5 10t-82 7q-29 0 -47 -4.5t-32 -11.5l-35 48l309 398h-159q-26 0 -40.5 -6.5t-23 -27.5t-19.5 -63l-51 -3l14 157zM690 752l25 25l126 -103l127 101l22 -23l-108 -141q-13 -17 -23.5 -24t-21.5 -7
q-9 0 -15 1t-13 3z" />
    <glyph glyph-name="uni01C7" unicode="&#x1c7;" horiz-adv-x="949" 
d="M62 46l82 13l24 578l-86 17l6 46h277l-6 -46l-105 -17l-24 -579h150q44 0 65.5 17.5t37.5 67.5l16 51h55l-26 -194h-472zM751 637l-102 17l6 46h272l-6 -46l-85 -17l-22 -578q-2 -61 -18 -107.5t-51.5 -89t-97.5 -91.5l-27 39q39 43 61 79.5t32.5 76t12.5 93.5z" />
    <glyph glyph-name="uni01C8" unicode="&#x1c8;" horiz-adv-x="878" 
d="M62 46l82 13l24 578l-86 17l6 46h277l-6 -46l-105 -17l-24 -579h150q44 0 65.5 17.5t37.5 67.5l16 51h55l-26 -194h-472zM780 122q-2 -54 -12.5 -113.5t-29 -111t-43.5 -81.5q-18 -22 -38.5 -33.5t-42.5 -11.5q-31 0 -49 15.5t-18 34.5q0 14 5.5 30.5t18.5 34.5l41 -17
q26 -10 46.5 0.5t24.5 48.5q3 25 4.5 46.5t2.5 58.5l16 393q1 23 -4.5 32t-20.5 9q-28 0 -63 -16l-16 45q19 11 51 23t65 12q41 0 59 -27t14 -86zM672 686q0 29 18 48t47 19t46.5 -18.5t17.5 -47.5t-17.5 -48t-46.5 -19t-47 18.5t-18 47.5z" />
    <glyph glyph-name="uni01C9" unicode="&#x1c9;" horiz-adv-x="583" 
d="M118 698l-93 21l6 48h155l16 -11l-23 -666q-1 -22 4 -32t21 -10q11 0 26 8.5t34 24.5l25 -38q-10 -10 -27.5 -23.5t-41 -23.5t-52.5 -10q-47 0 -62.5 25.5t-14.5 65.5zM485 122q-2 -54 -12.5 -113.5t-29 -111t-43.5 -81.5q-18 -22 -38.5 -33.5t-42.5 -11.5
q-31 0 -49 15.5t-18 34.5q0 14 5.5 30.5t18.5 34.5l41 -17q26 -10 46.5 0.5t24.5 48.5q3 25 4.5 46.5t2.5 58.5l16 393q1 23 -4.5 32t-20.5 9q-28 0 -63 -16l-16 45q19 11 51 23t65 12q41 0 59 -27t14 -86zM377 686q0 29 18 48t47 19t46.5 -18.5t17.5 -47.5t-17.5 -48
t-46.5 -19t-47 18.5t-18 47.5z" />
    <glyph glyph-name="uni01CA" unicode="&#x1ca;" horiz-adv-x="1110" 
d="M561 119l18 518l-85 17l6 46h237l-6 -46l-85 -17l-25 -637l-92 -11l-304 630l-20 -560l94 -13l-6 -46h-243l6 46l81 13l24 582l-79 11l6 48h197zM912 637l-102 17l6 46h272l-6 -46l-85 -17l-22 -578q-2 -61 -18 -107.5t-51.5 -89t-97.5 -91.5l-27 39q39 43 61 79.5
t32.5 76t12.5 93.5z" />
    <glyph glyph-name="uni01CB" unicode="&#x1cb;" horiz-adv-x="1032" 
d="M561 119l18 518l-85 17l6 46h237l-6 -46l-85 -17l-25 -637l-92 -11l-304 630l-20 -560l94 -13l-6 -46h-243l6 46l81 13l24 582l-79 11l6 48h197zM934 122q-2 -54 -12.5 -113.5t-29 -111t-43.5 -81.5q-18 -22 -38.5 -33.5t-42.5 -11.5q-31 0 -49 15.5t-18 34.5
q0 14 5.5 30.5t18.5 34.5l41 -17q26 -10 46.5 0.5t24.5 48.5q3 25 4.5 46.5t2.5 58.5l16 393q1 23 -4.5 32t-20.5 9q-28 0 -63 -16l-16 45q19 11 51 23t65 12q41 0 59 -27t14 -86zM826 686q0 29 18 48t47 19t46.5 -18.5t17.5 -47.5t-17.5 -48t-46.5 -19t-47 18.5t-18 47.5z
" />
    <glyph glyph-name="uni01CC" unicode="&#x1cc;" horiz-adv-x="887" 
d="M586 35q-11 -10 -31 -21.5t-42.5 -19.5t-43.5 -8q-81 0 -73 83l25 285q5 53 -4.5 73t-34.5 20q-20 0 -33.5 -10.5t-25 -36t-27.5 -70.5l-117 -330h-82l16 416q1 22 -5.5 31t-21.5 9q-10 0 -24 -4.5t-35 -13.5l-17 50q11 6 30.5 14t42 13.5t42.5 5.5q43 0 59 -26t11 -76
l-25 -267l7 -2l73 217q27 80 61.5 117t91.5 37q67 0 89 -43t14 -130l-22 -258q-2 -22 2.5 -32.5t20.5 -10.5q11 0 26.5 6.5t29.5 17.5zM789 122q-2 -54 -12.5 -113.5t-29 -111t-43.5 -81.5q-18 -22 -38.5 -33.5t-42.5 -11.5q-31 0 -49 15.5t-18 34.5q0 14 5.5 30.5
t18.5 34.5l41 -17q26 -10 46.5 0.5t24.5 48.5q3 25 4.5 46.5t2.5 58.5l16 393q1 23 -4.5 32t-20.5 9q-28 0 -63 -16l-16 45q19 11 51 23t65 12q41 0 59 -27t14 -86zM681 686q0 29 18 48t47 19t46.5 -18.5t17.5 -47.5t-17.5 -48t-46.5 -19t-47 18.5t-18 47.5z" />
    <glyph glyph-name="uni01CD" unicode="&#x1cd;" horiz-adv-x="691" 
d="M421 706l182 -649l85 -11l-6 -46h-266l6 46l81 12l-46 173h-240l-60 -173l91 -12l-6 -46h-234l6 46l79 12l229 637zM237 288h205l-87 331h-3zM228 912l25 24l137 -88l136 87l22 -26l-115 -126q-29 -30 -48 -30q-15 0 -24 4z" />
    <glyph glyph-name="uni01CE" unicode="&#x1ce;" horiz-adv-x="575" 
d="M466 90q-1 -25 4.5 -34t20.5 -9q10 0 22.5 6.5t26.5 18.5l25 -38q-16 -16 -47 -32t-62 -16q-77 0 -68 100l17 188l-7 1l-22 -82q-18 -67 -40 -113t-53.5 -70t-79.5 -24q-53 0 -87.5 28t-51 76.5t-16.5 110.5q0 95 30 167t82 112.5t118 40.5q35 0 65.5 -8t48.5 -17l70 23
l17 -8zM216 54q23 0 40.5 10t32.5 38t32.5 79.5t40.5 135.5l33 119q-19 10 -50 17t-58 7q-44 0 -77.5 -32.5t-52 -90t-18.5 -132.5q0 -79 18.5 -115t58.5 -36zM158 752l25 25l126 -103l127 101l22 -23l-108 -141q-13 -17 -23.5 -24t-21.5 -7q-9 0 -15 1t-13 3z" />
    <glyph glyph-name="uni01CF" unicode="&#x1cf;" horiz-adv-x="366" 
d="M168 637l-86 17l6 46h256l-6 -46l-85 -17l-22 -578l95 -13l-6 -46h-265l6 46l82 13zM67 912l25 24l137 -88l136 87l22 -26l-115 -126q-29 -30 -48 -30q-15 0 -24 4z" />
    <glyph glyph-name="uni01D0" unicode="&#x1d0;" horiz-adv-x="306" 
d="M123 416q2 23 -3.5 32t-21.5 9q-27 0 -63 -16l-16 45q26 16 58.5 25.5t57.5 9.5q82 0 73 -113l-23 -318q-1 -25 3.5 -34t19.5 -9q12 0 26.5 7.5t35.5 26.5l25 -38q-18 -18 -38.5 -31t-42 -19.5t-42.5 -6.5q-82 0 -75 91zM-9 752l25 25l126 -103l127 101l22 -23l-108 -141
q-13 -17 -23.5 -24t-21.5 -7q-9 0 -15 1t-13 3z" />
    <glyph glyph-name="uni01D1" unicode="&#x1d1;" horiz-adv-x="715" 
d="M61 328q0 119 40 205.5t113 134t173 47.5q89 0 153.5 -40.5t100 -115.5t35.5 -177q0 -119 -40 -208t-112 -138.5t-169 -49.5q-89 0 -155.5 42t-102.5 119t-36 181zM156 349q0 -138 57 -218t155 -80q101 0 155.5 82t54.5 231q0 137 -53.5 213t-151.5 76q-103 0 -160 -80
t-57 -224zM241 912l25 24l137 -88l136 87l22 -26l-115 -126q-29 -30 -48 -30q-15 0 -24 4z" />
    <glyph glyph-name="uni01D2" unicode="&#x1d2;" horiz-adv-x="539" 
d="M254 -14q-99 0 -152.5 68t-53.5 181q0 56 13 107.5t40.5 91.5t72.5 63.5t109 23.5q66 0 112.5 -30.5t71 -86t24.5 -130.5q0 -76 -24 -141.5t-76 -106t-137 -40.5zM260 45q54 0 83.5 32.5t41.5 85t12 112.5q0 55 -11.5 97t-38 66.5t-72.5 24.5q-40 0 -66 -19t-40.5 -51.5
t-20 -74.5t-5.5 -87q0 -83 28 -134.5t89 -51.5zM138 752l25 25l126 -103l127 101l22 -23l-108 -141q-13 -17 -23.5 -24t-21.5 -7q-9 0 -15 1t-13 3z" />
    <glyph glyph-name="uni01D3" unicode="&#x1d3;" horiz-adv-x="758" 
d="M617 60l86 -13l-7 -47h-152l-7 12l35 353h-4q-31 -138 -68.5 -221t-85.5 -120.5t-114 -37.5q-92 0 -136 60t-38 176l22 417l-76 15l6 46h248l-6 -46l-85 -17l-21 -407q-4 -91 19 -131.5t80 -40.5q46 0 82 31t63.5 84t47.5 119.5t34 138.5t23 139l9 67l-83 17l6 46h232
l-6 -46l-73 -17zM258 912l25 24l137 -88l136 87l22 -26l-115 -126q-29 -30 -48 -30q-15 0 -24 4z" />
    <glyph glyph-name="uni01D4" unicode="&#x1d4;" horiz-adv-x="600" 
d="M19 472q15 13 35.5 24t42.5 18t39 7q81 0 73 -83l-25 -282q-4 -54 3.5 -75t31.5 -21q18 0 31 9.5t25.5 35.5t29.5 75l113 328h82l-16 -417q-1 -22 5.5 -31t21.5 -9q12 0 27.5 5.5t31.5 12.5l17 -50q-22 -13 -57 -23t-58 -10q-40 0 -57 25t-13 77l25 270l-8 1l-68 -219
q-25 -82 -61 -118t-92 -36q-61 0 -84 40.5t-15 135.5l22 255q2 25 -2.5 34t-20.5 9q-12 0 -27.5 -6.5t-28.5 -17.5zM153 752l25 25l126 -103l127 101l22 -23l-108 -141q-13 -17 -23.5 -24t-21.5 -7q-9 0 -15 1t-13 3z" />
    <glyph glyph-name="uni01D5" unicode="&#x1d5;" horiz-adv-x="758" 
d="M617 60l86 -13l-7 -47h-152l-7 12l35 353h-4q-31 -138 -68.5 -221t-85.5 -120.5t-114 -37.5q-92 0 -136 60t-38 176l22 417l-76 15l6 46h248l-6 -46l-85 -17l-21 -407q-4 -91 19 -131.5t80 -40.5q46 0 82 31t63.5 84t47.5 119.5t34 138.5t23 139l9 67l-83 17l6 46h232
l-6 -46l-73 -17zM248 831q0 27 18.5 46t45.5 19q29 0 44.5 -16.5t15.5 -43.5q0 -28 -18 -46.5t-47 -18.5q-27 0 -43 16.5t-16 43.5zM446 831q0 27 18.5 46t46.5 19t43.5 -16.5t15.5 -43.5q0 -28 -18 -46.5t-46 -18.5t-44 16.5t-16 43.5zM277 1041h283l-4 -73h-283z" />
    <glyph glyph-name="uni01D6" unicode="&#x1d6;" horiz-adv-x="600" 
d="M19 472q15 13 35.5 24t42.5 18t39 7q81 0 73 -83l-25 -282q-4 -54 3.5 -75t31.5 -21q18 0 31 9.5t25.5 35.5t29.5 75l113 328h82l-16 -417q-1 -22 5.5 -31t21.5 -9q12 0 27.5 5.5t31.5 12.5l17 -50q-22 -13 -57 -23t-58 -10q-40 0 -57 25t-13 77l25 270l-8 1l-68 -219
q-25 -82 -61 -118t-92 -36q-61 0 -84 40.5t-15 135.5l22 255q2 25 -2.5 34t-20.5 9q-12 0 -27.5 -6.5t-28.5 -17.5zM142 680q0 27 18.5 46t45.5 19q29 0 44.5 -16.5t15.5 -43.5q0 -28 -18 -46.5t-47 -18.5q-27 0 -43 16.5t-16 43.5zM340 680q0 27 18.5 46t46.5 19
t43.5 -16.5t15.5 -43.5q0 -28 -18 -46.5t-46 -18.5t-44 16.5t-16 43.5zM172 895h283l-4 -73h-283z" />
    <glyph glyph-name="uni01D7" unicode="&#x1d7;" horiz-adv-x="758" 
d="M617 60l86 -13l-7 -47h-152l-7 12l35 353h-4q-31 -138 -68.5 -221t-85.5 -120.5t-114 -37.5q-92 0 -136 60t-38 176l22 417l-76 15l6 46h248l-6 -46l-85 -17l-21 -407q-4 -91 19 -131.5t80 -40.5q46 0 82 31t63.5 84t47.5 119.5t34 138.5t23 139l9 67l-83 17l6 46h232
l-6 -46l-73 -17zM248 831q0 27 18.5 46t45.5 19q29 0 44.5 -16.5t15.5 -43.5q0 -28 -18 -46.5t-47 -18.5q-27 0 -43 16.5t-16 43.5zM446 831q0 27 18.5 46t46.5 19t43.5 -16.5t15.5 -43.5q0 -28 -18 -46.5t-46 -18.5t-44 16.5t-16 43.5zM449 1087q12 11 21.5 16.5t19.5 5.5
q18 0 29 -13t11 -32q0 -8 -2 -17t-6 -20l-184 -87l-19 27z" />
    <glyph glyph-name="uni01D8" unicode="&#x1d8;" horiz-adv-x="600" 
d="M19 472q15 13 35.5 24t42.5 18t39 7q81 0 73 -83l-25 -282q-4 -54 3.5 -75t31.5 -21q18 0 31 9.5t25.5 35.5t29.5 75l113 328h82l-16 -417q-1 -22 5.5 -31t21.5 -9q12 0 27.5 5.5t31.5 12.5l17 -50q-22 -13 -57 -23t-58 -10q-40 0 -57 25t-13 77l25 270l-8 1l-68 -219
q-25 -82 -61 -118t-92 -36q-61 0 -84 40.5t-15 135.5l22 255q2 25 -2.5 34t-20.5 9q-12 0 -27.5 -6.5t-28.5 -17.5zM142 680q0 27 18.5 46t45.5 19q29 0 44.5 -16.5t15.5 -43.5q0 -28 -18 -46.5t-47 -18.5q-27 0 -43 16.5t-16 43.5zM340 680q0 27 18.5 46t46.5 19
t43.5 -16.5t15.5 -43.5q0 -28 -18 -46.5t-46 -18.5t-44 16.5t-16 43.5zM349 946q12 11 21.5 16.5t19.5 5.5q18 0 29 -13t11 -32q0 -8 -2 -17t-6 -20l-184 -87l-19 27z" />
    <glyph glyph-name="uni01D9" unicode="&#x1d9;" horiz-adv-x="758" 
d="M617 60l86 -13l-7 -47h-152l-7 12l35 353h-4q-31 -138 -68.5 -221t-85.5 -120.5t-114 -37.5q-92 0 -136 60t-38 176l22 417l-76 15l6 46h248l-6 -46l-85 -17l-21 -407q-4 -91 19 -131.5t80 -40.5q46 0 82 31t63.5 84t47.5 119.5t34 138.5t23 139l9 67l-83 17l6 46h232
l-6 -46l-73 -17zM248 831q0 27 18.5 46t45.5 19q29 0 44.5 -16.5t15.5 -43.5q0 -28 -18 -46.5t-47 -18.5q-27 0 -43 16.5t-16 43.5zM446 831q0 27 18.5 46t46.5 19t43.5 -16.5t15.5 -43.5q0 -28 -18 -46.5t-46 -18.5t-44 16.5t-16 43.5zM268 1098l25 24l137 -88l136 87
l22 -26l-115 -126q-29 -30 -48 -30q-15 0 -24 4z" />
    <glyph glyph-name="uni01DA" unicode="&#x1da;" horiz-adv-x="600" 
d="M19 472q15 13 35.5 24t42.5 18t39 7q81 0 73 -83l-25 -282q-4 -54 3.5 -75t31.5 -21q18 0 31 9.5t25.5 35.5t29.5 75l113 328h82l-16 -417q-1 -22 5.5 -31t21.5 -9q12 0 27.5 5.5t31.5 12.5l17 -50q-22 -13 -57 -23t-58 -10q-40 0 -57 25t-13 77l25 270l-8 1l-68 -219
q-25 -82 -61 -118t-92 -36q-61 0 -84 40.5t-15 135.5l22 255q2 25 -2.5 34t-20.5 9q-12 0 -27.5 -6.5t-28.5 -17.5zM142 680q0 27 18.5 46t45.5 19q29 0 44.5 -16.5t15.5 -43.5q0 -28 -18 -46.5t-47 -18.5q-27 0 -43 16.5t-16 43.5zM340 680q0 27 18.5 46t46.5 19
t43.5 -16.5t15.5 -43.5q0 -28 -18 -46.5t-46 -18.5t-44 16.5t-16 43.5zM161 959l25 24l137 -88l136 87l22 -26l-115 -126q-29 -30 -48 -30q-15 0 -24 4z" />
    <glyph glyph-name="uni01DB" unicode="&#x1db;" horiz-adv-x="758" 
d="M617 60l86 -13l-7 -47h-152l-7 12l35 353h-4q-31 -138 -68.5 -221t-85.5 -120.5t-114 -37.5q-92 0 -136 60t-38 176l22 417l-76 15l6 46h248l-6 -46l-85 -17l-21 -407q-4 -91 19 -131.5t80 -40.5q46 0 82 31t63.5 84t47.5 119.5t34 138.5t23 139l9 67l-83 17l6 46h232
l-6 -46l-73 -17zM248 831q0 27 18.5 46t45.5 19q29 0 44.5 -16.5t15.5 -43.5q0 -28 -18 -46.5t-47 -18.5q-27 0 -43 16.5t-16 43.5zM446 831q0 27 18.5 46t46.5 19t43.5 -16.5t15.5 -43.5q0 -28 -18 -46.5t-46 -18.5t-44 16.5t-16 43.5zM506 969l-20 -29l-152 70
q-19 8 -29 21.5t-10 27.5q0 15 13 29.5t41 19.5z" />
    <glyph glyph-name="uni01DC" unicode="&#x1dc;" horiz-adv-x="600" 
d="M19 472q15 13 35.5 24t42.5 18t39 7q81 0 73 -83l-25 -282q-4 -54 3.5 -75t31.5 -21q18 0 31 9.5t25.5 35.5t29.5 75l113 328h82l-16 -417q-1 -22 5.5 -31t21.5 -9q12 0 27.5 5.5t31.5 12.5l17 -50q-22 -13 -57 -23t-58 -10q-40 0 -57 25t-13 77l25 270l-8 1l-68 -219
q-25 -82 -61 -118t-92 -36q-61 0 -84 40.5t-15 135.5l22 255q2 25 -2.5 34t-20.5 9q-12 0 -27.5 -6.5t-28.5 -17.5zM142 680q0 27 18.5 46t45.5 19q29 0 44.5 -16.5t15.5 -43.5q0 -28 -18 -46.5t-47 -18.5q-27 0 -43 16.5t-16 43.5zM340 680q0 27 18.5 46t46.5 19
t43.5 -16.5t15.5 -43.5q0 -28 -18 -46.5t-46 -18.5t-44 16.5t-16 43.5zM401 830l-20 -29l-152 70q-19 8 -29 21.5t-10 27.5q0 15 13 29.5t41 19.5z" />
    <glyph glyph-name="Gcaron" unicode="&#x1e6;" horiz-adv-x="639" 
d="M602 332l-12 -273q-29 -21 -68 -37.5t-80.5 -26t-80.5 -9.5q-91 0 -158.5 41.5t-104.5 118t-37 179.5q0 119 41 206.5t116 135.5t176 48q64 0 115 -20t81 -53.5t30 -75.5q0 -26 -15.5 -42.5t-39.5 -16.5q-20 0 -39 8t-33 22l17 34q17 35 -16.5 58t-100.5 23
q-113 0 -175.5 -83.5t-62.5 -235.5q0 -86 26 -149.5t73 -98t111 -34.5q39 0 76.5 10t63.5 27l7 178l-85 20l6 46h169zM236 912l25 24l137 -88l136 87l22 -26l-115 -126q-29 -30 -48 -30q-15 0 -24 4z" />
    <glyph glyph-name="gcaron" unicode="&#x1e7;" horiz-adv-x="552" 
d="M405 274l-7 1l-23 -86q-18 -67 -39.5 -111.5t-54 -66.5t-82.5 -22q-53 0 -86.5 29.5t-49 79t-15.5 108.5q0 94 29 164.5t81.5 110.5t122.5 40q30 0 64.5 -6t63.5 -18l38 25l30 -10l-16 -431q-2 -59 -15.5 -114.5t-43.5 -100t-79.5 -70.5t-123.5 -26q-35 0 -70 9
t-58.5 30.5t-23.5 57.5q0 34 19 53.5t45 19.5q16 0 32 -7t25 -19l-9 -29q-10 -34 2.5 -50t53.5 -16q78 0 120 69.5t52 187.5zM215 57q24 0 42 11t34 39t33 79t39 130l33 121q-19 10 -51.5 16.5t-55.5 6.5q-47 0 -81 -32.5t-52 -88.5t-18 -128q0 -73 18 -113.5t59 -40.5z
M151 752l25 25l126 -103l127 101l22 -23l-108 -141q-13 -17 -23.5 -24t-21.5 -7q-9 0 -15 1t-13 3z" />
    <glyph glyph-name="uni01EA" unicode="&#x1ea;" horiz-adv-x="715" 
d="M61 328q0 119 40 205.5t113 134t173 47.5q89 0 153.5 -40.5t100 -115.5t35.5 -177q0 -119 -40 -208t-112 -138.5t-169 -49.5q-89 0 -155.5 42t-102.5 119t-36 181zM156 349q0 -138 57 -218t155 -80q101 0 155.5 82t54.5 231q0 137 -53.5 213t-151.5 76q-103 0 -160 -80
t-57 -224zM435 9q-21 -16 -42.5 -38.5t-36 -47.5t-14.5 -51q0 -16 7.5 -24.5t23.5 -8.5q14 0 29 9.5t28 23.5l28 -28q-19 -29 -51 -51t-73 -22q-30 0 -52.5 18.5t-22.5 55.5q0 34 19 64.5t47.5 56t54.5 43.5h55z" />
    <glyph glyph-name="uni01EB" unicode="&#x1eb;" horiz-adv-x="539" 
d="M254 -14q-99 0 -152.5 68t-53.5 181q0 56 13 107.5t40.5 91.5t72.5 63.5t109 23.5q66 0 112.5 -30.5t71 -86t24.5 -130.5q0 -76 -24 -141.5t-76 -106t-137 -40.5zM260 45q54 0 83.5 32.5t41.5 85t12 112.5q0 55 -11.5 97t-38 66.5t-72.5 24.5q-40 0 -66 -19t-40.5 -51.5
t-20 -74.5t-5.5 -87q0 -83 28 -134.5t89 -51.5zM338 9q-21 -16 -42.5 -38.5t-36 -47.5t-14.5 -51q0 -16 7.5 -24.5t23.5 -8.5q14 0 29 9.5t28 23.5l28 -28q-19 -29 -51 -51t-73 -22q-30 0 -52.5 18.5t-22.5 55.5q0 34 19 64.5t47.5 56t54.5 43.5h55z" />
    <glyph glyph-name="Aringacute" unicode="&#x1fa;" horiz-adv-x="691" 
d="M421 706l182 -649l85 -11l-6 -46h-266l6 46l81 12l-46 173h-240l-60 -173l91 -12l-6 -46h-234l6 46l79 12l229 637zM237 288h205l-87 331h-3zM370 655q-52 0 -75 26t-23 71q0 27 12.5 50.5t37 37.5t58.5 14q49 0 72.5 -25t23.5 -69q0 -45 -28.5 -75t-77.5 -30zM373 701
q26 0 36.5 17t10.5 39q0 21 -10.5 36.5t-34.5 15.5q-25 0 -36.5 -18t-11.5 -38t10 -36t36 -16zM435 1032q12 11 21.5 16.5t19.5 5.5q18 0 29 -13t11 -32q0 -8 -2 -17t-6 -20l-184 -87l-19 27z" />
    <glyph glyph-name="aringacute" unicode="&#x1fb;" horiz-adv-x="575" 
d="M466 90q-1 -25 4.5 -34t20.5 -9q10 0 22.5 6.5t26.5 18.5l25 -38q-16 -16 -47 -32t-62 -16q-77 0 -68 100l17 188l-7 1l-22 -82q-18 -67 -40 -113t-53.5 -70t-79.5 -24q-53 0 -87.5 28t-51 76.5t-16.5 110.5q0 95 30 167t82 112.5t118 40.5q35 0 65.5 -8t48.5 -17l70 23
l17 -8zM216 54q23 0 40.5 10t32.5 38t32.5 79.5t40.5 135.5l33 119q-19 10 -50 17t-58 7q-44 0 -77.5 -32.5t-52 -90t-18.5 -132.5q0 -79 18.5 -115t58.5 -36zM343 968q12 11 21.5 16.5t19.5 5.5q18 0 29 -13t11 -32q0 -8 -2 -17t-6 -20l-184 -87l-19 27zM302 582
q-52 0 -75 26t-23 71q0 27 12.5 50.5t37 37.5t58.5 14q49 0 72.5 -25t23.5 -69q0 -45 -28.5 -75t-77.5 -30zM305 628q26 0 36.5 17t10.5 39q0 21 -10.5 36.5t-34.5 15.5q-25 0 -36.5 -18t-11.5 -38t10 -36t36 -16z" />
    <glyph glyph-name="AEacute" unicode="&#x1fc;" horiz-adv-x="921" 
d="M766 700l14 -168l-55 -9l-11 36q-9 32 -19.5 50t-27.5 26t-49 8h-179l70 -252h244l-5 -63h-221l71 -270h111q46 0 66.5 18t36.5 67l14 41h55l-24 -184h-441l6 46l81 12l-46 173h-240l-60 -173l91 -12l-6 -46h-234l6 46l79 12l229 642h444zM237 288h205l-87 331h-3z
M631 899q12 11 21.5 16.5t19.5 5.5q18 0 29 -13t11 -32q0 -8 -2 -17t-6 -20l-184 -87l-19 27z" />
    <glyph glyph-name="aeacute" unicode="&#x1fd;" horiz-adv-x="776" 
d="M593 521q68 0 101.5 -34.5t33.5 -92.5q0 -55 -28 -88t-70 -51t-85 -29l-111 -27q3 -33 17 -67t41.5 -57t68.5 -23q61 0 130 65l34 -37q-22 -28 -52.5 -49.5t-64.5 -33t-67 -11.5q-53 0 -89.5 22t-57 60.5t-28.5 89.5q-17 -56 -38 -94.5t-51 -58t-74 -19.5q-53 0 -87.5 28
t-51 76.5t-16.5 110.5q0 95 30 167t82 112.5t118 40.5q35 0 65.5 -8t48.5 -17l63 25l17 -8l-8 -46q26 26 59 40t70 14zM216 54q23 0 40.5 10.5t33.5 38.5t33.5 80t40.5 134l33 119q-19 10 -51 17t-59 7q-44 0 -77.5 -32.5t-52 -90t-18.5 -132.5q0 -78 18.5 -114.5
t58.5 -36.5zM639 391q0 29 -14 51.5t-49 22.5q-62 0 -99.5 -55.5t-42.5 -153.5l101 26q53 14 78.5 37t25.5 72zM496 746q12 15 21.5 22t23.5 7q22 0 31.5 -17.5t4.5 -52.5l-167 -123l-22 23z" />
    <glyph glyph-name="Oslashacute" unicode="&#x1fe;" horiz-adv-x="715" 
d="M612 715h76l-565 -729h-77zM61 328q0 119 40 205.5t113 134t173 47.5q89 0 153.5 -40.5t100 -115.5t35.5 -177q0 -119 -40 -208t-112 -138.5t-169 -49.5q-89 0 -155.5 42t-102.5 119t-36 181zM156 349q0 -138 57 -218t155 -80q101 0 155.5 82t54.5 231q0 137 -53.5 213
t-151.5 76q-103 0 -160 -80t-57 -224zM425 899q12 11 21.5 16.5t19.5 5.5q18 0 29 -13t11 -32q0 -8 -2 -17t-6 -20l-184 -87l-19 27z" />
    <glyph glyph-name="oslashacute" unicode="&#x1ff;" horiz-adv-x="539" 
d="M445 521h67l-431 -535h-68zM254 -14q-99 0 -152.5 68t-53.5 181q0 56 13 107.5t40.5 91.5t72.5 63.5t109 23.5q66 0 112.5 -30.5t71 -86t24.5 -130.5q0 -76 -24 -141.5t-76 -106t-137 -40.5zM260 45q54 0 83.5 32.5t41.5 85t12 112.5q0 55 -11.5 97t-38 66.5t-72.5 24.5
q-40 0 -66 -19t-40.5 -51.5t-20 -74.5t-5.5 -87q0 -83 28 -134.5t89 -51.5zM339 746q12 15 21.5 22t23.5 7q22 0 31.5 -17.5t4.5 -52.5l-167 -123l-22 23z" />
    <glyph glyph-name="uni0200" unicode="&#x200;" horiz-adv-x="691" 
d="M421 706l182 -649l85 -11l-6 -46h-266l6 46l81 12l-46 173h-240l-60 -173l91 -12l-6 -46h-234l6 46l79 12l229 637zM237 288h205l-87 331h-3zM312 761l-114 88q-14 11 -23 25.5t-9 29.5q0 18 11.5 31t33.5 13q11 0 20 -6.5t19 -22.5l87 -133zM453 761l-106 92
q-14 12 -21.5 25t-7.5 26q0 20 11.5 33.5t33.5 13.5q11 0 19 -6t18 -23l78 -136z" />
    <glyph glyph-name="uni0201" unicode="&#x201;" horiz-adv-x="575" 
d="M466 90q-1 -25 4.5 -34t20.5 -9q10 0 22.5 6.5t26.5 18.5l25 -38q-16 -16 -47 -32t-62 -16q-77 0 -68 100l17 188l-7 1l-22 -82q-18 -67 -40 -113t-53.5 -70t-79.5 -24q-53 0 -87.5 28t-51 76.5t-16.5 110.5q0 95 30 167t82 112.5t118 40.5q35 0 65.5 -8t48.5 -17l70 23
l17 -8zM216 54q23 0 40.5 10t32.5 38t32.5 79.5t40.5 135.5l33 119q-19 10 -50 17t-58 7q-44 0 -77.5 -32.5t-52 -90t-18.5 -132.5q0 -79 18.5 -115t58.5 -36zM230 581l-114 88q-14 11 -23 25.5t-9 29.5q0 18 11.5 31t33.5 13q11 0 20 -6.5t19 -22.5l87 -133zM371 581
l-106 92q-14 12 -21.5 25t-7.5 26q0 20 11.5 33.5t33.5 13.5q11 0 19 -6t18 -23l78 -136z" />
    <glyph glyph-name="uni0202" unicode="&#x202;" horiz-adv-x="691" 
d="M421 706l182 -649l85 -11l-6 -46h-266l6 46l81 12l-46 173h-240l-60 -173l91 -12l-6 -46h-234l6 46l79 12l229 637zM237 288h205l-87 331h-3zM392 921q51 0 82.5 -23t47.5 -60.5t19 -80.5l-41 -12q-12 50 -40 73t-77 23t-79.5 -26t-44.5 -69l-37 10q5 40 25.5 77.5
t57 62.5t87.5 25z" />
    <glyph glyph-name="uni0203" unicode="&#x203;" horiz-adv-x="575" 
d="M466 90q-1 -25 4.5 -34t20.5 -9q10 0 22.5 6.5t26.5 18.5l25 -38q-16 -16 -47 -32t-62 -16q-77 0 -68 100l17 188l-7 1l-22 -82q-18 -67 -40 -113t-53.5 -70t-79.5 -24q-53 0 -87.5 28t-51 76.5t-16.5 110.5q0 95 30 167t82 112.5t118 40.5q35 0 65.5 -8t48.5 -17l70 23
l17 -8zM216 54q23 0 40.5 10t32.5 38t32.5 79.5t40.5 135.5l33 119q-19 10 -50 17t-58 7q-44 0 -77.5 -32.5t-52 -90t-18.5 -132.5q0 -79 18.5 -115t58.5 -36zM300 758q48 0 77.5 -24.5t44 -63t17.5 -81.5l-41 -12q-12 50 -37.5 75.5t-69.5 25.5q-45 0 -72.5 -28.5
t-41.5 -71.5l-37 10q5 40 24.5 79t53.5 65t82 26z" />
    <glyph glyph-name="uni0204" unicode="&#x204;" horiz-adv-x="600" 
d="M168 637l-86 17l6 46h454l14 -168l-55 -9l-11 36q-10 35 -21.5 53t-28.5 24.5t-46 6.5h-139l-10 -252h249l-5 -63h-247l-11 -270h157q44 0 65 17.5t38 67.5l14 41h55l-24 -184h-479l6 46l82 13zM451 752l-132 70q-18 10 -29 22.5t-10 33.5q1 17 12.5 32.5t30.5 15.5
q9 0 18 -5t20 -18l111 -123zM273 752l-135 68q-18 9 -29 22t-10 34q1 17 13.5 31t31.5 14q15 0 38 -23l112 -118z" />
    <glyph glyph-name="uni0205" unicode="&#x205;" horiz-adv-x="480" 
d="M287 521q75 0 110 -34.5t35 -92.5q0 -55 -28 -88t-70 -51t-85 -29l-111 -27q3 -33 17 -67t41.5 -57t68.5 -23q33 0 63 15t67 50l34 -37q-11 -14 -35.5 -36.5t-61.5 -40t-87 -17.5q-64 0 -108.5 31t-67 85.5t-22.5 122.5q0 86 30 153t84 105t126 38zM343 391
q0 29 -14 51.5t-49 22.5q-62 0 -99.5 -55.5t-42.5 -153.5l101 26q53 14 78.5 37t25.5 72zM203 581l-114 88q-14 11 -23 25.5t-9 29.5q0 18 11.5 31t33.5 13q11 0 20 -6.5t19 -22.5l87 -133zM344 581l-106 92q-14 12 -21.5 25t-7.5 26q0 20 11.5 33.5t33.5 13.5q11 0 19 -6
t18 -23l78 -136z" />
    <glyph glyph-name="uni0206" unicode="&#x206;" horiz-adv-x="600" 
d="M168 637l-86 17l6 46h454l14 -168l-55 -9l-11 36q-10 35 -21.5 53t-28.5 24.5t-46 6.5h-139l-10 -252h249l-5 -63h-247l-11 -270h157q44 0 65 17.5t38 67.5l14 41h55l-24 -184h-479l6 46l82 13zM357 921q51 0 82.5 -23t47.5 -60.5t19 -80.5l-41 -12q-12 50 -40 73t-77 23
t-79.5 -26t-44.5 -69l-37 10q5 40 25.5 77.5t57 62.5t87.5 25z" />
    <glyph glyph-name="uni0207" unicode="&#x207;" horiz-adv-x="480" 
d="M287 521q75 0 110 -34.5t35 -92.5q0 -55 -28 -88t-70 -51t-85 -29l-111 -27q3 -33 17 -67t41.5 -57t68.5 -23q33 0 63 15t67 50l34 -37q-11 -14 -35.5 -36.5t-61.5 -40t-87 -17.5q-64 0 -108.5 31t-67 85.5t-22.5 122.5q0 86 30 153t84 105t126 38zM343 391
q0 29 -14 51.5t-49 22.5q-62 0 -99.5 -55.5t-42.5 -153.5l101 26q53 14 78.5 37t25.5 72zM273 758q48 0 77.5 -24.5t44 -63t17.5 -81.5l-41 -12q-12 50 -37.5 75.5t-69.5 25.5q-45 0 -72.5 -28.5t-41.5 -71.5l-37 10q5 40 24.5 79t53.5 65t82 26z" />
    <glyph glyph-name="uni0208" unicode="&#x208;" horiz-adv-x="366" 
d="M168 637l-86 17l6 46h256l-6 -46l-85 -17l-22 -578l95 -13l-6 -46h-265l6 46l82 13zM325 752l-132 70q-18 10 -29 22.5t-10 33.5q1 17 12.5 32.5t30.5 15.5q9 0 18 -5t20 -18l111 -123zM147 752l-135 68q-18 9 -29 22t-10 34q1 17 13.5 31t31.5 14q15 0 38 -23l112 -118z
" />
    <glyph glyph-name="uni0209" unicode="&#x209;" horiz-adv-x="306" 
d="M123 416q2 23 -3.5 32t-21.5 9q-27 0 -63 -16l-16 45q26 16 58.5 25.5t57.5 9.5q82 0 73 -113l-23 -318q-1 -25 3.5 -34t19.5 -9q12 0 26.5 7.5t35.5 26.5l25 -38q-18 -18 -38.5 -31t-42 -19.5t-42.5 -6.5q-82 0 -75 91zM63 581l-114 88q-14 11 -23 25.5t-9 29.5
q0 18 11.5 31t33.5 13q11 0 20 -6.5t19 -22.5l87 -133zM204 581l-106 92q-14 12 -21.5 25t-7.5 26q0 20 11.5 33.5t33.5 13.5q11 0 19 -6t18 -23l78 -136z" />
    <glyph glyph-name="uni020A" unicode="&#x20a;" horiz-adv-x="366" 
d="M168 637l-86 17l6 46h256l-6 -46l-85 -17l-22 -578l95 -13l-6 -46h-265l6 46l82 13zM231 921q51 0 82.5 -23t47.5 -60.5t19 -80.5l-41 -12q-12 50 -40 73t-77 23t-79.5 -26t-44.5 -69l-37 10q5 40 25.5 77.5t57 62.5t87.5 25z" />
    <glyph glyph-name="uni020B" unicode="&#x20b;" horiz-adv-x="306" 
d="M123 416q2 23 -3.5 32t-21.5 9q-27 0 -63 -16l-16 45q26 16 58.5 25.5t57.5 9.5q82 0 73 -113l-23 -318q-1 -25 3.5 -34t19.5 -9q12 0 26.5 7.5t35.5 26.5l25 -38q-18 -18 -38.5 -31t-42 -19.5t-42.5 -6.5q-82 0 -75 91zM133 758q48 0 77.5 -24.5t44 -63t17.5 -81.5
l-41 -12q-12 50 -37.5 75.5t-69.5 25.5q-45 0 -72.5 -28.5t-41.5 -71.5l-37 10q5 40 24.5 79t53.5 65t82 26z" />
    <glyph glyph-name="uni020C" unicode="&#x20c;" horiz-adv-x="715" 
d="M61 328q0 119 40 205.5t113 134t173 47.5q89 0 153.5 -40.5t100 -115.5t35.5 -177q0 -119 -40 -208t-112 -138.5t-169 -49.5q-89 0 -155.5 42t-102.5 119t-36 181zM156 349q0 -138 57 -218t155 -80q101 0 155.5 82t54.5 231q0 137 -53.5 213t-151.5 76q-103 0 -160 -80
t-57 -224zM499 752l-132 70q-18 10 -29 22.5t-10 33.5q1 17 12.5 32.5t30.5 15.5q9 0 18 -5t20 -18l111 -123zM321 752l-135 68q-18 9 -29 22t-10 34q1 17 13.5 31t31.5 14q15 0 38 -23l112 -118z" />
    <glyph glyph-name="uni020D" unicode="&#x20d;" horiz-adv-x="539" 
d="M254 -14q-99 0 -152.5 68t-53.5 181q0 56 13 107.5t40.5 91.5t72.5 63.5t109 23.5q66 0 112.5 -30.5t71 -86t24.5 -130.5q0 -76 -24 -141.5t-76 -106t-137 -40.5zM260 45q54 0 83.5 32.5t41.5 85t12 112.5q0 55 -11.5 97t-38 66.5t-72.5 24.5q-40 0 -66 -19t-40.5 -51.5
t-20 -74.5t-5.5 -87q0 -83 28 -134.5t89 -51.5zM225 581l-114 88q-14 11 -23 25.5t-9 29.5q0 18 11.5 31t33.5 13q11 0 20 -6.5t19 -22.5l87 -133zM366 581l-106 92q-14 12 -21.5 25t-7.5 26q0 20 11.5 33.5t33.5 13.5q11 0 19 -6t18 -23l78 -136z" />
    <glyph glyph-name="uni020E" unicode="&#x20e;" horiz-adv-x="715" 
d="M61 328q0 119 40 205.5t113 134t173 47.5q89 0 153.5 -40.5t100 -115.5t35.5 -177q0 -119 -40 -208t-112 -138.5t-169 -49.5q-89 0 -155.5 42t-102.5 119t-36 181zM156 349q0 -138 57 -218t155 -80q101 0 155.5 82t54.5 231q0 137 -53.5 213t-151.5 76q-103 0 -160 -80
t-57 -224zM405 921q51 0 82.5 -23t47.5 -60.5t19 -80.5l-41 -12q-12 50 -40 73t-77 23t-79.5 -26t-44.5 -69l-37 10q5 40 25.5 77.5t57 62.5t87.5 25z" />
    <glyph glyph-name="uni020F" unicode="&#x20f;" horiz-adv-x="539" 
d="M254 -14q-99 0 -152.5 68t-53.5 181q0 56 13 107.5t40.5 91.5t72.5 63.5t109 23.5q66 0 112.5 -30.5t71 -86t24.5 -130.5q0 -76 -24 -141.5t-76 -106t-137 -40.5zM260 45q54 0 83.5 32.5t41.5 85t12 112.5q0 55 -11.5 97t-38 66.5t-72.5 24.5q-40 0 -66 -19t-40.5 -51.5
t-20 -74.5t-5.5 -87q0 -83 28 -134.5t89 -51.5zM300 758q48 0 77.5 -24.5t44 -63t17.5 -81.5l-41 -12q-12 50 -37.5 75.5t-69.5 25.5q-45 0 -72.5 -28.5t-41.5 -71.5l-37 10q5 40 24.5 79t53.5 65t82 26z" />
    <glyph glyph-name="uni0210" unicode="&#x210;" horiz-adv-x="681" 
d="M290 370q81 2 128 43t47 110q0 66 -37 94.5t-122 28.5h-51l-22 -588l108 -14l-5 -44h-286l5 44l89 16l25 577l-87 17l6 46h227q128 0 187.5 -40.5t59.5 -127.5q0 -48 -26.5 -89t-73.5 -68t-107 -34v-3q34 -14 54.5 -35t39.5 -60l58 -120q23 -46 41.5 -62t48.5 -16
q23 0 59 18l20 -35q-20 -19 -48.5 -30.5t-57.5 -11.5q-55 0 -92.5 27t-62.5 85l-42 99q-23 55 -41.5 81.5t-45.5 42.5zM437 752l-132 70q-18 10 -29 22.5t-10 33.5q1 17 12.5 32.5t30.5 15.5q9 0 18 -5t20 -18l111 -123zM259 752l-135 68q-18 9 -29 22t-10 34q1 17 13.5 31
t31.5 14q15 0 38 -23l112 -118z" />
    <glyph glyph-name="uni0211" unicode="&#x211;" horiz-adv-x="466" 
d="M114 416q1 21 -5 30.5t-22 9.5q-17 0 -59 -18l-17 50q11 6 30.5 14t42 13.5t42.5 5.5q43 0 59 -26t11 -76l-14 -142l6 -1l54 127q19 45 36 71t36 36.5t45 10.5q38 0 57.5 -20.5t19.5 -47.5q0 -21 -12 -40t-35 -29l-23 27q-11 14 -18 18t-16 4q-10 0 -17.5 -6t-17.5 -24.5
t-27 -56.5q-28 -61 -45.5 -101t-27 -67t-14 -49t-6.5 -47l-9 -82h-74zM199 581l-114 88q-14 11 -23 25.5t-9 29.5q0 18 11.5 31t33.5 13q11 0 20 -6.5t19 -22.5l87 -133zM340 581l-106 92q-14 12 -21.5 25t-7.5 26q0 20 11.5 33.5t33.5 13.5q11 0 19 -6t18 -23l78 -136z" />
    <glyph glyph-name="uni0212" unicode="&#x212;" horiz-adv-x="681" 
d="M290 370q81 2 128 43t47 110q0 66 -37 94.5t-122 28.5h-51l-22 -588l108 -14l-5 -44h-286l5 44l89 16l25 577l-87 17l6 46h227q128 0 187.5 -40.5t59.5 -127.5q0 -48 -26.5 -89t-73.5 -68t-107 -34v-3q34 -14 54.5 -35t39.5 -60l58 -120q23 -46 41.5 -62t48.5 -16
q23 0 59 18l20 -35q-20 -19 -48.5 -30.5t-57.5 -11.5q-55 0 -92.5 27t-62.5 85l-42 99q-23 55 -41.5 81.5t-45.5 42.5zM343 921q51 0 82.5 -23t47.5 -60.5t19 -80.5l-41 -12q-12 50 -40 73t-77 23t-79.5 -26t-44.5 -69l-37 10q5 40 25.5 77.5t57 62.5t87.5 25z" />
    <glyph glyph-name="uni0213" unicode="&#x213;" horiz-adv-x="466" 
d="M114 416q1 21 -5 30.5t-22 9.5q-17 0 -59 -18l-17 50q11 6 30.5 14t42 13.5t42.5 5.5q43 0 59 -26t11 -76l-14 -142l6 -1l54 127q19 45 36 71t36 36.5t45 10.5q38 0 57.5 -20.5t19.5 -47.5q0 -21 -12 -40t-35 -29l-23 27q-11 14 -18 18t-16 4q-10 0 -17.5 -6t-17.5 -24.5
t-27 -56.5q-28 -61 -45.5 -101t-27 -67t-14 -49t-6.5 -47l-9 -82h-74zM269 758q48 0 77.5 -24.5t44 -63t17.5 -81.5l-41 -12q-12 50 -37.5 75.5t-69.5 25.5q-45 0 -72.5 -28.5t-41.5 -71.5l-37 10q5 40 24.5 79t53.5 65t82 26z" />
    <glyph glyph-name="uni0214" unicode="&#x214;" horiz-adv-x="758" 
d="M617 60l86 -13l-7 -47h-152l-7 12l35 353h-4q-31 -138 -68.5 -221t-85.5 -120.5t-114 -37.5q-92 0 -136 60t-38 176l22 417l-76 15l6 46h248l-6 -46l-85 -17l-21 -407q-4 -91 19 -131.5t80 -40.5q46 0 82 31t63.5 84t47.5 119.5t34 138.5t23 139l9 67l-83 17l6 46h232
l-6 -46l-73 -17zM516 752l-132 70q-18 10 -29 22.5t-10 33.5q1 17 12.5 32.5t30.5 15.5q9 0 18 -5t20 -18l111 -123zM338 752l-135 68q-18 9 -29 22t-10 34q1 17 13.5 31t31.5 14q15 0 38 -23l112 -118z" />
    <glyph glyph-name="uni0215" unicode="&#x215;" horiz-adv-x="600" 
d="M19 472q15 13 35.5 24t42.5 18t39 7q81 0 73 -83l-25 -282q-4 -54 3.5 -75t31.5 -21q18 0 31 9.5t25.5 35.5t29.5 75l113 328h82l-16 -417q-1 -22 5.5 -31t21.5 -9q12 0 27.5 5.5t31.5 12.5l17 -50q-22 -13 -57 -23t-58 -10q-40 0 -57 25t-13 77l25 270l-8 1l-68 -219
q-25 -82 -61 -118t-92 -36q-61 0 -84 40.5t-15 135.5l22 255q2 25 -2.5 34t-20.5 9q-12 0 -27.5 -6.5t-28.5 -17.5zM262 581l-114 88q-14 11 -23 25.5t-9 29.5q0 18 11.5 31t33.5 13q11 0 20 -6.5t19 -22.5l87 -133zM403 581l-106 92q-14 12 -21.5 25t-7.5 26
q0 20 11.5 33.5t33.5 13.5q11 0 19 -6t18 -23l78 -136z" />
    <glyph glyph-name="uni0216" unicode="&#x216;" horiz-adv-x="758" 
d="M617 60l86 -13l-7 -47h-152l-7 12l35 353h-4q-31 -138 -68.5 -221t-85.5 -120.5t-114 -37.5q-92 0 -136 60t-38 176l22 417l-76 15l6 46h248l-6 -46l-85 -17l-21 -407q-4 -91 19 -131.5t80 -40.5q46 0 82 31t63.5 84t47.5 119.5t34 138.5t23 139l9 67l-83 17l6 46h232
l-6 -46l-73 -17zM422 921q51 0 82.5 -23t47.5 -60.5t19 -80.5l-41 -12q-12 50 -40 73t-77 23t-79.5 -26t-44.5 -69l-37 10q5 40 25.5 77.5t57 62.5t87.5 25z" />
    <glyph glyph-name="uni0217" unicode="&#x217;" horiz-adv-x="600" 
d="M19 472q15 13 35.5 24t42.5 18t39 7q81 0 73 -83l-25 -282q-4 -54 3.5 -75t31.5 -21q18 0 31 9.5t25.5 35.5t29.5 75l113 328h82l-16 -417q-1 -22 5.5 -31t21.5 -9q12 0 27.5 5.5t31.5 12.5l17 -50q-22 -13 -57 -23t-58 -10q-40 0 -57 25t-13 77l25 270l-8 1l-68 -219
q-25 -82 -61 -118t-92 -36q-61 0 -84 40.5t-15 135.5l22 255q2 25 -2.5 34t-20.5 9q-12 0 -27.5 -6.5t-28.5 -17.5zM330 758q48 0 77.5 -24.5t44 -63t17.5 -81.5l-41 -12q-12 50 -37.5 75.5t-69.5 25.5q-45 0 -72.5 -28.5t-41.5 -71.5l-37 10q5 40 24.5 79t53.5 65t82 26z
" />
    <glyph glyph-name="uni0218" unicode="&#x218;" horiz-adv-x="496" 
d="M472 197q0 -62 -30.5 -109.5t-84.5 -74.5t-125 -27q-55 0 -98.5 16.5t-68.5 46t-25 66.5q0 32 17.5 52t45.5 20q19 0 37 -7t30 -19l-16 -33q-17 -35 6.5 -57t78.5 -22q69 0 110.5 36t41.5 94q0 25 -12 45t-42.5 41.5t-84.5 49.5q-68 36 -108 67t-57 64t-17 73
q0 57 29 101.5t80 69.5t117 25q51 0 92 -17.5t65 -47.5t24 -68q0 -28 -16.5 -46t-43.5 -18q-18 0 -36 7t-29 17l19 37q17 32 -6.5 53t-73.5 21q-67 0 -103 -27.5t-36 -80.5q0 -28 14.5 -52t50 -49t98.5 -58q62 -33 96 -59.5t47.5 -56.5t13.5 -73zM198 -270l-24 30
q17 14 32.5 33t15.5 38q0 7 -3 11.5t-12 7.5l-28 10q-6 17 -2 36t19 32.5t39 13.5q29 0 46 -20t17 -46q0 -32 -25 -72.5t-75 -73.5z" />
    <glyph glyph-name="uni0219" unicode="&#x219;" horiz-adv-x="438" 
d="M208 44q44 0 72.5 20.5t28.5 58.5q0 37 -30.5 58t-70.5 40q-32 16 -64 34.5t-53 46.5t-21 72q0 22 9 47.5t30 48t55.5 37t85.5 14.5q40 0 73 -12.5t52.5 -34t19.5 -49.5q0 -23 -13.5 -36t-34.5 -13q-17 0 -30.5 5.5t-20.5 11.5l6 29q5 20 -7.5 33t-48.5 13q-56 0 -78 -23
t-22 -51q0 -31 29.5 -51t67.5 -40q33 -17 65.5 -37t53.5 -48.5t21 -71.5q0 -46 -22 -82t-63.5 -57t-101.5 -21q-47 0 -83 12t-56.5 33t-20.5 48q0 28 17 41t39 13q12 0 24.5 -3t19.5 -8v-26q0 -28 16 -40t56 -12zM161 -260l-24 30q17 14 32.5 33t15.5 38q0 7 -3 11.5
t-12 7.5l-28 10q-6 17 -2 36t19 32.5t39 13.5q29 0 46 -20t17 -46q0 -32 -25 -72.5t-75 -73.5z" />
    <glyph glyph-name="uni021A" unicode="&#x21a;" horiz-adv-x="621" 
d="M165 46l105 13l25 584h-88q-30 0 -47.5 -6t-28.5 -23.5t-22 -51.5l-13 -39l-56 11l24 166h553l14 -167l-54 -10l-13 39q-11 33 -22.5 50.5t-28 24t-44.5 6.5h-89l-26 -585l109 -12l-6 -46h-298zM266 -268l-24 30q17 14 32.5 33t15.5 38q0 7 -3 11.5t-12 7.5l-28 10
q-6 17 -2 36t19 32.5t39 13.5q29 0 46 -20t17 -46q0 -32 -25 -72.5t-75 -73.5z" />
    <glyph glyph-name="uni021B" unicode="&#x21b;" horiz-adv-x="409" 
d="M47 501l76 8l41 165h55l-10 -167h156l-4 -59h-155l-15 -311q-2 -42 13.5 -63.5t51.5 -21.5q29 0 53.5 15.5t47.5 37.5l32 -35q-26 -35 -65.5 -59.5t-88.5 -24.5q-73 0 -103 40t-27 107l14 315h-80zM175 -268l-24 30q17 14 32.5 33t15.5 38q0 7 -3 11.5t-12 7.5l-28 10
q-6 17 -2 36t19 32.5t39 13.5q29 0 46 -20t17 -46q0 -32 -25 -72.5t-75 -73.5z" />
    <glyph glyph-name="uni022A" unicode="&#x22a;" horiz-adv-x="715" 
d="M61 328q0 119 40 205.5t113 134t173 47.5q89 0 153.5 -40.5t100 -115.5t35.5 -177q0 -119 -40 -208t-112 -138.5t-169 -49.5q-89 0 -155.5 42t-102.5 119t-36 181zM156 349q0 -138 57 -218t155 -80q101 0 155.5 82t54.5 231q0 137 -53.5 213t-151.5 76q-103 0 -160 -80
t-57 -224zM231 831q0 27 18.5 46t45.5 19q29 0 44.5 -16.5t15.5 -43.5q0 -28 -18 -46.5t-47 -18.5q-27 0 -43 16.5t-16 43.5zM429 831q0 27 18.5 46t46.5 19t43.5 -16.5t15.5 -43.5q0 -28 -18 -46.5t-46 -18.5t-44 16.5t-16 43.5zM283 1041h283l-4 -73h-283z" />
    <glyph glyph-name="uni022B" unicode="&#x22b;" horiz-adv-x="539" 
d="M254 -14q-99 0 -152.5 68t-53.5 181q0 56 13 107.5t40.5 91.5t72.5 63.5t109 23.5q66 0 112.5 -30.5t71 -86t24.5 -130.5q0 -76 -24 -141.5t-76 -106t-137 -40.5zM260 45q54 0 83.5 32.5t41.5 85t12 112.5q0 55 -11.5 97t-38 66.5t-72.5 24.5q-40 0 -66 -19t-40.5 -51.5
t-20 -74.5t-5.5 -87q0 -83 28 -134.5t89 -51.5zM137 656q0 27 18.5 46t45.5 19q29 0 44.5 -16.5t15.5 -43.5q0 -28 -18 -46.5t-47 -18.5q-27 0 -43 16.5t-16 43.5zM335 656q0 27 18.5 46t46.5 19t43.5 -16.5t15.5 -43.5q0 -28 -18 -46.5t-46 -18.5t-44 16.5t-16 43.5z
M163 868h283l-4 -73h-283z" />
    <glyph glyph-name="uni022C" unicode="&#x22c;" horiz-adv-x="715" 
d="M61 328q0 119 40 205.5t113 134t173 47.5q89 0 153.5 -40.5t100 -115.5t35.5 -177q0 -119 -40 -208t-112 -138.5t-169 -49.5q-89 0 -155.5 42t-102.5 119t-36 181zM156 349q0 -138 57 -218t155 -80q101 0 155.5 82t54.5 231q0 137 -53.5 213t-151.5 76q-103 0 -160 -80
t-57 -224zM267 1053h283l-4 -73h-283zM464 766q-22 0 -42 5.5t-47 18.5q-32 16 -49 22.5t-22 6.5q-13 0 -21.5 -7t-24.5 -30l-31 19q18 36 32.5 55.5t29.5 27.5t35 8q11 0 27.5 -5.5t57.5 -22.5q32 -13 47.5 -18.5t25.5 -5.5q11 0 20 7.5t25 29.5l31 -19
q-28 -53 -47.5 -72.5t-46.5 -19.5z" />
    <glyph glyph-name="uni022D" unicode="&#x22d;" horiz-adv-x="539" 
d="M254 -14q-99 0 -152.5 68t-53.5 181q0 56 13 107.5t40.5 91.5t72.5 63.5t109 23.5q66 0 112.5 -30.5t71 -86t24.5 -130.5q0 -76 -24 -141.5t-76 -106t-137 -40.5zM260 45q54 0 83.5 32.5t41.5 85t12 112.5q0 55 -11.5 97t-38 66.5t-72.5 24.5q-40 0 -66 -19t-40.5 -51.5
t-20 -74.5t-5.5 -87q0 -83 28 -134.5t89 -51.5zM161 868h283l-4 -73h-283zM372 587q-22 0 -42 5.5t-47 18.5q-62 29 -71 29q-13 0 -21.5 -7t-24.5 -30l-31 19q18 36 32.5 55.5t29.5 27.5t35 8q11 0 27.5 -5.5t57.5 -22.5q27 -11 46 -17.5t27 -6.5q11 0 20 7.5t25 29.5
l31 -19q-28 -53 -47.5 -72.5t-46.5 -19.5z" />
    <glyph glyph-name="uni0230" unicode="&#x230;" horiz-adv-x="715" 
d="M61 328q0 119 40 205.5t113 134t173 47.5q89 0 153.5 -40.5t100 -115.5t35.5 -177q0 -119 -40 -208t-112 -138.5t-169 -49.5q-89 0 -155.5 42t-102.5 119t-36 181zM156 349q0 -138 57 -218t155 -80q101 0 155.5 82t54.5 231q0 137 -53.5 213t-151.5 76q-103 0 -160 -80
t-57 -224zM328 833q0 29 18 48t47 19t46.5 -18.5t17.5 -47.5t-17.5 -48t-46.5 -19t-47 18.5t-18 47.5zM262 1041h283l-4 -73h-283z" />
    <glyph glyph-name="uni0231" unicode="&#x231;" horiz-adv-x="539" 
d="M254 -14q-99 0 -152.5 68t-53.5 181q0 56 13 107.5t40.5 91.5t72.5 63.5t109 23.5q66 0 112.5 -30.5t71 -86t24.5 -130.5q0 -76 -24 -141.5t-76 -106t-137 -40.5zM260 45q54 0 83.5 32.5t41.5 85t12 112.5q0 55 -11.5 97t-38 66.5t-72.5 24.5q-40 0 -66 -19t-40.5 -51.5
t-20 -74.5t-5.5 -87q0 -83 28 -134.5t89 -51.5zM227 666q0 29 18 48t47 19t46.5 -18.5t17.5 -47.5t-17.5 -48t-46.5 -19t-47 18.5t-18 47.5zM163 868h283l-4 -73h-283z" />
    <glyph glyph-name="uni0232" unicode="&#x232;" horiz-adv-x="670" 
d="M366 327h4l173 311l-87 18l6 44h237l-7 -48l-80 -17l-218 -374l-8 -202l95 -13l-6 -46h-265l6 46l82 13l11 200l-204 379l-77 15l7 47h258l-6 -47l-83 -13zM241 868h283l-4 -73h-283z" />
    <glyph glyph-name="uni0233" unicode="&#x233;" horiz-adv-x="529" 
d="M298 -57q-20 -46 -42 -85.5t-55 -63t-86 -23.5q-39 0 -65.5 19t-26.5 51q0 26 17 46t47 24l15 -28q15 -27 24 -35t24 -8q24 0 39.5 20.5t37.5 70.5l30 69h-9q-32 0 -52 14.5t-38 44.5q-25 42 -40.5 120t-15.5 174q0 17 0.5 38.5t0.5 37.5t-5.5 22t-16.5 6t-31.5 -6
t-32.5 -12l-17 49q17 9 50.5 21t67.5 12q40 0 56 -23t16 -63q0 -17 -1 -34.5t-1 -40.5q0 -88 9.5 -149.5t28.5 -102.5q12 -25 21.5 -33t23.5 -8h16l113 271q16 38 13 57t-28 28l-35 13q-5 37 12.5 61t54.5 24t55.5 -24t18.5 -60q0 -20 -6.5 -46.5t-21.5 -66t-41 -98.5z
M140 708h283l-4 -73h-283z" />
    <glyph glyph-name="uni0237" unicode="&#x237;" horiz-adv-x="289" 
d="M191 122q-2 -63 -14 -123t-30.5 -108.5t-40.5 -74.5q-37 -45 -81 -45q-31 0 -49 13.5t-18 36.5q0 32 24 65l41 -17q29 -12 48 1.5t23 47.5q2 20 4 45.5t3 59.5l16 393q1 23 -4.5 32t-20.5 9q-12 0 -28 -4t-35 -12l-16 45q26 16 58.5 25.5t57.5 9.5q41 0 58 -27.5
t15 -85.5z" />
    <glyph glyph-name="uni0251" unicode="&#x251;" horiz-adv-x="575" 
d="M466 90q-1 -25 4.5 -34t20.5 -9q10 0 22.5 6.5t26.5 18.5l25 -38q-16 -16 -47 -32t-62 -16q-77 0 -68 100l17 188l-7 1l-22 -82q-18 -67 -40 -113t-53.5 -70t-79.5 -24q-53 0 -87.5 28t-51 76.5t-16.5 110.5q0 95 30 167t82 112.5t118 40.5q35 0 65.5 -8t48.5 -17l70 23
l17 -8zM216 54q23 0 40.5 10t32.5 38t32.5 79.5t40.5 135.5l33 119q-19 10 -50 17t-58 7q-44 0 -77.5 -32.5t-52 -90t-18.5 -132.5q0 -79 18.5 -115t58.5 -36z" />
    <glyph glyph-name="uni0259" unicode="&#x259;" horiz-adv-x="474" 
d="M187 -14q-70 0 -107.5 33t-37.5 94q0 62 43 103.5t140 64.5l111 27q-6 65 -40 106t-87 41q-30 0 -61.5 -15t-68.5 -50l-34 37q23 29 53 50t64 32.5t67 11.5q91 0 144.5 -64.5t53.5 -174.5q0 -87 -30.5 -154t-84.5 -104.5t-125 -37.5zM194 42q62 0 99.5 55t42.5 154
l-101 -26q-57 -15 -80.5 -39.5t-23.5 -69.5q0 -35 16.5 -54.5t46.5 -19.5z" />
    <glyph glyph-name="uni0261" unicode="&#x261;" horiz-adv-x="552" 
d="M405 274l-7 1l-23 -86q-18 -67 -39.5 -111.5t-54 -66.5t-82.5 -22q-53 0 -86.5 29.5t-49 79t-15.5 108.5q0 94 29 164.5t81.5 110.5t122.5 40q30 0 64.5 -6t63.5 -18l38 25l30 -10l-16 -431q-2 -59 -15.5 -114.5t-43.5 -100t-79.5 -70.5t-123.5 -26q-35 0 -70 9
t-58.5 30.5t-23.5 57.5q0 34 19 53.5t45 19.5q16 0 32 -7t25 -19l-9 -29q-10 -34 2.5 -50t53.5 -16q78 0 120 69.5t52 187.5zM215 57q24 0 42 11t34 39t33 79t39 130l33 121q-19 10 -51.5 16.5t-55.5 6.5q-47 0 -81 -32.5t-52 -88.5t-18 -128q0 -73 18 -113.5t59 -40.5z" />
    <glyph glyph-name="uni02B9" unicode="&#x2b9;" horiz-adv-x="213" 
d="M88 580l-33 8l12 159q2 24 13.5 43t39.5 19q14 0 27.5 -9t20.5 -23z" />
    <glyph glyph-name="uni02BA" unicode="&#x2ba;" horiz-adv-x="376" 
d="M88 580l-33 8l12 159q2 24 13.5 43t39.5 19q14 0 27.5 -9t20.5 -23zM251 580l-33 8l12 159q2 24 13.5 43t39.5 19q14 0 27.5 -9t20.5 -23z" />
    <glyph glyph-name="uni02BB" unicode="&#x2bb;" horiz-adv-x="0" 
d="M18 578q-27 0 -45 19t-18 47q0 36 27.5 76t72.5 70l24 -30q-22 -18 -35 -37t-13 -34q0 -14 15 -19l28 -10q8 -19 2 -38t-21.5 -31.5t-36.5 -12.5z" />
    <glyph glyph-name="uni02BC" unicode="&#x2bc;" 
d="M247 578l-24 30q17 14 32.5 33t15.5 38q0 7 -3 11.5t-12 7.5l-28 10q-6 17 -2 36t19 32.5t39 13.5q30 0 46.5 -20t16.5 -46q0 -32 -25 -72.5t-75 -73.5z" />
    <glyph glyph-name="uni02BE" unicode="&#x2be;" 
d="M332 684q0 -40 -28.5 -71t-84.5 -31l3 45q31 0 42.5 18t11.5 38t-9.5 36t-40.5 16l3 46q55 0 79 -26t24 -71z" />
    <glyph glyph-name="uni02BF" unicode="&#x2bf;" 
d="M220 679q0 41 28.5 71.5t84.5 30.5l-3 -45q-31 0 -42.5 -18t-11.5 -38t9.5 -36t40.5 -16l-3 -46q-55 0 -79 26t-24 71z" />
    <glyph glyph-name="circumflex" unicode="&#x2c6;" 
d="M431 605l-25 -25l-126 102l-127 -100l-22 23l108 141q13 17 23.5 24t21.5 7q9 0 15 -1t13 -3z" />
    <glyph glyph-name="caron" unicode="&#x2c7;" 
d="M131 752l25 25l126 -103l127 101l22 -23l-108 -141q-13 -17 -23.5 -24t-21.5 -7q-9 0 -15 1t-13 3z" />
    <glyph glyph-name="uni02C8" unicode="&#x2c8;" 
d="M253 785h62l-9 -207h-62z" />
    <glyph glyph-name="uni02C9" unicode="&#x2c9;" 
d="M142 708h283l-4 -73h-283z" />
    <glyph glyph-name="uni02CA" unicode="&#x2ca;" 
d="M308 746q12 15 21.5 22t23.5 7q22 0 31.5 -17.5t4.5 -52.5l-167 -123l-22 23z" />
    <glyph glyph-name="uni02CB" unicode="&#x2cb;" 
d="M358 605l-25 -25l-134 98q-31 23 -29 50q1 17 16.5 30t46.5 11z" />
    <glyph glyph-name="uni02CC" unicode="&#x2cc;" 
d="M217 -55h62l-8 -194h-62z" />
    <glyph glyph-name="breve" unicode="&#x2d8;" 
d="M167 768q14 -49 37 -75t67 -26q45 0 74.5 28.5t42.5 71.5l38 -10q-5 -39 -24.5 -78.5t-53 -65.5t-82.5 -26q-47 0 -76 24.5t-43.5 63t-19.5 81.5z" />
    <glyph glyph-name="dotaccent" unicode="&#x2d9;" 
d="M214 686q0 29 18 48t47 19t46.5 -18.5t17.5 -47.5t-17.5 -48t-46.5 -19t-47 18.5t-18 47.5z" />
    <glyph glyph-name="ring" unicode="&#x2da;" 
d="M275 582q-52 0 -75 26t-23 71q0 27 12.5 50.5t37 37.5t58.5 14q49 0 72.5 -25t23.5 -69q0 -45 -28.5 -75t-77.5 -30zM278 628q26 0 36.5 17t10.5 39q0 21 -10.5 36.5t-34.5 15.5q-25 0 -36.5 -18t-11.5 -38t10 -36t36 -16z" />
    <glyph glyph-name="ogonek" unicode="&#x2db;" 
d="M317 9q-21 -16 -42.5 -38.5t-36 -47.5t-14.5 -51q0 -16 7.5 -24.5t23.5 -8.5q14 0 29 9.5t28 23.5l28 -28q-19 -29 -51 -51t-73 -22q-30 0 -52.5 18.5t-22.5 55.5q0 34 19 64.5t47.5 56t54.5 43.5h55z" />
    <glyph glyph-name="tilde" unicode="&#x2dc;" 
d="M355 620q-22 0 -42 5.5t-47 18.5q-62 29 -71 29q-13 0 -21.5 -7t-24.5 -30l-31 19q18 36 32.5 55.5t29.5 27.5t35 8q11 0 27.5 -5.5t57.5 -22.5q27 -11 46 -17.5t27 -6.5q11 0 20 7.5t25 29.5l31 -19q-28 -53 -47.5 -72.5t-46.5 -19.5z" />
    <glyph glyph-name="hungarumlaut" unicode="&#x2dd;" 
d="M409 739q11 17 20 23t22 6q20 0 30.5 -17.5t5.5 -52.5l-148 -116l-22 23zM256 742q11 17 20 23t22 6q22 0 31.5 -17.5t4.5 -52.5l-142 -119l-22 23z" />
    <glyph glyph-name="gravecomb" unicode="&#x300;" horiz-adv-x="0" 
d="M110 605l-25 -25l-134 98q-31 23 -29 50q1 17 16.5 30t46.5 11z" />
    <glyph glyph-name="acutecomb" unicode="&#x301;" horiz-adv-x="0" 
d="M60 746q12 15 21.5 22t23.5 7q22 0 31.5 -17.5t4.5 -52.5l-167 -123l-22 23z" />
    <glyph glyph-name="uni0302" unicode="&#x302;" horiz-adv-x="0" 
d="M181 605l-25 -25l-126 102l-127 -100l-22 23l108 141q13 17 23.5 24t21.5 7q9 0 15 -1t13 -3z" />
    <glyph glyph-name="tildecomb" unicode="&#x303;" horiz-adv-x="0" 
d="M105 620q-22 0 -42 5.5t-47 18.5q-62 29 -71 29q-13 0 -21.5 -7t-24.5 -30l-31 19q18 36 32.5 55.5t29.5 27.5t35 8q11 0 27.5 -5.5t57.5 -22.5q27 -11 46 -17.5t27 -6.5q11 0 20 7.5t25 29.5l31 -19q-28 -53 -47.5 -72.5t-46.5 -19.5z" />
    <glyph glyph-name="uni0304" unicode="&#x304;" horiz-adv-x="0" 
d="M-106 708h283l-4 -73h-283z" />
    <glyph glyph-name="uni0306" unicode="&#x306;" horiz-adv-x="0" 
d="M-75 768q14 -49 37 -75t67 -26q45 0 74.5 28.5t42.5 71.5l38 -10q-5 -39 -24.5 -78.5t-53 -65.5t-82.5 -26q-47 0 -76 24.5t-43.5 63t-19.5 81.5z" />
    <glyph glyph-name="uni0307" unicode="&#x307;" horiz-adv-x="0" 
d="M-35 686q0 29 18 48t47 19t46.5 -18.5t17.5 -47.5t-17.5 -48t-46.5 -19t-47 18.5t-18 47.5z" />
    <glyph glyph-name="uni0308" unicode="&#x308;" horiz-adv-x="0" 
d="M-128 680q0 27 18.5 46t45.5 19q29 0 44.5 -16.5t15.5 -43.5q0 -28 -18 -46.5t-47 -18.5q-27 0 -43 16.5t-16 43.5zM70 680q0 27 18.5 46t46.5 19t43.5 -16.5t15.5 -43.5q0 -28 -18 -46.5t-46 -18.5t-44 16.5t-16 43.5z" />
    <glyph glyph-name="hookabovecomb" unicode="&#x309;" horiz-adv-x="0" 
d="M25 765q-21 0 -32.5 -4.5t-11.5 -15.5q0 -3 3 -6l12 -11q2 -16 -9.5 -27.5t-30.5 -11.5q-22 0 -31.5 13.5t-9.5 24.5q0 35 34.5 58t86.5 23q48 0 80 -19.5t32 -56.5q0 -24 -13.5 -43.5t-31.5 -35.5t-31.5 -30t-14.5 -26l-1 -22h-63l2 38q1 22 13 37.5t27.5 28t27 25
t11.5 28.5q0 12 -10.5 22.5t-38.5 10.5z" />
    <glyph glyph-name="uni030A" unicode="&#x30a;" horiz-adv-x="0" 
d="M15 582q-52 0 -75 26t-23 71q0 27 12.5 50.5t37 37.5t58.5 14q49 0 72.5 -25t23.5 -69q0 -45 -28.5 -75t-77.5 -30zM18 628q26 0 36.5 17t10.5 39q0 21 -10.5 36.5t-34.5 15.5q-25 0 -36.5 -18t-11.5 -38t10 -36t36 -16z" />
    <glyph glyph-name="uni030B" unicode="&#x30b;" horiz-adv-x="0" 
d="M160 739q11 17 20 23t22 6q20 0 30.5 -17.5t5.5 -52.5l-148 -116l-22 23zM7 742q11 17 20 23t22 6q22 0 31.5 -17.5t4.5 -52.5l-142 -119l-22 23z" />
    <glyph glyph-name="uni030C" unicode="&#x30c;" horiz-adv-x="0" 
d="M-118 752l25 25l126 -103l127 101l22 -23l-108 -141q-13 -17 -23.5 -24t-21.5 -7q-9 0 -15 1t-13 3z" />
    <glyph glyph-name="uni030F" unicode="&#x30f;" horiz-adv-x="0" 
d="M-47 581l-114 88q-14 11 -23 25.5t-9 29.5q0 18 11.5 31t33.5 13q11 0 20 -6.5t19 -22.5l87 -133zM94 581l-106 92q-14 12 -21.5 25t-7.5 26q0 20 11.5 33.5t33.5 13.5q11 0 19 -6t18 -23l78 -136z" />
    <glyph glyph-name="uni0311" unicode="&#x311;" horiz-adv-x="0" 
d="M23 758q48 0 77.5 -24.5t44 -63t17.5 -81.5l-41 -12q-12 50 -37.5 75.5t-69.5 25.5q-45 0 -72.5 -28.5t-41.5 -71.5l-37 10q5 40 24.5 79t53.5 65t82 26z" />
    <glyph glyph-name="uni0312" unicode="&#x312;" horiz-adv-x="0" 
d="M17 578q-29 0 -46 20.5t-17 45.5q0 32 25.5 72.5t74.5 73.5l24 -30q-17 -13 -32.5 -32.5t-15.5 -38.5q0 -7 3 -11.5t12 -7.5l28 -10q7 -16 2.5 -35.5t-19 -33t-39.5 -13.5z" />
    <glyph glyph-name="uni031B" unicode="&#x31b;" horiz-adv-x="0" 
d="M-89 417q22 9 46 25t41 39t17 51q0 22 -21 25l-32 5q-5 8 -7.5 16.5t-2.5 18.5q0 26 17 45t49 19t50.5 -21.5t18.5 -55.5q0 -43 -21 -87.5t-60.5 -79.5t-96.5 -52z" />
    <glyph glyph-name="dotbelowcomb" unicode="&#x323;" horiz-adv-x="0" 
d="M-84 -141q0 29 18 48t47 19t46.5 -18.5t17.5 -47.5t-17.5 -48t-46.5 -19t-47 18.5t-18 47.5z" />
    <glyph glyph-name="uni0324" unicode="&#x324;" horiz-adv-x="0" 
d="M-181 -130q0 27 18.5 46t45.5 19q29 0 44.5 -16.5t15.5 -43.5q0 -28 -18 -46.5t-47 -18.5q-27 0 -43 16.5t-16 43.5zM17 -130q0 27 18.5 46t46.5 19t43.5 -16.5t15.5 -43.5q0 -28 -18 -46.5t-46 -18.5t-44 16.5t-16 43.5z" />
    <glyph glyph-name="uni0326" unicode="&#x326;" horiz-adv-x="0" 
d="M-57 -268l-24 30q17 14 32.5 33t15.5 38q0 7 -3 11.5t-12 7.5l-28 10q-6 17 -2 36t19 32.5t39 13.5q29 0 46 -20t17 -46q0 -32 -25 -72.5t-75 -73.5z" />
    <glyph glyph-name="uni0327" unicode="&#x327;" horiz-adv-x="0" 
d="M20 13l-21 -65q28 -1 50.5 -8.5t35.5 -24.5t13 -45q0 -45 -34 -72t-84 -27q-21 0 -43.5 5t-38.5 12l15 46q8 -3 25 -7t32 -4q23 0 37.5 10t14.5 32q0 19 -11 27.5t-26.5 10.5t-30.5 0l-8 21l28 89h46z" />
    <glyph glyph-name="uni0328" unicode="&#x328;" horiz-adv-x="0" 
d="M67 9q-21 -16 -42.5 -38.5t-36 -47.5t-14.5 -51q0 -16 7.5 -24.5t23.5 -8.5q14 0 29 9.5t28 23.5l28 -28q-19 -29 -51 -51t-73 -22q-30 0 -52.5 18.5t-22.5 55.5q0 34 19 64.5t47.5 56t54.5 43.5h55z" />
    <glyph glyph-name="uni032E" unicode="&#x32e;" horiz-adv-x="0" 
d="M-123 -57q12 -46 37.5 -67.5t71.5 -21.5q47 0 72 23.5t36 63.5l39 -8q-5 -38 -22.5 -74.5t-50 -59.5t-82.5 -23q-48 0 -78 22t-45 57.5t-18 76.5z" />
    <glyph glyph-name="uni0331" unicode="&#x331;" horiz-adv-x="0" 
d="M-159 -99h283l-4 -73h-283z" />
    <glyph glyph-name="uni0374" unicode="&#x374;" horiz-adv-x="358" 
d="M121 719q8 20 19.5 31.5t31.5 11.5q26 0 38.5 -14.5t21.5 -36.5l-1 -14l-150 -179l-34 18z" />
    <glyph glyph-name="uni0375" unicode="&#x375;" 
d="M273 -142q-8 -20 -19.5 -31.5t-31.5 -11.5q-25 0 -38 14.5t-22 36.5l1 14l150 179l34 -18z" />
    <glyph glyph-name="uni037A" unicode="&#x37a;" 
d="M248 -44l9 -4q-2 -10 -3.5 -22t-3 -25t-3.5 -28q-4 -45 45 -45q7 0 17 1.5t21 3.5l4 -36q-16 -13 -38 -21.5t-45 -8.5q-28 0 -47.5 8t-28.5 28.5t-6 56.5q1 11 1.5 31.5t1 37l0.5 16.5z" />
    <glyph glyph-name="uni037E" unicode="&#x37e;" horiz-adv-x="328" 
d="M102 441q0 34 22 56t58 22q35 0 56 -19t21 -50q0 -36 -23.5 -56t-58.5 -20q-33 0 -54 17.5t-21 49.5zM100 -168l-28 37q37 28 59.5 56.5t22.5 47.5q0 20 -22 28l-38 13q-11 28 -5.5 52.5t24 39.5t46.5 15q35 0 56.5 -24.5t21.5 -65.5q0 -33 -17 -68.5t-47.5 -69
t-72.5 -61.5z" />
    <glyph glyph-name="tonos" unicode="&#x384;" horiz-adv-x="365" 
d="M164 754q10 22 20.5 32.5t30.5 10.5q26 0 38.5 -14.5t21.5 -36.5l-1 -14l-150 -159l-34 18z" />
    <glyph glyph-name="dieresistonos" unicode="&#x385;" horiz-adv-x="615" 
d="M282 759q8 22 18 34.5t33 12.5q22 0 36.5 -12t24.5 -33v-14l-132 -173l-37 15zM88 680q0 27 18.5 46t45.5 19q29 0 44.5 -16.5t15.5 -43.5q0 -28 -18 -46.5t-47 -18.5q-27 0 -43 16.5t-16 43.5zM404 680q0 27 18.5 46t46.5 19t43.5 -16.5t15.5 -43.5q0 -28 -18 -46.5
t-46 -18.5t-44 16.5t-16 43.5z" />
    <glyph glyph-name="Alphatonos" unicode="&#x386;" horiz-adv-x="691" 
d="M421 706l182 -649l85 -11l-6 -46h-266l6 46l81 12l-46 173h-240l-60 -173l91 -12l-6 -46h-234l6 46l79 12l229 637zM237 288h205l-87 331h-3zM82 672q10 22 20.5 32.5t30.5 10.5q26 0 38.5 -14.5t21.5 -36.5l-1 -14l-150 -159l-34 18z" />
    <glyph glyph-name="anoteleia" unicode="&#x387;" horiz-adv-x="319" 
d="M95 443q0 34 22 56t58 22q35 0 56 -19t21 -50q0 -36 -23.5 -56t-58.5 -20q-33 0 -54 17.5t-21 49.5z" />
    <glyph glyph-name="Epsilontonos" unicode="&#x388;" horiz-adv-x="600" 
d="M168 637l-86 17l6 46h454l14 -168l-55 -9l-11 36q-10 35 -21.5 53t-28.5 24.5t-46 6.5h-139l-10 -252h249l-5 -63h-247l-11 -270h157q44 0 65 17.5t38 67.5l14 41h55l-24 -184h-479l6 46l82 13zM-110 672q10 22 20.5 32.5t30.5 10.5q26 0 38.5 -14.5t21.5 -36.5l-1 -14
l-150 -159l-34 18z" />
    <glyph glyph-name="Etatonos" unicode="&#x389;" horiz-adv-x="769" 
d="M557 328h-314l-10 -269l95 -13l-6 -46h-265l6 46l82 13l23 578l-86 17l6 46h258l-6 -46l-85 -17l-10 -246h314l11 246l-86 17l6 46h257l-6 -46l-85 -17l-22 -578l95 -13l-6 -46h-265l6 46l82 13zM-110 672q10 22 20.5 32.5t30.5 10.5q26 0 38.5 -14.5t21.5 -36.5l-1 -14
l-150 -159l-34 18z" />
    <glyph glyph-name="Iotatonos" unicode="&#x38a;" horiz-adv-x="367" 
d="M168 637l-86 17l6 46h256l-6 -46l-85 -17l-22 -578l95 -13l-6 -46h-265l6 46l82 13zM-110 672q10 22 20.5 32.5t30.5 10.5q26 0 38.5 -14.5t21.5 -36.5l-1 -14l-150 -159l-34 18z" />
    <glyph glyph-name="Omicrontonos" unicode="&#x38c;" horiz-adv-x="715" 
d="M61 328q0 119 40 205.5t113 134t173 47.5q89 0 153.5 -40.5t100 -115.5t35.5 -177q0 -119 -40 -208t-112 -138.5t-169 -49.5q-89 0 -155.5 42t-102.5 119t-36 181zM156 349q0 -138 57 -218t155 -80q101 0 155.5 82t54.5 231q0 137 -53.5 213t-151.5 76q-103 0 -160 -80
t-57 -224zM-18 672q10 22 20.5 32.5t30.5 10.5q26 0 38.5 -14.5t21.5 -36.5l-1 -14l-150 -159l-34 18z" />
    <glyph glyph-name="Upsilontonos" unicode="&#x38e;" horiz-adv-x="661" 
d="M366 327h4l173 311l-87 18l6 44h237l-7 -48l-80 -17l-218 -374l-8 -202l95 -13l-6 -46h-265l6 46l82 13l11 200l-204 379l-77 15l7 47h258l-6 -47l-83 -13zM-116 672q10 22 20.5 32.5t30.5 10.5q26 0 38.5 -14.5t21.5 -36.5l-1 -14l-150 -159l-34 18z" />
    <glyph glyph-name="Omegatonos" unicode="&#x38f;" horiz-adv-x="738" 
d="M441 156q68 20 109 91t41 192q0 66 -22 114.5t-65.5 75.5t-108.5 27q-59 0 -106.5 -25t-75 -82t-27.5 -152q0 -63 20 -114.5t56 -85t83 -44.5l-8 -153h-262l-18 194h55l14 -51q14 -49 34 -67t66 -18h53l2 41q-63 20 -104 62.5t-61.5 99.5t-20.5 118q0 92 26 156t70 103.5
t100.5 58t117.5 18.5q83 0 145 -32t97 -91.5t35 -141.5q0 -62 -13.5 -115.5t-38 -97t-58.5 -74.5t-75 -49l-2 -56h26q46 0 66.5 18t36.5 67l16 51h55l-26 -194h-240zM28 672q10 22 20.5 32.5t30.5 10.5q26 0 38.5 -14.5t21.5 -36.5l-1 -14l-150 -159l-34 18z" />
    <glyph glyph-name="iotadieresistonos" unicode="&#x390;" horiz-adv-x="282" 
d="M173 516l11 -5q-8 -51 -16.5 -106t-15.5 -108.5t-11 -99t-4 -77.5q0 -28 9.5 -48t45.5 -20q18 0 30.5 3.5t28.5 12.5l21 -39q-21 -16 -45.5 -29.5t-65.5 -13.5q-43 0 -64.5 16.5t-29 41t-7.5 47.5q0 24 3 85.5t8 147.5t9 184zM174 759q8 22 18 34.5t33 12.5
q22 0 36.5 -12t24.5 -33v-14l-132 -173l-37 15zM-20 680q0 27 18.5 46t45.5 19q29 0 44.5 -16.5t15.5 -43.5q0 -28 -18 -46.5t-47 -18.5q-27 0 -43 16.5t-16 43.5zM296 680q0 27 18.5 46t46.5 19t43.5 -16.5t15.5 -43.5q0 -28 -18 -46.5t-46 -18.5t-44 16.5t-16 43.5z" />
    <glyph glyph-name="Alpha" unicode="&#x391;" horiz-adv-x="691" 
d="M421 706l182 -649l85 -11l-6 -46h-266l6 46l81 12l-46 173h-240l-60 -173l91 -12l-6 -46h-234l6 46l79 12l229 637zM237 288h205l-87 331h-3z" />
    <glyph glyph-name="Beta" unicode="&#x392;" horiz-adv-x="615" 
d="M562 549q0 -55 -40 -102t-109 -73v-5q177 -24 177 -164q0 -97 -81 -151t-225 -54h-234l5 44l89 16l25 577l-87 17l6 46h227q125 0 186 -37t61 -114zM290 378q175 27 175 159q0 57 -38 83t-121 26h-51l-23 -592h64q197 0 197 154q0 126 -145 126q-17 0 -29.5 -1t-30.5 -5z
" />
    <glyph glyph-name="Gamma" unicode="&#x393;" horiz-adv-x="551" 
d="M229 58l129 -12l-6 -46h-295l6 46l82 13l23 578l-86 17l6 46h444l14 -167l-54 -10l-13 39q-16 49 -35 65t-60 16h-129z" />
    <glyph glyph-name="uni0394" unicode="&#x394;" horiz-adv-x="568" 
d="M18 0v46l243 649l99 11l195 -660l-6 -46h-531zM86 58h366l-158 561h-3z" />
    <glyph glyph-name="Epsilon" unicode="&#x395;" horiz-adv-x="600" 
d="M168 637l-86 17l6 46h454l14 -168l-55 -9l-11 36q-10 35 -21.5 53t-28.5 24.5t-46 6.5h-139l-10 -252h249l-5 -63h-247l-11 -270h157q44 0 65 17.5t38 67.5l14 41h55l-24 -184h-479l6 46l82 13z" />
    <glyph glyph-name="Zeta" unicode="&#x396;" horiz-adv-x="611" 
d="M579 650l-413 -595h210q40 0 64 8.5t38.5 30t25.5 60.5l13 45h55l-26 -199h-491l2 48l415 599h-206q-36 0 -56 -6.5t-32 -25t-23 -55.5l-14 -46l-57 10l25 176h464z" />
    <glyph glyph-name="Eta" unicode="&#x397;" horiz-adv-x="769" 
d="M557 328h-314l-10 -269l95 -13l-6 -46h-265l6 46l82 13l23 578l-86 17l6 46h258l-6 -46l-85 -17l-10 -246h314l11 246l-86 17l6 46h257l-6 -46l-85 -17l-22 -578l95 -13l-6 -46h-265l6 46l82 13z" />
    <glyph glyph-name="Theta" unicode="&#x398;" horiz-adv-x="715" 
d="M242 328l5 63h247l-5 -63h-247zM61 328q0 119 40 205.5t113 134t173 47.5q89 0 153.5 -40.5t100 -115.5t35.5 -177q0 -119 -40 -208t-112 -138.5t-169 -49.5q-89 0 -155.5 42t-102.5 119t-36 181zM156 349q0 -138 57 -218t155 -80q101 0 155.5 82t54.5 231
q0 137 -53.5 213t-151.5 76q-103 0 -160 -80t-57 -224z" />
    <glyph glyph-name="Iota" unicode="&#x399;" horiz-adv-x="366" 
d="M168 637l-86 17l6 46h256l-6 -46l-85 -17l-22 -578l95 -13l-6 -46h-265l6 46l82 13z" />
    <glyph glyph-name="Kappa" unicode="&#x39a;" horiz-adv-x="695" 
d="M580 -14q-44 0 -72 16t-49.5 60t-47.5 129q-15 51 -34 82.5t-45 48t-63 20.5l2 31l254 266l-82 13l9 48h238l-7 -47l-78 -15l-249 -250v-6q41 -17 67.5 -38t44.5 -53t33 -83q21 -68 36 -103.5t31 -47.5t39 -12t59 18l20 -35q-20 -19 -48.5 -30.5t-57.5 -11.5zM55 0l6 46
l82 13l25 578l-86 17l6 46h256l-6 -46l-85 -17l-22 -578l95 -13l-6 -46h-265z" />
    <glyph glyph-name="Lambda" unicode="&#x39b;" horiz-adv-x="671" 
d="M8 0l6 46l79 12l219 637l99 11l172 -649l85 -11l-6 -46h-266l6 46l81 12l-138 561h-3l-185 -561l91 -12l-6 -46h-234z" />
    <glyph glyph-name="Mu" unicode="&#x39c;" horiz-adv-x="932" 
d="M717 622l-201 -616l-97 -17l-184 623l-38 -552l89 -14l-6 -46h-238l6 46l83 14l40 577l-85 17l6 46h211l176 -614l201 614h207l-6 -48l-79 -15l20 -578l95 -13l-6 -46h-265l6 46l82 13z" />
    <glyph glyph-name="Nu" unicode="&#x39d;" horiz-adv-x="743" 
d="M561 119l18 518l-85 17l6 46h237l-6 -46l-85 -17l-25 -637l-92 -11l-304 630l-20 -560l94 -13l-6 -46h-243l6 46l81 13l24 582l-79 11l6 48h197z" />
    <glyph glyph-name="Xi" unicode="&#x39e;" horiz-adv-x="597" 
d="M32 184h54l7 -41q8 -49 24 -67t62 -18h206q46 0 66.5 18t36.5 67l14 41h55l-24 -184h-508zM244 643q-31 0 -49.5 -8t-31.5 -26.5t-29 -49.5l-18 -36l-51 9l40 168h444l14 -168l-55 -9l-11 36q-9 32 -19.5 50t-27.5 26t-49 8h-157zM115 328l5 63h371l-5 -63h-371z" />
    <glyph glyph-name="Omicron" unicode="&#x39f;" horiz-adv-x="715" 
d="M61 328q0 119 40 205.5t113 134t173 47.5q89 0 153.5 -40.5t100 -115.5t35.5 -177q0 -119 -40 -208t-112 -138.5t-169 -49.5q-89 0 -155.5 42t-102.5 119t-36 181zM156 349q0 -138 57 -218t155 -80q101 0 155.5 82t54.5 231q0 137 -53.5 213t-151.5 76q-103 0 -160 -80
t-57 -224z" />
    <glyph glyph-name="Pi" unicode="&#x3a0;" horiz-adv-x="759" 
d="M560 637h-305l-22 -578l95 -13l-6 -46h-265l6 46l82 13l23 578l-86 17l6 46h649l-6 -46l-85 -17l-22 -578l95 -13l-6 -46h-265l6 46l82 13z" />
    <glyph glyph-name="Rho" unicode="&#x3a1;" horiz-adv-x="584" 
d="M287 339q10 -1 16.5 -1h14.5q78 0 116 43t38 122q0 53 -21 84t-58 45t-87 14h-51l-23 -587l128 -14l-4 -45h-306l5 44l89 16l25 577l-87 17l6 46h227q75 0 132.5 -19.5t89.5 -63t32 -115.5q0 -63 -30 -112.5t-85.5 -77.5t-131.5 -28q-9 0 -18.5 1t-19.5 2z" />
    <glyph glyph-name="Sigma" unicode="&#x3a3;" horiz-adv-x="613" 
d="M360 359l-198 -284h240q34 0 53 6t30.5 23.5t20.5 49.5l13 45h55l-26 -199h-491l2 48l208 299l-178 303l8 50h472l-11 -176l-59 -10l-4 46q-3 37 -11 55.5t-27 25t-55 6.5h-206l164 -278v-10z" />
    <glyph glyph-name="Tau" unicode="&#x3a4;" horiz-adv-x="621" 
d="M165 46l105 13l25 584h-88q-30 0 -47.5 -6t-28.5 -23.5t-22 -51.5l-13 -39l-56 11l24 166h553l14 -167l-54 -10l-13 39q-11 33 -22.5 50.5t-28 24t-44.5 6.5h-89l-26 -585l109 -12l-6 -46h-298z" />
    <glyph glyph-name="Upsilon" unicode="&#x3a5;" horiz-adv-x="670" 
d="M366 327h4l173 311l-87 18l6 44h237l-7 -48l-80 -17l-218 -374l-8 -202l95 -13l-6 -46h-265l6 46l82 13l11 200l-204 379l-77 15l7 47h258l-6 -47l-83 -13z" />
    <glyph glyph-name="Phi" unicode="&#x3a6;" horiz-adv-x="747" 
d="M330 71q-96 6 -160 39.5t-96.5 90t-32.5 131.5q0 70 22 123.5t63 91t98.5 58.5t129.5 25l2 37l-86 17l6 46h255l-5 -46l-85 -17l-2 -37q103 -7 166.5 -43t93 -93t29.5 -129q0 -70 -22.5 -123t-64 -89.5t-98.5 -57t-125 -25.5l-2 -41l95 -13l-6 -46h-265l6 46l82 13z
M352 577q-103 -2 -159 -56t-56 -176q0 -61 17 -101.5t45 -65t62.5 -36t70.5 -15.5zM632 355q0 105 -51.5 156.5t-143.5 61.5l-17 -450q115 3 163.5 64.5t48.5 167.5z" />
    <glyph glyph-name="Chi" unicode="&#x3a7;" horiz-adv-x="693" 
d="M172 61l81 -17l-6 -44h-232l7 48l77 16l203 280l-189 295l-70 14l7 47h256l-6 -47l-76 -12l137 -228l156 225l-82 18l6 44h232l-7 -48l-78 -17l-193 -268l196 -305l86 -15l-7 -47h-264l6 47l74 12l-149 238z" />
    <glyph glyph-name="Psi" unicode="&#x3a8;" horiz-adv-x="852" 
d="M387 191q-43 1 -88 10.5t-82 32.5t-59 64t-19 105l9 236l-76 15l6 46h148l-11 -289q-2 -63 22.5 -95t65.5 -42.5t87 -10.5l16 374l-86 17l6 46h256l-6 -46l-85 -17l-14 -374q32 0 63 5.5t57.5 20t43 43t18.5 74.5l11 294h154l-6 -46l-75 -15l-8 -241q-2 -60 -26 -100.5
t-62.5 -63.5t-83.5 -33t-89 -10l-5 -132l95 -13l-6 -46h-265l6 46l82 13z" />
    <glyph glyph-name="uni03A9" unicode="&#x3a9;" horiz-adv-x="738" 
d="M441 156q68 20 109 91t41 192q0 66 -22 114.5t-65.5 75.5t-108.5 27q-59 0 -106.5 -25t-75 -82t-27.5 -152q0 -63 20 -114.5t56 -85t83 -44.5l-8 -153h-262l-18 194h55l14 -51q14 -49 34 -67t66 -18h53l2 41q-63 20 -104 62.5t-61.5 99.5t-20.5 118q0 92 26 156t70 103.5
t100.5 58t117.5 18.5q83 0 145 -32t97 -91.5t35 -141.5q0 -62 -13.5 -115.5t-38 -97t-58.5 -74.5t-75 -49l-2 -56h26q46 0 66.5 18t36.5 67l16 51h55l-26 -194h-240z" />
    <glyph glyph-name="Iotadieresis" unicode="&#x3aa;" horiz-adv-x="366" 
d="M168 637l-86 17l6 46h256l-6 -46l-85 -17l-22 -578l95 -13l-6 -46h-265l6 46l82 13zM57 831q0 27 18.5 46t45.5 19q29 0 44.5 -16.5t15.5 -43.5q0 -28 -18 -46.5t-47 -18.5q-27 0 -43 16.5t-16 43.5zM255 831q0 27 18.5 46t46.5 19t43.5 -16.5t15.5 -43.5
q0 -28 -18 -46.5t-46 -18.5t-44 16.5t-16 43.5z" />
    <glyph glyph-name="Upsilondieresis" unicode="&#x3ab;" horiz-adv-x="670" 
d="M366 327h4l173 311l-87 18l6 44h237l-7 -48l-80 -17l-218 -374l-8 -202l95 -13l-6 -46h-265l6 46l82 13l11 200l-204 379l-77 15l7 47h258l-6 -47l-83 -13zM218 831q0 27 18.5 46t45.5 19q29 0 44.5 -16.5t15.5 -43.5q0 -28 -18 -46.5t-47 -18.5q-27 0 -43 16.5t-16 43.5
zM416 831q0 27 18.5 46t46.5 19t43.5 -16.5t15.5 -43.5q0 -28 -18 -46.5t-46 -18.5t-44 16.5t-16 43.5z" />
    <glyph glyph-name="alphatonos" unicode="&#x3ac;" horiz-adv-x="617" 
d="M223 -14q-62 0 -100.5 35t-56.5 91.5t-18 120.5q0 55 12.5 106.5t38 92.5t65 65t92.5 24q37 0 73 -13.5t62.5 -52t33.5 -115.5h1q13 42 25 87t21 81l78 8l11 -5q-17 -52 -37.5 -106t-42 -103t-41.5 -88l3 -32q7 -76 22 -103t46 -27q7 0 23.5 5.5t31.5 14.5l21 -39
q-19 -14 -48.5 -30.5t-61.5 -16.5q-34 0 -54 19t-28.5 51t-9.5 69h-1q-26 -62 -61.5 -100.5t-99.5 -38.5zM234 45q39 0 72.5 44.5t67.5 138.5l-2 33q-6 105 -35 153.5t-78 48.5q-35 0 -57.5 -20t-35.5 -53t-18.5 -73.5t-5.5 -82.5q0 -107 24.5 -148t67.5 -41zM336 754
q10 22 20.5 32.5t30.5 10.5q26 0 38.5 -14.5t21.5 -36.5l-1 -14l-150 -159l-34 18z" />
    <glyph glyph-name="epsilontonos" unicode="&#x3ad;" horiz-adv-x="520" 
d="M257 -14q-99 0 -154 37.5t-55 104.5q0 46 30.5 80t85.5 49v2q-48 17 -69.5 43.5t-21.5 69.5q0 44 27.5 77.5t76 52.5t110.5 19q91 0 144.5 -34t53.5 -92q0 -29 -16.5 -47t-43.5 -18q-44 0 -63 42q23 24 30 35.5t7 20.5q0 20 -28.5 32t-75.5 12q-60 0 -96 -28.5t-36 -77.5
q0 -32 16 -55t44 -31q14 15 33.5 24.5t36.5 9.5q27 0 43.5 -13t16.5 -35q0 -24 -17 -40.5t-43 -16.5q-38 0 -71 33q-36 -11 -57.5 -39.5t-21.5 -63.5q0 -39 32 -63t83 -24t91 18t81 59l35 -36q-36 -51 -90 -79t-118 -28zM338 754q10 22 20.5 32.5t30.5 10.5q26 0 38.5 -14.5
t21.5 -36.5l-1 -14l-150 -159l-34 18z" />
    <glyph glyph-name="etatonos" unicode="&#x3ae;" horiz-adv-x="568" 
d="M101 460q-8 0 -21.5 -4t-34.5 -20l-23 36q26 23 57 36t56 13q19 0 37 -5t29.5 -19.5t11.5 -43.5q0 -37 -8 -89t-23 -122l2 -1q28 89 59.5 151.5t70.5 95.5t90 33q62 0 80.5 -38t18.5 -110q0 -31 -3 -84.5t-8.5 -120t-12.5 -137.5t-15 -137.5t-17 -118.5l-11 -5l-94 18
q13 43 25.5 102t23.5 125t19.5 131.5t13.5 121.5t5 94q0 49 -13.5 64.5t-36.5 15.5q-27 0 -52.5 -23.5t-48.5 -60.5t-40.5 -78t-28.5 -78t-13 -59q1 -49 0 -84t-14 -54t-49 -19q-15 0 -27.5 3t-14.5 9q0 64 16.5 115t35.5 85q4 37 5.5 67.5t1.5 55.5q0 61 -7.5 90.5
t-18.5 39t-23 9.5zM337 754q10 22 20.5 32.5t30.5 10.5q26 0 38.5 -14.5t21.5 -36.5l-1 -14l-150 -159l-34 18z" />
    <glyph glyph-name="iotatonos" unicode="&#x3af;" horiz-adv-x="282" 
d="M173 516l11 -5q-8 -51 -16.5 -106t-15.5 -108.5t-11 -99t-4 -77.5q0 -28 9.5 -48t45.5 -20q18 0 30.5 3.5t28.5 12.5l21 -39q-21 -16 -45.5 -29.5t-65.5 -13.5q-43 0 -64.5 16.5t-29 41t-7.5 47.5q0 24 3 85.5t8 147.5t9 184zM181 754q10 22 20.5 32.5t30.5 10.5
q26 0 38.5 -14.5t21.5 -36.5l-1 -14l-150 -159l-34 18z" />
    </font>
</defs>
</svg>
