<?xml version="1.0" standalone="no"?>
<!DOCTYPE svg PUBLIC "-//W3C//DTD SVG 1.1//EN" "http://www.w3.org/Graphics/SVG/1.1/DTD/svg11.dtd" >
<svg xmlns="http://www.w3.org/2000/svg" xmlns:xlink="http://www.w3.org/1999/xlink" version="1.1">
<metadata>
Created by FontForge 20170731 at Wed Jun 12 10:54:41 2019
 By Aleksey,,,
Copyright 2017 The Literata Project Authors (https://github.com/googlefonts/literata)
</metadata>
<defs>
<font id="Literata-Regular" horiz-adv-x="500" >
  <font-face 
    font-family="Literata"
    font-weight="400"
    font-stretch="normal"
    units-per-em="1000"
    panose-1="0 0 0 0 0 0 0 0 0 0"
    ascent="800"
    descent="-200"
    x-height="507"
    cap-height="700"
    bbox="-365 -268 1428 1137"
    underline-thickness="50"
    underline-position="-175"
    unicode-range="U+000D-FB02"
  />
<missing-glyph 
d="M50 700h400v-700h-400v700zM110 640v-580h280v580h-280z" />
    <glyph glyph-name="fi" unicode="fi" horiz-adv-x="665" 
d="M41 0v48l57 9q22 4 26.5 16.5t4.5 34.5v336h-80v50l80 10v21q0 93 29.5 149.5t84.5 82t130 25.5q44 0 80 -13.5t58 -37.5t22 -55q0 -25 -15.5 -45.5t-44.5 -20.5q-19 0 -31 7.5t-18 19t-6 22.5t4.5 20t20.5 29q-17 11 -36 16.5t-38 5.5q-44 0 -77.5 -12t-51.5 -44.5
t-18 -94.5v-72h319l12 -5v-397q0 -21 5 -32t27 -15l56 -10v-48h-255v46l43 8q22 4 26.5 14.5t4.5 40.5v273q0 34 -6.5 48t-37.5 14h-194v-343q0 -23 4.5 -31t24.5 -13l54 -10v-47h-264z" />
    <glyph glyph-name="fl" unicode="fl" horiz-adv-x="665" 
d="M41 0v48l57 9q22 4 26.5 16.5t4.5 34.5v338h-80v50l80 10v19q0 93 32 149.5t81.5 82t101.5 25.5q46 0 81 -12.5t57 -32.5l60 29l11 -11v-650q0 -21 5 -32t27 -15l56 -10v-48h-255v46l43 8q22 4 26.5 14.5t4.5 40.5v476q0 48 -14 80t-39.5 48.5t-61.5 16.5
q-32 0 -60.5 -12t-45.5 -44.5t-17 -94.5v-72h161v-61h-161v-345q0 -23 4.5 -31t24.5 -13l54 -10v-47h-264z" />
    <glyph glyph-name="f_f" unicode="ff" horiz-adv-x="718" 
d="M41 0v48l57 9q22 4 26.5 16.5t4.5 34.5v338h-80v50l80 10v9q0 85 32 138t81.5 78t101.5 25q41 0 78 -14.5t68 -50.5q23 44 61.5 67.5t92.5 23.5q39 0 70.5 -11t50.5 -32.5t19 -52.5q0 -25 -15.5 -45.5t-44.5 -20.5q-19 0 -31 5t-18 14t-6 20t5 22.5t20 36.5q-11 6 -27 9
t-27 3q-44 0 -65.5 -30t-21.5 -101v-92h146v-63h-146v-340q0 -21 5.5 -31.5t26.5 -13.5l87 -11v-48h-286v46l43 8q22 4 26.5 15t4.5 33v344h-238v-345q0 -23 4.5 -31t24.5 -13l54 -10v-47h-264zM222 507h238v52q0 48 -14 80t-39.5 48.5t-61.5 16.5q-32 0 -60.5 -12
t-45.5 -44.5t-17 -94.5v-46z" />
    <glyph glyph-name="f_f_i" unicode="ffi" horiz-adv-x="996" 
d="M916 58l56 -10v-48h-255v46l43 8q22 4 26.5 14.5t4.5 40.5v273q0 34 -6.5 49t-37.5 15h-194v-345q0 -23 4.5 -31t24.5 -13l54 -10v-47h-250v46l43 8q22 4 26.5 15t4.5 33v344h-238v-345q0 -23 4.5 -31t24.5 -13l54 -10v-47h-264v48l57 9q22 4 26.5 16.5t4.5 34.5v338h-80
v50l80 10v9q0 85 32 138t81.5 78t101.5 25q42 0 80.5 -16t71.5 -56q30 52 82 75t118 23q48 0 86 -13.5t60 -37.5t22 -55q0 -25 -15.5 -45.5t-44.5 -20.5q-19 0 -31 7.5t-18 19t-6 22.5t5 20t20 29q-17 11 -37.5 16.5t-48.5 5.5q-38 0 -69 -12t-48.5 -44.5t-17.5 -94.5v-72
h319l12 -5v-397q0 -21 5 -32t27 -15zM222 507h238v52q0 48 -14 80t-39.5 48.5t-61.5 16.5q-32 0 -60.5 -12t-45.5 -44.5t-17 -94.5v-46z" />
    <glyph glyph-name="f_f_l" unicode="ffl" horiz-adv-x="996" 
d="M916 58l56 -10v-48h-255v46l43 8q22 4 26.5 14.5t4.5 40.5v476q0 48 -14 80t-39.5 48.5t-61.5 16.5q-32 0 -60.5 -12t-45.5 -44.5t-17 -94.5v-72h161v-61h-161v-345q0 -23 5 -31.5t24 -12.5l54 -10v-47h-250v46l43 8q20 4 25.5 14t5.5 33v345h-238v-345q0 -23 5 -31.5
t24 -12.5l54 -10v-47h-264v48l57 9q22 4 26.5 16.5t4.5 34.5v338h-80v50l80 10v9q0 85 32 138t81.5 78t101.5 25q43 0 82 -16.5t72 -57.5q31 53 79 76.5t98 23.5q46 0 81 -12.5t57 -32.5l60 29l11 -11v-650q0 -21 5 -32t27 -15zM222 507h238v52q0 48 -14 80t-39.5 48.5
t-61.5 16.5q-32 0 -60.5 -12t-45.5 -44.5t-17 -94.5v-46z" />
    <glyph glyph-name=".notdef" 
d="M50 700h400v-700h-400v700zM110 640v-580h280v580h-280z" />
    <glyph glyph-name=".null" horiz-adv-x="0" 
 />
    <glyph glyph-name="nonmarkingreturn" horiz-adv-x="333" 
 />
    <glyph glyph-name="CR" unicode="&#xd;" horiz-adv-x="0" 
 />
    <glyph glyph-name="space" unicode=" " horiz-adv-x="200" 
 />
    <glyph glyph-name="exclam" unicode="!" horiz-adv-x="321" 
d="M132 193v72q0 59 -5.5 114.5t-13 105.5t-13 91.5t-5.5 72.5q0 30 19 47.5t51 17.5q31 0 47.5 -16.5t16.5 -47.5q0 -28 -6 -67.5t-14.5 -89t-14.5 -107t-6 -122.5v-71h-56zM161 -14q-31 0 -51 19.5t-20 49.5q0 32 20 51.5t51 19.5t50.5 -19.5t19.5 -50.5q0 -30 -19.5 -50
t-50.5 -20z" />
    <glyph glyph-name="quotedbl" unicode="&#x22;" horiz-adv-x="386" 
d="M249 549l-26 158q-1 5 -1.5 10t-0.5 9q0 22 14 39t39 17q14 0 28 -10t14 -27q0 -5 -0.5 -11.5t-2.5 -14.5l-30 -170h-34zM98 549l-26 158q-1 5 -1.5 10t-0.5 9q0 22 14 39t39 17q14 0 28 -10t14 -27q0 -5 -0.5 -11.5t-2.5 -14.5l-30 -170h-34z" />
    <glyph glyph-name="numbersign" unicode="#" horiz-adv-x="674" 
d="M147 0l21 140h-123l11 51h121l27 176h-125l10 52h123l20 131h54l-20 -131h184l19 131h55l-20 -131h125l-9 -52h-123l-27 -176h130l-9 -51h-129l-22 -140h-54l22 140h-185l-22 -140h-54zM231 191h185l27 176h-186z" />
    <glyph glyph-name="dollar" unicode="$" horiz-adv-x="598" 
d="M285 -80v868h51v-868h-51zM316 -14q-51 0 -99.5 18t-80.5 49l-16 -59h-44l-20 216l57 5q30 -82 80.5 -123.5t119.5 -41.5q42 0 71 13.5t44 39.5t15 62q0 55 -35 88t-122 61q-75 24 -120 52t-65 65.5t-20 89.5q0 43 15.5 78.5t43.5 61t67.5 39.5t87.5 14q41 0 80.5 -14
t67.5 -38l13 52h47l22 -202l-56 -8q-23 79 -65 117t-106 38q-54 0 -87 -30t-33 -80q0 -33 14.5 -57t48.5 -43.5t92 -39.5q57 -19 97 -40t64 -45.5t35 -54.5t11 -69q0 -62 -29 -110.5t-79.5 -76t-115.5 -27.5z" />
    <glyph glyph-name="percent" unicode="%" horiz-adv-x="851" 
d="M204 -14l363 611h74l-362 -611h-75zM202 274q-73 0 -114 44t-41 111q0 62 23 99t60 53t77 16q41 0 76 -16.5t56 -50t21 -85.5q0 -56 -21.5 -94t-57 -57.5t-79.5 -19.5zM207 331q35 0 54 25.5t19 78.5q0 51 -21 79t-59 28q-32 0 -53.5 -24.5t-21.5 -77.5q0 -49 22 -79
t60 -30zM646 -14q-73 0 -114 44t-41 111q0 62 23 99t60 53t77 16q41 0 76 -16.5t56 -50t21 -85.5q0 -56 -21.5 -94t-57 -57.5t-79.5 -19.5zM651 43q35 0 54 25.5t19 78.5q0 51 -21 79t-59 28q-32 0 -53.5 -24.5t-21.5 -77.5q0 -49 22 -79t60 -30z" />
    <glyph glyph-name="ampersand" unicode="&#x26;" horiz-adv-x="810" 
d="M289 -14q-51 0 -93.5 13t-74.5 38.5t-49.5 61.5t-17.5 82q0 54 21.5 92.5t57 65.5t77.5 44q-28 29 -55 69t-27 92q0 55 24 92.5t66 57.5t96 20q67 0 108.5 -39.5t41.5 -101.5q0 -61 -35.5 -105.5t-94.5 -73.5l157 -163q18 80 40.5 130t48 77.5t52 38t52.5 10.5
q32 0 54.5 -18.5t22.5 -50.5q0 -24 -13 -42.5t-36 -18.5q-20 0 -32 12.5t-26 49.5q-17 -3 -39.5 -25t-44 -71t-36.5 -135q40 -39 66 -60t44 -28.5t34 -7.5q11 0 28 6.5t49 30.5l20 -34q-32 -45 -60 -66.5t-67 -21.5q-30 0 -65.5 20.5t-84.5 67.5q-17 -29 -45.5 -54t-69 -40
t-94.5 -15zM310 45q53 0 90 24t56 64l-214 216q-34 -19 -60 -54t-26 -97q0 -74 43 -113.5t111 -39.5zM300 426q57 31 78 70.5t21 73.5q0 48 -26.5 68.5t-64.5 20.5q-28 0 -49 -11t-32.5 -31t-11.5 -49q0 -40 24 -73.5t61 -68.5z" />
    <glyph glyph-name="quotesingle" unicode="'" horiz-adv-x="235" 
d="M98 549l-26 158q-1 5 -1.5 10t-0.5 9q0 22 14 39t39 17q14 0 28 -10t14 -27q0 -5 -0.5 -11.5t-2.5 -14.5l-30 -170h-34z" />
    <glyph glyph-name="parenleft" unicode="(" horiz-adv-x="332" 
d="M265 -204q-48 51 -92 128.5t-71.5 174.5t-27.5 207q0 84 17.5 160.5t46 142.5t63 119t69.5 89l36 -20q-40 -66 -71 -145.5t-49 -164.5t-18 -170q0 -92 17 -178.5t47.5 -166.5t69.5 -155z" />
    <glyph glyph-name="parenright" unicode=")" horiz-adv-x="332" 
d="M62 -204l-36 20q40 66 71 145.5t49 165t18 169.5q0 93 -17 179t-47 166t-70 155l37 21q49 -51 92.5 -128.5t71 -174.5t27.5 -207q0 -84 -17.5 -160.5t-46 -142.5t-63 -119t-69.5 -89z" />
    <glyph glyph-name="asterisk" unicode="*" horiz-adv-x="449" 
d="M218 407q-22 0 -29 15t-3 34l22 113l-81 -70q-9 -9 -21.5 -14t-24.5 -1.5t-20 17.5q-13 22 -2.5 35.5t26.5 18.5l109 40l-99 36q-24 8 -33.5 23.5t2.5 37.5q10 19 27.5 17.5t30.5 -12.5l87 -77l-19 104q-4 23 5.5 40.5t34.5 17.5q20 0 28 -13.5t3 -34.5l-23 -115l82 70
q11 10 24 14t25 0t20 -19q11 -19 2 -31.5t-29 -19.5l-110 -39l100 -38q20 -7 31 -24t-1 -39q-10 -19 -26.5 -17t-30.5 15l-87 77l19 -103q4 -20 -4.5 -39t-34.5 -19z" />
    <glyph glyph-name="plus" unicode="+" horiz-adv-x="582" 
d="M254 81v195h-177v63h177v182h67v-182h184v-63h-184v-195h-67z" />
    <glyph glyph-name="comma" unicode="," horiz-adv-x="328" 
d="M115 -168l-29 37q45 35 64.5 66.5t22.5 64.5h-24q-32 0 -47 15t-15 40q0 32 20 53t53 21q44 0 64.5 -29.5t20.5 -68.5q0 -29 -14 -66t-43 -72t-73 -61z" />
    <glyph glyph-name="hyphen" unicode="-" horiz-adv-x="354" 
d="M44 247v82h267v-82h-267z" />
    <glyph glyph-name="period" unicode="." horiz-adv-x="333" 
d="M166 -17q-33 0 -54.5 21t-21.5 54t21.5 54.5t54.5 21.5q34 0 55.5 -21t21.5 -54t-21.5 -54.5t-55.5 -21.5z" />
    <glyph glyph-name="slash" unicode="/" horiz-adv-x="428" 
d="M20 -110l325 912h63l-324 -912h-64z" />
    <glyph glyph-name="zero" unicode="0" horiz-adv-x="578" 
d="M287 -13q-82 0 -139 46t-86 126t-29 180q0 104 22.5 176t60 116t84.5 63.5t96 19.5q67 0 123.5 -38t91 -115.5t34.5 -197.5q0 -123 -34.5 -206.5t-93 -126.5t-130.5 -43zM296 50q70 0 107.5 72t37.5 226q0 155 -40 230.5t-115 75.5q-44 0 -78 -29t-53 -94t-19 -175
q0 -140 41 -223t119 -83z" />
    <glyph glyph-name="one" unicode="1" horiz-adv-x="407" 
d="M39 0v48l90 15q21 4 27 15.5t6 33.5v451q0 32 -6.5 44t-36.5 16l-84 7l6 47l209 35l11 -11v-592q0 -23 6 -32.5t28 -13.5l87 -15v-48h-343z" />
    <glyph glyph-name="two" unicode="2" horiz-adv-x="507" 
d="M38 0l-8 67q79 81 134.5 141.5t91.5 105t56.5 79.5t29 64.5t8.5 60.5q0 59 -32 94.5t-90 35.5q-40 0 -67.5 -12.5t-38.5 -30.5q14 -20 20.5 -34.5t6.5 -21.5q0 -17 -16 -34t-41 -17q-35 0 -51 22t-16 48q0 36 27.5 69.5t76.5 55t113 21.5q62 0 110 -23.5t75.5 -67
t27.5 -104.5q0 -39 -15 -79.5t-50.5 -89.5t-97 -113t-154.5 -148h150q32 0 51.5 3t32 13.5t23 32.5t24.5 59h53l-19 -197h-415z" />
    <glyph glyph-name="three" unicode="3" horiz-adv-x="542" 
d="M251 -13q-54 0 -93 14t-65.5 35t-42.5 43.5t-25 39.5l45 36q16 -21 39 -41.5t56 -34t79 -13.5t76 18.5t45 48.5t15 64q0 70 -45.5 103t-131.5 33l6 54q79 8 117 52.5t38 98.5q0 47 -29.5 78.5t-85.5 31.5q-34 0 -62 -13t-39 -31q14 -20 20.5 -34.5t6.5 -21.5
q0 -17 -16 -34t-41 -17q-35 0 -51 22t-16 48q0 36 25.5 70t72.5 55.5t111 21.5q62 0 107 -20.5t70 -59.5t25 -94q0 -60 -39.5 -105t-96.5 -64v-3q44 -9 80.5 -29t58.5 -55t22 -90q0 -63 -32 -109.5t-85.5 -72t-118.5 -25.5z" />
    <glyph glyph-name="four" unicode="4" horiz-adv-x="551" 
d="M200 0v44l90 15q21 4 27 15.5t6 33.5v63h-304l-9 50l313 474l88 15l11 -9v-462h109v-68h-109v-66q0 -23 6 -33t28 -14l57 -10v-48h-313zM94 239h229v333v10z" />
    <glyph glyph-name="five" unicode="5" horiz-adv-x="508" 
d="M236 -14q-69 0 -127 30.5t-94 101.5l46 36q37 -47 78.5 -68t92.5 -21q65 0 101.5 44t36.5 121q0 60 -34.5 100.5t-100.5 40.5q-40 0 -71 -11t-63 -29l-33 35l34 334h349l-1 -28l-23 -70h-270l-22 -196q31 18 64.5 28t69.5 10q64 0 110 -26.5t71 -73t25 -106.5
q0 -82 -30 -138t-83.5 -85t-125.5 -29z" />
    <glyph glyph-name="six" unicode="6" horiz-adv-x="537" 
d="M268 -13q-86 0 -138 40.5t-74.5 109.5t-22.5 154q0 80 16.5 155t52.5 136t94.5 96.5t141.5 35.5q27 0 56.5 -7t55 -21t41.5 -36t16 -52q0 -27 -17.5 -46.5t-45.5 -19.5q-29 0 -45.5 14t-16.5 29q0 8 6 22.5t18 33.5q-10 10 -30.5 15t-47.5 5q-52 0 -87.5 -27t-57.5 -70
t-33 -92t-14 -94q20 33 62.5 59t102.5 26q58 0 103 -26t70.5 -74.5t25.5 -118.5q0 -82 -30 -137t-82 -82.5t-120 -27.5zM271 41q59 0 95 41.5t36 140.5q0 86 -34.5 124t-92.5 38q-34 0 -66.5 -15.5t-53 -47t-20.5 -81.5q0 -58 12 -103t42 -71t82 -26z" />
    <glyph glyph-name="seven" unicode="7" horiz-adv-x="507" 
d="M173 -11l-13 10q0 39 7 101.5t31 143.5t73 174.5t133 192.5h-207q-43 0 -65.5 -7t-36 -28t-28.5 -65h-52l18 189h451l8 -64q-56 -74 -97 -145.5t-67.5 -147t-39.5 -160t-13 -183.5z" />
    <glyph glyph-name="eight" unicode="8" horiz-adv-x="551" 
d="M267 -13q-67 0 -121.5 20t-86.5 60.5t-32 103.5q0 36 14 73t48.5 69.5t98.5 52.5q-76 38 -104 78t-28 95q0 41 23.5 81.5t71.5 67t122 26.5q103 0 158 -43t55 -108q0 -64 -35.5 -106t-85.5 -68q86 -38 119 -87.5t33 -107.5q0 -68 -36 -114t-93 -69.5t-121 -23.5zM276 45
q64 0 101 33.5t37 96.5t-45 99.5t-133 64.5q-58 -29 -84 -71t-26 -88q0 -63 40.5 -99t109.5 -36zM312 410q36 24 59 61t23 78q0 37 -17.5 61t-46 36.5t-61.5 12.5q-49 0 -85 -25t-36 -76q0 -28 14 -52t50 -47t100 -49z" />
    <glyph glyph-name="nine" unicode="9" horiz-adv-x="523" 
d="M224 -14q-55 0 -109.5 22.5t-89.5 69.5l38 41q32 -28 70 -42.5t87 -14.5q59 0 94 36t52 97.5t21 135.5q-25 -37 -64 -61t-95 -24q-61 0 -107 25.5t-72 73.5t-26 115q0 85 31 141.5t84.5 84.5t120.5 28q87 0 137.5 -40.5t72 -109t21.5 -151.5q0 -215 -63.5 -321
t-202.5 -106zM249 319q34 0 66 14.5t52.5 50t20.5 98.5q0 46 -12.5 86.5t-41.5 66t-79 25.5q-62 0 -97 -43t-35 -140q0 -86 34 -122t92 -36z" />
    <glyph glyph-name="colon" unicode=":" horiz-adv-x="333" 
d="M166 370q-33 0 -54.5 21t-21.5 54t21.5 54.5t54.5 21.5q34 0 55.5 -21t21.5 -54t-21.5 -54.5t-55.5 -21.5zM166 -17q-33 0 -54.5 21t-21.5 54t21.5 54.5t54.5 21.5q34 0 55.5 -21t21.5 -54t-21.5 -54.5t-55.5 -21.5z" />
    <glyph glyph-name="semicolon" unicode=";" horiz-adv-x="328" 
d="M115 -168l-29 37q45 35 64.5 66.5t22.5 64.5h-24q-32 0 -47 15t-15 40q0 32 20 53t53 21q44 0 64.5 -29.5t20.5 -68.5q0 -29 -14 -66t-43 -72t-73 -61zM159 370q-33 0 -54.5 21t-21.5 54t21.5 54.5t54.5 21.5q34 0 55.5 -21t21.5 -54t-21.5 -54.5t-55.5 -21.5z" />
    <glyph glyph-name="less" unicode="&#x3c;" horiz-adv-x="582" 
d="M448 37l-378 226v42l378 227l30 -52l-330 -195l330 -194z" />
    <glyph glyph-name="equal" unicode="=" horiz-adv-x="582" 
d="M77 362v63h428v-63h-428zM77 182v63h428v-63h-428z" />
    <glyph glyph-name="greater" unicode="&#x3e;" horiz-adv-x="582" 
d="M134 37l-30 54l330 194l-330 195l30 52l378 -227v-42z" />
    <glyph glyph-name="question" unicode="?" horiz-adv-x="538" 
d="M215 194v123q0 19 6.5 36.5t21.5 37.5t41 46q41 41 57 67.5t16 55.5q0 46 -29.5 73t-79.5 27q-32 0 -56 -9.5t-40 -28.5q10 -13 21 -32t11 -30q0 -17 -17.5 -32.5t-42.5 -15.5q-32 0 -45.5 17.5t-13.5 42.5q0 39 28 71.5t73 51.5t96 19q87 0 139 -44.5t52 -118.5
q0 -36 -14 -66.5t-35.5 -57t-45.5 -50.5q-37 -38 -55.5 -59.5t-25 -34.5t-6.5 -26v-63h-56zM244 -14q-31 0 -51 19.5t-20 49.5q0 32 20 51.5t51 19.5t50.5 -19.5t19.5 -50.5q0 -30 -19.5 -50t-50.5 -20z" />
    <glyph glyph-name="at" unicode="@" horiz-adv-x="849" 
d="M410 -183q-69 0 -133 21t-114.5 65.5t-79.5 114t-29 166.5q0 109 45.5 195.5t132 137.5t208.5 51q108 0 187.5 -36t123.5 -107.5t44 -180.5q0 -88 -28 -144.5t-74 -83.5t-99 -27q-35 0 -51 11t-20 32.5t-3 50.5l6 127h-4l-21 -73q-14 -49 -34.5 -82t-46.5 -49.5
t-56 -16.5q-49 0 -78 20.5t-42 56.5t-13 81q0 88 27.5 142.5t72 80t94.5 25.5q30 0 57 -6t47 -17l52 22l14 -6l-10 -287q-1 -32 3 -44.5t31 -12.5q45 0 80 49.5t35 143.5q0 129 -71.5 203t-222.5 74q-90 0 -162.5 -38t-115.5 -111t-43 -179q0 -90 27 -151t71 -96.5t96 -51
t101 -15.5q72 0 119.5 20t87.5 52l32 -39q-91 -88 -243 -88zM373 52q32 0 58 40t54 131l32 107q-16 8 -38.5 12.5t-43.5 4.5q-44 0 -71.5 -28.5t-40 -73t-12.5 -92.5q0 -46 13.5 -73.5t48.5 -27.5z" />
    <glyph glyph-name="A" unicode="A" horiz-adv-x="735" 
d="M15 0v48l48 8q18 4 26 13.5t20 40.5l211 590h106l209 -591q10 -26 16.5 -36t27.5 -15l41 -8v-50h-267v48l58 7q20 3 24.5 14t-5.5 36l-43 126h-268l-42 -122q-9 -25 -4 -37t27 -17l57 -8v-47h-242zM239 288h229l-111 329h-4z" />
    <glyph glyph-name="B" unicode="B" horiz-adv-x="660" 
d="M62 0v48l58 9q19 3 25 13t6 38v488q0 26 -6.5 34.5t-26.5 12.5l-56 9v48h255q89 0 146 -18t85 -54.5t28 -93.5q0 -37 -18.5 -69.5t-51 -56t-75.5 -33.5v-5q91 -8 138 -51.5t47 -119.5q0 -48 -19.5 -85t-57 -62.5t-92 -38.5t-124.5 -13h-261zM321 55q62 0 103.5 17
t63 49.5t21.5 80.5q0 67 -46.5 101t-137.5 34q-26 0 -43.5 -1t-31.5 -3v-273q11 -2 30 -3.5t41 -1.5zM305 389q78 0 121 37t43 104q0 42 -16.5 67.5t-51.5 37t-93 11.5h-58v-255q10 -1 23 -1.5t32 -0.5z" />
    <glyph glyph-name="C" unicode="C" horiz-adv-x="699" 
d="M385 -14q-101 0 -176.5 45.5t-117 127.5t-41.5 192q0 109 40 190.5t111.5 127t166.5 45.5q52 0 94 -15.5t72 -45.5l10 63h49l39 -233l-54 -12q-31 95 -79.5 137.5t-128.5 42.5q-69 0 -116.5 -34t-72 -100.5t-24.5 -164.5q0 -88 30 -155t83.5 -104.5t124.5 -37.5
q44 0 79.5 11.5t66 36.5t57.5 64l47 -34q-27 -45 -67.5 -78t-89.5 -51t-103 -18z" />
    <glyph glyph-name="D" unicode="D" horiz-adv-x="765" 
d="M62 0v48l58 9q19 3 25 13t6 38v488q0 26 -6.5 34.5t-26.5 12.5l-56 9v48h287q119 0 200.5 -38t123.5 -111t42 -179q0 -87 -26.5 -156t-77.5 -117.5t-124 -73.5t-166 -25h-259zM322 55q74 0 127.5 18.5t89 56.5t52.5 96.5t17 137.5q0 92 -30.5 155t-90 95t-146.5 32h-91
v-586q11 -2 32 -3.5t40 -1.5z" />
    <glyph glyph-name="E" unicode="E" horiz-adv-x="637" 
d="M62 0v48l58 9q19 3 25 13t6 38v488q0 26 -6.5 35t-26.5 12l-56 9v48h463l37 -163l-52 -17q-20 53 -39 80t-47 36.5t-77 9.5h-97v-259h87q36 0 52.5 4.5t24 21.5t16.5 56l46 6v-227l-46 -8q-6 39 -13.5 57t-25.5 23t-54 5h-87v-271h129q48 0 75.5 10t44 38t30.5 82h55
l-24 -184h-498z" />
    <glyph glyph-name="F" unicode="F" horiz-adv-x="615" 
d="M62 0v48l58 9q19 3 25 13t6 38v488q0 26 -6.5 35t-26.5 12l-56 9v48h474l36 -179l-52 -18q-22 61 -42 91.5t-48 41t-76 10.5h-104v-279h87q37 0 54 4t24 21.5t15 56.5l46 6v-247l-46 -8q-7 49 -14.5 71t-25 28t-53.5 6h-87v-199q0 -27 7.5 -37.5t29.5 -12.5l70 -8v-48
h-295z" />
    <glyph glyph-name="G" unicode="G" horiz-adv-x="751" 
d="M371 -14q-72 0 -131 25.5t-101.5 72t-65.5 112t-23 144.5q0 113 39.5 197t111 130.5t167.5 46.5q52 0 96 -16t73 -45l10 63h49l46 -233l-55 -12q-30 93 -81.5 136.5t-131.5 43.5q-53 0 -93.5 -19.5t-68 -58t-41.5 -94.5t-14 -130q0 -89 27.5 -156t77.5 -104t116 -37
q53 0 95.5 18t66.5 50v110q0 26 -6.5 34.5t-26.5 12.5l-60 9v48h271v-48l-53 -9q-18 -3 -24 -13.5t-6 -37.5v-229h-43l-26 47q-40 -28 -89.5 -43t-105.5 -15z" />
    <glyph glyph-name="H" unicode="H" horiz-adv-x="839" 
d="M62 0v48l58 9q19 3 25 13t6 38v488q0 26 -6.5 34.5t-26.5 12.5l-56 9v48h276v-48l-58 -9q-18 -3 -24 -13.5t-6 -37.5v-201h340v205q0 26 -6.5 34.5t-26.5 12.5l-55 9v48h275v-48l-57 -9q-19 -3 -25 -13t-6 -38v-488q0 -25 6.5 -34t26.5 -13l55 -9v-48h-275v48l57 9
q19 3 25 13t6 38v220h-340v-224q0 -25 6.5 -34t25.5 -13l56 -9v-48h-276z" />
    <glyph glyph-name="I" unicode="I" horiz-adv-x="409" 
d="M62 0v48l62 9q19 3 25 13t6 38v488q0 26 -6.5 34.5t-26.5 12.5l-60 9v48h285v-48l-63 -9q-18 -3 -24 -13.5t-6 -37.5v-488q0 -25 6.5 -34t25.5 -13l61 -9v-48h-285z" />
    <glyph glyph-name="J" unicode="J" horiz-adv-x="557" 
d="M219 -14q-52 0 -92.5 15.5t-63.5 43.5t-23 63t21.5 58.5t53.5 23.5q30 0 46.5 -12t16.5 -33q0 -13 -6 -27t-24 -44q11 -10 33 -17t44 -7q36 0 59.5 16.5t34.5 50t11 84.5v393q0 26 -6.5 35t-26.5 12l-70 10v49h295v-48l-63 -9q-18 -2 -24 -12.5t-6 -38.5v-368
q0 -75 -25 -128.5t-71.5 -81.5t-113.5 -28z" />
    <glyph glyph-name="K" unicode="K" horiz-adv-x="754" 
d="M632 -14q-54 0 -90.5 22.5t-70.5 76.5l-157 251l-60 -61v-171q0 -25 6.5 -34t25.5 -13l61 -9v-48h-285v48l62 9q19 3 25 13t6 38v488q0 26 -6.5 34.5t-26.5 12.5l-60 9v48h285v-48l-63 -9q-18 -2 -24 -12.5t-6 -38.5v-242l243 243q17 17 13 31.5t-26 18.5l-48 8l10 49
h237v-50l-38 -8q-17 -4 -30 -12.5t-38 -33.5l-194 -195l175 -265q22 -33 39.5 -51t36.5 -25t46 -7q9 0 19 2t26 7l10 -36q-18 -19 -45.5 -29.5t-57.5 -10.5z" />
    <glyph glyph-name="L" unicode="L" horiz-adv-x="637" 
d="M62 0v48l58 9q19 3 25 13t6 38v488q0 26 -6.5 34.5t-26.5 12.5l-56 9v48h286v-48l-66 -9q-19 -4 -25.5 -12.5t-6.5 -34.5v-541h113q46 0 73.5 12.5t46.5 47t39 99.5h55l-25 -214h-490z" />
    <glyph glyph-name="M" unicode="M" horiz-adv-x="1003" 
d="M63 0v48l57 9q21 3 25.5 16t5.5 35l30 488q0 26 -6 34.5t-26 12.5l-56 9v48h232l171 -507l4 10l179 497h231v-48l-63 -9q-18 -2 -24 -12.5t-6 -38.5l30 -488q0 -25 6.5 -34t25.5 -13l61 -9v-48h-285v48l62 9q19 3 25 13t6 38l-30 506v8l-187 -509h-100l-180 510v-8
l-30 -511q-1 -25 5 -34t27 -13l56 -9v-48h-246z" />
    <glyph glyph-name="N" unicode="N" horiz-adv-x="835" 
d="M62 0v48l58 9q18 3 24 13.5t6 37.5v488q0 26 -6 34.5t-26 12.5l-56 9v48h222l332 -571v8v459q0 26 -6.5 34.5t-26.5 12.5l-55 9v48h245v-48l-57 -9q-19 -3 -25 -13t-6 -38v-592h-103l-362 609v-8v-497q0 -25 6.5 -34t25.5 -13l56 -9v-48h-246z" />
    <glyph glyph-name="O" unicode="O" horiz-adv-x="760" 
d="M378 -14q-98 0 -172 44t-115 122.5t-41 183.5q0 87 23.5 156.5t67.5 119t106.5 76t139.5 26.5q97 0 169.5 -43t113 -121t40.5 -182q0 -114 -41.5 -200t-116.5 -134t-174 -48zM390 53q104 0 157.5 75.5t53.5 220.5q0 95 -27 162t-77.5 103t-122.5 36q-104 0 -161 -76.5
t-57 -216.5q0 -93 28.5 -161.5t81 -105.5t124.5 -37z" />
    <glyph glyph-name="P" unicode="P" horiz-adv-x="602" 
d="M62 0v48l58 9q19 3 25 13t6 38v488q0 26 -6.5 34.5t-26.5 12.5l-56 9v48h246q90 0 150 -22t89.5 -66t29.5 -110q0 -50 -18 -91.5t-50.5 -71.5t-78 -46t-101.5 -16q-27 0 -49 1.5t-30 3.5v-176q0 -27 7.5 -37t29.5 -13l70 -8v-48h-295zM308 331q80 0 121 42.5t41 125.5
q0 77 -40.5 112t-128.5 35h-51v-310q8 -2 24 -3.5t34 -1.5z" />
    <glyph glyph-name="Q" unicode="Q" horiz-adv-x="769" 
d="M689 -191q-43 0 -79.5 19t-70.5 61t-69 109q-22 -6 -45 -9t-47 -3q-98 0 -172 44t-115 122.5t-41 183.5q0 87 23.5 156.5t67.5 119t106.5 76t139.5 26.5q97 0 169.5 -43t113 -121t40.5 -182q0 -112 -40 -198t-114 -134q34 -47 61 -75.5t51.5 -41.5t48.5 -13
q39 0 71.5 11.5t69.5 37.5l20 -30q-50 -63 -93 -89.5t-96 -26.5zM390 53q18 0 30 1t19 3q-37 74 -69 105t-70 31q-54 0 -95 -40q31 -49 78 -74.5t107 -25.5zM517 94q41 35 62.5 100t21.5 155q0 95 -27 162t-77.5 103t-122.5 36q-104 0 -161 -76.5t-57 -216.5q0 -47 7 -88
t20 -73q32 29 61.5 41t68.5 12q50 0 97 -36t107 -119z" />
    <glyph glyph-name="R" unicode="R" horiz-adv-x="725" 
d="M597 -14q-36 0 -61.5 11.5t-45.5 39.5t-40 77l-48 115q-16 39 -29.5 58.5t-31 26.5t-46.5 7q-25 0 -45 -3v-212q0 -27 7.5 -37t29.5 -13l70 -8v-48h-295v48l58 9q19 3 25 13t6 38v488q0 26 -6.5 34.5t-26.5 12.5l-56 9v48h251q88 0 148 -20.5t90.5 -60t30.5 -98.5
q0 -32 -13 -62t-36.5 -55t-55.5 -42t-69 -24v-3q38 -10 61.5 -31t39.5 -60l35 -82q15 -34 27 -58.5t28.5 -37.5t43.5 -13q9 0 19 2t26 7l10 -36q-21 -20 -46 -30t-55 -10zM306 369q54 0 91.5 17t57.5 50t20 79q0 68 -40.5 99.5t-128.5 31.5h-56v-275q19 -1 32.5 -1.5
t23.5 -0.5z" />
    <glyph glyph-name="S" unicode="S" horiz-adv-x="598" 
d="M316 -14q-51 0 -99.5 18t-80.5 49l-16 -59h-44l-20 216l57 5q30 -82 80.5 -123.5t119.5 -41.5q42 0 71 13.5t44 39.5t15 62q0 55 -35 88t-122 61q-75 24 -120 52t-65 65.5t-20 89.5q0 43 15.5 78.5t43.5 61t67.5 39.5t87.5 14q41 0 80.5 -14t67.5 -38l13 52h47l22 -202
l-56 -8q-23 79 -65 117t-106 38q-54 0 -87 -30t-33 -80q0 -33 14.5 -57t48.5 -43.5t92 -39.5q57 -19 97 -40t64 -45.5t35 -54.5t11 -69q0 -62 -29 -110.5t-79.5 -76t-115.5 -27.5z" />
    <glyph glyph-name="T" unicode="T" horiz-adv-x="738" 
d="M207 0v48l80 12q19 3 26 14t7 36v535h-55q-37 0 -62 -6t-43 -23t-32.5 -48t-31.5 -81l-54 13l39 200h578l37 -200l-55 -13q-21 67 -40.5 100.5t-48 45.5t-77.5 12h-56v-539q0 -25 6.5 -33.5t27.5 -12.5l79 -12v-48h-325z" />
    <glyph glyph-name="U" unicode="U" horiz-adv-x="810" 
d="M404 -14q-90 0 -149 30.5t-88 92.5t-29 156v331q0 26 -6.5 34.5t-26.5 12.5l-56 9v48h276v-48l-58 -9q-18 -3 -24 -13.5t-6 -37.5v-320q0 -76 18.5 -124t58.5 -70t104 -22q65 0 106.5 24t62 73.5t20.5 125.5v317q0 26 -6.5 34.5t-26.5 12.5l-55 9v48h246v-48l-57 -9
q-19 -3 -25 -13t-6 -38v-301q0 -152 -68 -228.5t-205 -76.5z" />
    <glyph glyph-name="V" unicode="V" horiz-adv-x="739" 
d="M314 0l-207 591q-10 29 -17.5 37.5t-27.5 12.5l-40 8v51h264v-48l-55 -7q-20 -3 -24.5 -13.5t5.5 -36.5l167 -509h4l168 503q9 26 4 37.5t-26 15.5l-49 11v47h237v-48l-49 -8q-17 -4 -25 -13t-20 -41l-203 -590h-106z" />
    <glyph glyph-name="W" unicode="W" horiz-adv-x="1092" 
d="M259 0l-152 591q-7 27 -15 36.5t-30 13.5l-40 8v51h264v-48l-51 -7q-20 -3 -24.5 -13t1.5 -37l117 -509h5l161 614h109l179 -609h5l118 498q6 27 1 38t-25 15l-49 11v47h237v-48l-47 -8q-20 -3 -30 -14.5t-17 -39.5l-151 -590h-113l-174 601h-3l-156 -601h-120z" />
    <glyph glyph-name="X" unicode="X" horiz-adv-x="707" 
d="M15 0v50l38 8q17 4 28 11.5t34 30.5l183 240l-186 253q-21 26 -32 34.5t-30 12.5l-35 8l10 52h244v-49l-40 -7q-19 -3 -20.5 -13.5t14.5 -29.5l136 -186l128 182q17 21 15.5 29.5t-23.5 14.5l-38 10l10 49h215v-50l-38 -8q-19 -4 -31.5 -13t-30.5 -33l-170 -232l189 -257
q20 -24 35 -34.5t34 -14.5l38 -6v-52h-269v50l45 6q20 2 22 13.5t-14 30.5l-140 189l-140 -190q-14 -19 -12.5 -27t20.5 -13l44 -10v-49h-233z" />
    <glyph glyph-name="Y" unicode="Y" horiz-adv-x="716" 
d="M213 0v48l62 9q19 3 25 13t6 38v185l-187 298q-16 27 -28 37t-32 14l-37 7v51h279v-48l-55 -7q-23 -2 -28 -15.5t9 -34.5l146 -237h5l138 233q14 21 10 33.5t-27 17.5l-46 11v47h241v-48l-49 -8q-16 -2 -26.5 -12.5t-30.5 -42.5l-183 -297v-188q0 -25 6.5 -34t25.5 -13
l61 -9v-48h-285z" />
    <glyph glyph-name="Z" unicode="Z" horiz-adv-x="657" 
d="M58 0v48l412 599h-214q-36 0 -58.5 -10.5t-38 -39t-33.5 -83.5l-59 -5l12 191h509v-50l-410 -595h211q41 0 67.5 12t46 43.5t39.5 88.5h55l-19 -199h-520z" />
    <glyph glyph-name="bracketleft" unicode="[" horiz-adv-x="333" 
d="M105 -212v1024h184l4 -49l-77 -6q-18 -1 -23 -9.5t-5 -36.5v-822q0 -28 5 -36t23 -10l77 -6l-4 -49h-184z" />
    <glyph glyph-name="backslash" unicode="\" horiz-adv-x="428" 
d="M344 -110l-324 912h63l325 -912h-64z" />
    <glyph glyph-name="bracketright" unicode="]" horiz-adv-x="333" 
d="M44 -212l-4 49l77 6q18 2 23 10t5 36v822q0 28 -5 36.5t-23 9.5l-77 6l4 49h184v-1024h-184z" />
    <glyph glyph-name="asciicircum" unicode="^" horiz-adv-x="582" 
d="M97 344l-49 30l222 338h42l222 -338l-49 -30l-194 291z" />
    <glyph glyph-name="underscore" unicode="_" 
d="M15 -103v63h470v-63h-470z" />
    <glyph glyph-name="grave" unicode="`" 
d="M305 580l-132 88q-16 11 -25.5 24t-9.5 29q0 19 13 35t35 16q11 0 19 -7t20 -22l104 -138z" />
    <glyph glyph-name="a" unicode="a" horiz-adv-x="539" 
d="M192 -14q-63 0 -101.5 37t-38.5 98q0 55 27.5 89t90.5 51.5t169 22.5v68q0 62 -26 90t-82 28q-27 0 -53.5 -8.5t-38.5 -21.5q26 -43 26 -56q0 -19 -15.5 -32t-38.5 -13q-27 0 -42 13.5t-15 38.5q0 35 26.5 64.5t70 47.5t94.5 18q95 0 141 -44t46 -136v-241q0 -44 45 -44
q11 0 22 2t25 6l10 -38q-18 -17 -44 -28.5t-48 -11.5q-43 0 -66.5 22.5t-28.5 66.5q-56 -89 -155 -89zM230 55q47 0 78 30.5t31 75.5v71q-97 0 -143.5 -24.5t-46.5 -75.5q0 -36 22 -56.5t59 -20.5z" />
    <glyph glyph-name="b" unicode="b" horiz-adv-x="607" 
d="M130 -14l-26 8v650q0 35 -7.5 45.5t-35.5 14.5l-44 7l6 50l163 5l11 -11v-321v-7q35 50 75 72t96 22q91 0 142 -66t51 -184q0 -136 -61 -210.5t-172 -74.5q-88 0 -151 45zM321 49q66 0 102.5 55t36.5 153q0 95 -31 143.5t-93 48.5q-65 0 -102 -38.5t-37 -107.5v-207
q23 -22 56 -34.5t68 -12.5z" />
    <glyph glyph-name="c" unicode="c" horiz-adv-x="499" 
d="M282 -14q-72 0 -125 32t-82 90.5t-29 138.5q0 83 30.5 144.5t85.5 95.5t128 34q51 0 91.5 -17t64 -46.5t23.5 -67.5q0 -30 -18 -47.5t-48 -17.5q-18 0 -31.5 6t-20.5 16.5t-7 25.5q0 12 6 27t22 41q-19 14 -39 19t-51 5q-39 0 -69.5 -25t-48 -69.5t-17.5 -102.5
q0 -95 43 -150t117 -55q38 0 71 13.5t58 38.5l34 -35q-32 -43 -82 -68.5t-106 -25.5z" />
    <glyph glyph-name="d" unicode="d" horiz-adv-x="612" 
d="M251 -14q-97 0 -151 66.5t-54 185.5q0 87 30 150.5t84.5 98t129.5 34.5q33 0 66.5 -9t56.5 -24v156q0 35 -7.5 45.5t-35.5 14.5l-44 7l6 50l163 5l11 -11v-657q0 -24 6.5 -32.5t26.5 -12.5l49 -9v-47l-154 -6l-14 79h-3q-33 -42 -74.5 -63t-91.5 -21zM280 58
q40 0 69.5 19.5t46.5 54.5t17 80v201q-25 20 -57.5 30.5t-67.5 10.5q-71 0 -107 -52t-36 -154q0 -92 35 -141t100 -49z" />
    <glyph glyph-name="e" unicode="e" horiz-adv-x="519" 
d="M285 -14q-73 0 -126.5 32t-83 91t-29.5 138q0 83 30.5 144.5t85.5 95.5t128 34q83 0 133.5 -48.5t50.5 -128.5q0 -21 -3.5 -46t-10.5 -52h-313q3 -88 45.5 -137t115.5 -49q38 0 74 16t64 44l35 -35q-22 -30 -53.5 -52.5t-68 -34.5t-74.5 -12zM147 302h230q2 10 2.5 21.5
t0.5 24.5q0 59 -25.5 89.5t-75.5 30.5q-57 0 -90.5 -42.5t-41.5 -123.5z" />
    <glyph glyph-name="f" unicode="f" horiz-adv-x="387" 
d="M41 0v48l57 9q19 3 25 13t6 38v336h-80v50l80 10v41q0 75 22 128t63 81t99 28q42 0 73.5 -12t49 -33.5t17.5 -50.5q0 -28 -17 -47t-43 -19q-17 0 -29.5 4.5t-19 13.5t-6.5 21q0 11 5 23t20 36q-10 5 -25 8.5t-29 3.5q-46 0 -66.5 -31.5t-20.5 -99.5v-92h146v-63h-146
v-340q0 -24 6.5 -33.5t25.5 -11.5l87 -11v-48h-300z" />
    <glyph glyph-name="g" unicode="g" horiz-adv-x="558" 
d="M254 -229q-76 0 -127 13.5t-76.5 41t-25.5 68.5q0 38 22 65t69 49v4q-25 8 -41.5 30t-16.5 47q0 27 13.5 50.5t51.5 63.5v3q-37 19 -55.5 53.5t-18.5 83.5q0 54 25.5 94t72.5 62t109 22q36 0 70 -8.5t60 -24.5q11 30 26.5 51t35.5 32t42 11q29 0 48 -15t19 -38
q0 -22 -17 -39t-40 -17q-13 0 -23 7t-17 20l-10 21q-16 -25 -29 -63q19 -22 28.5 -50t9.5 -60q0 -79 -55 -126.5t-147 -47.5q-22 0 -45.5 3t-35.5 7q-18 -20 -25 -33t-7 -27q0 -22 16.5 -31.5t53.5 -9.5h128q61 0 100 -13.5t58 -42t19 -73.5q0 -43 -17.5 -77t-52 -58
t-83.5 -36t-112 -12zM262 -166q77 0 119.5 25.5t42.5 70.5q0 31 -23 46.5t-70 15.5h-168q-23 -17 -34.5 -37.5t-11.5 -45.5q0 -40 33.5 -57.5t111.5 -17.5zM255 227q53 0 81 31t28 87q0 59 -30 92t-85 33q-34 0 -57.5 -14t-35.5 -41t-12 -67q0 -55 30 -88t81 -33z" />
    <glyph glyph-name="h" unicode="h" horiz-adv-x="662" 
d="M55 0v47l46 9q17 3 22.5 13t5.5 35v540q0 35 -7.5 45.5t-35.5 14.5l-44 7l6 50l163 5l11 -11v-318v-9q16 28 42 49t58.5 32.5t66.5 11.5q53 0 89.5 -19.5t55.5 -57.5t19 -94v-254q0 -22 6 -29.5t25 -11.5l47 -8v-47h-245v46l44 8q19 4 24.5 12t5.5 30v225q0 47 -9.5 75
t-31.5 40.5t-59 12.5q-63 0 -100.5 -38t-37.5 -101v-210q0 -23 5 -31.5t20 -11.5l53 -11v-46h-245z" />
    <glyph glyph-name="i" unicode="i" horiz-adv-x="333" 
d="M40 0v49l57 9q20 3 25.5 13t5.5 38v273q0 37 -6.5 48.5t-29.5 14.5l-48 7l7 50l158 8l12 -5v-400q0 -25 6.5 -34.5t25.5 -12.5l56 -10v-48h-269zM160 620q-29 0 -48 18.5t-19 47.5t19 48t48 19q30 0 49 -18.5t19 -47.5t-19 -48t-49 -19z" />
    <glyph glyph-name="j" unicode="j" horiz-adv-x="309" 
d="M62 -229l-28 41q47 37 67 87t20 129v354q0 37 -6.5 48.5t-29.5 14.5l-48 7l8 50l157 8l12 -5v-410q0 -91 -14 -151.5t-47.5 -101t-90.5 -71.5zM153 620q-29 0 -48 18.5t-19 47.5t19 48t48 19q30 0 49 -18.5t19 -47.5t-19 -48t-49 -19z" />
    <glyph glyph-name="k" unicode="k" horiz-adv-x="610" 
d="M528 -9q-26 0 -45.5 6t-38.5 22t-44 46l-169 201v8l159 143q13 11 13 23t-13 14l-45 7l9 46h224v-45l-29 -8q-17 -5 -35 -14.5t-35 -23.5l-149 -126l166 -189q21 -23 37.5 -32.5t35.5 -9.5q6 0 14 2t25 6l10 -36q-19 -19 -43 -29.5t-47 -10.5zM43 0v48l57 9q20 3 25.5 13
t5.5 38v536q0 35 -7.5 45.5t-35.5 14.5l-44 7l5 50l164 5l11 -11v-651q0 -24 5.5 -33.5t21.5 -13.5l36 -8v-49h-244z" />
    <glyph glyph-name="l" unicode="l" horiz-adv-x="335" 
d="M42 0v49l57 9q20 3 25.5 13t5.5 38v534q0 35 -7.5 45.5t-35.5 14.5l-44 7l6 51l163 5l11 -11v-650q0 -25 6.5 -34.5t25.5 -12.5l56 -10v-48h-269z" />
    <glyph glyph-name="m" unicode="m" horiz-adv-x="970" 
d="M55 0v47l48 9q16 3 21 12.5t5 35.5v282q0 36 -6 47.5t-28 14.5l-49 7l7 48l139 11l12 -7l7 -89h3q18 31 45 54t59 36t65 13q59 0 97 -26.5t53 -78.5q24 47 71 76t99 29q38 0 67.5 -11t49.5 -33t30.5 -54t10.5 -73v-254q0 -22 6 -30t25 -11l47 -8v-47h-237v46l36 8
q19 5 24.5 12.5t5.5 29.5v225q0 71 -21 99.5t-73 28.5q-39 0 -69 -17.5t-46.5 -48.5t-16.5 -73v-210q0 -23 4.5 -31t19.5 -12l46 -11v-46h-230v46l36 8q19 5 24.5 12.5t5.5 29.5v225q0 71 -20.5 99.5t-73.5 28.5q-59 0 -95.5 -38.5t-36.5 -100.5v-210q0 -23 5 -31t20 -12
l45 -11v-46h-237z" />
    <glyph glyph-name="n" unicode="n" horiz-adv-x="662" 
d="M55 0v47l48 9q16 3 21 12.5t5 35.5v282q0 36 -6 47.5t-28 14.5l-49 7l7 48l139 11l12 -7l7 -89h3q18 32 45.5 55t61 35.5t68.5 12.5q53 0 89.5 -19.5t55.5 -57.5t19 -94v-254q0 -22 6 -30t25 -11l47 -8v-47h-245v46l44 8q19 4 24.5 12t5.5 30v225q0 47 -9.5 75
t-31.5 40.5t-59 12.5q-63 0 -100.5 -38t-37.5 -101v-210q0 -23 5 -31.5t20 -11.5l53 -11v-46h-245z" />
    <glyph glyph-name="o" unicode="o" horiz-adv-x="586" 
d="M289 -14q-74 0 -129 31.5t-84.5 89t-29.5 135.5q0 86 31 148.5t89 96.5t137 34q73 0 126 -31t82 -88t29 -135q0 -85 -31 -148.5t-87 -98t-133 -34.5zM303 48q65 0 100 50.5t35 144.5q0 101 -40.5 160t-110.5 59q-67 0 -103.5 -49t-36.5 -141q0 -105 41.5 -164.5
t114.5 -59.5z" />
    <glyph glyph-name="p" unicode="p" horiz-adv-x="617" 
d="M34 -219v48l48 8q16 3 22.5 13.5t6.5 33.5v500q0 38 -7 50t-30 15l-46 6l8 49l137 10l14 -6l6 -90h3q35 53 79 78t102 25q91 0 142.5 -66.5t51.5 -183.5q0 -90 -27.5 -154t-80 -97.5t-126.5 -33.5q-37 0 -73.5 9t-59.5 24v-132q0 -24 7 -35t25 -14l61 -10v-47h-263z
M330 52q66 0 103 54t37 151q0 96 -31.5 144.5t-93.5 48.5q-66 0 -103.5 -39.5t-37.5 -107.5v-208q20 -19 55.5 -31t70.5 -12z" />
    <glyph glyph-name="q" unicode="q" horiz-adv-x="600" 
d="M320 -219v48l61 10q18 3 25 14t7 35v180v3q-64 -85 -166 -85q-61 0 -106.5 31t-70 87.5t-24.5 132.5q0 86 30 150t85 99t129 35q42 0 78 -10.5t65 -32.5l45 43l28 -8v-628q0 -23 6.5 -33.5t22.5 -13.5l48 -8v-49h-263zM280 58q58 0 95.5 42.5t37.5 106.5v207
q-24 20 -56.5 30.5t-67.5 10.5q-144 0 -144 -206q0 -93 34.5 -142t100.5 -49z" />
    <glyph glyph-name="r" unicode="r" horiz-adv-x="473" 
d="M55 0v48l48 9q16 3 21 12.5t5 35.5v280q0 36 -6 47t-28 15l-49 7l7 49l135 11l12 -7l11 -90h3q60 104 149 104q47 0 75 -26t28 -70q0 -39 -17 -59t-50 -20q-28 0 -43.5 11.5t-15.5 32.5q0 11 4.5 25t14.5 33q-22 11 -46 3.5t-44.5 -29t-33.5 -52t-13 -64.5v-203
q0 -25 4.5 -32.5t20.5 -10.5l86 -13v-47h-278z" />
    <glyph glyph-name="s" unicode="s" horiz-adv-x="452" 
d="M65 -14l-16 172l56 4q14 -38 34 -64t47 -39t59 -13q44 0 69 22.5t25 61.5q0 32 -24.5 51t-92.5 38q-44 12 -75 26.5t-50 32.5t-27.5 40.5t-8.5 52.5q0 46 21 79.5t60 52t91 18.5q31 0 61.5 -9.5t48.5 -24.5l8 34h44l13 -163l-57 5q-10 47 -42 75.5t-74 28.5
q-43 0 -66.5 -19t-23.5 -54q0 -31 24 -49.5t91 -38.5q45 -13 76 -27.5t50 -32.5t27.5 -41t8.5 -53q0 -49 -23 -86.5t-63 -58.5t-93 -21q-39 0 -71.5 9t-53.5 25l-11 -34h-42z" />
    <glyph glyph-name="t" unicode="t" horiz-adv-x="404" 
d="M249 -14q-68 0 -100.5 36.5t-32.5 112.5v309h-79v52q35 3 58 21.5t36 57t17 99.5l48 6l13 -6v-167h156v-63h-156v-302q0 -42 17.5 -62.5t53.5 -20.5q26 0 49 8t47 24l23 -36q-32 -33 -71 -51t-79 -18z" />
    <glyph glyph-name="u" unicode="u" horiz-adv-x="634" 
d="M265 -14q-52 0 -88 19.5t-54 57.5t-18 94v229q0 36 -6 47t-28 15l-44 7l8 48l151 11l12 -7v-321q0 -48 9 -76t30 -40t57 -12q62 0 98.5 37.5t36.5 101.5v189q0 36 -6 47t-28 15l-45 7l8 48l152 11l12 -7v-406q0 -24 6.5 -32.5t25.5 -12.5l50 -9v-47l-155 -6l-14 81h-3
q-26 -31 -52 -50.5t-54 -29t-61 -9.5z" />
    <glyph glyph-name="v" unicode="v" horiz-adv-x="592" 
d="M246 0l-155 399q-10 26 -16.5 36t-27.5 15l-35 8l10 49h238v-46l-48 -7q-20 -3 -24.5 -13.5t5.5 -36.5l116 -321h5l115 314q9 26 4 37.5t-27 16.5l-44 10l10 46h208v-47l-37 -8q-18 -4 -26 -13t-20 -41l-155 -398h-96z" />
    <glyph glyph-name="w" unicode="w" horiz-adv-x="860" 
d="M209 0l-123 399q-7 27 -15 36.5t-29 14.5l-35 8l10 49h235v-46l-48 -7q-19 -3 -23 -12t3 -38l88 -321h5l116 424h107l112 -422h5l87 312q8 27 3 38t-26 16l-43 10l9 46h206v-47l-37 -8q-19 -4 -28 -14.5t-18 -39.5l-121 -398h-105l-109 412h-5l-111 -412h-110z" />
    <glyph glyph-name="x" unicode="x" horiz-adv-x="567" 
d="M9 0v47l38 8q17 4 28 11.5t34 30.5l121 150l-126 156q-21 26 -32 34.5t-30 12.5l-35 8l10 49h240v-46l-40 -7q-37 -6 -6 -43l84 -105l77 101q17 21 15.5 30t-23.5 14l-38 10l10 46h205v-47l-38 -8q-19 -4 -30.5 -12.5t-31.5 -33.5l-113 -142l129 -160q20 -24 35 -34.5
t34 -14.5l38 -6v-49h-265v47l45 6q40 5 8 44l-88 108l-84 -109q-14 -19 -12.5 -27t20.5 -13l44 -10v-46h-223z" />
    <glyph glyph-name="y" unicode="y" horiz-adv-x="576" 
d="M113 -229q-47 0 -75 21.5t-28 58.5q0 29 18.5 48t46.5 19q48 0 53 -36q1 -6 0 -20t-4 -37q21 -1 37 9t33 37.5t39 78.5l25 57l-165 392q-13 30 -20 38.5t-24 12.5l-35 8l10 49h238v-46l-48 -7q-20 -3 -24.5 -13.5t5.5 -36.5l111 -280h5l111 273q10 25 4.5 37t-27.5 17
l-44 10l10 46h209v-47l-37 -8q-17 -4 -25 -13t-22 -41l-193 -452q-28 -66 -55 -104.5t-57.5 -54.5t-71.5 -16z" />
    <glyph glyph-name="z" unicode="z" horiz-adv-x="486" 
d="M37 0v44l299 410h-117q-38 0 -59.5 -7.5t-35 -31t-27.5 -70.5l-57 -5l12 167h393v-46l-298 -406h118q32 0 52.5 4t34.5 16.5t26 37.5t27 68h54l-14 -181h-408z" />
    <glyph glyph-name="braceleft" unicode="{" horiz-adv-x="372" 
d="M263 -227q-62 0 -97.5 33t-35.5 88q0 23 3 60t6.5 79.5t6.5 82t3 66.5q0 43 -12.5 63t-33.5 26.5t-48 6.5v57q27 1 48 6.5t33.5 25.5t12.5 64q0 28 -3 64.5t-6.5 75t-6.5 73.5t-3 59q0 55 33 87t92 32q18 0 38 -2.5t34 -6.5l-10 -49q-11 2 -23.5 3t-25.5 1
q-19 0 -32.5 -11.5t-13.5 -54.5q0 -17 2.5 -50t6 -72.5t6 -77t2.5 -62.5q0 -48 -16.5 -74t-42 -38t-51.5 -20q27 -8 52 -21.5t41.5 -39.5t16.5 -73q0 -24 -2.5 -64.5t-6 -83.5t-6 -78.5t-2.5 -50.5q0 -43 16 -56.5t39 -13.5q11 0 24.5 1.5t23.5 2.5l10 -49
q-16 -4 -34.5 -6.5t-37.5 -2.5z" />
    <glyph glyph-name="bar" unicode="|" horiz-adv-x="424" 
d="M181 -110v912h62v-912h-62z" />
    <glyph glyph-name="braceright" unicode="}" horiz-adv-x="372" 
d="M109 -227q-19 0 -37 2.5t-35 6.5l10 49q11 -1 24 -2.5t24 -1.5q23 0 39 13.5t16 56.5q0 15 -2.5 50.5t-6 78.5t-6 83.5t-2.5 64.5q0 47 16.5 73t42 39.5t51.5 21.5q-26 8 -51.5 20t-42 38t-16.5 74q0 25 2.5 62.5t6 77t6 72.5t2.5 50q0 43 -13.5 54.5t-32.5 11.5
q-13 0 -25.5 -1t-23.5 -3l-10 49q14 4 34 6.5t38 2.5q59 0 92 -32t33 -87q0 -24 -3 -59t-6.5 -73.5t-6.5 -75t-3 -64.5q0 -44 12.5 -64t34 -25.5t47.5 -6.5v-57q-26 0 -47.5 -6.5t-34 -26.5t-12.5 -63q0 -27 3 -66.5t6.5 -82t6.5 -79.5t3 -60q0 -55 -35.5 -88t-97.5 -33z
" />
    <glyph glyph-name="asciitilde" unicode="~" horiz-adv-x="582" 
d="M117 239l-52 19q24 55 43.5 73.5t53.5 18.5q24 0 58.5 -6.5t71.5 -14.5t71 -14.5t58 -6.5q14 0 23 9.5t22 34.5l52 -19q-17 -40 -31.5 -59.5t-30 -26t-35.5 -6.5q-25 0 -59 6.5t-70 14.5t-69.5 14.5t-57.5 6.5q-15 0 -23.5 -7.5t-24.5 -36.5z" />
    <glyph glyph-name="uni00A0" unicode="&#xa0;" horiz-adv-x="200" 
 />
    <glyph glyph-name="exclamdown" unicode="&#xa1;" horiz-adv-x="330" 
d="M192 314v-72q0 -59 5.5 -114.5t13 -105.5t13 -91.5t5.5 -72.5q0 -30 -19 -47.5t-51 -17.5q-31 0 -47.5 16.5t-16.5 47.5q0 28 6 67.5t14.5 89t14.5 107t6 122.5v71h56zM163 521q31 0 51 -19.5t20 -49.5q0 -32 -20 -51.5t-51 -19.5t-50.5 19.5t-19.5 50.5q0 30 19.5 50
t50.5 20z" />
    <glyph glyph-name="cent" unicode="&#xa2;" horiz-adv-x="499" 
d="M173 -29l136 667h50l-136 -667h-50zM282 36q-72 0 -125 32t-82 90.5t-29 138.5q0 83 30.5 144.5t85.5 95.5t128 34q51 0 91.5 -17t64 -46.5t23.5 -67.5q0 -30 -18 -47.5t-48 -17.5q-18 0 -31.5 6t-20.5 16.5t-7 25.5q0 12 6 27t22 41q-19 14 -39 19t-51 5
q-39 0 -69.5 -25t-48 -69.5t-17.5 -102.5q0 -95 43 -150t117 -55q38 0 71 13.5t58 38.5l34 -35q-32 -43 -82 -68.5t-106 -25.5z" />
    <glyph glyph-name="sterling" unicode="&#xa3;" horiz-adv-x="553" 
d="M47 0l-8 46q48 19 75.5 40.5t39.5 51.5t12 73q0 22 -6.5 45t-23.5 56h-109l7 56h75q-16 34 -25 69.5t-9 71.5q0 63 28 109.5t79 71.5t120 25q78 0 127.5 -36.5t49.5 -95.5q0 -30 -18 -47.5t-48 -17.5q-28 0 -43.5 13t-15.5 35q0 12 6 27t22 41q-17 11 -41 18t-46 7
q-119 0 -119 -127q0 -40 10.5 -79t33.5 -85h203v-56h-177q8 -20 11 -36.5t3 -31.5q0 -49 -21.5 -91.5t-60.5 -71.5l2 -4h127q47 0 72.5 6.5t42 28.5t34.5 66h54l-24 -178h-439z" />
    <glyph glyph-name="currency" unicode="&#xa4;" horiz-adv-x="539" 
d="M453 195l-86 67q-22 -13 -47.5 -19.5t-51.5 -6.5q-59 0 -100 24l-82 -64l-30 30l64 82q-13 20 -19.5 46.5t-6.5 57.5q0 63 26 104l-65 84l30 30l82 -65q23 15 51 22.5t56 7.5q26 0 51.5 -6t47.5 -19l81 63l30 -30l-63 -80q12 -19 18.5 -44.5t6.5 -57.5q0 -35 -7.5 -63
t-21.5 -49l66 -84zM268 289q53 0 78.5 33.5t25.5 94.5q0 65 -26.5 94t-73.5 29q-48 0 -76 -30.5t-28 -94.5q0 -60 26.5 -93t73.5 -33z" />
    <glyph glyph-name="yen" unicode="&#xa5;" horiz-adv-x="716" 
d="M213 0v48l62 9q22 4 26.5 16.5t4.5 34.5v185l-187 298q-15 24 -26.5 35.5t-33.5 15.5l-37 7v51h279v-48l-55 -7q-20 -2 -27.5 -14.5t8.5 -35.5l146 -237h5l138 233q16 23 10 35t-27 16l-46 11v47h241v-48l-49 -8q-18 -3 -29 -16t-28 -39l-183 -297v-188q0 -23 5 -33
t27 -14l61 -9v-48h-285zM329 332h-238l5 54h205zM88 213l5 54h519v-54h-524zM612 330h-216l30 56h186v-56z" />
    <glyph glyph-name="brokenbar" unicode="&#xa6;" horiz-adv-x="424" 
d="M181 -110v399h61v-399h-61zM181 432v371h61v-371h-61z" />
    <glyph glyph-name="section" unicode="&#xa7;" horiz-adv-x="618" 
d="M278 -156q-67 0 -107.5 26t-40.5 70q0 30 17.5 49.5t44.5 19.5q26 0 40.5 -10.5t14.5 -28.5q0 -10 -4.5 -21.5t-20.5 -37.5q10 -6 27 -9t37 -3q46 0 72.5 22.5t26.5 61.5q0 25 -14 48t-46.5 49.5t-88.5 60.5q-61 38 -99 72t-55 69t-17 74q0 46 26 83t72 58q-4 14 -7 30.5
t-3 30.5q0 46 22 81t61.5 55t89.5 20q63 0 102.5 -26.5t39.5 -69.5q0 -28 -18 -48t-44 -20q-25 0 -40 10.5t-15 28.5q0 11 4.5 22.5t20.5 36.5q-10 5 -25 8.5t-29 3.5q-43 0 -66 -20.5t-23 -58.5q0 -41 34.5 -78t120.5 -87q58 -33 94 -66.5t53.5 -68.5t17.5 -75
q0 -45 -26.5 -84.5t-72.5 -61.5q11 -31 11 -59q0 -46 -23.5 -81.5t-65.5 -55.5t-98 -20zM429 104q42 31 42 81q0 36 -27.5 68.5t-89.5 69.5q-61 36 -99.5 66t-67.5 64q-40 -31 -40 -77q0 -38 31 -74t99 -77q54 -31 90.5 -60.5t61.5 -60.5z" />
    <glyph glyph-name="dieresis" unicode="&#xa8;" 
d="M348 620q-28 0 -46 17.5t-18 44.5t18 45t46 18t46 -17.5t18 -44.5t-18 -45t-46 -18zM149 620q-27 0 -45 17.5t-18 44.5t18 45t45 18q29 0 47 -17.5t18 -44.5t-18 -45t-47 -18z" />
    <glyph glyph-name="copyright" unicode="&#xa9;" horiz-adv-x="795" 
d="M397 -12q-113 0 -188 42.5t-112 116t-37 164.5q0 79 27 141.5t73.5 106t108 66t130.5 22.5q102 0 177.5 -39.5t117 -112t41.5 -170.5q0 -101 -42 -177t-118 -118t-178 -42zM409 106q-65 0 -108 29t-64.5 76.5t-21.5 101.5q0 65 24.5 111t66.5 70.5t94 24.5q32 0 56.5 -11
t34.5 -20l5 32h31l22 -132l-40 -7q-16 50 -41.5 70.5t-66.5 20.5q-46 0 -75.5 -41.5t-29.5 -116.5q0 -42 14.5 -78t41.5 -58t63 -22q38 0 63 15.5t50 44.5l28 -27q-17 -22 -37.5 -41t-47 -30.5t-62.5 -11.5zM399 40q86 0 147.5 35t95 97.5t33.5 146.5q0 88 -35.5 149.5
t-97.5 94t-143 32.5q-79 0 -142 -34.5t-99 -97.5t-36 -151q0 -82 33 -143.5t95.5 -95t148.5 -33.5z" />
    <glyph glyph-name="ordfeminine" unicode="&#xaa;" horiz-adv-x="420" 
d="M149 362q-28 0 -53.5 10t-41.5 32t-16 57q0 47 32.5 73t88.5 34q24 4 48 6t49 3v40q0 45 -20 63t-58 18q-21 0 -38 -4t-27 -12q19 -28 19 -38q0 -13 -11 -24.5t-34 -11.5q-25 0 -35 13t-10 29q0 25 19.5 45.5t53 33.5t74.5 13t74 -11.5t52.5 -39.5t19.5 -80v-161
q0 -15 8.5 -24t25.5 -10q8 0 17 1.5t20 5.5l9 -32q-16 -14 -35.5 -21.5t-45.5 -7.5q-32 0 -49 14.5t-20 40.5q-21 -30 -49 -42.5t-67 -12.5zM177 416q16 0 34 7t31.5 23t13.5 43v45q-39 0 -69.5 -5.5t-48 -19.5t-17.5 -42q0 -26 17.5 -38.5t38.5 -12.5z" />
    <glyph glyph-name="guillemotleft" unicode="&#xab;" horiz-adv-x="483" 
d="M413 55l-166 168q-22 22 -22 43q0 11 7 20.5t21 24.5l159 163l31 -25l-123 -183l123 -187zM238 55l-166 168q-22 22 -22 43q0 11 7 20.5t21 24.5l159 163l31 -25l-123 -183l123 -187z" />
    <glyph glyph-name="logicalnot" unicode="&#xac;" horiz-adv-x="582" 
d="M438 154v150h-361v63h428v-213h-67z" />
    <glyph glyph-name="uni00AD" unicode="&#xad;" horiz-adv-x="354" 
d="M44 247v82h267v-82h-267z" />
    <glyph glyph-name="registered" unicode="&#xae;" horiz-adv-x="487" 
d="M243 404q-60 0 -101 23t-61.5 62.5t-20.5 89.5q0 57 25 98t66.5 63t92.5 22q84 0 133.5 -48t49.5 -128q0 -54 -23.5 -95t-65 -64t-95.5 -23zM327 465q9 0 16 1.5t12 4.5v16h-4.5h-4.5q-7 0 -12.5 4t-10.5 14l-9 25q-7 18 -16 31.5t-33 18.5v1q20 3 41 17t21 45
q0 34 -28 47t-66 13h-82l-4 -16l16 -2q8 -1 10.5 -5t2.5 -12v-163q0 -7 -2.5 -12t-10.5 -6l-16 -2v-16h97v16l-17 2q-8 1 -10.5 5t-2.5 13v71h14q14 0 23 -9.5t17 -31.5l12 -32q8 -18 17.5 -28t29.5 -10zM214 595v88h17q24 0 40 -8t16 -34q0 -22 -13 -34t-42 -12h-18z" />
    <glyph glyph-name="macron" unicode="&#xaf;" 
d="M110 635v73h280v-73h-280z" />
    <glyph glyph-name="degree" unicode="&#xb0;" horiz-adv-x="329" 
d="M164 547q-62 0 -91.5 34t-29.5 84q0 47 31.5 82t92.5 35q59 0 89 -32t30 -83q0 -49 -31.5 -84.5t-90.5 -35.5zM166 598q29 0 46 19.5t17 47.5q0 31 -17.5 49t-48.5 18q-29 0 -45.5 -19t-16.5 -48q0 -28 15.5 -47.5t49.5 -19.5z" />
    <glyph glyph-name="plusminus" unicode="&#xb1;" horiz-adv-x="582" 
d="M254 141v165h-177v63h177v152h67v-152h184v-63h-184v-165h-67zM77 1v63h428v-63h-428z" />
    <glyph glyph-name="uni00B2" unicode="&#xb2;" horiz-adv-x="397" 
d="M40 374l-6 46q71 66 116 110.5t70 75t34.5 54t9.5 48.5q0 35 -23 59t-64 24q-29 0 -47 -6.5t-26 -18.5q10 -15 15 -24.5t5 -14.5q0 -13 -11 -25.5t-34 -12.5q-28 0 -41 15.5t-13 36.5q0 29 21.5 51t58 34.5t80.5 12.5q74 0 120 -33t46 -95q0 -24 -10 -49t-35 -55t-69 -70
t-111 -95h97q31 0 46.5 4t25 19t22.5 47h45l-13 -138h-309z" />
    <glyph glyph-name="uni00B3" unicode="&#xb3;" horiz-adv-x="423" 
d="M198 362q-56 0 -91 15t-54 35.5t-28 35.5l37 31q17 -20 47 -39t74 -19q47 0 71 22.5t24 56.5q0 45 -30.5 66t-93.5 19l4 41q57 5 83.5 33t26.5 62q0 28 -21.5 49.5t-59.5 21.5q-25 0 -43.5 -8t-26.5 -20q10 -13 14.5 -22t4.5 -14q0 -15 -11 -26.5t-33 -11.5
q-27 0 -40 14.5t-13 35.5q0 26 19.5 48.5t55 36.5t81.5 14q66 0 110.5 -31.5t44.5 -84.5q0 -39 -28 -68.5t-69 -40.5v-2q49 -8 82 -34.5t33 -79.5q0 -41 -24.5 -72t-63 -47.5t-82.5 -16.5z" />
    <glyph glyph-name="acute" unicode="&#xb4;" 
d="M197 580l-24 25l104 138q11 15 20 22t19 7q22 0 35 -16t13 -35q0 -16 -9 -29t-26 -24z" />
    <glyph glyph-name="uni00B5" unicode="&#xb5;" horiz-adv-x="611" 
d="M106 -229l-12 5l-2.5 31.5t-5 83.5t-2.5 113q0 8 -0.5 39.5t-1.5 77t-2 98t-2 103.5t-2 93t-1.5 67.5l-0.5 25.5l92 8l12 -5q-3 -57 -5.5 -130t-4 -149t-1.5 -142q16 -16 44 -24t47 -8q64 0 101.5 38t37.5 101q0 8 -0.5 34t-0.5 61t-1 72.5t-1 70t-0.5 53l-0.5 20.5l92 8
l12 -5q-5 -60 -8.5 -104t-5.5 -79.5t-3 -68t-1 -68.5q0 -56 4.5 -84.5t18.5 -38t41 -9.5q16 0 43 8l10 -41q-13 -13 -38.5 -26.5t-55.5 -13.5q-39 0 -61 23t-32 84h-3q-20 -49 -59 -78t-86 -29q-29 0 -54.5 11t-39.5 26h-2q0 -60 8 -113.5t15.5 -87l7.5 -33.5z" />
    <glyph glyph-name="paragraph" unicode="&#xb6;" horiz-adv-x="578" 
d="M252 -144v47l80 7q19 2 25.5 13.5t6.5 35.5v741h169v-47l-50 -6q-19 -2 -25.5 -14t-6.5 -36v-741h-199zM285 238q-100 0 -157.5 60.5t-57.5 169.5q0 110 55 171t164 61h12v-462h-16z" />
    <glyph glyph-name="periodcentered" unicode="&#xb7;" horiz-adv-x="319" 
d="M159 235q-33 0 -54.5 21t-21.5 54t21.5 54.5t54.5 21.5q34 0 55.5 -21t21.5 -54t-21.5 -54.5t-55.5 -21.5z" />
    <glyph glyph-name="cedilla" unicode="&#xb8;" 
d="M234 -229q-35 0 -61 15.5t-34 24.5l24 37q13 -10 30.5 -16t33.5 -6q20 0 35 10.5t15 32.5q0 21 -13 29.5t-37 8.5q-10 0 -16.5 -0.5t-13.5 -2.5l-8 21l35 88h46l-27 -70q48 6 77 -13.5t29 -62.5q0 -42 -28 -69t-87 -27z" />
    <glyph glyph-name="uni00B9" unicode="&#xb9;" horiz-adv-x="323" 
d="M38 374v41l65 10q15 2 19.5 10t4.5 22v272q0 21 -4.5 28.5t-26.5 10.5l-61 5l5 40l163 23l8 -7v-374q0 -15 4.5 -21.5t20.5 -8.5l62 -10v-41h-260z" />
    <glyph glyph-name="ordmasculine" unicode="&#xba;" horiz-adv-x="427" 
d="M210 362q-88 0 -131.5 51.5t-43.5 130.5q0 72 26 115.5t68.5 63t91.5 19.5q74 0 122.5 -44.5t48.5 -135.5q0 -65 -23 -109.5t-64 -67.5t-95 -23zM221 410q44 0 67.5 35t23.5 100q0 71 -27.5 111t-75.5 40q-43 0 -69 -31t-26 -99q0 -73 27 -114.5t80 -41.5z" />
    <glyph glyph-name="guillemotright" unicode="&#xbb;" horiz-adv-x="483" 
d="M246 55l-31 25l123 183l-123 187l30 24l166 -168q11 -10 16.5 -21t5.5 -22q0 -10 -7 -20t-21 -25zM71 55l-31 25l123 183l-123 187l30 24l166 -168q11 -10 16.5 -21t5.5 -22q0 -10 -7 -20t-21 -25z" />
    <glyph glyph-name="onequarter" unicode="&#xbc;" horiz-adv-x="966" 
d="M38 259v41l65 10q15 2 19.5 10t4.5 22v272q0 21 -4.5 28.5t-26.5 10.5l-61 5l5 40l163 23l8 -7v-374q0 -15 4.5 -21.5t20.5 -8.5l62 -10v-41h-260zM207 -14l417 728h67l-416 -728h-68zM754 0v91h-218l-8 49l215 316l84 10l8 -6v-315h78v-54h-78v-91h-81zM591 145h163v231
v11z" />
    <glyph glyph-name="onehalf" unicode="&#xbd;" horiz-adv-x="958" 
d="M38 259v41l65 10q15 2 19.5 10t4.5 22v272q0 21 -4.5 28.5t-26.5 10.5l-61 5l5 40l163 23l8 -7v-374q0 -15 4.5 -21.5t20.5 -8.5l62 -10v-41h-260zM206 -14l417 728h67l-416 -728h-68zM596 13l-6 46q71 66 116 110.5t70 75t34.5 54t9.5 48.5q0 35 -23 59t-64 24
q-29 0 -47 -6.5t-26 -18.5q10 -15 15 -24.5t5 -14.5q0 -13 -11 -25.5t-34 -12.5q-28 0 -41 15.5t-13 36.5q0 29 21.5 51t58 34.5t80.5 12.5q74 0 120 -33t46 -95q0 -24 -10 -49t-35 -55t-69 -70t-111 -95h97q31 0 46.5 4t25 19t22.5 47h45l-13 -138h-309z" />
    <glyph glyph-name="threequarters" unicode="&#xbe;" horiz-adv-x="966" 
d="M249 -14l417 728h67l-416 -728h-68zM793 0v91h-218l-8 49l215 316l84 10l8 -6v-315h78v-54h-78v-91h-81zM630 145h163v231v11zM198 237q-56 0 -91 15t-54 35.5t-28 35.5l37 31q17 -20 47 -39t74 -19q47 0 71 22.5t24 56.5q0 45 -30.5 66t-93.5 19l4 41q57 5 83.5 33
t26.5 62q0 28 -21.5 49.5t-59.5 21.5q-25 0 -43.5 -8t-26.5 -20q10 -13 14.5 -22t4.5 -14q0 -15 -11 -26.5t-33 -11.5q-27 0 -40 14.5t-13 35.5q0 26 19.5 48.5t55 36.5t81.5 14q66 0 110.5 -31.5t44.5 -84.5q0 -39 -28 -68.5t-69 -40.5v-2q49 -8 82 -34.5t33 -79.5
q0 -41 -24.5 -72t-63 -47.5t-82.5 -16.5z" />
    <glyph glyph-name="questiondown" unicode="&#xbf;" horiz-adv-x="538" 
d="M323 316v-123q0 -19 -6.5 -36.5t-21.5 -37.5t-41 -46q-41 -41 -57 -67.5t-16 -55.5q0 -46 29.5 -73t79.5 -27q32 0 56 9.5t40 28.5q-10 13 -21 32t-11 30q0 17 17.5 32.5t42.5 15.5q32 0 45.5 -17.5t13.5 -42.5q0 -39 -28 -71.5t-73 -51.5t-96 -19q-87 0 -139 44.5
t-52 118.5q0 36 14 66.5t35.5 57t45.5 50.5q37 38 55.5 59.5t25 34.5t6.5 26v63h56zM294 524q31 0 51 -19.5t20 -49.5q0 -32 -20 -51.5t-51 -19.5t-50.5 19.5t-19.5 50.5q0 30 19.5 50t50.5 20z" />
    <glyph glyph-name="Agrave" unicode="&#xc0;" horiz-adv-x="735" 
d="M15 0v48l48 8q18 4 26 13.5t20 40.5l211 590h106l209 -591q10 -26 16.5 -36t27.5 -15l41 -8v-50h-267v48l58 7q20 3 24.5 14t-5.5 36l-43 126h-268l-42 -122q-9 -25 -4 -37t27 -17l57 -8v-47h-242zM239 288h229l-111 329h-4zM448 752l-151 66q-19 8 -30.5 21.5
t-11.5 34.5q0 17 12 32.5t31 15.5q9 0 17.5 -6t21.5 -17l131 -119z" />
    <glyph glyph-name="Aacute" unicode="&#xc1;" horiz-adv-x="735" 
d="M15 0v48l48 8q18 4 26 13.5t20 40.5l211 590h106l209 -591q10 -26 16.5 -36t27.5 -15l41 -8v-50h-267v48l58 7q20 3 24.5 14t-5.5 36l-43 126h-268l-42 -122q-9 -25 -4 -37t27 -17l57 -8v-47h-242zM239 288h229l-111 329h-4zM298 752l-20 28l131 119q13 11 21.5 17
t17.5 6q19 0 31 -15.5t12 -32.5q0 -21 -11 -34.5t-31 -21.5z" />
    <glyph glyph-name="Acircumflex" unicode="&#xc2;" horiz-adv-x="735" 
d="M15 0v48l48 8q18 4 26 13.5t20 40.5l211 590h106l209 -591q10 -26 16.5 -36t27.5 -15l41 -8v-50h-267v48l58 7q20 3 24.5 14t-5.5 36l-43 126h-268l-42 -122q-9 -25 -4 -37t27 -17l57 -8v-47h-242zM239 288h229l-111 329h-4zM234 750l-24 25l125 137q9 10 19 16t20 6
q11 0 19 -6.5t22 -21.5l121 -130l-25 -26l-137 84z" />
    <glyph glyph-name="Atilde" unicode="&#xc3;" horiz-adv-x="735" 
d="M15 0v48l48 8q18 4 26 13.5t20 40.5l211 590h106l209 -591q10 -26 16.5 -36t27.5 -15l41 -8v-50h-267v48l58 7q20 3 24.5 14t-5.5 36l-43 126h-268l-42 -122q-9 -25 -4 -37t27 -17l57 -8v-47h-242zM239 288h229l-111 329h-4zM450 777q-19 0 -39.5 5.5t-52.5 18.5
q-30 12 -47.5 18t-25.5 6q-14 0 -23.5 -7t-23.5 -29l-31 19q26 56 45 75t48 19q15 0 34.5 -5.5t54.5 -20.5q22 -9 36.5 -14.5t24 -7.5t15.5 -2q12 0 20 7t24 30l31 -19q-26 -54 -45 -73.5t-45 -19.5z" />
    <glyph glyph-name="Adieresis" unicode="&#xc4;" horiz-adv-x="735" 
d="M15 0v48l48 8q18 4 26 13.5t20 40.5l211 590h106l209 -591q10 -26 16.5 -36t27.5 -15l41 -8v-50h-267v48l58 7q20 3 24.5 14t-5.5 36l-43 126h-268l-42 -122q-9 -25 -4 -37t27 -17l57 -8v-47h-242zM239 288h229l-111 329h-4zM473 771q-28 0 -46.5 17.5t-18.5 45.5
t18.5 46t46.5 18q29 0 47 -17.5t18 -45.5t-18 -46t-47 -18zM270 771q-28 0 -46 17.5t-18 45.5t18 46t46 18q29 0 47.5 -17.5t18.5 -45.5t-18.5 -46t-47.5 -18z" />
    <glyph glyph-name="Aring" unicode="&#xc5;" horiz-adv-x="735" 
d="M15 0v48l48 8q18 4 26 13.5t20 40.5l211 590h106l209 -591q10 -26 16.5 -36t27.5 -15l41 -8v-50h-267v48l58 7q20 3 24.5 14t-5.5 36l-43 126h-268l-42 -122q-9 -25 -4 -37t27 -17l57 -8v-47h-242zM239 288h229l-111 329h-4zM372 742q-58 0 -84 29t-26 76q0 43 27.5 73.5
t84.5 30.5q53 0 80.5 -28t27.5 -74q0 -47 -28.5 -77t-81.5 -30zM373 789q29 0 39.5 17.5t10.5 40.5t-12 40t-40 17t-39.5 -17.5t-11.5 -39.5t11.5 -40t41.5 -18z" />
    <glyph glyph-name="AE" unicode="&#xc6;" horiz-adv-x="997" 
d="M15 0v48l48 8q16 3 25.5 13.5t24.5 40.5l263 533l-64 9v48h573l37 -163l-52 -17q-20 53 -39 80t-47 36.5t-77 9.5h-97v-274h87q31 0 47.5 2.5t24 10.5t11.5 24.5t10 44.5l46 6v-222l-46 -8q-6 39 -11.5 57t-23 23t-58.5 5h-87v-261h129q48 0 75.5 10t44 38t30.5 82h55
l-24 -184h-498v48l58 9q19 3 25 13t6 38v207h-226l-99 -206q-12 -25 -8 -38t25 -16l57 -8v-47h-245zM313 372h198l1 274h-67z" />
    <glyph glyph-name="Ccedilla" unicode="&#xc7;" horiz-adv-x="699" 
d="M385 -14q-101 0 -176.5 45.5t-117 127.5t-41.5 192q0 109 40 190.5t111.5 127t166.5 45.5q52 0 94 -15.5t72 -45.5l10 63h49l39 -233l-54 -12q-31 95 -79.5 137.5t-128.5 42.5q-69 0 -116.5 -34t-72 -100.5t-24.5 -164.5q0 -88 30 -155t83.5 -104.5t124.5 -37.5
q44 0 79.5 11.5t66 36.5t57.5 64l47 -34q-27 -45 -67.5 -78t-89.5 -51t-103 -18zM355 -229q-35 0 -61 15.5t-34 24.5l24 37q13 -10 30.5 -16t33.5 -6q20 0 35 10.5t15 32.5q0 21 -13 29.5t-37 8.5q-10 0 -16.5 -0.5t-13.5 -2.5l-8 21l35 88h46l-27 -70q48 6 77 -13.5
t29 -62.5q0 -42 -28 -69t-87 -27z" />
    <glyph glyph-name="Egrave" unicode="&#xc8;" horiz-adv-x="637" 
d="M62 0v48l58 9q19 3 25 13t6 38v488q0 26 -6.5 35t-26.5 12l-56 9v48h463l37 -163l-52 -17q-20 53 -39 80t-47 36.5t-77 9.5h-97v-259h87q36 0 52.5 4.5t24 21.5t16.5 56l46 6v-227l-46 -8q-6 39 -13.5 57t-25.5 23t-54 5h-87v-271h129q48 0 75.5 10t44 38t30.5 82h55
l-24 -184h-498zM400 752l-151 66q-19 8 -30.5 21.5t-11.5 34.5q0 17 12 32.5t31 15.5q9 0 17.5 -6t21.5 -17l131 -119z" />
    <glyph glyph-name="Eacute" unicode="&#xc9;" horiz-adv-x="637" 
d="M62 0v48l58 9q19 3 25 13t6 38v488q0 26 -6.5 35t-26.5 12l-56 9v48h463l37 -163l-52 -17q-20 53 -39 80t-47 36.5t-77 9.5h-97v-259h87q36 0 52.5 4.5t24 21.5t16.5 56l46 6v-227l-46 -8q-6 39 -13.5 57t-25.5 23t-54 5h-87v-271h129q48 0 75.5 10t44 38t30.5 82h55
l-24 -184h-498zM250 752l-20 28l131 119q13 11 21.5 17t17.5 6q19 0 31 -15.5t12 -32.5q0 -21 -11 -34.5t-31 -21.5z" />
    <glyph glyph-name="Ecircumflex" unicode="&#xca;" horiz-adv-x="637" 
d="M62 0v48l58 9q19 3 25 13t6 38v488q0 26 -6.5 35t-26.5 12l-56 9v48h463l37 -163l-52 -17q-20 53 -39 80t-47 36.5t-77 9.5h-97v-259h87q36 0 52.5 4.5t24 21.5t16.5 56l46 6v-227l-46 -8q-6 39 -13.5 57t-25.5 23t-54 5h-87v-271h129q48 0 75.5 10t44 38t30.5 82h55
l-24 -184h-498zM186 750l-24 25l125 137q9 10 19 16t20 6q11 0 19 -6.5t22 -21.5l121 -130l-25 -26l-137 84z" />
    <glyph glyph-name="Edieresis" unicode="&#xcb;" horiz-adv-x="637" 
d="M62 0v48l58 9q19 3 25 13t6 38v488q0 26 -6.5 35t-26.5 12l-56 9v48h463l37 -163l-52 -17q-20 53 -39 80t-47 36.5t-77 9.5h-97v-259h87q36 0 52.5 4.5t24 21.5t16.5 56l46 6v-227l-46 -8q-6 39 -13.5 57t-25.5 23t-54 5h-87v-271h129q48 0 75.5 10t44 38t30.5 82h55
l-24 -184h-498zM425 771q-28 0 -46.5 17.5t-18.5 45.5t18.5 46t46.5 18q29 0 47 -17.5t18 -45.5t-18 -46t-47 -18zM222 771q-28 0 -46 17.5t-18 45.5t18 46t46 18q29 0 47.5 -17.5t18.5 -45.5t-18.5 -46t-47.5 -18z" />
    <glyph glyph-name="Igrave" unicode="&#xcc;" horiz-adv-x="409" 
d="M62 0v48l62 9q19 3 25 13t6 38v488q0 26 -6.5 34.5t-26.5 12.5l-60 9v48h285v-48l-63 -9q-18 -3 -24 -13.5t-6 -37.5v-488q0 -25 6.5 -34t25.5 -13l61 -9v-48h-285zM279 752l-151 66q-19 8 -30.5 21.5t-11.5 34.5q0 17 12 32.5t31 15.5q9 0 17.5 -6t21.5 -17l131 -119z
" />
    <glyph glyph-name="Iacute" unicode="&#xcd;" horiz-adv-x="409" 
d="M62 0v48l62 9q19 3 25 13t6 38v488q0 26 -6.5 34.5t-26.5 12.5l-60 9v48h285v-48l-63 -9q-18 -3 -24 -13.5t-6 -37.5v-488q0 -25 6.5 -34t25.5 -13l61 -9v-48h-285zM129 752l-20 28l131 119q13 11 21.5 17t17.5 6q19 0 31 -15.5t12 -32.5q0 -21 -11 -34.5t-31 -21.5z" />
    <glyph glyph-name="Icircumflex" unicode="&#xce;" horiz-adv-x="409" 
d="M62 0v48l62 9q19 3 25 13t6 38v488q0 26 -6.5 34.5t-26.5 12.5l-60 9v48h285v-48l-63 -9q-18 -3 -24 -13.5t-6 -37.5v-488q0 -25 6.5 -34t25.5 -13l61 -9v-48h-285zM65 750l-24 25l125 137q9 10 19 16t20 6q11 0 19 -6.5t22 -21.5l121 -130l-25 -26l-137 84z" />
    <glyph glyph-name="Idieresis" unicode="&#xcf;" horiz-adv-x="409" 
d="M62 0v48l62 9q19 3 25 13t6 38v488q0 26 -6.5 34.5t-26.5 12.5l-60 9v48h285v-48l-63 -9q-18 -3 -24 -13.5t-6 -37.5v-488q0 -25 6.5 -34t25.5 -13l61 -9v-48h-285zM304 771q-28 0 -46.5 17.5t-18.5 45.5t18.5 46t46.5 18q29 0 47 -17.5t18 -45.5t-18 -46t-47 -18z
M101 771q-28 0 -46 17.5t-18 45.5t18 46t46 18q29 0 47.5 -17.5t18.5 -45.5t-18.5 -46t-47.5 -18z" />
    <glyph glyph-name="Eth" unicode="&#xd0;" horiz-adv-x="765" 
d="M41 330l8 63h392v-63h-400zM62 0v48l58 9q19 3 25 13t6 38v488q0 26 -6.5 34.5t-26.5 12.5l-56 9v48h287q119 0 200.5 -38t123.5 -111t42 -179q0 -87 -26.5 -156t-77.5 -117.5t-124 -73.5t-166 -25h-259zM322 55q74 0 127.5 18.5t89 56.5t52.5 96.5t17 137.5
q0 92 -30.5 155t-90 95t-146.5 32h-91v-586q11 -2 32 -3.5t40 -1.5z" />
    <glyph glyph-name="Ntilde" unicode="&#xd1;" horiz-adv-x="835" 
d="M62 0v48l58 9q18 3 24 13.5t6 37.5v488q0 26 -6 34.5t-26 12.5l-56 9v48h222l332 -571v8v459q0 26 -6.5 34.5t-26.5 12.5l-55 9v48h245v-48l-57 -9q-19 -3 -25 -13t-6 -38v-592h-103l-362 609v-8v-497q0 -25 6.5 -34t25.5 -13l56 -9v-48h-246zM489 777q-19 0 -39.5 5.5
t-52.5 18.5q-30 12 -47.5 18t-25.5 6q-14 0 -23.5 -7t-23.5 -29l-31 19q26 56 45 75t48 19q15 0 34.5 -5.5t54.5 -20.5q22 -9 36.5 -14.5t24 -7.5t15.5 -2q12 0 20 7t24 30l31 -19q-26 -54 -45 -73.5t-45 -19.5z" />
    <glyph glyph-name="Ograve" unicode="&#xd2;" horiz-adv-x="760" 
d="M378 -14q-98 0 -172 44t-115 122.5t-41 183.5q0 87 23.5 156.5t67.5 119t106.5 76t139.5 26.5q97 0 169.5 -43t113 -121t40.5 -182q0 -114 -41.5 -200t-116.5 -134t-174 -48zM390 53q104 0 157.5 75.5t53.5 220.5q0 95 -27 162t-77.5 103t-122.5 36q-104 0 -161 -76.5
t-57 -216.5q0 -93 28.5 -161.5t81 -105.5t124.5 -37zM457 752l-151 66q-19 8 -30.5 21.5t-11.5 34.5q0 17 12 32.5t31 15.5q9 0 17.5 -6t21.5 -17l131 -119z" />
    <glyph glyph-name="Oacute" unicode="&#xd3;" horiz-adv-x="760" 
d="M378 -14q-98 0 -172 44t-115 122.5t-41 183.5q0 87 23.5 156.5t67.5 119t106.5 76t139.5 26.5q97 0 169.5 -43t113 -121t40.5 -182q0 -114 -41.5 -200t-116.5 -134t-174 -48zM390 53q104 0 157.5 75.5t53.5 220.5q0 95 -27 162t-77.5 103t-122.5 36q-104 0 -161 -76.5
t-57 -216.5q0 -93 28.5 -161.5t81 -105.5t124.5 -37zM307 752l-20 28l131 119q13 11 21.5 17t17.5 6q19 0 31 -15.5t12 -32.5q0 -21 -11 -34.5t-31 -21.5z" />
    <glyph glyph-name="Ocircumflex" unicode="&#xd4;" horiz-adv-x="760" 
d="M378 -14q-98 0 -172 44t-115 122.5t-41 183.5q0 87 23.5 156.5t67.5 119t106.5 76t139.5 26.5q97 0 169.5 -43t113 -121t40.5 -182q0 -114 -41.5 -200t-116.5 -134t-174 -48zM390 53q104 0 157.5 75.5t53.5 220.5q0 95 -27 162t-77.5 103t-122.5 36q-104 0 -161 -76.5
t-57 -216.5q0 -93 28.5 -161.5t81 -105.5t124.5 -37zM243 750l-24 25l125 137q9 10 19 16t20 6q11 0 19 -6.5t22 -21.5l121 -130l-25 -26l-137 84z" />
    <glyph glyph-name="Otilde" unicode="&#xd5;" horiz-adv-x="760" 
d="M378 -14q-98 0 -172 44t-115 122.5t-41 183.5q0 87 23.5 156.5t67.5 119t106.5 76t139.5 26.5q97 0 169.5 -43t113 -121t40.5 -182q0 -114 -41.5 -200t-116.5 -134t-174 -48zM390 53q104 0 157.5 75.5t53.5 220.5q0 95 -27 162t-77.5 103t-122.5 36q-104 0 -161 -76.5
t-57 -216.5q0 -93 28.5 -161.5t81 -105.5t124.5 -37zM459 777q-19 0 -39.5 5.5t-52.5 18.5q-30 12 -47.5 18t-25.5 6q-14 0 -23.5 -7t-23.5 -29l-31 19q26 56 45 75t48 19q15 0 34.5 -5.5t54.5 -20.5q22 -9 36.5 -14.5t24 -7.5t15.5 -2q12 0 20 7t24 30l31 -19
q-26 -54 -45 -73.5t-45 -19.5z" />
    <glyph glyph-name="Odieresis" unicode="&#xd6;" horiz-adv-x="760" 
d="M378 -14q-98 0 -172 44t-115 122.5t-41 183.5q0 87 23.5 156.5t67.5 119t106.5 76t139.5 26.5q97 0 169.5 -43t113 -121t40.5 -182q0 -114 -41.5 -200t-116.5 -134t-174 -48zM390 53q104 0 157.5 75.5t53.5 220.5q0 95 -27 162t-77.5 103t-122.5 36q-104 0 -161 -76.5
t-57 -216.5q0 -93 28.5 -161.5t81 -105.5t124.5 -37zM482 771q-28 0 -46.5 17.5t-18.5 45.5t18.5 46t46.5 18q29 0 47 -17.5t18 -45.5t-18 -46t-47 -18zM279 771q-28 0 -46 17.5t-18 45.5t18 46t46 18q29 0 47.5 -17.5t18.5 -45.5t-18.5 -46t-47.5 -18z" />
    <glyph glyph-name="multiply" unicode="&#xd7;" horiz-adv-x="582" 
d="M429 123l-139 140l-138 -137l-42 42l137 139l-138 136l45 42l136 -135l141 141l42 -44l-140 -141l140 -139z" />
    <glyph glyph-name="Oslash" unicode="&#xd8;" horiz-adv-x="760" 
d="M36 -14l606 728h80l-606 -728h-80zM378 -14q-98 0 -172 44t-115 122.5t-41 183.5q0 87 23.5 156.5t67.5 119t106.5 76t139.5 26.5q97 0 169.5 -43t113 -121t40.5 -182q0 -114 -41.5 -200t-116.5 -134t-174 -48zM390 53q104 0 157.5 75.5t53.5 220.5q0 95 -27 162
t-77.5 103t-122.5 36q-104 0 -161 -76.5t-57 -216.5q0 -93 28.5 -161.5t81 -105.5t124.5 -37z" />
    <glyph glyph-name="Ugrave" unicode="&#xd9;" horiz-adv-x="810" 
d="M404 -14q-90 0 -149 30.5t-88 92.5t-29 156v331q0 26 -6.5 34.5t-26.5 12.5l-56 9v48h276v-48l-58 -9q-18 -3 -24 -13.5t-6 -37.5v-320q0 -76 18.5 -124t58.5 -70t104 -22q65 0 106.5 24t62 73.5t20.5 125.5v317q0 26 -6.5 34.5t-26.5 12.5l-55 9v48h246v-48l-57 -9
q-19 -3 -25 -13t-6 -38v-301q0 -152 -68 -228.5t-205 -76.5zM491 752l-151 66q-19 8 -30.5 21.5t-11.5 34.5q0 17 12 32.5t31 15.5q9 0 17.5 -6t21.5 -17l131 -119z" />
    <glyph glyph-name="Uacute" unicode="&#xda;" horiz-adv-x="810" 
d="M404 -14q-90 0 -149 30.5t-88 92.5t-29 156v331q0 26 -6.5 34.5t-26.5 12.5l-56 9v48h276v-48l-58 -9q-18 -3 -24 -13.5t-6 -37.5v-320q0 -76 18.5 -124t58.5 -70t104 -22q65 0 106.5 24t62 73.5t20.5 125.5v317q0 26 -6.5 34.5t-26.5 12.5l-55 9v48h246v-48l-57 -9
q-19 -3 -25 -13t-6 -38v-301q0 -152 -68 -228.5t-205 -76.5zM341 752l-20 28l131 119q13 11 21.5 17t17.5 6q19 0 31 -15.5t12 -32.5q0 -21 -11 -34.5t-31 -21.5z" />
    <glyph glyph-name="Ucircumflex" unicode="&#xdb;" horiz-adv-x="810" 
d="M404 -14q-90 0 -149 30.5t-88 92.5t-29 156v331q0 26 -6.5 34.5t-26.5 12.5l-56 9v48h276v-48l-58 -9q-18 -3 -24 -13.5t-6 -37.5v-320q0 -76 18.5 -124t58.5 -70t104 -22q65 0 106.5 24t62 73.5t20.5 125.5v317q0 26 -6.5 34.5t-26.5 12.5l-55 9v48h246v-48l-57 -9
q-19 -3 -25 -13t-6 -38v-301q0 -152 -68 -228.5t-205 -76.5zM277 750l-24 25l125 137q9 10 19 16t20 6q11 0 19 -6.5t22 -21.5l121 -130l-25 -26l-137 84z" />
    <glyph glyph-name="Udieresis" unicode="&#xdc;" horiz-adv-x="810" 
d="M404 -14q-90 0 -149 30.5t-88 92.5t-29 156v331q0 26 -6.5 34.5t-26.5 12.5l-56 9v48h276v-48l-58 -9q-18 -3 -24 -13.5t-6 -37.5v-320q0 -76 18.5 -124t58.5 -70t104 -22q65 0 106.5 24t62 73.5t20.5 125.5v317q0 26 -6.5 34.5t-26.5 12.5l-55 9v48h246v-48l-57 -9
q-19 -3 -25 -13t-6 -38v-301q0 -152 -68 -228.5t-205 -76.5zM516 771q-28 0 -46.5 17.5t-18.5 45.5t18.5 46t46.5 18q29 0 47 -17.5t18 -45.5t-18 -46t-47 -18zM313 771q-28 0 -46 17.5t-18 45.5t18 46t46 18q29 0 47.5 -17.5t18.5 -45.5t-18.5 -46t-47.5 -18z" />
    <glyph glyph-name="Yacute" unicode="&#xdd;" horiz-adv-x="716" 
d="M213 0v48l62 9q19 3 25 13t6 38v185l-187 298q-16 27 -28 37t-32 14l-37 7v51h279v-48l-55 -7q-23 -2 -28 -15.5t9 -34.5l146 -237h5l138 233q14 21 10 33.5t-27 17.5l-46 11v47h241v-48l-49 -8q-16 -2 -26.5 -12.5t-30.5 -42.5l-183 -297v-188q0 -25 6.5 -34t25.5 -13
l61 -9v-48h-285zM300 752l-20 28l131 119q13 11 21.5 17t17.5 6q19 0 31 -15.5t12 -32.5q0 -21 -11 -34.5t-31 -21.5z" />
    <glyph glyph-name="Thorn" unicode="&#xde;" horiz-adv-x="602" 
d="M62 0v48l58 9q19 3 25 13t6 38v484q0 28 -6 38t-25 13l-58 9v48h295v-48l-70 -8q-22 -3 -29.5 -13t-7.5 -37v-35h58q90 0 150 -21t89.5 -63.5t29.5 -106.5q0 -49 -18 -89t-50.5 -68.5t-78 -44t-101.5 -15.5h-39h-40v-45q0 -27 7.5 -37t29.5 -13l70 -8v-48h-295zM250 205
h29h29q80 0 121 40.5t41 119.5q0 73 -40.5 106.5t-128.5 33.5h-51v-300z" />
    <glyph glyph-name="germandbls" unicode="&#xdf;" horiz-adv-x="677" 
d="M305 -14l-16 172l56 4q25 -70 60 -93t73 -23q41 0 66 21.5t25 62.5q0 32 -16.5 51.5t-42.5 33.5t-55 26.5t-55 29.5t-42.5 43.5t-16.5 68.5q0 32 12 57t29.5 47t35 44.5t29.5 48.5t12 60q0 37 -16 56t-40.5 25.5t-50.5 6.5q-54 0 -92 -29t-38 -100v-599h-181v48l57 9
q22 4 26.5 16.5t4.5 34.5v336h-80v50l80 10v41q0 73 28 126t79.5 82t123.5 29q47 0 88.5 -12t67.5 -40.5t26 -78.5q0 -37 -16.5 -66.5t-38 -56.5t-38 -55t-16.5 -61q0 -28 16 -47t41 -32.5t52.5 -27.5t52.5 -33t41 -47.5t16 -72.5q0 -42 -19 -80t-58 -62t-99 -24
q-41 0 -71 12.5t-47 24.5l-11 -37h-42z" />
    <glyph glyph-name="agrave" unicode="&#xe0;" horiz-adv-x="539" 
d="M192 -14q-63 0 -101.5 37t-38.5 98q0 55 27.5 89t90.5 51.5t169 22.5v68q0 62 -26 90t-82 28q-27 0 -53.5 -8.5t-38.5 -21.5q26 -43 26 -56q0 -19 -15.5 -32t-38.5 -13q-27 0 -42 13.5t-15 38.5q0 35 26.5 64.5t70 47.5t94.5 18q95 0 141 -44t46 -136v-241q0 -44 45 -44
q11 0 22 2t25 6l10 -38q-18 -17 -44 -28.5t-48 -11.5q-43 0 -66.5 22.5t-28.5 66.5q-56 -89 -155 -89zM230 55q47 0 78 30.5t31 75.5v71q-97 0 -143.5 -24.5t-46.5 -75.5q0 -36 22 -56.5t59 -20.5zM303 580l-132 88q-16 11 -25.5 24t-9.5 29q0 19 13 35t35 16q11 0 19 -7
t20 -22l104 -138z" />
    <glyph glyph-name="aacute" unicode="&#xe1;" horiz-adv-x="539" 
d="M192 -14q-63 0 -101.5 37t-38.5 98q0 55 27.5 89t90.5 51.5t169 22.5v68q0 62 -26 90t-82 28q-27 0 -53.5 -8.5t-38.5 -21.5q26 -43 26 -56q0 -19 -15.5 -32t-38.5 -13q-27 0 -42 13.5t-15 38.5q0 35 26.5 64.5t70 47.5t94.5 18q95 0 141 -44t46 -136v-241q0 -44 45 -44
q11 0 22 2t25 6l10 -38q-18 -17 -44 -28.5t-48 -11.5q-43 0 -66.5 22.5t-28.5 66.5q-56 -89 -155 -89zM230 55q47 0 78 30.5t31 75.5v71q-97 0 -143.5 -24.5t-46.5 -75.5q0 -36 22 -56.5t59 -20.5zM195 580l-24 25l104 138q11 15 20 22t19 7q22 0 35 -16t13 -35
q0 -16 -9 -29t-26 -24z" />
    <glyph glyph-name="acircumflex" unicode="&#xe2;" horiz-adv-x="539" 
d="M192 -14q-63 0 -101.5 37t-38.5 98q0 55 27.5 89t90.5 51.5t169 22.5v68q0 62 -26 90t-82 28q-27 0 -53.5 -8.5t-38.5 -21.5q26 -43 26 -56q0 -19 -15.5 -32t-38.5 -13q-27 0 -42 13.5t-15 38.5q0 35 26.5 64.5t70 47.5t94.5 18q95 0 141 -44t46 -136v-241q0 -44 45 -44
q11 0 22 2t25 6l10 -38q-18 -17 -44 -28.5t-48 -11.5q-43 0 -66.5 22.5t-28.5 66.5q-56 -89 -155 -89zM230 55q47 0 78 30.5t31 75.5v71q-97 0 -143.5 -24.5t-46.5 -75.5q0 -36 22 -56.5t59 -20.5zM123 580l-26 25l114 152q9 11 19 16.5t20 5.5q11 0 19.5 -5.5t21.5 -22.5
l109 -145l-27 -26l-123 100z" />
    <glyph glyph-name="atilde" unicode="&#xe3;" horiz-adv-x="539" 
d="M192 -14q-63 0 -101.5 37t-38.5 98q0 55 27.5 89t90.5 51.5t169 22.5v68q0 62 -26 90t-82 28q-27 0 -53.5 -8.5t-38.5 -21.5q26 -43 26 -56q0 -19 -15.5 -32t-38.5 -13q-27 0 -42 13.5t-15 38.5q0 35 26.5 64.5t70 47.5t94.5 18q95 0 141 -44t46 -136v-241q0 -44 45 -44
q11 0 22 2t25 6l10 -38q-18 -17 -44 -28.5t-48 -11.5q-43 0 -66.5 22.5t-28.5 66.5q-56 -89 -155 -89zM230 55q47 0 78 30.5t31 75.5v71q-97 0 -143.5 -24.5t-46.5 -75.5q0 -36 22 -56.5t59 -20.5zM322 620q-12 0 -25 2t-28.5 7.5t-36.5 14.5q-40 17 -51.5 21t-18.5 4
q-13 0 -22.5 -7t-24.5 -30l-31 19q25 53 44 72t49 19q17 0 35 -5t51 -19q24 -9 38 -14.5t22.5 -7.5t13.5 -2q13 0 21.5 7.5t22.5 29.5l31 -19q-25 -54 -44 -73t-46 -19z" />
    <glyph glyph-name="adieresis" unicode="&#xe4;" horiz-adv-x="539" 
d="M192 -14q-63 0 -101.5 37t-38.5 98q0 55 27.5 89t90.5 51.5t169 22.5v68q0 62 -26 90t-82 28q-27 0 -53.5 -8.5t-38.5 -21.5q26 -43 26 -56q0 -19 -15.5 -32t-38.5 -13q-27 0 -42 13.5t-15 38.5q0 35 26.5 64.5t70 47.5t94.5 18q95 0 141 -44t46 -136v-241q0 -44 45 -44
q11 0 22 2t25 6l10 -38q-18 -17 -44 -28.5t-48 -11.5q-43 0 -66.5 22.5t-28.5 66.5q-56 -89 -155 -89zM230 55q47 0 78 30.5t31 75.5v71q-97 0 -143.5 -24.5t-46.5 -75.5q0 -36 22 -56.5t59 -20.5zM346 620q-28 0 -46 17.5t-18 44.5t18 45t46 18t46 -17.5t18 -44.5t-18 -45
t-46 -18zM147 620q-27 0 -45 17.5t-18 44.5t18 45t45 18q29 0 47 -17.5t18 -44.5t-18 -45t-47 -18z" />
    <glyph glyph-name="aring" unicode="&#xe5;" horiz-adv-x="539" 
d="M192 -14q-63 0 -101.5 37t-38.5 98q0 55 27.5 89t90.5 51.5t169 22.5v68q0 62 -26 90t-82 28q-27 0 -53.5 -8.5t-38.5 -21.5q26 -43 26 -56q0 -19 -15.5 -32t-38.5 -13q-27 0 -42 13.5t-15 38.5q0 35 26.5 64.5t70 47.5t94.5 18q95 0 141 -44t46 -136v-241q0 -44 45 -44
q11 0 22 2t25 6l10 -38q-18 -17 -44 -28.5t-48 -11.5q-43 0 -66.5 22.5t-28.5 66.5q-56 -89 -155 -89zM230 55q47 0 78 30.5t31 75.5v71q-97 0 -143.5 -24.5t-46.5 -75.5q0 -36 22 -56.5t59 -20.5zM248 582q-56 0 -82 28.5t-26 74.5q0 42 27.5 72t82.5 30q53 0 79.5 -27.5
t26.5 -72.5q0 -46 -27.5 -75.5t-80.5 -29.5zM249 629q28 0 38 17t10 39t-12 39t-38 17q-27 0 -38 -17.5t-11 -38.5t11.5 -38.5t39.5 -17.5z" />
    <glyph glyph-name="ae" unicode="&#xe6;" horiz-adv-x="804" 
d="M192 -14q-32 0 -64.5 13t-54 42.5t-21.5 79.5q0 65 41.5 103t113.5 48q30 5 66 8t66 4v68q0 68 -29 93t-79 25q-32 0 -57 -9.5t-35 -20.5q14 -25 20 -37.5t6 -18.5q0 -17 -14.5 -31t-39.5 -14q-32 0 -44.5 16t-12.5 36q0 36 27 65.5t71 47t93 17.5q50 0 92 -14.5
t67 -52.5q67 67 171 67q52 0 93.5 -21t66 -60.5t24.5 -95.5q0 -24 -3.5 -49t-10.5 -49h-313q3 -85 44 -135.5t117 -50.5q50 0 84.5 20.5t53.5 39.5l35 -35q-18 -25 -47 -47.5t-66.5 -37t-82.5 -14.5q-69 0 -118.5 28t-78.5 74q-23 -42 -52.5 -64t-62.5 -30t-66 -8zM230 55
q20 0 45.5 10t44.5 34t19 65v68q-28 0 -53.5 -3t-43.5 -6q-54 -9 -73.5 -35.5t-19.5 -55.5q0 -42 25 -59.5t56 -17.5zM432 302h230q2 10 2.5 21.5t0.5 24.5q0 60 -26.5 90t-74.5 30t-75.5 -25t-40 -63t-16.5 -78z" />
    <glyph glyph-name="ccedilla" unicode="&#xe7;" horiz-adv-x="499" 
d="M282 -14q-72 0 -125 32t-82 90.5t-29 138.5q0 83 30.5 144.5t85.5 95.5t128 34q51 0 91.5 -17t64 -46.5t23.5 -67.5q0 -30 -18 -47.5t-48 -17.5q-18 0 -31.5 6t-20.5 16.5t-7 25.5q0 12 6 27t22 41q-19 14 -39 19t-51 5q-39 0 -69.5 -25t-48 -69.5t-17.5 -102.5
q0 -95 43 -150t117 -55q38 0 71 13.5t58 38.5l34 -35q-32 -43 -82 -68.5t-106 -25.5zM263 -229q-35 0 -61 15.5t-34 24.5l24 37q13 -10 30.5 -16t33.5 -6q20 0 35 10.5t15 32.5q0 21 -13 29.5t-37 8.5q-10 0 -16.5 -0.5t-13.5 -2.5l-8 21l35 88h46l-27 -70q48 6 77 -13.5
t29 -62.5q0 -42 -28 -69t-87 -27z" />
    <glyph glyph-name="egrave" unicode="&#xe8;" horiz-adv-x="519" 
d="M285 -14q-73 0 -126.5 32t-83 91t-29.5 138q0 83 30.5 144.5t85.5 95.5t128 34q83 0 133.5 -48.5t50.5 -128.5q0 -21 -3.5 -46t-10.5 -52h-313q3 -88 45.5 -137t115.5 -49q38 0 74 16t64 44l35 -35q-22 -30 -53.5 -52.5t-68 -34.5t-74.5 -12zM147 302h230q2 10 2.5 21.5
t0.5 24.5q0 59 -25.5 89.5t-75.5 30.5q-57 0 -90.5 -42.5t-41.5 -123.5zM333 580l-132 88q-16 11 -25.5 24t-9.5 29q0 19 13 35t35 16q11 0 19 -7t20 -22l104 -138z" />
    <glyph glyph-name="eacute" unicode="&#xe9;" horiz-adv-x="520" 
d="M285 -14q-73 0 -126.5 32t-83 91t-29.5 138q0 83 30.5 144.5t85.5 95.5t128 34q83 0 133.5 -48.5t50.5 -128.5q0 -21 -3.5 -46t-10.5 -52h-313q3 -88 45.5 -137t115.5 -49q38 0 74 16t64 44l35 -35q-22 -30 -53.5 -52.5t-68 -34.5t-74.5 -12zM147 302h230q2 10 2.5 21.5
t0.5 24.5q0 59 -25.5 89.5t-75.5 30.5q-57 0 -90.5 -42.5t-41.5 -123.5zM226 580l-24 25l104 138q11 15 20 22t19 7q22 0 35 -16t13 -35q0 -16 -9 -29t-26 -24z" />
    <glyph glyph-name="ecircumflex" unicode="&#xea;" horiz-adv-x="519" 
d="M285 -14q-73 0 -126.5 32t-83 91t-29.5 138q0 83 30.5 144.5t85.5 95.5t128 34q83 0 133.5 -48.5t50.5 -128.5q0 -21 -3.5 -46t-10.5 -52h-313q3 -88 45.5 -137t115.5 -49q38 0 74 16t64 44l35 -35q-22 -30 -53.5 -52.5t-68 -34.5t-74.5 -12zM147 302h230q2 10 2.5 21.5
t0.5 24.5q0 59 -25.5 89.5t-75.5 30.5q-57 0 -90.5 -42.5t-41.5 -123.5zM153 580l-26 25l114 152q9 11 19 16.5t20 5.5q11 0 19.5 -5.5t21.5 -22.5l109 -145l-27 -26l-123 100z" />
    <glyph glyph-name="edieresis" unicode="&#xeb;" horiz-adv-x="520" 
d="M285 -14q-73 0 -126.5 32t-83 91t-29.5 138q0 83 30.5 144.5t85.5 95.5t128 34q83 0 133.5 -48.5t50.5 -128.5q0 -21 -3.5 -46t-10.5 -52h-313q3 -88 45.5 -137t115.5 -49q38 0 74 16t64 44l35 -35q-22 -30 -53.5 -52.5t-68 -34.5t-74.5 -12zM147 302h230q2 10 2.5 21.5
t0.5 24.5q0 59 -25.5 89.5t-75.5 30.5q-57 0 -90.5 -42.5t-41.5 -123.5zM377 620q-28 0 -46 17.5t-18 44.5t18 45t46 18t46 -17.5t18 -44.5t-18 -45t-46 -18zM178 620q-27 0 -45 17.5t-18 44.5t18 45t45 18q29 0 47 -17.5t18 -44.5t-18 -45t-47 -18z" />
    <glyph glyph-name="igrave" unicode="&#xec;" horiz-adv-x="333" 
d="M40 0v49l57 9q20 3 25.5 13t5.5 38v273q0 37 -6.5 48.5t-29.5 14.5l-48 7l7 50l158 8l12 -5v-400q0 -25 6.5 -34.5t25.5 -12.5l56 -10v-48h-269zM207 580l-132 88q-16 11 -25.5 24t-9.5 29q0 19 13 35t35 16q11 0 19 -7t20 -22l104 -138z" />
    <glyph glyph-name="iacute" unicode="&#xed;" horiz-adv-x="333" 
d="M40 0v49l57 9q20 3 25.5 13t5.5 38v273q0 37 -6.5 48.5t-29.5 14.5l-48 7l7 50l158 8l12 -5v-400q0 -25 6.5 -34.5t25.5 -12.5l56 -10v-48h-269zM99 580l-24 25l104 138q11 15 20 22t19 7q22 0 35 -16t13 -35q0 -16 -9 -29t-26 -24z" />
    <glyph glyph-name="icircumflex" unicode="&#xee;" horiz-adv-x="333" 
d="M40 0v49l57 9q20 3 25.5 13t5.5 38v273q0 37 -6.5 48.5t-29.5 14.5l-48 7l7 50l158 8l12 -5v-400q0 -25 6.5 -34.5t25.5 -12.5l56 -10v-48h-269zM27 580l-26 25l114 152q9 11 19 16.5t20 5.5q11 0 19.5 -5.5t21.5 -22.5l109 -145l-27 -26l-123 100z" />
    <glyph glyph-name="idieresis" unicode="&#xef;" horiz-adv-x="333" 
d="M40 0v49l57 9q20 3 25.5 13t5.5 38v273q0 37 -6.5 48.5t-29.5 14.5l-48 7l7 50l158 8l12 -5v-400q0 -25 6.5 -34.5t25.5 -12.5l56 -10v-48h-269zM250 620q-28 0 -46 17.5t-18 44.5t18 45t46 18t46 -17.5t18 -44.5t-18 -45t-46 -18zM51 620q-27 0 -45 17.5t-18 44.5t18 45
t45 18q29 0 47 -17.5t18 -44.5t-18 -45t-47 -18z" />
    <glyph glyph-name="eth" unicode="&#xf0;" horiz-adv-x="579" 
d="M277 -14q-105 0 -167.5 67.5t-62.5 187.5q0 68 20 116t52.5 79t72.5 45.5t80 14.5q50 0 93 -22.5t68 -61.5l-2 14q-7 58 -28.5 115t-56.5 96l-96 -73l-25 45l80 58q-30 23 -71 38.5t-93 20.5l9 45q53 -3 108.5 -15t104.5 -42l97 75l25 -45l-78 -60q35 -30 63.5 -75.5
t45 -109.5t16.5 -151q0 -170 -64.5 -266t-190.5 -96zM293 47q65 0 100 54t35 146q0 31 -2.5 62.5t-15.5 57.5q-14 29 -47 48t-75 19q-57 0 -97.5 -46t-40.5 -144q0 -97 37 -147t106 -50z" />
    <glyph glyph-name="ntilde" unicode="&#xf1;" horiz-adv-x="662" 
d="M55 0v47l48 9q16 3 21 12.5t5 35.5v282q0 36 -6 47.5t-28 14.5l-49 7l7 48l139 11l12 -7l7 -89h3q18 32 45.5 55t61 35.5t68.5 12.5q53 0 89.5 -19.5t55.5 -57.5t19 -94v-254q0 -22 6 -30t25 -11l47 -8v-47h-245v46l44 8q19 4 24.5 12t5.5 30v225q0 47 -9.5 75
t-31.5 40.5t-59 12.5q-63 0 -100.5 -38t-37.5 -101v-210q0 -23 5 -31.5t20 -11.5l53 -11v-46h-245zM413 620q-12 0 -25 2t-28.5 7.5t-36.5 14.5q-40 17 -51.5 21t-18.5 4q-13 0 -22.5 -7t-24.5 -30l-31 19q25 53 44 72t49 19q17 0 35 -5t51 -19q24 -9 38 -14.5t22.5 -7.5
t13.5 -2q13 0 21.5 7.5t22.5 29.5l31 -19q-25 -54 -44 -73t-46 -19z" />
    <glyph glyph-name="ograve" unicode="&#xf2;" horiz-adv-x="586" 
d="M289 -14q-74 0 -129 31.5t-84.5 89t-29.5 135.5q0 86 31 148.5t89 96.5t137 34q73 0 126 -31t82 -88t29 -135q0 -85 -31 -148.5t-87 -98t-133 -34.5zM303 48q65 0 100 50.5t35 144.5q0 101 -40.5 160t-110.5 59q-67 0 -103.5 -49t-36.5 -141q0 -105 41.5 -164.5
t114.5 -59.5zM349 580l-132 88q-16 11 -25.5 24t-9.5 29q0 19 13 35t35 16q11 0 19 -7t20 -22l104 -138z" />
    <glyph glyph-name="oacute" unicode="&#xf3;" horiz-adv-x="587" 
d="M289 -14q-74 0 -129 31.5t-84.5 89t-29.5 135.5q0 86 31 148.5t89 96.5t137 34q73 0 126 -31t82 -88t29 -135q0 -85 -31 -148.5t-87 -98t-133 -34.5zM303 48q65 0 100 50.5t35 144.5q0 101 -40.5 160t-110.5 59q-67 0 -103.5 -49t-36.5 -141q0 -105 41.5 -164.5
t114.5 -59.5zM243 580l-24 25l104 138q11 15 20 22t19 7q22 0 35 -16t13 -35q0 -16 -9 -29t-26 -24z" />
    <glyph glyph-name="ocircumflex" unicode="&#xf4;" horiz-adv-x="586" 
d="M289 -14q-74 0 -129 31.5t-84.5 89t-29.5 135.5q0 86 31 148.5t89 96.5t137 34q73 0 126 -31t82 -88t29 -135q0 -85 -31 -148.5t-87 -98t-133 -34.5zM303 48q65 0 100 50.5t35 144.5q0 101 -40.5 160t-110.5 59q-67 0 -103.5 -49t-36.5 -141q0 -105 41.5 -164.5
t114.5 -59.5zM169 580l-26 25l114 152q9 11 19 16.5t20 5.5q11 0 19.5 -5.5t21.5 -22.5l109 -145l-27 -26l-123 100z" />
    <glyph glyph-name="otilde" unicode="&#xf5;" horiz-adv-x="586" 
d="M289 -14q-74 0 -129 31.5t-84.5 89t-29.5 135.5q0 86 31 148.5t89 96.5t137 34q73 0 126 -31t82 -88t29 -135q0 -85 -31 -148.5t-87 -98t-133 -34.5zM303 48q65 0 100 50.5t35 144.5q0 101 -40.5 160t-110.5 59q-67 0 -103.5 -49t-36.5 -141q0 -105 41.5 -164.5
t114.5 -59.5zM368 620q-12 0 -25 2t-28.5 7.5t-36.5 14.5q-40 17 -51.5 21t-18.5 4q-13 0 -22.5 -7t-24.5 -30l-31 19q25 53 44 72t49 19q17 0 35 -5t51 -19q24 -9 38 -14.5t22.5 -7.5t13.5 -2q13 0 21.5 7.5t22.5 29.5l31 -19q-25 -54 -44 -73t-46 -19z" />
    <glyph glyph-name="odieresis" unicode="&#xf6;" horiz-adv-x="587" 
d="M289 -14q-74 0 -129 31.5t-84.5 89t-29.5 135.5q0 86 31 148.5t89 96.5t137 34q73 0 126 -31t82 -88t29 -135q0 -85 -31 -148.5t-87 -98t-133 -34.5zM303 48q65 0 100 50.5t35 144.5q0 101 -40.5 160t-110.5 59q-67 0 -103.5 -49t-36.5 -141q0 -105 41.5 -164.5
t114.5 -59.5zM392 620q-28 0 -46 17.5t-18 44.5t18 45t46 18t46 -17.5t18 -44.5t-18 -45t-46 -18zM193 620q-27 0 -45 17.5t-18 44.5t18 45t45 18q29 0 47 -17.5t18 -44.5t-18 -45t-47 -18z" />
    <glyph glyph-name="divide" unicode="&#xf7;" horiz-adv-x="582" 
d="M77 275v63h428v-63h-428zM290 88q-26 0 -45.5 17.5t-19.5 43.5t19.5 44t45.5 18q27 0 46.5 -17.5t19.5 -43.5t-19.5 -44t-46.5 -18zM290 398q-26 0 -45.5 17.5t-19.5 43.5t19.5 44t45.5 18q27 0 46.5 -17.5t19.5 -43.5t-19.5 -44t-46.5 -18z" />
    <glyph glyph-name="oslash" unicode="&#xf8;" horiz-adv-x="587" 
d="M5 -14l489 535h79l-489 -535h-79zM289 -14q-74 0 -129 31.5t-84.5 89t-29.5 135.5q0 86 31 148.5t89 96.5t137 34q73 0 126 -31t82 -88t29 -135q0 -85 -31 -148.5t-87 -98t-133 -34.5zM303 48q65 0 100 50.5t35 144.5q0 101 -40.5 160t-110.5 59q-67 0 -103.5 -49
t-36.5 -141q0 -105 41.5 -164.5t114.5 -59.5z" />
    <glyph glyph-name="ugrave" unicode="&#xf9;" horiz-adv-x="634" 
d="M265 -14q-52 0 -88 19.5t-54 57.5t-18 94v229q0 36 -6 47t-28 15l-44 7l8 48l151 11l12 -7v-321q0 -48 9 -76t30 -40t57 -12q62 0 98.5 37.5t36.5 101.5v189q0 36 -6 47t-28 15l-45 7l8 48l152 11l12 -7v-406q0 -24 6.5 -32.5t25.5 -12.5l50 -9v-47l-155 -6l-14 81h-3
q-26 -31 -52 -50.5t-54 -29t-61 -9.5zM352 580l-132 88q-16 11 -25.5 24t-9.5 29q0 19 13 35t35 16q11 0 19 -7t20 -22l104 -138z" />
    <glyph glyph-name="uacute" unicode="&#xfa;" horiz-adv-x="634" 
d="M265 -14q-52 0 -88 19.5t-54 57.5t-18 94v229q0 36 -6 47t-28 15l-44 7l8 48l151 11l12 -7v-321q0 -48 9 -76t30 -40t57 -12q62 0 98.5 37.5t36.5 101.5v189q0 36 -6 47t-28 15l-45 7l8 48l152 11l12 -7v-406q0 -24 6.5 -32.5t25.5 -12.5l50 -9v-47l-155 -6l-14 81h-3
q-26 -31 -52 -50.5t-54 -29t-61 -9.5zM256 580l-24 25l104 138q11 15 20 22t19 7q22 0 35 -16t13 -35q0 -16 -9 -29t-26 -24z" />
    <glyph glyph-name="ucircumflex" unicode="&#xfb;" horiz-adv-x="634" 
d="M265 -14q-52 0 -88 19.5t-54 57.5t-18 94v229q0 36 -6 47t-28 15l-44 7l8 48l151 11l12 -7v-321q0 -48 9 -76t30 -40t57 -12q62 0 98.5 37.5t36.5 101.5v189q0 36 -6 47t-28 15l-45 7l8 48l152 11l12 -7v-406q0 -24 6.5 -32.5t25.5 -12.5l50 -9v-47l-155 -6l-14 81h-3
q-26 -31 -52 -50.5t-54 -29t-61 -9.5zM185 580l-26 25l114 152q9 11 19 16.5t20 5.5q11 0 19.5 -5.5t21.5 -22.5l109 -145l-27 -26l-123 100z" />
    <glyph glyph-name="udieresis" unicode="&#xfc;" horiz-adv-x="634" 
d="M265 -14q-52 0 -88 19.5t-54 57.5t-18 94v229q0 36 -6 47t-28 15l-44 7l8 48l151 11l12 -7v-321q0 -48 9 -76t30 -40t57 -12q62 0 98.5 37.5t36.5 101.5v189q0 36 -6 47t-28 15l-45 7l8 48l152 11l12 -7v-406q0 -24 6.5 -32.5t25.5 -12.5l50 -9v-47l-155 -6l-14 81h-3
q-26 -31 -52 -50.5t-54 -29t-61 -9.5zM407 620q-28 0 -46 17.5t-18 44.5t18 45t46 18t46 -17.5t18 -44.5t-18 -45t-46 -18zM208 620q-27 0 -45 17.5t-18 44.5t18 45t45 18q29 0 47 -17.5t18 -44.5t-18 -45t-47 -18z" />
    <glyph glyph-name="yacute" unicode="&#xfd;" horiz-adv-x="576" 
d="M113 -229q-47 0 -75 21.5t-28 58.5q0 29 18.5 48t46.5 19q48 0 53 -36q1 -6 0 -20t-4 -37q21 -1 37 9t33 37.5t39 78.5l25 57l-165 392q-13 30 -20 38.5t-24 12.5l-35 8l10 49h238v-46l-48 -7q-20 -3 -24.5 -13.5t5.5 -36.5l111 -280h5l111 273q10 25 4.5 37t-27.5 17
l-44 10l10 46h209v-47l-37 -8q-17 -4 -25 -13t-22 -41l-193 -452q-28 -66 -55 -104.5t-57.5 -54.5t-71.5 -16zM256 580l-24 25l104 138q11 15 20 22t19 7q22 0 35 -16t13 -35q0 -16 -9 -29t-26 -24z" />
    <glyph glyph-name="thorn" unicode="&#xfe;" horiz-adv-x="615" 
d="M34 -219v48l48 8q17 3 23 14.5t6 32.5v760q0 32 -6.5 44t-36.5 16l-44 7l6 50l163 5l11 -11v-317v-11q17 24 38 45.5t53 35t80 13.5q89 0 141 -64.5t52 -183.5q0 -93 -28 -156.5t-80 -95.5t-124 -32q-46 0 -80.5 11t-51.5 22v-135q0 -24 7 -35t25 -14l61 -10v-47h-263z
M330 55q71 0 104.5 57t33.5 147q0 86 -28 138.5t-95 52.5q-34 0 -66.5 -13.5t-53.5 -45.5t-21 -88v-205q23 -21 59 -32t67 -11z" />
    <glyph glyph-name="ydieresis" unicode="&#xff;" horiz-adv-x="576" 
d="M113 -229q-47 0 -75 21.5t-28 58.5q0 29 18.5 48t46.5 19q48 0 53 -36q1 -6 0 -20t-4 -37q21 -1 37 9t33 37.5t39 78.5l25 57l-165 392q-13 30 -20 38.5t-24 12.5l-35 8l10 49h238v-46l-48 -7q-20 -3 -24.5 -13.5t5.5 -36.5l111 -280h5l111 273q10 25 4.5 37t-27.5 17
l-44 10l10 46h209v-47l-37 -8q-17 -4 -25 -13t-22 -41l-193 -452q-28 -66 -55 -104.5t-57.5 -54.5t-71.5 -16zM407 620q-28 0 -46 17.5t-18 44.5t18 45t46 18t46 -17.5t18 -44.5t-18 -45t-46 -18zM208 620q-27 0 -45 17.5t-18 44.5t18 45t45 18q29 0 47 -17.5t18 -44.5
t-18 -45t-47 -18z" />
    <glyph glyph-name="Amacron" unicode="&#x100;" horiz-adv-x="735" 
d="M15 0v48l48 8q18 4 26 13.5t20 40.5l211 590h106l209 -591q10 -26 16.5 -36t27.5 -15l41 -8v-50h-267v48l58 7q20 3 24.5 14t-5.5 36l-43 126h-268l-42 -122q-9 -25 -4 -37t27 -17l57 -8v-47h-242zM239 288h229l-111 329h-4zM231 795v73h284v-73h-284z" />
    <glyph glyph-name="amacron" unicode="&#x101;" horiz-adv-x="539" 
d="M192 -14q-63 0 -101.5 37t-38.5 98q0 55 27.5 89t90.5 51.5t169 22.5v68q0 62 -26 90t-82 28q-27 0 -53.5 -8.5t-38.5 -21.5q26 -43 26 -56q0 -19 -15.5 -32t-38.5 -13q-27 0 -42 13.5t-15 38.5q0 35 26.5 64.5t70 47.5t94.5 18q95 0 141 -44t46 -136v-241q0 -44 45 -44
q11 0 22 2t25 6l10 -38q-18 -17 -44 -28.5t-48 -11.5q-43 0 -66.5 22.5t-28.5 66.5q-56 -89 -155 -89zM230 55q47 0 78 30.5t31 75.5v71q-97 0 -143.5 -24.5t-46.5 -75.5q0 -36 22 -56.5t59 -20.5zM108 635v73h280v-73h-280z" />
    <glyph glyph-name="Abreve" unicode="&#x102;" horiz-adv-x="735" 
d="M15 0v48l48 8q18 4 26 13.5t20 40.5l211 590h106l209 -591q10 -26 16.5 -36t27.5 -15l41 -8v-50h-267v48l58 7q20 3 24.5 14t-5.5 36l-43 126h-268l-42 -122q-9 -25 -4 -37t27 -17l57 -8v-47h-242zM239 288h229l-111 329h-4zM370 752q-50 0 -83 23t-50.5 60.5t-22.5 80.5
l40 12q14 -49 43 -72.5t78 -23.5q50 0 79.5 26t40.5 69l38 -10q-3 -39 -22 -77t-54 -63t-87 -25z" />
    <glyph glyph-name="abreve" unicode="&#x103;" horiz-adv-x="539" 
d="M192 -14q-63 0 -101.5 37t-38.5 98q0 55 27.5 89t90.5 51.5t169 22.5v68q0 62 -26 90t-82 28q-27 0 -53.5 -8.5t-38.5 -21.5q26 -43 26 -56q0 -19 -15.5 -32t-38.5 -13q-27 0 -42 13.5t-15 38.5q0 35 26.5 64.5t70 47.5t94.5 18q95 0 141 -44t46 -136v-241q0 -44 45 -44
q11 0 22 2t25 6l10 -38q-18 -17 -44 -28.5t-48 -11.5q-43 0 -66.5 22.5t-28.5 66.5q-56 -89 -155 -89zM230 55q47 0 78 30.5t31 75.5v71q-97 0 -143.5 -24.5t-46.5 -75.5q0 -36 22 -56.5t59 -20.5zM246 587q-47 0 -78 24.5t-47 63t-21 81.5l40 12q14 -49 40.5 -75t70.5 -26
q45 0 72 28.5t38 71.5l38 -10q-3 -39 -21 -78.5t-50.5 -65.5t-81.5 -26z" />
    <glyph glyph-name="Aogonek" unicode="&#x104;" horiz-adv-x="735" 
d="M15 0v48l48 8q18 4 26 13.5t20 40.5l211 590h106l209 -591q10 -26 16.5 -36t27.5 -15l41 -8v-50h-267v48l58 7q20 3 24.5 14t-5.5 36l-43 126h-268l-42 -122q-9 -25 -4 -37t27 -17l57 -8v-47h-242zM239 288h229l-111 329h-4zM556 -229q-43 0 -67.5 23.5t-24.5 57.5
q0 39 20.5 68.5t49.5 51t54 37.5l49 -4q-20 -16 -40 -36t-33.5 -43t-13.5 -49q0 -20 10 -30.5t31 -10.5q14 0 26.5 3t22.5 6l11 -35q-17 -14 -42 -26.5t-53 -12.5z" />
    <glyph glyph-name="aogonek" unicode="&#x105;" horiz-adv-x="539" 
d="M429 -229q-43 0 -67.5 23.5t-24.5 57.5q0 41 30 78t97 79l67 17q-28 -23 -53 -48t-40 -50t-15 -51q0 -20 10 -30.5t31 -10.5q14 0 26.5 3t22.5 6l11 -35q-17 -14 -42 -26.5t-53 -12.5zM192 -14q-63 0 -101.5 37t-38.5 98q0 55 27.5 89t90.5 51.5t169 22.5v68q0 62 -26 90
t-82 28q-27 0 -53.5 -8.5t-38.5 -21.5q26 -43 26 -56q0 -19 -15.5 -32t-38.5 -13q-27 0 -42 13.5t-15 38.5q0 35 26.5 64.5t70 47.5t94.5 18q95 0 141 -44t46 -136v-241q0 -44 45 -44q11 0 22 2t25 6l10 -38q-18 -17 -44 -28.5t-48 -11.5q-43 0 -66.5 22.5t-28.5 66.5
q-56 -89 -155 -89zM230 55q47 0 78 30.5t31 75.5v71q-97 0 -143.5 -24.5t-46.5 -75.5q0 -36 22 -56.5t59 -20.5z" />
    <glyph glyph-name="Cacute" unicode="&#x106;" horiz-adv-x="699" 
d="M385 -14q-101 0 -176.5 45.5t-117 127.5t-41.5 192q0 109 40 190.5t111.5 127t166.5 45.5q52 0 94 -15.5t72 -45.5l10 63h49l39 -233l-54 -12q-31 95 -79.5 137.5t-128.5 42.5q-69 0 -116.5 -34t-72 -100.5t-24.5 -164.5q0 -88 30 -155t83.5 -104.5t124.5 -37.5
q44 0 79.5 11.5t66 36.5t57.5 64l47 -34q-27 -45 -67.5 -78t-89.5 -51t-103 -18zM292 752l-20 28l131 119q13 11 21.5 17t17.5 6q19 0 31 -15.5t12 -32.5q0 -21 -11 -34.5t-31 -21.5z" />
    <glyph glyph-name="cacute" unicode="&#x107;" 
d="M282 -14q-72 0 -125 32t-82 90.5t-29 138.5q0 83 30.5 144.5t85.5 95.5t128 34q51 0 91.5 -17t64 -46.5t23.5 -67.5q0 -30 -18 -47.5t-48 -17.5q-18 0 -31.5 6t-20.5 16.5t-7 25.5q0 12 6 27t22 41q-19 14 -39 19t-51 5q-39 0 -69.5 -25t-48 -69.5t-17.5 -102.5
q0 -95 43 -150t117 -55q38 0 71 13.5t58 38.5l34 -35q-32 -43 -82 -68.5t-106 -25.5zM230 580l-24 25l104 138q11 15 20 22t19 7q22 0 35 -16t13 -35q0 -16 -9 -29t-26 -24z" />
    <glyph glyph-name="Ccircumflex" unicode="&#x108;" horiz-adv-x="699" 
d="M385 -14q-101 0 -176.5 45.5t-117 127.5t-41.5 192q0 109 40 190.5t111.5 127t166.5 45.5q52 0 94 -15.5t72 -45.5l10 63h49l39 -233l-54 -12q-31 95 -79.5 137.5t-128.5 42.5q-69 0 -116.5 -34t-72 -100.5t-24.5 -164.5q0 -88 30 -155t83.5 -104.5t124.5 -37.5
q44 0 79.5 11.5t66 36.5t57.5 64l47 -34q-27 -45 -67.5 -78t-89.5 -51t-103 -18zM228 750l-24 25l125 137q9 10 19 16t20 6q11 0 19 -6.5t22 -21.5l121 -130l-25 -26l-137 84z" />
    <glyph glyph-name="ccircumflex" unicode="&#x109;" horiz-adv-x="499" 
d="M282 -14q-72 0 -125 32t-82 90.5t-29 138.5q0 83 30.5 144.5t85.5 95.5t128 34q51 0 91.5 -17t64 -46.5t23.5 -67.5q0 -30 -18 -47.5t-48 -17.5q-18 0 -31.5 6t-20.5 16.5t-7 25.5q0 12 6 27t22 41q-19 14 -39 19t-51 5q-39 0 -69.5 -25t-48 -69.5t-17.5 -102.5
q0 -95 43 -150t117 -55q38 0 71 13.5t58 38.5l34 -35q-32 -43 -82 -68.5t-106 -25.5zM158 580l-26 25l114 152q9 11 19 16.5t20 5.5q11 0 19.5 -5.5t21.5 -22.5l109 -145l-27 -26l-123 100z" />
    <glyph glyph-name="Cdotaccent" unicode="&#x10a;" horiz-adv-x="699" 
d="M385 -14q-101 0 -176.5 45.5t-117 127.5t-41.5 192q0 109 40 190.5t111.5 127t166.5 45.5q52 0 94 -15.5t72 -45.5l10 63h49l39 -233l-54 -12q-31 95 -79.5 137.5t-128.5 42.5q-69 0 -116.5 -34t-72 -100.5t-24.5 -164.5q0 -88 30 -155t83.5 -104.5t124.5 -37.5
q44 0 79.5 11.5t66 36.5t57.5 64l47 -34q-27 -45 -67.5 -78t-89.5 -51t-103 -18zM366 767q-29 0 -48 18.5t-19 47.5t19 48t48 19q30 0 49 -18.5t19 -47.5t-19 -48t-49 -19z" />
    <glyph glyph-name="cdotaccent" unicode="&#x10b;" horiz-adv-x="499" 
d="M282 -14q-72 0 -125 32t-82 90.5t-29 138.5q0 83 30.5 144.5t85.5 95.5t128 34q51 0 91.5 -17t64 -46.5t23.5 -67.5q0 -30 -18 -47.5t-48 -17.5q-18 0 -31.5 6t-20.5 16.5t-7 25.5q0 12 6 27t22 41q-19 14 -39 19t-51 5q-39 0 -69.5 -25t-48 -69.5t-17.5 -102.5
q0 -95 43 -150t117 -55q38 0 71 13.5t58 38.5l34 -35q-32 -43 -82 -68.5t-106 -25.5zM282 620q-29 0 -48 18.5t-19 47.5t19 48t48 19q30 0 49 -18.5t19 -47.5t-19 -48t-49 -19z" />
    <glyph glyph-name="Ccaron" unicode="&#x10c;" horiz-adv-x="699" 
d="M385 -14q-101 0 -176.5 45.5t-117 127.5t-41.5 192q0 109 40 190.5t111.5 127t166.5 45.5q52 0 94 -15.5t72 -45.5l10 63h49l39 -233l-54 -12q-31 95 -79.5 137.5t-128.5 42.5q-69 0 -116.5 -34t-72 -100.5t-24.5 -164.5q0 -88 30 -155t83.5 -104.5t124.5 -37.5
q44 0 79.5 11.5t66 36.5t57.5 64l47 -34q-27 -45 -67.5 -78t-89.5 -51t-103 -18zM366 752q-10 0 -18.5 6.5t-22.5 21.5l-121 130l25 26l137 -84l140 84l24 -25l-125 -137q-9 -10 -18.5 -16t-20.5 -6z" />
    <glyph glyph-name="ccaron" unicode="&#x10d;" horiz-adv-x="499" 
d="M282 -14q-72 0 -125 32t-82 90.5t-29 138.5q0 83 30.5 144.5t85.5 95.5t128 34q51 0 91.5 -17t64 -46.5t23.5 -67.5q0 -30 -18 -47.5t-48 -17.5q-18 0 -31.5 6t-20.5 16.5t-7 25.5q0 12 6 27t22 41q-19 14 -39 19t-51 5q-39 0 -69.5 -25t-48 -69.5t-17.5 -102.5
q0 -95 43 -150t117 -55q38 0 71 13.5t58 38.5l34 -35q-32 -43 -82 -68.5t-106 -25.5zM282 580q-10 0 -19 5.5t-22 22.5l-109 145l27 26l123 -100l127 100l26 -25l-114 -152q-9 -11 -18.5 -16.5t-20.5 -5.5z" />
    <glyph glyph-name="Dcaron" unicode="&#x10e;" horiz-adv-x="765" 
d="M62 0v48l58 9q19 3 25 13t6 38v488q0 26 -6.5 34.5t-26.5 12.5l-56 9v48h287q119 0 200.5 -38t123.5 -111t42 -179q0 -87 -26.5 -156t-77.5 -117.5t-124 -73.5t-166 -25h-259zM322 55q74 0 127.5 18.5t89 56.5t52.5 96.5t17 137.5q0 92 -30.5 155t-90 95t-146.5 32h-91
v-586q11 -2 32 -3.5t40 -1.5zM356 752q-10 0 -18.5 6.5t-22.5 21.5l-121 130l25 26l137 -84l140 84l24 -25l-125 -137q-9 -10 -18.5 -16t-20.5 -6z" />
    <glyph glyph-name="dcaron" unicode="&#x10f;" horiz-adv-x="678" 
d="M251 -14q-97 0 -151 66.5t-54 185.5q0 87 30 150.5t84.5 98t129.5 34.5q33 0 66.5 -9t56.5 -24v156q0 35 -7.5 45.5t-35.5 14.5l-44 7l6 50l163 5l11 -11v-657q0 -24 6.5 -32.5t26.5 -12.5l49 -9v-47l-154 -6l-14 79h-3q-33 -42 -74.5 -63t-91.5 -21zM280 58
q40 0 69.5 19.5t46.5 54.5t17 80v201q-25 20 -57.5 30.5t-67.5 10.5q-71 0 -107 -52t-36 -154q0 -92 35 -141t100 -49zM581 541l-26 28q20 26 30.5 44.5t10.5 37.5q0 11 -3.5 17.5t-12.5 16.5q-11 12 -15.5 20t-4.5 18q0 25 17 35t35 10q34 0 47.5 -22t13.5 -46
q0 -36 -24 -80t-68 -79z" />
    <glyph glyph-name="Dcroat" unicode="&#x110;" horiz-adv-x="765" 
d="M41 330l8 63h392v-63h-400zM62 0v48l58 9q19 3 25 13t6 38v488q0 26 -6.5 34.5t-26.5 12.5l-56 9v48h287q119 0 200.5 -38t123.5 -111t42 -179q0 -87 -26.5 -156t-77.5 -117.5t-124 -73.5t-166 -25h-259zM322 55q74 0 127.5 18.5t89 56.5t52.5 96.5t17 137.5
q0 92 -30.5 155t-90 95t-146.5 32h-91v-586q11 -2 32 -3.5t40 -1.5z" />
    <glyph glyph-name="dcroat" unicode="&#x111;" horiz-adv-x="614" 
d="M47 238q0 87 29.5 150.5t84.5 98t130 34.5q41 0 73.5 -11t49.5 -22v81h-147l8 57h139v18q0 32 -6.5 44t-36.5 16l-44 7l6 50l163 5l11 -11v-129h96v-57h-96v-471q0 -23 6 -32t27 -13l49 -9v-47l-154 -6l-14 79h-3q-13 -16 -34 -36t-53 -34t-79 -14q-98 0 -151.5 67.5
t-53.5 184.5zM146 248q0 -53 13 -96t43 -68.5t79 -25.5q31 0 61.5 15t51 49t20.5 90v201q-28 23 -61.5 32t-63.5 9q-77 0 -110 -56.5t-33 -149.5z" />
    <glyph glyph-name="Emacron" unicode="&#x112;" horiz-adv-x="637" 
d="M62 0v48l58 9q19 3 25 13t6 38v488q0 26 -6.5 35t-26.5 12l-56 9v48h463l37 -163l-52 -17q-20 53 -39 80t-47 36.5t-77 9.5h-97v-259h87q36 0 52.5 4.5t24 21.5t16.5 56l46 6v-227l-46 -8q-6 39 -13.5 57t-25.5 23t-54 5h-87v-271h129q48 0 75.5 10t44 38t30.5 82h55
l-24 -184h-498zM183 795v73h284v-73h-284z" />
    <glyph glyph-name="emacron" unicode="&#x113;" horiz-adv-x="519" 
d="M285 -14q-73 0 -126.5 32t-83 91t-29.5 138q0 83 30.5 144.5t85.5 95.5t128 34q83 0 133.5 -48.5t50.5 -128.5q0 -21 -3.5 -46t-10.5 -52h-313q3 -88 45.5 -137t115.5 -49q38 0 74 16t64 44l35 -35q-22 -30 -53.5 -52.5t-68 -34.5t-74.5 -12zM147 302h230q2 10 2.5 21.5
t0.5 24.5q0 59 -25.5 89.5t-75.5 30.5q-57 0 -90.5 -42.5t-41.5 -123.5zM138 635v73h280v-73h-280z" />
    <glyph glyph-name="Ebreve" unicode="&#x114;" horiz-adv-x="637" 
d="M62 0v48l58 9q19 3 25 13t6 38v488q0 26 -6.5 35t-26.5 12l-56 9v48h463l37 -163l-52 -17q-20 53 -39 80t-47 36.5t-77 9.5h-97v-259h87q36 0 52.5 4.5t24 21.5t16.5 56l46 6v-227l-46 -8q-6 39 -13.5 57t-25.5 23t-54 5h-87v-271h129q48 0 75.5 10t44 38t30.5 82h55
l-24 -184h-498zM322 752q-50 0 -83 23t-50.5 60.5t-22.5 80.5l40 12q14 -49 43 -72.5t78 -23.5q50 0 79.5 26t40.5 69l38 -10q-3 -39 -22 -77t-54 -63t-87 -25z" />
    <glyph glyph-name="ebreve" unicode="&#x115;" horiz-adv-x="520" 
d="M285 -14q-73 0 -126.5 32t-83 91t-29.5 138q0 83 30.5 144.5t85.5 95.5t128 34q83 0 133.5 -48.5t50.5 -128.5q0 -21 -3.5 -46t-10.5 -52h-313q3 -88 45.5 -137t115.5 -49q38 0 74 16t64 44l35 -35q-22 -30 -53.5 -52.5t-68 -34.5t-74.5 -12zM147 302h230q2 10 2.5 21.5
t0.5 24.5q0 59 -25.5 89.5t-75.5 30.5q-57 0 -90.5 -42.5t-41.5 -123.5zM276 587q-47 0 -78 24.5t-47 63t-21 81.5l40 12q14 -49 40.5 -75t70.5 -26q45 0 72 28.5t38 71.5l38 -10q-3 -39 -21 -78.5t-50.5 -65.5t-81.5 -26z" />
    <glyph glyph-name="Edotaccent" unicode="&#x116;" horiz-adv-x="637" 
d="M62 0v48l58 9q19 3 25 13t6 38v488q0 26 -6.5 35t-26.5 12l-56 9v48h463l37 -163l-52 -17q-20 53 -39 80t-47 36.5t-77 9.5h-97v-259h87q36 0 52.5 4.5t24 21.5t16.5 56l46 6v-227l-46 -8q-6 39 -13.5 57t-25.5 23t-54 5h-87v-271h129q48 0 75.5 10t44 38t30.5 82h55
l-24 -184h-498zM324 767q-29 0 -48 18.5t-19 47.5t19 48t48 19q30 0 49 -18.5t19 -47.5t-19 -48t-49 -19z" />
    <glyph glyph-name="edotaccent" unicode="&#x117;" horiz-adv-x="519" 
d="M285 -14q-73 0 -126.5 32t-83 91t-29.5 138q0 83 30.5 144.5t85.5 95.5t128 34q83 0 133.5 -48.5t50.5 -128.5q0 -21 -3.5 -46t-10.5 -52h-313q3 -88 45.5 -137t115.5 -49q38 0 74 16t64 44l35 -35q-22 -30 -53.5 -52.5t-68 -34.5t-74.5 -12zM147 302h230q2 10 2.5 21.5
t0.5 24.5q0 59 -25.5 89.5t-75.5 30.5q-57 0 -90.5 -42.5t-41.5 -123.5zM277 620q-29 0 -48 18.5t-19 47.5t19 48t48 19q30 0 49 -18.5t19 -47.5t-19 -48t-49 -19z" />
    <glyph glyph-name="Eogonek" unicode="&#x118;" horiz-adv-x="637" 
d="M458 -229q-43 0 -67.5 23.5t-24.5 57.5q0 39 20.5 69t50.5 50.5t58 32.5l65 -4q-25 -8 -50 -27.5t-41.5 -44.5t-16.5 -51q0 -20 10 -30.5t31 -10.5q14 0 26.5 3t22.5 6l11 -35q-17 -14 -42 -26.5t-53 -12.5zM62 0v48l58 9q19 3 25 13t6 38v488q0 26 -6.5 35t-26.5 12
l-56 9v48h463l37 -163l-52 -17q-20 53 -39 80t-47 36.5t-77 9.5h-97v-259h87q36 0 52.5 4.5t24 21.5t16.5 56l46 6v-227l-46 -8q-6 39 -13.5 57t-25.5 23t-54 5h-87v-271h129q48 0 75.5 10t44 38t30.5 82h55l-24 -184h-498z" />
    <glyph glyph-name="eogonek" unicode="&#x119;" horiz-adv-x="520" 
d="M313 -229q-43 0 -67.5 23.5t-24.5 57.5q0 29 17 58.5t50.5 60t84.5 62.5l48 -5q-57 -40 -85.5 -76.5t-28.5 -74.5q0 -20 10 -30.5t31 -10.5q14 0 26.5 3t22.5 6l11 -35q-17 -14 -42 -26.5t-53 -12.5zM285 -14q-73 0 -126.5 32t-83 91t-29.5 138q0 83 30.5 144.5
t85.5 95.5t128 34q83 0 133.5 -48.5t50.5 -128.5q0 -21 -3.5 -46t-10.5 -52h-313q3 -88 45.5 -137t115.5 -49q38 0 74 16t64 44l35 -35q-22 -30 -53.5 -52.5t-68 -34.5t-74.5 -12zM147 302h230q2 10 2.5 21.5t0.5 24.5q0 59 -25.5 89.5t-75.5 30.5q-57 0 -90.5 -42.5
t-41.5 -123.5z" />
    <glyph glyph-name="Ecaron" unicode="&#x11a;" horiz-adv-x="637" 
d="M62 0v48l58 9q19 3 25 13t6 38v488q0 26 -6.5 35t-26.5 12l-56 9v48h463l37 -163l-52 -17q-20 53 -39 80t-47 36.5t-77 9.5h-97v-259h87q36 0 52.5 4.5t24 21.5t16.5 56l46 6v-227l-46 -8q-6 39 -13.5 57t-25.5 23t-54 5h-87v-271h129q48 0 75.5 10t44 38t30.5 82h55
l-24 -184h-498zM324 752q-10 0 -18.5 6.5t-22.5 21.5l-121 130l25 26l137 -84l140 84l24 -25l-125 -137q-9 -10 -18.5 -16t-20.5 -6z" />
    <glyph glyph-name="ecaron" unicode="&#x11b;" horiz-adv-x="519" 
d="M285 -14q-73 0 -126.5 32t-83 91t-29.5 138q0 83 30.5 144.5t85.5 95.5t128 34q83 0 133.5 -48.5t50.5 -128.5q0 -21 -3.5 -46t-10.5 -52h-313q3 -88 45.5 -137t115.5 -49q38 0 74 16t64 44l35 -35q-22 -30 -53.5 -52.5t-68 -34.5t-74.5 -12zM147 302h230q2 10 2.5 21.5
t0.5 24.5q0 59 -25.5 89.5t-75.5 30.5q-57 0 -90.5 -42.5t-41.5 -123.5zM277 580q-10 0 -19 5.5t-22 22.5l-109 145l27 26l123 -100l127 100l26 -25l-114 -152q-9 -11 -18.5 -16.5t-20.5 -5.5z" />
    <glyph glyph-name="Gcircumflex" unicode="&#x11c;" horiz-adv-x="751" 
d="M371 -14q-72 0 -131 25.5t-101.5 72t-65.5 112t-23 144.5q0 113 39.5 197t111 130.5t167.5 46.5q52 0 96 -16t73 -45l10 63h49l46 -233l-55 -12q-30 93 -81.5 136.5t-131.5 43.5q-53 0 -93.5 -19.5t-68 -58t-41.5 -94.5t-14 -130q0 -89 27.5 -156t77.5 -104t116 -37
q53 0 95.5 18t66.5 50v110q0 26 -6.5 34.5t-26.5 12.5l-60 9v48h271v-48l-53 -9q-18 -3 -24 -13.5t-6 -37.5v-229h-43l-26 47q-40 -28 -89.5 -43t-105.5 -15zM228 750l-24 25l125 137q9 10 19 16t20 6q11 0 19 -6.5t22 -21.5l121 -130l-25 -26l-137 84z" />
    <glyph glyph-name="gcircumflex" unicode="&#x11d;" horiz-adv-x="558" 
d="M254 -229q-76 0 -127 13.5t-76.5 41t-25.5 68.5q0 38 22 65t69 49v4q-25 8 -41.5 30t-16.5 47q0 27 13.5 50.5t51.5 63.5v3q-37 19 -55.5 53.5t-18.5 83.5q0 54 25.5 94t72.5 62t109 22q36 0 70 -8.5t60 -24.5q11 30 26.5 51t35.5 32t42 11q29 0 48 -15t19 -38
q0 -22 -17 -39t-40 -17q-13 0 -23 7t-17 20l-10 21q-16 -25 -29 -63q19 -22 28.5 -50t9.5 -60q0 -79 -55 -126.5t-147 -47.5q-22 0 -45.5 3t-35.5 7q-18 -20 -25 -33t-7 -27q0 -22 16.5 -31.5t53.5 -9.5h128q61 0 100 -13.5t58 -42t19 -73.5q0 -43 -17.5 -77t-52 -58
t-83.5 -36t-112 -12zM262 -166q77 0 119.5 25.5t42.5 70.5q0 31 -23 46.5t-70 15.5h-168q-23 -17 -34.5 -37.5t-11.5 -45.5q0 -40 33.5 -57.5t111.5 -17.5zM255 227q53 0 81 31t28 87q0 59 -30 92t-85 33q-34 0 -57.5 -14t-35.5 -41t-12 -67q0 -55 30 -88t81 -33zM140 580
l-26 25l114 152q9 11 19 16.5t20 5.5q11 0 19.5 -5.5t21.5 -22.5l109 -145l-27 -26l-123 100z" />
    <glyph glyph-name="Gbreve" unicode="&#x11e;" horiz-adv-x="751" 
d="M371 -14q-72 0 -131 25.5t-101.5 72t-65.5 112t-23 144.5q0 113 39.5 197t111 130.5t167.5 46.5q52 0 96 -16t73 -45l10 63h49l46 -233l-55 -12q-30 93 -81.5 136.5t-131.5 43.5q-53 0 -93.5 -19.5t-68 -58t-41.5 -94.5t-14 -130q0 -89 27.5 -156t77.5 -104t116 -37
q53 0 95.5 18t66.5 50v110q0 26 -6.5 34.5t-26.5 12.5l-60 9v48h271v-48l-53 -9q-18 -3 -24 -13.5t-6 -37.5v-229h-43l-26 47q-40 -28 -89.5 -43t-105.5 -15zM373 762q-50 0 -83 23t-50.5 60.5t-22.5 80.5l40 12q14 -49 43 -72.5t78 -23.5q50 0 79.5 26t40.5 69l38 -10
q-3 -39 -22 -77t-54 -63t-87 -25z" />
    <glyph glyph-name="gbreve" unicode="&#x11f;" horiz-adv-x="558" 
d="M254 -229q-76 0 -127 13.5t-76.5 41t-25.5 68.5q0 38 22 65t69 49v4q-25 8 -41.5 30t-16.5 47q0 27 13.5 50.5t51.5 63.5v3q-37 19 -55.5 53.5t-18.5 83.5q0 54 25.5 94t72.5 62t109 22q36 0 70 -8.5t60 -24.5q11 30 26.5 51t35.5 32t42 11q29 0 48 -15t19 -38
q0 -22 -17 -39t-40 -17q-13 0 -23 7t-17 20l-10 21q-16 -25 -29 -63q19 -22 28.5 -50t9.5 -60q0 -79 -55 -126.5t-147 -47.5q-22 0 -45.5 3t-35.5 7q-18 -20 -25 -33t-7 -27q0 -22 16.5 -31.5t53.5 -9.5h128q61 0 100 -13.5t58 -42t19 -73.5q0 -43 -17.5 -77t-52 -58
t-83.5 -36t-112 -12zM262 -166q77 0 119.5 25.5t42.5 70.5q0 31 -23 46.5t-70 15.5h-168q-23 -17 -34.5 -37.5t-11.5 -45.5q0 -40 33.5 -57.5t111.5 -17.5zM255 227q53 0 81 31t28 87q0 59 -30 92t-85 33q-34 0 -57.5 -14t-35.5 -41t-12 -67q0 -55 30 -88t81 -33zM256 587
q-47 0 -78 24.5t-47 63t-21 81.5l40 12q14 -49 40.5 -75t70.5 -26q45 0 72 28.5t38 71.5l38 -10q-3 -39 -21 -78.5t-50.5 -65.5t-81.5 -26z" />
    <glyph glyph-name="Gdotaccent" unicode="&#x120;" horiz-adv-x="751" 
d="M371 -14q-72 0 -131 25.5t-101.5 72t-65.5 112t-23 144.5q0 113 39.5 197t111 130.5t167.5 46.5q52 0 96 -16t73 -45l10 63h49l46 -233l-55 -12q-30 93 -81.5 136.5t-131.5 43.5q-53 0 -93.5 -19.5t-68 -58t-41.5 -94.5t-14 -130q0 -89 27.5 -156t77.5 -104t116 -37
q53 0 95.5 18t66.5 50v110q0 26 -6.5 34.5t-26.5 12.5l-60 9v48h271v-48l-53 -9q-18 -3 -24 -13.5t-6 -37.5v-229h-43l-26 47q-40 -28 -89.5 -43t-105.5 -15zM366 767q-29 0 -48 18.5t-19 47.5t19 48t48 19q30 0 49 -18.5t19 -47.5t-19 -48t-49 -19z" />
    <glyph glyph-name="gdotaccent" unicode="&#x121;" horiz-adv-x="558" 
d="M254 -229q-76 0 -127 13.5t-76.5 41t-25.5 68.5q0 38 22 65t69 49v4q-25 8 -41.5 30t-16.5 47q0 27 13.5 50.5t51.5 63.5v3q-37 19 -55.5 53.5t-18.5 83.5q0 54 25.5 94t72.5 62t109 22q36 0 70 -8.5t60 -24.5q11 30 26.5 51t35.5 32t42 11q29 0 48 -15t19 -38
q0 -22 -17 -39t-40 -17q-13 0 -23 7t-17 20l-10 21q-16 -25 -29 -63q19 -22 28.5 -50t9.5 -60q0 -79 -55 -126.5t-147 -47.5q-22 0 -45.5 3t-35.5 7q-18 -20 -25 -33t-7 -27q0 -22 16.5 -31.5t53.5 -9.5h128q61 0 100 -13.5t58 -42t19 -73.5q0 -43 -17.5 -77t-52 -58
t-83.5 -36t-112 -12zM262 -166q77 0 119.5 25.5t42.5 70.5q0 31 -23 46.5t-70 15.5h-168q-23 -17 -34.5 -37.5t-11.5 -45.5q0 -40 33.5 -57.5t111.5 -17.5zM255 227q53 0 81 31t28 87q0 59 -30 92t-85 33q-34 0 -57.5 -14t-35.5 -41t-12 -67q0 -55 30 -88t81 -33zM258 620
q-29 0 -48 18.5t-19 47.5t19 48t48 19q30 0 49 -18.5t19 -47.5t-19 -48t-49 -19z" />
    <glyph glyph-name="uni0122" unicode="&#x122;" horiz-adv-x="751" 
d="M371 -14q-72 0 -131 25.5t-101.5 72t-65.5 112t-23 144.5q0 113 39.5 197t111 130.5t167.5 46.5q52 0 96 -16t73 -45l10 63h49l46 -233l-55 -12q-30 93 -81.5 136.5t-131.5 43.5q-53 0 -93.5 -19.5t-68 -58t-41.5 -94.5t-14 -130q0 -89 27.5 -156t77.5 -104t116 -37
q53 0 95.5 18t66.5 50v110q0 26 -6.5 34.5t-26.5 12.5l-60 9v48h271v-48l-53 -9q-18 -3 -24 -13.5t-6 -37.5v-229h-43l-26 47q-40 -28 -89.5 -43t-105.5 -15zM339 -268l-24 29q30 26 39 44t9 37h-10q-28 0 -39.5 13.5t-11.5 32.5q0 25 16.5 40.5t44.5 15.5q36 0 51.5 -22.5
t15.5 -49.5q0 -39 -23 -78.5t-68 -61.5z" />
    <glyph glyph-name="uni0123" unicode="&#x123;" horiz-adv-x="558" 
d="M254 -229q-76 0 -127 13.5t-76.5 41t-25.5 68.5q0 38 22 65t69 49v4q-25 8 -41.5 30t-16.5 47q0 27 13.5 50.5t51.5 63.5v3q-37 19 -55.5 53.5t-18.5 83.5q0 54 25.5 94t72.5 62t109 22q36 0 70 -8.5t60 -24.5q11 30 26.5 51t35.5 32t42 11q29 0 48 -15t19 -38
q0 -22 -17 -39t-40 -17q-13 0 -23 7t-17 20l-10 21q-16 -25 -29 -63q19 -22 28.5 -50t9.5 -60q0 -79 -55 -126.5t-147 -47.5q-22 0 -45.5 3t-35.5 7q-18 -20 -25 -33t-7 -27q0 -22 16.5 -31.5t53.5 -9.5h128q61 0 100 -13.5t58 -42t19 -73.5q0 -43 -17.5 -77t-52 -58
t-83.5 -36t-112 -12zM262 -166q77 0 119.5 25.5t42.5 70.5q0 31 -23 46.5t-70 15.5h-168q-23 -17 -34.5 -37.5t-11.5 -45.5q0 -40 33.5 -57.5t111.5 -17.5zM255 227q53 0 81 31t28 87q0 59 -30 92t-85 33q-34 0 -57.5 -14t-35.5 -41t-12 -67q0 -55 30 -88t81 -33zM261 578
q-34 0 -50.5 22.5t-16.5 49.5q0 39 23 78.5t68 61.5l22 -29q-30 -25 -39 -44.5t-9 -38.5h8q26 0 38.5 -11t12.5 -31q0 -25 -16 -41.5t-41 -16.5z" />
    <glyph glyph-name="Hcircumflex" unicode="&#x124;" horiz-adv-x="839" 
d="M62 0v48l58 9q19 3 25 13t6 38v488q0 26 -6.5 34.5t-26.5 12.5l-56 9v48h276v-48l-58 -9q-18 -3 -24 -13.5t-6 -37.5v-201h340v205q0 26 -6.5 34.5t-26.5 12.5l-55 9v48h275v-48l-57 -9q-19 -3 -25 -13t-6 -38v-488q0 -25 6.5 -34t26.5 -13l55 -9v-48h-275v48l57 9
q19 3 25 13t6 38v220h-340v-224q0 -25 6.5 -34t25.5 -13l56 -9v-48h-276zM281 750l-24 25l125 137q9 10 19 16t20 6q11 0 19 -6.5t22 -21.5l121 -130l-25 -26l-137 84z" />
    <glyph glyph-name="hcircumflex" unicode="&#x125;" horiz-adv-x="662" 
d="M55 0v47l46 9q17 3 22.5 13t5.5 35v540q0 35 -7.5 45.5t-35.5 14.5l-44 7l6 50l163 5l11 -11v-318v-9q16 28 42 49t58.5 32.5t66.5 11.5q53 0 89.5 -19.5t55.5 -57.5t19 -94v-254q0 -22 6 -29.5t25 -11.5l47 -8v-47h-245v46l44 8q19 4 24.5 12t5.5 30v225q0 47 -9.5 75
t-31.5 40.5t-59 12.5q-63 0 -100.5 -38t-37.5 -101v-210q0 -23 5 -31.5t20 -11.5l53 -11v-46h-245zM6 800l-24 25l125 137q9 10 19 16t20 6q11 0 19 -6.5t22 -21.5l121 -130l-25 -26l-137 84z" />
    <glyph glyph-name="Hbar" unicode="&#x126;" horiz-adv-x="840" 
d="M48 492l8 57h732v-57h-740zM62 0v48l58 9q19 3 25 13t6 38v488q0 26 -6.5 34.5t-26.5 12.5l-56 9v48h276v-48l-58 -9q-18 -3 -24 -13.5t-6 -37.5v-201h340v205q0 26 -6.5 34.5t-26.5 12.5l-55 9v48h275v-48l-57 -9q-19 -3 -25 -13t-6 -38v-488q0 -25 6.5 -34t26.5 -13
l55 -9v-48h-275v48l57 9q19 3 25 13t6 38v220h-340v-224q0 -25 6.5 -34t25.5 -13l56 -9v-48h-276z" />
    <glyph glyph-name="hbar" unicode="&#x127;" horiz-adv-x="662" 
d="M31 569l8 57h326v-57h-334zM55 0v47l46 9q17 3 22.5 13t5.5 35v540q0 35 -7.5 45.5t-35.5 14.5l-44 7l6 50l163 5l11 -11v-318v-9q16 28 42 49t58.5 32.5t66.5 11.5q53 0 89.5 -19.5t55.5 -57.5t19 -94v-254q0 -22 6 -29.5t25 -11.5l47 -8v-47h-245v46l44 8q19 4 24.5 12
t5.5 30v225q0 47 -9.5 75t-31.5 40.5t-59 12.5q-63 0 -100.5 -38t-37.5 -101v-210q0 -23 5 -31.5t20 -11.5l53 -11v-46h-245z" />
    <glyph glyph-name="Itilde" unicode="&#x128;" horiz-adv-x="409" 
d="M62 0v48l62 9q19 3 25 13t6 38v488q0 26 -6.5 34.5t-26.5 12.5l-60 9v48h285v-48l-63 -9q-18 -3 -24 -13.5t-6 -37.5v-488q0 -25 6.5 -34t25.5 -13l61 -9v-48h-285zM281 777q-19 0 -39.5 5.5t-52.5 18.5q-30 12 -47.5 18t-25.5 6q-14 0 -23.5 -7t-23.5 -29l-31 19
q26 56 45 75t48 19q15 0 34.5 -5.5t54.5 -20.5q22 -9 36.5 -14.5t24 -7.5t15.5 -2q12 0 20 7t24 30l31 -19q-26 -54 -45 -73.5t-45 -19.5z" />
    <glyph glyph-name="itilde" unicode="&#x129;" horiz-adv-x="333" 
d="M40 0v49l57 9q20 3 25.5 13t5.5 38v273q0 37 -6.5 48.5t-29.5 14.5l-48 7l7 50l158 8l12 -5v-400q0 -25 6.5 -34.5t25.5 -12.5l56 -10v-48h-269zM226 620q-12 0 -25 2t-28.5 7.5t-36.5 14.5q-40 17 -51.5 21t-18.5 4q-13 0 -22.5 -7t-24.5 -30l-31 19q25 53 44 72t49 19
q17 0 35 -5t51 -19q24 -9 38 -14.5t22.5 -7.5t13.5 -2q13 0 21.5 7.5t22.5 29.5l31 -19q-25 -54 -44 -73t-46 -19z" />
    <glyph glyph-name="Imacron" unicode="&#x12a;" horiz-adv-x="409" 
d="M62 0v48l62 9q19 3 25 13t6 38v488q0 26 -6.5 34.5t-26.5 12.5l-60 9v48h285v-48l-63 -9q-18 -3 -24 -13.5t-6 -37.5v-488q0 -25 6.5 -34t25.5 -13l61 -9v-48h-285zM62 795v73h284v-73h-284z" />
    <glyph glyph-name="imacron" unicode="&#x12b;" horiz-adv-x="333" 
d="M40 0v49l57 9q20 3 25.5 13t5.5 38v273q0 37 -6.5 48.5t-29.5 14.5l-48 7l7 50l158 8l12 -5v-400q0 -25 6.5 -34.5t25.5 -12.5l56 -10v-48h-269zM12 635v73h280v-73h-280z" />
    <glyph glyph-name="Ibreve" unicode="&#x12c;" horiz-adv-x="409" 
d="M62 0v48l62 9q19 3 25 13t6 38v488q0 26 -6.5 34.5t-26.5 12.5l-60 9v48h285v-48l-63 -9q-18 -3 -24 -13.5t-6 -37.5v-488q0 -25 6.5 -34t25.5 -13l61 -9v-48h-285zM201 752q-50 0 -83 23t-50.5 60.5t-22.5 80.5l40 12q14 -49 43 -72.5t78 -23.5q50 0 79.5 26t40.5 69
l38 -10q-3 -39 -22 -77t-54 -63t-87 -25z" />
    <glyph glyph-name="ibreve" unicode="&#x12d;" horiz-adv-x="333" 
d="M40 0v49l57 9q20 3 25.5 13t5.5 38v273q0 37 -6.5 48.5t-29.5 14.5l-48 7l7 50l158 8l12 -5v-400q0 -25 6.5 -34.5t25.5 -12.5l56 -10v-48h-269zM149 587q-47 0 -78 24.5t-47 63t-21 81.5l40 12q14 -49 40.5 -75t70.5 -26q45 0 72 28.5t38 71.5l38 -10q-3 -39 -21 -78.5
t-51 -65.5t-81 -26z" />
    <glyph glyph-name="Iogonek" unicode="&#x12e;" horiz-adv-x="401" 
d="M62 0v48l62 9q19 3 25 13t6 38v488q0 26 -6.5 34.5t-26.5 12.5l-60 9v48h285v-48l-63 -9q-18 -3 -24 -13.5t-6 -37.5v-488q0 -25 6.5 -34t25.5 -13l61 -9v-48h-285zM189 -229q-43 0 -67.5 23.5t-24.5 57.5q0 39 20.5 68.5t49.5 51t54 37.5l49 -4q-20 -16 -40 -36
t-33.5 -43t-13.5 -49q0 -20 10 -30.5t31 -10.5q14 0 26.5 3t22.5 6l11 -35q-17 -14 -42 -26.5t-53 -12.5z" />
    <glyph glyph-name="iogonek" unicode="&#x12f;" horiz-adv-x="333" 
d="M40 0v49l57 9q20 3 25.5 13t5.5 38v273q0 37 -6.5 48.5t-29.5 14.5l-48 7l7 50l158 8l12 -5v-400q0 -25 6.5 -34.5t25.5 -12.5l56 -10v-48h-269zM160 620q-29 0 -48 18.5t-19 47.5t19 48t48 19q30 0 49 -18.5t19 -47.5t-19 -48t-49 -19zM168 -229q-43 0 -67.5 23.5
t-24.5 57.5q0 39 20.5 68.5t49.5 51t54 37.5l49 -4q-20 -16 -40 -36t-33.5 -43t-13.5 -49q0 -20 10 -30.5t31 -10.5q14 0 26.5 3t22.5 6l11 -35q-17 -14 -42 -26.5t-53 -12.5z" />
    <glyph glyph-name="Idotaccent" unicode="&#x130;" horiz-adv-x="409" 
d="M62 0v48l62 9q19 3 25 13t6 38v488q0 26 -6.5 34.5t-26.5 12.5l-60 9v48h285v-48l-63 -9q-18 -3 -24 -13.5t-6 -37.5v-488q0 -25 6.5 -34t25.5 -13l61 -9v-48h-285zM203 767q-29 0 -48 18.5t-19 47.5t19 48t48 19q30 0 49 -18.5t19 -47.5t-19 -48t-49 -19z" />
    <glyph glyph-name="dotlessi" unicode="&#x131;" horiz-adv-x="333" 
d="M40 0v49l57 9q20 3 25.5 13t5.5 38v273q0 37 -6.5 48.5t-29.5 14.5l-48 7l7 50l158 8l12 -5v-400q0 -25 6.5 -34.5t25.5 -12.5l56 -10v-48h-269z" />
    <glyph glyph-name="IJ" unicode="&#x132;" horiz-adv-x="966" 
d="M62 0v48l62 9q19 3 25 13t6 38v488q0 26 -6.5 34.5t-26.5 12.5l-60 9v48h285v-48l-63 -9q-18 -3 -24 -13.5t-6 -37.5v-488q0 -25 6.5 -34t25.5 -13l61 -9v-48h-285zM628 -14q-52 0 -92.5 15.5t-63.5 43.5t-23 63t21.5 58.5t53.5 23.5q30 0 46.5 -12t16.5 -33
q0 -13 -6 -27t-24 -44q11 -10 33 -17t44 -7q36 0 59.5 16.5t34.5 50t11 84.5v393q0 26 -6.5 35t-26.5 12l-70 10v49h295v-48l-63 -9q-18 -2 -24 -12.5t-6 -38.5v-368q0 -75 -25 -128.5t-71.5 -81.5t-113.5 -28z" />
    <glyph glyph-name="ij" unicode="&#x133;" horiz-adv-x="642" 
d="M40 0v49l57 9q20 3 25.5 13t5.5 38v273q0 37 -6.5 48.5t-29.5 14.5l-48 7l7 50l158 8l12 -5v-400q0 -25 6.5 -34.5t25.5 -12.5l56 -10v-48h-269zM160 620q-29 0 -48 18.5t-19 47.5t19 48t48 19q30 0 49 -18.5t19 -47.5t-19 -48t-49 -19zM395 -229l-28 41q47 37 67 87
t20 129v354q0 37 -6.5 48.5t-29.5 14.5l-48 7l8 50l157 8l12 -5v-410q0 -91 -14 -151.5t-47.5 -101t-90.5 -71.5zM486 620q-29 0 -48 18.5t-19 47.5t19 48t48 19q30 0 49 -18.5t19 -47.5t-19 -48t-49 -19z" />
    <glyph glyph-name="Jcircumflex" unicode="&#x134;" horiz-adv-x="557" 
d="M219 -14q-52 0 -92.5 15.5t-63.5 43.5t-23 63t21.5 58.5t53.5 23.5q30 0 46.5 -12t16.5 -33q0 -13 -6 -27t-24 -44q11 -10 33 -17t44 -7q36 0 59.5 16.5t34.5 50t11 84.5v393q0 26 -6.5 35t-26.5 12l-70 10v49h295v-48l-63 -9q-18 -2 -24 -12.5t-6 -38.5v-368
q0 -75 -25 -128.5t-71.5 -81.5t-113.5 -28zM242 750l-24 25l125 137q9 10 19 16t20 6q11 0 19 -6.5t22 -21.5l121 -130l-25 -26l-137 84z" />
    <glyph glyph-name="jcircumflex" unicode="&#x135;" horiz-adv-x="309" 
d="M15 580l-26 25l114 152q9 11 19 16.5t20 5.5q11 0 19.5 -5.5t21.5 -22.5l109 -145l-27 -26l-123 100zM62 -229l-28 41q50 40 68.5 91.5t18.5 124.5v354q0 34 -5.5 47t-30.5 16l-48 7l8 50l157 8l12 -5v-410q0 -91 -14 -151.5t-47.5 -101t-90.5 -71.5z" />
    <glyph glyph-name="uni0136" unicode="&#x136;" horiz-adv-x="754" 
d="M632 -14q-54 0 -90.5 22.5t-70.5 76.5l-157 251l-60 -61v-171q0 -25 6.5 -34t25.5 -13l61 -9v-48h-285v48l62 9q19 3 25 13t6 38v488q0 26 -6.5 34.5t-26.5 12.5l-60 9v48h285v-48l-63 -9q-18 -2 -24 -12.5t-6 -38.5v-242l243 243q17 17 13 31.5t-26 18.5l-48 8l10 49
h237v-50l-38 -8q-17 -4 -30 -12.5t-38 -33.5l-194 -195l175 -265q22 -33 39.5 -51t36.5 -25t46 -7q9 0 19 2t26 7l10 -36q-18 -19 -45.5 -29.5t-57.5 -10.5zM351 -268l-24 29q30 26 39 44t9 37h-10q-28 0 -39.5 13.5t-11.5 32.5q0 25 16.5 40.5t44.5 15.5q36 0 51.5 -22.5
t15.5 -49.5q0 -39 -23 -78.5t-68 -61.5z" />
    <glyph glyph-name="uni0137" unicode="&#x137;" horiz-adv-x="610" 
d="M528 -9q-26 0 -45.5 6t-38.5 22t-44 46l-169 201v8l159 143q13 11 13 23t-13 14l-45 7l9 46h224v-45l-29 -8q-17 -5 -35 -14.5t-35 -23.5l-149 -126l166 -189q21 -23 37.5 -32.5t35.5 -9.5q6 0 14 2t25 6l10 -36q-19 -19 -43 -29.5t-47 -10.5zM43 0v48l57 9q20 3 25.5 13
t5.5 38v536q0 35 -7.5 45.5t-35.5 14.5l-44 7l5 50l164 5l11 -11v-651q0 -24 5.5 -33.5t21.5 -13.5l36 -8v-49h-244zM292 -268l-24 29q30 26 39 44t9 37h-10q-28 0 -39.5 13.5t-11.5 32.5q0 25 16.5 40.5t44.5 15.5q36 0 51.5 -22.5t15.5 -49.5q0 -39 -23 -78.5t-68 -61.5z
" />
    <glyph glyph-name="kgreenlandic" unicode="&#x138;" horiz-adv-x="610" 
d="M528 -9q-31 0 -52 8.5t-38 25t-38 40.5l-169 201v8l159 143q14 13 12.5 24.5t-12.5 12.5l-45 7l9 46h224v-45l-29 -8q-16 -4 -34.5 -14t-35.5 -24l-149 -126l166 -189q20 -22 35 -32t34 -10q9 0 19.5 2t23.5 6l10 -36q-20 -19 -43.5 -29.5t-46.5 -10.5zM43 0v48l57 9
q19 3 25 13t6 38v283q0 32 -6.5 44t-36.5 16l-44 7l5 50l164 5l11 -11v-398q0 -21 4.5 -32t22.5 -15l36 -8v-49h-244z" />
    <glyph glyph-name="Lacute" unicode="&#x139;" horiz-adv-x="637" 
d="M62 0v48l58 9q19 3 25 13t6 38v488q0 26 -6.5 34.5t-26.5 12.5l-56 9v48h286v-48l-66 -9q-19 -4 -25.5 -12.5t-6.5 -34.5v-541h113q46 0 73.5 12.5t46.5 47t39 99.5h55l-25 -214h-490zM126 752l-20 28l131 119q13 11 21.5 17t17.5 6q19 0 31 -15.5t12 -32.5
q0 -21 -11 -34.5t-31 -21.5z" />
    <glyph glyph-name="lacute" unicode="&#x13a;" horiz-adv-x="335" 
d="M42 0v49l57 9q20 3 25.5 13t5.5 38v534q0 35 -7.5 45.5t-35.5 14.5l-44 7l6 51l163 5l11 -11v-650q0 -25 6.5 -34.5t25.5 -12.5l56 -10v-48h-269zM71 802l-20 28l131 119q13 11 21.5 17t17.5 6q19 0 31 -15.5t12 -32.5q0 -21 -11 -34.5t-31 -21.5z" />
    <glyph glyph-name="uni013B" unicode="&#x13b;" horiz-adv-x="637" 
d="M62 0v48l58 9q19 3 25 13t6 38v488q0 26 -6.5 34.5t-26.5 12.5l-56 9v48h286v-48l-66 -9q-19 -4 -25.5 -12.5t-6.5 -34.5v-541h113q46 0 73.5 12.5t46.5 47t39 99.5h55l-25 -214h-490zM299 -268l-24 29q30 26 39 44t9 37h-10q-28 0 -39.5 13.5t-11.5 32.5q0 25 16.5 40.5
t44.5 15.5q36 0 51.5 -22.5t15.5 -49.5q0 -39 -23 -78.5t-68 -61.5z" />
    <glyph glyph-name="uni013C" unicode="&#x13c;" horiz-adv-x="335" 
d="M42 0v49l57 9q20 3 25.5 13t5.5 38v534q0 35 -7.5 45.5t-35.5 14.5l-44 7l6 51l163 5l11 -11v-650q0 -25 6.5 -34.5t25.5 -12.5l56 -10v-48h-269zM149 -268l-24 29q30 26 39 44t9 37h-10q-28 0 -39.5 13.5t-11.5 32.5q0 25 16.5 40.5t44.5 15.5q36 0 51.5 -22.5
t15.5 -49.5q0 -39 -23 -78.5t-68 -61.5z" />
    <glyph glyph-name="Lcaron" unicode="&#x13d;" horiz-adv-x="637" 
d="M62 0v48l58 9q19 3 25 13t6 38v488q0 26 -6.5 34.5t-26.5 12.5l-56 9v48h286v-48l-66 -9q-19 -4 -25.5 -12.5t-6.5 -34.5v-541h113q46 0 73.5 12.5t46.5 47t39 99.5h55l-25 -214h-490zM430 541l-26 28q20 26 30.5 44.5t10.5 37.5q0 11 -3.5 17.5t-12.5 16.5
q-11 12 -15.5 20t-4.5 18q0 25 17 35t35 10q34 0 47.5 -22t13.5 -46q0 -36 -24 -80t-68 -79z" />
    <glyph glyph-name="lcaron" unicode="&#x13e;" horiz-adv-x="389" 
d="M42 0v49l57 9q20 3 25.5 13t5.5 38v534q0 35 -7.5 45.5t-35.5 14.5l-44 7l6 51l163 5l11 -11v-650q0 -25 6.5 -34.5t25.5 -12.5l56 -10v-48h-269zM296 541l-26 28q20 26 30.5 44.5t10.5 37.5q0 11 -3.5 17.5t-12.5 16.5q-11 12 -15.5 20t-4.5 18q0 25 17 35t35 10
q34 0 47.5 -22t13.5 -46q0 -36 -24 -80t-68 -79z" />
    <glyph glyph-name="Ldot" unicode="&#x13f;" horiz-adv-x="637" 
d="M62 0v48l58 9q19 3 25 13t6 38v488q0 26 -6.5 34.5t-26.5 12.5l-56 9v48h286v-48l-66 -9q-19 -4 -25.5 -12.5t-6.5 -34.5v-541h113q46 0 73.5 12.5t46.5 47t39 99.5h55l-25 -214h-490zM506 318q-29 0 -48 18.5t-19 47.5t19 48t48 19q30 0 49 -18.5t19 -47.5t-19 -48
t-49 -19z" />
    <glyph glyph-name="ldot" unicode="&#x140;" horiz-adv-x="395" 
d="M42 0v49l57 9q20 3 25.5 13t5.5 38v534q0 35 -7.5 45.5t-35.5 14.5l-44 7l6 51l163 5l11 -11v-650q0 -25 6.5 -34.5t25.5 -12.5l56 -10v-48h-269zM367 330q-29 0 -48 18.5t-19 47.5t19 48t48 19q30 0 49 -18.5t19 -47.5t-19 -48t-49 -19z" />
    <glyph glyph-name="Lslash" unicode="&#x141;" horiz-adv-x="637" 
d="M28 235v68l144 76l30 6l240 129v-67l-241 -129l-32 -7zM62 0v48l58 9q19 3 25 13t6 38v488q0 26 -6.5 34.5t-26.5 12.5l-56 9v48h286v-48l-66 -9q-19 -4 -25.5 -12.5t-6.5 -34.5v-541h113q46 0 73.5 12.5t46.5 47t39 99.5h55l-25 -214h-490z" />
    <glyph glyph-name="lslash" unicode="&#x142;" horiz-adv-x="359" 
d="M30 287v72l134 72l30 6l140 76v-71l-141 -76l-32 -7zM48 0v49l57 9q20 3 25.5 13t5.5 38v534q0 35 -7.5 45.5t-35.5 14.5l-44 7l6 51l163 5l11 -11v-650q0 -25 6.5 -34.5t25.5 -12.5l56 -10v-48h-269z" />
    <glyph glyph-name="Nacute" unicode="&#x143;" horiz-adv-x="835" 
d="M62 0v48l58 9q18 3 24 13.5t6 37.5v488q0 26 -6 34.5t-26 12.5l-56 9v48h222l332 -571v8v459q0 26 -6.5 34.5t-26.5 12.5l-55 9v48h245v-48l-57 -9q-19 -3 -25 -13t-6 -38v-592h-103l-362 609v-8v-497q0 -25 6.5 -34t25.5 -13l56 -9v-48h-246zM337 752l-20 28l131 119
q13 11 21.5 17t17.5 6q19 0 31 -15.5t12 -32.5q0 -21 -11 -34.5t-31 -21.5z" />
    <glyph glyph-name="nacute" unicode="&#x144;" horiz-adv-x="662" 
d="M55 0v47l48 9q16 3 21 12.5t5 35.5v282q0 36 -6 47.5t-28 14.5l-49 7l7 48l139 11l12 -7l7 -89h3q18 32 45.5 55t61 35.5t68.5 12.5q53 0 89.5 -19.5t55.5 -57.5t19 -94v-254q0 -22 6 -30t25 -11l47 -8v-47h-245v46l44 8q19 4 24.5 12t5.5 30v225q0 47 -9.5 75
t-31.5 40.5t-59 12.5q-63 0 -100.5 -38t-37.5 -101v-210q0 -23 5 -31.5t20 -11.5l53 -11v-46h-245zM285 580l-24 25l104 138q11 15 20 22t19 7q22 0 35 -16t13 -35q0 -16 -9 -29t-26 -24z" />
    <glyph glyph-name="uni0145" unicode="&#x145;" horiz-adv-x="835" 
d="M62 0v48l58 9q18 3 24 13.5t6 37.5v488q0 26 -6 34.5t-26 12.5l-56 9v48h222l332 -571v8v459q0 26 -6.5 34.5t-26.5 12.5l-55 9v48h245v-48l-57 -9q-19 -3 -25 -13t-6 -38v-592h-103l-362 609v-8v-497q0 -25 6.5 -34t25.5 -13l56 -9v-48h-246zM383 -268l-24 29
q30 26 39 44t9 37h-10q-28 0 -39.5 13.5t-11.5 32.5q0 25 16.5 40.5t44.5 15.5q36 0 51.5 -22.5t15.5 -49.5q0 -39 -23 -78.5t-68 -61.5z" />
    <glyph glyph-name="uni0146" unicode="&#x146;" horiz-adv-x="662" 
d="M55 0v47l48 9q16 3 21 12.5t5 35.5v282q0 36 -6 47.5t-28 14.5l-49 7l7 48l139 11l12 -7l7 -89h3q18 32 45.5 55t61 35.5t68.5 12.5q53 0 89.5 -19.5t55.5 -57.5t19 -94v-254q0 -22 6 -30t25 -11l47 -8v-47h-245v46l44 8q19 4 24.5 12t5.5 30v225q0 47 -9.5 75
t-31.5 40.5t-59 12.5q-63 0 -100.5 -38t-37.5 -101v-210q0 -23 5 -31.5t20 -11.5l53 -11v-46h-245zM313 -268l-24 29q30 26 39 44t9 37h-10q-28 0 -39.5 13.5t-11.5 32.5q0 25 16.5 40.5t44.5 15.5q36 0 51.5 -22.5t15.5 -49.5q0 -39 -23 -78.5t-68 -61.5z" />
    <glyph glyph-name="Ncaron" unicode="&#x147;" horiz-adv-x="835" 
d="M62 0v48l58 9q18 3 24 13.5t6 37.5v488q0 26 -6 34.5t-26 12.5l-56 9v48h222l332 -571v8v459q0 26 -6.5 34.5t-26.5 12.5l-55 9v48h245v-48l-57 -9q-19 -3 -25 -13t-6 -38v-592h-103l-362 609v-8v-497q0 -25 6.5 -34t25.5 -13l56 -9v-48h-246zM411 752q-10 0 -18.5 6.5
t-22.5 21.5l-121 130l25 26l137 -84l140 84l24 -25l-125 -137q-9 -10 -18.5 -16t-20.5 -6z" />
    <glyph glyph-name="ncaron" unicode="&#x148;" horiz-adv-x="662" 
d="M55 0v47l48 9q16 3 21 12.5t5 35.5v282q0 36 -6 47.5t-28 14.5l-49 7l7 48l139 11l12 -7l7 -89h3q18 32 45.5 55t61 35.5t68.5 12.5q53 0 89.5 -19.5t55.5 -57.5t19 -94v-254q0 -22 6 -30t25 -11l47 -8v-47h-245v46l44 8q19 4 24.5 12t5.5 30v225q0 47 -9.5 75
t-31.5 40.5t-59 12.5q-63 0 -100.5 -38t-37.5 -101v-210q0 -23 5 -31.5t20 -11.5l53 -11v-46h-245zM338 580q-10 0 -19 5.5t-22 22.5l-109 145l27 26l123 -100l127 100l26 -25l-114 -152q-9 -11 -18.5 -16.5t-20.5 -5.5z" />
    <glyph glyph-name="napostrophe" unicode="&#x149;" horiz-adv-x="717" 
d="M110 0v47l48 9q16 3 21 12.5t5 35.5v282q0 36 -6 47.5t-28 14.5l-49 7l7 48l139 11l12 -7l7 -89h3q18 32 45.5 55t61 35.5t68.5 12.5q53 0 89.5 -19.5t55.5 -57.5t19 -94v-254q0 -22 6 -30t25 -11l47 -8v-47h-245v46l44 8q19 4 24.5 12t5.5 30v225q0 47 -9.5 75
t-31.5 40.5t-59 12.5q-63 0 -100.5 -38t-37.5 -101v-210q0 -23 5 -31.5t20 -11.5l53 -11v-46h-245zM17 493l-24 29q30 26 39 44t9 37h-10q-28 0 -39.5 13.5t-11.5 32.5q0 25 16.5 40.5t44.5 15.5q36 0 51.5 -22.5t15.5 -49.5q0 -39 -23 -78.5t-68 -61.5z" />
    <glyph glyph-name="Eng" unicode="&#x14a;" horiz-adv-x="824" 
d="M774 700v-48l-57 -9q-19 -3 -25 -13t-6 -38v-497q0 -89 -15 -149t-49 -101.5t-93 -73.5l-28 41q44 35 64.5 81t22.5 114l-366 602h-1v-505q0 -25 6.5 -34t25.5 -13l56 -9v-48h-246v48l58 9q18 3 24 13.5t6 37.5v488q0 26 -6 34.5t-26 12.5l-56 9v48h222l330 -555h2v451
q0 26 -6.5 34.5t-26.5 12.5l-55 9v48h245z" />
    <glyph glyph-name="eng" unicode="&#x14b;" horiz-adv-x="645" 
d="M389 521q53 0 89.5 -19.5t55.5 -57.5t19 -94v-255q0 -91 -14.5 -151.5t-47.5 -101t-90 -71.5l-28 41q50 40 68.5 91.5t18.5 124.5v293q0 47 -9.5 75t-31.5 40.5t-59 12.5q-63 0 -100.5 -38t-37.5 -101v-210q0 -23 5 -31.5t20 -11.5l53 -11v-46h-245v47l48 9q16 3 21 12.5
t5 35.5v282q0 36 -6 47.5t-28 14.5l-49 7l7 48l139 11l12 -7l7 -89h3q18 32 45.5 55t61 35.5t68.5 12.5z" />
    <glyph glyph-name="Omacron" unicode="&#x14c;" horiz-adv-x="760" 
d="M378 -14q-98 0 -172 44t-115 122.5t-41 183.5q0 87 23.5 156.5t67.5 119t106.5 76t139.5 26.5q97 0 169.5 -43t113 -121t40.5 -182q0 -114 -41.5 -200t-116.5 -134t-174 -48zM390 53q104 0 157.5 75.5t53.5 220.5q0 95 -27 162t-77.5 103t-122.5 36q-104 0 -161 -76.5
t-57 -216.5q0 -93 28.5 -161.5t81 -105.5t124.5 -37zM240 795v73h284v-73h-284z" />
    <glyph glyph-name="omacron" unicode="&#x14d;" horiz-adv-x="586" 
d="M289 -14q-74 0 -129 31.5t-84.5 89t-29.5 135.5q0 86 31 148.5t89 96.5t137 34q73 0 126 -31t82 -88t29 -135q0 -85 -31 -148.5t-87 -98t-133 -34.5zM303 48q65 0 100 50.5t35 144.5q0 101 -40.5 160t-110.5 59q-67 0 -103.5 -49t-36.5 -141q0 -105 41.5 -164.5
t114.5 -59.5zM154 635v73h280v-73h-280z" />
    <glyph glyph-name="Obreve" unicode="&#x14e;" horiz-adv-x="760" 
d="M378 -14q-98 0 -172 44t-115 122.5t-41 183.5q0 87 23.5 156.5t67.5 119t106.5 76t139.5 26.5q97 0 169.5 -43t113 -121t40.5 -182q0 -114 -41.5 -200t-116.5 -134t-174 -48zM390 53q104 0 157.5 75.5t53.5 220.5q0 95 -27 162t-77.5 103t-122.5 36q-104 0 -161 -76.5
t-57 -216.5q0 -93 28.5 -161.5t81 -105.5t124.5 -37zM379 752q-50 0 -83 23t-50.5 60.5t-22.5 80.5l40 12q14 -49 43 -72.5t78 -23.5q50 0 79.5 26t40.5 69l38 -10q-3 -39 -22 -77t-54 -63t-87 -25z" />
    <glyph glyph-name="obreve" unicode="&#x14f;" horiz-adv-x="586" 
d="M289 -14q-74 0 -129 31.5t-84.5 89t-29.5 135.5q0 86 31 148.5t89 96.5t137 34q73 0 126 -31t82 -88t29 -135q0 -85 -31 -148.5t-87 -98t-133 -34.5zM303 48q65 0 100 50.5t35 144.5q0 101 -40.5 160t-110.5 59q-67 0 -103.5 -49t-36.5 -141q0 -105 41.5 -164.5
t114.5 -59.5zM291 587q-47 0 -78 24.5t-47 63t-21 81.5l40 12q14 -49 40.5 -75t70.5 -26q45 0 72 28.5t38 71.5l38 -10q-3 -39 -21 -78.5t-51 -65.5t-81 -26z" />
    <glyph glyph-name="Ohungarumlaut" unicode="&#x150;" horiz-adv-x="760" 
d="M378 -14q-98 0 -172 44t-115 122.5t-41 183.5q0 87 23.5 156.5t67.5 119t106.5 76t139.5 26.5q97 0 169.5 -43t113 -121t40.5 -182q0 -114 -41.5 -200t-116.5 -134t-174 -48zM390 53q104 0 157.5 75.5t53.5 220.5q0 95 -27 162t-77.5 103t-122.5 36q-104 0 -161 -76.5
t-57 -216.5q0 -93 28.5 -161.5t81 -105.5t124.5 -37zM270 752l-20 28l117 123q13 11 21.5 17t17.5 6q19 0 30 -15.5t11 -32.5q0 -21 -11 -34.5t-31 -21.5zM448 752l-20 28l118 118q23 23 39 23q19 0 31 -14t12 -31q0 -21 -11.5 -33.5t-30.5 -22.5z" />
    <glyph glyph-name="ohungarumlaut" unicode="&#x151;" horiz-adv-x="586" 
d="M289 -14q-74 0 -129 31.5t-84.5 89t-29.5 135.5q0 86 31 148.5t89 96.5t137 34q73 0 126 -31t82 -88t29 -135q0 -85 -31 -148.5t-87 -98t-133 -34.5zM303 48q65 0 100 50.5t35 144.5q0 101 -40.5 160t-110.5 59q-67 0 -103.5 -49t-36.5 -141q0 -105 41.5 -164.5
t114.5 -59.5zM348 580l-24 25l93 133q11 16 20.5 22.5t19.5 6.5q22 0 32.5 -12.5t10.5 -29.5q0 -15 -9 -30.5t-25 -26.5zM207 580l-24 25l84 136q11 17 19.5 23t18.5 6q22 0 32.5 -12.5t10.5 -31.5q0 -29 -31 -54z" />
    <glyph glyph-name="OE" unicode="&#x152;" horiz-adv-x="1090" 
d="M399 53q104 0 157.5 75.5t53.5 220.5q0 95 -27 162t-77.5 103t-122.5 36q-104 0 -161 -76.5t-57 -216.5q0 -93 28.5 -161.5t81 -105.5t124.5 -37zM387 -14q-98 0 -172 44t-115 122.5t-41 183.5q0 86 23.5 156t67 119.5t104.5 76t136 26.5q68 0 123.5 -24t96.5 -71v81h368
l37 -163l-52 -17q-20 53 -39 80t-47 36.5t-77 9.5h-97v-259h87q36 0 52.5 4.5t24 21.5t16.5 56l46 6v-227l-46 -8q-6 39 -13.5 57t-25.5 23t-54 5h-87v-271h129q48 0 75.5 10t44 38t30.5 82h55l-24 -184h-403v89q-43 -52 -98.5 -77.5t-124.5 -25.5z" />
    <glyph glyph-name="oe" unicode="&#x153;" horiz-adv-x="908" 
d="M290 -14q-79 0 -133 33.5t-82 91.5t-28 131q0 101 36.5 162t95.5 89t125 28q58 0 105.5 -22.5t81.5 -69.5q34 47 82 69.5t106 22.5q52 0 93.5 -21t66 -60.5t24.5 -95.5q0 -24 -3.5 -49t-10.5 -49h-313q3 -85 44 -135.5t117 -50.5q50 0 84.5 20.5t53.5 39.5l35 -35
q-18 -25 -47 -47.5t-66.5 -37t-82.5 -14.5q-65 0 -111 24.5t-77 73.5q-36 -48 -86 -73t-110 -25zM304 48q64 0 99.5 49.5t35.5 145.5q0 104 -41.5 161.5t-109.5 57.5q-61 0 -100.5 -44.5t-39.5 -145.5q0 -102 40.5 -163t115.5 -61zM541 302h230q2 10 2.5 21.5t0.5 24.5
q0 60 -26.5 90t-74.5 30t-75.5 -25t-40 -63t-16.5 -78z" />
    <glyph glyph-name="Racute" unicode="&#x154;" horiz-adv-x="725" 
d="M597 -14q-36 0 -61.5 11.5t-45.5 39.5t-40 77l-48 115q-16 39 -29.5 58.5t-31 26.5t-46.5 7q-25 0 -45 -3v-212q0 -27 7.5 -37t29.5 -13l70 -8v-48h-295v48l58 9q19 3 25 13t6 38v488q0 26 -6.5 34.5t-26.5 12.5l-56 9v48h251q88 0 148 -20.5t90.5 -60t30.5 -98.5
q0 -32 -13 -62t-36.5 -55t-55.5 -42t-69 -24v-3q38 -10 61.5 -31t39.5 -60l35 -82q15 -34 27 -58.5t28.5 -37.5t43.5 -13q9 0 19 2t26 7l10 -36q-21 -20 -46 -30t-55 -10zM306 369q54 0 91.5 17t57.5 50t20 79q0 68 -40.5 99.5t-128.5 31.5h-56v-275q19 -1 32.5 -1.5
t23.5 -0.5zM260 752l-20 28l131 119q13 11 21.5 17t17.5 6q19 0 31 -15.5t12 -32.5q0 -21 -11 -34.5t-31 -21.5z" />
    <glyph glyph-name="racute" unicode="&#x155;" horiz-adv-x="473" 
d="M55 0v48l48 9q16 3 21 12.5t5 35.5v280q0 36 -6 47t-28 15l-49 7l7 49l135 11l12 -7l11 -90h3q60 104 149 104q47 0 75 -26t28 -70q0 -39 -17 -59t-50 -20q-28 0 -43.5 11.5t-15.5 32.5q0 11 4.5 25t14.5 33q-22 11 -46 3.5t-44.5 -29t-33.5 -52t-13 -64.5v-203
q0 -25 4.5 -32.5t20.5 -10.5l86 -13v-47h-278zM222 580l-24 25l104 138q11 15 20 22t19 7q22 0 35 -16t13 -35q0 -16 -9 -29t-26 -24z" />
    <glyph glyph-name="uni0156" unicode="&#x156;" horiz-adv-x="725" 
d="M597 -14q-36 0 -61.5 11.5t-45.5 39.5t-40 77l-48 115q-16 39 -29.5 58.5t-31 26.5t-46.5 7q-25 0 -45 -3v-212q0 -27 7.5 -37t29.5 -13l70 -8v-48h-295v48l58 9q19 3 25 13t6 38v488q0 26 -6.5 34.5t-26.5 12.5l-56 9v48h251q88 0 148 -20.5t90.5 -60t30.5 -98.5
q0 -32 -13 -62t-36.5 -55t-55.5 -42t-69 -24v-3q38 -10 61.5 -31t39.5 -60l35 -82q15 -34 27 -58.5t28.5 -37.5t43.5 -13q9 0 19 2t26 7l10 -36q-21 -20 -46 -30t-55 -10zM306 369q54 0 91.5 17t57.5 50t20 79q0 68 -40.5 99.5t-128.5 31.5h-56v-275q19 -1 32.5 -1.5
t23.5 -0.5zM332 -268l-24 29q30 26 39 44t9 37h-10q-28 0 -39.5 13.5t-11.5 32.5q0 25 16.5 40.5t44.5 15.5q36 0 51.5 -22.5t15.5 -49.5q0 -39 -23 -78.5t-68 -61.5z" />
    <glyph glyph-name="uni0157" unicode="&#x157;" horiz-adv-x="473" 
d="M55 0v48l48 9q16 3 21 12.5t5 35.5v280q0 36 -6 47t-28 15l-49 7l7 49l135 11l12 -7l11 -90h3q60 104 149 104q47 0 75 -26t28 -70q0 -39 -17 -59t-50 -20q-28 0 -43.5 11.5t-15.5 32.5q0 11 4.5 25t14.5 33q-22 11 -46 3.5t-44.5 -29t-33.5 -52t-13 -64.5v-203
q0 -25 4.5 -32.5t20.5 -10.5l86 -13v-47h-278zM147 -268l-24 29q30 26 39 44t9 37h-10q-28 0 -39.5 13.5t-11.5 32.5q0 25 16.5 40.5t44.5 15.5q36 0 51.5 -22.5t15.5 -49.5q0 -39 -23 -78.5t-68 -61.5z" />
    <glyph glyph-name="Rcaron" unicode="&#x158;" horiz-adv-x="725" 
d="M597 -14q-36 0 -61.5 11.5t-45.5 39.5t-40 77l-48 115q-16 39 -29.5 58.5t-31 26.5t-46.5 7q-25 0 -45 -3v-212q0 -27 7.5 -37t29.5 -13l70 -8v-48h-295v48l58 9q19 3 25 13t6 38v488q0 26 -6.5 34.5t-26.5 12.5l-56 9v48h251q88 0 148 -20.5t90.5 -60t30.5 -98.5
q0 -32 -13 -62t-36.5 -55t-55.5 -42t-69 -24v-3q38 -10 61.5 -31t39.5 -60l35 -82q15 -34 27 -58.5t28.5 -37.5t43.5 -13q9 0 19 2t26 7l10 -36q-21 -20 -46 -30t-55 -10zM306 369q54 0 91.5 17t57.5 50t20 79q0 68 -40.5 99.5t-128.5 31.5h-56v-275q19 -1 32.5 -1.5
t23.5 -0.5zM319 752q-10 0 -18.5 6.5t-22.5 21.5l-121 130l25 26l137 -84l140 84l24 -25l-125 -137q-9 -10 -18.5 -16t-20.5 -6z" />
    <glyph glyph-name="rcaron" unicode="&#x159;" horiz-adv-x="473" 
d="M55 0v48l48 9q16 3 21 12.5t5 35.5v280q0 36 -6 47t-28 15l-49 7l7 49l135 11l12 -7l11 -90h3q60 104 149 104q47 0 75 -26t28 -70q0 -39 -17 -59t-50 -20q-28 0 -43.5 11.5t-15.5 32.5q0 11 4.5 25t14.5 33q-22 11 -46 3.5t-44.5 -29t-33.5 -52t-13 -64.5v-203
q0 -25 4.5 -32.5t20.5 -10.5l86 -13v-47h-278zM273 580q-10 0 -19 5.5t-22 22.5l-109 145l27 26l123 -100l127 100l26 -25l-114 -152q-9 -11 -18.5 -16.5t-20.5 -5.5z" />
    <glyph glyph-name="Sacute" unicode="&#x15a;" horiz-adv-x="598" 
d="M316 -14q-51 0 -99.5 18t-80.5 49l-16 -59h-44l-20 216l57 5q30 -82 80.5 -123.5t119.5 -41.5q42 0 71 13.5t44 39.5t15 62q0 55 -35 88t-122 61q-75 24 -120 52t-65 65.5t-20 89.5q0 43 15.5 78.5t43.5 61t67.5 39.5t87.5 14q41 0 80.5 -14t67.5 -38l13 52h47l22 -202
l-56 -8q-23 79 -65 117t-106 38q-54 0 -87 -30t-33 -80q0 -33 14.5 -57t48.5 -43.5t92 -39.5q57 -19 97 -40t64 -45.5t35 -54.5t11 -69q0 -62 -29 -110.5t-79.5 -76t-115.5 -27.5zM223 752l-20 28l131 119q13 11 21.5 17t17.5 6q19 0 31 -15.5t12 -32.5q0 -21 -11 -34.5
t-31 -21.5z" />
    <glyph glyph-name="sacute" unicode="&#x15b;" horiz-adv-x="452" 
d="M65 -14l-16 172l56 4q14 -38 34 -64t47 -39t59 -13q44 0 69 22.5t25 61.5q0 32 -24.5 51t-92.5 38q-44 12 -75 26.5t-50 32.5t-27.5 40.5t-8.5 52.5q0 46 21 79.5t60 52t91 18.5q31 0 61.5 -9.5t48.5 -24.5l8 34h44l13 -163l-57 5q-10 47 -42 75.5t-74 28.5
q-43 0 -66.5 -19t-23.5 -54q0 -31 24 -49.5t91 -38.5q45 -13 76 -27.5t50 -32.5t27.5 -41t8.5 -53q0 -49 -23 -86.5t-63 -58.5t-93 -21q-39 0 -71.5 9t-53.5 25l-11 -34h-42zM182 580l-24 25l104 138q11 15 20 22t19 7q22 0 35 -16t13 -35q0 -16 -9 -29t-26 -24z" />
    <glyph glyph-name="Scircumflex" unicode="&#x15c;" horiz-adv-x="598" 
d="M316 -14q-51 0 -99.5 18t-80.5 49l-16 -59h-44l-20 216l57 5q30 -82 80.5 -123.5t119.5 -41.5q42 0 71 13.5t44 39.5t15 62q0 55 -35 88t-122 61q-75 24 -120 52t-65 65.5t-20 89.5q0 43 15.5 78.5t43.5 61t67.5 39.5t87.5 14q41 0 80.5 -14t67.5 -38l13 52h47l22 -202
l-56 -8q-23 79 -65 117t-106 38q-54 0 -87 -30t-33 -80q0 -33 14.5 -57t48.5 -43.5t92 -39.5q57 -19 97 -40t64 -45.5t35 -54.5t11 -69q0 -62 -29 -110.5t-79.5 -76t-115.5 -27.5zM159 750l-24 25l125 137q9 10 19 16t20 6q11 0 19 -6.5t22 -21.5l121 -130l-25 -26l-137 84z
" />
    <glyph glyph-name="scircumflex" unicode="&#x15d;" horiz-adv-x="452" 
d="M65 -14l-16 172l56 4q14 -38 34 -64t47 -39t59 -13q44 0 69 22.5t25 61.5q0 32 -24.5 51t-92.5 38q-44 12 -75 26.5t-50 32.5t-27.5 40.5t-8.5 52.5q0 46 21 79.5t60 52t91 18.5q31 0 61.5 -9.5t48.5 -24.5l8 34h44l13 -163l-57 5q-10 47 -42 75.5t-74 28.5
q-43 0 -66.5 -19t-23.5 -54q0 -31 24 -49.5t91 -38.5q45 -13 76 -27.5t50 -32.5t27.5 -41t8.5 -53q0 -49 -23 -86.5t-63 -58.5t-93 -21q-39 0 -71.5 9t-53.5 25l-11 -34h-42zM116 580l-26 25l114 152q9 11 19 16.5t20 5.5q11 0 19.5 -5.5t21.5 -22.5l109 -145l-27 -26
l-123 100z" />
    <glyph glyph-name="Scedilla" unicode="&#x15e;" horiz-adv-x="598" 
d="M316 -14q-51 0 -99.5 18t-80.5 49l-16 -59h-44l-20 216l57 5q30 -82 80.5 -123.5t119.5 -41.5q42 0 71 13.5t44 39.5t15 62q0 55 -35 88t-122 61q-75 24 -120 52t-65 65.5t-20 89.5q0 43 15.5 78.5t43.5 61t67.5 39.5t87.5 14q41 0 80.5 -14t67.5 -38l13 52h47l22 -202
l-56 -8q-23 79 -65 117t-106 38q-54 0 -87 -30t-33 -80q0 -33 14.5 -57t48.5 -43.5t92 -39.5q57 -19 97 -40t64 -45.5t35 -54.5t11 -69q0 -62 -29 -110.5t-79.5 -76t-115.5 -27.5zM291 -229q-35 0 -61 15.5t-34 24.5l24 37q13 -10 30.5 -16t33.5 -6q20 0 35 10.5t15 32.5
q0 21 -13 29.5t-37 8.5q-10 0 -16.5 -0.5t-13.5 -2.5l-8 21l35 88h46l-27 -70q48 6 77 -13.5t29 -62.5q0 -42 -28 -69t-87 -27z" />
    <glyph glyph-name="scedilla" unicode="&#x15f;" horiz-adv-x="452" 
d="M65 -14l-16 172l56 4q14 -38 34 -64t47 -39t59 -13q44 0 69 22.5t25 61.5q0 32 -24.5 51t-92.5 38q-44 12 -75 26.5t-50 32.5t-27.5 40.5t-8.5 52.5q0 46 21 79.5t60 52t91 18.5q31 0 61.5 -9.5t48.5 -24.5l8 34h44l13 -163l-57 5q-10 47 -42 75.5t-74 28.5
q-43 0 -66.5 -19t-23.5 -54q0 -31 24 -49.5t91 -38.5q45 -13 76 -27.5t50 -32.5t27.5 -41t8.5 -53q0 -49 -23 -86.5t-63 -58.5t-93 -21q-39 0 -71.5 9t-53.5 25l-11 -34h-42zM230 -229q-35 0 -61 15.5t-34 24.5l24 37q13 -10 30.5 -16t33.5 -6q20 0 35 10.5t15 32.5
q0 21 -13 29.5t-37 8.5q-10 0 -16.5 -0.5t-13.5 -2.5l-8 21l35 88h46l-27 -70q48 6 77 -13.5t29 -62.5q0 -42 -28 -69t-87 -27z" />
    <glyph glyph-name="Scaron" unicode="&#x160;" horiz-adv-x="598" 
d="M316 -14q-51 0 -99.5 18t-80.5 49l-16 -59h-44l-20 216l57 5q30 -82 80.5 -123.5t119.5 -41.5q42 0 71 13.5t44 39.5t15 62q0 55 -35 88t-122 61q-75 24 -120 52t-65 65.5t-20 89.5q0 43 15.5 78.5t43.5 61t67.5 39.5t87.5 14q41 0 80.5 -14t67.5 -38l13 52h47l22 -202
l-56 -8q-23 79 -65 117t-106 38q-54 0 -87 -30t-33 -80q0 -33 14.5 -57t48.5 -43.5t92 -39.5q57 -19 97 -40t64 -45.5t35 -54.5t11 -69q0 -62 -29 -110.5t-79.5 -76t-115.5 -27.5zM297 752q-10 0 -18.5 6.5t-22.5 21.5l-121 130l25 26l137 -84l140 84l24 -25l-125 -137
q-9 -10 -18.5 -16t-20.5 -6z" />
    <glyph glyph-name="scaron" unicode="&#x161;" horiz-adv-x="452" 
d="M65 -14l-16 172l56 4q14 -38 34 -64t47 -39t59 -13q44 0 69 22.5t25 61.5q0 32 -24.5 51t-92.5 38q-44 12 -75 26.5t-50 32.5t-27.5 40.5t-8.5 52.5q0 46 21 79.5t60 52t91 18.5q31 0 61.5 -9.5t48.5 -24.5l8 34h44l13 -163l-57 5q-10 47 -42 75.5t-74 28.5
q-43 0 -66.5 -19t-23.5 -54q0 -31 24 -49.5t91 -38.5q45 -13 76 -27.5t50 -32.5t27.5 -41t8.5 -53q0 -49 -23 -86.5t-63 -58.5t-93 -21q-39 0 -71.5 9t-53.5 25l-11 -34h-42zM234 580q-10 0 -19 5.5t-22 22.5l-109 145l27 26l123 -100l127 100l26 -25l-114 -152
q-9 -11 -18.5 -16.5t-20.5 -5.5z" />
    <glyph glyph-name="uni0162" unicode="&#x162;" horiz-adv-x="738" 
d="M207 0v48l80 12q19 3 26 14t7 36v535h-55q-37 0 -62 -6t-43 -23t-32.5 -48t-31.5 -81l-54 13l39 200h578l37 -200l-55 -13q-21 67 -40.5 100.5t-48 45.5t-77.5 12h-56v-539q0 -25 6.5 -33.5t27.5 -12.5l79 -12v-48h-325zM358 -229q-35 0 -61 15.5t-34 24.5l24 37
q13 -10 30.5 -16t33.5 -6q20 0 35 10.5t15 32.5q0 21 -13 29.5t-37 8.5q-10 0 -16.5 -0.5t-13.5 -2.5l-8 21l35 88h46l-27 -70q48 6 77 -13.5t29 -62.5q0 -42 -28 -69t-87 -27z" />
    <glyph glyph-name="uni0163" unicode="&#x163;" horiz-adv-x="404" 
d="M249 -14q-68 0 -100.5 36.5t-32.5 112.5v309h-79v52q35 3 58 21.5t36 57t17 99.5l48 6l13 -6v-167h156v-63h-156v-302q0 -42 17.5 -62.5t53.5 -20.5q26 0 49 8t47 24l23 -36q-32 -33 -71 -51t-79 -18zM237 -229q-35 0 -61 15.5t-34 24.5l24 37q13 -10 30.5 -16t33.5 -6
q20 0 35 10.5t15 32.5q0 21 -13 29.5t-37 8.5q-10 0 -16.5 -0.5t-13.5 -2.5l-8 21l35 88h46l-27 -70q48 6 77 -13.5t29 -62.5q0 -42 -28 -69t-87 -27z" />
    <glyph glyph-name="Tcaron" unicode="&#x164;" horiz-adv-x="738" 
d="M207 0v48l80 12q19 3 26 14t7 36v535h-55q-37 0 -62 -6t-43 -23t-32.5 -48t-31.5 -81l-54 13l39 200h578l37 -200l-55 -13q-21 67 -40.5 100.5t-48 45.5t-77.5 12h-56v-539q0 -25 6.5 -33.5t27.5 -12.5l79 -12v-48h-325zM368 752q-10 0 -18.5 6.5t-22.5 21.5l-121 130
l25 26l137 -84l140 84l24 -25l-125 -137q-9 -10 -18.5 -16t-20.5 -6z" />
    <glyph glyph-name="tcaron" unicode="&#x165;" horiz-adv-x="404" 
d="M249 -14q-68 0 -100.5 36.5t-32.5 112.5v309h-79v52q35 3 58 21.5t36 57t17 99.5l48 6l13 -6v-167h156v-63h-156v-302q0 -42 17.5 -62.5t53.5 -20.5q26 0 49 8t47 24l23 -36q-32 -33 -71 -51t-79 -18zM307 570l-26 28q20 26 30.5 44.5t10.5 37.5q0 11 -3.5 17.5
t-12.5 16.5q-11 12 -15.5 20t-4.5 18q0 25 17 35t35 10q34 0 47.5 -22t13.5 -46q0 -36 -24 -80t-68 -79z" />
    <glyph glyph-name="Tbar" unicode="&#x166;" horiz-adv-x="738" 
d="M165 315l8 63h402v-63h-410zM207 0v48l80 12q19 3 26 14t7 36v535h-55q-37 0 -62 -6t-43 -23t-32.5 -48t-31.5 -81l-54 13l39 200h578l37 -200l-55 -13q-21 67 -40.5 100.5t-48 45.5t-77.5 12h-56v-539q0 -25 6.5 -33.5t27.5 -12.5l79 -12v-48h-325z" />
    <glyph glyph-name="tbar" unicode="&#x167;" horiz-adv-x="404" 
d="M32 262l8 59h325v-59h-333zM249 -14q-68 0 -100.5 36.5t-32.5 112.5v309h-79v52q35 3 58 21.5t36 57t17 99.5l48 6l13 -6v-167h156v-63h-156v-302q0 -42 17.5 -62.5t53.5 -20.5q26 0 49 8t47 24l23 -36q-32 -33 -71 -51t-79 -18z" />
    <glyph glyph-name="Utilde" unicode="&#x168;" horiz-adv-x="810" 
d="M404 -14q-90 0 -149 30.5t-88 92.5t-29 156v331q0 26 -6.5 34.5t-26.5 12.5l-56 9v48h276v-48l-58 -9q-18 -3 -24 -13.5t-6 -37.5v-320q0 -76 18.5 -124t58.5 -70t104 -22q65 0 106.5 24t62 73.5t20.5 125.5v317q0 26 -6.5 34.5t-26.5 12.5l-55 9v48h246v-48l-57 -9
q-19 -3 -25 -13t-6 -38v-301q0 -152 -68 -228.5t-205 -76.5zM493 777q-19 0 -39.5 5.5t-52.5 18.5q-30 12 -47.5 18t-25.5 6q-14 0 -23.5 -7t-23.5 -29l-31 19q26 56 45 75t48 19q15 0 34.5 -5.5t54.5 -20.5q22 -9 36.5 -14.5t24 -7.5t15.5 -2q12 0 20 7t24 30l31 -19
q-26 -54 -45 -73.5t-45 -19.5z" />
    <glyph glyph-name="utilde" unicode="&#x169;" horiz-adv-x="634" 
d="M265 -14q-52 0 -88 19.5t-54 57.5t-18 94v229q0 36 -6 47t-28 15l-44 7l8 48l151 11l12 -7v-321q0 -48 9 -76t30 -40t57 -12q62 0 98.5 37.5t36.5 101.5v189q0 36 -6 47t-28 15l-45 7l8 48l152 11l12 -7v-406q0 -24 6.5 -32.5t25.5 -12.5l50 -9v-47l-155 -6l-14 81h-3
q-26 -31 -52 -50.5t-54 -29t-61 -9.5zM384 620q-12 0 -25 2t-28.5 7.5t-36.5 14.5q-40 17 -51.5 21t-18.5 4q-13 0 -22.5 -7t-24.5 -30l-31 19q25 53 44 72t49 19q17 0 35 -5t51 -19q24 -9 38 -14.5t22.5 -7.5t13.5 -2q13 0 21.5 7.5t22.5 29.5l31 -19q-25 -54 -44 -73
t-46 -19z" />
    <glyph glyph-name="Umacron" unicode="&#x16a;" horiz-adv-x="810" 
d="M404 -14q-90 0 -149 30.5t-88 92.5t-29 156v331q0 26 -6.5 34.5t-26.5 12.5l-56 9v48h276v-48l-58 -9q-18 -3 -24 -13.5t-6 -37.5v-320q0 -76 18.5 -124t58.5 -70t104 -22q65 0 106.5 24t62 73.5t20.5 125.5v317q0 26 -6.5 34.5t-26.5 12.5l-55 9v48h246v-48l-57 -9
q-19 -3 -25 -13t-6 -38v-301q0 -152 -68 -228.5t-205 -76.5zM274 795v73h284v-73h-284z" />
    <glyph glyph-name="umacron" unicode="&#x16b;" horiz-adv-x="634" 
d="M265 -14q-52 0 -88 19.5t-54 57.5t-18 94v229q0 36 -6 47t-28 15l-44 7l8 48l151 11l12 -7v-321q0 -48 9 -76t30 -40t57 -12q62 0 98.5 37.5t36.5 101.5v189q0 36 -6 47t-28 15l-45 7l8 48l152 11l12 -7v-406q0 -24 6.5 -32.5t25.5 -12.5l50 -9v-47l-155 -6l-14 81h-3
q-26 -31 -52 -50.5t-54 -29t-61 -9.5zM170 635v73h280v-73h-280z" />
    <glyph glyph-name="Ubreve" unicode="&#x16c;" horiz-adv-x="810" 
d="M404 -14q-90 0 -149 30.5t-88 92.5t-29 156v331q0 26 -6.5 34.5t-26.5 12.5l-56 9v48h276v-48l-58 -9q-18 -3 -24 -13.5t-6 -37.5v-320q0 -76 18.5 -124t58.5 -70t104 -22q65 0 106.5 24t62 73.5t20.5 125.5v317q0 26 -6.5 34.5t-26.5 12.5l-55 9v48h246v-48l-57 -9
q-19 -3 -25 -13t-6 -38v-301q0 -152 -68 -228.5t-205 -76.5zM413 752q-50 0 -83 23t-50.5 60.5t-22.5 80.5l40 12q14 -49 43 -72.5t78 -23.5q50 0 79.5 26t40.5 69l38 -10q-3 -39 -22 -77t-54 -63t-87 -25z" />
    <glyph glyph-name="ubreve" unicode="&#x16d;" horiz-adv-x="634" 
d="M265 -14q-52 0 -88 19.5t-54 57.5t-18 94v229q0 36 -6 47t-28 15l-44 7l8 48l151 11l12 -7v-321q0 -48 9 -76t30 -40t57 -12q62 0 98.5 37.5t36.5 101.5v189q0 36 -6 47t-28 15l-45 7l8 48l152 11l12 -7v-406q0 -24 6.5 -32.5t25.5 -12.5l50 -9v-47l-155 -6l-14 81h-3
q-26 -31 -52 -50.5t-54 -29t-61 -9.5zM306 587q-47 0 -78 24.5t-47 63t-21 81.5l40 12q14 -49 40.5 -75t70.5 -26q45 0 72 28.5t38 71.5l38 -10q-3 -39 -21 -78.5t-50.5 -65.5t-81.5 -26z" />
    <glyph glyph-name="Uring" unicode="&#x16e;" horiz-adv-x="810" 
d="M404 -14q-90 0 -149 30.5t-88 92.5t-29 156v331q0 26 -6.5 34.5t-26.5 12.5l-56 9v48h276v-48l-58 -9q-18 -3 -24 -13.5t-6 -37.5v-320q0 -76 18.5 -124t58.5 -70t104 -22q65 0 106.5 24t62 73.5t20.5 125.5v317q0 26 -6.5 34.5t-26.5 12.5l-55 9v48h246v-48l-57 -9
q-19 -3 -25 -13t-6 -38v-301q0 -152 -68 -228.5t-205 -76.5zM415 742q-58 0 -84 29t-26 76q0 43 27.5 73.5t84.5 30.5q53 0 80.5 -28t27.5 -74q0 -47 -28.5 -77t-81.5 -30zM416 789q29 0 39.5 17.5t10.5 40.5t-12 40t-40 17t-39.5 -17.5t-11.5 -39.5t11.5 -40t41.5 -18z" />
    <glyph glyph-name="uring" unicode="&#x16f;" horiz-adv-x="634" 
d="M265 -14q-52 0 -88 19.5t-54 57.5t-18 94v229q0 36 -6 47t-28 15l-44 7l8 48l151 11l12 -7v-321q0 -48 9 -76t30 -40t57 -12q62 0 98.5 37.5t36.5 101.5v189q0 36 -6 47t-28 15l-45 7l8 48l152 11l12 -7v-406q0 -24 6.5 -32.5t25.5 -12.5l50 -9v-47l-155 -6l-14 81h-3
q-26 -31 -52 -50.5t-54 -29t-61 -9.5zM310 582q-56 0 -82 28.5t-26 74.5q0 42 27.5 72t82.5 30q53 0 79.5 -27.5t26.5 -72.5q0 -46 -27.5 -75.5t-80.5 -29.5zM311 629q28 0 38 17t10 39t-12 39t-38 17q-27 0 -38 -17.5t-11 -38.5t11.5 -38.5t39.5 -17.5z" />
    <glyph glyph-name="Uhungarumlaut" unicode="&#x170;" horiz-adv-x="810" 
d="M404 -14q-90 0 -149 30.5t-88 92.5t-29 156v331q0 26 -6.5 34.5t-26.5 12.5l-56 9v48h276v-48l-58 -9q-18 -3 -24 -13.5t-6 -37.5v-320q0 -76 18.5 -124t58.5 -70t104 -22q65 0 106.5 24t62 73.5t20.5 125.5v317q0 26 -6.5 34.5t-26.5 12.5l-55 9v48h246v-48l-57 -9
q-19 -3 -25 -13t-6 -38v-301q0 -152 -68 -228.5t-205 -76.5zM304 752l-20 28l117 123q13 11 21.5 17t17.5 6q19 0 30 -15.5t11 -32.5q0 -21 -11 -34.5t-31 -21.5zM482 752l-20 28l118 118q23 23 39 23q19 0 31 -14t12 -31q0 -21 -11.5 -33.5t-30.5 -22.5z" />
    <glyph glyph-name="uhungarumlaut" unicode="&#x171;" horiz-adv-x="634" 
d="M265 -14q-52 0 -88 19.5t-54 57.5t-18 94v229q0 36 -6 47t-28 15l-44 7l8 48l151 11l12 -7v-321q0 -48 9 -76t30 -40t57 -12q62 0 98.5 37.5t36.5 101.5v189q0 36 -6 47t-28 15l-45 7l8 48l152 11l12 -7v-406q0 -24 6.5 -32.5t25.5 -12.5l50 -9v-47l-155 -6l-14 81h-3
q-26 -31 -52 -50.5t-54 -29t-61 -9.5zM364 580l-24 25l93 133q11 16 20.5 22.5t19.5 6.5q22 0 32.5 -12.5t10.5 -29.5q0 -15 -9 -30.5t-25 -26.5zM223 580l-24 25l84 136q11 17 19.5 23t18.5 6q22 0 32.5 -12.5t10.5 -31.5q0 -29 -31 -54z" />
    <glyph glyph-name="Uogonek" unicode="&#x172;" horiz-adv-x="810" 
d="M435 -229q-43 0 -67.5 23.5t-24.5 57.5q0 39 20.5 68.5t49.5 51t54 37.5l69 4q-25 -12 -49.5 -34t-41 -48.5t-16.5 -53.5q0 -20 10 -30.5t31 -10.5q14 0 26.5 3t22.5 6l11 -35q-17 -14 -42 -26.5t-53 -12.5zM404 -14q-90 0 -149 30.5t-88 92.5t-29 156v331
q0 26 -6.5 34.5t-26.5 12.5l-56 9v48h276v-48l-58 -9q-18 -3 -24 -13.5t-6 -37.5v-320q0 -76 18.5 -124t58.5 -70t104 -22q65 0 106.5 24t62 73.5t20.5 125.5v317q0 26 -6.5 34.5t-26.5 12.5l-55 9v48h246v-48l-57 -9q-19 -3 -25 -13t-6 -38v-301q0 -152 -68 -228.5
t-205 -76.5z" />
    <glyph glyph-name="uogonek" unicode="&#x173;" horiz-adv-x="634" 
d="M265 -14q-52 0 -88 19.5t-54 57.5t-18 94v229q0 36 -6 47t-28 15l-44 7l8 48l151 11l12 -7v-321q0 -48 9 -76t30 -40t57 -12q62 0 98.5 37.5t36.5 101.5v189q0 36 -6 47t-28 15l-45 7l8 48l152 11l12 -7v-406q0 -24 6.5 -32.5t25.5 -12.5l50 -9v-47l-155 -6l-14 81h-3
q-26 -31 -52 -50.5t-54 -29t-61 -9.5zM502 -229q-43 0 -67.5 23.5t-24.5 57.5q0 39 20.5 68.5t49.5 51t54 37.5l49 -4q-20 -16 -40 -36t-33.5 -43t-13.5 -49q0 -20 10 -30.5t31 -10.5q14 0 26.5 3t22.5 6l11 -35q-17 -14 -42 -26.5t-53 -12.5z" />
    <glyph glyph-name="Wcircumflex" unicode="&#x174;" horiz-adv-x="1092" 
d="M259 0l-152 591q-7 27 -15 36.5t-30 13.5l-40 8v51h264v-48l-51 -7q-20 -3 -24.5 -13t1.5 -37l117 -509h5l161 614h109l179 -609h5l118 498q6 27 1 38t-25 15l-49 11v47h237v-48l-47 -8q-20 -3 -30 -14.5t-17 -39.5l-151 -590h-113l-174 601h-3l-156 -601h-120zM409 750
l-24 25l125 137q9 10 19 16t20 6q11 0 19 -6.5t22 -21.5l121 -130l-25 -26l-137 84z" />
    <glyph glyph-name="wcircumflex" unicode="&#x175;" horiz-adv-x="860" 
d="M209 0l-123 399q-7 27 -15 36.5t-29 14.5l-35 8l10 49h235v-46l-48 -7q-19 -3 -23 -12t3 -38l88 -321h5l116 424h107l112 -422h5l87 312q8 27 3 38t-26 16l-43 10l9 46h206v-47l-37 -8q-19 -4 -28 -14.5t-18 -39.5l-121 -398h-105l-109 412h-5l-111 -412h-110zM321 580
l-26 25l114 152q9 11 19 16.5t20 5.5q11 0 19.5 -5.5t21.5 -22.5l109 -145l-27 -26l-123 100z" />
    <glyph glyph-name="Ycircumflex" unicode="&#x176;" horiz-adv-x="716" 
d="M213 0v48l62 9q19 3 25 13t6 38v185l-187 298q-16 27 -28 37t-32 14l-37 7v51h279v-48l-55 -7q-23 -2 -28 -15.5t9 -34.5l146 -237h5l138 233q14 21 10 33.5t-27 17.5l-46 11v47h241v-48l-49 -8q-16 -2 -26.5 -12.5t-30.5 -42.5l-183 -297v-188q0 -25 6.5 -34t25.5 -13
l61 -9v-48h-285zM236 750l-24 25l125 137q9 10 19 16t20 6q11 0 19 -6.5t22 -21.5l121 -130l-25 -26l-137 84z" />
    <glyph glyph-name="ycircumflex" unicode="&#x177;" horiz-adv-x="576" 
d="M113 -229q-47 0 -75 21.5t-28 58.5q0 29 18.5 48t46.5 19q48 0 53 -36q1 -6 0 -20t-4 -37q21 -1 37 9t33 37.5t39 78.5l25 57l-165 392q-13 30 -20 38.5t-24 12.5l-35 8l10 49h238v-46l-48 -7q-20 -3 -24.5 -13.5t5.5 -36.5l111 -280h5l111 273q10 25 4.5 37t-27.5 17
l-44 10l10 46h209v-47l-37 -8q-17 -4 -25 -13t-22 -41l-193 -452q-28 -66 -55 -104.5t-57.5 -54.5t-71.5 -16zM184 580l-26 25l114 152q9 11 19 16.5t20 5.5q11 0 19.5 -5.5t21.5 -22.5l109 -145l-27 -26l-123 100z" />
    <glyph glyph-name="Ydieresis" unicode="&#x178;" horiz-adv-x="716" 
d="M213 0v48l62 9q19 3 25 13t6 38v185l-187 298q-16 27 -28 37t-32 14l-37 7v51h279v-48l-55 -7q-23 -2 -28 -15.5t9 -34.5l146 -237h5l138 233q14 21 10 33.5t-27 17.5l-46 11v47h241v-48l-49 -8q-16 -2 -26.5 -12.5t-30.5 -42.5l-183 -297v-188q0 -25 6.5 -34t25.5 -13
l61 -9v-48h-285zM475 771q-28 0 -46.5 17.5t-18.5 45.5t18.5 46t46.5 18q29 0 47 -17.5t18 -45.5t-18 -46t-47 -18zM272 771q-28 0 -46 17.5t-18 45.5t18 46t46 18q29 0 47.5 -17.5t18.5 -45.5t-18.5 -46t-47.5 -18z" />
    <glyph glyph-name="Zacute" unicode="&#x179;" horiz-adv-x="657" 
d="M58 0v48l412 599h-214q-36 0 -58.5 -10.5t-38 -39t-33.5 -83.5l-59 -5l12 191h509v-50l-410 -595h211q41 0 67.5 12t46 43.5t39.5 88.5h55l-19 -199h-520zM250 752l-20 28l131 119q13 11 21.5 17t17.5 6q19 0 31 -15.5t12 -32.5q0 -21 -11 -34.5t-31 -21.5z" />
    <glyph glyph-name="zacute" unicode="&#x17a;" horiz-adv-x="486" 
d="M37 0v44l299 410h-117q-38 0 -59.5 -7.5t-35 -31t-27.5 -70.5l-57 -5l12 167h393v-46l-298 -406h118q32 0 52.5 4t34.5 16.5t26 37.5t27 68h54l-14 -181h-408zM193 580l-24 25l104 138q11 15 20 22t19 7q22 0 35 -16t13 -35q0 -16 -9 -29t-26 -24z" />
    <glyph glyph-name="Zdotaccent" unicode="&#x17b;" horiz-adv-x="657" 
d="M58 0v48l412 599h-214q-36 0 -58.5 -10.5t-38 -39t-33.5 -83.5l-59 -5l12 191h509v-50l-410 -595h211q41 0 67.5 12t46 43.5t39.5 88.5h55l-19 -199h-520zM324 767q-29 0 -48 18.5t-19 47.5t19 48t48 19q30 0 49 -18.5t19 -47.5t-19 -48t-49 -19z" />
    <glyph glyph-name="zdotaccent" unicode="&#x17c;" horiz-adv-x="486" 
d="M37 0v44l299 410h-117q-38 0 -59.5 -7.5t-35 -31t-27.5 -70.5l-57 -5l12 167h393v-46l-298 -406h118q32 0 52.5 4t34.5 16.5t26 37.5t27 68h54l-14 -181h-408zM244 620q-29 0 -48 18.5t-19 47.5t19 48t48 19q30 0 49 -18.5t19 -47.5t-19 -48t-49 -19z" />
    <glyph glyph-name="Zcaron" unicode="&#x17d;" horiz-adv-x="657" 
d="M58 0v48l412 599h-214q-36 0 -58.5 -10.5t-38 -39t-33.5 -83.5l-59 -5l12 191h509v-50l-410 -595h211q41 0 67.5 12t46 43.5t39.5 88.5h55l-19 -199h-520zM324 752q-10 0 -18.5 6.5t-22.5 21.5l-121 130l25 26l137 -84l140 84l24 -25l-125 -137q-9 -10 -18.5 -16
t-20.5 -6z" />
    <glyph glyph-name="zcaron" unicode="&#x17e;" horiz-adv-x="486" 
d="M37 0v44l299 410h-117q-38 0 -59.5 -7.5t-35 -31t-27.5 -70.5l-57 -5l12 167h393v-46l-298 -406h118q32 0 52.5 4t34.5 16.5t26 37.5t27 68h54l-14 -181h-408zM244 580q-10 0 -19 5.5t-22 22.5l-109 145l27 26l123 -100l127 100l26 -25l-114 -152q-9 -11 -18.5 -16.5
t-20.5 -5.5z" />
    <glyph glyph-name="uni018F" unicode="&#x18f;" horiz-adv-x="701" 
d="M314 -14q-69 0 -127 28.5t-92.5 82t-34.5 129.5q0 33 4.5 67t14.5 67h455q-3 77 -32 137.5t-82 95.5t-129 35q-61 0 -108 -22.5t-93 -63.5l-40 37q25 34 64.5 65t91.5 50.5t115 19.5q105 0 176.5 -48t107.5 -130t36 -184q0 -116 -41.5 -198t-115 -125t-170.5 -43zM329 48
q66 0 109.5 34.5t67 88.5t28.5 112h-367q-1 -13 -2.5 -28.5t-1.5 -33.5q0 -89 46.5 -131t119.5 -42z" />
    <glyph glyph-name="florin" unicode="&#x192;" horiz-adv-x="529" 
d="M39 -193q-55 0 -93 24t-38 70q0 28 18.5 48t47.5 20q28 0 39 -10t11 -30q0 -10 -8 -27.5t-19 -32.5q11 -5 23 -7.5t26 -2.5q38 0 63.5 30.5t35.5 100.5l48 391h-80l7 54h80l6 43q10 73 37.5 125.5t71.5 81.5t100 29t95 -24.5t39 -71.5q0 -28 -18.5 -48t-47.5 -20
q-28 0 -39 10.5t-11 29.5q0 11 8.5 28t18.5 32q-10 5 -24 8.5t-28 3.5q-41 0 -66.5 -29.5t-35.5 -100.5l-12 -95h146l-8 -56h-146l-41 -336q-9 -72 -37 -125.5t-71 -83t-98 -29.5z" />
    <glyph glyph-name="Ohorn" unicode="&#x1a0;" horiz-adv-x="834" 
d="M387 -14q-102 0 -175.5 45t-113 124t-39.5 179q0 102 28 173.5t76 116.5t108.5 66t124.5 21q95 0 174 -45.5t118 -137.5q41 23 60 54t22 63h-9q-32 0 -47 12.5t-15 37.5q0 30 18.5 48.5t45.5 18.5q41 0 56 -26.5t15 -61.5q0 -30 -14.5 -67.5t-43 -72.5t-71.5 -56
q7 -25 10.5 -53t3.5 -59q0 -123 -45 -207.5t-120 -128.5t-167 -44zM399 53q97 0 154 70t57 224q0 99 -28.5 165.5t-79.5 100.5t-119 34q-62 0 -111.5 -29.5t-78 -94t-28.5 -168.5q0 -93 28.5 -161t81 -104.5t124.5 -36.5z" />
    <glyph glyph-name="ohorn" unicode="&#x1a1;" horiz-adv-x="616" 
d="M290 -14q-79 0 -133 33.5t-82 91.5t-28 131q0 101 36.5 162t95.5 89t125 28q56 0 103.5 -20t80.5 -61q32 23 47 51t17 56h-9q-32 0 -47 12.5t-15 37.5q0 30 18.5 48.5t45.5 18.5q41 0 56 -26.5t15 -61.5q0 -26 -11.5 -59t-33.5 -65t-56 -56q13 -26 19.5 -58.5t6.5 -70.5
q0 -91 -33 -153.5t-89.5 -95t-128.5 -32.5zM304 48q64 0 99.5 49.5t35.5 145.5q0 104 -41.5 161.5t-109.5 57.5q-61 0 -100.5 -44.5t-39.5 -145.5q0 -102 40.5 -163t115.5 -61z" />
    <glyph glyph-name="Uhorn" unicode="&#x1af;" horiz-adv-x="866" 
d="M404 -14q-102 0 -160 36t-82 99t-24 144v331q0 23 -5 33t-28 14l-56 9v48h276v-48l-58 -9q-21 -4 -25.5 -16t-4.5 -35v-320q0 -74 17.5 -122t57.5 -71t106 -23q59 0 101.5 21.5t65 70.5t22.5 131v317q0 23 -5 33t-28 14l-55 9v48h158v-183q69 22 95.5 57t29.5 71h-9
q-32 0 -47 12.5t-15 37.5q0 30 18.5 48.5t45.5 18.5q41 0 56 -26.5t15 -61.5q0 -26 -11 -58t-33.5 -63t-58.5 -55t-86 -35v-172q0 -159 -71 -232t-202 -73z" />
    <glyph glyph-name="uhorn" unicode="&#x1b0;" horiz-adv-x="686" 
d="M265 -14q-61 0 -96 23.5t-49.5 62.5t-14.5 85v229q0 34 -5.5 46t-28.5 16l-44 7l8 48l151 11l12 -7v-321q0 -35 5 -64.5t25 -46.5t66 -17q35 0 65.5 14.5t50 45.5t19.5 80v188q0 34 -5.5 46t-28.5 16l-45 7l8 48l152 11l12 -7v-86q51 22 74 56.5t26 69.5h-9
q-32 0 -47 12.5t-15 37.5q0 30 18.5 48.5t45.5 18.5q41 0 56 -26.5t15 -61.5q0 -34 -18.5 -77.5t-54.5 -80.5t-91 -52v-265q0 -23 6 -32t26 -13l50 -9v-47l-155 -6l-14 82h-3q-39 -47 -78.5 -68.5t-88.5 -21.5z" />
    <glyph glyph-name="uni01C4" unicode="&#x1c4;" horiz-adv-x="1412" 
d="M62 0v48l58 9q19 3 25 13t6 38v488q0 26 -6.5 34.5t-26.5 12.5l-56 9v48h287q119 0 200.5 -38t123.5 -111t42 -179q0 -87 -26.5 -156t-77.5 -117.5t-124 -73.5t-166 -25h-259zM322 55q74 0 127.5 18.5t89 56.5t52.5 96.5t17 137.5q0 92 -30.5 155t-90 95t-146.5 32h-91
v-586q11 -2 32 -3.5t40 -1.5zM813 0v48l412 599h-214q-36 0 -58.5 -10.5t-38 -39t-33.5 -83.5l-59 -5l12 191h509v-50l-410 -595h211q41 0 67.5 12t46 43.5t39.5 88.5h55l-19 -199h-520zM1079 752q-10 0 -18.5 6.5t-22.5 21.5l-121 130l25 26l137 -84l140 84l24 -25
l-125 -137q-9 -10 -18.5 -16t-20.5 -6z" />
    <glyph glyph-name="uni01C5" unicode="&#x1c5;" horiz-adv-x="1251" 
d="M62 0v48l58 9q19 3 25 13t6 38v488q0 26 -6.5 34.5t-26.5 12.5l-56 9v48h287q119 0 200.5 -38t123.5 -111t42 -179q0 -87 -26.5 -156t-77.5 -117.5t-124 -73.5t-166 -25h-259zM322 55q74 0 127.5 18.5t89 56.5t52.5 96.5t17 137.5q0 92 -30.5 155t-90 95t-146.5 32h-91
v-586q11 -2 32 -3.5t40 -1.5zM802 0v44l299 410h-117q-38 0 -59.5 -7.5t-35 -31t-27.5 -70.5l-57 -5l12 167h393v-46l-298 -406h118q32 0 52.5 4t34.5 16.5t26 37.5t27 68h54l-14 -181h-408zM1009 580q-10 0 -19 5.5t-22 22.5l-109 145l27 26l123 -100l127 100l26 -25
l-114 -152q-9 -11 -18.5 -16.5t-20.5 -5.5z" />
    <glyph glyph-name="uni01C6" unicode="&#x1c6;" horiz-adv-x="1098" 
d="M251 -14q-97 0 -151 66.5t-54 185.5q0 87 30 150.5t84.5 98t129.5 34.5q33 0 66.5 -9t56.5 -24v156q0 35 -7.5 45.5t-35.5 14.5l-44 7l6 50l163 5l11 -11v-657q0 -24 6.5 -32.5t26.5 -12.5l49 -9v-47l-154 -6l-14 79h-3q-33 -42 -74.5 -63t-91.5 -21zM280 58
q40 0 69.5 19.5t46.5 54.5t17 80v201q-25 20 -57.5 30.5t-67.5 10.5q-71 0 -107 -52t-36 -154q0 -92 35 -141t100 -49zM649 0v44l299 410h-117q-38 0 -59.5 -7.5t-35 -31t-27.5 -70.5l-57 -5l12 167h393v-46l-298 -406h118q32 0 52.5 4t34.5 16.5t26 37.5t27 68h54l-14 -181
h-408zM856 580q-10 0 -19 5.5t-22 22.5l-109 145l27 26l123 -100l127 100l26 -25l-114 -152q-9 -11 -18.5 -16.5t-20.5 -5.5z" />
    <glyph glyph-name="uni01C7" unicode="&#x1c7;" horiz-adv-x="1184" 
d="M62 0v48l58 9q19 3 25 13t6 38v488q0 26 -6.5 34.5t-26.5 12.5l-56 9v48h286v-48l-66 -9q-19 -4 -25.5 -12.5t-6.5 -34.5v-541h113q46 0 73.5 12.5t46.5 47t39 99.5h55l-25 -214h-490zM846 -14q-52 0 -92.5 15.5t-63.5 43.5t-23 63t21.5 58.5t53.5 23.5q30 0 46.5 -12
t16.5 -33q0 -13 -6 -27t-24 -44q11 -10 33 -17t44 -7q36 0 59.5 16.5t34.5 50t11 84.5v393q0 26 -6.5 35t-26.5 12l-70 10v49h295v-48l-63 -9q-18 -2 -24 -12.5t-6 -38.5v-368q0 -75 -25 -128.5t-71.5 -81.5t-113.5 -28z" />
    <glyph glyph-name="uni01C8" unicode="&#x1c8;" horiz-adv-x="946" 
d="M62 0v48l58 9q19 3 25 13t6 38v488q0 26 -6.5 34.5t-26.5 12.5l-56 9v48h286v-48l-66 -9q-19 -4 -25.5 -12.5t-6.5 -34.5v-541h113q46 0 73.5 12.5t46.5 47t39 99.5h55l-25 -214h-490zM699 -229l-28 41q47 37 67 87t20 129v354q0 37 -6.5 48.5t-29.5 14.5l-48 7l8 50
l157 8l12 -5v-410q0 -91 -14 -151.5t-47.5 -101t-90.5 -71.5zM790 620q-29 0 -48 18.5t-19 47.5t19 48t48 19q30 0 49 -18.5t19 -47.5t-19 -48t-49 -19z" />
    <glyph glyph-name="uni01C9" unicode="&#x1c9;" horiz-adv-x="644" 
d="M42 0v49l57 9q20 3 25.5 13t5.5 38v534q0 35 -7.5 45.5t-35.5 14.5l-44 7l6 51l163 5l11 -11v-650q0 -25 6.5 -34.5t25.5 -12.5l56 -10v-48h-269zM397 -229l-28 41q47 37 67 87t20 129v354q0 37 -6.5 48.5t-29.5 14.5l-48 7l8 50l157 8l12 -5v-410q0 -91 -14 -151.5
t-47.5 -101t-90.5 -71.5zM488 620q-29 0 -48 18.5t-19 47.5t19 48t48 19q30 0 49 -18.5t19 -47.5t-19 -48t-49 -19z" />
    <glyph glyph-name="uni01CA" unicode="&#x1ca;" horiz-adv-x="1372" 
d="M62 0v48l58 9q18 3 24 13.5t6 37.5v488q0 26 -6 34.5t-26 12.5l-56 9v48h222l332 -571v8v459q0 26 -6.5 34.5t-26.5 12.5l-55 9v48h245v-48l-57 -9q-19 -3 -25 -13t-6 -38v-592h-103l-362 609v-8v-497q0 -25 6.5 -34t25.5 -13l56 -9v-48h-246zM1034 -14q-52 0 -92.5 15.5
t-63.5 43.5t-23 63t21.5 58.5t53.5 23.5q30 0 46.5 -12t16.5 -33q0 -13 -6 -27t-24 -44q11 -10 33 -17t44 -7q36 0 59.5 16.5t34.5 50t11 84.5v393q0 26 -6.5 35t-26.5 12l-70 10v49h295v-48l-63 -9q-18 -2 -24 -12.5t-6 -38.5v-368q0 -75 -25 -128.5t-71.5 -81.5
t-113.5 -28z" />
    <glyph glyph-name="uni01CB" unicode="&#x1cb;" horiz-adv-x="1144" 
d="M62 0v48l58 9q18 3 24 13.5t6 37.5v488q0 26 -6 34.5t-26 12.5l-56 9v48h222l332 -571v8v459q0 26 -6.5 34.5t-26.5 12.5l-55 9v48h245v-48l-57 -9q-19 -3 -25 -13t-6 -38v-592h-103l-362 609v-8v-497q0 -25 6.5 -34t25.5 -13l56 -9v-48h-246zM897 -229l-28 41
q47 37 67 87t20 129v354q0 37 -6.5 48.5t-29.5 14.5l-48 7l8 50l157 8l12 -5v-410q0 -91 -14 -151.5t-47.5 -101t-90.5 -71.5zM988 620q-29 0 -48 18.5t-19 47.5t19 48t48 19q30 0 49 -18.5t19 -47.5t-19 -48t-49 -19z" />
    <glyph glyph-name="uni01CC" unicode="&#x1cc;" horiz-adv-x="956" 
d="M55 0v47l48 9q16 3 21 12.5t5 35.5v282q0 36 -6 47.5t-28 14.5l-49 7l7 48l139 11l12 -7l7 -89h3q18 32 45.5 55t61 35.5t68.5 12.5q53 0 89.5 -19.5t55.5 -57.5t19 -94v-254q0 -22 6 -30t25 -11l47 -8v-47h-245v46l44 8q19 4 24.5 12t5.5 30v225q0 47 -9.5 75
t-31.5 40.5t-59 12.5q-63 0 -100.5 -38t-37.5 -101v-210q0 -23 5 -31.5t20 -11.5l53 -11v-46h-245zM709 -229l-28 41q47 37 67 87t20 129v354q0 37 -6.5 48.5t-29.5 14.5l-48 7l8 50l157 8l12 -5v-410q0 -91 -14 -151.5t-47.5 -101t-90.5 -71.5zM800 620q-29 0 -48 18.5
t-19 47.5t19 48t48 19q30 0 49 -18.5t19 -47.5t-19 -48t-49 -19z" />
    <glyph glyph-name="uni01CD" unicode="&#x1cd;" horiz-adv-x="735" 
d="M15 0v48l48 8q18 4 26 13.5t20 40.5l211 590h106l209 -591q10 -26 16.5 -36t27.5 -15l41 -8v-50h-267v48l58 7q20 3 24.5 14t-5.5 36l-43 126h-268l-42 -122q-9 -25 -4 -37t27 -17l57 -8v-47h-242zM239 288h229l-111 329h-4zM372 752q-10 0 -18.5 6.5t-22.5 21.5
l-121 130l25 26l137 -84l140 84l24 -25l-125 -137q-9 -10 -18.5 -16t-20.5 -6z" />
    <glyph glyph-name="uni01CE" unicode="&#x1ce;" horiz-adv-x="539" 
d="M192 -14q-63 0 -101.5 37t-38.5 98q0 55 27.5 89t90.5 51.5t169 22.5v68q0 62 -26 90t-82 28q-27 0 -53.5 -8.5t-38.5 -21.5q26 -43 26 -56q0 -19 -15.5 -32t-38.5 -13q-27 0 -42 13.5t-15 38.5q0 35 26.5 64.5t70 47.5t94.5 18q95 0 141 -44t46 -136v-241q0 -44 45 -44
q11 0 22 2t25 6l10 -38q-18 -17 -44 -28.5t-48 -11.5q-43 0 -66.5 22.5t-28.5 66.5q-56 -89 -155 -89zM230 55q47 0 78 30.5t31 75.5v71q-97 0 -143.5 -24.5t-46.5 -75.5q0 -36 22 -56.5t59 -20.5zM247 580q-10 0 -19 5.5t-22 22.5l-109 145l27 26l123 -100l127 100l26 -25
l-114 -152q-9 -11 -18.5 -16.5t-20.5 -5.5z" />
    <glyph glyph-name="uni01CF" unicode="&#x1cf;" horiz-adv-x="409" 
d="M62 0v48l62 9q19 3 25 13t6 38v488q0 26 -6.5 34.5t-26.5 12.5l-60 9v48h285v-48l-63 -9q-18 -3 -24 -13.5t-6 -37.5v-488q0 -25 6.5 -34t25.5 -13l61 -9v-48h-285zM203 752q-10 0 -18.5 6.5t-22.5 21.5l-121 130l25 26l137 -84l140 84l24 -25l-125 -137
q-9 -10 -18.5 -16t-20.5 -6z" />
    <glyph glyph-name="uni01D0" unicode="&#x1d0;" horiz-adv-x="333" 
d="M40 0v49l57 9q20 3 25.5 13t5.5 38v273q0 37 -6.5 48.5t-29.5 14.5l-48 7l7 50l158 8l12 -5v-400q0 -25 6.5 -34.5t25.5 -12.5l56 -10v-48h-269zM151 580q-10 0 -19 5.5t-22 22.5l-109 145l27 26l123 -100l127 100l26 -25l-114 -152q-9 -11 -18.5 -16.5t-20.5 -5.5z" />
    <glyph glyph-name="uni01D1" unicode="&#x1d1;" horiz-adv-x="760" 
d="M378 -14q-98 0 -172 44t-115 122.5t-41 183.5q0 87 23.5 156.5t67.5 119t106.5 76t139.5 26.5q97 0 169.5 -43t113 -121t40.5 -182q0 -114 -41.5 -200t-116.5 -134t-174 -48zM390 53q104 0 157.5 75.5t53.5 220.5q0 95 -27 162t-77.5 103t-122.5 36q-104 0 -161 -76.5
t-57 -216.5q0 -93 28.5 -161.5t81 -105.5t124.5 -37zM381 752q-10 0 -18.5 6.5t-22.5 21.5l-121 130l25 26l137 -84l140 84l24 -25l-125 -137q-9 -10 -18.5 -16t-20.5 -6z" />
    <glyph glyph-name="uni01D2" unicode="&#x1d2;" horiz-adv-x="586" 
d="M289 -14q-74 0 -129 31.5t-84.5 89t-29.5 135.5q0 86 31 148.5t89 96.5t137 34q73 0 126 -31t82 -88t29 -135q0 -85 -31 -148.5t-87 -98t-133 -34.5zM303 48q65 0 100 50.5t35 144.5q0 101 -40.5 160t-110.5 59q-67 0 -103.5 -49t-36.5 -141q0 -105 41.5 -164.5
t114.5 -59.5zM293 580q-10 0 -19 5.5t-22 22.5l-109 145l27 26l123 -100l127 100l26 -25l-114 -152q-9 -11 -18.5 -16.5t-20.5 -5.5z" />
    <glyph glyph-name="uni01D3" unicode="&#x1d3;" horiz-adv-x="810" 
d="M404 -14q-90 0 -149 30.5t-88 92.5t-29 156v331q0 26 -6.5 34.5t-26.5 12.5l-56 9v48h276v-48l-58 -9q-18 -3 -24 -13.5t-6 -37.5v-320q0 -76 18.5 -124t58.5 -70t104 -22q65 0 106.5 24t62 73.5t20.5 125.5v317q0 26 -6.5 34.5t-26.5 12.5l-55 9v48h246v-48l-57 -9
q-19 -3 -25 -13t-6 -38v-301q0 -152 -68 -228.5t-205 -76.5zM415 752q-10 0 -18.5 6.5t-22.5 21.5l-121 130l25 26l137 -84l140 84l24 -25l-125 -137q-9 -10 -18.5 -16t-20.5 -6z" />
    <glyph glyph-name="uni01D4" unicode="&#x1d4;" horiz-adv-x="634" 
d="M265 -14q-52 0 -88 19.5t-54 57.5t-18 94v229q0 36 -6 47t-28 15l-44 7l8 48l151 11l12 -7v-321q0 -48 9 -76t30 -40t57 -12q62 0 98.5 37.5t36.5 101.5v189q0 36 -6 47t-28 15l-45 7l8 48l152 11l12 -7v-406q0 -24 6.5 -32.5t25.5 -12.5l50 -9v-47l-155 -6l-14 81h-3
q-26 -31 -52 -50.5t-54 -29t-61 -9.5zM309 580q-10 0 -19 5.5t-22 22.5l-109 145l27 26l123 -100l127 100l26 -25l-114 -152q-9 -11 -18.5 -16.5t-20.5 -5.5z" />
    <glyph glyph-name="uni01D5" unicode="&#x1d5;" horiz-adv-x="810" 
d="M404 -14q-90 0 -149 30.5t-88 92.5t-29 156v331q0 26 -6.5 34.5t-26.5 12.5l-56 9v48h276v-48l-58 -9q-18 -3 -24 -13.5t-6 -37.5v-320q0 -76 18.5 -124t58.5 -70t104 -22q65 0 106.5 24t62 73.5t20.5 125.5v317q0 26 -6.5 34.5t-26.5 12.5l-55 9v48h246v-48l-57 -9
q-19 -3 -25 -13t-6 -38v-301q0 -152 -68 -228.5t-205 -76.5zM516 771q-28 0 -46.5 17.5t-18.5 45.5t18.5 46t46.5 18q29 0 47 -17.5t18 -45.5t-18 -46t-47 -18zM313 771q-28 0 -46 17.5t-18 45.5t18 46t46 18q29 0 47.5 -17.5t18.5 -45.5t-18.5 -46t-47.5 -18zM274 969v73
h284v-73h-284z" />
    <glyph glyph-name="uni01D6" unicode="&#x1d6;" horiz-adv-x="634" 
d="M265 -14q-52 0 -88 19.5t-54 57.5t-18 94v229q0 36 -6 47t-28 15l-44 7l8 48l151 11l12 -7v-321q0 -48 9 -76t30 -40t57 -12q62 0 98.5 37.5t36.5 101.5v189q0 36 -6 47t-28 15l-45 7l8 48l152 11l12 -7v-406q0 -24 6.5 -32.5t25.5 -12.5l50 -9v-47l-155 -6l-14 81h-3
q-26 -31 -52 -50.5t-54 -29t-61 -9.5zM408 620q-28 0 -46 17.5t-18 44.5t18 45t46 18t46 -17.5t18 -44.5t-18 -45t-46 -18zM209 620q-27 0 -45 17.5t-18 44.5t18 45t45 18q29 0 47 -17.5t18 -44.5t-18 -45t-47 -18zM168 821v73h284v-73h-284z" />
    <glyph glyph-name="uni01D7" unicode="&#x1d7;" horiz-adv-x="810" 
d="M404 -14q-90 0 -149 30.5t-88 92.5t-29 156v331q0 26 -6.5 34.5t-26.5 12.5l-56 9v48h276v-48l-58 -9q-18 -3 -24 -13.5t-6 -37.5v-320q0 -76 18.5 -124t58.5 -70t104 -22q65 0 106.5 24t62 73.5t20.5 125.5v317q0 26 -6.5 34.5t-26.5 12.5l-55 9v48h246v-48l-57 -9
q-19 -3 -25 -13t-6 -38v-301q0 -152 -68 -228.5t-205 -76.5zM341 942l-20 28l131 119q13 11 21.5 17t17.5 6q19 0 31 -15.5t12 -32.5q0 -21 -11 -34.5t-31 -21.5zM516 771q-28 0 -46.5 17.5t-18.5 45.5t18.5 46t46.5 18q29 0 47 -17.5t18 -45.5t-18 -46t-47 -18zM313 771
q-28 0 -46 17.5t-18 45.5t18 46t46 18q29 0 47.5 -17.5t18.5 -45.5t-18.5 -46t-47.5 -18z" />
    <glyph glyph-name="uni01D8" unicode="&#x1d8;" horiz-adv-x="634" 
d="M265 -14q-52 0 -88 19.5t-54 57.5t-18 94v229q0 36 -6 47t-28 15l-44 7l8 48l151 11l12 -7v-321q0 -48 9 -76t30 -40t57 -12q62 0 98.5 37.5t36.5 101.5v189q0 36 -6 47t-28 15l-45 7l8 48l152 11l12 -7v-406q0 -24 6.5 -32.5t25.5 -12.5l50 -9v-47l-155 -6l-14 81h-3
q-26 -31 -52 -50.5t-54 -29t-61 -9.5zM235 798l-20 28l131 119q13 11 21.5 17t17.5 6q19 0 31 -15.5t12 -32.5q0 -21 -11 -34.5t-31 -21.5zM408 620q-28 0 -46 17.5t-18 44.5t18 45t46 18t46 -17.5t18 -44.5t-18 -45t-46 -18zM209 620q-27 0 -45 17.5t-18 44.5t18 45t45 18
q29 0 47 -17.5t18 -44.5t-18 -45t-47 -18z" />
    <glyph glyph-name="uni01D9" unicode="&#x1d9;" horiz-adv-x="810" 
d="M404 -14q-90 0 -149 30.5t-88 92.5t-29 156v331q0 26 -6.5 34.5t-26.5 12.5l-56 9v48h276v-48l-58 -9q-18 -3 -24 -13.5t-6 -37.5v-320q0 -76 18.5 -124t58.5 -70t104 -22q65 0 106.5 24t62 73.5t20.5 125.5v317q0 26 -6.5 34.5t-26.5 12.5l-55 9v48h246v-48l-57 -9
q-19 -3 -25 -13t-6 -38v-301q0 -152 -68 -228.5t-205 -76.5zM415 940q-10 0 -18.5 6.5t-22.5 21.5l-121 130l25 26l137 -84l140 84l24 -25l-125 -137q-9 -10 -18.5 -16t-20.5 -6zM516 771q-28 0 -46.5 17.5t-18.5 45.5t18.5 46t46.5 18q29 0 47 -17.5t18 -45.5t-18 -46
t-47 -18zM313 771q-28 0 -46 17.5t-18 45.5t18 46t46 18q29 0 47.5 -17.5t18.5 -45.5t-18.5 -46t-47.5 -18z" />
    <glyph glyph-name="uni01DA" unicode="&#x1da;" horiz-adv-x="634" 
d="M265 -14q-52 0 -88 19.5t-54 57.5t-18 94v229q0 36 -6 47t-28 15l-44 7l8 48l151 11l12 -7v-321q0 -48 9 -76t30 -40t57 -12q62 0 98.5 37.5t36.5 101.5v189q0 36 -6 47t-28 15l-45 7l8 48l152 11l12 -7v-406q0 -24 6.5 -32.5t25.5 -12.5l50 -9v-47l-155 -6l-14 81h-3
q-26 -31 -52 -50.5t-54 -29t-61 -9.5zM309 800q-10 0 -18.5 6.5t-22.5 21.5l-121 130l25 26l137 -84l140 84l24 -25l-125 -137q-9 -10 -18.5 -16t-20.5 -6zM408 620q-28 0 -46 17.5t-18 44.5t18 45t46 18t46 -17.5t18 -44.5t-18 -45t-46 -18zM209 620q-27 0 -45 17.5
t-18 44.5t18 45t45 18q29 0 47 -17.5t18 -44.5t-18 -45t-47 -18z" />
    <glyph glyph-name="uni01DB" unicode="&#x1db;" horiz-adv-x="810" 
d="M404 -14q-90 0 -149 30.5t-88 92.5t-29 156v331q0 26 -6.5 34.5t-26.5 12.5l-56 9v48h276v-48l-58 -9q-18 -3 -24 -13.5t-6 -37.5v-320q0 -76 18.5 -124t58.5 -70t104 -22q65 0 106.5 24t62 73.5t20.5 125.5v317q0 26 -6.5 34.5t-26.5 12.5l-55 9v48h246v-48l-57 -9
q-19 -3 -25 -13t-6 -38v-301q0 -152 -68 -228.5t-205 -76.5zM491 940l-151 66q-19 8 -30.5 21.5t-11.5 34.5q0 17 12 32.5t31 15.5q9 0 17.5 -6t21.5 -17l131 -119zM516 771q-28 0 -46.5 17.5t-18.5 45.5t18.5 46t46.5 18q29 0 47 -17.5t18 -45.5t-18 -46t-47 -18zM313 771
q-28 0 -46 17.5t-18 45.5t18 46t46 18q29 0 47.5 -17.5t18.5 -45.5t-18.5 -46t-47.5 -18z" />
    <glyph glyph-name="uni01DC" unicode="&#x1dc;" horiz-adv-x="634" 
d="M265 -14q-52 0 -88 19.5t-54 57.5t-18 94v229q0 36 -6 47t-28 15l-44 7l8 48l151 11l12 -7v-321q0 -48 9 -76t30 -40t57 -12q62 0 98.5 37.5t36.5 101.5v189q0 36 -6 47t-28 15l-45 7l8 48l152 11l12 -7v-406q0 -24 6.5 -32.5t25.5 -12.5l50 -9v-47l-155 -6l-14 81h-3
q-26 -31 -52 -50.5t-54 -29t-61 -9.5zM385 800l-151 66q-19 8 -30.5 21.5t-11.5 34.5q0 17 12 32.5t31 15.5q9 0 17.5 -6t21.5 -17l131 -119zM408 620q-28 0 -46 17.5t-18 44.5t18 45t46 18t46 -17.5t18 -44.5t-18 -45t-46 -18zM209 620q-27 0 -45 17.5t-18 44.5t18 45
t45 18q29 0 47 -17.5t18 -44.5t-18 -45t-47 -18z" />
    <glyph glyph-name="Gcaron" unicode="&#x1e6;" horiz-adv-x="751" 
d="M371 -14q-72 0 -131 25.5t-101.5 72t-65.5 112t-23 144.5q0 113 39.5 197t111 130.5t167.5 46.5q52 0 96 -16t73 -45l10 63h49l46 -233l-55 -12q-30 93 -81.5 136.5t-131.5 43.5q-53 0 -93.5 -19.5t-68 -58t-41.5 -94.5t-14 -130q0 -89 27.5 -156t77.5 -104t116 -37
q53 0 95.5 18t66.5 50v110q0 26 -6.5 34.5t-26.5 12.5l-60 9v48h271v-48l-53 -9q-18 -3 -24 -13.5t-6 -37.5v-229h-43l-26 47q-40 -28 -89.5 -43t-105.5 -15zM366 752q-10 0 -18.5 6.5t-22.5 21.5l-121 130l25 26l137 -84l140 84l24 -25l-125 -137q-9 -10 -18.5 -16
t-20.5 -6z" />
    <glyph glyph-name="gcaron" unicode="&#x1e7;" horiz-adv-x="558" 
d="M254 -229q-76 0 -127 13.5t-76.5 41t-25.5 68.5q0 38 22 65t69 49v4q-25 8 -41.5 30t-16.5 47q0 27 13.5 50.5t51.5 63.5v3q-37 19 -55.5 53.5t-18.5 83.5q0 54 25.5 94t72.5 62t109 22q36 0 70 -8.5t60 -24.5q11 30 26.5 51t35.5 32t42 11q29 0 48 -15t19 -38
q0 -22 -17 -39t-40 -17q-13 0 -23 7t-17 20l-10 21q-16 -25 -29 -63q19 -22 28.5 -50t9.5 -60q0 -79 -55 -126.5t-147 -47.5q-22 0 -45.5 3t-35.5 7q-18 -20 -25 -33t-7 -27q0 -22 16.5 -31.5t53.5 -9.5h128q61 0 100 -13.5t58 -42t19 -73.5q0 -43 -17.5 -77t-52 -58
t-83.5 -36t-112 -12zM262 -166q77 0 119.5 25.5t42.5 70.5q0 31 -23 46.5t-70 15.5h-168q-23 -17 -34.5 -37.5t-11.5 -45.5q0 -40 33.5 -57.5t111.5 -17.5zM255 227q53 0 81 31t28 87q0 59 -30 92t-85 33q-34 0 -57.5 -14t-35.5 -41t-12 -67q0 -55 30 -88t81 -33zM258 580
q-10 0 -19 5.5t-22 22.5l-109 145l27 26l123 -100l127 100l26 -25l-114 -152q-9 -11 -18.5 -16.5t-20.5 -5.5z" />
    <glyph glyph-name="uni01EA" unicode="&#x1ea;" horiz-adv-x="760" 
d="M378 -14q-98 0 -172 44t-115 122.5t-41 183.5q0 87 23.5 156.5t67.5 119t106.5 76t139.5 26.5q97 0 169.5 -43t113 -121t40.5 -182q0 -114 -41.5 -200t-116.5 -134t-174 -48zM390 53q104 0 157.5 75.5t53.5 220.5q0 95 -27 162t-77.5 103t-122.5 36q-104 0 -161 -76.5
t-57 -216.5q0 -93 28.5 -161.5t81 -105.5t124.5 -37zM412 -229q-43 0 -67.5 23.5t-24.5 57.5q0 39 20.5 68.5t49.5 51t54 37.5l49 -4q-20 -16 -40 -36t-33.5 -43t-13.5 -49q0 -20 10 -30.5t31 -10.5q14 0 26.5 3t22.5 6l11 -35q-17 -14 -42 -26.5t-53 -12.5z" />
    <glyph glyph-name="uni01EB" unicode="&#x1eb;" horiz-adv-x="586" 
d="M289 -14q-74 0 -129 31.5t-84.5 89t-29.5 135.5q0 86 31 148.5t89 96.5t137 34q73 0 126 -31t82 -88t29 -135q0 -85 -31 -148.5t-87 -98t-133 -34.5zM303 48q65 0 100 50.5t35 144.5q0 101 -40.5 160t-110.5 59q-67 0 -103.5 -49t-36.5 -141q0 -105 41.5 -164.5
t114.5 -59.5zM310 -229q-43 0 -67.5 23.5t-24.5 57.5q0 39 20.5 68.5t49.5 51t54 37.5l49 -4q-20 -16 -40 -36t-33.5 -43t-13.5 -49q0 -20 10 -30.5t31 -10.5q14 0 26.5 3t22.5 6l11 -35q-17 -14 -42 -26.5t-53 -12.5z" />
    <glyph glyph-name="Aringacute" unicode="&#x1fa;" horiz-adv-x="735" 
d="M15 0v48l48 8q18 4 26 13.5t20 40.5l211 590h106l209 -591q10 -26 16.5 -36t27.5 -15l41 -8v-50h-267v48l58 7q20 3 24.5 14t-5.5 36l-43 126h-268l-42 -122q-9 -25 -4 -37t27 -17l57 -8v-47h-242zM239 288h229l-111 329h-4zM373 655q-55 0 -80 27.5t-25 72.5
q0 41 26.5 70t80.5 29q51 0 77 -26.5t26 -70.5q0 -45 -27 -73.5t-78 -28.5zM374 701q27 0 37 16t10 38q0 21 -11.5 37.5t-37.5 16.5t-37 -17t-11 -37t11 -37t39 -17zM298 885l-20 28l131 119q13 11 21.5 17t17.5 6q19 0 31 -15.5t12 -32.5q0 -21 -11 -34.5t-31 -21.5z" />
    <glyph glyph-name="aringacute" unicode="&#x1fb;" horiz-adv-x="539" 
d="M192 -14q-63 0 -101.5 37t-38.5 98q0 55 27.5 89t90.5 51.5t169 22.5v68q0 62 -26 90t-82 28q-27 0 -53.5 -8.5t-38.5 -21.5q26 -43 26 -56q0 -19 -15.5 -32t-38.5 -13q-27 0 -42 13.5t-15 38.5q0 35 26.5 64.5t70 47.5t94.5 18q95 0 141 -44t46 -136v-241q0 -44 45 -44
q11 0 22 2t25 6l10 -38q-18 -17 -44 -28.5t-48 -11.5q-43 0 -66.5 22.5t-28.5 66.5q-56 -89 -155 -89zM230 55q47 0 78 30.5t31 75.5v71q-97 0 -143.5 -24.5t-46.5 -75.5q0 -36 22 -56.5t59 -20.5zM248 582q-55 0 -80 27.5t-25 72.5q0 41 26.5 70t80.5 29q51 0 77 -26.5
t26 -70.5q0 -45 -27 -73.5t-78 -28.5zM249 628q27 0 37 16t10 38q0 21 -11.5 37.5t-37.5 16.5t-37 -17t-11 -37t11 -37t39 -17zM173 821l-20 28l131 119q13 11 21.5 17t17.5 6q19 0 31 -15.5t12 -32.5q0 -21 -11 -34.5t-31 -21.5z" />
    <glyph glyph-name="AEacute" unicode="&#x1fc;" horiz-adv-x="997" 
d="M15 0v48l48 8q16 3 25.5 13.5t24.5 40.5l263 533l-64 9v48h573l37 -163l-52 -17q-20 53 -39 80t-47 36.5t-77 9.5h-97v-274h87q31 0 47.5 2.5t24 10.5t11.5 24.5t10 44.5l46 6v-222l-46 -8q-6 39 -11.5 57t-23 23t-58.5 5h-87v-261h129q48 0 75.5 10t44 38t30.5 82h55
l-24 -184h-498v48l58 9q19 3 25 13t6 38v207h-226l-99 -206q-12 -25 -8 -38t25 -16l57 -8v-47h-245zM313 372h198l1 274h-67zM580 752l-20 28l131 119q13 11 21.5 17t17.5 6q19 0 31 -15.5t12 -32.5q0 -21 -11 -34.5t-31 -21.5z" />
    <glyph glyph-name="aeacute" unicode="&#x1fd;" horiz-adv-x="809" 
d="M192 -14q-32 0 -64.5 13t-54 42.5t-21.5 79.5q0 65 41.5 103t113.5 48q30 5 66 8t66 4v68q0 68 -29 93t-79 25q-32 0 -57 -9.5t-35 -20.5q14 -25 20 -37.5t6 -18.5q0 -17 -14.5 -31t-39.5 -14q-32 0 -44.5 16t-12.5 36q0 36 27 65.5t71 47t93 17.5q50 0 92 -14.5
t67 -52.5q67 67 171 67q52 0 93.5 -21t66 -60.5t24.5 -95.5q0 -24 -3.5 -49t-10.5 -49h-313q3 -85 44 -135.5t117 -50.5q50 0 84.5 20.5t53.5 39.5l35 -35q-18 -25 -47 -47.5t-66.5 -37t-82.5 -14.5q-69 0 -118.5 28t-78.5 74q-23 -42 -52.5 -64t-62.5 -30t-66 -8zM230 55
q20 0 45.5 10t44.5 34t19 65v68q-28 0 -53.5 -3t-43.5 -6q-54 -9 -73.5 -35.5t-19.5 -55.5q0 -42 25 -59.5t56 -17.5zM432 302h230q2 10 2.5 21.5t0.5 24.5q0 60 -26.5 90t-74.5 30t-75.5 -25t-40 -63t-16.5 -78zM385 580l-24 25l104 138q11 15 20 22t19 7q22 0 35 -16
t13 -35q0 -16 -9 -29t-26 -24z" />
    <glyph glyph-name="Oslashacute" unicode="&#x1fe;" horiz-adv-x="760" 
d="M36 -14l606 728h80l-606 -728h-80zM378 -14q-98 0 -172 44t-115 122.5t-41 183.5q0 87 23.5 156.5t67.5 119t106.5 76t139.5 26.5q97 0 169.5 -43t113 -121t40.5 -182q0 -114 -41.5 -200t-116.5 -134t-174 -48zM390 53q104 0 157.5 75.5t53.5 220.5q0 95 -27 162
t-77.5 103t-122.5 36q-104 0 -161 -76.5t-57 -216.5q0 -93 28.5 -161.5t81 -105.5t124.5 -37zM307 752l-20 28l131 119q13 11 21.5 17t17.5 6q19 0 31 -15.5t12 -32.5q0 -21 -11 -34.5t-31 -21.5z" />
    <glyph glyph-name="oslashacute" unicode="&#x1ff;" horiz-adv-x="587" 
d="M5 -14l489 535h79l-489 -535h-79zM289 -14q-74 0 -129 31.5t-84.5 89t-29.5 135.5q0 86 31 148.5t89 96.5t137 34q73 0 126 -31t82 -88t29 -135q0 -85 -31 -148.5t-87 -98t-133 -34.5zM303 48q65 0 100 50.5t35 144.5q0 101 -40.5 160t-110.5 59q-67 0 -103.5 -49
t-36.5 -141q0 -105 41.5 -164.5t114.5 -59.5zM243 580l-24 25l104 138q11 15 20 22t19 7q22 0 35 -16t13 -35q0 -16 -9 -29t-26 -24z" />
    <glyph glyph-name="uni0200" unicode="&#x200;" horiz-adv-x="735" 
d="M15 0v48l48 8q18 4 26 13.5t20 40.5l211 590h106l209 -591q10 -26 16.5 -36t27.5 -15l41 -8v-50h-267v48l58 7q20 3 24.5 14t-5.5 36l-43 126h-268l-42 -122q-9 -25 -4 -37t27 -17l57 -8v-47h-242zM239 288h229l-111 329h-4zM316 760l-118 88q-16 11 -25 26.5t-9 30.5
q0 17 10.5 29.5t32.5 12.5q11 0 20 -6.5t20 -22.5l93 -133zM457 760l-110 92q-16 13 -23.5 26.5t-7.5 27.5q0 19 10.5 31.5t32.5 12.5q11 0 19.5 -6t18.5 -23l84 -136z" />
    <glyph glyph-name="uni0201" unicode="&#x201;" horiz-adv-x="539" 
d="M192 -14q-63 0 -101.5 37t-38.5 98q0 55 27.5 89t90.5 51.5t169 22.5v68q0 62 -26 90t-82 28q-27 0 -53.5 -8.5t-38.5 -21.5q26 -43 26 -56q0 -19 -15.5 -32t-38.5 -13q-27 0 -42 13.5t-15 38.5q0 35 26.5 64.5t70 47.5t94.5 18q95 0 141 -44t46 -136v-241q0 -44 45 -44
q11 0 22 2t25 6l10 -38q-18 -17 -44 -28.5t-48 -11.5q-43 0 -66.5 22.5t-28.5 66.5q-56 -89 -155 -89zM230 55q47 0 78 30.5t31 75.5v71q-97 0 -143.5 -24.5t-46.5 -75.5q0 -36 22 -56.5t59 -20.5zM191 580l-118 88q-16 11 -25 26.5t-9 30.5q0 17 10.5 29.5t32.5 12.5
q11 0 20 -6.5t20 -22.5l93 -133zM332 580l-110 92q-16 13 -23.5 26.5t-7.5 27.5q0 19 10.5 31.5t32.5 12.5q11 0 19.5 -6t18.5 -23l84 -136z" />
    <glyph glyph-name="uni0202" unicode="&#x202;" horiz-adv-x="735" 
d="M15 0v48l48 8q18 4 26 13.5t20 40.5l211 590h106l209 -591q10 -26 16.5 -36t27.5 -15l41 -8v-50h-267v48l58 7q20 3 24.5 14t-5.5 36l-43 126h-268l-42 -122q-9 -25 -4 -37t27 -17l57 -8v-47h-242zM239 288h229l-111 329h-4zM377 921q51 0 83.5 -23t50.5 -60.5t22 -80.5
l-40 -12q-14 50 -43 73t-78 23t-79 -26t-41 -69l-38 10q4 40 23 77.5t54 62.5t86 25z" />
    <glyph glyph-name="uni0203" unicode="&#x203;" horiz-adv-x="539" 
d="M192 -14q-63 0 -101.5 37t-38.5 98q0 55 27.5 89t90.5 51.5t169 22.5v68q0 62 -26 90t-82 28q-27 0 -53.5 -8.5t-38.5 -21.5q26 -43 26 -56q0 -19 -15.5 -32t-38.5 -13q-27 0 -42 13.5t-15 38.5q0 35 26.5 64.5t70 47.5t94.5 18q95 0 141 -44t46 -136v-241q0 -44 45 -44
q11 0 22 2t25 6l10 -38q-18 -17 -44 -28.5t-48 -11.5q-43 0 -66.5 22.5t-28.5 66.5q-56 -89 -155 -89zM230 55q47 0 78 30.5t31 75.5v71q-97 0 -143.5 -24.5t-46.5 -75.5q0 -36 22 -56.5t59 -20.5zM258 758q48 0 78.5 -24.5t47 -63t20.5 -81.5l-40 -12q-14 50 -40.5 75.5
t-70.5 25.5q-45 0 -72 -28.5t-38 -71.5l-38 10q4 40 21.5 79t50.5 65t81 26z" />
    <glyph glyph-name="uni0204" unicode="&#x204;" horiz-adv-x="637" 
d="M62 0v48l58 9q19 3 25 13t6 38v488q0 26 -6.5 35t-26.5 12l-56 9v48h463l37 -163l-52 -17q-20 53 -39 80t-47 36.5t-77 9.5h-97v-259h87q36 0 52.5 4.5t24 21.5t16.5 56l46 6v-227l-46 -8q-6 39 -13.5 57t-25.5 23t-54 5h-87v-271h129q48 0 75.5 10t44 38t30.5 82h55
l-24 -184h-498zM437 752l-135 70q-19 10 -30.5 22.5t-11.5 33.5q0 17 11 32.5t30 15.5q9 0 18 -5.5t21 -17.5l117 -123zM259 752l-138 68q-19 9 -30.5 22t-11.5 34q0 17 12 31t31 14q16 0 39 -23l118 -118z" />
    <glyph glyph-name="uni0205" unicode="&#x205;" horiz-adv-x="519" 
d="M285 -14q-73 0 -126.5 32t-83 91t-29.5 138q0 83 30.5 144.5t85.5 95.5t128 34q83 0 133.5 -48.5t50.5 -128.5q0 -21 -3.5 -46t-10.5 -52h-313q3 -88 45.5 -137t115.5 -49q38 0 74 16t64 44l35 -35q-22 -30 -53.5 -52.5t-68 -34.5t-74.5 -12zM147 302h230q2 10 2.5 21.5
t0.5 24.5q0 59 -25.5 89.5t-75.5 30.5q-57 0 -90.5 -42.5t-41.5 -123.5zM221 580l-118 88q-16 11 -25 26.5t-9 30.5q0 17 10.5 29.5t32.5 12.5q11 0 20 -6.5t20 -22.5l93 -133zM362 580l-110 92q-16 13 -23.5 26.5t-7.5 27.5q0 19 10.5 31.5t32.5 12.5q11 0 19.5 -6
t18.5 -23l84 -136z" />
    <glyph glyph-name="uni0206" unicode="&#x206;" horiz-adv-x="637" 
d="M62 0v48l58 9q19 3 25 13t6 38v488q0 26 -6.5 35t-26.5 12l-56 9v48h463l37 -163l-52 -17q-20 53 -39 80t-47 36.5t-77 9.5h-97v-259h87q36 0 52.5 4.5t24 21.5t16.5 56l46 6v-227l-46 -8q-6 39 -13.5 57t-25.5 23t-54 5h-87v-271h129q48 0 75.5 10t44 38t30.5 82h55
l-24 -184h-498zM329 921q51 0 83.5 -23t50.5 -60.5t22 -80.5l-40 -12q-14 50 -43 73t-78 23t-79 -26t-41 -69l-38 10q4 40 23 77.5t54 62.5t86 25z" />
    <glyph glyph-name="uni0207" unicode="&#x207;" horiz-adv-x="519" 
d="M285 -14q-73 0 -126.5 32t-83 91t-29.5 138q0 83 30.5 144.5t85.5 95.5t128 34q83 0 133.5 -48.5t50.5 -128.5q0 -21 -3.5 -46t-10.5 -52h-313q3 -88 45.5 -137t115.5 -49q38 0 74 16t64 44l35 -35q-22 -30 -53.5 -52.5t-68 -34.5t-74.5 -12zM147 302h230q2 10 2.5 21.5
t0.5 24.5q0 59 -25.5 89.5t-75.5 30.5q-57 0 -90.5 -42.5t-41.5 -123.5zM288 758q48 0 78.5 -24.5t47 -63t20.5 -81.5l-40 -12q-14 50 -40.5 75.5t-70.5 25.5q-45 0 -72 -28.5t-38 -71.5l-38 10q4 40 21.5 79t50.5 65t81 26z" />
    <glyph glyph-name="uni0208" unicode="&#x208;" horiz-adv-x="409" 
d="M62 0v48l62 9q19 3 25 13t6 38v488q0 26 -6.5 34.5t-26.5 12.5l-60 9v48h285v-48l-63 -9q-18 -3 -24 -13.5t-6 -37.5v-488q0 -25 6.5 -34t25.5 -13l61 -9v-48h-285zM316 752l-135 70q-19 10 -30.5 22.5t-11.5 33.5q0 17 11 32.5t30 15.5q9 0 18 -5.5t21 -17.5l117 -123z
M138 752l-138 68q-19 9 -30.5 22t-11.5 34q0 17 12 31t31 14q16 0 39 -23l118 -118z" />
    <glyph glyph-name="uni0209" unicode="&#x209;" horiz-adv-x="333" 
d="M40 0v49l57 9q20 3 25.5 13t5.5 38v273q0 37 -6.5 48.5t-29.5 14.5l-48 7l7 50l158 8l12 -5v-400q0 -25 6.5 -34.5t25.5 -12.5l56 -10v-48h-269zM95 580l-118 88q-16 11 -25 26.5t-9 30.5q0 17 10.5 29.5t32.5 12.5q11 0 20 -6.5t20 -22.5l93 -133zM236 580l-110 92
q-16 13 -23.5 26.5t-7.5 27.5q0 19 10.5 31.5t32.5 12.5q11 0 19.5 -6t18.5 -23l84 -136z" />
    <glyph glyph-name="uni020A" unicode="&#x20a;" horiz-adv-x="409" 
d="M62 0v48l62 9q19 3 25 13t6 38v488q0 26 -6.5 34.5t-26.5 12.5l-60 9v48h285v-48l-63 -9q-18 -3 -24 -13.5t-6 -37.5v-488q0 -25 6.5 -34t25.5 -13l61 -9v-48h-285zM208 921q51 0 83.5 -23t50.5 -60.5t22 -80.5l-40 -12q-14 50 -43 73t-78 23t-79 -26t-41 -69l-38 10
q4 40 23 77.5t54 62.5t86 25z" />
    <glyph glyph-name="uni020B" unicode="&#x20b;" horiz-adv-x="333" 
d="M40 0v49l57 9q20 3 25.5 13t5.5 38v273q0 37 -6.5 48.5t-29.5 14.5l-48 7l7 50l158 8l12 -5v-400q0 -25 6.5 -34.5t25.5 -12.5l56 -10v-48h-269zM162 758q48 0 78.5 -24.5t47 -63t20.5 -81.5l-40 -12q-14 50 -40.5 75.5t-70.5 25.5q-45 0 -72 -28.5t-38 -71.5l-38 10
q4 40 21.5 79t50.5 65t81 26z" />
    <glyph glyph-name="uni020C" unicode="&#x20c;" horiz-adv-x="760" 
d="M378 -14q-98 0 -172 44t-115 122.5t-41 183.5q0 87 23.5 156.5t67.5 119t106.5 76t139.5 26.5q97 0 169.5 -43t113 -121t40.5 -182q0 -114 -41.5 -200t-116.5 -134t-174 -48zM390 53q104 0 157.5 75.5t53.5 220.5q0 95 -27 162t-77.5 103t-122.5 36q-104 0 -161 -76.5
t-57 -216.5q0 -93 28.5 -161.5t81 -105.5t124.5 -37zM494 752l-135 70q-19 10 -30.5 22.5t-11.5 33.5q0 17 11 32.5t30 15.5q9 0 18 -5.5t21 -17.5l117 -123zM316 752l-138 68q-19 9 -30.5 22t-11.5 34q0 17 12 31t31 14q16 0 39 -23l118 -118z" />
    <glyph glyph-name="uni020D" unicode="&#x20d;" horiz-adv-x="586" 
d="M289 -14q-74 0 -129 31.5t-84.5 89t-29.5 135.5q0 86 31 148.5t89 96.5t137 34q73 0 126 -31t82 -88t29 -135q0 -85 -31 -148.5t-87 -98t-133 -34.5zM303 48q65 0 100 50.5t35 144.5q0 101 -40.5 160t-110.5 59q-67 0 -103.5 -49t-36.5 -141q0 -105 41.5 -164.5
t114.5 -59.5zM237 580l-118 88q-16 11 -25 26.5t-9 30.5q0 17 10.5 29.5t32.5 12.5q11 0 20 -6.5t20 -22.5l93 -133zM378 580l-110 92q-16 13 -23.5 26.5t-7.5 27.5q0 19 10.5 31.5t32.5 12.5q11 0 19.5 -6t18.5 -23l84 -136z" />
    <glyph glyph-name="uni020E" unicode="&#x20e;" horiz-adv-x="760" 
d="M378 -14q-98 0 -172 44t-115 122.5t-41 183.5q0 87 23.5 156.5t67.5 119t106.5 76t139.5 26.5q97 0 169.5 -43t113 -121t40.5 -182q0 -114 -41.5 -200t-116.5 -134t-174 -48zM390 53q104 0 157.5 75.5t53.5 220.5q0 95 -27 162t-77.5 103t-122.5 36q-104 0 -161 -76.5
t-57 -216.5q0 -93 28.5 -161.5t81 -105.5t124.5 -37zM386 921q51 0 83.5 -23t50.5 -60.5t22 -80.5l-40 -12q-14 50 -43 73t-78 23t-79 -26t-41 -69l-38 10q4 40 23 77.5t54 62.5t86 25z" />
    <glyph glyph-name="uni020F" unicode="&#x20f;" horiz-adv-x="586" 
d="M289 -14q-74 0 -129 31.5t-84.5 89t-29.5 135.5q0 86 31 148.5t89 96.5t137 34q73 0 126 -31t82 -88t29 -135q0 -85 -31 -148.5t-87 -98t-133 -34.5zM303 48q65 0 100 50.5t35 144.5q0 101 -40.5 160t-110.5 59q-67 0 -103.5 -49t-36.5 -141q0 -105 41.5 -164.5
t114.5 -59.5zM304 758q48 0 78.5 -24.5t47 -63t20.5 -81.5l-40 -12q-14 50 -40.5 75.5t-70.5 25.5q-45 0 -72 -28.5t-38 -71.5l-38 10q4 40 21.5 79t50.5 65t81 26z" />
    <glyph glyph-name="uni0210" unicode="&#x210;" horiz-adv-x="725" 
d="M597 -14q-36 0 -61.5 11.5t-45.5 39.5t-40 77l-48 115q-16 39 -29.5 58.5t-31 26.5t-46.5 7q-25 0 -45 -3v-212q0 -27 7.5 -37t29.5 -13l70 -8v-48h-295v48l58 9q19 3 25 13t6 38v488q0 26 -6.5 34.5t-26.5 12.5l-56 9v48h251q88 0 148 -20.5t90.5 -60t30.5 -98.5
q0 -32 -13 -62t-36.5 -55t-55.5 -42t-69 -24v-3q38 -10 61.5 -31t39.5 -60l35 -82q15 -34 27 -58.5t28.5 -37.5t43.5 -13q9 0 19 2t26 7l10 -36q-21 -20 -46 -30t-55 -10zM306 369q54 0 91.5 17t57.5 50t20 79q0 68 -40.5 99.5t-128.5 31.5h-56v-275q19 -1 32.5 -1.5
t23.5 -0.5zM432 752l-135 70q-19 10 -30.5 22.5t-11.5 33.5q0 17 11 32.5t30 15.5q9 0 18 -5.5t21 -17.5l117 -123zM254 752l-138 68q-19 9 -30.5 22t-11.5 34q0 17 12 31t31 14q16 0 39 -23l118 -118z" />
    <glyph glyph-name="uni0211" unicode="&#x211;" horiz-adv-x="473" 
d="M55 0v48l48 9q16 3 21 12.5t5 35.5v280q0 36 -6 47t-28 15l-49 7l7 49l135 11l12 -7l11 -90h3q60 104 149 104q47 0 75 -26t28 -70q0 -39 -17 -59t-50 -20q-28 0 -43.5 11.5t-15.5 32.5q0 11 4.5 25t14.5 33q-22 11 -46 3.5t-44.5 -29t-33.5 -52t-13 -64.5v-203
q0 -25 4.5 -32.5t20.5 -10.5l86 -13v-47h-278zM217 580l-118 88q-16 11 -25 26.5t-9 30.5q0 17 10.5 29.5t32.5 12.5q11 0 20 -6.5t20 -22.5l93 -133zM358 580l-110 92q-16 13 -23.5 26.5t-7.5 27.5q0 19 10.5 31.5t32.5 12.5q11 0 19.5 -6t18.5 -23l84 -136z" />
    <glyph glyph-name="uni0212" unicode="&#x212;" horiz-adv-x="725" 
d="M597 -14q-36 0 -61.5 11.5t-45.5 39.5t-40 77l-48 115q-16 39 -29.5 58.5t-31 26.5t-46.5 7q-25 0 -45 -3v-212q0 -27 7.5 -37t29.5 -13l70 -8v-48h-295v48l58 9q19 3 25 13t6 38v488q0 26 -6.5 34.5t-26.5 12.5l-56 9v48h251q88 0 148 -20.5t90.5 -60t30.5 -98.5
q0 -32 -13 -62t-36.5 -55t-55.5 -42t-69 -24v-3q38 -10 61.5 -31t39.5 -60l35 -82q15 -34 27 -58.5t28.5 -37.5t43.5 -13q9 0 19 2t26 7l10 -36q-21 -20 -46 -30t-55 -10zM306 369q54 0 91.5 17t57.5 50t20 79q0 68 -40.5 99.5t-128.5 31.5h-56v-275q19 -1 32.5 -1.5
t23.5 -0.5zM324 921q51 0 83.5 -23t50.5 -60.5t22 -80.5l-40 -12q-14 50 -43 73t-78 23t-79 -26t-41 -69l-38 10q4 40 23 77.5t54 62.5t86 25z" />
    <glyph glyph-name="uni0213" unicode="&#x213;" horiz-adv-x="473" 
d="M55 0v48l48 9q16 3 21 12.5t5 35.5v280q0 36 -6 47t-28 15l-49 7l7 49l135 11l12 -7l11 -90h3q60 104 149 104q47 0 75 -26t28 -70q0 -39 -17 -59t-50 -20q-28 0 -43.5 11.5t-15.5 32.5q0 11 4.5 25t14.5 33q-22 11 -46 3.5t-44.5 -29t-33.5 -52t-13 -64.5v-203
q0 -25 4.5 -32.5t20.5 -10.5l86 -13v-47h-278zM284 758q48 0 78.5 -24.5t47 -63t20.5 -81.5l-40 -12q-14 50 -40.5 75.5t-70.5 25.5q-45 0 -72 -28.5t-38 -71.5l-38 10q4 40 21.5 79t50.5 65t81 26z" />
    <glyph glyph-name="uni0214" unicode="&#x214;" horiz-adv-x="810" 
d="M404 -14q-90 0 -149 30.5t-88 92.5t-29 156v331q0 26 -6.5 34.5t-26.5 12.5l-56 9v48h276v-48l-58 -9q-18 -3 -24 -13.5t-6 -37.5v-320q0 -76 18.5 -124t58.5 -70t104 -22q65 0 106.5 24t62 73.5t20.5 125.5v317q0 26 -6.5 34.5t-26.5 12.5l-55 9v48h246v-48l-57 -9
q-19 -3 -25 -13t-6 -38v-301q0 -152 -68 -228.5t-205 -76.5zM528 752l-135 70q-19 10 -30.5 22.5t-11.5 33.5q0 17 11 32.5t30 15.5q9 0 18 -5.5t21 -17.5l117 -123zM350 752l-138 68q-19 9 -30.5 22t-11.5 34q0 17 12 31t31 14q16 0 39 -23l118 -118z" />
    <glyph glyph-name="uni0215" unicode="&#x215;" horiz-adv-x="634" 
d="M265 -14q-52 0 -88 19.5t-54 57.5t-18 94v229q0 36 -6 47t-28 15l-44 7l8 48l151 11l12 -7v-321q0 -48 9 -76t30 -40t57 -12q62 0 98.5 37.5t36.5 101.5v189q0 36 -6 47t-28 15l-45 7l8 48l152 11l12 -7v-406q0 -24 6.5 -32.5t25.5 -12.5l50 -9v-47l-155 -6l-14 81h-3
q-26 -31 -52 -50.5t-54 -29t-61 -9.5zM253 580l-118 88q-16 11 -25 26.5t-9 30.5q0 17 10.5 29.5t32.5 12.5q11 0 20 -6.5t20 -22.5l93 -133zM394 580l-110 92q-16 13 -23.5 26.5t-7.5 27.5q0 19 10.5 31.5t32.5 12.5q11 0 19.5 -6t18.5 -23l84 -136z" />
    <glyph glyph-name="uni0216" unicode="&#x216;" horiz-adv-x="810" 
d="M404 -14q-90 0 -149 30.5t-88 92.5t-29 156v331q0 26 -6.5 34.5t-26.5 12.5l-56 9v48h276v-48l-58 -9q-18 -3 -24 -13.5t-6 -37.5v-320q0 -76 18.5 -124t58.5 -70t104 -22q65 0 106.5 24t62 73.5t20.5 125.5v317q0 26 -6.5 34.5t-26.5 12.5l-55 9v48h246v-48l-57 -9
q-19 -3 -25 -13t-6 -38v-301q0 -152 -68 -228.5t-205 -76.5zM420 921q51 0 83.5 -23t50.5 -60.5t22 -80.5l-40 -12q-14 50 -43 73t-78 23t-79 -26t-41 -69l-38 10q4 40 23 77.5t54 62.5t86 25z" />
    <glyph glyph-name="uni0217" unicode="&#x217;" horiz-adv-x="634" 
d="M265 -14q-52 0 -88 19.5t-54 57.5t-18 94v229q0 36 -6 47t-28 15l-44 7l8 48l151 11l12 -7v-321q0 -48 9 -76t30 -40t57 -12q62 0 98.5 37.5t36.5 101.5v189q0 36 -6 47t-28 15l-45 7l8 48l152 11l12 -7v-406q0 -24 6.5 -32.5t25.5 -12.5l50 -9v-47l-155 -6l-14 81h-3
q-26 -31 -52 -50.5t-54 -29t-61 -9.5zM310 758q48 0 78.5 -24.5t47 -63t20.5 -81.5l-40 -12q-14 50 -40.5 75.5t-70.5 25.5q-45 0 -72 -28.5t-38 -71.5l-38 10q4 40 21.5 79t50.5 65t81 26z" />
    <glyph glyph-name="uni0218" unicode="&#x218;" horiz-adv-x="598" 
d="M316 -14q-51 0 -99.5 18t-80.5 49l-16 -59h-44l-20 216l57 5q30 -82 80.5 -123.5t119.5 -41.5q42 0 71 13.5t44 39.5t15 62q0 55 -35 88t-122 61q-75 24 -120 52t-65 65.5t-20 89.5q0 43 15.5 78.5t43.5 61t67.5 39.5t87.5 14q41 0 80.5 -14t67.5 -38l13 52h47l22 -202
l-56 -8q-23 79 -65 117t-106 38q-54 0 -87 -30t-33 -80q0 -33 14.5 -57t48.5 -43.5t92 -39.5q57 -19 97 -40t64 -45.5t35 -54.5t11 -69q0 -62 -29 -110.5t-79.5 -76t-115.5 -27.5zM275 -268l-24 29q30 26 39 44t9 37h-10q-28 0 -39.5 13.5t-11.5 32.5q0 25 16.5 40.5
t44.5 15.5q36 0 51.5 -22.5t15.5 -49.5q0 -39 -23 -78.5t-68 -61.5z" />
    <glyph glyph-name="uni0219" unicode="&#x219;" horiz-adv-x="452" 
d="M65 -14l-16 172l56 4q14 -38 34 -64t47 -39t59 -13q44 0 69 22.5t25 61.5q0 32 -24.5 51t-92.5 38q-44 12 -75 26.5t-50 32.5t-27.5 40.5t-8.5 52.5q0 46 21 79.5t60 52t91 18.5q31 0 61.5 -9.5t48.5 -24.5l8 34h44l13 -163l-57 5q-10 47 -42 75.5t-74 28.5
q-43 0 -66.5 -19t-23.5 -54q0 -31 24 -49.5t91 -38.5q45 -13 76 -27.5t50 -32.5t27.5 -41t8.5 -53q0 -49 -23 -86.5t-63 -58.5t-93 -21q-39 0 -71.5 9t-53.5 25l-11 -34h-42zM210 -268l-24 29q30 26 39 44t9 37h-10q-28 0 -39.5 13.5t-11.5 32.5q0 25 16.5 40.5t44.5 15.5
q36 0 51.5 -22.5t15.5 -49.5q0 -39 -23 -78.5t-68 -61.5z" />
    <glyph glyph-name="uni021A" unicode="&#x21a;" horiz-adv-x="738" 
d="M207 0v48l80 12q19 3 26 14t7 36v535h-55q-37 0 -62 -6t-43 -23t-32.5 -48t-31.5 -81l-54 13l39 200h578l37 -200l-55 -13q-21 67 -40.5 100.5t-48 45.5t-77.5 12h-56v-539q0 -25 6.5 -33.5t27.5 -12.5l79 -12v-48h-325zM342 -268l-24 29q30 26 39 44t9 37h-10
q-28 0 -39.5 13.5t-11.5 32.5q0 25 16.5 40.5t44.5 15.5q36 0 51.5 -22.5t15.5 -49.5q0 -39 -23 -78.5t-68 -61.5z" />
    <glyph glyph-name="uni021B" unicode="&#x21b;" horiz-adv-x="404" 
d="M249 -14q-68 0 -100.5 36.5t-32.5 112.5v309h-79v52q35 3 58 21.5t36 57t17 99.5l48 6l13 -6v-167h156v-63h-156v-302q0 -42 17.5 -62.5t53.5 -20.5q26 0 49 8t47 24l23 -36q-32 -33 -71 -51t-79 -18zM216 -268l-24 29q30 26 39 44t9 37h-10q-28 0 -39.5 13.5t-11.5 32.5
q0 25 16.5 40.5t44.5 15.5q36 0 51.5 -22.5t15.5 -49.5q0 -39 -23 -78.5t-68 -61.5z" />
    <glyph glyph-name="uni022A" unicode="&#x22a;" horiz-adv-x="760" 
d="M378 -14q-98 0 -172 44t-115 122.5t-41 183.5q0 87 23.5 156.5t67.5 119t106.5 76t139.5 26.5q97 0 169.5 -43t113 -121t40.5 -182q0 -114 -41.5 -200t-116.5 -134t-174 -48zM390 53q104 0 157.5 75.5t53.5 220.5q0 95 -27 162t-77.5 103t-122.5 36q-104 0 -161 -76.5
t-57 -216.5q0 -93 28.5 -161.5t81 -105.5t124.5 -37zM482 771q-28 0 -46.5 17.5t-18.5 45.5t18.5 46t46.5 18q29 0 47 -17.5t18 -45.5t-18 -46t-47 -18zM279 771q-28 0 -46 17.5t-18 45.5t18 46t46 18q29 0 47.5 -17.5t18.5 -45.5t-18.5 -46t-47.5 -18zM249 968v73h284v-73
h-284z" />
    <glyph glyph-name="uni022B" unicode="&#x22b;" horiz-adv-x="587" 
d="M289 -14q-74 0 -129 31.5t-84.5 89t-29.5 135.5q0 86 31 148.5t89 96.5t137 34q73 0 126 -31t82 -88t29 -135q0 -85 -31 -148.5t-87 -98t-133 -34.5zM303 48q65 0 100 50.5t35 144.5q0 101 -40.5 160t-110.5 59q-67 0 -103.5 -49t-36.5 -141q0 -105 41.5 -164.5
t114.5 -59.5zM394 596q-28 0 -46 17.5t-18 44.5t18 45t46 18t46 -17.5t18 -44.5t-18 -45t-46 -18zM195 596q-27 0 -45 17.5t-18 44.5t18 45t45 18q29 0 47 -17.5t18 -44.5t-18 -45t-47 -18zM153 795v73h284v-73h-284z" />
    <glyph glyph-name="uni022C" unicode="&#x22c;" horiz-adv-x="760" 
d="M378 -14q-98 0 -172 44t-115 122.5t-41 183.5q0 87 23.5 156.5t67.5 119t106.5 76t139.5 26.5q97 0 169.5 -43t113 -121t40.5 -182q0 -114 -41.5 -200t-116.5 -134t-174 -48zM390 53q104 0 157.5 75.5t53.5 220.5q0 95 -27 162t-77.5 103t-122.5 36q-104 0 -161 -76.5
t-57 -216.5q0 -93 28.5 -161.5t81 -105.5t124.5 -37zM468 776q-19 0 -39.5 5.5t-52.5 18.5q-30 12 -47.5 18t-25.5 6q-14 0 -23.5 -7t-23.5 -29l-31 19q26 56 45 75t48 19q15 0 34.5 -5.5t54.5 -20.5q22 -9 36.5 -14.5t24 -7.5t15.5 -2q12 0 20 7t24 30l31 -19
q-26 -54 -45 -73.5t-45 -19.5zM249 980v73h284v-73h-284z" />
    <glyph glyph-name="uni022D" unicode="&#x22d;" horiz-adv-x="587" 
d="M289 -14q-74 0 -129 31.5t-84.5 89t-29.5 135.5q0 86 31 148.5t89 96.5t137 34q73 0 126 -31t82 -88t29 -135q0 -85 -31 -148.5t-87 -98t-133 -34.5zM303 48q65 0 100 50.5t35 144.5q0 101 -40.5 160t-110.5 59q-67 0 -103.5 -49t-36.5 -141q0 -105 41.5 -164.5
t114.5 -59.5zM153 795v73h284v-73h-284zM369 587q-12 0 -25 2t-28.5 7.5t-36.5 14.5q-35 15 -49 20t-21 5q-13 0 -22.5 -7t-24.5 -30l-31 19q25 53 44 72t49 19q17 0 36 -5t50 -19q19 -8 33 -13.5t24.5 -8t16.5 -2.5q12 0 21 7.5t23 29.5l31 -19q-25 -54 -44 -73t-46 -19z
" />
    <glyph glyph-name="uni0230" unicode="&#x230;" horiz-adv-x="779" 
d="M378 -14q-98 0 -172 44t-115 122.5t-41 183.5q0 87 23.5 156.5t67.5 119t106.5 76t139.5 26.5q97 0 169.5 -43t113 -121t40.5 -182q0 -114 -41.5 -200t-116.5 -134t-174 -48zM390 53q104 0 157.5 75.5t53.5 220.5q0 95 -27 162t-77.5 103t-122.5 36q-104 0 -161 -76.5
t-57 -216.5q0 -93 28.5 -161.5t81 -105.5t124.5 -37zM381 767q-29 0 -48 18.5t-19 47.5t19 48t48 19q30 0 49 -18.5t19 -47.5t-19 -48t-49 -19zM249 968v73h284v-73h-284z" />
    <glyph glyph-name="uni0231" unicode="&#x231;" horiz-adv-x="587" 
d="M289 -14q-74 0 -129 31.5t-84.5 89t-29.5 135.5q0 86 31 148.5t89 96.5t137 34q73 0 126 -31t82 -88t29 -135q0 -85 -31 -148.5t-87 -98t-133 -34.5zM303 48q65 0 100 50.5t35 144.5q0 101 -40.5 160t-110.5 59q-67 0 -103.5 -49t-36.5 -141q0 -105 41.5 -164.5
t114.5 -59.5zM294 602q-29 0 -48 18.5t-19 47.5t19 48t48 19q30 0 49 -18.5t19 -47.5t-19 -48t-49 -19zM153 795v73h284v-73h-284z" />
    <glyph glyph-name="uni0232" unicode="&#x232;" horiz-adv-x="716" 
d="M213 0v48l62 9q19 3 25 13t6 38v185l-187 298q-16 27 -28 37t-32 14l-37 7v51h279v-48l-55 -7q-23 -2 -28 -15.5t9 -34.5l146 -237h5l138 233q14 21 10 33.5t-27 17.5l-46 11v47h241v-48l-49 -8q-16 -2 -26.5 -12.5t-30.5 -42.5l-183 -297v-188q0 -25 6.5 -34t25.5 -13
l61 -9v-48h-285zM233 795v73h284v-73h-284z" />
    <glyph glyph-name="uni0233" unicode="&#x233;" horiz-adv-x="576" 
d="M113 -229q-47 0 -75 21.5t-28 58.5q0 29 18.5 48t46.5 19q48 0 53 -36q1 -6 0 -20t-4 -37q21 -1 37 9t33 37.5t39 78.5l25 57l-165 392q-13 30 -20 38.5t-24 12.5l-35 8l10 49h238v-46l-48 -7q-20 -3 -24.5 -13.5t5.5 -36.5l111 -280h5l111 273q10 25 4.5 37t-27.5 17
l-44 10l10 46h209v-47l-37 -8q-17 -4 -25 -13t-22 -41l-193 -452q-28 -66 -55 -104.5t-57.5 -54.5t-71.5 -16zM169 635v73h280v-73h-280z" />
    <glyph glyph-name="uni0237" unicode="&#x237;" horiz-adv-x="309" 
d="M62 -229l-28 41q50 40 68.5 91.5t18.5 124.5v354q0 34 -5.5 47t-30.5 16l-48 7l8 50l157 8l12 -5v-410q0 -91 -14 -151.5t-47.5 -101t-90.5 -71.5z" />
    <glyph glyph-name="uni0251" unicode="&#x251;" horiz-adv-x="626" 
d="M247 -14q-63 0 -107.5 31.5t-68.5 88.5t-24 132q0 87 30.5 150.5t85.5 98t129 34.5q43 0 81 -13t61 -30l45 43l28 -8v-395q0 -38 13.5 -50t31.5 -12q11 0 20.5 2t22.5 6l10 -38q-15 -14 -31 -23t-32.5 -13t-35.5 -4q-18 0 -36.5 6.5t-33 25t-19.5 52.5h-3
q-22 -31 -61.5 -57.5t-105.5 -26.5zM281 58q31 0 61.5 15t51 49t20.5 90v202q-28 23 -61.5 32t-63.5 9q-77 0 -110 -57t-33 -150q0 -53 13.5 -96t43 -68.5t78.5 -25.5z" />
    <glyph glyph-name="uni0259" unicode="&#x259;" horiz-adv-x="519" 
d="M229 -14q-51 0 -93 21t-66.5 60.5t-24.5 95.5q0 24 3.5 49t10.5 49h313q-3 85 -44 135.5t-117 50.5q-50 0 -84.5 -20t-53.5 -40l-35 35q19 25 47.5 47.5t66.5 37t82 14.5q79 0 132 -35t80 -94.5t27 -132.5q0 -85 -31.5 -146.5t-86.5 -94t-126 -32.5zM240 39q48 0 75.5 25
t40.5 63.5t16 77.5h-230q-1 -10 -2 -21t-1 -25q0 -60 26.5 -90t74.5 -30z" />
    <glyph glyph-name="uni0261" unicode="&#x261;" horiz-adv-x="597" 
d="M270 -229q-71 0 -113.5 13t-60.5 35t-18 48q0 34 19 49.5t44 15.5q20 0 33 -9t14 -24q1 -9 -0.5 -24t-6.5 -33q17 -9 38.5 -13t43.5 -4q42 0 76 14.5t54.5 50.5t20.5 99v69v12q-22 -31 -61.5 -57.5t-105.5 -26.5q-63 0 -107.5 31.5t-68.5 88.5t-24 132q0 87 30.5 150.5
t85.5 98t129 34.5q43 0 81 -13t61 -30l45 43l28 -8v-497q0 -60 -15.5 -102.5t-41 -70.5t-56.5 -43.5t-63.5 -22t-60.5 -6.5zM281 58q31 0 61.5 15t51 49t20.5 90v202q-28 23 -61.5 32t-63.5 9q-77 0 -110 -57t-33 -150q0 -53 13.5 -96t43 -68.5t78.5 -25.5z" />
    <glyph glyph-name="uni02B9" unicode="&#x2b9;" horiz-adv-x="213" 
d="M88 580l-33 8l12 159q2 24 13.5 43t39.5 19q14 0 30.5 -9.5t16.5 -28.5q0 -6 -2.5 -14t-7.5 -19z" />
    <glyph glyph-name="uni02BA" unicode="&#x2ba;" horiz-adv-x="376" 
d="M251 580l-33 8l12 159q2 24 13.5 43t39.5 19q14 0 30.5 -9.5t16.5 -28.5q0 -6 -2.5 -14t-7.5 -19zM88 580l-33 8l12 159q2 24 13.5 43t39.5 19q14 0 30.5 -9.5t16.5 -28.5q0 -6 -2.5 -14t-7.5 -19z" />
    <glyph glyph-name="uni02BB" unicode="&#x2bb;" horiz-adv-x="0" 
d="M2 578q-34 0 -50.5 22.5t-16.5 49.5q0 39 23 78.5t68 61.5l22 -29q-30 -25 -39 -44.5t-9 -38.5h8q26 0 38.5 -11t12.5 -31q0 -25 -16 -41.5t-41 -16.5z" />
    <glyph glyph-name="uni02BC" unicode="&#x2bc;" 
d="M218 578l-22 29q30 26 39 45t9 38h-8q-25 0 -38 11.5t-13 30.5q0 25 16 41.5t41 16.5q34 0 50.5 -22.5t16.5 -49.5q0 -39 -23 -78.5t-68 -61.5z" />
    <glyph glyph-name="uni02BE" unicode="&#x2be;" 
d="M208 582v45h4q26 0 37 17t11 37t-11 37t-39 17h-2v46h3q55 0 80 -27.5t25 -72.5q0 -40 -26.5 -69.5t-80.5 -29.5h-1z" />
    <glyph glyph-name="uni02BF" unicode="&#x2bf;" 
d="M289 582q-55 0 -80 27.5t-25 72.5q0 41 26.5 70t80.5 29h1v-45h-4q-26 0 -37 -17t-11 -37t11 -37t39 -17h2v-46h-3z" />
    <glyph glyph-name="circumflex" unicode="&#x2c6;" 
d="M125 580l-26 25l114 152q9 11 19 16.5t20 5.5q11 0 19.5 -5.5t21.5 -22.5l109 -145l-27 -26l-123 100z" />
    <glyph glyph-name="caron" unicode="&#x2c7;" 
d="M248 580q-10 0 -19 5.5t-22 22.5l-109 145l27 26l123 -100l127 100l26 -25l-114 -152q-9 -11 -18.5 -16.5t-20.5 -5.5z" />
    <glyph glyph-name="uni02C8" unicode="&#x2c8;" 
d="M219 578v207h62v-207h-62z" />
    <glyph glyph-name="uni02C9" unicode="&#x2c9;" 
d="M110 635v73h280v-73h-280z" />
    <glyph glyph-name="uni02CA" unicode="&#x2ca;" 
d="M197 580l-24 25l104 138q12 15 20.5 22t18.5 7q22 0 35 -16t13 -35q0 -32 -35 -53z" />
    <glyph glyph-name="uni02CB" unicode="&#x2cb;" 
d="M304 580l-132 88q-16 11 -25.5 24t-9.5 29q0 19 13 35t35 16q11 0 19 -7t20 -22l104 -138z" />
    <glyph glyph-name="uni02CC" unicode="&#x2cc;" 
d="M219 -249v194h62v-194h-62z" />
    <glyph glyph-name="breve" unicode="&#x2d8;" 
d="M247 587q-47 0 -78 24.5t-47 63t-21 81.5l40 12q14 -49 40.5 -75t70.5 -26q45 0 72 28.5t38 71.5l38 -10q-3 -39 -21 -78.5t-50.5 -65.5t-81.5 -26z" />
    <glyph glyph-name="dotaccent" unicode="&#x2d9;" 
d="M249 620q-29 0 -48 18.5t-19 47.5t19 48t48 19q30 0 49 -18.5t19 -47.5t-19 -48t-49 -19z" />
    <glyph glyph-name="ring" unicode="&#x2da;" 
d="M250 582q-56 0 -82 28.5t-26 74.5q0 42 27.5 72t82.5 30q53 0 79.5 -27.5t26.5 -72.5q0 -46 -27.5 -75.5t-80.5 -29.5zM251 629q28 0 38 17t10 39t-12 39t-38 17q-27 0 -38 -17.5t-11 -38.5t11.5 -38.5t39.5 -17.5z" />
    <glyph glyph-name="ogonek" unicode="&#x2db;" 
d="M235 -229q-43 0 -67.5 23.5t-24.5 57.5q0 39 20.5 68.5t49.5 51t54 37.5l49 -4q-20 -16 -40 -36t-33.5 -43t-13.5 -49q0 -20 10 -30.5t31 -10.5q14 0 26.5 3t22.5 6l11 -35q-17 -14 -42 -26.5t-53 -12.5z" />
    <glyph glyph-name="tilde" unicode="&#x2dc;" 
d="M324 620q-12 0 -25 2t-28.5 7.5t-36.5 14.5q-40 17 -51.5 21t-18.5 4q-13 0 -22.5 -7t-24.5 -30l-31 19q25 53 44 72t49 19q17 0 35 -5t51 -19q24 -9 38 -14.5t22.5 -7.5t13.5 -2q13 0 21.5 7.5t22.5 29.5l31 -19q-25 -54 -44 -73t-46 -19z" />
    <glyph glyph-name="hungarumlaut" unicode="&#x2dd;" 
d="M304 580l-24 25l93 133q11 16 20.5 22.5t19.5 6.5q22 0 32.5 -12.5t10.5 -29.5q0 -15 -9 -30.5t-25 -26.5zM163 580l-24 25l84 136q11 17 19.5 23t18.5 6q22 0 32.5 -12.5t10.5 -31.5q0 -29 -31 -54z" />
    <glyph glyph-name="gravecomb" unicode="&#x300;" horiz-adv-x="0" 
d="M55 580l-132 88q-16 11 -25.5 24t-9.5 29q0 19 13 35t35 16q11 0 19 -7t20 -22l104 -138z" />
    <glyph glyph-name="acutecomb" unicode="&#x301;" horiz-adv-x="0" 
d="M-3 580l-24 25l104 138q11 15 20 22t19 7q22 0 35 -16t13 -35q0 -16 -9 -29t-26 -24z" />
    <glyph glyph-name="uni0302" unicode="&#x302;" horiz-adv-x="0" 
d="M-125 580l-26 25l114 152q9 11 19 16.5t20 5.5q11 0 19.5 -5.5t21.5 -22.5l109 -145l-27 -26l-123 100z" />
    <glyph glyph-name="tildecomb" unicode="&#x303;" horiz-adv-x="0" 
d="M74 620q-12 0 -25 2t-28.5 7.5t-36.5 14.5q-35 15 -49 20t-21 5q-13 0 -22.5 -7t-24.5 -30l-31 19q25 53 44 72t49 19q17 0 36 -5t50 -19q19 -8 33 -13.5t24.5 -8t16.5 -2.5q12 0 21 7.5t23 29.5l31 -19q-25 -54 -44 -73t-46 -19z" />
    <glyph glyph-name="uni0304" unicode="&#x304;" horiz-adv-x="0" 
d="M-140 635v73h280v-73h-280z" />
    <glyph glyph-name="uni0306" unicode="&#x306;" horiz-adv-x="0" 
d="M-3 587q-47 0 -78 24.5t-47 63t-21 81.5l40 12q14 -49 40.5 -75t70.5 -26q45 0 72 28.5t38 71.5l38 -10q-3 -39 -21 -78.5t-51 -65.5t-81 -26z" />
    <glyph glyph-name="uni0307" unicode="&#x307;" horiz-adv-x="0" 
d="M-1 622q-29 0 -48 18.5t-19 47.5t19 48t48 19q30 0 49 -18.5t19 -47.5t-19 -48t-49 -19z" />
    <glyph glyph-name="uni0308" unicode="&#x308;" horiz-adv-x="0" 
d="M99 620q-28 0 -46 17.5t-18 44.5t18 45t46 18t46 -17.5t18 -44.5t-18 -45t-46 -18zM-100 620q-27 0 -45 17.5t-18 44.5t18 45t45 18q29 0 47 -17.5t18 -44.5t-18 -45t-47 -18z" />
    <glyph glyph-name="hookabovecomb" unicode="&#x309;" horiz-adv-x="0" 
d="M-35 575v47q0 18 11 31t26 23.5t26 22.5t11 29q0 37 -44 37q-36 0 -52 -14q8 -8 13 -17t5 -14q0 -13 -13 -22t-30 -9q-18 0 -28 11t-10 28q0 25 16 42.5t42.5 27.5t58.5 10t59 -8t43 -25.5t16 -48.5q0 -25 -13 -44t-30.5 -33.5t-30.5 -27t-13 -24.5v-22h-63z" />
    <glyph glyph-name="uni030A" unicode="&#x30a;" horiz-adv-x="0" 
d="M0 582q-55 0 -80 27.5t-25 72.5q0 41 26.5 70t80.5 29q51 0 77 -26.5t26 -70.5q0 -45 -27 -73.5t-78 -28.5zM1 628q27 0 37 16t10 38q0 21 -11.5 37.5t-37.5 16.5t-37 -17t-11 -37t11 -37t39 -17z" />
    <glyph glyph-name="uni030B" unicode="&#x30b;" horiz-adv-x="0" 
d="M54 580l-24 25l93 133q11 16 20.5 22.5t19.5 6.5q22 0 32.5 -12.5t10.5 -29.5q0 -15 -9 -30.5t-25 -26.5zM-87 580l-24 25l84 136q11 17 19.5 23t18.5 6q22 0 32.5 -12.5t10.5 -31.5q0 -14 -7.5 -27.5t-23.5 -26.5z" />
    <glyph glyph-name="uni030C" unicode="&#x30c;" horiz-adv-x="0" 
d="M-2 580q-10 0 -19 5.5t-22 22.5l-109 145l27 26l123 -100l127 100l26 -25l-114 -152q-9 -11 -18.5 -16.5t-20.5 -5.5z" />
    <glyph glyph-name="uni030F" unicode="&#x30f;" horiz-adv-x="0" 
d="M-57 580l-118 88q-16 11 -25 26.5t-9 30.5q0 17 10.5 29.5t32.5 12.5q11 0 20 -6.5t20 -22.5l93 -133zM84 580l-110 92q-16 13 -23.5 26.5t-7.5 27.5q0 19 10.5 31.5t32.5 12.5q11 0 19.5 -6t18.5 -23l84 -136z" />
    <glyph glyph-name="uni0311" unicode="&#x311;" horiz-adv-x="0" 
d="M10 758q48 0 78.5 -24.5t47 -63t20.5 -81.5l-40 -12q-14 50 -40.5 75.5t-70.5 25.5q-45 0 -72 -28.5t-38 -71.5l-38 10q4 40 21.5 79t50.5 65t81 26z" />
    <glyph glyph-name="uni0312" unicode="&#x312;" horiz-adv-x="0" 
d="M2 578q-34 0 -50.5 22.5t-16.5 49.5q0 39 23 78.5t68 61.5l22 -29q-30 -25 -39 -44.5t-9 -38.5h8q26 0 38.5 -11t12.5 -31q0 -25 -16 -41.5t-41 -16.5z" />
    <glyph glyph-name="uni031B" unicode="&#x31b;" horiz-adv-x="0" 
d="M-98 365v54q54 22 78 57t27 71h-9q-32 0 -47 12.5t-15 37.5q0 30 18.5 48.5t45.5 18.5q41 0 56 -26.5t15 -61.5q0 -26 -10.5 -58t-31.5 -63t-53 -55t-74 -35z" />
    <glyph glyph-name="dotbelowcomb" unicode="&#x323;" horiz-adv-x="0" 
d="M1 -207q-29 0 -48 18.5t-19 47.5t19 48t48 19q30 0 49 -18.5t19 -47.5t-19 -48t-49 -19z" />
    <glyph glyph-name="uni0324" unicode="&#x324;" horiz-adv-x="0" 
d="M99 -190q-28 0 -46 17.5t-18 44.5t18 45t46 18t46 -17.5t18 -44.5t-18 -45t-46 -18zM-100 -190q-27 0 -45 17.5t-18 44.5t18 45t45 18q29 0 47 -17.5t18 -44.5t-18 -45t-47 -18z" />
    <glyph glyph-name="uni0326" unicode="&#x326;" horiz-adv-x="0" 
d="M-26 -268l-24 29q30 26 39 44t9 37h-10q-28 0 -39.5 13.5t-11.5 32.5q0 25 16.5 40.5t44.5 15.5q36 0 51.5 -22.5t15.5 -49.5q0 -39 -23 -78.5t-68 -61.5z" />
    <glyph glyph-name="uni0327" unicode="&#x327;" horiz-adv-x="0" 
d="M-9 -229q-35 0 -61 15.5t-34 24.5l24 37q13 -10 30.5 -16t33.5 -6q20 0 35 10.5t15 32.5q0 21 -13 29.5t-37 8.5q-10 0 -16.5 -0.5t-13.5 -2.5l-8 21l35 88h46l-27 -70q48 6 77 -13.5t29 -62.5q0 -42 -28 -69t-87 -27z" />
    <glyph glyph-name="uni0328" unicode="&#x328;" horiz-adv-x="0" 
d="M-1 -229q-43 0 -67.5 23.5t-24.5 57.5q0 39 20.5 68.5t49.5 51t54 37.5l49 -4q-20 -16 -40 -36t-33.5 -43t-13.5 -49q0 -20 10 -30.5t31 -10.5q14 0 26.5 3t22.5 6l11 -35q-17 -14 -42 -26.5t-53 -12.5z" />
    <glyph glyph-name="uni032E" unicode="&#x32e;" horiz-adv-x="0" 
d="M-3 -224q-47 0 -77 22.5t-45.5 58t-20.5 75.5l39 10q14 -45 39 -65.5t69 -20.5t69.5 23.5t36.5 61.5l39 -8q-3 -36 -20 -72.5t-49 -60.5t-80 -24z" />
    <glyph glyph-name="uni0331" unicode="&#x331;" horiz-adv-x="0" 
d="M-140 -172v73h280v-73h-280z" />
    <glyph glyph-name="uni0374" unicode="&#x374;" horiz-adv-x="358" 
d="M85 523l-35 18l64 176q8 21 18.5 33t30.5 12q26 0 39.5 -13.5t23.5 -35.5l-1 -14z" />
    <glyph glyph-name="uni0375" unicode="&#x375;" 
d="M227 -181q-25 0 -39 13.5t-24 35.5l1 14l140 176l35 -18l-64 -176q-7 -21 -18 -33t-31 -12z" />
    <glyph glyph-name="uni037A" unicode="&#x37a;" 
d="M258 -229q-47 0 -68 22t-21 71q0 18 -0.5 44t-2.5 41l76 7l9 -4q-2 -22 -3.5 -39.5t-1.5 -35.5q0 -45 49 -45q6 0 15 1.5t22 3.5l7 -36q-38 -30 -81 -30z" />
    <glyph glyph-name="uni037E" unicode="&#x37e;" horiz-adv-x="328" 
d="M115 -168l-29 37q45 35 64.5 66.5t22.5 64.5h-24q-32 0 -47 15t-15 40q0 32 20 53t53 21q44 0 64.5 -29.5t20.5 -68.5q0 -29 -14 -66t-43 -72t-73 -61zM159 370q-33 0 -54.5 21t-21.5 54t21.5 54.5t54.5 21.5q34 0 55.5 -21t21.5 -54t-21.5 -54.5t-55.5 -21.5z" />
    <glyph glyph-name="tonos" unicode="&#x384;" 
d="M219 573l-35 18l67 163q8 21 18.5 32t30.5 11q26 0 39.5 -14.5t23.5 -36.5l-1 -14z" />
    <glyph glyph-name="dieresistonos" unicode="&#x385;" 
d="M208 574l-37 15l50 170q7 22 17 34.5t33 12.5q22 0 36.5 -12t25.5 -33v-14zM89 620q-27 0 -45 17.5t-18 44.5t18 45t45 18q29 0 47 -17.5t18 -44.5t-18 -45t-47 -18zM410 620q-28 0 -46 17.5t-18 44.5t18 45t46 18t46 -17.5t18 -44.5t-18 -45t-46 -18z" />
    <glyph glyph-name="Alphatonos" unicode="&#x386;" horiz-adv-x="735" 
d="M15 0v48l48 8q18 3 26.5 13t19.5 41l211 590h106l209 -591q11 -30 19 -39t25 -12l41 -8v-50h-267v48l58 7q20 2 24 13t-5 37l-43 126h-268l-42 -122q-9 -26 -4 -38.5t27 -15.5l57 -8v-47h-242zM239 288h229l-111 329h-4zM96 492l-35 18l67 163q8 21 18.5 32t30.5 11
q26 0 39.5 -14.5t23.5 -36.5l-1 -14z" />
    <glyph glyph-name="anoteleia" unicode="&#x387;" 
d="M249 370q-33 0 -54.5 21t-21.5 54t21.5 54.5t54.5 21.5q34 0 55.5 -21t21.5 -54t-21.5 -54.5t-55.5 -21.5z" />
    <glyph glyph-name="Epsilontonos" unicode="&#x388;" horiz-adv-x="637" 
d="M62 0v48l58 9q19 3 25 13t6 38v488q0 26 -6.5 35t-26.5 12l-56 9v48h463l37 -163l-52 -17q-20 53 -39 80t-47 36.5t-77 9.5h-97v-259h87q36 0 52.5 4.5t24 21.5t16.5 56l46 6v-227l-46 -8q-6 39 -13.5 57t-25.5 23t-54 5h-87v-271h129q48 0 75.5 10t44 38t30.5 82h55
l-24 -184h-498zM-127 492l-35 18l67 163q8 21 18.5 32t30.5 11q26 0 39.5 -14.5t23.5 -36.5l-1 -14z" />
    <glyph glyph-name="Etatonos" unicode="&#x389;" horiz-adv-x="840" 
d="M62 0v48l58 9q19 3 25 13t6 38v488q0 26 -6.5 34.5t-26.5 12.5l-56 9v48h276v-48l-58 -9q-18 -3 -24 -13.5t-6 -37.5v-201h340v205q0 26 -6.5 34.5t-26.5 12.5l-55 9v48h275v-48l-57 -9q-19 -3 -25 -13t-6 -38v-488q0 -25 6.5 -34t26.5 -13l55 -9v-48h-275v48l57 9
q19 3 25 13t6 38v220h-340v-224q0 -25 6.5 -34t25.5 -13l56 -9v-48h-276zM-127 492l-35 18l67 163q8 21 18.5 32t30.5 11q26 0 39.5 -14.5t23.5 -36.5l-1 -14z" />
    <glyph glyph-name="Iotatonos" unicode="&#x38a;" horiz-adv-x="401" 
d="M62 0v48l62 9q19 3 25 13t6 38v488q0 26 -6.5 34.5t-26.5 12.5l-60 9v48h285v-48l-63 -9q-18 -3 -24 -13.5t-6 -37.5v-488q0 -25 6.5 -34t25.5 -13l61 -9v-48h-285zM-127 492l-35 18l67 163q8 21 18.5 32t30.5 11q26 0 39.5 -14.5t23.5 -36.5l-1 -14z" />
    <glyph glyph-name="Omicrontonos" unicode="&#x38c;" horiz-adv-x="779" 
d="M378 -14q-98 0 -172 44t-115 122.5t-41 183.5q0 87 23.5 156.5t67.5 119t106.5 76t139.5 26.5q97 0 169.5 -43t113 -121t40.5 -182q0 -114 -41.5 -200t-116.5 -134t-174 -48zM390 53q104 0 157.5 75.5t53.5 220.5q0 95 -27 162t-77.5 103t-122.5 36q-104 0 -161 -76.5
t-57 -216.5q0 -93 28.5 -161.5t81 -105.5t124.5 -37zM-51 492l-35 18l67 163q8 21 18.5 32t30.5 11q26 0 39.5 -14.5t23.5 -36.5l-1 -14z" />
    <glyph glyph-name="Upsilontonos" unicode="&#x38e;" horiz-adv-x="708" 
d="M213 0v48l62 9q22 4 26.5 16.5t4.5 34.5v185l-187 298q-15 24 -26.5 35.5t-33.5 15.5l-37 7v51h279v-48l-55 -7q-20 -2 -27 -14t8 -36l146 -237h5l138 233q14 24 9 35.5t-26 15.5l-46 11v47h241v-48l-49 -8q-18 -3 -29 -16t-28 -39l-183 -297v-188q0 -23 5 -33t27 -14
l61 -9v-48h-285zM-177 492l-35 18l67 163q8 21 18.5 32t30.5 11q26 0 39.5 -14.5t23.5 -36.5l-1 -14z" />
    <glyph glyph-name="Omegatonos" unicode="&#x38f;" horiz-adv-x="830" 
d="M82 0l-22 184h55q15 -45 27 -73.5t33 -42t62 -13.5h78v47q-69 19 -120 62.5t-79.5 104.5t-28.5 131q0 93 42.5 163.5t118 110.5t174.5 40q98 0 170 -37.5t111.5 -105.5t39.5 -160q0 -70 -28.5 -132.5t-80 -109t-119.5 -68.5v-46h78q35 0 55 9.5t35 37t32 82.5h55
l-22 -184h-292v141q97 33 139.5 97t42.5 176q0 70 -28 123t-78 83t-116 30q-108 0 -165.5 -63t-57.5 -180q0 -106 43.5 -169.5t137.5 -95.5v-142h-292zM-36 492l-35 18l67 163q8 21 18.5 32t30.5 11q26 0 39.5 -14.5t23.5 -36.5l-1 -14z" />
    <glyph glyph-name="iotadieresistonos" unicode="&#x390;" horiz-adv-x="296" 
d="M179 -14q-39 0 -61 14t-32 37t-13 50.5t-3 55.5q0 10 -0.5 40t-1 71.5t-1 85.5t-1 82t-1 62l-0.5 24l92 8l11 -5q-3 -35 -5.5 -78.5t-4.5 -88.5t-3 -86.5t-2 -72.5t-1 -45q0 -42 12.5 -61.5t60.5 -19.5q15 0 30.5 1.5t30.5 6.5l10 -41q-20 -20 -51.5 -30t-65.5 -10z
M129 574l-37 15l50 170q7 22 17 34.5t33 12.5q22 0 36.5 -12t25.5 -33v-14zM10 620q-27 0 -45 17.5t-18 44.5t18 45t45 18q29 0 47 -17.5t18 -44.5t-18 -45t-47 -18zM331 620q-28 0 -46 17.5t-18 44.5t18 45t46 18t46 -17.5t18 -44.5t-18 -45t-46 -18z" />
    <glyph glyph-name="Alpha" unicode="&#x391;" horiz-adv-x="735" 
d="M15 0v48l48 8q18 3 26.5 13t19.5 41l211 590h106l209 -591q11 -30 19 -39t25 -12l41 -8v-50h-267v48l58 7q20 2 24 13t-5 37l-43 126h-268l-42 -122q-9 -26 -4 -38.5t27 -15.5l57 -8v-47h-242zM239 288h229l-111 329h-4z" />
    <glyph glyph-name="Beta" unicode="&#x392;" horiz-adv-x="660" 
d="M62 0v48l58 9q22 4 26.5 16.5t4.5 34.5v488q0 23 -5 33t-28 14l-56 9v48h255q78 0 136 -15t90.5 -51t32.5 -100q0 -42 -21 -74.5t-54 -54t-70 -30.5v-5q86 -7 135.5 -49t49.5 -122q0 -46 -18.5 -82.5t-55 -62.5t-91.5 -40t-128 -14h-261zM321 55q60 0 102 16.5t64 49
t22 81.5q0 52 -25 81.5t-67 41.5t-92 12q-22 0 -40 -1t-35 -3v-273q14 -3 34.5 -4t36.5 -1zM305 389q75 0 119.5 35.5t44.5 105.5q0 48 -19.5 73t-55.5 34t-86 9h-58v-255q10 -1 23 -1.5t32 -0.5z" />
    <glyph glyph-name="Gamma" unicode="&#x393;" horiz-adv-x="605" 
d="M62 0v48l58 9q22 4 26.5 16.5t4.5 34.5v488q0 23 -5 33t-28 14l-56 9v48h464l36 -179l-52 -18q-21 58 -40 89t-47.5 42.5t-78.5 11.5h-94v-540q0 -25 6.5 -36t30.5 -14l70 -8v-48h-295z" />
    <glyph glyph-name="uni0394" unicode="&#x394;" horiz-adv-x="619" 
d="M27 0l-12 52l243 648h105l241 -648l-11 -52h-566zM93 77h393l-191 540h-5z" />
    <glyph glyph-name="Epsilon" unicode="&#x395;" horiz-adv-x="637" 
d="M62 0v48l58 9q19 3 25 13t6 38v488q0 26 -6.5 35t-26.5 12l-56 9v48h463l37 -163l-52 -17q-20 53 -39 80t-47 36.5t-77 9.5h-97v-259h87q36 0 52.5 4.5t24 21.5t16.5 56l46 6v-227l-46 -8q-6 39 -13.5 57t-25.5 23t-54 5h-87v-271h129q48 0 75.5 10t44 38t30.5 82h55
l-24 -184h-498z" />
    <glyph glyph-name="Zeta" unicode="&#x396;" horiz-adv-x="657" 
d="M58 0v48l412 599h-214q-36 0 -58.5 -10.5t-38 -39t-33.5 -83.5l-59 -5l12 191h509v-50l-410 -595h211q41 0 67.5 12t46 43.5t39.5 88.5h55l-19 -199h-520z" />
    <glyph glyph-name="Eta" unicode="&#x397;" horiz-adv-x="839" 
d="M62 0v48l58 9q19 3 25 13t6 38v488q0 26 -6.5 34.5t-26.5 12.5l-56 9v48h276v-48l-58 -9q-18 -3 -24 -13.5t-6 -37.5v-201h340v205q0 26 -6.5 34.5t-26.5 12.5l-55 9v48h275v-48l-57 -9q-19 -3 -25 -13t-6 -38v-488q0 -25 6.5 -34t26.5 -13l55 -9v-48h-275v48l57 9
q19 3 25 13t6 38v220h-340v-224q0 -25 6.5 -34t25.5 -13l56 -9v-48h-276z" />
    <glyph glyph-name="Theta" unicode="&#x398;" horiz-adv-x="760" 
d="M378 -14q-102 0 -175.5 45.5t-113 125t-39.5 179.5q0 102 28 173.5t76 117t108.5 66.5t124.5 21q87 0 160.5 -38.5t118 -115.5t44.5 -192q0 -123 -45 -208t-120 -129.5t-167 -44.5zM390 53q97 0 154 71t57 225q0 149 -62.5 225t-164.5 76q-62 0 -111.5 -30t-78 -94.5
t-28.5 -168.5q0 -93 28.5 -161.5t81 -105.5t124.5 -37zM228 250v202l41 7q5 -32 10.5 -48.5t17.5 -21.5t35 -5h92q23 0 33.5 4t16.5 19.5t13 49.5l41 5v-202l-41 -7q-5 34 -10.5 49.5t-17.5 20.5t-35 5h-92q-22 0 -33 -4t-16.5 -19.5t-13.5 -49.5z" />
    <glyph glyph-name="Iota" unicode="&#x399;" horiz-adv-x="409" 
d="M62 0v48l62 9q19 3 25 13t6 38v488q0 26 -6.5 34.5t-26.5 12.5l-60 9v48h285v-48l-63 -9q-18 -3 -24 -13.5t-6 -37.5v-488q0 -25 6.5 -34t25.5 -13l61 -9v-48h-285z" />
    <glyph glyph-name="Kappa" unicode="&#x39a;" horiz-adv-x="754" 
d="M632 -14q-54 0 -90.5 22.5t-70.5 76.5l-157 251l-60 -61v-171q0 -25 6.5 -34t25.5 -13l61 -9v-48h-285v48l62 9q19 3 25 13t6 38v488q0 26 -6.5 34.5t-26.5 12.5l-60 9v48h285v-48l-63 -9q-18 -2 -24 -12.5t-6 -38.5v-242l243 243q17 17 13 31.5t-26 18.5l-48 8l10 49
h237v-50l-38 -8q-17 -4 -30 -12.5t-38 -33.5l-194 -195l175 -265q22 -33 39.5 -51t36.5 -25t46 -7q9 0 19 2t26 7l10 -36q-18 -19 -45.5 -29.5t-57.5 -10.5z" />
    <glyph glyph-name="Lambda" unicode="&#x39b;" horiz-adv-x="715" 
d="M15 0v48l48 8q17 3 27 14t23 51l197 579h106l199 -591q10 -28 17.5 -37t26.5 -14l41 -8v-50h-267v48l58 7q20 2 24 12t-1 26l-167 524h-4l-167 -512q-7 -22 -2.5 -34t28.5 -16l55 -8v-47h-242z" />
    <glyph glyph-name="Mu" unicode="&#x39c;" horiz-adv-x="1003" 
d="M63 0v48l57 9q21 3 25.5 16t5.5 35l30 488q0 26 -6 34.5t-26 12.5l-56 9v48h232l171 -507l4 10l179 497h231v-48l-63 -9q-18 -2 -24 -12.5t-6 -38.5l30 -488q0 -25 6.5 -34t25.5 -13l61 -9v-48h-285v48l62 9q19 3 25 13t6 38l-30 506v8l-187 -509h-100l-180 510v-8
l-30 -511q-1 -25 5 -34t27 -13l56 -9v-48h-246z" />
    </font>
</defs>
</svg>
