<svg xmlns="http://www.w3.org/2000/svg" width="26" height="23" viewBox="0 0 26 23"><g><g><path fill="#1f8ecb" d="M24.933 4.187c.695 0 1.204.63 1.036 1.28l-2.17 8.376a1.06 1.06 0 0 1-.973.779L5.76 15.59a1.987 1.987 0 0 0 1.823 1.16H19.51c1.785 0 3.238 1.402 3.238 3.125S21.294 23 19.509 23c-2.237 0-3.81-2.154-3.044-4.189H10.62C11.387 20.848 9.81 23 7.577 23c-2.693 0-4.205-3.008-2.55-5.048-.918-.702-1.451-1.734-1.538-2.686L2.26 2.06H1.067C.477 2.06 0 1.6 0 1.03 0 .46.478-.002 1.067-.002h2.17c.552 0 1.014.407 1.064.938l.302 3.25zM2.26 2.06c.003.037.362 3.894 0 0zm5.316 18.878c.607 0 1.1-.477 1.1-1.063s-.493-1.064-1.1-1.064c-.608 0-1.103.478-1.103 1.064 0 .586.495 1.063 1.103 1.063zm11.932 0c.607 0 1.101-.477 1.101-1.063s-.494-1.064-1.101-1.064-1.102.478-1.102 1.064c0 .586.495 1.063 1.102 1.063zm4.056-14.69H4.795l.678 7.293 16.444-.932z"/></g></g></svg>