<svg xmlns="http://www.w3.org/2000/svg" width="15" height="26" viewBox="0 0 15 26"><g><g><path fill="#1a29bb" d="M14.437.002l-3.599-.005c-4.043 0-6.657 2.512-6.657 6.398v2.951H.562c-.312 0-.565.237-.565.53v4.275c0 .292.253.53.565.53h3.619v10.786c0 .292.254.53.567.53h4.72c.312 0 .566-.238.566-.53V14.68h4.231c.313 0 .566-.238.566-.53l.002-4.275c0-.14-.06-.275-.166-.375a.584.584 0 0 0-.4-.155h-4.233V6.845c0-1.202.306-1.812 1.977-1.812l2.425-.002c.313 0 .565-.237.565-.53V.534c0-.293-.252-.53-.564-.53z"/></g></g></svg>