<svg xmlns="http://www.w3.org/2000/svg" width="19" height="19" viewBox="0 0 19 19"><g><g><path fill="#161618" d="M7.036 16.147a.905.905 0 0 0 1.02-.772.902.902 0 0 0-.776-1.014c-3.118-.422-5.469-3.11-5.469-6.25 0-3.48 2.844-6.31 6.34-6.31 3.495 0 6.339 2.83 6.339 6.31a6.278 6.278 0 0 1-3.914 5.827.9.9 0 1 0 .69 1.666 8.166 8.166 0 0 0 1.971-1.156l4.217 4.287a.904.904 0 0 0 1.28 0 .898.898 0 0 0 0-1.274l-4.213-4.285A8.07 8.07 0 0 0 16.3 8.11c0-4.473-3.657-8.112-8.15-8.112C3.655 0 0 3.64 0 8.111c0 4.038 3.025 7.492 7.036 8.036z"/></g></g></svg>