<svg xmlns="http://www.w3.org/2000/svg" width="177" height="67" viewBox="0 0 177 67"><defs><clipPath id="k4l6a"><path fill="#fff" d="M158.5 0C168.717 0 177 8.282 177 18.5c0 10.217-8.283 18.5-18.5 18.5S140 28.717 140 18.5C140 8.282 148.283 0 158.5 0z"/></clipPath></defs><g><g ><g><g><text dominant-baseline="text-before-edge" style="line-height:24px" fill="#1f1f1f" font-family="'Montserrat-SemiBold','Montserrat-SemiBold'" font-size="40" font-style="none" font-weight="400" transform="translate(0 38)"><tspan style="font-kerning:normal">SEVEN</tspan></text></g></g><g><path fill="none" stroke="#1f1f1f" stroke-miterlimit="20" stroke-width="4" d="M158.5 0C168.717 0 177 8.282 177 18.5c0 10.217-8.283 18.5-18.5 18.5S140 28.717 140 18.5C140 8.282 148.283 0 158.5 0z" clip-path="url(&quot;#k4l6a&quot;)"/></g><g><path fill="#1f1f1f" d="M153.001 13.004v4.58h2.447v-2.38h5.56l-5.318 11.8h2.81l5.5-12.26v-1.74z"/></g></g></g></svg>