<svg xmlns="http://www.w3.org/2000/svg" width="23" height="13" viewBox="0 0 23 13"><g><g><path fill="#0d699c" d="M22.044 10.531c-.686-.82-1.491-1.52-2.254-2.263-.688-.67-.732-1.058-.178-1.833.603-.843 1.253-1.655 1.862-2.495.568-.786 1.15-1.569 1.449-2.51.19-.597.022-.862-.593-.966-.106-.019-.215-.019-.323-.019L18.362.44c-.45-.007-.697.189-.856.586a22.509 22.509 0 0 1-.69 1.592c-.58 1.175-1.227 2.311-2.133 3.272-.2.212-.422.48-.756.37-.419-.153-.541-.84-.535-1.073l-.004-4.2c-.08-.6-.214-.869-.81-.985L8.79.003c-.505 0-.759.195-1.029.51-.156.183-.202.301.118.362.628.119.982.524 1.077 1.154.15 1.005.14 2.015.053 3.023-.025.296-.077.59-.194.864-.183.434-.479.52-.867.254-.351-.24-.599-.58-.84-.921-.908-1.281-1.633-2.663-2.223-4.115-.171-.42-.466-.674-.91-.68a93.822 93.822 0 0 0-3.282 0C.036.467-.16.786.109 1.382c1.19 2.645 2.516 5.217 4.246 7.56.89 1.202 1.91 2.263 3.227 3.015 1.493.853 3.1 1.11 4.795 1.03.792-.037 1.031-.243 1.067-1.032.026-.54.086-1.077.354-1.561.26-.477.658-.567 1.115-.271.228.15.42.337.603.536.446.488.877.99 1.34 1.461.58.59 1.269.939 2.134.868h3.35c.54-.035.82-.696.51-1.297-.217-.422-.503-.797-.806-1.16z"/></g></g></svg>