<svg xmlns="http://www.w3.org/2000/svg" width="44" height="45" viewBox="0 0 44 45"><g><g><path fill="#daa520" d="M27.596 41.85c.041 0 .082-.027.123-.045v-.015h-.185c0 .022.004.044.01.065l.052-.005zM25.2 44.997h-.093l-.078-.05c-.01-.008-.02-.015-.03-.02l-.387-.127c-.138-.045-.224-.045-.396-.045-.432 0-.88 0-1.39-.063-.853.059-1.877.018-3.071-.121l.04-.424c-1.64-.409-3.273-.848-4.864-1.274-.657-.215-1.183-.46-1.593-.736-.679-.125-1.364-.447-2.15-1.01-.003-.002.01-.002.024-.003h-.038l-.065-.031c-.035-.018-.071-.026-.102-.035-.053-.014-.118-.032-.183-.067a.483.483 0 0 1-.1-.074s.004-.002-.002-.001l-.001-.002.055-.054c-.22-.15-.44-.32-.653-.487a7.581 7.581 0 0 1-.652-.198l-.105.268a4.255 4.255 0 0 1-.262-.097c-.072-.028-.143-.056-.23-.085-.66-.27-1.36-.643-2.219-1.181-1.12-.713-1.943-1.61-2.448-2.668l-.03-.129v-.202l.196-.122.162-.066c-.3-.358-.598-.766-.906-1.234-.605-.602-1.123-1.327-1.551-1.96-.902-1.52-1.459-3.06-1.708-4.722l-.053-.347h.031c-.192-.88-.289-1.814-.289-2.783v-1.695c-.041-.393-.027-.814-.013-1.22.006-.198.013-.397.013-.595a13.642 13.642 0 0 1 .63-5.66 19.187 19.187 0 0 1 1.807-4.172l.82-1.619v.303a19.97 19.97 0 0 1 2.861-3.352c.568-.559 1.295-1.07 2.219-1.56l.33-.175.07-.049.11-.054.032-.032c.116-.137.244-.268.385-.392h-.229l.371-.12c.266-.216.57-.409.906-.574l.076-.037.09-.088c.105-.103.179-.149.34-.149v.041c.684-.372 1.37-.653 2.034-.925l.159-.023a3.36 3.36 0 0 1 1-.347c1.09-.803 2.346-1.283 3.84-1.466a7.645 7.645 0 0 1 1.008-.123c.232-.11.412-.169.586-.226.98-.297 1.679-.445 2.351-.5 2.965-.185 5.63.36 8.16 1.667 1.738.79 3.257 1.587 4.63 2.432.86.604 1.735 1.22 2.483 1.832.29.206.548.431.798.65.128.113.253.223.38.326.64.628 1.213 1.293 1.772 2.051.325.383.518.708.703 1.071.088.128.182.281.209.494.96 1.284 1.611 2.655 1.966 4.11.286.957.485 1.974.621 3.183.451 1.7.539 3.435.253 5.114.057.325.054.706-.01 1.08.005.96-.122 1.943-.374 2.873-.186.92-.498 1.836-.807 2.687l-.047-.013c-.057.237-.12.471-.192.704l.054-.052-.072.11a11.63 11.63 0 0 1-.741 1.826c-.311.552-.626 1.111-1.002 1.666-.186.243-.369.544-.546.835l-.352.461c-.292.383-.592.78-.955 1.141-.704 1.2-1.687 2.254-2.924 3.136l-.191.225.093-.038-.206.172-.692.817.213-.417-.83.69a14.356 14.356 0 0 1-2.472 1.677v.15h-.292c-.694.363-1.463.699-2.29.999v.15h-.307c-.11 0-.176.002-.232.029a9.91 9.91 0 0 1-.566.173v.343h-.308c0 .006-.107.058-.17.089l-.159.078-.148-.097c-.112-.073-.224-.12-.318-.16-.025-.01-.05-.02-.073-.031h-.01c-.42.122-.851.22-1.273.29v.376h-.224a.373.373 0 0 1-.207.06zM6.166 37.13l.073-.088-.129-.074c-.12-.07-.24-.138-.36-.203l-.173.174a7.12 7.12 0 0 1-.455-.408c.168.206.341.406.521.6zm1.23 1.425l-.315-.127c.084.063.168.126.254.187zm13.078 3.842c.292.133.572.257.847.361h.046c-.23-.154-.473-.321-.713-.497a15.746 15.746 0 0 1-.369-.048zm7-.607c0 .024.003.048.011.072l.05-.005v-.067zm-6.608-.234c2.223.232 4.476.23 6.697-.006a.395.395 0 0 1 .156-.058v-.065h.062c.038 0 .076.006.112.017a22.71 22.71 0 0 0 3.05-1.488c.345-.226.713-.468 1.085-.656.263-.243.53-.486.803-.726-.313.223-.63.432-.955.63-.136.083-.268.167-.398.25-.345.22-.671.428-1.04.61-.673.423-1.45.637-2.35.637h-1.841l1.742-.59c4.017-1.357 7.081-3.79 9.366-7.436a28.775 28.775 0 0 0 2.25-4.254l.576.214a20.33 20.33 0 0 1-2.378 4.78c1.45-1.74 2.467-3.72 3.08-5.984.466-1.6.737-3.21.82-4.876l-.153-.008c0-1.068-.079-2-.24-2.849a8.408 8.408 0 0 0-.23-1.146c-.183-.311-.268-.6-.268-.907v-.097a18.68 18.68 0 0 0-.53-1.545 13.303 13.303 0 0 0-1.433-3.07 8.214 8.214 0 0 1-.39-.415.534.534 0 0 1-.229.045h-.186l-.086-.163c-.754-1.426-1.794-2.662-3.18-3.779-.988-.7-2.02-1.435-3.034-2.014l-.026.026h-.125l.384.38-1.426-.586c-.738-.302-1.498-.79-2.2-1.41-.939-.38-1.806-.68-2.688-.927l-.72.001-.39-.19a4.272 4.272 0 0 0-1.155.006l-.658.003v-.303c0-.101.037-.184.094-.246a17.387 17.387 0 0 0-.262-.024c.055.929.101 1.882.044 2.83l.001.32-.21.07a1.318 1.318 0 0 1-.412.06c-.14 0-.288-.018-.436-.054l-.232-.058V6.27c0-.16-.008-.31-.014-.461a5.38 5.38 0 0 1 .016-.969.445.445 0 0 1 .137-.326.618.618 0 0 0 .01-.12l-.033-.065.006-.303.357-.35c.005-.126.01-.255.01-.386-1.886-.08-3.823.142-5.79.662a4.18 4.18 0 0 0-.662.382l-.082.06h-.08l-.533.314c-.41.24-.807.472-1.207.715h.062L12.568 6l-.524.51v-.204c-.421.266-.8.529-1.164.807-1.403 1.185-2.657 2.45-3.592 3.419a13.353 13.353 0 0 0-1.738 2.362 25.64 25.64 0 0 0-1.685 3.667c-.06.742-.045 1.371.046 1.918a.323.323 0 0 1 .066.195c0 .141-.086.225-.137.276a.513.513 0 0 1-.34.148h-.252l-.049-.244-.016-.08a7.299 7.299 0 0 0-.117.555 19.372 19.372 0 0 0-.21 2.758l.392-.178c.863-.392 1.88-.631 2.939-.693h.002c.213 0 .377.081.523.153l.17.084v.186a.381.381 0 0 1-.07.233.351.351 0 0 1 .007.07v.303h-.122l.273.179-.52.22a3.086 3.086 0 0 1-1.5.212 1.71 1.71 0 0 1-.54.094 1.22 1.22 0 0 1-.881-.37l-.028-.028-.124.061-.52-.516a22.544 22.544 0 0 0 .453 4.507l.553 2.79-1.095-2.514c.052.242.109.488.17.74.037.082.078.197.116.305.053.147.1.282.168.417.523 1.588 1.274 3.088 2.317 4.627l.051.076v.092a.485.485 0 0 1-.061.222v.19c.06.086.121.17.184.253l.185.181v-.244l.247.484c.337.326.681.653 1.032.98.054-.01.103-.01.134-.01h.12l.087.08a45.173 45.173 0 0 0 4.305 3.405 130.86 130.86 0 0 1 6.005 2.507h.056c.038 0 .076 0 .113.003l.013-.057c.468.099.94.18 1.41.253v-.022l.027.026.236.035-.065-.047.382.094.24.034c.097-.077.223-.077.287-.077.126 0 .217.056.29.1.015.009.03.019.049.029zm14.401-4.984l-.031-.05c-.12.121-.241.24-.362.355l.393-.305zm-24.513 3.06c.126.018.253.034.38.048a41.2 41.2 0 0 1-.344-.28 1.02 1.02 0 0 1-.031-.01l-.005.018zm-6.464-5.51c.218.233.448.467.694.711-.089-.123-.17-.24-.24-.342a38.446 38.446 0 0 0-.454-.369zm33.717.263c.297-.285.576-.58.838-.889a.443.443 0 0 1-.097-.05 20.13 20.13 0 0 1-.741.94zm4.292-15.883l.04.16a3.24 3.24 0 0 1 .072.423.412.412 0 0 1 .117-.133c-.041-.15-.085-.301-.13-.454zm-.998-2.907c.128.355.243.697.345 1.028-.028-.137-.057-.28-.09-.427-.047-.185-.146-.387-.255-.601zm-.129-.49h.128a11.14 11.14 0 0 0-.829-2.416c-.46-.74-.975-1.41-1.551-2.014 1.053 1.366 1.808 2.85 2.252 4.43zM3.187 12.942c-.013.136-.023.27-.031.406l.301-.89.021.306c.052-.245.109-.494.172-.75-.154.28-.308.588-.463.928zm33.437-3.775c.12.116.24.234.357.353-.11-.118-.223-.235-.339-.35l-.018-.003zm-.5-1.409c.194.16.382.327.565.498-.211-.22-.43-.428-.655-.623.03.04.061.082.09.125zm2.473.81h.056a4.506 4.506 0 0 0-.087-.09 17.553 17.553 0 0 0-1.598-1.544c.555.533 1.1 1.078 1.63 1.634zM34.27 5.515c.186.172.378.357.565.55a1.324 1.324 0 0 1-.125-.228c-.1-.088-.247-.185-.39-.278a2.373 2.373 0 0 0-.05-.044zm-2.693-.895c.22.097.438.202.659.315a9.442 9.442 0 0 0-.913-.539l.254.224zm-2.18-.688c.2.041.396.089.59.144l-.005-.007c-.12-.129-.237-.256-.349-.383l-.473-.155a40.227 40.227 0 0 0-.393-.105c.218.164.426.331.63.506zm-15.565-.135l-.053.063c.053-.018.108-.033.164-.048.098-.066.201-.126.307-.182-.14.054-.28.11-.418.167zm9.376.04l-.048.008a.135.135 0 0 0 .048-.008zm1.594-.645c.348.037.697.091 1.052.162a9.577 9.577 0 0 0-1.128-.234l-.096-.016c.057.028.114.057.172.088zM11.14 27.356l.865-.568a2.384 2.384 0 0 0-.22-.172l-1.216.234v-.504l-2.187.614 2.573-1.341-.15-.299.373.185a24.1 24.1 0 0 1 3.35-1.369c1.215-.352 2.175-.711 3.033-1.133.305-.15.645-.318.944-.444l.008-.091.154-.131c.261-.128.557-.274.937-.274.001-.006.11-.06.17-.089l.015-.008v-.63c0-.12.062-.243.174-.31.06-.073.125-.14.192-.206.063-.062.127-.122.177-.196l.013-.02.005-.153.3-.022c.307 0 .568.029.817.093.094-.423.182-.846.23-1.22.12-1.012.304-1.994.56-3 .088-.526.196-1.076.305-1.626.107-.54.213-1.08.305-1.619a86.7 86.7 0 0 1 1.975-7.901l.598.134c-.058.338-.058.621-.058.98l-.009.193c-.058.23-.117.46-.175.641-.003 1.426-.164 2.612-.505 3.73-.356 1.405-.729 2.872-.974 4.378-.302 2.021-.729 4.075-1.145 6.064.05.032.093.079.13.139l.157.154-.093.205c-.005.01-.01.011-.016.005l.005.007c.214.352.248.73.102 1.126-.013.15-.075.237-.145.288-.065.105-.13.17-.185.224a.517.517 0 0 1-.343.152h-.866l-.09-.09c-.073-.071-.146-.143-.21-.22l-.35.087a5.404 5.404 0 0 1-.56.312c-.202.1-.41.202-.657.275l.007.013c-.51.314-1.082.564-1.636.807-1.32.65-2.677 1.317-4.015 1.917-.047.037-.093.06-.122.074l-.117.114-.174-.028a.567.567 0 0 0-.384.066c-.04.154-.166.243-.354.243a.78.78 0 0 1-.384-.093l-.077-.044zm28.504-4.25c-.351 0-.702-.048-1.066-.146l-.226-.06v-.05h-.555l.362-.358c-.08-.018-.16-.04-.24-.07-.118-.01-.185-.056-.275-.144l-.09-.089v-.247a.37.37 0 0 1 .146-.293.426.426 0 0 1 .037-.036v-.052l.26-.1c.956-.145 1.786-.031 2.47.336l.16.086v.228c.02.015.045.029.075.044l.17.084v.104c.032.047.062.115.062.204v.353l-.226.06a4.077 4.077 0 0 1-1.064.146zM21.51 41.064h-.22l-.071-.207a1.254 1.254 0 0 1-.048-.184l-.138.135-.133-.537c-.116-.628-.136-1.25-.065-2.018l-.001-.094c0-.313.16-.425.256-.464a.405.405 0 0 1 .111-.028l.001-.053v-.302h.247l.455-.403.036.645v.057l.062.06v.156c.097.151.154.262.21.373l.034.11c.063.62.063 1.243.063 1.846v.192l-.033.064a1.476 1.476 0 0 1-.394.484c-.055.086-.163.168-.372.168z"/></g></g></svg>