<svg xmlns="http://www.w3.org/2000/svg" width="26" height="47" viewBox="0 0 26 47"><g><g><path fill="#daa520" d="M25.602 25.07c-.014.36-.028.725-.048 1.096v2.451c0 .82 0 1.595-.063 2.429 0 .873 0 1.801.063 2.74 0 1.784.057 3.579.112 5.314.028.891.056 1.782.077 2.673l.003.135-.13.131c-.004.23-.02.46-.046.69h.24l-.277.28a7.81 7.81 0 0 1-.309 1.277 3.13 3.13 0 0 0-.048.318c-.013.1-.025.198-.044.298l.214.005-.739.549-.154.11-.07.176 1.417.286-1.568.304a6.09 6.09 0 0 1-.09.018l-.094.236v-.219a18.988 18.988 0 0 1-4.859.223l-.107.012c-.414.032-.815.064-1.212.085l.096.096-.671.06a41.654 41.654 0 0 1-3.64.155c-1.663 0-3.363-.094-5.086-.283-.62-.062-1.243-.124-1.786-.124v-.124l-.045-.006c-.477-.06-.955-.06-1.462-.06-.068 0-.216 0-.38-.064a2.403 2.403 0 0 1-.625-.083v.084l-.114-.002a6.586 6.586 0 0 1-.827-.09v.238l-.501-.335a3.579 3.579 0 0 1-.538-.41c-.38-.284-.684-.6-.905-.944l-.87-.293h.705a.703.703 0 0 0-.035-.06l-.555.018c-.189-2.972-.252-6.09-.19-9.267v-9.97L.335 25.2h.108V11.53A26.753 26.753 0 0 1 .379 9.44H.373l-.05-.254C.136 8.255.082 7.385.157 6.593H.002v-.316c0-.752 0-1.402.185-2.177C.13 3.403.28 2.725.616 2.185c.179-.464.466-.892.878-1.298l-.369-.37h.782c.222-.168.468-.347.717-.472L2.69.01h1.335l.126.127H8.73c2.907-.144 5.387-.185 7.792-.127h.37c1.767 0 3.508.059 5.352.121l.183.006c.436 0 .761.203.994.38l.153.116c.235.09.438.197.622.33a.777.777 0 0 1 .153-.097L24.4.841 24.35.4l.133.398.317-.159v.512c0 .16 0 .3.036.432l.014.021c.134.197.315.467.384.814.129.382.194.856.194 1.454a.41.41 0 0 1-.066.239l.003.065c.014.26.028.521.052.772h.01V5.2c0 .192.005.382.01.569h.305v4.81c0 .43 0 .8.06 1.222.003.323.018.602.034.88.015.29.031.582.031.873l.126 3.786c0 1.26 0 2.55-.063 3.886v1.25h-.188v.38c-.086.753-.112 1.461-.14 2.212zm-9.254 17.172l.012.012c.191.164.39.34.594.52v-.522c-.204 0-.406-.005-.606-.01zm-13.096 1.53l.004.008.13.09.011-.01a8 8 0 0 1-.145-.087zm19.768-6.308c.098.028.194.056.288.085.005-.071.01-.143.017-.212a2.77 2.77 0 0 1-.305.127zM21.455 43.3a.542.542 0 0 1 .11-.16l.536-.547v.449l.153-.077a1.246 1.246 0 0 0-.047-.553c-.822-.009-1.647-.068-2.449-.125h-.419v-.06c-.23.002-.431.014-.63.054a.312.312 0 0 0-.106.06c.009.02.018.045.027.074h.106c.59-.074 1.121.014 1.579.26.177.035.28.169.28.371v.235c.274.018.563.019.86.019zm-13.743.947l-.05-.014c-.128.007-.255.01-.377.013l.432.06zm-2.687-1.58v.416c.253.01.508.02.764.028.474.016.956.032 1.453.063l.294.019v.107c.17-.002.334-.009.49-.04a.576.576 0 0 1 .093-.05l.077-.1c.03-.04.06-.081.093-.122v-.12l-.35-.027c-1.38-.465-2.633-.602-3.94-.43l-.23.03v.172c.114.006.226.015.338.023.196.015.393.03.604.03zm18.772-12.199a2.53 2.53 0 0 0-.188.064v.11l-.074.015-.005.068-.23.1c-.4.091-.801.144-1.206.178.058.049.145.09.226.127l.191.11c.022.023.041.045.062.06 0 0-.035-.025-.095-.025v.304c.39.087.78.232 1.17.417-.027-.053-.051-.112-.075-.156l-.09-.174v-.391l.314-.063zm-1.08 10.658l.147.44c.06.048.12.093.181.135.003-.22.007-.447.016-.677-.104.046-.223.081-.343.102zm-.42.27l-.004.003.003.003v-.005zm-12.57.512h.387c.041-.035.083-.066.124-.097l.058-.044c-.172-.018-.347-.034-.528-.05l-.025-.003-.29.29a.498.498 0 0 1-.288.15.055.055 0 0 0 .008.006h.184l.03.152c.115.097.231.187.346.276v-.116l.093-.093a.836.836 0 0 1 .096-.08v-.08l.034-.08zm-.326.473l.017.09.001.001a.254.254 0 0 0-.018-.09zm-.387 1.036a1.653 1.653 0 0 1-.155.194c.151.002.299.017.44.045a17.27 17.27 0 0 0-.177-.372.343.343 0 0 1-.108.133zm-5.621-8.433a2.841 2.841 0 0 1-.09-.026l-.002.051zm.366-2.06c.875.148 1.76.259 2.635.33l-.035-.043a51.842 51.842 0 0 0-2.64-.369l-.04.048-.018.018zM2.64 27.706l.001-.002-.03-.017-.001.026zm12.976 11.94l-.011.017a.056.056 0 0 0 .01-.015v-.003zM4.938 40.2l-.002.036a453.97 453.97 0 0 1 2.053-.162c.212-.003.288-.004.345-.033l.066-.033h.074l.126.001a2.977 2.977 0 0 1-.097-.093.904.904 0 0 1-.223-.316 2.132 2.132 0 0 0-.857-.313l.542.603-1.312-.414v.404l-.37-.004a3.08 3.08 0 0 0-1.576.1v.064zm3.16-13.067a.378.378 0 0 1 .035-.043 16.455 16.455 0 0 1-.23-.008l.194.05zm9.613.914h-.13a.566.566 0 0 0-.183.027l-.04.01-.056.058v.317l-.185.016a.77.77 0 0 1-.161.185c.002.083.01.159.027.195.105.134.261.3.43.471.066-.014.13-.014.168-.014l.086.013c.98.282 1.817.44 2.635.494h.042c.946.063 1.814.064 2.677 0 .009.001.058.003.085.008v-.072c0-.094.03-.165.063-.214v-.108l.174-.087.116-.06a2.377 2.377 0 0 0-.451-1.064 3.377 3.377 0 0 1-.418-.112c-.07-.021-.14-.043-.206-.06-1.685.13-3.226.11-4.62-.057zM11.113 41.21h0zm-5.429-5l-1.021.101 2.434.13v-.048h-.04l-.01-.126-.004-.003a1.37 1.37 0 0 1-.401-.15l-.193-.098a14.454 14.454 0 0 0-.766-.105zm11.019-.762v.388l-.093.093a2.886 2.886 0 0 1-.019.04c.07.056.139.112.222.167l.053.036.094.046a.397.397 0 0 1-.006-.07v-.077a.444.444 0 0 1-.127-.304v-.189a.93.93 0 0 1 .001-.331c-.148-.021-.303-.042-.459-.06l.087.04.155.128zm2.387-4.744h-.13c.008.008.018.012.026.02.034.006.063.023.096.032zm2.74 2.138a.661.661 0 0 1-.148-.049h-.087l-.067-.067a19.02 19.02 0 0 0-.933-.04v.21l-.29.022c-.163.013-.329.035-.494.053.562.01 1.118.012 1.663.012h.314v.317c0 .02-.002.041-.006.062.057-.015.114-.033.172-.053a1.076 1.076 0 0 1-.07-.12l-.034-.067v-.143a.558.558 0 0 1-.02-.137zM6.721 31.342a8.732 8.732 0 0 1-.234.01l.322.325c.143.03.28.067.415.115a7.648 7.648 0 0 1-.503-.45zm2.506-.469c.203.108.41.217.614.336-.145-.134-.282-.26-.414-.376H9.42c-.089 0-.18 0-.274-.003l.083.043zm-.625 2.233v.192c.362.22.765.368 1.182.509.266 0 .538.005.815.013a4.194 4.194 0 0 1-.246-.183c-.105.044-.21.044-.306.044h-.315v-.376c-.01-.011-.021-.022-.033-.032l-.06-.062c-.457-.187-.887-.4-1.289-.635l.001.028v.125a.94.94 0 0 1 .035.032l.091.092v.064a.425.425 0 0 1 .106.17zm2.386-.186v.078c.063.005.128.013.192.02.13.014.259.03.373.03 1.085.167 2.217.25 3.505.253l.31-.158-.146-.049c-.14-.046-.293-.046-.404-.046a.371.371 0 0 1-.371-.317c-1.273.002-2.411.01-3.476.058.012.04.017.083.017.131zm4.646.443v-.062a.251.251 0 0 0-.238.183l.238-.12zm0-.389l-.027.002a.402.402 0 0 1-.056.033l-.084.085.167-.085v-.035zm.956.336l.118-.079-.028-.03-.071.071-.028.029zm.241-.325l-.13-.099v.283zm-5.088-2.678a3.004 3.004 0 0 1-.378-.458v.037l-.049.05c.142.126.284.25.427.37zm-1.475 5.053l-.055.055.082.056.065-.049v-.418l.057-.058-.182.006v.433c.006-.006.022-.015.033-.025zm5.155.827a2.86 2.86 0 0 0-.898-.562l-.143.143h-.13c-.148 0-.317 0-.471-.154l-.093-.097a5.357 5.357 0 0 0-.503-.002v.295l-.352-.045a2.743 2.743 0 0 0-.868.033l.286.287h-.823c-.043 0-.112 0-.189-.014v.282c.238.022.465.066.691.12v-.09l.331.019c1.132.062 2.168-.007 3.162-.215zm2.42-2.1c-.137-.036-.268-.062-.407-.101l-.06-.024c-.087-.043-.184-.093-.235-.093h-.315v-.447l-.187-.063.13.131h-.295a.862.862 0 0 1-.098.187.362.362 0 0 1-.208.284l-.01.008c.557.048 1.12.086 1.685.118zm-7.797 1.724l.005-.031.016-.1.071-.072.063-.06-.097-.025-.018.02-.054-.037-.464-.117c-.03 0-.063 0-.086.003l-.031.031c.125.085.252.167.378.247l.217.14zm-.099.701a3.744 3.744 0 0 1-1.377-.84l-.014.003c.268.384.568.687.92.933.276.05.547.131.812.217a1.298 1.298 0 0 1-.14-.246zm10.082-5.231v-.349a11.735 11.735 0 0 1-.927-.167.95.95 0 0 1 .395.223l.414.419-.447.09v.012c.129-.011.255-.02.395-.04.164-.024.325-.03.486-.037-.047-.022-.098-.041-.142-.064zm-6.55-3.52a.909.909 0 0 0-.68.01c-.011.007-.023.013-.036.019a.331.331 0 0 1 .005.011l.488.247h-.447v.7l-.235-.236c-.004.232.011.463.044.694v.146l.03.042.092.103c.544.13 1.01-.072 1.387-.599v-.456c-.145-.269-.333-.466-.648-.682zm9.26 5.215c.063-.007.125-.02.187-.036-.063.001-.13.005-.21.02a.476.476 0 0 0 .024.016zm-6.971-3.155c-.165.22-.363.404-.576.574.127.068.25.138.368.21a.466.466 0 0 1 .045-.168l.107-.215.234.047c.094.019.184.045.275.069a4.326 4.326 0 0 1-.453-.517zm-.94-1.954a.817.817 0 0 1-.244-.199h-.014c.094.102.18.212.258.33l.053.109.062.064v.13c0 .764-.231 1.333-.691 1.704.393-.183.715-.512.956-.985.083-.47-.042-.848-.38-1.153zM3.454 29.82h.753l-.283.288c.333-.014.667-.025 1.004-.035.362-.012.728-.023 1.1-.04v-.086h.817c.127 0 .303 0 .361-.03l.067-.033h.074c.218 0 .452.015.694.031.38.024.767.044 1.176.004.093-.009.188-.018.288-.024a2.316 2.316 0 0 0-.246-.294l-.221-.224.505-.51.035.035a2.103 2.103 0 0 0-.085-.284H8.04v-.281l-.126.028H6.388l.316-.158a32.678 32.678 0 0 0-2.307.008v.154l-.09.092c-.108.108-.183.157-.35.157h-.313v-.19h-.121l-.532.536c-.052.266-.1.536-.1.793v.12a.6.6 0 0 0 .226.133c.057-.12.174-.19.338-.19zm18.802 6.444a2.15 2.15 0 0 0 .535-.176v-.03a2.253 2.253 0 0 0-.523-.516l-.037.038h-.57v-.161c-.151-.017-.3-.03-.45-.041l.658.667-1.4-.712-.485-.021c-.322-.014-.648-.028-.98-.05a2.059 2.059 0 0 0-.933.234c.032.054.06.106.084.154.094.007.185.017.276.027.13.014.26.029.405.029h.314v.52l.18.073a.491.491 0 0 0 .037.01l-.096-.096h.318v-.146l.267-.04c.869-.136 1.655-.058 2.4.237zm1.038-2.404c-.402.158-.825.25-1.265.287l.411.208c.287.073.573.162.854.281zm-1.821-2.81v-.018l-.05.002.05.016zm-5.957 9.08c.124-.054.282-.108.442-.162a.788.788 0 0 1-.197-.21l-.03.032c-.11.11-.337.34-.587.185-.093-.057-.185-.168-.153-.38-.402-.138-.803-.24-1.224-.347-.791.001-1.633.002-2.46.03a.173.173 0 0 1-.005.018v.288c1.42.247 2.8.426 4.214.547zm1.301-1.146a.733.733 0 0 1 .064.072l.007-.036a.33.33 0 0 1 .253-.202v-.034l-.014-.004-.219-.006.099-.05a.579.579 0 0 1-.088-.07l-.536-.542-.058-.001v.423c.186.129.351.28.492.45zm.138.397c0 .005 0 .01.002.013.159.229.342.44.519.646l.104.122v-.085c-.214-.227-.42-.454-.615-.684zm2.823 2.78a.246.246 0 0 0 .122-.054l-.122-.097zm2.25-1.134l.169-.338c.01-.02.02-.038.032-.056-.29.056-.585.104-.886.142l.267.054-.32.32h.48a.41.41 0 0 1 .258-.122zm.338.122l.175.147v-.15a.776.776 0 0 1-.064.003zm.474-1.666a1.656 1.656 0 0 0-.538-.595.558.558 0 0 1-.202.046c-.2 0-.427 0-.663-.08l-.184-.06c-.413.022-.837.045-1.28.074l-.162.163a2.26 2.26 0 0 1-.565.41c1.057 0 2.146.004 3.247.063.12 0 .237 0 .347-.021zm.751-4.986c.022-.27.037-.536.05-.803-.08.04-.16.082-.243.117zm.393-8.727l-.023-.202c-.045.085-.09.167-.134.244.042.127.084.254.127.377l.023-.009c.007-.124.007-.259.007-.41zm-7.59 1.824c-.324-.13-.659-.277-1.01-.44v.045c.23.185.4.423.513.717.039.028.077.057.114.086v-.27h.247zm-9.077 15.74l.092.093V43.3a.233.233 0 0 0-.092.033zm7.279-.267a1.025 1.025 0 0 1-.377-.239l-.487-.49a7.174 7.174 0 0 0-.925-.041l-.308.308h-.13c-.152 0-.289.016-.417.032-.083.01-.164.019-.243.024a.345.345 0 0 1-.048.03l-.103.103h-.13a.7.7 0 0 0-.195.012l-.025.025a.627.627 0 0 1-.032.07v.088l-.092.094a.62.62 0 0 1-.033.048v.059c.419.038.876.075 1.333.112l.765.063a7.087 7.087 0 0 0 1.017-.107l.044-.044.069-.023c.112-.038.218-.08.317-.124zm3.07-2.804h.093l-.056-.058-.046.046a.115.115 0 0 0 .01.012zm.524.592c.092.106.183.201.274.294h.218c-.14-.126-.275-.252-.408-.379zM3.323 34.25h.247l-.115-.06v.001l-.001-.002a2.215 2.215 0 0 1-.129-.076l-.002.137zm12.191 9.818l-.078-.04-.066.043.144-.003zM3.707 24.693h-.169l.004.045zm-.229.064h-.155l.001.015c.024.039.039.077.05.111h.021l.03-.111zm18.12-21.638c-1.085.1-2.15.14-3.2.135l-.02.237c-2.036-.124-4.143-.252-6.233-.508a73.003 73.003 0 0 1-5.072-.188h-.04c-.298.032-.612.084-.916.134-.273.045-.54.088-.806.118-.373.037-.742.097-1.084.152-.197.032-.387.063-.562.087l-.05.05c-.052.052-.09.104-.129.156l-.014.02-.018.198a111.754 111.754 0 0 0-.365 6.174h.183l-.163.457c-.029.058-.03.125-.03.24v.953l.499.102c-.19 1.4-.316 2.741-.438 4.037l.166 5.92h.15v.316c0 .834 0 1.696.061 2.507l.007.089.186.187.072-.019.156.132c.062.033.112.066.16.098l.08.053c1.532.184 3.151.31 4.718.431 3.358.146 6.262.104 8.91-.123.792-.084 1.565-.113 2.314-.14.354-.014.705-.027 1.057-.045.117-.086.231-.173.345-.259.243-.183.493-.372.782-.562.272-3.322.432-6.287.488-9.064.06-2.257.124-4.588.251-6.91 0-.11 0-.252.058-.38a67.67 67.67 0 0 0-.214-3.02h-.241l-.039-.271a2.104 2.104 0 0 0-.294-.805h-.337v-.316c0-.03.002-.055.004-.08a1.705 1.705 0 0 0-.382-.293zM2.828 41.971c0-.134.044-.237.125-.302v-.14l-.125-.001zm.257.438h.057v-.056zm-.572 3.167v-.061c-.013-.01-.022-.02-.034-.03l-.063.063a.338.338 0 0 0 .097.028zm22.773-2.367l-.111.005c-.007.039-.016.077-.024.116a.27.27 0 0 0 .135-.121zM5.06 13.6a29.713 29.713 0 0 1 4.314-6.27l.094-.105h.14c-.055 0-.083.016-.096.03l.463.426C8.598 9.348 7.29 11.265 5.86 13.715l-.02.034v.063l-.091.093c-.155.156-.328.156-.411.156h-.515zm3.419 1.345c-1.02 1.371-2.08 2.873-2.922 4.573l-.06.082c-.185.187-.387.282-.598.282h-.524l.248-.466c.145-.273.305-.54.457-.81l.072-.658c.067-.602.32-1.265.795-2.086a87.154 87.154 0 0 1 4.715-7.419l.313-.501.58-.92v1.255l-.06.083c-.105.145-.208.29-.312.436a169.545 169.545 0 0 0-2.803 4.695 49.11 49.11 0 0 1 1.173-1.529c1.296-1.617 2.636-3.291 3.963-4.819l.488.398c-.906 1.226-1.827 2.454-2.747 3.68-.931 1.242-1.863 2.483-2.778 3.724zm1.203 4.605c-.384.517-.77 1.036-1.154 1.488l-.505-.374a230.48 230.48 0 0 1 5.03-7.732c.35-.527.75-1.087 1.308-1.578l1.857-1.639-1.39 2.056a548.345 548.345 0 0 0-5.146 7.78zm7.048-2.75c-.985 1.928-2.275 3.797-4.06 5.883l-.109.11a.534.534 0 0 1-.03.034l-.092.094h-1.005l.447-.523a43.642 43.642 0 0 0 4.21-5.796.378.378 0 0 1 .36-.264h.514zm1.866 3.512a.527.527 0 0 1 .366-.176h.6l-.342.496c-.646.942-1.343 1.8-2.015 2.483v.248h-.314c-.041 0-.052 0-.111.03l-1.16.583.766-1.053c.698-.96 1.467-1.8 2.21-2.611zm-.165-2.298l.165.166-.11.207c-.977 1.837-2.127 3.417-3.515 4.828a.38.38 0 0 1-.34.211h-.671l.435-.526c1.115-1.35 2.234-2.93 3.423-4.832l.044-.056a.399.399 0 0 1 .57.001zm-2.148-4.555c-1.707 2.96-3.333 5.574-4.97 7.99a24.989 24.989 0 0 1-1.84 2.496l-.507-.372a556.637 556.637 0 0 1 2.565-4.023 646.344 646.344 0 0 0 2.52-3.951 42.226 42.226 0 0 1 1.71-2.489zM5.025 8.238h-.483l.196-.445c.46-1.041 1.04-1.984 1.881-3.05a.399.399 0 0 1 .22-.236.376.376 0 0 1 .418.091l.174.179-2.059 3.305c-.106.108-.182.156-.347.156zm.188 2.532h-.587l1.046-1.58a.403.403 0 0 1 .226-.254.374.374 0 0 1 .417.093l.13.13-.05.179c-.124.436-.41.851-.85 1.237a.38.38 0 0 1-.332.195z"/></g></g></svg>