<svg xmlns="http://www.w3.org/2000/svg" width="30" height="45" viewBox="0 0 30 45"><g><g><path fill="#daa520" d="M12.02 44.996c-1.444 0-2.931-.211-4.379-.748a.463.463 0 0 1-.272-.586.427.427 0 0 1 .544-.277c1.386.449 2.79.534 4.369.248-.47-.1-.907-.296-1.29-.64-.861.009-1.536.038-2.173.093a.408.408 0 0 1-.441-.318.464.464 0 0 1 .27-.536 6.04 6.04 0 0 1 1.774-.403.468.468 0 0 1 .5-.22l.186.038a.485.485 0 0 1 .091-.492 9.16 9.16 0 0 1-.262-.206c-1.122-.916-2.222-2.022-3.268-3.29a.415.415 0 0 1-.075-.092 33.3 33.3 0 0 1-1.572-2.087 40.742 40.742 0 0 1-.702-1.05.426.426 0 0 1-.08-.123c-1.825-2.832-3.189-5.744-4.053-8.657a.457.457 0 0 1-.1-.339 29.081 29.081 0 0 1-.845-4.05 27.273 27.273 0 0 1-.244-3.739A.46.46 0 0 1 0 17.37c.027-2.609.448-5.017 1.252-7.162l-.097-.132.22-.19A15.333 15.333 0 0 1 3.69 5.888C6.573 2.333 11.44-1.002 16.466.284c1.73.03 3.515.698 4.879 1.279a12.076 12.076 0 0 1 4.889 3.803c2.724 3.543 4.168 8.93 3.677 13.723-.497 4.852-2.538 9.748-5.75 13.79-1.468 1.848-3.132 3.944-4.99 5.674-.508.472-1.062.927-1.597 1.366-.554.455-1.124.922-1.65 1.415a.45.45 0 0 1 .225.222c.549.052.993.112 1.415.193a.444.444 0 0 1 .349.343l.952.106-.953.124a.478.478 0 0 1-.092.187c.39.055.724.16 1.02.321a.441.441 0 0 1 .233.421.485.485 0 0 1-.308.417c-1.832.685-4.224 1.328-6.745 1.328zm4.034-1.604c-.329.135-.647.26-.956.373.58-.113 1.17-.257 1.768-.432-.284.004-.561.03-.812.059zm-3.31-2.767l.02.014.252.157A31.956 31.956 0 0 0 15.342 40c.125-.108.25-.214.378-.32 1.414-2.53 3.085-4.997 4.7-7.384.654-.966 1.33-1.964 1.975-2.946 2.093-3.189 4.02-5.947 5.887-8.43a18.382 18.382 0 0 0 .241-1.823c-1.178 2.483-2.92 4.667-4.612 6.79-.78.98-1.587 1.992-2.317 3.009-1.335 1.859-2.844 3.765-4.751 5.998-1.555 1.82-3.038 3.631-4.099 5.731zm-1.092-.809c.113.093.226.185.34.273.834-1.637 1.908-3.147 3.06-4.59-1.297 1.321-2.61 2.692-3.4 4.317zm-.952-.854c.156.15.305.288.449.417.83-1.797 2.23-3.253 3.475-4.547 2.165-2.25 3.804-4.243 5.158-6.272.524-.785 1.042-1.574 1.559-2.362.622-.95 1.258-1.918 1.906-2.882-.242.228-.497.445-.766.65-2.593 3.027-5.057 6.257-7.44 9.381-1.41 1.85-2.868 3.761-4.34 5.615zm-1.908-2.044c.396.477.805.933 1.221 1.362a412.85 412.85 0 0 0 3.817-4.884c2.09-2.701 4.242-5.483 6.49-8.147-.483.218-.986.403-1.504.554-1.515 1.136-2.74 2.666-3.926 4.147-.384.48-.781.975-1.182 1.45a79.486 79.486 0 0 1-2.306 2.575c-.873.948-1.775 1.926-2.61 2.943zM27.874 22.72a363.827 363.827 0 0 0-5.257 7.914c-.67 1.034-1.335 2.114-1.977 3.158a138.372 138.372 0 0 1-2.303 3.662c1.408-1.354 2.699-2.892 3.95-4.384.315-.522.65-1.045.973-1.55.487-.76.99-1.547 1.43-2.336l.446-.807c.691-1.248 1.405-2.539 2.147-3.789.225-.62.422-1.244.59-1.868zM7.696 35.51c.192.26.39.523.595.784.874-1.07 1.811-2.09 2.72-3.078.785-.853 1.596-1.735 2.356-2.638.275-.327.549-.66.824-.995.974-1.185 1.973-2.402 3.125-3.444-.46.074-.925.123-1.394.147-1.088 1.3-2.278 2.533-3.43 3.726-1.664 1.724-3.383 3.506-4.796 5.497zm-1.167-1.694c.203.31.407.612.61.904 1.688-2.304 3.727-4.332 5.701-6.297.697-.692 1.412-1.403 2.107-2.122a17.97 17.97 0 0 1-1.267-.083c-2.145 2.568-4.53 4.965-6.838 7.283zm-1.085-1.747c.209.358.419.705.626 1.035a665.52 665.52 0 0 1 1.509-1.51c1.771-1.771 3.598-3.597 5.318-5.476-.485-.074-.95-.17-1.388-.286-.775.923-1.71 1.729-2.615 2.508-1.29 1.11-2.62 2.257-3.45 3.729zm-.722-1.308c.063.119.125.237.19.356.93-1.435 2.259-2.53 3.548-3.593.752-.62 1.525-1.258 2.205-1.953a9.48 9.48 0 0 1-1.285-.56c-.563.754-1.24 1.438-1.896 2.102-1.134 1.145-2.206 2.23-2.762 3.648zm-.872-1.795c.112.251.229.504.35.756.724-1.332 1.837-2.373 2.917-3.384.57-.535 1.159-1.085 1.676-1.669a7.905 7.905 0 0 1-.723-.523l-.326.292c-1.52 1.358-3.089 2.762-3.894 4.528zM28.58 16.87c-.995 1.616-2.094 3.177-3.162 4.694l-.498.708c-.93 1.324-1.831 2.7-2.703 4.033-.53.807-1.075 1.64-1.624 2.458l.041-.056c.8-1.11 1.685-2.214 2.54-3.282 2.063-2.572 4.195-5.23 5.412-8.288-.002-.09-.003-.18-.006-.267zM3.05 26.998c.115.316.24.638.372.964.989-1.708 2.568-3.042 4.152-4.257a7.132 7.132 0 0 1-.71-.793l-.051-.068c-1.387 1.324-2.71 2.649-3.764 4.154zm-.64-1.964c.095.332.197.664.305.994 1.093-1.374 2.37-2.573 3.697-3.769-.19-.302-.372-.629-.544-.978-.536.672-1.14 1.281-1.728 1.872-.593.596-1.205 1.212-1.73 1.88zM12.636 6.36c-2.076.316-3.456.975-4.473 2.135-2.281 2.598-3.02 5.502-2.195 8.63l.01.04c.606 2.294 1.292 4.896 3.336 6.191 2.204 1.396 5.464 1.834 8.507 1.14 1.998-.454 4.67-1.566 6.06-4.28 1.16-2.268 1.31-4.831.41-7.033-1-2.447-2.847-4.506-4.941-5.509-1.805-.864-3.938-1.282-6.714-1.314zm-10.7 16.8c.054.253.112.506.175.76.621-.694 1.304-1.332 1.967-1.952a41.41 41.41 0 0 0 1.46-1.408c-.093-.219-.183-.45-.269-.688l-.157.145c-.612.56-1.244 1.14-1.845 1.73-.288.281-.567.586-.838.881-.164.18-.327.358-.493.533zm-.327-1.773c.029.186.06.38.097.586.17-.16.349-.307.516-.446.112-.092.217-.18.306-.26.708-.636 1.445-1.259 2.158-1.861l.331-.28a16.79 16.79 0 0 1-.289-1.06c-1.01 1.439-2.036 2.524-3.121 3.3zm-.198-1.681c.018.202.04.411.065.634a17.143 17.143 0 0 0 3.057-3.197 15.446 15.446 0 0 1-.132-.87c-.15.196-.3.392-.445.586-.757 1-1.538 2.034-2.545 2.847zm24.552-.927A9.77 9.77 0 0 1 25.547 20c1.026-1.47 2.046-2.982 2.945-4.54a21.24 21.24 0 0 0-.076-.673c-.628 1.414-1.406 2.88-2.453 3.992zM1.33 17.252c-.007.463 0 .933.02 1.403.754-.677 1.398-1.495 2.024-2.291.301-.385.612-.78.934-1.158a9.54 9.54 0 0 1 .031-1.252c-.841 1.102-1.83 2.268-3.009 3.298zm24.957-1.883c.042.5.044 1 .006 1.49.21-.407.403-.83.6-1.267.365-.805.742-1.636 1.26-2.382a16.505 16.505 0 0 0-.073-.337c-.313.386-.594.804-.868 1.211-.29.43-.587.872-.925 1.285zM1.638 13.914c-.123.702-.21 1.418-.26 2.136 1.025-.954 2.037-2.097 3.21-3.618.138-.577.323-1.135.549-1.67-.286.276-.583.55-.891.82-.316.278-.628.57-.943.863-.536.497-1.088 1.012-1.665 1.469zm24.233-.63c.11.347.201.7.271 1.056.11-.169.217-.339.323-.506.411-.65.835-1.321 1.374-1.906-.067-.24-.135-.47-.206-.695-.542.71-1.109 1.42-1.762 2.05zm-.335-.898l.04.092c.385-.45.737-.937 1.08-1.41.2-.278.407-.564.62-.843l-.028-.073c-.708.738-1.284 1.489-1.712 2.234zm-23.424-.508c-.048.165-.095.33-.138.493.278-.242.564-.474.844-.702.303-.247.59-.48.862-.72l.216-.19c.821-.724 1.61-1.419 2.338-2.179a111.382 111.382 0 0 0-4.122 3.298zm22.863-.606c.068.116.132.233.195.351a9.906 9.906 0 0 1 1.548-2.077.393.393 0 0 1 .231-.118 18.257 18.257 0 0 0-.115-.256 18.4 18.4 0 0 0-.822.932c-.31.384-.649.79-1.037 1.168zm-.622-.95c.065.088.128.177.19.268.236-.275.458-.575.675-.867.363-.488.737-.992 1.193-1.41a9.397 9.397 0 0 0-.105-.194c-.407.364-.754.79-1.118 1.237-.265.323-.536.656-.835.966zm-21.24-1.04c-.204.416-.391.847-.56 1.288 3.17-2.846 6.691-5.328 10.106-7.735.823-.58 1.646-1.16 2.464-1.746l-.023-.003a.31.31 0 0 1-.08-.021c-.304.005-.611.023-.92.057a.4.4 0 0 1-.12.212c-1.043.966-2.311 1.645-3.537 2.302-1.056.565-2.147 1.15-3.068 1.907A67.605 67.605 0 0 0 5.08 7.55a79.595 79.595 0 0 1-1.967 1.733zm20.184-.214c.207.214.406.434.595.66.231-.343.49-.668.742-.986l.082-.104c.324-.409.703-.867 1.168-1.253a14.975 14.975 0 0 0-.318-.495c-.052.05-.102.102-.15.155-.133.145-.262.295-.39.445-.135.156-.271.313-.41.466-.451.496-.87.85-1.319 1.112zm-1.32-1.181c.25.193.492.396.725.607.62-.342 1.09-.864 1.507-1.383.07-.088.142-.182.215-.278a6.51 6.51 0 0 1 .58-.697c-.136-.168-.28-.334-.428-.498-.263.37-.658.683-1.015.965-.1.079-.195.154-.28.226-.343.285-.69.564-1.036.843zm-1.1-.767c.158.098.313.2.466.304l.395-.341c.375-.324.763-.658 1.13-1 .147-.135.29-.294.442-.462.198-.219.4-.444.626-.633l-.165-.151a12.677 12.677 0 0 1-2.894 2.283zM6.783 4.509a15.532 15.532 0 0 0-2.432 2.675c.903-.879 1.837-1.78 2.855-2.563 1.477-1.137 3.143-2.124 4.79-3.067-.367.111-.733.24-1.097.389a.38.38 0 0 1-.166.294c-.648.438-1.328.794-1.987 1.14-.691.362-1.345.704-1.963 1.132zm12.905 1.954c.184.09.366.183.546.282.65-.38 1.196-.871 1.772-1.388.377-.34.767-.69 1.19-1.007-.112-.09-.227-.177-.343-.264l-.207.165c-.952.759-1.934 1.54-2.958 2.212zm1.188-3.597a14.996 14.996 0 0 0-.687-.331c-.403.248-.806.49-1.209.731-1.108.664-2.165 1.298-3.181 2.032.473.066.914.148 1.336.248l.111.028.091-.072c.582-.5 1.207-.93 1.742-1.285.619-.445 1.223-.885 1.797-1.351zM16.26 1.289c-.808.581-1.617 1.16-2.426 1.737-1.31.934-2.633 1.88-3.955 2.842.46-.178.947-.314 1.466-.41a.344.344 0 0 1 .18-.327c1.44-.762 2.577-1.785 3.782-2.868.348-.313.705-.634 1.071-.95l-.118-.024zm-1.708 3.877l.14.01c.08-.074.161-.158.236-.234.117-.12.217-.222.304-.29.582-.449 1.12-.829 1.645-1.161.69-.436 1.401-.855 2.089-1.26l.2-.118c-.523-.196-1.06-.37-1.606-.519-.437.376-.864.778-1.277 1.169-.56.527-1.14 1.074-1.757 1.567-.089.07-.184.15-.285.232-.21.176-.445.37-.695.552.198.007.39.014.578.025l.16-.013h.263zm-.755-3.961h-.001.001z"/></g></g></svg>