<svg xmlns="http://www.w3.org/2000/svg" width="42" height="33" viewBox="0 0 42 33"><g><g><path fill="#daa520" d="M40.904 30.9c-.038.095-.079.191-.124.284h.16l-.51.582c-.319.38-.812.708-1.384.921l-.1.102.04-.08a4.3 4.3 0 0 1-.372.113c-.689.175-1.318.16-2.03-.052h-.197c-.73-.061-1.394-.061-2.035-.061-.706.06-1.382.06-2.035.06h-4.13c-.42 0-.817 0-1.215.059-1.652.113-3.405.132-5.38.064a32.385 32.385 0 0 1-3.478 0c-.345 0-.727 0-1.11-.065l-.979-.167c-.897.008-1.792.023-2.675.049h-1.025c-.457.03-.903.075-1.347.12-.453.047-.906.093-1.388.124-.837.072-1.547.05-2.168-.065l.054-.34-.149-.008-.286-.015-.068.001c-.083.02-.166.033-.248.042l.012.078c-.917.124-1.787.124-2.554.124-.524 0-.938 0-1.399.059l-.03-.188a2.296 2.296 0 0 1-.477-.137 8.013 8.013 0 0 1-.488-.18v.678l-.186-.759a6.617 6.617 0 0 1-.179-.083h-.19l.093-.047-.091-.046-.165-.085v-.223a.575.575 0 0 1-.092-.05l-.486.49-.021-.7-.005-.195-.355-.12h.352a56.86 56.86 0 0 1-.01-1.753l-.46-.016v-2.683c0-1.058 0-1.972.122-2.907l.49.025a31.847 31.847 0 0 0-.133-2.09c-.06-.914-.12-1.849-.12-2.774l.25-.02c-.01-1.05-.01-2.111-.01-3.151v-.688a.407.407 0 0 1-.121-.288C.247 12.96.168 10.97.233 8.79c0-1.024.046-2.084.14-3.206L.36 5.506a4.945 4.945 0 0 1 .127-2.345c.09-.277.198-.53.316-.764H.574l.306-.135c.077-.14.152-.283.239-.407L1.37.829v.707a3.14 3.14 0 0 1 .747-.622L3.65.002 2.937.85c.282-.016.564-.028.846-.04.385-.014.77-.03 1.155-.06.605.03 1.171.046 1.737.06.572.016 1.143.032 1.714.063.933-.062 1.851-.062 2.738-.062.699 0 1.357-.061 1.992-.12.698-.003 1.374-.003 2.045.06l.108.01.078.079c.223-.009.447-.017.67-.029.218-.062.429-.062.554-.062 2 0 4.066 0 6.097-.06.604 0 1.22 0 1.834.062 1.165-.057 2.51-.017 4.067.122l.333-.001c1.072-.06 2.222-.06 3.308.001.25-.03.53-.046.805-.06.28-.016.55-.03.822-.062.896-.076 1.58-.038 2.224.121a.42.42 0 0 0 .188-.028l.034-.017-.028-.03.072.018c.248-.062.501-.127.715-.127.87-.121 1.784.1 2.671.656l.03.018.608.018-.462.499a.194.194 0 0 1-.02.02l.033.04a.626.626 0 0 1 .264.216l.597.607h-.363l.082.17c.06.118.124.25.145.4.062.102.123.216.184.345h.182c0 .232 0 .45.05.657l.01.198c.06 1.702.06 3.393.06 5.184v1.951c.18 1.203.24 2.44.178 3.735l-.178 4.51c0 .928-.055 1.861-.112 2.85l-.008.145c-.06.318-.06.54-.06.775.03.375.045.758.06 1.141.014.38.03.759.059 1.153.062.51 0 1.15-.061 1.648l-.075.605.016.18.033.335h-.092v.062c.027.073.041.148.055.216.01.05.022.112.034.136l.031.064v.128l1-1.009-.48 1.304a6.073 6.073 0 0 1-.612 1.255zM3.66 1.782l.017.061c.164.1.32.2.48.301l.211-.072c.126-.046.255-.094.425-.102.209-.062.409-.062.588-.062.092-.025.227-.055.363-.085.133-.03.267-.061.415-.091.112-.029.223-.046.334-.055-.453.009-.901.024-1.334.048h-.247l-.046-.015a.666.666 0 0 0-.126-.029zm35.78 28.154l.003-.077a.488.488 0 0 1-.154-.104l-.013-.016.05.143c.032.021.063.044.094.067a.338.338 0 0 0 .02-.013zM37.68 3.311v.001h.005-.005zM33.2 2.153l.01.003-.005-.003zm2.206.17l.093-.24c-.218.02-.442.033-.661.045.187.067.378.131.568.195zm-4.833.227l-.172-.112-.608-.097c.655.256 1.31.52 1.931.816l-.215.568c-.98-.313-1.958-.75-2.904-1.172l-.855-.381-.05.001c-.046.01-.091.016-.137.026.793.41 1.591.802 2.37 1.175l.229.11v.66l-.42-.126a96.37 96.37 0 0 1-1.055-.48 63.4 63.4 0 0 0-1.931-.859l-.099-.067-.083-.08a.636.636 0 0 1-.137-.176c-.134.019-.27.036-.405.052.26.12.524.236.783.35.327.144.653.287.971.437.177.03.28.16.28.36v.456l-.412-.174a42.99 42.99 0 0 1-2.876-1.311c-.202.02-.404.04-.603.062.39.204.742.407 1.062.612.163.037.256.164.256.356v.51l-.441-.242c-.74-.406-1.503-.824-2.249-1.122h-.616c.614.293 1.245.573 1.909.81l.2.07v.694l-.39-.125c-.4-.129-.79-.275-1.178-.429l.614.626-.96-.025c-1.536-.68-2.728-1.276-3.852-1.926h-.597a31.09 31.09 0 0 0 2.126 1.19l.166.085v.188c0-.127-.1-.22-.18-.24v.607l-.233-.024a13.92 13.92 0 0 1-2.936-1.683l-.122-.091v-.032h-.881c.646.363 1.29.74 1.888 1.112.069.02.125.056.174.087l.042.027c.101.015.163.061.244.143l.09.09v.581l-.414-.112c-.13-.054-.254-.12-.381-.18l.824.84-1.202-.408a19.319 19.319 0 0 1-3.283-1.487 4.349 4.349 0 0 0-1.027-.527l-.204-.07v-.281c-.307.021-.587.032-.85.034.4.176.756.372 1.063.56.701.428 1.311.75 1.813.954l-.215.57a24.133 24.133 0 0 1-3.393-1.606 1.11 1.11 0 0 0-.065-.029c.256.181.512.362.756.56l.112.093v.806l-.024-.017.497.506-1.16-.37a11.896 11.896 0 0 1-.143-.046h-.085l-.068-.039-.081-.046c-.918-.348-1.72-.851-2.394-1.31-.11-.066-.223-.14-.33-.211-.147-.098-.281-.188-.415-.256l-.032-.016-.093.018c.193.123.383.251.576.385l.267.183c.46.462.942.68 1.316.823l1.546.59H9.26l-.063-.032c-.46-.234-.903-.506-1.34-.798l-.201.44a17.388 17.388 0 0 1-2.459-1.301c-.068.01-.135.012-.202.018.331.214.659.427.978.637l1.43.67H5.89l-.074-.048-.131-.086-.074-.035c-.684-.317-1.39-.649-2.11-1.111h-.978l.66-.226a.493.493 0 0 1-.167-.328 7.2 7.2 0 0 1-.736.24l-.036.01h-.061c-.067.092-.134.183-.19.288l.045.534c.291.23.583.462.878.702h.01v-.388l.465.255c.365.249.672.498.968.739l.667.543-.216.002c.894.76 1.795 1.527 2.737 2.335.374.318.754.64 1.127.965l.008.006c.332.288.658.579.97.867l1.603 1.487-1.387-.707.238.175c.261.128.517.326.766.518.169.13.34.263.532.385.775.654 1.554 1.26 2.287 1.776 1.052.714 2.052 1.374 3.049 2.033l.104.076c.111.114.223.218.334.32l.008-.011c.07.036.124.071.189.106-.019-.014-.037-.025-.056-.045l-1.312-1.337 1.658.85-.134.272.14-.27c.078.04.152.078.22.12a.519.519 0 0 1 .15.117l-.211.216-.211.215.001.001a.329.329 0 0 0 .104.028l-.058-.002c.182.112.35.227.507.354.118.062.21.124.302.186.08.055.16.11.267.165.23.17.468.361.708.556.352-.27.704-.519 1.075-.78l1.72-1.227-.873 1.343c-.1.153-.225.265-.346.374-.055.05-.113.102-.17.16-.051.044-.102.086-.153.126.086-.06.176-.12.265-.176.223-.114.425-.175.622-.228l.056-.047c.058-.06.11-.099.185-.12l.549-.833v.672a.265.265 0 0 0 .032-.051l.107-.217.232.058c.13.036.225.013.36-.08a71.942 71.942 0 0 0 4.638-3.816c.263-.225.519-.434.773-.643.46-.377.895-.733 1.311-1.117l.116-.118.001-.001.15.154.144-.116.55-.441-.08-.122.002-.002c.065-.045.163-.146.26-.243.12-.124.252-.256.382-.355l1.065-.905.169.187.127-.16-.117-.149 1.079-.915c.18-.125.341-.234.465-.305.09-.13.18-.227.265-.316v-.98l.166-.085a.472.472 0 0 0 .133-.097l.062-.063c.04-.062.084-.1.128-.127l.002-.036.09-.005a.347.347 0 0 1 .077-.01h.116l.257-.253c.074-.05.133-.113.2-.182.092-.093.192-.195.326-.296.112-.095.243-.217.38-.342.265-.243.538-.492.821-.7l.387.464c-.283.288-.565.56-.839.823-.249.239-.49.47-.718.702l-.03.03a1.25 1.25 0 0 1 .058-.001v.154c.465-.354.93-.694 1.384-1.027.377-.277.755-.553 1.132-.836l.39.46c-.058.059-.118.117-.177.174.146-.015.253.084.296.128l.031.038c.232.33.425.622.607.949-.005-.201-.003-.408-.01-.608a4.148 4.148 0 0 1-.045-.223l-.383-.312c-.296-.241-.481-.566-.645-.852l-.126-.217v-.084l-.202-.012c-.141-.041-.267-.097-.397-.149v.1a.233.233 0 0 0-.03-.111c-.048-.02-.102-.035-.149-.056v.53c.08-.021.18-.114.18-.242v.458l-.415-.176c-.347-.147-.688-.293-1.022-.437v.424l-.372-.094c-.44-.112-.921-.247-1.424-.429v.511l1.826.414h-2.724a.417.417 0 0 1-.165-.03c-1.105-.264-2.094-.716-3.015-1.158zm8.9 24.167c.006-.221.007-.44.02-.668l-.482-.734c-.243-.371-.494-.755-.685-1.207l-.178-.426h.345a7.863 7.863 0 0 1-.355-.88l-.015-.096v-1.292l.508.981c-.042-.103-.085-.199-.127-.307l-.166-.418h.116c-.093-.149-.187-.298-.28-.441l-.09-.136.036-.198.077-.188.35-.013.087.09c.377.384.687.81.926 1.27v-.138a.977.977 0 0 1-.06-.327c-.317-.433-.62-.867-.867-1.368l-.032-.065v-1.28l.326.58c.094-.158.27-.165.334-.165h.072c-.001-.082-.006-.163-.007-.244h-.12l-.086-.154a5.815 5.815 0 0 1-.37-.866c-.072-.199-.147-.407-.243-.625l-.186-.429h.182a5.04 5.04 0 0 1-.301-.685l.255-.098v-.314h.057c-.06-.16-.116-.32-.188-.49l-.179-.425h.506c-.044-.102-.091-.201-.136-.306l-.316-.731h.668l.132.197c.111.3.25.558.396.83.004.01.01.019.013.028l.001-.006-.06-.12a15.167 15.167 0 0 1-.61-1.493l.54-.259-.26.152.26-.15c.082.146.163.296.245.445.007-.074.017-.147.025-.22l-.073.074-.186-.378a20.68 20.68 0 0 1-.546-1.176l-.024-.12v-1.006l.548.776c.164.25.292.467.41.682 0-.001 0-.003.002-.004l-.003-1.008c-.394-.484-.712-1.014-.879-1.468l-.152-.412h.249a11.402 11.402 0 0 0-.125-.196l-.05-.077v-.763h.272V8.25a3.613 3.613 0 0 1-.315-.792h-.01l-.042.085.079.247-.224.076v.325c-.019 0-.06 0-.077.005l-.342.349-.07-.34c-.018-.003-.029-.014-.05-.014v.119l.031.03-.03.032v.425c.005-.006.021-.014.031-.024l-.21.214-.014-.015a.437.437 0 0 1-.112.234l-.567 1.168-.008-.392-.326-.331c.003.022.008.04.008.065v.305h-.299c-.032 0-.08 0-.133-.008.004.024.013.043.013.069v.178l.064.066h-.064v.06h-.295l-.315.321-.124-.381h-.231c.035.083.07.161.105.252l.05.221.217.442h-.867l-.074-.192-.002-.005a.512.512 0 0 1-.149.024.557.557 0 0 1-.289-.096l.05.195.002.009c.044.053.08.105.112.15.017.026.032.048.046.064l1.152 1.25-1.497-.76c-.428-.219-.73-.646-.875-1.237l-.009-.074c0-.072-.006-.145-.012-.218a2.75 2.75 0 0 1-.006-.347c-.125.114-.248.234-.38.367.26.44.525.932.786 1.465l.031.064v.883l-.485-.509.006.12.245.25-.097.197c-.081.165-.2.216-.284.23a.326.326 0 0 1-.06.005.36.36 0 0 1-.194-.062l.14.239h-.468l-.135.126-.236-.136a1.928 1.928 0 0 1-.227-.235v.306h-.34l-.09-.136a4.396 4.396 0 0 1-.56-1.197l-.227.188c.171.467.341.813.568 1.159l.05.11.396.45-.508.029a.622.622 0 0 1-.037.04l-.25.253-.204-.292a3.176 3.176 0 0 1-.553-1.317c-.076.061-.155.121-.23.182.02.035.044.07.07.105l.074.104c.106.058.165.17.165.322.04.174.184.428.39.638l.567.582h-1.13l.196.398-.733-.298a1.174 1.174 0 0 1-.46-.359l-.027-.035a2.055 2.055 0 0 1-.279-.536l-.089.07.22.447c.097.198.197.402.292.56l.537.015-.442.473v.852l-.06-.08v.286l-.41-.168c-.024-.01-.047-.02-.069-.032v.73l-.51-.522c-.081-.082-.152-.17-.224-.256l.16.322.031.064.004.508h-.299c-.04 0-.08-.01-.12-.024v.851l-.535-.7a13.881 13.881 0 0 1-1.212-1.852l-.14.096.99 1.345v.101a.244.244 0 0 0-.053-.12l-.001.003h.001l-.187.24-.062.078c.72.625 1.4 1.269 2.037 1.929a13.124 13.124 0 0 1-.694-1.4l.25-.109v-.315h.25l.088.14c.218.35.449.756.687 1.2h.375l.145.16c.282.526.521 1.024.74 1.508l.218-.105c.284.531.57 1.063.884 1.626a.061.061 0 0 0-.003-.011l-.08-.371h.635l.075.191c.092.232.19.45.298.661.055-.116.167-.18.322-.18h.185l.083.168.216.438.069-.168.435-.013.072.201c.132.37.308.747.497 1.124v-1.161l.574 1.363c.12.282.252.55.382.821a.507.507 0 0 1 .18-.03h.196l.079.182.028.07.16.054h-.138c.015.033.026.063.04.096l.273-.088c.117.3.245.59.377.872l-.01-.027h.678l.117.24.364.736h.427l.046.107.377-.197-.26.151.267-.139c.131.235.264.473.395.714a4.543 4.543 0 0 1-.23-.61c-.221-.44-.45-.904-.672-1.303l-.113-.115.05-.237.078-.188.379-.012.09.127c.38.543.679 1.1.927 1.626zm-20.057-7.25l-.574.294.017.03.497-.21.002.004zm-9.674 4.939l-.022.001.099.126a.2.2 0 0 0 .02-.029zm26.777 6.341c.033.004.065.01.098.015l.249.073c.092-.053.183-.107.273-.161l.19-.112-.24-.244c-.188.155-.38.3-.57.43zM20.402 17.05c-.142.099-.283.19-.421.28l.032.033a.861.861 0 0 0 .06-.055l.182-.144.147-.114zm-1.894 1.936l-.039-.03.02.053.019-.023zm-3.395-2.621a62.818 62.818 0 0 1-2.065-1.746l.149.34c.088.204.18.41.277.613h.23l.148.088c.2.203.385.458.513.705h.533l-.01.01a.815.815 0 0 1 .13-.01zM2.436 18.925l.017-.063-.061.063zM2.394 5.573a2.68 2.68 0 0 1-.2-.133c.01.304.012.613.014.921h.24v.298l.407-.314c.314.374.585.747.834 1.121a2.565 2.565 0 0 1-.044-.434V6.47l-.527-.379zm.054 1.52h.167c-.062-.098-.123-.201-.185-.298a.859.859 0 0 1-.222.361v.01a.376.376 0 0 1 .24-.073zm1.948.24l.26-.125c-.151-.112-.3-.225-.454-.337zm6.568 5.403l.255.572c-.002-.018-.01-.034-.01-.053a.37.37 0 0 1 .093-.22 8.427 8.427 0 0 0-.247-.219l-.091-.08zm.771 1.657a.433.433 0 0 1 .156-.132l.248-.127.143.243c.099.17.199.328.299.49l-.122-.681a9.189 9.189 0 0 0-.375-.18c-.124-.056-.248-.112-.373-.176-.14-.07-.272-.15-.366-.246.114.247.244.52.39.809zM9.977 11.87c-.359-.32-.718-.64-1.077-.944C7.782 9.9 6.524 8.746 5.306 7.69c-.194-.148-.391-.292-.588-.437l.337.65c.204.398.415.801.632 1.202h.476l.088.09c.068.068.126.143.188.215h.456l.138.184a24.33 24.33 0 0 0 .4.893l-.141-.406h.614l.14.175c.089.195.179.401.268.601v-.354l.556.946c.223.378.433.77.644 1.16-.035-.099-.075-.197-.108-.297l-.13-.402h.626l.13.203c.173.494.385.97.626 1.428-.002-.034-.01-.072-.01-.106v-.977c-.223-.196-.448-.39-.67-.589zm-7.828 9.357v.504c.096-.155.168-.282.234-.4.11-.2.216-.387.37-.584l1.26-1.609-.695 1.78.916-1.4-.968 2.567c-.123.323-.247.652-.376.988h.626l-.198.434c-.095.206-.182.406-.272.608v1.917l-.05.076-.017.028-.215.655.123-.197c.065-.101.134-.208.202-.324l.195.095c.044-.17.088-.343.132-.506l.02-.078.628-.639v.736c0 .063 0 .179-.07.298-.047.249-.093.49-.139.722.128-.133.26-.261.39-.393-.127-.898.167-1.777.855-2.54l.09-.1h.585c.147-.205.295-.408.442-.608.131-.138.204-.184.36-.184h.14c.18-.198.365-.394.555-.59l.02-.065c.045-.147.099-.327.183-.513v-.133l.19-.124c.148-.063.264.006.333.065.085-.086.17-.17.256-.245v-.124l.19-.124a.355.355 0 0 1 .062-.019c.205-.245.409-.453.607-.655l.038-.039v-.14l.208-.12a.341.341 0 0 1 .19-.02.46.46 0 0 1 .193-.077l.214-.218c.174-.415.35-.81.544-1.204l.116-.14 1.122-1.143-.636 1.48c-.257.598-.49 1.195-.716 1.78.324-.682.739-1.506 1.207-2.25l.088-.14h.8l-.237.423c.079-.077.16-.151.241-.226.45-.458.917-.882 1.37-1.293l-.292-.26c-.058-.051-.104-.112-.157-.168l-.355-.144c-.39-.16-.678-.472-.882-.956-.032-.064-.065-.12-.098-.178l-.233.296a2.943 2.943 0 0 1-.657-.717l-.285.291-.201-.318c-.08-.126-.152-.257-.227-.386v.574l-.529-.585a9.425 9.425 0 0 1-.923-1.379l-.236.129a10.99 10.99 0 0 1-.526-.955v.704l-.536-.703-.03-.042.18.608-1.184-1.933c-.083-.133-.164-.272-.247-.412l-.199-.329c-.065.133-.144.275-.379.275h-.17l-.087-.149c-.194-.33-.388-.697-.581-1.084l-.316.17-.043-.068v1.013l-.787-1.338c-.36-.613-.73-1.232-1.105-1.835l-.031.132c-.126.51-.309.995-.53 1.408v.951l.745-.768-.746 2.288v1.165l.663-.675-.316 1.13c-.116.417-.233.834-.35 1.195-.038.562-.05 1.104-.054 1.653.022-.039.045-.076.069-.113.036-.163.16-.257.347-.257h.442l-.411 1.037h.371l-.115.392a9.132 9.132 0 0 0-.336 1.744l.528-1.967-.027 2.457-.035.08a13.396 13.396 0 0 1-.656 1.75v.122l-.088.09a.53.53 0 0 1-.091.073zm0 4.997v.187c.081-.18.174-.361.286-.542l.474-1.446c-.193.442-.385.884-.583 1.348l-.149.347-.028.106zm12.86-9.13l.616-.316-.152-.123-.252.237-.213.201zm.197.348l.044-.036c.192-.156.388-.316.565-.475l-.135-.109zM2.149 28.017v.28c.032-.133.07-.266.115-.398zm16.636-8.36l.523-.533a2.622 2.622 0 0 1-.061-.042c-.06.066-.118.133-.177.2-.102.118-.203.23-.305.338l.02.037zM37.704 5.75V5.64l-.125.112zm-8.286 7.47l-.076.06c.09.14.15.25.221.39v-.185a1.49 1.49 0 0 1-.145-.265zm5.856-4.718l.01-.001v-.07l-.038.03zm-9.8 7.526a1.575 1.575 0 0 1-.14-.266l-.1.07c.081.064.159.131.24.196zm2.653.459a.107.107 0 0 0-.03-.057l-.15.056zm-.853-1.832c-.01-.035-.026-.068-.035-.103l-.028-.106c-.2.144-.399.284-.598.425l.027.041.182.282c-.017-.042-.037-.084-.053-.127l.255-.098v-.314zm1.037-.558l-.002-.008-.003.001.005.007zm1.354-.246l-.014-.017-.013-.014c.002.005.004.01.008.015l.019.016zm1.797-2.278l.069.098.034-.036a.392.392 0 0 1 .275-.118c.067 0 .13.025.187.06a8.398 8.398 0 0 1-.15-.348c-.137.115-.277.229-.415.344zm1.02 1.679l.014-.002v-.303zm-.085-.954a8.834 8.834 0 0 1-.2-.364v.115c.043.055.089.11.135.167l.065.082zM35.1 9.752c-.008-.042-.014-.085-.024-.129a2.659 2.659 0 0 1-.065-.517v-.454c-.13.105-.26.212-.39.314.179.246.333.5.479.786zm1.584-1.821c-.047-.181-.09-.362-.13-.544l-.115.095.146.247c.04.067.065.135.099.202zm1.156-.328a8.35 8.35 0 0 1-.226-1.104l-.2.167c.04.091.051.183.051.27.15.224.27.447.375.667zm1.785 16.508h.007l.002-.009zm-.304-.475h.005l-.004-.01-.001.01zm.294.655l.017-.175-.01-.001-.086.087c.024.025.052.057.079.089zm-.29-6.656c0-.138.004-.276.006-.414l-.14.116c.043.102.087.203.133.298zm.01-.636c-.012.005-.023.01-.035.013l.033.058.001-.07zm.011-.843l.008.024.002-.034zm.351-7.578a.33.33 0 0 1-.25.1c.065.193.146.372.239.539.006-.214.006-.425.011-.639zm.014-.746l-.1-.143a6.278 6.278 0 0 1-.392-.71c.135.454.296.799.489 1.045l.003-.192zM38.6 4.84l-.46.41-.241.215.543-.018.037.262c.002.015.006.029.007.043h.115V4.86l.274.944.222-.119c-.199-.286-.357-.57-.497-.845zm-.118-.235v-.142l-.254.252h.308l-.022-.046zm-3.935 1.684c.216-.146.46-.344.697-.544l-.075-.09c-.017.016-.032.04-.05.05zM7.369 8.261c-.034-.033-.069-.064-.102-.097l-.008.013c.033.027.068.052.101.078l.009.006zM2.145 4.49l.004.043h.06zm15.806 15.61c0-.005 0-.01-.002-.015l-.15.007zm.053-.259h.13a17.278 17.278 0 0 1-.436-1.254c-.031-.096-.061-.194-.09-.292l-.33-.26c.246.532.485 1.12.726 1.806zm4.062 1.403h.198c-.012-.01-.022-.015-.035-.027l-.043-.055c-.286-.467-.53-.933-.736-1.375l-.07.123c.059.112.12.223.181.333.176.321.358.652.505 1zm.194-2.734v-.528l-.12.09c-.227.166-.452.35-.67.532l.076.078h.121l.083.169c.01.022.02.04.032.06v-.188l.205-.12c.11-.047.23-.031.336.037l-.031-.066zm.783-1.108h.15l.078.055c.036.025.07.053.106.079 0-.027-.003-.054 0-.081-.059-.029-.117-.057-.173-.086l-.07-.035-.09.068zm6.938 5.873l.038-.051c-.203-.164-.417-.32-.625-.481zm5.937 5.085l-.427.508h.741l.05-.09.107.05c.028.012.059.025.09.04h.028a11.23 11.23 0 0 0-.59-.508zm-.503.598l-.656.78c-.104.122-.21.239-.322.348.437-.252.843-.528 1.239-.797l.384.466c-.36.367-.729.678-1.121.943h.28c.417-.286.868-.605 1.326-.93a6.727 6.727 0 0 0-.554-.456l.027-.048zm1.207 2.01c.05-.025.1-.052.151-.08a.263.263 0 0 0-.16-.069zM10.303 2.15v-.006l-.127.007.292.193v-.174c-.055-.007-.11-.011-.165-.02zm-1.313.064c-.103 0-.198.002-.29.005.758.454 1.531.913 2.333 1.369l.07.025a53.113 53.113 0 0 0-.716-.508c-.331-.23-.661-.46-.992-.705l-.263-.194-.057.003zm-2.296.527c.078.044.158.085.237.13l-.228-.164a1.234 1.234 0 0 1-.312-.197c-.031.002-.062.007-.093.008l.396.223zm9.534.698a37.743 37.743 0 0 1-1.197-.787l-.541-.369c-.054-.004-.106-.004-.16-.009-.191-.032-.363-.046-.534-.06-.07-.006-.14-.018-.21-.025.89.416 1.771.833 2.642 1.25zm5.105-1.164h-.016l.006.003zm-1.076.017a9.344 9.344 0 0 1-.36.03l.434.21h.003a.345.345 0 0 1-.077-.24zM8.576 31.137l.04-.035a3.88 3.88 0 0 1-.045.035.02.02 0 0 1 .005 0zm-4.847-.114l-.105-.11a.134.134 0 0 0-.03.01l.124.108.01-.008zm-.443.1l-.084.061h.1c-.003-.022-.016-.038-.016-.06zm6.348.048l.13.003.29-.21-.176-.155c-.074.13-.156.249-.244.362zm5.14.262c.205.022.42.051.666.11l.204-.208c.18-.183.353-.366.525-.549.343-.363.697-.737 1.102-1.109l.086-.078h.737l-.112.169c.094-.1.188-.202.284-.311l.089-.103h.853l-.36.489a4.714 4.714 0 0 1-1.188 1.122c.062-.011.127-.022.195-.024l.078-.017.062-.014.3-.262c.467-.408.937-.671 1.375-.894l.003-.001.174.353c.308-.25.617-.493.917-.708.054-.085.158-.165.359-.165h.788l-.589.533c-.14.126-.273.242-.405.355.304-.117.56-.267.8-.467.07-.11.202-.177.364-.177h.827l-.439.372.34.285c-.014.021-.034.043-.05.065.341-.183.713-.427 1.072-.67l.377.468c-.343.35-.681.625-1.123.821h.194c.092-.004.183-.003.276-.007.033-.036.066-.073.116-.091.079-.08.17-.17.27-.263l-.063-.066h.138c.086-.078.174-.157.273-.238l.082-.067h.93c.483-.278.954-.573 1.408-.867l2.305-1.494-1.933 1.967c-.4.408-.896.777-1.493 1.124l.487.016c.16-.143.321-.293.484-.445.324-.303.659-.617 1.024-.907.074-.079.147-.126.304-.126h.66l-.105.122h.72l-.6.535c-.27.241-.646.557-1.08.847.45-.03.91-.04 1.332-.04.34-.23.695-.466 1.154-.7l1.277-.65-.13.16c.08-.043.16-.088.242-.125l.122-.027h.897l-.658.549c-.332.254-.654.506-.96.756.107-.007.217-.007.325-.016.758-.478 1.463-.957 2.145-1.42.092-.102.243-.112.286-.112h.898l-.374.286c.107-.074.212-.149.316-.227l1.411-1.054c-.07-.055-.141-.109-.212-.162-.72-.627-1.376-1.15-2.071-1.706l-.393-.313-.533-.54a1.967 1.967 0 0 1-.135-.086c-.036-.024-.07-.049-.118-.073l-.061-.041-1.258-1.098c-.097-.083-.197-.158-.296-.235l-.333.44c-.105-.072-.206-.143-.304-.213a5.465 5.465 0 0 0-.682-.439l-.165-.083v-.066a.29.29 0 0 1-.033-.031l-.086-.089v-.06a.954.954 0 0 0-.195-.159l-.066-.046c-.582-.534-1.183-1.085-1.768-1.502a1.66 1.66 0 0 1-.217-.25c-.036-.05-.073-.1-.121-.15l-.511-.52h.267c-.054-.042-.108-.083-.162-.137a175.53 175.53 0 0 0-3.453-2.73l-.275-.21-.056.041.286.435c.305.498.492.879.729 1.361l.031.065.003.138c0 .161-.045.234-.149.339l-.21.212v.662l-.495-.433c-.053-.046-.096-.1-.146-.149.031.056.065.112.095.169l.187.339v.386l-.299.06-.386.398a.473.473 0 0 1-.333.152h-.125l-.12-.123h-.06l-.142-.168c-.113-.23-.218-.47-.324-.71-.159-.364-.322-.738-.519-1.085a8.497 8.497 0 0 1-.42-.225c-.088.061-.172.104-.25.144l-.35.18c.09.177.18.358.27.533.133.256.265.51.396.776.095.06.148.168.148.312v.811l-.62-.727a4.101 4.101 0 0 1-.234-.328h-.283c-.261 0-.513-.241-.747-.717-.073-.148-.14-.296-.204-.445l-.215.219c-.101.103-.173.15-.33.15h-.124l-.087-.088c-.084-.085-.13-.15-.144-.257-.378-.777-.686-1.567-1.004-2.458-.104.13-.214.262-.345.396l-.058.046c-.16.109-.325.221-.42.319a.64.64 0 0 1-.331.2c-1.307 1.096-2.516 2.27-3.686 3.405a9.386 9.386 0 0 0-.66.655l-.716 1.456a.727.727 0 0 1-.172.223l-.006.007a1.971 1.971 0 0 1-.177.215l-.51.52v-.736a.42.42 0 0 1 .028-.152c-.364.373-.779.792-1.208 1.174-.994.896-1.973 1.801-2.935 2.699h.39l-.562.528c-.36.338-.707.678-1.043 1.018l.226-.192c.18-.152.356-.317.531-.482.184-.17.367-.341.55-.496l.395.457c-.375.353-.722.677-1.068.996h.562l.303-.309v.651a6.56 6.56 0 0 1 .444-.298l.071-.044h.772a12.9 12.9 0 0 0 .343-.383l.09-.105h.675l-.226.467c-.08.13-.168.253-.26.371.143-.095.287-.188.43-.292l1.9-1.385-1.496 1.828c-.208.254-.42.455-.674.642.035 0 .068.001.102.003l.33-.281c.32-.27.588-.593.868-.936.043-.149.164-.233.341-.233h.454l-.178.425c-.11.261-.293.517-.517.75.21-.194.42-.402.615-.66l.01-.026.077-.185h.06l.03-.045c.035-.164.16-.26.347-.26h.3v.305c0 .068-.011.126-.027.178.066-.048.126-.103.197-.144.059-.1.165-.155.309-.155h.6l-.192.26.195-.143.332.437.011-.006h1.088l-.718.55a9.502 9.502 0 0 1-.332.243h.06c.294-.203.545-.405.803-.615.053-.09.157-.178.367-.178h.723l-.511.521c-.114.115-.229.233-.349.345l.198.017v-.155l.087-.09c.183-.185.366-.356.548-.527.177-.165.353-.33.53-.509a.476.476 0 0 1 .33-.15h.6l-.15.205c.144-.097.279-.185.374-.234l1.33-.68-.968 1.15c-.302.359-.649.766-1.01 1.15zm7.377-1.559l.004-.002-.074-.09zm-5.345 1.512l.067-.008v-.044c-.021.018-.046.034-.067.052zm.36-.043l.066-.008v-.049zm22.327-2.874c-.005-.076-.005-.154-.008-.23a2.688 2.688 0 0 1-.312-.416c.11.211.216.427.32.646zM37.767 1.885l-.013-.009-.28.026c.342.125.68.291 1.007.458l.094.066a.325.325 0 0 0-.093-.028v.405l.19-.124a.265.265 0 0 1 .19-.008 2.93 2.93 0 0 0-1.095-.786zm-.15-.081a1.904 1.904 0 0 0-.208-.079h-.096zm-1.546.23c.231.081.453.162.667.244l.332-.338zM30.925 7.49l1.646-.842-1.299 1.33a1.864 1.864 0 0 1-.215.184c-.048.037-.097.073-.146.123l-.076.056-.36.184-.314-.517c.245-.188.498-.38.764-.518zM8.886 7.015c.317.192.63.447.932.693l-.363.486C8.388 7.408 7.24 6.73 6.128 6.076l.125-.22-.034-.349h.14l.065.039c.763.417 1.55.85 2.345 1.348l.074.046zm4.776 4.305c.641.593 1.297 1.08 1.932 1.55l-.291.534c-.053-.027-.118-.053-.184-.08a2.985 2.985 0 0 1-.236-.104l-.066-.047c-.45-.415-.932-.807-1.399-1.185-.211-.172-.421-.342-.625-.512l-1.256-1.046 1.54.521c.172.059.297.152.417.244.042.031.085.064.134.098z"/></g></g></svg>