<svg xmlns="http://www.w3.org/2000/svg" width="12" height="11" viewBox="0 0 12 11"><g><g><path fill="#4d8f79" d="M11.964.247c0 .001-.358.454-.921 1.19-.563.735-1.329 1.753-2.142 2.875-1.626 2.245-3.445 4.926-4.193 6.613-.02.044-.054.073-.092.076h-.008c-.035 0-.068-.022-.09-.06A4042.545 4042.545 0 0 0 .024 3.248a.204.204 0 0 1 .005-.203c.038-.056.1-.069.148-.028.002.002.892.757 1.935 1.76h.001c.062-.02.125.032.14.116l.005.026c.785.764 1.635 1.652 2.248 2.46C7.435 3.45 11.824 0 11.828-.005c.05-.04.115-.022.15.042a.2.2 0 0 1-.014.21zm-1.89 2.03a6.959 6.959 0 0 0-.213.223c.01.006.02.014.029.024l.185-.247zM6.843 6.8l-.01.014-.123.16.006.004.005.005.122-.183zm-2.479 3.37l.093-.174a.095.095 0 0 1-.066.028.1.1 0 0 1-.078-.041.198.198 0 0 1-.008-.222c.044-.064.086-.13.129-.194-.296-.222-.5-.544-.676-.868a.229.229 0 0 1-.012.041c-.021.052-.06.08-.1.08a.094.094 0 0 1-.057-.02l-.045-.037.82 1.406zM1.206 4.312v-.004l-.035-.034.035.038zm.374.35l.082.07-.089-.085.007.016zM7.043 6.09c.025-.036.045-.065.055-.082a.094.094 0 0 1-.04-.02c-.209.247-.426.486-.643.725a.203.203 0 0 1-.02.15l-.258.42c.146-.194.57-.734.812-1.063l.025-.034a.164.164 0 0 1 .029-.05 1.64 1.64 0 0 0 .04-.046zm-3.763.553c.126.3.298.592.48.863-.14-.25-.276-.511-.404-.785a.117.117 0 0 1-.058-.05l-.018-.028zm1.187 1.327a4.99 4.99 0 0 1-.309-.286c.163.275.331.547.5.827l.152-.177.02-.034-.027-.027a.101.101 0 0 1-.078.042.102.102 0 0 1-.084-.05.196.196 0 0 1-.023-.164l-.151-.13zm2.935-2.755a.09.09 0 0 1-.042.013.1.1 0 0 1-.075-.04c-.237.28-.503.601-.781.944a.14.14 0 0 1 .03.045c.187-.207.37-.415.542-.63.03-.037.071-.046.108-.033.07-.102.143-.202.218-.299zM5.328 8.132l-.142.172.02.028.122-.2zm.657-1.35l.021-.033-.072.09.05-.057zM4.978 8.55a5.166 5.166 0 0 0-.14.261l.037.062.183-.296a1.408 1.408 0 0 0-.046-.066l-.034.04zm-.45.519c.038.061.072.126.101.194l.098-.154a.145.145 0 0 1-.029-.034l-.019-.031-.019.003a.097.097 0 0 1-.076-.04 5.064 5.064 0 0 1-.056.062zm-.046-.356a19.56 19.56 0 0 0-.054-.089.177.177 0 0 1-.054.138.096.096 0 0 1-.049.021l.044.058.113-.128zM3.856 8.1c.067.149.16.286.262.42a4.697 4.697 0 0 0-.262-.42zm-.216-.299c.005.01.009.02.011.031l.01-.003-.02-.028zm2.564-1.725c-.405.415-.783.858-1.071 1.345.346-.44.715-.904 1.07-1.345zm-1.23 1.977a.072.072 0 0 0 .005.005l.049-.073-.054.068zM2.883 6.135a4.775 4.775 0 0 0-.29-.28c.106.204.23.402.362.595a2.847 2.847 0 0 1-.072-.315zm.107 1.391c.194.378.402.733.645.946-.195-.373-.38-.721-.645-.946zm4.379-1.821c.195-.238.387-.482.576-.73-.203.235-.4.475-.576.73zm1.847-2.647a.08.08 0 0 1-.004-.01l-.06.077.064-.067zm-1.147.688A42.773 42.773 0 0 0 6.453 5.44c.266-.254.532-.497.785-.734a.159.159 0 0 1 .053-.088c.283-.212.548-.492.81-.782a.183.183 0 0 1-.032-.09zm-3.246 3.71c.038-.074.08-.145.12-.216-.119.154-.236.309-.351.465l.188.165.132-.167a.098.098 0 0 1-.062-.028c-.052-.05-.064-.149-.027-.22zm-1.013-.51c-.05-.06-.102-.119-.155-.179.04.08.078.158.119.235a.152.152 0 0 1 .036-.056zm-1.9-1.649c.171.291.359.574.554.852a4.206 4.206 0 0 1-.294-.647l-.26-.205zm.75 1.571l.252.506c0-.028.005-.057.016-.082a.16.16 0 0 1 .02-.032l-.289-.392zm2.8 1.891c.301-.414.6-.827.856-1.275l-.045.06c-.278.38-.549.79-.81 1.215zm3.717-5.273a.09.09 0 0 1-.042.013c-.034 0-.067-.02-.09-.057l-.043.042a.2.2 0 0 1-.002.21l-.035.049c.005.003.01.009.015.014l.197-.27zm-8.534.312c.093.158.2.34.317.543a.18.18 0 0 1 .023-.068c.034-.056.09-.073.136-.045-.175-.16-.336-.305-.476-.43zm1 1.71a1.495 1.495 0 0 1-.03-.176.197.197 0 0 1 .002-.042 7.18 7.18 0 0 1-.205-.403 5.5 5.5 0 0 1-.284-.264l.517.885zm3.024 4.919a.098.098 0 0 1-.071.033.097.097 0 0 1-.069-.03l-.01-.014-.005.009.085.146.07-.144z"/></g></g></svg>