<svg xmlns="http://www.w3.org/2000/svg" width="37" height="49" viewBox="0 0 37 49"><g><g><path fill="#daa520" d="M31.123 15.818c-.098.288-.036.542-.115.827-1.206 1.844-2.478 3.974-3.525 5.562.954 1.802 2.224 3.35 2.539 5.206a9.63 9.63 0 0 1-.154 3.8c-.165.66-.574 1.892-.844 2.465-.143.3-.464.492-.616.808-.154.328-.061.811-.22 1.159-.774 1.688-2.627 2.718-4.094 2.904-.256-.298-.442-.327-.805-.51-.315.149-.567.57-.88.742-2.434-1.218-4.014-2.196-6.274-3.676-.492.218-.633.971-1.223 1.123-.152.197.026.324-.125.52-.907.905-1.812 1.82-2.765 2.746-.915.89-1.727 1.903-2.618 2.839-.79.83-1.468 1.6-2.436 2.553-.345.34-.828.567-1.206.935-1.252 1.211-2.021 1.936-3.295 2.61-.366-.06-.762-.248-1.102-.199-1.15-1.557 1.042-3.438.348-5.076 1.66-3.784 3.973-8.584 5.849-12.785-1.46-1.21-3.4-1.615-4.785-2.632-1.04-.763-1.533-1.884-2.383-2.71-.774-1.664.992-3.61 1.222-5.32.776-.409.974-.953 1.557-1.813.984-1.448 2.466-2.575 3.745-3.323 2.726-1.593 5.524-2.512 8.78-1.733 1.137-1.635 2.121-2.794 3.056-4.66-.794-.654-1.48-.961-1.093-1.991-.33-.28-.625-.57-.651-.913 1.263-1.496 1.746-3.748 2.936-4.635.527.224.993.418 1.531.17l.66.418c3.489.887 7.72 3.744 11.886 6.132A16.615 16.615 0 0 1 36.78 9.31c.968 2.26-1.7 4.158-3.44 5.915-.81-.106-1.53.178-2.218.593zM25.72 9.795c.256.185.218.277.512.325 1.238-1.018 2.449-1.577 3.794-2.593-1.676-.25-2.984 1.04-4.306 2.268zm1.922.52c.197.248-.104.599.433.773.96-1.454 2.15-1.933 3.266-2.728-1.477-.38-2.382 1.655-3.699 1.955zm.584-3.83c-1.423.199-2.608 1.404-3.822 2.477.564.006 1.12-.45 1.617-.775.638-.416 1.24-.79 1.77-1.176.202-.112.453-.008.61-.314-.092-.063-.044-.155-.175-.211zm1.913 5.712c.07.264.425.248.63.3.542-1.115 1.655-1.865 2.481-2.627.02-.065-.007-.12-.1-.163-1.09.303-2.318 1.38-3.011 2.49zm-3.684-6.633c-1.38.3-2.574 1.37-3.805 2.286.943.82 1.904-.514 2.7-1.188.587.036 1.06-.409 1.543-.82l-.439-.278zm4.955 7.537c1.072.547 2.211-1.8 2.49-2.318-.777.828-1.886 1.625-2.49 2.318zM21.138 4.094c.238-.093.938-.268.715-.645-.216.144-.754.3-.715.645zm-.292 5.311c-.503 1.525-2.168 3.222-3.073 4.85-.21.378-.274.748-.56 1.044-.65.674-1.125.298-1.784.069-2.664-.927-5.31-.087-7.434 1.386-1.059.733-2.507 1.728-3.008 3.292 3.63 1.594 6.917 4.451 10.586 6.407 1.386.738 2.783 1.39 4.101 2.099 2.518 1.355 4.934 2.673 6.886 4.163.513-.595.47-1.55 1.103-1.9-.177-.923.364-1.731.313-2.599-.045-.836-.586-1.475-.602-2.28-.404-.566-.822-1.288-1.402-1.989-.578-.697-1.282-1.368-1.36-2.06-.09-.826.548-.865.978-1.38.149-.18.22-.52.378-.76.976-1.48 3.054-3.708 3.154-5.297-2.476-1.771-5.679-3.099-8.276-5.045zm-1.837 24.723c.547.548.78-.27 1.053-.533.493-.475 1.169-.87 1.58-1.198-.789-1.216-2.182.671-2.633 1.73zm1.388.879c1.033.198 1.37-1.526 2.313-2.032.018-.067-.01-.123-.1-.165-.785.443-1.772 1.155-2.213 2.197zm1.406.691c.492.248 1.05 1.113 1.382 1.375.29-1.195 1.142-2.073 2.055-2.596-.688-.245-1.042-.713-1.754-1.111-.689.82-1.047 1.462-1.683 2.332zm-4.885-2.796c.653-.29 1.156-1.416 2.001-2.03-.755-1.152-2.518 1.236-2.001 2.03zm2.653-1.117c.104-.107.5-.301.39-.453-.125.02-.522.214-.39.453zm-4.645.054l.44.279c.608-.537 1.123-1.528 1.855-2.122-.697-1.197-2.287.876-2.295 1.843zm-11.15-6.165c.92.143 1.727-1.582 2.32-2.528-.09-.063-.044-.156-.174-.21-.81.82-1.576 1.668-2.146 2.738zm4.95-.862c-.771-.748-1.937 1.324-2.02 2.219.654-.818 1.356-1.443 2.02-2.219zm2.166 1.274c-.429.198-.901.846-.934 1.307-.211.248-1.05.812-.647 1.188.924-.312 1.192-1.496 1.974-2.147-.036-.137-.208-.245-.393-.348zm2.9 4.636c.6-.364 1.272-1.176 1.63-1.766-.922-.717-1.661 1.289-1.63 1.765zm-2.55-2.116c.324-.484 1.218-.998 1.139-1.477-.538.149-1.157.912-1.14 1.477zm.891 1.664c.762-.19.938-1.39 1.736-2.098-.663-.957-2.404 1.482-1.736 2.098zM3.25 24.242c.427-.41 1.38-1.294 1.367-1.833-.468.287-1.395 1.169-1.367 1.833zm4.935 3.526c.393-.603 1.028-1.243 1.102-1.9-.436.33-1.466 1.215-1.102 1.9zm.912 5.675c.352-.396 1.05-1.31.82-1.779-.411.511-1.187 1.32-.82 1.779zm-.515.973c.368-.141.472-.588.397-.948-.293.139-.57.713-.397.948z"/></g></g></svg>