<svg xmlns="http://www.w3.org/2000/svg" width="61" height="61" viewBox="0 0 61 61"><g><g><path fill="#daa520" d="M60.93 22.797a.455.455 0 0 1-.556.184 9.414 9.414 0 0 1-1.118-.515.425.425 0 0 1-.568.136c-.344-.191-.699-.383-1.053-.572.972.544 1.956 1.115 2.858 1.785.188.14.236.4.11.603a.451.451 0 0 1-.587.175 57.26 57.26 0 0 1-1.868-.941c.148.158.292.32.43.486.187.227.17.547-.044.78-.213.23-.53.277-.775.113-.926-.621-1.783-1.372-2.612-2.097a71.764 71.764 0 0 0-.829-.72c.124 2.397-.052 4.835-.221 7.198-.03.4-.058.8-.085 1.197l-.03.43c-.181 2.632-.369 5.355-.357 8.031.012 2.584.147 5.21.278 7.75l.052 1.03c.026.502.055 1.008.086 1.517.107 1.792.217 3.64.121 5.455.665.028 1.261.071 1.816.133a.622.622 0 0 1 .574.618c0 .314-.24.567-.569.601-.595.062-1.235.103-1.948.126l-.021.165a.503.503 0 0 1-.173.322l1.14.03c.22.006.39.18.39.398a.387.387 0 0 1-.383.387c-.398.01-.797.018-1.196.024l.003.02c.038.329.076.657.117.986a.401.401 0 0 1-.343.447.415.415 0 0 1-.478-.315 22.93 22.93 0 0 1-.213-1.127c-2.949.03-5.925-.023-8.872-.103a.362.362 0 0 1-.357.282h-.003l-.196-.002c-5.843-.055-11.885-.113-17.828-.247-.79-.018-1.58-.04-2.368-.064a.518.518 0 0 1-.64-.02l-1.58-.055a.39.39 0 0 1-.27.656c-3.334.131-6.36.302-9.246.523-.744.057-1.495.125-2.17.19.072.595.141 1.19.209 1.786A.375.375 0 0 1 9.18 61a.38.38 0 0 1-.374-.309 122.58 122.58 0 0 1-.33-1.81c-1.946.186-3.957.379-5.939.422a.38.38 0 0 1-.392-.354.378.378 0 0 1 .328-.411c1.944-.268 3.95-.403 5.856-.512-.061-.369-.122-.74-.18-1.11l-.212-.008a.43.43 0 0 1-.334-.17c-1.401-.138-2.628-.415-3.742-.843a.516.516 0 0 1-.296-.668.52.52 0 0 1 .645-.342c.802.241 1.66.415 2.593.525a.37.37 0 0 1-.013-.045c-.052-.23-.1-.459-.144-.689-.87-2.676-.893-5.591-.917-8.41v-.081c-.005-.55-.003-1.1 0-1.648-.057-3.47.088-7.01.242-10.339.008-1.621-.009-3.38-.054-5.523-.009-.444.002-.904.012-1.348.02-.82.04-1.669-.066-2.453-.006-.05-.022-.12-.04-.202-.016-.077-.035-.163-.052-.252-.197.151-.395.302-.595.451a.459.459 0 0 1-.6-.033A106.593 106.593 0 0 1 .73 27.8a.458.458 0 0 1-.625-.082.436.436 0 0 1 .028-.607 98.865 98.865 0 0 1 1.846-1.7.538.538 0 0 1-.205-.268.487.487 0 0 1 .052-.417c.31-.486.758-.86 1.192-1.22.147-.122.293-.243.43-.366.535-.482 1.07-.966 1.6-1.453a258.847 258.847 0 0 0 3.349-3.129c.273-.26.545-.523.818-.785l.34-.326c-.029-.495-.004-1 .021-1.492.016-.31.03-.602.032-.882l.012-2.224.009-1.354a.496.496 0 0 1 .115-.317c-.01-.35-.028-.663-.052-.955l-.001-.02a7.911 7.911 0 0 1-.259-.019.51.51 0 0 1-.095.012 1.953 1.953 0 0 1-.586-.07.431.431 0 0 1-.47-.223.526.526 0 0 1-.122-.517 3.525 3.525 0 0 1-.015-.456.396.396 0 0 1-.211-.285c-.102-.574-.064-1.223.115-1.982a.46.46 0 0 1 .098-.193.5.5 0 0 1-.333-.428.546.546 0 0 1 .484-.606 87.592 87.592 0 0 1 4.866-.433c.296-.017.6-.04.91-.064 1.249-.096 2.54-.195 3.73.059.228.048.386.249.387.487 0 .135-.054.26-.144.347.063.74.128 1.633-.07 2.38a.446.446 0 0 1-.144.227c.267-.012.534-.025.8-.041a.69.69 0 0 1 .276.04l.803-.758.371-.351a.428.428 0 0 1 .323-.304 474.944 474.944 0 0 1 3.815-3.57A51.996 51.996 0 0 0 25.994.842a.473.473 0 0 1 .655-.146c.124.076.2.197.219.328.34-.311.681-.622 1.023-.932a.465.465 0 0 1 .637.016c.178.17.195.435.04.617a21.276 21.276 0 0 1-.135.16l.076.044c.776.262 1.482.74 2.054 1.187a.527.527 0 0 1 .774-.105 139.773 139.773 0 0 0 5.346 4.259c.46.324.923.65 1.386.98a.482.482 0 0 1 .135-.31.47.47 0 0 1 .664-.023c2.868 2.65 6.245 5.227 10.629 8.11.44.29.883.578 1.328.864l.462.28c1.194.72 2.429 1.466 3.617 2.242a.446.446 0 0 1 .116.109l.114.07 1.979 1.203 1.018.62c.193.116.392.233.593.35.732.43 1.49.875 2.12 1.44.169.152.204.4.086.592zm-10.742-5.619a.436.436 0 0 1-.124-.243c-.37-.226-.736-.455-1.106-.69l-.012.021a.408.408 0 0 1-.03.046c.53.38 1.026.743 1.505 1.095a12.738 12.738 0 0 1-.233-.229zm-32.695-7.39l-1.07.075c-.014.2-.039.391-.057.534-.01.075-.018.137-.02.178l-.03.346c.391-.378.784-.755 1.177-1.132zm-3.527 2.436l-.005.001.004.005.001-.006zm-.337.478c-.01.001-.014.01-.026.01-.156 0-.207-.179-.136-.27l-.007.006a.179.179 0 0 0-.046.116c0 .094.09.16.168.16a.164.164 0 0 0 .052-.008c-.003-.004-.002-.01-.005-.014zm-.162-.26zm.048-.021c0-.006-.005-.009-.006-.014a.215.215 0 0 0-.037.03c.011-.009.03-.01.043-.016zm-.043.016zm-.114.548c.01.257.023.508.04.755l.464-.448.036-.34a.524.524 0 0 1-.54.033zm-1.742 1.74l.007.106.006-.004a77.51 77.51 0 0 1-.013-.101zm-.482-4.384c.019.594.058 1.208.096 1.802.023.356.045.713.064 1.07.075-.008.149-.015.221-.02l.004-.041c.02-.46.106-.857.259-1.203a.44.44 0 0 1 .474-.261.49.49 0 0 1 .176.065c.007-.077.015-.154.025-.23a.394.394 0 0 1 .396-.346c.207 0 .382.152.407.354.026.202.043.403.058.603a.501.501 0 0 1 .31-.075l.004-.004a.51.51 0 0 1 .516-.138.471.471 0 0 1 .188-.05c.19 0 .345.142.362.328.007.095.01.19.01.285l.28-.272c.026-.315.062-.63.097-.935a38.2 38.2 0 0 0 .052-.462c.008-.284.01-.568.012-.853-.475.035-.95.069-1.425.1-.258.016-.521.036-.788.055-.598.045-1.207.09-1.816.108.01.038.017.078.018.12zM16.5 6.403a.39.39 0 0 1 .266.067c.004-.055.01-.11.015-.163-.058-.018-.108-.041-.15-.06l-.023-.01a2.349 2.349 0 0 0-.111-.048.31.31 0 0 0 .003.214zM7.724 54.072l-.035-.255.018.26.017-.005zm1.924-3.642H9.62a.442.442 0 0 1 .02.042l.007-.042zm-.724-.081v.006l.003.062a.397.397 0 0 1 .044-.056.4.4 0 0 1-.047-.012zm43.058 2.3c-.058-1.81-.102-3.635-.144-5.409l-.017-.704c-.018 2-.039 4.06-.1 6.092l.261.022zm-26.894 1.972a13.366 13.366 0 0 1-2.109-.378.478.478 0 0 1-.278-.195c-.18-.015-.359-.031-.537-.05.074.246.154.482.24.71.897-.037 1.794-.066 2.684-.087zm-1.835-2.826a.464.464 0 0 1-.281-.613.511.511 0 0 1 .66-.304c1.397.515 2.87.706 4.268.777 0-.17.094-.326.247-.403.239-.117.491-.195.749-.25a141.231 141.231 0 0 1-4.398-.406l-.93-.095a.474.474 0 0 1-.407-.616.451.451 0 0 1-.161-.31.428.428 0 0 1 .39-.467l.027-.002a.547.547 0 0 1-.228-.298.501.501 0 0 1 .172-.555c.319-.242.824-.149 1.192-.08.078.014.147.027.201.034l.217.026c.654.078 1.27.153 1.905.154h.086a545.892 545.892 0 0 1 1.49.003.479.479 0 0 1-.38-.605l-1.36-.06a170.298 170.298 0 0 0-4.76-.173.435.435 0 0 1-.432-.436.45.45 0 0 1 .446-.452c2.275-.033 4.721 0 7.673.104a55.142 55.142 0 0 0-.007-.433c-.632-.022-1.268-.05-1.887-.078-.99-.044-2.014-.09-3.008-.109a52.558 52.558 0 0 0-.586-.006c-.93-.008-1.89-.016-2.771-.211a57.11 57.11 0 0 0 .011 1.941c.039 1.658.128 3.422.508 5.12 1.895.211 3.83.089 5.703-.03.476-.03.964-.06 1.451-.086a.47.47 0 0 1 .062-.158c-2.37-.029-4.243-.325-5.862-.923zm10.973.309l.308-.019.007-.053.057-.42a24.22 24.22 0 0 0-.283.022c-.028.157-.058.314-.089.47zm1.367 1.21c.216.004.428.008.638.01l.014-.114c-.203.004-.415.01-.639.018l-.012.087zm.155-1.283c.234-.007.455-.012.666-.014l.06-.408a8.285 8.285 0 0 0-.68-.036l-.012.122-.034.336zm-6.71-10.974l.28.005-.014-.151c-1.257.03-2.563.042-3.967.037a.41.41 0 0 1-.036.068h.38c1.178 0 2.314.019 3.357.041zm-7.45 3.987l.04.002c.056 0 .11.01.16.03.146.005.292.007.438.009.143.002.286.003.43.008l.469.015c.538.019 1.097.038 1.639.033 1.156-.01 2.338-.022 3.525-.019-.677-.03-1.351-.066-2.014-.1-1.6-.084-3.255-.17-4.87-.184l-.007.21c.078-.01.148-.006.19-.004zm13.284.941l.257-.004.013-.212-.24.008a.493.493 0 0 1-.03.208zm1.543-3.953c.28-.007.556-.012.824-.015l-.004-.202c-.272.008-.544.019-.815.028h-.004l-.001.189zm-.002-1.289c.241-.005.509-.011.785-.014l-.01-.197c-.255.016-.512.018-.778.014l.003.197zm.677-1.43l-.009-.083h-.7l.002.065c.225.01.46.018.694.018h.013zm-.737 5.285c.293 0 .571.003.84.008l.012-.335c-.28-.004-.562-.012-.838-.02a70.65 70.65 0 0 1-.014.347zm-.068 1.36c.257-.008.543-.018.834-.032l.014-.208c-.279.009-.557.015-.836.022l-.012.217zm-.077 1.154l-.017.232h.198a.59.59 0 0 1 .57.422c.025-.244.048-.482.07-.714l-.821.06zm-5.941-7.898l.064.563a43.5 43.5 0 0 0 1.187-.09l-.061-.469h-.593c-.2 0-.398-.002-.597-.004zm4.998.034v-.017h-.137l-.336.003v.004l.077.001a32.37 32.37 0 0 0 .396.01zm.02 1.284h-.006c-.139.026-.282.05-.434.073l.005.183.204-.006.232-.007-.001-.243zm-2.866-2.5l-.05-.006.001.007.049-.002zm1.288 2.766v-.059c-.284.026-.585.048-.907.066l.002.021c.3-.017.6-.025.905-.028zm-2.32 2.587c-.236-.006-.47-.014-.706-.021l.033.434c.182-.167.405-.304.673-.413zm-.8-1.123c.402.005.805.008 1.208.012a.144.144 0 0 1-.001-.018c-.404-.012-.808-.027-1.211-.044 0 .017.003.033.004.05zm1.082-1.299l-.01-.109c-.407.013-.81.022-1.208.03l.02.198.097.001.89.014a.483.483 0 0 1 .211-.134zm.9-1.757l.05.325c.286-.143.631-.232 1.056-.274v-.01c-.333 0-.695-.01-1.052-.042l-.055.001zm2.294 5.015l-.005.282a.481.481 0 0 1 .03.114l.314-.007.017-.386a24.567 24.567 0 0 0-.356-.003zm-4.726-6.133l.438-.001c.22-.002.453-.006.72-.013l-.1-.648h-.01c-.375.01-.75.015-1.122.02zm1.854-2.032c.406-.083.834-.143 1.293-.181-.13-.01-.252-.021-.37-.033a.434.434 0 0 1-.398-.44c0-.224.162-.411.38-.443a23.7 23.7 0 0 0-1.134.006c.081.377.157.739.229 1.09zm4.723.901c-.47-.023-.944-.039-1.417-.046l-.136.044c.164.006.333.015.507.024a.577.577 0 0 1 .184.01c.295.016.589.035.881.056l-.02-.088zm-.075 11.503a.58.58 0 0 1 .013.125c0 .318-.242.559-.56.559h-.048l-.01.108h.055a.6.6 0 0 1 .61.613.613.613 0 0 1-.623.629h-.167l-.002.014c.253.023.49.055.715.1a101.945 101.945 0 0 0 .289-2.376.528.528 0 0 1-.272.228zm-1.786.794h.006l.002-.02a.24.24 0 0 1-.008.02zm2.383-14.162v.001c.1.018.2.036.297.055a2.923 2.923 0 0 1-.145-.066l-.152.01zm.923 1.939a.52.52 0 0 1-.152.009l-.075-.006.045.142c.127.06.224.167.27.302-.027-.15-.057-.3-.088-.447zm.042.917l.033.129c.041.002.08.009.118.019a20.376 20.376 0 0 0-.075-.454.576.576 0 0 1-.076.306zm-.999 16.67l.032.001c.027-.153.055-.305.081-.458l.037-.203c-.048.229-.098.448-.15.66zM21.45 43.85h.935c2.706 0 5.01.035 7.15.11a78.285 78.285 0 0 0-.04-.634l-.33-.01c-1.686-.052-3.4-.124-5.056-.194-.61-.026-1.219-.052-1.828-.076a.494.494 0 0 1-.477-.517.476.476 0 0 1 .497-.463c2.553.076 4.882.135 7.115.18l-.006-.08-.737-.025c-2.005-.064-4.369-.123-6.707-.075a.463.463 0 0 1-.361-.147 38.94 38.94 0 0 0-.155 1.931zm8.14 8.931a.155.155 0 0 0-.012-.004l.006.036v-.002l.005-.03zm-.045.027l-.001.012.04-.006zm-18.9.602c-.01-.135-.019-.271-.027-.407a.458.458 0 0 1-.137-.05c.01.244.013.484.01.718l.168-.03-.015-.23zM21.69 41.182a.498.498 0 0 1 .264-.089c.431-.02.862-.035 1.293-.047l-.375-.06-.493-.077a.47.47 0 0 1-.398-.503.466.466 0 0 1 .458-.44l1.517-.021c1.722-.024 3.498-.048 5.248-.115l-.059-.628-1.074-.018c-.67-.012-1.359-.024-2.043-.03a.49.49 0 0 1-.576.296 5.72 5.72 0 0 0-.65-.105c-.334-.041-.679-.083-1.035-.213a.508.508 0 0 1-.341-.444l-.996-.22 1.028.006a.516.516 0 0 1 .463-.33c1.548-.077 3.118-.07 4.637-.061l.477.002-.061-.622c-.403.006-.835.015-1.275.031a.466.466 0 0 1-.463.354c-.72-.002-1.5-.011-2.275-.168a.475.475 0 0 1-.387-.475.516.516 0 0 1 .398-.51c1.269-.277 2.564-.341 3.889-.371l-.036-.365c-.028-.3.19-.56.498-.591a.49.49 0 0 1 .552.443l.055.492c.302-.006.602-.013.902-.023l.171-.006c-.072-.43-.147-.856-.223-1.275l-.51.023c-.79.037-1.604.074-2.416.068a.485.485 0 0 1-.404-.226c-2.004.539-3.482 1.304-4.505 2.332a.451.451 0 0 1-.536.079.435.435 0 0 1-.008.19 29.101 29.101 0 0 0-.711 3.717zm30.454 15.559a35.38 35.38 0 0 1-.02-.425c-.477-.004-.957-.014-1.43-.024a.406.406 0 0 1-.403.342l-1.75.01 3.603.097zM7.412 23.83a71.6 71.6 0 0 0-.044.45.4.4 0 0 1 .398-.158c.112.02.207.082.269.168l.015-1.228-.193-.016-.325-.026-.018.014-.411.336a.43.43 0 0 1 .31.46zM33.14 9.734c1.441.173 2.927.352 4.392.447-.542-.345-1.09-.69-1.646-1.035a.434.434 0 0 1-.343.196c-1.2.067-2.41.05-3.58.035-.714-.01-1.439-.019-2.165-.01 1.124.1 2.239.235 3.342.367zm-5.73-1.73a.414.414 0 0 1 .404.514c2.417-.244 4.865-.188 6.926-.077l-.844-.51-.088-.054-.565-.34a.437.437 0 0 1-.492.342c-.66-.09-1.328-.202-1.974-.31a55.63 55.63 0 0 0-2.439-.37.495.495 0 0 1-.489.266c-1.143-.099-2.286-.035-3.444.074.933.302 1.922.454 3.005.466zm4.722-1.15c-1.57-.986-3.096-2.061-4.342-3.413a930.62 930.62 0 0 1-2.627 2.68c.395-.033.792-.048 1.188-.048 2.021 0 4.02.391 5.781.781zm17.738 11.88c-2.702-2.012-5.515-3.962-8.164-5.787a141.78 141.78 0 0 0-3.316-2.213.405.405 0 0 1-.384.302c-2.16.08-4.32-.171-6.407-.415-2.643-.308-5.375-.627-8.077-.257a.465.465 0 0 1-.531-.401.476.476 0 0 1 .408-.545 21.683 21.683 0 0 1 2.563-.202.458.458 0 0 1 .156-.404c-.962-.066-1.997-.254-2.659-.824a.382.382 0 0 1-.067-.074 874.56 874.56 0 0 1-5.823 5.84c4.097-.331 8.429-.375 12.884-.13 3.993.218 8.695.557 13.29 1.413.25.046.413.267.378.513a.492.492 0 0 1-.528.42 225 225 0 0 1-5.375-.541c-2.562-.278-5.213-.566-7.83-.716-4.878-.278-9.219-.263-13.272.049a.499.499 0 0 1-.407-.157c-.589.581-1.178 1.158-1.76 1.722h.05c5.653 0 11.613.103 17.396.967a.4.4 0 0 1 .338.45.405.405 0 0 1-.44.358c-6.574-.636-12.515-.959-18.16-.987-.575.552-1.114 1.062-1.63 1.543 3.639-.466 7.36-.27 10.964-.082 1.296.068 2.636.138 3.944.176a.408.408 0 0 1-.003.816c-2.004.049-4.036-.044-6-.133-3.11-.141-6.327-.287-9.471.134a.408.408 0 0 1-.318-.092l-.257.235c1.823-.213 3.834-.282 6.107-.212 3.426.106 6.536.41 9.504.928.241.042.406.263.375.504a.433.433 0 0 1-.472.378c-.922-.071-1.844-.15-2.767-.228-4.643-.398-9.443-.808-14.112-.15-.429.376-.83.723-1.21 1.047 1.898.06 3.827-.027 5.701-.111.898-.04 1.827-.083 2.74-.108 3.804-.104 7.257-.18 10.552-.234 2.009-.031 3.654-.05 5.178-.056.364-.001.73-.005 1.096-.01 1.396-.017 2.84-.035 4.245.112.263.027.454.24.455.507a.515.515 0 0 1-.462.523c-1.307.14-2.65.14-3.948.14-.437 0-.873 0-1.306.006-1.658.02-3.316.04-4.974.064-2.7.037-5.446.088-8.1.138l-1.05.02c-1.033.02-2.087.052-3.107.082-2.097.064-4.266.13-6.395.09a15.251 15.251 0 0 1-.58-.022c.024 1.645.04 3.291.055 4.936.04 4.197.08 8.536.253 12.8a.436.436 0 0 1-.427.456.456.456 0 0 1-.477-.432c-.189-4.843-.258-9.955-.21-15.56a77.178 77.178 0 0 0-.316 3.475.418.418 0 0 1 .189.352c.002 4.864.13 9.671.377 14.288l.033.59a.375.375 0 0 1 .303-.159c.192 0 .363.15.375.348.032.541.073 1.087.118 1.63h.174l.008.677-.124.002.06.66c.075.84.152 1.708.21 2.568l.329-.004.01-.052a.372.372 0 0 1 .122-.214 15.532 15.532 0 0 1-.034-2.339.397.397 0 0 1 .397-.371.386.386 0 0 1 .394.36c.043.507.083 1.014.122 1.52.043.543.086 1.086.132 1.629.034.045.06.097.074.156.017.073.032.146.045.22h.002a.41.41 0 0 1 .41.373c.079.785.163 1.688.183 2.587a.38.38 0 0 1 .02.514l.08.007a.396.396 0 0 1 .35.49.385.385 0 0 1 .194.463c.4-.061.807-.12 1.222-.175a.386.386 0 0 1 .401.216h.08c.475 0 .99.01 1.583.028 1.844-.166 3.7-.296 5.52-.39a15.858 15.858 0 0 1-.383-1.594c-.332-1.706-.494-3.567-.48-5.531.028-4.215.45-7.526 1.326-10.42a.451.451 0 0 1 .63-.273.442.442 0 0 1 .086-.366c1.492-1.895 4.24-3.077 8.405-3.614 1.792-.232 3.337-.23 4.724.007.42.07 1.11.188 1.743.425a.488.488 0 0 1 .222-.22.487.487 0 0 1 .65.2c1.411 2.523 2.021 5.555 1.919 9.542-.045 1.76-.227 3.462-.4 4.896-.042.352-.08.71-.117 1.069-.126 1.207-.257 2.456-.59 3.63a30.044 30.044 0 0 1-.333 2.113c1.148.014 2.295.03 3.442.047l.235.003-.008-.673.681-.007.009.676-.477.007 1.94.028a.38.38 0 0 1-.056-.158.382.382 0 0 1 .306-.425c1.471-.288 2.98-.297 4.316-.264a25.433 25.433 0 0 1-.117-2.697.38.38 0 0 1 .363-.381.397.397 0 0 1 .337.152c.005-.23.016-.464.033-.698a.384.384 0 0 1 .243-.33.393.393 0 0 1 .395-.356h.008c.031-.963.112-1.928.242-2.882a.428.428 0 0 1 .268-.342.45.45 0 0 1 .234-.03c.02-.954.044-1.904.068-2.844.018-.746.038-1.492.054-2.236.04-1.8.085-3.597.133-5.38h-.172l-.009-.676.2-.004c.058-2.109.12-4.197.18-6.25a.43.43 0 0 1 .017-.11c-.013-1.095-.019-1.987-.02-2.803 0-.167.087-.316.232-.399a.475.475 0 0 1 .47-.004c.136.078.218.22.218.38.003 3.172.076 6.375.174 9.552.09-1.787.23-3.566.367-5.31l.02-.3a91.62 91.62 0 0 0-.176-6.34.385.385 0 0 1 .36-.41.384.384 0 0 1 .248.066c.033-.506.068-1.01.106-1.513a.495.495 0 0 1 .087-.244 127.853 127.853 0 0 0-3.552-2.743zM11.425 57.42a.447.447 0 0 1-.48-.4c-.556-.022-1.112-.042-1.669-.063l.036.47a.376.376 0 0 1-.096.276l.034.272.141-.008c.796-.044 1.59-.088 2.38-.14l.474-.03c2.36-.153 4.79-.31 7.203-.427-1.32-.051-2.622-.106-3.88-.159-1.422.054-2.816.124-4.143.209zM7.885 55.2h-.248a.412.412 0 0 1-.059.284c.116.009.233.017.352.024l-.045-.308zM9.82 6.433c.016.282.016.564.009.875a.272.272 0 0 1 .034.018.403.403 0 0 1 .33-.03.4.4 0 0 1 .267.457.394.394 0 0 1 .259.08.704.704 0 0 1 .2.24.389.389 0 0 1 .148.158.37.37 0 0 1 .09.153c.24-.045.483-.09.728-.126a82.162 82.162 0 0 1 2.113.328.523.523 0 0 1 .045-.056.35.35 0 0 1-.149-.292.356.356 0 0 1 .327-.349c.208-.017.402.006.588.029.124.015.24.029.351.03h.002c.049 0 .097.01.14.028L15.3 7.92a.425.425 0 0 1-.146-.228.409.409 0 0 1 .127-.422l.069-.047a.431.431 0 0 1 .209-.054c.205-.02.41-.018.61-.013a15.808 15.808 0 0 1-.004-.383c0-.18.123-.327.292-.364a.345.345 0 0 1-.001-.237 1.736 1.736 0 0 0-.087-.031 28.69 28.69 0 0 1-1.934.034c-.547-.002-1.065-.004-1.576.019-1.04.047-2.056.107-3.026.18a.451.451 0 0 1-.014.058zm17.898-4.736l-.176.196a.38.38 0 0 1 .048.001.702.702 0 0 1 .58.175c.122.11.198.252.22.401 1.533 1.33 3.243 2.56 5.42 3.89a61.061 61.061 0 0 1-2.228-1.857c-.218-.19-.44-.396-.668-.607-.317-.291-.644-.593-.98-.877-.546-.371-1.093-.739-1.642-1.105a3.858 3.858 0 0 0-.574-.217zm24.215 23.658l-.009-.676.681-.007.008.676-.343.007zM39.25 12.994c-.571.027-1.144.04-1.716.04-1.972 0-3.942-.143-5.862-.283-3.317-.241-6.747-.49-10.117.013a.439.439 0 1 1-.133-.867c.916-.154 1.87-.267 2.881-.34a9.418 9.418 0 0 1-1.747-.576.392.392 0 0 1-.208-.49.393.393 0 0 1 .465-.253c2.326.558 4.064.85 5.809.975.493.036.987.067 1.48.098 1.312.083 2.669.17 4.001.338a.442.442 0 0 1 .29.16l.589.046c1.402.11 2.85.223 4.264.299a.422.422 0 0 1 .396.425.41.41 0 0 1-.392.415z"/></g></g></svg>