<svg xmlns="http://www.w3.org/2000/svg" width="31" height="52" viewBox="0 0 31 52"><g><g><path fill="#daa520" d="M26.513 23.625c-1.062-.235-1.717.577-2.567.838-.229.182.19.602-.097.84-.552-.125-.907-.059-1.481 0-.528 1.71.941 2.98 1.085 4.66-.964.673-2.595.718-3.36 1.585.139 1.513 2.648 2.05 1.482 3.636-1.458.515-2.813 1.13-4.144 1.773.211 1.59 2.009 1.9 1.877 3.54-.913 1-2.549 1.323-3.554 2.24.28 1.65 2.538 2.428 1.28 4.005-.362.176-.546-.06-.885.095-2.014 1.185-4.575 2.036-6.613 3.264-.861.512-1.533.984-1.975 1.862-.614.128-1.246.01-1.78-.184-1.136-2.253-2.67-4.132-5.23-5.037-.545-.734-.873-1.309.098-1.77.81-1.626 1.194-3.66 2.073-5.221.55-1.992 1.24-4.09 2.273-5.87.35-2.711 1.894-5.512 2.17-8.299C5.54 24.506 3.95 23.4 2.624 22.04c-.431-1.025-1.023-1.895-1.58-2.797-.786-2.427-1.389-5.918-.298-8.39.075-.285-.097-.34-.097-.559 1.39-2.843 3.019-5.348 5.626-7.086.62-.412 1.344-1.038 1.975-1.304 1.332-.566 3.34-.598 4.541-1.399 2.555-.685 5.385-.772 8.193.092 3.755 1.156 6.855 4.563 8.687 7.645 1.062 1.786 1.767 6.1.987 8.672-.379 1.25-1.648 3.627-2.366 4.847-.373.626-1.464 1.005-1.78 1.864zM12.493 2.184c-.241.11-.19.501-.494.558-.442.17-1.217.03-1.676.187-3.474 2.041-7.045 4.174-7.9 8.297-.511 2.488-.345 5.143.2 7.179 1.556 2.6 5.345 3.092 7.108 5.5.212.816-.43 1.368-.689 2.144-.155.45-.069 1-.201 1.49-.384 1.432-1.355 3.657-1.774 4.847-.89 4.63-3.123 7.422-4.048 12.028-1.331 1.304.46 2.16 1.482 3.077.959.861 1.688 2.236 2.566 2.328 2.55-1.567 5.696-2.575 7.992-4.38-.459-1.028-1.13-1.852-1.872-2.61.11-.27.178-.578.196-.933.539-.298 1.188-.404 1.877-.746.425-.212 1.487-.677 1.579-1.12.201-.972-1.958-2.55-1.78-3.635.115-.648.884-.685 1.48-.837.989-.252 1.861-.9 2.769-1.214-.156-.613-.632-1.5-.988-1.863-.275-.284-.649-.235-.792-.56-.775-1.787 2.945-1.928 3.456-2.795-.207-.873-.167-1.898-.494-2.798-.143-.393-.568-.645-.591-1.025-.075-1.117.988-1.344 1.78-2.052-.07-.65-.5-.962-.597-1.586 1.074-.859 1.579.827 2.078 1.4.528-.277 1.08-.532 1.579-.838-.275-.955-1.395-1.5-1.085-2.706 1.452-.601 1.527 1.31 2.463 1.773.442-.24.677-.67.89-1.12-.678-.577-2.107-1.67-1.184-2.61.92.158 1.207.91 1.976 1.212.063-.377.476-.808.293-1.117-.815-.548-2.957-1.366-1.872-2.518 1.068.198 1.562.946 2.463 1.304.201-.49.424-1.15.201-1.77-.89-.458-2.946-1.361-1.676-2.424.844.04 1.056.68 1.774.838.102-1.466-2.372-1.285-2.47-2.423-.028-.358.075-.72.495-.839.453.13.89.28 1.383.372-.017-.263-.183-.388-.201-.65-.958-.432-2.308-.491-2.858-1.307.051.848.051 2.868.195 4.38-.546 2.367-1.24 5.172-2.86 6.807-.27-1.41.815-2.513 1.28-3.914 1.12-3.38.201-7.44-.689-10.815.201-.215.448-.383.592-.651-2.566-2.196-7.171-3.09-11.356-1.865zM25.33 8.055c.533-.363.82-.84 1.676-.464-.534-.99-1.166-1.883-2.17-2.426.154.779.04 2.253.494 2.89zm-6.219 9.043c-.666.23-1.108.61-1.877.746-.872.154-1.734-.225-2.469-.092-.413.072-.73.517-1.085.557-1.01.117-2.75-.766-3.358-1.211-1.315-.96-2.888-3.486-2.268-5.221.252-.713 1.378-2.017 1.975-2.515 1.165-.987 3.192-1.874 4.34-2.052 1.584-.247 2.957.355 4.346 1.211.34.212 1.539 1.483 1.774 1.96 1.114 2.212.087 4.885-1.378 6.617zm-4.248-8.015c-.924.043-2.394.716-3.255 1.303-.753.51-1.809 1.63-1.878 2.423-.155 1.817 1.498 2.812 2.665 3.636 2.152-.328 4.781.637 5.924-1.025 1.751-2.537-.046-6.503-3.456-6.337zM13.48 24.276c.506.084 1.005.17 1.189.561-1.86 6.319-3.118 12.898-5.236 19.11-.023.806-.47 1.667-.69 2.516-.2.792-.04 1.93-1.084 2.052-.879-.48-.563-1.944-.396-2.705.924-4.21 2.847-8.541 3.359-12.491.188-.038.005-.426.39-.28-.253-.512.056-1.325.298-2.144.563-1.894 1.097-3.89 1.78-5.592.172-.3.04-.894.39-1.027z"/></g></g></svg>