<svg xmlns="http://www.w3.org/2000/svg" width="63" height="52" viewBox="0 0 63 52"><g><g><path fill="#daa520" d="M34.717 44.612c.504 1.108-.114 1.71-.963 2.068-.622.018-1.524-.704-1.93-.12-1.374-1.61-7.53-.276-5.55-3.525 2.957-.003 6.146.542 8.443 1.577zm5.43-22.294l-.778 4.058m23.592 3.768c-.166.477-.67.393-1.13.712-1.349.077-2.962.47-4.591.498-.838.485-2.18.066-3.25.357-.16 1.938 1.361 2.802 1.908 4.27.54.86 1.277 1.903 1.906 2.843.308.458 1.09 1.346.92 2.134-.12.551-1.8 1.334-2.62 1.719.043 2.24-.443 4.973-.636 7.04-.618.39-.906 1.114-1.449 1.58-1.099.266-2.242-.212-3.377-.244-1.823-.05-3.765.263-5.67.364-.763.042-1.435-.266-2.171-.24-.513.015-1.022.332-1.57.364-2.164.123-4.477.032-6.753.12-6.263.244-13.638-.298-20.147.12-2.604.168-5.585.31-7.839-.12-1.374-.263-2.923-1.21-4.463-1.216-.495-.554-1.065-1.035-1.569-1.58.126-1.295-.524-2.581-.483-4.01.047-1.643.924-3.014.846-4.37.28-.408.889-.484 1.325-.73-.115-1.68-.067-3.092 0-4.859.203-5.336-.566-11.138-.24-16.528.187-3.11.414-6.33.965-9.35.376-2.079.283-3.953.362-5.834.884-.346 1.92.228 2.532-.73C11.723 2.073 18.166.42 24.585.873c.7-.479 2.376-.456 3.74-.484 2.142-.042 4.386.154 6.757 0 4.607-.302 8.203-.52 12.424-.244 1.592.107 3.692.098 4.824.487 1.64.564 3.723 3.92 3.981 6.197.362 3.16.29 7.034.121 10.448a392.518 392.518 0 0 0-.275 6.794c2.023 1.037 4.034 2.09 5.602 3.583.332.652 1.508 1.611 1.202 2.491zm-10.525 4.128c-.218-.28-.278-.718-.706-.783-.275.275-.195.56-.282.995-.349 1.734-1.94 4.487-.848 5.48.62-1.769.813-4.15 1.836-5.692zm-.706 4.623c-.229 1.027-.978 2.399-.071 2.988.293-1.959.832-3.666 1.272-5.479.202-.102.516-.094.635-.283-.327-.335-.334-.993-.919-1.068-.393.995-.607 2.457-.917 3.842zM40.498 20.54c.222-.607.302-1.357.566-1.92 1.07-.699 3.096-.846 4.097.071.336.1.642.247.96.374-.172-3.261-.377-6.65-1.872-8.591-3.314.187-6.696-.118-10.133 0-2.348.079-4.675-.267-6.997-.244-4.66.044-9.34.893-13.75 1.216-.25 8.459-.504 19.229.119 27.7 5.048.028 9.703-.475 14.113-.484 1.164-.004 2.328-.093 3.5-.124 1.737-.044 3.714-.01 6.818.056l.054-.958c.05 0 .004-.308.054-.308.164-.814.247-2.197.212-2.773-.022-.006.058-.178.035-.183l.016-.207.23-1.53h.001c.205-1.433.574-3.072.565-4.481zm8.543-.072c.092.05.183.098.274.149.478-.146.617-.633.724-1.153 1.484-.855 2.15-2.536 3.5-3.521.175-.634.11-1.51.118-2.312h-.361c-1.027 1.254-1.848 2.657-2.775 4.01-.582.849-1.665 1.676-1.48 2.827zm-7.977 12.45c.454-2.247 1.757-4.015 2.12-6.118a.31.31 0 0 1-.213-.071c-.441.565-.444 1.142-.706 1.852-.414 1.118-1.07 2.35-1.413 3.483-.377 1.252-.332 2.577-.494 3.916-.041.337-.406.697-.07 1.066.196-1.381 1.433-2.782.776-4.128zm.566-7.325c.987-1.688 2.12-3.225 2.755-5.265H44.1c-.86 1.718-2.056 3.098-2.471 5.265zm1.624-5.62c-.838-.695-.658.894-.848 1.492.425-.354.746-.815.848-1.493zm-1.766 6.188c-.108 1.053-.336 1.987-.424 3.059.26-.141.41-.66.566-1.136.3-.925.707-1.554-.142-1.923zm1.838 0c.732-1.846 1.934-3.222 2.613-5.123-.268-.087-.4-.309-.778-.283-.455.73-.87 1.642-1.272 2.417-.4.776-1.366 1.923-1.2 2.918.292-.055.363.107.637.07zm.352 1.707c1.476-1.406 2.15-3.622 3.39-5.264-.06-.39.177-.487.14-.854-.112-.123-.294-.175-.564-.141-1.153 2.066-2.354 3.742-2.966 6.26zm1.413.142c.164.065.63.005.777 0 .861-1.88 1.95-3.536 2.824-5.406-.211-.144-.312-.396-.705-.356-.888 1.998-2.253 3.518-2.896 5.762zm8.205-10.126c-.782 1.169-1.922 2.19-2.79 3.37.267.134.54.243.81.363.506-.791 1.104-1.491 2.223-1.669-.143-.626.292-1.833-.243-2.064zm-2.908 5.645c-.476 1.275-1.001 2.501-1.836 3.415.018.825-.69.919-.565 1.85.798-.276.91-1.355 1.341-1.994.628-.927 1.333-1.913 1.766-2.915-.21-.144-.312-.395-.706-.356zm-1.413 5.976c.234.097.565.095.847.142.623-1.96 1.798-3.36 2.614-5.124-.198-.06-.289-.227-.565-.212-1.081 1.614-2.237 3.151-2.896 5.194zm3.523-7.344l.867.414c-.02-.494-.063-.974-.188-1.41-.215.343-.446.67-.679.996zM39.934 39.748c.713-.136.848-.85 1.413-1.136a415.453 415.453 0 0 0 3.038-8.894c.192-.226.458-.834.14-1.137h-.211c-.76 2.066-2.302 4.934-2.967 7.4-.251.926-.426 1.701-.354 2.487-.128.178-.32.293-.495.427-.224-.032-.248-.27-.493-.283-.05.351-.097.707-.071 1.136zm2.966-3.27c.421.091.394-.268.495-.498.533-.27.723-.886 1.06-1.354-.028-.857.596-1.058.565-1.92.82-1.024.893-2.8 1.907-3.627-.065-.556.441-.783.212-1.282 1.36-1.12 1.772-3.195 2.825-4.625-.17-.041-.322-.101-.565-.07-.115.264-.25.505-.495.641-.245 1.066-1.037 1.834-1.554 2.774-.471.859-.478 2.022-1.27 2.703-.252-.008-.257-.262-.567-.213a84.645 84.645 0 0 0-2.613 7.47zm2.402-2.206c.554.385.789-.448.918-.783.585-1.508 1.201-2.92 1.625-4.34-.014-.08-.079-.11-.141-.142-.216.07-.162.404-.495.354-.467 1.808-1.355 3.19-1.907 4.911zm1.625.78c.575-1.505 1.087-3.077 1.625-4.622.004-.123-.054-.183-.141-.215-.356.825-1.086 2.006-1.413 2.989-.184.552-.54 1.613-.071 1.849zm.706.784c.244.288.5.903.848.853.313-1.794.875-3.339 1.272-5.05-.191-.212-.404-.4-.637-.57-.583 1.499-1.113 3.054-1.483 4.767zm1.907 2.42c.235-.776.553-1.792.848-2.847.348-1.247 1.306-3.133.141-3.698-.4 1.11-.643 2.435-.989 3.769-.338 1.301-.78 2.166 0 2.776zm4.239-13.09c-.178-.131-.371-.244-.708-.215-.881 1.77-2.214 3.46-2.613 5.479.362-.039.53-.275.777-.427.634-1.828 1.783-3.138 2.544-4.838zm-.122-14.448c-2.037 1.428-2.996 3.946-4.824 5.589.102.481-.18.897 0 1.092 1.974-1.33 2.325-4.304 4.824-5.104.038-.539.25-1.096 0-1.577zm-.118-4.012h-.362c-.681.712-1.02 1.694-1.812 2.675-1.245 1.54-3.6 2.945-2.772 5.102.99-.852 1.688-2.093 2.772-3.4.972-1.176 2.818-2.095 2.174-4.377zm-8.93.85c1.128-.322 1.289-1.617 2.291-2.064.413-.598 1.573-2.343 2.294-1.092-1.087 1.453-2.44 2.644-3.137 4.493.28.083.325.403.605.488 1.416-1.694 2.946-3.268 4.1-5.225.635-.073.956.17 1.086.608-1.276 2.033-2.857 3.762-4.22 5.71.188.174.094.633.48.608 1.657-2.059 3.325-4.105 5.069-6.077-.76-1.951-3.318-1.809-5.55-1.821-.852 1.535-2.867 2.533-3.018 4.373zm-3.135-.243c1.113.912 1.623-.747 2.171-1.457.728-.937 2.133-1.653 2.292-2.796-2.501.4-3.234 2.575-4.463 4.253zm-2.17-3.277c.352-.013.447-.282.6-.488-.458-.098-.466.26-.6.488zm-5.188.364c.409-.118.746-.3.723-.852-.546-.026-.687.36-.723.852zm-2.415 3.278c2.808-.073 4.934-.108 8.084 0 .539-1.932 2.437-3.127 3.016-4.618-2.035.706-2.193 3.3-3.98 4.253-.999-.3-.12-1.874-.243-2.308-.395.452-.687 1.01-.965 1.58-.299.142-.71.177-1.085.243-.648-1.817 1.013-2.28 1.208-3.644-2.01.649-2.711 2.615-3.742 4.25-1.872-.174-.145-2.29-.362-2.67-.756.855-1.474 1.751-1.93 2.914zm-3.495-.245c.556.428 1.245.096 2.05.124.058-1.682.801-2.676 1.327-3.886-2.02-.126-2.458 2.379-3.377 3.762zm-1.81-.36c-.316-.036-.52.044-.483.36.14.105.325.162.603.124.293-1.406 1.633-2.404 1.81-3.521-.625.911-2.3 1.915-1.93 3.036zm-2.775.484h.483c.469-1.713 1.838-2.524 2.533-4.01h-.483c-.921 1.258-1.956 2.404-2.533 4.01zm-.965-1.944c.34-.187.884-.805.724-1.093-.222.383-.718.491-.724 1.093zm-.484.484c-.591.418-1.017 1.001-1.325 1.704.27.237.907.104 1.206 0 .05-.688.27-1.153.12-1.704zm-3.497 1.825c.557.199 1.029-.637 1.085-1.337.934-.722 1.656-1.653 2.173-2.793-1.73.728-2.406 2.517-3.258 4.13zm-3.016.487c.417.051.678-.05.963-.124.538-1.808 2.016-2.67 2.777-4.25-2.307.39-2.679 2.727-3.74 4.374zm-2.533.12c.34.33.871.171 1.327 0-.224-1.903 1.348-2.891 2.05-4.252-1.685.373-2.274 2.89-3.377 4.252zm.362-3.28c.201-.285.674-.295.603-.85-.325-.334-.997.479-.603.85zm-7.6 3.28C7 7.744 7.693 6.537 8.303 5.25c-2.012-.124-2.326 1.466-2.413 3.28zm0 2.673c2.322-1.751 4.016-4.136 5.79-6.438-1.76-.035-2.03 1.472-2.775 2.429C7.88 8.51 6.42 9.812 5.89 11.202zm-.484.728c.328-.01.582-.275.363-.484-.319-.038-.396.168-.363.484zm-.239 4.133c.323-1.014 1.18-1.488 1.327-2.676 2.277-2.524 4.836-4.766 6.753-7.654-.012-.146-.034-.285-.238-.241-2.249 2.635-4.519 5.251-6.876 7.775-.57.088-.214-.757-.845-.608-.07 1.026-.44 2.39-.12 3.404zm-.361 2.55c1.694-1.41 2.913-3.3 4.22-5.102.74-.352 1.122-1.058 1.449-1.825-.026-.136-.135-.186-.243-.24C8.498 12.9 7.31 14.9 6.01 16.79c-.66.178-.66-.31-.966-.484-.143.706-.138 1.561-.24 2.305zm5.184 15.555c-.478.823-1.317 1.893-1.325 2.79.63-.254 1.121-.652 1.69-.97-.137-.592.327-1.788-.365-1.82zm-1.567-3.164c.266-1.31 1.643-1.504 1.69-3.034H9.75c-1.283 2.556-3.635 4.035-4.585 6.926 1.297-1.083 1.913-2.853 3.256-3.892zm-1.325 5.105c.518-.652 1.292-1.045 1.325-2.185-1.116-.032-1.448 1.371-1.325 2.185zM4.923 25.415c.951-1.226 1.95-2.407 2.896-3.642.638-1.387 2.594-2.078 2.41-3.889-2.237 1.634-3.671 4.076-5.425 6.197.075.409-.158 1.128.12 1.334zm0 3.404c.566.12.688-.84.604-.972-.18.348-.626.424-.604.972zm.242 9.963c.797-.494 1.104-1.48 1.567-2.31-.439-.11-.989.704-1.567.85.121.592-.207 1.162 0 1.46zm1.689-9.355c1.26-1.489 3.271-2.856 3.376-5.105-1.312.665-1.471 2.489-2.773 3.16.126.9-.78 1.4-.603 1.945zm2.05 3.28c.26.175.878-.107 1.326-.123.162-.655.04-.981.123-1.82-.928.199-1.009 1.254-1.45 1.944zm1.569-12.027c-.028-.095-.101-.142-.243-.123-.917 1.343-2.012 2.511-2.773 4.01-.43.262-1.276.961-.603 1.579 1.235-1.792 3.286-2.764 3.619-5.466zm0-6.197c-.028-.095-.101-.143-.243-.123-1.536 1.776-3.25 3.366-4.1 5.832 1.321-2.03 3.585-3.11 4.343-5.709zm-5.67 7.29c.472-.215.764-.605.843-1.216-.273.06-.616.24-.842 0 .08.592-.215.804 0 1.216zm48.588 22.435l.052-.031a3.898 3.898 0 0 1-.654.268c-.644.186-1.249-.116-1.837-.286l-1.065-.724c-1.022-2.686-2.436-4.981-4.374-6.746-1.18 1.286-3.022 3.466-4.449 4.909-.474.482-1.199 1.323-1.765 1.424-1.242.22-1.457-.686-1.46-1.787-2.081-.011-3.111.064-4.085.1-1.254.04-2.55.072-3.86.12-1.992.073-3.95.265-6.032.364-1.719.08-3.466-.105-5.187 0-.864.054-1.684.218-2.534.244-.798.025-1.603-.13-2.411-.12-.992.009-2.01.357-3.015.363-2.651.007-5.44.73-7.36.485-.716 1.491-.74 3.857 0 5.346 4.799 1.513 10.028 1.361 15.561.851 2.855-.263 5.784-.1 9.167-.123 8.532-.048 16.956-.444 24.49-.605.204-1.066.695-2.809.818-4.052zm1.942-3.391c.305-.096.442-.361.777-.427-.158-.363-.269-.772-.637-.927-.043.477-.241.943-.14 1.354zm-.706-2.703c-.38 1.11-.757 2.227-.848 3.628 1.305-.296.446-2.433 1.342-3.06-.212-.144-.15-.56-.494-.568zm-.92-1.566c-.448 1.726-1.393 3.64-1.06 5.692.486-.36.304-.983.424-1.494.293-1.236.95-2.485.99-3.915-.204-.008-.123-.301-.353-.283zm1.131-10.955h-.282c-1.037 1.207-1.714 2.778-2.402 4.34.992.468 1.008-.48 1.271-1.14.372-.937 1.53-2.365 1.413-3.2zm.776 1.919c-.026-.56.502-.9.354-1.351h-.283c-.632 1.118-1.292 2.21-1.624 3.627 1.035-.238.822-1.731 1.553-2.276zm3.18.356c-.626-.461-1.18-.992-2.048-1.21-.433.988-1.002 1.84-1.273 2.989h.637c.57-.534.422-3.005 1.554-2.064-.26.594-.395 1.312-.567 1.993.326-.005.692.031.92-.07.24-.564.534-1.075.776-1.638zm1.412 1.422c-.144-.916-1.263-1.225-1.272 0 .485.189.769.042 1.272 0z"/></g></g></svg>