<svg xmlns="http://www.w3.org/2000/svg" width="67" height="45" viewBox="0 0 67 45"><g><g><path fill="#daa520" d="M31.972 8.676c4.138-1.08 7.518-2.907 12.186-3.463 1.815.414 1.64 3.5 4.062 2.753.364-1.106 2.274-1.168 3.52-1.6.605-.208 1.107-.615 1.535-.71 1.096-.241 2.045.062 2.798.443.505 1.102 1.544 1.676 1.894 2.932.869 1.171 1.748 2.521 2.438 3.909.7 1.402 1.581 2.778 1.896 4.264.16.11.366.172.451.355 1.19 3.368 2.671 5.94 3.702 9.502.377.443.644 1.007.45 1.779-.761.652-2.212.644-3.52 1.152-1.134.444-2.257 1.271-3.34 1.07-.756-.144-1.049-1.007-1.625-1.512-1.823 2.028-3.627 4.07-6.138 5.417-2.532.501-5.021 1.508-7.582 1.6-.338.01-.655-.187-.991-.088-.67.19-1.468 1.76-1.988 2.485-.317.443-.71.798-.992 1.245-.277.435-.422 1.04-.721 1.42-.267.337-.733.534-.996.89-.619.845-1.385 2.341-2.617 2.489-.673.076-2.33-.15-2.98-.268-1.796-.33-3.216-1.427-5.143-1.867-.768.48-.833 1.626-1.986 1.6-.826-.019-3.603-.608-4.151-.978-.39-.26-.475-.834-.813-1.156-.36-.337-.973-.38-1.445-.71-.48-.333-1.062-.867-1.444-1.241-.736-.725-1.171-1.8-1.807-2.313-.722-.582-1.806-.842-2.526-1.508-.76-.7-1.132-1.487-1.715-2.134-.069-.436-.069-.535 0-.974-1.067-.743-2.367-1.577-3.342-2.756-.612-.74-1.181-1.629-.45-2.397-.387-.729-1.365-.59-1.986-1.066-.387-.3-.432-1.006-.814-1.332-.784-.674-2.711-1.003-3.97-1.687-.514-.278-.77-.769-1.534-.89-.127-.318-.096-.794-.272-1.065 3.482-5.486 6.592-11.34 11.373-15.544.216-.736.8-1.106 1.354-1.688 1.328-1.391 2.741-3.002 4.515-4.085.201-.128.172-.483.362-.622 1.208-.758 1.926 0 2.979.622 1.635.962 3.602 2.01 5.145 2.84.392.004.81.03 1.082-.087 1.782 1.592 3.22 3.524 5.146 4.974zm-13.54-5.062c-.008.139-.232.07-.182.263-.045.908-.202 2.028-.27 3.023-.067.978-.131 2.101.361 2.665.971-.048.663-.918.633-1.866-.047-1.403.296-3.236-.272-4.085h-.27zm-1.445.355c-.115.3-.502.337-.543.71.136.106.404.077.363.355-.281 2.053-.318 4.608-.182 6.75.46-.315.898-.656.903-1.421-1.336-1.6.357-4.667-.54-6.394zm3.25 3.909c.656-.805 1.396-1.53 1.806-2.577-.582-.406-1.364-.611-1.987-.977-.164 1.058-.14 2.675.18 3.554zm-5.328.53c-.125 1.802-.555 3.804-.088 5.418.488.15.762-.502.993-.886-.71-2.002.364-5.673-.181-7.639-.9.534-.623 1.706-.724 3.108zm12.188.268c-.523-.403-1-1.102-1.536-1.333-.156-.069-.409.074-.539 0-.405-.227-.596-.852-1.176-.443-.275.107.133.337-.089.443-.313-.069-.381.099-.543.18-2.4 3.023-5.157 5.699-7.311 8.971-1.382.787-2.137 2.193-3.16 3.375-1.564 1.808-3.554 3.287-4.423 5.684.63.505 1.377.896 2.257 1.157.617-.523 1.137-1.135 1.716-1.691.645-.044.958.245 1.625.18 1.215 1.2 2.264 2.568 3.52 3.729.457 1.684 2.384 1.918 3.16 3.287.124.175.087.508.18.71 1.257 1.19 2.862 2.039 4.153 3.199 1.984-.055 4.681.084 5.144 1.24.457 1.143-1.066 2.168-.902 3.38 1.121.72 4.041 2.224 5.868 2.217 1.365-.004 1.832-.896 2.075-1.775-.95-.662-1.96-1.303-2.977-1.955-1.06-.677-2.152-1.23-3.251-1.866-.236-.135-.42-.399-.63-.531-.311-.194-.661-.201-.905-.355-.948-.604-1.494-2.815.541-2.398.807.161 1.806 1.033 2.889 1.597.982.512 1.84 1.244 2.71 1.778.498.308 1.121.38 1.534.619.603.355.991 1.021 1.715 1.069.59-.487.998-1.15 1.354-1.867-1.399-1.479-3.353-2.764-5.055-3.906-.44-.296-.826-.677-1.265-.98-1.175-.81-2.546-1.38-3.338-2.219-1.354-1.424.687-2.518 2.075-1.511 2.877 2.379 6.24 4.282 9.298 6.485.567-1.013 1.508-1.654 1.986-2.756-.887-1.109-1.947-2.05-3.43-2.573-1.266-1.028-2.953-2.002-4.424-2.756-.65-.333-1.31-.585-1.896-.886-.48-.245-1.322-1.109-1.264-1.687.171-1.636 2.955-.26 3.792.176 1.694.882 3.159 1.819 4.603 2.665a56.407 56.407 0 0 1 4.242 2.752c.544-.828 1.194-1.548 1.446-2.662-2.368-3.769-7.213-5.102-10.382-8.084-4.173.754-7.774 2.529-12.457 2.489-.155-.44-.59-.605-.813-.978-.426-1.99-1.021-3.613-1.171-5.685-.118-.351.262-.215.269-.446-.591-.275-.424-1.299-.811-1.775.337-.443.913-.769 1.443-.977 1.836-.717 3.869-1.377 5.688-2.043-.19-.542-.906-.76-1.535-1.244zM14.1 7.164c-.116-.004-.126-.11-.272-.088-.814.542-.63 1.724-.721 2.932-.149 1.947-.419 4.103-.363 6.128.493-.345 1.066-.608 1.265-1.242-.874-2.21.238-5.633.091-7.73zM46.414 9.92c-.919-.78-1.514-3.02-2.98-2.844-3.283.399-6.24 2.068-9.115 2.932.06.937.551 1.413.542 2.31-.02 1.785-.644 2.47-1.626 3.286-1.55 1.289-3.508 1.864-5.507.532-1.157-.674-2.099-4.068-3.61-2.131.127 2.284.504 3.77.993 5.684 2.542-.014 4.207-.658 6.498-1.331 1.29-.382 2.927-1.238 4.064-1.154.461.033.824.575 1.354.71.274.07.566-.066.722 0 .37.158.79.685 1.173.977.995.754 2.826 2.248 4.062 2.398 1.56.187 3.12-.085 3.971-.802.448-.373.617-1.076 1.176-1.24.989-.297 2.012.604 1.803 1.511-.094.407-1.09 1.124-1.534 1.42-.807.538-1.841.82-2.167 1.42.953.846 2.223 1.757 2.71 2.932.149.36.304 1.095.179 1.42-.445 1.19-1.108 2.153-1.624 3.463-.84.655-1.42 1.567-1.895 2.577 4.365-.33 7.342-1.632 9.296-4.085.37-.85.825-1.614 1.624-2.042.406.15.795.117 1.174.443-.878-1.585-1.93-3.192-2.527-4.795-1.562-4.536-3.337-8.858-5.417-12.88-1.368-.312-2.46.032-3.34-.71zm6.139 1.065c.253.462.283 1.142.81 1.333.67-1.029 1.24-2.156 1.627-3.463-1.204-2.064-1.978 1.047-2.437 2.13zm-.904-2.13c.069.406.026.919.452.977.331-.208.355-.717.452-1.156-.288-.22-.703.033-.904.179zm-39.628.264c-.562.457-1.173 1.2-1.262 2.222-.121 1.372-.18 3.041-.272 4.531-.052.875-.275 2.016.452 2.486.729-.473.772-1.322.723-2.131-.143-2.3.772-5.355.54-7.108h-.18zm43.601.89c-.541.581-.71 1.492-1.083 2.397-.305.739-.924 1.742-.182 2.221.81-1.185 1.382-2.61 1.716-4.264-.204-.066-.198-.34-.45-.355zm-25.547 4.885c1.032.004 1.627-1.145 2.348-1.779-.146-.797.421-1.731-.542-2.13-1.4.516-2.966.871-4.243 1.512.521.988 1.252 2.39 2.437 2.397zm24.824.886c.146.36.158.853.362 1.157.93-1.186 1.45-2.778 2.167-4.176-.237-.271-.203-.806-.633-.886h-.18c-.727 1.15-.911 2.833-1.716 3.905zm-45.585.535c.614-.912.474-2.489.451-3.73-.23.992-.329 2.394-.451 3.73zM8.23 13.917c.12.029.173.125.36.088.125-.113.157-.531-.089-.531-.027.205-.314.165-.271.443zm47.66 4.265c.17.303.17.78.272 1.153.79-.92 1.228-2.512 1.715-3.73.288-.721.823-1.293 0-1.688-.816 1.27-1.207 2.958-1.986 4.265zM7.6 20.667c.763-1.856.445-4.264.993-6.04-.115-.004-.125-.113-.272-.087-.275 1.95-.822 4.095-.72 6.127zm-.993-1.688c.381-.959.533-2.613.542-3.642-1.125.666-.319 2.65-.542 3.642zm50.459 2.31c.6-.362.651-1.329 1.084-2.31.506-1.15 1.87-2.836.631-3.287-.571 1.783-1.748 3.796-1.715 5.597zm-48.112-.977c.478.084.507-.27.72-.443-.514-.67-.043-2.636-.36-3.466-.249 1.137-.487 2.69-.36 3.909zm49.557.977c.54-.82 1.979-2.99 1.354-3.73-.628 1.069-1.16 2.233-1.354 3.73zm1.082.977c.296-.955 1.146-1.833.995-2.931-.38.823-1.119 2.2-.995 2.93zM4.35 22.087c-.04-.253.185-1.468-.272-1.6.091.495-.47 1.57.272 1.6zm56.777-1.24c-.725 1.445-1.264 3.546-1.535 5.15.294-.052.421.061.633.087.217-1.417 2.581-4.323.902-5.238zm-54.79 2.752c.373-.165.617-.458.72-.89-.468-.157-.42-.827-.63-1.241-.217-.055-.413-.128-.723-.091.078.871.546 1.358.633 2.222zm54.79 4.619c.782-.092 1.573-.173 1.897-.71-.208-1.545.467-3.466-.904-4.265-.36 1.662-1.512 2.976-.993 4.975zM58.69 25.11c.1-.26.2-.512.18-.89-.269 0-.306-.23-.54-.267-.251.433.002 1.036.36 1.157zm-45.764 2.573c-.157.842-.198 1.889-1.355 1.955.573 1.061.994 1.914 2.437 2.222 2.174-1.208.511-3.503-1.082-4.177zm4.15 4.532c-.587.663-1.506 1.003-1.895 1.866.858.696 1.48 1.622 2.439 2.219 1.205-1.08 1.725-3.818-.544-4.085zm5.868 5.241c-.167-.881-1.469-1.303-2.256-1.687a6.748 6.748 0 0 0-1.265 1.862c.617 1.117 1.38 2.548 2.71 2.666.19-.872.97-2.003.811-2.84zm2.258.71c-.645.963-.934 2.28-.993 3.821.469.173 1.23.385 1.715.264.018-.07.074-.102.18-.088.103-1.563 1.169-2.382 1.534-3.909a10.697 10.697 0 0 0-2.436-.087z"/></g></g></svg>