<svg xmlns="http://www.w3.org/2000/svg" width="41" height="51" viewBox="0 0 41 51"><g><g><path fill="#daa520" d="M40.974 47.6c-.683.302-1.072.658-1.602.19-.425-.378-.215-.93-.189-1.811.231-7.386-.467-15.274-.656-23.556-.11-4.825.225-10.17.094-14.879-2.368.222-5.204 1.467-7.73 2.1-.861.214-1.697.374-2.17-.573.983-2.22 1.387-5.023 2.548-7.058-1.087-.422-2.405-.435-3.677-.476-3.55-.118-6.873.559-10.366.858-4.664.4-9.532.578-13.953.571-.405-.12-.321.64-.562.859-.095.086-.32-.025-.378.095-.127.252.036.626-.095.954-.152.39-.489.542-.567.86-.263 1.062-.095 2.752-.095 4.195 0 2.504-.132 4.838.284 7.056-.636 9.503.178 18.706.378 28.327.672.77.73 2.59 1.6 3.147.705.447 3.63.794 4.623.858 1.738.114 3.791.039 5.183 0 5.604-.158 11.349-.369 16.118-.476 2.92-.067 5.136-.293 7.636-.287 1.522.004 3.072-.263 2.92 1.43-.91.841-2.259.62-3.487.573-6.665-.251-13.912.276-19.983.381-3.997.069-7.83.22-11.69-.477-1.098-.198-2.658-.546-3.109-1.048-.374-.418-.436-1.425-.657-2.099-.294-.87-.357-1.669-.756-2.289 0-4.562-.247-9.806-.378-14.782-.058-2.254.01-4.528-.095-6.772-.105-2.315.2-4.6.095-6.867-.068-1.546-.31-2.999-.284-4.576C.027 9.152.294 6.14.07 3.73c.855-.768 1.234-1.432 1.885-2.385 6.24.535 15.303-.58 22.997-1.239.961-.083 3.183-.153 4.81-.096.726.026 1.529.31 2.264.287.861-.027 1.402-.3 1.88 0 .468.29.489.821.85 1.335.327.458.989 1.168 1.508 1.717 1.024 1.083 1.665 1.663 3.015 2.289.147.723.882.838 1.04 1.43.23.855-.116 2.315-.095 3.527.058 3.161-.084 6.4-.095 9.633-.015 5.38.583 11.093.757 16.214.01.333-.037.7 0 1.336.152 3.068-.404 6.475.089 9.822zM32.776 2.3c-1.102 1.38-2.106 3.823-1.885 5.912 1.45-.114 2.873-.744 4.149-1.145.667-.21 1.607-.169 1.885-.954-1.334-1.319-2.579-2.73-4.149-3.813zM8.178 7.354c.162-.277.062-.827.283-1.05 1.082-.61 1.528.455 1.507 1.528 1.308.188 2.6.856 3.581.57.925-.268 1.56-1.551 2.448-2.193.121-.086.342-.017.473-.096.289-.168.483-.763.945-.571-.672 1.032-1.65 2.156-2.452 3.339-.431.63-.599.855-.662 2.002-.074 1.497.031 3.722.283 4.959.116.554.52 1.025.19 1.716-1.056.493-2.31.071-3.487.096-1.507.03-2.773.788-4.055.953.047-1.871 3.65-2.29 5.656-2.384.116-1.13-.21-2.958-.189-4.006-.924.684-1.849 3.558-3.298 1.909-.153-2.012-.273-3.788-.94-5.246-.845.173-2.31-.435-2.264-1.24.053-.936 1.256-.785 1.98-.286zm2.636 4.959c.426-.97 1.313-1.47 1.602-2.574-.788.033-1.266-.243-2.075-.191.147 1.143-.042 2.039.473 2.765zm-3.299 4.864c-.635.474-1.244.15-1.696-.286-.314-2.422-.525-6.015-.378-8.297 2.175-1.02 1.497 2.553 1.602 5.055.058 1.313.357 2.41.472 3.528zm27.335-3.72c-1.402.913-3.187.113-4.994.287-.415.04-.793.225-1.228.286-3.393.471-7.29-.015-10.557 0-.803-2.086 2.72-1.472 4.244-1.431.54.015 1.144-.093 1.791-.096 2.043-.003 5.1-.428 6.69-.38 1.76.053 3.797 0 4.054 1.334zm-17.25 7.63c-.285.836-1.288 1.33-1.887 2.098-.283.369-1.113 1.125-1.223 1.622-.163.731.389 2.125.473 3.243.09 1.175.593 2.82-.095 3.338-.278.21-1.587.398-2.075.476-2.058.33-4.384-.022-6.218.668-.446.09-.472.606-1.134.476-.257-.699.599-.943.946-1.335-.085-.235-.657.028-.757-.19-.666-2.258.047-5.34-.472-7.916.488-.318 1.182-.165 1.512.191.29 2.553.368 5.301.279 7.533 1.969-.414 4.442-.563 6.412-1.239.194-1.259-.11-2.35-.284-3.147-.882.727-1.087 2.14-2.92 1.908-.499-1.195-.183-3.177-.567-4.865-.683-.456-2.096-.17-2.641-.763-.1-1.316 1.119-1.195 1.98-.858.22-.224.246-.644.472-.858.625.068 1.213.172 1.224.858 1.18.438 3.03-.354 3.676 1.049 1.05-.816 2.111-1.619 3.298-2.29zm-6.22 5.531c.615-.404 1.235-1.283 1.413-1.81-.157-.764-.923-.908-1.79-.954.204 1.154-.362 2.079.378 2.765zm23.849-2.574c-.205.372-.567.632-1.135.38-5.235.661-10.703.56-16.211 1.242-1.508-1.72 1.124-1.898 2.925-2.003 1.738-.103 2.699 0 4.049-.096 1.543-.11 3.697-.62 5.56-.573 1.887.048 3.945-.175 4.812 1.05zM18.26 34.916c-.12.164-.195.374-.473.381m-.562.096c.09.002.074.116.095.191-.746.71-1.392 1.518-2.264 2.098.394 2.2.966 4.31 1.13 6.962-2.454.324-5.431-.412-8.199.095-.367.106-.357.595-.756.669-.43.02-.657-.162-.94-.287a39.13 39.13 0 0 1-.189-5.055c.026-1.048-.015-2.22.472-2.574 1.171.333 1.424-.262 2.637-.287.178-.328.042-.977.19-1.336.372-.204.787-.168 1.223 0 .152.255-.142.966.094 1.336 1.176-.13 2.521.235 3.582-.096.767-.238 1.492-1.07 2.169-1.429.3-.159.562.016.756-.287zm-9.521 8.202c1.833-.051 4.243-.64 6.501-.382.194-1.267-.052-3.09-.75-3.91-1.093.965-1.828 2.285-3.582 2.575-.967-.674-.562-1.764-.662-3.147-.43-.074-1.282-.226-1.602-.095.2 1.384-.22 3.338.095 4.959zm2.92-4.864c0 .637-.147.803 0 1.335.73-.25 1.27-.69 1.602-1.335-.552-.14-.91.05-1.602 0zm8.86 1.241c3.633.008 8.77-.787 12.63-.86.819-.014 2.856-.143 3.02.669.047.243-.358.83-.285.762-.362.347-2.599.316-3.96.381-1.26.061-2.709-.055-4.053.096-1.613.182-3.597.217-5.09.285-1.097.051-3.034.346-2.263-1.333z"/></g></g></svg>