<svg xmlns="http://www.w3.org/2000/svg" width="63" height="19" viewBox="0 0 63 19"><g><g><g><path fill="#1cb55f" d="M35.44 2.132a3.213 3.213 0 0 1 2.922-1.91h4.778V18.31h-5.63V7.62h-.402L33.143 16.4a3.213 3.213 0 0 1-2.92 1.91h-4.78V.222h5.63V10.91h.404l3.963-8.778M14.317 2.6C14.715 1.19 15.975.22 17.408.22h5.623v18.09H17.4V7.62h-.403l-3.216 10.69H9.76L6.542 7.62H6.14v10.69H.51V.22h5.623c1.432 0 2.693.97 3.09 2.378l2.347 8.312h.401l2.346-8.312m48.58 5.844c-.829 2.394-3.057 4.112-5.682 4.112h-6.044v5.755h-5.619V8.443z"/></g><g><path fill="#00a9df" d="M57.201.221H45.43c.715 3.92 4.117 6.891 8.212 6.891h9.142a5.9 5.9 0 0 0 .114-1.148c0-3.171-2.55-5.743-5.696-5.743"/></g></g></g></svg>