<svg xmlns="http://www.w3.org/2000/svg" width="61" height="51" viewBox="0 0 61 51"><g><g><path fill="#4d8f79" d="M39.53 2.315s-.076 0-.076.075v-.075zm-.076.075zm4.82 25.802c-.075 0-.075 0-.075.074l-.075.075c-.528-.598-1.055-1.047-1.582-1.346.603.3 1.13.673 1.657 1.121 0 .076 0 .076.075.076zm.15-.374c-.3-.075-.677-.3-.978-.6h.075c.301.226.527.375.829.525 0 0 .075 0 .075.075zm-.828.822c-.828-.598-1.58-1.196-2.259-1.72.603.15 1.054.449 1.582.823.3.299.602.523.903.823-.075.074-.15.074-.226.074zm8.735 4.562v.075c-.15-.15-.15-.3-.074-.45 0-.074 0-.074.074-.074v.449zM7.151 45.317H7c.677-.972 1.279-2.02 1.881-3.066h.226a13.26 13.26 0 0 1-1.958 3.066zm33.885-14.359h-.076v-.374c0 .076 0 .225.076.374zM44.274.446l-.02-.005.096.005h-.076zM27.461 16.979c-.044-.004-.086 0-.13-.006l-.023-.023zm32.25 2.761c-.076.15-.15.374-.3.45a3.256 3.256 0 0 1-.378.897c-.527 1.047-1.28 2.018-2.334 2.618h-.147c-.37.415-.863.77-1.36 1.121-.978.897-2.032 1.72-3.086 2.543.602 1.197 1.205 2.393 1.656 3.589.753 1.646 1.657 3.291 2.71 4.787.378.448.679.972.904 1.496.076.074.076.15.076.223.075.15.226.225.376.3.15.15.302.224.377.374h-.226-.15a1.04 1.04 0 0 0-.243-.193c.016.029.016.073.016.118h-.15c-.076-.15-.226-.299-.301-.449-.15-.074-.226-.15-.377-.224-.075 0-.075 0-.075-.075-.979-.598-1.883-1.27-2.786-1.87a40.886 40.886 0 0 0-3.765-2.467l-.076.075v-.15c-.377-.224-.753-.449-1.13-.598-.978-.599-1.882-1.122-2.71-1.72h.075c.15.075.377.224.603.299-.301-.15-.528-.3-.678-.448-.302 0-.602.074-.904.148a3.93 3.93 0 0 1-1.506.524c-.979.075-1.882.075-2.786.075v-.225c.98 0 1.958-.149 2.937-.224h-1.13c-.602-.074-1.204-.074-1.883-.15-.075.6-.15 1.197-.3 1.795 0 .225-.076.524-.15.823.3-.673.45-1.346.45-2.019h.076c0 1.496-.3 2.916-.903 4.338a57.268 57.268 0 0 0-.904 2.093c-.075.15-.15.3-.301.3H38.7v-.075-.075-.075l.076-.075.075.075c.076-.225.302-.523.377-.748-.753 1.122-1.732 2.095-2.786 2.917-1.507 1.196-3.163 2.094-4.82 2.767a26.9 26.9 0 0 1-3.99 1.197c-.076-.075-.076-.075-.151-.075.3-.224.678-.374 1.13-.45.225-.074.436-.134.65-.198-1.075.294-2.161.51-3.287.723-.602.223-1.279.374-1.882.523.753-.074 1.506-.224 2.335-.374-.226.15-.453.3-.753.449-.076 0-.151.075-.151.075-3.84.822-7.605.673-11.37-.45-.452-.148-.829-.298-1.205-.522h-.076c-.075-.076-.075-.076-.15-.076-.15-.15-.302-.223-.377-.373-.15.075-.226.15-.301.224a7.507 7.507 0 0 0-1.28.823 61.918 61.918 0 0 1-4.368 3.366c-1.506 1.121-3.087 2.168-4.593 3.141-.226.149-.377.224-.527.374.075-.374.376-.674.829-.973.074 0 .074-.075.074-.15a.577.577 0 0 1-.376.15h-.075c.225-.15.377-.224.526-.374.076 0 .076-.074.076-.15h-.076l-.15.15H2.03c0 .075 0 .075-.076.075-.075.15-.15.224-.225.299-.076 0-.15-.075-.15-.15.074-.074.15-.149.15-.224v-.225a93.82 93.82 0 0 1 3.388-6.73c.302-.598.527-1.271.754-1.944.074-.15.15-.374.225-.524-1.205-.224-2.184-.972-2.862-2.17a8.04 8.04 0 0 1-.451-.821 1.657 1.657 0 0 0-.377-.3c.302.523.603.973.904 1.496.753.897 1.581 1.72 2.56 2.319-1.807-.973-3.238-2.544-4.141-4.637a2.265 2.265 0 0 1-.377-.524c-.979-1.72-1.43-3.515-1.355-5.534.075-.748.15-1.495.452-2.243 0-.374.074-.748.225-1.197.678-1.795 1.808-3.29 3.314-4.562a13.141 13.141 0 0 1 2.183-1.346c-1.581.972-2.937 2.168-4.141 3.59-.678.972-1.205 2.02-1.431 3.066.15-.449.301-.822.602-1.272v-.149l.076-.075.15-.15c.076-.224.151-.374.302-.448.377-.524.753-1.047 1.13-1.421.074-.15.15-.3.3-.375l.15-.224c.151-.15.302-.374.453-.523.452-.374.903-.823 1.43-1.197.679-.597 1.431-1.047 2.26-1.42h.15c.15-.15.301-.225.528-.375 1.13-.672 2.408-1.196 3.765-1.644.3-.15.602-.225.903-.3.451-.224.979-.3 1.506-.448-.301-1.945.3-3.74 1.656-5.46.076-.15.15-.3.302-.374.226-.673.602-1.346.978-1.944 1.055-1.646 2.41-3.066 3.992-4.263a20.153 20.153 0 0 1 2.71-1.646c.227-.149.452-.373.679-.522.602-.525 1.28-.898 1.957-1.198.527-.298 1.13-.523 1.732-.822-.979.673-1.882 1.271-2.786 1.944.753-.299 1.58-.524 2.485-.748.075 0 .225 0 .377-.074.602-.374 1.355-.598 2.183-.823.828-.149 1.732-.3 2.636-.374a59.373 59.373 0 0 1 5.271-.897c.602 0 1.204-.076 1.807-.15 1.348 0 2.696.149 3.97.444C41.574.3 38.896.378 36.217.97 38.024.895 39.83.745 41.639.596a9.353 9.353 0 0 1 3.539.224c.979.075 1.882.374 2.786.673.904.299 1.807.673 2.71 1.196h.151c1.732.748 3.314 1.795 4.594 3.141.301.224.527.524.753.823h.075a18.132 18.132 0 0 1 3.314 4.188c.376.748.677 1.496.828 2.244 0 .15 0 .224.075.299.226.823.377 1.645.226 2.617.075-.374.15-.748.15-1.122 0-.224.076-.374.151-.374.075 1.87-.376 3.59-1.28 5.235zM56.85 36.717c.075.15.15.3.301.45l.075.074c-.075-.225-.15-.374-.376-.524zm1.82-26.692c.02.023.039.045.062.069 0 0-.007-.057-.063-.069zm-.085-.13a.293.293 0 0 0 .065.11c-.01-.05-.054-.064-.065-.11zm-.004-.026zm-.357-.371c.019.024.037.044.057.072 0-.064-.01-.07-.057-.072zM46.91 1.418c.451.15.979.299 1.506.449-.15-.075-.301-.075-.452-.224-.377-.076-.753-.15-1.054-.225zm-.301.374c-.227-.15-.452-.225-.603-.15.452.15.979.225 1.506.449-.301-.15-.602-.224-.903-.3zm-1.959-.374c.226 0 .377 0 .603.075.075 0 .226 0 .301.074l.076-.074h.15c.301 0 .602.074.829.15-.076-.076-.151-.076-.151-.076-.603-.149-1.205-.224-1.808-.149zm0 .075c.226 0 .452.074.678.15h.151c-.301-.076-.527-.15-.829-.15zm-2.71-.45c.451 0 .979.076 1.43.15.15 0 .226 0 .301.076h.377c.226-.075.452-.075.678-.15-.753-.075-1.507-.075-2.26-.075h-.526zm-9.865.898c1.657-.15 3.313-.298 4.97-.523.377-.075.753-.149 1.054-.224-.3 0-.602 0-.904.075-.226 0-.45 0-.677.074.15 0 .377 0 .527.075-.602 0-1.28 0-1.958.075-1.054.074-2.033.299-3.012.448zm-2.78.222c.15-.074.373-.147.596-.222.226 0 .377-.074.603-.15h-.226a5.33 5.33 0 0 0-.973.372zm-.006.003l.006-.003-.006.003zm-.15.448a59.69 59.69 0 0 1 1.43-.224h-.678c-.226 0-.376 0-.602.075l-.075.074zm-.905 0l.3-.148a.38.38 0 0 0-.148.073c-.076 0-.152 0-.152.075zm.452-.224l-.151.076c.056-.019.113-.038.151-.076zM19.65 8.15a35.243 35.243 0 0 0-1.876 2.236c.676-.746 1.352-1.49 2.177-2.087-1.28 1.272-2.409 2.693-3.313 4.338-.452.823-.678 1.72-.828 2.617.3-1.57 1.054-2.991 2.26-4.337.3-.374.677-.673.978-.972.527-1.048 1.205-1.945 2.033-2.842 1.506-1.496 3.238-2.693 5.12-3.515.377-.3.754-.524 1.28-.674l.227-.224c-.753.224-1.506.45-2.26.673-.3.075-.527.15-.752.3-1.732 1.346-3.464 2.842-5.046 4.487zm-2.786 8.974c-.3.075-.602.075-.904.15.302 0 .603-.075.904-.15zm-.753.449h.075c.377 0 .753 0 1.13-.075-.377 0-.753 0-1.205.075zm1.205-7.329c1.807-2.094 3.84-4.189 6.024-5.983-.979.523-1.882 1.047-2.711 1.794-.602.45-1.054.973-1.58 1.572.978-.973 1.957-1.796 3.161-2.469a27.348 27.348 0 0 0-3.99 3.814c-.226.3-.452.524-.678.823-.075.224-.15.3-.226.449zm-2.711 7.03l1.13-.225c-.301-1.42-.151-2.917.602-4.263.375-.82.9-1.64 1.426-2.385a26.69 26.69 0 0 0-1.878 2.76 13.36 13.36 0 0 0-.451 2.392v.225c-.016-.031-.015-.063-.024-.094-.035.452-.036.876.024 1.29-.302-.747-.453-1.57-.226-2.468-.151.225-.302.45-.377.748-.376.674-.452 1.347-.226 2.02zm1.205.075v-.076c-.452.076-.829.15-1.205.225 0 0 0 .075.075.075l1.13-.224zm-.376.298c-.226 0-.453.076-.603.15v.075c.377-.15.677-.225.979-.225v-.074c-.15 0-.302 0-.376.074zm-4.368.973c.452-.15.979-.3 1.581-.374.527-.225 1.13-.374 1.657-.523v-.15h-.226c-.979.299-2.033.673-3.012 1.047zm.075.373c.603-.224 1.205-.373 1.883-.522 0-.076 0-.076.075-.15.226-.075.452-.075.678-.224a15.62 15.62 0 0 0-2.636.896zM5.343 21.76h.076v-.075l-.076.075zm.528 17.949c-.152-.075-.377-.15-.603-.3.075.075.15.15.226.3h.377zm3.011 5.384c-.903.748-1.882 1.421-2.786 2.094-.15.224-.377.374-.602.524-.075 0-.15.074-.15.15-.453.298-.83.597-1.281.897-.377.299-.829.598-1.205.822-.075.075-.075.075-.075.15l.677-.45c1.582-1.195 3.088-2.317 4.67-3.514.225-.224.526-.449.752-.598zm3.163-2.244l-.226-.224c-.376.299-.828.673-1.28.972l.075.075v.075L9.259 44.87c-.075 0-.075.074-.075.074.903-.747 1.882-1.42 2.86-2.094zm-1.431.375c-.076 0-.15.074-.225.074-.076 0-.151 0-.227-.074-.15.15-.15.299-.226.523.226-.224.453-.374.678-.523zm4.217.299c-.15-.076-.377-.15-.527-.225-.226 0-.377-.074-.527-.15-.075 0-.15 0-.226-.074a10.163 10.163 0 0 1-.34-.092c.538.197 1.062.374 1.62.54zm5.196.224s.075-.075.15-.075c-1.129-.075-2.183-.075-3.313-.075 1.055.15 2.184.225 3.238.3 0-.075-.075-.075-.075-.15zm18.6-6.432c-.075 0-.151 0-.227-.074-.075.15-.225.3-.301.373-.376.524-.828.973-1.204 1.422-.302.224-.603.523-.98.822 1.054-.747 1.883-1.57 2.711-2.543zm0-.299c.225-.224.3-.523.527-.823-.226.3-.453.599-.602.898l.074-.075zm1.28-2.019c-.227.598-.603 1.196-.904 1.795.15-.225.301-.374.527-.599.15-.374.3-.747.376-1.196zm.075-.972c-.226.15-.376.374-.528.524-.074.074-.074.074-.074.149-.076.373-.151.748-.377 1.196-.075.075-.075.15-.075.3.226-.45.526-.898.752-1.347.15-.298.226-.598.302-.822zm.075-2.992h-.301c0 1.122-.076 2.318-.302 3.44.226-.224.377-.524.603-.822v-.3c-.075-.074-.075-.074-.15-.074.15-.748.15-1.496.15-2.244zm0-.075c0-.972-.075-2.019-.377-3.066-.074-.224-.15-.523-.226-.822v-.075h.076c-.076-.3-.226-.524-.301-.748-.15-.299-.377-.599-.528-.898-.15 0-.3 0-.376-.074-.19-.252-.38-.45-.524-.684.35.617.696 1.184.976 1.88h-.15c-.452-.748-.98-1.57-1.582-2.392-.753-1.048-1.732-2.02-2.861-2.843-.226-.15-.452-.298-.603-.448h-.075l-.076.074v.076l.076.074h-.15l-.076-.074v-.076s.076-.074.15-.149c-1.505-.973-3.162-1.795-4.97-2.319-.45-.15-.903-.298-1.355-.298.301-.076.603-.076.904-.076-.301-.074-.527-.15-.753-.15a8.944 8.944 0 0 0-1.506-.373c-.452 0-.829 0-1.205.075.226 0 .452.074.678.15.226.149.452.224.603.298-.754-.15-1.582-.298-2.335-.374h-.151c-.903 0-1.732.076-2.636.15-1.28.075-2.56.224-3.84.374 0 .075.075.075.151.075h-.602c-.829.075-1.657.15-2.41.225-.15.074-.226.074-.377.074 0 .075-.075.075-.15.075-1.431.299-2.938.747-4.292 1.196-.377.225-.678.375-1.054.598-.076.075-.151.075-.227.15-.225.15-.376.299-.527.299-.677.45-1.355.898-1.957 1.496-1.733 1.347-3.088 2.991-3.992 5.01h-.226c.043-.084.087-.214.143-.34-.199.34-.323.654-.444 1.014-.226 1.046-.226 2.094-.226 3.216 0 .15 0 .224.075.373 0-1.944.603-3.739 1.883-5.459.15-.299.377-.449.602-.524-2.183 2.842-2.785 5.91-1.656 9.274.075.225.226.449.376.673.076.15.226.3.301.45v-.076c-.451-.748-.752-1.496-.903-2.318.15.374.301.672.452 1.047-.603-2.094-.452-4.038.302-5.983-.679 3.365 0 6.432 1.882 9.124.075.075.15.075.226.075.075.074.15.074.3.149h-.15c-.075-.075-.226-.075-.301-.15 0 .075.075.15.15.225 0 .074.076.074.076.15.452.299.979.523 1.506.748.226.075.452.149.753.149v.075c-.377 0-.829 0-1.205-.075.226.15.452.3.753.374.075 0 .075 0 .075.075.076 0 .15.075.226.075.076.074.151.074.226.074h-.226l-.452 1.57c.076-.223.226-.373.302-.523.075-.15.15-.374.226-.524.15-.298.3-.448.527-.523v.15c-.075.224-.227.523-.377.823-.904 2.691-2.109 5.384-3.389 8.076.15-.15.377-.224.528-.374a.472.472 0 0 1 0-.448c.075-.075.075-.075.075-.15.301-.3.452-.673.527-1.122.452-.523.828-1.121 1.28-1.645h.075a130.135 130.135 0 0 1-1.807 3.291c.528-.3.98-.673 1.507-1.047A186.993 186.993 0 0 1 7.3 42.999h.075c-.301 1.42-.753 2.767-1.505 4.038.376-.299.752-.598 1.054-.897.602-.523 1.13-.972 1.731-1.421a4.16 4.16 0 0 1 .678-.523c.452-.673.828-1.421 1.204-2.094h.076c-.15.224-.225.523-.3.822h.075c.45-.224.752-.523 1.129-.822-.075.374-.377.673-.678.897.678-.449 1.355-.897 2.109-1.346 0-.075 0-.075.075 0l-1.13.897h.075c.076 0 .226.075.377.15 0-.075 0-.075.075-.075-.15 0-.226-.075-.3-.075l.074-.074c.076.074.15.074.302.149.15-.15.3-.224.452-.299 0 .15-.076.224-.151.374.15 0 .301.075.527.075l.075-.075c.527.224 1.13.374 1.732.524h.377c1.656.074 3.313.074 5.045.074 1.13 0 2.184 0 3.238.075-.828.15-1.657.224-2.56.299.376.075.678.075 1.054.15l1.807-.225c.376-.074.753-.224 1.13-.3.828-.223 1.581-.448 2.334-.747l2.937-.897c0 .075 0 .075.075.075-.678.299-1.355.598-1.958.822-.451.3-.903.524-1.355.748.376-.15.753-.224 1.13-.299a40.886 40.886 0 0 0 5.044-1.87c.226-.15.452-.299.754-.449v-.148c0-.076.075-.076.15-.076l.076.076a34.674 34.674 0 0 0 3.087-2.693l.075-.075c.226-.374.527-.823.753-1.271.829-1.57 1.205-3.216 1.205-4.936 0-.823.076-1.645.15-2.319 0 .598.076 1.198.076 1.72h.301zm-2.334-6.505zM19.65 17.198c.528-.075.979-.15 1.43-.15h.302a19.189 19.189 0 0 0-2.937 0c.452 0 .83.075 1.205.15zm17.545 5.758c0-.075 0-.15.076-.224-.527-.523-1.054-.897-1.656-1.122.3.15.526.374.828.599.226.299.452.523.752.747zm-.124.665c.026.059.07.124.124.233v-.224a.468.468 0 0 1-.124-.009zm-1.156-1.412c-.527-.449-1.054-.898-1.581-1.271h-.075a18.294 18.294 0 0 1 2.184 2.018c-.15-.224-.302-.523-.528-.747zm.528-.524c-.15-.166-.301-.35-.452-.449-.302-.298-.678-.598-1.055-.748a17.034 17.034 0 0 0-5.195-2.018c.904.298 1.807.747 2.71 1.27.754.3 1.431.673 2.184 1.122h.197.18s0 .076.075.076c.452.149.904.448 1.356.747zm.226.224a4.152 4.152 0 0 0-.174-.215c.058.071.116.158.174.215zm1.731 2.094c-.301-.374-.602-.673-.828-.972v.448c.075.076.15.15.226.3 0-.074 0-.15-.075-.15-.076-.15-.076-.224.075-.15.226.15.377.375.602.524zm-.223.227c.15.149.3.372.45.521.074.075.15.075.225.075v-.075c-.225-.149-.45-.298-.675-.521zm-.002-.002l.002.002-.002-.002zm1.054 1.271c-.075-.075-.075-.075-.075-.15h-.076v.075s.076 0 .15.075zm0 .224l.075.075c0-.075 0-.075-.075-.075zm.223.223c-.072-.074-.073-.147-.147-.148l.147.148zm.002.002l-.002-.002.002.002zm1.13 5.16h-.15c0 .523 0 1.047-.076 1.57a4.2 4.2 0 0 0 .226-1.346v-.224zm-.3-2.618c.15.45.225.898.3 1.272.035.069.05.138.06.214-.018-.55-.072-1.069-.135-1.635-.226-.449-.452-.897-.829-1.271.15.374.302.822.377 1.271.226.747.301 1.495.377 2.243v.374h.15c0-.522-.075-1.046-.15-1.645v.075c0 .074 0 .074-.076.074 0-.298 0-.598-.075-.972zm2.183 2.02c-.15-.15-.377-.3-.527-.374-.301-.075-.528-.075-.753-.075-.076-.075-.151-.075-.227-.075.227 0 .528 0 .83.075-.302-.225-.603-.448-.83-.747-.075-.076-.075-.076.076-.076.376.3.753.524 1.13.823.3 0 .527 0 .828-.075-.829-.524-1.506-1.047-2.259-1.57.15.523.15 1.046.225 1.57v.524h1.507zm.828-.224c0-.076-.076-.076-.076-.076-.3 0-.602 0-.828-.074 0 .074.076.074.15.15v-.076c.302.076.528.076.754.076zm3.615 0c-.226 0-.377.074-.528.074.151.15.377.224.528.374v-.448zm8.81 5.982s-.075-.075-.075-.15c-.452-.299-.904-.597-1.356-.822.527.3.98.673 1.431.972zm.452.225c.075.074.15.15.15.224.076.075.15.15.226.15a1.03 1.03 0 0 1-.226-.3c-.075 0-.15-.074-.15-.074zm-.705-1.263c.131.23.25.485.404.74 0 .074.075.074.15.149-.164-.326-.368-.613-.554-.889zm-.199-.308c.062.103.13.205.2.308a2.816 2.816 0 0 0-.2-.308zm-.226-10.395c-.377.3-.677.598-1.13.897-.677.524-1.355.972-2.183 1.272.075.149.15.224.225.374l.076-.075v.224c.376-.299.829-.672 1.355-1.122.226-.224.527-.374.827-.671-.074.073-.149.073-.149.073.302-.299.602-.673.98-.972zm-.828.897l-.002.002.002-.002zm1.322-1.924a9.75 9.75 0 0 1-.343.354s.075 0 .15-.075c.065-.095.129-.189.193-.279zm-.088.55zm.197-.196c-.075 0-.075 0-.075.075.023-.025.047-.048.075-.075zm.903-1.047c.377-.449.678-.823.98-1.272.225-.523.45-.971.677-1.42-.226.449-.527.823-.829 1.196-.15.3-.376.524-.602.823-.15.149-.226.3-.301.449-.15.298-.301.522-.527.822.076-.075.15-.15.3-.224.076-.076.227-.225.302-.374zm1.883-1.122c-.527.673-1.13 1.271-1.807 1.945-.018.02-.039.038-.057.058.746-.594 1.416-1.262 1.864-2.003zm1.13-2.468c-.15.224-.302.45-.453.598-.225.375-.451.748-.752 1.197a.574.574 0 0 0-.15.374c.075-.15.225-.3.3-.448a9.55 9.55 0 0 0 .98-1.422c0-.075 0-.15.075-.299zm-1.356.673c.02-.029.037-.057.054-.086a.495.495 0 0 0-.054.086zm.376-.748v0zm0 .002c-.131.26-.205.464-.322.66.058-.072.115-.1.172-.213.075-.15.075-.298.15-.447zm1.356-2.021c0 .075-.076.15-.15.225-.152.448-.377.822-.603 1.196-.076.448-.226.897-.377 1.421.076-.225.15-.374.301-.524.227-.449.453-.822.679-1.345.074-.3.15-.6.15-.973zm.075-3.664v-.45c-.075-.298-.15-.522-.225-.747-.076-.075-.076-.15-.152-.225V12.262c0 .075 0 .075-.074.075v-.3-.074c.074 0 .074 0 .074-.075-.3-.748-.752-1.42-1.28-2.02-.15-.148-.3-.298-.451-.523-.226-.074-.226-.223-.076-.299.082.122.165.201.247.283a66.695 66.695 0 0 0-1.979-2.452c-1.28-1.27-2.71-2.318-4.292-3.216-.527-.298-1.054-.598-1.656-.897a22.006 22.006 0 0 0-1.12-.395c.053.028.106.061.14.096.98.448 1.883.898 2.787 1.421 1.28.748 2.41 1.645 3.388 2.543a47.445 47.445 0 0 1-2.937-1.87c-1.129-.748-2.183-1.272-3.388-1.87a42.637 42.637 0 0 0-3.313-1.046c-.075 0-.15.074-.226.149a3.75 3.75 0 0 1 1.28.449c-.602-.075-1.205-.3-1.883-.45-.3 0-.602-.148-.978-.148h-.076v-.076c-1.054-.15-2.183-.298-3.313-.373-.452.075-.903.149-1.28.224-.829.15-1.582.225-2.41.374-1.732.225-3.463.449-5.196.523a31.865 31.865 0 0 0-5.195 1.646l-.453.224A8.474 8.474 0 0 0 24.47 5.53h-.3c.225-.224.376-.523.602-.748-1.883 1.122-3.389 2.393-4.518 4.113.301-.299.677-.598 1.054-.897.15-.075.301-.149.377-.149-.678.598-1.356 1.121-1.958 1.794-.377.599-.753 1.197-1.055 1.87-.15.45-.376.898-.602 1.271.15-.598.3-1.27.527-1.87-1.13 1.422-1.958 3.142-2.485 4.937-.075.299-.15.673-.15.972v.15l2.484-.225h3.088c.075-.074.15-.15.226-.15h.678c.827.15 1.656.225 2.484.45.98 0 1.959.074 3.013.15v.073c-.377.076-.83.076-1.205.15.376.075.753.15 1.205.224 1.731.45 3.463.973 5.196 1.571.451.15.828.3 1.204.523.302 0 .602.15.829.3 0-.075-.076-.15-.076-.225l.076.075c.3.224.527.45.752.673l.226.225c.377.299.678.673.98.972l.225.3c.076 0 .076.074.076.149.02-.02.041-.038.062-.057l.54.804h-.075c.226.374.527.823.828 1.272 0 0 .075.075.075.149.08.06.171.099.258.148l.507.733c-.054.05-.108.091-.163.091.076.15.152.374.226.524.226.224.377.523.603.823 1.054.822 2.108 1.645 3.088 2.542.075 0 .075 0 .15.076h-.302c-.903-.748-1.882-1.496-2.785-2.244.075.374.226.748.301 1.122.452.15.979.448 1.43.822.377.374.754.673 1.13.972a16.756 16.756 0 0 0 2.56-.448c.075-.075.226-.075.377-.15 0-.074 0-.074.075-.074s.075.074.075.149c-.452.299-.828.449-1.28.598-.301.15-.602.225-.903.299.527 0 1.13-.074 1.731-.15l-.225-.224h.075c.076.075.15.15.226.15.226 0 .452-.075.678-.075h.226c0-.448 0-.897.075-1.346 0-.15 0-.225.075-.225.151.748.151 1.571.076 2.32.15.074.301.148.451.298-.075-.448 0-.898 0-1.42 0-.075 0-.075.076 0 .075.448.075.972 0 1.495.15.075.3.15.452.224 0-.598-.076-1.121-.151-1.57 0-.075 0-.075.075-.075.15.524.226 1.122.226 1.72.076.075.226.15.376.224 0-.523-.074-1.122-.074-1.645a6.34 6.34 0 0 1 .225 1.72c.15.075.301.15.527.3a5.004 5.004 0 0 1 0-1.497v-.074c.076.523.151.972.076 1.495v.075c.15.15.376.3.602.374 0-.449-.075-.897-.075-1.42v-.076s-.076-.074-.076-.149 0-.075.076 0c0 0 .075.075.075.149h.075c.076.524.076 1.047.076 1.571.075.075.226.15.3.15-.074-.374-.15-.898-.074-1.347 0-.074 0-.074.075-.074.075.523.075.972.075 1.495h.076l.451.225a4.092 4.092 0 0 0-.075-1.646h.075c.15.6.226 1.122 0 1.72.226.076.377.15.527.225 0-.374-.075-.898-.075-1.42 0 0 0-.076.075 0 .076.448.076.97.076 1.42v.074c.075 0 .15.076.3.15a4.519 4.519 0 0 1 0-1.42c.076.523.076.972.076 1.42.302.225.603.448.98.598 0-.224 0-.523-.151-.748h.075c.15.15.15.45.15.674v.15c.076.074.227.148.377.224v-.45-.074c.075.224.075.374.075.524.603.374 1.205.748 1.732 1.196-.15-.299-.301-.524-.376-.748-.829-1.645-1.506-3.365-2.109-5.01-.15-.3-.226-.599-.301-.823-.225-.524-.452-.972-.678-1.421h-.226c.076-.075.076-.149.151-.299l-.226-.45h-.075c-.076.076-.15.076-.226 0 .075 0 .15 0 .301-.073-.075-.075-.075-.15-.075-.15-.076-.15-.15-.15-.226-.299v-.225h.15c.151.15.226.374.377.524a11.343 11.343 0 0 0 3.238-2.393c0-.075-.075-.15-.075-.15.075-.15.15-.224.225-.299a29.06 29.06 0 0 1-2.258 1.57h-.226c2.334-1.644 4.217-3.739 5.648-6.357.45-1.72.526-3.44.376-5.235-.376-2.841-1.732-5.01-4.142-6.655-1.732-1.197-3.54-2.17-5.346-2.991h.075c3.615 1.196 6.551 3.29 8.735 6.281 0-.149 0-.224.075-.374 1.28 2.618 1.733 5.235 1.28 7.853.151-.3.301-.599.377-.973.15-.298.226-.523.301-.822a15.28 15.28 0 0 0 0-2.617zm.528 1.121c-.076.075-.076.15-.076.15v.225c0 .298 0 .448-.075.672 0 .15 0 .225-.076.374 0 .3 0 .599-.075.972.226-.822.302-1.57.302-2.393z"/></g></g></svg>