<svg xmlns="http://www.w3.org/2000/svg" width="68" height="36" viewBox="0 0 68 36"><g><g><path fill="#4d8f79" d="M55.128.1V0c.2 0 .3 0 .498.199v.2l-.1.1c-.076 0-.093.06-.144.088.363-.079.557.021.842.211v.5c0 .101 0 .2-.1.301.299.5.498 1 .697 1.5.399 1 .797 2 .996 3 .598 1.6.995 3.3 1.194 5 .3.8.399 1.6.499 2.4.298-.1.596-.1.896-.1-.3.1-.498.3-.797.4l.1.1h.099v.2c-.099 0-.099.1-.099.2-.1 0-.1 0-.1.1v.3c-.2.1-.2.2-.299.2h-.199v-.3c-2.49 1.1-5.177 2-7.865 2.6l-1.195.3c-1.095.3-2.09.6-3.187.9 1.294 1.3 1.594 2.8.996 4.5.1 0 .1 0 .1.1 0-.1.198-.2.299-.3v.4c2.389 1.6 4.978 3 7.566 4.4 1.539.966 3.263 1.744 4.903 2.608-.04-.008-.082-.008-.123-.008.1 0 .199.1.299.1l.1.1h.098c0 .1.1.1.2.1h.1v-.1c0-.1 0-.2.198-.2h.1c.896-.6 1.693-1.1 2.689-1.6.497-.7 1.294-1.3 1.99-1.8.2-.1.399-.1.498-.2.2-.1.3-.2.398-.3h.1c.199 0 .3 0 .398.1l.1.1c-.3.8-.497 1.7-.497 2.6l.099-.1c.099.1.099.1.099.2.1 0 .1 0 .1.1-.1.2-.298.4-.298.6v.4c-.2.2-.399.3-.598.3-.3.3-.598.5-.896.7-.2.1-.3.2-.498.3V31.799c-.1-.1-.1-.1-.1-.2-.597.4-1.095.8-1.493 1.3-.2.1-.398 0-.398 0v1.3c-1.295 1.7-2.689 1.8-3.983.2-.2-.2-.299-.4-.498-.7 0-.2-.1-.4-.1-.6-3.086-1.5-6.173-2.8-9.458-3.9-1.494-.5-2.887-1.2-4.082-2.1h-.1c-.199-.1-.299-.2-.398-.2-.299-.1-.399-.2-.399-.4 0 0 0-.1.1-.2v-.1c-.1 0-.2-.1-.299-.1h-.1c0 .2-.099.3-.398.4-.896 0-1.792-.1-2.489-.3h-.199c-1.593-.7-2.788-1.8-3.683-3.2-.598-.6-1.097-1.1-1.594-1.7l-1.494.3c-.198.1-.398.1-.696.2v.1h-.2c-.497.1-.895.2-1.293.4-.1.1-.2.3-.3.5-.099 0-.099.1-.198.1 0 0-.1 0-.3-.1.1-.1.2-.2.2-.4-.398.1-.697.2-1.095.4-.1.2-.299.4-.399.7h-.099c.1-.2.2-.4.2-.6-.897.2-1.693.5-2.49.8h-.3c-.696.2-1.393.4-2.19.6-.099.2-.199.3-.298.4h-.1c.1-.1.2-.2.2-.3-.786.099-1.378.294-2.16.396.068-.019.068-.096.068-.096-.397.2-.896.4-1.393.5-.797.5-1.792.8-2.788 1-1.394.2-2.788.4-4.182.4-.1-.1-.1-.2-.1-.4-.796.1-1.692.3-2.389.5-.1 0-.1.1-.2.1h-.198l-.1-.1c-.399.1-.598.1-.796-.1l-.1.1c0 .1-.1.1-.1.1-.497-.4-.896-.8-1.293-1.3v-.1c-.1.1-.2.1-.3.1 0 0 0 .1-.099.1 0 .1 0 .1-.1.1h-.1c-.397.1-.697 0-1.094-.2h-.1c-.1 0-.2.1-.299.2 0-.1-.1-.1-.2-.2-.198-.2-.497-.4-.895-.5-.299-1.1-.498-2.2-.598-3.4-.198-.5-.299-1-.398-1.6v-.1-.5-.2c0-.1 0-.1.1-.2s.199-.3.398-.3h.597l.1-.1c.1-.1.199-.1.299-.1 0-.1 0-.2-.1-.3 0-.1 0-.2-.1-.3.4-.5.897-.9 1.395-1.3-.697-.1-1.493-.2-2.091-.3h-.2c-1.194-.2-2.389-.5-3.683-.7v-.2-.1h-.1c-.299-.1-.498-.2-.697-.4v-.2-.1c.697-.4 1.295-.7 2.091-1.1h-.1c.3-.2.498-.3.797-.3.299-.2.498-.3.797-.4v-.1-.2c1.493-.9 3.086-1.5 4.878-1.8.398-.1.797-.2 1.295-.2.796-.1 1.494-.1 2.09.2.1 0 .1 0 .1.1.1 0 .1.1.1.1 0 .1-.1.2-.1.2 0 .1 0 .1-.1.2.1 0 .1 0 .1.1.398.2.797.4 1.295.6.099 0 .198-.1.398-.1v-.1c2.787-1.1 5.576-2.2 8.462-3 2.59-.9 5.178-1.7 7.866-2.4.398-.2.896-.4 1.494-.5l1.493-.3c1.494-.5 2.987-.9 4.48-1.4 1.694-.4 3.386-.8 4.98-1.2 1.493-.3 2.886-.7 4.28-1 1.893-.4 3.884-.8 5.875-1.3.398-.2.896-.4 1.394-.6h.298zM22.67 24.798zm38.234 5.4a42.126 42.126 0 0 0-.176-.092c.059.01.117.034.176.092zM55.626 1.9c-.597.2-1.095.3-1.593.3.2 0 .299 0 .399.1l.099.1.1.1c-3.286.6-6.473 1.3-9.658 2l-2.091.6h-.299c-.597.2-1.095.3-1.693.5l-.397.1c-1.793.4-3.685.9-5.476 1.4-1.295.4-2.49.8-3.785 1.2l-1.493.9c1.991-.6 3.983-1.1 5.875-1.6 2.588-.6 5.077-1.3 7.566-2 .2-.1.3-.1.399-.1 1.892-.7 3.684-1.2 5.676-1.6 1.194-.3 2.488-.5 3.782-.6.1 0 .1.1.1.1v.1c-3.385.9-6.77 1.8-10.255 2.8-1.992.6-3.883 1.3-5.874 2.1v-.2-.1c.1 0 .299-.1.498-.2-1.594.4-3.287.9-4.979 1.3l-5.675 1.5c-1.493.6-3.087 1.2-4.78 1.7-1.891.5-3.683 1.2-5.575 2 .1-.4.598-.8 1.294-1.1.3-.1.697-.2.996-.3-.199-.1-.199-.1-.3-.2.797-.2 1.595-.5 2.391-.7-.398.1-.796.2-1.294.3-.399.1-.797.3-1.096.4-.896.4-1.693.7-2.489 1 .559-.28 1.03-.647 1.495-.94-.107.04-.253.04-.4.04 0 0-.1 0-.1.1-.895.4-1.791.7-2.588.9 0 .2.1.3.2.5.099.2.099.5 0 .9.099 0 .099.1.198.1 0 .1 0 .2.1.3v.1c.1.1.2.4.299.6.099.2 0 .4-.1.5l-.1.1c-.099 0-.199 0-.199.1v.2c.1.1.2.3.3.5v.1c-.1 0-.2.1-.399.1l-.299-.3c-.1-.2-.298-.3-.298-.5h-.3c.498 1.5 1.096 3.1 1.594 4.7l.298-.3c.1 0 .1-.1.2 0-.2.1-.299.3-.4.5.101.2.101.4.2.6.1.2.2.5.1.7.1.1.1.2.1.3-.2.1-.299.2-.4.3h.101s.199 0 .199.1c.1 0 .1 0 .1.1.1.2 0 .4-.2.5l-.099.1V25.099l-.3.3c.2-.2.698-.1 1.296.3v.3h.198c0-.7.2-1.3.598-2 .2-.4.398-.9.597-1.4.1-.4.399-.7.697-.8-.2 1.1-.596 2.2-1.095 3.3v.1c-.299.2-.497.4-.497.7.198-.1.298-.1.398-.1.598-1.8 1.294-3.4 2.29-5h.1c-.599 1.7-1.295 3.3-1.992 4.9.299-.1.697-.2.996-.3.298-.1.597-.3.895-.5a34.36 34.36 0 0 1 2.091-4.3c-.398 1.4-.896 2.8-1.593 4.1.3-.1.498-.2.797-.3.299-1.2.697-2.4 1.394-3.6h.1c-.399 1.2-.797 2.4-1.295 3.5.1 0 .3-.1.498-.1.299-.9.797-1.7 1.095-2.5.2-.4.498-.7.697-.9-.299 1.1-.797 2.2-1.394 3.2h.2c.596-.2 1.194-.3 1.693-.5.795-1.2 1.493-2.5 2.389-3.7l.1-.1c-.498 1.3-1.195 2.6-2.092 3.7.398-.1.598-.2.996-.3.598-1.2 1.294-2.3 1.99-3.5h.101c-.2.7-.498 1.4-.797 2.1.3-.4.598-.7.797-1.1.1 0 .199-.1.199 0-.398.8-.996 1.5-1.692 2.2v.1c.099 0 .298-.1.497-.1l.697-.3c.697-1.6 1.493-3.1 2.19-4.7.1 0 .1-.1.1 0-.497 1.6-1.095 3.2-1.99 4.6.098 0 .297 0 .397-.1.796-1.3 1.593-2.6 2.489-3.8l.1-.1c-.598 1.3-1.295 2.5-1.991 3.7.099 0 .298-.1.498-.2.796-1 1.493-2.1 2.19-3.1.1-.2.199-.3.299-.4-.498 1.2-1.195 2.3-1.992 3.3l.3-.1c.397-.1.696-.2.994-.3.598-1.2 1.394-2.3 2.191-3.4.1 0 .198 0 .198-.1.1.1.2.1.2.1.1 0 .1 0 .1.1h-.1c0 .1-.1.1-.2.1-.696 1-1.193 2-1.791 2.9.199-.1.497-.2.697-.3.1 0 .199 0 .398-.1.597-1.1 1.394-2.2 2.19-3.2-.498 1-1.194 2-1.692 3l1.494-.6c.397-.7.995-1.4 1.493-2-.3.6-.697 1.2-1.096 1.9.499-.3 1.096-.5 1.594-.7.498-.6.996-1.1 1.692-1.6-.398.5-.796.9-1.194 1.5.198-.1.299-.2.498-.2.895-1.1 1.89-2 2.887-2.9h.022c-.678.866-1.441 1.733-2.113 2.6.796-.3 1.693-.6 2.588-.9 0-.1 0-.1.1-.2.398-.7.996-1.1 1.693-1.4-.398.5-.797.9-1.195 1.3.199 0 .3-.1.498-.1l-.598.3c-.1.1-.398.3-.498.6.3-.1.598-.2.996-.3.399-.7.996-1.2 1.594-1.6-.3.5-.698.9-.996 1.4.298-.1.498-.2.896-.3.896-1.1 1.892-2.2 2.987-3.3h.1c-.698 1-1.494 2-2.191 3.1.1-.1.2-.1.2-.1.099-.1.198-.1.298-.1 1.095-1.9 2.588-3.6 4.38-5.2-.696 1.2-1.692 2.4-2.687 3.5-.498.5-.996 1-1.296 1.6.2-.1.3-.2.598-.2.499-.2.996-.4 1.494-.5.996-1.3 1.992-2.5 3.186-3.6a34.269 34.269 0 0 1-2.39 3.3c.1 0 .2 0 .299-.1.897-1.3 1.991-2.5 3.186-3.7.1-.1.2-.1.299-.1h.1l-2.987 3.6c.398-.1.796-.2 1.294-.3 1.195-1.7 2.588-3.2 4.182-4.5-1.195 1.4-2.49 2.8-3.585 4.3 0 0 .1 0 .1-.1.796-.2 1.494-.4 2.29-.5.697-1 1.394-2 2.09-2.9.1-.2.299-.3.598-.3-.697 1.1-1.493 2.1-2.19 3.1.2-.1.597-.1.896-.2.797-1.1 1.792-2.2 2.788-3.1V11.2c-.697.7-1.494 1.6-2.092 2.6 0 .043 0 .068-.008.082.468-.094.935-.182 1.403-.182h.099c.1-.3.399-.6.498-.9l.1-.1s.199 0 .199.1c-.2.3-.3.6-.499.9.3-.1.598 0 .797 0 .3 0 .598-.1.996-.1l-.1-.1v-.1c-.099-.2-.099-.3-.099-.5h-.1c-.198-.7-.299-1.3-.398-1.9v-.3c-.398-1.6-.796-3.1-1.394-4.7-.2-.5-.298-1.1-.398-1.7a7.01 7.01 0 0 1-.598-1.9c0-.2-.099-.3-.2-.5zm-.398 12c.057 0 .08 0 .091-.018l-.09.018zm-37.636-1.1l-.098.06a.268.268 0 0 0 .098-.06zm34.052-10.4h-.3c-.497.2-.895.3-1.393.5.498-.1.896-.2 1.295-.2.597-.1 1.195-.2 1.692-.3h-1.294zm6.173 12.1c-.1.1-.2.2-.398.3.398-.1.796-.3 1.194-.4h-.298c-.1 0-.399 0-.498.1zm-.698.2c-.198 0-.397.1-.596.2.099 0 .099 0 0 0 .099.1.298 0 .596-.2zm-1.095.3l-.298.3c.1-.1.2-.1.2-.1.098 0 .098-.1.198-.1V15h-.1zm-.398.3c0-.079.062-.157.137-.187-.47.095-.854.19-1.331.287-.1.1-.2.1-.399.2-.099 0-.099.1-.099.2 0-.1.198-.1.299-.1.199-.1.497-.2.697-.3v.1c.198 0 .397-.1.696-.2zm.2-.2a.17.17 0 0 0-.063.013l.062-.012zm-2.091 12.6c-.498-.3-.897-.5-1.395-.8l-.397-.1c.995.9 1.991 1.8 3.086 2.6.2.1.399.2.697.3-.796-.6-1.394-1.3-1.991-2zm2.987 2.4c.099.1.298.2.498.2-.4-.4-.797-.8-1.096-1.2-.398-.2-.797-.4-1.194-.7.597.6 1.194 1.2 1.792 1.7zm1.194.6c.296 0 .494.097.69.292l.007.008a1.41 1.41 0 0 0-.008-.008c-.395-.397-.79-.795-1.186-1.292-.2-.1-.498-.2-.697-.3.397.4.796.8 1.194 1.3zm-4.978-4.1a1.805 1.805 0 0 0-.46-.33c.153.108.307.218.46.33zm-.46-.33a29.66 29.66 0 0 0-2.715-1.709c.025.08.088.16.088.239.797.5 1.594 1 2.49 1.4l.137.07zm-2.726-1.77a.11.11 0 0 0-.065.02l.076.041a.2.2 0 0 1-.01-.061zm-.065.02a23.972 23.972 0 0 0-.035-.02c-.498-.3-.995-.6-1.494-1v.2c.399.4.897.7 1.395 1v-.1c.071 0 .091-.052.134-.08zm-.035 1.78v.1c.498.4 1.096.9 1.594 1.4.067 0 .089.046.127.076a6.224 6.224 0 0 1-.725-.276l.3.3s.197.1.298.1l1.493.6c-.896-1-1.792-1.9-2.688-2.8l-.597-.3c0 .1 0 .2.099.3 0 .1 0 .1.099.1h-.198c0 .1.099.2.198.3v.1zm-.198.9c.099 0 .298.1.397.2-.099-.1-.2-.2-.2-.3-.098 0-.197 0-.197.1zm4.675 1.897a10.058 10.058 0 0 0-1.59-1.297c.4.3.698.7 1.096 1.1.1 0 .199.1.3.1 0 0 .096 0 .194.097zm.003.004a.33.33 0 0 0-.003-.004l.003.004zm4.283 2.099s0 .1.099.1l.099.1c.2.1.3.2.598.3v-.1-.1c-.299-.1-.498-.2-.796-.3zm.995-.2c0-.1.199-.2.199-.3l.1-.1h.2l-1.794-.6c.3.4.797.8 1.195 1.2v-.1c.1 0 .1-.1.1-.1zm6.472-2.3v.3c0-.1.198-.2.198-.2h.3c-.3.3-.498.6-.598.9.1-.1.298-.2.498-.3 0-.2.1-.5.498-.8V28v-.3c-.3.3-.598.6-.896 1zm-1.493.8c-.2.7-.399 1.4-.598 2h.1c0-.1 0-.2.1-.2a4.93 4.93 0 0 1 .596-1.7l-.1-.1h-.098zm.696.2h-.199l-.3.9c.2-.1.3-.3.599-.5.1-.4.299-.7.597-1-.1 0-.1-.1-.1-.2-.198.3-.398.5-.597.8zm1.494-.4c.1 0 .1-.1.199-.1v-.5c-.1.2-.1.4-.2.6zm-2.888.8v.2c.1-.1.1-.2.1-.3 0 0 0 .1-.1.1zm-.2.5a.311.311 0 0 0-.09.169c.035-.062.066-.118.09-.168zm-.09.169c-.102.182-.233.407-.308.631-.099 0-.198.1-.198.2v.2c.1.1.198.2.299.4 0-.5.099-.9.199-1.3 0-.044 0-.088.008-.131zm-.705.331c0-.2.099-.3.099-.5-.1.1-.2.2-.2.4zm-2.788 0v.1l.1-.1h-.1zm.498 2.7l.099-.1c.1 0 .1-.1.1-.2h-.3c0 .1 0 .2.1.3zm-40.126-22.2s.1 0 .2-.1c.497-.2.995-.4 1.593-.5h-.2c-.617.177-1.156.354-1.687.601h.094zm-.299.1l.205-.099c-.108.003-.123.018-.205.1zm6.97-1.8c.399-.1.598-.2.996-.4v-.1h-.2c-.796.3-1.691.6-2.489.9-.198.1-.298.1-.398.2.2-.1.499-.2.698-.2.498-.2.995-.3 1.393-.4zm1.494-.5c.1-.1.199-.1.398-.2-.199.1-.298.1-.497.1l.099.1zm4.182-2.7c.796-.2 1.493-.4 2.29-.6 1.394-.5 2.887-.9 4.38-1.4-.995.3-1.99.6-2.986.8-1.395.4-2.788.8-4.083 1.1-.696.2-1.194.4-1.891.6-.1.1-.2.1-.299.2.896-.3 1.792-.5 2.589-.7zm-3.286 2.3a.203.203 0 0 0 .145-.071l-.145.07zm.145-.071c.372-.176.821-.352 1.348-.529-.398.1-.796.2-1.294.4a.198.198 0 0 1-.054.129zm11.205-4.43c.897-.299 1.892-.599 2.789-.899.298 0 .497-.1.696-.2l-1.194.3c-.697.2-1.494.4-2.092.6h.1c-.1 0-.199.1-.299.2zm-33.852 8.8c-.597.1-1.195.302-1.692.401v.1c1.194-.3 2.389-.6 3.484-.8-.199 0-.398 0-.597-.1-.398.2-.797.3-1.195.4zm4.282.302c.198-.101.298-.101.398-.101-.1-.1-.1-.1-.2-.1v-.1c-.1-.1-.198-.1-.198-.1-.3.1-.598.1-.996.2h-.2c-.1 0-.298 0-.497.1h-.1a50.9 50.9 0 0 1-4.181 1c.099.1.099.2.198.3-.198.1-.298.1-.498.2.3.1.698.2 1.096.3 1.593-.9 3.385-1.4 5.178-1.7zm-4.182 6.699c0-.1 0-.2-.1-.2H6.44s-.1 0-.2.1c-.098 0-.199 0-.298.1v.9c.299-.4.697-.6 1.095-.7-.1-.1-.1-.1-.1-.2zm.796-.6c.797 1.3 1.395 2.6 1.991 4 .3.6.597 1.3.698 2 .099.1.099.2.099.3 0 .1.1.2.1.2 0 .1 0 .1.1.2l.596-.3-.198-.2c0-.1-.1-.1-.1-.1l-.1-.1c.2-.3.498-.5.697-.6 0-.1 0-.1-.1-.2.897-.9 1.694-1.9 2.49-3.1-.1-.3-.1-.5-.2-.7v-.3c-.696.9-1.194 1.9-1.89 2.8 0 .1 0 .1-.1.1h-.3c.599-1.2 1.295-2.3 2.092-3.5-.1-.1-.1-.2-.1-.3-.1-.1-.1-.3-.2-.4-.298 1.2-.995 2.4-1.891 3.5h-.1c.498-1.3 1.195-2.5 1.893-3.7h.099c-.2-.5-.299-.9-.399-1.3l-.1.1c-.397 1.3-1.194 2.5-1.99 3.6 0 0-.199 0-.199.1 0-.1-.1-.1-.1-.1.598-1.2 1.294-2.4 1.792-3.6.1-.1.1-.1.1-.2.099-.1.2-.1.298-.2h.2c-.1-.2-.1-.4-.1-.6h-.498a8.569 8.569 0 0 0-.284.3c.086-.01.086-.095.086 0 .198.1.198.3 0 .5v.1c-.499.8-.996 1.7-1.196 2.6v.1c-.1.1-.298.1-.298.1s-.1 0-.2-.1c.191-1.145.743-2.199 1.485-3.162-.703.812-1.264 1.766-1.683 2.862-.1 0-.1 0-.1.1h-.2c.1-1.4.698-2.5 1.892-3.5h-.696c-.3-.1-.697-.1-1.096-.1-.697.3-1.394.5-1.991.8h-.2c0 .4 0 .8-.198 1.1-.1.2-.1.3-.2.5 0 .1 0 .1.1.2 0 .1.1.2.2.2zm-.796 1.8c.1 0 .1 0 .1-.1-.3.2-.598.4-.896.5 0 .2.198.4.298.5 0-.3.2-.6.498-.9zm.697.5l-.1.1h.1zm-.797 1.4l.1.1c0-.1.1-.1.199-.2-.1-.1-.1-.2-.2-.4-.1 0-.199 0-.298.1 0 .1.199.2.199.4zm.299.6c0-.1.1-.2.299-.2l-.1-.1c-.2-.1-.299-.2-.398-.2v.3c.1 0 .199.1.199.2zm.199-.8c.1-.2.3-.3.597-.4-.1-.1-.1-.2-.1-.3-.099 0-.198 0-.298.1-.2.1-.299.2-.398.3 0 .1.1.2.199.3zm.398-.1h.299c-.1 0-.1-.1-.1-.1s-.1.1-.199.1zm.1 1.3c.1 0 .1 0 .1.1h.099l.1-.1v-.6c-.1.1-.1.1-.2.1-.1.1-.1.3-.1.5zm36.142-5.2c-.1 0-.199 0-.199.1v1c.1-.4.1-.7.2-1.1zm-2.19 4v.2h-.299v-.2c0-.9 0-1.8.199-2.6-.199-.1-.299-.1-.398-.1-.1 0-.1-.1-.1-.1v-.1c.2-.2.3-.4.598-.6-.498.2-.996.3-1.594.4v.1h.1s.1 0 .1.1c-.1 1-.2 2.1-.2 3.2v.2s0 .1-.099.2h.1c.299-1 .497-2.2.299-3.4v-.1s.198 0 .198-.1h.1c0 .2 0 .4.1.5v-.2c.1-.1.1-.1.1-.2.099.1.198.1.298.1 0 .8-.1 1.6-.299 2.4v.3c-.1 0-.1 0-.1.1 0 .4 0 .8-.099 1.2v.1l.299.3.896.3-.3-.3c.498 0 1.096.1 1.694.3.298.1.597.1.995 0 .299-.1.598-.3.796-.4 0-.2 0-.3.1-.4v-.1c.2-.2.2-.2.2-.1v.2c.099-.2.199-.3.298-.4 0-.3 0-.5.1-.7h.1v.7c.299-.3.498-.7.696-1.1.1-.1.1-.2.2-.3-.1-.1-.1-.1-.2-.1 0-.1 0-.1.1-.1 0-.1.1-.1.1-.1h.1c0-.2 0-.4.099-.6-.1-.3-.1-.5-.1-.7v-.2c-.497-.6-.696-1.3-.597-2l.08-.081a.436.436 0 0 0-.08-.118h-.2a9.92 9.92 0 0 0-.298 2.399v.2l-.2.2c-.099-.1-.198-.1-.198-.1-.1-.9 0-1.7.199-2.5-.398 0-.797.1-1.195.3v.3c-.2.5-.399 1.1-.498 1.8 0 .3-.1.6-.1.9-.099.1-.099.1-.2.1v.4c0 .1 0 .1-.098.2-.298-.5-.498-1.1-.399-1.9 0-.5.1-1 .1-1.4 0 0-.1 0-.199.1v.1c-.1.1-.1.2-.2.2-.099 1-.198 2-.198 2.9 0 .1 0 .2-.1.3 0-.1 0-.1-.099-.1v.2h-.3c0-1.1 0-2.2.1-3.2h-.199c-.099 1.1-.099 2.2-.298 3.2zm4.68-4.4v-.1l-.02.019a.204.204 0 0 1 .02.08zm-6.672 3.6c-.1.3-.1.6-.1 1l.1.1v-1.1zM38.7 20.5h-.1v1.7l.3.3c.1-.3.1-.7.1-1.1.098-.1.198-.3.198-.5.1 0 .199-.1.199-.1.1.1.1.2.2.4.099-.4.198-.7.198-1-.398.1-.796.2-1.095.3zm8.264-.5v-.1h-.1l.1.1zM39 18.598c.398-.2.896-.3 1.394-.5.1-.1.1-.2.298-.4-.498.3-1.194.6-1.692.9zm-5.974 2.6l.597-.3c-.099 0-.2 0-.298.1-.2 0-.399.1-.498.2h.2zm4.979.2c.099-.3.198-.6.298-.8-.2 0-.298 0-.399.1h-.2c.101.3.2.5.3.7zm.497-1.7h.1a.336.336 0 0 1 .004-.004c-.035.004-.07.004-.104.004zm.104-.004a.314.314 0 0 0 .195-.096s-.097 0-.195.096zM36.51 21.1c-.2 0-.3 0-.498.1.299.2.498.4.796.6v-.1c0-.1 0-.1-.1-.2 0 0-.198-.1-.198-.2v-.2zm.896.3v.2c.1.1.1.2.1.2l.498.5c-.3-.5-.498-.9-.598-1.4 0 0 0-.1.1-.1h-.2c0 .2 0 .4.1.5v.1zM47.462 25c0-.1 0-.1-.1-.1 0 .1-.1.2-.199.2v.1c.1-.1.2-.1.2-.1l.1-.1zm-.995.5c.099 0 .198.1.198.1 0 .1 0 .1.1.1h.2c0-.1-.1-.2-.2-.3h-.1c-.1 0-.1 0-.198.1zm-1.395.3h-.099s.198 0 .198.1c0-.1 0-.1-.099-.1zm.598-.2v.1l.1-.1h-.1zM16.994 12c-.397.3-.696.5-.995.6.1 0 .299-.1.498-.1.1-.1.398-.2.598-.3l.298-.3c-.2 0-.298.1-.399.1zm-2.886.9h-.2v-.1h-.1-.099c-.099 0-.099 0-.099.1l.198.2c.3-.1.498-.1.797-.2h-.497zm0 .6c0 .1 0 .1.099.1.199 0 .299-.1.398-.2h-.1c-.099.1-.199.1-.397.1zm-2.19.1h.199c0-.1 0-.2-.1-.2h-.1v.2zm-.997 1.2s-.1.1-.298.1c.397.1.696 0 .995-.1 0 0 .2 0 .3-.1 0 .1.098.1.098.2-.697.6-1.592.8-2.787.8-.1-.1-.1-.1-.1-.2-.398.1-.797.1-1.195 0 1.095-.7 2.19-1.2 3.286-1.6-1.593.4-3.186.9-4.68 1.5 1.096.3 2.091.6 3.286.8.497-.1.896-.2 1.295-.3 1.393-.3 1.791-.9 1.294-1.9-.298 0-.598.1-.797.2-.199.2-.398.3-.497.4-.1 0-.1.1-.2.2zm1.593 9.6c.1-.1.299-.2.398-.3.1-.1.2-.3.3-.4.099-.1.199-.2.199-.4-.3.3-.598.7-.897 1.1zm2.39-1.2c0-.1-.1-.1-.1-.1-.099 0-.199.1-.199.2 0 0 .199-.1.3-.1zm-1.593.7c.1 0 .199-.1.3-.1.297-.4.497-.7.895-1-.1-.2-.2-.4-.398-.6-.2.6-.498 1.2-.797 1.7zm11.35-3.2l.1-.1c-.3 1-.696 1.9-1.294 2.8l-.1.1h-.2c.4-.9.898-1.9 1.494-2.8zm-5.276 4.2l-.1.1c0 .1-.2.1-.2.1s-.099 0-.198-.1c.498-1.4 1.094-2.8 1.792-4.2h.2c-.3 1.4-.797 2.8-1.494 4.1zm25.786-6c.2 1.3.1 2.5-.298 3.6v.2c-.099 0-.2 0-.398.1 0-.1-.1-.2-.1-.3.4-1 .598-2.1.498-3.3 0-.2.1-.2.2-.3h.098z"/></g></g></svg>