<svg xmlns="http://www.w3.org/2000/svg" width="60" height="39" viewBox="0 0 60 39"><g><g><path fill="#4d8f79" d="M58.187 4.963c.101.395.201.89.302 1.385v.297c.1.298.1.595.1.891.1.892.202 1.782.202 2.674 0-.595 0-1.09.1-1.585.1 2.97.202 5.94.202 8.911V21.2c.201.892.302 1.782.402 2.674.1.693.1 1.485.201 2.277 0 1.386-.1 2.772-.301 4.158.2.892.1 1.882-.302 2.872-.101 1.287-.604 2.475-1.611 3.366-.1.099-.2.296-.2.495h.804c0 .396-.201.495-.705.495-.2 0-.301 0-.403.1-.301.395-.703.495-1.206.495.2-.199.402-.299.503-.495-.503 0-1.108 0-1.611.098.201 0 .503.098.604.198h-3.523c-.403.199-1.006.297-1.409.495-.1 0-.1 0-.1-.1v-.098l-2.416.297c-.302.1-.503 0-.603-.198a53.1 53.1 0 0 1 1.61-.297h-.303c-2.415.1-4.932.198-7.247.198-.301 0-.603 0-.906-.098.807 0 1.611-.1 2.316-.199H41.58c-.401-.1-.705-.1-1.106-.1h-1.108c-3.321.299-6.643.299-9.964.1h-.604c-2.013.199-3.723.199-5.637.199-2.918.197-5.736.296-8.454.197-3.321.099-6.543.099-9.763-.099h-.101v-.198c-.201-.099-.302-.199-.402-.297h-.604v-.098h.302c-.201-.1-.504-.1-.906-.298.202.198.402.298.604.494.101 0 .101 0 .101.1-.303-.1-.705-.198-1.006-.495-.102-.198-.304-.396-.404-.595-.503-.296-1.006-.792-1.41-1.385-.1-.1-.1-.297-.1-.396l.1-.1c0-.099 0-.099.102-.099a1.826 1.826 0 0 1-.201-.791c-.1-.396 0-.792.1-1.089 0 .395.101.693.202 1.089-.202-1.287-.403-2.575-.504-3.861-.1-1.09-.201-2.179-.1-3.268v-.99-1.881c.1-1.09.201-2.08.302-3.07-.202-.098-.302-.197-.403-.197.101-.1.201-.198.403-.298 0-1.682 0-3.564-.1-5.346v-.198c-.102-.594-.102-1.287-.202-2.079-.202.099-.403.198-.705.198H-.29c.301-.198.704-.396 1.006-.594V11.2 8.625c0-.792 0-1.485.201-1.98.1.495.1.99.1 1.585 0-.496.1-.892.303-1.287v-.298c0 .1-.1.1-.1.1-.202-.892-.102-1.684.2-2.476C.716 5.358.514 6.546.514 7.833c-.1 0-.2 0-.1-.198v-.594c0-.296 0-.593-.1-.891V6.05c0-.099 0-.099.1-.099v-.198c.1-.1.1-.1.1-.198 0-.099.1-.297.1-.397v-.098c.404-.99.907-1.782 1.712-2.574.101-.1.201-.198.301-.198.304-.297.504-.396.807-.495.2-.1.503-.297.704-.297 1.006.197 2.114.197 3.22.197h.907c.201-.098.302-.098.402-.098.201-.099.403-.099.503-.099.201-.1.503-.198.806-.298-.102.1-.303.199-.303.298 2.416-.298 4.933-.495 7.348-.396h3.321c.1 0 .202 0 .302.098h4.933c1.207 0 2.516 0 3.824.1.402 0 .705.099 1.107.099.605.099 1.108.099 1.51-.1h1.107c.1-.099.1-.099.2-.099H32.12l.2-.197h1.41c.403-.1.805-.298 1.107-.397-.201.1-.504.297-.805.397 1.41 0 2.818 0 4.227.099-1.51 0-3.02 0-4.429.098-.1 0-.2 0-.2.1h3.523c.904 0 1.811.099 2.716.198 1.611-.1 3.221-.1 4.832-.298 2.918 0 5.736-.098 8.556-.098h.804c.202 0 .202 0 .402-.1h.101c1.812.693 2.919 1.683 3.422 3.268.101.198.101.495.202.694zm-2.215-1.684c-.2-.198-.402-.297-.503-.495-.2-.1-.302-.198-.503-.198-.302-.099-.504-.199-.806-.199-.401 0-.804 0-1.207-.098h-1.51c.302 0 .604 0 .906.098-1.51.1-2.92.199-4.429.199-1.912.99-3.924 2.178-5.938 3.366 0 .1 0 .1-.1.198-.1-.099-.201-.099-.201-.198 1.71-1.386 3.723-2.574 5.937-3.366-2.012 0-4.026 0-5.937-.099-2.316-.1-4.53-.198-6.644-.298-.402 0-.805 0-1.106-.098-.102-.099-.202-.099-.202-.099h-.503c-.302.099-.604.099-.906.099h-.303c-1.711.792-3.421 1.683-5.132 2.475-2.718 1.386-5.334 2.772-7.952 4.357-1.51.89-3.22 1.682-4.83 2.475H13.8c2.315-1.288 4.63-2.575 6.945-3.96a136.239 136.239 0 0 1 3.925-2.279 57.232 57.232 0 0 0-5.435 2.872 67.17 67.17 0 0 1-5.838 3.268h-.201c2.416-1.386 4.932-2.871 7.448-4.356a30.586 30.586 0 0 1 6.543-3.169c0 .099 0 .099.1.099.503-.297 1.006-.594 1.51-.792a39.16 39.16 0 0 1 2.214-.99h-4.228c-2.113 1.287-4.327 2.574-6.541 3.861 0 .1-.1.1-.201.1 0 0-.102 0-.102-.1 2.013-1.485 4.328-2.772 6.845-3.861-2.517.098-4.832.098-7.146.098h-.202c-.302 0-.603.1-.805.1h-.704c-1.208 0-2.415.098-3.724.098-.806.496-1.711 1.09-2.517 1.684-2.415 1.683-4.83 3.564-7.246 5.347-1.006.692-2.013 1.386-3.12 2.079 1.006-.99 2.114-1.882 3.32-2.772.907-.595 1.813-1.189 2.618-1.98a46.315 46.315 0 0 1 6.24-4.358h-1.51c-1.207.1-2.315.1-3.522.199A113.938 113.938 0 0 0 3.232 7.14c-.403.396-.805.793-1.108 1.188-.1.198-.301.397-.503.495 0 .493-.03.986-.092 1.478 2.111-1.78 4.323-3.559 6.634-5.438a17.678 17.678 0 0 1 2.92-1.782c.1 0 .201-.099.402 0C9.07 4.863 6.755 6.546 4.34 8.428a27.63 27.63 0 0 1-2.81 1.875c-.05.398-.12.796-.21 1.194v.693c2.013-1.287 4.026-2.575 6.04-3.96a70.393 70.393 0 0 1 7.347-4.654c.699-.295 1.3-.59 1.899-.982A315.612 315.612 0 0 0 9.27 7.536c-2.416 1.683-4.932 3.367-7.448 4.852-.202.099-.403.197-.604.395.1.496.1.99.1 1.486 2.315-1.584 4.63-3.069 7.147-4.654 2.516-1.682 5.133-3.167 7.75-4.752a67.692 67.692 0 0 1 3.825-1.88c-2.517 1.484-5.033 3.068-7.55 4.652a507.507 507.507 0 0 1-7.65 4.753c-1.207.693-2.214 1.386-3.42 1.98h-.102v1.089c.101.495.101.892.101 1.386.1.99.2 2.08.302 3.168 1.41-.99 2.818-1.98 4.228-2.87.2-.199.402-.199.603-.199-.201.099-.403.297-.603.396.1 0 .2 0 .2-.1.403-.098.906-.197 1.31-.296.703-.297 1.308-.198 1.911.198 0 0 .102 0 .102.099.1 0 .1 0 .1.1v.395c-.1.1-.1.1-.1.198v.099l.1.1v.098c0 .1-.1.198-.1.198-1.208.099-2.316.099-3.523.099h-.101c-1.309.793-2.517 1.683-3.623 2.575v1.485c1.006-.495 1.911-1.09 2.918-1.782.403-.297.705-.495 1.006-.694-1.106.991-2.415 1.881-3.824 2.773h-.1c0 .396 0 .791.1 1.188.101-.297.403-.595.906-.99A29.793 29.793 0 0 1 6.15 21.1c0-.1 0-.1.102-.1.2-.098.301-.197.503-.297-.102 0-.102 0-.102-.098v-.199c.102 0 .202-.098.202-.198 0-.099 0-.099.101-.099H7.56c.503 0 .906 0 1.41.1.1 0 .2.099.3.197l.101.1c-.201.297-.1.594 0 .792l.102.098c-.102 0-.102.1-.102.1 0 .099-.1.198-.201.198V21.99c-.704.298-1.409.198-2.013-.099 0-.098 0-.098-.1-.098-.202-.198-.504-.397-.604-.495-.503.396-1.006.89-1.711 1.287-.705.395-1.41.89-2.115 1.287-.1.099-.2.198-.301.198v6.931c0 .792 0 1.583.101 2.375 1.912-1.386 4.026-2.672 6.04-3.96 0-.099.1-.099.2-.099-2.014 1.584-4.026 2.97-6.24 4.159v.099c.1-.1.2-.199.302-.199 2.013-1.187 4.026-2.277 5.938-3.365-1.812 1.484-4.026 2.772-6.24 3.86.1.396.1.793.1 1.189A38.944 38.944 0 0 0 9.673 31c-.603.891-1.51 1.584-2.516 2.179-1.51.89-3.02 1.485-4.53 2.08v.197c.102.098.202.198.304.396 2.616-1.188 5.132-2.574 7.548-4.06a4.68 4.68 0 0 1 1.006-.495c-2.315 1.684-4.832 3.169-7.65 4.357a1.1 1.1 0 0 1-.704.297c.303.396.604.693 1.006.99 2.316-1.485 4.63-2.97 7.046-4.455a11.49 11.49 0 0 1 2.013-.892c-.302.396-.905.892-1.51 1.189-2.516 1.484-4.931 2.871-7.347 4.455h.201c1.61.198 3.12.297 4.73.397 1.913 0 3.725 0 5.637-.1 2.315-1.584 4.831-3.07 7.347-4.456a13.853 13.853 0 0 1 3.323-1.385c-2.618 1.385-5.134 2.97-7.75 4.653a11.43 11.43 0 0 1-2.115 1.188c1.41 0 2.92 0 4.329-.099h-.202a47.052 47.052 0 0 1 7.75-4.653c.201-.199.403-.199.604-.297-.403.495-.906.89-1.61 1.286-2.013.99-3.926 2.179-5.838 3.466-.1.099-.403.198-.503.198h2.012c.705-.1 1.41-.198 2.013-.198h-.301l.1-.099c.201 0 .504 0 .704.099.102-.099.202-.099.404-.099h.704c-.1 0-.1 0-.1-.099 1.409-.594 2.818-1.188 4.227-1.684.101 0 .301-.098.402-.098.303 0 .604 0 .906.098-1.71.298-3.22.892-4.73 1.783h1.61c.805-.891 1.812-1.386 2.92-1.585.1-.098.2-.098.3 0-1.006.397-2.012.99-2.918 1.486 0 .1-.1.1-.1.1.2 0 .401 0 .704.098 1.107-.792 2.214-1.485 3.523-1.98 0-.099.1-.099.2-.099-1.106.792-2.213 1.485-3.522 2.079h.101c.302-.099.604-.099 1.006-.099.303 0 .504 0 .806.099-.1-.099-.1-.099-.202-.099 1.711-.891 3.423-1.783 5.134-2.773h.302a47.813 47.813 0 0 1-4.43 2.773c-.301.099-.401.198-.603.099-.101.099-.201.099-.403.099H40.573l-.1-.1a77.227 77.227 0 0 0 7.648-4.95c.302-.198.705-.396 1.007-.593h.201l.1.099c-2.314 1.881-4.83 3.465-7.447 4.95a2.186 2.186 0 0 0-.804.495c-.102 0-.202 0-.202.099a6.875 6.875 0 0 1 2.013 0v-.1a280.726 280.726 0 0 0 7.75-5.346s.1 0 .1-.098h.202c-.403.593-.906 1.088-1.611 1.583a35.137 35.137 0 0 0-3.12 2.178c-.805.694-1.71 1.287-2.718 1.684v.099h2.315c.705 0 1.41 0 2.114.1h.402c1.51-.1 3.02-.2 4.53-.2a19.926 19.926 0 0 1 3.422-1.188c.503-1.088 1.006-2.078 1.41-3.168v-.098c0-.892.1-1.684.2-2.377.101.495.202.99.202 1.485 0-.098.101-.197.101-.297-.101-.198-.101-.395-.101-.693.101-1.188.101-2.475.101-3.663-.101-.297-.101-.494 0-.693 0-1.456-.002-3.003-.101-4.455-.1-1.98-.1-4.06-.302-6.139-.1-1.387-.302-2.772-.302-4.159-.101-.99-.101-1.98 0-2.97-.101-1.583-.503-3.069-1.006-4.554a8.642 8.642 0 0 0-.605-.99zm2.316 23.366v-.099.099zm.1-12.574v-.396-2.178c0-.496-.1-.99-.201-1.485 0 1.386.101 2.771.201 4.059zM3.031 3.08l-.202.396c.102-.1.202-.198.302-.198 0 0 0-.1-.1-.198zM2.024 4.269c0-.1.1-.297.1-.396-.1.1-.1.198-.2.296v.199c.1 0 .1 0 .1-.099zm-.1 1.98C3.13 4.863 4.64 3.774 6.352 2.883c-1.007.099-1.912.297-2.818.792-.503.198-.907.594-1.208.99-.202.298-.302.594-.302.891 0 .198-.1.495-.1.693zm-.101 1.584h-.1v.397a34.493 34.493 0 0 1 5.132-4.951c.302-.297.604-.495.805-.693h-.503c0 .098-.1.098-.2.198h-.102C5.044 3.873 3.434 5.16 1.924 6.546l-.101.099c0 .298 0 .693-.1.99.1.1.1.1.1.198zm3.604-5.938c-.635.14-1.287.294-1.893.492v.199h-.1c-.102.198-.202.297-.303.396.503-.396 1.208-.693 2.013-.99h.403c0-.072-.052-.092-.12-.097zm.01-.002h.713s.303 0 .504-.1c-.1 0-.201-.098-.302-.098l-.915.198zm-.092 0c.028 0 .056 0 .082.002l.01-.002h-.092zm-.402.693c.2-.099.604-.099.906-.199V2.29c-.202 0-.402 0-.705.098-.1 0-.402.1-.604.199h.403zm1.812 0c-.202.098-.302.098-.503.098h.301c.1 0 .1 0 .202-.098zm18.319-.891h3.119a16.45 16.45 0 0 0-3.12 0zm31.704 1.287c-.503-.595-1.107-1.09-1.913-1.386-.1 0-.302-.099-.403-.099 0 0 0 .099.101.099h-1.207c.201 0 .503.099.804.198h.202c.403 0 .705.099 1.007.297l.1.098s.101 0 .202.1h-.1c.503.198.904.395 1.207.693zM44.8 2.091c1.913.098 3.825.098 5.838.098-1.208 0-2.315-.098-3.421-.098-.605-.099-1.209-.099-1.813-.099-.2.099-.402.099-.604.099zm-1.208-.099h.302c-1.408 0-2.818-.1-4.126-.1H38.056c1.108.1 2.315.1 3.625.1.603.099 1.207.099 1.81.099.101 0 .101 0 .101-.099zM27.287 37.734c.806-.098 1.51-.098 2.215-.098-.202-.1-.403-.1-.705-.1-.504.1-1.007.1-1.51.198zm28.787-1.188l-.907.296c.302 0 .605-.098.907-.197v-.1zm-1.812.594h1.006c.1 0 .2 0 .302-.099-.201 0-.403-.099-.503-.099-.302 0-.504.099-.805.198zm-3.926.99v.1c.1-.1.202-.1.202-.1h-.202zM7.46 17.537v.1h.504c-.101-.1-.303-.1-.504-.1zm-2.012.396v-.198c.1 0 .1 0 .1-.098-1.107.89-2.315 1.683-3.423 2.474v.496c.202-.199.403-.397.605-.496a27.778 27.778 0 0 1 2.818-1.88c-.1 0-.1 0-.1-.1v-.198zM1.823 21.3c0 .692 0 1.287.1 1.98v-.595c0-.495 0-.89.1-1.385h-.2zm-.1-.298l.3-.297v-.495c-.1.1-.2.198-.3.198v.594zm-.705 4.654c.1 1.683.201 3.267.302 5.05.1.791.1 1.584.301 2.375 0-2.276-.1-4.553-.2-6.93-.101-1.089-.101-2.277-.101-3.366-.1.495-.1 1.089-.202 1.584 0 .495-.1.891-.1 1.287zm.503 9.109v-.198h-.1c.1 0 .1.1.1.198zm-.201.593l.301.298c-.1-.1-.2-.298-.301-.495v.197zm.704.198c.1.1.202.1.302.199-.1-.199-.202-.397-.302-.495 0-.099 0-.198-.1-.297v.099h-.202l.302.594v-.1zm.907.99h.1l.1.1h.101c-.1-.198-.301-.297-.403-.396.102.099.102.099.102.297zm.1.297zm.071.016a.83.83 0 0 1 .227.18l-.097-.096a.361.361 0 0 0-.13-.084zm2.445.974h-.403c.101 0 .201 0 .303.1 1.207.199 2.415.199 3.723.199h1.51c-.704-.1-1.61-.199-2.415-.299H5.547zm-.705-.296s.101.1.202.1h1.811c-.302 0-.402 0-.705-.1H4.842zm53.95-9.604c.2.891.2 1.881 0 2.872 0 .692-.202 1.286-.404 1.88.302-.594.504-1.386.604-2.079v-1.287-.891c.1-2.277 0-4.554-.1-6.732-.1-.396-.1-.792-.202-1.189 0 0 0-.099-.1-.197.1 1.287.1 2.574.201 3.86v3.763zm-2.014 7.92c.1 0 .2 0 .302-.098.1 0 .1-.099.1-.099l.302-.595v.1c.101-.198.201-.298.303-.495v-.495a15.067 15.067 0 0 1-1.007 1.683zm1.71-2.772h-.1c-.1 0-.1 0-.1-.098 0 .098 0 .198-.101.297 0 .198 0 .396-.1.593.201-.297.301-.495.402-.792zm-1.811 4.06h.101v-.099l-.101.1zM14.304 14.368c.1 0 .1.099.201.099 0 .198.1.396.1.495 0 .495.1.99.302 1.387v.098c-.704.297-1.208.297-1.812-.198a.652.652 0 0 0-.603 0h-.201v.198l-.102.099h-.1c-.1 0-.1 0-.201-.099-.705.198-1.208.099-1.712-.297-.1-.198-.2-.396-.1-.693v-.198l.1-.099c.202 0 .403-.1.605-.1 0-.296 0-.495-.101-.692 0-.693 0-1.287.302-1.683 1.51-.1 2.617.396 3.322 1.683zm-2.92-1.09c.302.1.504.199.805.199h.102c0-.297-.302-.396-.906-.199zm.907 1.387c-.102-.1-.302-.198-.403-.297 0 .297.1.594.201.792v.099c.1.1.1.1.202.1h.201c-.101-.199-.201-.397-.201-.694zM9.07 13.081c.1 0 .1.099.1.099.201.395.303.89.503 1.188v1.089c-.1 0-.2.099-.2.198H9.27c-.201 0-.301 0-.403-.1a8.478 8.478 0 0 1-3.523.1c.202-.99.705-1.782 1.611-2.277.302-.297.604-.396.906-.595.503-.198.906-.098 1.208.298zm-1.61 1.584c-.202.099-.303.198-.504.297l-.1.098h.3c0-.098.102-.296.303-.395zm13.285-9.802c-2.617 1.485-5.233 2.97-7.951 4.455-2.618 1.585-5.234 3.07-7.65 4.753-1.006.594-1.912 1.188-2.918 1.783l-.202-.199c2.315-1.485 4.53-2.97 6.844-4.455 2.718-1.782 5.335-3.367 8.254-4.852 1.208-.594 2.314-1.089 3.522-1.485zm4.429 4.159c2.314-1.288 4.83-2.574 7.246-3.763.604-.296 1.208-.594 1.712-.792-2.516 1.485-5.033 2.97-7.65 4.555-2.617 1.386-5.334 2.673-8.254 3.663-.301.098-.603.297-1.006.396 2.718-1.288 5.335-2.673 7.952-4.06zm3.019-.594c1.711-.793 3.423-1.683 5.133-2.476 0-.099.101-.099.101-.099 1.223-.74 2.534-1.394 3.768-1.961-.178.104-.339.24-.547.377a19.687 19.687 0 0 0 1.408-.594c-.301.494-.904.891-1.61 1.188-.199.099-.299.196-.496.293.803-.393 1.605-.69 2.408-.987-1.206.794-2.616 1.486-4.126 2.179-1.61.693-3.22 1.386-4.73 2.178-.705.397-1.41.792-2.215 1.09-2.415 1.287-4.73 2.474-7.045 3.762-1.309.693-2.617 1.386-4.027 1.98 0 0-.1 0-.1-.099 2.315-1.386 4.83-2.674 7.348-3.96.168-.11.336-.221.505-.315-1.193.535-2.46 1.078-3.726 1.7 0 0-.201.1-.302 0 2.717-1.385 5.435-2.77 8.253-4.256zm9.26-4.654a62.07 62.07 0 0 0-.258.118c.08-.047.164-.087.258-.118zm-20.734 8.12c-.2.196-.504.196-.704.098.503-.199.905-.495 1.409-.792-.202.099-.302.099-.504.099 1.208-.495 2.416-1.09 3.724-1.684 0-.099.1-.099.302-.197a72.486 72.486 0 0 0 2.617-1.387c.504-.198.906-.495 1.41-.693l.502-.297c2.315-1.287 4.831-2.475 7.348-3.663-.806.495-1.71 1.09-2.517 1.485.102 0 .303-.099.404-.099 1.51-.792 3.019-1.485 4.528-2.178.202-.099.302-.099.404-.099-2.517 1.386-5.134 2.87-7.852 4.258-2.616 1.385-5.133 2.87-7.548 4.355-.1 0-.1-.099-.1-.197a44.71 44.71 0 0 1 4.64-2.995c-1.464.664-2.843 1.475-4.138 2.202a9.64 9.64 0 0 1-2.113.891l-1.812.892zm8.456-4.204l.1-.055c-.083 0-.098 0-.1.055zm6.138 1.332l4.529-2.377c-1.006.693-1.911 1.386-3.02 1.98.303-.099.605-.297.907-.395 1.308-.792 2.718-1.585 4.026-2.377-.603.495-1.208.892-1.812 1.387 1.309-.792 2.718-1.585 4.127-2.377.403-.297.906-.495 1.308-.495-2.013 1.287-4.126 2.575-6.24 3.862a96.104 96.104 0 0 0 5.536-2.773 15.514 15.514 0 0 1 1.912-.792 115.894 115.894 0 0 1-7.75 4.158c-2.717 1.287-5.435 2.476-8.153 3.762a54.903 54.903 0 0 0-7.952 4.159c-.603.396-1.207.594-1.81.594a83.442 83.442 0 0 1 7.246-3.861c-.302.098-.503.198-.704.198-.1 0-.202 0-.202-.1 0 0-.1.1-.302.1.201 0 .302-.1.302-.198h.101a27.792 27.792 0 0 1 2.919-1.684c-1.41.496-2.718 1.09-4.027 1.684-.1.098-.2.098-.302 0 3.02-1.387 6.14-2.872 9.361-4.455zm-7.55 4.256c.807-.296 1.612-.593 2.417-.89.201-.198.403-.396.705-.595-1.108.496-2.115.99-3.121 1.485zm8.86 2.674a34.169 34.169 0 0 0 1.71-.594c-.402.297-.906.692-1.71.99-1.31.594-2.719 1.188-4.128 1.783a82.892 82.892 0 0 1-8.153 3.365c-.906.396-1.912.693-2.918 1.09 1.409-.595 3.019-1.287 4.73-1.98 2.416-.99 4.83-2.08 7.247-3.169H29.3c1.208-.693 2.416-1.387 3.825-2.079 1.71-.99 3.523-1.881 5.435-2.575-.202.298-.705.595-1.208.892-1.61.693-3.12 1.485-4.73 2.277zm-3.424-2.772c2.417-1.09 4.933-2.277 7.348-3.367 2.516-1.287 5.234-2.375 7.952-3.365 1.37-1.158 3.03-2.033 4.788-2.81-1.127.75-2.253 1.575-3.38 2.314.403-.099.906-.297 1.31-.495l-1.813.89c-.503.298-.905.496-1.309.793l-.1.1h-.301l-.08-.08c-1.516.644-3.028 1.209-4.45 1.862a145.61 145.61 0 0 1-8.153 3.563c-1.912.793-3.724 1.585-5.536 2.475-.301.1-.503.199-.705.298-2.516 1.287-5.032 2.475-7.548 3.466 1.208-.595 2.416-1.188 3.523-1.783v-.099a39.16 39.16 0 0 1 2.214-.99 8.712 8.712 0 0 0 1.611-.99c2.617-1.287 5.133-2.574 7.75-3.762 2.214-.99 4.429-1.98 6.643-3.07 1.71-.792 3.321-1.485 5.033-2.079-2.517 1.287-5.235 2.574-7.952 3.862-1.107.495-2.215.99-3.322 1.583-1.208.496-2.314 1.09-3.523 1.684zm20.236-9.64c.021-.063.096-.063.096-.063l-.096.063zm-.005.036c-.048.02-.095.042-.143.063l.148-.099a.113.113 0 0 0-.005.036zm-3.12 2.872v-.1c1.812-1.485 3.926-2.772 6.14-3.762 0-.099.1-.099.2-.099-2.112 1.386-4.226 2.672-6.34 3.96zm3.825 2.574c.906-.496 1.912-.991 2.919-1.288-.201.297-.503.594-1.108.89a31.066 31.066 0 0 0-4.026 2.08 16.028 16.028 0 0 1-5.233 2.08c-.101 0-.101-.1-.201-.199 2.616-.99 5.132-2.078 7.649-3.563zm-2.013-.397c.906-.495 1.811-.89 2.818-1.287.402-.198.805-.297 1.208-.495-2.517 1.485-5.133 2.772-7.85 4.158-1.31.694-2.719 1.387-4.228 1.882h-.202c2.718-1.386 5.436-2.872 8.254-4.258zm-4.831 4.95c0-.098 0-.098.1-.098h.1c-.1 0-.1.098-.1.198l.1.099c-.1.1-.1.198-.2.297.603-.099 1.208-.198 1.811-.198.302-.1.604-.198.906-.198 1.209-.1 2.315-.198 3.422-.198.705-.099 1.41 0 2.114 0h.302c1.308-.099 2.516.198 3.623.792v-.198c.101.1.101.198.101.297.202.099.302.197.402.297l.102.099v.1c0 .098.1.196.1.296v.495h-.1l-.102.1c.202.79.202 1.484.202 2.376v1.683h.201s0 .099.1.099v.098c-.503 1.288-1.308 2.475-2.616 3.268-.202.197-.403.1-.603-.1.1-.198.1-.296.2-.495-.1.1-.2.199-.402.199h-.302c-.101.098-.201.198-.303.198-.301.198-.503.198-.805 0v-.1c-.201.1-.402.1-.603.1H50.739c-.806.099-1.611.099-2.416.099-.302.1-.705.1-1.106.198-1.913.098-3.725-.099-5.536-.892.301 0 .704.1 1.107.1-.202-.1-.302-.297-.504-.397h-.1c-.503-.593-.907-1.286-1.006-1.98-.202-.693-.304-1.385-.202-2.277 0-.099 0-.198.1-.198v.1a7.075 7.075 0 0 1 .906-1.98c.1-.496.302-.99.504-1.387-.202 0-.504-.099-.705-.099.302 0 .604-.1.906-.198.1 0 .1 0 .1-.1.1-.098.1-.197.202-.296 0-.099.202-.199.302-.199zm3.22 1.09a.77.77 0 0 1 .504-.198c0 .098.1.198 0 .297h.1c.102-.099.302-.297.503-.396.102.099.102.099.102.197h.1c.1-.098.302-.098.503-.197 0 .099 0 .099.1.197v.199s.101.1.303.198v.198c.1-.1.302-.198.402-.396h.202c0 .1 0 .1.1.198-.2.396-.503.892-1.006 1.287.403-.297.906-.594 1.409-.99 0 .1.1.1.202.198-.202.099-.202.198 0 .198h.1c-.1.1-.1.199-.202.297.102-.098.202-.198.303-.297a4.446 4.446 0 0 1 1.106-.792c-.503-.1-1.006-.198-1.61-.396-1.006-.297-1.912-.396-3.019-.396-.503 0-.906.1-1.41.297.1.099.1.297 0 .396.1 0 .202-.099.303-.099-.1.099-.202.297-.403.395v.1l-.1.099h.1c.2-.199.302-.396.604-.594h.1c0 .099 0 .198-.1.297l.1-.099c.102 0 .102-.1.102-.1.2-.098.301-.296.503-.395v-.1h.201c-.101.1-.201.297-.201.397zm3.925-.792h-.703c.703.198 1.308.495 1.911.792.101 0 .202-.1.302-.1h.202l-.302.298c-.604.495-1.107.99-1.61 1.584a6.578 6.578 0 0 1 1.811-1.485h.1v.198c.102-.198.302-.198.504-.396.101 0 .202-.099.202 0l-1.209 1.188c-.302.495-.704.891-1.208 1.287-.703.594-1.408 1.287-2.012 2.08 1.207-1.288 2.516-2.377 3.825-3.367.1-.098.2-.198.402-.297.302-.396.705-.891 1.108-1.287-.503 0-.906 0-1.51-.297-.202 0-.403-.099-.605-.099h-.603c-.302 0-.403 0-.605-.099zm3.624.89c.1.1.202.199.302.199.1 0 .1 0 .1.098 0 .199.101.199.403 0 0 0 .1 0 .202-.098-.101.198-.202.297-.202.396.1-.099.302-.298.403-.495h.056a11.333 11.333 0 0 0-.056-.198c-.288-.189-.575-.377-.949-.48.043.028.043.084.043.084-.1.198-.1.396-.302.495zm.202-.593l.057.015a.104.104 0 0 0-.057-.015zm1.14.997a1.353 1.353 0 0 1-.134.389c-.101 0-.101 0-.101.099l-.705.694v.197h-.1l.1.1c-.167.165-.265.33-.41.495h.008c.1 0 .202 0 .302.098.1 0 .1 0 .1.1-.302.792-.805 1.485-1.51 2.078.504-.296.907-.792 1.41-1.286.1.098.201.197.201.296-.804 1.089-1.71 2.277-2.717 3.268 1.208-.891 2.416-1.782 3.623-2.871h.202c.1 0 .1 0 .1.098v-.297c0-.297-.1-.594-.1-.891-.202-.495-.1-.792 0-1.089-.076-.52-.152-.985-.27-1.478zm-1.443 2.072c.033-.033.064-.065.093-.098-.025.003-.093.017-.093.098zm1.41-2.376h-.045c.028.103.053.204.077.304a.503.503 0 0 0-.032-.304zm-1.51-.298c.1-.098.201-.197.301-.197h-.2c0 .099-.101.197-.101.197zm1.812.892c0-.198 0-.397-.1-.594l-.102-.1c0 .199.101.496.202.694zm-2.718.792c.1-.099.201-.199.303-.297H53.557v.098a25.937 25.937 0 0 1-2.215 2.476c.302-.198.604-.495.907-.693.1-.297.302-.594.604-.89.403-.496.906-.99 1.307-1.585-.1-.099-.301-.099-.401-.099a4.312 4.312 0 0 0-.605.693c-.1 0-.201.098-.201.297zm1.207.99h-.1c-.201.198-.403.297-.503.495-.1 0-.1 0-.1.1.302-.1.502-.298.703-.595zm-1.006 4.555c1.006-.595 1.812-1.387 2.315-2.377.101.099.101.099.101.198v.1h.1c0-.1 0-.298.102-.496v-.297c-.806.99-1.712 1.98-2.618 2.872zm-2.918.297c.503-.792 1.106-1.485 1.811-2.277a21.677 21.677 0 0 1-3.32 2.672c.3-.098.603-.197.904-.197h.705s0-.1-.1-.1zm-2.215 0l-.503.495c-.1 0-.1.098-.1.198.2-.1.502-.1.704-.1h.101l-.303-.296c.101-.099.202-.199.303-.397l-.101.1h-.1zm1.309.495h.403c0-.1 0-.198-.102-.297l-.301.297zm6.542-2.179c0 .1 0 .199-.1.297.1-.098.1-.198.2-.297h-.1zm-9.662-4.851c-.303.396-.604.793-1.007 1.287l.704-.693c.202-.198.303-.396.303-.594zm-2.316-1.188c-.302 0-.503 0-.704.099-.302.593-.604 1.188-.704 1.782.1 0 .1-.099.201-.199.704-.494 1.408-1.088 2.113-1.583-.503.098-.906.198-1.308.396h-.201c.2-.198.403-.396.603-.495zm0 1.584c-.603.397-1.106.792-1.51 1.287v.297c0-.099.102-.198.202-.198 0-.1.101-.198.202-.297.2-.099.301-.297.503-.396 0-.1.1-.198.2-.396h.101s.102-.099.202-.099c0-.1.1-.198.1-.198zm-1.51 4.158h-.2c0-.099 0-.099.1-.197h-.1c.1-.298.2-.594.402-.792.101-.297.302-.595.403-.793-.302.297-.604.594-.805.991-.101 0-.101 0-.101.098 0 .496 0 .99.101 1.584v.1c-.101 0-.101 0-.101.098 0 0 0 .1.101.1.1.197.302.495.402.692.503.495 1.006.693 1.61.693l-.1.1h.201c.202.099.403.099.604.099.604 0 1.309 0 2.012-.099 0-.1.102-.1.202-.198h-.1A8.507 8.507 0 0 1 48.02 21l-1.811 1.485h-.201c.1-.197.2-.197.3-.395-.1.098-.2.198-.3.198h-.202c0-.495.1-.99.503-1.288.1-.098.1-.098.202-.098v-.199c-.102 0-.202.1-.302.297 0-.098-.101-.098-.201-.197v.099c-.202.098-.202.198-.303.296-.2.1-.302.297-.402.397-.1.099-.202.099-.302 0-.202.099-.403.296-.605.395h-.1c.1-.099.202-.197.302-.197l-.1-.1V21.6c-.098.093-.2.193-.302.293-.303.1-.403 0-.503-.098h-.303c-.2 0-.302-.1-.302-.298.805-1.089 1.611-2.078 2.617-2.97.1-.099.1-.197.201-.395-.905.89-1.812 1.782-2.616 2.87-.1 0-.1.1-.202.198-.201 0-.402-.098-.603-.296.483-.951.966-1.812 1.628-2.667-.275.344-.55.615-.823.885-.202.395-.503.693-.906.99zm1.813-1.98zm.805 3.07c-.086 0-.099 0-.101.06a.87.87 0 0 1 .101-.06zm-.101.06c-.102.069-.221.171-.348.289.107-.084.263-.167.348-.25v-.04zm-.402.336v.003a8.59 8.59 0 0 1 .054-.05.608.608 0 0 0-.054.047zm3.321-5.742c-.403.395-.907.89-1.308 1.484v.099c.503-.396.905-.99 1.308-1.583zm-1.913-3.664c1.41-.397 2.82-.99 4.228-1.683 1.51-.892 3.12-1.485 4.73-2.08-.201.396-.603.693-1.308.891-.906.397-1.913.792-2.818 1.189-1.51.693-2.919 1.286-4.43 2.078-.2.1-.502.1-.603-.098 0-.099.1-.198.201-.297zm7.147-7.03c-.403.594-1.007 1.09-1.712 1.683-1.006.693-1.81 1.09-2.717 1.287.101-.197.201-.396.403-.594-1.51.792-3.121 1.486-4.63 2.179-2.717 1.188-5.536 2.375-8.253 3.563-2.617 1.09-5.234 2.08-7.852 3.07-1.51.89-3.019 1.783-4.63 2.673-.804.396-1.61.793-2.415 1.288h-.2c2.314-1.585 4.73-3.07 7.447-4.455.906-.496 1.811-.892 2.818-1.289-.503.298-.905.495-1.308.793.705-.298 1.409-.594 2.214-.891.705-.297 1.41-.495 2.013-.792 2.92-1.188 5.838-2.475 8.757-3.663a95.749 95.749 0 0 0 7.146-3.564c.604-.298 1.308-.694 2.114-.99v.197c.302-.198.503-.396.704-.496h.1zm-1.611.99c-.604.396-1.308.793-2.013 1.188.101 0 .101 0 .101.1.705-.495 1.308-.892 1.912-1.288zm.806-1.584c-1.108.99-2.416 1.882-3.725 2.674-.1 0-.2.098-.301.098-.101 0-.101 0-.101-.098 1.308-.99 2.717-1.783 4.127-2.674zm-3.423 1.287a102.297 102.297 0 0 1-8.152 3.862c-2.618 1.286-5.335 2.475-8.052 3.663a614.487 614.487 0 0 0-8.052 3.564c-.303.198-.503.099-.705 0 3.02-1.386 6.04-2.871 9.159-4.159 2.718-1.286 5.436-2.475 8.253-3.761 2.517-1.288 5.033-2.476 7.45-3.664.603-.297 1.206-.495 1.71-.693a3.989 3.989 0 0 1-1.61 1.188zm4.228 5.05h.1c-1.107.792-2.315 1.287-3.724 1.386v-.1c1.208-.396 2.416-.79 3.624-1.286zm.805-.198c.1 0 .201-.1.301 0-.904.693-2.012 1.287-3.22 1.584h-.201c1.107-.496 2.114-1.09 3.12-1.584zm-9.863 16.04v-.1c1.308-1.089 2.817-1.98 4.428-2.673 0 0 .1-.1.302 0-1.61.89-3.12 1.782-4.73 2.773zm7.447-2.773a9.995 9.995 0 0 1-1.71 1.089c-.202.099-.303.198-.504.297a3.136 3.136 0 0 0-1.107.891h-.604v-.1c.705-.395 1.51-.99 2.215-1.484 0-.099.1-.199.302-.297.401 0 .905-.198 1.307-.396zm-.362 3.634c1.369-1.245 2.838-2.483 4.59-3.535h.1c-1.497 1.178-3.094 2.356-4.69 3.535zm-.04.036c-.005.092-.101.092-.101.092l.1-.092zm0-.007l.04-.03-.04.037v-.007zm-9.863-.89c-.102.098-.202.098-.202.098 1.61-.792 3.421-1.683 5.234-2.772.1 0 .2-.1.302 0-1.611 1.089-3.423 1.98-5.334 2.674zm-.807 5.544v-.1c1.51-.989 3.02-1.98 4.631-2.87.1-.1.201-.1.201-.1-1.41 1.288-3.019 2.277-4.832 3.07zm6.14-5.544c.906 0 1.913.098 2.819.197.1 0 .201 0 .403.1.805-.694 1.61-1.288 2.516-1.783h.2c-.805.692-1.71 1.386-2.616 1.88l.1.1c0 .1 0 .1.102.1v.097a.902.902 0 0 1-.605.595s-.1 0-.2.099v.198s0 .099-.102.099v.1c-2.415.395-4.83.296-7.146-.199-.1-.098-.2-.098-.2-.297-.101 0-.203 0-.404-.099l-.1-.099c1.208-.495 2.616-.792 4.026-.891.201-.1.503-.1.704-.1.202 0 .302-.097.504-.097zm.906.691c.403.1.705.199 1.107.1.202 0 .302 0 .504-.1h-1.61zm-6.743 6.04v-.099c1.912-.99 3.925-2.079 5.938-3.069-1.711 1.387-3.724 2.377-5.938 3.169zm3.523-9.9c-1.41.594-2.82 1.287-4.329 1.98l-.1-.1c1.308-.89 2.818-1.583 4.429-1.88zm7.85 4.257c.693-.973 1.578-1.85 2.66-2.63-.843.756-1.606 1.6-2.458 2.531v.1h-.202zm2.719-2.684c.007-.088.1-.088.1-.088l-.1.088zm0 .01l-.06.043.06-.053v.01zm-3.122 3.566v.098c-.302.099-.402.099-.503-.098 1.51-.99 3.02-2.08 4.43-3.367h.1c-1.309 1.188-2.617 2.376-4.027 3.367zm5.334-3.268h.102c-1.812 1.683-3.724 3.168-5.738 4.555l-.1-.1c.1-.198.302-.297.503-.594.1 0 .2-.099.2-.198.102 0 .102.1.102.1 1.51-1.387 3.221-2.575 4.931-3.763zm.504.89c-1.71 1.585-3.523 3.07-5.334 4.555h-.1c.201-.395.603-.792 1.208-1.188.401-.297.804-.693 1.206-1.09.907-.89 1.913-1.682 3.02-2.276zM45.203 37.14c2.517-1.881 4.932-3.565 7.55-5.346 0 0 .007 0 .018-.003-.891 1.046-1.968 1.908-3.14 2.676-.503.297-.905.693-1.408 1.088-.906.793-1.913 1.287-3.02 1.585zm7.65-5.445c0 .071-.053.091-.082.096l.082-.096zm2.818.89c-2.114 1.486-4.127 2.97-6.14 4.456-.302.198-.604.198-.805.1 1.309-.793 2.516-1.684 3.723-2.674 1.108-1.09 2.517-1.98 4.026-2.575l.705-.692H57.481c-.603.692-1.307 1.485-2.213 2.177-.403.298-.806.694-1.208 1.09-.503.495-1.107.693-1.61.594a69.402 69.402 0 0 0 3.22-2.476zm1.61-5.149c0-.098.1-.098.2-.098-1.61 1.387-3.119 2.772-4.729 4.059l-.101.1c1.308-1.585 2.818-2.872 4.63-4.06zM47.72 37.14c-.102 0-.202.099-.303.099 0 .099-.1.099-.2.099 1.71-1.485 3.522-2.97 5.434-4.356 1.108-1.09 2.315-2.08 3.724-3.07h.1c-.703.595-1.51 1.288-2.315 1.98.202-.098.403-.197.605-.197-2.316 1.782-4.63 3.662-7.045 5.445zm-5.536-1.485c-.503.297-1.006.693-1.51 1.089 0 0-.101 0-.201-.099 1.106-.891 2.315-1.783 3.523-2.673 1.81-1.188 3.522-2.476 5.233-3.565-2.114 1.882-4.429 3.664-7.045 5.248zm-12.783-13.07c-2.114.694-4.227 1.387-6.442 2.278h-.201c3.523-1.584 7.247-2.872 10.87-4.159 1.51-.495 3.02-.99 4.428-1.287.102 0 .102 0 .102.099v.1l-8.757 2.97zm6.945-3.564c-2.718 1.188-5.435 2.278-8.153 3.367a37.468 37.468 0 0 0-6.744 2.97s-.201.099-.201 0c2.416-1.485 4.932-2.674 7.75-3.663 2.92-1.09 5.737-2.278 8.455-3.664 0 0 .1 0 .202-.099-.202.495-.605.792-1.31 1.089zm-12.48 2.475c-2.115 1.09-4.43 1.98-6.744 2.674 0 .1-.1.1-.302 0a74.33 74.33 0 0 0 8.655-3.861c2.115-1.09 4.228-2.178 6.241-3.07 0 0 .1 0 .1.1-2.516 1.385-5.233 2.771-7.95 4.157zm13.286.793c-2.215 1.385-4.631 2.475-7.147 3.366-.1 0-.1 0-.1-.099-.102 0-.102-.1-.102-.1 2.416-1.088 4.731-2.177 7.147-3.267 0-.098.1-.098.202-.098v.198zm-1.914-.198c-2.818 1.089-5.535 2.078-8.454 2.87 2.617-1.187 5.435-2.375 8.354-3.365.504-.199 1.007-.297 1.61-.495-.301.395-.805.693-1.51.99zm-9.46 5.247v.098c0 .298 0 .397-.201.496.401.298.603.595.301.99-2.415.495-4.73.396-7.045-.395-.102 0-.102-.1-.202-.1l-.1-.099v-.297c.1-.099.1-.099.1-.198.1-.099.302-.198.404-.198l.1-.099c.1-.1.1-.1.1-.198a1.72 1.72 0 0 0 1.007-.297 31.3 31.3 0 0 1 1.409-.296c.301 0 .603 0 .906-.1 1.006.1 1.912.1 2.918.198.102.099.302.198.302.297v.198zm6.542-.593c1.006.098 1.912 0 2.818 0 .1 0 .302.098.504 0h.1c-.1.098-.202.197-.302.197 1.007.1 1.61.594 2.013 1.386v.199c0 .098.1.198.1.198v.197c-.301.297-.704.396-1.308.297-1.007-.1-2.013-.297-3.02-.297-1.106 0-2.112-.297-3.02-.594-.2-.098-.2-.098-.402-.098-.1-.199-.2-.397-.2-.595v-.199c.805-.494 1.71-.691 2.717-.691zM15.512 35.16a12.88 12.88 0 0 0-2.013 1.089 6.472 6.472 0 0 1-1.813.593c0 .1-.1 0-.2 0 2.415-1.485 4.93-2.771 7.648-3.96 1.309-.692 2.719-1.187 4.127-1.682h.302c-2.617 1.385-5.335 2.672-8.051 3.96zm3.622 1.188c-.2.198-.503.297-.804.297-.102.099-.202.099-.302 0a59.331 59.331 0 0 1 7.447-4.06c.503-.296 1.007-.495 1.611-.495-2.617 1.387-5.335 2.772-7.952 4.258zm17.514-4.258h.1v.397h-.1l-.302.297.1.098V33.18c-.2.197-.402.395-.704.495-1.913.495-3.623.297-5.234-.495-.1-.1-.302-.1-.302-.298v-.098c-.1-.1-.1-.297-.1-.397.1-.197.1-.297.2-.297 0-.099 0-.099.102-.099.1 0 .302-.099.402-.099l.1-.098a32.59 32.59 0 0 0 1.41-.298h1.107a4.637 4.637 0 0 1 3.221.594zm-3.724.199c.704.198 1.308.198 2.013.098.1-.098.201-.098.301-.098h-2.314zm-8.757 4.158s-.1 0-.201.099c-.1-.099-.1-.099-.202-.099a22.604 22.604 0 0 1 6.14-2.674h.202c-1.913.892-3.926 1.684-5.94 2.674zm3.321-14.752c-2.214.89-4.428 1.584-6.642 2.178-.504.198-.906.198-1.41.099 2.818-.693 5.638-1.683 8.354-2.871 2.618-.99 5.033-1.98 7.549-3.07-2.415 1.386-5.033 2.673-7.851 3.664zm13.488 11.187c-1.913 1.386-3.824 2.575-6.039 3.664h-.101c1.812-1.287 3.925-2.475 6.14-3.664zm15.802.1h.2c-1.911 1.385-3.722 2.673-5.636 4.059 0 .1-.1.1-.2.1 1.71-1.586 3.522-2.97 5.636-4.159zM13.095 17.536h.1v.1c.907-.1 1.612.098 2.215.692-.1 1.188-.603 2.178-1.711 3.07-.503.396-.905.693-1.408.99a.492.492 0 0 1-.705 0v-.397-.296-.1l-.1.1h-.202s-.101 0-.201-.1c-.1.1-.202.1-.302.1-.101 0-.101 0-.101-.1 0-.693 0-1.485.101-2.178.1-.495.1-.99.201-1.485.2-.198.504-.296.704-.198.403 0 .605-.098.906-.098.1-.1.202-.199.403-.199 0 0 .1 0 .1.099zm1.61.99c0-.198-.1-.198-.2-.099v.397c.2 0 .2-.1.2-.298zm-5.837 6.04c-.1-.1-.201-.1-.201-.1a57.014 57.014 0 0 1 8.253-3.86c.302-.199.705-.297 1.108-.297-.303.395-.906.792-1.611.99a51.207 51.207 0 0 0-4.126 1.682c-1.208.595-2.315 1.09-3.423 1.585zm-6.039.594h-.302c1.309-1.09 2.617-1.98 4.228-2.772.1-.099.1-.099.301-.099-1.409.99-2.818 1.88-4.227 2.87zm1.812.791c-.604.496-1.309.99-2.014 1.387h-.2c1.107-1.089 2.315-1.98 3.623-2.872.1 0 .1 0 .1-.098h.102c-.403.594-.907 1.089-1.611 1.583zm14.192-5.147c.905-.397 1.811-.694 2.718-1.09-.303.396-.806.693-1.41.99-2.717.99-5.535 2.179-8.253 3.268a6.166 6.166 0 0 1-2.215.396c3.02-1.188 6.04-2.377 9.16-3.564zm-5.334 6.138c0 .1.1.1.1.1.1 0 .1.098.1.098 0 .1 0 .198.101.198l.1.098v.1c.303 0 .504.099.706.198.1 0 .301.1.301.198-.301.495-.704.693-1.408.793-2.215.098-4.43 0-6.644-.298 0 0 0-.099-.1-.099-.101 0-.302-.098-.403-.198v-.099c.101 0 .101-.099.201-.099.1-.099.1-.099.202-.099v-.198-.099-.198h.1c0-.099 0-.099.101-.198v-.099c0-.1 0-.1.1-.198h.1c.404-.098.807-.098 1.209-.198h.101c1.61-.198 3.322-.099 5.033.297zM2.627 29.318v-.099c1.007-.792 2.215-1.485 3.323-2.08h.1c-1.006.892-2.113 1.486-3.423 2.18zm.304 2.178h-.102c.503-.296 1.007-.692 1.51-.99h.201a8.736 8.736 0 0 1-1.61.99zm14.794-.692c-2.516 1.386-5.033 2.871-7.549 4.356-.603.395-1.308.792-2.013 1.089 0-.199.303-.396.807-.694.2-.098.503-.296.703-.495.485-.311.97-.612 1.455-.904-.735.381-1.486.75-2.26 1.103a5.839 5.839 0 0 1-1.409.495 151.518 151.518 0 0 1 8.053-4.258c.401-.296.703-.396 1.207-.594-.843.53-1.685 1.05-2.539 1.554a51.745 51.745 0 0 1 3.545-1.652zm-7.347 5.94a3.618 3.618 0 0 1 1.308-1.089c2.517-1.288 5.234-2.475 8.052-3.366-.503.296-1.007.593-1.71.89-2.718.991-5.336 2.178-7.65 3.565zM5.848 16.05c-1.207.991-2.414 1.783-3.724 2.575h-.1c.202-.396.603-.792 1.208-1.089.805-.495 1.711-.99 2.617-1.486zM8.668 4.17C6.553 5.951 4.238 7.634 2.024 9.22c2.114-1.882 4.429-3.763 6.643-5.644a6.024 6.024 0 0 1 1.51-.892c-.403.595-.806.99-1.51 1.485zm38.65 27.03l-.011.005.016-.01-.005.005zm-.011.005c-2.328 1.508-4.833 2.925-7.336 4.252-1.108.593-2.215 1.089-3.423 1.584-.201.198-.402.198-.705.297.101-.198.403-.496.907-.792 1.307-.594 2.616-1.287 3.824-1.88 2.21-1.287 4.522-2.374 6.733-3.46zm.016-.01c.098-.098.198-.193.296-.193l-.296.193z"/></g></g></svg>