<svg xmlns="http://www.w3.org/2000/svg" width="65" height="69" viewBox="0 0 65 69"><g><g><path fill="#4d8f79" d="M61.622 1.759h-.64c.091 0 .183 0 .183.092h.731c.458.092.824.185 1.281.277h-.182v.093h.274v-.093c.183.093.275.093.366.093v.092c.091 0 .091 0 .275.092v-.092c-.123 0-.163-.041-.204-.069.25.084.501.161.753.161-.092 0-.092 0-.092.093-.092-.093-.183-.093-.183-.093v.093c.183.092.275.184.366.184v-.277c.091.093.091.093.274.093.184 2.955.275 5.91 0 8.958-.183 2.402-.274 4.895-.365 7.39-.092-3.141-.184-6.466-.092-9.791-.183 1.293-.183 2.493-.275 3.694 0 2.863 0 5.727-.182 8.59 0 1.016-.092 2.124-.184 3.233 0 3.14 0 6.372.092 9.512.092 4.618.092 9.144.092 13.67v1.57c.274 3.417.182 6.834-.184 10.252-.091-1.386-.091-2.771-.091-4.249-.091.185-.091.37-.091.554.09 1.478.182 2.864.09 4.341a1.254 1.254 0 0 1-.365.277v-.277-1.847c-.092.462-.092.924-.183 1.478.091.277.091.554.091.831.184 0 .367 0 .55-.092-.092.092-.275.184-.55.276v.093s-.09.093-.182.185h.457c-.183.092-.366.092-.549.092-2.379.278-4.667.278-7.046.092.458.093.915.093 1.373.186h3.11c1.007.092 2.014.092 2.93.092 0 .184-.093.276-.093.369-.64 0-1.28-.093-1.83-.093-.182-.092-.366-.092-.548-.092h-2.013c1.027.16 2.054.25 3.023.272-7.993-.09-15.985-.18-23.977-.18-.275-.092-.458-.092-.64-.092-1.008 0-2.013-.092-2.929-.276.274 2.03.458 4.063.733 6.187.091.37 0 .74 0 1.016-.092-.184-.092-.462-.092-.739-.092 0-.092 0-.092.093-.183-.462-.366-.924-.457-1.386v.092c.09.278.182.555.182.832.092 0 .092.092.092.185-.183.092-.274.184-.274.461 0 0-.092 0-.092.093-.091-.185-.183-.277-.183-.37-.092 0-.092.093-.183.093v.092c.183.092.366.277.549.37.091.092.183.184.275.184v.185s-.092 0-.092.093c-.366-.278-.64-.462-.915-.74-1.098-.554-2.105-1.2-3.11-1.847h-.092c.549.462 1.189.924 1.83 1.386 0 .092.091.184.183.184-.092 0-.183 0-.183.093-2.105-1.57-4.118-3.14-6.131-4.71-.64-.37-1.189-.832-1.83-1.202-.64.093-1.28.093-1.921.185.274 0 .549.185.732.462-1.19-.185-2.38-.37-3.569-.462-1.281 0-2.653 0-3.935-.092-.914 0-1.738 0-2.653.092l.183-.185c.091-.091.183-.091.274-.091-.457-.093-1.006-.186-1.463-.186-.275-.092-.55-.092-.824-.092-.092.185-.092.37-.092.554v-.554c-.091-.092-.182-.092-.274-.092h.274v-.184c0-.093-.091-.186-.091-.186l.091-.092c-.091-.739-.091-1.478-.091-2.31 0 .648 0 1.294-.091 2.033-.092-2.032-.184-3.971-.184-6.003-.183.923-.274 1.847-.549 2.77-.091.093-.182.185-.365.185 0-.277.091-.646.091-1.016h.092c.09.093.09.185.09.277h.092c.184-1.57.458-3.047.55-4.525 0-.832.091-1.663.091-2.494 0-1.386.092-2.771.092-4.249.09-.831.09-1.662.09-2.493v-.647c-.09-.092-.09-.37-.09-.462 0 .093 0 .185.09.185 0-.647 0-1.2.092-1.847-.823-1.293-1.555-2.678-2.287-4.156C6.72 32.329 4.16 28.45 1.23 24.848v.093a.702.702 0 0 1 .092.369c.092.092.092.092 0 .092 0 .093-.092.186-.183.186a7.09 7.09 0 0 1-.458-3.141v-.37c.092-.092.184-.184.184-.276 0-.093 0-.093-.092-.093-.092-.554-.092-.923-.092-1.385-.274-.647-.274-1.293 0-1.847v-.185c.092-.092.184-.277.275-.37-.183.093-.366.278-.64.555-.092.184 0 .37.091.462-.091.184-.275.092-.366-.185-.091-.185 0-.37.091-.462 0-.092.092-.185.092-.185.64-.647 1.464-1.2 2.288-1.663.274-.184.64-.369 1.006-.462.092-.091.183-.091.366-.184.275-.185.64-.37.915-.554a11.96 11.96 0 0 1 2.928-.924H8.826l-.183-.185h.091c.092 0 .183.093.275.185.183 0 .366 0 .549.093.091 0 .091 0 .091.092h-.457c.457.37.824.831 1.098 1.386v-2.587c-.092-3.232-.092-6.465.274-9.79 0 0 .092-.092.183 0-.091 1.57-.091 3.233-.091 4.896 0-.462.091-.924.091-1.386 0-.554 0-1.016.092-1.57a.593.593 0 0 1 0-.554c-.092 0-.092 0-.092-.092h.092c-.092-.462-.092-.832 0-1.201V3.05h-.732c.183-.092.457-.092.732-.092v-.37s0-.091.092 0c.09-.368.09-.646.09-.923h-.914l.091-.092h.824c0-.185 0-.37.091-.554l.092-.093c0 .277 0 .462-.092.647h.275c0-.185 0-.37.092-.554 0-.093.09-.093.182-.093-.091.185-.091.37-.091.647.915-.093 1.83-.093 2.745 0h1.19c-1.099-.185-2.105-.277-3.02-.37 2.013.093 4.026.277 6.039.37 8.327 0 16.562 0 24.889.092h1.83c-.092 0-.183 0-.275-.092h1.098c-6.589-.185-13.176-.277-19.673-.37 0-.092 0-.092.092-.092h7.96c4.483-.37 8.968-.37 13.451-.092 1.646.184 3.477.277 5.124.277-1.007 0-2.105-.093-3.02-.185 3.66-.185 7.32-.092 10.98.277h.733c.549 0 1.098 0 1.555.092.092 0 .092 0 .183.093-.183 0-.366 0-.64.092.365 0 .732.093 1.098.093h-1.647c-.184.092-.458 0-.641 0zm.64 60.31c-.149 0-.3-.001-.453-.005l.454.006zM63.636 2.22c.03 0 .05.01.07.024l-.07-.023zm-.549.462c.091 0 .183 0 .183.093v-.093c0-.092-.092-.092-.183 0zm.732.093s0-.093.092-.093h-.275v.093h.183zm-.915-.093c-.091-.092-.091-.092-.091 0zm-.275 7.389c-.091.462-.091.923-.091 1.385v1.755c.183-2.31.275-4.618.55-6.927.09-1.2.09-2.217-.092-3.325h-.183c0 2.401-.092 4.803-.184 7.112zm.641-7.112h-.092c0 .185 0 .37.092.554V2.96zm-3.202.185c.64 0 1.19.092 1.83.185v-.278c-.55 0-1.19 0-1.83.093zm-3.386.185c-.915 0-1.83.092-2.745.092-2.379.462-4.758.646-7.137.646h1.098c-2.653.185-5.307.093-7.96-.184l-2.746-.277c-2.928 0-5.856-.093-8.784-.277-5.49.092-10.888.092-16.195.277 0 .37 0 .739-.092 1.108.092 4.064.183 8.127.092 12.191v.832c2.104 3.786 4.117 7.48 6.313 11.267v.093h.092a57.804 57.804 0 0 1 4.666 7.574c.458 1.108 1.007 2.124 1.647 3.232.275.462.55 1.016.824 1.477 1.28 2.217 2.562 4.25 3.934 6.374-.549-.647-1.098-1.201-1.555-1.848-.732-1.015-1.465-2.031-2.014-3.232-.366-.462-.64-1.108-.914-1.663-1.007-1.57-2.013-3.232-3.02-4.894.641 1.2 1.28 2.4 2.013 3.601.55.924 1.098 1.848 1.647 2.863l.55.832 7.136 10.529v-.093c.092 0 .183 0 .275.093.09.185.09.37.09.646.092 1.293.092 2.586.092 3.787 0 .462.092.831.092 1.2l.092.555v.37h4.757c-.366 0-.731-.001-1.097-.093l.092-.093a68.02 68.02 0 0 1 6.13 0l14.823.278c1.098-.185 2.104-.093 3.02.092h1.006v-.462c-.366-4.248-.64-8.497-1.007-12.746-.274-4.525-.457-8.958-.457-13.484 0-.092.091-.092.183-.185.092-.739.092-1.293.183-2.032v-7.203-5.727H50.642c.183 0 .458 0 .732.093h2.105c.823 0 1.738.092 2.653.184-1.098 0-2.013 0-3.02.092h.275c.64.093 1.19.186 1.83.37-1.556 0-3.02 0-4.483-.092-1.282-.092-2.471-.185-3.66-.278-3.295 0-6.68-.092-9.974-.184 1.555.092 3.111.184 4.666.37 3.295.276 6.497.461 9.79.646a57.61 57.61 0 0 1-9.79-.277c-4.209-.462-8.418-.739-12.535-.739-2.654 0-5.216-.092-7.686-.277h-.732s-.092 0-.184-.093l-3.293-.277c-.366-.092-.55-.092-.55-.185h-1.738c.549 0 1.098 0 1.738-.092 0 0 0-.092.092-.092.275 0 .549 0 .824.092 1.097-.092 2.196-.092 3.294-.092h-.275c-.457-.093-.915-.185-1.373-.462-.09 0 0 0 0 0 1.556.185 3.02.37 4.484.554 1.282 0 2.47 0 3.752.092l3.843.278c.915-.093 1.83-.093 2.836-.093 2.105 0 4.3 0 6.497.093h5.947c.549-.093 1.19-.093 1.83-.093 1.19-.092 2.288-.092 3.202 0-.09.093-.274.093-.365.185 3.477 0 6.954.092 10.43.277-.09-2.678-.09-5.357-.09-7.943 0-2.493.09-4.987.182-7.389-.731.093-1.555.093-2.378 0-1.007-.092-1.922-.184-2.837-.184zm7.32 4.433c.183-1.662.274-3.233.55-4.803h-.367c0 1.57-.092 3.14-.183 4.803zm.183-5.08v.185a.69.69 0 0 1 .366.092v-.277h-.366zm-.55.277c0 1.293-.09 2.586-.09 3.88 0 1.477-.092 2.955-.367 4.433v.092c-.09 1.385-.182 2.678-.274 4.064.092-.37.092-.647.092-1.016.091-.093.091-.185.182-.278.092-.83.092-1.662.184-2.586 0-.46.091-1.015.183-1.57.09-1.939.182-3.971.182-6.003 0-.37 0-.646.092-1.016h-.183zm-1.006 13.484v2.217c0-.554.092-1.108.092-1.663.092-.184.092-.461.092-.738 0-.462-.092-.924-.092-1.478 0 .554-.092 1.109-.092 1.662zm-.549 7.205c.092 1.94.092 3.878 0 5.818.092-.184.092-.462.092-.554v-1.015c0-1.756 0-3.51-.092-5.265v1.016zm.641 6.095c0 1.663.092 3.325.092 5.08.183 2.863.365 5.82.549 8.774V42.12a96.953 96.953 0 0 1 0-7.297c-.092-3.232-.092-6.557-.184-9.882 0-2.956.092-5.911.184-8.774-.092 1.108-.184 2.216-.275 3.417a81.264 81.264 0 0 0-.274 6.742v.277c-.092.37-.092.832-.092 1.201v1.94zM45.61 3.236c.44-.064.926-.127 1.424-.19-.137.005-.27.005-.418.005h-1.922c-1.006 0-2.013 0-2.928.093 1.099 0 2.288 0 3.478.092h.366zm2.104-.277l-.68.086c.2-.009.408-.031.68-.086zm-1.647-.646c1.372-.185 2.837-.185 4.21-.093.914 0 1.829 0 2.744.093.091-.093.091-.093.183-.093-1.007 0-2.013-.092-2.928-.184-.915-.093-1.739-.093-2.654-.093-.091.093-.183.093-.366.093h.183c-1.19.092-2.378.184-3.66.184.275 0 .458 0 .732.093h1.556zm-9.974-.462c2.928.092 5.948.092 8.876.092h1.555c-.274-.092-.64-.092-.823-.184-3.203 0-6.405.092-9.608.092zm8.876.831a192.908 192.908 0 0 0-6.372-.091c-.069.003-.125.019-.125.091h.915c-.183.093-.366.093-.549.093h4.484c.732 0 1.372 0 2.013-.093h-.366zm-6.314-.092H36.825h1.83zm7.046.646c2.288-.092 4.575-.185 6.862-.185-.824-.092-1.647-.092-2.47-.184-1.464.184-2.928.277-4.392.37zm11.986-.369c-.366-.092-.64-.092-.915-.092.275 0 .458 0 .64.092h.275zm-30.286-.092h1.097c-.274 0-.64 0-1.006-.093-.457 0-1.006 0-1.464-.092-.183.092-.274.185-.366.185h1.739zm13.268-.277a16.47 16.47 0 0 0-3.02 0h3.02zm-21.96 15.7c1.372.185 2.836.278 4.3.37 1.098-.092 2.196-.092 3.202-.092h-.549c-.915-.093-1.739-.185-2.562-.185-1.464-.093-2.928-.093-4.392-.093zm3.568 19.211c-.824-1.2-1.648-2.493-2.47-3.694.457.831.914 1.662 1.28 2.494 1.922 3.879 3.843 7.85 5.948 11.73l.549.83c-.366-.738-.64-1.477-.916-2.216h.092a32.537 32.537 0 0 0 4.392 7.758s.091.093.091.185 0 .185-.091.185c-.274-.37-.548-.74-.915-1.201.275.37.457.739.64 1.108 0 .093 0 .093-.091.093-.64-1.109-1.373-2.31-2.104-3.51.549 1.016 1.098 2.032 1.555 3.048v.369l.275.555c.092 0 .182 0 .274.092v-.092c.275 0 .55 0 .732.092h.732c-1.007-2.032-1.921-3.972-3.02-6.004-1.83-2.77-3.568-5.726-5.032-8.774.366.832.64 1.663.916 2.401-1.007-1.754-2.014-3.601-2.837-5.449zm1.646 6.928l.092.184c.01.01.018.021.027.032l-.119-.216zm.12.216c.98 1.768 2.123 3.454 3.266 5.14.275.462.55.831.824 1.2-.183-.369-.366-.646-.458-1.015-.64-1.016-1.28-2.032-2.013-3.048-.45-.82-.99-1.55-1.62-2.277zm3.175 4.586c-.458-1.016-1.007-1.94-1.464-2.956-.092-.092-.183-.277-.275-.37v-.092c-.365-.738-.823-1.662-1.19-2.493a216.064 216.064 0 0 0-6.405-12.007c-.731-1.2-1.463-2.4-2.104-3.51l-4.667-6.926c-.274-.37-.366-.647-.182-.831-.275-.554-.458-1.016-.458-1.478 1.098 1.94 2.196 3.879 3.294 5.726 1.556 2.401 3.203 4.71 4.758 6.927.823 1.2 1.647 2.309 2.38 3.51-.276-.647-.55-1.294-.824-1.94-.915-1.386-1.83-2.679-2.654-4.064-.457-.554-.824-1.109-1.281-1.662a49.237 49.237 0 0 0-1.647-2.31c-1.19-1.477-2.195-2.955-2.928-4.525-.091 0 0-.092.091 0 .092.185.275.462.458.647 1.007 1.477 2.105 2.863 3.111 4.34-1.281-2.031-2.47-3.97-3.477-6.095.183.554.458 1.2.55 1.755v.184c-.458-1.2-1.008-2.216-1.648-3.232a5.26 5.26 0 0 1-1.281.462c.091 0 .183.092.183.092.092 0 .092.092.092.092a2.726 2.726 0 0 0-.733.37c.092.092.184.277.275.554.183-.185.366-.37.64-.462 0-.092.092-.092.184-.092-.275.185-.55.461-.824.647a61.187 61.187 0 0 1 1.83 4.34c1.921 3.786 3.752 7.666 5.581 11.545a72.536 72.536 0 0 0 2.654 5.357c0-.277 0-.37.183-.462 1.007 2.124 2.196 4.064 3.386 6.096.183.184.366.554.548.739.64.923 1.373 1.94 2.105 2.955.092 0 .092.093.183.185l.275.277c-1.373-2.216-2.745-4.434-4.118-6.557-1.28-1.94-2.38-3.88-3.477-5.82a217.053 217.053 0 0 1-3.843-8.22c-.274-.276-.458-.646-.64-1.015-.183-.37-.367-.832-.367-1.108-.091 0-.183.092-.183.185-.182-.462-.366-.832-.366-1.201-.914-1.386-1.647-2.863-2.287-4.249h.091c2.288 3.879 4.576 7.758 6.863 11.73.183.277.366.554.458.831.183.37.365.739.64 1.016a19.762 19.762 0 0 1 1.556 2.77.405.405 0 0 0-.092-.276c-.457-1.109-.915-2.217-1.281-3.233-1.372-2.586-2.837-5.08-4.484-7.388a77.952 77.952 0 0 1-3.568-5.912h.092c2.653 3.694 5.032 7.574 7.32 11.545 0 0 0 .092.09.092-.09-.092-.09-.184-.182-.369h.092c.09.277.182.647.366.923.64 1.201 1.28 2.495 1.921 3.788.915 1.94 1.922 3.97 3.111 5.91-.275-.461-.366-.738-.366-1.108 1.373 2.125 2.654 4.249 3.935 6.373zm-6.954-5.264c.732 1.477 1.647 2.77 2.745 4.063-.275-.462-.55-.923-.824-1.293a14.872 14.872 0 0 1-1.921-2.77zm5.581 8.035a7.51 7.51 0 0 1 1.007 2.494c.183.277.366.554.549.739.091.184.091.369 0 .461-.183 0-.366-.184-.458-.461-.366-.462-.732-.924-1.006-1.478.272.183.544.457.816.731a1.264 1.264 0 0 1-.267-.362c-2.745-3.51-5.216-7.296-7.595-11.268-1.372-2.401-2.654-4.895-3.66-7.389h.092a65.602 65.602 0 0 0 3.476 6.65c-.366-.647-.64-1.293-1.006-2.032-.183-.554-.457-1.2-.732-1.754-.183-.37-.366-.647-.458-.924a29.731 29.731 0 0 1-1.738-2.863c0 .092-.091.092-.183.092-.275-.37-.457-.646-.732-1.108a59.457 59.457 0 0 0 5.307 10.16c.366.461.55 1.015.64 1.57-.915-1.201-1.646-2.494-2.47-3.788l1.921 3.325c0 .093-.09.186-.09.278-2.197-3.694-4.21-7.666-6.04-11.545-.64-1.386-1.372-2.77-2.105-4.156-.915-1.756-2.104-3.418-3.385-4.895-.549-.554-.732-1.016-.64-1.478a70.972 70.972 0 0 1 6.953 11.637c.275.739.55 1.293.916 1.94-.641-1.293-1.19-2.586-1.739-3.972l-.275-.831c-1.738-2.956-3.568-6.004-5.215-9.051-.457-.647-.732-1.293-1.007-1.94-.64.277-1.372.554-2.104.647 2.288 3.048 4.484 6.28 6.405 9.605-.824-1.57-1.739-3.047-2.745-4.618-.732-1.2-1.464-2.309-2.196-3.417h.091c2.654 3.602 4.941 7.48 6.955 11.545.182.277.274.554.365.831.733 1.386 1.556 2.77 2.38 4.156.274.462.64 1.016 1.006 1.57v.278c.458.646.824 1.385 1.281 2.031a557.852 557.852 0 0 1 4.392 7.574c.075.075.149.165.223.264-.619-1.258-1.156-2.516-1.778-3.774-.183-.462-.183-.739 0-.831.915 2.494 2.196 4.895 3.843 7.02-.732-1.017-1.373-2.125-2.013-3.234-.458-.646-.732-1.292-1.007-1.94h.092c1.463 2.31 2.928 4.62 4.483 6.928 0 .093 0 .093.092.185v.092l-.183-.184c-.184-.185-.366-.37-.641-.462.183.092.275.277.457.369 0 .185.092.277.184.37-.184 0-.275-.093-.458-.185.366.37.64.831 1.007 1.2h.091v.093c.092.185.275.37.458.554-.183-.092-.366-.277-.55-.462l-.274.555c.55 0 1.007.091 1.373.277h.091c.092-.555.366-1.016.732-1.478.091 0 .091 0 .091-.093.092 0 .183-.092.183-.184l-.274-.554h-.091l-.275-.555c-.274-.554-.548-1.107-.915-1.662 0-.093 0-.093-.091-.093-.068-.136-.185-.272-.278-.408.688 1.16 1.204 2.4 1.467 3.641-1.006-1.847-1.922-3.602-3.019-5.45-.275-.276-.549-.554-.824-.738.367.554.732 1.108 1.098 1.755zm1.19.646c.024.049.054.098.088.146a14.47 14.47 0 0 0-.088-.146zm-4.209-1.293c.091.185.183.37.274.462v-.092c-.109-.165-.217-.33-.326-.475l.052.105zm2.653-.554l-1.921-2.493-.366-.37c.182.185.274.37.366.554.365.462.64.924.914 1.385.367.278.642.647 1.007.924zm6.954 3.787c.183.277.275.554.367.831h.091v.093h.457c.017 0 .08.09.091.092 0-.076 0-.09-.05-.092l-3.792-6.835c-.55-.831-1.19-1.663-1.738-2.587 1.554 2.864 3.11 5.635 4.574 8.498zm1.006 1.016l-.025-.046.025.046zm-2.744-5.265a62.614 62.614 0 0 1 2.744 4.71c0-.092 0-.276.092-.461-.915-1.386-1.83-2.863-2.836-4.25zm.64 5.265c-.183 0-.366 0-.549.092 0 .092.092.185.183.277.092-.092.183-.185.274-.185.458 0 .824.093 1.19.093-.091 0-.183-.093-.183-.185-.366 0-.64-.092-.915-.092zm2.196.092c-.182 0-.366 0-.549-.092 0 .184 0 .37.092.646v.37c.091.739.183 1.385.275 2.031.09-.738.09-1.477.09-2.216 0-.092 0-.185.092-.185h.092v-.37c-.092-.092-.092-.092-.092-.184zm-.915-.092l.275.277c-.091-.093-.091-.185-.091-.277h-.184zm-.091.37c-.458.092-1.007.092-1.464.184-.092.092-.183.092-.275.092-.092.093-.182.185-.274.185.182.093.366.093.549.185h.09c-.273.092-.547.092-.822.185.64 1.2 1.28 2.4 1.738 3.694-.183-.185-.458-.554-.732-1.201a19.91 19.91 0 0 0-1.28-2.401v.462s0 .092-.092.185c0 .091 0 .184-.092.277 0-.093 0-.093-.091-.186v-.276-.185-.277s-.092 0-.092.092c-.091 0-.183 0-.275.093-.09 0-.182.092-.182.184-.092 0-.092.093-.092.093v.369h-.092c0 .185 0 .277-.091.277-.183-.092-.274-.184-.274-.461 0-.093 0-.278-.092-.37-.092.185-.183.37-.274.647h.274c0 .092.092.184.183.184.091.185.183.277.274.37 0 .092 0 .092-.091.092-.092-.092-.183-.092-.274-.185h-.275c.183.185.275.462.457.739v.277c-.09.093-.182.093-.182.093v-.185c0 .092 0 .092-.092.092 0 .093-.091.093-.183.093v-.185l-.091-.093c-.457 0-.915-.092-1.373 0l-1.098 1.109c-.366.462-.731.924-1.19 1.386.092.092.184.184.367.276h.092c.09 0 .09 0 .09.092h-.182c1.555 1.109 3.02 2.31 4.575 3.418a.463.463 0 0 0 .027.025c-.027-.027-.027-.117-.027-.117v-.647-.185c.183-.277.366-.554.64-.739.183-.462.458-.923.824-1.293.182-.276.457-.37.64-.462h1.007c.183.186.274.37.366.555-.092-.831-.092-1.663-.183-2.494 0-.554 0-1.108-.091-1.57 0-.092 0-.092.091-.092-.091-.554-.091-1.201-.091-1.755 0-.092.091-.092.091-.092v-.185c-.091-.093-.183-.277-.366-.37zm-2.47 9.697a4.004 4.004 0 0 1 0-1.478c-.092.092-.184.185-.184.277-.091 0-.091.092-.091.185 0 .185 0 .37-.092.647v.092a.091.091 0 0 1-.055-.016c.099.084.26.212.422.293zm3.202-4.895c0 .184 0 .37.091.554 0-.184 0-.37-.091-.554zm-2.196 2.124c.182-.185.366-.277.64-.462h-.183c-.183.093-.275.277-.457.462zm3.202-1.478c.64 0 1.373 0 2.013.093.275-.093.457-.093.64-.093-.183 0-.457 0-.64-.092 2.105-.092 4.118-.092 6.222-.092.732.092 1.556.092 2.38.092h1.463c-.915-.092-1.83-.092-2.745-.092-1.83-.092-3.751-.185-5.672-.278-1.19-.092-2.197-.184-3.112-.276h-.64c0 .184 0 .462.091.738zm-.457-.092c.09 0 .09 0 .182.092-.091-.276-.091-.554-.091-.738-.091.184-.091.462-.091.646zm0 .37v.092c0 .646.09 1.293.182 2.032.051 0 .074 0 .084.015-.084-.8-.084-1.519-.084-2.324h-.182v.185zm.274 2.216c0-.041 0-.064-.008-.077l.008.077zm-4.94-10.066h-.367a134.122 134.122 0 0 1-4.483-7.113 59.443 59.443 0 0 1-4.026-7.111c-.55-1.109-1.098-2.217-1.647-3.233-1.007-1.755-2.196-3.51-3.294-5.172-.092 0-.092-.185-.184-.185 1.373 2.494 2.654 5.08 3.935 7.666 2.104 4.064 4.484 7.943 6.954 11.73.275.369.55.83.824 1.2a28.743 28.743 0 0 1 2.836 3.972c.183-.092.458-.278.64-.37-.273-.37-.548-.738-.823-1.108-.183-.277-.458-.554-.64-.83-.092-.186-.275-.37-.367-.555.184.37.458.738.641 1.109zm-.642-1.848a9.143 9.143 0 0 1 1.007 1.57c-.366-.831-.823-1.57-1.28-2.402 0 .093-.092.093-.184.185.183.185.275.37.457.647zm.824 3.879s.091 0 .091-.093c-.182-.184-.366-.461-.549-.738v.092c.183.185.367.462.458.739zm-2.379-1.2v.184h.092c0-.092-.092-.185-.092-.185zm3.203 1.754c.091-.092.183-.092.274-.185.092 0 .184-.092.184-.092.09-.092.182-.092.274-.185-.092-.092-.184-.185-.184-.277-.274 0-.457.092-.64.185 0 0 0 .092-.091.092v.185c.092.092.092.185.183.277zm-.915-.092a1.268 1.268 0 0 1-.275.37c-.092.184-.092.369-.092.553.183-.37.458-.554.916-.738h.091c-.091-.093-.183-.278-.274-.37-.092 0-.184.092-.366.185zm-11.804-9.698c0-.093 0-.093.092 0a362.333 362.333 0 0 1-2.929-4.618 88.478 88.478 0 0 0 3.02 5.819 75.237 75.237 0 0 0 2.654 4.618c.091.092.091.092.091.184.366.554.732 1.109 1.19 1.663.732 1.108 1.464 2.216 2.196 3.233a63.14 63.14 0 0 1-5.673-7.205 210.87 210.87 0 0 0 3.66 6.004h-.092-.091a21.857 21.857 0 0 0 2.104 2.77c.366-.276.732-.462 1.19-.646v-.185c.091-.092.091-.092.183-.092l1.097-.555c.092 0 .092 0 .092-.091h.183c.092-.185.274-.37.366-.647-.823-.739-1.646-1.662-2.47-2.678.457.83.915 1.662 1.281 2.401a82.234 82.234 0 0 1-4.667-7.297 25.354 25.354 0 0 0-1.016-1.464c.065.097.129.226.193.356 1.646 3.048 3.477 6.004 5.49 8.774-.457-.369-.915-1.016-1.464-1.847-2.562-3.787-4.941-7.666-7.229-11.545-.457-.83-.915-1.57-1.372-2.309-.183-.277-.367-.554-.55-.739l.824 1.385a18.799 18.799 0 0 1-2.104-2.493 6.793 6.793 0 0 1-1.098-1.478c0 .185.091.37.183.462 2.47 3.88 4.94 7.665 7.411 11.452.549.832 1.098 1.755 1.739 2.587v.184s-.08 0-.166.076c1.054 1.564 2.177 3.007 3.369 4.45v.185c-2.014-2.124-3.66-4.526-5.125-7.112-.732-1.108-1.464-2.124-2.196-3.14 1.464 2.493 3.02 4.987 4.758 7.296.092.093.092.093.092.185-2.105-2.401-3.844-4.988-5.216-7.943zm3.843 5.357c.092.277.275.462.457.739a.38.38 0 0 1 .018-.017 41.68 41.68 0 0 1-.475-.722zm-1.464-4.249l.082.106a.69.69 0 0 0-.082-.106zm7.137 10.16c-.244.001-.488.01-.732.092.275 0 .457 0 .732-.092zm.092 0h-.092.092zm-3.294 1.293c0 .092.09.185.182.277v-.092c.184-.185.458-.278.733-.37h.458l.548-.554c-.274 0-.457.092-.64.184 0 0 0 .093-.092.093v.185h-.183v-.185a3.366 3.366 0 0 0-1.006.462zm1.281.461v.185c0 .185 0 .37-.183.462 0 0 0-.092-.092-.092v-.462c-.183.277-.457.462-.64.646v.093c-.092 0-.092.092-.092.092-.092.093-.092.185-.183.185v.184c-.091.093-.091.186-.091.278a.296.296 0 0 1-.093-.07c.03.048.062.1.093.162 0 0 0 .092.09.092.092.093.184.186.367.278l.092.092c0-.092.09-.184.182-.184-.091-.093-.182-.186-.274-.186h.183s.091 0 .091.093c.275-.37.55-.647.824-.924-.274.093-.549.277-.915.37 0 .092-.091.092-.183.092-.183 0-.275-.093-.366-.093.732-.276 1.373-.554 1.922-1.015.183-.278.365-.554.549-.74-.184 0-.366 0-.55.093.092 0 .092.093.092.093-.183 0-.274 0-.366-.093-.091.093-.091.093-.183.093l-.182.184s0 .092-.092.092zm-1.408 1.448c-.046-.096-.025-.218.035-.339-.091.092-.091.092-.183.092.05.1.098.172.148.247zm.034.053zm2.838-2.424c.182-.093.274-.277.366-.462-.275 0-.55.093-.824.093-.183.276-.366.462-.549.738a4.47 4.47 0 0 1 1.007-.37zm-.183.739c.091-.185.183-.277.274-.37h-.091c-.092.093-.092.185-.183.37zm-2.196.277v.277c.183-.277.457-.462.732-.646-.275 0-.458.092-.732.184v.185zm-.824-.37c.091-.092.183-.184.275-.184-1.19-1.109-2.196-2.31-3.02-3.787.458.924.915 1.847 1.373 2.863.274.462.549.924.915 1.478 0 0 .091.092.091.185.092.092.092.184.183.184 0 .093.092.185.183.185v.092c0 .093 0 .185.091.185.092-.092.275-.277.458-.37v-.276-.37l.091-.092c-.091-.092-.182-.185-.365-.277-.092.092-.184.185-.275.185zm.275 1.848c-.55-.554-1.098-1.201-1.464-1.94h-.092v-.092l-.091-.093a8.647 8.647 0 0 0-.458-.738c-.732-.924-1.464-2.032-2.013-3.233a123.25 123.25 0 0 1-3.752-5.726 39.117 39.117 0 0 0-2.287-3.14c-.366-.463-.64-.924-.915-1.386v6.373c0 3.325-.092 6.65-.092 9.883 1.098 0 2.197 0 3.294-.093h.641c-1.098-.185-2.196-.277-3.202-.37l.091-.092c.274 0 .64 0 .915.093v-.093l-.092-.092c.55 0 1.098-.093 1.556-.093-.732 0-1.556-.092-2.288-.184 1.281 0 2.654 0 4.027-.093 1.372 0 2.836.093 4.3.37h.275c.091 0 .091 0 .091.092h-.275c-.64.093-1.463.185-2.196.277-.365 0-.64 0-.732-.184-.945 0-1.896.005-2.927.092 2.561.092 5.032.37 7.594.831-.274-.185-.457-.369-.732-.461h.183c.183.184.457.369.732.461.075 0 .15 0 .225.051-.532-.442-1.062-.801-1.506-1.159h.092c.366.185.732.461 1.098.739zm.365.462zm-4.94-1.016h-.184.183zm5.032 1.2h.092c0-.092-.092-.092-.092 0zm.183.185l-.091.093h.183c-.092 0-.092 0-.092-.093zm-.457-.277c-1.098-.092-2.196-.184-3.203-.277.732.093 1.464.37 2.196.554.366 0 .732 0 1.19.093 0-.093.09-.093.09-.186-.09 0-.182-.092-.273-.184zm1.006.092c0-.092-.091-.092-.183-.184 0 0 0 .092-.092.092.092 0 .184 0 .275.092zm.092.278h.183c-.092 0-.092 0-.183.091l1.647 1.109c.457.37.915.646 1.464 1.016l-1.098-.831c-.733-.555-1.373-1.109-2.013-1.663h-.458c.183.092.275.185.458.278zm1.83-3.418c.09 0 .183 0 .183.093.183-.186.274-.37.457-.647-.183 0-.274 0-.366.092-.091.185-.183.37-.275.462zm.457.093h1.19c.052.053.147.156.182.184l-.042-.081c.015.026.029.053.042.08 0-.024-.03-.065-.042-.08-.18-.33-.428-.58-.597-.75h-.367c-.183.185-.274.369-.366.647zm1.332.107l-.002-.004.003.004zm2.237 4.787c.274-.092.457-.184.732-.277l.091-.092s.091 0 .091.092c.367-.185.64-.277 1.007-.277v-.092h.042c-.075-.123-.15-.185-.225-.185a3.66 3.66 0 0 0-1.83.831c-.091.093-.091.185-.091.277 0 .093.092.185.182.185v-.462zm2.013-.554c0-.075 0-.09-.05-.092.017.028.033.058.05.092zm-1.739 2.217v.185c.092 0 .183.092.274.092-.091-.092-.182-.185-.182-.277h-.092zm.458.37c.091.092.182.184.274.184-.183-.185-.274-.37-.458-.646h-.182v.092l.366.37zm-1.007-1.479c-.091.185-.091.37-.183.555.092-.093.183-.185.275-.185 0-.185-.092-.277-.092-.37zm.274 1.57v-.184-.277c-.09.092-.274.092-.457.092v.185c.092.092.092.185.092.185.823.553 1.555 1.015 2.379 1.57-.092-.185-.183-.277-.275-.37-.183 0-.274-.092-.366-.185h.092c-.183-.184-.275-.37-.367-.462-.365-.369-.549-.553-.823-.738l.183.185c0 .092-.091.092-.091.092-.183 0-.275 0-.366-.092zm-1.097-.184c-.184-.092-.275-.185-.458-.277.366.37.824.646 1.19.924l-.092-.093c-.182-.185-.457-.37-.64-.554zm4.497-.883c-.014-.199-.014-.397-.014-.595 0-.092 0-.092-.092-.092.056.222.078.444.106.687zm.078.514a6.531 6.531 0 0 1-.078-.514c.012.171.035.342.078.514zm-1.098-1.663V62.9c0 .185 0 .37-.092.555v.092h.092zm-1.465 1.108h-.182v.093h.091c0-.093.091-.093.091-.093zm.458.462v-.185l-.091-.092c-.092 0-.092 0-.092.092v.093c.092 0 .183.092.183.092zm.275-.554c0 .092-.092.092-.092.092 0 .093.092.093.092.185v-.277zm1.738 1.2c-.183-.461-.274-.923-.457-1.385v.277c.183.37.274.74.457 1.109zm-.823 0c-.092-.184-.092-.276-.092-.461a3.418 3.418 0 0 0-.457-1.016c-.092 0-.092.092-.183.184.183.37.457.832.732 1.294zm.366.647h.091c-.091 0-.091-.093-.091-.184-.092 0-.092 0-.184-.093.092.093.092.184.184.277zm-.184.554c0-.06-.038-.12-.09-.18v.088c.09 0 .09.092.09.092zm-.09-.185l-.092-.092c.032.032.064.064.092.097zm1.006-2.863v1.94c.09.37.274.739.366 1.2-.184-1.108-.275-2.124-.366-3.14zm21.502-3.14c.275 0 .64 0 1.007.092.183-.092.366-.092.457-.092h-1.464zM23.466 48.769a20.662 20.662 0 0 1-1.554-1.762c.054.085.111.178.182.285 1.19 1.662 2.287 3.325 3.477 5.08-.732-1.201-1.464-2.402-2.105-3.603zm-1.83-2.124c.09.121.182.242.276.362a2.022 2.022 0 0 0-.276-.362zm40.666-.885c-.04-.444-.04-.914-.04-1.331 0-4.156-.091-8.312-.091-12.377a100.21 100.21 0 0 0-.275 7.482c.086 2.07.171 4.22.406 6.226zm.052.423c-.018-.14-.036-.281-.052-.423.012.145.03.287.052.423zm.274-8.774c-.091 1.386-.091 2.771-.091 4.064 0 3.048.091 6.003.275 8.96.091.922.274 1.754.365 2.677.092.093.092.277.092.462 0-2.309 0-4.618.092-6.927-.092-.277-.092-.554-.092-.739-.274-2.77-.549-5.633-.64-8.497zM28.456 58.848zm33.532-14.604c.091 1.016.183 2.124.183 3.14.183 1.94.183 3.787.366 5.726-.092-2.032-.183-4.063-.183-6.095 0-.185 0-.37-.091-.555l-.275-2.216zm.915 16.902h.092v-.185c-.092.093-.092.093-.092.185zm0-.185c-.183.093-.366.093-.55.185h.55c-.091-.092-.091-.092 0-.185zM11.113 2.96c0-.092.092-.092.092-.092.091-.37.091-.74.183-1.108-.092-.093-.183-.093-.275-.093v1.293zm1.19-.461c.915 0 1.83 0 2.745.092 1.281-.092 2.654-.185 4.118-.185H14.133c-.275 0-.549 0-.824-.092h.092c.457-.093.824-.093 1.281-.185h.275c.091-.092.091-.092.182-.092h.092c-.366-.093-.64-.093-.915-.093-.732-.092-1.373-.092-2.012-.092a11.854 11.854 0 0 1 2.561 0c-.183-.093-.366-.093-.55-.093h-2.744c0 .37-.091.74-.091 1.109h.274V2.59c.092-.277.183-.554.366-.739v.092c.092-.092.092-.092.184-.092v.647zm-.823.553c-.092.093-.092.185-.092.185h.366v-.185h-.274zm5.673 0h-4.85v.185c1.555-.092 3.203-.185 4.85-.185zm-6.04.185h.092v-.185h-.092v.185zm-.091.74h.091v-.37h-.091v.37zm.366-.37c0 .461-.092.923-.092 1.478 0 .646.092 1.385.092 2.124.092-.74.183-1.386.274-2.124 0-.462 0-.924.092-1.478h-.366zM1.323 21.8l-.092.092v.092c.184-.092.458-.277.641-.462h.092l.091-.092c-.091 0-.091-.092-.091-.185h.091c0 .093 0 .093.092.185.182-.092.457-.185.731-.277.64-.554 1.373-.924 2.105-1.385.458-.185.915-.37 1.28-.555 0-.184-.09-.369-.09-.461 0 .092.09.277.183.37.64-.278 1.28-.555 2.012-.832-.091-.185-.091-.37 0-.647l.092-.092c.092.185.183.37.183.554.55-.185 1.098-.37 1.555-.554h.366s-.09-.093-.09-.185h.09c.247.25.494.54.713.846-.128-.22-.237-.441-.346-.661v.185c-.458-1.294-1.098-2.402-1.922-3.233h-.275c.367.37.64.739.915 1.2l.55.831v.093c.183.185.274.37.365.555v.092c-.182 0-.274-.092-.366-.278h-.091v.093h-.091c.09.093.09.093.09.185H9.65c-.091-.185-.183-.37-.183-.554l-.274-.278c-.732-.83-1.739-1.015-3.02-.553.092-.093.092-.185.184-.185 0-.093.091-.093.182-.093a.31.31 0 0 1 .242-.092c-.446.004-.893.094-1.34.185.183 0 .367 0 .458.092.091 0 .091 0 .091.093-.366 0-.732 0-1.097.091h.091c.091 0 .091.093.091.093-.09.093-.182.093-.274.093.274 0 .457 0 .64.092.092 0 .092 0 .092.092-.549-.092-1.098 0-1.556 0-.365.185-.64.277-.914.462.365-.185.731-.37 1.188-.462.55 0 1.007.092 1.465.092v.093c-2.745-.093-4.21 1.108-4.3 3.694 0 .185 0 .37.09.647 0 .185.092.37.092.554v.092l-.274.278zm-.366 1.478c.366.923 1.007 1.847 1.739 2.4a.887.887 0 0 0 .188.161c-.31-.098-.485-.26-.737-.345 2.287 3.048 4.391 6.28 6.13 9.698a145.726 145.726 0 0 0 2.928 5.08c.091.184.275.461.457.646v.092c.066.067.132.181.198.274-.014-.035-.014-.081-.014-.181.183.185.274.369.366.646v-.277c-.092-.093-.183-.184-.275-.37-.091-.184-.183-.276-.275-.369-.274-.369-.457-.83-.457-1.108a87.726 87.726 0 0 1-1.464-2.863h.075a86.878 86.878 0 0 1-1.448-2.771c-.182-.277-.366-.554-.457-.924-.183-.277-.274-.462-.457-.554-.092-.277-.275-.462-.275-.739-1.007-1.57-2.105-3.14-3.386-4.525-.549-.647-.731-1.2-.64-1.662a20.195 20.195 0 0 0-1.83-2.125c-.366-.462-.457-.646-.183-.831.549.739 1.19 1.385 1.738 2.124h.092c1.28 1.293 2.38 2.77 3.386 4.248-.275-.554-.55-1.107-.915-1.662l-.824-1.108c-.915-1.108-1.83-2.124-2.653-3.048l.091-.092c.907.915 1.724 1.922 2.63 2.93-.068-.084-.068-.16-.068-.16-.366-.462-.732-.923-1.098-1.292l.092-.093c.182.185.365.37.549.647-.641-1.109-1.282-2.217-1.922-3.233-.183 0-.366.092-.55.185-.182 0-.273.092-.365.092.183.185.366.277.549.37H1.14c0-.093-.092-.185-.092-.278-.091.277-.091.647-.091 1.017zm3.752 2.77l-.024-.026a.376.376 0 0 0 .024.026zm5.128 10.752a.77.77 0 0 0 .179.332l-.18-.332zm-.004-.038h-.017l.02.038a.21.21 0 0 1-.003-.038zm2.104 4.617a.75.75 0 0 1-.077-.095c.012.03.035.053.077.095zm-.366-22.72c-.09-.15-.189-.3-.294-.447.087.149.183.298.294.447zm-4.79-3.14h.032-.033zM5.348 26.326c2.38 2.77 4.392 5.726 5.947 9.051.335.423.593.922.915 1.358a3.825 3.825 0 0 1-.182-.342 91.554 91.554 0 0 0-3.477-6.65l-1.373-1.939c-.823-1.108-1.556-2.125-2.379-3.048-.091-.37-.091-.646-.091-.923-.458-.647-.824-1.386-1.19-2.125h.092c1.738 2.586 3.385 5.265 5.032 7.85a86.076 86.076 0 0 0-2.928-4.894c-.55-1.016-1.098-1.94-1.464-2.956h.091a103.48 103.48 0 0 1 6.405 11.176c.255.515.59.95.856 1.528-.346-.778-.687-1.48-.947-2.267h.091c.733 1.477 1.647 3.048 2.471 4.526v-.37c.458.924.823 1.847 1.372 2.679.367.738.824 1.477 1.282 2.216.457.554.914 1.108 1.464 1.662-.092.093-.092.185-.183.278-.092-.185-.183-.278-.275-.37.183.37.458.739.64 1.109.824 1.108 1.556 2.308 2.38 3.509-.458-.831-.916-1.663-1.373-2.4-.457-.833-.64-1.386-.732-1.848-.183-.462-.457-.832-.732-1.294-.091-.092-.183-.37-.366-.553 0-.093-.092-.185-.183-.278l-.732-1.2c-.549-1.016-1.19-1.94-1.739-2.956 0 .37.092.647.092.924l-.824-1.94c-1.189-1.94-2.287-3.971-3.385-6.003-1.738-2.863-3.477-5.726-5.399-8.497-.457.092-.823.184-1.28.184l-.824.278c1.006 1.478 1.921 3.047 2.928 4.525zm6.313 8.22zm.641 2.31a4.455 4.455 0 0 1-.092-.121.73.73 0 0 0 .092.12zM1.323 21.522c-.275-.646-.366-1.385-.183-2.031-.274.646-.274 1.385 0 2.124 0 0 .091 0 .183-.093zm-.275 2.494c-.091-.092-.091-.184-.091-.277v.093c0 .092 0 .092.091.184zm9.974-16.44c0 .646 0 1.293-.091 1.94v.092c0-.184 0-.462-.092-.739-.092 2.31-.275 4.71-.275 7.02v.184l-.09.093c.182.369.273.83.457 1.2 1.62 2.818 3.242 5.726 5.124 8.547v-.05c-.732-1.477-1.465-2.955-2.288-4.433-.64-1.016-1.19-2.032-1.738-3.048 0 0-.092 0-.092.093-.091 0-.091.092-.091.184v-.184c-.092 0-.092-.093 0-.278v-.277c0-.092 0-.092-.092-.092h.092c-.092-.277-.092-.462-.092-.739v-1.2c-.092.091-.092.184-.092.184 0 .093 0 .093-.091.093v.092c-.091 0-.091 0-.091.092v.924c0 .092 0 .184-.092.184v-1.108h-.183c.091-.37.091-.739.091-1.108v-1.2c0 .091 0 .184-.091.184 0 .092-.092.185-.183.277.091-.554.183-1.108.183-1.663v-.645c0 .184 0 .46-.092.738 0 .37-.091.646-.182.831 0-1.478.09-2.955.274-4.34-.092-1.109-.092-2.125-.092-3.14 0 .369 0 .738-.091 1.108v.184zm5.124 18.472l-.09-.135c.003.047.018.063.09.135zM6.905 15.06c0-.093.091-.093.091-.093.092 0 .183.092.275.092.09 0 .09.092.09.092-.179.091-.36.093-.452.269.87-.07 1.573.114 2.192.47-.092-.184-.184-.37-.367-.461 0-.093 0-.093-.09-.093h-.55c-.092 0-.183 0-.275.093 0-.093 0-.185.092-.185 0-.093 0-.093.091-.093 0-.092.092-.092.184-.092v-.092c.09.092.274.092.366.092-.092-.185-.275-.37-.458-.554-1.19.092-2.38.462-3.477.924a1.259 1.259 0 0 0-.366.277c.823-.37 1.738-.555 2.654-.647zm-.092.369h.092a.42.42 0 0 1 .004-.01 4.87 4.87 0 0 0-.096.01zm-2.196.553h-.092c-.039.02-.081.04-.127.059a1.91 1.91 0 0 0 .219-.059zm-.219.059c-.196.04-.379.059-.513.127.144 0 .345-.058.513-.127zm3.97-1.536c0 .092.092.185.184.185-.092 0-.092-.093-.092-.185zm.733 1.016c.182.185.365.461.457.739.15.151.3.365.45.539-.089-.185-.18-.454-.359-.724l-.091-.093-.457-.461zm.915 1.293s0 .092.09.092a2.13 2.13 0 0 1-.098-.107l.008.015zm3.019 2.863l-.823-1.662c0 .092 0 .185-.092.277.366.462.64.923.915 1.385zm-5.947-.092c-.183.092-.275.185-.367.185v.185c.092-.093.184-.093.184-.093s-.092.093-.184.093c.092.184.184.276.275.461.64-.277 1.28-.646 1.921-1.015 0-.093 0-.186-.091-.278-.092 0-.183-.092-.274-.184-.458.184-1.007.369-1.464.646zm3.934 7.112L8.826 20.6h.091c1.007 2.679 2.105 5.357 3.203 8.035l3.02 5.819c0 .092.091.277.183.37.183.369.365.646.549 1.015.182.185.274.462.457.74-1.647-3.788-3.294-7.482-4.85-11.177-.09-.185-.183-.276-.183-.461-.274-.462-.549-.831-.732-1.2v-.37-.092c-.548-1.294-1.006-2.494-1.555-3.787-.64.462-1.28.83-1.921 1.108 1.646 3.325 3.476 6.65 5.398 9.975l-.274-.832a58.973 58.973 0 0 1-2.929-5.91c-.182-.462-.457-.924-.731-1.386h.091a98.811 98.811 0 0 1 2.379 4.249zm-7.32-5.727c.091-.092.091-.092.183-.092-.092 0-.183 0-.274.092h.09zm1.83-.554c.366-.092.64-.185 1.006-.369 0 0 0-.092-.09-.092-.276.184-.55.369-.916.461zm-1.739.924c1.007-.185 1.922-.462 2.928-.831a.711.711 0 0 1-.183-.462c-.915.462-1.738.923-2.745 1.293zm15.373 9.42l-.275-.554c-.64-.923-1.28-1.939-2.013-2.77.092.184.275.37.366.553l1.922 2.771zm-1.326-2.585c-.169-.352-.344-.77-.596-1.11.183.37.366.648.55 1.017v.092l.046.001zm.044.092c0-.073 0-.089-.044-.092l.044.092zm-4.3 4.156c.274.554.55 1.016.823 1.478 0-.093-.091-.278-.091-.37-.091-.092-.091-.092-.091-.185-.367-.554-.64-1.108-.916-1.57.092.277.183.37.275.647zm8.513 10.208c-.123-.248-.246-.539-.37-.788a61.984 61.984 0 0 1-1.83-3.417v.093c.68 1.456 1.437 2.752 2.2 4.112zm.18.32l-.18-.32c.06.12.12.23.18.32zm-3.622-2.573c-.044-.096-.06-.22-.13-.29l-.823-1.939c-1.648-3.325-3.203-6.742-4.85-10.16.275.74.549 1.386.915 2.125 1.281 2.955 2.654 5.911 4.026 8.867.261.439.522.879.862 1.397zm.053.08a23.946 23.946 0 0 1-.053-.08c.014.03.031.058.053.08zM6.813 30.852c-.915-1.57-1.921-3.14-3.111-4.618l3.294 4.987c0-.092-.091-.277-.183-.37zm5.673 6.927c0-.093-.092-.185-.092-.277 0 .092.092.184.092.37v-.093zm1.006 3.232a7.98 7.98 0 0 1-.914-1.477v.277l1.098 1.94c-.275-.462-.55-.832-.824-1.294.457.832.915 1.478 1.281 2.217l3.843 6.373a144.788 144.788 0 0 1-3.843-7.481c-.457-1.109-1.006-2.217-1.555-3.325v1.016c.274.646.549 1.2.914 1.754zm-1.098-1.755c-.274-.369-.548-.738-.732-1.2.092.37.275.739.458 1.108.092.093.184.277.274.37v-.278zm-2.836-6.28c-.64-1.016-1.372-2.032-2.105-3.048l1.648 3.048a182.505 182.505 0 0 1 3.293 6.096c0-.37.092-.554.092-.924-.915-1.755-1.83-3.51-2.928-5.172zm2.654 9.882v-.369c-.183-.277-.366-.647-.55-.923v.461l.55.831zm-.732-1.108c.09-.092.09-.184.09-.277-.182-.184-.274-.462-.365-.646.091.923.091 1.847.091 2.77.092-.646.184-1.2.184-1.662 0-.093-.092-.185-.184-.277 0-.092 0-.092.092-.092.092.092.092.184.092.184zm2.104 1.847c-.366-.461-.732-1.108-1.098-1.662v.092c.366.554.732 1.109 1.098 1.57zm-1.922-1.385v1.016c0 2.032 0 4.064.092 6.096 0-.093 0-.093.092 0 .183 3.972.183 8.035.274 12.099.274.093.64.093 1.007.185 0-.092 0-.092.091-.092 0-.093.091-.093.183-.186h.091c-.365-.092-.731-.184-1.098-.184l-.274.277v-.37-13.3-3.786c0-.185-.091-.37-.091-.462l.091-.092v.184c0-.184 0-.277.092-.462-.183-.277-.367-.646-.55-.923zm5.674 9.143c.183.185.366.462.457.74.366.461.732 1.015 1.006 1.477-.366-.83-.823-1.755-1.28-2.494-.733-1.293-1.373-2.586-2.105-3.786a71.485 71.485 0 0 1-2.928-4.341v.462c1.647 2.585 3.202 5.264 4.85 7.943zm-3.111-4.71c-.64-.924-1.19-1.94-1.739-2.956v.37a25.43 25.43 0 0 0 1.739 2.586zm5.589-4.507a17.604 17.604 0 0 0-.557-1.034c.091.276.274.646.458.923.036.037.069.074.099.111zm.267.536a1.624 1.624 0 0 0-.267-.536l.267.536zm-5.765 2.493c0-.092-.091-.184-.091-.276-.184-.278-.367-.554-.55-.74.183.37.458.647.64 1.016zm-.183-1.2c.082.166.164.332.313.498a1.35 1.35 0 0 0-.313-.498zm.313.498c.018.047.036.096.053.148.183.185.366.462.458.832-.092-.37-.275-.647-.458-.924a1.512 1.512 0 0 1-.053-.056zm2.537 4.367a.329.329 0 0 0 .078.122 5.118 5.118 0 0 1-.078-.122zm-.013-.063a1.419 1.419 0 0 1-.066-.07c.024.042.05.087.079.133-.013-.037-.013-.063-.013-.063zm-.066-.07a2.62 2.62 0 0 1-.21-.483c0 .16.07.321.21.482zm5.464-6.487c-.457-.832-.823-1.57-1.19-2.309a18.652 18.652 0 0 0-1.647-3.325 46.369 46.369 0 0 0 2.837 5.634zm-2.837 11.36zm-.221-.471c-.408-.836-.871-1.627-1.334-2.484.092.277.183.461.275.646.369.597.738 1.193 1.059 1.838zm.405 1.58l-1.647-3.048c.365.739.731 1.477 1.19 2.216.182.555.457 1.016.731 1.478a4.528 4.528 0 0 0-.274-.646zm-7.595 6.835v.276h1.372c-.091 0-.183-.092-.365-.092-.366-.092-.733-.092-1.007-.184zm1.556.092c2.47.092 5.032.184 7.502.276a21.602 21.602 0 0 0-3.385-.554 20.693 20.693 0 0 0-3.386 0c0 .093 0 .093-.091.093-.183.093-.458.093-.64.185zm-2.471-.37c.091-.092.183-.092.275-.092.09-1.386.182-2.77.274-4.156-.092-.647-.092-1.294-.092-1.94-.091-1.478-.182-3.048-.274-4.618 0 .646 0 1.293-.092 1.94V56.713c0 1.477 0 3.047-.091 4.525zm.824.554v-.276c-.092-.648-.092-1.294-.184-1.94 0 .646-.091 1.2-.091 1.754-.092 0-.092 0-.092.093-.182.093-.366.185-.457.093v.184c.275 0 .549 0 .824.092zm35.044-52.83H46.8c-1.464.093-2.837.093-4.3.093L30.785 8.87c-.549 0-1.098 0-1.647-.092h-1.28c-1.373-.093-2.837-.185-4.21-.277-2.653 0-5.216-.092-7.869-.092v-.093h4.758c-1.007-.093-2.105-.185-3.02-.185h-1.006c0-.092 0-.092.091-.092h17.66c-3.843-.185-7.686-.185-11.62-.277-2.105 0-4.21-.093-6.406-.462 0 0-.091-.092-.091-.184-.092 0-.092 0-.092-.093.092 0 .092 0 .092-.092h.091c4.21.646 8.419.83 12.719.738 4.026 0 8.052 0 12.078.278h.915c1.281-.093 2.654-.185 3.935-.37 2.562 0 5.032.092 7.595.092.09 0 .09.093.09.093-1.83 0-3.75 0-5.672.092 2.562 0 5.307 0 7.87.093.09 0 .09 0 .09.092-1.19 0-2.378 0-3.569.092h2.288c.092-.092.183-.092.275 0-.183 0-.366.092-.55.092.916.093 1.831.186 2.837.37h3.203c.091 0 .091.092.091.092-4.483.37-8.967.462-13.359.278zm-26.81-.831c1.83 0 3.569.092 5.399.092 3.569 0 7.23 0 10.889.093.457-.093 1.006-.093 1.464-.093-5.856-.092-11.804-.184-17.751-.092zm34.13 15.979c-.64.092-1.28.092-1.83.092.55.092 1.098.092 1.647.185.824.092 1.647.185 2.38.277-.733.092-1.464.092-2.197.092l-2.744-.277c-1.464-.092-3.02-.092-4.393-.185-2.012.093-3.934.093-5.856.093h.915c1.922.092 3.935.185 5.856.277l.824.092c2.379 0 4.666.092 6.954.185 1.372 0 2.837.092 4.3.185-3.66.184-7.228.184-10.797 0-4.208-.093-8.418-.278-12.535-.37-3.02-.092-5.948-.277-8.876-.37-3.294-.184-6.405-.276-9.424-.369H26.028c-2.654-.184-5.399-.277-8.144-.184l.092-.093c4.118 0 8.143 0 12.17.277 8.692-.184 17.293-.277 25.803-.277 1.098 0 2.196.093 3.202.093.092 0 .092.092.183.092-1.647.092-3.385.185-4.94.185zm-13.359 4.433c1.373.092 2.654.184 4.027.277.64 0 1.28 0 1.92.092 3.935.092 8.053.185 11.988.277.09 0 .09.093.09.093l-5.49.277h-.548c.64 0 1.464.184 2.196.184-1.556 0-2.929 0-4.483-.092-1.648.092-3.295.092-5.033.092H43.14c-1.281 0-2.562 0-3.843.093h-6.039c-4.301-.093-8.601-.093-12.902-.185v-.092c3.752.184 7.504.184 11.254.184-2.012-.184-4.117-.37-6.13-.739-1.738 0-3.294 0-4.85.185v-.092c0-.185 0-.185.092-.277h3.569c-.824-.093-1.556-.277-2.38-.462-.365 0-.823-.185-1.189-.37v-.091c.915.184 1.739.369 2.562.461 4.118.092 8.235.092 12.353.277 1.464 0 3.02.092 4.575.185-2.654-.277-5.307-.462-7.87-.647-1.647-.092-3.11-.185-4.3-.185v-.091c4.392.091 8.692.276 12.993.646zm-8.649.822a30.68 30.68 0 0 0 1.891.098 3.37 3.37 0 0 1-.745-.09c-.382 0-.764 0-1.146-.008zm1.891.098c.118.003.235.003.353.003-.118 0-.235 0-.353-.003zm-2.85-.181h-.365c.441.05.883.072 1.324.083a78.138 78.138 0 0 1-.958-.083zm-7.868-.832c.914.093 1.921.277 2.836.37 2.562.092 5.124.184 7.778.277 1.19.092 2.47.185 3.752.185h6.221l-6.313-.278c-1.922 0-3.935-.092-5.856-.184-2.837-.277-5.673-.37-8.418-.37zm23.424 6.835c-.275 0-.458 0-.64.092h1.647c2.927 0 5.947.278 8.783.555l-10.522-.277c-1.739.092-3.385.092-5.033.092-2.653.092-5.215 0-7.778-.185-1.19-.092-2.287-.185-3.384-.277H28.316c-1.098 0-2.197.092-3.294.185a.693.693 0 0 1 .457-.185c.55 0 1.098 0 1.647-.092-.183 0-.366 0-.549-.093h-.366l-1.097-.277c-.916 0-1.74 0-2.563.093v-.093h2.013c0-.092-.092-.092-.183-.185.366 0 .733 0 1.098.093 1.83-.093 3.752-.093 5.673.092H32.433c.458 0 .916 0 1.464-.092-.274 0-.548 0-.823-.093-1.098-.092-2.288-.184-3.386-.277-1.464-.185-2.745-.37-3.934-.37V33.9c3.75.276 7.503.461 11.346.646 3.934-.37 7.777-.277 11.712 0 .457.092.915.092 1.373.185 1.464-.093 2.927.092 4.391.184.458 0 .916 0 1.373.093.549 0 1.098.092 1.647.185h.458c.09 0 .09 0 .09.092h-1.28c-1.647.277-3.294.277-4.941.185-.366-.093-.732-.093-1.098-.093-1.282 0-2.654 0-3.843-.092zm-2.38 16.348l.092.092c.64-.37 1.373-.462 2.288-.277 2.196-.185 4.3.185 6.222 1.108.275-.092.366-.277.457-.554.092-.185.275-.37.458-.462 0 .185 0 .462-.183.74l-.549.554c-1.922-.924-3.934-1.294-6.131-1.201.275.277.458.554.458.923.092.185.183.462.183.74-.091.091-.183.091-.183.091-.092 0-.183 0-.275-.091-.366-.186-.457-.462-.457-.832 0-.37 0-.554-.183-.831h-1.373c-.091.184-.274.277-.365.37-.092 0-.092.092-.184.184v.462c0 .37 0 .647-.091.923 0-.738-.275-1.477-.824-2.216-.274-.462-.64-.74-1.097-.924-.184 0-.275 0-.458.092l-.184.185s0 .092-.09.092v.74c.09.276.09.554.182.83-.274-.092-.457-.276-.457-.646.091-.37.091-.739.091-1.016.092-.185.183-.277.274-.37.092-.092.184-.092.275-.184.824.184 1.556.646 2.105 1.478zm2.563.37v.092c0 .277 0 .554.183.83.091 0 .091.093.183.093.183-.369.091-.646-.366-1.016zm1.281-12.1c1.28 0 2.47.092 3.751.092.733 0 1.464 0 2.196-.092h.458c1.006 0 2.013 0 3.111.092h1.647v-.092c.274.092.458.092.732.092.091 0 .091.093.091.093-.914.092-1.83.092-2.836.185.091 0 .091.092.091.092h-.823v.185c-1.098 0-2.288 0-3.477-.093-1.556.093-3.02.185-4.575.185 1.464 0 2.927 0 4.3.092.55-.092 1.19-.092 1.739-.092v.092h1.373c.09 0 .09.093.09.093h-1.463c0 .092-.092.184-.275.184-5.49.093-10.888.093-16.47-.184-2.104 0-4.21-.185-6.314-.37-1.737-.092-3.476-.092-5.124-.277h4.667c3.386 0 6.863 0 10.34-.092-1.281 0-2.654-.093-4.026-.185l-2.196-.277c-1.098.092-2.196.092-3.386.277h-.458c.183-.185.458-.185.64-.277.55 0 1.008 0 1.557-.092h-3.294l.092-.093H36.734c1.098 0 2.195.093 3.294.093l3.202.092c.641.092 1.373.092 2.014.092zm14.366 21.52c0-.093 0-.093.091-.185M56.041.373a.502.502 0 0 0 .457.277c-.366 0-.823 0-1.28-.092-.825 0-1.74-.093-2.655-.185-.549-.093-.823-.185-.732-.37 1.373 0 2.745.185 4.21.37z"/></g></g></svg>