<svg xmlns="http://www.w3.org/2000/svg" width="71" height="57" viewBox="0 0 71 57"><g><g><path fill="#4d8f79" d="M69.394 10.342c.085 0 .171.085.171.085s0 .086.086.17c.085.172.17.257.342.513v.342h-.086c.086.256.172.512.257.77v-.172c0-.086 0-.17.086-.17.084.598.17 1.28.17 1.964.086-.085.172-.085.172-.085.256 1.709.256 3.331.256 5.04a21.524 21.524 0 0 1 0 4.7v1.11c.086.513 0 .94-.256 1.368 0 .085-.172.085-.172.17a.65.65 0 0 0-.17.428c-.257.085-.343.17-.428.256.257 2.734.428 5.554.342 8.373 0 2.649-.171 5.212-.171 7.775-.086-.427-.171-.94-.257-1.452-.085.084-.085.17-.085.256-.086-.256-.086-.599-.086-.855v-1.794c-.086.428-.086.855-.086 1.282.086.085.086.17.086.17 0 .086 0 .086-.086.086v.171c.257 1.709.257 3.502.172 5.297v1.538c.085-.684.17-1.367.17-2.136h.086c.086 1.538.086 2.905-.342 4.186v.171c0-.256.171-.512.171-.683 0 .512 0 1.026-.171 1.623v2.478c-.17-.428-.256-.77-.428-1.197v.171c-.086.086-.086.171-.17.257 0 .085.084.085.084.085.086 0 .086.085.086.085-.086 0-.086-.085-.17-.085-.257 1.453-1.199 2.307-2.737 2.563-.685.171-1.37.086-1.797-.085l-1.797.256c-1.368.598-2.908.855-4.618.855-3.593-.086-7.271 0-10.864 0-.855 0-1.71 0-2.481.085h-4.705c-1.625.085-3.335.171-4.875.171h-.257c.941.085 2.054.256 2.994.427-1.711-.086-3.422-.171-5.132-.171-.77.085-1.54.171-2.224.256.513-.085 1.026-.256 1.626-.256-4.192-.171-8.298-.342-12.404-.427-2.823.085-5.56 0-8.297-.427 0 0-.086 0-.171-.085-.685 0-1.454-.086-2.138-.171-.086-.086-.171-.086-.257-.086H8.66c-.428-.085-.855-.085-1.197-.085-.598-.086-1.197-.086-1.711-.086-.17.17-.513.17-.94 0-.257-.085-.429-.085-.685-.085-.171 0-.428-.086-.599-.171-.428-.086-.855-.17-1.283-.17h-.17c-.086-.087-.086-.172-.086-.258h.086c.598.086 1.197.171 1.88.257v-.086c-.683-.085-1.196-.512-1.453-1.195-.257-.513-.427-.94-.257-1.368-.256-.683-.256-1.366-.342-2.136-.086.77-.086 1.538-.086 2.393-.256.085-.256.085-.256-.17-.171-2.65 0-5.298.256-7.861 0-1.965 0-4.016.086-6.067.086-1.366.086-2.733.257-4.101 0-.94-.085-1.88-.171-2.819 0-1.794.171-3.418.427-4.955 0 .854.086 1.708.172 2.648 0-.428.085-.94.085-1.367v-.086-.17h.086v-.17c-.086-.087-.171-.087-.257-.172-.086 0 0 0 .086-.085.085.085.085.085.17.085-.085-.085-.17-.17-.17-.256.085.085.256.085.342.171 0-.086 0 0 0 0a9.977 9.977 0 0 1 1.71.427 1.788 1.788 0 0 0-.513-.342c-.514-.17-.941-.427-1.454-.598-.513-.256-.77-.427-.77-.684.428.257.856.428 1.369.599.086 0 .086 0 .086.085.084 0 .147 0 .2.01a4.245 4.245 0 0 1-.885-.694h.171c.342.257.684.513.941.684l.086.086a34.005 34.005 0 0 0 8.211 2.05c3.422.427 6.758.854 10.18 1.196 2.223.256 4.533.427 6.757.598h.086c.256 0 .512-.085.855-.085-.171-.428-.171-.855-.171-1.282.341-.171.514-.256.77-.428-.256 0-.429 0-.77-.084.427 0 .855-.086 1.283-.171.086 0 .171 0 .256-.085.258-.086.513-.172.6-.257.427 0 .855.085 1.282.17 1.197-.085 2.48-.17 3.679-.17.342-.086.77-.17 1.026-.17.599-.087 1.283 0 1.882.17v.085c-.257 0-.6 0-.855.086h.17c.6.086 1.198.426 1.71.854.087.086.087.086.087.171.171.342.171.683.171.94 0 0 .085.085 0 .256v.257c.085-.257.17-.599.17-1.026v-.342c-.17-.17-.255-.427-.341-.597l.086-.087h.255c.343.941.428 1.795.086 2.735v.256c-.086.086-.086.171-.17.171h-.343v-1.11c-.085.17-.17.256-.342.427 0 .085 0 .256-.086.341v.171l-.17.171c0 .085 0 .171-.086.256-.086.086-.086.172-.172.172h-.342c.685 1.366.685 2.734.257 4.186-.085.085-.085.17-.085.256-.085.086-.172.171-.172.257v.085c0 .085-.085.085-.085.085l-.17.171c0-.085-.172-.085-.172-.085-.171.17-.428.256-.856.256-.341.086-.683.086-1.026.086-1.283.34-2.395.256-3.422-.342h-.256c1.369.683 2.822.854 4.277.598h.257c-.086 0-.086.085-.086.256 0 0 0 .086-.085.086-.086.085-.086.085-.086.17-1.711.257-3.165-.085-4.533-1.025v-.085c-1.113-1.538-1.54-3.247-1.283-5.04h-.086c-.086 0-.086-.087-.086-.087v-.085c-.171 0-.428 0-.599.085-.085-.085-.085-.17-.17-.17v-.086h-.514v.085l1.283 1.026c0 .086 0 .086.086.17a7.552 7.552 0 0 1-2.566-2.05h.17c.172.171.513.427.856.684-.085-.17-.085-.257-.085-.342-.172-.085-.172-.256-.258-.427 0-.085 0-.171-.085-.171-.256 0-.428.086-.684.086v.341c-.086 0-.086.086-.171.171h-1.026c.513.512 1.111 1.025 1.625 1.538.086 0 .086 0 .171.086H29.618c-.598-.513-1.111-1.112-1.625-1.624-1.71 0-3.421 0-5.132-.171.77.77 1.625 1.453 2.48 2.05v.086c-1.111-.512-1.967-1.196-2.822-2.136a83.392 83.392 0 0 1-3.92-.336c.507.167.93.251 1.354.336h.086v-.085l.085.085c.58.145 1.16.29 1.689.435-.078-.008-.157-.008-.235-.008.514.342 1.112.683 1.54 1.11h.085l-.085.087c-.171 0-.171 0-.257-.087a8.597 8.597 0 0 1-1.369-1.11c-.256 0-.513 0-.77-.085.514.341.942.684 1.37.94v.085c-.685-.257-1.284-.598-1.968-1.025-.342-.086-.685-.086-1.026-.171.769.427 1.539.855 2.224 1.366h.085c-.085.087-.085.087-.17.087 0 0-.087 0-.172-.087-.77-.511-1.54-.939-2.224-1.366-.77-.085-1.455-.256-2.224-.342.77.513 1.625 1.025 2.567 1.624.084 0 .084.084.084.084-1.112-.34-2.052-.939-2.908-1.793-.513-.085-1.026-.085-1.54-.256-.427-.086-.941-.171-1.454-.257.77.684 1.54 1.367 2.396 2.05 0 0 .085.086.17.086v.17h-.17c-.942-.683-1.797-1.451-2.653-2.306-.086-.085-.17-.085-.256-.085-.94-.171-1.796-.342-2.651-.599.769.684 1.538 1.197 2.394 1.795l.086.085s-.086 0-.086.086a6.513 6.513 0 0 1-2.48-1.966c-.856-.17-1.711-.427-2.566-.597-.856-.171-1.625-.427-2.395-.598 1.54 1.195 3.078 2.392 4.704 3.588v.086c-.427 0-.855-.172-1.198-.428.172.256.429.428.6.684.085.085.17.17.256.342-.257-.087-.684-.342-1.112-.77-1.455-1.366-2.994-2.648-4.448-3.844-.085 0-.085 0-.17-.086-.258 0-.514-.17-.686-.427h-.17v.855c.855 1.025 1.796 1.965 2.822 2.904l.086.086v.085c0 .086-.086.086-.172.086-.427-.342-.855-.598-1.197-.94.342.342.685.77.941 1.196v.085c-.855-.768-1.71-1.623-2.48-2.734 0 1.71 0 3.417-.086 5.041v1.624c.256-1.025.428-2.05.684-2.905-.256 1.794-.428 3.674-.598 5.553 0 1.452-.086 2.99-.086 4.528-.171-.085-.342-.341-.428-.598v.684c-.085 1.538-.171 2.99-.256 4.442 0 1.966.256 3.845 1.026 5.64.257.341.6.768.941 1.11v-.085c1.283.256 2.566.427 3.85.598.855.085 1.881.085 2.822.17h.257c1.625 0 3.336.086 4.96.172 3.337.256 6.673.256 9.924.085-1.882-.513-3.679-1.111-5.56-1.794v-.085c1.967.597 3.849 1.195 5.73 1.879h.599c.086-.085.342-.085.514-.17h.427c-.855-.257-1.624-.514-2.395-.855-.257-.086-.598-.257-.77-.257v-.17V54h.086l3.849 1.282a16.02 16.02 0 0 1 2.908-.257c-.855.086-1.71.257-2.566.342 1.113 0 2.31-.085 3.422-.085-.085 0-.17-.086-.257-.086-.256-.085-.513-.256-.77-.256v-.086c0-.085.086-.085.086-.085v-.086c.856.257 1.54.428 2.395.599.77 0 1.54 0 2.31.085-.6-.256-1.283-.598-1.796-.94h.085c.94.342 1.881.684 2.822.94.685 0 1.283.17 2.053.257h-.011.097-.086c-.856-.171-1.71-.513-2.48-.855-.172-.086-.428-.17-.6-.256v-.086h.086c.086-.085.257-.085.342-.085h.172c1.112.512 2.31.854 3.507 1.11.342.086.77.172 1.111.172h.856a10.302 10.302 0 0 1-1.711-.684h-.428v-.17-.087l.086-.085v-.085c1.027.427 1.968.854 2.908 1.196h.428c.427 0 .855 0 1.283-.085-.856-.428-1.711-.77-2.394-1.11l.085-.087h.256c1.113.427 2.139.855 3.336 1.197.427-.086.856-.086 1.283-.086-.427-.17-.94-.427-1.368-.769-.085-.086 0-.086.085 0 .6.256 1.283.513 1.968.769 2.823-.17 5.817-.256 8.724-.342 2.481-.256 4.962-.598 7.357-1.11.6-.086 1.112-.257 1.625-.342-.513 0-1.026-.085-1.625-.256.428-.086 1.197-.171 2.31-.086.256-.256.598-.598.94-.769l-.085-.085c-.171.085-.257.085-.427.085-.258 0-.685-.085-1.027-.17.342 0 .684-.086 1.027-.086-.172-.086-.428-.257-.685-.427-.428-.427-.94-.77-1.454-1.111h.086c.855.427 1.625.854 2.309 1.367.257-.086.342-.17.428-.256-.599-.342-1.283-.684-1.967-1.111l.085-.086c.685.343 1.454.684 2.138 1.111v-.085a13.955 13.955 0 0 0 1.283-3.76v-4.1c-.256-2.308-.256-4.615-.085-7.006 0-.086 0-.171.085-.171-.085-2.306-.085-4.614-.085-6.92.085-.343.085-.6.17-.855 0-.512-.085-.94-.17-1.367h.085c.085.341.171.769.171 1.195v.172c.172.77.257 1.623.342 2.563v-.427c0-.513 0-1.026.086-1.538-.086-.854-.086-1.709-.17-2.478-.514.256-1.113.598-1.627.94h-.17c-.171 0-.171 0-.171.085-.856.428-1.711.684-2.653.94-.341.086-.597.17-.855.257.77.341 1.455.854 2.139 1.196l.086.085h-.514c-.683-.513-1.369-.94-2.224-1.11h-.256c-.086 0-.257.085-.342.085a8.487 8.487 0 0 1 1.453.94c.086 0 .086.085.086.085-.086 0-.086 0-.086.086-.084 0-.256 0-.256-.086-.514-.256-.941-.513-1.369-.94-.513.086-.94.171-1.368.256.513.257 1.026.599 1.625.94l.085.086.086.086c-.086.085-.086.085-.17.085-.686-.342-1.369-.77-2.054-1.197-.428 0-.856.086-1.283 0-.085.086-.085.086-.17.086a36.36 36.36 0 0 1 2.993 1.965c.086 0 .086 0 .086.085a49.846 49.846 0 0 1-3.251-2.05c-.874.175-1.748.31-2.649.432.428.596 1.025.936 1.623 1.277l.085.085c-.856-.085-1.54-.512-1.796-1.281l.08-.08c-.42.057-.845.111-1.278.165-.684.086-1.283.17-1.88.257.768.427 1.452.768 2.223 1.11.085 0 .085 0 .085.085h-.598c-.514-.427-1.198-.768-1.797-1.11-1.027.086-2.138.256-3.335.342h-.172c.684.427 1.369.94 1.967 1.453.085 0 .085.085.085.17-.085 0-.256 0-.342.086v-.087c0-.084 0-.17-.085-.17-.684-.513-1.369-.94-2.053-1.367-1.197.086-2.48.171-3.677.171h-.258c.856.598 1.626 1.11 2.48 1.709v.085c-1.111-.428-1.967-.94-2.565-1.709-1.283.086-2.48.086-3.593 0 .428-.085.941-.085 1.454-.17a23.258 23.258 0 0 1 3.251-.513c0-.085-.087-.085-.171-.085 1.71-.171 3.421-.428 5.132-.599l1.17-.233c-.12.03-.197.09-.315.148 1.283-.17 2.566-.342 3.935-.513 2.31-.34 4.704-.854 6.929-1.623a83.675 83.675 0 0 1 6.159-1.794c0-.085 0-.085.085-.085v-.855c-.343.256-.77.512-1.112.855h-.17c.427-.514.854-.94 1.367-1.282v-.256h.086v.17c.171-.17.342-.341.514-.427.17-1.195.341-2.306.341-3.503v-2.648c0 .512-.086 1.025-.17 1.538v-5.98c-.257-1.369-.771-2.564-1.626-3.59-.94-.512-1.881-.683-2.994-.427v-.17l.086-.086h-3.85c-3.848.085-7.698.171-11.633.171h-2.651c-.428.085-.856.256-1.283.256-.086-.085-.086-.17-.086-.17v-.086H44.76c0 .085 0 .085-.086.085v-.085c-2.994 0-5.902-.086-8.896-.257-1.394-.081-2.786-.085-4.105-.085 1.453.171 2.908.256 4.362.427.15.076.302.151.452.168-2.973-.17-5.947-.339-8.92-.339 0 .171 0 .342-.086.428-.256.085-.342.085-.512 0a.652.652 0 0 1-.172-.428c-.257-.085-.514-.085-.855-.085h-3.593v.085c0 .086 0 .086-.086.171v.086c0 .085-.084.085-.17.085v-.427c-5.39-.086-10.693-.256-15.997-.427-.512.085-.94.085-1.453.17h-.77c-.428 0-.77.086-1.198.257a25.91 25.91 0 0 0-1.368 2.649c-.083.411-.165.823-.171 1.235a.88.88 0 0 1 .085-.381c.086-.257.257-.512.342-.683 0-.257.172-.428.256-.599 0-.085 0-.085.086-.085-.342 1.709-.77 3.418-1.026 5.212 0 1.196 0 2.306.17 3.503.086 1.452.343 2.82.686 4.186a14.946 14.946 0 0 1-1.026-2.731c.009.483.09.967.17 1.45H.793c.085.513.085.94.17 1.452-.085-.171-.085-.256-.17-.427.085.342.085.598.17.94-.428-1.111-.77-2.221-.855-3.504-.085-.683-.17-1.452-.085-2.135v-1.111-1.196c.085-1.196.17-2.221.256-3.418.171-.598.256-1.195.428-1.708.171-.855.427-1.538.599-2.307 0 .426-.172.853-.172 1.367.343-.683.684-1.196 1.198-1.709-.514.171-.941.256-1.283.427 0 0 0-.17-.086-.17v-.257c.086 0 .086 0 .086-.086.513-.17 1.112-.256 1.625-.341h.171a.674.674 0 0 1 .342-.342c-.086.086-.17.17-.17.342.342-.171.855-.256 1.197-.342l1.796-.256c2.395-.171 4.79-.256 7.186-.427 2.993-.086 5.902.085 8.896.256 0-.085 0-.171.086-.256.084-.171.084-.257.084-.428.086-.17.171-.256.171-.427.086 0 .086-.085.086-.171h.086c.17-.085.342-.34.513-.427v-.085H23.545c.086-.086.086-.171.171-.171.086 0 .086 0 .086-.085.086.085.171.085.257.17 0-.341.171-.683.427-1.025 0-.769.172-1.367.685-1.708.085-.172.085-.172.085-.342 1.54-1.453 3.422-2.308 5.645-2.308.172 0 .428-.084.686-.084C33.21.089 35.094-.166 37.06.089c.942.085 1.883.341 2.823.684.171-.086.257-.086.428-.086 1.796 0 3.422.513 4.705 1.452 0-.17-.086-.256-.086-.341h.086c.342.256.599.598.77.94.684.597 1.283 1.367 1.796 2.307.085 0 .085.084.085.17v.171c-.085.085-.085.085-.085.17a.265.265 0 0 0 .171.086c.428.171.856.513 1.112.855 0 0 .085.085.085.171.086 0 .086.085.086.085v.171c.428.256.77.683 1.112 1.11a.264.264 0 0 1 .085.172s0 .085-.085.085c0 .086 0 .086-.086.086h.514c-.257 0-.428.085-.598.17 1.795-.085 3.591-.085 5.474.086 3.25 0 6.586.085 9.836.17.6 0 1.027 0 1.37.257h-1.37c.77.085 1.625.17 2.395.256-.256-.256-.684-.512-.94-.683h.085c.513.17.94.427 1.368.768.086 0 .086 0 .257.086-.513-.342-.855-.598-1.283-.854-.427 0-.855-.171-1.368-.256l.085-.086c.428.086.856.086 1.283.086.428.256.856.512 1.283.683.257.085.598.256.684.427.086.085.172.171.172.256v.086c0 .085 0 .085-.172.085-.086-.17-.256-.256-.427-.427h-.342l.256.256c.257.171.513.257.77.599zm-32.847-.428zM52.67 30.001l.043-.009h.085a.893.893 0 0 0-.128.009zM38.368 55.665c-1.01.047-1.986.06-3.018.13h.171c.684 0 1.369 0 2.053-.086.261 0 .522-.022.794-.044zM22.092 31.872a28.902 28.902 0 0 0-.28-.078.79.79 0 0 1 .28.078zm30.51-1.857a.653.653 0 0 1 .07-.014l-.07.014zm-34.506.955c.137.022.285.045.452.048l-.452-.048zm51.897-6.275c-.086.17-.257.256-.428.427 0 .171.086.427.171.683.17-.256.257-.427.428-.683h.085c0 .256-.085.427-.256.683v.086l-.257.257v.085c.257-.171.428-.342.684-.513-.086-.255-.086-.598-.086-.854h-.341v-.171zm-2.652 2.563c.6-.17 1.198-.427 1.71-.854-.77.427-1.624.854-2.65 1.196a58.59 58.59 0 0 1-5.133 1.538c.77-.171 1.54-.256 2.31-.513 1.026-.256 2.052-.598 2.993-.855-.256.171-.598.342-.941.513.685-.256 1.369-.513 1.968-.769.085-.085.085-.17.256-.17-.17 0-.427 0-.513-.086zm1.455-.427c.17-.085.341-.17.598-.342v-.085c-.257.171-.427.256-.598.427zM41.337 1.371c1.711.427 3.165 1.28 4.449 2.563 0-.171-.171-.256-.171-.342v-.086c-.172-.17-.342-.342-.429-.427-.941-.854-1.881-1.367-2.993-1.623 1.197.17 2.138.598 2.993 1.281-.855-.768-1.967-1.281-3.25-1.622-.427-.087-.94-.087-1.454-.087.342.087.599.172.855.343zm3.165 5.81c-.085-.086-.085-.086-.085-.172.171-.34.342-.683.77-.94-.087 0-.171 0-.257-.17v-.171c.086-.257.256-.342.598-.342.087 0 .343 0 .514.085v-.085H46.64a9.769 9.769 0 0 0-2.138-2.05c.514.512.771 1.025.856 1.709-.94-1.282-1.968-2.222-3.165-2.82-1.967-.77-3.936-1.025-6.074-.683-.085-.086-.17-.086-.256-.086s-.086-.085-.086-.085.172-.086.172-.171c.17 0 .256-.085.427-.172h1.797c-.257-.084-.513-.084-.856-.17-2.309.342-4.62.769-6.928 1.111h-.172v.256h-.086c-.085 0-.085-.086-.085-.171-.428.17-.77.256-1.112.427h.172c.512-.085 1.025 0 1.453.17h.086c-1.027 0-1.967.086-2.822.428-.172.172-.343.427-.6.684v.683c.087 0 .087 0 .087.086v.17c-.086 0-.086 0-.086-.085-.172-.17-.172-.427-.172-.598 0-.085-.085-.256-.085-.427v-.086c-.17.086-.257.172-.428.257-.598.427-1.026 1.025-1.197 1.708-.086.257-.17.513-.257.77h1.283c.086 0 .171.085.257.17v.086c.257 0 .599 0 .94.085.086 0 .086.086.086.17.086 0 .086 0 .086.086s-.086.086-.086.086c-.256.085-.599.171-.941.256v.085c.428.428.6.855.77 1.368 0 .085.085.256.085.427h4.192c-.684-.086-1.283-.171-1.967-.256v-.171c1.197.17 2.31.256 3.421.427 3.85-.171 7.699-.256 11.548-.427V8.29l-.171-.171v-.085-.257-.342l-.257.257c-.17-.086-.428-.17-.598-.17.17-.087.512-.258.77-.343zm2.652-1.795v.085h.172c-.172-.256-.257-.598-.514-.94.086.257.172.342.257.514v.17c0-.086-.171-.086-.171-.17 0 .17.17.255.256.341zm.77 1.367h-.17s0-.085-.087-.171v-.085c-.598-.171-1.284-.256-1.966-.342-.086 0-.086 0-.086-.085v.256c0-.085.086-.085.17-.085 0 .17 0 .256.086.34v.087c-.085.085-.17.085-.256.085v.598s.17-.086.256-.17c.085 0 .171 0 .171-.086.171.085.341.085.428.085l.086.171h.256c.086 0 .257-.086.342-.17.085.255.085.512 0 .683-.085.256-.256.342-.342.427.086.086.086.086.257.17v.172c.855-.086 1.796-.171 2.651-.256h.172s-.086 0-.086-.086a2.626 2.626 0 0 0-.524-.566c.007.017.01.035.01.053v.513l-.085.086h-.428a.183.183 0 0 0-.17-.171c0-.171 0-.342-.172-.428 0-.085 0-.17-.085-.17v-.172s0-.085-.085-.085c-.086-.17-.086-.17-.086-.342v-.085s0-.086.086-.171c-.086 0-.086-.085-.258-.171 0 .086-.085.086-.085.17zm1.198.854c.054.036.107.076.16.118-.026-.065-.093-.118-.16-.118zm-3.507 1.026h.768c.173-.256.429-.513.515-.77l.17-.17a8.523 8.523 0 0 0-1.453.94zm-.172-.342c.172-.171.513-.342.6-.598.085 0 .085-.086.17-.17-.257.255-.512.34-.685.426l-.085.086v.256zm3.507.598c0 .085-.085.17-.085.17h2.737c-.941 0-1.882-.17-2.823-.255-.427.085-.855.085-1.368.085-.172.085-.257.085-.342.17h1.283c.17 0 .343-.085.598-.17zm-26.517-.683v.085h.684c-.084-.342-.17-.684-.17-.94 0 0-.086 0-.086.085-.171.171-.342.342-.428.599v.17zm.942.683c0-.085-.086-.171-.086-.256h-.941c-.086.085-.086.17-.086.17.428 0 .685 0 1.113.086zm-3.85-.256c-3.85-.171-7.613-.171-11.376 0-.77.085-1.54.085-2.31.17 1.882.086 3.85.086 5.817.171 3.164-.17 6.159-.17 9.323-.17h1.113v-.171c-.856.085-1.711.085-2.567 0zm6.843-5.725c-.171.085-.257.171-.257.171.086 0 .171 0 .257-.086h.171c.257-.256.599-.341 1.026-.597a2.99 2.99 0 0 0-1.197.512zm-.941 1.11c.257-.34.6-.683 1.027-.939-.343.172-.6.427-.941.599 0 .085-.086.256-.086.34zm-.77 1.795V5.9c-.085 0-.17.085-.17.085v-.17c-.14.21-.224.305-.249.427H24.828c0-.428 0-.77.086-1.025a.183.183 0 0 0-.17.17c-.086.085-.086.256-.086.256v.171zm-.427.428v.085c0-.03.003-.059.008-.085h-.008zm.855-1.88c0 .085-.086.17-.086.256 0-.085.086-.17.086-.17V4.36zM24.23 8.12v.086c0 .085 0 .17-.086.17.172 0 .342 0 .514.086-.172 0-.428 0-.6.085 0 0-.085 0-.17.086h-.257s0 .17.085.256c.856 0 1.71.085 2.566.171v-.427c0-.086 0-.171.086-.256-.086-.086-.086-.171-.171-.171-.256-.342-.342-.599-.513-.855h-.685c-.17.256-.427.513-.769.769zm.598-1.282c-.084-.085-.17-.085-.256-.085-.428.085-.856.171-1.283.427-.086.171 0 .342 0 .427.085.085.085.085.085.171.171-.17.342-.256.514-.342h.17s.086 0 .172.086v.085c0-.085.17-.17.256-.256-.256.085-.342 0-.427 0 0 0 0-.086.085-.17.086-.086.257-.172.342-.257.172 0 .172 0 .342-.086zm-1.367 1.368c.084 0 .084.085.084.17h.171c-.085-.085-.17-.17-.255-.17zM11.912 29.65h-.086c.033 0 .064.001.095.003l-.009-.003zm.009.003c.337.085.592.168.847.083-.31 0-.55-.07-.847-.083zm-2.233-.43c-.514-.085-1.027-.171-1.54-.34a11.955 11.955 0 0 1-2.48-.77c-.684-.172-1.284-.343-1.882-.513-.172 0-.342-.086-.513-.086.086.086.256.171.341.256 0 0-.085-.085-.085-.17.172.17.428.256.6.341 1.282.514 2.565.855 4.02 1.197.256 0 .512.085.855.171-.085-.086-.085-.086-.171-.086h.855zm23.182-.085c-.343.085-.77.085-1.113 0-.085.085-.257.085-.257.171-.085 0-.256.085-.341.085-.086.085-.086.085-.172.085v.855c.685-.086 1.369-.17 1.797-.17 2.052-.172 4.02 0 5.987.597 0 0 .172 0 .257-.085 0 .085-.085.085-.085.17h.085s.085.086.085.172h-.683l-.173.17c.343.086.771.171 1.199.171 0-.085 0-.085.085-.085l.77-.513c.17-.342.257-.769.257-1.11 0-.086 0-.086-.086-.086.086.342 0 .598-.086.94-.085 0-.085.085-.085.085-.085-.085-.085-.17-.085-.17h-.086c.086-.257.086-.428.086-.684l-.086-.086c.086-.085.171-.17.256-.17-1.026-.769-2.309-.94-3.85-.513v-.085c.087 0 .087-.086.087-.086-.856.086-1.71.086-2.566.17-.428 0-.856.086-1.197.172zm-1.37-.256h-.341c-.086 0-.172.085-.258.085 0 .085 0 .085.086.085v.171c.172-.171.342-.256.514-.34zm5.646 3.503c-1.197 0-2.48 0-3.678-.086h-.17c.085.513.085 1.025.17 1.538.513.854.685 1.709.685 2.648v.171l-.172.171c0 .086-.086.086-.086.171.172.086.513.17.77.257 0-.086 0-.171.086-.257l.085-.085c.086-.086.258-.086.258-.086.084.086.084.171.17.171v.086c.086.085.172.085.257.085 1.026.086 2.053.086 2.994.086.085-.086.17-.171.256-.171.172-1.538.257-3.162.172-4.7h-1.626-.17zm-6.757-3.247l-.172.171v.17c-.086.257-.086.598-.086.855v.085h.173v-.854c.085-.086.085-.256.17-.427zm.855 2.221c.256 0 .684.086 1.026.086.514 0 .941 0 1.54.085.856-.17 1.711-.256 2.481-.342-1.797 0-3.593-.256-5.304-.683v.769s.086 0 .172.085v-.085l.085.085zm-1.026-.512c0 .17 0 .256.17.427v-.427h-.17zm2.566 1.538v.17c.171.428.256.77.341 1.196v-.427c-.085-.256-.085-.512-.085-.683 0-.085 0-.085.085-.085v-.257h-.255l-.086.086zm.341 3.588c-.341-1.197-.427-2.392-.427-3.674h-.428c.086 1.282.257 2.477.855 3.674zm5.903-4.358h.17v-.085c-.427 0-.855-.085-1.368-.17-.17.085-.428.17-.684.255h.514v.086c.427-.086.855-.086 1.368-.086zm1.031-.065c-.059.025-.117.065-.176.065h.171c0-.032 0-.053.005-.065zm.081-.02c-.053 0-.073 0-.081.02a.21.21 0 0 1 .081-.02zm-.257 2.05c0 .684 0 1.453-.257 2.222v.256c.428-.854.428-1.622.257-2.477zm23.523 21.445h.6v-.084h-.429s-.086.084-.17.084zm-.085-.342c-.034.011-.069.021-.105.03l.19-.03h-.085zm-.105.03c-1.562.247-3.127.493-4.77.74.427 0 1.026 0 1.454-.086h.17c.342 0 .77 0 1.113-.085.17 0 .427-.086.598-.171.257 0 .513-.086.77-.17.148-.15.426-.169.665-.228zm5.066-1.567l-.086-.086c-.342.342-.683.599-1.026.77-.171.085-.171.17-.257.17-.17.086-.17.171-.342.256-.17.17-.427.427-.77.513 1.198-.086 2.053-.598 2.48-1.623zm-28.741 2.99c-.342 0-.598 0-.94.086.598-.086 1.197-.086 1.795-.086h-.855zm7.015-.256h-.086v.085c.342-.085.684-.085 1.026-.085h-.94zm-12.66 0c-.086-.085-.171-.085-.257-.085h-.428c.257.085.428.085.6.085h.084zm-19.076 0c.856 0 1.71.085 2.566.085-.855 0-1.624-.085-2.309-.17-.684 0-1.198 0-1.796-.086h-.342c.598.086 1.283.086 1.881.17zM5.84 27.856c-.428-.17-.855-.256-1.112-.427.085.085.257.171.428.256.256 0 .428.085.684.171zm-1.197.684c.342.342.77.683 1.197 1.025-.256-.342-.6-.598-.942-.94-.085 0-.085 0-.255-.085zm-1.71.854c.252.17.506.421.676.592-.252-.254-.423-.51-.677-.848v.256zm.682.598l-.006-.006.006.006zm1.622 24.97a52.064 52.064 0 0 1-.68-.108v.087c.26 0 .475 0 .68.021zm.225.035c.123.025.246.061.378.114h.342a58.945 58.945 0 0 0-.72-.114zm-.225-.035l.225.035a2.387 2.387 0 0 0-.225-.035zm32.338-21.21l.086.085c-1.113.599-2.139.683-2.91.17.6-.17 1.284-.426 2.054-.426v-.086l.77.256zm.342-1.111c0 .086.086.086.171.17-1.626.684-2.994.855-4.448.513 1.283-.085 2.48-.341 3.507-.94l.77.257zM14.82 30.847a8.714 8.714 0 0 0 2.566 1.794v.086c-1.026-.171-1.881-.77-2.566-1.88zm52.35-1.795c.257.427.684.684 1.112.94v.085H67.854A3.023 3.023 0 0 1 67 29.052v-.085c0 .085.086.085.171.085zm.513 1.282c-.085 0-.256-.086-.256-.086a2.943 2.943 0 0 0-1.027-1.025h.085c.514.256.942.598 1.283.94.086.085.086.17.086.17h-.17zm-2.138-.855c-.17-.085-.17-.085.085 0a4.3 4.3 0 0 1 1.626 1.026c0 .085 0 .085.085.085.086 0 .257.086.342.086l.085.085-.085.086c-.17 0-.256 0-.427-.086a8.167 8.167 0 0 0-1.71-1.282zm-52.95 3.417h-.084a29.467 29.467 0 0 1-.115-.076l.2.076zm-.199-.076a10.387 10.387 0 0 1-3.563-2.315c-.342-.257-.514-.598-.684-.94h.085c1.334 1.166 2.669 2.252 4.162 3.255zm16.538.419l.086.085h-.513c-.6-.512-1.283-.94-1.797-1.452-.17-.17-.085-.257.086-.257.6.684 1.283 1.197 2.138 1.624zm-2.48-.171c.085 0 .085 0 .085.086.171 0 .257.085.428.17h-.599c-.513-.512-1.112-1.025-1.71-1.538h.086c.598.427 1.197.855 1.71 1.282zm26.431-.599c.086 0 .171.087.171.087l.086.085c-.086.086-.086.086-.17.086-.686-.514-1.37-1.026-2.054-1.453h.085c.6.341 1.283.683 1.882 1.195zm-3.25 1.026c.085 0 .17.086.17.086h.173c.084 0 .084 0 .084.085.086 0 .086.085.086.171h-.086c0 .085 0 .085-.084.085-.086 0-.172 0-.258-.085-.855-.513-1.625-1.11-2.48-1.709h.085c.856.513 1.54.94 2.31 1.367zm-5.818-1.794h.086c.6.427 1.283.855 1.712 1.282.086.085.086.085.086.17-.685-.426-1.37-.94-1.884-1.452zm4.705.085c-.085-.085-.085-.085.087-.085a6.83 6.83 0 0 1 1.796 1.282c.085 0 .085.085.085.085a5.574 5.574 0 0 1-1.968-1.282zm-6.757-.085c.855.598 1.71 1.11 2.737 1.623v.171h-.599c-.684-.599-1.453-1.11-2.309-1.623v-.086c.085-.085.085-.085.17-.085zm-.941 1.367c.257.342.513.683.94.854v.086h-.34c-.343-.342-.6-.684-.6-.94zm17.963-2.392h.086c.599.427 1.111.854 1.625 1.281v.085c-.598-.34-1.197-.768-1.711-1.366zm-1.71 1.281c.085 0 .085 0 .085.085-.428 0-.684-.085-1.111-.17-.258-.427-.6-.77-1.027-1.025h.086c.342.17.683.427 1.025.683 0 0 0 .085.086.085.257.171.514.257.855.342zm-2.738.684v.086a4.967 4.967 0 0 1-2.138-1.282h.085c.6.427 1.369.854 2.053 1.196zm7.955 19.565c.77.171 1.455.427 2.139.683-.684 0-1.455-.17-2.225-.512v-.086l.086-.085zm-1.454 1.11v.086c.171 0 .428.086.599.17.171-.084.171-.17-.086-.34.855-.086 1.625.085 2.48.597-.683.171-1.282 0-1.966-.341v.17c-.086.086-.086.086-.086.171-.256.086-.513.171-.856.086V54a4.46 4.46 0 0 1-2.48-.768c.684 0 1.197.17 1.71.512h.429c-.086-.085-.172-.256-.257-.427v-.171c.085-.086.17-.086.257-.086 0 .086.171.172.256.257zm-1.026 1.026h-.086a13.622 13.622 0 0 1-.036-.008l.122.008zm-.122-.008c-1.313-.099-2.39-.442-3.385-1.188 1.1.507 2.283.93 3.385 1.188zm4.142-2.982h.085c.77.17 1.626.427 2.396.768v.086c-.855-.17-1.71-.513-2.481-.854zm1.54 1.025a.085.085 0 0 1-.053-.016l.053.016zm-.053-.016c-.83-.252-1.502-.504-2.171-.838.77.17 1.454.427 2.138.768 0 0 0 .045.033.07zm-13.89 2.58c-.428-.258-.77-.514-1.198-.77-.77-.427-1.368-.854-1.881-1.367h.085c1.113.684 2.31 1.368 3.593 1.879 0 0 .086 0 .17.086.258 0 .514.085.771.172-.257.426-.77.426-1.54 0zm.171-1.368h.086a17.563 17.563 0 0 0 3.935 1.281c.085 0 .085 0 .085.087-1.626-.087-2.909-.514-4.106-1.368zm5.304.854c.085 0 .17 0 .17.086l.086-.086h.086c.086.086.086.086.086.171-.686.085-1.369-.085-2.224-.512-.514-.342-.942-.598-1.113-.94h.085a8.443 8.443 0 0 0 2.824 1.28zm-5.988.598c.085 0 .085 0 .085.086-1.71-.17-3.421-.684-5.132-1.538-.685-.342-1.369-.769-2.054-1.11-.255-.086-.255-.172 0-.172 2.225 1.11 4.705 1.965 7.1 2.734zm-30.623.599a33.43 33.43 0 0 1-5.731-1.538l.085-.086c1.882.513 3.764 1.025 5.646 1.624zm-5.047-.599v.086c-1.026-.342-2.138-.684-3.165-1.025V54a22.66 22.66 0 0 1 3.165 1.025zm-1.283.171v.086c-1.37-.341-2.823-.855-4.277-1.367l.086-.086c1.454.427 2.822.854 4.19 1.367zM7.55 53.488h.171c.94.683 1.881 1.195 2.994 1.537v.086c-1.283-.17-2.31-.684-3.165-1.623zm-4.106-.513c-.171-.17-.085-.17.085-.17 1.54 1.024 3.251 1.708 5.047 2.22v.086c-1.882-.257-3.592-1.025-5.132-2.136zM1.99 26.66c.171.086.256.171.256.171 0 .085-.085.171-.17.171-1.37-.77-1.882-1.965-1.882-3.504h.085c.171 1.368.77 2.393 1.71 3.162z"/></g></g></svg>