<svg xmlns="http://www.w3.org/2000/svg" width="59" height="29" viewBox="0 0 59 29"><g><g><path fill="#fff" d="M15.165 11.87c.03 3.297 2.958 4.394 2.99 4.408-.025.077-.468 1.563-1.541 3.098-.93 1.328-1.893 2.65-3.412 2.677-1.492.027-1.971-.865-3.677-.865-1.705 0-2.238.838-3.65.892-1.466.054-2.582-1.435-3.519-2.757C.443 16.618-1.019 11.68.944 8.347c.975-1.656 2.719-2.704 4.61-2.73 1.44-.028 2.799.946 3.678.946s2.53-1.171 4.266-1c.726.03 2.765.288 4.074 2.162-.105.064-2.433 1.389-2.407 4.145.025 2.756 0 0 0 0zm-6.11-6.553c-.17-1.25.461-2.555 1.182-3.37.805-.92 2.162-1.607 3.283-1.65.142 1.273-.38 2.554-1.157 3.474l-.002.003c-.779.922-2.055 1.638-3.305 1.543zm14.567-3.12a35.013 35.013 0 0 1 1.91-.264 20.63 20.63 0 0 1 2.294-.118c1.193 0 2.222.143 3.086.427.865.284 1.575.69 2.132 1.22.477.47.85 1.029 1.118 1.675.268.647.401 1.392.401 2.235 0 1.019-.183 1.91-.55 2.675a5.563 5.563 0 0 1-1.506 1.925c-.636.52-1.391.906-2.266 1.16-.874.256-1.829.383-2.862.383-.934 0-1.72-.068-2.355-.206v8.466h-1.402zm1.402 9.878c.338.098.716.166 1.133.205.418.04.865.06 1.341.06 1.789 0 3.175-.413 4.159-1.236s1.476-2.028 1.476-3.615c0-.764-.13-1.43-.388-1.999a3.586 3.586 0 0 0-1.103-1.396 5.05 5.05 0 0 0-1.7-.823 7.934 7.934 0 0 0-2.175-.28c-.636 0-1.183.024-1.64.074-.457.049-.825.103-1.103.16zm20.684 6.349c0 .569.01 1.137.03 1.706.02.567.08 1.116.18 1.645h-1.313l-.208-1.998h-.06c-.18.274-.408.549-.687.823a5.183 5.183 0 0 1-2.22 1.293 5.45 5.45 0 0 1-1.535.206c-.696 0-1.307-.114-1.834-.338a3.762 3.762 0 0 1-1.297-.882 3.601 3.601 0 0 1-.76-1.25 4.144 4.144 0 0 1-.254-1.41c0-1.666.71-2.95 2.132-3.85 1.422-.903 3.563-1.334 6.426-1.294v-.383c0-.372-.035-.798-.105-1.279a3.965 3.965 0 0 0-.463-1.367c-.238-.43-.595-.793-1.072-1.087-.478-.294-1.124-.44-1.939-.44-.616 0-1.227.092-1.833.278a6.22 6.22 0 0 0-1.654.779l-.448-1.03a6.668 6.668 0 0 1 1.968-.924 7.924 7.924 0 0 1 2.116-.28c.994 0 1.805.166 2.43.5.627.333 1.119.764 1.476 1.293.358.529.601 1.122.731 1.778.13.657.193 1.309.193 1.955zm-1.4-4.203c-.756-.02-1.546.01-2.371.088a8.716 8.716 0 0 0-2.28.514c-.696.265-1.273.652-1.73 1.162-.457.51-.685 1.185-.685 2.028 0 1 .288 1.734.864 2.205.576.47 1.222.705 1.938.705a4.75 4.75 0 0 0 1.55-.236 4.05 4.05 0 0 0 1.192-.631c.338-.265.621-.563.85-.896a4.18 4.18 0 0 0 .522-1.03c.1-.392.15-.676.15-.852zm4.141-6.556l3.637 9.172c.2.51.388 1.034.567 1.572.179.54.338 1.034.476 1.485h.06c.14-.43.299-.916.478-1.455.178-.539.377-1.092.595-1.661l3.4-9.113h1.49l-4.143 10.348c-.419 1.098-.811 2.092-1.179 2.984-.368.892-.74 1.695-1.118 2.41a17.24 17.24 0 0 1-1.147 1.897 7.916 7.916 0 0 1-1.298 1.44c-.555.49-1.068.847-1.534 1.072-.468.226-.781.368-.94.426l-.477-1.146a11.82 11.82 0 0 0 1.192-.617 6.459 6.459 0 0 0 1.283-1c.357-.352.75-.818 1.178-1.396.427-.578.81-1.279 1.147-2.102.12-.313.18-.52.18-.618 0-.136-.06-.342-.18-.617l-5.158-13.08z"/></g></g></svg>