<svg xmlns="http://www.w3.org/2000/svg" width="59" height="29" viewBox="0 0 59 29"><g><g><path fill="#33312e" d="M15.164 11.87c.031 3.297 2.958 4.394 2.991 4.408-.025.077-.468 1.563-1.542 3.098-.929 1.327-1.892 2.65-3.411 2.677-1.492.027-1.972-.865-3.677-.865s-2.238.838-3.65.892c-1.466.054-2.582-1.435-3.519-2.757C.442 16.618-1.02 11.68.944 8.346c.975-1.655 2.719-2.703 4.61-2.73 1.44-.027 2.798.947 3.678.947.879 0 2.53-1.171 4.266-1 .726.03 2.765.288 4.074 2.162-.105.064-2.433 1.389-2.408 4.145.026 2.756 0 0 0 0zm-2.8-8.099l-.003.003c-.779.922-2.055 1.637-3.306 1.543-.17-1.25.461-2.555 1.182-3.37.805-.92 2.161-1.607 3.282-1.651.143 1.274-.38 2.555-1.156 3.475zm0 0c.046-.055.747-.886 0 0zm11.258-1.573a35.002 35.002 0 0 1 1.909-.265c.695-.078 1.46-.118 2.295-.118 1.193 0 2.221.143 3.086.427.865.284 1.574.69 2.132 1.22a5.01 5.01 0 0 1 1.117 1.675c.268.647.402 1.392.402 2.235 0 1.019-.183 1.91-.55 2.675a5.563 5.563 0 0 1-1.506 1.925c-.636.52-1.391.906-2.266 1.16-.875.256-1.829.383-2.863.383-.934 0-1.718-.068-2.354-.206v8.466h-1.402zm1.402 9.877c.338.098.715.166 1.133.205.417.04.864.059 1.34.059 1.79 0 3.176-.412 4.16-1.235.984-.823 1.476-2.028 1.476-3.615 0-.764-.13-1.43-.388-1.999a3.586 3.586 0 0 0-1.103-1.396 5.05 5.05 0 0 0-1.7-.823 7.934 7.934 0 0 0-2.176-.28c-.636 0-1.182.024-1.639.074-.457.049-.825.102-1.103.16zm20.684 6.349c0 .569.01 1.137.03 1.705.02.568.08 1.117.179 1.646h-1.312l-.208-1.998h-.06c-.18.274-.408.549-.687.823a5.183 5.183 0 0 1-2.22 1.293 5.45 5.45 0 0 1-1.535.205c-.696 0-1.308-.113-1.834-.337a3.767 3.767 0 0 1-1.297-.882 3.599 3.599 0 0 1-.76-1.25 4.141 4.141 0 0 1-.254-1.41c0-1.666.71-2.95 2.132-3.851 1.422-.902 3.563-1.333 6.426-1.293v-.383c0-.372-.036-.799-.106-1.279a3.965 3.965 0 0 0-.462-1.367c-.238-.43-.595-.793-1.073-1.087-.477-.294-1.123-.44-1.938-.44-.616 0-1.227.092-1.833.278a6.23 6.23 0 0 0-1.654.779l-.448-1.03a6.669 6.669 0 0 1 1.968-.924 7.924 7.924 0 0 1 2.116-.28c.994 0 1.805.166 2.43.5.626.333 1.118.764 1.476 1.293.358.529.601 1.122.731 1.778.129.657.193 1.308.193 1.955zm-1.4-4.203c-.756-.02-1.547.01-2.372.088a8.714 8.714 0 0 0-2.28.514c-.695.265-1.272.652-1.729 1.162-.457.51-.685 1.185-.685 2.028 0 1 .288 1.734.864 2.205.576.47 1.222.705 1.938.705a4.75 4.75 0 0 0 1.55-.236 4.05 4.05 0 0 0 1.192-.631 4.176 4.176 0 0 0 1.372-1.925c.1-.393.15-.677.15-.853zm4.14-6.556l3.638 9.172c.199.51.388 1.034.567 1.572.179.54.338 1.034.476 1.485h.06c.14-.43.299-.916.478-1.455.178-.539.376-1.093.595-1.661l3.4-9.113h1.49l-4.144 10.348a120.79 120.79 0 0 1-1.178 2.984c-.368.892-.74 1.695-1.118 2.41a17.2 17.2 0 0 1-1.147 1.896 7.91 7.91 0 0 1-1.298 1.44c-.556.49-1.068.848-1.535 1.073-.467.226-.78.368-.939.426l-.477-1.146c.357-.157.755-.362 1.192-.617a6.466 6.466 0 0 0 1.283-1c.357-.352.75-.818 1.178-1.396.427-.578.81-1.279 1.147-2.102.119-.313.179-.52.179-.618 0-.136-.06-.342-.179-.617l-5.158-13.08z"/></g></g></svg>