<svg xmlns="http://www.w3.org/2000/svg" width="20" height="20" viewBox="0 0 20 20"><g><g><path fill="#d2a67a" d="M0 4.6C0 2.47 1.083 1.003 3.126.286c.213-.074.428-.14.645-.2.842-.23 1.502.003 2.039.71.428.562.683 1.213.847 1.89.236.973.42 1.96.618 2.942.05.248-.084.415-.282.544-.487.32-.89.715-1.001 1.323-.035.19-.035.403.012.59.376 1.462 1.223 2.634 2.26 3.674.993.998 2.119 1.79 3.473 2.214.61.192 1.133.056 1.594-.352.203-.18.37-.407.533-.626.145-.195.316-.305.554-.255 1.026.22 2.058.416 3.074.681.493.129.978.343 1.423.599 1.012.58 1.28 1.304.951 2.433-.344 1.186-.91 2.223-1.964 2.913-.857.56-1.807.718-2.804.64-1.988-.156-3.74-.991-5.415-2.019-3.622-2.221-6.45-5.223-8.423-9.044C.6 7.665.11 6.326.012 4.866.004 4.752.002 4.637 0 4.601z"/></g></g></svg>