<svg xmlns="http://www.w3.org/2000/svg" width="43" height="24" viewBox="0 0 43 24"><g><g><path fill="#fff" d="M25.048.035c1.393.257 3.057 1.694 4.24 2.423l7.78 4.79c1.891 1.164 7.49 3.248 5.502 6.25-.026.08-.065.147-.127.185l-16.085 9.903c-4.02 2.476-2.34-6.315-2.96-6.315H7.984c-2.169 0-7.818 1.25-7.818-2.29 0-2.153-.401-4.682.018-6.794.328-1.65 1.756-1.395 3.065-1.395h17.533c2.513 0 2.82-.016 2.82-2.747 0-.809-.449-4.36 1.446-4.01zM.97 12.293c.073-.081.152-.156.234-.21a227.556 227.556 0 0 1 5.96-3.743H2.524C.702 8.34.834 10.59.969 12.293zm.003 2.545c.083-.053.171-.108.266-.159 3.8-2.083 7.577-4.207 11.348-6.339H9.948c-2.933 1.79-5.874 3.569-8.744 5.444-.065.043-.123.058-.181.076-.025.337-.064.677-.051.978zm23.543 6.2c.044-.033.087-.069.135-.098 2.76-1.708 5.484-3.47 8.142-5.338.892-.649 1.779-1.303 2.664-1.959.359-.264.326-.317-.071-.113-1.607.827-3.2 1.68-4.782 2.557-1.987 1.303-3.975 2.6-5.965 3.898-.027.017-.05.018-.079.032-.012.343-.028.684-.044 1.022zm16.248-10.172a.653.653 0 0 1-.207.146c-.617.282-1.231.568-1.844.861-.401.194-.685.713-.781 1.14-.07.315-.19.604-.331.713a122.321 122.321 0 0 1-4.798 3.544 167.315 167.315 0 0 1-5.254 3.69 81.24 81.24 0 0 0 2.135-1.234l12.153-7.482c.232-.308-.293-.826-1.073-1.378zm-4.08-2.402c-.042.046-.08.094-.144.133-4.114 2.555-8.246 5.08-12.388 7.594-.047.03-.09.052-.136.077.034.051.073.097.1.16.199.474.314.98.38 1.499.056-.048.109-.101.169-.135.46-.264.919-.528 1.374-.796 1.254-.738 2.517-1.46 3.783-2.174.544-.322 1.09-.645 1.63-.973a1186.57 1186.57 0 0 0 6.56-4.333c.087-.058.188-.1.296-.131-.581-.32-1.061-.575-1.263-.698l-.362-.223zM22.16 15.711c1.382-.838 2.765-1.675 4.146-2.515.38-.232.373-.244-.016-.025-1.476.83-2.937 1.688-4.396 2.547.086-.002.174-.003.266-.007zM32.613 5.96c-.042.038-.076.08-.136.114-4.06 2.25-8.087 4.57-12.125 6.866-1.46.909-2.904 1.84-4.343 2.782h3.055c.67-.41 1.336-.82 2.01-1.22a424.864 424.864 0 0 1 13.063-7.408c.06-.033.132-.05.202-.072L32.613 5.96zm-5.11-3.194a.644.644 0 0 1-.172.16c-.886.543-1.778 1.075-2.673 1.603-.031.017-.058.017-.087.03.103 1.354.162 3.25-.561 3.546-1.512.62-3.616.235-5.22.235h-.798c-4.325 2.42-8.664 4.815-12.877 7.383h7.194a422.36 422.36 0 0 0 8.088-4.49 230.868 230.868 0 0 1 10.49-6.14c.06-.032.133-.05.202-.072-.609-.373-1.218-.748-1.826-1.123-.382-.236-1.047-.712-1.76-1.132z"/></g></g></svg>