<svg xmlns="http://www.w3.org/2000/svg" width="125" height="19" viewBox="0 0 125 19"><g><g><path fill="#33312e" d="M81.952 18.6V.802h2.858v1.303c.397-.638 1.163-1.09 1.773-1.303a5.492 5.492 0 0 1 1.851-.292c1.588 0 3.255.531 4.63 1.968 1.27 1.33 1.932 2.926 1.932 4.841 0 .878-.159 1.729-.503 2.554a6.126 6.126 0 0 1-1.375 2.155A6.422 6.422 0 0 1 91 13.519c-.767.345-1.508.504-2.46.504a6.091 6.091 0 0 1-1.985-.318c-.608-.214-1.481-.719-1.799-1.251v6.145zm6.376-15.563c-1.03 0-1.957.32-2.698 1.091-.767.798-1.058 1.942-1.058 3.06 0 1.223.291 2.393 1.032 3.191.74.798 1.667 1.09 2.751 1.09 1.085 0 1.958-.451 2.646-1.116.767-.799 1.138-1.862 1.138-3.007 0-1.25-.371-2.367-1.111-3.165-.662-.718-1.588-1.144-2.7-1.144zm26.22 15.562l2.407-5.613L111.426.803h3.017l3.916 9.15 3.624-9.15h3.015l-7.486 17.796zm-7.645-4.815v-1.33c-.318.559-1.191 1.037-1.8 1.25a6.212 6.212 0 0 1-1.984.32c-.953 0-1.667-.16-2.46-.505a6.7 6.7 0 0 1-2.118-1.49 6.523 6.523 0 0 1-1.375-2.155 6.555 6.555 0 0 1-.502-2.554c0-1.889.661-3.511 1.93-4.841 1.377-1.437 3.07-1.968 4.631-1.968.634 0 1.27.105 1.852.292.608.213 1.376.665 1.772 1.303V.803h2.858v12.981zm-6.27-9.63c-.742.799-1.112 1.916-1.112 3.166 0 1.144.37 2.234 1.137 3.006.662.692 1.561 1.117 2.647 1.117 1.084 0 1.983-.292 2.75-1.09.742-.799 1.033-1.969 1.033-3.193 0-1.143-.291-2.26-1.06-3.059-.74-.77-1.64-1.09-2.697-1.09-1.138.026-2.064.452-2.699 1.143zM63.51 11.231l-.131-8.62h2.698v10.88H62.19L59.49 4.554h-.053l.133 8.937h-2.674V2.611h4.05l2.513 8.62zM14.353 3.623l-1.507 9.975H9.908L11.92 2.612h4.869l2.01 10.986H15.86l-1.454-9.975zm12.727 7.395l1.35-8.406h4.47l.239 10.986h-2.726l-.08-9.895h-.051l-1.826 9.895h-2.78l-1.825-9.895h-.08l-.051 9.895h-2.725l.238-10.986h4.444l1.35 8.406zm22.938.93c.767 0 1.005-.531 1.059-.797.026-.107.026-.267.026-.426V2.611h2.778v7.875c0 .212-.026.612-.026.718-.186 2.048-1.8 2.713-3.81 2.713-2.011 0-3.625-.665-3.81-2.713 0-.106-.027-.532-.027-.718V2.61h2.778v8.114c0 .133 0 .293.026.426 0 .266.239.798 1.006.798zM.384 6.15a3.893 3.893 0 0 1-.026-1.463c.29-1.783 1.878-2.421 3.862-2.421 1.535 0 3.678.372 3.678 2.766v.745H5.172v-.691c0-.585-.396-.985-1.031-.985-.688 0-.926.4-1.006.745-.052.133-.052.346 0 .585C3.427 6.735 7.58 7.4 8.056 9.714c.027.24.133.852 0 1.809-.264 1.835-1.878 2.5-3.862 2.5-2.063 0-3.968-.745-3.968-3.192v-.85h2.962v1.063c0 .612.397 1.011 1.085 1.011.714 0 .979-.372 1.058-.744.053-.213.08-.56-.026-.825C4.749 9.076.86 8.436.384 6.15zm35.56.08c-.133-.56-.107-.985-.028-1.464.291-1.782 1.852-2.42 3.784-2.42 1.534 0 3.651.372 3.651 2.74v.77h-2.698v-.664c0-.585-.371-.984-1.006-.984-.661 0-.9.372-.98.718-.026.106-.026.346.027.559.318 1.277 4.419 1.968 4.869 4.23.053.239.159.85.026 1.782-.265 1.808-1.878 2.473-3.836 2.473-2.037 0-3.942-.745-3.942-3.165v-.851h2.91v1.064c0 .585.397.983 1.085.983.714 0 .978-.345 1.058-.717.053-.213.08-.532-.026-.798-.556-1.437-4.419-2.05-4.895-4.257zm36.854 5.612c.794 0 1.058-.505 1.111-.798.026-.133.026-.266.026-.425V9.023h-1.11V7.426h3.862v2.953c0 .213 0 .346-.026.719-.185 1.994-1.905 2.713-3.863 2.713-1.932 0-3.652-.719-3.836-2.713-.027-.373-.053-.506-.053-.719V5.75c0-.186.026-.558.053-.718.238-2.074 1.878-2.713 3.836-2.713 1.931 0 3.651.639 3.836 2.713.027.346.027.718.027.718v.373h-2.752v-.612s0-.266-.026-.425c-.054-.24-.265-.799-1.085-.799-.794 0-1.032.532-1.086.799a3.007 3.007 0 0 0-.052.505v5.028c0 .133 0 .292.027.425.052.293.317.798 1.111.798z"/></g></g></svg>