<svg xmlns="http://www.w3.org/2000/svg" width="125" height="19" viewBox="0 0 125 19"><g><g><path fill="#fff" d="M81.952 18.6V.802h2.858v1.303c.397-.638 1.164-1.09 1.773-1.303a5.492 5.492 0 0 1 1.852-.292c1.587 0 3.254.531 4.63 1.968 1.27 1.33 1.931 2.926 1.931 4.841 0 .878-.159 1.729-.503 2.554a6.126 6.126 0 0 1-1.375 2.155 6.422 6.422 0 0 1-2.117 1.49c-.767.345-1.507.505-2.46.505a6.09 6.09 0 0 1-1.984-.32c-.609-.213-1.482-.718-1.8-1.25v6.145zM88.33 3.036c-1.031 0-1.957.32-2.699 1.091-.767.798-1.058 1.942-1.058 3.06 0 1.223.291 2.393 1.032 3.191.741.798 1.667 1.091 2.751 1.091 1.085 0 1.959-.452 2.646-1.117.767-.799 1.138-1.862 1.138-3.007 0-1.25-.37-2.367-1.111-3.165-.662-.718-1.588-1.144-2.7-1.144zM114.548 18.6l2.408-5.612-5.53-12.184h3.017l3.916 9.15 3.624-9.15H125L117.512 18.6zm-7.645-4.815v-1.33c-.318.559-1.19 1.037-1.8 1.25a6.212 6.212 0 0 1-1.984.32c-.953 0-1.666-.16-2.46-.505a6.7 6.7 0 0 1-2.117-1.49 6.523 6.523 0 0 1-1.376-2.155 6.555 6.555 0 0 1-.502-2.554c0-1.889.662-3.511 1.93-4.841 1.377-1.437 3.07-1.968 4.631-1.968.635 0 1.27.105 1.852.292.608.213 1.376.665 1.773 1.303V.803h2.857v12.981zm-6.27-9.63c-.741.799-1.112 1.916-1.112 3.166 0 1.144.37 2.234 1.137 3.006.662.692 1.561 1.117 2.647 1.117 1.084 0 1.984-.292 2.75-1.09.742-.799 1.033-1.969 1.033-3.193 0-1.143-.291-2.26-1.059-3.059-.74-.77-1.64-1.09-2.698-1.09-1.138.026-2.064.452-2.699 1.143zM63.51 11.231l-.13-8.62h2.698v10.88h-3.89l-2.698-8.937h-.054l.133 8.937h-2.673V2.611h4.049l2.513 8.62zM14.354 3.623l-1.508 9.975H9.908L11.92 2.612h4.869l2.01 10.986h-2.937l-1.454-9.975zm12.726 7.395l1.35-8.406h4.47l.239 10.986h-2.726l-.08-9.895h-.051l-1.826 9.895h-2.779l-1.826-9.895h-.079l-.052 9.895h-2.725l.238-10.986h4.444l1.35 8.406zm22.938.93c.767 0 1.006-.531 1.059-.797.026-.107.026-.267.026-.426V2.611h2.778v7.875c0 .212-.026.612-.026.718-.185 2.048-1.799 2.713-3.81 2.713-2.01 0-3.625-.665-3.81-2.713 0-.106-.027-.532-.027-.718V2.61h2.778v8.114c0 .133 0 .293.027.426 0 .266.238.798 1.005.798zM.384 6.15a3.894 3.894 0 0 1-.026-1.463c.29-1.783 1.879-2.42 3.862-2.42 1.535 0 3.678.371 3.678 2.765v.745H5.172v-.691c0-.585-.396-.985-1.03-.985-.688 0-.927.4-1.007.745-.052.133-.052.346 0 .585.292 1.304 4.446 1.969 4.922 4.283.026.24.132.852 0 1.81-.265 1.834-1.878 2.5-3.863 2.5-2.063 0-3.968-.745-3.968-3.193v-.85h2.963v1.063c0 .612.396 1.011 1.085 1.011.713 0 .978-.372 1.057-.744.054-.213.08-.559-.026-.825C4.75 9.076.86 8.437.385 6.15zm35.56.08c-.133-.56-.107-.985-.027-1.463.29-1.783 1.852-2.421 3.783-2.421 1.535 0 3.651.372 3.651 2.74v.77h-2.698v-.664c0-.585-.371-.984-1.005-.984-.662 0-.9.372-.98.718-.027.106-.027.346.026.559.319 1.277 4.419 1.968 4.869 4.23.053.239.159.85.027 1.782-.265 1.808-1.879 2.473-3.837 2.473-2.037 0-3.942-.744-3.942-3.165v-.851h2.91v1.064c0 .585.397.983 1.085.983.714 0 .979-.345 1.058-.717.053-.213.08-.532-.026-.798-.556-1.437-4.419-2.049-4.895-4.257zm36.854 5.613c.794 0 1.058-.506 1.111-.799.026-.133.026-.266.026-.425V9.023h-1.11V7.426h3.863v2.953c0 .213 0 .346-.027.719-.185 1.995-1.905 2.713-3.863 2.713-1.931 0-3.651-.718-3.836-2.713-.026-.373-.053-.506-.053-.719V5.75c0-.186.027-.558.053-.718.238-2.074 1.879-2.713 3.836-2.713 1.931 0 3.651.639 3.837 2.713.026.346.026.718.026.718v.373H73.91v-.612s0-.266-.026-.425c-.054-.24-.265-.799-1.085-.799-.794 0-1.032.532-1.085.799a3.007 3.007 0 0 0-.053.505v5.028c0 .133 0 .292.027.425.052.293.317.799 1.111.799z"/></g></g></svg>