<svg xmlns="http://www.w3.org/2000/svg" width="29" height="53" viewBox="0 0 29 53"><g><g><path fill="#daa520" d="M.043 22.102c.31-1.718 2.045-3.771 2.923-5.23 1.928-3.198 3.854-6.398 5.78-9.597 1.406-2.332 3.92-9.238 7.542-6.785.097.032.179.08.224.156 3.984 6.613 7.967 13.225 11.95 19.84 2.99 4.96-7.62 2.886-7.62 3.651V43.15c0 2.675 1.51 9.643-2.762 9.643-2.598 0-5.65.495-8.2-.022-1.992-.405-1.683-2.166-1.683-3.78V27.364c0-3.1-.02-3.478-3.316-3.478-.976 0-5.26.553-4.838-1.784zm14.793 29.7a1.517 1.517 0 0 1-.253-.288c-1.55-2.42-3.04-4.882-4.519-7.352v5.723c0 2.248 2.714 2.084 4.772 1.917zm3.072-.002a4.976 4.976 0 0 1-.194-.329 1182.411 1182.411 0 0 0-7.65-13.997v3.254c2.16 3.617 4.308 7.244 6.572 10.785.051.08.069.15.09.223.407.032.818.08 1.182.064zm7.481-29.04c-.04-.055-.083-.108-.12-.167-2.06-3.404-4.187-6.764-6.44-10.042-.783-1.1-1.573-2.194-2.364-3.286-.32-.443-.383-.403-.137.086a217.347 217.347 0 0 0 3.087 5.899c1.57 2.451 3.136 4.903 4.702 7.357.021.035.022.064.04.098.413.014.825.035 1.232.055zM13.113 2.72a.796.796 0 0 1 .177.254c.34.76.685 1.519 1.039 2.273.234.497.86.846 1.376.966.38.086.728.234.86.407a151.246 151.246 0 0 1 4.277 5.918 207.213 207.213 0 0 1 4.454 6.48 103.195 103.195 0 0 0-1.49-2.633l-9.03-14.99c-.371-.287-.997.36-1.663 1.324zm-2.898 5.032c.055.05.113.097.16.176 3.083 5.075 6.131 10.172 9.165 15.28.035.058.062.111.092.167.062-.041.117-.09.193-.122a6.851 6.851 0 0 1 1.81-.47c-.058-.068-.122-.133-.163-.207-.319-.569-.638-1.134-.961-1.695a308.198 308.198 0 0 1-2.624-4.666c-.389-.671-.778-1.344-1.173-2.01a1554.407 1554.407 0 0 0-5.23-8.093 1.343 1.343 0 0 1-.158-.364c-.385.717-.694 1.31-.843 1.558-.088.149-.178.298-.268.446zm8.746 17.911c-1.011-1.704-2.023-3.41-3.036-5.113-.28-.47-.295-.46-.03.019a315.225 315.225 0 0 0 3.074 5.422c-.002-.106-.004-.214-.008-.328zM7.193 12.771c.046.052.097.094.138.169 2.715 5.007 5.515 9.974 8.286 14.955a284.75 284.75 0 0 0 3.356 5.356v-3.768c-.494-.825-.99-1.648-1.47-2.478A531.374 531.374 0 0 1 8.56 10.892c-.04-.074-.06-.164-.085-.25-.429.71-.856 1.42-1.283 2.13zm-3.854 6.303a.8.8 0 0 1 .192.212 215.653 215.653 0 0 1 1.935 3.297c.02.04.02.072.037.108 1.634-.127 3.92-.2 4.279.692.747 1.865.282 4.46.282 6.44v.982c2.922 5.335 5.812 10.687 8.91 15.884v-8.874a529.986 529.986 0 0 0-5.417-9.976 286.527 286.527 0 0 1-7.41-12.94c-.04-.074-.06-.162-.087-.248-.45.752-.903 1.502-1.356 2.253-.284.47-.858 1.29-1.365 2.17z"/></g></g></svg>