<svg xmlns="http://www.w3.org/2000/svg" width="25" height="27" viewBox="0 0 25 27"><g><g><path fill="#be3dee" d="M19.38.639c1.998.436 4.513 2.8 5.003 4.701a25.35 25.35 0 0 1 0 11.088c-.49 1.9-3.005 4.264-5.003 4.7a37.368 37.368 0 0 1-7.885.626.189.189 0 0 0-.14.056l-2.452 2.47-2.608 2.628c-.191.194-.526.062-.526-.208V21.31a.187.187 0 0 0-.154-.182h-.001c-1.998-.437-4.512-2.8-5.003-4.702a25.362 25.362 0 0 1 0-11.087C1.102 3.44 3.616 1.075 5.614.64c4.568-.853 9.199-.853 13.766 0zm.07 16.063c.218-.455.085-.895-.303-1.23-.403-.348-.838-.647-1.275-.953a29.905 29.905 0 0 0-1.355-.906c-.463-.287-1.01-.282-1.439.062-.44.352-.641 1.026-1.268 1.098-.374.043-.7-.112-1.024-.244-2.028-.828-3.264-2.366-3.997-4.343a.863.863 0 0 1 .06-.772c.08-.13.192-.226.31-.321.134-.109.267-.222.41-.318.596-.397.685-1.109.357-1.691-.533-.947-1.192-1.806-1.91-2.623-.331-.378-.779-.501-1.233-.287-.582.275-1.12.647-1.538 1.133-.445.518-.867 1.23-.58 1.917.314.755.623 1.514.99 2.245.772 1.542 1.686 2.997 2.854 4.287 2.054 2.269 4.646 3.748 7.463 4.895.271.11.564.172.872.263.266-.08.55-.12.786-.245.839-.442 1.42-1.135 1.82-1.967zm-3.638-6.444a.363.363 0 0 0 .33-.296c.026-.111.014-.234.004-.35-.145-1.651-1.167-2.376-2.595-2.477a.442.442 0 0 0-.467.35c-.039.225.097.42.342.478.225.055.46.037.686.102.178.05.348.128.498.235.318.227.518.57.61.941.048.188.066.384.087.578.03.264.184.427.466.437a.592.592 0 0 0 .04.002zm-.888-3.774a4.135 4.135 0 0 1 1.748 1.608c.393.666.563 1.431.564 2.197 0 .117.006.24.045.35.128.366.69.32.787-.042.027-.1.03-.207.036-.252-.014-.248-.023-.436-.038-.623-.006-.077-.024-.152-.036-.228-.255-1.674-1.128-2.928-2.657-3.723-.75-.39-1.568-.57-2.413-.617-.258-.015-.43.152-.442.384-.012.247.125.407.38.442.211.029.424.05.634.083.48.079.954.21 1.392.42zm4.724 5.174c.286-.003.436-.25.415-.51-.049-.618-.088-1.241-.2-1.85-.644-3.554-3.639-5.947-7.293-6.074.474.015 3.292.09-.065-.002-.071 0-.143-.003-.214 0-.26.014-.492.229-.443.498.058.32.402.336.665.363.417.044.838.062 1.249.135 2.732.478 4.92 2.706 5.302 5.4.073.51.099 1.027.137 1.542.019.26.152.502.447.498z"/></g></g></svg>