<svg xmlns="http://www.w3.org/2000/svg" width="63" height="19" viewBox="0 0 63 19"><g><g><g><path fill="#fff" d="M13.369 13.001L18.37.464h5.286l-7.929 18.338h-5.285L5.618 1.482 9.876 1.4l2.266 6.081z"/></g><g><path fill="#fff" d="M25.732.464h5.097l-3.208 18.385h-5.002z"/></g><g><path fill="#fff" d="M45.27 4.955l.755-3.93s-7.621-2.69-11.704 1.778c-4.081 4.468 1.227 7.555 1.888 7.86.66.303 4.224 1.332 3.68 3.274-.542 1.941-5.143 1.45-7.078.655-1.935-.795-1.321-.562-1.321-.562l-.66 4.117s5.049 1.941 9.626.374c4.578-1.567 4.672-4.56 4.72-5.52.046-.958-.284-3.462-4.153-5.052-3.87-1.591-3.658-3.579-.283-3.93 3.374-.351 4.53.936 4.53.936z"/></g><g><path fill="#fff" d="M58.955.464l4.058 18.385H58.39l-.566-2.76h-6.607l-1.038 2.76h-5.286L52.16 2.523s.377-2.06 3.02-2.06h3.775zm-1.982 11.882l-1.604-6.83-2.738 6.83z"/></g><g><path fill="#f9a415" d="M.722.558L.627.932s3.823.749 6.135 2.432C9.074 5.048 9.83 5.68 11.103 7.388c1.274 1.707 1.7 2.994 1.7 2.994l-1.7-8.14s-.4-1.708-2.36-1.684C6.787.58.723.558.723.558z"/></g></g></g></svg>