<svg xmlns="http://www.w3.org/2000/svg" width="63" height="19" viewBox="0 0 63 19"><g><g><g><path fill="#3247b2" d="M13.368 13.001L18.371.464h5.285l-7.928 18.338h-5.285L5.618 1.482 9.876 1.4l2.266 6.081z"/></g><g><path fill="#3247b2" d="M25.732.464h5.097l-3.208 18.385h-5.003z"/></g><g><path fill="#3247b2" d="M45.27 4.954l.755-3.929s-7.621-2.69-11.704 1.778c-4.082 4.468 1.227 7.555 1.887 7.86.661.303 4.225 1.332 3.682 3.274-.543 1.94-5.144 1.45-7.08.655-1.934-.795-1.32-.562-1.32-.562l-.66 4.117s5.048 1.941 9.626.374c4.578-1.567 4.672-4.56 4.72-5.52.046-.958-.284-3.462-4.154-5.052-3.87-1.591-3.657-3.579-.282-3.93 3.374-.351 4.53.935 4.53.935z"/></g><g><path fill="#3247b2" d="M58.955.464l4.058 18.385h-4.625l-.565-2.76h-6.607l-1.038 2.76h-5.286l7.267-16.327S52.537.464 55.18.464h3.776zm-1.982 11.882l-1.604-6.83-2.738 6.83z"/></g><g><path fill="#f9a415" d="M.722.558L.626.932s3.824.748 6.136 2.432c2.312 1.684 3.067 2.316 4.341 4.024 1.274 1.707 1.7 2.994 1.7 2.994l-1.7-8.14S10.702.534 8.743.558C6.786.58.723.558.723.558z"/></g></g></g></svg>