<svg xmlns="http://www.w3.org/2000/svg" width="26" height="26" viewBox="0 0 26 26"><g><g><path fill="#15d238" d="M26 13c0 7.167-5.83 13-12.997 13-2.644 0-5.096-.787-7.152-2.149L.854 25.449l1.62-4.83A12.903 12.903 0 0 1 0 13C0 5.83 5.829 0 12.997 0h.006C20.17 0 26 5.831 26 13zm-5.21 3.553c-.093-.16-.345-.252-.726-.443-.382-.19-2.24-1.108-2.59-1.23-.345-.13-.673-.085-.933.282-.366.512-.725 1.032-1.016 1.346-.23.244-.603.274-.917.145-.42-.176-1.597-.589-3.048-1.88-1.125-1.002-1.888-2.248-2.11-2.622-.22-.382-.022-.603.154-.809.191-.237.373-.406.565-.627.191-.221.299-.337.42-.597.13-.252.038-.512-.055-.703-.09-.192-.854-2.058-1.168-2.813-.252-.603-.443-.626-.825-.642-.13-.006-.275-.015-.436-.015-.497 0-1.016.147-1.33.467-.381.39-1.328 1.298-1.328 3.164 0 1.865 1.36 3.67 1.543 3.921.192.252 2.653 4.134 6.473 5.716 2.987 1.239 3.874 1.124 4.553.979.993-.215 2.238-.95 2.551-1.835.314-.887.314-1.643.223-1.804z"/></g></g></svg>