<svg 
 xmlns="http://www.w3.org/2000/svg"
 xmlns:xlink="http://www.w3.org/1999/xlink"
 width="24px" height="25px">
<path fill-rule="evenodd"  fill="rgb(255, 255, 255)"
 d="M23.285,17.851 L20.313,14.879 C19.493,14.060 18.160,14.060 17.340,14.879 L15.989,16.230 C15.368,16.851 14.358,16.851 13.738,16.230 L7.882,10.370 C7.259,9.748 7.259,8.741 7.882,8.118 C8.099,7.901 8.724,7.276 9.233,6.768 C10.048,5.952 10.060,4.623 9.232,3.795 L6.260,0.833 C5.441,0.013 4.107,0.013 3.290,0.831 C2.679,1.437 2.481,1.633 2.207,1.904 C-0.748,4.859 -0.748,9.667 2.207,12.622 L11.486,21.904 C14.448,24.866 19.242,24.866 22.204,21.904 L23.285,20.823 C24.104,20.004 24.104,18.671 23.285,17.851 ZM4.279,1.824 C4.552,1.550 4.996,1.550 5.270,1.825 L8.242,4.786 C8.516,5.060 8.516,5.503 8.242,5.777 L7.746,6.272 L3.786,2.312 L4.279,1.824 ZM12.477,20.913 L3.198,11.631 C0.912,9.345 0.786,5.756 2.811,3.319 L6.760,7.268 C5.723,8.444 5.766,10.236 6.891,11.361 L12.746,17.221 C12.746,17.221 12.747,17.221 12.747,17.221 C13.870,18.344 15.662,18.390 16.840,17.351 L20.789,21.300 C18.361,23.322 14.779,23.215 12.477,20.913 ZM22.294,19.833 L21.799,20.328 L17.836,16.366 L18.331,15.870 C18.604,15.597 19.049,15.597 19.322,15.870 L22.294,18.842 C22.567,19.115 22.567,19.559 22.294,19.833 Z"/>
</svg>