<svg 
 xmlns="http://www.w3.org/2000/svg"
 xmlns:xlink="http://www.w3.org/1999/xlink"
 width="8px" height="19px">
<path fill-rule="evenodd"  fill="rgb(45, 154, 167)"
 d="M5.325,6.539 L5.325,5.059 C5.325,4.836 5.335,4.664 5.356,4.543 C5.377,4.421 5.424,4.301 5.497,4.183 C5.570,4.065 5.688,3.983 5.851,3.938 C6.014,3.893 6.232,3.870 6.503,3.870 L7.983,3.870 L7.983,0.910 L5.617,0.910 C4.248,0.910 3.265,1.236 2.667,1.885 C2.070,2.535 1.771,3.492 1.771,4.756 L1.771,6.539 L-0.001,6.539 L-0.001,9.498 L1.771,9.498 L1.771,18.086 L5.325,18.086 L5.325,9.498 L7.691,9.498 L8.003,6.539 L5.325,6.539 Z"/>
</svg>