<svg 
 xmlns="http://www.w3.org/2000/svg"
 xmlns:xlink="http://www.w3.org/1999/xlink"
 width="27px" height="37px">
<path fill-rule="evenodd"  fill="rgb(45, 154, 167)"
 d="M26.395,36.054 C26.395,36.527 26.003,36.914 25.520,36.914 L1.682,36.914 C1.200,36.914 0.807,36.527 0.807,36.054 C0.807,28.809 4.081,23.638 9.427,21.910 C6.838,20.469 5.084,17.737 5.084,14.606 C5.084,12.898 5.600,11.271 6.556,9.891 C6.528,9.825 6.490,9.762 6.479,9.689 C6.313,8.566 6.075,7.505 5.823,6.373 C5.559,5.191 5.279,3.932 5.038,2.456 C4.978,2.088 5.167,1.724 5.506,1.555 C7.372,0.620 10.125,0.103 13.258,0.103 C16.776,0.103 20.177,0.767 22.353,1.880 C22.696,2.054 22.881,2.427 22.813,2.799 C22.639,3.702 22.428,4.604 22.183,5.666 C21.893,6.904 21.550,8.360 21.165,10.303 C21.157,10.345 21.127,10.378 21.112,10.417 C21.925,11.697 22.123,13.053 22.123,14.606 C22.123,17.737 20.367,20.469 17.777,21.910 C23.124,23.638 26.395,28.808 26.395,36.054 ZM20.965,3.133 C19.020,2.306 16.199,1.820 13.258,1.820 C10.754,1.820 8.473,2.184 6.871,2.829 C7.078,3.997 7.308,5.029 7.527,6.006 C7.713,6.842 7.892,7.641 8.042,8.452 C8.114,8.439 8.184,8.430 8.257,8.435 C10.058,7.990 11.832,7.752 13.537,7.752 C15.762,7.752 17.821,8.137 19.672,8.896 C19.974,7.451 20.245,6.294 20.483,5.280 C20.664,4.498 20.830,3.804 20.965,3.133 ZM20.377,14.606 C20.377,12.653 19.995,11.548 18.947,10.481 C16.001,9.290 12.400,9.176 8.610,10.125 C7.470,11.357 6.825,12.928 6.825,14.606 C6.825,18.282 9.864,21.276 13.601,21.276 C17.338,21.276 20.377,18.282 20.377,14.606 ZM13.726,25.746 C15.042,25.746 16.145,24.721 16.447,23.345 C15.554,23.123 14.608,22.994 13.601,22.994 C12.681,22.994 11.811,23.101 10.985,23.288 C11.266,24.693 12.384,25.746 13.726,25.746 ZM17.735,23.753 C17.315,25.436 16.018,26.733 14.401,27.021 L14.401,29.635 C14.401,30.005 14.099,30.302 13.726,30.302 C13.349,30.302 13.047,30.005 13.047,29.635 L13.047,27.020 C11.402,26.727 10.088,25.394 9.692,23.671 C5.465,25.222 2.811,29.383 2.572,35.194 L24.634,35.194 C24.400,29.486 21.833,25.368 17.735,23.753 ZM15.298,5.297 L14.031,5.297 L14.031,6.544 C14.031,6.778 13.839,6.967 13.601,6.967 C13.364,6.967 13.175,6.778 13.175,6.544 L13.175,5.297 L11.908,5.297 C11.671,5.297 11.478,5.108 11.478,4.873 C11.478,4.640 11.671,4.450 11.908,4.450 L13.175,4.450 L13.175,3.206 C13.175,2.973 13.364,2.783 13.601,2.783 C13.839,2.783 14.031,2.973 14.031,3.206 L14.031,4.450 L15.298,4.450 C15.536,4.450 15.728,4.640 15.728,4.873 C15.728,5.108 15.536,5.297 15.298,5.297 Z"/>
</svg>