<svg 
 xmlns="http://www.w3.org/2000/svg"
 xmlns:xlink="http://www.w3.org/1999/xlink"
 width="31px" height="37px">
<path fill-rule="evenodd"  fill="rgb(45, 154, 167)"
 d="M30.212,22.581 L29.828,22.581 L29.828,27.551 C29.828,27.710 29.775,27.865 29.681,27.996 L27.483,30.920 L27.483,36.250 C27.483,36.653 27.155,36.983 26.751,36.983 C26.348,36.983 26.019,36.653 26.019,36.250 L26.019,30.914 L23.777,27.858 C23.683,27.733 23.634,27.580 23.634,27.421 L23.634,22.581 L23.254,22.581 C22.850,22.581 22.522,22.251 22.522,21.846 C22.522,21.440 22.850,21.111 23.254,21.111 L30.212,21.111 C30.616,21.111 30.944,21.440 30.944,21.846 C30.944,22.251 30.616,22.581 30.212,22.581 ZM28.365,22.581 L25.097,22.581 L25.097,24.674 L28.365,24.674 L28.365,22.581 ZM28.365,26.143 L25.097,26.143 L25.097,27.181 L26.759,29.443 L28.365,27.307 L28.365,26.143 ZM29.896,19.200 C29.461,19.631 28.884,19.870 28.272,19.870 L24.526,19.859 C24.209,19.859 23.895,19.789 23.597,19.651 C23.293,19.507 23.042,19.313 22.835,19.069 L20.548,16.337 C20.415,16.179 20.221,16.088 20.015,16.088 C19.692,16.125 19.491,16.272 19.389,16.489 L16.563,22.494 C16.504,22.621 16.467,22.759 16.456,22.902 C16.444,23.047 16.456,23.185 16.497,23.319 L17.548,26.999 C17.631,27.280 17.692,27.573 17.729,27.877 C17.764,28.181 17.775,28.480 17.764,28.777 L17.537,34.628 C17.513,35.273 17.242,35.872 16.774,36.316 C16.322,36.746 15.728,36.983 15.101,36.983 C15.098,36.983 15.062,36.983 15.059,36.983 L14.594,36.976 C13.966,36.965 13.383,36.713 12.948,36.264 C12.513,35.813 12.277,35.217 12.288,34.594 L12.391,27.677 L10.948,22.455 L9.808,26.617 C9.718,26.980 9.598,27.342 9.445,27.703 C9.294,28.054 9.115,28.392 8.914,28.710 L5.623,33.884 C5.286,34.420 4.733,34.809 4.108,34.942 C3.492,35.080 2.828,34.965 2.292,34.616 C1.561,34.150 1.151,33.561 1.001,32.872 C0.848,32.184 0.972,31.480 1.352,30.884 L4.683,25.651 L5.878,19.707 C5.942,19.400 6.021,19.100 6.121,18.795 C6.220,18.491 6.337,18.201 6.470,17.919 L10.793,8.731 C11.195,7.878 11.903,7.235 12.786,6.914 C13.669,6.597 14.646,6.647 15.476,7.047 L15.606,7.109 C15.361,6.509 15.221,5.856 15.221,5.170 C15.221,2.335 17.518,0.028 20.341,0.028 C23.162,0.028 25.459,2.335 25.459,5.170 C25.459,7.511 23.881,9.472 21.745,10.091 C21.748,10.093 21.751,10.094 21.753,10.096 C21.899,10.210 22.037,10.347 22.159,10.500 L24.841,13.846 C24.989,14.032 25.171,14.176 25.383,14.282 C25.595,14.383 25.820,14.436 26.049,14.436 L28.068,14.457 C28.752,14.461 29.392,14.737 29.871,15.229 C30.348,15.722 30.606,16.373 30.597,17.065 L30.588,17.582 C30.582,18.187 30.335,18.763 29.896,19.200 ZM23.995,5.170 C23.995,3.144 22.356,1.498 20.341,1.498 C18.324,1.498 16.685,3.144 16.685,5.170 C16.685,7.197 18.324,8.843 20.341,8.843 C22.356,8.843 23.995,7.197 23.995,5.170 ZM28.826,16.256 C28.619,16.045 28.346,15.928 28.055,15.926 L26.038,15.907 C25.595,15.904 25.159,15.801 24.745,15.604 C24.336,15.402 23.986,15.122 23.702,14.769 L21.019,11.421 C20.966,11.354 20.912,11.301 20.853,11.255 C20.787,11.201 20.723,11.163 20.656,11.130 L14.851,8.374 C14.364,8.143 13.796,8.113 13.280,8.297 C12.765,8.485 12.351,8.860 12.115,9.358 L7.793,18.545 C7.686,18.772 7.592,19.009 7.511,19.255 C7.428,19.504 7.362,19.752 7.310,20.003 L6.090,26.073 C6.071,26.161 6.038,26.247 5.988,26.325 L2.583,31.673 C2.415,31.939 2.360,32.250 2.428,32.557 C2.496,32.861 2.677,33.124 2.939,33.288 C3.348,33.553 3.553,33.558 3.796,33.510 C4.041,33.457 4.257,33.301 4.388,33.095 L7.681,27.917 C7.839,27.670 7.981,27.407 8.101,27.122 C8.223,26.836 8.317,26.548 8.389,26.262 L9.563,21.505 C9.668,21.070 9.963,20.709 10.372,20.515 C10.568,20.419 10.785,20.369 11.008,20.369 C11.230,20.369 11.453,20.420 11.652,20.516 C11.875,20.596 11.997,20.760 12.059,20.989 L13.827,27.388 C13.846,27.454 13.855,27.525 13.855,27.596 L13.752,34.616 C13.746,34.850 13.835,35.068 13.999,35.243 C14.161,35.409 14.381,35.505 14.618,35.509 L15.083,35.513 L15.101,36.250 L15.101,35.516 C15.352,35.516 15.588,35.419 15.769,35.249 C15.957,35.068 16.066,34.833 16.077,34.572 L16.303,28.721 C16.311,28.502 16.303,28.276 16.276,28.051 C16.250,27.828 16.204,27.615 16.143,27.407 L15.092,23.725 C15.002,23.418 14.970,23.096 15.000,22.776 C15.024,22.471 15.105,22.163 15.238,21.872 L18.066,15.864 C18.380,15.193 19.004,14.736 19.736,14.637 C19.767,14.634 19.982,14.619 20.015,14.619 C20.654,14.619 21.257,14.902 21.667,15.395 L23.951,18.120 C24.021,18.201 24.111,18.272 24.215,18.321 C24.310,18.365 24.421,18.388 24.528,18.388 L28.267,18.400 C28.497,18.400 28.709,18.313 28.868,18.156 C29.032,17.993 29.122,17.782 29.124,17.562 L29.133,17.041 C29.139,16.745 29.028,16.467 28.826,16.256 Z"/>
</svg>