<svg 
 xmlns="http://www.w3.org/2000/svg"
 xmlns:xlink="http://www.w3.org/1999/xlink"
 width="37px" height="38px">
<path fill-rule="evenodd"  fill="rgb(45, 154, 167)"
 d="M36.389,20.850 C35.480,22.258 33.687,23.236 32.245,22.437 L24.811,18.272 L24.811,21.629 L25.183,21.629 C25.667,21.629 26.055,21.994 26.055,22.443 L26.055,24.367 C26.055,24.374 26.050,24.380 26.050,24.387 L31.274,27.401 C32.042,27.841 32.588,28.578 32.753,29.411 C32.931,30.233 32.728,31.101 32.183,31.792 L29.051,35.755 C28.447,36.531 27.464,36.994 26.431,36.994 C25.733,36.994 25.067,36.789 24.501,36.403 C23.799,35.925 23.344,35.214 23.212,34.411 C23.080,33.605 23.295,32.804 23.811,32.155 L24.849,30.839 L23.141,29.853 L22.551,30.924 C22.402,31.194 22.105,31.367 21.774,31.367 L14.411,31.367 C14.047,31.367 13.725,31.160 13.593,30.844 L13.341,30.228 L11.630,31.216 L12.667,32.529 C13.184,33.181 13.394,33.987 13.266,34.789 C13.130,35.596 12.671,36.303 11.973,36.781 C11.415,37.163 10.746,37.372 10.047,37.372 C9.014,37.372 8.031,36.908 7.428,36.132 L4.292,32.171 C3.750,31.476 3.544,30.608 3.725,29.785 C3.895,28.949 4.436,28.220 5.209,27.776 L10.692,24.612 C10.788,24.557 10.892,24.526 10.999,24.508 L10.957,24.404 C10.919,24.312 10.899,24.212 10.899,24.113 L10.899,22.443 C10.899,21.994 11.291,21.629 11.770,21.629 L12.142,21.629 L12.142,18.312 L4.783,22.437 C3.337,23.232 1.540,22.261 0.639,20.848 C0.225,20.205 0.101,19.447 0.300,18.716 C0.494,17.981 0.990,17.367 1.680,16.982 L10.237,12.187 C10.655,11.960 11.188,12.078 11.432,12.466 C11.679,12.850 11.552,13.350 11.134,13.580 L2.577,18.376 C2.279,18.542 2.072,18.800 1.990,19.110 C1.907,19.420 1.957,19.740 2.130,20.012 C2.560,20.684 3.448,21.281 3.887,21.040 L12.568,16.179 C12.841,16.033 13.171,16.026 13.444,16.169 C13.717,16.313 13.886,16.584 13.886,16.878 L13.886,21.629 L23.068,21.629 L23.068,16.837 C23.068,16.543 23.237,16.273 23.509,16.129 C23.782,15.987 24.117,15.987 24.390,16.140 L33.137,21.043 C33.576,21.285 34.468,20.680 34.898,20.012 C35.071,19.740 35.121,19.418 35.038,19.110 C34.951,18.800 34.745,18.540 34.456,18.378 L25.799,13.531 C25.386,13.300 25.254,12.801 25.497,12.415 C25.745,12.031 26.286,11.913 26.696,12.135 L35.352,16.982 C36.042,17.367 36.530,17.981 36.724,18.713 C36.922,19.443 36.802,20.204 36.389,20.850 ZM10.791,26.471 L6.126,29.160 C5.762,29.364 5.510,29.705 5.432,30.098 C5.349,30.480 5.444,30.886 5.701,31.205 L8.828,35.168 C9.304,35.779 10.279,35.917 10.940,35.470 C11.271,35.246 11.481,34.922 11.543,34.547 C11.601,34.172 11.506,33.799 11.262,33.493 L9.671,31.472 C9.527,31.287 9.469,31.058 9.514,30.835 C9.560,30.611 9.705,30.414 9.911,30.295 L12.122,29.021 L10.791,26.471 ZM24.311,23.257 L23.939,23.257 L13.019,23.257 L12.642,23.257 L12.642,23.964 L15.010,29.740 L21.245,29.740 L24.311,24.169 L24.311,23.257 ZM24.357,28.644 L26.567,29.916 C26.774,30.036 26.919,30.233 26.964,30.457 C27.010,30.681 26.952,30.908 26.807,31.094 L25.212,33.115 C24.973,33.424 24.873,33.794 24.935,34.165 C24.993,34.539 25.208,34.867 25.534,35.090 C26.179,35.534 27.179,35.396 27.650,34.794 L30.782,30.823 C31.030,30.507 31.129,30.106 31.047,29.724 C30.968,29.326 30.716,28.991 30.361,28.787 L25.691,26.094 L24.357,28.644 ZM18.547,14.415 C14.287,14.415 10.824,11.178 10.824,7.202 C10.824,3.225 14.287,-0.010 18.547,-0.010 C22.803,-0.010 26.270,3.225 26.270,7.202 C26.270,11.178 22.803,14.415 18.547,14.415 ZM18.547,1.619 C15.250,1.619 12.568,4.122 12.568,7.202 C12.568,10.283 15.250,12.787 18.547,12.787 C21.844,12.787 24.526,10.283 24.526,7.202 C24.526,4.122 21.844,1.619 18.547,1.619 Z"/>
</svg>