<svg 
 xmlns="http://www.w3.org/2000/svg"
 xmlns:xlink="http://www.w3.org/1999/xlink"
 width="29px" height="38px">
<path fill-rule="evenodd"  fill="rgb(45, 154, 167)"
 d="M28.011,17.617 C28.000,18.229 27.771,18.807 27.361,19.239 C26.943,19.671 26.397,19.907 25.820,19.907 L22.284,19.898 C21.985,19.898 21.686,19.826 21.405,19.689 C21.120,19.550 20.880,19.352 20.684,19.103 L18.527,16.371 C18.401,16.213 18.216,16.122 18.020,16.122 C17.717,16.158 17.525,16.306 17.429,16.523 L14.758,22.538 C14.702,22.669 14.669,22.805 14.658,22.943 C14.647,23.090 14.662,23.226 14.699,23.365 L15.693,27.047 C15.770,27.329 15.829,27.625 15.859,27.926 C15.896,28.235 15.907,28.538 15.896,28.835 L15.681,34.691 C15.656,35.338 15.401,35.938 14.957,36.377 C14.532,36.810 13.975,37.049 13.387,37.049 C13.380,37.049 13.339,37.049 13.335,37.049 L12.899,37.041 C12.308,37.032 11.754,36.778 11.344,36.325 C10.933,35.873 10.712,35.279 10.723,34.653 L10.819,27.730 L9.408,22.311 L8.380,26.666 C8.299,27.026 8.181,27.392 8.037,27.749 C7.889,28.110 7.723,28.444 7.534,28.760 L4.423,33.939 C4.106,34.485 3.592,34.866 2.993,35.006 C2.410,35.140 1.785,35.025 1.279,34.681 C0.584,34.209 0.200,33.621 0.056,32.932 C-0.085,32.244 0.030,31.538 0.388,30.940 L3.537,25.696 L4.671,19.746 C4.726,19.439 4.800,19.136 4.896,18.834 C4.992,18.525 5.100,18.234 5.229,17.951 L9.311,8.753 C9.688,7.899 10.361,7.252 11.196,6.934 C12.020,6.622 12.940,6.668 13.731,7.066 L13.853,7.128 C13.623,6.528 13.490,5.874 13.490,5.187 C13.490,2.348 15.663,0.040 18.331,0.040 C20.995,0.040 23.167,2.348 23.167,5.187 C23.167,7.535 21.675,9.497 19.657,10.115 C19.657,10.115 19.657,10.115 19.657,10.115 C19.820,10.248 19.945,10.387 20.056,10.534 L22.583,13.877 C22.724,14.062 22.898,14.211 23.090,14.311 C23.293,14.414 23.507,14.466 23.721,14.469 L25.628,14.488 C26.271,14.493 26.877,14.765 27.331,15.262 C27.779,15.750 28.030,16.420 28.019,17.100 L28.011,17.617 ZM21.782,5.187 C21.782,3.159 20.234,1.511 18.331,1.511 C16.424,1.511 14.872,3.159 14.872,5.187 C14.872,7.215 16.424,8.865 18.331,8.865 C20.234,8.865 21.782,7.215 21.782,5.187 ZM26.345,16.288 C26.153,16.077 25.894,15.961 25.621,15.959 L23.714,15.940 C23.289,15.938 22.879,15.834 22.488,15.634 C22.118,15.443 21.774,15.155 21.505,14.801 L18.970,11.448 C18.918,11.379 18.866,11.324 18.807,11.272 C18.756,11.231 18.693,11.190 18.626,11.158 L13.140,8.396 C12.685,8.165 12.146,8.138 11.658,8.319 C11.174,8.505 10.782,8.883 10.560,9.383 L6.474,18.582 C6.370,18.812 6.285,19.051 6.204,19.297 C6.134,19.542 6.067,19.789 6.019,20.039 L4.863,26.123 C4.848,26.212 4.815,26.296 4.770,26.372 L1.553,31.730 C1.394,31.996 1.346,32.310 1.405,32.614 C1.471,32.921 1.641,33.183 1.888,33.352 C2.277,33.613 2.469,33.619 2.698,33.570 C2.934,33.514 3.130,33.368 3.259,33.152 L6.370,27.972 C6.518,27.720 6.651,27.453 6.770,27.167 C6.881,26.892 6.969,26.605 7.039,26.316 L8.144,21.548 C8.248,21.115 8.521,20.753 8.905,20.555 C9.104,20.455 9.308,20.407 9.515,20.407 C9.722,20.407 9.929,20.456 10.113,20.550 C10.298,20.641 10.453,20.824 10.509,21.030 L12.175,27.438 C12.194,27.506 12.201,27.576 12.201,27.645 L12.105,34.677 C12.101,34.913 12.182,35.134 12.338,35.302 C12.493,35.472 12.700,35.566 12.918,35.571 L13.361,35.577 L13.387,36.314 L13.387,35.577 C13.616,35.577 13.838,35.484 14.011,35.310 C14.189,35.131 14.292,34.892 14.300,34.631 L14.514,28.772 C14.525,28.550 14.514,28.326 14.492,28.102 C14.466,27.881 14.418,27.662 14.366,27.453 L13.372,23.772 C13.287,23.463 13.258,23.145 13.283,22.826 C13.302,22.519 13.380,22.212 13.509,21.916 L16.184,15.893 C16.483,15.223 17.071,14.765 17.758,14.667 C17.788,14.663 17.987,14.649 18.020,14.649 C18.623,14.649 19.192,14.932 19.583,15.421 L21.741,18.156 C21.811,18.241 21.889,18.308 21.985,18.354 C22.081,18.401 22.185,18.426 22.284,18.426 L25.816,18.437 C26.035,18.437 26.238,18.347 26.389,18.189 C26.541,18.032 26.626,17.819 26.629,17.595 L26.637,17.077 C26.640,16.783 26.537,16.497 26.345,16.288 ZM23.677,21.152 C24.719,21.152 25.539,21.516 26.116,22.236 C27.228,23.620 26.918,25.805 26.903,25.895 L26.914,36.314 C26.914,36.721 26.603,37.049 26.223,37.049 C25.842,37.049 25.532,36.721 25.532,36.314 L25.532,25.781 C25.606,25.222 25.643,23.904 25.063,23.188 C24.760,22.808 24.301,22.623 23.677,22.623 C23.127,22.623 22.739,22.779 22.491,23.099 C22.015,23.711 22.092,24.850 22.162,25.236 C22.236,25.636 21.989,26.020 21.615,26.097 C21.257,26.176 20.880,25.918 20.806,25.521 C20.770,25.310 20.452,23.426 21.420,22.168 C21.778,21.705 22.458,21.152 23.677,21.152 Z"/>
</svg>