<svg 
 xmlns="http://www.w3.org/2000/svg"
 xmlns:xlink="http://www.w3.org/1999/xlink"
 width="32px" height="37px">
<path fill-rule="evenodd"  fill="rgb(45, 154, 167)"
 d="M31.123,35.868 C30.652,36.321 30.030,36.570 29.371,36.570 L2.405,36.570 C1.761,36.570 1.153,36.327 0.696,35.887 C0.236,35.447 -0.015,34.860 -0.015,34.236 L-0.015,7.513 C-0.015,6.890 0.238,6.304 0.696,5.866 C1.149,5.427 1.755,5.184 2.399,5.184 L4.445,5.184 C4.950,5.184 5.362,5.583 5.362,6.069 C5.362,6.556 4.950,6.953 4.445,6.953 L2.399,6.953 C2.245,6.953 2.100,7.011 1.989,7.118 C1.878,7.225 1.819,7.364 1.819,7.513 L1.819,34.236 C1.819,34.388 1.878,34.529 1.989,34.637 C2.100,34.741 2.249,34.801 2.405,34.801 L29.371,34.801 C29.543,34.801 29.705,34.736 29.828,34.619 C29.947,34.503 30.014,34.345 30.014,34.180 L30.014,7.518 C30.014,7.369 29.955,7.229 29.846,7.123 C29.729,7.011 29.584,6.953 29.430,6.953 L27.198,6.953 C26.693,6.953 26.281,6.556 26.281,6.069 C26.281,5.583 26.693,5.184 27.198,5.184 L29.430,5.184 C30.076,5.184 30.683,5.427 31.139,5.872 C31.594,6.304 31.848,6.890 31.848,7.518 L31.848,34.180 C31.848,34.816 31.590,35.416 31.123,35.868 ZM26.586,29.464 C26.586,30.756 25.499,31.807 24.160,31.807 L7.679,31.807 C6.340,31.807 5.251,30.756 5.251,29.464 L5.251,16.076 C5.251,14.784 6.340,13.733 7.679,13.733 L24.160,13.733 C25.499,13.733 26.586,14.784 26.586,16.076 L26.586,29.464 ZM25.199,16.076 C25.199,15.521 24.732,15.071 24.160,15.071 L7.679,15.071 C7.104,15.071 6.637,15.521 6.637,16.076 L6.637,29.464 C6.637,30.018 7.104,30.469 7.679,30.469 L24.160,30.469 C24.732,30.469 25.199,30.018 25.199,29.464 L25.199,16.076 ZM20.353,23.440 L16.547,23.440 L16.547,27.112 C16.547,27.483 16.236,27.781 15.854,27.781 C15.472,27.781 15.161,27.483 15.161,27.112 L15.161,23.440 L11.357,23.440 C10.972,23.440 10.663,23.139 10.663,22.771 C10.663,22.403 10.972,22.103 11.357,22.103 L15.161,22.103 L15.161,18.427 C15.161,18.057 15.472,17.759 15.854,17.759 C16.236,17.759 16.547,18.057 16.547,18.427 L16.547,22.103 L20.353,22.103 C20.738,22.103 21.047,22.403 21.047,22.771 C21.047,23.139 20.738,23.440 20.353,23.440 ZM24.505,10.753 L7.326,10.753 C7.114,10.753 6.914,10.664 6.774,10.511 C6.635,10.356 6.572,10.152 6.599,9.952 L7.330,4.723 C7.380,4.373 7.691,4.111 8.057,4.111 L11.875,4.111 C11.994,2.058 13.760,0.424 15.915,0.424 C18.072,0.424 19.839,2.058 19.960,4.111 L23.778,4.111 C24.144,4.111 24.455,4.373 24.505,4.723 L25.231,9.952 C25.259,10.154 25.196,10.356 25.057,10.511 C24.916,10.664 24.716,10.753 24.505,10.753 ZM23.136,5.524 L19.227,5.524 C18.823,5.524 18.494,5.206 18.494,4.818 C18.494,4.754 18.506,4.677 18.522,4.615 L18.500,4.332 C18.500,2.957 17.341,1.838 15.915,1.838 C14.493,1.838 13.335,2.957 13.335,4.332 L13.335,4.782 C13.335,5.173 13.012,5.524 12.608,5.524 L8.699,5.524 L8.164,9.338 L23.667,9.338 L23.136,5.524 ZM15.854,3.119 C16.486,3.119 16.999,3.615 16.999,4.225 C16.999,4.835 16.486,5.330 15.854,5.330 C15.222,5.330 14.709,4.835 14.709,4.225 C14.709,3.615 15.222,3.119 15.854,3.119 Z"/>
</svg>