<svg 
 xmlns="http://www.w3.org/2000/svg"
 xmlns:xlink="http://www.w3.org/1999/xlink"
 width="14px" height="15px">
<path fill-rule="evenodd"  fill="rgb(45, 154, 167)"
 d="M12.531,0.905 L1.466,0.905 C0.705,0.905 0.082,1.527 0.082,2.288 L0.082,13.354 C0.082,14.115 0.705,14.736 1.466,14.736 L12.531,14.736 C13.292,14.736 13.915,14.115 13.915,13.354 L13.915,2.288 C13.915,1.527 13.292,0.905 12.531,0.905 ZM6.999,5.055 C8.520,5.055 9.765,6.300 9.765,7.822 C9.765,9.342 8.520,10.587 6.999,10.587 C5.477,10.587 4.232,9.342 4.232,7.822 C4.232,6.300 5.477,5.055 6.999,5.055 ZM1.811,13.354 C1.604,13.354 1.466,13.216 1.466,13.008 L1.466,7.129 L2.918,7.129 C2.849,7.336 2.849,7.614 2.849,7.822 C2.849,10.103 4.716,11.971 6.999,11.971 C9.281,11.971 11.148,10.103 11.148,7.822 C11.148,7.614 11.148,7.336 11.079,7.129 L12.531,7.129 L12.531,13.008 C12.531,13.216 12.393,13.354 12.186,13.354 L1.811,13.354 ZM12.531,4.017 C12.531,4.226 12.393,4.362 12.186,4.362 L10.802,4.362 C10.595,4.362 10.457,4.226 10.457,4.017 L10.457,2.633 C10.457,2.426 10.595,2.288 10.802,2.288 L12.186,2.288 C12.393,2.288 12.531,2.426 12.531,2.633 L12.531,4.017 Z"/>
</svg>