<svg 
 xmlns="http://www.w3.org/2000/svg"
 xmlns:xlink="http://www.w3.org/1999/xlink"
 width="59px" height="50px">
<path fill-rule="evenodd"  fill="rgb(45, 154, 167)"
 d="M57.016,47.976 C55.693,49.300 54.086,49.961 52.194,49.961 L38.578,49.961 C36.686,49.961 35.079,49.300 33.756,47.976 C32.432,46.651 31.770,45.045 31.770,43.153 L31.770,18.190 C31.770,15.732 32.249,13.385 33.206,11.151 C34.164,8.917 35.458,6.985 37.089,5.354 C38.721,3.723 40.653,2.429 42.886,1.471 C45.121,0.515 47.466,0.035 49.926,0.035 L52.195,0.035 C52.809,0.035 53.341,0.260 53.790,0.710 C54.240,1.158 54.464,1.690 54.464,2.305 L54.464,6.844 C54.464,7.458 54.240,7.991 53.790,8.440 C53.341,8.888 52.809,9.113 52.195,9.113 L49.926,9.113 C47.420,9.113 45.280,10.000 43.507,11.772 C41.735,13.545 40.849,15.683 40.849,18.190 L40.849,19.324 C40.849,20.270 41.179,21.074 41.841,21.736 C42.502,22.399 43.307,22.729 44.252,22.729 L52.195,22.729 C54.086,22.729 55.693,23.391 57.017,24.714 C58.340,26.039 59.002,27.646 59.002,29.538 L59.002,43.153 C59.002,45.045 58.340,46.651 57.016,47.976 ZM20.423,49.961 L6.806,49.961 C4.915,49.961 3.307,49.300 1.983,47.976 C0.660,46.651 -0.002,45.045 -0.002,43.153 L-0.002,18.190 C-0.002,15.732 0.477,13.385 1.434,11.151 C2.392,8.917 3.686,6.985 5.317,5.354 C6.948,3.723 8.881,2.429 11.115,1.471 C13.349,0.515 15.694,0.035 18.153,0.035 L20.422,0.035 C21.037,0.035 21.569,0.260 22.018,0.710 C22.467,1.158 22.691,1.690 22.691,2.305 L22.691,6.844 C22.691,7.458 22.467,7.991 22.018,8.440 C21.569,8.888 21.037,9.113 20.422,9.113 L18.153,9.113 C15.647,9.113 13.508,10.000 11.735,11.772 C9.962,13.545 9.075,15.683 9.075,18.190 L9.075,19.324 C9.075,20.270 9.406,21.074 10.068,21.736 C10.730,22.399 11.534,22.729 12.479,22.729 L20.422,22.729 C22.313,22.729 23.921,23.391 25.245,24.714 C26.569,26.039 27.231,27.646 27.231,29.538 L27.231,43.153 C27.231,45.045 26.569,46.651 25.245,47.976 C23.921,49.300 22.314,49.961 20.423,49.961 Z"/>
</svg>