<svg 
 xmlns="http://www.w3.org/2000/svg"
 xmlns:xlink="http://www.w3.org/1999/xlink"
 width="59px" height="50px">
<path fill-rule="evenodd"  fill="rgb(45, 154, 167)"
 d="M57.565,38.863 C56.608,41.100 55.314,43.034 53.683,44.667 C52.052,46.300 50.119,47.596 47.885,48.554 C45.651,49.513 43.306,49.993 40.847,49.993 L38.578,49.993 C37.963,49.993 37.431,49.767 36.982,49.318 C36.533,48.868 36.308,48.335 36.308,47.720 L36.308,43.175 C36.308,42.560 36.533,42.028 36.982,41.578 C37.431,41.128 37.963,40.903 38.578,40.903 L40.847,40.903 C43.352,40.903 45.492,40.016 47.265,38.240 C49.038,36.465 49.925,34.324 49.925,31.814 L49.925,30.679 C49.925,29.732 49.594,28.928 48.932,28.265 C48.270,27.601 47.466,27.270 46.520,27.270 L38.578,27.270 C36.687,27.270 35.079,26.608 33.755,25.282 C32.431,23.957 31.769,22.348 31.769,20.454 L31.769,6.820 C31.769,4.927 32.431,3.317 33.754,1.992 C35.078,0.667 36.686,0.003 38.577,0.003 L52.194,0.003 C54.085,0.003 55.692,0.667 57.016,1.992 C58.340,3.317 59.002,4.927 59.002,6.820 L59.002,31.814 C59.002,34.276 58.523,36.626 57.565,38.863 ZM21.910,44.667 C20.279,46.300 18.347,47.596 16.114,48.554 C13.879,49.513 11.534,49.993 9.074,49.993 L6.805,49.993 C6.191,49.993 5.659,49.767 5.210,49.318 C4.760,48.868 4.536,48.335 4.536,47.720 L4.536,43.175 C4.536,42.560 4.760,42.028 5.210,41.578 C5.659,41.128 6.191,40.903 6.805,40.903 L9.074,40.903 C11.580,40.903 13.720,40.016 15.493,38.240 C17.265,36.465 18.151,34.324 18.151,31.814 L18.151,30.679 C18.151,29.732 17.820,28.928 17.159,28.265 C16.497,27.601 15.693,27.270 14.748,27.270 L6.805,27.270 C4.913,27.270 3.306,26.608 1.983,25.282 C0.659,23.957 -0.002,22.348 -0.002,20.454 L-0.002,6.820 C-0.002,4.927 0.659,3.317 1.984,1.992 C3.307,0.667 4.914,0.003 6.806,0.003 L20.422,0.003 C22.313,0.003 23.921,0.667 25.244,1.992 C26.568,3.317 27.230,4.927 27.230,6.820 L27.230,31.814 C27.230,34.276 26.751,36.626 25.794,38.863 C24.836,41.100 23.542,43.034 21.910,44.667 Z"/>
</svg>