<svg 
 xmlns="http://www.w3.org/2000/svg"
 xmlns:xlink="http://www.w3.org/1999/xlink"
 width="121px" height="90px">
<path fill-rule="evenodd"  fill="rgb(208, 239, 239)"
 d="M50.373,7.685 L37.331,16.575 C37.408,16.290 37.484,16.007 37.561,15.720 C37.653,15.373 37.716,15.135 37.750,15.016 C38.049,13.938 36.511,12.212 34.811,11.715 C33.952,11.465 31.805,11.195 30.415,14.082 C29.436,16.118 27.677,20.175 26.086,23.912 C25.632,25.496 21.001,34.391 19.802,36.106 C17.417,38.836 13.307,42.502 6.587,45.807 C6.581,45.809 6.572,45.814 6.566,45.817 C7.940,39.738 10.588,28.199 11.844,23.950 C13.583,18.068 44.201,-0.425 50.871,0.985 C57.540,2.395 51.003,7.010 50.373,7.685 ZM23.491,32.231 C23.491,32.231 29.104,18.734 31.200,14.378 C33.296,10.020 37.199,13.838 36.920,14.840 C36.642,15.843 34.178,25.363 30.947,35.298 C32.207,53.476 16.561,56.913 16.561,56.913 C14.683,57.314 10.920,56.770 8.268,56.160 C2.471,54.826 -0.192,52.978 0.395,51.202 C0.982,49.425 5.293,47.222 6.970,46.488 C20.153,40.011 23.491,32.231 23.491,32.231 Z"/>
<path fill-rule="evenodd"  fill="rgb(45, 154, 167)"
 d="M120.638,39.059 C120.050,40.827 115.738,43.020 114.061,43.749 C100.876,50.196 97.535,57.937 97.535,57.937 C97.535,57.937 91.917,71.362 89.820,75.697 C87.722,80.031 83.821,76.234 84.100,75.238 C84.379,74.242 86.846,64.771 90.081,54.889 C88.828,36.808 104.474,33.385 104.474,33.385 C106.353,32.985 110.115,33.525 112.767,34.131 C118.563,35.458 121.225,37.292 120.638,39.059 ZM86.208,78.345 C87.067,78.594 89.214,78.862 90.604,75.991 C91.585,73.963 93.344,69.927 94.937,66.211 C95.391,64.636 100.026,55.787 101.225,54.080 C103.612,51.364 107.723,47.716 114.444,44.427 C114.450,44.424 114.459,44.421 114.465,44.417 C113.088,50.466 110.436,61.942 109.179,66.168 C107.438,72.019 76.813,90.424 70.145,89.025 C63.476,87.624 70.014,83.032 70.645,82.360 L83.690,73.514 C83.613,73.796 83.536,74.079 83.460,74.364 C83.367,74.708 83.304,74.945 83.270,75.064 C82.971,76.135 84.509,77.853 86.208,78.345 Z"/>
<path fill-rule="evenodd"  fill="rgb(45, 154, 167)"
 d="M91.495,23.349 C85.585,24.906 77.713,26.643 75.471,32.651 C73.551,37.795 76.281,44.784 77.538,49.849 C77.853,51.113 76.863,51.758 75.886,51.553 C75.182,51.407 74.418,51.312 73.362,51.096 C72.032,50.823 71.840,51.355 72.061,52.876 C72.315,54.632 73.085,59.053 73.546,62.397 C74.033,65.931 73.469,66.848 72.414,67.630 C70.416,69.113 69.599,67.994 70.883,66.649 C71.234,66.281 71.622,65.666 71.329,63.777 C71.037,61.886 69.864,55.842 69.373,53.427 C68.962,51.399 68.795,50.423 66.703,49.783 C65.129,49.301 62.208,48.365 61.265,47.875 C60.326,47.388 60.007,46.668 60.543,45.337 C61.137,43.867 63.296,40.551 65.641,34.529 C66.708,31.789 68.004,27.794 67.239,24.090 C66.409,20.067 63.577,16.443 61.233,14.748 C59.399,13.423 60.092,12.452 62.108,13.481 C67.560,16.267 68.961,25.275 73.061,26.424 C75.812,27.196 78.952,25.314 81.516,24.359 C84.801,23.133 88.493,22.265 90.435,21.943 C93.254,21.475 94.263,22.620 91.495,23.349 ZM74.839,23.350 C72.938,23.482 71.287,22.157 71.166,20.402 C71.044,18.646 72.495,17.105 74.397,16.974 C76.298,16.841 77.948,18.167 78.070,19.922 C78.192,21.678 76.741,23.218 74.839,23.350 ZM63.349,49.772 C64.210,50.899 66.367,57.394 67.151,60.467 C67.919,63.476 66.169,63.194 65.091,60.746 C64.065,58.411 61.628,52.157 61.154,50.105 C60.782,48.496 62.628,48.829 63.349,49.772 Z"/>
<path fill-rule="evenodd"  fill="rgb(208, 239, 239)"
 d="M63.482,27.226 C61.404,32.793 58.165,38.345 57.322,44.010 C56.033,52.691 60.529,55.930 62.750,63.498 C63.542,66.204 62.130,66.992 60.689,64.390 C59.193,61.691 56.781,54.804 53.433,55.089 C50.432,55.345 48.372,62.223 46.682,65.554 C45.525,67.834 43.545,67.689 44.534,64.869 C46.282,59.888 49.959,52.954 48.399,48.523 C47.663,46.432 45.781,44.338 42.393,40.941 C41.726,40.274 40.843,37.645 42.309,38.011 C45.320,38.764 48.593,40.007 51.730,39.044 C57.136,37.387 58.978,30.536 61.782,26.100 C63.147,23.942 64.166,25.396 63.482,27.226 ZM49.633,36.190 C47.379,36.346 45.421,34.743 45.274,32.620 C45.126,30.498 46.844,28.639 49.098,28.482 C51.352,28.327 53.311,29.930 53.458,32.052 C53.606,34.174 51.887,36.034 49.633,36.190 Z"/>
</svg>