<svg 
 xmlns="http://www.w3.org/2000/svg"
 xmlns:xlink="http://www.w3.org/1999/xlink"
 width="14px" height="19px">
<path fill-rule="evenodd"  fill="rgb(45, 154, 167)"
 d="M12.659,11.016 C11.213,12.463 9.379,13.287 7.488,13.503 L10.803,16.821 C11.258,17.275 11.258,18.011 10.803,18.466 C10.577,18.693 10.279,18.807 9.981,18.807 C9.684,18.807 9.386,18.693 9.159,18.466 L6.493,15.799 L3.827,18.466 C3.372,18.922 2.638,18.922 2.183,18.466 C1.728,18.011 1.728,17.275 2.183,16.821 L5.498,13.503 C3.607,13.287 1.774,12.463 0.327,11.016 C-0.127,10.559 -0.127,9.824 0.327,9.368 C0.782,8.914 1.517,8.914 1.971,9.368 C4.465,11.863 8.523,11.863 11.016,9.368 C11.471,8.914 12.206,8.914 12.660,9.368 C13.114,9.824 13.114,10.560 12.659,11.016 ZM6.493,9.497 C3.928,9.497 1.842,7.409 1.842,4.843 C1.842,2.275 3.928,0.187 6.493,0.187 C9.058,0.187 11.144,2.275 11.144,4.843 C11.144,7.409 9.058,9.497 6.493,9.497 ZM6.493,2.515 C5.211,2.515 4.168,3.559 4.168,4.843 C4.168,6.126 5.211,7.170 6.493,7.170 C7.776,7.170 8.819,6.126 8.819,4.843 C8.819,3.559 7.776,2.515 6.493,2.515 Z"/>
</svg>