<svg 
 xmlns="http://www.w3.org/2000/svg"
 xmlns:xlink="http://www.w3.org/1999/xlink"
 width="40px" height="40px">
<path fill-rule="evenodd"  fill="rgb(45, 154, 167)"
 d="M33.954,33.713 C30.225,37.441 25.267,39.497 19.989,39.497 C14.712,39.497 9.754,37.441 6.025,33.713 C2.296,29.984 0.239,25.026 0.239,19.749 C0.239,19.208 0.682,18.764 1.223,18.764 C1.763,18.764 2.206,19.208 2.206,19.749 C2.206,29.558 10.180,37.532 19.989,37.532 C29.799,37.532 37.772,29.558 37.772,19.749 C37.772,9.939 29.799,1.965 19.989,1.965 C19.448,1.965 19.006,1.523 19.006,0.981 C19.006,0.441 19.448,-0.002 19.989,-0.002 C25.267,-0.002 30.225,2.055 33.954,5.784 C37.682,9.512 39.739,14.470 39.739,19.749 C39.739,25.026 37.682,29.984 33.954,33.713 ZM25.800,15.429 C26.185,15.814 26.185,16.438 25.800,16.822 L18.547,24.075 C18.350,24.264 18.104,24.363 17.850,24.363 C17.596,24.363 17.342,24.264 17.154,24.075 L14.171,21.108 C13.786,20.723 13.786,20.101 14.171,19.716 C14.556,19.330 15.179,19.330 15.564,19.716 L17.842,21.993 L24.406,15.429 C24.792,15.045 25.414,15.045 25.800,15.429 ZM16.506,2.310 C16.441,2.317 16.383,2.325 16.318,2.325 C15.859,2.325 15.449,1.998 15.351,1.539 C15.244,1.006 15.589,0.490 16.121,0.383 C16.654,0.277 17.170,0.621 17.277,1.154 C17.383,1.687 17.039,2.203 16.506,2.310 ZM13.179,3.318 C13.056,3.366 12.925,3.390 12.802,3.390 C12.417,3.390 12.048,3.162 11.893,2.785 C11.688,2.285 11.925,1.703 12.425,1.498 C12.925,1.293 13.507,1.530 13.712,2.031 C13.917,2.531 13.679,3.113 13.179,3.318 ZM9.565,5.128 C9.246,5.128 8.934,4.973 8.746,4.686 C8.442,4.235 8.565,3.628 9.016,3.326 C9.475,3.022 10.081,3.145 10.385,3.596 C10.688,4.046 10.565,4.661 10.114,4.964 C9.942,5.070 9.754,5.128 9.565,5.128 ZM6.721,7.464 C6.467,7.464 6.213,7.366 6.025,7.177 C5.640,6.792 5.640,6.170 6.025,5.784 C6.410,5.398 7.033,5.398 7.418,5.784 C7.803,6.170 7.803,6.792 7.418,7.177 C7.230,7.366 6.975,7.464 6.721,7.464 ZM4.386,10.299 C4.197,10.299 4.001,10.249 3.837,10.135 C3.386,9.833 3.263,9.226 3.566,8.774 C3.870,8.324 4.484,8.201 4.935,8.505 C5.386,8.799 5.509,9.415 5.205,9.865 C5.017,10.144 4.706,10.299 4.386,10.299 ZM3.558,12.938 C3.403,13.315 3.034,13.545 2.649,13.545 C2.526,13.545 2.395,13.519 2.272,13.471 C1.772,13.266 1.534,12.693 1.739,12.185 C1.952,11.685 2.526,11.438 3.026,11.651 C3.525,11.865 3.763,12.438 3.558,12.938 ZM2.542,16.273 C2.444,16.741 2.034,17.068 1.575,17.068 C1.518,17.068 1.452,17.060 1.387,17.052 C0.854,16.946 0.510,16.429 0.616,15.888 C0.723,15.355 1.239,15.011 1.772,15.118 C2.304,15.225 2.649,15.741 2.542,16.273 Z"/>
</svg>