<svg 
 xmlns="http://www.w3.org/2000/svg"
 xmlns:xlink="http://www.w3.org/1999/xlink"
 width="35px" height="31px">
<path fill-rule="evenodd"  fill="rgb(45, 154, 167)"
 d="M33.332,4.021 C33.330,4.021 33.328,4.021 33.325,4.021 L24.206,4.021 L24.206,3.015 C24.206,1.352 22.853,-0.002 21.189,-0.002 L13.142,-0.002 C11.479,-0.002 10.125,1.352 10.125,3.015 L10.125,4.021 L1.006,4.021 C0.446,4.021 -0.000,4.480 -0.000,5.026 L-0.000,27.154 C-0.000,28.819 1.354,30.172 3.017,30.172 L31.314,30.172 C32.978,30.172 34.331,28.819 34.331,27.154 L34.331,5.048 C34.331,5.047 34.331,5.045 34.331,5.045 C34.293,4.384 33.887,4.025 33.332,4.021 ZM12.137,3.015 C12.137,2.461 12.588,2.010 13.142,2.010 L21.189,2.010 C21.743,2.010 22.195,2.461 22.195,3.015 L22.195,4.021 L12.137,4.021 L12.137,3.015 ZM31.930,6.032 L28.806,15.404 C28.669,15.814 28.286,16.090 27.853,16.090 L22.195,16.090 L22.195,15.085 C22.195,14.529 21.744,14.079 21.189,14.079 L13.142,14.079 C12.587,14.079 12.137,14.529 12.137,15.085 L12.137,16.090 L6.479,16.090 C6.045,16.090 5.662,15.814 5.525,15.404 L2.401,6.032 L31.930,6.032 ZM20.183,16.090 L20.183,18.102 L14.148,18.102 L14.148,16.090 L20.183,16.090 ZM32.320,27.154 C32.320,27.709 31.868,28.159 31.314,28.159 L3.017,28.159 C2.463,28.159 2.012,27.709 2.012,27.154 L2.012,11.225 L3.616,16.039 C4.028,17.273 5.178,18.102 6.479,18.102 L12.137,18.102 L12.137,19.108 C12.137,19.663 12.587,20.114 13.142,20.114 L21.189,20.114 C21.744,20.114 22.195,19.663 22.195,19.108 L22.195,18.102 L27.853,18.102 C29.153,18.102 30.304,17.273 30.715,16.039 L32.320,11.225 L32.320,27.154 Z"/>
</svg>