<svg 
 xmlns="http://www.w3.org/2000/svg"
 xmlns:xlink="http://www.w3.org/1999/xlink"
 width="42px" height="36px">
<path fill-rule="evenodd"  fill="rgb(45, 154, 167)"
 d="M40.644,13.472 L37.351,16.758 L32.616,21.482 L33.910,22.773 C35.034,23.895 35.034,25.719 33.910,26.842 C33.379,27.373 32.689,27.648 31.991,27.676 C31.962,28.373 31.686,29.060 31.154,29.592 C30.622,30.122 29.933,30.399 29.235,30.428 C29.206,31.124 28.929,31.812 28.398,32.342 C27.882,32.856 27.204,33.150 26.480,33.179 C26.450,33.901 26.157,34.577 25.641,35.092 C25.097,35.635 24.373,35.934 23.603,35.934 C22.833,35.934 22.109,35.635 21.565,35.092 L18.048,31.584 L16.580,33.048 C16.084,33.543 15.433,33.790 14.781,33.790 C14.130,33.790 13.478,33.543 12.982,33.048 L12.503,32.570 C12.083,32.150 11.828,31.610 11.771,31.029 C11.187,30.971 10.646,30.717 10.226,30.297 L9.747,29.819 C9.326,29.400 9.071,28.858 9.014,28.277 C8.450,28.220 7.901,27.977 7.470,27.547 L6.991,27.069 C6.571,26.650 6.316,26.110 6.258,25.528 C5.674,25.470 5.133,25.216 4.713,24.797 L4.234,24.319 C3.754,23.839 3.489,23.201 3.489,22.523 C3.489,21.845 3.754,21.207 4.234,20.729 L5.702,19.264 L3.040,16.608 L0.593,14.166 C0.229,13.802 0.229,13.213 0.593,12.849 C0.958,12.485 1.549,12.485 1.914,12.849 L4.360,15.290 L22.885,33.774 C23.281,34.169 23.925,34.169 24.321,33.774 C24.717,33.379 24.717,32.737 24.321,32.342 L19.085,27.118 C18.721,26.755 18.721,26.164 19.085,25.799 C19.450,25.436 20.041,25.436 20.406,25.799 L25.641,31.024 C25.833,31.215 26.088,31.321 26.359,31.321 C26.630,31.321 26.885,31.215 27.077,31.024 C27.473,30.629 27.473,29.986 27.077,29.592 L21.841,24.367 C21.477,24.003 21.477,23.414 21.841,23.050 C22.206,22.685 22.797,22.685 23.162,23.050 L28.398,28.275 C28.793,28.669 29.437,28.669 29.833,28.275 C30.025,28.082 30.130,27.828 30.130,27.558 C30.130,27.288 30.025,27.033 29.833,26.842 L24.597,21.617 C24.233,21.254 24.233,20.663 24.597,20.300 C24.962,19.936 25.553,19.936 25.918,20.300 L31.154,25.523 C31.550,25.918 32.194,25.918 32.589,25.523 C32.985,25.129 32.985,24.486 32.589,24.091 L30.635,22.141 L19.850,11.379 L15.720,11.019 L15.461,12.305 C14.992,14.627 12.717,16.134 10.390,15.666 C8.064,15.200 6.552,12.930 7.021,10.608 L7.446,8.505 C8.281,4.372 12.324,1.688 16.465,2.508 C16.465,2.508 16.466,2.508 16.467,2.508 L25.676,4.152 C25.811,3.774 26.027,3.419 26.330,3.116 L28.298,1.153 C28.828,0.623 29.533,0.333 30.283,0.333 C31.033,0.333 31.738,0.623 32.268,1.153 L40.644,9.510 C41.738,10.601 41.738,12.379 40.644,13.472 ZM6.931,20.672 L5.555,22.046 C5.291,22.310 5.291,22.738 5.555,23.000 L6.034,23.479 C6.298,23.741 6.727,23.741 6.991,23.479 L8.367,22.106 L6.931,20.672 ZM9.687,23.423 L8.311,24.797 C8.047,25.060 8.047,25.487 8.311,25.751 L8.790,26.229 C9.054,26.493 9.483,26.493 9.747,26.229 L11.123,24.856 L9.687,23.423 ZM12.444,26.174 L11.067,27.547 C10.940,27.675 10.869,27.844 10.869,28.025 C10.869,28.204 10.940,28.374 11.067,28.502 L11.546,28.979 C11.810,29.243 12.239,29.243 12.503,28.979 L13.879,27.606 L12.444,26.174 ZM15.200,28.924 L13.824,30.297 C13.560,30.561 13.560,30.989 13.824,31.252 L14.303,31.730 C14.566,31.993 14.996,31.994 15.259,31.730 L16.636,30.356 L15.200,28.924 ZM25.213,5.963 L16.138,4.342 C16.131,4.341 16.124,4.339 16.118,4.338 C12.977,3.705 9.910,5.740 9.277,8.873 L8.852,10.976 C8.724,11.612 8.851,12.260 9.212,12.802 C9.572,13.343 10.122,13.712 10.760,13.840 C12.077,14.105 13.364,13.251 13.630,11.937 L14.055,9.834 C14.143,9.397 14.529,9.087 14.969,9.087 C14.996,9.087 15.024,9.088 15.051,9.091 L20.352,9.552 C20.570,9.571 20.775,9.667 20.931,9.822 L31.295,20.164 L35.370,16.099 L26.330,7.077 L25.213,5.963 ZM39.323,10.827 L30.948,2.470 C30.770,2.293 30.534,2.196 30.283,2.196 C30.032,2.196 29.796,2.293 29.619,2.470 L27.650,4.434 C27.473,4.611 27.375,4.847 27.375,5.097 C27.375,5.348 27.473,5.582 27.650,5.760 L36.690,14.781 L39.323,12.155 C39.500,11.977 39.598,11.741 39.598,11.491 C39.598,11.240 39.500,11.005 39.323,10.827 ZM37.062,12.793 C36.547,12.793 36.129,12.375 36.129,11.861 C36.129,11.346 36.547,10.928 37.062,10.928 C37.578,10.928 37.996,11.346 37.996,11.861 C37.996,12.375 37.578,12.793 37.062,12.793 Z"/>
</svg>