<svg 
 xmlns="http://www.w3.org/2000/svg"
 xmlns:xlink="http://www.w3.org/1999/xlink"
 width="43px" height="38px">
<path fill-rule="evenodd"  fill="rgb(45, 154, 167)"
 d="M40.123,30.044 L24.892,36.745 C23.531,37.364 22.083,37.677 20.588,37.677 C18.703,37.677 16.852,37.164 15.235,36.195 L10.967,33.637 C10.295,33.233 9.227,32.961 8.303,32.847 C7.949,33.763 7.058,34.415 6.018,34.415 L1.122,34.415 C0.671,34.415 0.306,34.050 0.306,33.599 L0.306,18.924 C0.306,18.473 0.671,18.108 1.122,18.108 L6.018,18.108 C7.082,18.108 7.989,18.790 8.326,19.738 L14.111,19.738 C15.091,19.738 16.060,19.993 16.912,20.472 L21.224,22.895 C21.346,22.964 21.484,23.000 21.624,23.000 L26.909,23.000 C28.709,23.000 30.173,24.464 30.173,26.261 C30.173,26.458 30.154,26.650 30.120,26.840 L37.813,24.197 C39.309,23.660 40.970,24.244 41.679,25.556 C42.643,27.338 41.810,29.361 40.123,30.044 ZM6.834,20.555 C6.834,20.105 6.468,19.738 6.018,19.738 L1.938,19.738 L1.938,32.785 L6.018,32.785 C6.467,32.785 6.832,32.421 6.834,31.973 L6.834,20.555 ZM40.243,26.331 C39.919,25.732 39.092,25.470 38.361,25.734 C38.357,25.735 28.439,29.141 28.439,29.141 C27.971,29.390 27.444,29.523 26.909,29.523 L18.613,29.523 C18.162,29.523 17.797,29.158 17.797,28.708 C17.797,28.257 18.162,27.893 18.613,27.893 L26.909,27.893 C27.808,27.893 28.541,27.158 28.541,26.261 C28.541,25.362 27.809,24.631 26.909,24.631 L21.624,24.631 C21.204,24.631 20.788,24.523 20.423,24.316 L16.112,21.894 C15.502,21.550 14.811,21.369 14.111,21.369 L8.466,21.369 L8.466,31.223 C9.585,31.356 10.893,31.691 11.807,32.238 L16.075,34.797 C17.438,35.614 18.998,36.046 20.588,36.046 C21.850,36.046 23.072,35.781 24.221,35.259 C24.224,35.258 39.478,28.546 39.478,28.546 C39.486,28.543 39.495,28.539 39.503,28.536 C40.327,28.208 40.729,27.230 40.243,26.331 ZM4.386,23.001 C3.936,23.001 3.570,22.635 3.570,22.184 C3.570,21.734 3.936,21.369 4.386,21.369 C4.836,21.369 5.202,21.734 5.202,22.184 C5.202,22.635 4.836,23.001 4.386,23.001 ZM14.097,7.181 C14.547,7.181 14.913,7.547 14.913,7.996 C14.913,8.447 14.547,8.812 14.097,8.812 C13.647,8.812 13.281,8.447 13.281,7.996 C13.281,7.547 13.647,7.181 14.097,7.181 ZM25.142,19.776 C24.989,19.909 24.798,19.975 24.608,19.975 C24.417,19.975 24.227,19.909 24.073,19.776 C20.030,16.275 16.821,13.890 14.920,11.402 C14.647,11.045 14.715,10.534 15.073,10.260 C15.432,9.987 15.944,10.056 16.217,10.413 C17.904,12.621 20.871,14.876 24.607,18.082 C30.738,12.801 34.287,10.185 34.287,6.557 C34.287,3.748 32.361,1.628 29.807,1.628 C26.441,1.628 25.307,5.578 25.296,5.618 C25.198,5.972 24.877,6.216 24.510,6.216 C24.143,6.216 23.821,5.972 23.723,5.618 C23.175,3.695 21.542,1.628 19.214,1.628 C17.223,1.628 15.552,2.938 14.958,4.966 C14.831,5.398 14.378,5.646 13.945,5.519 C13.513,5.392 13.265,4.939 13.392,4.507 C14.195,1.768 16.480,-0.001 19.214,-0.001 C21.562,-0.001 23.356,1.353 24.510,3.375 C25.666,1.349 27.462,-0.001 29.807,-0.001 C33.377,-0.001 35.919,2.971 35.919,6.557 C35.919,11.092 31.800,14.010 25.142,19.776 Z"/>
</svg>