<svg 
 xmlns="http://www.w3.org/2000/svg"
 xmlns:xlink="http://www.w3.org/1999/xlink"
 width="14px" height="13px">
<path fill-rule="evenodd"  fill="rgb(45, 154, 167)"
 d="M13.852,4.392 L9.852,0.384 C9.753,0.286 9.635,0.236 9.500,0.236 C9.365,0.236 9.247,0.286 9.148,0.384 C9.049,0.484 9.000,0.602 9.000,0.738 L9.000,2.741 L7.250,2.741 C3.536,2.741 1.258,3.792 0.414,5.895 C0.138,6.595 -0.000,7.463 -0.000,8.502 C-0.000,9.367 0.331,10.545 0.992,12.032 C1.008,12.070 1.035,12.132 1.074,12.220 C1.113,12.308 1.148,12.387 1.180,12.454 C1.211,12.524 1.245,12.580 1.281,12.627 C1.344,12.716 1.417,12.760 1.500,12.760 C1.578,12.760 1.639,12.735 1.684,12.682 C1.728,12.631 1.750,12.564 1.750,12.487 C1.750,12.440 1.743,12.370 1.730,12.279 C1.717,12.188 1.711,12.127 1.711,12.096 C1.685,11.740 1.672,11.420 1.672,11.133 C1.672,10.605 1.717,10.133 1.808,9.717 C1.900,9.298 2.026,8.936 2.187,8.631 C2.349,8.327 2.557,8.063 2.812,7.841 C3.068,7.620 3.342,7.437 3.636,7.297 C3.931,7.156 4.277,7.045 4.676,6.963 C5.074,6.884 5.475,6.827 5.879,6.796 C6.282,6.764 6.740,6.749 7.250,6.749 L9.000,6.749 L9.000,8.753 C9.000,8.889 9.049,9.006 9.148,9.105 C9.247,9.205 9.364,9.254 9.500,9.254 C9.635,9.254 9.752,9.205 9.852,9.105 L13.851,5.097 C13.950,4.999 14.000,4.881 14.000,4.745 C14.000,4.610 13.950,4.493 13.852,4.392 Z"/>
</svg>