<svg 
 xmlns="http://www.w3.org/2000/svg"
 xmlns:xlink="http://www.w3.org/1999/xlink"
 width="14px" height="12px">
<path fill-rule="evenodd"  fill="rgb(45, 154, 167)"
 d="M13.852,8.020 L9.852,11.868 C9.753,11.963 9.635,12.011 9.500,12.011 C9.365,12.011 9.247,11.963 9.149,11.868 C9.050,11.774 9.000,11.661 9.000,11.530 L9.000,9.607 L7.250,9.607 C3.536,9.607 1.258,8.596 0.414,6.577 C0.138,5.906 -0.000,5.073 -0.000,4.076 C-0.000,3.243 0.331,2.114 0.992,0.686 C1.008,0.652 1.035,0.591 1.074,0.506 C1.113,0.421 1.148,0.346 1.180,0.280 C1.211,0.215 1.245,0.161 1.281,0.115 C1.344,0.030 1.417,-0.013 1.500,-0.013 C1.578,-0.013 1.639,0.012 1.684,0.062 C1.728,0.113 1.750,0.175 1.750,0.250 C1.750,0.296 1.743,0.362 1.730,0.450 C1.717,0.537 1.711,0.596 1.711,0.627 C1.685,0.966 1.672,1.274 1.672,1.550 C1.672,2.056 1.717,2.508 1.808,2.911 C1.900,3.311 2.026,3.658 2.187,3.950 C2.349,4.245 2.557,4.498 2.812,4.709 C3.068,4.923 3.342,5.097 3.637,5.232 C3.931,5.367 4.277,5.473 4.676,5.551 C5.074,5.630 5.475,5.683 5.879,5.714 C6.282,5.743 6.740,5.758 7.250,5.758 L9.000,5.758 L9.000,3.835 C9.000,3.704 9.049,3.592 9.148,3.497 C9.247,3.401 9.364,3.354 9.500,3.354 C9.635,3.354 9.752,3.401 9.852,3.497 L13.851,7.343 C13.950,7.440 14.000,7.552 14.000,7.682 C14.000,7.813 13.950,7.926 13.852,8.020 Z"/>
</svg>