<svg 
 xmlns="http://www.w3.org/2000/svg"
 xmlns:xlink="http://www.w3.org/1999/xlink"
 width="18px" height="11px">
<path fill-rule="evenodd"  fill="rgb(45, 154, 167)"
 d="M14.941,6.611 C15.504,7.162 16.099,7.678 16.605,8.284 C16.828,8.553 17.039,8.831 17.201,9.143 C17.430,9.589 17.223,10.076 16.824,10.103 L14.350,10.102 C13.711,10.155 13.202,9.898 12.774,9.461 C12.431,9.112 12.114,8.741 11.784,8.381 C11.649,8.233 11.508,8.094 11.339,7.985 C11.001,7.765 10.708,7.832 10.515,8.184 C10.318,8.543 10.273,8.939 10.254,9.339 C10.228,9.922 10.051,10.076 9.466,10.102 C8.215,10.160 7.028,9.971 5.925,9.341 C4.952,8.785 4.198,7.999 3.542,7.109 C2.264,5.378 1.285,3.475 0.405,1.519 C0.208,1.079 0.352,0.842 0.839,0.834 C1.646,0.818 2.453,0.820 3.262,0.833 C3.590,0.837 3.807,1.026 3.934,1.335 C4.371,2.409 4.905,3.431 5.576,4.378 C5.755,4.632 5.937,4.884 6.196,5.061 C6.483,5.258 6.702,5.193 6.837,4.872 C6.922,4.669 6.960,4.452 6.979,4.234 C7.043,3.487 7.052,2.742 6.939,1.997 C6.871,1.533 6.609,1.232 6.145,1.144 C5.909,1.099 5.944,1.011 6.059,0.876 C6.258,0.643 6.445,0.498 6.818,0.498 L9.615,0.498 C10.055,0.585 10.153,0.783 10.213,1.226 L10.215,4.332 C10.211,4.504 10.301,5.013 10.610,5.127 C10.857,5.207 11.020,5.009 11.169,4.853 C11.838,4.142 12.316,3.302 12.743,2.433 C12.933,2.050 13.096,1.653 13.254,1.256 C13.371,0.961 13.554,0.817 13.886,0.823 L16.578,0.825 C16.658,0.825 16.739,0.827 16.816,0.839 C17.270,0.917 17.394,1.112 17.254,1.555 C17.033,2.251 16.604,2.830 16.184,3.411 C15.735,4.033 15.255,4.632 14.809,5.258 C14.400,5.828 14.433,6.115 14.941,6.611 L14.941,6.611 Z"/>
</svg>