<svg width="139" height="140" viewBox="0 0 139 140" fill="none" xmlns="http://www.w3.org/2000/svg">
<g clip-path="url(#clip0_202_2735)">
<path d="M69.3217 138.85C71.6858 138.849 74.0488 138.724 76.4242 138.488H76.4258C94.7479 136.612 111.244 127.701 122.877 113.37C134.509 99.0541 139.897 81.0384 138.027 62.6502C136.158 44.2621 127.266 27.7057 113.002 16.0301C83.5439 -8.07386 40.029 -3.62539 16.0141 25.9409C4.38149 40.2572 -1.00609 58.273 0.863386 76.6613C2.73282 95.0492 11.6106 111.606 25.8886 123.281C38.3067 133.439 53.5095 138.847 69.3079 138.85M69.5142 2.86914H70.0142V2.85722C84.6285 2.96688 99.3192 7.88576 111.503 17.8527C125.287 29.1396 133.87 45.1227 135.671 62.8754C137.473 80.6282 132.274 98.0221 121.042 111.857C109.81 125.692 93.8863 134.306 76.2003 136.114C58.5006 137.922 41.1853 132.704 27.4016 121.431C13.6179 110.158 5.03468 94.1749 3.23316 76.4221C1.43164 58.6694 6.63075 41.2755 17.8627 27.4407C31.0039 11.2517 50.1759 2.86914 69.5142 2.86914Z" stroke="#FD9C12"/>
<path d="M71.9688 53.4531H67.0312C62.9467 53.4531 59.625 50.1314 59.625 46.0469C59.625 43.3238 61.8395 41.1094 64.5625 41.1094H74.4375C77.1605 41.1094 79.375 43.3238 79.375 46.0469C79.375 50.1314 76.0533 53.4531 71.9688 53.4531Z" fill="#FD9C12"/>
<path d="M80.6094 83.0781H58.3906C57.0291 83.0781 55.9219 81.9709 55.9219 80.6094V74.4375C55.9219 72.3958 57.5833 70.7344 59.625 70.7344H79.375C81.4167 70.7344 83.0781 72.3958 83.0781 74.4375V80.6094C83.0781 81.9709 81.9709 83.0781 80.6094 83.0781Z" fill="#FD9C12"/>
<path d="M68.2656 53.4531H70.7344V55.9219H68.2656V53.4531Z" fill="black"/>
<path d="M65.7969 48.5156C66.4786 48.5156 67.0312 47.963 67.0312 47.2812C67.0312 46.5995 66.4786 46.0469 65.7969 46.0469C65.1151 46.0469 64.5625 46.5995 64.5625 47.2812C64.5625 47.963 65.1151 48.5156 65.7969 48.5156Z" fill="black"/>
<path d="M73.203 48.5156C73.8848 48.5156 74.4374 47.963 74.4374 47.2812C74.4374 46.5995 73.8848 46.0469 73.203 46.0469C72.5213 46.0469 71.9688 46.5995 71.9688 47.2812C71.9688 47.963 72.5213 48.5156 73.203 48.5156Z" fill="black"/>
<path d="M73.2031 85.5469H75.6719V88.0156H73.2031V85.5469Z" fill="black"/>
<path d="M68.2656 85.5469H70.7344V88.0156H68.2656V85.5469Z" fill="black"/>
<path d="M63.3281 85.5469H65.7969V88.0156H63.3281V85.5469Z" fill="black"/>
<path d="M60.8594 75.6719H63.3281V83.0781H60.8594V75.6719Z" fill="black"/>
<path d="M65.7969 78.1406H68.2656V83.0781H65.7969V78.1406Z" fill="black"/>
<path d="M70.7344 75.6719H73.2031V83.0781H70.7344V75.6719Z" fill="black"/>
<path d="M75.6719 78.1406H78.1406V83.0781H75.6719V78.1406Z" fill="black"/>
<path d="M95.4219 73.2031C95.4219 69.1186 92.1003 65.7969 88.0157 65.7969C86.5505 65.7969 85.1309 66.2659 83.9076 67.0954C82.5882 66.277 81.0389 65.7969 79.375 65.7969H76.7174L76.0485 61.7827C79.48 60.0817 82.1549 57.097 83.4485 53.4531H85.5469C87.5885 53.4531 89.25 51.7917 89.25 49.75V48.5156H94.4146C94.9257 49.9487 96.2836 50.9844 97.8907 50.9844C99.9324 50.9844 101.594 49.3229 101.594 47.2812C101.594 45.2396 99.9324 43.5781 97.8907 43.5781C96.2836 43.5781 94.9257 44.6138 94.4146 46.0469H89.25V44.8125C89.25 42.7708 87.5885 41.1094 85.5469 41.1094H83.4485C81.4081 35.3658 75.9348 31.2344 69.5 31.2344C63.0652 31.2344 57.5921 35.3658 55.5517 41.1094H53.4531C51.4115 41.1094 49.75 42.7708 49.75 44.8125V46.0469H44.5854C44.0743 44.6138 42.7166 43.5781 41.1095 43.5781C39.0678 43.5781 37.4062 45.2396 37.4062 47.2812C37.4062 49.3229 39.0678 50.9844 41.1095 50.9844C42.7166 50.9844 44.0743 49.9487 44.5854 48.5156H49.75V49.75C49.75 51.7917 51.4115 53.4531 53.4531 53.4531H55.5517C56.8453 57.097 59.5201 60.0817 62.9516 61.7827L62.2826 65.7969H59.625C57.9438 65.7969 56.3786 66.2869 55.0504 67.1214C53.8197 66.2758 52.3879 65.7969 50.9078 65.7969C46.8233 65.7969 43.5016 69.1186 43.5016 73.2031C43.5016 73.8401 43.5905 74.4535 43.7423 75.0436C41.5241 79.6157 37.9865 88.9229 37.4113 102.652C37.3545 103.991 37.8383 105.265 38.7715 106.239C39.701 107.209 41.0046 107.766 42.3488 107.766C44.9978 107.766 47.1653 105.677 47.2812 103.008C47.7196 93.0284 49.9772 85.7382 51.6782 81.5574C52.525 84.3446 54.1186 86.8035 56.2145 88.7242C54.2531 90.6362 53.0496 93.1975 52.8768 95.9625L52.1399 107.766H86.8616L86.1233 95.9625C85.9505 93.1975 84.747 90.6362 82.7856 88.7242C84.8532 86.8306 86.4369 84.4162 87.2923 81.6746C88.9871 85.8727 91.2077 93.1185 91.6422 103.008C91.7595 105.677 93.9258 107.766 96.5748 107.766C97.9178 107.766 99.2226 107.21 100.152 106.24C101.085 105.267 101.568 103.993 101.514 102.653C100.938 88.9254 97.3981 79.6169 95.1812 75.0448C95.333 74.4535 95.4219 73.8401 95.4219 73.2031ZM97.8907 46.0469C98.5721 46.0469 99.125 46.5999 99.125 47.2812C99.125 47.9626 98.5721 48.5156 97.8907 48.5156C97.2094 48.5156 96.6562 47.9626 96.6562 47.2812C96.6562 46.5999 97.2094 46.0469 97.8907 46.0469ZM41.1095 48.5156C40.4281 48.5156 39.875 47.9626 39.875 47.2812C39.875 46.5999 40.4281 46.0469 41.1095 46.0469C41.7908 46.0469 42.3438 46.5999 42.3438 47.2812C42.3438 47.9626 41.7908 48.5156 41.1095 48.5156ZM92.9532 73.2031C92.9532 75.9262 90.7388 78.1406 88.0157 78.1406C87.996 78.1406 87.9738 78.1369 87.954 78.1369C87.9849 77.7296 88.0157 77.321 88.0157 76.9062V74.4375C88.0157 72.2761 87.212 70.3023 85.895 68.7853C86.5591 68.4582 87.2788 68.2656 88.0157 68.2656C90.7388 68.2656 92.9532 70.4801 92.9532 73.2031ZM93.7198 97.8906H98.7028C98.7831 98.6942 98.8522 99.5175 98.9115 100.359H93.9517C93.8863 99.5151 93.8086 98.6942 93.7198 97.8906ZM93.4086 95.4219C93.2876 94.5751 93.158 93.7468 93.0161 92.9531H98.0512C98.182 93.7542 98.3067 94.5739 98.4178 95.4219H93.4086ZM92.5249 90.4844C92.3385 89.6265 92.1458 88.7995 91.9434 88.0156H97.0662C97.2526 88.8081 97.4315 89.6314 97.6006 90.4844H92.5249ZM96.4415 85.5469H91.2547C90.9881 84.6631 90.7201 83.8397 90.4535 83.0781H95.7034C95.9528 83.8595 96.2008 84.6754 96.4415 85.5469ZM85.5469 43.5781C86.2282 43.5781 86.7812 44.1311 86.7812 44.8125V49.75C86.7812 50.4314 86.2282 50.9844 85.5469 50.9844H84.0892C84.225 50.1796 84.3125 49.3587 84.3125 48.5156V46.0469C84.3125 45.2038 84.225 44.3829 84.0892 43.5781H85.5469ZM53.4531 50.9844C52.7718 50.9844 52.2188 50.4314 52.2188 49.75V44.8125C52.2188 44.1311 52.7718 43.5781 53.4531 43.5781H54.9109C54.7751 44.3829 54.6875 45.2038 54.6875 46.0469V48.5156C54.6875 49.3587 54.7751 50.1796 54.9109 50.9844H53.4531ZM57.1562 48.5156V46.0469C57.1562 39.6577 62.0371 34.387 68.2657 33.7661V41.1094H70.7344V33.7661C76.963 34.3882 81.8439 39.6577 81.8439 46.0469V48.5156C81.8439 54.9048 76.963 60.1755 70.7344 60.7964V58.3906H68.2657V60.7964C62.0371 60.1755 57.1562 54.9048 57.1562 48.5156ZM65.2994 62.7122C66.6325 63.1072 68.0397 63.3281 69.5 63.3281C70.9603 63.3281 72.3675 63.1072 73.7006 62.7122L74.2154 65.7969H64.7847L65.2994 62.7122ZM50.9078 68.2656C51.6657 68.2656 52.404 68.4668 53.0829 68.8112C51.7782 70.3246 50.9845 72.2885 50.9845 74.4375V76.9062C50.9845 77.3198 51.0153 77.7259 51.0462 78.1308C51.0018 78.1332 50.9523 78.1406 50.9078 78.1406C48.1848 78.1406 45.9703 75.9262 45.9703 73.2031C45.9703 70.4801 48.1836 68.2656 50.9078 68.2656ZM49.4562 80.465C49.4377 80.5106 49.4181 80.5625 49.3983 80.6094H44.0669C44.441 79.596 44.81 78.6825 45.1618 77.8691C46.2308 79.1812 47.7367 80.1218 49.4562 80.465ZM40.5058 95.4219C40.6169 94.5739 40.7415 93.7542 40.8724 92.9531H45.9062C45.7642 93.7468 45.6346 94.5751 45.5136 95.4219H40.5058ZM45.2026 97.8906C45.1149 98.6942 45.0359 99.5151 44.9717 100.359H40.0134C40.0726 99.5175 40.1417 98.6942 40.222 97.8906H45.2026ZM41.3218 90.4844C41.4909 89.6314 41.6699 88.8081 41.8563 88.0156H46.9789C46.7777 88.7995 46.5838 89.6265 46.3974 90.4844H41.3218ZM42.482 85.5469C42.7227 84.6754 42.9696 83.8595 43.2202 83.0781H48.4701C48.2034 83.8397 47.9355 84.6631 47.6688 85.5469H42.482ZM42.3488 105.297C41.6637 105.297 41.0267 105.024 40.5527 104.53C40.1071 104.065 39.8738 103.463 39.8812 102.828H44.8187C44.8174 102.853 44.815 102.876 44.815 102.901C44.7557 104.244 43.6733 105.297 42.3488 105.297ZM60.8595 91.715V94.6121C60.8595 94.8849 60.8865 95.1515 60.8989 95.4219H55.4232C55.7108 93.437 56.6737 91.6188 58.1636 90.2684C59.0104 90.8312 59.9115 91.3188 60.8595 91.715ZM83.7695 97.8906L83.9237 100.359H77.1926C77.4617 99.5546 77.6802 98.7325 77.8333 97.8906H83.7695ZM75.6719 94.6109C75.6719 98.6189 74.1586 102.389 71.4244 105.297H67.5745C64.8416 102.39 63.3281 98.6201 63.3281 94.6121V92.505C64.5193 92.7877 65.7549 92.9531 67.0312 92.9531H71.9689C73.2452 92.9531 74.4807 92.7877 75.6719 92.505V94.6109ZM61.1656 97.8906C61.3187 98.7325 61.5359 99.5546 61.805 100.359H55.0751L55.2295 97.8906H61.1656ZM54.9208 102.828H62.8368C63.2775 103.688 63.7947 104.511 64.3736 105.297H54.7665L54.9208 102.828ZM74.6251 105.297C75.204 104.511 75.7213 103.688 76.162 102.828H84.0793L84.2335 105.297H74.6251ZM83.5768 95.4219H78.1011C78.1135 95.1515 78.1407 94.8837 78.1407 94.6109V91.715C79.0887 91.3188 79.9898 90.8312 80.8366 90.2684C82.3265 91.6188 83.2904 93.437 83.5768 95.4219ZM85.5469 76.9062C85.5469 84.3927 79.4553 90.4844 71.9689 90.4844H67.0312C59.5448 90.4844 53.4531 84.3927 53.4531 76.9062V74.4375C53.4531 71.0343 56.2218 68.2656 59.625 68.2656H79.375C82.7782 68.2656 85.5469 71.0343 85.5469 74.4375V76.9062ZM96.5748 105.297C95.2515 105.297 94.1678 104.244 94.1085 102.901C94.1073 102.876 94.1048 102.853 94.1048 102.828H99.0436C99.051 103.463 98.8177 104.065 98.3721 104.53C97.8969 105.024 97.2574 105.297 96.5748 105.297ZM94.8554 80.6094H89.5241C89.5056 80.5625 89.4859 80.5106 89.4661 80.465C91.1856 80.1218 92.6915 79.1812 93.7593 77.8691C94.1135 78.6825 94.4814 79.596 94.8554 80.6094Z" fill="black"/>
</g>
<defs>
<clipPath id="clip0_202_2735">
<rect width="139" height="140" fill="white"/>
</clipPath>
</defs>
</svg>
