<svg width="139" height="140" viewBox="0 0 139 140" fill="none" xmlns="http://www.w3.org/2000/svg">
<path d="M96.6562 92.9531C93.2531 92.9531 90.4844 90.1844 90.4844 86.7812C90.4844 83.3781 93.2531 80.6094 96.6562 80.6094C100.059 80.6094 102.828 83.3781 102.828 86.7812C102.828 90.1844 100.059 92.9531 96.6562 92.9531Z" fill="#FD9C12"/>
<path d="M81.8438 92.9531C78.4406 92.9531 75.6719 90.1844 75.6719 86.7812C75.6719 83.3781 78.4406 80.6094 81.8438 80.6094C85.2469 80.6094 88.0156 83.3781 88.0156 86.7812C88.0156 90.1844 85.2469 92.9531 81.8438 92.9531Z" fill="#FD9C12"/>
<path d="M67.0312 92.9531C63.6281 92.9531 60.8594 90.1844 60.8594 86.7812C60.8594 83.3781 63.6281 80.6094 67.0312 80.6094C70.4344 80.6094 73.2031 83.3781 73.2031 86.7812C73.2031 90.1844 70.4344 92.9531 67.0312 92.9531Z" fill="#FD9C12"/>
<path d="M67.0312 71.9688H57.1562V65.7969H67.0312V71.9688Z" fill="#FD9C12"/>
<path d="M91.7188 71.9688H81.8438V65.7969H91.7188V71.9688Z" fill="#FD9C12"/>
<path d="M71.9688 58.3906C78.0937 58.3906 83.0781 53.4075 83.0781 47.2812C83.0781 41.155 78.0937 36.1719 71.9688 36.1719C65.8438 36.1719 60.8594 41.155 60.8594 47.2812C60.8594 53.4075 65.8438 58.3906 71.9688 58.3906ZM71.9688 38.6406C76.7334 38.6406 80.6094 42.5178 80.6094 47.2812C80.6094 52.0447 76.7334 55.9219 71.9688 55.9219C67.2041 55.9219 63.3281 52.0447 63.3281 47.2812C63.3281 42.5178 67.2041 38.6406 71.9688 38.6406Z" fill="black"/>
<path d="M100.359 79.375H96.4291C96.5674 78.9874 96.6562 78.5751 96.6562 78.1406V68.2656C96.6562 66.224 94.9948 64.5625 92.9531 64.5625H80.6094C78.5677 64.5625 76.9062 66.224 76.9062 68.2656V78.1406C76.9062 78.5751 76.9951 78.9874 77.1334 79.375H71.7404C71.8799 78.9874 71.9688 78.5751 71.9688 78.1406V68.2656C71.9688 66.224 70.3073 64.5625 68.2656 64.5625H55.9219C53.8802 64.5625 52.2188 66.224 52.2188 68.2656V78.1406C52.2188 78.5751 52.3076 78.9874 52.4459 79.375H47.7269C47.443 78.2159 47.2887 77.0062 47.2812 75.7657C47.2331 67.4263 53.5914 60.4718 61.8345 59.7089C64.5995 61.9691 68.1274 63.3281 71.9688 63.3281C80.8167 63.3281 88.0156 56.1292 88.0156 47.2812C88.0156 38.4332 80.8167 31.2344 71.9688 31.2344C63.1208 31.2344 55.9219 38.4332 55.9219 47.2812C55.9219 47.617 55.9515 47.9441 55.9725 48.2749C53.4679 48.9452 51.0708 49.9327 48.839 51.2609L44.8125 48.7995L36.4558 57.1562L38.9171 61.1828C37.5272 63.5182 36.4879 66.0265 35.8201 68.6569L31.2344 69.7629V81.5808L35.8201 82.6868C36.4891 85.3173 37.5272 87.8255 38.9171 90.161L36.4558 94.1875L44.8125 102.544L48.8378 100.084C51.1745 101.474 53.6827 102.513 56.3119 103.182L57.4179 107.766H69.2371L70.3431 103.181C72.9723 102.512 75.4805 101.473 77.8172 100.083L81.84 102.542L90.24 94.1875H100.359C104.444 94.1875 107.766 90.8658 107.766 86.7812C107.766 82.6967 104.444 79.375 100.359 79.375ZM79.375 78.1406V68.2656C79.375 67.5843 79.9292 67.0312 80.6094 67.0312H92.9531C93.6333 67.0312 94.1875 67.5843 94.1875 68.2656V78.1406C94.1875 78.822 93.6333 79.375 92.9531 79.375H80.6094C79.9292 79.375 79.375 78.822 79.375 78.1406ZM54.6875 78.1406V68.2656C54.6875 67.5843 55.2417 67.0312 55.9219 67.0312H68.2656C68.9458 67.0312 69.5 67.5843 69.5 68.2656V78.1406C69.5 78.822 68.9458 79.375 68.2656 79.375H55.9219C55.2417 79.375 54.6875 78.822 54.6875 78.1406ZM44.8125 75.7805C44.8705 85.9308 53.4062 94.1875 63.8404 94.1875H73.1723C70.1579 95.7872 66.7733 96.6562 63.3281 96.6562C51.7571 96.6562 42.3438 87.2429 42.3438 75.6719C42.3438 66.1005 48.9328 57.708 58.1252 55.3578C58.5758 56.1268 59.0782 56.8625 59.646 57.5438C51.1066 59.2683 44.7619 66.8313 44.8125 75.7805ZM71.9688 33.7031C79.4552 33.7031 85.5469 39.7948 85.5469 47.2812C85.5469 54.7677 79.4552 60.8594 71.9688 60.8594C64.4823 60.8594 58.3906 54.7677 58.3906 47.2812C58.3906 39.7948 64.4823 33.7031 71.9688 33.7031ZM81.4747 99.4249L77.8061 97.1821L77.1581 97.5919C74.6572 99.1731 71.9292 100.304 69.0507 100.953L68.3027 101.122L67.2929 105.297H59.3621L58.3548 101.121L57.6068 100.952C54.7282 100.304 52.0003 99.1731 49.4994 97.5907L48.8514 97.1809L45.1853 99.4225L39.5775 93.8147L41.8191 90.1474L41.4081 89.4993C39.8281 87.001 38.6974 84.273 38.0481 81.392L37.879 80.6439L33.7031 79.6379V71.7058L37.879 70.6998L38.0481 69.9518C38.6974 67.0708 39.8269 64.3428 41.4081 61.8444L41.8191 61.1964L39.5775 57.529L45.1853 51.9213L48.8514 54.1629L49.4994 53.7531C51.6176 52.4138 53.9074 51.4189 56.3082 50.7437C56.4872 51.5522 56.7316 52.336 57.0279 53.0939C47.0085 55.8885 39.875 65.1439 39.875 75.6719C39.875 88.6044 50.3956 99.125 63.3281 99.125C68.5261 99.125 73.6055 97.3672 77.6987 94.1875H86.7393L81.4747 99.4249ZM100.359 91.7188H63.8404C56.9797 91.7188 51.0634 87.6342 48.5588 81.8438H55.9219H68.2656H80.6094H92.9531H100.359C103.082 81.8438 105.297 84.0582 105.297 86.7812C105.297 89.5043 103.082 91.7188 100.359 91.7188Z" fill="black"/>
<path d="M79.013 44.4505L77.2676 42.7051L70.734 49.2386L67.9036 46.4082L66.1582 48.1536L70.734 52.7294L79.013 44.4505Z" fill="black"/>
<path d="M25.8885 123.281L25.8884 123.281C11.6244 111.606 2.73284 95.0493 0.863385 76.6612C-1.00609 58.2729 4.38149 40.2571 16.0141 25.9408M25.8885 123.281L69.3217 138.85C71.6858 138.849 74.0488 138.724 76.4242 138.488L76.4258 138.488C94.7479 136.612 111.244 127.701 122.877 113.37C134.509 99.054 139.897 81.0383 138.027 62.6501C136.158 44.262 127.266 27.7057 113.002 16.0301L113.002 16.03C83.5439 -8.07392 40.029 -3.62544 16.0141 25.9408M25.8885 123.281C38.3066 133.439 53.5094 138.847 69.3079 138.85L25.8885 123.281ZM16.0141 25.9408L16.4021 26.2561L16.0141 25.9408ZM69.5142 2.86908H70.0142V2.85716C84.6285 2.96682 99.3191 7.8857 111.503 17.8526C125.287 29.1395 133.87 45.1226 135.671 62.8753C137.473 80.6281 132.274 98.022 121.042 111.857C109.81 125.692 93.8863 134.306 76.2003 136.114C58.5006 137.922 41.1853 132.704 27.4016 121.431C13.6179 110.158 5.03468 94.1749 3.23316 76.4221C1.43164 58.6694 6.63075 41.2754 17.8627 27.4406L17.8627 27.4406C31.0039 11.2516 50.1759 2.86908 69.5142 2.86908Z" stroke="#FD9C12"/>
</svg>
