<svg width="139" height="140" viewBox="0 0 139 140" fill="none" xmlns="http://www.w3.org/2000/svg">
<g clip-path="url(#clip0_202_2760)">
<path d="M69.3217 138.85C71.6858 138.849 74.0488 138.724 76.4242 138.488H76.4258C94.7481 136.612 111.244 127.687 122.877 113.37C134.509 99.0542 139.897 81.0384 138.027 62.6501C136.158 44.262 127.266 27.7056 113.002 16.03C83.5439 -8.07387 40.029 -3.62535 16.0141 25.9408C4.38149 40.2571 -1.00609 58.2729 0.863386 76.6612C2.73282 95.0491 11.6105 111.606 25.8886 123.281C38.3067 133.439 53.5095 138.847 69.3079 138.85M69.5142 2.86911H70.0142V2.85719C84.6285 2.96685 99.3191 7.88573 111.503 17.8526C125.287 29.1395 133.87 45.1226 135.671 62.8753C137.473 80.6281 132.274 98.022 121.042 111.857C109.81 125.692 93.8863 134.306 76.2003 136.114C58.5006 137.922 41.1854 132.704 27.4016 121.431C13.6179 110.158 5.03468 94.1749 3.23316 76.4221C1.43164 58.6694 6.63074 41.2754 17.8627 27.4406C31.0039 11.2516 50.1759 2.86911 69.5142 2.86911Z" stroke="#FD9C12"/>
<path d="M38.6406 74.4375H41.1094V91.7188H38.6406V74.4375Z" fill="black"/>
<path d="M39.875 97.8906C37.8333 97.8906 36.1719 96.2292 36.1719 94.1875C36.1719 92.1458 37.8333 90.4844 39.875 90.4844C41.9167 90.4844 43.5781 92.1458 43.5781 94.1875C43.5781 96.2292 41.9167 97.8906 39.875 97.8906Z" fill="#FD9C12"/>
<path d="M46.0469 80.6094H48.5156V97.8906H46.0469V80.6094Z" fill="black"/>
<path d="M47.2812 81.8438C45.2396 81.8438 43.5781 80.1823 43.5781 78.1406C43.5781 76.099 45.2396 74.4375 47.2812 74.4375C49.3229 74.4375 50.9844 76.099 50.9844 78.1406C50.9844 80.1823 49.3229 81.8438 47.2812 81.8438Z" fill="#FD9C12"/>
<path d="M92.9531 74.4375H95.4219V91.7188H92.9531V74.4375Z" fill="black"/>
<path d="M94.1875 97.8906C92.1458 97.8906 90.4844 96.2292 90.4844 94.1875C90.4844 92.1458 92.1458 90.4844 94.1875 90.4844C96.2292 90.4844 97.8906 92.1458 97.8906 94.1875C97.8906 96.2292 96.2292 97.8906 94.1875 97.8906Z" fill="#FD9C12"/>
<path d="M100.359 80.6094H102.828V97.8906H100.359V80.6094Z" fill="black"/>
<path d="M101.594 81.8438C99.5521 81.8438 97.8906 80.1823 97.8906 78.1406C97.8906 76.099 99.5521 74.4375 101.594 74.4375C103.635 74.4375 105.297 76.099 105.297 78.1406C105.297 80.1823 103.635 81.8438 101.594 81.8438Z" fill="#FD9C12"/>
<path d="M95.4219 47.2812C93.7295 47.2812 92.115 47.6244 90.6448 48.2441L83.0399 44.0608C82.6473 36.9248 76.7334 31.2344 69.5 31.2344C62.2666 31.2344 56.3527 36.9248 55.9601 44.062L48.3552 48.2441C46.885 47.6244 45.2717 47.2812 43.5781 47.2812C36.7718 47.2812 31.2344 52.8187 31.2344 59.625C31.2344 66.4313 36.7718 71.9688 43.5781 71.9688C50.3845 71.9688 55.9219 66.4313 55.9219 59.625C55.9219 55.5442 53.9234 51.9311 50.8622 49.6821L56.0823 46.811C56.8662 52.0435 60.6619 56.4181 65.7981 57.8722V80.6254C65.7981 81.1871 65.6685 81.7499 65.4204 82.2536L64.3848 77.0766C63.6429 73.371 60.3619 70.6813 56.5835 70.6813C54.8591 70.6813 53.4544 72.086 53.4544 73.8104C53.4544 74.4301 53.6358 75.03 53.9802 75.546L55.2504 77.4518C55.7207 78.1567 56.0243 78.9738 56.1292 79.8144L56.9834 86.6442C57.1242 87.7836 57.4846 88.8661 58.0166 89.7882L62.0938 98.1745V101.594H64.5625V97.6067L60.1978 88.6365C59.7904 87.9267 59.5337 87.1553 59.4324 86.3418L58.5783 79.5108C58.4264 78.2925 57.987 77.1075 57.3044 76.0854L56.033 74.1783C55.9601 74.0697 55.9219 73.9425 55.9219 73.8104C55.9219 73.4463 56.2181 73.1513 56.5823 73.1513C59.188 73.1513 61.4506 75.0065 61.9629 77.5617L63.5503 85.495H66.5597L67.6139 83.3855C68.0397 82.5338 68.2656 81.5784 68.2656 80.6267V57.1562C68.2656 56.4749 68.8186 55.9219 69.5 55.9219C70.1814 55.9219 70.7344 56.4749 70.7344 57.1562V71.9688V76.9062H73.2031V71.9688C73.2031 71.2874 73.7561 70.7344 74.4375 70.7344C75.1189 70.7344 75.6719 71.2874 75.6719 71.9688V76.9062H78.1406V71.9688C78.1406 71.2874 78.6936 70.7344 79.375 70.7344C80.0564 70.7344 80.6094 71.2874 80.6094 71.9688V74.4375V76.9062H83.0781V74.4375C83.0781 73.7561 83.6311 73.2031 84.3125 73.2031C84.9939 73.2031 85.5469 73.7561 85.5469 74.4375V90.4844C85.5469 91.8113 85.1087 93.1272 84.3125 94.1875L81.8438 97.4796V101.594H84.3125V98.3017L86.2875 95.6688C87.4021 94.1838 88.0156 92.3433 88.0156 90.4844V74.4375C88.0156 72.3958 86.3542 70.7344 84.3125 70.7344C83.8249 70.7344 83.362 70.8344 82.9349 71.0059C82.5091 69.4321 81.0821 68.2656 79.375 68.2656C78.4233 68.2656 77.5629 68.6372 76.9062 69.2284C76.2496 68.6359 75.3892 68.2656 74.4375 68.2656C74.003 68.2656 73.5907 68.3545 73.2031 68.4928V57.871C78.3357 56.4169 82.1338 52.0398 82.9177 46.8122L88.1366 49.6833C85.0766 51.9311 83.0781 55.5454 83.0781 59.625C83.0781 66.4313 88.6155 71.9688 95.4219 71.9688C102.228 71.9688 107.766 66.4313 107.766 59.625C107.766 52.8187 102.228 47.2812 95.4219 47.2812ZM37.663 67.5139C39.0517 65.6722 41.2365 64.5625 43.5781 64.5625C45.9197 64.5625 48.1046 65.6722 49.4932 67.5139C47.8429 68.7544 45.7988 69.5 43.5781 69.5C41.3575 69.5 39.3134 68.7544 37.663 67.5139ZM39.875 58.3906C39.875 56.349 41.5365 54.6875 43.5781 54.6875C45.6198 54.6875 47.2812 56.349 47.2812 58.3906C47.2812 60.4323 45.6198 62.0938 43.5781 62.0938C41.5365 62.0938 39.875 60.4323 39.875 58.3906ZM53.4531 59.625C53.4531 61.9617 52.6335 64.1095 51.2708 65.8018C50.2931 64.5847 49.0538 63.6256 47.6528 62.9899C48.9291 61.858 49.75 60.2261 49.75 58.3906C49.75 54.9875 46.9813 52.2188 43.5781 52.2188C40.175 52.2188 37.4062 54.9875 37.4062 58.3906C37.4062 60.2261 38.2271 61.858 39.5035 62.9899C38.1024 63.6268 36.8631 64.5847 35.8855 65.8018C34.5228 64.1095 33.7031 61.9617 33.7031 59.625C33.7031 54.1802 38.1333 49.75 43.5781 49.75C49.023 49.75 53.4531 54.1802 53.4531 59.625ZM69.5 53.4531C68.0829 53.4531 66.8646 54.2616 66.2425 55.4331C64.8699 55.0121 63.6219 54.3308 62.5406 53.4568C63.575 50.5203 66.3252 48.5156 69.5 48.5156C72.6723 48.5156 75.4225 50.5202 76.4594 53.4544C75.3781 54.3295 74.1314 55.0121 72.7587 55.4331C72.1354 54.2616 70.9171 53.4531 69.5 53.4531ZM65.7969 42.3438C65.7969 40.3021 67.4583 38.6406 69.5 38.6406C71.5417 38.6406 73.2031 40.3021 73.2031 42.3438C73.2031 44.3854 71.5417 46.0469 69.5 46.0469C67.4583 46.0469 65.7969 44.3854 65.7969 42.3438ZM78.3357 51.5176C77.3198 49.4698 75.6373 47.8577 73.5907 46.9295C74.8572 45.7988 75.6719 44.1719 75.6719 42.3438C75.6719 38.9406 72.9032 36.1719 69.5 36.1719C66.0968 36.1719 63.3281 38.9406 63.3281 42.3438C63.3281 44.1719 64.1428 45.7988 65.4093 46.9295C63.3615 47.8577 61.679 49.471 60.6631 51.5189C59.2349 49.6377 58.3906 47.3047 58.3906 44.8125C58.3906 38.6863 63.3738 33.7031 69.5 33.7031C75.6262 33.7031 80.6094 38.6863 80.6094 44.8125C80.6094 47.3022 79.7638 49.6352 78.3357 51.5176ZM89.5068 67.5139C90.8954 65.6722 93.0803 64.5625 95.4219 64.5625C97.7635 64.5625 99.9483 65.6722 101.337 67.5139C99.6866 68.7544 97.6425 69.5 95.4219 69.5C93.2012 69.5 91.1571 68.7544 89.5068 67.5139ZM91.7188 58.3906C91.7188 56.349 93.3802 54.6875 95.4219 54.6875C97.4635 54.6875 99.125 56.349 99.125 58.3906C99.125 60.4323 97.4635 62.0938 95.4219 62.0938C93.3802 62.0938 91.7188 60.4323 91.7188 58.3906ZM103.114 65.8018C102.137 64.5847 100.898 63.6256 99.4965 62.9899C100.773 61.858 101.594 60.2261 101.594 58.3906C101.594 54.9875 98.825 52.2188 95.4219 52.2188C92.0187 52.2188 89.25 54.9875 89.25 58.3906C89.25 60.2261 90.0709 61.858 91.3472 62.9899C89.9462 63.6268 88.7069 64.5847 87.7293 65.8018C86.3665 64.1095 85.5469 61.9617 85.5469 59.625C85.5469 54.1802 89.977 49.75 95.4219 49.75C100.867 49.75 105.297 54.1802 105.297 59.625C105.297 61.9617 104.477 64.1095 103.114 65.8018Z" fill="black"/>
<path d="M86.7812 107.766H59.625V100.359H86.7812V107.766Z" fill="#FD9C12"/>
</g>
<defs>
<clipPath id="clip0_202_2760">
<rect width="139" height="140" fill="white"/>
</clipPath>
</defs>
</svg>
