<svg 
 xmlns="http://www.w3.org/2000/svg"
 xmlns:xlink="http://www.w3.org/1999/xlink"
 width="7px" height="13px">
<path fill-rule="evenodd"  fill="rgb(255, 255, 255)"
 d="M6.736,0.002 L5.057,-0.001 C3.170,-0.001 1.952,1.255 1.952,3.199 L1.952,4.674 L0.264,4.674 C0.118,4.674 -0.000,4.792 -0.000,4.939 L-0.000,7.076 C-0.000,7.223 0.118,7.341 0.264,7.341 L1.952,7.341 L1.952,12.734 C1.952,12.881 2.070,13.000 2.216,13.000 L4.418,13.000 C4.564,13.000 4.682,12.881 4.682,12.734 L4.682,7.341 L6.656,7.341 C6.802,7.341 6.920,7.223 6.920,7.076 L6.921,4.939 C6.921,4.869 6.893,4.801 6.843,4.752 C6.794,4.702 6.726,4.674 6.657,4.674 L4.682,4.674 L4.682,3.423 C4.682,2.822 4.825,2.517 5.604,2.517 L6.736,2.517 C6.881,2.517 6.999,2.398 6.999,2.252 L6.999,0.267 C6.999,0.121 6.881,0.002 6.736,0.002 Z"/>
</svg>