<svg 
 xmlns="http://www.w3.org/2000/svg"
 xmlns:xlink="http://www.w3.org/1999/xlink"
 width="12px" height="12px">
<path fill-rule="evenodd"  fill="rgb(255, 255, 255)"
 d="M9.800,12.000 L2.200,12.000 C0.987,12.000 -0.001,11.013 -0.001,9.800 L-0.001,2.199 C-0.001,0.986 0.987,-0.001 2.200,-0.001 L9.800,-0.001 C11.013,-0.001 12.000,0.986 12.000,2.199 L12.000,9.800 C12.000,11.013 11.013,12.000 9.800,12.000 ZM5.999,2.049 C3.821,2.049 2.049,3.821 2.049,5.999 C2.049,8.178 3.821,9.950 5.999,9.950 C8.178,9.950 9.950,8.178 9.950,5.999 C9.950,3.821 8.178,2.049 5.999,2.049 ZM10.077,0.996 C9.561,0.996 9.142,1.416 9.142,1.931 C9.142,2.447 9.561,2.866 10.077,2.866 C10.593,2.866 11.012,2.447 11.012,1.931 C11.012,1.416 10.593,0.996 10.077,0.996 ZM5.999,8.281 C4.742,8.281 3.718,7.257 3.718,5.999 C3.718,4.742 4.742,3.718 5.999,3.718 C7.257,3.718 8.281,4.742 8.281,5.999 C8.281,7.257 7.257,8.281 5.999,8.281 Z"/>
</svg>