<svg 
 xmlns="http://www.w3.org/2000/svg"
 xmlns:xlink="http://www.w3.org/1999/xlink"
 width="15px" height="13px">
<path fill-rule="evenodd"  fill="#2971ae"
 d="M0.264,6.217 L3.721,7.497 L5.059,11.769 C5.145,12.043 5.481,12.144 5.705,11.962 L7.631,10.403 C7.834,10.239 8.121,10.231 8.332,10.384 L11.807,12.889 C12.047,13.061 12.385,12.931 12.445,12.644 L14.991,0.486 C15.056,0.173 14.746,-0.088 14.445,0.027 L0.260,5.460 C-0.089,5.594 -0.087,6.086 0.264,6.217 ZM4.843,6.816 L11.598,2.685 C11.719,2.611 11.844,2.774 11.740,2.870 L6.165,8.015 C5.970,8.196 5.843,8.439 5.807,8.702 L5.617,10.099 C5.592,10.285 5.328,10.304 5.276,10.123 L4.546,7.576 C4.462,7.285 4.584,6.974 4.843,6.816 Z"/>
</svg>