<svg 
 xmlns="http://www.w3.org/2000/svg"
 xmlns:xlink="http://www.w3.org/1999/xlink"
 width="12px" height="8px">
<path fill-rule="evenodd"  fill="rgb(255, 255, 255)"
 d="M11.892,6.243 C11.860,6.188 11.660,5.745 10.700,4.834 C9.695,3.880 9.830,4.035 11.041,2.385 C11.778,1.381 12.073,0.767 11.980,0.505 C11.893,0.255 11.351,0.321 11.351,0.321 L9.548,0.331 C9.548,0.331 9.414,0.313 9.314,0.374 C9.218,0.434 9.156,0.572 9.156,0.572 C9.156,0.572 8.869,1.349 8.489,2.010 C7.685,3.405 7.364,3.478 7.232,3.392 C6.927,3.190 7.003,2.581 7.003,2.148 C7.003,0.796 7.204,0.233 6.613,0.087 C6.416,0.039 6.272,0.006 5.771,0.001 C5.127,-0.006 4.582,0.003 4.273,0.157 C4.068,0.260 3.910,0.489 4.006,0.503 C4.126,0.519 4.396,0.577 4.539,0.776 C4.724,1.033 4.717,1.611 4.717,1.611 C4.717,1.611 4.824,3.203 4.469,3.401 C4.226,3.536 3.892,3.259 3.175,1.993 C2.809,1.345 2.531,0.628 2.531,0.628 C2.531,0.628 2.478,0.495 2.383,0.423 C2.267,0.337 2.105,0.309 2.105,0.309 L0.390,0.320 C0.390,0.320 0.133,0.328 0.038,0.442 C-0.045,0.544 0.032,0.754 0.032,0.754 C0.032,0.754 1.375,3.965 2.894,5.584 C4.288,7.068 5.871,6.970 5.871,6.970 L6.588,6.970 C6.588,6.970 6.805,6.946 6.915,6.824 C7.017,6.712 7.013,6.502 7.013,6.502 C7.013,6.502 6.999,5.518 7.446,5.373 C7.887,5.230 8.452,6.324 9.051,6.745 C9.504,7.063 9.848,6.993 9.848,6.993 L11.451,6.970 C11.451,6.970 12.290,6.917 11.892,6.243 Z"/>
</svg>