<svg 
 xmlns="http://www.w3.org/2000/svg"
 xmlns:xlink="http://www.w3.org/1999/xlink"
 width="13px" height="9px">
<path fill-rule="evenodd"  fill="#FF001A"
 d="M12.493,0.772 C12.024,0.223 11.157,-0.001 9.502,-0.001 L3.496,-0.001 C1.804,-0.001 0.923,0.238 0.455,0.822 C-0.000,1.392 -0.000,2.231 -0.000,3.392 L-0.000,5.606 C-0.000,7.857 0.540,9.000 3.496,9.000 L9.502,9.000 C10.937,9.000 11.732,8.802 12.247,8.318 C12.774,7.821 13.000,7.010 13.000,5.606 L13.000,3.392 C13.000,2.168 12.964,1.323 12.493,0.772 ZM8.346,4.805 L5.618,6.207 C5.557,6.239 5.490,6.254 5.424,6.254 C5.349,6.254 5.273,6.234 5.207,6.194 C5.081,6.120 5.004,5.986 5.004,5.842 L5.004,3.046 C5.004,2.902 5.081,2.768 5.206,2.694 C5.331,2.619 5.487,2.614 5.617,2.680 L8.345,4.074 C8.484,4.144 8.570,4.285 8.571,4.439 C8.571,4.593 8.484,4.734 8.346,4.805 Z"/>
</svg>