<svg 
 xmlns="http://www.w3.org/2000/svg"
 xmlns:xlink="http://www.w3.org/1999/xlink"
 width="32px" height="28px">
<path fill-rule="evenodd"  fill="#b55bbf"
 d="M0.000,1.121 C0.000,1.671 0.437,2.117 0.976,2.117 L3.984,2.117 L5.854,24.104 C5.854,24.105 5.854,24.106 5.854,24.107 C5.854,26.262 7.632,28.000 9.754,28.000 C11.568,28.000 13.095,26.728 13.530,25.014 L17.690,25.014 C18.125,26.728 19.649,28.000 21.463,28.000 C23.615,28.000 25.366,26.214 25.366,24.018 C25.366,21.822 23.615,20.036 21.463,20.036 C19.649,20.036 18.125,21.308 17.690,23.022 L13.530,23.022 C13.095,21.308 11.571,20.036 9.756,20.036 C8.929,20.036 8.162,20.302 7.530,20.752 L7.257,17.541 C7.277,17.542 7.296,17.547 7.316,17.547 C7.333,17.547 7.349,17.546 7.365,17.546 L27.365,16.551 C27.782,16.530 28.140,16.239 28.255,15.830 L31.182,5.377 C31.266,5.076 31.207,4.753 31.022,4.504 C30.838,4.254 30.550,4.107 30.244,4.107 L6.112,4.107 L5.850,1.035 C5.806,0.520 5.384,0.126 4.878,0.126 L0.976,0.126 C0.437,0.126 0.000,0.572 0.000,1.121 ZM21.463,22.027 C22.539,22.027 23.415,22.920 23.415,24.018 C23.415,25.116 22.539,26.009 21.463,26.009 C20.387,26.009 19.512,25.116 19.512,24.018 C19.512,22.920 20.387,22.027 21.463,22.027 ZM9.756,22.027 C10.832,22.027 11.707,22.920 11.707,24.018 C11.707,25.116 10.832,26.009 9.756,26.009 C8.680,26.009 7.805,25.116 7.805,24.018 C7.805,22.920 8.680,22.027 9.756,22.027 ZM28.950,6.099 L26.571,14.596 L7.270,15.557 C7.208,15.560 7.148,15.571 7.090,15.585 L6.282,6.099 L28.950,6.099 Z"/>
</svg>