<svg 
 xmlns="http://www.w3.org/2000/svg"
 xmlns:xlink="http://www.w3.org/1999/xlink"
 width="16px" height="12px">
<path fill-rule="evenodd"  fill="rgb(185, 127, 192)"
 d="M14.981,2.058 L13.673,0.750 C13.493,0.571 13.275,0.481 13.019,0.481 C12.763,0.481 12.545,0.571 12.365,0.750 L6.057,7.068 L3.230,4.231 C3.051,4.052 2.833,3.962 2.576,3.962 C2.320,3.962 2.102,4.052 1.922,4.231 L0.615,5.539 C0.435,5.719 0.345,5.937 0.345,6.193 C0.345,6.449 0.435,6.668 0.615,6.847 L4.095,10.328 L5.403,11.635 C5.583,11.815 5.801,11.905 6.057,11.905 C6.314,11.905 6.532,11.815 6.711,11.635 L8.019,10.328 L14.981,3.366 C15.160,3.187 15.250,2.969 15.250,2.712 C15.250,2.456 15.160,2.238 14.981,2.058 Z"/>
</svg>