<svg 
 xmlns="http://www.w3.org/2000/svg"
 xmlns:xlink="http://www.w3.org/1999/xlink"
 width="14px" height="14px">
<path fill-rule="evenodd"  fill="rgb(206, 206, 206)"
 d="M13.520,2.755 L9.280,6.999 L13.520,11.242 C14.151,11.873 14.151,12.896 13.520,13.528 C13.205,13.843 12.792,14.001 12.379,14.001 C11.965,14.001 11.552,13.843 11.237,13.528 L6.996,9.284 L2.755,13.528 C2.440,13.843 2.027,14.001 1.614,14.001 C1.201,14.001 0.788,13.843 0.472,13.528 C-0.158,12.897 -0.158,11.874 0.472,11.242 L4.712,6.999 L0.472,2.755 C-0.159,2.124 -0.159,1.101 0.472,0.470 C1.103,-0.161 2.124,-0.161 2.755,0.470 L6.996,4.713 L11.237,0.470 C11.868,-0.161 12.889,-0.161 13.520,0.470 C14.151,1.101 14.151,2.124 13.520,2.755 Z"/>
</svg>