<svg 
 xmlns="http://www.w3.org/2000/svg"
 xmlns:xlink="http://www.w3.org/1999/xlink"
 width="11px" height="20px">
<path fill-rule="evenodd"  fill="rgb(45, 154, 167)"
 d="M10.040,0.875 L7.537,0.871 C4.726,0.871 2.910,2.719 2.910,5.579 L2.910,7.749 L0.393,7.749 C0.176,7.749 -0.000,7.924 -0.000,8.139 L-0.000,11.284 C-0.000,11.500 0.176,11.674 0.393,11.674 L2.909,11.674 L2.909,19.609 C2.909,19.824 3.085,19.999 3.303,19.999 L6.585,19.999 C6.803,19.999 6.979,19.824 6.979,19.609 L6.979,11.674 L9.921,11.674 C10.138,11.674 10.314,11.500 10.314,11.284 L10.315,8.139 C10.315,8.036 10.274,7.937 10.200,7.864 C10.126,7.790 10.026,7.749 9.922,7.749 L6.979,7.749 L6.979,5.909 C6.979,5.025 7.192,4.576 8.354,4.576 L10.039,4.575 C10.257,4.575 10.433,4.401 10.433,4.185 L10.433,1.265 C10.433,1.050 10.257,0.876 10.040,0.875 Z"/>
</svg>