<svg 
 xmlns="http://www.w3.org/2000/svg"
 xmlns:xlink="http://www.w3.org/1999/xlink"
 width="28px" height="25px">
<path fill-rule="evenodd"  fill="rgb(38, 38, 38)"
 d="M20.692,-0.000 C17.693,-0.000 15.086,1.521 13.794,3.739 C12.503,1.521 9.895,-0.000 6.896,-0.000 C2.367,-0.000 -0.002,3.903 -0.002,7.760 C-0.002,16.768 12.805,24.555 13.350,24.883 C13.487,24.964 13.641,25.005 13.794,25.005 C13.948,25.005 14.101,24.964 14.238,24.883 C14.783,24.555 27.590,16.768 27.590,7.760 C27.590,3.903 25.221,-0.000 20.692,-0.000 ZM13.794,23.124 C11.565,21.686 1.722,14.928 1.722,7.760 C1.722,4.853 3.342,1.724 6.896,1.724 C9.799,1.724 12.932,3.702 12.932,6.898 C12.932,7.374 13.318,7.760 13.794,7.760 C14.271,7.760 14.656,7.374 14.656,6.898 C14.656,3.702 17.790,1.724 20.692,1.724 C24.247,1.724 25.866,4.853 25.866,7.760 C25.866,14.919 16.021,21.685 13.794,23.124 Z"/>
</svg>