<svg 
 xmlns="http://www.w3.org/2000/svg"
 xmlns:xlink="http://www.w3.org/1999/xlink"
 width="17px" height="17px">
<path fill-rule="evenodd"  fill="rgb(244, 244, 244)"
 d="M13.812,16.999 L3.187,16.999 C1.427,16.999 -0.000,15.573 -0.000,13.812 L-0.000,3.187 C-0.000,1.426 1.427,-0.001 3.187,-0.001 L13.812,-0.001 C15.573,-0.001 17.000,1.426 17.000,3.187 L17.000,13.812 C17.000,15.573 15.573,16.999 13.812,16.999 ZM12.346,7.739 C12.326,7.636 12.288,7.540 12.260,7.440 C12.221,7.303 12.186,7.165 12.134,7.035 C12.084,6.913 12.019,6.800 11.958,6.684 C11.907,6.587 11.860,6.488 11.802,6.396 C11.726,6.278 11.638,6.170 11.551,6.061 C10.832,5.163 9.739,4.576 8.500,4.576 C7.260,4.576 6.168,5.163 5.449,6.061 C5.362,6.170 5.274,6.278 5.198,6.396 C5.139,6.488 5.092,6.588 5.041,6.685 C4.980,6.800 4.915,6.913 4.866,7.034 C4.813,7.165 4.778,7.303 4.740,7.440 C4.711,7.540 4.674,7.636 4.653,7.739 C4.605,7.985 4.577,8.239 4.577,8.499 C4.577,10.666 6.334,12.423 8.500,12.423 C10.666,12.423 12.423,10.666 12.423,8.499 C12.423,8.239 12.395,7.985 12.346,7.739 ZM15.692,3.187 C15.692,2.150 14.849,1.307 13.812,1.307 L3.187,1.307 C2.151,1.307 1.307,2.150 1.307,3.187 L1.307,5.884 L3.997,5.884 C4.904,4.328 6.573,3.268 8.500,3.268 C10.427,3.268 12.095,4.328 13.003,5.884 L15.692,5.884 L15.692,3.187 ZM12.423,3.922 L12.423,2.615 C12.423,2.255 12.716,1.961 13.077,1.961 L14.384,1.961 C14.744,1.961 15.038,2.255 15.038,2.615 L15.038,3.922 C15.038,4.282 14.744,4.576 14.384,4.576 L13.077,4.576 C12.716,4.576 12.423,4.282 12.423,3.922 ZM8.500,10.992 C7.122,10.992 6.007,9.877 6.007,8.499 C6.007,8.024 6.146,7.586 6.376,7.209 C6.340,7.326 6.315,7.449 6.315,7.578 C6.315,8.277 6.880,8.842 7.578,8.842 C8.278,8.842 8.842,8.276 8.842,7.578 C8.842,6.880 8.277,6.314 7.578,6.314 C7.450,6.314 7.327,6.338 7.210,6.375 C7.587,6.146 8.025,6.007 8.500,6.007 C9.876,6.007 10.994,7.121 10.994,8.499 C10.994,9.877 9.876,10.992 8.500,10.992 Z"/>
</svg>