<svg 
 xmlns="http://www.w3.org/2000/svg"
 xmlns:xlink="http://www.w3.org/1999/xlink"
 width="52px" height="53px">
<path fill-rule="evenodd"  fill="rgb(38, 38, 38)"
 d="M49.976,52.436 L43.155,52.436 C42.731,52.436 42.387,52.092 42.387,51.668 C42.387,51.244 42.731,50.900 43.155,50.900 L49.976,50.900 C50.204,50.900 50.390,50.714 50.390,50.485 L50.390,43.921 C50.390,43.692 50.204,43.506 49.976,43.506 L47.115,43.506 L47.115,44.665 C47.115,45.088 46.772,45.432 46.347,45.432 C45.923,45.432 45.579,45.088 45.579,44.665 L45.579,43.506 L43.484,43.506 L43.484,44.665 C43.484,45.088 43.140,45.432 42.716,45.432 C42.291,45.432 41.948,45.088 41.948,44.665 L41.948,43.506 L39.852,43.506 L39.852,44.665 C39.852,45.088 39.508,45.432 39.084,45.432 C38.660,45.432 38.316,45.088 38.316,44.665 L38.316,43.506 L36.221,43.506 L36.221,44.665 C36.221,45.088 35.877,45.432 35.453,45.432 C35.029,45.432 34.685,45.088 34.685,44.665 L34.685,43.506 L32.589,43.506 L32.589,44.665 C32.589,45.088 32.246,45.432 31.821,45.432 C31.397,45.432 31.053,45.088 31.053,44.665 L31.053,43.506 L28.958,43.506 L28.958,44.665 C28.958,45.088 28.614,45.432 28.190,45.432 C27.765,45.432 27.422,45.088 27.422,44.665 L27.422,43.506 L25.326,43.506 L25.326,44.665 C25.326,45.088 24.982,45.432 24.558,45.432 C24.134,45.432 23.790,45.088 23.790,44.665 L23.790,43.506 L21.694,43.506 L21.694,44.665 C21.694,45.088 21.351,45.432 20.927,45.432 C20.503,45.432 20.159,45.088 20.159,44.665 L20.159,43.506 L18.063,43.506 L18.063,44.665 C18.063,45.088 17.719,45.432 17.295,45.432 C16.871,45.432 16.527,45.088 16.527,44.665 L16.527,43.506 L14.432,43.506 L14.432,44.665 C14.432,45.088 14.088,45.432 13.664,45.432 C13.239,45.432 12.896,45.088 12.896,44.665 L12.896,43.506 L10.800,43.506 L10.800,44.665 C10.800,45.088 10.456,45.432 10.032,45.432 C9.608,45.432 9.264,45.088 9.264,44.665 L9.264,43.506 L7.168,43.506 L7.168,44.665 C7.168,45.088 6.825,45.432 6.400,45.432 C5.976,45.432 5.632,45.088 5.632,44.665 L5.632,43.506 L2.772,43.506 C2.543,43.506 2.357,43.692 2.357,43.921 L2.357,50.485 C2.357,50.714 2.543,50.900 2.772,50.900 L39.811,50.900 C40.235,50.900 40.579,51.244 40.579,51.668 C40.579,52.092 40.235,52.436 39.811,52.436 L2.772,52.436 C1.697,52.436 0.821,51.561 0.821,50.485 L0.821,43.921 C0.821,42.845 1.697,41.970 2.772,41.970 L49.976,41.970 C51.051,41.970 51.926,42.845 51.926,43.921 L51.926,50.485 C51.926,51.561 51.051,52.436 49.976,52.436 ZM48.125,39.865 L30.007,39.865 C29.766,40.352 29.264,40.689 28.684,40.689 L27.442,40.689 C26.862,40.689 26.360,40.352 26.119,39.865 L23.816,39.865 C22.740,39.865 21.865,38.989 21.865,37.914 L21.865,14.232 C21.865,13.808 22.209,13.464 22.633,13.464 C23.058,13.464 23.401,13.808 23.401,14.232 L23.401,37.914 C23.401,38.142 23.588,38.328 23.816,38.328 L25.964,38.328 L25.964,2.360 L23.816,2.360 C23.587,2.360 23.401,2.546 23.401,2.775 L23.401,10.887 C23.401,11.311 23.058,11.655 22.633,11.655 C22.209,11.655 21.865,11.311 21.865,10.887 L21.865,2.775 C21.865,1.699 22.740,0.824 23.816,0.824 L26.119,0.824 C26.360,0.337 26.862,-0.000 27.442,-0.000 L28.684,-0.000 C29.264,-0.000 29.766,0.337 30.007,0.824 L48.125,0.824 C49.853,0.824 51.258,2.230 51.258,3.958 L51.258,36.731 C51.258,38.459 49.853,39.865 48.125,39.865 ZM28.626,1.536 L27.500,1.536 L27.500,39.153 L28.626,39.153 L28.626,1.536 ZM49.722,3.958 C49.722,3.077 49.006,2.360 48.125,2.360 L30.162,2.360 L30.162,38.328 L48.125,38.328 C49.006,38.328 49.722,37.612 49.722,36.731 L49.722,3.958 ZM45.878,35.878 L43.226,35.878 C42.802,35.878 42.458,35.534 42.458,35.109 C42.458,34.685 42.802,34.341 43.226,34.341 L45.878,34.341 C46.302,34.341 46.646,34.685 46.646,35.109 C46.646,35.534 46.302,35.878 45.878,35.878 ZM45.799,33.894 L45.794,33.894 C45.372,33.894 45.024,33.553 45.022,33.130 C45.019,32.706 45.357,32.360 45.781,32.358 L45.790,32.358 C45.792,32.358 45.793,32.358 45.795,32.358 C46.216,32.358 46.560,32.699 46.562,33.122 C46.564,33.547 46.222,33.892 45.799,33.894 ZM18.177,40.492 L13.340,40.492 C12.264,40.492 11.389,39.616 11.389,38.540 L11.389,32.028 C11.389,31.409 11.679,30.858 12.130,30.500 L12.130,29.254 C12.130,28.178 13.005,27.304 14.081,27.304 L17.435,27.304 C18.511,27.304 19.386,28.179 19.386,29.254 L19.386,30.500 C19.837,30.858 20.127,31.409 20.127,32.028 L20.127,38.540 C20.127,39.616 19.252,40.492 18.177,40.492 ZM17.850,29.254 C17.850,29.026 17.664,28.840 17.435,28.840 L14.081,28.840 C13.852,28.840 13.666,29.026 13.666,29.254 L13.666,30.077 L17.850,30.077 L17.850,29.254 ZM18.591,32.028 C18.591,31.799 18.405,31.613 18.177,31.613 L13.340,31.613 C13.111,31.613 12.925,31.799 12.925,32.028 L12.925,38.540 C12.925,38.769 13.111,38.955 13.340,38.955 L18.177,38.955 C18.405,38.955 18.591,38.769 18.591,38.540 L18.591,32.028 ZM18.774,19.434 L17.074,23.722 C16.858,24.265 16.342,24.616 15.758,24.616 C15.174,24.616 14.658,24.265 14.443,23.722 L12.742,19.434 C12.212,19.109 11.856,18.526 11.856,17.859 L11.856,4.757 C11.856,4.243 12.067,3.778 12.407,3.442 L12.407,1.860 C12.407,0.841 13.236,0.013 14.254,0.013 L17.263,0.013 C18.281,0.013 19.109,0.842 19.109,1.860 L19.109,3.442 C19.449,3.777 19.661,4.243 19.661,4.756 L19.661,10.887 C19.661,11.311 19.317,11.655 18.893,11.655 C18.468,11.655 18.125,11.311 18.125,10.887 L18.125,4.756 C18.125,4.585 17.985,4.446 17.814,4.446 L13.702,4.446 C13.531,4.446 13.392,4.585 13.392,4.756 L13.392,17.859 C13.392,18.031 13.531,18.170 13.702,18.170 L17.814,18.170 C17.985,18.170 18.125,18.031 18.125,17.859 L18.125,14.232 C18.125,13.808 18.468,13.464 18.893,13.464 C19.317,13.464 19.661,13.808 19.661,14.232 L19.661,17.859 C19.661,18.526 19.305,19.109 18.774,19.434 ZM13.943,2.910 L17.573,2.910 L17.573,1.860 C17.573,1.688 17.434,1.549 17.263,1.549 L14.254,1.549 C14.082,1.549 13.943,1.688 13.943,1.860 L13.943,2.910 ZM14.502,19.706 L15.758,22.873 L17.014,19.706 L14.502,19.706 ZM7.868,40.491 L3.440,40.491 C2.364,40.491 1.489,39.616 1.489,38.540 L1.489,7.560 C1.489,6.920 1.801,6.353 2.278,5.997 L4.281,0.946 C4.506,0.379 5.045,0.013 5.654,0.013 C6.264,0.013 6.803,0.379 7.028,0.946 L9.031,5.997 C9.508,6.353 9.819,6.920 9.819,7.560 L9.819,38.540 C9.819,39.616 8.944,40.491 7.868,40.491 ZM3.025,7.560 L3.025,34.438 C3.083,34.425 3.142,34.417 3.204,34.417 L4.886,34.417 L4.886,7.145 L3.440,7.145 C3.211,7.145 3.025,7.331 3.025,7.560 ZM5.654,1.649 L4.084,5.609 L7.224,5.609 L5.654,1.649 ZM8.283,7.560 C8.283,7.331 8.097,7.145 7.868,7.145 L6.422,7.145 L6.422,34.417 L8.104,34.417 C8.166,34.417 8.226,34.425 8.283,34.438 L8.283,7.560 ZM8.283,35.931 C8.226,35.945 8.166,35.953 8.104,35.953 L3.204,35.953 C3.142,35.953 3.083,35.945 3.025,35.931 L3.025,38.540 C3.025,38.769 3.211,38.954 3.440,38.954 L7.868,38.954 C8.097,38.954 8.283,38.769 8.283,38.540 L8.283,35.931 Z"/>
</svg>