<svg 
 xmlns="http://www.w3.org/2000/svg"
 xmlns:xlink="http://www.w3.org/1999/xlink"
 width="43px" height="51px">
<path fill-rule="evenodd"  fill="rgb(38, 38, 38)"
 d="M39.422,29.807 C40.672,31.050 41.360,32.702 41.360,34.460 L41.360,39.478 L42.187,39.478 C42.644,39.478 43.014,39.846 43.014,40.300 L43.014,45.235 C43.014,45.689 42.644,46.057 42.187,46.057 L39.706,46.057 L39.706,48.525 C39.706,49.885 38.592,50.992 37.224,50.992 L33.915,50.992 C32.547,50.992 31.434,49.885 31.434,48.525 L31.434,46.057 L29.779,46.057 L29.779,48.525 C29.779,48.979 29.409,49.347 28.952,49.347 L14.062,49.347 C13.605,49.347 13.235,48.979 13.235,48.525 L13.235,46.057 L11.581,46.057 L11.581,48.525 C11.581,49.885 10.467,50.992 9.099,50.992 L5.790,50.992 C4.422,50.992 3.309,49.885 3.309,48.525 L3.309,46.057 L0.827,46.057 C0.370,46.057 -0.000,45.689 -0.000,45.235 L-0.000,40.300 C-0.000,39.846 0.370,39.478 0.827,39.478 L1.654,39.478 L1.654,34.460 C1.654,32.703 2.343,31.051 3.592,29.808 L6.618,26.800 L6.618,24.673 L4.136,24.673 L1.654,24.673 C0.742,24.673 -0.000,23.936 -0.000,23.028 L-0.000,19.738 C-0.000,18.831 0.742,18.093 1.654,18.093 L4.136,18.093 L6.618,18.093 L6.618,16.449 L4.136,16.449 C3.678,16.449 3.309,16.080 3.309,15.626 L3.309,12.336 C3.309,11.882 3.678,11.514 4.136,11.514 L4.963,11.514 L4.963,2.467 C4.963,1.106 6.076,-0.001 7.445,-0.001 L35.570,-0.001 C36.938,-0.001 38.051,1.106 38.051,2.467 L38.051,11.514 L38.878,11.514 C39.336,11.514 39.706,11.882 39.706,12.336 L39.706,15.626 C39.706,16.080 39.336,16.449 38.878,16.449 L36.397,16.449 L36.397,18.093 L38.878,18.093 L41.360,18.093 C42.272,18.093 43.014,18.831 43.014,19.738 L43.014,23.028 C43.014,23.936 42.272,24.673 41.360,24.673 L38.878,24.673 L36.397,24.673 L36.397,26.800 L39.422,29.807 ZM3.309,19.738 L1.654,19.738 L1.654,23.028 L3.309,23.028 L3.309,19.738 ZM39.706,23.028 L41.361,23.028 L41.360,19.738 L39.706,19.738 L39.706,23.028 ZM33.088,48.525 C33.088,48.978 33.458,49.347 33.915,49.347 L37.224,49.347 C37.680,49.347 38.051,48.978 38.051,48.525 L38.051,46.057 L33.088,46.057 L33.088,48.525 ZM32.261,44.413 L38.878,44.413 L41.360,44.413 L41.360,41.123 L28.125,41.123 L28.125,44.413 L32.261,44.413 ZM14.889,47.702 L28.125,47.702 L28.125,46.057 L14.889,46.057 L14.889,47.702 ZM14.889,34.543 L14.889,36.188 L28.125,36.188 L28.125,34.543 L14.889,34.543 ZM28.125,32.898 L28.125,31.253 L14.889,31.253 L14.889,32.898 L28.125,32.898 ZM14.889,37.833 L14.889,39.478 L28.125,39.478 L28.125,37.833 L14.889,37.833 ZM16.544,41.123 L16.544,44.413 L26.470,44.413 L26.470,41.123 L16.544,41.123 ZM4.963,48.525 C4.963,48.978 5.334,49.347 5.790,49.347 L9.099,49.347 C9.556,49.347 9.926,48.978 9.926,48.525 L9.926,46.057 L4.963,46.057 L4.963,48.525 ZM1.654,44.413 L4.136,44.413 L10.754,44.413 L14.889,44.413 L14.889,41.123 L1.654,41.123 L1.654,44.413 ZM4.963,19.738 L4.963,23.028 L6.618,23.028 L6.618,19.738 L4.963,19.738 ZM36.397,2.467 C36.397,2.013 36.026,1.644 35.570,1.644 L7.445,1.644 C6.988,1.644 6.618,2.013 6.618,2.467 L6.618,11.514 L36.397,11.514 L36.397,2.467 ZM38.051,14.804 L38.051,13.159 L4.963,13.159 L4.963,14.804 L38.051,14.804 ZM8.272,16.449 L8.272,26.318 L20.680,26.318 L20.680,16.449 L8.272,16.449 ZM22.334,16.449 L22.334,26.318 L34.742,26.318 L34.742,16.449 L22.334,16.449 ZM38.051,23.028 L38.051,19.738 L36.397,19.738 L36.397,23.028 L38.051,23.028 ZM35.227,27.963 L7.787,27.963 L4.762,30.970 C3.825,31.903 3.309,33.141 3.309,34.460 L3.309,39.478 L13.235,39.478 L13.235,30.431 C13.235,29.977 13.605,29.608 14.062,29.608 L28.952,29.608 C29.409,29.608 29.779,29.977 29.779,30.431 L29.779,39.478 L39.706,39.478 L39.706,34.460 C39.706,33.142 39.189,31.903 38.252,30.971 L35.227,27.963 ZM34.742,37.833 C32.917,37.833 31.434,36.357 31.434,34.543 C31.434,32.728 32.917,31.253 34.742,31.253 C36.567,31.253 38.051,32.728 38.051,34.543 C38.051,36.357 36.567,37.833 34.742,37.833 ZM34.742,32.898 C33.830,32.898 33.088,33.636 33.088,34.543 C33.088,35.450 33.830,36.188 34.742,36.188 C35.655,36.188 36.397,35.450 36.397,34.543 C36.397,33.636 35.655,32.898 34.742,32.898 ZM8.272,37.833 C6.447,37.833 4.963,36.357 4.963,34.543 C4.963,32.728 6.447,31.253 8.272,31.253 C10.097,31.253 11.581,32.728 11.581,34.543 C11.581,36.357 10.097,37.833 8.272,37.833 ZM8.272,32.898 C7.359,32.898 6.618,33.636 6.618,34.543 C6.618,35.450 7.359,36.188 8.272,36.188 C9.184,36.188 9.926,35.450 9.926,34.543 C9.926,33.636 9.184,32.898 8.272,32.898 Z"/>
</svg>