<svg 
 xmlns="http://www.w3.org/2000/svg"
 xmlns:xlink="http://www.w3.org/1999/xlink"
 width="46px" height="54px">
<path fill-rule="evenodd"  fill="rgb(38, 38, 38)"
 d="M43.282,40.219 L43.282,37.915 C43.282,34.017 40.981,30.563 37.440,28.968 L29.651,25.513 C30.979,24.096 31.775,22.147 31.775,20.198 L33.900,19.135 C34.785,18.692 35.404,17.806 35.404,16.743 L35.404,16.123 C35.404,14.617 34.254,13.465 32.749,13.465 L31.864,13.465 L31.864,7.264 C31.864,4.784 29.917,2.835 27.438,2.835 L26.996,2.835 C25.845,2.835 24.694,2.392 23.898,1.506 L22.393,-0.000 L17.347,1.683 C16.728,1.860 16.108,2.215 15.577,2.569 L14.869,3.100 C13.187,4.341 12.302,6.201 12.302,8.150 L12.302,13.465 L11.417,13.465 C9.912,13.465 8.762,14.617 8.762,16.123 L8.762,16.832 C8.762,17.806 9.293,18.781 10.266,19.223 L12.391,20.287 C12.391,22.235 13.187,24.096 14.515,25.602 L6.726,29.057 C3.185,30.651 0.884,34.106 0.884,38.004 L0.884,53.330 L42.486,53.330 C43.990,53.330 45.141,52.178 45.141,50.672 L45.141,42.699 C45.053,41.548 44.344,40.573 43.282,40.219 L43.282,40.219 ZM31.775,15.237 L32.661,15.237 C33.192,15.237 33.546,15.591 33.546,16.123 L33.546,16.832 C33.546,17.186 33.369,17.452 33.015,17.629 L31.775,18.249 L31.775,15.237 ZM12.302,18.249 L11.063,17.629 C10.797,17.452 10.532,17.186 10.532,16.832 L10.532,16.123 C10.532,15.591 10.886,15.237 11.417,15.237 L12.302,15.237 L12.302,18.249 ZM32.218,28.614 L28.146,32.689 L23.986,29.145 C24.429,28.968 24.783,28.791 25.137,28.614 L27.792,27.019 C27.881,27.019 27.881,26.931 27.969,26.842 L32.218,28.614 ZM14.072,8.150 C14.072,6.733 14.692,5.404 15.843,4.606 L16.551,4.075 C16.905,3.809 17.347,3.543 17.790,3.455 L21.773,2.126 L22.481,2.835 C23.632,3.986 25.225,4.695 26.907,4.695 L27.350,4.695 C28.854,4.695 30.005,5.847 30.005,7.353 L30.005,11.073 C29.740,10.985 29.385,10.896 29.120,10.896 L23.543,10.896 C22.304,10.896 21.154,10.276 20.445,9.302 L20.180,9.036 C19.295,7.884 17.790,7.618 16.551,8.416 L14.072,10.010 L14.072,8.150 ZM15.931,26.754 C16.020,26.754 16.020,26.842 16.108,26.931 L18.764,28.525 C19.118,28.791 19.560,28.968 19.914,29.057 L15.754,32.600 L11.682,28.525 L15.931,26.754 ZM21.154,51.558 L11.417,51.558 L11.417,41.813 L9.647,41.813 L9.647,51.558 L2.566,51.558 L2.566,37.827 C2.566,34.638 4.424,31.803 7.345,30.563 L10.089,29.322 L15.754,34.992 L21.154,30.385 L21.154,51.558 ZM19.737,27.019 L17.082,25.425 C15.223,24.273 14.072,22.324 14.072,20.109 L14.072,12.668 C14.072,12.402 14.250,12.136 14.426,11.959 L17.524,9.833 C17.879,9.567 18.410,9.656 18.764,10.010 L19.029,10.276 C20.091,11.693 21.773,12.491 23.543,12.579 L29.120,12.579 C29.651,12.579 30.005,12.934 30.005,13.465 L30.005,20.109 C30.005,22.324 28.854,24.273 26.996,25.425 L24.340,27.019 C22.924,27.905 21.154,27.905 19.737,27.019 L19.737,27.019 ZM27.527,51.558 L22.924,51.558 L22.924,30.474 L28.323,35.081 L33.988,29.411 L36.732,30.651 C39.653,31.891 41.512,34.815 41.512,37.915 L41.512,40.041 L39.742,40.041 L39.742,39.156 C39.742,37.650 38.591,36.498 37.086,36.498 L35.316,36.498 C33.811,36.498 32.661,37.650 32.661,39.156 L32.661,40.041 L30.005,40.041 C28.500,40.041 27.350,41.193 27.350,42.699 L27.350,50.672 C27.350,50.938 27.438,51.292 27.527,51.558 L27.527,51.558 ZM37.971,39.156 L37.971,40.041 L34.431,40.041 L34.431,39.156 C34.431,38.624 34.785,38.270 35.316,38.270 L37.086,38.270 C37.617,38.270 37.971,38.624 37.971,39.156 ZM43.282,50.672 C43.282,51.204 42.928,51.558 42.397,51.558 L30.005,51.558 C29.474,51.558 29.120,51.204 29.120,50.672 L29.120,46.243 L35.316,46.243 L35.316,48.014 L37.086,48.014 L37.086,46.243 L43.282,46.243 L43.282,50.672 ZM43.282,44.471 L29.120,44.471 L29.120,42.699 C29.120,42.168 29.474,41.813 30.005,41.813 L42.397,41.813 C42.928,41.813 43.282,42.168 43.282,42.699 L43.282,44.471 Z"/>
</svg>