<svg 
 xmlns="http://www.w3.org/2000/svg"
 xmlns:xlink="http://www.w3.org/1999/xlink"
 width="52px" height="52px">
<path fill-rule="evenodd"  fill="rgb(38, 38, 38)"
 d="M26.366,48.313 C26.286,48.261 26.216,48.197 26.158,48.123 C22.762,45.171 20.811,40.894 20.809,36.396 L2.605,36.396 C1.169,36.396 0.005,35.232 0.005,33.796 L0.005,2.600 C0.005,1.164 1.169,-0.000 2.605,-0.000 L33.811,-0.000 C35.247,-0.000 36.411,1.164 36.411,2.600 L36.411,20.797 C45.024,20.807 52.004,27.785 52.014,36.396 C52.014,49.646 36.447,56.819 26.366,48.313 ZM44.036,47.962 L40.309,46.944 C39.798,47.640 38.711,48.528 36.417,48.528 C34.124,48.528 33.021,47.634 32.511,46.941 L28.778,47.960 C33.402,51.026 39.411,51.027 44.036,47.962 ZM44.213,32.929 L44.213,32.063 C44.213,29.258 40.804,25.997 36.411,25.997 C32.018,25.997 28.610,29.258 28.610,32.063 L28.610,32.929 L30.413,32.929 C30.841,29.947 33.397,27.732 36.411,27.732 C39.425,27.732 41.981,29.947 42.410,32.929 L44.213,32.929 ZM42.479,34.662 L42.479,38.129 L43.346,38.129 C43.825,38.129 44.213,37.741 44.213,37.262 L44.213,34.662 L42.479,34.662 ZM28.610,34.662 L28.610,38.129 L30.344,38.129 L30.344,34.662 L28.610,34.662 ZM40.745,33.796 C40.745,31.403 38.805,29.463 36.411,29.463 C34.018,29.463 32.077,31.403 32.077,33.796 L32.077,38.995 C32.224,39.744 32.616,40.423 33.191,40.923 C34.660,42.213 34.743,43.328 35.605,43.328 L37.218,43.328 C38.088,43.328 38.157,42.217 39.627,40.930 C40.219,40.415 40.614,39.711 40.745,38.937 L40.745,33.796 ZM33.811,44.343 L33.811,45.771 C34.510,47.141 38.329,47.151 39.012,45.771 L39.012,44.343 C38.541,44.823 37.890,45.083 37.218,45.061 C35.552,45.061 34.713,45.234 33.811,44.343 ZM21.675,1.733 L14.741,1.733 L14.741,11.265 C14.741,11.744 15.129,12.132 15.608,12.132 L20.809,12.132 C21.287,12.132 21.675,11.744 21.675,11.265 L21.675,1.733 ZM34.678,2.600 C34.678,2.121 34.290,1.733 33.811,1.733 L23.409,1.733 L23.409,11.265 C23.409,12.701 22.245,13.865 20.809,13.865 L15.608,13.865 C14.172,13.865 13.007,12.701 13.007,11.265 L13.007,1.733 L2.605,1.733 C2.127,1.733 1.739,2.121 1.739,2.600 L1.739,33.796 C1.739,34.274 2.127,34.662 2.605,34.662 L20.911,34.662 C21.730,27.428 27.441,21.719 34.678,20.900 L34.678,2.600 ZM36.410,22.499 C30.679,22.499 25.539,26.022 23.473,31.366 C21.407,36.709 22.842,42.773 27.083,46.625 L32.077,45.264 L32.077,42.255 C31.347,41.616 30.807,40.788 30.517,39.862 L28.610,39.862 L28.610,41.595 L29.477,41.595 C29.956,41.595 30.344,41.983 30.344,42.461 C30.344,42.940 29.956,43.328 29.477,43.328 L28.610,43.328 C27.653,43.328 26.876,42.552 26.876,41.595 L26.876,32.063 C26.876,27.981 31.421,24.264 36.411,24.264 C41.402,24.264 45.946,27.981 45.946,32.063 L45.946,37.262 C45.946,38.698 44.782,39.862 43.346,39.862 L42.299,39.862 C42.013,40.788 41.475,41.616 40.745,42.255 L40.745,45.266 L45.737,46.629 L45.737,46.625 C49.978,42.773 51.412,36.709 49.346,31.366 C47.280,26.022 42.140,22.499 36.410,22.499 ZM17.341,32.063 L5.206,32.063 C4.248,32.063 3.472,31.287 3.472,30.330 L3.472,26.863 C3.472,25.906 4.248,25.130 5.206,25.130 L17.341,25.130 C18.299,25.130 19.075,25.906 19.075,26.863 L19.075,30.330 C19.075,31.287 18.299,32.063 17.341,32.063 ZM6.940,26.863 L5.206,26.863 L5.206,30.330 L6.940,30.330 L6.940,26.863 ZM10.407,26.863 L8.673,26.863 L8.673,30.330 L10.407,30.330 L10.407,26.863 ZM13.874,26.863 L12.140,26.863 L12.140,30.330 L13.874,30.330 L13.874,26.863 ZM17.341,26.863 L15.608,26.863 L15.608,30.330 L17.341,30.330 L17.341,26.863 ZM8.927,10.145 L7.806,9.024 L7.806,12.998 C7.806,13.477 7.418,13.865 6.940,13.865 C6.461,13.865 6.073,13.477 6.073,12.998 L6.073,9.024 L4.952,10.145 L4.951,10.144 C4.611,10.472 4.070,10.468 3.736,10.133 C3.402,9.799 3.397,9.259 3.725,8.918 C6.543,6.102 6.375,6.228 6.608,6.132 C6.932,5.998 7.305,6.072 7.552,6.320 L10.153,8.919 C10.481,9.259 10.477,9.800 10.142,10.134 C9.808,10.468 9.267,10.473 8.927,10.145 Z"/>
</svg>