<svg 
 xmlns="http://www.w3.org/2000/svg"
 xmlns:xlink="http://www.w3.org/1999/xlink"
 width="54px" height="54px">
<path fill-rule="evenodd"  fill="rgb(38, 38, 38)"
 d="M47.075,44.646 C46.914,44.831 46.683,44.940 46.439,44.949 C46.429,44.950 46.418,44.950 46.409,44.950 C46.175,44.950 45.950,44.857 45.784,44.691 L42.028,40.935 C41.704,40.611 41.682,40.093 41.976,39.742 C44.911,36.249 46.527,31.813 46.527,27.250 C46.527,22.687 44.911,18.250 41.976,14.758 C41.681,14.407 41.704,13.888 42.028,13.564 L45.784,9.808 C45.957,9.635 46.190,9.539 46.439,9.550 C46.683,9.559 46.914,9.669 47.075,9.853 C51.279,14.677 53.594,20.856 53.594,27.250 C53.594,33.643 51.279,39.822 47.075,44.646 ZM46.351,11.739 L43.839,14.253 C46.717,17.959 48.294,22.543 48.294,27.250 C48.294,31.957 46.717,36.541 43.839,40.247 L46.351,42.760 C49.889,38.372 51.827,32.901 51.827,27.250 C51.827,21.599 49.889,16.128 46.351,11.739 ZM40.780,12.315 C40.607,12.487 40.381,12.575 40.154,12.575 C39.952,12.575 39.751,12.506 39.586,12.368 C36.093,9.433 31.657,7.816 27.094,7.816 C22.530,7.816 18.094,9.433 14.602,12.368 C14.251,12.662 13.732,12.640 13.409,12.315 L9.653,8.560 C9.479,8.387 9.385,8.149 9.394,7.905 C9.403,7.660 9.513,7.430 9.697,7.269 C14.521,3.065 20.699,0.750 27.094,0.750 C33.488,0.750 39.666,3.065 44.491,7.269 C44.676,7.430 44.785,7.660 44.794,7.905 C44.803,8.149 44.709,8.386 44.536,8.560 L40.780,12.315 ZM27.094,2.516 C21.442,2.516 15.972,4.454 11.583,7.992 L14.095,10.506 C17.803,7.626 22.386,6.050 27.094,6.050 C31.801,6.050 36.385,7.626 40.091,10.506 L42.603,7.992 C38.216,4.454 32.745,2.516 27.094,2.516 ZM12.211,14.758 C9.277,18.250 7.660,22.687 7.660,27.250 C7.660,31.813 9.277,36.249 12.211,39.742 C12.506,40.093 12.483,40.611 12.159,40.935 L8.403,44.691 C8.238,44.857 8.013,44.950 7.779,44.950 C7.769,44.950 7.758,44.950 7.749,44.950 C7.504,44.941 7.273,44.832 7.113,44.647 C2.909,39.822 0.594,33.643 0.594,27.250 C0.594,20.855 2.909,14.677 7.113,9.853 C7.273,9.669 7.504,9.559 7.749,9.550 C7.997,9.541 8.230,9.636 8.403,9.808 L12.159,13.564 C12.483,13.888 12.505,14.406 12.211,14.758 ZM7.836,11.739 C4.298,16.128 2.360,21.598 2.360,27.250 C2.360,32.901 4.298,38.372 7.836,42.760 L10.348,40.247 C7.470,36.541 5.894,31.957 5.894,27.250 C5.894,22.543 7.470,17.959 10.348,14.253 L7.836,11.739 ZM27.094,43.150 C24.016,43.150 21.243,41.704 18.853,38.852 C16.214,35.702 14.760,31.525 14.760,27.090 L14.727,18.420 C14.726,18.185 14.819,17.960 14.985,17.794 C15.150,17.627 15.375,17.533 15.610,17.533 C23.161,17.533 26.219,12.846 26.345,12.647 C26.508,12.390 26.790,12.235 27.093,12.235 L27.096,12.235 C27.399,12.236 27.681,12.391 27.843,12.647 C27.977,12.860 31.038,17.533 38.577,17.533 C38.812,17.533 39.037,17.627 39.202,17.793 C39.369,17.959 39.460,18.184 39.460,18.419 L39.428,27.092 C39.428,31.524 37.974,35.701 35.334,38.851 C32.944,41.704 30.171,43.150 27.094,43.150 ZM37.690,19.281 C31.791,19.012 28.466,16.114 27.094,14.554 C25.721,16.114 22.396,19.012 16.497,19.281 L16.526,27.087 C16.526,31.111 17.834,34.885 20.206,37.717 C22.246,40.150 24.563,41.383 27.094,41.383 C29.624,41.383 31.941,40.150 33.981,37.717 C36.355,34.884 37.661,31.111 37.661,27.090 L37.690,19.281 ZM26.956,33.907 C26.944,33.927 26.922,33.934 26.908,33.952 C26.858,34.019 26.810,34.087 26.740,34.140 C26.716,34.158 26.687,34.165 26.662,34.181 C26.634,34.197 26.609,34.210 26.580,34.223 C26.461,34.279 26.337,34.316 26.211,34.316 C26.211,34.316 26.211,34.316 26.210,34.316 C26.210,34.316 26.210,34.316 26.210,34.316 C26.207,34.316 26.205,34.314 26.203,34.314 C26.054,34.313 25.911,34.266 25.779,34.191 C25.766,34.184 25.750,34.187 25.736,34.179 C25.665,34.134 25.615,34.071 25.562,34.012 C25.545,33.992 25.520,33.984 25.504,33.963 L22.854,30.430 C22.561,30.039 22.640,29.485 23.030,29.193 C23.421,28.900 23.975,28.979 24.267,29.370 L26.151,31.881 L31.648,23.242 C31.910,22.831 32.455,22.709 32.868,22.971 C33.280,23.232 33.401,23.779 33.139,24.191 L26.956,33.907 ZM13.407,42.184 C13.731,41.861 14.249,41.838 14.600,42.132 C18.094,45.067 22.530,46.683 27.094,46.683 C31.657,46.683 36.093,45.067 39.586,42.132 C39.936,41.838 40.455,41.860 40.778,42.184 L44.534,45.940 C44.707,46.113 44.801,46.350 44.792,46.595 C44.783,46.840 44.674,47.070 44.489,47.231 C39.666,51.435 33.488,53.750 27.094,53.750 C20.699,53.750 14.521,51.435 9.696,47.231 C9.512,47.070 9.402,46.840 9.393,46.595 C9.385,46.350 9.478,46.113 9.651,45.940 L13.407,42.184 ZM27.094,51.983 C32.745,51.983 38.216,50.045 42.604,46.507 L40.092,43.994 C36.385,46.873 31.801,48.450 27.094,48.450 C22.386,48.450 17.803,46.873 14.096,43.994 L11.583,46.507 C15.972,50.045 21.442,51.983 27.094,51.983 Z"/>
</svg>