<svg 
 xmlns="http://www.w3.org/2000/svg"
 xmlns:xlink="http://www.w3.org/1999/xlink"
 width="22px" height="13px">
<path fill-rule="evenodd"  fill="rgb(58, 140, 162)"
 d="M21.993,6.026 C21.993,5.364 21.446,4.827 20.772,4.827 L4.177,4.827 L6.977,2.078 C7.454,1.610 7.454,0.850 6.977,0.382 C6.500,-0.086 5.727,-0.086 5.250,0.382 L0.364,5.178 C0.125,5.412 0.006,5.719 0.006,6.026 C0.006,6.333 0.125,6.640 0.364,6.874 L5.250,11.670 C5.727,12.138 6.500,12.138 6.977,11.670 C7.454,11.202 7.454,10.442 6.977,9.975 L4.177,7.225 L20.772,7.225 C21.446,7.225 21.993,6.688 21.993,6.026 Z"/>
</svg>