<svg id="Группа_1" data-name="Группа 1" xmlns="http://www.w3.org/2000/svg" xmlns:xlink="http://www.w3.org/1999/xlink" width="111" height="103" viewBox="0 0 111 103">
  <defs>
    <style>
      .cls-1, .cls-2, .cls-3 {
        fill-rule: evenodd;
      }

      .cls-1 {
        fill: url(#linear-gradient);
      }

      .cls-2 {
        fill: url(#linear-gradient-2);
      }

      .cls-3 {
        fill: url(#linear-gradient-3);
      }
    </style>
    <linearGradient id="linear-gradient" x1="50.782" y1="76.719" x2="50.782" y2="8.906" gradientUnits="userSpaceOnUse">
      <stop offset="0" stop-color="#4f75ba"/>
      <stop offset="0.009" stop-color="#4f75ba"/>
      <stop offset="1" stop-color="#e6aee8"/>
    </linearGradient>
    <linearGradient id="linear-gradient-2" x1="86.172" y1="103" x2="86.172" gradientUnits="userSpaceOnUse">
      <stop offset="0" stop-color="#dcb8dc"/>
      <stop offset="1" stop-color="#497dc6"/>
    </linearGradient>
    <linearGradient id="linear-gradient-3" x1="110.156" y1="36.255" x2="71.594" y2="51.058" xlink:href="#linear-gradient-2"/>
  </defs>
  <path id="Фигура_5" data-name="Фигура 5" class="cls-1" d="M92.067,10.85a23.373,23.373,0,0,0-7.929,3.636c-4.553,3.252-7.749,7.805-10.793,12.39-2.7,4.074-6.075,9.463-11.483,10.1-3.161.371-6.647-1.162-9.29-3.37-1.664-1.042-3.242-2.206-4.82-3.372a12.288,12.288,0,0,0-4.463-.483c-2.378.194-10.228,6.36-10.92,6.229S0.361,34.6,0,34.753L25.6,37.62c6.537,0.506,13.474,4.242,15.339,6.527s5.3,8.655,6.826,18.8c1.1,7.291,5.77,12.44,8.443,13.772,0.285-.978.578-1.954,0.837-2.942C60.4,61.019,67.315,49.942,75.309,39.533c4.131-5.379,8.659-9.467,12.81-14.834,6.08-7.862,10.262-11.105,13.452-15.8C98.461,9.824,95.214,10.073,92.067,10.85Z"/>
  <path id="Фигура_4" data-name="Фигура 4" class="cls-2" d="M79.076,37.592C75.2,42.313,71.113,47.764,67.6,52.771s-6.319,10.7-6.246,16.906a32.238,32.238,0,0,0,2.363,10.651c1.017,1.707,2.121,3.355,3.232,5.035l0.121,0.185c2.6,3.462,9.832,14.5,13.026,17.451-0.261-2.263-4.963-12.33-5.483-14.555-0.812-3.476-2.087-6.812-2.972-10.266-0.032-.124-0.06-0.25-0.091-0.375L72.4,78.944l0.1,0.143c2.233,2.653,5.928,7.594,8.609,9.812-0.308-1.8-1.942-6.068-2.456-7.823-0.8-2.742-1.969-5.352-2.828-8.071a28.437,28.437,0,0,1-1-13.861,36.546,36.546,0,0,1,4.12-10.8l0.023-.05a46.762,46.762,0,0,1,3.383-6.094c1.323-1.982,2.817-3.84,4.118-5.839,2.568-3.946,5.385-7.745,7.846-11.753,0.475-.773.941-1.552,1.4-2.333,0.8-1.078,1.586-2.164,2.349-3.265,2.091-3.02,4.072-6.115,6.183-9.118C106.776,5.945,111,0,111,0"/>
  <path id="Фигура_4-2" data-name="Фигура 4" class="cls-3" d="M80.9,43.544c-2.189,3.384-4.459,7.262-6.385,10.807s-3.345,7.49-2.841,11.566A21.45,21.45,0,0,0,74,72.749c0.79,1.049,1.633,2.053,2.483,3.077l0.093,0.113c1.956,2.089,7.493,8.826,9.8,10.535C86.036,85,82.222,78.725,81.719,77.3c-0.786-2.227-1.865-4.328-2.7-6.535-0.03-.08-0.058-0.16-0.087-0.24l0.636,0.688L79.651,71.3c1.655,1.583,4.433,4.565,6.349,5.831-0.333-1.159-1.716-3.85-2.18-4.966-0.726-1.745-1.68-3.377-2.442-5.1a18.924,18.924,0,0,1-1.671-9.041,24.234,24.234,0,0,1,1.9-7.4l0.012-.035a30.947,30.947,0,0,1,1.764-4.25c0.719-1.4,1.56-2.728,2.263-4.136,1.389-2.779,2.951-5.48,4.266-8.293,0.254-.543.5-1.088,0.746-1.635,0.443-.766.878-1.537,1.3-2.316,1.145-2.136,2.213-4.314,3.372-6.44C96.681,20.739,110.143.848,110.143,0.848"/>
</svg>
