<svg 
 xmlns="http://www.w3.org/2000/svg"
 xmlns:xlink="http://www.w3.org/1999/xlink"
 width="26px" height="26px">
<path fill-rule="evenodd"  fill="rgb(38, 38, 38)"
 d="M18.093,14.577 C17.782,14.266 17.278,14.266 16.966,14.577 L16.334,15.209 L14.816,13.691 C16.013,12.243 16.733,10.388 16.733,8.367 C16.733,3.753 12.979,-0.000 8.366,-0.000 C3.752,-0.000 -0.001,3.753 -0.001,8.367 C-0.001,12.981 3.752,16.734 8.366,16.734 C10.386,16.734 12.242,16.014 13.690,14.817 L15.208,16.336 L14.576,16.968 C14.265,17.279 14.265,17.784 14.576,18.094 L21.748,25.266 C21.903,25.422 22.107,25.500 22.311,25.500 C22.515,25.500 22.719,25.422 22.874,25.266 L25.265,22.876 C25.576,22.565 25.576,22.060 25.265,21.749 L18.093,14.577 ZM1.593,8.367 C1.593,4.632 4.631,1.594 8.366,1.594 C12.101,1.594 15.139,4.632 15.139,8.367 C15.139,12.102 12.101,15.140 8.366,15.140 C4.631,15.140 1.593,12.102 1.593,8.367 ZM22.311,23.576 L16.266,17.531 L17.530,16.267 L23.575,22.312 L22.311,23.576 Z"/>
</svg>