<svg 
 xmlns="http://www.w3.org/2000/svg"
 xmlns:xlink="http://www.w3.org/1999/xlink"
 width="33px" height="10px">
<path fill-rule="evenodd"  fill="rgb(255, 255, 255)"
 d="M29.650,9.000 L27.542,9.000 L25.876,3.781 L24.193,9.000 L22.086,9.000 L19.026,0.807 L21.712,0.807 L23.225,5.685 L24.669,0.807 L27.066,0.807 L28.511,5.685 L30.024,0.807 L32.710,0.807 L29.650,9.000 ZM12.787,5.532 C12.838,6.535 13.246,7.351 14.606,7.351 C15.506,7.351 15.931,6.943 16.118,6.416 L18.668,6.416 C18.447,7.963 16.968,9.221 14.622,9.221 C11.767,9.221 10.203,7.436 10.203,4.903 C10.203,2.523 11.716,0.586 14.554,0.586 C17.121,0.586 18.770,2.336 18.770,4.325 C18.770,4.665 18.770,5.039 18.685,5.532 L12.787,5.532 ZM14.538,2.320 C13.518,2.320 12.787,2.931 12.787,4.036 L16.220,4.036 C16.220,2.965 15.540,2.320 14.538,2.320 ZM6.037,4.801 C6.037,3.628 5.681,2.812 4.593,2.812 C3.522,2.812 3.012,3.611 3.012,4.886 L3.012,9.000 L0.411,9.000 L0.411,0.807 L3.012,0.807 L3.012,1.996 C3.471,1.112 4.406,0.603 5.697,0.603 C6.768,0.603 7.533,0.943 7.992,1.538 C8.519,2.166 8.638,2.965 8.638,4.138 L8.638,9.000 L6.037,9.000 L6.037,4.801 Z"/>
</svg>