<svg 
 xmlns="http://www.w3.org/2000/svg"
 xmlns:xlink="http://www.w3.org/1999/xlink"
 width="17px" height="18px">
<path fill-rule="evenodd"  fill="rgb(255, 255, 255)"
 d="M11.696,0.917 L3.714,16.000 L5.815,17.060 L13.816,1.977 L11.696,0.917 ZM3.874,9.878 C5.775,9.878 6.975,8.618 6.975,7.098 L6.975,4.598 C6.975,3.077 5.775,1.817 3.874,1.817 C1.934,1.817 0.774,3.077 0.774,4.598 L0.774,7.098 C0.774,8.618 1.934,9.878 3.874,9.878 ZM4.834,4.598 L4.834,7.098 C4.834,7.658 4.454,8.138 3.874,8.138 C3.294,8.138 2.914,7.658 2.914,7.098 L2.914,4.598 C2.914,4.037 3.294,3.557 3.874,3.557 C4.454,3.557 4.834,4.037 4.834,4.598 ZM16.977,13.399 L16.977,10.899 C16.977,9.379 15.777,8.118 13.876,8.118 C11.936,8.118 10.776,9.379 10.776,10.899 L10.776,13.399 C10.776,14.920 11.936,16.180 13.876,16.180 C15.777,16.180 16.977,14.920 16.977,13.399 ZM12.916,13.399 L12.916,10.899 C12.916,10.339 13.296,9.859 13.876,9.859 C14.456,9.859 14.837,10.339 14.837,10.899 L14.837,13.399 C14.837,13.959 14.456,14.439 13.876,14.439 C13.296,14.439 12.916,13.959 12.916,13.399 Z"/>
</svg>