<svg 
 xmlns="http://www.w3.org/2000/svg"
 xmlns:xlink="http://www.w3.org/1999/xlink"
 width="14px" height="19px">
<path fill-rule="evenodd"  fill="rgb(255, 255, 255)"
 d="M13.985,16.505 C13.986,16.208 13.987,16.462 13.985,16.505 ZM6.993,18.997 C1.030,18.997 0.001,16.852 0.001,16.852 C0.001,16.603 0.001,16.460 0.000,16.382 C0.001,16.424 0.004,16.405 0.011,16.050 C0.090,11.696 0.689,10.440 4.965,9.643 C4.965,9.643 5.574,10.444 6.993,10.444 C8.411,10.444 9.020,9.643 9.020,9.643 C13.344,10.449 13.909,11.723 13.977,16.195 C13.981,16.481 13.984,16.530 13.985,16.505 C13.985,16.580 13.985,16.692 13.985,16.852 C13.985,16.852 12.955,18.997 6.993,18.997 ZM6.993,9.286 C4.948,9.286 3.291,7.205 3.291,4.639 C3.291,2.072 3.835,-0.009 6.993,-0.009 C10.151,-0.009 10.695,2.072 10.695,4.639 C10.695,7.205 9.037,9.286 6.993,9.286 ZM0.000,16.382 C-0.001,16.338 -0.000,16.226 0.000,16.382 Z"/>
</svg>