<svg 
 xmlns="http://www.w3.org/2000/svg"
 xmlns:xlink="http://www.w3.org/1999/xlink"
 width="23px" height="12px">
<path fill-rule="evenodd"  fill="rgb(58, 140, 162)"
 d="M0.632,5.942 C0.632,6.601 1.188,7.135 1.874,7.135 L18.752,7.135 L15.904,9.870 C15.419,10.335 15.419,11.091 15.904,11.557 C16.389,12.022 17.176,12.022 17.661,11.557 L22.630,6.786 C22.873,6.553 22.994,6.248 22.994,5.942 C22.994,5.637 22.873,5.332 22.630,5.099 L17.661,0.328 C17.176,-0.138 16.389,-0.138 15.904,0.328 C15.419,0.793 15.419,1.549 15.904,2.015 L18.752,4.749 L1.874,4.749 C1.188,4.749 0.632,5.284 0.632,5.942 Z"/>
</svg>