<svg 
 xmlns="http://www.w3.org/2000/svg"
 xmlns:xlink="http://www.w3.org/1999/xlink"
 width="22px" height="12px">
<path fill-rule="evenodd"  fill="rgb(38, 38, 38)"
 d="M0.007,5.973 C0.007,6.635 0.553,7.173 1.228,7.173 L17.823,7.173 L15.023,9.922 C14.546,10.389 14.546,11.149 15.023,11.617 C15.500,12.085 16.273,12.085 16.750,11.617 L21.636,6.821 C21.875,6.587 21.994,6.280 21.994,5.973 C21.994,5.666 21.875,5.360 21.636,5.125 L16.750,0.330 C16.273,-0.139 15.500,-0.139 15.023,0.330 C14.546,0.797 14.546,1.557 15.023,2.025 L17.823,4.774 L1.228,4.774 C0.553,4.774 0.007,5.311 0.007,5.973 Z"/>
</svg>