<svg 
 xmlns="http://www.w3.org/2000/svg"
 xmlns:xlink="http://www.w3.org/1999/xlink"
 width="25px" height="25px">
<path fill-rule="evenodd"  fill="rgb(58, 140, 162)"
 d="M0.472,25.006 L23.322,25.006 C23.798,25.006 24.184,24.619 24.184,24.143 C24.184,23.667 23.798,23.281 23.322,23.281 L22.460,23.281 L22.460,11.209 C22.460,10.258 21.686,9.485 20.735,9.485 L18.148,9.485 C17.197,9.485 16.424,10.258 16.424,11.209 L16.424,23.281 L15.562,23.281 L15.562,2.586 C15.562,1.636 14.788,0.862 13.837,0.862 L11.250,0.862 C10.299,0.862 9.526,1.636 9.526,2.586 L9.526,23.281 L8.664,23.281 L8.664,15.521 C8.664,14.570 7.890,13.796 6.939,13.796 L4.352,13.796 C3.401,13.796 2.628,14.570 2.628,15.521 L2.628,23.281 L0.472,23.281 M18.148,11.209 L20.735,11.209 L20.735,23.281 L18.148,23.281 L18.148,11.209 ZM11.250,2.586 L13.837,2.586 L13.837,23.281 L11.250,23.281 L11.250,2.586 ZM4.352,15.521 L6.939,15.521 L6.939,23.281 L4.352,23.281 L4.352,15.521 Z"/>
</svg>