<svg 
 xmlns="http://www.w3.org/2000/svg"
 xmlns:xlink="http://www.w3.org/1999/xlink"
 width="12px" height="22px">
<path fill-rule="evenodd"  fill="rgb(255, 255, 255)"
 d="M5.974,21.993 C6.636,21.993 7.173,21.446 7.173,20.772 L7.173,4.177 L9.922,6.977 C10.390,7.454 11.150,7.454 11.617,6.977 C12.085,6.500 12.085,5.727 11.617,5.250 L6.821,0.364 C6.587,0.125 6.280,0.006 5.974,0.006 C5.667,0.006 5.360,0.125 5.126,0.364 L0.330,5.250 C-0.138,5.727 -0.138,6.500 0.330,6.977 C0.798,7.454 1.557,7.454 2.025,6.977 L4.774,4.177 L4.774,20.772 C4.774,21.446 5.311,21.993 5.974,21.993 Z"/>
</svg>