<svg 
 xmlns="http://www.w3.org/2000/svg"
 xmlns:xlink="http://www.w3.org/1999/xlink"
 width="21px" height="14px">
<path fill-rule="evenodd"  fill="rgb(45, 154, 167)"
 d="M20.887,11.939 C20.862,11.883 20.838,11.836 20.816,11.799 C20.452,11.128 19.756,10.304 18.728,9.327 L18.706,9.305 L18.695,9.294 L18.684,9.283 L18.673,9.283 C18.207,8.828 17.912,8.523 17.788,8.365 C17.562,8.067 17.511,7.766 17.635,7.459 C17.722,7.228 18.050,6.740 18.619,5.995 C18.917,5.600 19.154,5.283 19.329,5.044 C20.590,3.330 21.137,2.234 20.969,1.757 L20.904,1.645 C20.860,1.578 20.747,1.517 20.565,1.461 C20.383,1.405 20.150,1.395 19.865,1.433 L16.717,1.455 C16.666,1.437 16.593,1.438 16.498,1.461 C16.403,1.482 16.356,1.494 16.356,1.494 L16.301,1.522 L16.258,1.556 C16.221,1.578 16.181,1.617 16.137,1.673 C16.094,1.729 16.057,1.794 16.028,1.869 C15.685,2.771 15.296,3.609 14.858,4.385 C14.589,4.847 14.341,5.248 14.115,5.587 C13.889,5.927 13.699,6.176 13.547,6.336 C13.393,6.496 13.255,6.625 13.131,6.722 C13.007,6.819 12.912,6.860 12.847,6.845 C12.781,6.830 12.719,6.815 12.661,6.801 C12.559,6.733 12.477,6.642 12.415,6.526 C12.353,6.411 12.311,6.265 12.289,6.090 C12.267,5.915 12.255,5.764 12.251,5.637 C12.247,5.510 12.249,5.332 12.256,5.100 C12.264,4.869 12.267,4.713 12.267,4.631 C12.267,4.347 12.273,4.040 12.284,3.708 C12.295,3.377 12.304,3.114 12.311,2.920 C12.318,2.726 12.322,2.521 12.322,2.305 C12.322,2.089 12.309,1.919 12.284,1.796 C12.258,1.673 12.220,1.553 12.169,1.438 C12.118,1.322 12.043,1.233 11.945,1.170 C11.847,1.107 11.724,1.056 11.579,1.019 C11.192,0.930 10.701,0.881 10.103,0.874 C8.747,0.859 7.876,0.948 7.490,1.142 C7.337,1.224 7.198,1.336 7.074,1.477 C6.943,1.641 6.925,1.731 7.020,1.746 C7.457,1.813 7.767,1.973 7.949,2.227 L8.015,2.360 C8.066,2.458 8.117,2.629 8.168,2.875 C8.219,3.121 8.252,3.394 8.266,3.691 C8.302,4.236 8.302,4.702 8.266,5.089 C8.229,5.477 8.195,5.779 8.162,5.995 C8.129,6.211 8.080,6.387 8.015,6.520 C7.949,6.654 7.905,6.737 7.883,6.767 C7.861,6.796 7.843,6.815 7.829,6.822 C7.734,6.859 7.635,6.878 7.533,6.878 C7.431,6.878 7.308,6.826 7.162,6.722 C7.016,6.617 6.865,6.474 6.708,6.291 C6.551,6.109 6.375,5.853 6.178,5.525 C5.981,5.197 5.777,4.810 5.566,4.362 L5.391,4.038 C5.281,3.829 5.132,3.526 4.943,3.127 C4.753,2.728 4.585,2.342 4.440,1.969 C4.381,1.813 4.294,1.693 4.177,1.612 L4.123,1.578 C4.086,1.548 4.028,1.516 3.948,1.482 C3.868,1.449 3.784,1.425 3.696,1.410 L0.701,1.432 C0.395,1.432 0.187,1.503 0.078,1.645 L0.034,1.712 C0.012,1.749 0.001,1.809 0.001,1.891 C0.001,1.973 0.023,2.073 0.067,2.193 C0.504,3.244 0.979,4.258 1.493,5.234 C2.007,6.211 2.454,6.997 2.832,7.594 C3.211,8.190 3.598,8.753 3.991,9.282 C4.385,9.812 4.645,10.151 4.773,10.300 C4.901,10.449 5.001,10.561 5.074,10.635 L5.347,10.904 C5.522,11.082 5.779,11.297 6.118,11.547 C6.457,11.796 6.832,12.043 7.244,12.285 C7.656,12.527 8.135,12.724 8.682,12.877 C9.228,13.030 9.760,13.092 10.278,13.062 L11.535,13.062 C11.790,13.040 11.983,12.957 12.114,12.816 L12.158,12.760 C12.187,12.715 12.214,12.646 12.240,12.554 C12.265,12.461 12.278,12.358 12.278,12.246 C12.271,11.926 12.294,11.636 12.349,11.379 C12.403,11.122 12.466,10.928 12.535,10.798 C12.604,10.667 12.683,10.557 12.770,10.468 C12.857,10.379 12.920,10.324 12.956,10.306 C12.992,10.287 13.021,10.274 13.043,10.267 C13.218,10.207 13.424,10.265 13.661,10.440 C13.898,10.615 14.120,10.832 14.328,11.089 C14.536,11.346 14.785,11.635 15.077,11.955 C15.369,12.276 15.624,12.514 15.842,12.671 L16.061,12.805 C16.207,12.895 16.396,12.977 16.629,13.051 C16.862,13.126 17.066,13.145 17.242,13.107 L20.040,13.063 C20.317,13.063 20.532,13.016 20.685,12.922 C20.838,12.829 20.929,12.727 20.959,12.615 C20.988,12.504 20.989,12.377 20.964,12.235 C20.938,12.094 20.913,11.995 20.887,11.939 Z"/>
</svg>