<svg xmlns="http://www.w3.org/2000/svg" width="15" height="15" viewBox="0 0 15 15"><g><g><path fill="#3093f1" d="M14.424 5.712c-.72 1.833-1.957 3.685-3.485 5.215-2.062 2.065-4.148 3.074-5.208 3.492-.548.216-1.603.577-2.515.577-.505 0-.966-.11-1.274-.418a.826.826 0 0 1-.03-.033L.354 12.753c-.462-.486-.43-1.312.077-1.82a.64.64 0 0 1 .058-.052l2.216-1.759a1.259 1.259 0 0 1 1.747.032c.031.031.06.065.084.102l.597.9c.311-.072 1.215-.542 2.855-2.184 1.64-1.642 2.108-2.547 2.18-2.859l-.899-.598a.706.706 0 0 1-.102-.084 1.264 1.264 0 0 1-.031-1.75l1.756-2.22a.915.915 0 0 1 .05-.057 1.41 1.41 0 0 1 .862-.396c.364-.032.71.084.957.318l1.787 1.56c.012.009.023.02.034.03.863.865.176 2.942-.159 3.795zm-.793-2.86L11.899 1.34l-.006.002-1.719 2.174.878.584.05.037c.244.197.388.49.405.822.069 1.304-1.923 3.299-2.577 3.955-2.647 2.65-3.627 2.6-3.95 2.582a1.11 1.11 0 0 1-.856-.456l-.584-.88-2.17 1.723-.002.005 1.508 1.735c.589.284 4.042-.554 7.122-3.64 3.08-3.085 3.916-6.543 3.633-7.133z"/></g></g></svg>