<svg xmlns="http://www.w3.org/2000/svg" width="315" height="379" viewBox="0 0 315 379"><g><g clip-path="url(#clip-416)"><path fill="#688cea" d="M99.305 86.52c0 6.805-5.537 12.343-12.343 12.343H74.619V74.178h12.343c6.806 0 12.343 5.536 12.343 12.342zm255.079 240.463V341.6c0 4.35-.892 8.463-2.274 12.343h14.617c6.813 0 12.342 5.525 12.342 12.343s-5.529 12.342-12.342 12.342H12.907c-6.814 0-12.343-5.524-12.343-12.342 0-6.818 5.529-12.342 12.343-12.342h61.712V196.617C32.82 190.596.564 154.644.564 111.206V86.52C.564 38.88 39.32.122 86.962.122c47.642 0 86.397 38.759 86.397 86.398v24.686c0 43.438-32.254 79.39-74.055 85.411v157.325h51.645c-1.382-3.88-2.274-7.995-2.274-12.343V326.98c-14.336-5.111-24.685-18.683-24.685-34.753v-24.684c0-17.172 11.804-31.518 27.685-35.687l16.694-50.08a36.975 36.975 0 0 1 35.124-25.317h96.073a36.974 36.974 0 0 1 35.123 25.32l16.693 50.078c15.882 4.17 27.687 18.515 27.687 35.687v24.684c0 16.07-10.35 29.643-24.685 34.754zM74.619 123.547h12.342c20.418 0 37.028-16.61 37.028-37.027 0-20.418-16.61-37.028-37.028-37.028H62.276c-6.813 0-12.342 5.524-12.342 12.343v74.056c0 6.818 5.529 12.343 12.342 12.343 6.814 0 12.343-5.525 12.343-12.343zm103.521 106.97h146.777l-13.642-40.928a12.329 12.329 0 0 0-11.708-8.442h-96.073c-5.32 0-10.02 3.39-11.708 8.437zm-17.123 74.055h32.249l-16.457-49.37h-15.792c-6.806 0-12.343 5.536-12.343 12.343v24.684c0 6.806 5.537 12.343 12.343 12.343zm121.585 49.37c-1.382-3.879-2.274-7.994-2.274-12.342v-12.343h-57.599V341.6c0 4.349-.891 8.463-2.274 12.343zm71.783-61.713v-24.684c0-6.807-5.538-12.343-12.343-12.343H326.25l-16.457 49.37h32.248c6.806 0 12.343-5.537 12.344-12.343z"/></g></g></svg>