<svg xmlns="http://www.w3.org/2000/svg" width="97" height="99" viewBox="0 0 97 99"><g><g clip-path="url(#clip-83)"><path fill="#fec242" d="M93.996 84.262v2.296H75.77v.015H39.443v-.015H21.232v-2.19c-2.101-1.857-3.008-4.559-3.008-6.725v-6.74l4.973-4.3c.163 1.322 1.088 2.474 2.401 2.744l11.573 2.39c2.765.57 3.117-.937 3.117-.937.21-1.395.05-2.208-.343-2.779-.415-.6-1.086-.74-1.86-1.195L33.25 64.5c-1.576-.756-3.22-1.865-4.437-2.754l6.086-5.263c.657.05 1.368.084 2.182.084 0 0 10.243-.942 20.534-.942 10.545 0 20.53.942 20.53.942 5.617-.045 7.381-1.307 7.381-2.917 0 0-1.216-2.996-2.173-5.113-1.246-2.386-1.874-3.684-4.333-3.83-2.316-.135-13.03-.917-21.405-.917-2.583 0-5.459.084-8.265.198l4.291-3.71c1.309-.02 2.637-.034 3.974-.034 7.62 0 16.253.411 16.253.411 5.175.275 6.89-.377 10.658 6.614 0 0 2.745 6.104 5.99 13.108.247.158.502.3.736.479 1.26 3.569 5.296 4.578 5.75 7.187v9.6c0 2.144-.945 4.77-3.006 6.619zm-47.32-5.909c.488 1.166 1.756 2.038 2.869 2.038h16.111c1.113 0 2.38-.872 2.868-2.038l.426-1.015H46.252zm-1.717-4.107h25.288l1.29-3.075H43.673zm25.88-9.296H44.38c-1.46 0-2.08 1.385-1.788 3.132h30.033c.294-1.747-.325-3.132-1.784-3.132zm20.771-2.165c-.249-1.649-1.75-2.724-3.345-2.395 0 0-3.408 2.763-6.451 4.198l-4.683 2.208c-.85.543-1.513.694-1.907 1.265-.376.553-.5 1.32-.293 2.678 0 0 .24 1.595 3.129 1l11.57-2.377c1.595-.329 2.688-1.932 2.436-3.584zm3.236-6.327h-4.935c-1.19 0-1.528-1.036-1.528-2.316 0-1.278.338-2.316 1.528-2.316h3.232c1.188 0 3.858 1.546 3.858 2.823 0 1.28-.965 1.81-2.155 1.81zm-70.134-19.34H12.9V54.33c0 2.462-.607 4.328-1.824 5.6-1.213 1.271-2.75 1.908-4.6 1.908-1.943 0-3.506-.631-4.69-1.888C.6 58.69.004 56.844.004 54.414V7.547c0-2.708.651-4.644 1.954-5.807C3.26.58 5.33-.002 8.169-.002h16.543c4.891 0 8.654.362 11.289 1.08 2.605.69 4.855 1.84 6.752 3.44 1.895 1.604 3.334 3.567 4.32 5.892.983 2.323 1.477 4.935 1.477 7.837 0 6.194-1.998 10.887-5.992 14.082-3.997 3.192-9.944 4.79-17.846 4.79zm8.292-25.173c-1.853-1.797-5.66-2.698-11.418-2.698H12.9v18.58h8.686c3.037 0 5.578-.303 7.62-.913 2.04-.607 3.594-1.603 4.666-2.983 1.072-1.383 1.607-3.196 1.607-5.436 0-2.679-.826-4.865-2.475-6.55zm.359 83.962c0 1.707-1.36 3.094-3.035 3.094h-6.065c-1.677 0-3.032-1.387-3.032-3.094v-3.116h12.132zm60.633 0c0 1.707-1.359 3.094-3.034 3.094h-6.066c-1.676 0-3.032-1.387-3.032-3.094v-3.116h12.132z"/></g></g></svg>