<svg xmlns="http://www.w3.org/2000/svg" width="110" height="99" viewBox="0 0 110 99"><g><g><path fill="#e89300" d="M99.674 75.431c0 2.4-1.016 5.406-3.408 7.464v2.375H75.598v.017h-41.19v-.017H13.757v-2.306c-2.414-2.065-3.411-5.12-3.411-7.533v-4.846V64.836c.39-2.178 2.994-3.175 4.96-5.27.488-.648.973-1.372 1.389-1.97.132-.266.252-.547.358-.845.217-.154.44-.3.666-.44l6.773-14.401c4.102-7.786 6.217-6.996 11.997-7.3 0 0 9.356-.453 18.524-.453 8.64 0 18.43.453 18.43.453 5.868.304 7.812-.416 12.085 7.3 0 0 3.096 6.702 6.762 14.41.296.182.585.377.865.585 1.43 3.939 6.005 5.052 6.519 7.931v5.245c.006.32 0 .504 0 .504v4.477s.005.085 0 .238zM96.266 95.59c0 1.886-1.54 3.413-3.44 3.413h-6.879c-1.896 0-3.44-1.527-3.44-3.413v-3.44h13.76zm-68.753 0c0 1.886-1.54 3.413-3.44 3.413h-6.879c-1.9 0-3.437-1.527-3.437-3.413v-3.44h13.756zm56.685-52.28c-1.413-2.633-2.125-4.066-4.914-4.226-2.625-.15-14.774-1.013-24.27-1.013-9.098 0-21.485.853-24.275 1.013-2.793.16-3.589 1.49-5.012 4.243-1 2.276-2.37 5.625-2.37 5.625 0 1.777 1.914 3.22 8.372 3.22 0 0 11.615-1.04 23.284-1.04 11.957 0 23.277 1.04 23.277 1.04 6.372-.05 8.372-1.443 8.372-3.22 0 0-1.38-3.305-2.464-5.642zM34.976 64.813c-.47-.663-1.232-.817-2.112-1.32l-5.478-2.566c-3.404-1.59-7.134-4.613-7.134-4.613-1.81-.367-3.508.827-3.793 2.663l-.514 3.32c-.285 1.832.954 3.616 2.763 3.979l13.122 2.636c3.135.63 3.532-1.033 3.532-1.033.241-1.54.06-2.436-.386-3.066zm58.589-5.78a3.181 3.181 0 0 0-3.798-2.642s-3.864 3.05-7.314 4.633a7606.06 7606.06 0 0 1-5.31 2.436c-.965.6-1.72.766-2.163 1.396-.426.61-.567 1.457-.332 2.956 0 0 .272 1.76 3.548 1.104l13.12-2.623c1.808-.363 3.047-2.133 2.762-3.956zm-73.447-9.538c0 1.413-.38 2.556-1.729 2.556h-5.6c-1.349 0-2.44-.583-2.44-1.996 0-1.414 3.025-3.116 4.374-3.116h3.666c1.35 0 1.729 1.146 1.729 2.556zm79.556.56c0 1.413-1.095 1.996-2.444 1.996H91.63c-1.347 0-1.726-1.143-1.726-2.556 0-1.41.38-2.556 1.726-2.556H95.3c1.346 0 4.374 1.706 4.374 3.116zM70.005 61.423h-30c-1.66 0-2.414 1.52-2.076 3.456h34.15c.34-1.936-.412-3.456-2.074-3.456zM42.609 76.215c.554 1.286 1.991 2.25 3.253 2.25h18.269c1.262 0 2.699-.964 3.252-2.25l.483-1.12H42.128zM70.8 68.29H39.205l1.458 3.392h28.674zm39.2-47.04c-.106 2.572-1.18 2.651-6.874 2.651 0 0-25.818-6.826-48.125-6.826-22.378 0-48.125 6.826-48.125 6.826-5.693 0-6.767-.079-6.875-2.652 0 0 1.245-.593 3.37-1.583C13.73 15.163 48.125-.048 55 .012c6.925-.023 41.112 15.068 51.455 19.574A497.08 497.08 0 0 1 110 21.249z"/></g></g></svg>