<svg xmlns="http://www.w3.org/2000/svg" width="116" height="102" viewBox="0 0 116 102"><g><g><path fill="#f1a606" d="M113.825 25.254H1.775v-4.356c0-1.988 1.65-3.6 3.685-3.6h104.68c2.035 0 3.685 1.612 3.685 3.6z"/></g><g><path fill="#fff" d="M110.602 101.878H6.015c-2.87 0-5.206-2.351-5.206-5.24v-77.09c0-2.89 2.336-5.241 5.206-5.241h28.218V6.673c0-3.612 2.919-6.551 6.507-6.551h35.137c3.588 0 6.508 2.939 6.508 6.55v7.635h28.217c2.87 0 5.205 2.35 5.205 5.24v77.09c0 2.89-2.335 5.24-5.205 5.24zM79.432 6.673c0-1.974-1.595-3.58-3.555-3.58H40.74c-1.96 0-3.555 1.606-3.555 3.58v7.634h42.248zm33.423 12.875a2.264 2.264 0 0 0-2.253-2.27H6.015a2.264 2.264 0 0 0-2.254 2.27v77.09a2.264 2.264 0 0 0 2.254 2.268h104.587a2.264 2.264 0 0 0 2.253-2.269zm-6.2 74.602H78.51a1.482 1.482 0 0 1-1.476-1.486c0-.82.661-1.486 1.476-1.486h26.67V64.329c0-.82.66-1.485 1.476-1.485.814 0 1.476.665 1.476 1.485v28.335c0 .82-.662 1.486-1.476 1.486zm-2.264-56.305H92.803v6.354c0 .82-.661 1.486-1.476 1.486H80.909a1.482 1.482 0 0 1-1.476-1.486v-6.354H37.185v6.354c0 .82-.661 1.486-1.476 1.486H25.29a1.482 1.482 0 0 1-1.477-1.486v-6.354H12.226a1.481 1.481 0 0 1-1.476-1.486c0-.82.66-1.486 1.476-1.486h11.588v-6.355c0-.82.662-1.486 1.477-1.486h10.418c.815 0 1.476.665 1.476 1.486v6.355h42.248v-6.355c0-.82.66-1.486 1.476-1.486h10.418c.815 0 1.476.665 1.476 1.486v6.355h11.588c.815 0 1.476.666 1.476 1.486s-.66 1.486-1.476 1.486zm-70.158-7.841h-7.466v12.709h7.466zm55.618 0h-7.466v12.709h7.466z"/></g></g></svg>