<svg xmlns="http://www.w3.org/2000/svg" width="120" height="118" viewBox="0 0 120 118"><g><g><path fill="#f1a606" d="M73.942 53.775c0-11.603-9.406-21.01-21.01-21.01-11.603 0-21.01 9.407-21.01 21.01 0 11.604 9.407 21.01 21.01 21.01 11.604 0 21.01-9.406 21.01-21.01z"/></g><g><path fill="#fff" d="M119.995 89.575c0 15.665-12.739 28.409-28.397 28.409-9.882 0-18.592-5.083-23.68-12.766a53.65 53.65 0 0 1-14.34 1.973c-29.544 0-53.579-24.046-53.579-53.601C0 24.034 24.034-.011 53.577-.011c29.543 0 53.578 24.045 53.578 53.601a53.91 53.91 0 0 1-1.255 11.483c8.416 4.936 14.095 14.058 14.095 24.502zm-15.89-34.481h-5.499a1.504 1.504 0 0 1 0-3.008h5.505c-.785-26.702-22.34-48.267-49.03-49.052V8.54a1.504 1.504 0 0 1-3.007 0V3.034c-26.69.785-48.246 22.35-49.03 49.052h5.503a1.504 1.504 0 0 1 0 3.008H3.043c.785 26.702 22.341 48.267 49.031 49.052v-5.508a1.504 1.504 0 0 1 3.006 0v5.491a50.967 50.967 0 0 0 11.273-1.604 28.21 28.21 0 0 1-3.152-12.95c0-15.664 12.739-28.41 28.397-28.41 4.11 0 8.007.897 11.537 2.475.56-2.805.886-5.666.97-8.546zm-12.507 9.08c-14 0-25.391 11.395-25.391 25.401 0 14.007 11.39 25.402 25.391 25.402 14 0 25.391-11.395 25.391-25.402 0-14.006-11.39-25.402-25.391-25.402zm14.757 25.4c0-.394-.136-.728-.408-1a1.364 1.364 0 0 0-1.002-.41c-.394 0-.728.137-1 .41-.273.272-.41.606-.41 1v8.463h-2.819V81.113h2.82v4.484c.47-.169.94-.254 1.41-.254 1.165 0 2.161.414 2.989 1.242.826.828 1.24 1.824 1.24 2.99v8.462h-2.82zM90.98 92.397H85.34v-2.821l4.23-8.462h4.229v16.924h-2.82zm0-8.463l-2.82 5.642h2.116c.47 0 .704-.235.704-.706zm-16.555 8.463c0-1.166.413-2.163 1.24-2.99.827-.828 1.823-1.242 2.99-1.242.394 0 .727-.136 1-.409.272-.272.409-.606.409-1v-1.412c0-.394-.137-.728-.409-1.001a1.365 1.365 0 0 0-1-.409c-.395 0-.73.137-1.002.409-.273.273-.409.607-.409 1.001h-2.82c0-1.165.414-2.162 1.241-2.99.827-.827 1.823-1.24 2.99-1.24 1.164 0 2.16.413 2.988 1.24.827.828 1.24 1.825 1.24 2.99v1.411c0 1.166-.413 2.163-1.24 2.99-.827.828-1.824 1.241-2.989 1.241-.394 0-.729.137-1 .409-.274.274-.41.607-.41 1.002v2.116c0 .47.235.704.705.704h4.934v2.821h-8.458zM53.577 56.464c-.367 0-.716-.076-1.04-.202L27.903 74.905a1.5 1.5 0 0 1-2.106-.292 1.505 1.505 0 0 1 .292-2.106l24.643-18.648c-.009-.09-.028-.177-.028-.269 0-1.032.552-1.932 1.371-2.44V19.916a1.504 1.504 0 1 1 3.006 0V51.15a2.869 2.869 0 0 1 1.37 2.439 2.877 2.877 0 0 1-2.873 2.874zm-7.402-29.696c-.131.04-.261.06-.401.06a1.507 1.507 0 0 1-.401-2.957 1.51 1.51 0 0 1 1.854 1.053c.22.802-.25 1.624-1.052 1.844zm-6.945 2.988c-.24.15-.51.22-.77.22-.512 0-1.013-.26-1.293-.731a1.503 1.503 0 1 1 2.574-1.555c.432.712.2 1.635-.51 2.066zm-6.973 5.223c-.371 0-.742-.13-1.033-.412a1.503 1.503 0 1 1 1.032.411zm-4.64 6.485a1.499 1.499 0 0 1-1.323-2.205h-.01a1.518 1.518 0 0 1 2.035-.632 1.499 1.499 0 0 1 .631 2.035c-.27.511-.791.802-1.333.802zm-1.231 6.305a1.51 1.51 0 0 1-1.474 1.193c-.1 0-.2-.01-.31-.04a1.485 1.485 0 0 1-1.153-1.774 1.499 1.499 0 0 1 1.774-1.163 1.51 1.51 0 0 1 1.163 1.784zm-.562 7.549a1.51 1.51 0 0 1-1.413 1.593h-.09a1.489 1.489 0 0 1-1.493-1.413 1.49 1.49 0 0 1 1.403-1.594 1.504 1.504 0 0 1 1.593 1.414zm-.43 6.485a1.503 1.503 0 0 1 .992 2.837c-.16.06-.331.09-.492.09a1.506 1.506 0 0 1-.501-2.927z"/></g></g></svg>