<svg xmlns="http://www.w3.org/2000/svg" width="118" height="95" viewBox="0 0 118 95"><g><g><path fill="#f1a606" d="M0 46.486h20.875v48.48H0zm104-9.963H39.4v-4.85H104zM55.155 12.068a4.088 4.088 0 0 1-4.08 4.095 4.088 4.088 0 0 1-4.08-4.095 4.088 4.088 0 0 1 4.08-4.095 4.088 4.088 0 0 1 4.08 4.095zm6.362 0a4.088 4.088 0 0 1-4.08 4.095 4.042 4.042 0 0 1-1.75-.4 5.91 5.91 0 0 0 1.294-3.695 5.91 5.91 0 0 0-1.293-3.695c.53-.254 1.121-.4 1.748-.4a4.088 4.088 0 0 1 4.08 4.095zm32.61 4.095h-6.442a2.283 2.283 0 0 1-2.28-2.287V10.26a2.283 2.283 0 0 1 2.28-2.288h6.442a2.283 2.283 0 0 1 2.28 2.288v3.615a2.283 2.283 0 0 1-2.28 2.287z"/></g><g><path fill="#fff" d="M117.825 56.182a2.77 2.77 0 0 1-1.416 1.871L83.905 75.23c-5.28 2.792-11.174 4.09-17.042 3.756-17.81-1.016-29.234.494-32.34.984v8.018H21v-3.006h10.522V56.916H21V53.91h13.524v3.158c8.17-4.926 17.983-5.774 26.714-2.186 2.299.943 4.625 2.148 6.916 3.58.687.285 6.314 2.44 12.48-.575 2.572-1.26 5.458-1.222 7.721.1.277.161.54.336.792.522l15.51-6.625a14.393 14.393 0 0 1 1.962-.7c6.196-1.636 9.346.982 10.675 2.688.512.658.705 1.5.531 2.31zm-10.44-2.092c-.563.15-1.124.378-1.55.56L91.27 60.87c.646 1.29.241 2.913-1.007 3.762l-3.952 2.685A27.135 27.135 0 0 1 71 72.03h-5.404v-3.006H71c4.879 0 9.592-1.45 13.628-4.194l3.95-2.685c-.407-.58-1.003-1.134-1.735-1.562-1.391-.813-3.222-.81-4.892.005-7.867 3.849-14.834.71-15.127.573l-.167-.09c-2.178-1.37-4.384-2.516-6.558-3.408-8.273-3.4-18.035-2.249-25.575 2.98v16.28c3.845-.583 15.124-1.929 32.51-.938 5.33.307 10.672-.877 15.47-3.413l32.262-17.049c-1.119-1.3-3.288-2.513-7.38-1.433zm-8.679-10.705H44.954c-3.819 0-6.926-3.112-6.926-6.938V6.931c0-3.826 3.107-6.939 6.926-6.939h53.752c3.82 0 6.927 3.113 6.927 6.939v29.516c0 3.826-3.108 6.938-6.927 6.938zm3.926-36.454a3.933 3.933 0 0 0-3.926-3.933H44.954a3.933 3.933 0 0 0-3.925 3.933v29.516a3.933 3.933 0 0 0 3.925 3.932h53.752a3.933 3.933 0 0 0 3.926-3.932zM89.194 24.954h7.427v3.006h-7.427zm-14.052 0h7.427v3.006h-7.427zm-14.051 0h7.426v3.006h-7.426zm-14.051 0h7.425v3.006H47.04z"/></g></g></svg>