<svg xmlns="http://www.w3.org/2000/svg" width="110" height="119" viewBox="0 0 110 119"><g><g><path fill="#f1a606" d="M50.794 52.553H45.98a1.12 1.12 0 0 1-1.12-1.12v-4.815c0-.619.5-1.12 1.12-1.12h4.814c.619 0 1.12.501 1.12 1.12v4.815a1.12 1.12 0 0 1-1.12 1.12zm12.915 0h-4.815a1.12 1.12 0 0 1-1.12-1.12v-4.815c0-.619.501-1.12 1.12-1.12h4.815c.618 0 1.12.501 1.12 1.12v4.815a1.12 1.12 0 0 1-1.12 1.12zm-18.85 11.794v-4.814c0-.619.502-1.12 1.12-1.12h4.815c.619 0 1.12.501 1.12 1.12v4.814a1.12 1.12 0 0 1-1.12 1.12H45.98a1.12 1.12 0 0 1-1.12-1.12zm12.915 0v-4.814c0-.619.501-1.12 1.12-1.12h4.815c.618 0 1.12.501 1.12 1.12v4.814a1.12 1.12 0 0 1-1.12 1.12h-4.815a1.12 1.12 0 0 1-1.12-1.12z"/></g><g><path fill="#fff" d="M104.355 110.056H5.637a5.647 5.647 0 0 1-5.639-5.642V5.624A5.647 5.647 0 0 1 5.637-.019h98.718a5.647 5.647 0 0 1 5.638 5.643v98.79a5.647 5.647 0 0 1-5.638 5.642zm2.631-104.432a2.636 2.636 0 0 0-2.631-2.633H5.637a2.636 2.636 0 0 0-2.631 2.633v98.79a2.636 2.636 0 0 0 2.63 2.633h98.719a2.636 2.636 0 0 0 2.631-2.633zm-10.131 92.79H13.137c-.83 0-1.504-.674-1.504-1.505v-83.78c0-.83.673-1.504 1.504-1.504h83.718c.83 0 1.504.673 1.504 1.505v83.779c0 .83-.673 1.504-1.504 1.504zm-1.504-83.78h-80.71v80.77h80.71zM31.793 66.922a26.122 26.122 0 0 1-2.874-11.905c0-4.15.994-8.248 2.884-11.925l-4.495-4.5a4.03 4.03 0 0 1 0-5.69l5.59-5.593a3.99 3.99 0 0 1 2.842-1.179c1.074 0 2.084.419 2.844 1.18l4.495 4.498a26.071 26.071 0 0 1 11.917-2.887c4.147 0 8.242.995 11.916 2.887l4.496-4.499a4.022 4.022 0 0 1 5.687 0l5.589 5.593a4.03 4.03 0 0 1 0 5.69l-4.495 4.5a26.116 26.116 0 0 1 2.884 11.925c0 4.142-.99 8.234-2.875 11.905l4.486 4.49a4.03 4.03 0 0 1 0 5.69l-5.589 5.593a4.022 4.022 0 0 1-5.687 0l-4.476-4.48a26.062 26.062 0 0 1-11.936 2.898c-4.155 0-8.257-.998-11.936-2.897l-4.476 4.48c-.76.76-1.77 1.179-2.844 1.179a3.993 3.993 0 0 1-2.844-1.18l-5.588-5.592a4.03 4.03 0 0 1 0-5.692zm-2.359 8.053l5.59 5.593c.383.383 1.05.383 1.433 0l3.932-3.935a26.187 26.187 0 0 1-4.072-3.407 1.505 1.505 0 0 1 .028-2.127 1.503 1.503 0 0 1 2.126.027 23.155 23.155 0 0 0 4.88 3.817l.188.109a23.044 23.044 0 0 0 11.457 3.051 23.05 23.05 0 0 0 11.457-3.051l.998-.573 6.083 6.089c.396.396 1.04.395 1.435 0l5.589-5.593a1.017 1.017 0 0 0 0-1.436l-3.941-3.944a26.231 26.231 0 0 1-2.649 3.326 1.499 1.499 0 0 1-1.095.472 1.506 1.506 0 0 1-1.093-2.537 23.202 23.202 0 0 0 3.197-4.305l.06-.105a23.092 23.092 0 0 0 3.029-11.429 23.09 23.09 0 0 0-3.04-11.447l-.57-.998 6.102-6.107a1.018 1.018 0 0 0 0-1.435l-5.59-5.593a1.015 1.015 0 0 0-1.434 0l-3.952 3.955c1.254.849 2.44 1.801 3.532 2.856a1.506 1.506 0 0 1-1.044 2.588c-.377 0-.753-.14-1.045-.423a23.178 23.178 0 0 0-4.493-3.385l-.097-.056a23.047 23.047 0 0 0-11.439-3.041c-4.01 0-7.966 1.051-11.44 3.041l-.997.571-6.102-6.106a1.008 1.008 0 0 0-.717-.297c-.27 0-.525.105-.716.297l-5.59 5.593a1.018 1.018 0 0 0 0 1.435l3.95 3.954a26.21 26.21 0 0 1 3.253-3.935 1.503 1.503 0 1 1 2.118 2.137 23.164 23.164 0 0 0-3.684 4.764l-.106.185a23.092 23.092 0 0 0-3.039 11.447c0 4.006 1.048 7.958 3.03 11.43l.568.997-6.09 6.095a1.017 1.017 0 0 0 0 1.436zm-16.297 36.967c.83 0 1.503.673 1.503 1.505v2.52H31.29v-2.52a1.504 1.504 0 1 1 3.007 0v4.024c0 .832-.673 1.505-1.504 1.505H13.137c-.831 0-1.504-.673-1.504-1.505v-4.024c0-.832.673-1.505 1.504-1.505zm64.063 0c.83 0 1.504.673 1.504 1.505v2.52H95.35v-2.52a1.504 1.504 0 1 1 3.008 0v4.024c0 .832-.673 1.505-1.504 1.505H77.2c-.83 0-1.504-.673-1.504-1.505v-4.024c0-.832.673-1.505 1.504-1.505z"/></g></g></svg>