<svg xmlns="http://www.w3.org/2000/svg" width="11" height="16" viewBox="0 0 11 16"><g><g><path fill="#3093f1" d="M11 6.163c0 4.19-4.821 9.099-5.027 9.305a.665.665 0 0 1-.946 0C4.82 15.262 0 10.352 0 6.163 0 4.239.608 2.68 1.759 1.656 2.716.802 4.045.333 5.499.333c1.456 0 2.785.47 3.742 1.323C10.391 2.68 11 4.239 11 6.163zm-1.333 0c0-1.055-.3-4.497-4.167-4.497-.978 0-4.167.324-4.167 4.497 0 1.482.794 3.39 2.295 5.52A25.782 25.782 0 0 0 5.5 14.022c1.182-1.314 4.168-4.925 4.168-7.86zm-1.513-.26C8.154 7.39 6.964 8.6 5.5 8.6c-1.463 0-2.653-1.21-2.653-2.696 0-1.486 1.19-2.695 2.653-2.695s2.654 1.209 2.654 2.695zm-1.167 0c0-.843-.667-1.529-1.487-1.529-.82 0-1.487.686-1.487 1.53 0 .842.667 1.528 1.487 1.528.82 0 1.487-.686 1.487-1.529z"/></g></g></svg>