<svg xmlns="http://www.w3.org/2000/svg" width="56" height="56" viewBox="0 0 56 56"><g><g><path fill="#4e8b25" d="M39.964 24.006a4.826 4.826 0 0 1-2.483 3.362l.675 15.067a2.915 2.915 0 0 1-.953 2.442 3.26 3.26 0 0 1-4.606-.207 2.955 2.955 0 0 1-.746-2.298l.67-15.001a4.829 4.829 0 0 1-2.486-3.365 11.078 11.078 0 0 1 .31-5.133l.598-1.972a4.284 4.284 0 0 1 8.113 0l.6 1.972c.503 1.664.61 3.421.308 5.133zM37.87 19.42l-.6-1.973a2.42 2.42 0 0 0-4.54 0l-.598 1.973a9.201 9.201 0 0 0-.257 4.261 2.96 2.96 0 0 0 1.937 2.23.933.933 0 0 1 .604.916L33.71 42.52c-.047.328.053.661.274.908a1.442 1.442 0 0 0 2.03 0 1.08 1.08 0 0 0 .28-.845l-.71-15.756a.933.933 0 0 1 .604-.916 2.96 2.96 0 0 0 1.937-2.23c.249-1.42.16-2.88-.257-4.26zm-11.736-4.488v8.4a.934.934 0 0 1-.273.66L23.353 26.5l.796 15.922a3.153 3.153 0 1 1-6.298 0l.796-15.922-2.507-2.508a.934.934 0 0 1-.274-.66v-8.4a.934.934 0 1 1 1.867 0v8.014l2.528 2.527a.933.933 0 0 1 .272.705l-.822 16.334c-.02.352.108.697.352.951l.009.008a1.314 1.314 0 0 0 1.858-.008c.245-.254.373-.599.353-.95l-.817-16.335a.933.933 0 0 1 .274-.705l2.527-2.527v-8.014a.934.934 0 1 1 1.866 0zm-5.6 0V22.4a.934.934 0 1 1-1.867 0v-7.467a.934.934 0 1 1 1.867 0zm2.8 0V22.4a.934.934 0 0 1-1.867 0v-7.467a.934.934 0 0 1 1.867 0zM56 28c0 15.464-12.536 28-28 28s-28-12.536-28-28S12.536 0 28 0c15.456.018 27.982 12.544 28 28zm-1.867 0c0-14.433-11.7-26.134-26.133-26.134S1.866 13.566 1.866 28 13.566 54.132 28 54.132c14.426-.016 26.117-11.707 26.133-26.133zM30.191 46.54c-1.457.17-2.93.17-4.387-.001a.933.933 0 1 1 .218-1.854 17.09 17.09 0 0 0 3.956 0h-.004l.036-.003a.933.933 0 1 1 .181 1.857zm10.986-5.317a.933.933 0 0 1-1.318-1.323c6.187-6.165 6.618-16.044.99-22.724a.933.933 0 0 1 .112-1.315l.004-.003a.933.933 0 0 1 1.315.115c6.252 7.423 5.773 18.4-1.103 25.25zM33.09 10.98a.934.934 0 0 1-1.126.688 16.957 16.957 0 0 0-9.894.606.934.934 0 0 1-.654-1.746 18.83 18.83 0 0 1 10.986-.674c.501.12.81.624.688 1.126zM16.098 41.174a.935.935 0 0 1-1.322 0c-6.475-6.498-7.27-16.738-1.873-24.157A16.669 16.669 0 0 0 11.2 28a16.692 16.692 0 0 0 4.899 11.854.934.934 0 0 1 0 1.321z"/></g></g></svg>