<svg id="viber.svg" xmlns="http://www.w3.org/2000/svg" width="24" height="24" viewBox="0 0 24 24">
  <defs>
    <style>
      .cls-1 {
        fill: #7b519d;
      }

      .cls-2 {
        fill: #fff;
        fill-rule: evenodd;
      }
    </style>
  </defs>
  <rect id="Прямоугольник_9" data-name="Прямоугольник 9" class="cls-1" width="24" height="24" rx="3" ry="3"/>
  <path id="Фигура_31" data-name="Фигура 31" class="cls-2" d="M1427,6449.15a1.216,1.216,0,0,0,.72.16,4.815,4.815,0,0,1,2.88.97,4.954,4.954,0,0,1,1.98,3.22,8.041,8.041,0,0,1,.12,1.1,1.158,1.158,0,0,0,.09.55,0.642,0.642,0,0,0,.5.32h0.07a0.644,0.644,0,0,0,.49-0.22,0.98,0.98,0,0,0,.14-0.73,7.372,7.372,0,0,0-.76-3.09,5.525,5.525,0,0,0-1.18-1.59,5.932,5.932,0,0,0-1.73-1.22,6.09,6.09,0,0,0-2.01-.55c-0.15-.01-0.44-0.04-0.64-0.04a0.828,0.828,0,0,0-.71.15,0.663,0.663,0,0,0-.2.49A0.611,0.611,0,0,0,1427,6449.15Zm3.83,5a0.763,0.763,0,0,0,.35.79,0.683,0.683,0,0,0,.32.07,0.567,0.567,0,0,0,.27-0.06,0.783,0.783,0,0,0,.32-0.33,3.619,3.619,0,0,0,.01-0.93,4.456,4.456,0,0,0-.75-2.03,4.523,4.523,0,0,0-3.25-1.91,0.943,0.943,0,0,0-1.06.23,0.632,0.632,0,0,0,.05.77,0.835,0.835,0,0,0,.58.24,4.045,4.045,0,0,1,1.62.47h0a3.058,3.058,0,0,1,1.16,1.18A3.19,3.19,0,0,1,1430.83,6454.15Zm-1.24-2a2.316,2.316,0,0,0-1.17-.58c-0.12-.02-0.3-0.04-0.42-0.05a0.742,0.742,0,0,0-.43.06,0.646,0.646,0,0,0-.33.44,0.6,0.6,0,0,0,.14.53,0.777,0.777,0,0,0,.59.25,1.037,1.037,0,0,1,.95.56,1.714,1.714,0,0,1,.15.63,0.673,0.673,0,0,0,.26.54,0.62,0.62,0,0,0,.4.13,0.636,0.636,0,0,0,.42-0.15h0a0.868,0.868,0,0,0,.18-0.87A2.389,2.389,0,0,0,1429.59,6452.15Zm4.4,7.14a1.124,1.124,0,0,0-.26-0.68,16.114,16.114,0,0,0-1.61-1.28,12.771,12.771,0,0,0-1.16-.7,1.471,1.471,0,0,0-1.14-.1,1.207,1.207,0,0,0-.19.08,2.126,2.126,0,0,0-.6.59l-0.36.42a0.967,0.967,0,0,1-.12.07,1.606,1.606,0,0,1-1.15-.27,5.949,5.949,0,0,1-1.42-.98,6.345,6.345,0,0,1-1.08-1.24,3.38,3.38,0,0,1-.52-1.4,0.749,0.749,0,0,1,.1-0.36l0.02-.02a0.236,0.236,0,0,1,.05-0.05c0.08-.08.2-0.17,0.32-0.27a1.761,1.761,0,0,0,.8-0.91,1.55,1.55,0,0,0-.24-1.14,10.86,10.86,0,0,0-2.08-2.58,1.426,1.426,0,0,0-.99-0.21,3.157,3.157,0,0,0-1.15.66,4.871,4.871,0,0,0-1,.96,1.934,1.934,0,0,0,.06,1.85,14.622,14.622,0,0,0,1.09,2.31l0.02,0.04c0.09,0.15.18,0.3,0.28,0.45l0.02,0.04c0.09,0.15.19,0.3,0.29,0.45l0.16,0.22c0.05,0.09.11,0.17,0.17,0.26,0.12,0.16.24,0.33,0.37,0.49a17.433,17.433,0,0,0,4.76,4.31l0.07,0.05c0.27,0.16.55,0.33,0.85,0.49l0.11,0.06c0.31,0.16.6,0.31,0.89,0.44l0.09,0.05c0.35,0.15.66,0.29,0.96,0.41a1.9,1.9,0,0,0,.8.2c0.04,0,.09-0.01.14-0.01a2.115,2.115,0,0,0,.46-0.07,2.3,2.3,0,0,0,.62-0.32,1.463,1.463,0,0,1,.13-0.09,1.738,1.738,0,0,0,.15-0.13,5.658,5.658,0,0,0,.8-0.87,2.854,2.854,0,0,0,.38-0.63,1.4,1.4,0,0,0,.11-0.59h0Z" transform="translate(-1415 -6443)"/>
</svg>
