<svg id="vk.svg" xmlns="http://www.w3.org/2000/svg" width="24" height="24" viewBox="0 0 24 24">
  <defs>
    <style>
      .cls-1 {
        fill: #4680c2;
      }

      .cls-2 {
        fill: #fff;
        fill-rule: evenodd;
      }
    </style>
  </defs>
  <rect id="Прямоугольник_9" data-name="Прямоугольник 9" class="cls-1" width="24" height="24" rx="3" ry="3"/>
  <path id="Фигура_30" data-name="Фигура 30" class="cls-2" d="M1403.28,6455.68a0.512,0.512,0,0,1,0-.76,21.45,21.45,0,0,0,2.36-3.96h0c0.11-.37,0-0.64-0.53-0.64h-1.75a0.744,0.744,0,0,0-.76.49,14.242,14.242,0,0,1-2.15,3.52,1.3,1.3,0,0,1-.82.53c-0.11,0-.28-0.13-0.28-0.49v-3.41c0-.44-0.12-0.64-0.49-0.64h-2.75a0.427,0.427,0,0,0-.45.4c0,0.41.63,0.51,0.7,1.68v2.53c0,0.56-.1.66-0.32,0.66-0.6,0-2.04-2.14-2.9-4.6a0.762,0.762,0,0,0-.79-0.67h-1.75c-0.5,0-.6.24-0.6,0.49,0,0.46.6,2.72,2.77,5.71a6.819,6.819,0,0,0,5.33,3.15c1.12,0,1.25-.24,1.25-0.67,0-1.95-.1-2.13.46-2.13,0.26,0,.71.13,1.75,1.11,1.18,1.17,1.38,1.69,2.04,1.69h1.75c0.5,0,.75-0.24.61-0.73C1405.63,6457.92,1403.38,6455.82,1403.28,6455.68Z" transform="translate(-1386 -6443)"/>
</svg>
