<svg id="whatsapp.svg" xmlns="http://www.w3.org/2000/svg" width="24" height="24" viewBox="0 0 24 24">
  <defs>
    <style>
      .cls-1 {
        fill: #65bc54;
      }

      .cls-2 {
        fill: #fff;
        fill-rule: evenodd;
      }
    </style>
  </defs>
  <rect id="Прямоугольник_9" data-name="Прямоугольник 9" class="cls-1" width="24" height="24" rx="3" ry="3"/>
  <path id="Фигура_32" data-name="Фигура 32" class="cls-2" d="M1460.39,6456.14v0.05c-1.56-.78-1.72-0.88-1.92-0.58-0.14.21-.55,0.69-0.67,0.83a0.353,0.353,0,0,1-.46.05,5.944,5.944,0,0,1-1.7-1.05,6.381,6.381,0,0,1-1.17-1.47c-0.21-.36.22-0.41,0.62-1.16a0.4,0.4,0,0,0-.02-0.37c-0.05-.1-0.47-1.14-0.65-1.56a0.417,0.417,0,0,0-.48-0.36,1.056,1.056,0,0,0-.97.24c-1.14,1.26-.85,2.56.13,3.93,1.92,2.52,2.94,2.98,4.81,3.63a2.963,2.963,0,0,0,1.33.08,2.167,2.167,0,0,0,1.43-1.01,1.8,1.8,0,0,0,.13-1.01,0.847,0.847,0,0,0-.41-0.24h0Zm2.14-7.69a8.49,8.49,0,0,0-14.45,5.98,8.4,8.4,0,0,0,1.12,4.21L1448,6463l4.49-1.17a8.468,8.468,0,0,0,12.5-7.4,8.359,8.359,0,0,0-2.47-5.95Zm1.05,5.96a7.052,7.052,0,0,1-10.63,6.02l-0.25-.15-2.66.69,0.71-2.58-0.17-.27a7.024,7.024,0,1,1,13-3.71h0Z" transform="translate(-1444 -6443)"/>
</svg>
