<svg 
 xmlns="http://www.w3.org/2000/svg"
 xmlns:xlink="http://www.w3.org/1999/xlink"
 width="11px" height="11px">
<path fill-rule="evenodd"  fill="rgb(139, 139, 140)"
 d="M10.623,2.165 L7.291,5.499 L10.623,8.833 C11.119,9.329 11.119,10.133 10.623,10.629 C10.375,10.877 10.051,11.001 9.726,11.001 C9.401,11.001 9.077,10.877 8.829,10.629 L5.497,7.294 L2.165,10.629 C1.917,10.877 1.593,11.001 1.268,11.001 C0.943,11.001 0.619,10.877 0.371,10.629 C-0.124,10.133 -0.124,9.329 0.371,8.833 L3.703,5.499 L0.371,2.165 C-0.125,1.669 -0.125,0.865 0.371,0.369 C0.866,-0.126 1.669,-0.126 2.165,0.369 L5.497,3.703 L8.829,0.369 C9.325,-0.126 10.127,-0.126 10.623,0.369 C11.119,0.865 11.119,1.669 10.623,2.165 Z"/>
</svg>