<svg 
 xmlns="http://www.w3.org/2000/svg"
 xmlns:xlink="http://www.w3.org/1999/xlink"
 width="19px" height="22px">
<path fill-rule="evenodd"  fill="rgb(255, 255, 255)"
 d="M18.679,20.723 C18.627,21.443 17.939,21.999 17.117,21.999 L1.883,21.999 C1.071,21.999 0.384,21.443 0.332,20.732 L-0.012,16.428 C-0.147,14.623 1.384,12.626 3.404,11.979 C7.340,10.739 11.661,10.739 15.596,11.970 C17.627,12.626 19.158,14.623 19.012,16.428 L18.679,20.723 ZM14.524,14.541 C11.286,13.529 7.714,13.529 4.466,14.550 C3.674,14.805 3.070,15.753 3.112,16.237 L3.341,19.264 L15.659,19.264 L15.898,16.237 C15.930,15.753 15.367,14.814 14.524,14.541 ZM9.589,10.711 C6.548,10.711 4.070,8.304 4.070,5.350 C4.070,2.396 6.548,-0.011 9.589,-0.011 C12.629,-0.011 15.107,2.396 15.107,5.350 C15.107,8.304 12.629,10.711 9.589,10.711 ZM9.589,2.724 C8.266,2.724 7.194,3.901 7.194,5.350 C7.194,6.800 8.266,7.976 9.589,7.976 C10.911,7.976 11.983,6.800 11.983,5.350 C11.983,3.901 10.911,2.724 9.589,2.724 Z"/>
</svg>