<svg 
 xmlns="http://www.w3.org/2000/svg"
 xmlns:xlink="http://www.w3.org/1999/xlink"
 width="16px" height="15px">
<path fill-rule="evenodd"  fill="rgb(255, 255, 255)"
 d="M14.946,8.028 L8.702,14.307 C8.304,14.706 7.661,14.706 7.264,14.307 C6.867,13.907 6.867,13.260 7.264,12.860 L12.789,7.305 L7.264,1.749 C6.867,1.349 6.867,0.702 7.264,0.303 C7.661,-0.097 8.305,-0.097 8.702,0.303 L14.946,6.582 C15.144,6.781 15.243,7.043 15.243,7.305 C15.243,7.566 15.144,7.828 14.946,8.028 ZM9.243,7.305 C9.243,7.566 9.144,7.828 8.946,8.028 L2.702,14.307 C2.304,14.706 1.661,14.706 1.264,14.307 C0.867,13.907 0.867,13.260 1.264,12.860 L6.789,7.305 L1.264,1.749 C0.867,1.349 0.867,0.702 1.264,0.303 C1.661,-0.097 2.305,-0.097 2.702,0.303 L8.946,6.582 C9.144,6.781 9.243,7.043 9.243,7.305 Z"/>
</svg>