<svg 
 xmlns="http://www.w3.org/2000/svg"
 xmlns:xlink="http://www.w3.org/1999/xlink"
 width="13px" height="21px">
<path fill-rule="evenodd"  fill="rgb(255, 255, 255)"
 d="M12.511,9.287 L3.879,0.511 C3.561,0.170 3.164,-0.001 2.687,-0.001 C2.210,-0.001 1.813,0.170 1.496,0.511 L0.489,1.522 C0.163,1.855 -0.001,2.259 -0.001,2.735 C-0.001,3.203 0.163,3.612 0.489,3.962 L6.924,10.500 L0.489,17.051 C0.163,17.384 -0.001,17.788 -0.001,18.265 C-0.001,18.732 0.163,19.141 0.489,19.491 L1.495,20.502 C1.822,20.835 2.219,21.001 2.687,21.001 C3.155,21.001 3.552,20.835 3.879,20.502 L12.511,11.727 C12.837,11.376 13.001,10.967 13.001,10.500 C13.001,10.024 12.837,9.619 12.511,9.287 Z"/>
</svg>