<svg 
 xmlns="http://www.w3.org/2000/svg"
 xmlns:xlink="http://www.w3.org/1999/xlink"
 width="15px" height="18px">
<path fill-rule="evenodd"  fill="rgb(255, 255, 255)"
 d="M8.176,17.313 C7.994,17.469 7.750,17.550 7.498,17.550 C7.254,17.550 7.009,17.469 6.821,17.313 C6.122,16.731 -0.009,11.548 -0.009,7.734 C-0.009,3.716 3.357,0.444 7.498,0.444 C11.639,0.444 15.005,3.716 15.005,7.734 C15.005,11.562 8.874,16.731 8.176,17.313 ZM7.498,2.476 C4.516,2.476 2.086,4.834 2.086,7.734 C2.086,9.800 5.382,13.289 7.498,15.179 C9.614,13.289 12.910,9.800 12.910,7.734 C12.910,4.834 10.487,2.476 7.498,2.476 ZM3.658,7.734 C3.658,5.674 5.382,4.008 7.498,4.008 C9.614,4.008 11.339,5.674 11.339,7.734 C11.339,9.787 9.614,11.460 7.498,11.460 C5.382,11.460 3.658,9.787 3.658,7.734 ZM9.244,7.734 C9.244,6.799 8.462,6.040 7.498,6.040 C6.534,6.040 5.752,6.799 5.752,7.734 C5.752,8.662 6.534,9.427 7.498,9.427 C8.462,9.427 9.244,8.662 9.244,7.734 Z"/>
</svg>