<svg 
 xmlns="http://www.w3.org/2000/svg"
 xmlns:xlink="http://www.w3.org/1999/xlink"
 width="13px" height="21px">
<path fill-rule="evenodd"  fill="rgb(255, 255, 255)"
 d="M0.489,11.692 L9.121,20.310 C9.439,20.646 9.836,20.813 10.313,20.813 C10.789,20.813 11.186,20.646 11.504,20.310 L12.511,19.317 C12.837,18.991 13.000,18.594 13.000,18.126 C13.000,17.667 12.837,17.265 12.511,16.921 L6.076,10.500 L12.511,4.066 C12.837,3.739 13.001,3.342 13.001,2.874 C13.001,2.415 12.837,2.013 12.511,1.669 L11.505,0.676 C11.178,0.350 10.781,0.186 10.313,0.186 C9.845,0.186 9.448,0.350 9.121,0.676 L0.489,9.295 C0.163,9.639 -0.001,10.041 -0.001,10.500 C-0.001,10.968 0.163,11.365 0.489,11.692 Z"/>
</svg>