<svg 
 xmlns="http://www.w3.org/2000/svg"
 xmlns:xlink="http://www.w3.org/1999/xlink"
 width="21px" height="22px">
<path fill-rule="evenodd"  fill="rgb(255, 101, 65)"
 d="M20.534,19.118 L16.205,14.583 C17.248,13.006 17.770,11.247 17.770,9.308 C17.770,8.047 17.536,6.842 17.069,5.691 C16.603,4.541 15.971,3.549 15.176,2.716 C14.381,1.883 13.435,1.222 12.337,0.733 C11.239,0.244 10.088,-0.001 8.884,-0.001 C7.681,-0.001 6.531,0.244 5.433,0.733 C4.335,1.222 3.388,1.883 2.593,2.716 C1.798,3.549 1.167,4.541 0.700,5.691 C0.233,6.842 -0.001,8.047 -0.001,9.308 C-0.001,10.568 0.233,11.773 0.700,12.924 C1.167,14.074 1.798,15.065 2.593,15.899 C3.388,16.732 4.335,17.393 5.433,17.882 C6.531,18.371 7.681,18.616 8.884,18.616 C10.736,18.616 12.415,18.069 13.921,16.976 L18.249,21.498 C18.552,21.833 18.931,22.000 19.385,22.000 C19.823,22.000 20.202,21.833 20.521,21.498 C20.841,21.163 21.001,20.766 21.001,20.308 C21.001,19.841 20.845,19.444 20.534,19.118 ZM12.879,13.492 C11.773,14.652 10.441,15.231 8.884,15.231 C7.328,15.231 5.997,14.651 4.890,13.492 C3.784,12.333 3.230,10.938 3.230,9.307 C3.230,7.677 3.784,6.282 4.890,5.123 C5.996,3.964 7.328,3.384 8.884,3.384 C10.441,3.384 11.773,3.964 12.879,5.123 C13.986,6.282 14.539,7.677 14.539,9.307 C14.539,10.938 13.986,12.333 12.879,13.492 Z"/>
</svg>