<svg 
 xmlns="http://www.w3.org/2000/svg"
 xmlns:xlink="http://www.w3.org/1999/xlink"
 width="22px" height="24px">
<path fill-rule="evenodd"  fill="rgb(255, 255, 255)"
 d="M21.951,19.636 L20.313,10.436 C20.012,8.772 18.583,7.476 17.063,7.476 L15.688,7.476 L15.688,5.712 C15.688,3.046 13.548,0.886 10.908,0.886 C8.277,0.886 6.129,3.046 6.129,5.712 L6.129,7.476 L4.918,7.476 C3.398,7.476 1.968,8.781 1.659,10.445 L0.029,19.627 C-0.126,20.491 0.084,21.327 0.621,21.989 C1.204,22.687 2.105,23.092 3.106,23.101 L18.874,23.101 C19.876,23.101 20.777,22.687 21.360,21.989 C21.897,21.327 22.106,20.491 21.951,19.636 ZM8.860,5.712 C8.860,4.572 9.779,3.644 10.908,3.644 C12.037,3.644 12.957,4.572 12.957,5.712 L12.957,7.476 L8.860,7.476 L8.860,5.712 ZM19.257,20.224 C19.211,20.279 19.075,20.344 18.874,20.344 L3.106,20.344 C2.906,20.344 2.769,20.279 2.724,20.224 C2.715,20.215 2.706,20.196 2.715,20.123 L4.353,10.941 C4.426,10.509 4.791,10.233 4.918,10.233 L6.129,10.233 L6.129,11.686 C6.129,12.448 6.748,13.064 7.494,13.064 C8.250,13.064 8.860,12.448 8.860,11.686 L8.860,10.233 L12.957,10.233 L12.957,11.686 C12.957,12.448 13.576,13.064 14.322,13.064 C15.078,13.064 15.688,12.448 15.688,11.686 L15.688,10.233 L17.063,10.233 C17.190,10.233 17.554,10.500 17.627,10.932 L19.266,20.132 L19.257,20.224 Z"/>
</svg>