<svg 
 xmlns="http://www.w3.org/2000/svg"
 xmlns:xlink="http://www.w3.org/1999/xlink"
 width="18px" height="18px">
<path fill-rule="evenodd"  fill="rgb(255, 255, 255)"
 d="M17.383,3.542 L11.931,8.998 L17.383,14.454 C18.194,15.266 18.194,16.581 17.383,17.393 C16.978,17.798 16.447,18.001 15.916,18.001 C15.384,18.001 14.853,17.798 14.448,17.393 L8.995,11.936 L3.543,17.393 C3.137,17.798 2.606,18.001 2.075,18.001 C1.544,18.001 1.013,17.798 0.607,17.393 C-0.204,16.582 -0.204,15.266 0.607,14.454 L6.059,8.998 L0.607,3.542 C-0.204,2.731 -0.204,1.416 0.607,0.604 C1.418,-0.207 2.731,-0.207 3.542,0.604 L8.995,6.060 L14.447,0.604 C15.258,-0.207 16.572,-0.207 17.383,0.604 C18.194,1.416 18.194,2.731 17.383,3.542 Z"/>
</svg>