<svg xmlns="http://www.w3.org/2000/svg" width="131" height="31" viewBox="0 0 131 31"><g><g><path fill="#5a79a9" d="M70.848 26.86V7.537L59.72 26.86h-3.307V2.518h3.257v19.013L70.65 2.518h3.455V26.86zM48.355 5.396h-8.301A181.875 181.875 0 0 1 39.922 9c-.013.273.411 6.215.073 8.853-.194 1.504-.444 2.762-.752 3.776-.298.992-.648 1.793-1.05 2.403a7.483 7.483 0 0 1-1.315 1.536 5.247 5.247 0 0 1-1.596 1.006c-.568.224-1.226.335-1.976.335-.073 0-.356-.041-.43-.043l-.417-2.48c.33-.015 1.254-.308 1.672-.62.29-.216.52-.48.762-.732.75-.73 1.299-2.029 1.646-3.898.644-3.466.27-11.655.274-11.779l.149-4.839h14.666V26.86h-3.273zm-28.945 6.67h9.412v2.876H19.41v9.041h10.54v2.877H16.136V2.518h13.512v2.878H19.41zM3.275 26.86H.001V2.518h13.137v2.878H3.275zM93.703 0c8.655 0 15.672 6.94 15.672 15.5 0 8.56-7.017 15.5-15.672 15.5-8.655 0-15.672-6.94-15.672-15.5 0-8.56 7.017-15.5 15.672-15.5zM79.906 15.5c0 7.525 6.177 13.625 13.797 13.625 7.62 0 13.797-6.1 13.797-13.625S101.323 1.875 93.703 1.875c-7.62 0-13.797 6.1-13.797 13.625zM128.81 6a10.778 10.778 0 0 0-2.051-.833c-.738-.218-1.593-.327-2.563-.327-1.047 0-2.04.213-2.976.637a7.03 7.03 0 0 0-2.464 1.88c-.694.829-1.235 1.87-1.62 3.123-.386 1.253-.58 2.664-.58 4.234 0 1.667.205 3.103.613 4.307.408 1.205.964 2.221 1.67 3.05a6.659 6.659 0 0 0 2.414 1.822 7.204 7.204 0 0 0 2.943.613c.948 0 1.825-.114 2.63-.343a10.104 10.104 0 0 0 2.149-.867c.525-.292.984-.591 1.385-.896l-.072.953.71 2.247-.692.328c-.48.23-1.061.453-1.745.67-.716.23-1.38.404-1.992.524-.612.12-1.409.18-2.389.18-1.61 0-3.09-.268-4.44-.801a9.451 9.451 0 0 1-3.497-2.387c-.981-1.057-1.742-2.376-2.282-3.956s-.81-3.395-.81-5.444c0-2.038.261-3.815.785-5.33.524-1.514 1.287-2.833 2.29-3.956a9.804 9.804 0 0 1 3.489-2.493c1.345-.571 2.85-.858 4.514-.858.827 0 1.601.06 2.323.18s1.392.272 2.01.457c.528.164 1.071.368 1.628.613.273.121.544.247.813.38l-.936 3.085c-.368-.266-.786-.53-1.257-.792z"/></g></g></svg>