<svg xmlns="http://www.w3.org/2000/svg" width="35" height="32" viewBox="0 0 35 32"><g><g><path fill="#65c308" d="M33.632 2.722c.755 0 1.367.607 1.367 1.356v26.565c0 .75-.612 1.356-1.367 1.356H1.366A1.362 1.362 0 0 1 0 30.643V4.078c0-.749.612-1.356 1.367-1.356H8.1V1.355c0-.749.612-1.356 1.367-1.356.756 0 1.368.607 1.368 1.356v1.367h13.33V1.355c0-.749.613-1.356 1.368-1.356.755 0 1.367.607 1.367 1.356v1.367zm-1.367 2.712h-5.366V6.8c0 .749-.612 1.356-1.367 1.356a1.362 1.362 0 0 1-1.367-1.356V5.434H10.834V6.8c0 .749-.613 1.356-1.368 1.356A1.362 1.362 0 0 1 8.1 6.801V5.434H2.734v23.853h29.53zM17.499 16.403c-1.02 0-1.846-.82-1.846-1.831 0-1.011.827-1.83 1.846-1.83 1.02 0 1.846.819 1.846 1.83 0 1.01-.826 1.83-1.846 1.83zm0 7.966c-1.02 0-1.846-.82-1.846-1.83 0-1.011.827-1.83 1.846-1.83 1.02 0 1.846.819 1.846 1.83 0 1.01-.826 1.83-1.846 1.83zm-8.033-7.966c-1.019 0-1.846-.82-1.846-1.831 0-1.011.827-1.83 1.846-1.83 1.02 0 1.846.819 1.846 1.83 0 1.01-.826 1.83-1.846 1.83zm16.066 0c-1.02 0-1.845-.82-1.845-1.831 0-1.011.826-1.83 1.845-1.83 1.02 0 1.846.819 1.846 1.83 0 1.01-.826 1.83-1.846 1.83zM9.466 24.369c-1.019 0-1.846-.82-1.846-1.83 0-1.011.827-1.83 1.846-1.83 1.02 0 1.846.819 1.846 1.83 0 1.01-.826 1.83-1.846 1.83zm16.066 0c-1.02 0-1.845-.82-1.845-1.83 0-1.011.826-1.83 1.845-1.83 1.02 0 1.846.819 1.846 1.83 0 1.01-.826 1.83-1.846 1.83z"/></g></g></svg>