<svg xmlns="http://www.w3.org/2000/svg" width="42" height="42" viewBox="0 0 42 42"><g><g><path fill="#65c308" d="M11.074 23.39c0 .685-.533 1.243-1.219 1.243a1.244 1.244 0 0 1 0-2.486c.685 0 1.219.558 1.219 1.244zM21.08 12.305a6.16 6.16 0 0 1-6.152-6.152 6.159 6.159 0 0 1 6.152-6.153 6.159 6.159 0 0 1 6.153 6.153 6.16 6.16 0 0 1-6.153 6.152zm3.692-6.152a3.696 3.696 0 0 0-3.691-3.692 3.696 3.696 0 0 0-3.692 3.692 3.695 3.695 0 0 0 3.692 3.69 3.696 3.696 0 0 0 3.69-3.69zm2.46 12.304c0 .68-.55 1.23-1.23 1.23H16.16a1.23 1.23 0 1 1 0-2.46h9.843c.68 0 1.23.55 1.23 1.23zm13.325.212A4.887 4.887 0 0 1 42 22.148a4.928 4.928 0 0 1-4.922 4.922h-.057a13.929 13.929 0 0 1-1.803 5.702 13.554 13.554 0 0 1-4.289 4.573c-.004 1.805-.004 3.406-.004 3.424 0 .68-.55 1.23-1.23 1.23h-4.922a1.23 1.23 0 0 1-1.23-1.23v-1.23H17.39c-.452 0-.93-.023-1.395-.065v1.295c0 .68-.55 1.23-1.23 1.23H9.843a1.23 1.23 0 0 1-1.23-1.23c0-.03 0-2.7-.006-4.331-1.39-1.162-2.582-2.684-3.44-4.37-.466-.002-1.055-.003-1.476-.003a3.689 3.689 0 0 1-3.692-3.683v-2.543a3.696 3.696 0 0 1 3.692-3.692h.552a13.5 13.5 0 0 1 3.139-5.535v-5.539c0-.679.551-1.23 1.23-1.23 2.37 0 4.6.979 6.23 2.71.868-.16 1.765-.249 2.548-.249h6.152c7.049 0 12.855 5.416 13.479 12.305h.057a2.463 2.463 0 0 0 1.74-4.202 1.23 1.23 0 1 1 1.74-1.74zm-5.942 7.171c0-6.106-4.967-11.074-11.074-11.074H17.39c-.825 0-1.817.123-2.72.337a1.23 1.23 0 0 1-1.25-.434 6.16 6.16 0 0 0-3.577-2.237v4.681c0 .33-.132.645-.366.876a11.048 11.048 0 0 0-2.892 4.923c-.023.147-.123.558-.172.758-.128.526-.588.94-1.239.94H3.691c-.679 0-1.23.552-1.23 1.23v2.543c0 .679.551 1.23 1.23 1.23.329 0 1.987.001 2.313.015.469.02.885.305 1.074.735.787 1.795 2.028 3.392 3.497 4.497.307.23.489.592.49.976.006.906.007 2.562.008 3.703h2.462v-3.691a1.23 1.23 0 1 1 2.46 0v1.156c.457.048.939.074 1.395.074h6.152v-1.23a1.23 1.23 0 1 1 2.461 0v3.691h2.462c0-.773.002-1.823.005-2.883.001-.438.235-.842.614-1.061 3.361-1.947 5.532-5.776 5.532-9.755z"/></g></g></svg>