<svg xmlns="http://www.w3.org/2000/svg" width="27" height="33" viewBox="0 0 27 33"><g><g><path fill="#65c308" d="M26.228 5.341c.467.2.772.67.772 1.19v6.377c0 8.78-5.147 16.678-13.028 19.996a1.215 1.215 0 0 1-.945 0C5.145 29.586-.001 21.688-.001 12.908V6.531c0-.52.304-.99.771-1.19L13.02.096c.307-.132.652-.132.958 0zM24.5 7.392l-11-4.71-11 4.71v5.516c0 7.666 4.43 14.417 11 17.402 6.75-3.067 11-9.938 11-17.402zm-12.381 9.861l5.373-5.54a1.223 1.223 0 0 1 1.767 0c.488.503.488 1.32 0 1.823l-6.256 6.452a1.223 1.223 0 0 1-1.769 0l-3.492-3.602a1.318 1.318 0 0 1 0-1.824 1.224 1.224 0 0 1 1.767 0z"/></g></g></svg>