<svg xmlns="http://www.w3.org/2000/svg" width="32" height="32" viewBox="0 0 32 32"><g><g><path fill="#65c308" d="M26.824 21.173C31.102 22.599 32 24.496 32 25.836c0 1.34-.897 3.237-5.175 4.663C17.576 33.582 0 31.866 0 25.836c0-1.34.898-3.237 5.175-4.663 2.61-.87 5.972-1.39 9.575-1.488v-7.478a6.179 6.179 0 0 1-4.916-6.04c0-3.401 2.766-6.168 6.166-6.168 3.4 0 6.167 2.767 6.167 6.167a6.179 6.179 0 0 1-4.916 6.04v7.48c3.602.097 6.964.617 9.574 1.487zM12.333 6.166a3.67 3.67 0 0 0 3.666 3.668 3.671 3.671 0 0 0 3.667-3.668A3.671 3.671 0 0 0 15.999 2.5a3.67 3.67 0 0 0-3.666 3.667zm13.701 21.96c2.74-.913 3.466-1.897 3.466-2.29s-.725-1.377-3.466-2.29c-2.369-.79-5.45-1.264-8.784-1.36v3.65a1.25 1.25 0 0 1-2.5 0v-3.65c-3.335.096-6.417.57-8.785 1.36-2.741.913-3.466 1.897-3.466 2.29s.725 1.377 3.466 2.29c5.507 1.837 14.56 1.838 20.07 0z"/></g></g></svg>