<svg 
 xmlns="http://www.w3.org/2000/svg"
 xmlns:xlink="http://www.w3.org/1999/xlink"
 width="19px" height="18px">
<path fill-rule="evenodd"  fill="rgb(186, 0, 0)"
 d="M18.611,17.999 L0.389,17.999 C0.173,17.999 -0.001,17.831 -0.001,17.624 L-0.001,2.952 C-0.001,2.745 0.173,2.578 0.389,2.578 L2.542,2.578 L2.542,0.374 C2.542,0.166 2.716,-0.002 2.932,-0.002 L6.171,-0.002 C6.386,-0.002 6.561,0.166 6.561,0.374 L6.561,2.578 L12.438,2.578 L12.438,0.374 C12.438,0.166 12.613,-0.002 12.828,-0.002 L16.067,-0.002 C16.283,-0.002 16.457,0.166 16.457,0.374 L16.457,2.578 L18.610,2.578 C18.826,2.578 19.000,2.745 19.001,2.952 L19.001,17.624 C19.001,17.831 18.826,17.999 18.611,17.999 ZM5.423,1.373 C5.423,1.218 5.293,1.092 5.131,1.092 L3.972,1.092 C3.810,1.092 3.679,1.218 3.679,1.373 L3.679,5.184 C3.679,5.339 3.810,5.466 3.972,5.466 L5.131,5.466 C5.293,5.466 5.423,5.339 5.423,5.184 L5.423,1.373 ZM15.320,1.373 C15.320,1.218 15.189,1.092 15.027,1.092 L13.868,1.092 C13.706,1.092 13.576,1.218 13.576,1.373 L13.576,5.184 C13.576,5.339 13.706,5.466 13.868,5.466 L15.027,5.466 C15.189,5.466 15.320,5.339 15.320,5.184 L15.320,1.373 ZM16.972,8.281 C16.972,8.125 16.842,7.999 16.680,7.999 L2.319,7.999 C2.157,7.999 2.027,8.125 2.027,8.281 L2.027,15.775 C2.027,15.931 2.157,16.056 2.319,16.056 L16.680,16.056 C16.842,16.056 16.972,15.931 16.972,15.775 L16.972,8.281 ZM12.586,12.562 L15.380,12.562 L15.380,15.247 L12.586,15.247 L12.586,12.562 ZM12.586,8.815 L15.380,8.815 L15.380,11.500 L12.586,11.500 L12.586,8.815 ZM8.102,12.562 L10.896,12.562 L10.896,15.247 L8.102,15.247 L8.102,12.562 ZM8.102,8.815 L10.896,8.815 L10.896,11.500 L8.102,11.500 L8.102,8.815 ZM3.619,12.562 L6.413,12.562 L6.413,15.247 L3.619,15.247 L3.619,12.562 ZM3.619,8.815 L6.413,8.815 L6.413,11.500 L3.619,11.500 L3.619,8.815 Z"/>
</svg>