<svg 
 xmlns="http://www.w3.org/2000/svg"
 xmlns:xlink="http://www.w3.org/1999/xlink"
 width="30px" height="26px">
<path fill-rule="evenodd"  fill="rgb(204, 31, 31)"
 d="M29.784,5.448 L29.447,7.617 L8.963,3.279 L9.300,1.109 C9.459,0.358 10.204,-0.127 10.955,0.032 L28.707,3.792 C29.459,3.951 29.943,4.696 29.784,5.448 ZM19.508,7.095 C20.254,6.888 21.035,7.330 21.242,8.077 L21.547,9.177 L28.676,10.687 L27.424,16.609 C27.265,17.361 26.521,17.846 25.770,17.687 L23.790,17.268 L24.319,19.173 C24.526,19.920 24.084,20.701 23.338,20.908 L5.690,25.810 C4.943,26.018 4.163,25.576 3.955,24.828 L0.879,13.732 C0.672,12.985 1.113,12.204 1.860,11.997 L7.319,10.480 L8.193,6.349 L16.138,8.031 L19.508,7.095 ZM23.723,14.398 L25.786,14.835 C26.095,14.900 26.401,14.701 26.467,14.392 L26.903,12.327 C26.968,12.018 26.769,11.711 26.460,11.646 L24.397,11.209 C24.088,11.143 23.782,11.343 23.716,11.652 L23.280,13.716 C23.214,14.026 23.414,14.332 23.723,14.398 ZM5.062,24.521 C5.097,24.646 5.216,24.712 5.316,24.712 C5.338,24.712 5.361,24.709 5.383,24.702 L23.031,19.801 C23.115,19.778 23.162,19.721 23.186,19.677 C23.211,19.634 23.235,19.564 23.212,19.480 L22.524,17.000 L21.417,13.008 L3.268,18.049 L5.062,24.521 ZM7.051,11.748 L2.167,13.104 C2.031,13.142 1.948,13.289 1.985,13.425 L2.587,15.595 L20.736,10.554 L20.280,8.909 L20.135,8.384 C20.100,8.259 19.981,8.194 19.881,8.194 C19.859,8.194 19.837,8.197 19.814,8.203 L18.574,8.548 L7.051,11.748 ZM8.407,22.693 L6.346,23.265 C6.041,23.350 5.723,23.170 5.639,22.865 L5.067,20.803 C4.982,20.498 5.162,20.180 5.466,20.095 L7.527,19.523 C7.832,19.438 8.150,19.618 8.234,19.923 L8.807,21.985 C8.891,22.290 8.711,22.608 8.407,22.693 Z"/>
</svg>