<svg 
 xmlns="http://www.w3.org/2000/svg"
 xmlns:xlink="http://www.w3.org/1999/xlink"
 width="17px" height="17px">
<path fill-rule="evenodd"  fill="#c50101"
 d="M9.998,8.496 L16.681,1.806 C17.096,1.391 17.096,0.717 16.681,0.301 C16.266,-0.114 15.594,-0.114 15.178,0.301 L8.495,6.991 L1.812,0.301 C1.397,-0.114 0.724,-0.114 0.309,0.301 C-0.106,0.717 -0.106,1.391 0.309,1.806 L6.993,8.496 L0.309,15.185 C-0.106,15.600 -0.106,16.274 0.309,16.689 C0.517,16.897 0.789,17.001 1.061,17.001 C1.332,17.001 1.604,16.897 1.812,16.689 L8.495,10.000 L15.178,16.689 C15.386,16.897 15.658,17.001 15.930,17.001 C16.202,17.001 16.474,16.897 16.681,16.689 C17.096,16.274 17.096,15.600 16.681,15.185 L9.998,8.496 Z"/>
</svg>