<svg 
 xmlns="http://www.w3.org/2000/svg"
 xmlns:xlink="http://www.w3.org/1999/xlink"
 width="99px" height="96px">
<path fill-rule="evenodd"  fill="rgb(211, 166, 129)"
 d="M48.765,95.999 C44.400,95.896 39.943,95.841 35.486,95.671 C32.259,95.547 29.031,95.323 25.815,95.041 C24.017,94.882 22.236,94.523 20.449,94.235 C19.374,94.088 18.446,93.412 17.978,92.436 C17.199,90.911 16.353,89.417 15.669,87.851 C13.174,82.221 11.073,76.440 9.127,70.603 C7.686,66.286 6.288,61.954 4.933,57.609 C3.443,52.811 2.095,47.973 0.995,43.068 C0.526,41.135 0.201,39.170 0.022,37.188 C-0.078,36.276 0.203,35.363 0.799,34.664 C2.170,33.092 3.660,31.628 5.256,30.284 C11.506,24.847 18.137,19.893 24.854,15.056 C29.915,11.412 35.050,7.860 40.350,4.582 C42.700,3.123 45.070,1.705 47.602,0.553 C47.891,0.426 48.179,0.326 48.468,0.213 C49.146,-0.079 49.916,-0.069 50.587,0.239 C52.105,0.959 53.650,1.641 55.107,2.467 C60.220,5.359 65.070,8.663 69.882,12.019 C76.588,16.694 83.175,21.531 89.512,26.698 C91.821,28.594 94.055,30.603 96.290,32.598 C96.986,33.270 97.648,33.977 98.273,34.716 C98.914,35.418 99.076,36.259 99.003,37.185 C98.810,39.660 98.270,42.078 97.699,44.478 C96.368,50.096 94.731,55.631 93.005,61.137 C91.140,67.083 89.160,72.992 86.980,78.831 C85.514,82.763 84.010,86.683 82.130,90.444 C81.720,91.265 81.227,92.048 80.759,92.839 C80.400,93.485 79.772,93.940 79.044,94.079 C77.485,94.367 75.924,94.710 74.350,94.897 C72.255,95.144 70.147,95.297 68.040,95.435 C66.019,95.567 63.999,95.671 61.978,95.723 C57.607,95.849 53.231,95.916 48.765,95.999 Z"/>
</svg>