<svg 
 xmlns="http://www.w3.org/2000/svg"
 xmlns:xlink="http://www.w3.org/1999/xlink"
 width="26px" height="19px">
<path fill-rule="evenodd"  fill="rgb(186, 0, 0)"
 d="M17.230,18.869 C16.774,18.646 16.546,18.288 16.546,17.795 L16.546,14.237 L0.606,14.237 C0.434,14.237 0.289,14.179 0.172,14.062 C0.055,13.944 -0.003,13.805 -0.003,13.645 L-0.003,0.603 C-0.003,0.356 0.114,0.177 0.348,0.066 C0.594,-0.046 0.803,-0.021 0.976,0.140 L4.522,3.104 C4.657,3.240 4.725,3.394 4.725,3.567 L4.725,9.496 L16.546,9.496 L16.546,5.939 C16.546,5.445 16.774,5.087 17.230,4.864 C17.698,4.654 18.122,4.710 18.504,5.031 L25.596,10.959 C25.867,11.181 26.003,11.484 26.003,11.867 C26.003,12.249 25.867,12.552 25.596,12.774 L18.504,18.702 C18.110,19.035 17.685,19.091 17.230,18.869 Z"/>
</svg>