<svg 
 xmlns="http://www.w3.org/2000/svg"
 xmlns:xlink="http://www.w3.org/1999/xlink"
 width="23px" height="23px">
<path fill-rule="evenodd"  fill="rgb(204, 31, 31)"
 d="M8.625,18.687 L7.187,18.687 L7.187,-0.000 L8.625,-0.000 L8.625,18.687 ZM17.250,4.312 L23.000,-0.000 L10.062,-0.000 L10.062,8.625 L23.000,8.625 L17.250,4.312 ZM10.062,14.527 L10.062,15.988 C12.570,16.385 14.375,17.438 14.375,18.687 C14.375,20.275 11.479,21.562 7.906,21.562 C4.333,21.562 1.437,20.275 1.437,18.687 C1.437,17.438 3.243,16.385 5.750,15.988 L5.750,14.527 C2.645,14.969 -0.000,16.380 -0.000,18.687 C-0.000,21.519 3.978,23.000 7.906,23.000 C11.834,23.000 15.812,21.519 15.812,18.687 C15.812,16.380 13.168,14.969 10.062,14.527 Z"/>
</svg>