<svg 
 xmlns="http://www.w3.org/2000/svg"
 xmlns:xlink="http://www.w3.org/1999/xlink"
 width="16px" height="16px">
<path fill-rule="evenodd"  fill="rgb(197, 1, 1)"
 d="M8.000,-0.001 C3.582,-0.001 0.000,3.581 0.000,8.000 C0.000,12.417 3.582,15.999 8.000,15.999 C12.418,15.999 16.000,12.417 16.000,8.000 C16.000,3.581 12.418,-0.001 8.000,-0.001 ZM8.024,11.774 L8.024,11.774 L7.975,11.774 L4.558,11.774 C4.558,9.275 6.753,9.275 7.240,8.621 L7.296,8.324 C6.611,7.977 6.128,7.141 6.128,6.163 C6.128,4.875 6.966,3.830 8.000,3.830 C9.033,3.830 9.871,4.875 9.871,6.163 C9.871,7.132 9.397,7.963 8.722,8.315 L8.785,8.654 C9.319,9.276 11.441,9.316 11.441,11.774 L8.024,11.774 Z"/>
</svg>