<svg 
 xmlns="http://www.w3.org/2000/svg"
 xmlns:xlink="http://www.w3.org/1999/xlink"
 width="27px" height="27px">
<path fill-rule="evenodd"  fill="rgb(0, 0, 0)"
 d="M25.685,26.245 C25.460,26.470 25.172,26.581 24.878,26.581 C24.589,26.581 24.295,26.470 24.076,26.245 L18.283,20.430 C16.364,21.924 13.960,22.810 11.349,22.810 C5.095,22.810 -0.001,17.697 -0.001,11.408 C-0.001,5.119 5.095,-0.001 11.355,-0.001 C17.609,-0.001 22.705,5.113 22.705,11.402 C22.705,14.251 21.661,16.857 19.938,18.855 L25.685,24.629 C26.128,25.075 26.128,25.799 25.685,26.245 ZM20.428,11.402 C20.428,6.375 16.352,2.287 11.355,2.287 C6.352,2.287 2.276,6.381 2.276,11.408 C2.276,16.434 6.346,20.523 11.349,20.523 C16.358,20.523 20.428,16.428 20.428,11.402 ZM15.839,12.415 L12.496,12.415 L12.496,15.780 C12.496,16.411 11.983,16.921 11.355,16.921 C10.727,16.921 10.214,16.411 10.214,15.780 L10.214,12.415 L6.870,12.415 C6.242,12.415 5.729,11.906 5.729,11.274 C5.729,10.637 6.242,10.128 6.870,10.128 L10.214,10.128 L10.214,6.769 C10.214,6.132 10.727,5.622 11.355,5.622 C11.983,5.622 12.496,6.132 12.496,6.769 L12.496,10.128 L15.839,10.128 C16.468,10.128 16.981,10.637 16.981,11.274 C16.981,11.906 16.468,12.415 15.839,12.415 Z"/>
</svg>