<svg 
 xmlns="http://www.w3.org/2000/svg"
 xmlns:xlink="http://www.w3.org/1999/xlink"
 width="13px" height="10px">
<path fill-rule="evenodd"  fill="rgb(186, 0, 0)"
 d="M12.105,1.361 L11.054,0.310 C10.910,0.166 10.735,0.094 10.529,0.094 C10.323,0.094 10.147,0.166 10.003,0.310 L4.935,5.387 L2.663,3.107 C2.519,2.963 2.344,2.891 2.138,2.891 C1.932,2.891 1.756,2.963 1.612,3.107 L0.561,4.158 C0.417,4.302 0.345,4.478 0.345,4.683 C0.345,4.889 0.417,5.065 0.561,5.209 L3.358,8.006 L4.409,9.057 C4.553,9.201 4.728,9.273 4.935,9.273 C5.140,9.273 5.316,9.201 5.460,9.057 L6.511,8.006 L12.105,2.412 C12.249,2.268 12.321,2.093 12.321,1.887 C12.321,1.681 12.249,1.505 12.105,1.361 Z"/>
</svg>