<svg 
 xmlns="http://www.w3.org/2000/svg"
 xmlns:xlink="http://www.w3.org/1999/xlink"
 width="21px" height="15px">
<path fill-rule="evenodd"  fill="rgb(249, 249, 249)"
 d="M0.173,4.018 C0.527,4.755 0.881,5.491 1.235,6.228 C1.400,6.543 1.711,6.626 2.124,6.547 C3.153,6.273 4.183,5.999 5.212,5.726 C5.659,5.565 5.845,5.317 5.847,5.009 C5.839,4.440 5.831,3.870 5.824,3.302 C8.579,1.994 12.421,1.994 15.176,3.302 C15.168,3.870 15.161,4.440 15.153,5.009 C15.155,5.317 15.341,5.565 15.788,5.726 C16.817,5.999 17.847,6.273 18.876,6.547 C19.289,6.626 19.600,6.543 19.765,6.228 C20.119,5.491 20.473,4.755 20.827,4.018 C21.151,3.373 20.999,3.132 20.544,2.860 C13.828,-0.955 7.172,-0.955 0.456,2.860 C0.001,3.132 -0.151,3.373 0.173,4.018 L0.173,4.018 ZM7.303,4.041 C8.376,3.698 9.473,3.521 10.596,3.523 C11.718,3.521 12.815,3.698 13.889,4.041 C13.889,4.615 13.889,5.190 13.889,5.764 C13.941,6.405 14.292,6.719 14.840,6.818 C15.733,6.994 16.626,7.169 17.519,7.345 C18.082,7.469 18.428,7.763 18.397,8.354 C18.397,9.999 18.397,11.644 18.397,13.289 L10.596,13.289 L2.794,13.289 C2.794,11.644 2.794,9.999 2.794,8.354 C2.763,7.763 3.109,7.469 3.672,7.345 C4.565,7.169 5.458,6.994 6.352,6.818 C6.899,6.719 7.250,6.405 7.303,5.764 C7.303,5.190 7.303,4.615 7.303,4.041 L7.303,4.041 ZM10.635,5.955 C11.516,5.955 12.313,6.311 12.891,6.887 C13.468,7.461 13.825,8.256 13.825,9.133 C13.825,9.661 13.696,10.158 13.468,10.596 L12.202,9.988 C12.342,9.735 12.421,9.443 12.421,9.133 C12.421,8.642 12.221,8.197 11.898,7.875 C11.575,7.553 11.128,7.354 10.635,7.354 C10.141,7.354 9.695,7.553 9.372,7.875 C9.048,8.197 8.848,8.642 8.848,9.133 C8.848,9.625 9.048,10.070 9.372,10.392 C9.695,10.714 10.141,10.913 10.635,10.913 C11.056,10.913 11.444,10.768 11.749,10.525 L12.751,11.512 C12.188,12.010 11.447,12.311 10.635,12.311 C9.754,12.311 8.956,11.956 8.379,11.381 C7.802,10.806 7.444,10.011 7.444,9.133 C7.444,8.256 7.802,7.461 8.379,6.887 C8.956,6.311 9.754,5.955 10.635,5.955 L10.635,5.955 ZM17.384,13.630 C16.753,13.630 16.121,13.630 15.490,13.630 C15.490,14.087 15.490,14.543 15.490,14.999 C15.935,14.999 16.381,14.999 16.827,14.999 C17.013,14.543 17.198,14.087 17.384,13.630 L17.384,13.630 ZM3.807,13.630 C4.439,13.630 5.070,13.630 5.701,13.630 C5.701,14.087 5.701,14.543 5.701,14.999 C5.256,14.999 4.810,14.999 4.364,14.999 C4.179,14.543 3.993,14.087 3.807,13.630 Z"/>
</svg>