<svg 
 xmlns="http://www.w3.org/2000/svg"
 xmlns:xlink="http://www.w3.org/1999/xlink"
 width="27px" height="27px">
<path fill-rule="evenodd"  fill="rgb(204, 31, 31)"
 d="M22.741,25.693 C20.261,26.536 16.979,27.000 13.500,27.000 C10.021,27.000 6.739,26.536 4.259,25.693 C0.739,24.497 -0.000,22.965 -0.000,21.891 C-0.000,20.489 1.252,19.507 2.303,18.930 C2.686,18.720 3.167,18.860 3.377,19.242 C3.587,19.625 3.447,20.106 3.065,20.317 C2.122,20.834 1.582,21.408 1.582,21.891 C1.582,22.482 2.419,23.397 4.768,24.195 C7.088,24.984 10.189,25.418 13.500,25.418 C16.810,25.418 19.911,24.984 22.232,24.195 C24.581,23.397 25.418,22.482 25.418,21.891 C25.418,21.408 24.877,20.834 23.935,20.317 C23.552,20.106 23.412,19.625 23.623,19.243 C23.833,18.860 24.314,18.720 24.697,18.930 C25.747,19.507 27.000,20.489 27.000,21.891 C27.000,22.965 26.261,24.497 22.741,25.693 ZM19.472,23.052 C17.866,23.505 15.745,23.755 13.500,23.755 C11.254,23.755 9.134,23.505 7.528,23.052 C5.563,22.497 4.567,21.693 4.567,20.664 C4.567,19.635 5.563,18.832 7.528,18.277 C8.426,18.023 9.485,17.833 10.636,17.715 C8.381,13.866 6.147,9.508 6.147,7.353 C6.147,3.299 9.445,-0.000 13.500,-0.000 C17.555,-0.000 20.853,3.299 20.853,7.353 C20.853,9.508 18.618,13.866 16.364,17.715 C17.515,17.834 18.574,18.023 19.472,18.277 C21.436,18.832 22.433,19.635 22.433,20.664 C22.433,21.693 21.436,22.497 19.472,23.052 ZM19.271,7.353 C19.271,4.171 16.682,1.582 13.500,1.582 C10.317,1.582 7.729,4.171 7.729,7.353 C7.729,8.988 9.751,13.273 13.139,18.815 C13.250,18.998 13.428,19.018 13.500,19.018 C13.571,19.018 13.749,18.998 13.861,18.815 C17.249,13.273 19.271,8.988 19.271,7.353 ZM18.755,19.722 C17.811,19.482 16.681,19.313 15.463,19.225 C15.379,19.365 15.295,19.503 15.211,19.640 C14.844,20.241 14.204,20.600 13.500,20.600 C12.796,20.600 12.156,20.241 11.789,19.640 C11.705,19.503 11.621,19.365 11.536,19.225 C10.318,19.313 9.188,19.482 8.245,19.722 C6.799,20.090 6.271,20.505 6.163,20.664 C6.271,20.823 6.799,21.238 8.245,21.606 C9.680,21.972 11.546,22.173 13.500,22.173 C15.453,22.173 17.320,21.972 18.755,21.606 C20.200,21.238 20.728,20.823 20.837,20.664 C20.729,20.505 20.200,20.090 18.755,19.722 ZM10.544,6.848 C10.544,5.219 11.870,3.893 13.500,3.893 C15.130,3.893 16.455,5.219 16.455,6.848 C16.455,8.478 15.130,9.804 13.500,9.804 C11.870,9.804 10.544,8.478 10.544,6.848 ZM14.873,6.848 C14.873,6.091 14.257,5.475 13.500,5.475 C12.743,5.475 12.126,6.091 12.126,6.848 C12.126,7.606 12.743,8.222 13.500,8.222 C14.257,8.222 14.873,7.606 14.873,6.848 Z"/>
</svg>