<svg 
 xmlns="http://www.w3.org/2000/svg"
 xmlns:xlink="http://www.w3.org/1999/xlink"
 width="23px" height="18px">
<path fill-rule="evenodd"  fill="rgb(197, 1, 1)"
 d="M20.247,0.274 L3.189,0.274 C1.725,0.274 0.534,1.418 0.534,2.825 L0.534,14.719 C0.534,16.125 1.725,17.270 3.189,17.270 L20.247,17.270 C21.711,17.270 22.902,16.125 22.902,14.719 L22.902,2.825 C22.902,1.418 21.711,0.274 20.247,0.274 ZM20.247,15.018 L3.189,15.018 C2.973,15.018 2.785,14.878 2.785,14.719 L2.785,4.397 L10.500,10.913 C10.658,11.047 10.859,11.121 11.066,11.121 L12.369,11.121 C12.576,11.121 12.778,11.047 12.936,10.913 L20.651,4.397 L20.651,14.719 C20.651,14.878 20.462,15.018 20.247,15.018 ZM11.718,8.884 L4.214,2.526 L19.222,2.526 L11.718,8.884 Z"/>
</svg>