<svg 
 xmlns="http://www.w3.org/2000/svg"
 xmlns:xlink="http://www.w3.org/1999/xlink"
 width="22px" height="25px">
<path fill-rule="evenodd"  fill="rgb(204, 31, 31)"
 d="M21.071,17.864 L15.840,23.082 C15.723,23.198 15.579,23.282 15.420,23.326 L11.566,24.393 C11.482,24.417 11.396,24.428 11.311,24.428 C11.058,24.428 10.810,24.327 10.628,24.140 C10.385,23.891 10.297,23.529 10.398,23.196 L11.539,19.440 C11.585,19.290 11.667,19.153 11.779,19.042 L17.020,13.815 C18.137,12.699 19.954,12.700 21.071,13.816 C22.188,14.932 22.188,16.748 21.071,17.864 ZM16.834,16.697 L13.297,20.224 L12.730,22.091 L14.668,21.554 L18.184,18.047 L16.834,16.697 ZM19.720,15.165 C19.348,14.793 18.742,14.793 18.370,15.165 L18.186,15.349 L19.536,16.699 L19.721,16.514 C20.093,16.143 20.093,15.537 19.720,15.165 ZM10.744,15.267 L4.771,15.267 C4.243,15.267 3.816,14.840 3.816,14.313 C3.816,13.786 4.243,13.359 4.771,13.359 L10.744,13.359 C11.271,13.359 11.699,13.786 11.699,14.313 C11.699,14.840 11.271,15.267 10.744,15.267 ZM14.605,7.634 L4.771,7.634 C4.243,7.634 3.816,7.206 3.816,6.679 C3.816,6.152 4.243,5.725 4.771,5.725 L14.605,5.725 C15.133,5.725 15.560,6.152 15.560,6.679 C15.560,7.206 15.133,7.634 14.605,7.634 ZM14.605,11.451 L4.771,11.451 C4.243,11.451 3.816,11.023 3.816,10.496 C3.816,9.969 4.243,9.542 4.771,9.542 L14.605,9.542 C15.133,9.542 15.560,9.969 15.560,10.496 C15.560,11.023 15.133,11.451 14.605,11.451 ZM18.425,10.639 C17.897,10.639 17.470,10.212 17.470,9.685 L17.470,3.817 C17.470,2.764 16.613,1.908 15.560,1.908 L3.821,1.908 C2.768,1.908 1.912,2.764 1.912,3.817 L1.912,20.611 C1.912,21.663 2.768,22.519 3.821,22.519 L7.015,22.519 C7.542,22.519 7.969,22.947 7.969,23.474 C7.969,24.001 7.542,24.428 7.015,24.428 L3.821,24.428 C1.715,24.428 0.002,22.716 0.002,20.611 L0.002,3.817 C0.002,1.712 1.715,-0.000 3.821,-0.000 L15.560,-0.000 C17.666,-0.000 19.379,1.712 19.379,3.817 L19.379,9.685 C19.379,10.212 18.952,10.639 18.425,10.639 Z"/>
</svg>