<svg 
 xmlns="http://www.w3.org/2000/svg"
 xmlns:xlink="http://www.w3.org/1999/xlink"
 width="29px" height="29px">
<path fill-rule="evenodd"  fill="rgb(197, 1, 1)"
 d="M26.221,16.432 C26.200,16.458 26.183,16.486 26.159,16.509 C26.135,16.533 26.108,16.550 26.082,16.571 C25.503,17.139 24.852,17.630 24.146,18.039 L13.536,28.658 C13.301,28.894 12.991,29.011 12.682,29.011 C12.373,29.011 12.064,28.894 11.828,28.658 C11.357,28.185 11.357,27.421 11.828,26.948 L19.435,19.336 C19.398,19.336 19.362,19.341 19.325,19.341 C17.096,19.341 15.047,18.574 13.410,17.300 L8.101,22.614 C7.865,22.850 7.556,22.967 7.247,22.967 C6.938,22.967 6.628,22.850 6.393,22.613 C5.921,22.141 5.921,21.376 6.393,20.904 L11.702,15.590 C10.429,13.952 9.662,11.901 9.662,9.670 C9.662,9.633 9.668,9.597 9.668,9.561 L2.061,17.173 C1.826,17.409 1.517,17.528 1.207,17.528 C0.898,17.528 0.589,17.409 0.354,17.173 C-0.118,16.701 -0.118,15.936 0.354,15.464 L10.964,4.846 C11.373,4.137 11.866,3.483 12.435,2.903 C12.454,2.879 12.471,2.853 12.492,2.832 C12.514,2.809 12.540,2.794 12.563,2.773 C14.308,1.060 16.694,-0.001 19.325,-0.001 C24.653,-0.001 28.988,4.338 28.988,9.670 C28.988,12.301 27.930,14.687 26.221,16.432 ZM12.078,9.670 C12.078,13.669 15.329,16.923 19.325,16.923 C20.889,16.923 22.333,16.421 23.518,15.576 L13.425,5.474 C12.580,6.660 12.078,8.106 12.078,9.670 ZM19.325,2.417 C17.762,2.417 16.318,2.920 15.133,3.765 L25.226,13.866 C26.071,12.680 26.573,11.234 26.573,9.670 C26.573,5.671 23.322,2.417 19.325,2.417 ZM2.769,24.530 C3.240,24.058 4.006,24.058 4.477,24.530 C4.949,25.002 4.949,25.768 4.477,26.240 L2.061,28.658 C1.826,28.894 1.517,29.011 1.207,29.011 C0.898,29.011 0.589,28.894 0.354,28.658 C-0.118,28.185 -0.118,27.421 0.354,26.948 L2.769,24.530 Z"/>
</svg>