<svg 
 xmlns="http://www.w3.org/2000/svg"
 xmlns:xlink="http://www.w3.org/1999/xlink"
 width="22px" height="34px">
<path fill-rule="evenodd"  fill="rgb(197, 1, 1)"
 d="M21.919,31.228 C21.789,31.920 21.497,32.678 20.994,33.189 C20.490,33.699 19.776,33.963 18.947,33.996 C18.119,34.029 17.177,33.831 16.527,33.534 C15.878,33.238 15.521,32.842 15.342,32.250 C15.163,31.657 15.163,30.866 15.131,29.926 C15.098,28.987 15.033,27.900 14.790,26.895 C14.546,25.890 14.124,24.967 13.653,24.242 C13.182,23.518 12.662,22.991 12.597,22.727 C12.532,22.463 12.922,22.463 13.361,22.743 C13.799,23.023 14.286,23.583 14.790,24.177 C15.293,24.770 15.813,25.396 16.170,26.137 C16.527,26.879 16.722,27.735 16.852,28.493 C16.982,29.251 17.047,29.910 17.145,30.091 C17.242,30.272 17.372,29.976 17.534,29.564 C17.697,29.152 17.892,28.625 18.216,28.394 C18.541,28.164 18.996,28.230 19.532,28.262 C20.068,28.296 20.685,28.296 21.107,28.460 C21.529,28.625 21.757,28.954 21.887,29.432 C22.017,29.910 22.049,30.536 21.919,31.228 ZM20.425,11.503 C20.356,11.989 20.334,12.432 20.297,12.772 C20.260,13.112 20.207,13.349 20.063,13.511 C19.919,13.673 19.685,13.760 19.499,13.895 C19.312,14.030 19.174,14.213 19.052,14.235 C18.929,14.256 18.823,14.116 18.764,13.900 C18.706,13.684 18.695,13.393 18.621,12.982 C18.546,12.572 18.408,12.043 18.174,11.649 C17.939,11.255 17.610,10.996 17.423,10.721 C17.237,10.445 17.194,10.153 17.210,9.797 C17.226,9.441 17.301,9.020 17.248,8.529 C17.194,8.037 17.013,7.476 16.668,7.028 C16.322,6.580 15.811,6.245 15.327,6.029 C14.842,5.813 14.385,5.716 13.895,5.748 C13.405,5.781 12.884,5.943 12.235,6.029 C11.585,6.115 10.808,6.126 10.159,6.002 C9.510,5.878 8.988,5.618 8.472,5.543 C7.956,5.467 7.445,5.576 6.892,5.629 C6.338,5.684 5.742,5.684 5.263,5.829 C4.784,5.975 4.422,6.267 4.130,6.493 C3.837,6.720 3.613,6.882 3.417,7.071 C3.220,7.259 3.049,7.476 3.092,7.848 C3.135,8.221 3.390,8.750 3.571,9.160 C3.752,9.570 3.858,9.862 3.864,10.067 C3.869,10.273 3.773,10.391 3.582,10.580 C3.390,10.768 3.103,11.028 2.815,11.330 C2.528,11.632 2.240,11.978 2.033,12.659 C1.825,13.339 1.698,14.354 1.581,14.780 C1.463,15.207 1.357,15.045 1.256,14.834 C1.155,14.623 1.059,14.364 0.947,14.014 C0.836,13.663 0.708,13.220 0.580,12.723 C0.452,12.226 0.325,11.676 0.218,11.120 C0.112,10.564 0.027,10.002 0.005,9.274 C-0.016,8.544 0.027,7.648 0.202,6.811 C0.378,5.975 0.687,5.197 1.128,4.480 C1.570,3.762 2.145,3.103 2.789,2.525 C3.433,1.947 4.146,1.451 4.859,1.084 C5.572,0.717 6.285,0.479 7.051,0.328 C7.818,0.177 8.637,0.112 9.473,0.058 C10.308,0.004 11.160,-0.039 12.102,0.053 C13.044,0.145 14.076,0.371 14.933,0.658 C15.790,0.944 16.471,1.289 17.131,1.742 C17.790,2.196 18.429,2.757 18.940,3.416 C19.451,4.075 19.834,4.830 20.095,5.624 C20.356,6.418 20.494,7.249 20.579,7.978 C20.664,8.707 20.696,9.333 20.654,9.911 C20.611,10.488 20.494,11.017 20.425,11.503 ZM6.368,20.711 C6.845,20.174 7.393,19.881 8.047,19.612 C8.701,19.343 9.461,19.097 10.128,19.001 C10.795,18.905 11.369,18.958 12.026,19.126 C12.683,19.295 13.423,19.578 13.904,19.764 C14.386,19.951 14.608,20.041 14.921,20.381 C15.235,20.722 15.640,21.312 15.914,21.787 C16.188,22.262 16.330,22.620 16.331,22.863 C16.333,23.106 16.192,23.233 15.884,23.174 C15.577,23.114 15.102,22.868 14.563,22.643 C14.024,22.417 13.421,22.212 12.875,22.079 C12.329,21.944 11.840,21.882 11.308,21.857 C10.777,21.831 10.202,21.842 9.614,21.945 C9.027,22.048 8.428,22.243 7.866,22.389 C7.305,22.536 6.782,22.635 6.349,22.746 C5.915,22.857 5.573,22.981 5.376,22.994 C5.178,23.006 5.127,22.908 5.305,22.468 C5.483,22.029 5.890,21.248 6.368,20.711 Z"/>
</svg>