<svg 
 xmlns="http://www.w3.org/2000/svg"
 xmlns:xlink="http://www.w3.org/1999/xlink"
 width="29px" height="26px">
<path fill-rule="evenodd"  fill="rgb(197, 1, 1)"
 d="M28.972,9.885 C28.913,9.709 28.756,9.580 28.567,9.553 L19.495,8.270 L15.438,0.269 C15.354,0.102 15.179,-0.004 14.989,-0.004 C14.798,-0.004 14.623,0.102 14.539,0.269 L10.482,8.270 L1.410,9.554 C1.221,9.580 1.064,9.709 1.005,9.886 C0.946,10.062 0.995,10.257 1.132,10.386 L7.696,16.614 L6.146,25.409 C6.114,25.591 6.192,25.777 6.345,25.886 C6.500,25.996 6.705,26.010 6.873,25.923 L14.989,21.771 L23.103,25.923 C23.176,25.960 23.257,25.979 23.336,25.979 C23.440,25.979 23.543,25.948 23.631,25.886 C23.786,25.777 23.863,25.591 23.830,25.409 L22.281,16.615 L28.846,10.386 C28.982,10.255 29.031,10.062 28.972,9.885 Z"/>
</svg>