<svg xmlns="http://www.w3.org/2000/svg" width="28" height="27" viewBox="0 0 28 27"><g><g><path fill="#2d2a2a" d="M6.996 24.84L22.818 9.027c.961-.96.961-2.516 0-3.477a2.457 2.457 0 0 0-3.477 0L4.1 20.784l1.158 1.16L20.5 6.707a.82.82 0 1 1 1.16 1.159L5.836 23.68c-.96.961-2.516.962-3.477 0a2.457 2.457 0 0 1 0-3.476L19.34 3.231a4.095 4.095 0 0 1 5.796 0 4.102 4.102 0 0 1 0 5.795L8.735 25.421l1.159 1.159 16.402-16.395a5.743 5.743 0 0 0 0-8.113 5.735 5.735 0 0 0-8.114 0L1.201 19.045a4.095 4.095 0 0 0 0 5.795 4.095 4.095 0 0 0 5.795 0z"/></g></g></svg>