<svg width="22" height="22" viewBox="0 0 22 22" fill="none" xmlns="http://www.w3.org/2000/svg">
                          <path d="M2.51953 2.97949L4.4262 3.30949L5.30895 13.8264C5.34286 14.2403 5.53155 14.6261 5.83739 14.907C6.14323 15.1878 6.54372 15.343 6.95895 15.3417H16.9598C17.3574 15.3421 17.7417 15.199 18.0422 14.9386C18.3427 14.6782 18.539 14.3181 18.5951 13.9245L19.4659 7.91299C19.4892 7.75312 19.4806 7.59023 19.4408 7.43366C19.4011 7.27708 19.3308 7.12988 19.2341 7.00047C19.1374 6.87107 19.0161 6.762 18.8772 6.6795C18.7383 6.59699 18.5845 6.54268 18.4246 6.51966C18.3659 6.51324 4.73236 6.50866 4.73236 6.50866" stroke="white" stroke-width="1.5" stroke-linecap="round" stroke-linejoin="round" />
                          <path d="M12.9453 9.89551H15.4872" stroke="white" stroke-width="1.5" stroke-linecap="round" stroke-linejoin="round" />
                          <path fill-rule="evenodd" clip-rule="evenodd" d="M6.55737 18.52C6.62459 18.5171 6.6917 18.5279 6.75466 18.5516C6.81762 18.5753 6.87513 18.6116 6.92371 18.6581C6.9723 18.7047 7.01097 18.7606 7.03738 18.8224C7.06379 18.8843 7.07741 18.9509 7.07741 19.0182C7.07741 19.0855 7.06379 19.1521 7.03738 19.214C7.01097 19.2758 6.9723 19.3317 6.92371 19.3783C6.87513 19.4248 6.81762 19.4611 6.75466 19.4848C6.6917 19.5085 6.62459 19.5193 6.55737 19.5164C6.42893 19.5109 6.30759 19.456 6.21866 19.3632C6.12972 19.2703 6.08008 19.1468 6.08008 19.0182C6.08008 18.8896 6.12972 18.7661 6.21866 18.6732C6.30759 18.5804 6.42893 18.5255 6.55737 18.52Z" fill="white" stroke="white" stroke-width="1.5" stroke-linecap="round" stroke-linejoin="round" />
                          <path fill-rule="evenodd" clip-rule="evenodd" d="M16.898 18.5195C17.0305 18.5195 17.1576 18.5722 17.2513 18.6659C17.345 18.7595 17.3976 18.8866 17.3976 19.0191C17.3976 19.1516 17.345 19.2787 17.2513 19.3724C17.1576 19.4661 17.0305 19.5187 16.898 19.5187C16.7655 19.5187 16.6385 19.4661 16.5448 19.3724C16.4511 19.2787 16.3984 19.1516 16.3984 19.0191C16.3984 18.8866 16.4511 18.7595 16.5448 18.6659C16.6385 18.5722 16.7655 18.5195 16.898 18.5195Z" fill="white" stroke="white" stroke-width="1.5" stroke-linecap="round" stroke-linejoin="round" />
                        </svg>