<svg width="25" height="24" viewBox="0 0 25 24" fill="none" xmlns="http://www.w3.org/2000/svg">
<path d="M4.7073 20C4.15615 20 3.6845 19.8043 3.29235 19.413C2.89953 19.021 2.70312 18.55 2.70312 18V6C2.70312 5.45 2.89953 4.97933 3.29235 4.588C3.6845 4.196 4.15615 4 4.7073 4H20.7407C21.2919 4 21.7638 4.196 22.1567 4.588C22.5488 4.97933 22.7449 5.45 22.7449 6V18C22.7449 18.55 22.5488 19.021 22.1567 19.413C21.7638 19.8043 21.2919 20 20.7407 20H4.7073ZM20.7407 8L13.2501 12.675C13.1666 12.725 13.0787 12.7623 12.9865 12.787C12.895 12.8123 12.8075 12.825 12.724 12.825C12.6405 12.825 12.553 12.8123 12.4615 12.787C12.3693 12.7623 12.2814 12.725 12.1979 12.675L4.7073 8V18H20.7407V8ZM12.724 11L20.7407 6H4.7073L12.724 11ZM4.7073 8.25V6.775V6.8V6.787V8.25Z" fill="white"/>
</svg>
