<svg width="160" height="25" viewBox="0 0 160 25" fill="none" xmlns="http://www.w3.org/2000/svg">
                  <g clip-path="url(#clip0_13_2152)">
                    <path d="M12.3072 18.7304L5.07336 22.7799L6.68875 14.648L0.601562 9.01889L8.8344 8.04241L12.3072 0.513672L15.78 8.04241L24.0129 9.01889L17.9257 14.648L19.5411 22.7799L12.3072 18.7304Z" fill="#F3B411" />
                  </g>
                  <g clip-path="url(#clip1_13_2152)">
                    <path d="M46.1529 18.7304L38.9191 22.7799L40.5345 14.648L34.4473 9.01889L42.6801 8.04241L46.1529 0.513672L49.6258 8.04241L57.8586 9.01889L51.7714 14.648L53.3868 22.7799L46.1529 18.7304Z" fill="#F3B411" />
                  </g>
                  <g clip-path="url(#clip2_13_2152)">
                    <path d="M79.9996 18.7304L72.7657 22.7799L74.3811 14.648L68.2939 9.01889L76.5268 8.04241L79.9996 0.513672L83.4724 8.04241L91.7053 9.01889L85.6181 14.648L87.2335 22.7799L79.9996 18.7304Z" fill="#F3B411" />
                  </g>
                  <g clip-path="url(#clip3_13_2152)">
                    <path d="M113.845 18.7304L106.611 22.7799L108.227 14.648L102.14 9.01889L110.372 8.04241L113.845 0.513672L117.318 8.04241L125.551 9.01889L119.464 14.648L121.079 22.7799L113.845 18.7304Z" fill="#F3B411" />
                  </g>
                  <g clip-path="url(#clip4_13_2152)">
                    <path d="M147.692 16.3794L152.048 18.8175L151.075 13.9218L154.739 10.5318L149.782 9.94409L147.692 5.41146V16.3794ZM147.692 18.7304L140.458 22.7799L142.074 14.648L135.986 9.01889L144.219 8.04241L147.692 0.513672L151.165 8.04241L159.398 9.01889L153.31 14.648L154.926 22.7799L147.692 18.7304Z" fill="#F3B411" />
                  </g>
                  <defs>
                    <clipPath id="clip0_13_2152">
                      <rect width="24.6154" height="24.6171" fill="white" />
                    </clipPath>
                    <clipPath id="clip1_13_2152">
                      <rect width="24.6154" height="24.6171" fill="white" transform="translate(33.8457)" />
                    </clipPath>
                    <clipPath id="clip2_13_2152">
                      <rect width="24.6154" height="24.6171" fill="white" transform="translate(67.6924)" />
                    </clipPath>
                    <clipPath id="clip3_13_2152">
                      <rect width="24.6154" height="24.6171" fill="white" transform="translate(101.538)" />
                    </clipPath>
                    <clipPath id="clip4_13_2152">
                      <rect width="24.6154" height="24.6171" fill="white" transform="translate(135.385)" />
                    </clipPath>
                  </defs>
                </svg>