<svg 
 xmlns="http://www.w3.org/2000/svg"
 xmlns:xlink="http://www.w3.org/1999/xlink"
 width="9px" height="5px">
<path fill-rule="evenodd"  fill="rgb(232, 170, 0)"
 d="M4.851,0.136 L8.856,3.923 C8.949,4.011 9.000,4.128 9.000,4.252 C9.000,4.377 8.949,4.494 8.856,4.582 L8.561,4.861 C8.369,5.042 8.057,5.042 7.865,4.861 L4.502,1.680 L1.135,4.864 C1.042,4.952 0.919,5.000 0.787,5.000 C0.655,5.000 0.531,4.952 0.439,4.864 L0.144,4.585 C0.051,4.497 -0.000,4.381 -0.000,4.256 C-0.000,4.131 0.051,4.014 0.144,3.927 L4.152,0.136 C4.245,0.048 4.370,-0.000 4.502,0.000 C4.634,-0.000 4.758,0.048 4.851,0.136 Z"/>
</svg>