<svg 
 xmlns="http://www.w3.org/2000/svg"
 xmlns:xlink="http://www.w3.org/1999/xlink"
 width="9px" height="5px">
<path fill-rule="evenodd"  fill="rgb(255, 255, 255)"
 d="M4.851,4.864 L8.856,1.076 C8.949,0.989 9.000,0.872 9.000,0.747 C9.000,0.623 8.949,0.506 8.856,0.418 L8.561,0.139 C8.369,-0.042 8.057,-0.042 7.865,0.139 L4.502,3.319 L1.135,0.136 C1.042,0.048 0.919,-0.000 0.787,-0.000 C0.655,-0.000 0.531,0.048 0.438,0.136 L0.144,0.415 C0.051,0.502 -0.000,0.619 -0.000,0.744 C-0.000,0.868 0.051,0.985 0.144,1.073 L4.152,4.864 C4.245,4.952 4.370,5.000 4.502,5.000 C4.634,5.000 4.758,4.952 4.851,4.864 Z"/>
</svg>