<svg 
 xmlns="http://www.w3.org/2000/svg"
 xmlns:xlink="http://www.w3.org/1999/xlink"
 width="13px" height="10px">
<path fill-rule="evenodd"  fill="rgb(232, 170, 0)"
 d="M12.000,2.000 L1.000,2.000 C0.447,2.000 -0.000,1.552 -0.000,1.000 C-0.000,0.447 0.447,-0.000 1.000,-0.000 L12.000,-0.000 C12.552,-0.000 13.000,0.447 13.000,1.000 C13.000,1.552 12.552,2.000 12.000,2.000 ZM1.000,4.000 L8.000,4.000 C8.552,4.000 9.000,4.447 9.000,5.000 C9.000,5.552 8.552,6.000 8.000,6.000 L1.000,6.000 C0.447,6.000 -0.000,5.552 -0.000,5.000 C-0.000,4.447 0.447,4.000 1.000,4.000 ZM1.000,8.000 L12.000,8.000 C12.552,8.000 13.000,8.447 13.000,9.000 C13.000,9.552 12.552,10.000 12.000,10.000 L1.000,10.000 C0.447,10.000 -0.000,9.552 -0.000,9.000 C-0.000,8.447 0.447,8.000 1.000,8.000 Z"/>
</svg>