<svg 
 xmlns="http://www.w3.org/2000/svg"
 xmlns:xlink="http://www.w3.org/1999/xlink"
 width="11px" height="10px">
<path fill-rule="evenodd"  opacity="0.29" fill="rgb(255, 255, 255)"
 d="M6.542,5.000 L9.939,1.609 C10.020,1.528 10.020,1.396 9.939,1.315 L8.683,0.062 C8.644,0.023 8.591,0.001 8.536,0.001 C8.480,0.001 8.428,0.023 8.388,0.062 L4.991,3.452 L1.594,0.062 C1.515,-0.017 1.376,-0.017 1.298,0.062 L0.044,1.315 C-0.038,1.396 -0.038,1.528 0.044,1.609 L3.440,5.000 L0.044,8.390 C-0.038,8.472 -0.038,8.604 0.044,8.685 L1.298,9.938 C1.337,9.977 1.391,9.999 1.446,9.999 C1.502,9.999 1.555,9.977 1.594,9.938 L4.991,6.547 L8.388,9.938 C8.428,9.977 8.480,9.999 8.536,9.999 C8.591,9.999 8.644,9.977 8.683,9.938 L9.939,8.685 C10.020,8.604 10.020,8.472 9.939,8.390 L6.542,5.000 Z"/>
</svg>