<?xml version="1.0" encoding="utf-8"?>
<!-- Generator: Adobe Illustrator 19.2.1, SVG Export Plug-In . SVG Version: 6.00 Build 0)  -->
<svg version="1.1" id="Layer_4" xmlns="http://www.w3.org/2000/svg" xmlns:xlink="http://www.w3.org/1999/xlink" x="0px" y="0px"
	 viewBox="0 0 91.2 109.7" style="enable-background:new 0 0 91.2 109.7;" xml:space="preserve">
<style type="text/css">
	.st0{fill:none;stroke:#FFFFFF;stroke-width:4;stroke-miterlimit:10;}
	.st1{fill:none;stroke:#272727;stroke-width:4;stroke-miterlimit:10;}
</style>
<title>icon 3</title>
<line class="st0" x1="62.3" y1="80.3" x2="62.3" y2="109.7"/>
<line class="st0" x1="47.8" y1="109.7" x2="47.8" y2="80.3"/>
<path class="st0" d="M2,73v7.3h33.4V47.1c0-9.2-7.5-16.7-16.7-16.7c0,0,0,0,0,0c-6.4,0-12.2,3.7-15,9.4"/>
<line class="st0" x1="52" y1="86.4" x2="62.3" y2="86.4"/>
<line class="st0" x1="55.8" y1="92.4" x2="62.3" y2="92.4"/>
<path class="st0" d="M72.5,30.4c-0.1,0-0.2,0-0.3,0v0H19.7v0.1c8.8,0.5,15.7,7.8,15.7,16.7v33.1h53.8V47.1
	C89.2,37.9,81.7,30.4,72.5,30.4C72.5,30.4,72.5,30.4,72.5,30.4z"/>
<line class="st1" x1="48.3" y1="24.5" x2="48.3" y2="9.7"/>
<polygon class="st1" points="48.3,13.3 48.3,7.7 48.3,2 67.8,2 63.6,7.7 67.8,13.3 "/>
<path class="st0" d="M6.4,35.8C3.6,38.9,2,42.9,2,47.1V78"/>
<line class="st1" x1="48.3" y1="51.5" x2="48.3" y2="36.7"/>
</svg>
