<svg id="_1" data-name="1" xmlns="http://www.w3.org/2000/svg" viewBox="0 0 512 512"><title>icon 5</title><line x1="32" y1="232" x2="32" y2="200" style="fill:none;stroke:#f1ba23;stroke-miterlimit:10;stroke-width:16px"/><line x1="72" y1="232" x2="72" y2="200" style="fill:none;stroke:#f1ba23;stroke-miterlimit:10;stroke-width:16px"/><line x1="32" y1="280" x2="32" y2="248" style="fill:none;stroke:#f1ba23;stroke-miterlimit:10;stroke-width:16px"/><line x1="72" y1="280" x2="72" y2="248" style="fill:none;stroke:#f1ba23;stroke-miterlimit:10;stroke-width:16px"/><line x1="144" y1="232" x2="144" y2="200" style="fill:none;stroke:#f1ba23;stroke-miterlimit:10;stroke-width:16px"/><line x1="144" y1="280" x2="144" y2="248" style="fill:none;stroke:#f1ba23;stroke-miterlimit:10;stroke-width:16px"/><line x1="216" y1="232" x2="216" y2="200" style="fill:none;stroke:#f1ba23;stroke-miterlimit:10;stroke-width:16px"/><line x1="216" y1="312" x2="216" y2="248" style="fill:none;stroke:#f1ba23;stroke-miterlimit:10;stroke-width:16px"/><line x1="288" y1="232" x2="288" y2="200" style="fill:none;stroke:#f1ba23;stroke-miterlimit:10;stroke-width:16px"/><line x1="288" y1="280" x2="288" y2="248" style="fill:none;stroke:#f1ba23;stroke-miterlimit:10;stroke-width:16px"/><rect x="216" y="8" width="72" height="33.4615" style="fill:none;stroke:#f1ba23;stroke-miterlimit:10;stroke-width:16px"/><polygon points="96 144 96 128 216 64 336 128 336 144 96 144" style="fill:none;stroke:#f1ba23;stroke-miterlimit:10;stroke-width:16px"/><line y1="177.4615" x2="512" y2="177.4615" style="fill:none;stroke:#f1ba23;stroke-miterlimit:10;stroke-width:16px"/><line x1="108" y1="176" x2="108" y2="312" style="fill:none;stroke:#f1ba23;stroke-miterlimit:10;stroke-width:16px"/><line x1="324" y1="176" x2="324" y2="312" style="fill:none;stroke:#f1ba23;stroke-miterlimit:10;stroke-width:16px"/><line x1="252" y1="176" x2="252" y2="312" style="fill:none;stroke:#f1ba23;stroke-miterlimit:10;stroke-width:16px"/><line x1="180" y1="176" x2="180" y2="312" style="fill:none;stroke:#f1ba23;stroke-miterlimit:10;stroke-width:16px"/><line x1="216.0003" y1="64" x2="216.0003" y2="8" style="fill:none;stroke:#f1ba23;stroke-miterlimit:10;stroke-width:16px"/><line x1="360" y1="232" x2="360" y2="200" style="fill:none;stroke:#f1ba23;stroke-miterlimit:10;stroke-width:16px"/><line x1="400" y1="232" x2="400" y2="200" style="fill:none;stroke:#f1ba23;stroke-miterlimit:10;stroke-width:16px"/><line x1="440" y1="232" x2="440" y2="200" style="fill:none;stroke:#f1ba23;stroke-miterlimit:10;stroke-width:16px"/><line x1="480" y1="232" x2="480" y2="200" style="fill:none;stroke:#f1ba23;stroke-miterlimit:10;stroke-width:16px"/><line x1="320" y1="304" y2="304" style="fill:none;stroke:#f1ba23;stroke-miterlimit:10;stroke-width:16px"/><rect x="360" y="464" width="144" height="40" style="fill:none;stroke:#252525;stroke-miterlimit:10;stroke-width:16px"/><polygon points="504 304.13 360 304 360 264 504 264 504 304.13" style="fill:none;stroke:#252525;stroke-miterlimit:10;stroke-width:16px"/><line x1="368" y1="336" x2="488" y2="336" style="fill:none;stroke:#252525;stroke-miterlimit:10;stroke-width:16px"/><line x1="376" y1="432" x2="488" y2="432" style="fill:none;stroke:#252525;stroke-miterlimit:10;stroke-width:16px"/><line x1="488" y1="304" x2="488" y2="464" style="fill:none;stroke:#252525;stroke-miterlimit:10;stroke-width:16px"/><path d="M3712.972,1840L3440,1839.5768c-13.25478,1.3333-24-10.7452-24-24s10.7452-22.6667,24-24h272" transform="translate(-3336 -1432)" style="fill:none;stroke:#252525;stroke-miterlimit:10;stroke-width:16px"/><line x1="376" y1="305.5269" x2="376" y2="464" style="fill:none;stroke:#252525;stroke-miterlimit:10;stroke-width:16px"/></svg>