<?xml version="1.0" encoding="utf-8"?>
<!-- Generator: Adobe Illustrator 19.2.1, SVG Export Plug-In . SVG Version: 6.00 Build 0)  -->
<svg version="1.1" id="icon_7" xmlns="http://www.w3.org/2000/svg" xmlns:xlink="http://www.w3.org/1999/xlink" x="0px" y="0px"
	 viewBox="0 0 73 73" style="enable-background:new 0 0 73 73;" xml:space="preserve">
<style type="text/css">
	.st0{fill:#FFFFFF;}
	.st1{fill:#252525;}
</style>
<path id="Фигура_9" class="st0" d="M66.2,20.5v-8c0-1.9-1.5-3.4-3.4-3.4H19.4c0.8,1,1.2,2.2,1.2,3.4v48.6l4.6,4.6l3.8-3.8
	c0.4-0.4,1.2-0.5,1.6,0c0,0,0,0,0,0l4.6,4.6l-1.6,1.6l-3.8-3.8l-3.8,3.8c-0.4,0.4-1.1,0.5-1.6,0c0,0,0,0,0,0l-5.7-5.7
	c-0.2-0.2-0.3-0.5-0.3-0.8v-49c0-1.9-1.5-3.4-3.4-3.5s-3.4,1.5-3.5,3.4c0,0,0,0.1,0,0.1v34.2c0,1.2-0.4,2.4-1.2,3.4H16v2.3H5.7
	c-3.1,0-5.7-2.6-5.7-5.7V1.1C0,0.5,0.5,0,1.1,0c0,0,0,0,0,0H49c0.6,0,1.1,0.5,1.1,1.1c0,0,0,0,0,0v3.4h-2.3V2.3H2.3v44.5
	c0,1.9,1.5,3.4,3.4,3.4c1.9,0,3.4-1.5,3.4-3.4V12.6c0-3.1,2.6-5.7,5.7-5.7h47.9c3.1,0,5.7,2.6,5.7,5.7v8L66.2,20.5L66.2,20.5z
	 M25.1,54.8h11.4V57H25.1V54.8z M29.7,18.3h11.4v2.3H29.7V18.3z M36.5,52.5h-2.3v-16h2.3L36.5,52.5L36.5,52.5z M29.7,52.5V41.1h2.3
	v11.4H29.7z M27.4,52.5h-2.3V31.9h2.3V52.5z M27.4,22.8h9.1v2.3H26.2c-0.6,0-1.1-0.5-1.1-1.1c0,0,0,0,0,0v-9.1
	c0-0.6,0.5-1.1,1.1-1.1c0,0,0,0,0,0h34.2c0.6,0,1.1,0.5,1.1,1.1c0,0,0,0,0,0v5.7h-2.3V16H27.4V22.8z"/>
<path id="Фигура_9_копия" class="st1" d="M71.9,73H39.9c-0.6,0-1.1-0.5-1.1-1.1c0,0,0,0,0,0V24c0-0.6,0.5-1.1,1.1-1.1
	c0,0,0,0,0,0h31.9c0.6,0,1.1,0.5,1.1,1.1c0,0,0,0,0,0v47.9C73,72.5,72.5,73,71.9,73C71.9,73,71.9,73,71.9,73z M70.7,25.1H41.1v45.6
	h29.7V25.1z M68.4,29.7H43.3v-2.3h25.1V29.7z M52.5,30.8v2.3h-2.3v-2.3H52.5z M57,30.8v2.3h-2.3v-2.3H57z M61.6,30.8v2.3h-2.3v-2.3
	H61.6z M66.2,30.8v2.3h-2.3v-2.3H66.2z M68.4,36.5H43.3v-2.3h25.1V36.5z M44.5,43.3H49c0.6,0,1.1,0.5,1.1,1.1c0,0,0,0,0,0v4.6
	c0,0.6-0.5,1.1-1.1,1.1c0,0,0,0,0,0h-4.6c-0.6,0-1.1-0.5-1.1-1.1c0,0,0,0,0,0v-4.6C43.3,43.9,43.9,43.3,44.5,43.3
	C44.5,43.3,44.5,43.3,44.5,43.3z M45.6,47.9h2.3v-2.3h-2.3V47.9z M44.5,52.5H49c0.6,0,1.1,0.5,1.1,1.1c0,0,0,0,0,0v4.6
	c0,0.6-0.5,1.1-1.1,1.1c0,0,0,0,0,0h-4.6c-0.6,0-1.1-0.5-1.1-1.1c0,0,0,0,0,0v-4.6C43.3,53,43.9,52.5,44.5,52.5
	C44.5,52.5,44.5,52.5,44.5,52.5L44.5,52.5z M45.6,57h2.3v-2.3h-2.3V57z M44.5,61.6H49c0.6,0,1.1,0.5,1.1,1.1c0,0,0,0,0,0v4.6
	c0,0.6-0.5,1.1-1.1,1.1c0,0,0,0,0,0h-4.6c-0.6,0-1.1-0.5-1.1-1.1c0,0,0,0,0,0v-4.6C43.3,62.1,43.9,61.6,44.5,61.6
	C44.5,61.6,44.5,61.6,44.5,61.6L44.5,61.6z M45.6,66.2h2.3v-2.3h-2.3V66.2z M53.6,43.3h4.6c0.6,0,1.1,0.5,1.1,1.1c0,0,0,0,0,0v4.6
	c0,0.6-0.5,1.1-1.1,1.1c0,0,0,0,0,0h-4.6c-0.6,0-1.1-0.5-1.1-1.1c0,0,0,0,0,0v-4.6C52.5,43.9,53,43.3,53.6,43.3
	C53.6,43.3,53.6,43.3,53.6,43.3L53.6,43.3z M54.7,47.9H57v-2.3h-2.3V47.9z M53.6,52.5h4.6c0.6,0,1.1,0.5,1.1,1.1c0,0,0,0,0,0v4.6
	c0,0.6-0.5,1.1-1.1,1.1c0,0,0,0,0,0h-4.6c-0.6,0-1.1-0.5-1.1-1.1c0,0,0,0,0,0v-4.6C52.5,53,53,52.5,53.6,52.5
	C53.6,52.5,53.6,52.5,53.6,52.5L53.6,52.5z M54.7,57H57v-2.3h-2.3V57z M53.6,61.6h4.6c0.6,0,1.1,0.5,1.1,1.1c0,0,0,0,0,0v4.6
	c0,0.6-0.5,1.1-1.1,1.1c0,0,0,0,0,0h-4.6c-0.6,0-1.1-0.5-1.1-1.1c0,0,0,0,0,0v-4.6C52.5,62.1,53,61.6,53.6,61.6
	C53.6,61.6,53.6,61.6,53.6,61.6L53.6,61.6z M54.7,66.2H57v-2.3h-2.3V66.2z M68.4,41.1h-6.8v-2.3h6.8V41.1z M62.7,43.3h4.6
	c0.6,0,1.1,0.5,1.1,1.1c0,0,0,0,0,0v4.6c0,0.6-0.5,1.1-1.1,1.1c0,0,0,0,0,0h-4.6c-0.6,0-1.1-0.5-1.1-1.1c0,0,0,0,0,0v-4.6
	C61.6,43.9,62.1,43.3,62.7,43.3L62.7,43.3z M63.9,47.9h2.3v-2.3h-2.3V47.9z M62.7,52.5h4.6c0.6,0,1.1,0.5,1.1,1.1c0,0,0,0,0,0v4.6
	c0,0.6-0.5,1.1-1.1,1.1c0,0,0,0,0,0h-4.6c-0.6,0-1.1-0.5-1.1-1.1c0,0,0,0,0,0v-4.6C61.6,53,62.1,52.5,62.7,52.5L62.7,52.5z M63.9,57
	h2.3v-2.3h-2.3V57z M62.7,61.6h4.6c0.6,0,1.1,0.5,1.1,1.1c0,0,0,0,0,0v4.6c0,0.6-0.5,1.1-1.1,1.1c0,0,0,0,0,0h-4.6
	c-0.6,0-1.1-0.5-1.1-1.1c0,0,0,0,0,0v-4.6C61.6,62.1,62.1,61.6,62.7,61.6L62.7,61.6z M63.9,66.2h2.3v-2.3h-2.3V66.2z"/>
</svg>
