<svg id="icon_4" data-name="icon 4" xmlns="http://www.w3.org/2000/svg" width="86" height="73" viewBox="0 0 86 73">
  <defs>
    <style>
      .cls-1 {
        fill: #e8aa00;
      }

      .cls-1, .cls-2 {
        fill-rule: evenodd;
      }

      .cls-2 {
        fill: #252525;
      }
    </style>
  </defs>
  <path id="Фигура_6" data-name="Фигура 6" class="cls-1" d="M1458.03,2176v-14.04h2.69v11.23h72.56v-11.23h2.69V2176h-77.94Zm75.25-41.73a10.528,10.528,0,0,1-8.06,3.83h-56.44a10.528,10.528,0,0,1-8.06-3.83v10.84h-2.69v-30.88h26.88v-9.83a1.373,1.373,0,0,1,1.34-1.4h21.5a1.373,1.373,0,0,1,1.34,1.4v9.83h26.88v30.88h-2.69v-10.84Zm-26.87-22.85h-18.82v2.81h18.82v-2.81Zm-18.82-5.61v2.8h18.82v-2.8h-18.82Zm45.69,11.23h-72.56v9.82a8.256,8.256,0,0,0,8.06,8.43h56.44a8.262,8.262,0,0,0,8.06-8.43v-9.82Zm-32.25,9.82h2.69v2.81h-2.69v-2.81Zm-5.37,0h2.68v2.81h-2.68v-2.81Zm-5.38,0h2.69v2.81h-2.69v-2.81Z" transform="translate(-1454 -2103)"/>
  <path id="Фигура_6_копия" data-name="Фигура 6 копия" class="cls-2" d="M1531.94,2159.15h-6.72v5.62h-20.16v-2.81h17.47v-2.81h-60.47a1.316,1.316,0,0,1-.69-0.2l-6.72-4.21a1.419,1.419,0,0,1-.65-1.2,1.437,1.437,0,0,1,.65-1.21l6.72-4.21a1.316,1.316,0,0,1,.69-0.2H1540v11.23h-8.06Zm-63.16-8.42h-6.35l-4.48,2.81,4.48,2.81h6.35v-5.62Zm21.5,0h-18.81v5.62h18.81v-5.62Zm40.31,0h-37.62v5.62h37.62v-5.62Zm6.72,0h-4.03v5.62h4.03v-5.62Z" transform="translate(-1454 -2103)"/>
</svg>
