<svg id="icon_8" data-name="icon 8" xmlns="http://www.w3.org/2000/svg" width="74.969" height="70" viewBox="0 0 74.969 70">
  <defs>
    <style>
      .cls-1 {
        fill: #e8aa00;
      }

      .cls-1, .cls-2 {
        fill-rule: evenodd;
      }

      .cls-2 {
        fill: #252525;
      }
    </style>
  </defs>
  <path id="Фигура_7" data-name="Фигура 7" class="cls-1" d="M397.369,2466a1.174,1.174,0,0,1-1.172-1.17v-8.16h-4.686a3.512,3.512,0,0,1-3.516-3.5V2427.5a3.512,3.512,0,0,1,3.516-3.5h56.238a3.512,3.512,0,0,1,3.515,3.5v25.67a3.512,3.512,0,0,1-3.515,3.5H407.227l-9.03,8.99A1.184,1.184,0,0,1,397.369,2466Zm-5.858-39.67a1.176,1.176,0,0,0-1.172,1.17v25.67a1.167,1.167,0,0,0,1.172,1.16h5.858a1.174,1.174,0,0,1,1.171,1.17v6.52l7.373-7.35a1.212,1.212,0,0,1,.829-0.34h41.007a1.167,1.167,0,0,0,1.171-1.16V2427.5a1.176,1.176,0,0,0-1.171-1.17H391.511ZM447.749,2494H399.712a3.512,3.512,0,0,1-3.515-3.5v-22.17h2.343v22.17a1.176,1.176,0,0,0,1.172,1.17h48.037a1.176,1.176,0,0,0,1.171-1.17v-11.67a1.153,1.153,0,0,1,.344-0.82l9.716-9.68h-8.888a1.167,1.167,0,0,1-1.172-1.16v-4.67a1.176,1.176,0,0,0-1.171-1.17H407.913V2459h39.836a3.512,3.512,0,0,1,3.515,3.5v3.5h10.544a1.166,1.166,0,0,1,.829,1.99l-11.373,11.33v11.18A3.512,3.512,0,0,1,447.749,2494Zm-1.172-53.67H392.682V2438h53.895v2.33Zm0,4.67H392.682v-2.33h53.895V2445Zm-35.149,4.67H392.682v-2.34h18.746v2.34Zm9.373-16.34h-2.343V2431H420.8v2.33Zm4.687,0h-2.344V2431h2.344v2.33Zm-9.373,0h-2.343V2431h2.343v2.33Z" transform="translate(-388 -2424)"/>
  <path id="Фигура_7_копия" data-name="Фигура 7 копия" class="cls-2" d="M446.577,2482.33H400.884V2480h45.693v2.33ZM434.861,2487H400.884v-2.33h33.977V2487Zm-19.918-18.67H412.6V2466h2.343v2.33Zm4.687,0h-2.344V2466h2.344v2.33Zm-9.373,0h-2.344V2466h2.344v2.33Zm35.149,9.34H402.055a1.174,1.174,0,0,1-1.171-1.17v-4.67a1.166,1.166,0,0,1,1.171-1.16h43.351a1.166,1.166,0,0,1,1.171,1.16v4.67A1.175,1.175,0,0,1,445.406,2477.67Zm-42.179-2.34h41.007V2473H403.227v2.33Z" transform="translate(-388 -2424)"/>
</svg>
