<?xml version="1.0" encoding="utf-8"?>
<!-- Generator: Adobe Illustrator 19.2.1, SVG Export Plug-In . SVG Version: 6.00 Build 0)  -->
<svg version="1.1" id="icon_8" xmlns="http://www.w3.org/2000/svg" xmlns:xlink="http://www.w3.org/1999/xlink" x="0px" y="0px"
	 viewBox="0 0 75 70" style="enable-background:new 0 0 75 70;" xml:space="preserve">
<style type="text/css">
	.st0{fill:#FFFFFF;}
	.st1{fill:#252525;}
</style>
<path id="Фигура_7" class="st0" d="M9.4,42c-0.6,0-1.2-0.5-1.2-1.2v-8.2H3.5c-1.9,0-3.5-1.6-3.5-3.5V3.5C0,1.6,1.6,0,3.5,0
	h56.2c1.9,0,3.5,1.6,3.5,3.5v25.7c0,1.9-1.6,3.5-3.5,3.5H19.2l-9,9C10,41.9,9.7,42,9.4,42z M3.5,2.3c-0.6,0-1.2,0.5-1.2,1.2v25.7
	c0,0.6,0.5,1.2,1.2,1.2h5.9c0.6,0,1.2,0.5,1.2,1.2V38l7.4-7.4c0.2-0.2,0.5-0.3,0.8-0.3h41c0.6,0,1.2-0.5,1.2-1.2V3.5
	c0-0.6-0.5-1.2-1.2-1.2H3.5z M59.7,70h-48c-1.9,0-3.5-1.6-3.5-3.5V44.3h2.3v22.2c0,0.6,0.5,1.2,1.2,1.2h48c0.6,0,1.2-0.5,1.2-1.2
	V54.8c0-0.3,0.1-0.6,0.3-0.8l9.7-9.7h-8.9c-0.6,0-1.2-0.5-1.2-1.2v-4.7c0-0.6-0.5-1.2-1.2-1.2H19.9V35h39.8c1.9,0,3.5,1.6,3.5,3.5
	V42h10.5c0.6,0,1.2,0.5,1.2,1.2c0,0.3-0.1,0.6-0.3,0.8L63.3,55.3v11.2C63.3,68.4,61.7,70,59.7,70z M58.6,16.3H4.7V14h53.9V16.3z
	 M58.6,21H4.7v-2.3h53.9V21z M23.4,25.7H4.7v-2.3h18.7V25.7z M32.8,9.3h-2.3V7h2.3L32.8,9.3L32.8,9.3z M37.5,9.3h-2.3V7h2.3V9.3
	L37.5,9.3z M28.1,9.3h-2.3V7h2.3V9.3L28.1,9.3z"/>
<path id="Фигура_7_копия" class="st1" d="M58.6,58.3H12.9V56h45.7V58.3z M46.9,63h-34v-2.3h34V63z M26.9,44.3h-2.3V42
	h2.3V44.3z M31.6,44.3h-2.3V42h2.3V44.3z M22.3,44.3h-2.3V42h2.3V44.3z M57.4,53.7H14.1c-0.6,0-1.2-0.5-1.2-1.2v-4.7
	c0-0.6,0.5-1.2,1.2-1.2h43.4c0.6,0,1.2,0.5,1.2,1.2v4.7C58.6,53.1,58.1,53.7,57.4,53.7L57.4,53.7z M15.2,51.3h41V49h-41V51.3z"/>
</svg>
