<?xml version="1.0" encoding="utf-8"?>
<!-- Generator: Adobe Illustrator 19.2.1, SVG Export Plug-In . SVG Version: 6.00 Build 0)  -->
<svg version="1.1" id="icon_1" xmlns="http://www.w3.org/2000/svg" xmlns:xlink="http://www.w3.org/1999/xlink" x="0px" y="0px"
	 viewBox="0 0 61 75" style="enable-background:new 0 0 61 75;" xml:space="preserve">
<style type="text/css">
	.st0{fill:#FFFFFF;}
	.st1{fill:#252525;}
</style>
<path id="Фигура_5" class="st0" d="M14.1,23.4v-2.4h2.3v2.4H14.1z M29.3,24.6c-1.3,0-2.3,1-2.3,2.3v22.3h-2.3V75h-2.3V46.9
	h2.3v-2.3H10.6v-2.3h14.1V26.9c0-2.6,2.1-4.7,4.7-4.7h21.1v-3.5H5.9c-1.9,0-3.5,1.6-3.5,3.5v29.3h3.5V25.8h2.3v21.1h11.7v2.4H8.2
	v4.7H0V22.3c0-3.2,2.6-5.9,5.9-5.9h46.9v8.2L29.3,24.6L29.3,24.6z M15.3,14.1c-3.9,0-7-3.2-7-7s3.2-7,7-7c3.9,0,7,3.2,7,7
	C22.3,10.9,19.1,14.1,15.3,14.1L15.3,14.1z M15.3,2.3c-2.6,0-4.7,2.1-4.7,4.7c0,2.6,2.1,4.7,4.7,4.7c2.6,0,4.7-2.1,4.7-4.7
	C19.9,4.4,17.8,2.3,15.3,2.3L15.3,2.3z M8.2,75H5.9V56.3h2.3V75z M16.4,75h-2.3V51.6h2.3V75z M43.4,32.8h1.9l1.7-1.7l1.7,1.7h1.9
	v1.9l1.7,1.7L50.4,38v1.9h-1.9l-1.7,1.7l-1.7-1.7h-1.9V38l-1.7-1.6l1.7-1.7L43.4,32.8L43.4,32.8z"/>
<path id="Фигура_5_копия" class="st1" d="M58.7,58.6V75h-2.3V58.6H54V75h-2.3V58.6h-2.3V75h-2.3V58.6h-7v-2.3h18.8v-2.3
	H32.8v2.3h4.7v2.3h-2.3V75h-2.3V58.6h-2.3v-7H61v7H58.7L58.7,58.6z"/>
</svg>
