<svg id="Layer_1" data-name="Layer 1" xmlns="http://www.w3.org/2000/svg" viewBox="0 0 383.80909 552.5981"><title>icon 2</title><path d="M817.8154,889.9839a4.65465,4.65465,0,0,1-4.6025-4.0156c-11.3457-81.6114,26.2559-130.8033,33.415-139.3164l2.501-34.9078h295.9385a4.6558,4.6558,0,0,1,0,9.3116H857.7979l-2.1075,29.4189-1.0898,1.1929c-0.4346.4804-43.7901,49.3994-32.166,133.0205a4.65726,4.65726,0,0,1-3.9707,5.2519A4.84417,4.84417,0,0,1,817.8154,889.9839Z" transform="translate(-808.09526 -636.9937)" style="fill:#e9ad08;stroke:#e9ad08;stroke-miterlimit:10;stroke-width:6px"/><path d="M949.3818,721.0576a4.70318,4.70318,0,0,1-1.2089-.1601,4.65374,4.65374,0,0,1-3.2891-5.7037c4.0996-15.2841,14.1611-23.7006,28.3291-23.7006,8.6494,0,16.1689-1.2149,22.3545-3.6099,11.207-4.2998,16.0732-11.6309,19.624-16.9834a48.752,48.752,0,0,1,2.8897-4.0664,4.65554,4.65554,0,0,1,7.1796,5.9287c-0.6543.7915-1.4199,1.9482-2.3125,3.2886-3.7617,5.6684-10.0625,15.1606-24.0293,20.52-7.25,2.8081-15.9023,4.2339-25.706,4.2339-9.9775,0-16.3047,5.4961-19.3359,16.8013A4.659,4.659,0,0,1,949.3818,721.0576Z" transform="translate(-808.09526 -636.9937)" style="fill:#e9ad08;stroke:#e9ad08;stroke-miterlimit:10;stroke-width:6px"/><path d="M1031.1113,678.0024a19.00435,19.00435,0,1,1,19-19.0019A19.02718,19.02718,0,0,1,1031.1113,678.0024Zm0-28.6972a9.6926,9.6926,0,1,0,9.6905,9.6953A9.70872,9.70872,0,0,0,1031.1113,649.3052Z" transform="translate(-808.09526 -636.9937)" style="fill:#e9ad08;stroke:#e9ad08;stroke-miterlimit:10;stroke-width:6px"/><path d="M1045.1201,721.0576a4.65891,4.65891,0,0,1-4.4922-3.4516c-3.0312-11.3052-9.3545-16.8013-19.332-16.8013a72.40179,72.40179,0,0,1-24.8926-3.9243h-0.0176l-0.8359-.3116c-13.9346-5.3554-20.2275-14.8417-23.9873-20.5087-0.8906-1.3443-1.6592-2.5049-2.3145-3.2979a4.656,4.656,0,0,1,7.1807-5.9287,49.48947,49.48947,0,0,1,2.8945,4.0776c3.4873,5.2593,8.2422,12.4273,19.0039,16.7466l0.6026,0.2256c6.1904,2.395,13.7158,3.6099,22.3662,3.6099,14.168,0,24.2285,8.4165,28.3281,23.7006A4.661,4.661,0,0,1,1045.1201,721.0576Z" transform="translate(-808.09526 -636.9937)" style="fill:#e9ad08;stroke:#e9ad08;stroke-miterlimit:10;stroke-width:6px"/><path d="M963.3945,678.0024a19.00435,19.00435,0,1,1,19.0049-19.0019A19.02537,19.02537,0,0,1,963.3945,678.0024Zm0-28.6972a9.6926,9.6926,0,1,0,9.6905,9.6953A9.70711,9.70711,0,0,0,963.3945,649.3052Z" transform="translate(-808.09526 -636.9937)" style="fill:#e9ad08;stroke:#e9ad08;stroke-miterlimit:10;stroke-width:6px"/><path d="M839.8271,937.7051l-26.1347-50.2276a4.65582,4.65582,0,0,1,8.2597-4.2993l17.876,34.3589,32.2686-61.9897,32.3056,61.9946,32.2696-61.9985,32.2763,61.9985,32.3008-61.9946,32.2725,61.9917,32.2695-61.9917,32.3018,61.9946,32.2705-61.9917,32.3369,61.9985,14.584-27.9907,0.624-.5635a4.661,4.661,0,0,1,7.0791,5.9322l-22.2832,42.7666-32.333-61.9917-32.2744,61.9995-32.3037-61.9956-32.2715,61.9975-32.2744-61.9975-32.3047,61.9956L936.6719,875.709l-32.2647,61.9922-32.3056-61.9956Z" transform="translate(-808.09526 -636.9937)" style="fill:#e9ad08;stroke:#e9ad08;stroke-miterlimit:10;stroke-width:6px"/><path d="M1180.9346,897.835a4.714,4.714,0,0,1-.8057-0.0689,4.66168,4.66168,0,0,1-3.7871-5.3891c15.501-88.5606-30.5225-140.1963-30.9893-140.7076l-1.0879-1.1948-2.1083-29.4316H854.9033a4.6558,4.6558,0,0,1,0-9.3116h295.9219l2.499,34.9185c7.4112,8.8027,47.3047,60.9658,32.1904,147.3311A4.6532,4.6532,0,0,1,1180.9346,897.835Z" transform="translate(-808.09526 -636.9937)" style="fill:#e9ad08;stroke:#e9ad08;stroke-miterlimit:10;stroke-width:6px"/><path d="M1090.335,1055.1719a47.14187,47.14187,0,0,1-44.003-30.5938,46.96292,46.96292,0,0,1,43.9922-63.3037A46.94877,46.94877,0,0,1,1090.335,1055.1719Zm-0.0108-84.586a37.63282,37.63282,0,1,0,35.2686,24.5254A37.51887,37.51887,0,0,0,1090.3242,970.5859Z" transform="translate(-808.09526 -636.9937)" style="fill:#252525;stroke:#252525;stroke-miterlimit:10;stroke-width:4px"/><path d="M1083.084,1026.5283a21.77777,21.77777,0,0,0,10.7617-1.1084c4.8486-1.8008,6.5313-5.0547,5.2803-8.4238-1.209-3.2549-4.125-4.3916-9.9629-4.71-7.959-.4052-13.7998-3.0791-15.9961-8.9912-2.7686-7.4511.9492-15.3633,10.7627-19.0127a23.51689,23.51689,0,0,1,10.5303-1.5586l0.8242,7.835a18.63816,18.63816,0,0,0-8.8252,1.0625c-4.6133,1.7148-5.7559,4.9687-4.8135,7.5098,1.209,3.25,4.0059,3.8964,10.5108,4.3711,8.4814,0.5468,13.2958,3.5351,15.5166,9.5078,2.9453,7.9218-.875,15.9394-11.46,19.8769-4.4912,1.6699-9.5088,2.1201-12.1191,1.6133Z" transform="translate(-808.09526 -636.9937)" style="fill:#252525;stroke:#252525;stroke-miterlimit:10;stroke-width:4px"/><line x1="290.62644" y1="390.9829" x2="293.95844" y2="399.9497" style="fill:#252525;stroke:#252525;stroke-miterlimit:10;stroke-width:4px"/><rect x="1097.59513" y="1027.6761" width="5.58755" height="9.5672" transform="translate(-1098.9835 -188.63732) rotate(-20.40155)" style="fill:#252525;stroke:#252525;stroke-miterlimit:10;stroke-width:4px"/><line x1="272.71524" y1="342.8051" x2="275.68014" y2="350.7807" style="fill:#252525;stroke:#252525;stroke-miterlimit:10;stroke-width:4px"/><rect x="1079.50038" y="979.53187" width="5.58614" height="8.50906" transform="translate(-1083.23845 -197.78103) rotate(-20.41073)" style="fill:#252525;stroke:#252525;stroke-miterlimit:10;stroke-width:4px"/><path d="M1004.9209,1187.5918a46.95208,46.95208,0,1,1,44.6543-32.5137A46.94007,46.94007,0,0,1,1004.9209,1187.5918Zm-0.0127-84.5859a37.68087,37.68087,0,1,0,11.582,1.8339A37.52665,37.52665,0,0,0,1004.9082,1103.0059Z" transform="translate(-808.09526 -636.9937)" style="fill:#252525;stroke:#252525;stroke-miterlimit:10;stroke-width:4px"/><path d="M989.1465,1150.1953a21.75323,21.75323,0,0,0,9.1299,5.8008c4.9228,1.5937,8.2597.0859,9.3662-3.3359,1.0674-3.3008-.5147-6.001-4.8985-9.8711-5.9912-5.25-8.917-10.9707-6.9775-16.9737,2.4453-7.5634,10.2695-11.4658,20.2354-8.2441a23.48055,23.48055,0,0,1,9.2236,5.3037l-4.207,6.6621a18.65463,18.65463,0,0,0-7.584-4.6406c-4.6826-1.5127-7.5948.3281-8.4317,2.9101-1.0683,3.3008.7315,5.5381,5.5332,9.9454,6.3145,5.6855,8.2432,11.0175,6.2832,17.0781-2.5976,8.0449-10.5664,11.9687-21.3105,8.4961-4.5606-1.4756-8.7754-4.2305-10.5088-6.25Z" transform="translate(-808.09526 -636.9937)" style="fill:#252525;stroke:#252525;stroke-miterlimit:10;stroke-width:4px"/><line x1="192.42334" y1="524.0297" x2="189.48094" y2="533.1333" style="fill:#252525;stroke:#252525;stroke-miterlimit:10;stroke-width:4px"/><rect x="994.26412" y="1162.78169" width="9.5694" height="5.58702" transform="translate(-1225.62014 1120.17515) rotate(-72.06568)" style="fill:#252525;stroke:#252525;stroke-miterlimit:10;stroke-width:4px"/><line x1="208.23284" y1="475.1274" x2="205.61764" y2="483.2172" style="fill:#252525;stroke:#252525;stroke-miterlimit:10;stroke-width:4px"/><rect x="1010.76945" y="1113.37074" width="8.5021" height="5.58863" transform="translate(-1167.07875 1102.23158) rotate(-72.10972)" style="fill:#252525;stroke:#252525;stroke-miterlimit:10;stroke-width:4px"/><path d="M922.4209,1055.1123a46.939,46.939,0,1,1,46.9336-46.9424A46.99329,46.99329,0,0,1,922.4209,1055.1123Zm0-84.5674a37.628,37.628,0,1,0,37.624,37.625A37.67124,37.67124,0,0,0,922.4209,970.5449Z" transform="translate(-808.09526 -636.9937)" style="fill:#252525;stroke:#252525;stroke-miterlimit:10;stroke-width:4px"/><path d="M910.0176,1021.9961a21.761,21.761,0,0,0,10.4697,2.7109c5.1768,0,7.8897-2.4599,7.8897-6.0547,0-3.4726-2.334-5.5527-7.6963-7.8886-7.3184-3.1524-11.8614-7.6963-11.8614-14.0039,0-7.9473,6.2461-14.0664,16.7168-14.0664a23.48232,23.48232,0,0,1,10.4102,2.206l-1.9561,7.6338a18.69658,18.69658,0,0,0-8.6416-2.0801c-4.9209,0-7.1289,2.6485-7.1289,5.3614,0,3.4707,2.3965,5.0468,8.3252,7.7578,7.7608,3.4707,11.2305,7.9482,11.2305,14.3203,0,8.4551-6.3721,14.6367-17.6641,14.6367-4.7939,0-9.6523-1.3242-11.9218-2.7109Z" transform="translate(-808.09526 -636.9937)" style="fill:#252525;stroke:#252525;stroke-miterlimit:10;stroke-width:4px"/><line x1="116.07854" y1="391.8061" x2="116.07854" y2="401.3754" style="fill:#252525;stroke:#252525;stroke-miterlimit:10;stroke-width:4px"/><rect x="113.28564" y="391.8061" width="5.5849" height="9.5693" style="fill:#252525;stroke:#252525;stroke-miterlimit:10;stroke-width:4px"/><line x1="116.07854" y1="340.4106" x2="116.07854" y2="348.9165" style="fill:#252525;stroke:#252525;stroke-miterlimit:10;stroke-width:4px"/><rect x="113.28564" y="340.4106" width="5.5849" height="8.5059" style="fill:#252525;stroke:#252525;stroke-miterlimit:10;stroke-width:4px"/><path d="M1147.0625,753.186H851.1602a4.65575,4.65575,0,0,1,0-9.3115h295.9023A4.65575,4.65575,0,0,1,1147.0625,753.186Z" transform="translate(-808.09526 -636.9937)" style="fill:#e9ad08;stroke:#e9ad08;stroke-miterlimit:10;stroke-width:6px"/></svg>