<svg id="icon_7" data-name="icon 7" xmlns="http://www.w3.org/2000/svg" width="73" height="73" viewBox="0 0 73 73">
  <defs>
    <style>
      .cls-1 {
        fill: #e8aa00;
      }

      .cls-1, .cls-2 {
        fill-rule: evenodd;
      }

      .cls-2 {
        fill: #252525;
      }
    </style>
  </defs>
  <path id="Фигура_9" data-name="Фигура 9" class="cls-1" d="M807.156,2441.53v-7.98a3.431,3.431,0,0,0-3.422-3.43H760.361a5.676,5.676,0,0,1,1.17,3.43v48.57l4.562,4.56,3.756-3.75a1.132,1.132,0,0,1,1.613,0l4.563,4.56-1.613,1.61-3.756-3.75-3.757,3.75a1.125,1.125,0,0,1-1.612,0l-5.7-5.7a1.129,1.129,0,0,1-.335-0.81v-49.04a3.422,3.422,0,1,0-6.843,0v34.22a5.669,5.669,0,0,1-1.17,3.42h5.732v2.28H746.7a5.711,5.711,0,0,1-5.7-5.7v-45.63a1.14,1.14,0,0,1,1.141-1.14h47.907a1.139,1.139,0,0,1,1.14,1.14v3.42h-2.281v-2.28H743.281v44.49a3.422,3.422,0,0,0,6.844,0v-34.22a5.712,5.712,0,0,1,5.7-5.71h47.907a5.712,5.712,0,0,1,5.7,5.71v7.98h-2.281Zm-41.063,34.22H777.5v2.28H766.093v-2.28Zm4.563-36.5h11.406v2.28H770.656v-2.28Zm6.843,34.22h-2.281V2457.5H777.5v15.97Zm-6.843,0v-11.41h2.281v11.41h-2.281Zm-2.281,0h-2.282v-20.53h2.282v20.53Zm0-29.66H777.5v2.28H767.234a1.14,1.14,0,0,1-1.141-1.14v-9.12a1.14,1.14,0,0,1,1.141-1.14h34.219a1.139,1.139,0,0,1,1.14,1.14v5.7h-2.281v-4.56H768.375v6.84Z" transform="translate(-741 -2421)"/>
  <path id="Фигура_9_копия" data-name="Фигура 9 копия" class="cls-2" d="M812.859,2494H780.921a1.139,1.139,0,0,1-1.14-1.14v-47.91a1.139,1.139,0,0,1,1.14-1.14h31.938a1.14,1.14,0,0,1,1.141,1.14v47.91A1.14,1.14,0,0,1,812.859,2494Zm-1.141-47.91H782.062v45.63h29.656v-45.63Zm-2.281,4.57H784.343v-2.29h25.094v2.29Zm-15.969,1.14v2.28h-2.281v-2.28h2.281Zm4.563,0v2.28h-2.282v-2.28h2.282Zm4.562,0v2.28h-2.281v-2.28h2.281Zm4.563,0v2.28h-2.281v-2.28h2.281Zm2.281,5.7H784.343v-2.28h25.094v2.28Zm-23.953,6.84h4.563a1.139,1.139,0,0,1,1.14,1.14v4.57a1.139,1.139,0,0,1-1.14,1.14h-4.563a1.14,1.14,0,0,1-1.141-1.14v-4.57A1.14,1.14,0,0,1,785.484,2464.34Zm1.141,4.57h2.281v-2.29h-2.281v2.29Zm-1.141,4.56h4.563a1.139,1.139,0,0,1,1.14,1.14v4.56a1.139,1.139,0,0,1-1.14,1.14h-4.563a1.14,1.14,0,0,1-1.141-1.14v-4.56A1.14,1.14,0,0,1,785.484,2473.47Zm1.141,4.56h2.281v-2.28h-2.281v2.28Zm-1.141,4.56h4.563a1.139,1.139,0,0,1,1.14,1.14v4.57a1.139,1.139,0,0,1-1.14,1.14h-4.563a1.14,1.14,0,0,1-1.141-1.14v-4.57A1.14,1.14,0,0,1,785.484,2482.59Zm1.141,4.57h2.281v-2.29h-2.281v2.29Zm7.984-22.82h4.562a1.14,1.14,0,0,1,1.141,1.14v4.57a1.14,1.14,0,0,1-1.141,1.14h-4.562a1.14,1.14,0,0,1-1.141-1.14v-4.57A1.14,1.14,0,0,1,794.609,2464.34Zm1.14,4.57h2.282v-2.29h-2.282v2.29Zm-1.14,4.56h4.562a1.14,1.14,0,0,1,1.141,1.14v4.56a1.14,1.14,0,0,1-1.141,1.14h-4.562a1.14,1.14,0,0,1-1.141-1.14v-4.56A1.14,1.14,0,0,1,794.609,2473.47Zm1.14,4.56h2.282v-2.28h-2.282v2.28Zm-1.14,4.56h4.562a1.14,1.14,0,0,1,1.141,1.14v4.57a1.14,1.14,0,0,1-1.141,1.14h-4.562a1.14,1.14,0,0,1-1.141-1.14v-4.57A1.14,1.14,0,0,1,794.609,2482.59Zm1.14,4.57h2.282v-2.29h-2.282v2.29Zm13.688-25.1h-6.844v-2.28h6.844v2.28Zm-5.7,2.28H808.3a1.14,1.14,0,0,1,1.141,1.14v4.57a1.14,1.14,0,0,1-1.141,1.14h-4.562a1.14,1.14,0,0,1-1.141-1.14v-4.57A1.14,1.14,0,0,1,803.734,2464.34Zm1.141,4.57h2.281v-2.29h-2.281v2.29Zm-1.141,4.56H808.3a1.14,1.14,0,0,1,1.141,1.14v4.56a1.14,1.14,0,0,1-1.141,1.14h-4.562a1.14,1.14,0,0,1-1.141-1.14v-4.56A1.14,1.14,0,0,1,803.734,2473.47Zm1.141,4.56h2.281v-2.28h-2.281v2.28Zm-1.141,4.56H808.3a1.14,1.14,0,0,1,1.141,1.14v4.57a1.14,1.14,0,0,1-1.141,1.14h-4.562a1.14,1.14,0,0,1-1.141-1.14v-4.57A1.14,1.14,0,0,1,803.734,2482.59Zm1.141,4.57h2.281v-2.29h-2.281v2.29Z" transform="translate(-741 -2421)"/>
</svg>
