<?xml version="1.0" encoding="utf-8"?>
<!-- Generator: Adobe Illustrator 19.2.1, SVG Export Plug-In . SVG Version: 6.00 Build 0)  -->
<svg version="1.1" id="_1" xmlns="http://www.w3.org/2000/svg" xmlns:xlink="http://www.w3.org/1999/xlink" x="0px" y="0px"
	 viewBox="0 0 512 512" style="enable-background:new 0 0 512 512;" xml:space="preserve">
<style type="text/css">
	.st0{fill:none;stroke:#FFFFFF;stroke-width:16;stroke-miterlimit:10;}
	.st1{fill:none;stroke:#252525;stroke-width:16;stroke-miterlimit:10;}
</style>
<title>icon 5</title>
<line class="st0" x1="32" y1="232" x2="32" y2="200"/>
<line class="st0" x1="72" y1="232" x2="72" y2="200"/>
<line class="st0" x1="32" y1="280" x2="32" y2="248"/>
<line class="st0" x1="72" y1="280" x2="72" y2="248"/>
<line class="st0" x1="144" y1="232" x2="144" y2="200"/>
<line class="st0" x1="144" y1="280" x2="144" y2="248"/>
<line class="st0" x1="216" y1="232" x2="216" y2="200"/>
<line class="st0" x1="216" y1="312" x2="216" y2="248"/>
<line class="st0" x1="288" y1="232" x2="288" y2="200"/>
<line class="st0" x1="288" y1="280" x2="288" y2="248"/>
<rect x="216" y="8" class="st0" width="72" height="33.5"/>
<polygon class="st0" points="96,144 96,128 216,64 336,128 336,144 "/>
<line class="st0" x1="0" y1="177.5" x2="512" y2="177.5"/>
<line class="st0" x1="108" y1="176" x2="108" y2="312"/>
<line class="st0" x1="324" y1="176" x2="324" y2="312"/>
<line class="st0" x1="252" y1="176" x2="252" y2="312"/>
<line class="st0" x1="180" y1="176" x2="180" y2="312"/>
<line class="st0" x1="216" y1="64" x2="216" y2="8"/>
<line class="st0" x1="360" y1="232" x2="360" y2="200"/>
<line class="st0" x1="400" y1="232" x2="400" y2="200"/>
<line class="st0" x1="440" y1="232" x2="440" y2="200"/>
<line class="st0" x1="480" y1="232" x2="480" y2="200"/>
<line class="st0" x1="320" y1="304" x2="0" y2="304"/>
<rect x="360" y="464" class="st1" width="144" height="40"/>
<polygon class="st1" points="504,304.1 360,304 360,264 504,264 "/>
<line class="st1" x1="368" y1="336" x2="488" y2="336"/>
<line class="st1" x1="376" y1="432" x2="488" y2="432"/>
<line class="st1" x1="488" y1="304" x2="488" y2="464"/>
<path class="st1" d="M377,408l-273-0.4c-13.3,1.3-24-10.7-24-24s10.7-22.7,24-24h272"/>
<line class="st1" x1="376" y1="305.5" x2="376" y2="464"/>
</svg>
