<?xml version="1.0" encoding="utf-8"?>
<!-- Generator: Adobe Illustrator 19.2.1, SVG Export Plug-In . SVG Version: 6.00 Build 0)  -->
<svg version="1.1" id="Layer_1" xmlns="http://www.w3.org/2000/svg" xmlns:xlink="http://www.w3.org/1999/xlink" x="0px" y="0px"
	 viewBox="0 0 383.8 552.6" style="enable-background:new 0 0 383.8 552.6;" xml:space="preserve">
<style type="text/css">
	.st0{fill:#FFFFFF;stroke:#FFFFFF;stroke-width:6;stroke-miterlimit:10;}
	.st1{fill:#252525;stroke:#252525;stroke-width:4;stroke-miterlimit:10;}
	.st2{fill:none;stroke:#252525;stroke-width:4;stroke-miterlimit:10;}
</style>
<title>icon 2</title>
<path class="st0" d="M9.7,253c-2.3,0-4.3-1.7-4.6-4c-11.3-81.6,26.3-130.8,33.4-139.3L41,74.8H337c2.6,0,4.7,2.1,4.6,4.7
	c0,2.6-2.1,4.6-4.6,4.6H49.7l-2.1,29.4l-1.1,1.2c-0.4,0.5-43.8,49.4-32.2,133c0.4,2.5-1.4,4.9-4,5.3C10.2,253,9.9,253,9.7,253z"/>
<path class="st0" d="M141.3,84.1c-0.4,0-0.8-0.1-1.2-0.2c-2.5-0.7-4-3.2-3.3-5.7c0,0,0,0,0,0c4.1-15.3,14.2-23.7,28.3-23.7
	c8.6,0,16.2-1.2,22.4-3.6c11.2-4.3,16.1-11.6,19.6-17c0.9-1.4,1.9-2.8,2.9-4.1c1.6-2,4.6-2.3,6.6-0.6c2,1.6,2.3,4.6,0.6,6.5
	c-0.7,0.8-1.4,1.9-2.3,3.3c-3.8,5.7-10.1,15.2-24,20.5c-7.3,2.8-15.9,4.2-25.7,4.2c-10,0-16.3,5.5-19.3,16.8
	C145.2,82.6,143.4,84.1,141.3,84.1z"/>
<path class="st0" d="M223,41c-10.5,0-19-8.5-19-19c0-10.5,8.5-19,19-19c10.5,0,19,8.5,19,19c0,0,0,0,0,0C242,32.5,233.5,41,223,41z
	 M223,12.3c-5.4,0-9.7,4.3-9.7,9.7c0,5.4,4.3,9.7,9.7,9.7c5.4,0,9.7-4.3,9.7-9.7C232.7,16.7,228.4,12.3,223,12.3z"/>
<path class="st0" d="M237,84.1c-2.1,0-3.9-1.4-4.5-3.5c-3-11.3-9.4-16.8-19.3-16.8c-8.5,0.2-16.9-1.2-24.9-3.9h0l-0.8-0.3
	c-13.9-5.4-20.2-14.8-24-20.5c-0.9-1.3-1.7-2.5-2.3-3.3c-1.6-2-1.3-4.9,0.6-6.6c2-1.6,4.9-1.3,6.5,0.6c1,1.3,2,2.7,2.9,4.1
	c3.5,5.3,8.2,12.4,19,16.7l0.6,0.2c6.2,2.4,13.7,3.6,22.4,3.6c14.2,0,24.2,8.4,28.3,23.7c0.7,2.5-0.8,5-3.3,5.7
	C237.8,84,237.4,84.1,237,84.1z"/>
<path class="st0" d="M155.3,41c-10.5,0-19-8.5-19-19c0-10.5,8.5-19,19-19c10.5,0,19,8.5,19,19c0,0,0,0,0,0
	C174.3,32.5,165.8,41,155.3,41z M155.3,12.3c-5.4,0-9.7,4.3-9.7,9.7s4.3,9.7,9.7,9.7c5.4,0,9.7-4.3,9.7-9.7
	C165,16.7,160.6,12.3,155.3,12.3z"/>
<path class="st0" d="M31.7,300.7L5.6,250.5c-1.2-2.3-0.3-5.1,2-6.3c2.3-1.2,5.1-0.3,6.3,2l0,0l17.9,34.4l32.3-62l32.3,62l32.3-62
	l32.3,62l32.3-62l32.3,62l32.3-62l32.3,62l32.3-62l32.3,62l14.6-28l0.6-0.6c1.9-1.7,4.9-1.6,6.6,0.3c1.4,1.5,1.6,3.8,0.5,5.6
	l-22.3,42.8l-32.3-62l-32.3,62l-32.3-62l-32.3,62l-32.3-62l-32.3,62l-32.3-62l-32.3,62l-32.3-62L31.7,300.7z"/>
<path class="st0" d="M372.8,260.8c-0.3,0-0.5,0-0.8-0.1c-2.5-0.4-4.2-2.9-3.8-5.4c15.5-88.6-30.5-140.2-31-140.7l-1.1-1.2L334.1,84
	H46.8c-2.6,0-4.7-2.1-4.6-4.7c0-2.6,2.1-4.6,4.6-4.6h295.9l2.5,34.9c7.4,8.8,47.3,61,32.2,147.3C377,259.2,375.1,260.8,372.8,260.8z
	"/>
<path class="st1" d="M282.2,418.2c-19.6-0.1-37.1-12.2-44-30.6c-9-24.3,3.4-51.3,27.7-60.4c5.2-1.9,10.7-2.9,16.3-2.9
	c25.9,0,47,21,47,46.9C329.2,397.2,308.2,418.2,282.2,418.2z M282.2,333.6c-20.8,0-37.6,16.8-37.6,37.6c0,20.8,16.8,37.6,37.6,37.6
	c20.8,0,37.6-16.8,37.6-37.6c0-4.5-0.8-8.9-2.4-13.1C312,343.4,298,333.6,282.2,333.6z"/>
<path class="st1" d="M275,389.5c3.6,0.5,7.3,0.2,10.8-1.1c4.8-1.8,6.5-5.1,5.3-8.4c-1.2-3.3-4.1-4.4-10-4.7c-8-0.4-13.8-3.1-16-9
	c-2.8-7.5,0.9-15.4,10.8-19c3.3-1.3,6.9-1.9,10.5-1.6l0.8,7.8c-3-0.4-6,0-8.8,1.1c-4.6,1.7-5.8,5-4.8,7.5c1.2,3.3,4,3.9,10.5,4.4
	c8.5,0.5,13.3,3.5,15.5,9.5c2.9,7.9-0.9,15.9-11.5,19.9c-4.5,1.7-9.5,2.1-12.1,1.6L275,389.5z"/>
<line class="st2" x1="290.6" y1="391" x2="294" y2="399.9"/>
<rect x="289.5" y="390.7" transform="matrix(0.9373 -0.3486 0.3486 0.9373 -119.5237 126.6994)" class="st1" width="5.6" height="9.6"/>
<line class="st2" x1="272.7" y1="342.8" x2="275.7" y2="350.8"/>
<rect x="271.4" y="342.5" transform="matrix(0.9372 -0.3487 0.3487 0.9372 -103.7281 117.3988)" class="st1" width="5.6" height="8.5"/>
<path class="st1" d="M196.8,550.6c-25.9,0-47-21-47-46.9s21-47,46.9-47c25.9,0,47,21,47,46.9c0,4.9-0.8,9.8-2.3,14.5
	C235.2,537.5,217.2,550.6,196.8,550.6z M196.8,466c-20.8,0-37.7,16.8-37.7,37.7c0,20.8,16.8,37.7,37.7,37.7
	c20.8,0,37.7-16.8,37.7-37.7c0-16.3-10.5-30.8-26.1-35.9C204.7,466.6,200.7,466,196.8,466z"/>
<path class="st1" d="M181.1,513.2c2.5,2.7,5.6,4.7,9.1,5.8c4.9,1.6,8.3,0.1,9.4-3.3c1.1-3.3-0.5-6-4.9-9.9c-6-5.3-8.9-11-7-17
	c2.4-7.6,10.3-11.5,20.2-8.2c3.4,1,6.6,2.9,9.2,5.3l-4.2,6.7c-2.1-2.1-4.7-3.7-7.6-4.6c-4.7-1.5-7.6,0.3-8.4,2.9
	c-1.1,3.3,0.7,5.5,5.5,9.9c6.3,5.7,8.2,11,6.3,17.1c-2.6,8-10.6,12-21.3,8.5c-4.6-1.5-8.8-4.2-10.5-6.3L181.1,513.2z"/>
<line class="st2" x1="192.4" y1="524" x2="189.5" y2="533.1"/>
<rect x="186.2" y="525.8" transform="matrix(0.3079 -0.9514 0.9514 0.3079 -370.744 547.4925)" class="st1" width="9.6" height="5.6"/>
<line class="st2" x1="208.2" y1="475.1" x2="205.6" y2="483.2"/>
<rect x="202.7" y="476.4" transform="matrix(0.3072 -0.9516 0.9516 0.3072 -312.643 528.892)" class="st1" width="8.5" height="5.6"/>
<path class="st1" d="M114.3,418.1c-25.9,0-46.9-21-46.9-46.9s21-46.9,46.9-46.9s46.9,21,46.9,46.9c0,0,0,0,0,0
	C161.2,397.1,140.2,418.1,114.3,418.1z M114.3,333.6c-20.8,0-37.6,16.8-37.6,37.6s16.8,37.6,37.6,37.6s37.6-16.8,37.6-37.6
	c0,0,0,0,0,0C151.9,350.4,135.1,333.6,114.3,333.6z"/>
<path class="st1" d="M101.9,385c3.2,1.8,6.8,2.7,10.5,2.7c5.2,0,7.9-2.5,7.9-6.1c0-3.5-2.3-5.6-7.7-7.9c-7.3-3.2-11.9-7.7-11.9-14
	c0-7.9,6.2-14.1,16.7-14.1c3.6-0.1,7.2,0.7,10.4,2.2l-2,7.6c-2.7-1.4-5.6-2.1-8.6-2.1c-4.9,0-7.1,2.6-7.1,5.4c0,3.5,2.4,5,8.3,7.8
	c7.8,3.5,11.2,7.9,11.2,14.3c0,8.5-6.4,14.6-17.7,14.6c-4.8,0-9.7-1.3-11.9-2.7L101.9,385z"/>
<line class="st2" x1="116.1" y1="391.8" x2="116.1" y2="401.4"/>
<rect x="113.3" y="391.8" class="st1" width="5.6" height="9.6"/>
<line class="st2" x1="116.1" y1="340.4" x2="116.1" y2="348.9"/>
<rect x="113.3" y="340.4" class="st1" width="5.6" height="8.5"/>
<path class="st0" d="M339,116.2H43.1c-2.6,0-4.7-2.1-4.7-4.7s2.1-4.7,4.7-4.7H339c2.6,0,4.7,2.1,4.7,4.7S341.5,116.2,339,116.2z"/>
</svg>
