<?xml version="1.0" encoding="utf-8"?>
<!-- Generator: Adobe Illustrator 19.2.1, SVG Export Plug-In . SVG Version: 6.00 Build 0)  -->
<svg version="1.1" id="icon_4" xmlns="http://www.w3.org/2000/svg" xmlns:xlink="http://www.w3.org/1999/xlink" x="0px" y="0px"
	 viewBox="0 0 86 73" style="enable-background:new 0 0 86 73;" xml:space="preserve">
<style type="text/css">
	.st0{fill:#FFFFFF;}
	.st1{fill:#252525;}
</style>
<path id="Фигура_6" class="st0" d="M4,73V59h2.7v11.2h72.6V59H82v14H4z M79.3,31.3c-2,2.4-4.9,3.8-8.1,3.8H14.8
	c-3.1,0-6.1-1.4-8.1-3.8v10.8H4V11.2h26.9V1.4c0-0.8,0.6-1.4,1.3-1.4h21.5c0.8,0,1.4,0.6,1.3,1.4v9.8H82v30.9h-2.7V31.3z M52.4,8.4
	H33.6v2.8h18.8V8.4z M33.6,2.8v2.8h18.8V2.8H33.6z M79.3,14H6.7v9.8c-0.1,4.6,3.5,8.3,8.1,8.4h56.4c4.6-0.1,8.2-3.9,8.1-8.4V14z
	 M47,23.9h2.7v2.8H47V23.9z M41.7,23.9h2.7v2.8h-2.7V23.9z M36.3,23.9H39v2.8h-2.7V23.9z"/>
<path id="Фигура_6_копия" class="st1" d="M77.9,56.1h-6.7v5.6H51.1V59h17.5v-2.8H8.1c-0.2,0-0.5-0.1-0.7-0.2l-6.7-4.2
	C0.2,51.5,0,51,0,50.5c0-0.5,0.2-0.9,0.7-1.2l6.7-4.2c0.2-0.1,0.4-0.2,0.7-0.2H86v11.2L77.9,56.1L77.9,56.1z M14.8,47.7H8.4
	l-4.5,2.8l4.5,2.8h6.3V47.7z M36.3,47.7H17.5v5.6h18.8V47.7z M76.6,47.7H39v5.6h37.6V47.7z M83.3,47.7h-4v5.6h4V47.7z"/>
</svg>
