<?xml version="1.0" encoding="utf-8"?>
<!-- Generator: Adobe Illustrator 19.2.1, SVG Export Plug-In . SVG Version: 6.00 Build 0)  -->
<svg version="1.1" id="Режим_изоляции"
	 xmlns="http://www.w3.org/2000/svg" xmlns:xlink="http://www.w3.org/1999/xlink" x="0px" y="0px" viewBox="0 0 58.5 64.5"
	 style="enable-background:new 0 0 58.5 64.5;" xml:space="preserve">
<style type="text/css">
	.st0{fill:none;stroke:#FFFFFF;stroke-width:2.5;stroke-linecap:round;stroke-linejoin:round;}
	.st1{fill:none;stroke:#252525;stroke-width:2.5;stroke-linecap:round;stroke-linejoin:round;}
</style>
<title>icon 6</title>
<line class="st0" x1="9.3" y1="24.3" x2="34.3" y2="24.3"/>
<line class="st0" x1="9.3" y1="32.3" x2="30.3" y2="32.3"/>
<line class="st0" x1="9.3" y1="16.3" x2="18.3" y2="16.3"/>
<path class="st0" d="M9.3,53.3c0,0,3-7,3-11c0,4,3,11,3,11l4-5c0,0,1,5,4,5h1"/>
<polyline class="st1" points="52.3,43.3 53.3,53.3 45.3,51.3 37.3,53.3 38.3,43.3 "/>
<polygon class="st1" points="57.3,34.3 55.3,37 55.6,40.3 52.6,41.6 51.3,44.6 48,44.3 45.3,46.3 42.5,44.3 39.2,44.6 37.9,41.6 
	34.9,40.3 35.2,37 33.3,34.3 35.2,31.5 34.9,28.2 37.9,26.9 39.2,23.9 42.5,24.2 45.3,22.3 48,24.2 51.3,23.9 52.6,26.9 55.6,28.2 
	55.3,31.5 "/>
<circle class="st1" cx="45.3" cy="34.3" r="6"/>
<polyline class="st0" points="45.3,16.3 30.3,16.3 30.3,7.3 "/>
<polyline class="st0" points="45.3,55.3 45.3,63.3 1.3,63.3 1.3,1.3 30.3,1.3 45.3,16.3 45.3,18.3 "/>
</svg>
