<svg id="Layer_4" data-name="Layer 4" xmlns="http://www.w3.org/2000/svg" viewBox="0 0 91.16699 109.667"><title>icon 3</title><line x1="62.25639" y1="80.334" x2="62.25639" y2="109.667" style="fill:none;stroke:#e9ad09;stroke-miterlimit:10;stroke-width:4px"/><line x1="47.75639" y1="109.667" x2="47.75639" y2="80.334" style="fill:none;stroke:#e9ad09;stroke-miterlimit:10;stroke-width:4px"/><path d="M-215.64067,711.4492v7.2646h33.3994V685.5962a16.69949,16.69949,0,0,0-16.6997-16.6997,16.70081,16.70081,0,0,0-15.0274,9.4067" transform="translate(217.64706 -638.4804)" style="fill:none;stroke:#e9ad09;stroke-miterlimit:10;stroke-width:4px"/><line x1="52.00639" y1="86.4161" x2="62.25639" y2="86.4161" style="fill:none;stroke:#e9ad09;stroke-miterlimit:10;stroke-width:4px"/><line x1="55.75639" y1="92.4161" x2="62.25639" y2="92.4161" style="fill:none;stroke:#e9ad09;stroke-miterlimit:10;stroke-width:4px"/><path d="M-145.17977,668.8965c-0.1011,0-.1992.0136-0.3003,0.0175v-0.0341h-52.4941v0.0654a16.68533,16.68533,0,0,1,15.7329,16.6509v33.1176h53.7612V685.5962A16.69949,16.69949,0,0,0-145.17977,668.8965Z" transform="translate(217.64706 -638.4804)" style="fill:none;stroke:#e9ad09;stroke-miterlimit:10;stroke-width:4px"/><line x1="48.25639" y1="24.5196" x2="48.25639" y2="9.667" style="fill:none;stroke:#272727;stroke-miterlimit:10;stroke-width:4px"/><polygon points="48.256 13.333 48.256 7.667 48.256 2 67.831 2 63.583 7.667 67.831 13.333 48.256 13.333" style="fill:none;stroke:#272727;stroke-miterlimit:10;stroke-width:4px"/><path d="M-211.19857,674.27195a16.59451,16.59451,0,0,0-4.44849,11.32422V716.5" transform="translate(217.64706 -638.4804)" style="fill:none;stroke:#e9ad09;stroke-miterlimit:10;stroke-width:4px"/><line x1="48.25639" y1="51.5196" x2="48.25639" y2="36.667" style="fill:none;stroke:#272727;stroke-miterlimit:10;stroke-width:4px"/></svg>