<svg id="Режим_изоляции" data-name="Режим изоляции" xmlns="http://www.w3.org/2000/svg" viewBox="0 0 58.5 64.5"><title>icon 6</title><line x1="9.25" y1="24.25" x2="34.25" y2="24.25" style="fill:none;stroke:#f1ba23;stroke-linecap:round;stroke-linejoin:round;stroke-width:2.5px"/><line x1="9.25" y1="32.25" x2="30.25" y2="32.25" style="fill:none;stroke:#f1ba23;stroke-linecap:round;stroke-linejoin:round;stroke-width:2.5px"/><line x1="9.25" y1="16.25" x2="18.25" y2="16.25" style="fill:none;stroke:#f1ba23;stroke-linecap:round;stroke-linejoin:round;stroke-width:2.5px"/><path d="M820.59387,231.2998s3-7,3-11c0,4,3,11,3,11l4-5s1,5,4,5h1" transform="translate(-811.34387 -178.0498)" style="fill:none;stroke:#f1ba23;stroke-linecap:round;stroke-linejoin:round;stroke-width:2.5px"/><polyline points="52.25 43.25 53.25 53.25 45.25 51.25 37.25 53.25 38.25 43.25" style="fill:none;stroke:#252525;stroke-linecap:round;stroke-linejoin:round;stroke-width:2.5px"/><polygon points="57.25 34.25 55.342 36.957 55.644 40.254 52.644 41.645 51.254 44.645 47.957 44.342 45.25 46.25 42.543 44.342 39.246 44.645 37.855 41.645 34.855 40.254 35.158 36.957 33.25 34.25 35.158 31.543 34.855 28.246 37.855 26.861 39.246 23.856 42.543 24.154 45.25 22.25 47.957 24.154 51.254 23.859 52.644 26.861 55.644 28.246 55.342 31.543 57.25 34.25" style="fill:none;stroke:#252525;stroke-linecap:round;stroke-linejoin:round;stroke-width:2.5px"/><circle cx="45.25" cy="34.25" r="6" style="fill:none;stroke:#252525;stroke-linecap:round;stroke-linejoin:round;stroke-width:2.5px"/><polyline points="45.25 16.25 30.25 16.25 30.25 7.25" style="fill:none;stroke:#f1ba23;stroke-linecap:round;stroke-linejoin:round;stroke-width:2.5px"/><polyline points="45.25 55.25 45.25 63.25 1.25 63.25 1.25 1.25 30.25 1.25 45.25 16.25 45.25 18.25" style="fill:none;stroke:#f1ba23;stroke-linecap:round;stroke-linejoin:round;stroke-width:2.5px"/></svg>