<svg 
 xmlns="http://www.w3.org/2000/svg"
 xmlns:xlink="http://www.w3.org/1999/xlink"
 width="160px" height="190px">
<path fill-rule="evenodd"  fill="rgb(255, 255, 255)"
 d="M31.000,-0.000 L154.000,-0.000 C157.314,-0.000 160.000,2.686 160.000,6.000 L160.000,129.000 C160.000,132.314 157.314,135.000 154.000,135.000 L31.000,135.000 C27.686,135.000 25.000,132.314 25.000,129.000 L25.000,6.000 C25.000,2.686 27.686,-0.000 31.000,-0.000 Z"/>
<path fill-rule="evenodd"  fill="rgb(87, 88, 91)"
 d="M6.000,110.000 L44.000,110.000 C47.314,110.000 50.000,112.686 50.000,116.000 L50.000,154.000 C50.000,157.313 47.314,160.000 44.000,160.000 L6.000,160.000 C2.686,160.000 -0.000,157.313 -0.000,154.000 L-0.000,116.000 C-0.000,112.686 2.686,110.000 6.000,110.000 Z"/>
<path fill-rule="evenodd"  fill="rgb(232, 170, 0)"
 d="M108.000,160.000 L126.000,160.000 C129.314,160.000 132.000,162.686 132.000,166.000 L132.000,184.000 C132.000,187.314 129.314,190.000 126.000,190.000 L108.000,190.000 C104.686,190.000 102.000,187.314 102.000,184.000 L102.000,166.000 C102.000,162.686 104.686,160.000 108.000,160.000 Z"/>
</svg>