<svg 
 xmlns="http://www.w3.org/2000/svg"
 xmlns:xlink="http://www.w3.org/1999/xlink"
 width="163px" height="305px">
<path fill-rule="evenodd"  fill="rgb(255, 255, 255)"
 d="M6.000,134.000 L129.000,134.000 C132.314,134.000 135.000,136.686 135.000,140.000 L135.000,263.000 C135.000,266.314 132.314,269.000 129.000,269.000 L6.000,269.000 C2.686,269.000 -0.000,266.314 -0.000,263.000 L-0.000,140.000 C-0.000,136.686 2.686,134.000 6.000,134.000 Z"/>
<path fill-rule="evenodd"  fill="rgb(87, 88, 91)"
 d="M6.000,67.000 L23.000,67.000 C26.314,67.000 29.000,69.686 29.000,73.000 L29.000,90.000 C29.000,93.313 26.314,96.000 23.000,96.000 L6.000,96.000 C2.686,96.000 -0.000,93.313 -0.000,90.000 L-0.000,73.000 C-0.000,69.686 2.686,67.000 6.000,67.000 Z"/>
<path fill-rule="evenodd"  fill="rgb(87, 88, 91)"
 d="M114.000,250.000 L157.000,250.000 C160.314,250.000 163.000,252.686 163.000,256.000 L163.000,299.000 C163.000,302.314 160.314,305.000 157.000,305.000 L114.000,305.000 C110.686,305.000 108.000,302.314 108.000,299.000 L108.000,256.000 C108.000,252.686 110.686,250.000 114.000,250.000 Z"/>
<path fill-rule="evenodd"  fill="rgb(232, 170, 0)"
 d="M64.000,-0.000 L105.000,-0.000 C108.314,-0.000 111.000,2.686 111.000,6.000 L111.000,47.000 C111.000,50.313 108.314,53.000 105.000,53.000 L64.000,53.000 C60.686,53.000 58.000,50.313 58.000,47.000 L58.000,6.000 C58.000,2.686 60.686,-0.000 64.000,-0.000 Z"/>
</svg>