<svg 
 xmlns="http://www.w3.org/2000/svg"
 xmlns:xlink="http://www.w3.org/1999/xlink"
 width="185px" height="386px">
<path fill-rule="evenodd"  fill="rgb(255, 255, 255)"
 d="M57.000,15.000 L165.000,15.000 C168.314,15.000 171.000,17.686 171.000,21.000 L171.000,129.000 C171.000,132.314 168.314,135.000 165.000,135.000 L57.000,135.000 C53.686,135.000 51.000,132.314 51.000,129.000 L51.000,21.000 C51.000,17.686 53.686,15.000 57.000,15.000 Z"/>
<path fill-rule="evenodd"  fill="rgb(255, 255, 255)"
 d="M28.000,359.000 L43.000,359.000 C46.314,359.000 49.000,361.686 49.000,365.000 L49.000,380.000 C49.000,383.313 46.314,386.000 43.000,386.000 L28.000,386.000 C24.686,386.000 22.000,383.313 22.000,380.000 L22.000,365.000 C22.000,361.686 24.686,359.000 28.000,359.000 Z"/>
<path fill-rule="evenodd"  fill="rgb(87, 88, 91)"
 d="M44.000,-0.000 L63.000,-0.000 C66.314,-0.000 69.000,2.686 69.000,6.000 L69.000,25.000 C69.000,28.313 66.314,31.000 63.000,31.000 L44.000,31.000 C40.686,31.000 38.000,28.313 38.000,25.000 L38.000,6.000 C38.000,2.686 40.686,-0.000 44.000,-0.000 Z"/>
<path fill-rule="evenodd"  fill="rgb(87, 88, 91)"
 d="M117.000,244.000 L154.000,244.000 C157.314,244.000 160.000,246.686 160.000,250.000 L160.000,287.000 C160.000,290.314 157.314,293.000 154.000,293.000 L117.000,293.000 C113.686,293.000 111.000,290.314 111.000,287.000 L111.000,250.000 C111.000,246.686 113.686,244.000 117.000,244.000 Z"/>
<path fill-rule="evenodd"  fill="rgb(232, 170, 0)"
 d="M169.000,66.000 L179.000,66.000 C182.314,66.000 185.000,68.686 185.000,72.000 L185.000,82.000 C185.000,85.313 182.314,88.000 179.000,88.000 L169.000,88.000 C165.686,88.000 163.000,85.313 163.000,82.000 L163.000,72.000 C163.000,68.686 165.686,66.000 169.000,66.000 Z"/>
<path fill-rule="evenodd"  fill="rgb(232, 170, 0)"
 d="M6.000,186.000 L16.000,186.000 C19.314,186.000 22.000,188.686 22.000,192.000 L22.000,202.000 C22.000,205.314 19.314,208.000 16.000,208.000 L6.000,208.000 C2.686,208.000 -0.000,205.314 -0.000,202.000 L-0.000,192.000 C-0.000,188.686 2.686,186.000 6.000,186.000 Z"/>
</svg>