<svg 
 xmlns="http://www.w3.org/2000/svg"
 xmlns:xlink="http://www.w3.org/1999/xlink"
 width="119px" height="499px">
<path fill-rule="evenodd"  fill="rgb(255, 255, 255)"
 d="M6.000,365.000 L21.000,365.000 C24.314,365.000 27.000,367.686 27.000,371.000 L27.000,386.000 C27.000,389.314 24.314,392.000 21.000,392.000 L6.000,392.000 C2.686,392.000 -0.000,389.314 -0.000,386.000 L-0.000,371.000 C-0.000,367.686 2.686,365.000 6.000,365.000 Z"/>
<path fill-rule="evenodd"  fill="rgb(87, 88, 91)"
 d="M61.000,450.000 L98.000,450.000 C101.314,450.000 104.000,452.686 104.000,456.000 L104.000,493.000 C104.000,496.314 101.314,499.000 98.000,499.000 L61.000,499.000 C57.686,499.000 55.000,496.314 55.000,493.000 L55.000,456.000 C55.000,452.686 57.686,450.000 61.000,450.000 Z"/>
<path fill-rule="evenodd"  fill="rgb(232, 170, 0)"
 d="M101.000,-0.000 L113.000,-0.000 C116.314,-0.000 119.000,2.686 119.000,6.000 L119.000,18.000 C119.000,21.314 116.314,24.000 113.000,24.000 L101.000,24.000 C97.686,24.000 95.000,21.314 95.000,18.000 L95.000,6.000 C95.000,2.686 97.686,-0.000 101.000,-0.000 Z"/>
</svg>