<svg 
 xmlns="http://www.w3.org/2000/svg"
 xmlns:xlink="http://www.w3.org/1999/xlink"
 width="141px" height="123px">
<path fill-rule="evenodd"  fill="rgb(232, 170, 0)"
 d="M122.077,72.753 C122.243,72.941 122.452,73.107 122.702,73.253 C123.087,73.472 123.905,73.743 125.155,74.065 L125.155,74.987 C123.312,74.873 121.832,74.816 120.717,74.816 C119.676,74.816 118.051,74.873 115.843,74.987 L115.843,74.065 C117.207,73.701 117.947,73.477 118.062,73.394 C118.176,73.311 118.233,73.191 118.233,73.034 C118.233,72.795 118.087,72.435 117.796,71.956 C116.305,69.586 114.876,67.466 113.512,65.597 C112.257,67.127 110.697,69.233 108.831,71.916 C108.446,72.491 108.254,72.858 108.254,73.014 C108.254,73.182 108.332,73.328 108.488,73.454 C108.643,73.579 109.190,73.747 110.127,73.956 C110.232,73.977 110.383,74.013 110.581,74.065 L110.581,74.987 C109.060,74.873 107.599,74.816 106.195,74.816 C104.906,74.816 103.720,74.873 102.640,74.987 L102.640,74.065 C103.827,73.816 104.640,73.542 105.077,73.245 C105.514,72.948 106.363,72.009 107.624,70.425 C109.823,67.541 111.414,65.381 112.399,63.945 C111.426,62.402 109.871,60.094 107.733,57.019 C106.848,55.790 106.212,55.042 105.827,54.777 C105.442,54.511 104.462,54.165 102.890,53.737 L102.890,52.816 C104.515,52.931 106.010,52.987 107.375,52.987 C108.772,52.987 110.506,52.931 112.580,52.816 L112.580,53.737 C111.309,54.019 110.548,54.248 110.298,54.424 C110.162,54.518 110.095,54.627 110.095,54.752 C110.095,54.919 110.267,55.283 110.611,55.845 C112.067,58.138 113.306,59.965 114.328,61.327 C116.016,59.146 117.516,57.111 118.827,55.222 C119.056,54.878 119.171,54.659 119.171,54.565 C119.171,54.462 119.103,54.362 118.967,54.269 C118.832,54.175 118.155,53.998 116.936,53.737 L116.936,52.816 C118.686,52.931 120.056,52.987 121.046,52.987 C122.140,52.987 123.400,52.931 124.827,52.816 L124.827,53.737 C123.512,53.997 122.626,54.271 122.167,54.557 C121.708,54.843 120.988,55.599 120.008,56.826 C118.152,59.220 116.632,61.271 115.450,62.980 C116.333,64.403 117.484,66.139 118.902,68.188 L122.077,72.753 ZM97.983,54.589 C97.764,54.803 97.655,55.279 97.655,56.019 L97.655,56.566 L97.577,62.847 L97.624,71.972 C97.624,72.701 97.731,73.165 97.944,73.362 C98.158,73.560 98.890,73.732 100.140,73.878 C100.379,73.909 100.728,73.972 101.186,74.065 L101.186,74.987 C99.509,74.873 97.895,74.816 96.343,74.816 C94.739,74.816 92.978,74.873 91.061,74.987 L91.061,74.065 C91.363,73.982 91.593,73.930 91.749,73.909 C93.228,73.670 94.074,73.448 94.288,73.245 C94.501,73.042 94.608,72.529 94.608,71.706 L94.577,70.925 L94.624,65.191 C94.624,59.295 94.608,56.034 94.577,55.409 C94.556,55.066 94.445,54.800 94.242,54.612 C94.040,54.425 93.255,54.201 91.886,53.941 C91.699,53.899 91.424,53.831 91.061,53.737 L91.061,52.816 C93.325,52.931 95.093,52.987 96.366,52.987 C97.785,52.987 99.397,52.931 101.202,52.816 L101.202,53.737 C100.837,53.821 100.566,53.878 100.390,53.909 C99.004,54.149 98.202,54.376 97.983,54.589 ZM79.499,74.987 L79.499,74.065 C79.905,73.961 80.212,73.888 80.421,73.847 C81.691,73.607 82.418,73.438 82.601,73.339 C82.782,73.240 82.905,73.102 82.968,72.925 C83.061,72.623 83.108,71.779 83.108,70.394 L83.108,56.753 C82.161,58.628 80.022,63.143 76.692,70.300 C75.776,72.269 75.099,73.774 74.663,74.816 L73.772,74.816 C71.441,69.639 68.584,63.618 65.202,56.753 L65.405,71.316 C65.405,72.472 65.499,73.134 65.686,73.300 C65.874,73.467 66.660,73.670 68.046,73.909 C68.202,73.940 68.441,73.993 68.764,74.065 L68.764,74.987 C66.962,74.873 65.504,74.816 64.389,74.816 C63.275,74.816 61.801,74.873 59.968,74.987 L59.968,74.065 C60.269,73.982 60.494,73.930 60.639,73.909 C62.015,73.639 62.785,73.404 62.952,73.206 C63.202,72.915 63.332,72.201 63.343,71.066 L63.421,67.550 C63.473,64.342 63.499,61.232 63.499,58.222 L63.483,56.316 C63.483,55.555 63.436,55.079 63.343,54.886 C63.249,54.693 63.098,54.555 62.889,54.472 C62.494,54.316 61.608,54.133 60.233,53.925 C60.036,53.893 59.744,53.831 59.358,53.737 L59.358,52.816 C61.098,52.931 62.421,52.987 63.328,52.987 C64.359,52.987 65.469,52.931 66.656,52.816 C67.083,53.910 67.426,54.744 67.686,55.317 C68.029,56.089 69.385,59.012 71.756,64.088 C72.764,66.245 73.783,68.351 74.813,70.404 L81.481,56.364 C81.887,55.500 82.371,54.317 82.934,52.816 C84.330,52.931 85.398,52.987 86.138,52.987 C86.826,52.987 87.988,52.931 89.624,52.816 L89.624,53.737 C89.311,53.821 89.077,53.878 88.921,53.909 C87.473,54.201 86.665,54.415 86.499,54.550 C86.228,54.758 86.092,55.284 86.092,56.128 L86.092,56.331 L86.030,61.284 C86.030,67.514 86.056,71.295 86.108,72.628 C86.119,72.909 86.199,73.118 86.351,73.253 C86.501,73.389 87.390,73.613 89.014,73.925 C89.150,73.946 89.353,73.993 89.624,74.065 L89.624,74.987 C87.749,74.873 86.098,74.816 84.671,74.816 C83.212,74.816 81.488,74.873 79.499,74.987 ZM46.046,75.456 C42.765,75.456 40.168,74.466 38.257,72.487 C36.345,70.508 35.389,67.696 35.389,64.050 C35.389,60.633 36.491,57.829 38.694,55.636 C40.897,53.443 43.728,52.347 47.187,52.347 C50.405,52.347 52.968,53.315 54.874,55.253 C56.780,57.191 57.733,59.857 57.733,63.253 C57.733,67.024 56.660,70.001 54.515,72.183 C52.368,74.365 49.546,75.456 46.046,75.456 ZM53.249,58.194 C52.478,56.641 51.525,55.528 50.389,54.855 C49.254,54.183 47.978,53.847 46.561,53.847 C45.009,53.847 43.618,54.256 42.389,55.074 C41.160,55.893 40.257,57.076 39.679,58.624 C39.100,60.172 38.811,61.827 38.811,63.589 C38.811,67.029 39.564,69.612 41.069,71.337 C42.574,73.063 44.478,73.925 46.780,73.925 C48.301,73.925 49.650,73.524 50.827,72.721 C52.004,71.918 52.895,70.743 53.499,69.195 C54.103,67.647 54.405,65.934 54.405,64.058 C54.405,61.702 54.019,59.747 53.249,58.194 ZM30.921,55.503 C30.775,55.190 30.543,54.964 30.226,54.823 C29.907,54.683 29.196,54.612 28.093,54.612 L21.280,54.612 C21.217,55.987 21.165,58.644 21.124,62.581 L25.414,62.581 C26.239,62.581 26.774,62.534 27.020,62.441 C27.265,62.347 27.468,62.165 27.630,61.893 C27.792,61.623 27.972,61.008 28.170,60.050 C28.202,59.873 28.259,59.613 28.343,59.269 L29.374,59.269 C29.280,61.446 29.233,62.863 29.233,63.519 C29.233,63.727 29.280,65.055 29.374,67.503 L28.343,67.503 C28.290,67.211 28.254,66.993 28.233,66.847 C28.014,65.503 27.769,64.706 27.497,64.456 C27.226,64.206 26.526,64.081 25.399,64.081 L21.124,64.081 C21.114,65.123 21.108,65.821 21.108,66.175 C21.108,70.331 21.139,72.566 21.202,72.878 C21.244,73.087 21.358,73.243 21.546,73.347 C21.785,73.493 22.967,73.732 25.093,74.065 L25.093,74.987 C22.742,74.873 21.052,74.816 20.022,74.816 L14.562,74.987 L14.562,74.065 C14.976,73.982 15.287,73.925 15.495,73.893 C16.750,73.706 17.494,73.498 17.727,73.269 C17.960,73.039 18.077,72.561 18.077,71.831 L18.155,67.378 C18.165,66.691 18.171,65.378 18.171,63.441 C18.171,58.722 18.150,56.055 18.108,55.441 C18.077,55.034 17.973,54.758 17.796,54.612 C17.566,54.415 16.759,54.181 15.374,53.909 C15.186,53.878 14.905,53.821 14.530,53.737 L14.530,52.816 C16.959,52.931 19.634,52.987 22.553,52.987 C25.617,52.987 28.980,52.931 32.639,52.816 L32.983,58.675 L31.905,58.675 C31.467,57.019 31.139,55.962 30.921,55.503 Z"/>
<path fill-rule="evenodd"  fill="rgb(232, 170, 0)"
 d="M15.000,50.000 L15.000,49.000 L125.000,49.000 L125.000,50.000 L15.000,50.000 Z"/>
<path fill-rule="evenodd"  fill="rgb(232, 170, 0)"
 d="M15.000,79.000 L15.000,78.000 L125.000,78.000 L125.000,79.000 L15.000,79.000 Z"/>
<path fill-rule="evenodd"  fill="rgb(232, 170, 0)"
 d="M111.947,101.754 C111.679,94.943 111.194,88.345 110.508,81.826 L119.981,81.826 C120.989,88.450 121.804,95.099 122.408,102.037 C117.991,101.848 115.872,101.848 111.947,101.754 ZM68.997,2.924 C55.080,2.924 43.600,19.877 36.166,45.565 L28.172,45.565 C38.181,17.391 52.762,-0.000 68.997,-0.000 C85.233,-0.000 99.814,17.391 109.823,45.565 L102.503,45.565 C94.758,19.877 82.915,2.924 68.997,2.924 ZM27.000,102.000 L16.000,102.000 C16.601,95.136 17.016,88.385 18.014,81.826 L28.522,81.826 C27.873,88.320 27.256,95.216 27.000,102.000 Z"/>
<text kerning="auto" font-family="Myriad Pro" fill="rgb(0, 0, 0)" font-size="13px" x="0px" y="121.596px"><tspan font-size="13px" font-family="Montserrat" fill="#E8AA00">CONSULTING&#32;GROUP</tspan></text>
</svg>