<svg 
 xmlns="http://www.w3.org/2000/svg"
 xmlns:xlink="http://www.w3.org/1999/xlink"
 width="13px" height="10px">
<path fill-rule="evenodd"  fill="rgb(232, 170, 0)"
 d="M7.892,8.772 C7.627,9.056 7.627,9.504 7.892,9.789 C8.156,10.062 8.575,10.062 8.836,9.789 L12.796,5.522 C12.918,5.391 12.994,5.206 12.994,5.002 C12.994,4.799 12.918,4.617 12.796,4.482 L8.836,0.216 C8.575,-0.070 8.156,-0.070 7.892,0.216 C7.627,0.500 7.627,0.949 7.892,1.233 L10.728,4.279 L0.668,4.279 C0.299,4.279 0.005,4.604 0.005,5.002 C0.005,5.400 0.299,5.713 0.668,5.713 L10.725,5.713 L7.892,8.772 Z"/>
</svg>