<svg 
 xmlns="http://www.w3.org/2000/svg"
 xmlns:xlink="http://www.w3.org/1999/xlink"
 width="12px" height="13px">
<path fill-rule="evenodd"  fill="rgb(255, 255, 255)"
 d="M10.573,4.026 L4.291,0.389 C3.397,-0.128 2.329,-0.130 1.433,0.385 C0.536,0.900 -0.000,1.827 -0.000,2.862 L-0.000,10.136 C-0.000,11.171 0.536,12.098 1.433,12.614 C1.880,12.871 2.369,12.998 2.859,12.998 C3.350,12.998 3.843,12.869 4.291,12.609 L10.573,8.972 C11.466,8.456 11.999,7.531 11.999,6.499 C11.999,5.468 11.466,4.543 10.573,4.026 ZM2.926,10.024 L2.926,2.975 L9.013,6.499 L2.926,10.024 Z"/>
</svg>