<svg 
 xmlns="http://www.w3.org/2000/svg"
 xmlns:xlink="http://www.w3.org/1999/xlink"
 width="61px" height="75px">
<path fill-rule="evenodd"  fill="rgb(37, 37, 37)"
 d="M58.653,58.593 L58.653,74.999 L56.307,74.999 L56.307,58.593 L53.961,58.593 L53.961,74.999 L51.615,74.999 L51.615,58.593 L49.269,58.593 L49.269,74.999 L46.923,74.999 L46.923,58.593 L39.884,58.593 L39.884,56.249 L58.653,56.249 L58.653,53.906 L32.846,53.906 L32.846,56.249 L37.538,56.249 L37.538,58.593 L35.192,58.593 L35.192,74.999 L32.846,74.999 L32.846,58.593 L30.499,58.593 L30.499,51.562 L61.000,51.562 L61.000,58.593 L58.653,58.593 ZM48.582,39.843 L46.923,41.500 L45.264,39.843 L43.403,39.843 L43.403,37.985 L41.745,36.327 L43.403,34.670 L43.403,32.812 L45.264,32.812 L46.923,31.155 L48.582,32.812 L50.442,32.812 L50.442,34.670 L52.101,36.327 L50.442,37.985 L50.442,39.843 L48.582,39.843 ZM14.077,23.437 L14.077,21.093 L16.423,21.093 L16.423,23.437 L14.077,23.437 ZM26.980,26.953 L26.980,49.218 L24.634,49.218 L24.634,74.999 L22.288,74.999 L22.288,46.874 L24.634,46.874 L24.634,44.530 L10.558,44.530 L10.558,42.187 L24.634,42.187 L24.634,26.953 C24.634,24.367 26.739,22.265 29.326,22.265 L50.442,22.265 L50.442,18.750 L5.865,18.750 C3.924,18.750 2.346,20.326 2.346,22.265 L2.346,51.562 L5.865,51.562 L5.865,25.780 L8.211,25.780 L8.211,46.874 L19.942,46.874 L19.942,49.218 L8.211,49.218 L8.211,53.906 L-0.000,53.906 L-0.000,22.265 C-0.000,19.034 2.631,16.406 5.865,16.406 L52.788,16.406 L52.788,24.609 L29.326,24.609 C28.033,24.609 26.980,25.660 26.980,26.953 ZM15.250,14.062 C11.368,14.062 8.211,10.908 8.211,7.030 C8.211,3.153 11.368,-0.000 15.250,-0.000 C19.131,-0.000 22.288,3.153 22.288,7.030 C22.288,10.908 19.131,14.062 15.250,14.062 ZM15.250,2.343 C12.662,2.343 10.558,4.445 10.558,7.030 C10.558,9.616 12.662,11.718 15.250,11.718 C17.838,11.718 19.942,9.616 19.942,7.030 C19.942,4.445 17.838,2.343 15.250,2.343 ZM8.211,74.999 L5.865,74.999 L5.865,56.249 L8.211,56.249 L8.211,74.999 ZM16.423,74.999 L14.077,74.999 L14.077,51.562 L16.423,51.562 L16.423,74.999 Z"/>
</svg>