<svg 
 xmlns="http://www.w3.org/2000/svg"
 xmlns:xlink="http://www.w3.org/1999/xlink"
 width="17px" height="13px">
<path fill-rule="evenodd"  fill="rgb(87, 88, 91)"
 d="M6.679,1.596 C7.025,1.226 7.025,0.643 6.679,0.273 C6.334,-0.082 5.786,-0.082 5.445,0.273 L0.266,5.820 C0.106,5.991 0.007,6.231 0.007,6.496 C0.007,6.761 0.106,6.997 0.266,7.172 L5.445,12.719 C5.786,13.090 6.334,13.090 6.679,12.719 C7.025,12.349 7.025,11.766 6.679,11.395 L2.971,7.437 L16.125,7.437 C16.608,7.437 16.992,7.013 16.992,6.496 C16.992,5.979 16.608,5.571 16.125,5.571 L2.975,5.571 L6.679,1.596 Z"/>
</svg>