<svg 
 xmlns="http://www.w3.org/2000/svg"
 xmlns:xlink="http://www.w3.org/1999/xlink"
 width="17px" height="13px">
<path fill-rule="evenodd"  fill="rgb(87, 88, 91)"
 d="M10.320,1.596 C9.974,1.226 9.974,0.643 10.320,0.273 C10.665,-0.082 11.213,-0.082 11.555,0.273 L16.733,5.820 C16.893,5.991 16.992,6.231 16.992,6.496 C16.992,6.761 16.893,6.997 16.733,7.172 L11.555,12.719 C11.213,13.090 10.665,13.090 10.320,12.719 C9.974,12.349 9.974,11.766 10.320,11.395 L14.028,7.437 L0.874,7.437 C0.391,7.437 0.007,7.013 0.007,6.496 C0.007,5.979 0.391,5.571 0.874,5.571 L14.024,5.571 L10.320,1.596 Z"/>
</svg>