<svg width="29" height="18" viewBox="0 0 29 18" fill="none" xmlns="http://www.w3.org/2000/svg">
<path d="M28.6652 8.15935L21.1015 0.345477C20.8855 0.12243 20.5978 0 20.2909 0C19.9837 0 19.6961 0.122606 19.4802 0.345477L18.7935 1.05508C18.5778 1.27777 18.4589 1.57523 18.4589 1.89239C18.4589 2.20937 18.5778 2.51685 18.7935 2.73954L23.2061 7.30797H1.1315C0.499427 7.30797 0 7.81915 0 8.47229V9.47547C0 10.1286 0.499427 10.6913 1.1315 10.6913H23.2562L18.7937 15.2853C18.5779 15.5083 18.4591 15.7977 18.4591 16.1148C18.4591 16.4316 18.5779 16.7252 18.7937 16.9481L19.4804 17.6554C19.6963 17.8785 19.9839 18 20.2911 18C20.5979 18 20.8857 17.8769 21.1016 17.6538L28.6654 9.84012C28.8818 9.61637 29.0008 9.31769 29 9.00018C29.0007 8.68161 28.8818 8.38275 28.6652 8.15935Z" fill="#ffffff"/>
</svg>
