<svg width="9" height="5" viewBox="0 0 9 5" fill="none" xmlns="http://www.w3.org/2000/svg">
<path d="M8.85614 0.417894L8.56134 0.138679C8.46856 0.0514798 8.34512 0.00344123 8.21319 0.00344123C8.08133 0.00344123 7.95775 0.0514798 7.86497 0.138679L4.50201 3.30193L1.13518 0.135169C1.04254 0.0479698 0.918959 0 0.787104 0C0.655249 0 0.53159 0.0479698 0.438882 0.135169L0.144001 0.412663C-0.0480004 0.593118 -0.0480004 0.887061 0.144001 1.06752L4.15262 4.85148C4.24525 4.93861 4.36869 5 4.50172 5H4.50326C4.63518 5 4.75862 4.93854 4.85126 4.85148L8.85614 1.07777C8.94893 0.99064 8.99985 0.871025 9 0.747006C9 0.622918 8.94893 0.504955 8.85614 0.417894Z" fill="white"/>
</svg>
