<svg width="386" height="362" viewBox="0 0 386 362" fill="none" xmlns="http://www.w3.org/2000/svg">
<path d="M385.322 -84.7079C357.011 -73.2639 326.217 -73.6996 297.245 -88.6479C226.578 -125.107 193.504 -234.099 223.372 -332.089C228.745 -349.715 235.788 -365.785 244.138 -380.075C153.464 -428.05 36.0737 -403.899 -60.7343 -304.547C-69.3299 -295.726 -77.561 -286.518 -85.4201 -276.97C-48.0258 -290.301 -7.37118 -292.978 33.6278 -282.68C166.375 -249.336 252.464 -92.6096 225.914 67.3811C199.363 227.37 70.2264 330.037 -62.5212 296.694C-94.3673 288.695 -123.529 273.595 -149.093 253.052C-61.2517 393.495 111.13 399.313 244.466 262.473C333.102 171.508 382.997 39.5542 385.322 -84.7079Z" fill="url(#paint0_linear)" fill-opacity="0.1"/>
<defs>
<linearGradient id="paint0_linear" x1="304.07" y1="12.9742" x2="-23.0699" y2="228.425" gradientUnits="userSpaceOnUse">
<stop stop-color="#222E2E"/>
<stop offset="1" stop-color="#222E2E" stop-opacity="0.21"/>
</linearGradient>
</defs>
</svg>
