<svg width="32" height="32" viewBox="0 0 32 32" fill="none" xmlns="http://www.w3.org/2000/svg">
<path d="M16 32C7.17749 32 0 24.8225 0 16C0 7.17749 7.17749 0 16 0C24.8225 0 32 7.17749 32 16C32 24.8225 24.8225 32 16 32ZM16 2.28564C8.43799 2.28564 2.28564 8.43799 2.28564 16C2.28564 23.562 8.43799 29.7144 16 29.7144C23.562 29.7144 29.7144 23.562 29.7144 16C29.7144 8.43799 23.562 2.28564 16 2.28564Z" fill="#C4C4C4"/>
<path d="M21.7144 22.8572C21.4219 22.8572 21.1294 22.7456 20.9062 22.5222L9.47778 11.0938C9.03125 10.6472 9.03125 9.92407 9.47778 9.47778C9.92407 9.03149 10.6475 9.03125 11.0938 9.47778L22.5222 20.9062C22.9688 21.3528 22.9688 22.0759 22.5222 22.5222C22.2991 22.7456 22.0068 22.8572 21.7144 22.8572Z" fill="#C4C4C4"/>
<path d="M10.2856 22.8572C9.99316 22.8572 9.70093 22.7456 9.47778 22.5222C9.03125 22.0759 9.03125 21.3525 9.47778 20.9062L20.9063 9.47778C21.3528 9.03125 22.0759 9.03125 22.5222 9.47778C22.9685 9.92407 22.9688 10.6475 22.5222 11.0938L11.0938 22.5222C10.8706 22.7456 10.5781 22.8572 10.2856 22.8572Z" fill="#C4C4C4"/>
</svg>
