<svg width="23" height="19" viewBox="0 0 23 19" fill="none" xmlns="http://www.w3.org/2000/svg">
<path d="M4.67721 14.231C4.62464 14.231 4.57371 14.2279 4.5195 14.2216C1.9435 13.9053 0 11.8845 0 9.51899C0 7.17877 1.87286 5.22754 4.33057 4.83381C5.24893 2.02081 8.165 0 11.5 0C14.1319 0 16.5731 1.25866 17.9104 3.25733C20.8134 3.70798 23 6.00075 23 8.72995C23 11.1761 21.1863 13.3661 18.5873 14.0555C17.9301 14.2263 17.2533 13.8579 17.0726 13.227C16.8919 12.5961 17.2779 11.943 17.9334 11.7691C19.4662 11.3627 20.5357 10.1135 20.5357 8.73153C20.5357 7.05227 19.0226 5.65763 17.089 5.55643C16.6487 5.53271 16.2561 5.28604 16.0573 4.90813C15.2457 3.36643 13.4566 2.37184 11.5 2.37184C9.01271 2.37184 6.88029 3.98627 6.54021 6.12725C6.44821 6.70598 5.93071 7.13449 5.32286 7.13449C3.71121 7.13449 2.46429 8.20498 2.46429 9.52057C2.46429 10.6954 3.48286 11.7042 4.83164 11.8703C5.50686 11.9525 5.98493 12.547 5.89786 13.1969C5.819 13.793 5.28836 14.231 4.67721 14.231Z" fill="#72BC80"/>
<path d="M11.5 18.2062C10.8199 18.2062 10.2679 17.6749 10.2679 17.0203V9.1142C10.2679 8.45957 10.8199 7.92828 11.5 7.92828C12.1802 7.92828 12.7322 8.45957 12.7322 9.1142V17.0203C12.7322 17.6749 12.1802 18.2062 11.5 18.2062Z" fill="#72BC80"/>
<path d="M11.5049 19C11.1172 19 10.7525 18.8245 10.5192 18.5257L8.05 15.3601C7.64093 14.8351 7.75264 14.0935 8.29643 13.6998C8.84185 13.3092 9.61399 13.4136 10.0214 13.937L11.5049 15.8392L12.9835 13.9417C13.3925 13.4199 14.163 13.314 14.7085 13.7045C15.2522 14.0983 15.3623 14.8414 14.9549 15.3648L12.4906 18.5272C12.2573 18.8245 11.8926 19 11.5049 19Z" fill="#72BC80"/>
</svg>
