<svg width="313" height="410" viewBox="0 0 313 410" fill="none" xmlns="http://www.w3.org/2000/svg">
<path d="M183.276 5.45165C201.878 25.1959 200.134 53.9028 199.274 79.0666C197.178 140.442 127.59 186.261 43.8436 181.406C28.7795 180.532 14.2835 178.079 0.651345 174.285C-2.92916 253.259 56.8145 339.464 165.367 395.784C175.005 400.784 184.802 405.432 194.721 409.728C171.482 383.316 155.036 352.405 148.152 318.814C125.86 210.054 212.232 114.4 341.071 105.164C469.91 95.9286 592.425 176.609 614.718 285.368C620.066 311.46 619.16 336.797 612.914 360.368C686.511 266.388 629.59 132.125 480.078 54.5549C380.689 2.98967 260.566 -6.47711 183.276 5.45165Z" fill="url(#paint0_linear)" fill-opacity="0.08"/>
<defs>
<linearGradient id="paint0_linear" x1="338.148" y1="37.754" x2="533.408" y2="254.321" gradientUnits="userSpaceOnUse">
<stop stop-color="#72BC80"/>
<stop offset="1" stop-color="#326973"/>
</linearGradient>
</defs>
</svg>
