<svg width="44" height="44" viewBox="0 0 44 44" fill="none" xmlns="http://www.w3.org/2000/svg">
<path d="M20.3306 5.45052L13.7757 3.4914C13.4544 3.3955 13.1082 3.42841 12.8108 3.58344L5.24348 7.52926V7.39056C5.24348 6.67865 4.66641 6.1015 3.95459 6.1015H1.28889C0.57707 6.10158 0 6.67865 0 7.39064C0 8.10264 0.57707 8.67971 1.28889 8.67971H2.66561V22.8594H1.28889C0.57707 22.8594 0 23.4366 0 24.1485C0 24.8604 0.57707 25.4375 1.28889 25.4375H3.9545C4.66632 25.4375 5.24339 24.8604 5.24339 24.1485V22.8594C17.6934 22.8343 17.3404 22.9189 18.0153 22.7872C20.2189 25.3008 23.3466 26.7266 26.7254 26.7266C33.1219 26.7266 38.3258 21.5221 38.3258 15.125C38.3259 5.84429 27.9535 0.393785 20.3306 5.45052ZM15.1253 15.125H12.3626L14.4565 12.7088L15.3326 12.9394C15.1971 13.6474 15.1253 14.378 15.1253 15.125ZM5.24348 10.4367L13.5388 6.11138L18.0309 7.45398C17.2402 8.34928 16.5855 9.36712 16.0989 10.4751L14.3363 10.0112C13.8609 9.88601 13.356 10.0422 13.0342 10.4136L8.56599 15.5698C7.84446 16.4024 8.43683 17.7031 9.54001 17.7031H17.2734C17.9842 17.7031 18.5623 18.2814 18.5623 18.9922C18.5623 19.703 17.9841 20.2813 17.2734 20.2813H5.24348V10.4367ZM26.7255 24.1485C24.2577 24.1485 21.9618 23.1701 20.2712 21.4315C22.2016 19.0631 20.7279 15.4858 17.7034 15.1495C17.6904 10.1205 21.7838 6.10158 26.7255 6.10158C31.7005 6.10158 35.748 10.1495 35.748 15.125C35.748 20.1005 31.7006 24.1485 26.7255 24.1485Z" fill="#F0EADD"/>
<path d="M28.8599 14.4381C27.7956 13.6087 26.3837 13.4381 26.1183 12.9589C26.0569 12.848 26.1342 12.6102 26.3119 12.4906C26.5824 12.3088 27.2288 12.3861 27.4305 12.5722C27.9537 13.0549 28.7691 13.0221 29.2518 12.4987C29.7345 11.9754 29.7016 11.1599 29.1783 10.6772C28.8407 10.3659 28.4198 10.1366 27.9627 9.9925C27.9461 9.29503 27.3767 8.73438 26.6753 8.73438C25.9635 8.73438 25.3865 9.31153 25.3865 10.0234V10.0778C23.7572 10.754 23.0385 12.7188 23.8632 14.208C24.4429 15.2547 25.4398 15.6485 26.2409 15.9648C26.7574 16.1687 27.6428 16.483 27.5807 17.0375C27.5517 17.2977 27.3432 17.5681 27.0735 17.6948C26.6624 17.8887 25.7924 17.7568 25.2836 17.4238C24.688 17.034 23.8891 17.2009 23.4994 17.7968C23.1096 18.3926 23.2766 19.1915 23.8723 19.5813C24.2908 19.8551 24.818 20.0795 25.3864 20.2162V20.2265C25.3864 20.9384 25.9634 21.5156 26.6753 21.5156C27.3871 21.5156 27.9642 20.9384 27.9642 20.2265V20.1155C30.2891 19.2165 31.049 16.1444 28.8599 14.4381Z" fill="#F0EADD"/>
<path d="M29.4597 34.7162L28.0144 36.1617V30.1602C28.0144 29.4482 27.4374 28.8711 26.7256 28.8711C26.0137 28.8711 25.4367 29.4482 25.4367 30.1602V36.1618L23.9913 34.7163C23.4879 34.213 22.6718 34.213 22.1685 34.7163C21.665 35.2196 21.665 36.0359 22.1685 36.5393L25.8141 40.1854C26.3169 40.6884 27.1337 40.6888 27.6369 40.1854L31.2825 36.5393C31.7859 36.036 31.7859 35.2197 31.2825 34.7163C30.7792 34.2129 29.9631 34.2129 29.4597 34.7162Z" fill="#F0EADD"/>
<path d="M43.0443 29.1214C42.3572 28.9377 41.65 29.3451 41.4657 30.0328L40.9366 32.0074L37.9361 26.8098C37.5802 26.1932 36.7919 25.982 36.1754 26.338C35.5589 26.694 35.3477 27.4823 35.7036 28.0989L38.7041 33.2964L36.7297 32.7673C36.0432 32.5837 35.3355 32.991 35.1511 33.6788C34.967 34.3665 35.3749 35.0733 36.0626 35.2575L41.0427 36.5921C41.73 36.7759 42.4368 36.3688 42.6213 35.6806L43.9557 30.7001C44.1399 30.0124 43.7319 29.3056 43.0443 29.1214Z" fill="#F0EADD"/>
<path d="M16.7211 32.7673L14.7468 33.2964L17.7473 28.0989C18.1032 27.4823 17.892 26.6939 17.2755 26.338C16.659 25.9819 15.8707 26.1933 15.5148 26.8098L12.5144 32.0073L11.9853 30.0328C11.8011 29.3452 11.0946 28.9375 10.4067 29.1214C9.71908 29.3057 9.31104 30.0125 9.49529 30.7002L10.8297 35.6807C11.0136 36.3668 11.7186 36.7766 12.4084 36.5922L17.3884 35.2577C18.076 35.0733 18.484 34.3665 18.2998 33.6788C18.1155 32.9912 17.4088 32.5835 16.7211 32.7673Z" fill="#F0EADD"/>
</svg>
