<svg width="37" height="37" viewBox="0 0 37 37" fill="none" xmlns="http://www.w3.org/2000/svg">
<g clip-path="url(#clip0)">
<path d="M7.7182 25.3614C8.14146 24.9381 8.82783 24.9382 9.25117 25.3614C9.6745 25.7847 9.6745 26.4711 9.25117 26.8944L6.18516 29.9604C5.7619 30.3837 5.07552 30.3837 4.65219 29.9604C4.22886 29.5371 4.22886 28.8508 4.65219 28.4274L7.7182 25.3614Z" fill="#F0EADD"/>
<path d="M7.7182 11.5648L4.65219 8.49891C4.22886 8.07558 4.22886 7.38927 4.65219 6.96594C5.07545 6.5426 5.76182 6.5426 6.18516 6.96594L9.25117 10.0319C9.6745 10.4552 9.6745 11.1415 9.25117 11.5648C8.82791 11.9882 8.14153 11.9882 7.7182 11.5648Z" fill="#F0EADD"/>
<path d="M8.4835 18.4634L1.58502 11.5649C-0.528168 9.45169 -0.528168 6.01322 1.58502 3.89996C3.69821 1.78677 7.13676 1.78677 9.24995 3.89996L12.1349 6.78495C13.4844 8.13429 13.9478 10.0972 13.3442 11.9076C13.1555 12.4736 13.1534 13.0755 13.318 13.6287C21.9964 4.95655 21.4927 5.44059 21.7495 5.21209V1.08398C21.7495 0.485336 22.2348 0 22.8335 0H35.9136C36.5122 0 36.9976 0.485336 36.9976 1.08398V35.916C36.9976 36.5147 36.5122 37 35.9136 37H22.8335C22.2348 37 21.7495 36.5147 21.7495 35.916V31.7294L13.3223 23.3022C13.1559 23.8553 13.1566 24.4558 13.3443 25.0189C13.9479 26.8293 13.4844 28.7923 12.135 30.1416L9.25002 33.0267C7.1369 35.1398 3.69836 35.14 1.58509 33.0267C-0.528095 30.9135 -0.528095 27.475 1.58509 25.3618L8.4835 18.4634ZM11.2875 11.2221C11.6297 10.1957 11.367 9.08292 10.602 8.31792L7.71705 5.43286C6.44908 4.16489 4.38611 4.16489 3.11799 5.43286C1.85009 6.70083 1.85009 8.76387 3.11799 10.0318L10.0165 16.9303L11.6741 15.2727C10.99 14.055 10.8355 12.5783 11.2875 11.2221ZM14.6155 15.3973L16.154 16.9359C19.0744 14.0145 23.5718 9.51464 26.7504 6.33025C25.5497 5.7548 24.0533 5.95953 23.0469 6.9659L14.6155 15.3973ZM21.7848 22.5667C21.8327 22.3803 21.9286 22.2079 22.067 22.0694L25.6365 18.5L22.4284 15.2919C22.2251 15.0886 22.1108 14.8129 22.1108 14.5254V14.0427C20.4971 15.6576 18.946 17.2093 17.6869 18.4689L21.7848 22.5667ZM23.9175 34.832H34.8296V19.584H33.6733C33.0747 19.584 32.5894 19.0986 32.5894 18.5C32.5894 17.9014 33.0747 17.416 33.6733 17.416H34.8296V2.16797H23.9175V4.0364C25.7209 3.54665 27.7387 3.99296 29.1788 5.43293C29.6018 5.8559 29.6021 6.54156 29.1797 6.96503C27.8049 8.34299 26.0674 10.0828 24.2789 11.873V14.0764L27.6185 17.416H29.3375C29.9361 17.416 30.4215 17.9014 30.4215 18.5C30.4215 19.0986 29.9361 19.584 29.3375 19.584H27.6185L23.9176 23.2849V34.832H23.9175ZM21.7495 25.5974C20.7931 24.6411 13.907 17.7549 13.0824 16.9303L11.5494 18.4634L21.7495 28.6634V25.5974ZM3.11799 31.4937C4.38604 32.7616 6.44915 32.7616 7.71705 31.4937L10.602 28.6087C11.367 27.8437 11.6297 26.7309 11.2875 25.7045C10.837 24.3526 10.9934 22.8777 11.6796 21.6594L10.0165 19.9963L3.11799 26.8947C1.85009 28.1627 1.85009 30.2257 3.11799 31.4937Z" fill="#F0EADD"/>
</g>
<defs>
<clipPath id="clip0">
<rect width="37" height="37" fill="white" transform="matrix(-1 0 0 1 37 0)"/>
</clipPath>
</defs>
</svg>
