<svg width="134" height="39" viewBox="0 0 134 39" fill="none" xmlns="http://www.w3.org/2000/svg">
<path fill-rule="evenodd" clip-rule="evenodd" d="M133.374 14.4309C133.374 18.8908 128.057 34.1607 127.185 36.4524C126.611 37.9582 125.513 38.1713 124.089 38.1713C121.513 38.1713 119.571 37.5595 118.623 36.8027C118.427 36.6468 118.184 36.3125 118.349 35.8228C119.317 32.9428 122.993 22.5727 122.993 20.3322C122.993 19.1058 122.629 18.1837 121.402 18.1837C113.963 18.1837 100.295 34.0236 97.7571 36.8553C96.9266 37.7807 95.7098 37.976 94.2883 37.976C92.5291 37.976 90.6556 37.0445 90.4772 36.9525C89.9211 36.6656 89.8947 36.3487 90.0594 35.6796L90.5266 33.7837C91.3816 30.3154 95.8101 17.4837 98.8802 10.5297C99.0105 10.2358 99.138 9.99168 99.8047 9.88792C100.114 9.83956 101.13 9.6034 102.545 9.6034C103.582 9.6034 105.599 9.67711 106.609 10.218C106.609 10.218 106.618 10.203 106.618 11.8956C106.618 12.6266 106.698 15.1122 109.042 15.1122C112.999 15.1122 120.181 8.33618 126.532 8.33618C132.115 8.33618 133.374 11.7739 133.374 14.4309ZM54.375 20.0364C54.375 20.9623 53.2943 23.5108 53.1413 23.8874C52.1697 26.2786 49.6219 26.6664 47.8283 26.6664C45.1375 26.6664 44.2129 25.702 44.2129 24.1803C44.2129 23.0028 45.2057 20.9698 45.3365 20.6703C46.548 17.9001 48.7166 17.5992 50.857 17.5992C52.6718 17.5992 54.375 18.3523 54.375 20.0364ZM31.3641 14.1863C31.3641 12.4228 31.2808 9.8959 29.8989 9.8959C25.4012 9.8959 17.5003 16.7597 16.708 17.5499C16.1217 18.1354 16.5603 18.0861 17.3432 18.0861H27.4559C31.0389 18.0861 31.3641 17.4846 31.3641 14.1863ZM42.161 15.1122C42.161 23.7531 36.8343 25.5452 30.9246 25.5452H26.7723C22.6224 25.5452 14.265 25.3011 14.265 25.3011C13.5946 25.2879 13.093 25.155 13.093 25.5452C13.093 28.3627 16.2874 32.6142 21.1539 32.6142C24.9862 32.6142 27.4559 30.2253 27.9933 29.6595C27.9933 29.6595 32.3968 29.1525 35.2237 29.1525C37.9686 29.1525 42.0146 29.591 42.0146 31.1512C42.0146 34.1945 32.1056 39 23.792 39C11.2749 39 0 32.2146 0 24.0338C0 10.3255 26.514 0 34.2469 0C41.211 0 42.161 11.0678 42.161 15.1122ZM75.3821 14.8201C74.4392 14.8201 73.0371 14.9666 72.4014 15.8437C70.0216 19.1317 68.4444 27.3533 68.4444 29.6403C68.4444 31.2019 69.5318 31.1023 70.9847 31.1023C71.8302 31.1023 73.1947 31.1235 73.9649 30.323C76.0559 28.1496 77.8599 18.3011 77.8599 16.5231C77.8599 15.2587 77.7686 14.8201 75.3821 14.8201ZM91.1124 14.3811C91.1124 18.1344 87.3986 26.3753 86.2054 28.6646C81.2165 38.2361 74.5517 38.1713 67.0273 38.1713C63.3507 38.1713 55.1561 38.2136 55.1561 31.346C55.1561 28.2745 57.8385 22.6446 60.0414 17.3067C60.9782 15.0366 64.9692 7.40984 78.5572 7.40984C84.162 7.40984 91.1124 8.28782 91.1124 14.3811Z" fill="#EA1B0A"/>
</svg>
