<svg width="50" height="50" viewBox="0 0 50 50" fill="none" xmlns="http://www.w3.org/2000/svg">
<circle cx="41.6667" cy="8.33333" r="8.33333" fill="#02A298"/>
<circle cx="8.33333" cy="41.6667" r="8.33333" fill="#79C07A"/>
<path d="M3.38814 32.926C4.95966 31.7366 6.91772 31.031 9.04053 31.031C14.2182 31.031 18.4155 35.2284 18.4155 40.406C18.4155 41.3374 18.2797 42.237 18.0268 43.0862C24.6934 43.1407 31.6597 39.2726 35.8715 32.4558C36.2455 31.8505 36.5889 31.2362 36.9022 30.6151C34.792 32.1047 32.2697 33.1846 29.4752 33.6802C20.4272 35.2849 11.9521 30.157 10.5456 22.2266C9.13908 14.2962 15.3337 6.56651 24.3818 4.96173C26.5524 4.57676 28.69 4.57924 30.705 4.915C22.4333 0.571837 11.4071 4.36702 5.60606 13.756C1.74979 19.9974 1.13724 27.1976 3.38814 32.926Z" fill="#79C07A"/>
<path d="M46.875 17.1875C45.3503 18.4363 42.9248 18.4822 40.8035 18.5636C35.6297 18.7622 31.2745 14.7289 31.0759 9.55504C31.0402 8.62436 31.1414 7.72019 31.3615 6.86196C24.6978 7.06316 17.885 11.1956 13.9377 18.1689C13.5872 18.788 13.2676 19.415 12.9783 20.0477C15.0299 18.4783 17.5089 17.3024 20.2823 16.7C29.2621 14.7495 37.9276 19.5487 39.6372 27.4193C41.3468 35.2899 35.4531 43.2515 26.4733 45.2021C24.319 45.67 22.1828 45.7495 20.1565 45.4913C28.5887 49.514 39.4612 45.2988 44.8979 35.6943C48.512 29.3096 48.4375 21.875 46.875 17.1875Z" fill="#02A298"/>
</svg>
