<svg width="39" height="39" viewBox="0 0 39 39" fill="none" xmlns="http://www.w3.org/2000/svg">
<circle cx="19.0313" cy="19.0313" r="19.0313" fill="#29D3C9"/>
<g clip-path="url(#clip0)">
<path d="M29.5277 24.2245L26.4291 21.126C25.3225 20.0194 23.4413 20.4621 22.9986 21.9007C22.6667 22.8967 21.5601 23.45 20.5641 23.2286C18.3509 22.6753 15.363 19.7981 14.8097 17.4742C14.4777 16.4782 15.1417 15.3716 16.1377 15.0397C17.5763 14.597 18.0189 12.7158 16.9123 11.6092L13.8138 8.51066C12.9285 7.73603 11.6005 7.73603 10.8259 8.51066L8.72335 10.6132C6.62079 12.8264 8.94468 18.6915 14.1458 23.8926C19.3468 29.0936 25.2119 31.5282 27.4251 29.315L29.5277 27.2124C30.3023 26.3271 30.3023 24.9992 29.5277 24.2245Z" fill="white"/>
</g>
<defs>
<clipPath id="clip0">
<rect width="22.2031" height="22.2031" fill="white" transform="translate(7.92969 7.92969)"/>
</clipPath>
</defs>
</svg>
