<svg width="233" height="244" viewBox="0 0 233 244" fill="none" xmlns="http://www.w3.org/2000/svg">
<path d="M379.442 236.529C366.761 218.033 362.208 195.878 368.351 172.737C383.334 116.293 456.278 75.3498 531.277 81.288C544.768 82.3561 557.406 84.8684 568.974 88.599C589.055 15.9863 553.184 -64.3914 466.632 -118.124C458.946 -122.895 451.042 -127.344 442.952 -131.472C458.422 -106.759 466.766 -78.0239 465.858 -46.9916C462.919 53.4849 364.117 139.994 245.174 146.232C126.233 152.469 32.1941 76.0737 35.1321 -24.4028C35.8372 -48.5072 42.0591 -71.8079 52.7535 -93.389C-34.0938 -8.19667 -11.0283 116.357 108.184 190.365C187.43 239.561 289.953 254.497 379.442 236.529Z" fill="url(#paint0_linear)" fill-opacity="0.1"/>
<defs>
<linearGradient id="paint0_linear" x1="296.545" y1="193.689" x2="90.3296" y2="-6.8953" gradientUnits="userSpaceOnUse">
<stop stop-color="#326973" stop-opacity="0.61"/>
<stop offset="1" stop-color="#326973" stop-opacity="0.58"/>
</linearGradient>
</defs>
</svg>
