<svg width="35" height="36" viewBox="0 0 35 36" fill="none" xmlns="http://www.w3.org/2000/svg">
<path d="M7.08333 7.875H1.25C0.56 7.875 0 7.371 0 6.75C0 6.129 0.56 5.625 1.25 5.625H7.08333C7.77333 5.625 8.33333 6.129 8.33333 6.75C8.33333 7.371 7.77333 7.875 7.08333 7.875Z" fill="#39403A"/>
<path d="M7.08333 15.375H1.25C0.56 15.375 0 14.871 0 14.25C0 13.629 0.56 13.125 1.25 13.125H7.08333C7.77333 13.125 8.33333 13.629 8.33333 14.25C8.33333 14.871 7.77333 15.375 7.08333 15.375Z" fill="#39403A"/>
<path d="M7.08333 22.875H1.25C0.56 22.875 0 22.371 0 21.75C0 21.129 0.56 20.625 1.25 20.625H7.08333C7.77333 20.625 8.33333 21.129 8.33333 21.75C8.33333 22.371 7.77333 22.875 7.08333 22.875Z" fill="#39403A"/>
<path d="M7.08333 30.375H1.25C0.56 30.375 0 29.871 0 29.25C0 28.629 0.56 28.125 1.25 28.125H7.08333C7.77333 28.125 8.33333 28.629 8.33333 29.25C8.33333 29.871 7.77333 30.375 7.08333 30.375Z" fill="#39403A"/>
<path d="M28.75 21.75H12.9167C12.2267 21.75 11.6667 21.246 11.6667 20.625C11.6667 20.004 12.2267 19.5 12.9167 19.5H28.75C29.44 19.5 30 20.004 30 20.625C30 21.246 29.44 21.75 28.75 21.75Z" fill="#39403A"/>
<path d="M28.75 27.75H12.9167C12.2267 27.75 11.6667 27.246 11.6667 26.625C11.6667 26.004 12.2267 25.5 12.9167 25.5H28.75C29.44 25.5 30 26.004 30 26.625C30 27.246 29.44 27.75 28.75 27.75Z" fill="#39403A"/>
<path d="M28.75 15.75H12.9167C12.2267 15.75 11.6667 15.246 11.6667 14.625C11.6667 14.004 12.2267 13.5 12.9167 13.5H28.75C29.44 13.5 30 14.004 30 14.625C30 15.246 29.44 15.75 28.75 15.75Z" fill="#39403A"/>
<path d="M20.4167 9.75H12.9167C12.2267 9.75 11.6667 9.246 11.6667 8.625C11.6667 8.004 12.2267 7.5 12.9167 7.5H20.4167C21.1067 7.5 21.6667 8.004 21.6667 8.625C21.6667 9.246 21.1067 9.75 20.4167 9.75Z" fill="#39403A"/>
<path d="M30.4167 36H7.91667C5.38833 36 3.33333 34.1505 3.33333 31.875V4.125C3.33333 1.8495 5.38833 0 7.91667 0H30.4167C32.945 0 35 1.8495 35 4.125V31.875C35 34.1505 32.945 36 30.4167 36ZM7.91667 2.25C6.76833 2.25 5.83333 3.0915 5.83333 4.125V31.875C5.83333 32.9085 6.76833 33.75 7.91667 33.75H30.4167C31.565 33.75 32.5 32.9085 32.5 31.875V4.125C32.5 3.0915 31.565 2.25 30.4167 2.25H7.91667Z" fill="#39403A"/>
</svg>
