<svg width="39" height="39" viewBox="0 0 39 39" fill="none" xmlns="http://www.w3.org/2000/svg">
<g clip-path="url(#clip0)">
<ellipse cx="19.8242" cy="19.8242" rx="16.6523" ry="16.6523" fill="white"/>
<path d="M21.1453 17.6754L18.5283 17.0946C17.5328 16.8678 16.3869 16.5681 16.3869 15.6296C16.3869 14.689 17.1907 14.0318 18.6418 14.0318C21.5664 14.0318 21.2992 16.0416 22.7512 16.0416C23.5152 16.0416 24.184 15.5924 24.184 14.82C24.184 13.0175 21.2992 11.6648 18.8521 11.6648C16.1956 11.6648 13.3665 12.793 13.3665 15.7977C13.3665 17.2447 13.8834 18.7841 16.7311 19.4982L20.2669 20.381C21.337 20.6447 21.6047 21.2467 21.6047 21.7897C21.6047 22.6928 20.7077 23.575 19.0827 23.575C15.9084 23.575 16.3489 21.1322 14.6478 21.1322C13.8834 21.1322 13.3288 21.6587 13.3288 22.41C13.3288 23.8747 15.1072 25.8294 19.0827 25.8294C22.865 25.8294 24.7392 24.0063 24.7392 21.5646C24.7392 19.9881 24.0124 18.3143 21.1453 17.6754Z" fill="#52C6EB"/>
<path d="M19.0313 0C8.52219 0 0 8.52219 0 19.0313C0 29.5403 8.52219 38.0625 19.0313 38.0625C29.5403 38.0625 38.0625 29.5403 38.0625 19.0313C38.0625 8.52219 29.5403 0 19.0313 0ZM28.9398 28.9116C27.6885 30.1635 26.0257 30.8514 24.2566 30.8514C23.1107 30.8514 21.9886 30.5535 20.9975 29.9927C20.3543 30.1069 19.6954 30.167 19.0379 30.167C17.5273 30.167 16.0614 29.8708 14.6823 29.2862C13.3488 28.724 12.1527 27.9164 11.1244 26.8887C10.0973 25.8613 9.29057 24.6652 8.7275 23.3323C8.14322 21.9523 7.8476 20.4873 7.8476 18.9764C7.8476 18.3294 7.90568 17.6815 8.01603 17.0476C7.47212 16.0692 7.1826 14.9623 7.1826 13.8358C7.1826 12.0664 7.872 10.4028 9.12272 9.15176C10.374 7.90017 12.0377 7.21106 13.8071 7.21106C14.8908 7.21106 15.9618 7.48142 16.9137 7.98757C16.9154 7.98728 16.9175 7.98728 16.9189 7.9867C17.613 7.8537 18.3259 7.78662 19.0379 7.78662C20.5483 7.78662 22.0139 8.08253 23.393 8.66593C24.725 9.22959 25.9226 10.0363 26.9494 11.0637C27.9777 12.0914 28.7841 13.2881 29.3478 14.6208C29.9321 16.0004 30.2277 17.4657 30.2277 18.9764C30.2277 19.6573 30.1635 20.3389 30.0412 21.0048C30.5889 21.9869 30.8802 23.0976 30.8802 24.2278C30.8799 25.9972 30.1914 27.6612 28.9398 28.9116Z" fill="#52C6EB"/>
</g>
<defs>
<clipPath id="clip0">
<rect width="38.0625" height="38.0625" fill="white"/>
</clipPath>
</defs>
</svg>
