<svg width="39" height="39" viewBox="0 0 39 39" fill="none" xmlns="http://www.w3.org/2000/svg">
<g clip-path="url(#clip0)">
<path d="M19.0211 38.0625C8.4988 38.0625 0 29.5435 0 19.0211C0 8.4988 8.51904 0 19.0414 0C29.5637 0 38.0625 8.51904 38.0625 19.0414C38.0423 29.5637 29.5435 38.0625 19.0211 38.0625ZM19.264 7.18351C17.6856 7.30492 16.3501 7.36563 15.0146 7.52751C11.1901 7.97269 8.53927 10.2593 8.01316 13.8207C7.72986 15.8037 7.72987 17.8475 7.77034 19.8508C7.85128 22.6432 8.90351 25.0715 11.4329 26.407C12.8899 27.1759 13.3957 28.0461 13.2136 29.5839C13.1731 29.9279 13.5374 30.5552 13.8409 30.6564C14.1647 30.7778 14.7515 30.535 15.055 30.2719C15.6823 29.7661 16.1477 29.0578 16.775 28.5519C17.1797 28.2282 17.7261 27.9651 18.232 27.9246C20.1341 27.7223 22.0564 27.7223 23.9585 27.4795C26.8319 27.1152 29.4018 24.6465 30.0089 21.8338C30.5755 19.2033 30.5552 16.5524 30.1505 13.9016C29.6244 10.6033 27.1962 8.15481 23.8978 7.64892C22.2588 7.42634 20.6602 7.32516 19.264 7.18351Z" fill="#BD6EFB"/>
<path d="M19.264 7.1835C20.6602 7.32515 22.2588 7.42633 23.8574 7.68938C27.1557 8.19526 29.6042 10.6437 30.1101 13.9421C30.535 16.5929 30.535 19.2437 29.9684 21.8743C29.3613 24.687 26.8117 27.1557 23.9181 27.5199C22.016 27.7627 20.0936 27.7627 18.1915 27.9651C17.6856 28.0258 17.1393 28.2686 16.7346 28.5924C16.1073 29.0983 15.6418 29.7863 15.0146 30.3124C14.6908 30.5754 14.1242 30.8183 13.8004 30.6969C13.4969 30.5754 13.1327 29.9684 13.1732 29.6244C13.3553 28.0865 12.8494 27.2164 11.3924 26.4475C8.90351 25.0917 7.83105 22.6432 7.75011 19.8508C7.6894 17.8475 7.6894 15.8037 7.99293 13.8207C8.51904 10.2593 11.1699 7.97268 14.9943 7.5275C16.3501 7.36562 17.6856 7.30491 19.264 7.1835ZM13.9826 29.7256C14.0635 29.766 14.1444 29.8065 14.2456 29.847C15.0955 29.0173 16.0263 28.2484 16.7953 27.3378C17.6856 26.2856 18.6367 25.7595 20.0734 25.8606C21.3684 25.9416 22.704 25.7392 23.9788 25.4357C26.0225 24.95 27.4592 23.655 27.9854 21.591C28.6329 18.9807 28.5722 16.3096 28.0056 13.679C27.6009 11.7971 25.719 10.0569 23.8371 9.73314C21.0042 9.22726 18.151 9.26773 15.2979 9.55103C12.1007 9.85456 9.91528 12.3233 9.89504 14.8324C9.89504 16.7548 9.83434 18.6569 9.93551 20.559C10.0569 22.8456 11.4532 24.2621 13.3755 25.294C13.6588 25.4559 13.9623 25.9011 13.9826 26.2249C14.023 27.3783 13.9826 28.5519 13.9826 29.7256Z" fill="white"/>
<path d="M13.9826 29.7256C13.9826 28.5519 14.023 27.3783 13.9623 26.2046C13.9421 25.8809 13.6588 25.4155 13.3553 25.2738C11.4329 24.2418 10.0165 22.8253 9.91528 20.5388C9.81411 18.6366 9.87481 16.7143 9.87481 14.8122C9.87481 12.2828 12.0805 9.81408 15.2776 9.51055C18.151 9.24749 20.984 9.20702 23.8169 9.69267C25.6988 10.0367 27.5807 11.7567 27.9854 13.6385C28.5519 16.2691 28.5924 18.9402 27.9651 21.5505C27.4592 23.6145 26.0023 24.9096 23.9585 25.3952C22.6837 25.6987 21.3482 25.9011 20.0531 25.8202C18.6164 25.7392 17.6654 26.2653 16.775 27.2973C16.0061 28.2079 15.0955 28.9769 14.2254 29.8065C14.1444 29.8065 14.0635 29.766 13.9826 29.7256ZM22.2588 23.6955C23.2301 23.5133 23.8169 22.886 24.1811 22.0564C24.5251 21.2875 23.8574 20.9839 23.392 20.6197C23.048 20.3566 22.6837 20.1138 22.3195 19.8508C21.7124 19.4258 21.1256 19.3854 20.6602 20.0531C20.2757 20.5995 19.7901 20.5792 19.2437 20.3566C17.888 19.7901 17.0179 18.7783 16.431 17.463C16.1882 16.9167 16.1477 16.4512 16.6941 16.0465C17.3619 15.5811 17.3416 14.9943 16.9369 14.367C16.6739 13.9825 16.4108 13.5778 16.1275 13.2136C15.7228 12.6875 15.3383 12.0804 14.4884 12.5661C13.5172 13.1327 12.9303 14.0432 13.2136 14.8527C14.7313 19.0616 17.5844 21.9755 21.7934 23.5336C21.935 23.6145 22.0969 23.655 22.2588 23.6955ZM24.1811 18.4343C25.0512 17.1595 24.343 14.7515 22.9872 13.3957C21.7124 12.1209 19.5473 11.4531 18.2927 12.303C22.2588 12.4447 24.0192 14.6301 24.1811 18.4343ZM18.9807 13.6385C21.3482 13.9421 22.6837 15.1967 22.6837 17.7868C23.3717 16.8964 23.1289 15.5407 22.3397 14.5896C21.5101 13.5981 19.952 13.0517 18.9807 13.6385ZM21.4898 17.0381C21.7731 16.2287 21.6517 15.5609 21.0042 15.1562C20.5995 14.9134 20.0734 14.8729 19.5877 14.7515C19.527 14.8931 19.4461 15.0348 19.3854 15.1764C20.5186 15.3383 21.1458 16.0263 21.4898 17.0381Z" fill="#BD6EFB"/>
<path d="M22.2588 23.6955C22.0969 23.655 21.935 23.6145 21.7731 23.5538C17.5642 21.9957 14.711 19.0818 13.1934 14.8729C12.9101 14.0635 13.4767 13.1529 14.4682 12.5863C15.3181 12.1007 15.7025 12.7077 16.1073 13.2338C16.3905 13.5981 16.6536 14.0028 16.9167 14.3873C17.3214 15.0145 17.3416 15.6014 16.6738 16.0668C16.1073 16.4513 16.1477 16.9167 16.4108 17.4833C16.9976 18.7985 17.888 19.8103 19.2235 20.3769C19.7698 20.5995 20.2555 20.6197 20.6399 20.0734C21.1054 19.4056 21.6922 19.4258 22.2992 19.871C22.6635 20.1138 23.0277 20.3769 23.3717 20.6399C23.8371 21.0042 24.5049 21.3077 24.1609 22.0767C23.8169 22.8861 23.2301 23.5134 22.2588 23.6955Z" fill="white"/>
<path d="M24.1811 18.4343C24.0192 14.6503 22.279 12.4447 18.2927 12.303C19.5472 11.4531 21.7124 12.1209 22.9872 13.3957C24.343 14.7313 25.0512 17.1595 24.1811 18.4343Z" fill="white"/>
<path d="M18.9807 13.6385C19.9519 13.0517 21.5101 13.5778 22.3397 14.5896C23.1289 15.5609 23.3919 16.8964 22.6837 17.7868C22.6635 15.2169 21.3482 13.9421 18.9807 13.6385Z" fill="white"/>
<path d="M21.4898 17.0381C21.1458 16.0061 20.5388 15.3181 19.3854 15.1764C19.4461 15.0348 19.527 14.8931 19.5877 14.7515C20.0734 14.8729 20.5995 14.9134 21.0042 15.1562C21.6517 15.5609 21.7731 16.2489 21.4898 17.0381Z" fill="white"/>
</g>
<defs>
<clipPath id="clip0">
<rect width="38.0625" height="38.0625" fill="white"/>
</clipPath>
</defs>
</svg>
