<svg 
 xmlns="http://www.w3.org/2000/svg"
 xmlns:xlink="http://www.w3.org/1999/xlink"
 width="305px" height="625px">
<path fill-rule="evenodd"  fill="rgb(232, 170, 0)"
 d="M59.000,188.000 L91.000,188.000 C94.314,188.000 97.000,190.686 97.000,194.000 L97.000,226.000 C97.000,229.313 94.314,232.000 91.000,232.000 L59.000,232.000 C55.686,232.000 53.000,229.313 53.000,226.000 L53.000,194.000 C53.000,190.686 55.686,188.000 59.000,188.000 Z"/>
<path fill-rule="evenodd"  fill="rgb(255, 255, 255)"
 d="M270.000,-0.000 L299.000,-0.000 C302.314,-0.000 305.000,2.686 305.000,6.000 L305.000,35.000 C305.000,38.313 302.314,41.000 299.000,41.000 L270.000,41.000 C266.686,41.000 264.000,38.313 264.000,35.000 L264.000,6.000 C264.000,2.686 266.686,-0.000 270.000,-0.000 Z"/>
<path fill-rule="evenodd"  fill="rgb(252, 166, 30)"
 d="M6.000,381.000 L20.000,381.000 C23.314,381.000 26.000,383.686 26.000,387.000 L26.000,401.000 C26.000,404.314 23.314,407.000 20.000,407.000 L6.000,407.000 C2.686,407.000 -0.000,404.314 -0.000,401.000 L-0.000,387.000 C-0.000,383.686 2.686,381.000 6.000,381.000 Z"/>
<path fill-rule="evenodd"  fill="rgb(87, 88, 91)"
 d="M107.000,599.000 L121.000,599.000 C124.314,599.000 127.000,601.686 127.000,605.000 L127.000,619.000 C127.000,622.314 124.314,625.000 121.000,625.000 L107.000,625.000 C103.686,625.000 101.000,622.314 101.000,619.000 L101.000,605.000 C101.000,601.686 103.686,599.000 107.000,599.000 Z"/>
</svg>