<svg 
 xmlns="http://www.w3.org/2000/svg"
 xmlns:xlink="http://www.w3.org/1999/xlink"
 width="11px" height="10px">
<path fill-rule="evenodd"  opacity="0.29" fill="#656466"
 d="M6.541,4.999 L9.938,1.609 C10.020,1.528 10.020,1.396 9.938,1.314 L8.682,0.061 C8.644,0.022 8.590,0.001 8.536,0.001 C8.479,0.001 8.427,0.022 8.387,0.061 L4.990,3.452 L1.593,0.061 C1.515,-0.017 1.376,-0.017 1.298,0.061 L0.043,1.314 C-0.039,1.396 -0.039,1.528 0.043,1.609 L3.440,4.999 L0.043,8.390 C-0.039,8.471 -0.039,8.603 0.043,8.685 L1.298,9.937 C1.336,9.976 1.390,9.999 1.446,9.999 C1.501,9.999 1.553,9.976 1.593,9.937 L4.990,6.547 L8.387,9.937 C8.427,9.976 8.479,9.999 8.536,9.999 C8.590,9.999 8.644,9.976 8.682,9.937 L9.938,8.685 C10.020,8.604 10.020,8.471 9.938,8.390 L6.541,4.999 Z"/>
</svg>