<svg 
 xmlns="http://www.w3.org/2000/svg"
 xmlns:xlink="http://www.w3.org/1999/xlink"
 width="207px" height="489px">
<path fill-rule="evenodd"  opacity="0.502" fill="rgb(255, 255, 255)"
 d="M68.998,259.999 L83.999,259.999 C87.313,259.999 89.999,262.686 89.999,265.999 L89.999,280.999 C89.999,284.313 87.313,286.999 83.999,286.999 L68.998,286.999 C65.685,286.999 62.999,284.313 62.999,280.999 L62.999,265.999 C62.999,262.686 65.685,259.999 68.998,259.999 Z"/>
<path fill-rule="evenodd"  fill="rgb(87, 88, 91)"
 d="M163.999,457.999 L182.999,457.999 C186.313,457.999 189.000,460.685 189.000,463.999 L189.000,482.999 C189.000,486.313 186.313,489.000 182.999,489.000 L163.999,489.000 C160.686,489.000 157.999,486.313 157.999,482.999 L157.999,463.999 C157.999,460.685 160.686,457.999 163.999,457.999 Z"/>
<path fill-rule="evenodd"  fill="rgb(87, 88, 91)"
 d="M163.999,182.000 L200.999,182.000 C204.313,182.000 206.999,184.686 206.999,188.000 L206.999,224.999 C206.999,228.313 204.313,230.999 200.999,230.999 L163.999,230.999 C160.686,230.999 157.999,228.313 157.999,224.999 L157.999,188.000 C157.999,184.686 160.686,182.000 163.999,182.000 Z"/>
<path fill-rule="evenodd"  fill="rgb(232, 170, 0)"
 d="M5.998,416.999 L15.999,416.999 C19.312,416.999 21.999,419.685 21.999,422.999 L21.999,432.999 C21.999,436.313 19.312,438.999 15.999,438.999 L5.998,438.999 C2.685,438.999 -0.001,436.313 -0.001,432.999 L-0.001,422.999 C-0.001,419.685 2.685,416.999 5.998,416.999 Z"/>
<path fill-rule="evenodd"  fill="rgb(232, 170, 0)"
 d="M115.999,-0.000 L128.000,-0.000 C131.313,-0.000 133.999,2.686 133.999,5.999 L133.999,17.999 C133.999,21.313 131.313,23.999 128.000,23.999 L115.999,23.999 C112.685,23.999 109.999,21.313 109.999,17.999 L109.999,5.999 C109.999,2.686 112.685,-0.000 115.999,-0.000 Z"/>
</svg>