<svg 
 xmlns="http://www.w3.org/2000/svg"
 xmlns:xlink="http://www.w3.org/1999/xlink"
 width="213px" height="498px">
<path fill-rule="evenodd"  opacity="0.502" fill="rgb(255, 255, 255)"
 d="M177.999,-0.000 L206.999,-0.000 C210.312,-0.000 212.999,2.686 212.999,5.999 L212.999,35.000 C212.999,38.313 210.312,40.999 206.999,40.999 L177.999,40.999 C174.685,40.999 171.999,38.313 171.999,35.000 L171.999,5.999 C171.999,2.686 174.685,-0.000 177.999,-0.000 Z"/>
<path fill-rule="evenodd"  fill="rgb(87, 88, 91)"
 d="M129.000,309.999 L142.998,309.999 C146.313,309.999 148.999,312.685 148.999,315.999 L148.999,329.999 C148.999,333.313 146.313,335.999 142.998,335.999 L129.000,335.999 C125.686,335.999 122.999,333.313 122.999,329.999 L122.999,315.999 C122.999,312.685 125.686,309.999 129.000,309.999 Z"/>
<path fill-rule="evenodd"  fill="rgb(252, 166, 30)"
 d="M14.999,471.999 L29.000,471.999 C32.313,471.999 34.998,474.686 34.998,478.000 L34.998,491.999 C34.998,495.313 32.313,497.999 29.000,497.999 L14.999,497.999 C11.685,497.999 8.999,495.313 8.999,491.999 L8.999,478.000 C8.999,474.686 11.685,471.999 14.999,471.999 Z"/>
<path fill-rule="evenodd"  fill="rgb(232, 170, 0)"
 d="M6.000,167.000 L37.999,167.000 C41.312,167.000 44.000,169.686 44.000,172.999 L44.000,205.000 C44.000,208.313 41.312,210.999 37.999,210.999 L6.000,210.999 C2.686,210.999 -0.001,208.313 -0.001,205.000 L-0.001,172.999 C-0.001,169.686 2.686,167.000 6.000,167.000 Z"/>
</svg>