<svg 
 xmlns="http://www.w3.org/2000/svg"
 xmlns:xlink="http://www.w3.org/1999/xlink"
 width="30px" height="30px">
<path fill-rule="evenodd"  fill="rgb(232, 170, 0)"
 d="M15.001,29.994 C6.728,29.994 -0.003,23.267 -0.003,15.000 C-0.003,6.733 6.728,0.006 15.001,0.006 C23.274,0.006 30.005,6.733 30.005,15.000 C30.005,23.267 23.274,29.994 15.001,29.994 ZM15.001,2.422 C8.062,2.422 2.415,8.064 2.415,15.000 C2.415,21.934 8.062,27.576 15.001,27.576 C21.940,27.576 27.585,21.934 27.585,15.000 C27.585,8.066 21.940,2.422 15.001,2.422 ZM13.636,19.782 C13.398,20.016 13.089,20.134 12.781,20.134 C12.470,20.134 12.163,20.016 11.926,19.782 L8.509,16.365 C8.036,15.894 8.036,15.129 8.509,14.656 C8.981,14.185 9.746,14.185 10.216,14.656 L12.781,17.219 L19.783,10.219 C20.257,9.748 21.022,9.748 21.493,10.219 C21.966,10.692 21.966,11.454 21.493,11.927 L13.636,19.782 Z"/>
</svg>