<svg 
 xmlns="http://www.w3.org/2000/svg"
 xmlns:xlink="http://www.w3.org/1999/xlink"
 width="23px" height="22px">
<path fill-rule="evenodd"  opacity="0.302" fill="rgb(255, 255, 255)"
 d="M13.527,10.994 L22.569,2.337 C23.131,1.800 23.131,0.928 22.569,0.390 C22.007,-0.147 21.097,-0.147 20.536,0.390 L11.494,9.048 L2.452,0.390 C1.890,-0.147 0.980,-0.147 0.419,0.390 C-0.143,0.928 -0.143,1.800 0.419,2.337 L9.461,10.994 L0.419,19.652 C-0.143,20.189 -0.143,21.061 0.419,21.598 C0.699,21.867 1.068,22.002 1.435,22.002 C1.803,22.002 2.171,21.867 2.452,21.598 L11.494,12.941 L20.536,21.598 C20.817,21.867 21.185,22.002 21.552,22.002 C21.920,22.002 22.288,21.867 22.569,21.598 C23.131,21.061 23.131,20.189 22.569,19.652 L13.527,10.994 Z"/>
</svg>