<svg 
 xmlns="http://www.w3.org/2000/svg"
 xmlns:xlink="http://www.w3.org/1999/xlink"
 width="17px" height="18px">
<path fill-rule="evenodd"  fill="rgb(39, 49, 61)"
 d="M9.998,8.996 L16.681,2.405 C17.097,1.996 17.097,1.333 16.681,0.924 C16.266,0.514 15.594,0.514 15.179,0.924 L8.496,7.514 L1.812,0.924 C1.397,0.514 0.725,0.514 0.309,0.924 C-0.106,1.333 -0.106,1.996 0.309,2.405 L6.993,8.996 L0.309,15.586 C-0.106,15.995 -0.106,16.659 0.309,17.068 C0.517,17.273 0.789,17.375 1.061,17.375 C1.333,17.375 1.605,17.273 1.812,17.068 L8.496,10.478 L15.179,17.068 C15.386,17.273 15.658,17.375 15.930,17.375 C16.202,17.375 16.474,17.273 16.681,17.068 C17.097,16.659 17.097,15.995 16.681,15.586 L9.998,8.996 Z"/>
</svg>