<svg 
 xmlns="http://www.w3.org/2000/svg"
 xmlns:xlink="http://www.w3.org/1999/xlink"
 width="15px" height="15px">
<path fill-rule="evenodd"  fill="rgb(255, 255, 255)"
 d="M10.947,14.999 L4.053,14.999 C1.818,14.999 -0.000,13.181 -0.000,10.946 L-0.000,4.053 C-0.000,1.818 1.818,-0.001 4.053,-0.001 L10.947,-0.001 C13.182,-0.001 15.000,1.818 15.000,4.053 L15.000,10.946 C15.000,13.181 13.182,14.999 10.947,14.999 ZM13.788,4.053 C13.788,2.485 12.514,1.211 10.947,1.211 L4.053,1.211 C2.486,1.211 1.212,2.485 1.212,4.053 L1.212,10.946 C1.212,12.513 2.486,13.788 4.053,13.788 L10.947,13.788 C12.514,13.788 13.788,12.513 13.788,10.946 L13.788,4.053 ZM11.292,4.313 C11.132,4.313 10.976,4.249 10.863,4.136 C10.750,4.023 10.686,3.868 10.686,3.708 C10.686,3.548 10.750,3.392 10.863,3.279 C10.976,3.166 11.132,3.102 11.292,3.102 C11.451,3.102 11.607,3.166 11.720,3.279 C11.833,3.392 11.898,3.548 11.898,3.708 C11.898,3.867 11.833,4.023 11.720,4.136 C11.607,4.249 11.451,4.313 11.292,4.313 ZM10.231,9.473 C9.696,10.195 8.912,10.665 8.023,10.797 C7.856,10.822 7.689,10.834 7.523,10.834 C6.806,10.834 6.112,10.605 5.526,10.171 C4.804,9.636 4.334,8.852 4.203,7.963 C4.071,7.074 4.293,6.187 4.828,5.466 C5.363,4.744 6.148,4.274 7.036,4.142 C7.364,4.094 7.696,4.094 8.023,4.142 C8.742,4.249 9.394,4.577 9.908,5.091 C10.422,5.605 10.750,6.257 10.857,6.976 C10.989,7.865 10.767,8.751 10.231,9.473 ZM9.658,7.154 C9.518,6.210 8.790,5.481 7.845,5.341 C7.741,5.326 7.635,5.318 7.530,5.318 C7.424,5.318 7.319,5.326 7.214,5.341 C6.646,5.425 6.144,5.726 5.802,6.188 C5.459,6.650 5.317,7.217 5.401,7.785 C5.486,8.354 5.786,8.855 6.248,9.198 C6.709,9.540 7.277,9.682 7.845,9.598 C9.019,9.424 9.832,8.328 9.658,7.154 Z"/>
</svg>