<svg 
 xmlns="http://www.w3.org/2000/svg"
 xmlns:xlink="http://www.w3.org/1999/xlink"
 width="16px" height="13px">
<path fill-rule="evenodd"  fill="rgb(255, 255, 255)"
 d="M15.094,5.276 L15.119,5.282 L4.424,5.282 L7.786,1.978 C7.950,1.818 8.041,1.599 8.041,1.370 C8.041,1.141 7.950,0.924 7.786,0.762 L7.263,0.249 C7.098,0.088 6.879,-0.001 6.645,-0.001 C6.411,-0.001 6.192,0.087 6.027,0.249 L0.264,5.897 C0.099,6.059 0.009,6.274 0.009,6.503 C0.009,6.734 0.099,6.950 0.264,7.112 L6.027,12.761 C6.192,12.922 6.411,13.010 6.645,13.010 C6.879,13.010 7.098,12.922 7.263,12.761 L7.786,12.247 C7.950,12.087 8.041,11.872 8.041,11.642 C8.041,11.413 7.950,11.210 7.786,11.048 L4.386,7.727 L15.106,7.727 C15.587,7.727 15.992,7.320 15.992,6.849 L15.992,6.123 C15.992,5.651 15.575,5.276 15.094,5.276 Z"/>
</svg>