<svg 
 xmlns="http://www.w3.org/2000/svg"
 xmlns:xlink="http://www.w3.org/1999/xlink"
 width="67px" height="61px">
<path fill-rule="evenodd"  fill="rgb(39, 49, 61)"
 d="M56.215,49.586 C56.131,49.693 56.047,49.799 55.965,49.906 C55.959,49.938 55.952,49.968 55.944,50.000 L55.926,50.077 L66.999,60.999 L30.823,60.999 L30.823,60.906 C27.374,60.736 24.499,60.232 21.952,59.300 C10.107,54.962 3.172,46.714 1.340,34.787 C-1.053,19.205 9.054,4.623 24.850,0.866 C32.610,-0.981 40.707,0.194 47.652,4.171 C54.612,8.157 59.640,14.522 61.810,22.093 C64.606,31.850 62.814,40.985 56.482,49.245 C56.394,49.360 56.305,49.473 56.215,49.586 ZM39.987,34.356 C41.505,31.846 41.872,29.237 41.083,26.393 C40.212,23.259 38.300,21.426 35.236,20.789 C34.074,20.547 32.757,20.435 31.324,20.463 C24.161,20.590 18.233,26.216 17.829,33.272 C17.500,39.014 18.860,44.025 21.987,48.591 C24.334,52.018 27.471,54.601 30.823,57.251 L30.823,25.184 C33.572,27.940 36.322,30.697 39.121,33.502 L39.987,34.356 ZM60.477,22.467 C56.866,9.867 44.846,1.403 31.956,1.403 C29.708,1.403 27.434,1.661 25.173,2.198 C10.084,5.788 0.427,19.710 2.710,34.581 C4.461,45.978 11.097,53.862 22.433,58.014 C24.868,58.905 27.520,59.381 30.823,59.544 L30.823,59.005 L30.727,58.930 C27.002,55.995 23.484,53.222 20.840,49.361 C17.536,44.536 16.099,39.248 16.445,33.194 C16.890,25.425 23.415,19.231 31.299,19.092 C32.836,19.067 34.257,19.184 35.522,19.447 C39.091,20.189 41.412,22.404 42.419,26.030 C43.311,29.241 42.918,32.188 41.217,35.019 L55.130,48.733 C55.213,48.628 55.296,48.523 55.378,48.417 C61.432,40.518 63.148,31.787 60.477,22.467 Z"/>
</svg>