<svg 
 xmlns="http://www.w3.org/2000/svg"
 xmlns:xlink="http://www.w3.org/1999/xlink"
 width="14px" height="12px">
<path fill-rule="evenodd"  fill="rgb(255, 255, 255)"
 d="M12.350,0.675 L1.663,0.675 C0.746,0.675 -0.000,1.392 -0.000,2.273 L-0.000,9.725 C-0.000,10.606 0.746,11.323 1.663,11.323 L12.350,11.323 C13.267,11.323 14.013,10.606 14.013,9.725 L14.013,2.273 C14.013,1.392 13.267,0.675 12.350,0.675 ZM12.350,9.912 L1.663,9.912 C1.528,9.912 1.410,9.825 1.410,9.725 L1.410,3.258 L6.243,7.341 C6.343,7.424 6.469,7.470 6.598,7.470 L7.415,7.470 C7.544,7.470 7.670,7.424 7.770,7.341 L12.603,3.258 L12.603,9.725 C12.603,9.825 12.485,9.912 12.350,9.912 ZM7.007,6.070 L2.306,2.086 L11.708,2.086 L7.007,6.070 Z"/>
</svg>