<svg 
 xmlns="http://www.w3.org/2000/svg"
 xmlns:xlink="http://www.w3.org/1999/xlink"
 width="16px" height="14px">
<path fill-rule="evenodd"  fill="rgb(255, 255, 255)"
 d="M0.988,8.028 L0.963,8.023 L11.512,8.023 L8.196,11.349 C8.033,11.511 7.944,11.731 7.944,11.963 C7.944,12.193 8.033,12.411 8.196,12.575 L8.712,13.091 C8.874,13.254 9.090,13.343 9.321,13.343 C9.551,13.343 9.768,13.254 9.930,13.092 L15.614,7.403 C15.777,7.240 15.866,7.022 15.866,6.791 C15.866,6.559 15.777,6.342 15.614,6.179 L9.930,0.490 C9.768,0.327 9.552,0.238 9.321,0.238 C9.090,0.238 8.874,0.327 8.712,0.490 L8.196,1.006 C8.033,1.168 7.944,1.385 7.944,1.616 C7.944,1.847 8.033,2.051 8.196,2.214 L11.549,5.559 L0.976,5.559 C0.501,5.559 0.101,5.969 0.101,6.444 L0.101,7.175 C0.101,7.650 0.513,8.028 0.988,8.028 Z"/>
</svg>