<svg 
 xmlns="http://www.w3.org/2000/svg"
 xmlns:xlink="http://www.w3.org/1999/xlink"
 width="13px" height="13px">
<path fill-rule="evenodd"  fill="rgb(255, 255, 255)"
 d="M11.970,9.516 L10.108,7.653 C9.737,7.284 9.123,7.296 8.739,7.679 L7.801,8.617 C7.742,8.584 7.681,8.550 7.616,8.514 C7.024,8.185 6.213,7.736 5.360,6.882 C4.504,6.026 4.054,5.215 3.725,4.622 C3.690,4.559 3.657,4.498 3.624,4.441 L4.254,3.812 L4.563,3.503 C4.947,3.118 4.958,2.504 4.588,2.133 L2.726,0.271 C2.356,-0.099 1.742,-0.087 1.357,0.297 L0.832,0.825 L0.847,0.839 C0.671,1.064 0.524,1.323 0.414,1.602 C0.314,1.868 0.251,2.121 0.222,2.375 C-0.024,4.413 0.908,6.276 3.435,8.804 C6.929,12.298 9.745,12.034 9.867,12.021 C10.131,11.990 10.385,11.927 10.642,11.826 C10.919,11.718 11.178,11.571 11.402,11.396 L11.414,11.406 L11.945,10.886 C12.329,10.501 12.340,9.887 11.970,9.516 Z"/>
</svg>