<svg 
 xmlns="http://www.w3.org/2000/svg"
 xmlns:xlink="http://www.w3.org/1999/xlink"
 width="14px" height="19px">
<path fill-rule="evenodd"  fill="rgb(255, 255, 255)"
 d="M7.102,18.178 C6.865,18.443 6.449,18.444 6.211,18.178 C5.957,17.896 -0.000,11.209 -0.000,6.655 C-0.000,2.985 2.986,-0.001 6.656,-0.001 C10.327,-0.001 13.313,2.985 13.313,6.655 C13.313,11.209 7.356,17.896 7.102,18.178 ZM6.656,1.198 C3.647,1.198 1.199,3.646 1.199,6.655 C1.199,9.781 4.652,14.479 6.656,16.860 C8.662,14.478 12.114,9.781 12.114,6.655 C12.114,3.646 9.666,1.198 6.656,1.198 ZM6.656,10.003 C4.810,10.003 3.307,8.502 3.307,6.655 C3.307,4.808 4.810,3.307 6.656,3.307 C8.503,3.307 10.005,4.808 10.005,6.655 C10.005,8.502 8.503,10.003 6.656,10.003 ZM6.656,4.505 C5.471,4.505 4.506,5.469 4.506,6.655 C4.506,7.840 5.471,8.805 6.656,8.805 C7.842,8.805 8.807,7.840 8.807,6.655 C8.807,5.469 7.842,4.505 6.656,4.505 Z"/>
</svg>