<svg 
 xmlns="http://www.w3.org/2000/svg"
 xmlns:xlink="http://www.w3.org/1999/xlink"
 width="11px" height="10px">
<path fill-rule="evenodd"  fill="rgb(0, 0, 0)"
 d="M0.697,5.755 L0.680,5.751 L7.801,5.751 L5.563,7.996 C5.453,8.106 5.393,8.255 5.393,8.411 C5.393,8.567 5.453,8.714 5.563,8.824 L5.911,9.173 C6.020,9.282 6.166,9.343 6.322,9.343 C6.478,9.343 6.624,9.283 6.733,9.173 L10.570,5.332 C10.680,5.223 10.740,5.076 10.740,4.921 C10.740,4.763 10.680,4.617 10.570,4.507 L6.733,0.667 C6.624,0.557 6.478,0.497 6.322,0.497 C6.166,0.497 6.020,0.557 5.911,0.667 L5.563,1.015 C5.453,1.124 5.393,1.270 5.393,1.426 C5.393,1.583 5.453,1.721 5.563,1.830 L7.826,4.089 L0.689,4.089 C0.368,4.089 0.099,4.365 0.099,4.686 L0.099,5.179 C0.099,5.500 0.376,5.755 0.697,5.755 Z"/>
</svg>