<svg 
 xmlns="http://www.w3.org/2000/svg"
 xmlns:xlink="http://www.w3.org/1999/xlink"
 width="56px" height="56px">
<path fill-rule="evenodd"  fill="rgb(1, 176, 109)"
 d="M47.904,31.625 C47.419,30.925 46.621,30.506 45.769,30.506 C44.918,30.506 44.120,30.925 43.634,31.625 L37.682,40.225 C36.550,41.858 35.951,43.775 35.951,45.765 C35.951,49.048 37.589,51.950 40.085,53.714 L34.166,53.714 L34.166,28.721 L27.025,28.721 L27.025,53.714 L23.455,53.714 L23.455,34.077 L16.314,34.077 L16.314,53.714 L12.744,53.714 L12.744,35.862 L5.603,35.862 L5.603,53.714 L2.032,53.714 L2.032,37.116 L11.851,27.306 L17.206,32.662 L32.380,17.488 L37.736,22.844 L49.340,11.240 L53.541,15.441 L55.748,-0.001 L40.306,2.206 L44.507,6.406 L37.736,13.178 L32.380,7.822 L17.206,22.996 L11.851,17.640 L2.033,27.459 L2.033,21.581 L7.388,21.581 L7.388,19.795 L2.033,19.795 L2.033,18.010 L5.603,18.010 L5.603,16.225 L2.033,16.225 L2.033,14.439 L7.388,14.439 L7.388,12.655 L2.033,12.655 L2.033,10.869 L5.603,10.869 L5.603,9.084 L2.033,9.084 L2.033,7.299 L7.388,7.299 L7.388,5.514 L2.033,5.514 L2.033,3.728 L5.603,3.728 L5.603,1.943 L2.033,1.943 L2.033,0.158 L0.247,0.158 L0.247,55.500 L45.684,55.500 L45.769,55.500 L45.854,55.500 C51.220,55.500 55.588,51.132 55.588,45.765 C55.588,43.776 54.989,41.858 53.857,40.225 L47.904,31.625 ZM11.851,20.165 L17.206,25.521 L32.380,10.346 L37.736,15.701 L47.031,6.406 L44.092,3.467 L53.643,2.103 L52.279,11.654 L49.340,8.715 L37.736,20.318 L32.380,14.963 L17.206,30.137 L11.851,24.782 L2.032,34.592 L2.032,29.983 L11.851,20.165 ZM28.810,30.506 L32.380,30.506 L32.380,53.714 L28.810,53.714 L28.810,30.506 ZM18.099,35.862 L21.669,35.862 L21.669,53.714 L18.099,53.714 L18.099,35.862 ZM7.388,37.647 L10.958,37.647 L10.958,53.714 L7.388,53.714 L7.388,37.647 ZM45.854,53.714 L45.769,53.714 L45.684,53.714 C41.302,53.714 37.736,50.148 37.736,45.765 C37.736,44.140 38.225,42.577 39.150,41.241 L45.102,32.642 C45.406,32.204 46.133,32.204 46.436,32.642 L52.389,41.241 C53.313,42.575 53.803,44.139 53.803,45.765 C53.803,50.148 50.237,53.714 45.854,53.714 L45.854,53.714 ZM43.984,43.003 L43.984,43.896 C43.984,44.388 44.384,44.788 44.877,44.788 L46.662,44.788 C48.138,44.788 49.340,45.990 49.340,47.466 L49.340,50.144 L46.662,50.144 L46.662,51.929 L44.877,51.929 L44.877,50.144 C43.400,50.144 42.199,48.943 42.199,47.466 L43.984,47.466 C43.984,47.959 44.384,48.358 44.877,48.358 L47.554,48.358 L47.554,47.466 C47.554,46.973 47.155,46.574 46.662,46.574 L44.877,46.574 C43.400,46.574 42.199,45.372 42.199,43.896 L42.199,41.218 L44.877,41.218 L44.877,39.433 L46.662,39.433 L46.662,41.218 C48.138,41.218 49.340,42.419 49.340,43.896 L47.554,43.896 C47.554,43.403 47.155,43.003 46.662,43.003 L43.984,43.003 Z"/>
</svg>