<svg 
 xmlns="http://www.w3.org/2000/svg"
 xmlns:xlink="http://www.w3.org/1999/xlink"
 width="56px" height="57px">
<path fill-rule="evenodd"  fill="rgb(1, 176, 109)"
 d="M55.357,32.179 L52.304,35.232 L55.357,38.286 C55.374,38.303 55.390,38.320 55.405,38.338 C55.738,38.727 55.693,39.312 55.304,39.645 L35.834,56.336 C35.667,56.481 35.453,56.560 35.232,56.559 L29.669,56.559 C29.559,56.559 29.451,56.540 29.348,56.502 L11.887,50.068 L-0.000,50.068 L-0.000,48.214 L12.053,48.214 C12.162,48.214 12.271,48.234 12.374,48.272 L29.835,54.705 L34.889,54.705 L53.342,38.888 L50.900,36.447 L34.843,48.036 C34.573,48.231 34.219,48.267 33.916,48.129 L21.863,42.565 C21.535,42.414 21.324,42.085 21.324,41.724 C21.324,41.211 21.739,40.796 22.252,40.796 L32.450,40.796 L32.450,37.087 L18.733,37.087 L12.418,39.794 C12.303,39.844 12.179,39.869 12.053,39.868 L-0.000,39.868 L-0.000,38.014 L10.742,38.014 L3.980,31.252 C3.618,30.890 3.618,30.303 3.980,29.941 L16.033,17.886 C16.395,17.524 16.982,17.524 17.344,17.886 L30.132,30.676 L41.993,18.813 C42.355,18.451 42.942,18.451 43.304,18.813 L55.357,30.868 C55.719,31.230 55.719,31.817 55.357,32.179 ZM40.861,41.404 L41.804,40.724 C41.469,40.946 41.114,41.134 40.742,41.284 L40.861,41.404 ZM42.647,35.679 C42.643,33.380 40.776,31.519 38.477,31.523 C36.467,31.516 34.743,32.956 34.392,34.936 L39.237,39.781 C41.215,39.418 42.651,37.691 42.647,35.679 ZM26.473,42.651 L34.202,46.218 L39.339,42.506 L34.304,37.471 L34.304,41.724 C34.304,42.235 33.889,42.651 33.377,42.651 L26.473,42.651 ZM18.178,35.307 C18.293,35.258 18.417,35.232 18.543,35.232 L26.487,35.232 C25.996,34.094 25.068,33.202 23.911,32.756 C21.536,31.841 18.868,33.025 17.952,35.400 L18.178,35.307 ZM16.689,19.853 L5.947,30.596 L12.913,37.564 L15.809,36.323 C16.213,33.067 18.971,30.616 22.252,30.596 C25.124,30.588 27.656,32.477 28.468,35.232 L32.066,35.232 L16.689,19.853 ZM42.649,20.780 L31.443,31.987 L32.887,33.432 C33.276,32.478 33.904,31.640 34.710,30.998 C37.312,28.923 41.104,29.352 43.178,31.955 C45.253,34.558 44.824,38.351 42.221,40.425 L50.391,34.523 L53.391,31.523 L42.649,20.780 ZM40.866,17.256 C41.433,15.901 41.724,14.447 41.722,12.978 L43.576,12.978 C43.579,14.693 43.240,16.391 42.577,17.972 L40.866,17.256 ZM30.596,25.960 L30.596,24.105 C32.064,24.108 33.518,23.817 34.872,23.249 L35.589,24.961 C34.008,25.623 32.310,25.963 30.596,25.960 ZM30.596,22.250 C25.475,22.250 21.324,18.100 21.324,12.978 C21.324,7.856 25.475,3.705 30.596,3.705 C35.716,3.705 39.867,7.857 39.867,12.978 C39.862,18.097 35.714,22.245 30.596,22.250 ZM30.596,5.560 C26.499,5.560 23.179,8.881 23.179,12.978 C23.179,17.075 26.499,20.396 30.596,20.396 C34.690,20.392 38.008,17.073 38.013,12.978 C38.013,8.881 34.692,5.560 30.596,5.560 ZM32.636,12.682 C33.596,12.966 34.268,13.832 34.304,14.833 C34.222,16.397 33.067,17.697 31.523,17.963 L31.523,18.542 L29.669,18.542 L29.669,17.963 C28.124,17.697 26.970,16.397 26.887,14.833 L28.742,14.833 C28.790,15.377 29.153,15.842 29.669,16.022 L29.669,13.645 L28.556,13.274 C27.596,12.990 26.924,12.124 26.887,11.123 C26.970,9.558 28.124,8.259 29.669,7.993 L29.669,7.414 L31.523,7.414 L31.523,7.993 C33.067,8.259 34.222,9.558 34.304,11.123 L32.450,11.123 C32.402,10.578 32.039,10.112 31.523,9.932 L31.523,12.311 L32.636,12.682 ZM31.523,16.024 C32.039,15.844 32.402,15.378 32.450,14.833 C32.450,14.681 32.286,14.519 32.051,14.440 L31.523,14.262 L31.523,16.024 ZM29.669,9.932 C29.152,10.112 28.789,10.578 28.742,11.123 C28.742,11.276 28.906,11.437 29.140,11.516 L29.669,11.694 L29.669,9.932 ZM24.606,3.605 L23.605,2.044 C27.865,-0.685 33.324,-0.685 37.584,2.044 L36.582,3.605 C32.920,1.311 28.269,1.311 24.606,3.605 ZM17.616,12.978 L19.470,12.978 C19.468,14.448 19.759,15.903 20.327,17.259 L18.615,17.975 C17.953,16.393 17.613,14.694 17.616,12.978 Z"/>
</svg>