<svg 
 xmlns="http://www.w3.org/2000/svg"
 xmlns:xlink="http://www.w3.org/1999/xlink"
 width="56px" height="56px">
<path fill-rule="evenodd"  fill="rgb(1, 176, 109)"
 d="M55.097,55.999 L0.903,55.999 C0.405,55.999 -0.000,55.594 -0.000,55.096 L-0.000,51.483 C-0.000,50.984 0.405,50.580 0.903,50.580 L1.912,50.580 L5.055,25.431 C4.632,24.516 4.286,23.564 4.049,22.580 L0.903,22.580 C0.405,22.580 -0.000,22.175 -0.000,21.677 L-0.000,16.257 C-0.000,15.759 0.405,15.354 0.903,15.354 L4.049,15.354 C4.423,13.797 5.030,12.327 5.860,10.969 L3.639,8.748 C3.469,8.579 3.374,8.349 3.374,8.109 C3.374,7.870 3.470,7.639 3.639,7.471 L7.471,3.638 C7.640,3.469 7.871,3.374 8.110,3.374 C8.349,3.374 8.579,3.469 8.749,3.638 L10.970,5.860 C12.328,5.029 13.798,4.422 15.355,4.048 L15.355,0.902 C15.355,0.404 15.759,-0.001 16.258,-0.001 L21.677,-0.001 C22.176,-0.001 22.581,0.404 22.581,0.902 L22.581,4.048 C24.138,4.422 25.607,5.029 26.966,5.859 L29.187,3.637 C29.525,3.299 30.125,3.299 30.464,3.637 L34.296,7.470 C34.466,7.639 34.561,7.869 34.561,8.108 C34.561,8.348 34.466,8.577 34.296,8.747 L32.075,10.968 C32.906,12.326 33.512,13.796 33.886,15.353 L37.032,15.353 C37.531,15.353 37.935,15.758 37.935,16.256 L37.935,21.676 C37.935,22.175 37.531,22.579 37.032,22.579 L33.886,22.579 C33.513,24.136 32.906,25.606 32.075,26.964 L34.296,29.185 C34.466,29.354 34.561,29.584 34.561,29.824 C34.561,30.063 34.466,30.292 34.296,30.462 L30.464,34.294 C30.295,34.464 30.065,34.559 29.825,34.559 C29.586,34.559 29.357,34.464 29.187,34.294 L26.966,32.074 C25.757,32.813 24.452,33.364 23.080,33.744 L24.055,41.547 L27.097,41.547 L27.097,37.031 C27.097,36.533 27.501,36.128 28.000,36.128 L36.129,36.128 L36.129,24.386 C36.129,23.888 36.534,23.483 37.032,23.483 L39.742,23.483 L39.742,17.161 C39.742,16.662 40.146,16.257 40.645,16.257 L51.484,16.257 C51.982,16.257 52.387,16.662 52.387,17.161 L52.387,23.483 L55.097,23.483 C55.595,23.483 56.000,23.888 56.000,24.386 L56.000,42.451 L56.000,51.483 L56.000,55.096 C56.000,55.594 55.595,55.999 55.097,55.999 ZM3.733,50.580 L19.871,50.580 L19.871,48.773 L3.959,48.773 L3.733,50.580 ZM4.184,46.967 L19.871,46.967 L19.871,42.451 C19.871,41.952 20.275,41.547 20.774,41.547 L22.235,41.547 L20.428,27.095 L6.668,27.095 L4.184,46.967 ZM9.413,21.677 L20.774,21.677 C21.229,21.677 21.614,22.015 21.670,22.468 L22.398,28.289 C26.273,26.868 28.903,23.174 28.903,18.967 C28.903,13.489 24.446,9.031 18.968,9.031 C13.490,9.031 9.032,13.489 9.032,18.967 C9.032,19.891 9.165,20.799 9.413,21.677 ZM7.120,23.483 L6.894,25.290 L20.202,25.290 L19.977,23.483 L7.120,23.483 ZM26.580,30.173 C26.940,29.930 27.421,29.976 27.727,30.282 L29.825,32.380 L32.381,29.825 L30.282,27.726 C29.975,27.419 29.929,26.938 30.174,26.579 C31.216,25.048 31.921,23.342 32.269,21.508 C32.350,21.082 32.723,20.773 33.156,20.773 L36.129,20.773 L36.129,17.161 L33.156,17.161 C32.723,17.161 32.350,16.852 32.269,16.426 C31.921,14.592 31.216,12.885 30.174,11.355 C29.930,10.996 29.975,10.513 30.282,10.207 L32.381,8.109 L29.825,5.554 L27.727,7.652 C27.421,7.959 26.939,8.005 26.580,7.761 C25.049,6.718 23.343,6.014 21.508,5.665 C21.083,5.585 20.774,5.212 20.774,4.778 L20.774,1.806 L17.161,1.806 L17.161,4.778 C17.161,5.212 16.852,5.585 16.427,5.665 C14.592,6.014 12.886,6.718 11.355,7.761 C10.997,8.005 10.515,7.959 10.208,7.652 L8.110,5.554 L5.555,8.109 L7.653,10.207 C7.960,10.514 8.006,10.996 7.761,11.355 C6.719,12.885 6.014,14.592 5.666,16.426 C5.585,16.852 5.212,17.161 4.779,17.161 L1.806,17.161 L1.806,20.773 L4.779,20.773 C5.212,20.773 5.585,21.082 5.666,21.508 C5.690,21.635 5.723,21.761 5.751,21.887 C5.908,21.757 6.106,21.677 6.322,21.677 L7.548,21.677 C7.340,20.793 7.226,19.886 7.226,18.967 C7.226,12.493 12.493,7.225 18.968,7.225 C25.442,7.225 30.710,12.493 30.710,18.967 C30.710,24.080 27.423,28.553 22.627,30.120 L22.853,31.931 C24.181,31.537 25.434,30.954 26.580,30.173 ZM36.129,37.935 L28.903,37.935 L28.903,41.547 L36.129,41.547 L36.129,37.935 ZM43.355,18.064 L41.548,18.064 L41.548,23.483 L43.355,23.483 L43.355,18.064 ZM46.968,18.064 L45.161,18.064 L45.161,23.483 L46.968,23.483 L46.968,18.064 ZM50.581,18.064 L48.774,18.064 L48.774,23.483 L50.581,23.483 L50.581,18.064 ZM54.193,25.290 L37.935,25.290 L37.935,41.547 L54.193,41.547 L54.193,25.290 ZM54.193,43.354 L21.677,43.354 L21.677,45.161 L54.193,45.161 L54.193,43.354 ZM54.193,46.967 L21.677,46.967 L21.677,50.580 L54.193,50.580 L54.193,46.967 ZM54.193,52.386 L1.806,52.386 L1.806,54.193 L54.193,54.193 L54.193,52.386 ZM40.645,27.095 L44.258,27.095 C44.757,27.095 45.161,27.501 45.161,27.999 L45.161,31.612 C45.161,32.111 44.757,32.515 44.258,32.515 L40.645,32.515 C40.146,32.515 39.742,32.111 39.742,31.612 L39.742,27.999 C39.742,27.501 40.146,27.095 40.645,27.095 ZM41.548,30.709 L43.355,30.709 L43.355,28.903 L41.548,28.903 L41.548,30.709 ZM40.645,34.322 L44.258,34.322 C44.757,34.322 45.161,34.726 45.161,35.225 L45.161,38.838 C45.161,39.336 44.757,39.741 44.258,39.741 L40.645,39.741 C40.146,39.741 39.742,39.336 39.742,38.838 L39.742,35.225 C39.742,34.726 40.146,34.322 40.645,34.322 ZM41.548,37.935 L43.355,37.935 L43.355,36.128 L41.548,36.128 L41.548,37.935 ZM47.871,27.095 L51.484,27.095 C51.982,27.095 52.387,27.501 52.387,27.999 L52.387,31.612 C52.387,32.111 51.982,32.515 51.484,32.515 L47.871,32.515 C47.372,32.515 46.968,32.111 46.968,31.612 L46.968,27.999 C46.968,27.501 47.372,27.095 47.871,27.095 ZM48.774,30.709 L50.581,30.709 L50.581,28.903 L48.774,28.903 L48.774,30.709 ZM47.871,34.322 L51.484,34.322 C51.982,34.322 52.387,34.726 52.387,35.225 L52.387,38.838 C52.387,39.336 51.982,39.741 51.484,39.741 L47.871,39.741 C47.372,39.741 46.968,39.336 46.968,38.838 L46.968,35.225 C46.968,34.726 47.372,34.322 47.871,34.322 ZM48.774,37.935 L50.581,37.935 L50.581,36.128 L48.774,36.128 L48.774,37.935 ZM51.484,10.838 C51.201,10.838 50.916,10.809 50.631,10.752 C49.703,12.063 48.160,12.824 46.487,12.614 C45.857,13.726 44.663,14.451 43.355,14.451 C41.362,14.451 39.742,12.831 39.742,10.838 C39.742,9.131 40.930,7.697 42.524,7.322 C42.905,5.214 44.753,3.612 46.968,3.612 C47.250,3.612 47.536,3.641 47.820,3.699 C48.659,2.515 50.004,1.806 51.484,1.806 C53.974,1.806 56.000,3.832 56.000,6.322 C56.000,8.812 53.974,10.838 51.484,10.838 ZM51.484,3.612 C50.444,3.612 49.512,4.202 49.053,5.151 C48.850,5.572 48.359,5.769 47.920,5.603 C47.598,5.480 47.277,5.419 46.968,5.419 C45.474,5.419 44.258,6.634 44.258,8.128 C44.258,8.627 43.853,9.031 43.355,9.031 C42.358,9.031 41.548,9.842 41.548,10.838 C41.548,11.834 42.358,12.644 43.355,12.644 C44.150,12.644 44.860,12.104 45.081,11.330 C45.147,11.098 45.302,10.903 45.513,10.786 C45.725,10.670 45.974,10.644 46.205,10.712 C46.497,10.798 46.740,10.838 46.968,10.838 C48.007,10.838 48.938,10.248 49.398,9.299 C49.601,8.878 50.094,8.681 50.531,8.847 C52.410,9.559 54.193,8.126 54.193,6.322 C54.193,4.828 52.978,3.612 51.484,3.612 Z"/>
</svg>