<svg 
 xmlns="http://www.w3.org/2000/svg"
 xmlns:xlink="http://www.w3.org/1999/xlink"
 width="59px" height="58px">
<path fill-rule="evenodd"  fill="rgb(1, 176, 109)"
 d="M54.132,41.115 L57.272,52.629 L52.663,51.475 L49.174,57.290 L46.045,47.901 C44.827,48.516 43.551,49.037 42.214,49.430 L41.951,49.508 L41.687,49.429 C40.350,49.036 39.074,48.514 37.856,47.899 L34.727,57.288 L31.238,51.475 L26.629,52.627 L29.769,41.114 C27.392,37.939 25.840,34.154 25.340,30.118 L24.910,29.853 C23.923,30.400 22.881,30.832 21.799,31.142 L21.221,33.601 L14.141,33.601 L13.562,31.142 C12.481,30.832 11.439,30.400 10.452,29.853 L8.303,31.184 L3.296,26.178 L4.628,24.028 C4.080,23.042 3.648,22.000 3.338,20.919 L0.879,20.339 L0.879,13.261 L3.338,12.683 C3.648,11.600 4.080,10.558 4.628,9.572 L3.296,7.422 L8.303,2.417 L10.452,3.748 C11.439,3.201 12.481,2.768 13.562,2.459 L14.141,-0.001 L21.221,-0.001 L21.799,2.459 C22.881,2.768 23.923,3.201 24.910,3.748 L27.059,2.417 L32.065,7.422 L30.734,9.572 C31.281,10.558 31.713,11.600 32.023,12.683 L34.483,13.261 L34.483,15.306 C36.935,14.733 39.275,13.728 41.401,12.310 L41.915,11.968 L42.463,12.286 C45.989,14.637 50.050,15.867 54.245,15.867 L58.753,15.867 L58.753,27.328 C58.753,32.404 57.051,37.215 54.132,41.115 ZM49.662,52.848 L51.774,49.329 L54.632,50.043 L52.673,42.858 C51.224,44.445 49.555,45.834 47.703,46.973 L49.662,52.848 ZM29.269,50.043 L32.127,49.329 L34.239,52.848 L36.198,46.973 C34.346,45.834 32.677,44.445 31.228,42.858 L29.269,50.043 ZM26.968,15.867 C26.498,11.157 22.512,7.466 17.681,7.466 C12.534,7.466 8.346,11.654 8.346,16.800 C8.346,21.947 12.534,26.134 17.681,26.134 C20.622,26.134 23.387,24.731 25.148,22.381 L25.148,15.867 L26.968,15.867 ZM32.616,14.739 L30.493,14.239 L30.357,13.682 C30.043,12.398 29.535,11.174 28.848,10.040 L28.551,9.551 L29.698,7.698 L26.783,4.783 L24.929,5.930 L24.441,5.633 C23.307,4.946 22.082,4.437 20.798,4.124 L20.241,3.988 L19.742,1.866 L15.620,1.866 L15.119,3.988 L14.563,4.124 C13.279,4.437 12.054,4.946 10.920,5.633 L10.432,5.930 L8.578,4.783 L5.663,7.698 L6.810,9.553 L6.513,10.040 C5.826,11.175 5.317,12.399 5.004,13.684 L4.867,14.240 L2.746,14.739 L2.746,18.861 L4.868,19.361 L5.005,19.917 C5.318,21.202 5.827,22.427 6.514,23.561 L6.811,24.049 L5.664,25.903 L8.579,28.817 L10.433,27.670 L10.921,27.967 C12.055,28.655 13.280,29.163 14.564,29.476 L15.120,29.612 L15.620,31.734 L19.742,31.734 L20.242,29.612 L20.799,29.476 C22.083,29.163 23.308,28.655 24.442,27.967 L24.930,27.670 L25.169,27.819 C25.165,27.656 25.148,27.494 25.148,27.330 L25.148,25.137 C23.114,26.956 20.463,28.001 17.681,28.001 C11.504,28.001 6.480,22.976 6.480,16.800 C6.480,10.624 11.504,5.600 17.681,5.600 C23.543,5.600 28.358,10.127 28.835,15.867 L29.656,15.867 C30.653,15.867 31.641,15.792 32.616,15.656 L32.616,14.739 ZM56.886,17.734 L54.245,17.734 C49.874,17.734 45.635,16.507 41.950,14.179 C38.247,16.512 34.018,17.734 29.656,17.734 L27.015,17.734 L27.015,27.328 C27.015,36.564 33.143,44.844 41.950,47.561 C50.759,44.844 56.886,36.564 56.886,27.328 L56.886,17.734 ZM42.269,45.486 L41.950,45.601 L41.632,45.486 C34.006,42.725 28.882,35.428 28.882,27.328 L28.882,19.605 L29.810,19.599 C33.888,19.575 37.933,18.538 41.506,16.602 L41.952,16.360 L42.397,16.602 C45.972,18.538 50.015,19.575 54.091,19.599 L55.019,19.605 L55.019,27.328 C55.019,35.428 49.895,42.725 42.269,45.486 ZM53.152,21.444 C49.254,21.284 45.410,20.267 41.952,18.479 C38.494,20.267 34.649,21.284 30.749,21.444 L30.749,27.328 C30.749,34.531 35.236,41.032 41.950,43.612 C48.665,41.033 53.152,34.532 53.152,27.328 L53.152,21.444 ZM34.097,32.668 L38.217,28.548 L40.084,30.415 L47.551,22.947 L51.671,27.067 L40.084,38.654 L34.097,32.668 ZM47.551,25.587 L40.084,33.054 L38.217,31.187 L36.736,32.668 L40.084,36.015 L49.032,27.067 L47.551,25.587 ZM37.947,22.113 C38.533,21.936 39.127,21.735 39.712,21.515 L40.367,23.264 C39.744,23.497 39.111,23.711 38.486,23.899 L37.947,22.113 ZM34.483,27.328 C34.483,27.548 34.489,27.764 34.500,27.982 L32.635,28.077 C32.622,27.829 32.616,27.580 32.616,27.330 L32.616,23.194 L33.429,23.087 C34.328,22.968 35.240,22.804 36.140,22.595 L36.561,24.414 C35.871,24.572 35.176,24.709 34.483,24.820 L34.483,27.328 ZM17.681,22.400 C14.592,22.400 12.080,19.889 12.080,16.800 C12.080,13.712 14.592,11.200 17.681,11.200 C20.770,11.200 23.282,13.712 23.282,16.800 C23.282,19.889 20.770,22.400 17.681,22.400 ZM17.681,13.066 C15.622,13.066 13.947,14.741 13.947,16.800 C13.947,18.859 15.622,20.534 17.681,20.534 C19.740,20.534 21.415,18.859 21.415,16.800 C21.415,14.741 19.740,13.066 17.681,13.066 Z"/>
</svg>