<svg width="42" height="42" viewBox="0 0 42 42" fill="none" xmlns="http://www.w3.org/2000/svg">
<circle cx="21" cy="21" r="21" fill="white"/>
<path d="M27 13H15C13.3 13 12 14.3 12 16V28C12 29.7 13.3 31 15 31H27C28.7 31 30 29.7 30 28V16C30 14.3 28.7 13 27 13ZM21 19C22.7 19 24 20.3 24 22C24 23.7 22.7 25 21 25C19.3 25 18 23.7 18 22C18 20.3 19.3 19 21 19ZM24.8 17C24.8 16.3 25.4 15.8 26 15.8C26.6 15.8 27.2 16.4 27.2 17C27.2 17.6 26.7 18.2 26 18.2C25.3 18.2 24.8 17.7 24.8 17ZM27 29H15C14.4 29 14 28.6 14 28V22H16C16 24.8 18.2 27 21 27C23.8 27 26 24.8 26 22H28V28C28 28.6 27.6 29 27 29Z" fill="url(#paint0_linear)"/>
<defs>
<linearGradient id="paint0_linear" x1="16" y1="31" x2="30" y2="13" gradientUnits="userSpaceOnUse">
<stop stop-color="#AD29DB"/>
<stop offset="1" stop-color="#FF9C07"/>
</linearGradient>
</defs>
</svg>
