<svg width="286" height="156" viewBox="0 0 286 156" fill="none" xmlns="http://www.w3.org/2000/svg">
<g clip-path="url(#clip0)">
<path d="M129.653 85.8H122.027L139.187 52.3326L156.71 85.8H149.083L139.368 66.8442L129.653 85.8Z" fill="url(#paint0_linear)"/>
<path d="M117.941 52.8767L89.8857 85.8H81.1695L102.234 59.407H82.0775V52.786H117.941V52.8767Z" fill="url(#paint1_linear)"/>
<path d="M33.7752 69.293C33.7752 72.5581 32.8673 75.7326 30.9606 78.4535L25.8762 73.6465C29.1448 67.3884 24.5143 59.407 16.8876 59.407C10.8952 59.407 6.80952 64.3046 6.80952 69.3837C6.80952 74.5535 10.8044 79.2698 16.8876 79.2698C18.4311 79.2698 19.793 78.9977 21.1549 78.3628L26.0578 83.2605C23.334 84.9837 20.3378 85.8 16.8876 85.8C12.0756 85.8 8.08063 84.0767 4.90286 80.993C1.54349 77.7279 0 73.8279 0 69.4744V69.293C0.0907936 64.8488 1.4527 61.0395 4.90286 57.6837C8.17143 54.6 12.0756 52.8767 16.8876 52.8767C21.7905 52.8767 25.6946 54.6 28.8724 57.6837C32.2317 60.9488 33.7752 64.9395 33.7752 69.293Z" fill="url(#paint2_linear)"/>
<path d="M21.1549 78.3628L12.9835 70.3814L17.7956 65.7558L25.8762 73.6465L21.1549 78.3628Z" fill="url(#paint3_linear)"/>
<path d="M66.1886 72.014V71.3791H59.2883V72.014C59.2883 75.7326 56.2013 79.2698 51.934 79.2698C47.4851 79.2698 44.5797 75.8233 44.5797 72.014V52.8767H37.7702V72.014C37.7702 75.7326 39.0413 78.9977 41.8559 81.8093C44.5797 84.4395 47.8483 85.8907 51.934 85.8907C56.0197 85.8907 59.379 84.4395 62.0121 81.8093C64.9175 78.9977 66.1886 75.7326 66.1886 72.014Z" fill="url(#paint4_linear)"/>
<path d="M70.2743 52.8767H77.0838V85.8907H70.2743V52.8767Z" fill="url(#paint5_linear)"/>
<path d="M180.135 85.8L170.057 68.6581H176.049C178.773 68.6581 180.679 66.3907 180.679 63.9419C180.679 61.5837 178.682 59.407 176.049 59.407H160.705V52.786H175.958C182.949 52.786 187.398 58.4093 187.398 63.9419C187.398 67.9325 185.128 72.0139 181.043 74.0093L187.852 85.7093H180.135V85.8Z" fill="url(#paint6_linear)"/>
<path d="M160.705 62.5814H167.514V85.8907H160.705V62.5814Z" fill="url(#paint7_linear)"/>
<path d="M214.999 59.4977V52.8767H192.029V59.4977H214.999Z" fill="url(#paint8_linear)"/>
<path d="M214.999 72.6488V66.1186H192.029V72.6488H214.999Z" fill="url(#paint9_linear)"/>
<path d="M214.999 85.8907V79.2698H192.029V85.8907H214.999Z" fill="url(#paint10_linear)"/>
<path d="M219.085 53.0581L225.895 59.0442V85.8H219.085V53.0581Z" fill="url(#paint11_linear)"/>
<path d="M247.322 85.8L232.25 72.5581V62.5814L240.512 69.8372V53.0581H247.322V85.8Z" fill="url(#paint12_linear)"/>
<path d="M259.034 85.8H251.408L268.568 52.4233L286.091 85.8907H278.464L268.749 66.9349L259.034 85.8Z" fill="url(#paint13_linear)"/>
<path d="M49.9365 150.83V89.7L51.7524 89.7907H52.2064V150.83C52.2064 152.372 52.9327 153.098 54.4762 153.098H231.524C233.067 153.098 233.794 152.372 233.794 150.83V89.7907H236.064V150.83C236.064 152.1 235.61 153.188 234.702 154.005C233.794 154.912 232.704 155.365 231.524 155.365H54.4762C53.2051 155.365 52.1156 154.912 51.2984 154.005C50.3905 153.188 49.9365 152.1 49.9365 150.83ZM49.9365 4.53488C49.9365 3.26512 50.3905 2.17674 51.2984 1.36047C52.2064 0.453488 53.2959 0 54.4762 0H231.524C232.795 0 233.884 0.453488 234.702 1.36047C235.61 2.26744 236.064 3.35581 236.064 4.53488V49.0674H235.519H233.794V4.53488C233.794 2.99302 233.067 2.26744 231.524 2.26744H54.4762C52.9327 2.26744 52.2064 2.99302 52.2064 4.53488V48.7953H49.9365V4.53488Z" fill="url(#paint14_linear)"/>
<path d="M121.573 105.209H120.12C119.666 105.209 119.575 105.481 119.575 105.663L118.123 110.379L116.851 105.663C116.761 105.481 116.67 105.209 116.307 105.209H115.399C115.036 105.209 114.945 105.481 114.945 105.663L113.583 110.379L112.221 105.663C112.13 105.481 112.039 105.209 111.676 105.209H110.133C109.86 105.209 109.86 105.481 109.86 105.663L112.403 114.098C112.403 114.098 112.493 114.37 112.766 114.37H113.946C114.309 114.37 114.4 114.007 114.4 114.007L115.762 109.563L117.124 114.007C117.124 114.007 117.215 114.37 117.578 114.37H118.758C119.031 114.37 119.121 114.098 119.121 114.098L121.664 105.663C121.845 105.481 121.754 105.209 121.573 105.209Z" fill="url(#paint15_linear)"/>
<path d="M149.537 113.916L146.45 105.663C146.359 105.391 146.269 105.209 145.905 105.209H144.544C144.271 105.209 144.09 105.391 143.999 105.663L140.912 113.916C140.821 114.098 140.821 114.279 141.184 114.279H142.637C142.909 114.279 143.091 114.188 143.182 113.826L143.545 112.737H146.904L147.267 113.826C147.358 114.188 147.449 114.279 147.812 114.279H149.265C149.628 114.37 149.628 114.098 149.537 113.916ZM144.271 110.923L145.27 107.84L146.269 110.923H144.271Z" fill="url(#paint16_linear)"/>
<path d="M176.412 105.209H175.05C174.596 105.209 174.505 105.481 174.415 105.663L172.508 109.109L170.692 105.663C170.601 105.481 170.51 105.209 170.057 105.209H168.695C168.331 105.209 168.331 105.391 168.331 105.572V113.916C168.331 114.279 168.513 114.279 168.695 114.279H170.057C170.329 114.279 170.42 114.188 170.42 113.916V109.2L171.782 111.649C171.872 111.74 171.963 111.921 172.145 111.921H172.871C173.053 111.921 173.234 111.74 173.234 111.649L174.596 109.2V113.916C174.596 114.279 174.778 114.279 174.959 114.279H176.321C176.594 114.279 176.684 114.188 176.684 113.916V105.572C176.866 105.391 176.775 105.209 176.412 105.209Z" fill="url(#paint17_linear)"/>
</g>
<defs>
<linearGradient id="paint0_linear" x1="9.53333" y1="68.9303" x2="279.19" y2="68.9303" gradientUnits="userSpaceOnUse">
<stop stop-color="#7E4294"/>
<stop offset="0.510417" stop-color="#AB3363"/>
<stop offset="1" stop-color="#D92533"/>
</linearGradient>
<linearGradient id="paint1_linear" x1="9.53333" y1="68.9303" x2="279.19" y2="68.9303" gradientUnits="userSpaceOnUse">
<stop stop-color="#7E4294"/>
<stop offset="0.510417" stop-color="#AB3363"/>
<stop offset="1" stop-color="#D92533"/>
</linearGradient>
<linearGradient id="paint2_linear" x1="9.53333" y1="68.9303" x2="279.19" y2="68.9303" gradientUnits="userSpaceOnUse">
<stop stop-color="#7E4294"/>
<stop offset="0.510417" stop-color="#AB3363"/>
<stop offset="1" stop-color="#D92533"/>
</linearGradient>
<linearGradient id="paint3_linear" x1="9.53333" y1="68.9303" x2="279.19" y2="68.9303" gradientUnits="userSpaceOnUse">
<stop stop-color="#7E4294"/>
<stop offset="0.510417" stop-color="#AB3363"/>
<stop offset="1" stop-color="#D92533"/>
</linearGradient>
<linearGradient id="paint4_linear" x1="9.53333" y1="68.9303" x2="279.19" y2="68.9303" gradientUnits="userSpaceOnUse">
<stop stop-color="#7E4294"/>
<stop offset="0.510417" stop-color="#AB3363"/>
<stop offset="1" stop-color="#D92533"/>
</linearGradient>
<linearGradient id="paint5_linear" x1="9.53333" y1="68.9303" x2="279.19" y2="68.9303" gradientUnits="userSpaceOnUse">
<stop stop-color="#7E4294"/>
<stop offset="0.510417" stop-color="#AB3363"/>
<stop offset="1" stop-color="#D92533"/>
</linearGradient>
<linearGradient id="paint6_linear" x1="9.53333" y1="68.9303" x2="279.19" y2="68.9303" gradientUnits="userSpaceOnUse">
<stop stop-color="#7E4294"/>
<stop offset="0.510417" stop-color="#AB3363"/>
<stop offset="1" stop-color="#D92533"/>
</linearGradient>
<linearGradient id="paint7_linear" x1="9.53333" y1="68.9303" x2="279.19" y2="68.9303" gradientUnits="userSpaceOnUse">
<stop stop-color="#7E4294"/>
<stop offset="0.510417" stop-color="#AB3363"/>
<stop offset="1" stop-color="#D92533"/>
</linearGradient>
<linearGradient id="paint8_linear" x1="9.53333" y1="68.9303" x2="279.19" y2="68.9303" gradientUnits="userSpaceOnUse">
<stop stop-color="#7E4294"/>
<stop offset="0.510417" stop-color="#AB3363"/>
<stop offset="1" stop-color="#D92533"/>
</linearGradient>
<linearGradient id="paint9_linear" x1="9.53333" y1="68.9303" x2="279.19" y2="68.9303" gradientUnits="userSpaceOnUse">
<stop stop-color="#7E4294"/>
<stop offset="0.510417" stop-color="#AB3363"/>
<stop offset="1" stop-color="#D92533"/>
</linearGradient>
<linearGradient id="paint10_linear" x1="9.53333" y1="68.9303" x2="279.19" y2="68.9303" gradientUnits="userSpaceOnUse">
<stop stop-color="#7E4294"/>
<stop offset="0.510417" stop-color="#AB3363"/>
<stop offset="1" stop-color="#D92533"/>
</linearGradient>
<linearGradient id="paint11_linear" x1="9.53333" y1="68.9303" x2="279.19" y2="68.9303" gradientUnits="userSpaceOnUse">
<stop stop-color="#7E4294"/>
<stop offset="0.510417" stop-color="#AB3363"/>
<stop offset="1" stop-color="#D92533"/>
</linearGradient>
<linearGradient id="paint12_linear" x1="9.53333" y1="68.9303" x2="279.19" y2="68.9303" gradientUnits="userSpaceOnUse">
<stop stop-color="#7E4294"/>
<stop offset="0.510417" stop-color="#AB3363"/>
<stop offset="1" stop-color="#D92533"/>
</linearGradient>
<linearGradient id="paint13_linear" x1="9.53333" y1="68.9303" x2="279.19" y2="68.9303" gradientUnits="userSpaceOnUse">
<stop stop-color="#7E4294"/>
<stop offset="0.510417" stop-color="#AB3363"/>
<stop offset="1" stop-color="#D92533"/>
</linearGradient>
<linearGradient id="paint14_linear" x1="49.9365" y1="78" x2="226.53" y2="78" gradientUnits="userSpaceOnUse">
<stop stop-color="#8C3F85"/>
<stop offset="1" stop-color="#CB2942"/>
</linearGradient>
<linearGradient id="paint15_linear" x1="85.3461" y1="114.279" x2="202.016" y2="114.279" gradientUnits="userSpaceOnUse">
<stop stop-color="#A23A71"/>
<stop offset="1" stop-color="#C25475"/>
</linearGradient>
<linearGradient id="paint16_linear" x1="85.3461" y1="114.279" x2="202.016" y2="114.279" gradientUnits="userSpaceOnUse">
<stop stop-color="#A23A71"/>
<stop offset="1" stop-color="#C25475"/>
</linearGradient>
<linearGradient id="paint17_linear" x1="85.3461" y1="114.279" x2="202.016" y2="114.279" gradientUnits="userSpaceOnUse">
<stop stop-color="#A23A71"/>
<stop offset="1" stop-color="#C25475"/>
</linearGradient>
<clipPath id="clip0">
<rect width="286" height="156" fill="white"/>
</clipPath>
</defs>
</svg>
