<svg width="20" height="22" viewBox="0 0 20 22" fill="none" xmlns="http://www.w3.org/2000/svg">
<path d="M0.486984 0.141178C-0.0186344 0.498748 9.22212e-05 3.14445e-05 9.22212e-05 10.953C9.22212e-05 21.8495 -0.0186344 21.5107 0.47762 21.8589C0.992602 22.2165 0.861515 22.2823 10.2529 17.0411C15.1499 14.3123 19.2885 11.9975 19.4477 11.894C20.0563 11.5364 20.178 10.7836 19.7098 10.3225C19.5881 10.2002 15.4121 7.82894 10.4214 5.04366C0.880242 -0.272851 0.992602 -0.216393 0.486984 0.141178ZM9.54129 6.85974C13.5581 9.10867 16.854 10.9718 16.854 11C16.854 11.0471 2.41582 19.1583 2.14429 19.2618C2.09747 19.2806 2.06002 15.5638 2.06002 11C2.06002 6.37984 2.09747 2.71945 2.14429 2.73827C2.18174 2.74768 5.51507 4.61081 9.54129 6.85974Z" fill="#A57A52"/>
</svg>
