<svg width="21" height="21" viewBox="0 0 21 21" fill="none" xmlns="http://www.w3.org/2000/svg">
<path d="M17.9283 3.0716C22.0238 7.16707 22.0238 13.8329 17.9283 17.9284C13.8329 22.0239 7.16705 22.0239 3.07159 17.9284C-1.02386 13.8329 -1.02386 7.16707 3.07159 3.0716C7.16705 -1.02387 13.8329 -1.02387 17.9283 3.0716ZM3.81272 17.1873C7.5012 20.8758 13.4987 20.8758 17.1872 17.1873C20.8757 13.4988 20.8757 7.50122 17.1872 3.81273C13.4987 0.124235 7.5012 0.124235 3.81272 3.81273C0.124235 7.50122 0.128519 13.4988 3.81272 17.1873Z" fill="#C86D1C"/>
<path d="M10.4998 6.5672C10.6455 6.5672 10.774 6.62718 10.8725 6.72142C10.9668 6.81567 11.0267 6.94847 11.0267 7.09413V9.97724H13.9098C14.0555 9.97724 14.184 10.0372 14.2825 10.1315C14.3768 10.2257 14.4368 10.3585 14.4368 10.5042C14.4368 10.7955 14.2011 11.0311 13.9141 11.0268H11.031V13.9099C11.031 14.2012 10.7954 14.4368 10.5084 14.4326C10.2171 14.4326 9.98147 14.1969 9.98575 13.9099V11.0268H7.10265C6.81135 11.0268 6.57573 10.7912 6.58001 10.5042C6.58001 10.2129 6.81563 9.97724 7.10265 9.98152H9.98575V7.09841C9.9729 6.80282 10.2085 6.5672 10.4998 6.5672Z" fill="#C86D1C"/>
</svg>
