<svg width="42" height="42" viewBox="0 0 42 42" fill="none" xmlns="http://www.w3.org/2000/svg">
<circle cx="21" cy="21" r="21" fill="white"/>
<path d="M9 16.7885C9 16.1346 9.43939 15.7821 10.3182 15.7308L13.7045 15.75C13.9318 15.75 14.0833 15.8462 14.1591 16.0385C14.5076 17 14.8977 17.8301 15.3295 18.5288C15.7614 19.2276 16.3258 20.0321 17.0227 20.9423C17.0833 21.0577 17.1818 21.1154 17.3182 21.1154C17.4242 21.1154 17.5076 21.0705 17.5682 20.9808L17.6364 20.7692L17.6591 17.4423C17.6591 17.2115 17.5947 17.0577 17.4659 16.9808C17.3371 16.9038 17.0985 16.8462 16.75 16.8077C16.4773 16.7692 16.3409 16.6282 16.3409 16.3846C16.3409 16.3333 16.3485 16.2949 16.3636 16.2692C16.6818 15.4359 17.5909 15.0192 19.0909 15.0192L20.3636 15C20.9394 15 21.4167 15.1218 21.7955 15.3654C22.1742 15.609 22.3636 15.9936 22.3636 16.5192V20.8846C22.4697 20.9487 22.5682 20.9808 22.6591 20.9808C22.8864 20.9808 23.0833 20.8654 23.25 20.6346C24.9167 18.6603 25.8182 17.3397 25.9545 16.6731C25.9545 16.6603 25.9697 16.6282 26 16.5769C26.1061 16.3846 26.2803 16.2179 26.5227 16.0769C26.7652 15.9359 26.9773 15.8397 27.1591 15.7885C27.2197 15.7628 27.2879 15.75 27.3636 15.75H30.8864L31.1136 15.7692C31.4167 15.7692 31.6515 15.891 31.8182 16.1346C31.8788 16.2115 31.9205 16.2949 31.9432 16.3846C31.9659 16.4744 31.9811 16.5641 31.9886 16.6538C31.9962 16.7436 32 16.7949 32 16.8077V16.9423C31.8939 17.4679 31.625 18.0288 31.1932 18.625C30.7614 19.2212 30.2121 19.8654 29.5455 20.5577C28.8788 21.25 28.4621 21.7051 28.2955 21.9231C28.1591 22.0769 28.0909 22.2179 28.0909 22.3462C28.0909 22.4487 28.1515 22.5641 28.2727 22.6923L31.5909 26.2308C31.7727 26.4359 31.8636 26.6603 31.8636 26.9038C31.8636 27.1987 31.7273 27.4423 31.4545 27.6346C31.1818 27.8269 30.8561 27.9359 30.4773 27.9615L30.0909 27.9808H26.6364C26.6212 27.9808 26.5909 27.984 26.5455 27.9904C26.5 27.9968 26.4697 28 26.4545 28C26.1212 28 25.8106 27.8782 25.5227 27.6346C25.4167 27.5321 24.7045 26.7756 23.3864 25.3654C23.3106 25.2756 23.2045 25.1923 23.0682 25.1154C23.0076 25.3205 22.928 25.6154 22.8295 26C22.7311 26.3846 22.6591 26.6603 22.6136 26.8269L22.5455 27.1538C22.3939 27.6026 22.0758 27.8718 21.5909 27.9615L21.2727 27.9808H19.0455C17.7879 27.9808 16.5341 27.4936 15.2841 26.5192C14.0341 25.5449 12.9091 24.2853 11.9091 22.7404C10.9091 21.1955 9.97727 19.3974 9.11364 17.3462C9.03788 17.1795 9 16.9936 9 16.7885Z" fill="#204E92"/>
</svg>
