<svg width="42" height="42" viewBox="0 0 42 42" fill="none" xmlns="http://www.w3.org/2000/svg">
<circle cx="21" cy="21" r="21" fill="white"/>
<path d="M31.8 17.6C31.6 16.1 31.4 15 30.8 14.6C30.2 14.1 25 14 21 14C17 14 11.8 14.1 11.2 14.6C10.6 15 10.4 16.1 10.2 17.6C10 19.1 10 20 10 21C10 22 10 22.9 10.2 24.4C10.4 25.9 10.6 27 11.2 27.4C11.8 27.9 17 28 21 28C25 28 30.2 27.9 30.8 27.4C31.4 27 31.6 25.9 31.8 24.4C32 22.9 32 22 32 21C32 20 32 19.1 31.8 17.6ZM19 24.6V17.4L25 21L19 24.6Z" fill="#E81313"/>
</svg>
