<?xml version="1.0" standalone="no"?>
<!DOCTYPE svg PUBLIC "-//W3C//DTD SVG 1.1//EN" "http://www.w3.org/Graphics/SVG/1.1/DTD/svg11.dtd" >
<svg xmlns="http://www.w3.org/2000/svg" xmlns:xlink="http://www.w3.org/1999/xlink" version="1.1">
<metadata>
Created by FontForge 20170731 at Wed May  6 18:12:01 2020
 By Aleksey,,,
Copyright 2020 The Jost Project Authors (https://github.com/indestructible-type)
</metadata>
<defs>
<font id="Jost-LightItalic" horiz-adv-x="541" >
  <font-face 
    font-family="Jost Light"
    font-weight="300"
    font-style="italic"
    font-stretch="normal"
    units-per-em="1000"
    panose-1="0 0 0 0 0 0 0 0 0 0"
    ascent="800"
    descent="-200"
    x-height="460"
    cap-height="700"
    bbox="-172 -339 1405.85 1020"
    underline-thickness="50"
    underline-position="-175"
    slope="-12"
    unicode-range="U+000D-FF19"
  />
<missing-glyph horiz-adv-x="500" 
d="M50 -200h400v1000h-400v-1000zM100 -150v900h300v-900h-300z" />
    <glyph glyph-name=".notdef" horiz-adv-x="500" 
d="M50 -200h400v1000h-400v-1000zM100 -150v900h300v-900h-300z" />
    <glyph glyph-name="uni0000" horiz-adv-x="300" 
 />
    <glyph glyph-name="uni0000" horiz-adv-x="300" 
 />
    <glyph glyph-name="uni000D" unicode="&#xd;" horiz-adv-x="300" 
 />
    <glyph glyph-name="space" unicode=" " horiz-adv-x="300" 
 />
    <glyph glyph-name="exclam" unicode="!" horiz-adv-x="275" 
d="M198 700l-71 -499h39l97 499h-65zM79 24q0 -16 10.5 -26.5t26.5 -10.5q14 0 26 10.5t12 26.5t-12 27t-26 11q-16 0 -26.5 -11t-10.5 -27z" />
    <glyph glyph-name="quotedbl" unicode="&#x22;" horiz-adv-x="427" 
d="M220 700l-93 -291h36l120 291h-63zM395 700l-94 -291h36l120 291h-62z" />
    <glyph glyph-name="numbersign" unicode="#" horiz-adv-x="573" 
d="M122 447l131 -1h9h193h9l125 1l8 42h-468zM43 217h468l7 42h-125h-15h-195h-10h-122zM539 700l-94 -228l-3 -12l-87 -214l-5 -12l-96 -234h49l286 700h-50zM335 700l-283 -700h47l96 233l4 11l90 219l4 11l92 226h-50z" />
    <glyph glyph-name="dollar" unicode="$" horiz-adv-x="562" 
d="M356 818l-21 -136h46l23 136h-48zM236 28l-23 -139h48l22 139h-47zM488 528l48 27q-9 39 -31 74t-58 57t-88 23q-51 0 -96 -21t-76 -58.5t-37 -84.5q-6 -41 5 -72t33 -55t50 -41.5t58 -30.5q36 -15 69 -36.5t52 -53t12 -76.5q-6 -39 -27 -70t-54.5 -48.5t-79.5 -17.5
q-50 0 -81.5 24.5t-49.5 63.5t-28 82l-50 -26q12 -52 37 -97t65.5 -72t98.5 -27q64 -1 111.5 24t77 69t37.5 99q4 39 -6 70.5t-30 56.5t-47.5 43t-56.5 31q-28 12 -55 25.5t-47.5 31.5t-32 42t-5.5 56q5 35 26 61.5t53 40.5t70 14q41 -1 67 -19.5t41.5 -47.5t24.5 -61z" />
    <glyph glyph-name="percent" unicode="%" horiz-adv-x="709" 
d="M101 555q-6 -41 6.5 -76.5t43.5 -57.5t75 -22q46 0 83 21t61.5 56.5t30.5 77.5q6 40 -7 75.5t-43 58t-75 22.5q-46 0 -83.5 -21.5t-61 -56.5t-30.5 -77zM147 554q5 29 22 55t44 42t59 16q31 -1 51.5 -17.5t28 -42t3.5 -53.5q-5 -29 -22 -55t-43.5 -42t-58.5 -15
q-33 0 -53 16.5t-28 42t-3 53.5zM374 147q-6 -41 7 -76.5t43.5 -57.5t75.5 -22t82 21t61.5 56.5t30.5 77.5q6 40 -7 75.5t-43 58t-75 22.5q-46 0 -83 -21.5t-61 -56.5t-31 -77zM420 146q5 29 22 55t43 42t60 16q32 -1 51.5 -17.5t27.5 -42t4 -53.5q-5 -29 -22 -55t-43.5 -42
t-58.5 -15q-34 0 -53.5 16.5t-27 42t-3.5 53.5zM642 700l-559 -700h50l561 700h-52z" />
    <glyph glyph-name="ampersand" unicode="&#x26;" horiz-adv-x="655" 
d="M246 401l281 -401h58l-297 429q-14 21 -27.5 41.5t-21 44t-3.5 49.5q3 28 20 51t42.5 36t59.5 13q32 -1 51 -15.5t27.5 -37.5t4.5 -49q-6 -31 -28 -57.5t-54 -49t-68 -42.5q-26 -15 -56.5 -30t-61 -34t-57 -42.5t-44.5 -55t-23 -72.5q-8 -56 15.5 -98.5t68.5 -66
t100 -23.5q69 -1 126.5 26.5t108.5 73t96.5 98t87.5 101.5l-37 25q-39 -44 -80 -93t-87 -91.5t-98 -68t-110 -23.5q-43 0 -76.5 18t-50 50.5t-9.5 74.5q5 43 29 73t57 52.5t68.5 40t65.5 34.5q32 18 60.5 38t51.5 41t37.5 46.5t19.5 54.5q6 38 -8 72t-45 55t-77 22
q-47 0 -86 -19t-64 -52t-31 -75q-4 -34 6 -63t26.5 -54t31.5 -47z" />
    <glyph glyph-name="quotesingle" unicode="'" horiz-adv-x="252" 
d="M220 700l-93 -291h36l120 291h-63z" />
    <glyph glyph-name="parenleft" unicode="(" horiz-adv-x="273" 
d="M302 779q-75 -110 -121.5 -234t-66.5 -255q-18 -123 -10 -247.5t48 -242.5h45q-35 120 -39.5 243.5t14.5 246.5q20 129 64 252.5t112 236.5h-46z" />
    <glyph glyph-name="parenright" unicode=")" horiz-adv-x="273" 
d="M28 -199q73 110 119.5 234.5t67.5 254.5q18 123 10.5 247.5t-48.5 243.5h-46q35 -121 39.5 -244.5t-13.5 -246.5q-21 -129 -65 -252t-111 -237h47z" />
    <glyph glyph-name="asterisk" unicode="*" horiz-adv-x="574" 
d="M527 593l-182 -63l5 -32l183 50zM449 375l-88 148l-28 -19l76 -156zM232 349l127 153l-23 20l-138 -144zM173 549l168 -51l16 31l-162 63zM358 700l-26 -186h31l40 186h-45z" />
    <glyph glyph-name="plus" unicode="+" horiz-adv-x="571" 
d="M75 230l442 -1l10 52h-443zM314 492l-81 -473l53 -1l83 474h-55z" />
    <glyph glyph-name="comma" unicode="," horiz-adv-x="285" 
d="M145 103l-137 -255l35 -13l151 247z" />
    <glyph glyph-name="hyphen" unicode="-" horiz-adv-x="203" 
d="M16 227h195l9 48h-195z" />
    <glyph glyph-name="period" unicode="." horiz-adv-x="275" 
d="M79 24q0 -16 10.5 -26t25.5 -10t26 10t11 26t-11 27t-26 11t-25.5 -11t-10.5 -27z" />
    <glyph glyph-name="slash" unicode="/" horiz-adv-x="483" 
d="M510 700l-548 -849h52l550 849h-54z" />
    <glyph glyph-name="zero" unicode="0" horiz-adv-x="562" 
d="M131 350q8 55 27.5 109.5t49 99.5t69.5 72t91 27q40 -1 66 -20.5t41.5 -51.5t21 -72t5 -82.5t-4.5 -81.5q-7 -55 -26.5 -109.5t-49.5 -99.5t-71 -72t-90 -26q-40 0 -66 19t-41.5 51.5t-21.5 72.5t-5.5 82.5t5.5 81.5zM77 350q-6 -47 -5 -98.5t11 -97.5t31.5 -83t56 -58.5
t84.5 -21.5q62 -1 112 30t88.5 82.5t62.5 116t33 130.5q6 47 5 98.5t-11 97.5t-31.5 83t-56.5 58.5t-84 22.5q-61 0 -111.5 -31t-89 -82.5t-62.5 -116t-33 -130.5z" />
    <glyph glyph-name="one" unicode="1" horiz-adv-x="420" 
d="M157 599l164 41l-109 -640h54l122 709l-220 -52z" />
    <glyph glyph-name="two" unicode="2" horiz-adv-x="530" 
d="M4 0h465l9 52l-352 1l287 262q43 40 78.5 89.5t43.5 108.5q6 35 -3 70t-31.5 64t-57.5 46t-83 18q-70 0 -122 -34.5t-84.5 -91.5t-43.5 -124h53q10 52 35 98t64.5 73t92.5 27q35 -1 60.5 -14t40.5 -34t21 -47.5t2 -52.5q-6 -34 -21.5 -63t-37.5 -54t-46 -49z" />
    <glyph glyph-name="three" unicode="3" horiz-adv-x="531" 
d="M281 353q43 1 84 13t75 34.5t56.5 54t29.5 73.5q7 46 -10.5 88t-55.5 67.5t-93 26.5q-57 0 -101.5 -24t-73.5 -65.5t-39 -93.5h52q9 36 30.5 66.5t53.5 48.5t75 18q41 -1 66 -20.5t35.5 -49t5.5 -64.5q-6 -31 -23 -55.5t-42.5 -42.5t-56.5 -28t-63 -12zM256 -9
q60 0 110.5 24t84 66.5t41.5 99.5q7 49 -8.5 84.5t-46 59t-70.5 36t-83 14.5l-6 -36q32 -2 63 -12.5t55 -28.5t36 -46t6 -65q-6 -42 -31 -74.5t-63 -51.5t-83 -18q-47 0 -78 18.5t-45.5 50.5t-11.5 73h-55q-4 -41 6.5 -76.5t34.5 -62t60 -41t84 -14.5z" />
    <glyph glyph-name="four" unicode="4" horiz-adv-x="553" 
d="M19 141l502 -1l9 49h-130h-11l-271 1l313 379l-66 -398l-1 -9l-29 -162h54l120 700l-21 -1z" />
    <glyph glyph-name="five" unicode="5" horiz-adv-x="544" 
d="M514 230q7 59 -10.5 110.5t-56.5 84t-99 33.5q-42 0 -77.5 -15t-62.5 -35l97 243h278l10 49h-322l-146 -372q30 24 61 42.5t64.5 28.5t71.5 9q48 -2 81 -26t47 -64.5t8 -87.5q-8 -54 -36 -96.5t-71.5 -67t-97.5 -23.5q-42 0 -73 16.5t-52.5 45t-34.5 63.5l-50 -30
q16 -43 44 -76.5t67.5 -52t93.5 -18.5q51 0 96 16.5t80.5 48.5t58.5 76t31 98z" />
    <glyph glyph-name="six" unicode="6" horiz-adv-x="543" 
d="M118 226q8 48 36.5 89.5t72 67t96.5 25.5q48 -1 81.5 -27.5t48.5 -67t8 -87.5q-7 -51 -35 -93.5t-71 -67.5t-95 -24q-52 0 -86 26t-48.5 68.5t-7.5 90.5zM410 700l-274 -323q-25 -30 -44.5 -69t-25.5 -82q-8 -63 12 -116.5t65 -86t112 -32.5t122 31.5t91.5 84.5t45.5 119
q5 42 -4.5 82t-32 71.5t-56 50t-76.5 19.5q-43 0 -77.5 -14.5t-62.5 -40.5l5 -4l270 310h-70z" />
    <glyph glyph-name="seven" unicode="7" horiz-adv-x="505" 
d="M112 648h387l-414 -648h59l448 700h-471z" />
    <glyph glyph-name="eight" unicode="8" horiz-adv-x="517" 
d="M144 536q-6 -37 3 -69t29.5 -56t51 -37t68.5 -13t73 12.5t63 36t47 55.5t25 70q5 35 -4 66t-30 55.5t-51 38.5t-68 15q-51 0 -96 -24t-74.5 -63.5t-36.5 -86.5zM194 529q5 35 27 65.5t54.5 48.5t70.5 18q38 -1 63 -19.5t36 -48.5t6 -64q-7 -36 -30 -66.5t-56 -48.5
t-67 -17q-33 0 -58.5 19t-38 49t-7.5 64zM62 189q-6 -40 3 -75.5t32 -63t57 -43.5t78 -16q45 -1 84.5 14.5t71 42.5t52 63t27.5 77q6 41 -5 77t-34.5 62t-57.5 41t-74 15q-43 0 -82 -14.5t-71 -40.5t-53.5 -61.5t-27.5 -77.5zM115 194q6 42 33.5 76.5t65.5 55.5t79 21
q40 -1 69.5 -22.5t44.5 -56t9 -74.5q-7 -44 -32.5 -79t-63.5 -55.5t-83 -19.5q-44 0 -73.5 21t-42.5 56t-6 77z" />
    <glyph glyph-name="nine" unicode="9" horiz-adv-x="543" 
d="M499 474q-7 -48 -35.5 -90t-72 -67t-97.5 -24q-48 0 -81 26t-48.5 67.5t-8.5 87.5q8 51 35.5 93.5t70.5 67.5t96 25q51 -1 85 -27t48.5 -68t7.5 -91zM208 0l274 323q24 30 43.5 69t26.5 82q8 64 -12.5 117t-65.5 86t-112 33q-68 0 -123 -32t-90.5 -85t-44.5 -119
q-5 -42 4 -82t31 -71.5t56 -50t78 -18.5q41 -1 75.5 13.5t63.5 41.5l-5 4l-270 -311h71z" />
    <glyph glyph-name="colon" unicode=":" horiz-adv-x="291" 
d="M79 24q0 -16 10.5 -26t25.5 -10t26 10t11 26t-11 27t-26 11t-25.5 -11t-10.5 -27zM142 392q0 -16 10.5 -26.5t25.5 -10.5t26 10.5t11 26.5t-11 26.5t-26 10.5t-25.5 -10.5t-10.5 -26.5z" />
    <glyph glyph-name="semicolon" unicode=";" horiz-adv-x="298" 
d="M171 392q0 -16 10.5 -26.5t26.5 -10.5q14 0 25 10.5t11 26.5t-11 26.5t-25 10.5q-16 0 -26.5 -10.5t-10.5 -26.5zM145 103l-137 -255l35 -13l151 247z" />
    <glyph glyph-name="less" unicode="&#x3c;" horiz-adv-x="621" 
d="M164 258l442 177l10 54l-534 -217l-5 -28l459 -216l10 48z" />
    <glyph glyph-name="equal" unicode="=" horiz-adv-x="596" 
d="M63 159l471 -1l9 49h-471zM87 299l472 -1l9 49h-472z" />
    <glyph glyph-name="greater" unicode="&#x3e;" horiz-adv-x="621" 
d="M491 258l-442 -177l-10 -54l534 216l5 29l-459 215l-10 -48z" />
    <glyph glyph-name="question" unicode="?" horiz-adv-x="534" 
d="M477 508q-10 -46 -42.5 -82t-81.5 -57.5t-105 -23.5h-15l-15 -174h38l28 138q59 6 111 31.5t88 68t46 99.5q6 40 -2.5 76.5t-32 65t-58.5 44t-79 16.5q-51 0 -91.5 -15t-72 -41.5t-59.5 -58.5l39 -28q32 40 74 67t99 27q48 -1 79.5 -21t45 -55t6.5 -77zM174 24
q0 -16 10 -26t27 -10q14 0 25 10t11 26q0 15 -10.5 26.5t-25.5 11.5q-16 0 -26.5 -11.5t-10.5 -26.5z" />
    <glyph glyph-name="at" unicode="@" horiz-adv-x="747" 
d="M266 320q6 44 29 81.5t57.5 60t71.5 21.5q29 -1 47 -17.5t24 -42t3 -53.5q-6 -44 -29.5 -81t-57 -59.5t-70.5 -20.5q-30 1 -48 16.5t-24.5 40.5t-2.5 54zM217 319q-6 -43 5 -78.5t37 -57t66 -21.5q50 -1 92.5 28t70.5 76.5t35 102.5q5 36 -2 72.5t-29.5 61.5t-62.5 26
q-50 1 -95.5 -27t-77.5 -76.5t-39 -106.5zM61 320q-11 -69 1 -128.5t45 -104t87 -70t130 -25.5q74 -1 132.5 15.5t109.5 41.5l-17 40q-50 -26 -104 -40.5t-117 -13.5q-84 1 -137.5 39t-74.5 102.5t-10 143.5q12 70 45.5 132.5t84.5 111t115.5 75.5t139.5 27q63 -1 108 -24.5
t72.5 -63t36.5 -88.5t0 -100q-4 -37 -19.5 -73t-38.5 -65t-48.5 -44.5t-50.5 -11.5q-19 1 -28 11.5t-10 24.5t1 27q0 7 2.5 15.5t4.5 14.5l81 231h-50l-78 -241h5q-8 -32 -5.5 -60.5t18 -47t48.5 -20.5q36 -2 71.5 16t65.5 51.5t50.5 77t26.5 94.5q10 59 -2.5 115.5
t-45.5 102.5t-86 73.5t-125 27.5q-84 0 -157.5 -30t-131 -84.5t-95.5 -125t-50 -149.5z" />
    <glyph glyph-name="A" unicode="A" horiz-adv-x="617" 
d="M149 235h349l-9 52h-315zM384 600l78 -334l2 -13l58 -253h59l-175 728l-426 -728h62l147 257l8 12z" />
    <glyph glyph-name="B" unicode="B" horiz-adv-x="516" 
d="M160 377h112q53 0 100 17.5t78.5 51t40.5 85.5q6 40 -3.5 71.5t-33 53t-58.5 33t-77 11.5h-145l-120 -700h160q65 0 120.5 23t92 68.5t46.5 111.5q6 46 -7.5 81t-41 58.5t-65.5 35.5t-79 13h-117l-6 -31l117 -1q33 0 62 -11t49.5 -31t29.5 -48t4 -63q-8 -50 -36 -85
t-71 -53t-93 -18l-101 -1l101 602h95q61 -1 96.5 -34t25.5 -89q-7 -39 -31 -65.5t-59.5 -40.5t-75.5 -14h-105z" />
    <glyph glyph-name="C" unicode="C" horiz-adv-x="664" 
d="M133 350q10 63 39 117.5t72.5 96t99 65t116.5 24.5q44 0 80.5 -10.5t67 -31.5t53.5 -53l13 73q-42 39 -91.5 58.5t-115.5 19.5q-75 0 -140.5 -28.5t-118.5 -77.5t-87.5 -114t-45.5 -139q-11 -70 3 -134.5t50 -115t91.5 -80t128.5 -29.5q71 0 126.5 20.5t104.5 57.5l12 73
q-31 -28 -68 -49.5t-79 -33.5t-90 -11q-61 0 -106.5 25t-73.5 67.5t-39 96.5t-2 113z" />
    <glyph glyph-name="D" unicode="D" horiz-adv-x="642" 
d="M173 700l-118 -700h53l120 700h-55zM241 0q77 0 143 26.5t118 73.5t85.5 111t45.5 139q10 72 -3.5 135t-49.5 111.5t-92.5 76t-131.5 27.5h-153l-11 -55h158q65 0 111.5 -23.5t76 -64t40 -93.5t1.5 -114q-11 -64 -39.5 -118t-72 -93.5t-99 -61.5t-121.5 -22h-154l-10 -55
h158z" />
    <glyph glyph-name="E" unicode="E" horiz-adv-x="517" 
d="M83 0h338l9 52h-338zM193 648h337l10 52h-338zM144 359h318l9 51h-318zM173 700l-118 -700h53l120 700h-55z" />
    <glyph glyph-name="F" unicode="F" horiz-adv-x="465" 
d="M193 648h299l9 52h-299zM143 354l289 -1l10 52h-290zM173 700l-118 -700h53l120 700h-55z" />
    <glyph glyph-name="G" unicode="G" horiz-adv-x="748" 
d="M421 297h242q-16 -49 -43 -93.5t-65.5 -80t-86.5 -56.5t-107 -20q-63 0 -109.5 25t-76.5 67.5t-41 96.5t-2 114q10 63 39.5 118.5t74.5 97t101.5 64.5t119.5 24q77 0 133 -34t84 -95l44 33q-25 48 -62 82t-85.5 51.5t-106.5 17.5q-77 0 -144 -28t-120.5 -77t-88.5 -114
t-46 -140q-11 -71 3.5 -135.5t51.5 -115t93.5 -79.5t131.5 -29q77 0 140.5 29.5t112.5 80t80.5 115t44.5 133.5h-302z" />
    <glyph glyph-name="H" unicode="H" horiz-adv-x="666" 
d="M143 356h459l9 51h-459zM624 700l-119 -700h54l121 700h-56zM173 700l-118 -700h53l120 700h-55z" />
    <glyph glyph-name="I" unicode="I" horiz-adv-x="212" 
d="M172 700l-119 -700h53l121 700h-55z" />
    <glyph glyph-name="J" unicode="J" horiz-adv-x="215" 
d="M-138 -126l-34 -41q9 -13 25.5 -25t37.5 -19.5t45 -7.5q35 -1 62.5 10t47.5 32.5t33.5 51t19.5 65.5l129 760h-52l-129 -750q-7 -53 -33 -85t-71 -33q-27 0 -47 12t-34 30z" />
    <glyph glyph-name="K" unicode="K" horiz-adv-x="504" 
d="M172 700l-119 -700h53l120 700h-54zM505 700l-351 -327l249 -373h65l-249 371l358 329h-72z" />
    <glyph glyph-name="L" unicode="L" horiz-adv-x="428" 
d="M174 700l-120 -700h335l10 52h-281l110 648h-54z" />
    <glyph glyph-name="M" unicode="M" horiz-adv-x="794" 
d="M225 554l159 -474l317 471l-35 -551h54l48 730l-365 -539l-180 537l-205 -728h55z" />
    <glyph glyph-name="N" unicode="N" horiz-adv-x="723" 
d="M684 700l-99 -586l-413 612l-125 -726h55l99 585l412 -611l125 726h-54z" />
    <glyph glyph-name="O" unicode="O" horiz-adv-x="759" 
d="M132 350q10 63 39.5 117.5t74 96.5t100.5 66t120 24q63 -1 110 -26t75.5 -68t39.5 -97t3 -113q-11 -63 -40.5 -117.5t-73.5 -96.5t-100 -66t-120 -23q-63 0 -110 25t-76 68t-40 97t-2 113zM75 350q-11 -70 3.5 -134t51 -115t93 -80.5t131.5 -29.5t142 28t120.5 78
t88.5 115t47 138q10 70 -4.5 134t-51 115t-93.5 80.5t-131 29.5q-76 0 -143 -28t-120 -78t-88 -115t-46 -138z" />
    <glyph glyph-name="P" unicode="P" horiz-adv-x="504" 
d="M173 700l-118 -700h53l120 700h-55zM194 648h132q47 -1 81 -19.5t50 -53t9 -82.5q-9 -48 -36.5 -83t-69 -53t-90.5 -19h-128l-10 -52h132q64 0 118.5 25.5t91.5 72t47 109.5q9 61 -13.5 107.5t-68.5 73t-108 26.5h-127z" />
    <glyph glyph-name="Q" unicode="Q" horiz-adv-x="758" 
d="M132 350q10 63 39.5 117.5t74 96.5t100.5 66t120 24q63 -1 110 -26t75.5 -68t39.5 -97t3 -113q-11 -63 -40.5 -117.5t-73.5 -96.5t-100 -66t-120 -23q-63 0 -110 25t-76 68t-40 97t-2 113zM75 350q-11 -70 3.5 -134t51 -115t93 -80.5t131.5 -29.5t142 28t120.5 78
t88.5 115t47 138q10 70 -4.5 134t-51 115t-93.5 80.5t-130 29.5q-77 0 -143.5 -28t-120 -78t-88.5 -115t-46 -138zM401 300l248 -300h68l-248 300h-68z" />
    <glyph glyph-name="R" unicode="R" horiz-adv-x="507" 
d="M227 334l170 -334h63l-174 334h-59zM173 700l-118 -700h53l120 700h-55zM192 651h130q49 0 85 -18.5t54 -52.5t10 -83q-9 -49 -37.5 -83.5t-72 -52.5t-94.5 -18h-126l-9 -49h130q65 0 121 24.5t94 69.5t48 109q10 62 -14 107.5t-72.5 70.5t-111.5 25h-125z" />
    <glyph glyph-name="S" unicode="S" horiz-adv-x="508" 
d="M88 204l-44 -29q12 -48 37.5 -89.5t68 -68t101.5 -26.5q45 0 85.5 15.5t70.5 44t48.5 65.5t20.5 80q1 40 -11 71t-33.5 52.5t-47.5 38t-53 27.5q-32 13 -58.5 28t-45 33.5t-28 41.5t-7.5 51q3 34 20.5 60.5t48 42t71.5 15.5q46 0 75 -18.5t45.5 -45t25.5 -55.5l48 25
q-11 37 -34.5 70.5t-61 54.5t-92.5 21q-58 0 -103 -23.5t-71.5 -63.5t-28.5 -90q-2 -39 12 -69t37 -51.5t50.5 -37.5t54.5 -28q36 -17 66.5 -36.5t48.5 -47.5t15 -72q-2 -38 -23 -72t-58 -54.5t-86 -20.5q-50 0 -81.5 22t-50.5 58.5t-32 80.5z" />
    <glyph glyph-name="T" unicode="T" horiz-adv-x="437" 
d="M95 648h180l-111 -648h54l111 648h178l10 52h-411z" />
    <glyph glyph-name="U" unicode="U" horiz-adv-x="587" 
d="M169 700l-81 -474q-7 -47 1 -89.5t30.5 -75.5t59.5 -51.5t89 -18.5q56 0 100 17.5t76 50t52 75.5t28 92l81 474h-54l-82 -474q-8 -52 -32 -93.5t-65.5 -65.5t-98.5 -24q-54 0 -84.5 25t-42 67t-4.5 91l81 474h-54z" />
    <glyph glyph-name="V" unicode="V" horiz-adv-x="617" 
d="M307 101l-148 599h-59l187 -728l414 728h-63z" />
    <glyph glyph-name="W" unicode="W" horiz-adv-x="944" 
d="M680 120l-112 609l-298 -609l-106 580h-59l138 -728l301 603l115 -603l365 728h-61z" />
    <glyph glyph-name="X" unicode="X" horiz-adv-x="517" 
d="M515 700l-207 -283l-116 283h-63l145 -331l-279 -369h66l232 317l131 -317h62l-158 366l254 334h-67z" />
    <glyph glyph-name="Y" unicode="Y" horiz-adv-x="523" 
d="M546 700l-256 -360l-129 360h-59l154 -411l-51 -289h54l50 287l300 413h-63z" />
    <glyph glyph-name="Z" unicode="Z" horiz-adv-x="524" 
d="M118 648h380l-510 -648h478l10 52l-384 1l510 647h-474z" />
    <glyph glyph-name="bracketleft" unicode="[" horiz-adv-x="275" 
d="M244 731l108 1l8 48h-160l-155 -1000h161l9 49h-110z" />
    <glyph glyph-name="backslash" unicode="\" horiz-adv-x="468" 
d="M106 701l268 -701h52l-265 700z" />
    <glyph glyph-name="bracketright" unicode="]" horiz-adv-x="275" 
d="M85 -171h-109l-8 -49h160l154 1000h-160l-8 -49h108z" />
    <glyph glyph-name="asciicircum" unicode="^" horiz-adv-x="494" 
d="M332 650l101 -190h50l-131 250h-24l-215 -249h55z" />
    <glyph glyph-name="underscore" unicode="_" horiz-adv-x="485" 
d="M-49 -122h487l6 36h-486z" />
    <glyph glyph-name="grave" unicode="`" horiz-adv-x="354" 
d="M168 674l151 -153l30 18l-130 161z" />
    <glyph glyph-name="a" unicode="a" horiz-adv-x="449" 
d="M81 136q5 35 26.5 58.5t54 34.5t68.5 12q38 0 71.5 -11.5t64.5 -34.5l5 32q-12 13 -32.5 25.5t-48 21t-61.5 8.5q-51 0 -94 -17t-71.5 -50.5t-35.5 -79.5q-6 -44 10 -76.5t47.5 -50t71.5 -17.5q44 -1 83.5 18t68 54t38.5 82l-6 38q-10 -44 -34 -77.5t-58 -51.5t-74 -17
q-30 0 -52.5 11.5t-34.5 33.5t-7 54zM128 373q18 12 40 23.5t48.5 19.5t58.5 7q28 0 47.5 -9t30 -23t14 -32t1.5 -36l-58 -323h52l55 326q7 43 -8 75t-48 50t-79 19q-54 0 -97 -17.5t-76 -38.5z" />
    <glyph glyph-name="b" unicode="b" 
d="M229 780h-51l-134 -780h51zM516 230q9 63 -9.5 118.5t-61 88.5t-106.5 33q-46 -1 -85 -20.5t-69 -53.5t-49 -77t-25 -89q-6 -43 -0.5 -85.5t23.5 -77.5t49.5 -56t78.5 -21q64 0 118 31.5t90 86t46 122.5zM466 230q-9 -54 -38.5 -97t-73 -68.5t-94.5 -24.5q-35 0 -61 16.5
t-41.5 44t-21.5 61t-1 68.5q5 37 22.5 71t43.5 61.5t59 43t68 15.5q51 0 84 -26.5t46.5 -70t7.5 -94.5z" />
    <glyph glyph-name="c" unicode="c" horiz-adv-x="467" 
d="M103 230q8 53 37 96t73.5 68.5t97.5 26.5q33 0 60.5 -9.5t48 -26.5t32.5 -39l10 65q-24 26 -62.5 42.5t-83.5 16.5q-68 -1 -125 -33t-94 -86t-46 -121q-9 -64 12.5 -118.5t68 -87.5t113.5 -33q49 0 90.5 16.5t71.5 41.5l10 64q-18 -19 -43.5 -36t-57 -27.5t-66.5 -9.5
q-52 0 -87.5 26.5t-51 70.5t-8.5 93z" />
    <glyph glyph-name="d" unicode="d" 
d="M524 780l-132 -780h50l135 780h-53zM49 230q-9 -64 10 -119t61.5 -88t106.5 -32q46 0 85 19.5t68.5 53.5t49 77t26.5 89q6 43 0 85.5t-24 77.5t-49.5 56t-77.5 21q-64 1 -118.5 -31t-91 -87t-46.5 -122zM102 230q8 53 37 97t72.5 69.5t94.5 24.5q35 -1 61 -17.5t41.5 -44
t21.5 -61.5t2 -68q-7 -37 -24.5 -71t-43.5 -61.5t-58.5 -42.5t-67.5 -15q-50 0 -83 26.5t-47 69.5t-6 94z" />
    <glyph glyph-name="e" unicode="e" horiz-adv-x="498" 
d="M234 -10q69 0 123 31.5t93 85.5l-40 27q-32 -44 -74.5 -69.5t-95.5 -25.5q-44 0 -75 21t-47 58t-16 84q0 43 15 83t42.5 71t63 49.5t77.5 18.5q41 0 70 -18t44 -50t15 -73q0 -15 -4 -28t-8 -24l21 31h-354v-45h387q4 9 7.5 26t3.5 31q0 61 -22.5 104t-62.5 67.5t-94 24.5
q-53 0 -98.5 -22t-80.5 -60.5t-54.5 -87t-19.5 -101.5q0 -64 23.5 -111t64.5 -72.5t96 -25.5z" />
    <glyph glyph-name="f" unicode="f" horiz-adv-x="273" 
d="M94 460l-10 -49h211l10 49h-211zM356 705l35 40q-8 11 -19.5 21t-26 16t-33.5 7q-43 1 -73.5 -20t-47.5 -55.5t-24 -74.5l-109 -639h52l108 632q4 26 13.5 50t27 39.5t44.5 16.5q17 -1 30 -10t23 -23z" />
    <glyph glyph-name="g" unicode="g" 
d="M16 -30q-6 -56 14 -101.5t62.5 -72t103.5 -25.5q65 0 117.5 30.5t86.5 84.5t45 124l77 450h-51l-78 -450q-8 -57 -36 -99.5t-69.5 -67t-90.5 -23.5q-46 0 -76.5 20.5t-43.5 54.5t-9 75h-52zM49 230q-9 -64 10 -119t61.5 -88t106.5 -32q46 0 85 19.5t68.5 53.5t49 77
t26.5 89q6 43 0 85.5t-24 77.5t-49.5 56t-77.5 21q-64 1 -118.5 -31t-91 -87t-46.5 -122zM102 230q8 53 37 97t72.5 69.5t94.5 24.5q34 -1 60 -17.5t42 -44t22 -60.5t2 -67q-6 -38 -24 -72.5t-44 -61.5t-58 -42.5t-68 -15.5q-50 0 -83 26.5t-47 69.5t-6 94z" />
    <glyph glyph-name="h" unicode="h" horiz-adv-x="489" 
d="M234 780h-51l-134 -780h51zM386 296l-50 -296h50l52 302q6 46 -3.5 84t-37 61t-76.5 23q-50 0 -90 -27t-66 -70t-36 -92h19q9 36 30.5 68t53.5 52t72 20q38 -1 56.5 -18t24 -45.5t1.5 -61.5z" />
    <glyph glyph-name="i" unicode="i" horiz-adv-x="225" 
d="M163 668q0 -15 10 -25.5t26 -10.5t26.5 10.5t10.5 25.5t-10.5 26t-26.5 11t-26 -11t-10 -26zM138 460l-77 -460h51l79 460h-53z" />
    <glyph glyph-name="j" unicode="j" horiz-adv-x="215" 
d="M151 668q0 -15 10.5 -25.5t26.5 -10.5t26 10.5t10 25.5t-10 25.5t-26 10.5t-26.5 -10.5t-10.5 -25.5zM-99 -134l-34 -42q9 -12 21 -21.5t27.5 -15.5t34.5 -6q42 -1 71 20t46 55.5t24 74.5l90 529h-52l-89 -523q-4 -24 -13.5 -49t-27.5 -40.5t-44 -15.5q-17 0 -31.5 11
t-22.5 23z" />
    <glyph glyph-name="k" unicode="k" horiz-adv-x="399" 
d="M177 780l-132 -780h50l135 780h-53zM364 460l-241 -188l184 -272h62l-184 266l247 194h-68z" />
    <glyph glyph-name="l" unicode="l" horiz-adv-x="203" 
d="M182 780l-132 -780h50l134 780h-52z" />
    <glyph glyph-name="m" unicode="m" horiz-adv-x="721" 
d="M670 302q5 43 -2.5 81t-31.5 62.5t-70 24.5q-50 0 -89.5 -29.5t-64.5 -77.5q-3 29 -14 53t-33.5 39t-57.5 15q-31 0 -57.5 -12.5t-48.5 -35t-35 -51.5l14 89h-52l-80 -460h52l51 287q5 37 25 67t49.5 48.5t65.5 17.5q33 0 49 -17.5t19.5 -46.5t-0.5 -60l-50 -296h50
l50 285q5 35 24.5 66t49.5 50.5t67 18.5q33 0 49 -17.5t19.5 -46.5t-0.5 -60l-51 -296h52z" />
    <glyph glyph-name="n" unicode="n" horiz-adv-x="489" 
d="M386 296l-50 -296h50l52 302q6 44 -3.5 82.5t-37.5 62t-76 23.5q-53 0 -92.5 -28.5t-62.5 -72.5l14 91h-52l-80 -460h52l51 286q6 37 27.5 67t54 49t71.5 19q37 0 56 -17.5t24.5 -46t1.5 -61.5z" />
    <glyph glyph-name="o" unicode="o" horiz-adv-x="533" 
d="M56 230q-9 -64 12.5 -118.5t68 -87.5t113.5 -33t124 32t94.5 86.5t46.5 120.5q9 64 -13 118.5t-69 88t-112 33.5q-68 0 -125 -32.5t-94 -87t-46 -120.5zM108 230q7 53 36.5 96t74 69t97.5 26q52 -1 87 -28t51 -70t9 -93q-7 -52 -37 -95.5t-74.5 -69.5t-97.5 -25
q-52 0 -87 26.5t-50.5 70.5t-8.5 93z" />
    <glyph glyph-name="p" unicode="p" 
d="M59 -219l115 679h-50l-118 -680zM516 230q9 63 -9.5 118.5t-61 88.5t-106.5 33q-46 -1 -85 -20.5t-69 -53.5t-49 -77t-25 -89q-6 -43 -0.5 -85.5t23.5 -77.5t49.5 -56t78.5 -21q64 0 118 31.5t90 86t46 122.5zM466 230q-9 -54 -38.5 -97t-73 -68.5t-94.5 -24.5
q-35 0 -61 16.5t-41.5 44t-21.5 61t-1 68.5q5 37 22.5 71t43.5 61.5t59 43t68 15.5q51 0 84 -26.5t46.5 -70t7.5 -94.5z" />
    <glyph glyph-name="q" unicode="q" 
d="M354 -220h51l117 680h-51zM49 230q-9 -64 10 -119t61.5 -88t106.5 -32q46 0 85 19.5t68.5 53.5t49 77t26.5 89q6 43 0 85.5t-24 77.5t-49.5 56t-77.5 21q-64 1 -118.5 -31t-91 -87t-46.5 -122zM102 230q8 53 37 97t72.5 69.5t94.5 24.5q35 -1 61 -17.5t41.5 -44
t21.5 -61.5t2 -68q-7 -37 -24.5 -71t-43.5 -61.5t-58.5 -42.5t-67.5 -15q-50 0 -83 26.5t-47 69.5t-6 94z" />
    <glyph glyph-name="r" unicode="r" horiz-adv-x="311" 
d="M180 460h-52l-80 -460h52zM318 400l35 41q-16 13 -33.5 21t-38.5 8q-43 0 -75.5 -28.5t-53.5 -71.5t-29 -89h25q6 33 20 65.5t37 54t58 20.5q16 0 28.5 -6t26.5 -15z" />
    <glyph glyph-name="s" unicode="s" horiz-adv-x="391" 
d="M80 135l-43 -23q8 -30 28 -58t53.5 -46t80.5 -18q43 0 77.5 18t55.5 49.5t22 70.5q2 39 -15 64t-44.5 41t-59.5 29q-27 10 -48 21t-33 27.5t-10 43.5q2 33 28 52t63 19q41 0 66.5 -22.5t40.5 -52.5l40 26q-11 25 -30.5 46t-48 34t-65.5 13q-35 0 -67.5 -14t-54 -41
t-22.5 -66q-2 -39 14 -63t42.5 -39.5t55.5 -25.5q25 -9 48 -21.5t37 -31t12 -45.5q-2 -37 -30 -61t-70 -24q-35 0 -59 14t-39.5 36t-24.5 48z" />
    <glyph glyph-name="t" unicode="t" horiz-adv-x="213" 
d="M62 460l-10 -49h197l10 49h-197zM160 620l-105 -620h50l107 620h-52z" />
    <glyph glyph-name="u" unicode="u" horiz-adv-x="489" 
d="M129 168l50 292h-50l-52 -298q-7 -46 2 -85t37 -62.5t77 -23.5q53 0 92 27t64 73l-14 -91h51l80 460h-52l-50 -285q-6 -36 -27.5 -67t-54.5 -49.5t-72 -18.5q-37 0 -56 17.5t-24 47t-1 63.5z" />
    <glyph glyph-name="v" unicode="v" horiz-adv-x="418" 
d="M58 460l130 -488l283 488h-60l-204 -373l-92 373h-57z" />
    <glyph glyph-name="w" unicode="w" horiz-adv-x="636" 
d="M61 460l89 -488l198 383l74 -383l259 488h-58l-181 -355l-72 384l-193 -383l-60 354h-56z" />
    <glyph glyph-name="x" unicode="x" horiz-adv-x="391" 
d="M373 460l-151 -182l-97 182h-57l120 -219l-203 -241h61l164 197l104 -197h57l-126 234l190 226h-62z" />
    <glyph glyph-name="y" unicode="y" horiz-adv-x="420" 
d="M471 460h-59l-224 -389l24 -3l-99 392h-57l111 -411l-163 -268h59z" />
    <glyph glyph-name="z" unicode="z" horiz-adv-x="434" 
d="M363 411l-375 -411h392l10 49h-298l376 411h-375l-10 -49h280z" />
    <glyph glyph-name="braceleft" unicode="{" horiz-adv-x="289" 
d="M245 652q5 38 21.5 60t51.5 22h28l7 46h-44q-33 0 -57.5 -18t-39.5 -49.5t-21 -71.5l-32 -211q-6 -47 -23 -76t-45 -44l-7 -40q23 -18 30.5 -46t2.5 -74l-32 -210q-5 -38 0.5 -70t23.5 -51t51 -19h43l7 47h-29q-23 0 -34.5 10.5t-14 28.5t-0.5 42l29 186q4 30 5.5 59.5
t-4.5 55t-21 44t-43 24.5l-3 -13q31 4 52 21t34.5 42.5t22 55.5t13.5 63z" />
    <glyph glyph-name="bar" unicode="|" horiz-adv-x="240" 
d="M200 785l-153 -999h47l154 999h-48z" />
    <glyph glyph-name="braceright" unicode="}" horiz-adv-x="289" 
d="M105 -72q-5 -38 -22 -60t-50 -22h-28l-8 -45h45q33 0 57.5 17.5t39.5 49t20 72.5l32 210q7 48 24 76.5t45 43.5l6 40q-23 18 -30.5 46t-1.5 74l32 210q4 38 -1.5 70t-23.5 51t-51 19h-42l-7 -46h28q23 -1 33.5 -11t14 -28.5t1.5 -41.5l-29 -187q-4 -29 -5 -59t4 -55.5
t20.5 -44t44.5 -24.5l2 14q-31 -5 -52 -22t-35 -42.5t-22 -55.5t-13 -63z" />
    <glyph glyph-name="asciitilde" unicode="~" horiz-adv-x="558" 
d="M127 177q-1 6 -1.5 11.5t1.5 10.5q5 33 27 56t57 24q18 0 32.5 -7.5t27.5 -19t25 -23.5q23 -22 47 -39t55 -17q25 -1 48.5 10t40.5 31q14 16 21.5 36t10.5 40q1 7 0.5 14.5t-0.5 13.5l-49 4q2 -7 2 -14.5t-1 -13.5q-5 -29 -23 -50.5t-48 -21.5q-22 -1 -41 14t-34 31
q-15 15 -31.5 28.5t-35.5 22.5t-42 9q-30 0 -56 -12t-44 -34q-14 -16 -23 -35.5t-12 -39.5q-1 -7 -1 -13t1 -12z" />
    <glyph glyph-name="uni00A0" unicode="&#xa0;" horiz-adv-x="300" 
 />
    <glyph glyph-name="exclamdown" unicode="&#xa1;" horiz-adv-x="291" 
d="M117 -245l72 500h-39l-98 -500h65zM235 430q2 15 -7 26t-22 12q-15 1 -28.5 -11t-14.5 -25q-3 -15 6.5 -26.5t23.5 -11.5q14 -2 27.5 10t14.5 26z" />
    <glyph glyph-name="cent" unicode="&#xa2;" horiz-adv-x="562" 
d="M263 21l-26 -132h43l22 132h-39zM144 230q8 52 38.5 95t75.5 69t98 27q49 0 85.5 -21t53.5 -54l11 65q-24 26 -62 42.5t-83 16.5q-68 -1 -125.5 -33t-95.5 -86t-48 -121q-9 -63 11.5 -118t66.5 -88t113 -33q48 0 90.5 16.5t72.5 41.5l10 64q-27 -28 -71 -51t-97 -22
q-52 0 -87 27t-49.5 70.5t-7.5 92.5zM355 578l-22 -135h39l26 135h-43z" />
    <glyph glyph-name="sterling" unicode="&#xa3;" horiz-adv-x="562" 
d="M105 344l-10 -49h331l10 49h-331zM504 488l49 16q3 32 -3.5 67.5t-24.5 67t-48.5 51t-76.5 20.5q-42 0 -79 -14t-65.5 -39.5t-48 -58.5t-25.5 -71q-4 -35 2 -63t17.5 -54t22 -50.5t17 -50t2.5 -54.5q-10 -50 -40.5 -91t-71.5 -80.5t-84 -83.5h420l11 52h-366l-3 -21
q26 15 56 39t57.5 53.5t47.5 65t26 75.5q4 29 -2 55t-17.5 50.5t-22.5 48.5t-16.5 51t-0.5 58q7 36 29 65.5t56 46.5t72 17q37 -1 59 -17t34.5 -41.5t16 -54.5t0.5 -55z" />
    <glyph glyph-name="currency" unicode="&#xa4;" horiz-adv-x="554" 
d="M103 512l67 -81l38 31l-66 83zM60 56l93 79l-28 35l-93 -79zM482 431l93 78l-27 36l-94 -80zM399 138l67 -82l37 32l-66 82zM74 300q-10 -63 10.5 -117.5t67 -88t111.5 -33.5q66 0 123.5 32t95.5 86.5t48 120.5q9 63 -11.5 117.5t-66.5 88.5t-111 34q-67 0 -124.5 -32.5
t-95 -87t-47.5 -120.5zM126 300q8 52 38 95t75 69.5t97 26.5q51 -1 85 -28.5t48.5 -71t8.5 -91.5q-9 -51 -39 -94.5t-74.5 -70t-96.5 -25.5q-52 0 -86 27.5t-48.5 71t-7.5 91.5z" />
    <glyph glyph-name="yen" unicode="&#xa5;" horiz-adv-x="556" 
d="M60 283l468 -1l9 49h-469zM35 143l469 -1l9 49h-469zM557 700l-255 -360l-129 360h-59l154 -409l-52 -291h56l50 289l299 411h-64z" />
    <glyph glyph-name="brokenbar" unicode="&#xa6;" horiz-adv-x="240" 
d="M189 695l-42 -239h47l42 239h-47zM159 245h-47l-42 -239h47z" />
    <glyph glyph-name="section" unicode="&#xa7;" horiz-adv-x="391" 
d="M395 595l43 24q-9 28 -30.5 48.5t-51.5 31.5t-64 11q-36 -1 -71 -14.5t-59.5 -39t-30.5 -62.5q-4 -28 5 -48.5t27.5 -35.5t40.5 -26t44 -21q23 -11 47.5 -24t39 -31.5t11.5 -45.5q-4 -28 -22.5 -48.5t-46 -33t-58.5 -19.5l-3 -20q34 1 64.5 8t55.5 21.5t41.5 37.5
t21.5 58q5 32 -11 56.5t-43 42.5t-55 32q-17 7 -36.5 15.5t-37.5 20t-27.5 26.5t-6.5 34q3 23 20 37.5t40 22t46 7.5q24 0 45 -7.5t36.5 -22.5t25.5 -35zM68 147l-45 -23q4 -39 25.5 -68.5t55 -47t75.5 -17.5q32 -1 62 6.5t54.5 23.5t40.5 40.5t21 56.5q5 36 -11 61.5
t-43.5 44t-56.5 32.5q-18 8 -37.5 17.5t-35.5 22t-25 29.5t-5 40q4 26 22.5 45t46 32t60.5 22l3 15q-37 -1 -68.5 -9t-55.5 -23t-39.5 -36.5t-20.5 -50.5q-6 -36 11 -61t45 -44.5t57 -32.5q25 -11 49.5 -25t40 -33.5t9.5 -48.5q-4 -27 -22 -44t-43 -24.5t-51 -6.5
q-33 0 -59 14t-41 38.5t-19 54.5z" />
    <glyph glyph-name="dieresis" unicode="&#xa8;" horiz-adv-x="436" 
d="M365 673q-1 -15 7.5 -26.5t23.5 -11.5q13 -2 27 10t16 26q1 15 -9 26t-23 12q-15 1 -28 -11t-14 -25zM171 673q-1 -15 7.5 -26.5t23.5 -11.5q13 -2 27 10t16 26q1 15 -9 26t-23 12q-15 1 -28 -11t-14 -25z" />
    <glyph glyph-name="copyright" unicode="&#xa9;" horiz-adv-x="776" 
d="M253 351q8 50 35 91t68.5 65.5t91.5 24.5q40 0 69.5 -15t51.5 -42l7 44q-26 23 -56 35t-70 12q-59 -1 -108.5 -30t-82.5 -78t-41 -108q-8 -57 11 -105.5t59 -79t99 -30.5q42 -1 74.5 11.5t62.5 34.5l7 43q-28 -24 -63.5 -40t-78.5 -15q-49 0 -82 25t-46.5 67t-7.5 90z
M112 351q10 67 42 126t81.5 103t111 70t130.5 26q68 -1 120 -27.5t87 -71.5t49 -103.5t6 -123.5q-11 -67 -43 -126.5t-81.5 -103.5t-111 -70t-129.5 -25q-69 0 -121 26.5t-87 71.5t-49 104t-5 124zM75 350q-10 -72 7 -137t56 -115t98.5 -79t135.5 -29t144.5 27.5t123 77
t90 115t45.5 140.5q10 72 -7 137t-56.5 115t-98.5 79t-134 29q-77 0 -145.5 -27.5t-123 -77t-90 -115t-45.5 -140.5z" />
    <glyph glyph-name="ordfeminine" unicode="&#xaa;" horiz-adv-x="230" 
d="M111 530q3 25 27.5 41.5t50.5 16.5q20 0 36 -6.5t30 -17.5l3 17q-12 8 -27.5 17.5t-41.5 9.5q-35 0 -67 -21.5t-37 -55.5q-5 -33 14.5 -54t50.5 -21q37 -1 61.5 21.5t33.5 52.5l-4 16q-9 -28 -31 -48t-52 -18q-23 0 -36.5 13t-10.5 37zM139 652q14 9 33 18.5t41 8.5
q23 -1 32.5 -14t10.5 -34l-30 -170h26l29 170q3 32 -14.5 51.5t-51.5 20.5q-27 0 -48 -9t-38 -20z" />
    <glyph glyph-name="guillemotleft" unicode="&#xab;" horiz-adv-x="484" 
d="M267 257l202 202l-28 31l-230 -233l152 -237l37 29zM112 257l202 202l-28 31l-231 -233l153 -237l37 29z" />
    <glyph glyph-name="logicalnot" unicode="&#xac;" horiz-adv-x="601" 
d="M90 326h429l-26 -150h49l35 199h-477z" />
    <glyph glyph-name="uni00AD" unicode="&#xad;" horiz-adv-x="203" 
d="M16 227h195l9 48h-195z" />
    <glyph glyph-name="registered" unicode="&#xae;" horiz-adv-x="776" 
d="M381 351l107 -201h39l-109 201h-37zM346 570l-64 -419h33l65 419h-34zM358 540h78q42 -2 69.5 -25t21.5 -67q-6 -45 -41.5 -68t-79.5 -25h-76l-4 -28h77q57 1 103 32.5t54 88.5q8 56 -29 88.5t-92 33.5h-76zM112 350q10 68 42 127t81.5 103t111 70t130.5 26
q68 -1 120 -27.5t87 -71.5t49 -103.5t6 -123.5q-11 -67 -43 -126.5t-81.5 -103.5t-111 -70t-129.5 -25q-69 0 -121 26.5t-87 71.5t-49 104t-5 123zM75 350q-10 -72 7 -137t56 -115t98.5 -79t135.5 -29t144.5 28t123 77t90 114.5t45.5 140.5q10 72 -7 137t-56.5 115t-98.5 79
t-134 29q-77 0 -145.5 -28t-123 -77t-90 -114.5t-45.5 -140.5z" />
    <glyph glyph-name="macron" unicode="&#xaf;" horiz-adv-x="494" 
d="M156 626h341l8 49h-340z" />
    <glyph glyph-name="degree" unicode="&#xb0;" horiz-adv-x="269" 
d="M94 601q-4 -33 6.5 -60t34 -43.5t56.5 -16.5q34 -1 63 15t48.5 43.5t24.5 60.5q4 32 -7 59t-34 43.5t-56 17.5q-34 0 -63.5 -16t-48.5 -43.5t-24 -59.5zM122 600q4 26 19 46.5t38 33.5t49 13q37 -1 56.5 -29t14.5 -64q-5 -25 -20 -46t-37.5 -34t-48.5 -12q-37 0 -57 28
t-14 64z" />
    <glyph glyph-name="plusminus" unicode="&#xb1;" horiz-adv-x="594" 
d="M47 0h469l9 52h-470zM102 359h469l9 52h-470zM348 620l-71 -469l53 -1l74 470h-56z" />
    <glyph glyph-name="uni00B2" unicode="&#xb2;" horiz-adv-x="329" 
d="M47 283h278l6 30l-209 1l175 157q25 24 46 52.5t27 63.5q5 29 -4.5 57t-33 46t-62.5 19q-43 0 -74.5 -20.5t-51.5 -55t-29 -74.5h33q6 31 22 58.5t41 44.5t57 16q27 -1 43.5 -14.5t23 -33.5t2.5 -41q-4 -31 -24 -54t-41 -45z" />
    <glyph glyph-name="uni00B3" unicode="&#xb3;" horiz-adv-x="300" 
d="M193 492q35 2 67 14t54 34.5t28 55.5q4 28 -5.5 52.5t-32 40.5t-54.5 17q-52 0 -86.5 -31.5t-45.5 -76.5l32 -1q9 31 34 55.5t63 23.5q35 -2 51.5 -26t11.5 -54q-5 -25 -22 -43t-41 -27.5t-50 -12.5zM176 275q35 0 65.5 14.5t51.5 40t26 59.5q4 29 -5 50t-27 35t-42 21.5
t-49 9.5l-4 -22q25 -2 48.5 -12.5t37 -29t8.5 -48.5q-6 -38 -36 -63t-72 -24q-43 0 -61.5 24.5t-17.5 60.5h-34q-2 -33 10 -59.5t37 -41.5t64 -15z" />
    <glyph glyph-name="acute" unicode="&#xb4;" horiz-adv-x="354" 
d="M360 671l-44 29l-178 -158l27 -21z" />
    <glyph glyph-name="mu" unicode="&#xb5;" horiz-adv-x="489" 
d="M180 460h-52l-133 -779l50 -1l61 357q12 -21 32.5 -33.5t54.5 -12.5q52 0 91.5 26t63.5 68l-13 -85h51l80 460h-52l-50 -285q-6 -37 -27.5 -67.5t-54.5 -49t-72 -18.5q-35 -1 -54.5 14.5t-26.5 42.5t-3 61z" />
    <glyph glyph-name="paragraph" unicode="&#xb6;" horiz-adv-x="509" 
d="M298 271l-83 -490h45l149 877h83l-149 -877h45l157 919h-174q-64 0 -119 -25.5t-91.5 -73.5t-47.5 -115q-10 -65 12 -112t67 -73.5t106 -29.5z" />
    <glyph glyph-name="periodcentered" unicode="&#xb7;" horiz-adv-x="267" 
d="M111 233q-2 -10 1.5 -18.5t11 -13.5t17.5 -5q9 -1 18 4t16.5 14t8.5 17q1 10 -3 19t-11.5 14t-16.5 6q-9 0 -19 -5t-16.5 -13.5t-6.5 -18.5z" />
    <glyph glyph-name="cedilla" unicode="&#xb8;" horiz-adv-x="339" 
d="M161 35l-94 -134q17 8 35 14.5t35 5.5q13 0 24.5 -6t17 -16t3.5 -24q-2 -18 -14.5 -31t-29.5 -20.5t-34 -7.5q-20 0 -32.5 7.5t-26.5 20.5l-27 -25q19 -19 37.5 -28.5t44.5 -9.5q27 -1 53 10.5t44.5 32.5t21.5 49q2 22 -6 38t-22 25.5t-32 11.5q-10 0 -17 -3t-16 -7
l76 97h-41z" />
    <glyph glyph-name="uni00B9" unicode="&#xb9;" horiz-adv-x="456" 
d="M224 634l97 24l-64 -383h33l74 425l-134 -32z" />
    <glyph glyph-name="ordmasculine" unicode="&#xba;" horiz-adv-x="269" 
d="M91 581q-7 -49 19.5 -84.5t77.5 -35.5q33 -1 62 15.5t48.5 43.5t24.5 60q5 32 -6 59t-34 43.5t-57 17.5q-34 0 -63 -16t-48.5 -43.5t-23.5 -59.5zM118 580q4 26 19.5 46.5t38.5 33.5t48 13q38 -1 57.5 -29t14.5 -64q-5 -25 -20 -46t-38 -34t-48 -12q-38 0 -57.5 28
t-14.5 64z" />
    <glyph glyph-name="guillemotright" unicode="&#xbb;" horiz-adv-x="484" 
d="M251 254l-202 -202l29 -31l230 232l-153 237l-37 -29zM407 254l-202 -202l28 -31l230 232l-152 237l-37 -29z" />
    <glyph glyph-name="onequarter" unicode="&#xbc;" horiz-adv-x="731" 
d="M711 699l-643 -699h44l644 699h-45zM106 634l97 24l-64 -383h33l73 425l-133 -32zM375 85h302l5 28h-78h-7l-191 -1zM410 85l213 255l-40 -238v-4l-17 -98h33l71 420l-14 -1l-282 -333z" />
    <glyph glyph-name="onehalf" unicode="&#xbd;" horiz-adv-x="794" 
d="M711 699l-643 -699h44l644 699h-45zM106 634l97 24l-64 -383h33l73 425l-133 -32zM453 3h279l6 30l-210 1l174 157q26 24 47 52t27 63q5 29 -4.5 57t-33 46.5t-62.5 19.5q-43 0 -75 -20.5t-52 -55t-28 -74.5h33q6 31 22.5 58.5t41.5 44.5t56 15q28 -1 44.5 -14t22 -33
t2.5 -41q-5 -31 -24.5 -54.5t-41.5 -45.5z" />
    <glyph glyph-name="threequarters" unicode="&#xbe;" horiz-adv-x="795" 
d="M776 699l-643 -699h44l644 699h-45zM198 492q35 2 67 14t54 34.5t28 55.5q4 28 -6 52.5t-32 40.5t-55 17q-52 0 -86 -31.5t-45 -76.5l32 -1q8 31 33.5 55.5t63.5 23.5q35 -2 51.5 -26t11.5 -54q-5 -25 -22.5 -43t-41 -27.5t-49.5 -12.5zM181 275q35 0 65.5 14.5t51.5 40
t26 59.5q4 29 -5 50t-27 35t-42 21.5t-49 9.5l-5 -22q26 -2 49.5 -12.5t37 -29t8.5 -48.5q-6 -38 -36.5 -63t-71.5 -24q-44 0 -62.5 24.5t-16.5 60.5h-34q-2 -33 10 -59.5t37 -41.5t64 -15zM440 85h302l5 28h-78h-7l-191 -1zM475 85l213 255l-39 -238l-1 -4l-17 -98h33
l71 420l-14 -1l-282 -333z" />
    <glyph glyph-name="questiondown" unicode="&#xbf;" horiz-adv-x="534" 
d="M123 192q9 42 39.5 78t79.5 59.5t112 25.5h14l15 175h-39l-28 -139q-59 -6 -111 -31.5t-88 -68.5t-45 -98q-7 -41 1.5 -77.5t32 -65t58.5 -44t79 -15.5q51 -1 91.5 14t72.5 41.5t60 59.5l-39 28q-33 -40 -75 -67.5t-99 -26.5q-48 0 -80 20t-45 54.5t-6 77.5zM426 675
q2 15 -7.5 26t-22.5 12q-9 0 -19 -5t-16.5 -13t-6.5 -18q-2 -15 6.5 -26.5t22.5 -11.5q10 -1 19 4t16 14.5t8 17.5z" />
    <glyph glyph-name="Agrave" unicode="&#xc0;" horiz-adv-x="617" 
d="M148 236l350 -1l-9 52h-316zM384 600l78 -334l2 -13l58 -253h59l-175 728l-426 -728h62l147 257l8 12zM314 941l148 -154l30 19l-127 161z" />
    <glyph glyph-name="Aacute" unicode="&#xc1;" horiz-adv-x="617" 
d="M148 236l350 -1l-9 52h-316zM384 600l78 -334l2 -13l58 -253h59l-175 728l-426 -728h62l147 257l8 12zM571 938l-43 29l-181 -158l27 -21z" />
    <glyph glyph-name="Acircumflex" unicode="&#xc2;" horiz-adv-x="617" 
d="M148 236l350 -1l-9 52h-316zM384 600l78 -334l2 -13l58 -253h59l-175 728l-426 -728h62l147 257l8 12zM432 874l105 -110l35 25l-133 141l-178 -138l28 -28z" />
    <glyph glyph-name="Atilde" unicode="&#xc3;" horiz-adv-x="617" 
d="M148 236l350 -1l-9 52h-316zM384 600l78 -334l2 -13l58 -253h59l-175 728l-426 -728h62l147 257l8 12zM274 808l32 -24q4 10 11 21t18.5 19.5t30.5 9.5q21 0 36 -11t32 -23t41 -12q21 -1 39 8t32.5 24t26.5 31l-27 28q-14 -19 -29.5 -33t-34.5 -14q-17 -1 -30 5.5
t-24.5 16t-24.5 16.5t-33 8q-23 0 -42 -10t-33 -26t-21 -34z" />
    <glyph glyph-name="Adieresis" unicode="&#xc4;" horiz-adv-x="617" 
d="M148 236l350 -1l-9 52h-316zM384 600l78 -334l2 -13l58 -253h59l-175 728l-426 -728h62l147 257l8 12zM485 833q-2 -15 7 -26t23 -11q13 -2 27 9.5t15 25.5q2 15 -7 26.5t-22 12.5q-15 1 -28 -11.5t-15 -25.5zM291 833q-2 -15 7 -26t23 -11q13 -2 27 9.5t15 25.5
q2 15 -7 26.5t-23 12.5t-27.5 -11.5t-14.5 -25.5z" />
    <glyph glyph-name="Aring" unicode="&#xc5;" horiz-adv-x="617" 
d="M148 236l350 -1l-9 52h-316zM384 600l78 -334l2 -13l58 -253h59l-175 728l-426 -728h62l147 257l8 12zM319 803q-4 -27 6 -50t30.5 -36.5t46.5 -13.5q27 -1 52 12.5t42.5 36t21.5 49.5t-6.5 50t-30.5 36.5t-47 14.5q-27 0 -52 -13.5t-42.5 -35.5t-20.5 -50zM353 802
q2 18 14 33.5t29.5 25.5t34.5 9q25 -2 40.5 -22t12.5 -45q-2 -18 -14.5 -34t-30 -25.5t-33.5 -8.5q-24 1 -40.5 21t-12.5 46z" />
    <glyph glyph-name="AE" unicode="&#xc6;" horiz-adv-x="906" 
d="M220 239l288 -1l10 52h-289zM536 700l-558 -700h61l537 674zM479 0h329l10 52h-330zM597 648h321l10 52h-392zM540 359l310 -1l10 52h-311zM568 700l-119 -700h53l121 700h-55z" />
    <glyph glyph-name="Ccedilla" unicode="&#xc7;" horiz-adv-x="664" 
d="M133 350q10 63 39 117.5t72.5 96t99 65t116.5 24.5q44 0 80.5 -10.5t67 -31.5t53.5 -53l13 73q-42 39 -91.5 58.5t-115.5 19.5q-75 0 -140.5 -28.5t-118.5 -77.5t-87.5 -114t-45.5 -139q-11 -70 3 -134.5t50 -115t91.5 -80t128.5 -29.5q71 0 126.5 20.5t104.5 57.5l12 73
q-31 -28 -68 -49.5t-79 -33.5t-90 -11q-61 0 -106.5 25t-73.5 67.5t-39 96.5t-2 113zM345 34l-94 -134q16 8 34.5 14.5t35.5 5.5q13 0 23.5 -6t16.5 -16t4 -24q-2 -18 -14 -31t-28.5 -20.5t-34.5 -7.5q-20 0 -33 7.5t-27 20.5l-26 -25q18 -18 37 -28t45 -10q27 0 53 11
t44 32t22 49q2 22 -6 38t-22 25.5t-32 11.5q-10 0 -17.5 -3t-16.5 -7l77 97h-41z" />
    <glyph glyph-name="Egrave" unicode="&#xc8;" horiz-adv-x="517" 
d="M83 0h338l9 52h-338zM193 649l337 -1l10 52h-338zM144 359l318 -1l9 52h-318zM173 700l-118 -700h53l120 700h-55zM258 923l148 -154l30 19l-127 161z" />
    <glyph glyph-name="Eacute" unicode="&#xc9;" horiz-adv-x="517" 
d="M83 0h338l9 52h-338zM193 649l337 -1l10 52h-338zM144 359l318 -1l9 52h-318zM173 700l-118 -700h53l120 700h-55zM531 920l-43 29l-181 -158l27 -21z" />
    <glyph glyph-name="Ecircumflex" unicode="&#xca;" horiz-adv-x="517" 
d="M83 0h338l9 52h-338zM193 649l337 -1l10 52h-338zM144 359l318 -1l9 52h-318zM173 700l-118 -700h53l120 700h-55zM395 880l104 -110l36 25l-133 141l-179 -138l29 -28z" />
    <glyph glyph-name="Edieresis" unicode="&#xcb;" horiz-adv-x="517" 
d="M83 0h338l9 52h-338zM193 649l337 -1l10 52h-338zM144 359l318 -1l9 52h-318zM173 700l-118 -700h53l120 700h-55zM445 828q-2 -15 7 -26.5t24 -11.5q12 -2 26 10t16 26q1 15 -8 26t-22 12q-15 1 -28 -11t-15 -25zM251 828q-2 -15 7 -26.5t24 -11.5q12 -2 26 10t16 26
q1 15 -8 26t-23 12t-27 -11t-15 -25z" />
    <glyph glyph-name="Igrave" unicode="&#xcc;" horiz-adv-x="212" 
d="M172 700l-119 -700h53l121 700h-55zM100 923l148 -154l31 19l-128 161z" />
    <glyph glyph-name="Iacute" unicode="&#xcd;" horiz-adv-x="212" 
d="M172 700l-119 -700h53l121 700h-55zM373 920l-42 29l-181 -158l25 -21z" />
    <glyph glyph-name="Icircumflex" unicode="&#xce;" horiz-adv-x="212" 
d="M172 700l-119 -700h53l121 700h-55zM231 880l104 -110l36 25l-133 141l-179 -138l29 -28z" />
    <glyph glyph-name="Idieresis" unicode="&#xcf;" horiz-adv-x="212" 
d="M172 700l-119 -700h53l121 700h-55zM267 816q-2 -15 6.5 -26.5t23.5 -11.5q14 -2 28 10t16 26q1 15 -8.5 26t-22.5 12q-15 1 -28.5 -11t-14.5 -25zM96 816q-1 -15 7.5 -26.5t23.5 -11.5q13 -2 27 10t16 26q1 15 -8.5 26t-22.5 12q-15 1 -28 -11t-15 -25z" />
    <glyph glyph-name="Eth" unicode="&#xd0;" horiz-adv-x="659" 
d="M33 325l292 -1l9 49h-292zM173 700l-118 -700h53l120 700h-55zM241 0q102 2 185 47.5t137 124t70 178.5q14 95 -14.5 174t-95.5 126.5t-167 49.5h-153l-11 -55h158q64 -1 111 -25t76.5 -64t40 -93t1.5 -113q-11 -64 -39.5 -117t-72 -92.5t-99.5 -62t-121 -23.5h-154
l-10 -55h158z" />
    <glyph glyph-name="Ntilde" unicode="&#xd1;" horiz-adv-x="709" 
d="M675 700l-100 -586l-412 612l-125 -726h55l99 585l412 -611l125 726h-54zM310 780l32 -24q4 10 11 21.5t19 19.5t29 9q22 0 37.5 -11.5t32.5 -23t40 -11.5q21 -1 39.5 8t32.5 24t25 31l-27 28q-13 -19 -28 -33t-35 -14q-17 -1 -30 5.5t-24.5 16t-25 16.5t-32.5 8
q-23 0 -42 -10t-32.5 -26t-21.5 -34z" />
    <glyph glyph-name="Ograve" unicode="&#xd2;" horiz-adv-x="759" 
d="M132 350q10 63 39.5 117.5t74 96.5t100.5 66t120 24q63 -1 110 -26t75.5 -68t39.5 -97t3 -113q-11 -63 -40.5 -117.5t-73.5 -96.5t-100 -66t-120 -23q-63 0 -110 25t-76 68t-40 97t-2 113zM75 350q-11 -70 3.5 -134t51 -115t93 -80.5t131.5 -29.5t142 28t120.5 78
t88.5 115t47 138q10 70 -4.5 134t-51 115t-93.5 80.5t-131 29.5q-76 0 -143 -28t-120 -78t-88 -115t-46 -138zM388 923l148 -154l31 19l-128 161z" />
    <glyph glyph-name="Oacute" unicode="&#xd3;" horiz-adv-x="759" 
d="M132 350q10 63 39.5 117.5t74 96.5t100.5 66t120 24q63 -1 110 -26t75.5 -68t39.5 -97t3 -113q-11 -63 -40.5 -117.5t-73.5 -96.5t-100 -66t-120 -23q-63 0 -110 25t-76 68t-40 97t-2 113zM75 350q-11 -70 3.5 -134t51 -115t93 -80.5t131.5 -29.5t142 28t120.5 78
t88.5 115t47 138q10 70 -4.5 134t-51 115t-93.5 80.5t-131 29.5q-76 0 -143 -28t-120 -78t-88 -115t-46 -138zM634 920l-44 29l-180 -158l27 -21z" />
    <glyph glyph-name="Ocircumflex" unicode="&#xd4;" horiz-adv-x="759" 
d="M132 350q10 63 39.5 117.5t74 96.5t100.5 66t120 24q63 -1 110 -26t75.5 -68t39.5 -97t3 -113q-11 -63 -40.5 -117.5t-73.5 -96.5t-100 -66t-120 -23q-63 0 -110 25t-76 68t-40 97t-2 113zM75 350q-11 -70 3.5 -134t51 -115t93 -80.5t131.5 -29.5t142 28t120.5 78
t88.5 115t47 138q10 70 -4.5 134t-51 115t-93.5 80.5t-130 29.5q-77 0 -143.5 -28t-120 -78t-88.5 -115t-46 -138zM505 880l105 -110l36 25l-133 141l-179 -138l29 -28z" />
    <glyph glyph-name="Otilde" unicode="&#xd5;" horiz-adv-x="759" 
d="M132 350q10 63 39.5 117.5t74 96.5t100.5 66t120 24q63 -1 110 -26t75.5 -68t39.5 -97t3 -113q-11 -63 -40.5 -117.5t-73.5 -96.5t-100 -66t-120 -23q-63 0 -110 25t-76 68t-40 97t-2 113zM75 350q-11 -70 3.5 -134t51 -115t93 -80.5t131.5 -29.5t142 28t120.5 78
t88.5 115t47 138q10 70 -4.5 134t-51 115t-93.5 80.5t-130 29.5q-77 0 -143.5 -28t-120 -78t-88.5 -115t-46 -138zM345 802l31 -24q5 10 12 21.5t18.5 19.5t29.5 9q21 0 37 -11.5t32.5 -23t40.5 -11.5q21 -1 39 8t32.5 24t25.5 31l-27 28q-13 -19 -28.5 -33t-34.5 -14
q-18 -1 -30.5 5.5t-24.5 16t-25 16.5t-32 8q-19 0 -41 -10t-38 -26t-17 -34z" />
    <glyph glyph-name="Odieresis" unicode="&#xd6;" horiz-adv-x="759" 
d="M132 350q10 63 39.5 117.5t74 96.5t100.5 66t120 24q63 -1 110 -26t75.5 -68t39.5 -97t3 -113q-11 -63 -40.5 -117.5t-73.5 -96.5t-100 -66t-120 -23q-63 0 -110 25t-76 68t-40 97t-2 113zM75 350q-11 -70 3.5 -134t51 -115t93 -80.5t131.5 -29.5t142 28t120.5 78
t88.5 115t47 138q10 70 -4.5 134t-51 115t-93.5 80.5t-131 29.5q-76 0 -143 -28t-120 -78t-88 -115t-46 -138zM557 820q-2 -15 7.5 -26.5t23.5 -11.5q14 -2 27.5 10t14.5 26q2 15 -7.5 26t-22.5 12q-14 1 -28 -11t-15 -25zM355 820q-1 -15 8 -26.5t23 -11.5q14 -2 27.5 10
t15.5 26q1 15 -8 26t-23 12t-28 -11t-15 -25z" />
    <glyph glyph-name="multiply" unicode="&#xd7;" horiz-adv-x="570" 
d="M84 32l213 189l150 -189l40 35l-154 187l218 186l-30 38l-215 -189l-149 189l-40 -34l154 -188l-218 -186z" />
    <glyph glyph-name="Oslash" unicode="&#xd8;" horiz-adv-x="766" 
d="M132 350q10 63 39.5 117.5t74 96.5t100.5 66t120 24q63 -1 110 -26t75.5 -68t39.5 -97t3 -113q-11 -63 -40.5 -117.5t-73.5 -96.5t-100 -66t-120 -23q-63 0 -110 25t-76 68t-40 97t-2 113zM75 350q-11 -70 3.5 -134t51 -115t93 -80.5t131.5 -29.5t142 28t120.5 78
t88.5 115t47 138q10 70 -4.5 134t-51 115t-93.5 80.5t-130 29.5q-77 0 -143.5 -28t-120 -78t-88.5 -115t-46 -138zM776 743l-758 -758l34 -27l759 758z" />
    <glyph glyph-name="Ugrave" unicode="&#xd9;" horiz-adv-x="587" 
d="M169 700l-81 -474q-6 -47 1.5 -90t30 -75.5t59 -51t89.5 -18.5q52 0 95.5 17.5t76 50t54 75.5t30.5 92l81 474h-54l-82 -474q-9 -52 -34.5 -93.5t-66.5 -66t-95 -23.5q-53 0 -84 25t-42.5 67t-4.5 91l81 474h-54zM296 923l148 -154l30 19l-127 161z" />
    <glyph glyph-name="Uacute" unicode="&#xda;" horiz-adv-x="587" 
d="M169 700l-81 -474q-6 -47 1.5 -90t30 -75.5t59 -51t89.5 -18.5q52 0 95.5 17.5t76 50t54 75.5t30.5 92l81 474h-54l-82 -474q-9 -52 -34.5 -93.5t-66.5 -66t-95 -23.5q-53 0 -84 25t-42.5 67t-4.5 91l81 474h-54zM553 920l-43 29l-181 -158l27 -21z" />
    <glyph glyph-name="Ucircumflex" unicode="&#xdb;" horiz-adv-x="587" 
d="M169 700l-81 -474q-6 -47 1.5 -90t30 -75.5t59 -51t89.5 -18.5q52 0 95.5 17.5t76 50t54 75.5t30.5 92l81 474h-54l-82 -474q-9 -52 -34.5 -93.5t-66.5 -66t-95 -23.5q-53 0 -84 25t-42.5 67t-4.5 91l81 474h-54zM419 880l104 -110l36 25l-133 141l-179 -138l29 -28z" />
    <glyph glyph-name="Udieresis" unicode="&#xdc;" horiz-adv-x="587" 
d="M169 700l-81 -474q-6 -47 1.5 -90t30 -75.5t59 -51t89.5 -18.5q52 0 95.5 17.5t76 50t54 75.5t30.5 92l81 474h-54l-82 -474q-9 -52 -34.5 -93.5t-66.5 -66t-95 -23.5q-53 0 -84 25t-42.5 67t-4.5 91l81 474h-54zM462 808q-2 -15 7 -26.5t24 -11.5q12 -2 26 10t16 26
q1 15 -8 26t-22 12q-15 1 -28 -11t-15 -25zM276 808q-2 -15 6.5 -26.5t23.5 -11.5q13 -2 27 10t16 26q1 15 -8 26t-23 12t-27.5 -11t-14.5 -25z" />
    <glyph glyph-name="Yacute" unicode="&#xdd;" horiz-adv-x="523" 
d="M529 920l-43 29l-181 -158l26 -21zM546 700l-256 -360l-129 360h-59l154 -411l-51 -289h54l50 287l300 413h-63z" />
    <glyph glyph-name="Thorn" unicode="&#xde;" horiz-adv-x="521" 
d="M170 700l-119 -700h53l121 700h-55zM165 508h146q49 -2 85.5 -21t54.5 -53.5t10 -83.5q-8 -48 -38 -83t-74 -54.5t-94 -20.5h-142l-10 -52h146q66 1 122.5 27t95 72.5t48.5 110.5q9 62 -14.5 109t-72 73.5t-111.5 27.5h-142z" />
    <glyph glyph-name="germandbls" unicode="&#xdf;" horiz-adv-x="551" 
d="M320 -11q42 0 78 16t63 45t42 67.5t15 82.5q0 39 -11 65t-28.5 43t-37 29.5t-37 23t-28 22.5t-10.5 30q0 22 16.5 39t40 34t47.5 37.5t40.5 51.5t16.5 77q0 44 -20.5 76t-56 49t-81.5 17q-61 0 -107.5 -27t-75.5 -71.5t-38 -99.5l-100 -597h53l99 586q8 50 30 85.5
t55.5 55.5t75.5 20q31 0 57 -11t40.5 -33t14.5 -54q0 -36 -16.5 -62.5t-41 -46.5t-49 -38.5t-41 -39t-16.5 -48.5q0 -26 11 -43t29 -30t37.5 -25t37 -28t29 -38.5t11.5 -55.5q0 -42 -18.5 -77.5t-50 -56.5t-71.5 -21q-22 0 -44.5 6.5t-41.5 18.5t-35 27l-32 -38
q17 -19 40 -33t51 -22t58 -8z" />
    <glyph glyph-name="agrave" unicode="&#xe0;" horiz-adv-x="451" 
d="M81 135q5 35 27 59t55.5 36t71.5 13q41 0 72.5 -12.5t58.5 -32.5l6 31q-13 13 -31.5 25.5t-44 21t-59.5 8.5q-49 0 -94.5 -18t-76.5 -52.5t-38 -83.5q-7 -43 9 -74.5t47.5 -48t73.5 -16.5q48 -1 87.5 19t66 54.5t36.5 76.5l-6 31q-10 -39 -33.5 -70t-57.5 -48t-77 -16
q-30 0 -53 10.5t-34 32.5t-6 54zM133 369q19 13 41.5 26t49.5 21t57 7q31 0 51 -12.5t29 -34t7 -50.5l-58 -326h52l56 326q6 43 -8.5 75t-46 50t-77.5 19q-53 0 -95.5 -19t-76.5 -40zM179 692l149 -154l30 19l-128 161z" />
    <glyph glyph-name="aacute" unicode="&#xe1;" horiz-adv-x="451" 
d="M81 135q5 35 27 59t55.5 36t71.5 13q41 0 72.5 -12.5t58.5 -32.5l6 31q-13 13 -31.5 25.5t-44 21t-59.5 8.5q-49 0 -94.5 -18t-76.5 -52.5t-38 -83.5q-7 -43 9 -74.5t47.5 -48t73.5 -16.5q48 -1 87.5 19t66 54.5t36.5 76.5l-6 31q-10 -39 -33.5 -70t-57.5 -48t-77 -16
q-30 0 -53 10.5t-34 32.5t-6 54zM133 369q19 13 41.5 26t49.5 21t57 7q31 0 51 -12.5t29 -34t7 -50.5l-58 -326h52l56 326q6 43 -8.5 75t-46 50t-77.5 19q-53 0 -95.5 -19t-76.5 -40zM464 689l-44 29l-180 -158l27 -21z" />
    <glyph glyph-name="acircumflex" unicode="&#xe2;" horiz-adv-x="451" 
d="M81 135q5 35 27 59t55.5 36t71.5 13q41 0 72.5 -12.5t58.5 -32.5l6 31q-13 13 -31.5 25.5t-44 21t-59.5 8.5q-49 0 -94.5 -18t-76.5 -52.5t-38 -83.5q-7 -43 9 -74.5t47.5 -48t73.5 -16.5q48 -1 87.5 19t66 54.5t36.5 76.5l-6 31q-10 -39 -33.5 -70t-57.5 -48t-77 -16
q-30 0 -53 10.5t-34 32.5t-6 54zM133 369q19 13 41.5 26t49.5 21t57 7q31 0 51 -12.5t29 -34t7 -50.5l-58 -326h52l56 326q6 43 -8.5 75t-46 50t-77.5 19q-53 0 -95.5 -19t-76.5 -40zM319 645l105 -110l36 25l-134 141l-178 -138l29 -28z" />
    <glyph glyph-name="atilde" unicode="&#xe3;" horiz-adv-x="451" 
d="M81 135q5 35 27 59t55.5 36t71.5 13q41 0 72.5 -12.5t58.5 -32.5l6 31q-13 13 -31.5 25.5t-44 21t-59.5 8.5q-49 0 -94.5 -18t-76.5 -52.5t-38 -83.5q-7 -43 9 -74.5t47.5 -48t73.5 -16.5q48 -1 87.5 19t66 54.5t36.5 76.5l-6 31q-10 -39 -33.5 -70t-57.5 -48t-77 -16
q-30 0 -53 10.5t-34 32.5t-6 54zM133 369q19 13 41.5 26t49.5 21t57 7q31 0 51 -12.5t29 -34t7 -50.5l-58 -326h52l56 326q6 43 -8.5 75t-46 50t-77.5 19q-53 0 -95.5 -19t-76.5 -40zM157 575l31 -24q4 10 11 21.5t19 19.5t30 9q21 0 36.5 -11.5t32.5 -23t40 -11.5
q21 -1 39 8t33 24t25 31l-26 28q-14 -19 -29 -33t-35 -14q-17 -1 -30 5.5t-25 16t-25 16.5t-32 8q-23 0 -42 -10t-32.5 -26t-20.5 -34z" />
    <glyph glyph-name="adieresis" unicode="&#xe4;" horiz-adv-x="451" 
d="M81 135q5 35 27 59t55.5 36t71.5 13q41 0 72.5 -12.5t58.5 -32.5l6 31q-13 13 -31.5 25.5t-44 21t-59.5 8.5q-49 0 -94.5 -18t-76.5 -52.5t-38 -83.5q-7 -43 9 -74.5t47.5 -48t73.5 -16.5q48 -1 87.5 19t66 54.5t36.5 76.5l-6 31q-10 -39 -33.5 -70t-57.5 -48t-77 -16
q-30 0 -53 10.5t-34 32.5t-6 54zM133 369q19 13 41.5 26t49.5 21t57 7q31 0 51 -12.5t29 -34t7 -50.5l-58 -326h52l56 326q6 43 -8.5 75t-46 50t-77.5 19q-53 0 -95.5 -19t-76.5 -40zM356 576q-2 -15 6.5 -26t22.5 -11q14 -2 27.5 9.5t15.5 25.5q2 15 -7.5 26.5t-22.5 12.5
q-15 1 -28 -11.5t-14 -25.5zM177 576q-2 -15 6.5 -26t23.5 -11q13 -2 27 9.5t15 25.5q1 15 -7.5 26.5t-22.5 12.5t-27 -11.5t-15 -25.5z" />
    <glyph glyph-name="aring" unicode="&#xe5;" horiz-adv-x="451" 
d="M81 135q5 35 27 59t55.5 36t71.5 13q41 0 72.5 -12.5t58.5 -32.5l6 31q-13 13 -31.5 25.5t-44 21t-59.5 8.5q-49 0 -94.5 -18t-76.5 -52.5t-38 -83.5q-7 -43 9 -74.5t47.5 -48t73.5 -16.5q48 -1 87.5 19t66 54.5t36.5 76.5l-6 31q-10 -39 -33.5 -70t-57.5 -48t-77 -16
q-30 0 -53 10.5t-34 32.5t-6 54zM133 369q19 13 41.5 26t49.5 21t57 7q31 0 51 -12.5t29 -34t7 -50.5l-58 -326h52l56 326q6 43 -8.5 75t-46 50t-77.5 19q-53 0 -95.5 -19t-76.5 -40zM216 631q-4 -27 6.5 -50t30.5 -36.5t47 -13.5q26 -1 51 12.5t42.5 36t21.5 49.5t-6.5 50
t-30.5 36.5t-47 14.5q-26 0 -51.5 -13.5t-43 -35.5t-20.5 -50zM250 630q2 18 14.5 33.5t29.5 25.5t34 9q25 -2 40.5 -22t12.5 -45q-2 -18 -14.5 -34t-30 -25.5t-33.5 -8.5q-25 1 -40.5 21t-12.5 46z" />
    <glyph glyph-name="ae" unicode="&#xe6;" horiz-adv-x="808" 
d="M173 -10q74 0 124 39t71 108h-11q13 -73 57 -110t118 -37q63 0 123.5 30t99.5 87l-41 27q-32 -46 -79.5 -70.5t-100.5 -24.5q-51 0 -83 25t-44.5 68t-3.5 97l-15 -12h391q3 11 6.5 22t4.5 26q3 61 -18.5 107t-61.5 72t-93 26q-51 0 -96 -20.5t-78.5 -55.5t-51.5 -78
l14 10q12 71 -21.5 107.5t-101.5 36.5q-46 0 -91 -16t-83 -45l26 -40q22 18 46.5 30t50.5 18.5t50 6.5q46 0 69.5 -27.5t16.5 -81.5l-14 -84l25 1q-37 28 -72 40t-76 12q-58 0 -104 -21t-73 -57t-30 -81q-3 -57 35.5 -96t114.5 -39zM183 37q-55 0 -82.5 24t-24.5 70
q2 34 23.5 59t56 39t76.5 14q38 0 70 -9.5t55 -27.5l-6 19l-2 -84l6 53q-20 -78 -64 -117.5t-108 -39.5zM404 238q12 54 40 96t69.5 66t91.5 24q47 0 77 -21t43.5 -58t9.5 -85q0 -6 -0.5 -9.5t-2.5 -6.5l18 18h-361z" />
    <glyph glyph-name="ccedilla" unicode="&#xe7;" horiz-adv-x="467" 
d="M97 230q8 53 38 96t75 68.5t99 26.5q32 0 59 -9.5t48 -26.5t32 -39l11 65q-24 26 -62 42.5t-83 16.5q-69 -1 -126.5 -33t-95 -86t-47.5 -121q-10 -63 10.5 -118t66.5 -88t113 -33q48 0 90.5 16.5t72.5 41.5l11 64q-18 -19 -44 -36t-57.5 -27.5t-66.5 -9.5q-52 0 -87 27
t-50 70.5t-7 92.5zM233 33l-95 -134q16 8 34.5 14.5t35.5 5.5q13 0 24 -6t16.5 -16t3.5 -24q-2 -18 -14 -31t-28.5 -20t-33.5 -7q-20 0 -33 7.5t-28 20.5l-26 -26q18 -18 37 -28t46 -10q26 0 52 11t44 32t22 49q2 22 -5.5 38t-22 25.5t-32.5 11.5q-10 0 -17.5 -2.5
t-15.5 -6.5l76 96h-40z" />
    <glyph glyph-name="egrave" unicode="&#xe8;" horiz-adv-x="493" 
d="M82 218h387q1 6 2.5 12t2.5 12q7 60 -11 112t-57.5 83.5t-101.5 32.5q-56 0 -103 -24t-82 -64.5t-52 -90.5q-7 -14 -10 -29t-6 -31q-7 -61 9.5 -115.5t57 -89.5t104.5 -35q53 -1 93 15t71.5 43t57.5 57l-38 28q-20 -25 -45 -46.5t-57 -35t-72 -12.5q-51 0 -81.5 27.5
t-41.5 71t-5 92.5l5 18q8 50 35 89t68 62.5t88 23.5q46 -1 74 -24t40 -60t7 -78h-332zM197 689l150 -153l30 19l-129 161z" />
    <glyph glyph-name="eacute" unicode="&#xe9;" horiz-adv-x="493" 
d="M82 218h387q1 6 2.5 12t2.5 12q7 60 -11 112t-57.5 83.5t-101.5 32.5q-56 0 -103 -24t-82 -64.5t-52 -90.5q-7 -14 -10 -29t-6 -31q-7 -61 9.5 -115.5t57 -89.5t104.5 -35q53 -1 93 15t71.5 43t57.5 57l-38 28q-20 -25 -45 -46.5t-57 -35t-72 -12.5q-51 0 -81.5 27.5
t-41.5 71t-5 92.5l5 18q8 50 35 89t68 62.5t88 23.5q46 -1 74 -24t40 -60t7 -78h-332zM496 687l-44 28l-179 -158l26 -20z" />
    <glyph glyph-name="ecircumflex" unicode="&#xea;" horiz-adv-x="493" 
d="M82 218h387q1 6 2.5 12t2.5 12q7 60 -11 112t-57.5 83.5t-101.5 32.5q-56 0 -103 -24t-82 -64.5t-52 -90.5q-7 -14 -10 -29t-6 -31q-7 -61 9.5 -115.5t57 -89.5t104.5 -35q53 -1 93 15t71.5 43t57.5 57l-38 28q-20 -25 -45 -46.5t-57 -35t-72 -12.5q-51 0 -81.5 27.5
t-41.5 71t-5 92.5l5 18q8 50 35 89t68 62.5t88 23.5q46 -1 74 -24t40 -60t7 -78h-332zM335 641l105 -110l35 25l-133 141l-178 -138l28 -28z" />
    <glyph glyph-name="edieresis" unicode="&#xeb;" horiz-adv-x="493" 
d="M82 218h387q1 6 2.5 12t2.5 12q7 60 -11 112t-57.5 83.5t-101.5 32.5q-56 0 -103 -24t-82 -64.5t-52 -90.5q-7 -14 -10 -29t-6 -31q-7 -61 9.5 -115.5t57 -89.5t104.5 -35q53 -1 93 15t71.5 43t57.5 57l-38 28q-20 -25 -45 -46.5t-57 -35t-72 -12.5q-51 0 -81.5 27.5
t-41.5 71t-5 92.5l5 18q8 50 35 89t68 62.5t88 23.5q46 -1 74 -24t40 -60t7 -78h-332zM381 568q-2 -16 7.5 -26.5t23.5 -10.5q13 -2 27 9.5t15 25.5q2 15 -7.5 26.5t-22.5 12.5q-15 1 -28.5 -11.5t-14.5 -25.5zM187 568q-2 -16 7 -26.5t24 -10.5q13 -2 27 9.5t15 25.5
q2 15 -7.5 26.5t-22.5 12.5q-15 1 -28.5 -11.5t-14.5 -25.5z" />
    <glyph glyph-name="igrave" unicode="&#xec;" horiz-adv-x="225" 
d="M138 460l-77 -460h50l79 460h-52zM51 696l148 -154l30 19l-127 161z" />
    <glyph glyph-name="iacute" unicode="&#xed;" horiz-adv-x="225" 
d="M138 460l-77 -460h50l79 460h-52zM359 693l-44 29l-180 -158l26 -21z" />
    <glyph glyph-name="icircumflex" unicode="&#xee;" horiz-adv-x="225" 
d="M138 460l-77 -460h50l79 460h-52zM197 647l106 -110l35 25l-133 141l-179 -138l29 -28z" />
    <glyph glyph-name="idieresis" unicode="&#xef;" horiz-adv-x="225" 
d="M138 460l-77 -460h50l79 460h-52zM239 586q-1 -15 7.5 -26t23.5 -11q13 -2 26.5 9.5t15.5 25.5q1 15 -8 26.5t-23 12.5t-27 -11.5t-15 -25.5zM61 586q-2 -15 7 -26t23 -11q13 -2 27 9.5t15 25.5q2 15 -7.5 26.5t-22.5 12.5q-15 1 -28 -11.5t-14 -25.5z" />
    <glyph glyph-name="eth" unicode="&#xf0;" horiz-adv-x="560" 
d="M253 -10q58 0 105.5 23t82.5 62t54.5 89t18.5 104q0 33 -7 66t-23 70t-44.5 82t-70 101t-98.5 128l-33 -36q42 -50 72.5 -89t53.5 -73t40 -68.5t35 -75.5l25 1q-36 38 -76 56.5t-90 18.5q-45 0 -89.5 -19.5t-80 -54t-56.5 -80t-21 -99.5q0 -62 24.5 -109t70 -72
t107.5 -25zM253 40q-44 0 -78 19.5t-52.5 54t-18.5 82.5q0 42 16.5 80t46 68t66 47t74.5 17q47 0 81 -19t52.5 -54t18.5 -81q0 -40 -16 -78.5t-44 -68.5t-65.5 -48.5t-80.5 -18.5zM228 510l273 108l-13 32l-273 -108z" />
    <glyph glyph-name="ntilde" unicode="&#xf1;" horiz-adv-x="489" 
d="M180 460h-52l-80 -460h52zM386 296l-50 -296h50l52 302q6 46 -3.5 84t-37 61t-76.5 23q-50 0 -91 -26.5t-68.5 -69.5t-37.5 -93h24q9 36 30.5 68t53.5 52t72 20q38 -1 56.5 -18t24 -45.5t1.5 -61.5zM169 563l32 -24q4 10 11 21.5t18.5 19.5t30.5 9q21 0 36.5 -11.5
t32.5 -23t40 -11.5q21 -1 39 8t32.5 24t26.5 31l-27 28q-14 -19 -29.5 -33t-33.5 -14q-18 -1 -31 5.5t-24.5 16t-25 16.5t-32.5 8q-23 0 -42 -10t-32.5 -26t-21.5 -34z" />
    <glyph glyph-name="ograve" unicode="&#xf2;" horiz-adv-x="533" 
d="M49 230q-9 -63 11.5 -118t66.5 -88t113 -33q68 0 125 32t95.5 86.5t48.5 120.5q9 64 -11.5 118.5t-67 88t-112.5 33.5q-68 0 -125.5 -32.5t-95.5 -87t-48 -120.5zM102 230q8 53 38 96t75 69t98 26q52 -1 87 -28t49.5 -70t7.5 -93q-8 -52 -38.5 -95.5t-75.5 -69.5t-98 -25
q-52 0 -87 26.5t-49.5 70.5t-6.5 93zM212 696l149 -154l30 19l-128 161z" />
    <glyph glyph-name="oacute" unicode="&#xf3;" horiz-adv-x="533" 
d="M49 230q-9 -63 11.5 -118t66.5 -88t113 -33q68 0 125 32t95.5 86.5t48.5 120.5q9 64 -11.5 118.5t-67 88t-112.5 33.5q-68 0 -125.5 -32.5t-95.5 -87t-48 -120.5zM102 230q8 53 38 96t75 69t98 26q52 -1 87 -28t49.5 -70t7.5 -93q-8 -52 -38.5 -95.5t-75.5 -69.5t-98 -25
q-52 0 -87 26.5t-49.5 70.5t-6.5 93zM505 693l-43 29l-181 -158l27 -21z" />
    <glyph glyph-name="ocircumflex" unicode="&#xf4;" horiz-adv-x="533" 
d="M49 230q-9 -63 11.5 -118t66.5 -88t113 -33q68 0 125 32t95.5 86.5t48.5 120.5q9 64 -11.5 118.5t-67 88t-112.5 33.5q-68 0 -125.5 -32.5t-95.5 -87t-48 -120.5zM102 230q8 53 38 96t75 69t98 26q52 -1 87 -28t49.5 -70t7.5 -93q-8 -52 -38.5 -95.5t-75.5 -69.5t-98 -25
q-52 0 -87 26.5t-49.5 70.5t-6.5 93zM354 661l105 -110l36 25l-133 141l-179 -138l29 -28z" />
    <glyph glyph-name="otilde" unicode="&#xf5;" horiz-adv-x="533" 
d="M49 230q-9 -63 11.5 -118t66.5 -88t113 -33q68 0 125 32t95.5 86.5t48.5 120.5q9 64 -11.5 118.5t-67 88t-112.5 33.5q-68 0 -125.5 -32.5t-95.5 -87t-48 -120.5zM102 230q8 53 38 96t75 69t98 26q52 -1 87 -28t49.5 -70t7.5 -93q-8 -52 -38.5 -95.5t-75.5 -69.5t-98 -25
q-52 0 -87 26.5t-49.5 70.5t-6.5 93zM191 563l31 -24q4 10 11 21t19 19.5t30 9.5q21 0 36.5 -11t32.5 -23t40 -12q22 -1 40 8t32.5 24t25.5 31l-27 28q-13 -19 -28.5 -33t-34.5 -14q-18 -1 -31 5.5t-24.5 16t-25 16.5t-32.5 8q-17 0 -40 -10t-40 -26t-15 -34z" />
    <glyph glyph-name="odieresis" unicode="&#xf6;" horiz-adv-x="533" 
d="M49 230q-9 -63 11.5 -118t66.5 -88t113 -33q68 0 125 32t95.5 86.5t48.5 120.5q9 64 -11.5 118.5t-67 88t-112.5 33.5q-68 0 -125.5 -32.5t-95.5 -87t-48 -120.5zM102 230q8 53 38 96t75 69t98 26q52 -1 87 -28t49.5 -70t7.5 -93q-8 -52 -38.5 -95.5t-75.5 -69.5t-98 -25
q-52 0 -87 26.5t-49.5 70.5t-6.5 93zM403 594q-2 -15 6.5 -26t23.5 -11q13 -2 26.5 9.5t15.5 25.5q1 15 -8 26.5t-22 12.5q-15 1 -28 -11.5t-14 -25.5zM209 594q-2 -15 6.5 -26t23.5 -11q13 -2 26.5 9.5t15.5 25.5q1 15 -8 26.5t-22 12.5q-15 1 -28 -11.5t-14 -25.5z" />
    <glyph glyph-name="divide" unicode="&#xf7;" horiz-adv-x="604" 
d="M315 451q-2 -10 1.5 -18.5t11 -13.5t17.5 -5q9 -1 18.5 4t16 14t7.5 17q1 10 -2.5 19t-11 14t-16.5 6q-9 0 -19 -5t-16.5 -13.5t-6.5 -18.5zM247 55q0 -10 3.5 -18.5t10.5 -13.5t17 -5q8 -1 18 4t16.5 14t7.5 17q1 10 -2.5 19t-11 14t-16.5 6q-10 0 -19 -5t-15.5 -13.5
t-8.5 -18.5zM70 230l487 -1l9 52h-486z" />
    <glyph glyph-name="oslash" unicode="&#xf8;" horiz-adv-x="529" 
d="M49 230q-9 -63 11.5 -118t66.5 -88t113 -33q68 0 125 32t95.5 86.5t48.5 120.5q9 64 -11.5 118.5t-67 88t-112.5 33.5q-68 0 -125.5 -32.5t-95.5 -87t-48 -120.5zM102 230q8 53 38 96t75 69t98 26q52 -1 87 -28t49.5 -70t7.5 -93q-8 -52 -38.5 -95.5t-75.5 -69.5t-98 -25
q-52 0 -87 26.5t-49.5 70.5t-6.5 93zM491 496l-468 -521l30 -15l467 522z" />
    <glyph glyph-name="ugrave" unicode="&#xf9;" horiz-adv-x="489" 
d="M335 0h51l80 460h-52zM129 168l50 292h-50l-52 -298q-6 -47 3 -86t36.5 -62t76.5 -23q51 0 92 26t68.5 69.5t37.5 92.5h-25q-8 -36 -30 -68.5t-54 -52t-72 -18.5q-37 0 -56 17.5t-24 47t-1 63.5zM206 700l148 -154l32 19l-128 161z" />
    <glyph glyph-name="uacute" unicode="&#xfa;" horiz-adv-x="489" 
d="M335 0h51l80 460h-52zM129 168l50 292h-50l-52 -298q-6 -47 3 -86t36.5 -62t76.5 -23q51 0 92 26t68.5 69.5t37.5 92.5h-25q-8 -36 -30 -68.5t-54 -52t-72 -18.5q-37 0 -56 17.5t-24 47t-1 63.5zM468 697l-43 29l-180 -158l26 -21z" />
    <glyph glyph-name="ucircumflex" unicode="&#xfb;" horiz-adv-x="489" 
d="M335 0h51l80 460h-52zM129 168l50 292h-50l-52 -298q-6 -47 3 -86t36.5 -62t76.5 -23q51 0 92 26t68.5 69.5t37.5 92.5h-25q-8 -36 -30 -68.5t-54 -52t-72 -18.5q-37 0 -56 17.5t-24 47t-1 63.5zM331 657l105 -110l36 25l-134 141l-178 -138l29 -28z" />
    <glyph glyph-name="udieresis" unicode="&#xfc;" horiz-adv-x="489" 
d="M335 0h51l80 460h-52zM129 168l50 292h-50l-52 -298q-6 -47 3 -86t36.5 -62t76.5 -23q51 0 92 26t68.5 69.5t37.5 92.5h-25q-8 -36 -30 -68.5t-54 -52t-72 -18.5q-37 0 -56 17.5t-24 47t-1 63.5zM372 588q-3 -15 5.5 -26t23.5 -11q14 -2 28 9.5t16 25.5q1 15 -8.5 26.5
t-22.5 12.5q-15 1 -28 -11t-14 -26zM193 588q-2 -15 6.5 -26t23.5 -11q13 -2 27.5 9.5t15.5 25.5q1 15 -8 26.5t-23 12.5t-27.5 -11t-14.5 -26z" />
    <glyph glyph-name="yacute" unicode="&#xfd;" horiz-adv-x="420" 
d="M471 460h-59l-224 -389l24 -3l-96 392h-60l111 -411l-163 -268h59zM439 693l-44 29l-179 -158l26 -21z" />
    <glyph glyph-name="thorn" unicode="&#xfe;" 
d="M59 -219l170 999h-51l-172 -1000zM516 230q9 63 -9.5 118.5t-61 88.5t-106.5 33q-46 -1 -85 -20.5t-69 -53.5t-49 -77t-25 -89q-6 -43 -0.5 -85.5t23.5 -77.5t49.5 -56t78.5 -21q64 0 118 31.5t90 86t46 122.5zM466 230q-9 -54 -38.5 -97t-73 -68.5t-94.5 -24.5
q-35 0 -61 16.5t-41.5 44t-21.5 61t-1 68.5q5 37 22.5 71t43.5 61.5t59 43t68 15.5q51 0 84 -26.5t46.5 -70t7.5 -94.5z" />
    <glyph glyph-name="ydieresis" unicode="&#xff;" horiz-adv-x="420" 
d="M471 460h-59l-224 -389l24 -3l-96 392h-60l111 -411l-163 -268h59zM335 576q-2 -15 7 -26t23 -11q14 -2 28 9.5t15 25.5q2 15 -7.5 26.5t-22.5 12.5q-15 1 -28 -11.5t-15 -25.5zM157 576q-2 -15 6.5 -26t23.5 -11q13 -2 27 9.5t16 25.5q1 15 -8 26.5t-23 12.5
t-27.5 -11.5t-14.5 -25.5z" />
    <glyph glyph-name="Amacron" unicode="&#x100;" horiz-adv-x="617" 
d="M148 236l350 -1l-9 52h-316zM384 600l78 -334l2 -13l58 -253h59l-175 728l-426 -728h62l147 257l8 12zM248 796l341 -1l8 49h-340z" />
    <glyph glyph-name="amacron" unicode="&#x101;" horiz-adv-x="451" 
d="M81 135q5 35 27 59t55.5 36t71.5 13q41 0 72.5 -12.5t58.5 -32.5l6 31q-13 13 -31.5 25.5t-44 21t-59.5 8.5q-49 0 -94.5 -18t-76.5 -52.5t-38 -83.5q-7 -43 9 -74.5t47.5 -48t73.5 -16.5q48 -1 87.5 19t66 54.5t36.5 76.5l-6 31q-10 -39 -33.5 -70t-57.5 -48t-77 -16
q-30 0 -53 10.5t-34 32.5t-6 54zM133 369q19 13 41.5 26t49.5 21t57 7q31 0 51 -12.5t29 -34t7 -50.5l-58 -326h52l56 326q6 43 -8.5 75t-46 50t-77.5 19q-53 0 -95.5 -19t-76.5 -40zM132 551l341 -1l9 49h-341z" />
    <glyph glyph-name="Abreve" unicode="&#x102;" horiz-adv-x="617" 
d="M148 236l350 -1l-9 52h-316zM384 600l78 -334l2 -13l58 -253h59l-175 728l-426 -728h62l147 257l8 12zM287 931q-3 -37 10 -68.5t43.5 -51t78.5 -19.5t84 19.5t59 51t33 67.5l-47 1q-8 -23 -24 -45.5t-41 -37t-61 -13.5q-34 0 -54 14t-28.5 36t-6.5 46h-46z" />
    <glyph glyph-name="abreve" unicode="&#x103;" horiz-adv-x="451" 
d="M81 135q5 35 27 59t55.5 36t71.5 13q41 0 72.5 -12.5t58.5 -32.5l6 31q-13 13 -31.5 25.5t-44 21t-59.5 8.5q-49 0 -94.5 -18t-76.5 -52.5t-38 -83.5q-7 -43 9 -74.5t47.5 -48t73.5 -16.5q48 -1 87.5 19t66 54.5t36.5 76.5l-6 31q-10 -39 -33.5 -70t-57.5 -48t-77 -16
q-30 0 -53 10.5t-34 32.5t-6 54zM133 369q19 13 41.5 26t49.5 21t57 7q31 0 51 -12.5t29 -34t7 -50.5l-58 -326h52l56 326q6 43 -8.5 75t-46 50t-77.5 19q-53 0 -95.5 -19t-76.5 -40zM165 674q-3 -37 10 -68.5t43.5 -51t78.5 -19.5t84 19.5t59.5 51t32.5 67.5l-47 1
q-8 -23 -24 -45.5t-40.5 -37t-60.5 -13.5q-34 0 -54.5 14t-29 36t-6.5 46h-46z" />
    <glyph glyph-name="Aogonek" unicode="&#x104;" horiz-adv-x="617" 
d="M149 236l349 -1l-9 52h-315zM384 600l78 -334l2 -13l58 -253h59l-175 728l-426 -728h62l147 257l8 12zM572 -147q-12 -10 -30 -19t-39 -7q-27 1 -42 15.5t-12 41.5q4 26 26 48t51 38.5t56 29.5l-25 19q-33 -17 -68.5 -37.5t-61 -47t-31.5 -61.5q-4 -29 7 -49.5t34.5 -32
t56.5 -10.5q30 0 54 11.5t41 26.5z" />
    <glyph glyph-name="aogonek" unicode="&#x105;" horiz-adv-x="451" 
d="M81 135q5 35 27 59t55.5 36t71.5 13q41 0 72.5 -12.5t58.5 -32.5l6 31q-13 13 -31.5 25.5t-44 20.5t-59.5 9q-50 0 -95 -17.5t-76 -51.5t-38 -81q-6 -45 10 -77t47 -49t73 -17q48 -1 87.5 19t66 54.5t36.5 76.5l-6 31q-10 -39 -33.5 -70t-57.5 -48t-77 -16q-28 0 -51 11
t-35 32.5t-7 53.5zM133 369q19 13 41.5 26t49.5 21t57 7q31 0 51 -12.5t29 -34t7 -50.5l-58 -326h52l56 326q6 43 -8.5 75t-46 50t-77.5 19q-53 0 -95.5 -19t-76.5 -40zM353 -147q-12 -10 -30.5 -19t-38.5 -7q-27 1 -42 15.5t-12 41.5q4 26 26 48t51 38.5t56 29.5l-25 19
q-33 -17 -68.5 -37.5t-61.5 -47t-31 -61.5q-4 -29 7 -49.5t34.5 -32t56.5 -10.5q29 0 53.5 11.5t41.5 26.5z" />
    <glyph glyph-name="Cacute" unicode="&#x106;" horiz-adv-x="664" 
d="M133 350q10 63 39 117.5t72.5 96t99 65t116.5 24.5q44 0 80.5 -10.5t67 -31.5t53.5 -53l13 73q-42 39 -91.5 58.5t-115.5 19.5q-75 0 -140.5 -28.5t-118.5 -77.5t-87.5 -114t-45.5 -139q-11 -70 3 -134.5t50 -115t91.5 -80t128.5 -29.5q71 0 126.5 20.5t104.5 57.5l12 73
q-31 -28 -68 -49.5t-79 -33.5t-90 -11q-61 0 -106.5 25t-73.5 67.5t-39 96.5t-2 113zM633 920l-42 29l-181 -158l27 -21z" />
    <glyph glyph-name="cacute" unicode="&#x107;" horiz-adv-x="467" 
d="M97 230q8 53 38 96t75 68.5t99 26.5q32 0 59 -9.5t48 -26.5t32 -39l11 65q-24 26 -62 42.5t-83 16.5q-69 -1 -126.5 -33t-95 -86t-47.5 -121q-10 -63 10.5 -118t66.5 -88t113 -33q48 0 90.5 16.5t72.5 41.5l11 64q-18 -19 -44 -36t-57.5 -27.5t-66.5 -9.5q-52 0 -87 27
t-50 70.5t-7 92.5zM485 685l-44 29l-180 -158l27 -21z" />
    <glyph glyph-name="Ccircumflex" unicode="&#x108;" horiz-adv-x="664" 
d="M133 350q10 63 39 117.5t72.5 96t99 65t116.5 24.5q44 0 80.5 -10.5t67 -31.5t53.5 -53l13 73q-42 39 -91.5 58.5t-115.5 19.5q-75 0 -140.5 -28.5t-118.5 -77.5t-87.5 -114t-45.5 -139q-11 -70 3 -134.5t50 -115t91.5 -80t128.5 -29.5q71 0 126.5 20.5t104.5 57.5l12 73
q-31 -28 -68 -49.5t-79 -33.5t-90 -11q-61 0 -106.5 25t-73.5 67.5t-39 96.5t-2 113zM500 880l104 -110l36 25l-133 141l-179 -138l29 -28z" />
    <glyph glyph-name="ccircumflex" unicode="&#x109;" horiz-adv-x="467" 
d="M97 230q8 53 38 96t75 68.5t99 26.5q32 0 59 -9.5t48 -26.5t32 -39l11 65q-24 26 -62 42.5t-83 16.5q-69 -1 -126.5 -33t-95 -86t-47.5 -121q-10 -63 10.5 -118t66.5 -88t113 -33q48 0 90.5 16.5t72.5 41.5l11 64q-18 -19 -44 -36t-57.5 -27.5t-66.5 -9.5q-52 0 -87 27
t-50 70.5t-7 92.5zM346 641l105 -110l36 25l-134 141l-179 -138l30 -28z" />
    <glyph glyph-name="Cdotaccent" unicode="&#x10a;" horiz-adv-x="664" 
d="M133 350q10 63 39 117.5t72.5 96t99 65t116.5 24.5q44 0 80.5 -10.5t67 -31.5t53.5 -53l13 73q-42 39 -91.5 58.5t-115.5 19.5q-75 0 -140.5 -28.5t-118.5 -77.5t-87.5 -114t-45.5 -139q-11 -70 3 -134.5t50 -115t91.5 -80t128.5 -29.5q71 0 126.5 20.5t104.5 57.5l12 73
q-31 -28 -68 -49.5t-79 -33.5t-90 -11q-61 0 -106.5 25t-73.5 67.5t-39 96.5t-2 113zM451 812q-3 -15 6 -26.5t23 -11.5q14 -2 27.5 10t14.5 26q2 15 -7 26t-22 12q-15 1 -28 -11t-14 -25z" />
    <glyph glyph-name="cdotaccent" unicode="&#x10b;" horiz-adv-x="467" 
d="M97 230q8 53 38 96t75 68.5t99 26.5q32 0 59 -9.5t48 -26.5t32 -39l11 65q-24 26 -62 42.5t-83 16.5q-69 -1 -126.5 -33t-95 -86t-47.5 -121q-10 -63 10.5 -118t66.5 -88t113 -33q48 0 90.5 16.5t72.5 41.5l11 64q-18 -19 -44 -36t-57.5 -27.5t-66.5 -9.5q-52 0 -87 27
t-50 70.5t-7 92.5zM297 572q-2 -15 6.5 -26t23.5 -11q13 -2 26.5 9.5t15.5 25.5q2 15 -7.5 26.5t-22.5 12.5q-15 1 -28 -11.5t-14 -25.5z" />
    <glyph glyph-name="Ccaron" unicode="&#x10c;" horiz-adv-x="664" 
d="M133 350q10 63 39 117.5t72.5 96t99 65t116.5 24.5q44 0 80.5 -10.5t67 -31.5t53.5 -53l13 73q-42 39 -91.5 58.5t-115.5 19.5q-75 0 -140.5 -28.5t-118.5 -77.5t-87.5 -114t-45.5 -139q-11 -70 3 -134.5t50 -115t91.5 -80t128.5 -29.5q71 0 126.5 20.5t104.5 57.5l12 73
q-31 -28 -68 -49.5t-79 -33.5t-90 -11q-61 0 -106.5 25t-73.5 67.5t-39 96.5t-2 113zM488 830l-104 110l-36 -26l133 -141l178 139l-28 28z" />
    <glyph glyph-name="ccaron" unicode="&#x10d;" horiz-adv-x="467" 
d="M97 230q8 53 38 96t75 68.5t99 26.5q32 0 59 -9.5t48 -26.5t32 -39l11 65q-24 26 -62 42.5t-83 16.5q-69 -1 -126.5 -33t-95 -86t-47.5 -121q-10 -63 10.5 -118t66.5 -88t113 -33q48 0 90.5 16.5t72.5 41.5l11 64q-18 -19 -44 -36t-57.5 -27.5t-66.5 -9.5q-52 0 -87 27
t-50 70.5t-7 92.5zM335 595l-105 110l-36 -26l134 -141l179 139l-29 28z" />
    <glyph glyph-name="Dcaron" unicode="&#x10e;" horiz-adv-x="642" 
d="M173 700l-118 -700h53l120 700h-55zM241 0q102 2 185 47.5t137 124t70 178.5q14 95 -14.5 174t-95.5 126.5t-167 49.5h-153l-11 -55h158q65 -1 111.5 -25t76 -64t40 -92.5t1.5 -113.5q-11 -64 -39.5 -117.5t-72 -92.5t-99 -61.5t-121.5 -23.5h-154l-10 -55h158zM430 838
l-105 110l-35 -26l133 -141l179 139l-30 28z" />
    <glyph glyph-name="dcaron" unicode="&#x10f;" horiz-adv-x="553" 
d="M524 780l-132 -780h50l135 780h-53zM49 230q-9 -64 10 -119t61.5 -88t106.5 -32q46 0 85 19.5t68.5 53.5t49 77t26.5 89q6 43 0 85.5t-24 77.5t-49.5 56t-77.5 21q-64 1 -118.5 -31t-91 -87t-46.5 -122zM102 230q8 53 37 97t72.5 69.5t94.5 24.5q35 -1 61 -17.5t41.5 -44
t21.5 -61.5t2 -68q-7 -37 -24.5 -71t-43.5 -61.5t-58.5 -42.5t-67.5 -15q-50 0 -83 26.5t-47 69.5t-6 94zM719 773l-137 -255l36 -13l150 247z" />
    <glyph glyph-name="Dcroat" unicode="&#x110;" horiz-adv-x="659" 
d="M33 325l292 -1l9 49h-292zM173 700l-118 -700h53l120 700h-55zM241 0q102 2 185 47.5t137 124t70 178.5q14 95 -14.5 174t-95.5 126.5t-167 49.5h-153l-11 -55h158q64 -1 111 -25t76.5 -64t40 -93t1.5 -113q-11 -64 -39.5 -117t-72 -92.5t-99.5 -62t-121 -23.5h-154
l-10 -55h158z" />
    <glyph glyph-name="dcroat" unicode="&#x111;" 
d="M364 617l292 -1l9 49h-292zM524 780l-132 -780h50l135 780h-53zM49 230q-9 -64 10 -118.5t61.5 -88t106.5 -32.5q45 0 84 19t69 53t49.5 77t26.5 90q6 44 0.5 86.5t-24 77t-50.5 55.5t-77 21q-64 1 -118.5 -31t-91 -86.5t-46.5 -122.5zM102 230q8 53 37 97t72.5 69.5
t94.5 24.5q35 -1 61 -18t42 -45t21.5 -61t1.5 -67q-7 -37 -24 -70.5t-43.5 -60.5t-58.5 -43t-68 -16q-50 0 -83 26.5t-47 69.5t-6 94z" />
    <glyph glyph-name="Emacron" unicode="&#x112;" horiz-adv-x="517" 
d="M83 0h338l9 52h-338zM193 649l337 -1l10 52h-338zM144 359l318 -1l9 52h-318zM173 700l-118 -700h53l120 700h-55zM210 797l341 -1l9 49h-341z" />
    <glyph glyph-name="emacron" unicode="&#x113;" horiz-adv-x="493" 
d="M82 218h387q1 6 2.5 12t2.5 12q7 60 -11 112t-57.5 83.5t-101.5 32.5q-56 0 -103 -24t-82 -64.5t-52 -90.5q-7 -14 -10 -29t-6 -31q-7 -61 9.5 -115.5t57 -89.5t104.5 -35q53 -1 93 15t71.5 43t57.5 57l-38 28q-20 -25 -45 -46.5t-57 -35t-72 -12.5q-51 0 -81.5 27.5
t-41.5 71t-5 92.5l5 18q8 50 35 89t68 62.5t88 23.5q46 -1 74 -24t40 -60t7 -78h-332zM145 531l340 -1l9 49h-340z" />
    <glyph glyph-name="Ebreve" unicode="&#x114;" horiz-adv-x="517" 
d="M83 0h338l9 52h-338zM193 649l337 -1l10 52h-338zM144 359l318 -1l9 52h-318zM173 700l-118 -700h53l120 700h-55zM242 909q-3 -37 10.5 -68.5t43.5 -51t78 -19.5t84.5 19.5t59.5 51t32 67.5l-47 1q-8 -23 -24 -45.5t-40.5 -37t-59.5 -13.5q-35 0 -55.5 14t-29 36
t-6.5 46h-46z" />
    <glyph glyph-name="ebreve" unicode="&#x115;" horiz-adv-x="493" 
d="M82 218h387q1 6 2.5 12t2.5 12q7 60 -11 112t-57.5 83.5t-101.5 32.5q-56 0 -103 -24t-82 -64.5t-52 -90.5q-7 -14 -10 -29t-6 -31q-7 -61 9.5 -115.5t57 -89.5t104.5 -35q53 -1 93 15t71.5 43t57.5 57l-38 28q-20 -25 -45 -46.5t-57 -35t-72 -12.5q-51 0 -81.5 27.5
t-41.5 71t-5 92.5l5 18q8 50 35 89t68 62.5t88 23.5q46 -1 74 -24t40 -60t7 -78h-332zM181 670q-3 -37 10 -68.5t43.5 -51t78.5 -19.5q49 0 84.5 19.5t58.5 51t33 67.5l-47 1q-8 -24 -24 -46.5t-40.5 -36.5t-60.5 -13q-34 0 -55 13.5t-29.5 36t-7.5 46.5h-44z" />
    <glyph glyph-name="Edotaccent" unicode="&#x116;" horiz-adv-x="517" 
d="M83 0h338l9 52h-338zM193 649l337 -1l10 52h-338zM144 359l318 -1l9 52h-318zM173 700l-118 -700h53l120 700h-55zM339 808q-2 -15 6.5 -26.5t23.5 -11.5q13 -2 27 10t16 26q1 15 -8 26t-23 12t-27 -11t-15 -25z" />
    <glyph glyph-name="edotaccent" unicode="&#x117;" horiz-adv-x="493" 
d="M82 218h387q1 6 2.5 12t2.5 12q7 60 -11 112t-57.5 83.5t-101.5 32.5q-56 0 -103 -24t-82 -64.5t-52 -90.5q-7 -14 -10 -29t-6 -31q-7 -61 9.5 -115.5t57 -89.5t104.5 -35q53 -1 93 15t71.5 43t57.5 57l-38 28q-20 -25 -45 -46.5t-57 -35t-72 -12.5q-51 0 -81.5 27.5
t-41.5 71t-5 92.5l5 18q8 50 35 89t68 62.5t88 23.5q46 -1 74 -24t40 -60t7 -78h-332zM284 568q-2 -16 7 -26.5t24 -10.5q13 -2 27 9.5t15 25.5q2 15 -7.5 26.5t-22.5 12.5q-14 1 -28 -11.5t-15 -25.5z" />
    <glyph glyph-name="Eogonek" unicode="&#x118;" horiz-adv-x="517" 
d="M83 0h338l9 52h-338zM193 649l337 -1l10 52h-338zM144 359l318 -1l9 52h-318zM173 700l-118 -700h53l120 700h-55zM341 -147q-13 -10 -31 -19t-39 -7q-26 1 -41 15.5t-12 41.5q4 26 25.5 48t51 38.5t55.5 29.5l-24 19q-34 -17 -69.5 -37.5t-61 -47t-31.5 -61.5
q-4 -29 7 -49.5t34.5 -32t56.5 -10.5q29 0 53.5 11.5t41.5 26.5z" />
    <glyph glyph-name="eogonek" unicode="&#x119;" horiz-adv-x="493" 
d="M82 218h387q1 6 2.5 12t2.5 12q7 60 -11 112t-57.5 83.5t-101.5 32.5q-56 0 -103 -24t-82 -64.5t-52 -90.5q-7 -14 -10 -29t-6 -31q-7 -61 9.5 -115.5t57 -89.5t104.5 -35q53 -1 93 15t71.5 43t57.5 57l-38 28q-20 -25 -45 -46.5t-57 -35t-72 -12.5q-51 0 -81.5 27.5
t-41.5 71t-5 92.5l5 18q8 50 35 89t68 62.5t88 23.5q46 -1 74 -24t40 -60t7 -78h-332zM239 -149q-13 -9 -31 -18t-39 -8q-26 1 -41.5 16t-12.5 42q4 27 25.5 47t51 36t55.5 28l-25 20q-34 -17 -69 -37t-60 -45.5t-31 -60.5q-4 -28 7.5 -49t35 -32t55.5 -11q30 0 54 12t41 27
z" />
    <glyph glyph-name="Ecaron" unicode="&#x11a;" horiz-adv-x="517" 
d="M83 0h338l9 52h-338zM193 649l337 -1l10 52h-338zM144 359l318 -1l9 52h-318zM173 700l-118 -700h53l120 700h-55zM377 826l-105 110l-36 -26l134 -141l178 139l-29 28z" />
    <glyph glyph-name="ecaron" unicode="&#x11b;" horiz-adv-x="493" 
d="M82 218h387q1 6 2.5 12t2.5 12q7 60 -11 112t-57.5 83.5t-101.5 32.5q-56 0 -103 -24t-82 -64.5t-52 -90.5q-7 -14 -10 -29t-6 -31q-7 -61 9.5 -115.5t57 -89.5t104.5 -35q53 -1 93 15t71.5 43t57.5 57l-38 28q-20 -25 -45 -46.5t-57 -35t-72 -12.5q-51 0 -81.5 27.5
t-41.5 71t-5 92.5l5 18q8 50 35 89t68 62.5t88 23.5q46 -1 74 -24t40 -60t7 -78h-332zM319 587l-105 110l-35 -27l133 -140l179 139l-30 27z" />
    <glyph glyph-name="Gcircumflex" unicode="&#x11c;" horiz-adv-x="748" 
d="M421 297h245q-16 -49 -43.5 -93.5t-66.5 -80t-87.5 -56.5t-107.5 -20q-63 0 -109.5 25t-76.5 67.5t-41 96.5t-2 114q10 63 39.5 118.5t74.5 97t101.5 64.5t119.5 24q77 0 133 -34t84 -95l44 33q-25 48 -62 82t-85.5 51.5t-106.5 17.5q-77 0 -144 -28t-120.5 -77
t-88.5 -114t-46 -140q-11 -71 3.5 -135.5t51.5 -115t93.5 -79.5t131.5 -29q77 0 140.5 29.5t112.5 80t80.5 115t44.5 133.5h-302zM506 880l105 -110l36 25l-134 141l-178 -138l29 -28z" />
    <glyph glyph-name="gcircumflex" unicode="&#x11d;" 
d="M16 -30q-6 -56 13 -101.5t60 -72t103 -25.5q63 0 116.5 30.5t89.5 84.5t47 124l77 450h-51l-78 -450q-9 -56 -37 -99t-69 -67.5t-90 -23.5q-46 0 -76.5 20.5t-43.5 54.5t-9 75h-52zM49 230q-9 -64 10 -119t61.5 -88t106.5 -32q46 0 85 19.5t68.5 53.5t49 77t26.5 89
q6 43 0 85.5t-24 77.5t-49.5 56t-77.5 21q-64 1 -118.5 -31t-91 -87t-46.5 -122zM102 230q8 53 37 97t72.5 69.5t94.5 24.5q34 -1 60 -17.5t42 -44t22 -60.5t2 -67q-6 -38 -24 -72.5t-44 -61.5t-58 -42.5t-68 -15.5q-50 0 -83 26.5t-47 69.5t-6 94zM338 641l104 -110l36 25
l-133 141l-179 -138l29 -28z" />
    <glyph glyph-name="Gbreve" unicode="&#x11e;" horiz-adv-x="748" 
d="M421 297h245q-16 -49 -43.5 -93.5t-66.5 -80t-87.5 -56.5t-107.5 -20q-63 0 -109.5 25t-76.5 67.5t-41 96.5t-2 114q10 63 39.5 118.5t74.5 97t101.5 64.5t119.5 24q77 0 133 -34t84 -95l44 33q-25 48 -62 82t-85.5 51.5t-106.5 17.5q-77 0 -144 -28t-120.5 -77
t-88.5 -114t-46 -140q-11 -71 3.5 -135.5t51.5 -115t93.5 -79.5t131.5 -29q77 0 140.5 29.5t112.5 80t80.5 115t44.5 133.5h-302zM356 909q-3 -37 10 -68.5t43 -51t78 -19.5q49 0 85 19.5t59 51t33 67.5l-47 1q-8 -23 -24 -45.5t-40.5 -37t-59.5 -13.5q-35 0 -55.5 14
t-29 36t-6.5 46h-46z" />
    <glyph glyph-name="gbreve" unicode="&#x11f;" 
d="M16 -30q-6 -56 13 -101.5t60 -72t103 -25.5q63 0 116.5 30.5t89.5 84.5t47 124l77 450h-51l-78 -450q-9 -56 -37 -99t-69 -67.5t-90 -23.5q-46 0 -76.5 20.5t-43.5 54.5t-9 75h-52zM49 230q-9 -64 10 -119t61.5 -88t106.5 -32q46 0 85 19.5t68.5 53.5t49 77t26.5 89
q6 43 0 85.5t-24 77.5t-49.5 56t-77.5 21q-64 1 -118.5 -31t-91 -87t-46.5 -122zM102 230q8 53 37 97t72.5 69.5t94.5 24.5q34 -1 60 -17.5t42 -44t22 -60.5t2 -67q-6 -38 -24 -72.5t-44 -61.5t-58 -42.5t-68 -15.5q-50 0 -83 26.5t-47 69.5t-6 94zM187 670q-3 -37 10 -68.5
t43 -51t78 -19.5q49 0 85 19.5t59 51t33 67.5l-47 1q-8 -23 -24 -45.5t-40.5 -37t-60.5 -13.5q-34 0 -54.5 14t-29 36t-6.5 46h-46z" />
    <glyph glyph-name="Gdotaccent" unicode="&#x120;" horiz-adv-x="748" 
d="M421 297h245q-16 -49 -43.5 -93.5t-66.5 -80t-87.5 -56.5t-107.5 -20q-63 0 -109.5 25t-76.5 67.5t-41 96.5t-2 114q10 63 39.5 118.5t74.5 97t101.5 64.5t119.5 24q77 0 133 -34t84 -95l44 33q-25 48 -62 82t-85.5 51.5t-106.5 17.5q-77 0 -144 -28t-120.5 -77
t-88.5 -114t-46 -140q-11 -71 3.5 -135.5t51.5 -115t93.5 -79.5t131.5 -29q77 0 140.5 29.5t112.5 80t80.5 115t44.5 133.5h-302zM456 808q-1 -15 7.5 -26.5t23.5 -11.5q13 -2 26.5 10t15.5 26q1 15 -8 26t-23 12t-27 -11t-15 -25z" />
    <glyph glyph-name="gdotaccent" unicode="&#x121;" 
d="M16 -30q-6 -56 13 -101.5t60 -72t103 -25.5q63 0 116.5 30.5t89.5 84.5t47 124l77 450h-51l-78 -450q-9 -56 -37 -99t-69 -67.5t-90 -23.5q-46 0 -76.5 20.5t-43.5 54.5t-9 75h-52zM49 230q-9 -64 10 -119t61.5 -88t106.5 -32q46 0 85 19.5t68.5 53.5t49 77t26.5 89
q6 43 0 85.5t-24 77.5t-49.5 56t-77.5 21q-64 1 -118.5 -31t-91 -87t-46.5 -122zM102 230q8 53 37 97t72.5 69.5t94.5 24.5q34 -1 60 -17.5t42 -44t22 -60.5t2 -67q-6 -38 -24 -72.5t-44 -61.5t-58 -42.5t-68 -15.5q-50 0 -83 26.5t-47 69.5t-6 94zM304 592q-2 -15 6.5 -26
t23.5 -11q13 -2 26.5 9.5t15.5 25.5q1 15 -7.5 26.5t-22.5 12.5t-27.5 -11.5t-14.5 -25.5z" />
    <glyph glyph-name="uni0122" unicode="&#x122;" horiz-adv-x="748" 
d="M421 297h245q-16 -49 -43.5 -93.5t-66.5 -80t-87.5 -56.5t-107.5 -20q-63 0 -109.5 25t-76.5 67.5t-41 96.5t-2 114q10 63 39.5 118.5t74.5 97t101.5 64.5t119.5 24q77 0 133 -34t84 -95l44 33q-25 48 -62 82t-85.5 51.5t-106.5 17.5q-77 0 -144 -28t-120.5 -77
t-88.5 -114t-46 -140q-11 -71 3.5 -135.5t51.5 -115t93.5 -79.5t131.5 -29q77 0 140.5 29.5t112.5 80t80.5 115t44.5 133.5h-302zM362 -70l-136 -255l36 -13l151 247z" />
    <glyph glyph-name="uni0123" unicode="&#x123;" horiz-adv-x="553" 
d="M16 -30q-6 -56 13 -101.5t61 -72t103 -25.5q64 0 117 30.5t89 84.5t47 124l77 450h-53l-77 -450q-9 -56 -37.5 -99t-69.5 -67.5t-90 -23.5q-47 0 -77 20.5t-42.5 54.5t-9.5 75h-51zM49 230q-9 -64 10 -119t62 -88t107 -32q46 0 85 19.5t68.5 53.5t48.5 77t26 89
q6 43 0 86t-24 77.5t-50 55.5t-79 21q-64 1 -118 -31t-90.5 -87t-45.5 -122zM102 230q8 53 38 97t73 69.5t94 24.5q35 -1 60.5 -17.5t41 -44t21.5 -61t1 -66.5q-6 -38 -23.5 -72.5t-44 -61.5t-58.5 -42.5t-67 -15.5q-51 0 -83.5 26.5t-46 69.5t-6.5 94zM334 554l169 237
l-33 20l-182 -227z" />
    <glyph glyph-name="Hcircumflex" unicode="&#x124;" horiz-adv-x="666" 
d="M143 356l459 -1l9 52h-459zM624 700l-119 -700h54l121 700h-56zM173 700l-118 -700h53l120 700h-55zM459 880l104 -110l36 25l-133 141l-179 -138l29 -28z" />
    <glyph glyph-name="hcircumflex" unicode="&#x125;" horiz-adv-x="489" 
d="M234 780h-51l-134 -780h51zM386 296l-50 -296h50l52 302q6 46 -3.5 84t-37 61t-76.5 23q-50 0 -91 -26.5t-68.5 -69.5t-37.5 -93h24q9 36 30.5 68t53.5 52t72 20q38 -1 56.5 -18t24 -45.5t1.5 -61.5zM246 951l104 -110l36 25l-133 141l-179 -138l29 -28z" />
    <glyph glyph-name="Hbar" unicode="&#x126;" horiz-adv-x="666" 
d="M143 356h460l9 51h-460zM623 700l-118 -700h54l121 700h-57zM173 700l-118 -700h53l121 700h-56zM74 567h660l8 48h-659z" />
    <glyph glyph-name="hbar" unicode="&#x127;" horiz-adv-x="509" 
d="M235 780h-53l-134 -780h52zM386 296l-50 -296h50l52 302q6 46 -3.5 84t-37.5 61t-77 23q-50 -1 -89.5 -27.5t-65.5 -69t-36 -91.5l20 -1q8 36 30 68t54 52t73 19q36 -1 55 -18t24 -45t1 -61zM89 652h304l8 48h-304z" />
    <glyph glyph-name="Itilde" unicode="&#x128;" horiz-adv-x="212" 
d="M172 700l-119 -700h53l121 700h-55zM77 819l32 -24q4 10 11.5 21.5t19 19.5t29.5 9q21 0 37 -11.5t32.5 -23t40.5 -11.5q20 -1 38.5 8t33 24t25.5 31l-27 28q-14 -19 -29 -33t-34 -14q-18 -1 -31 5.5t-24.5 16t-25 16.5t-32.5 8q-23 0 -42 -10t-32.5 -26t-21.5 -34z" />
    <glyph glyph-name="itilde" unicode="&#x129;" horiz-adv-x="225" 
d="M138 460l-77 -460h50l79 460h-52zM43 579l32 -24q4 10 11.5 21.5t19 19.5t29.5 9q21 0 37 -11.5t32.5 -23t39.5 -11.5q21 -1 39.5 8t33 24t25.5 31l-27 28q-14 -19 -29 -33t-34 -14q-18 -1 -31 5.5t-24.5 16t-25 16.5t-32.5 8q-23 0 -42 -10t-32.5 -26t-21.5 -34z" />
    <glyph glyph-name="Imacron" unicode="&#x12a;" horiz-adv-x="212" 
d="M172 700l-119 -700h53l121 700h-55zM58 797l340 -1l10 49h-341z" />
    <glyph glyph-name="imacron" unicode="&#x12b;" horiz-adv-x="225" 
d="M138 460l-77 -460h50l79 460h-52zM24 557l340 -1l9 49h-340z" />
    <glyph glyph-name="Ibreve" unicode="&#x12c;" horiz-adv-x="212" 
d="M172 700l-119 -700h53l121 700h-55zM81 910q-4 -37 9.5 -68.5t43.5 -51t78 -19.5q49 0 85 19.5t58.5 51t32.5 67.5l-47 1q-8 -23 -24 -45.5t-40.5 -37t-59.5 -13.5q-35 0 -55.5 14t-29 36t-6.5 46h-45z" />
    <glyph glyph-name="ibreve" unicode="&#x12d;" horiz-adv-x="225" 
d="M138 460l-77 -460h50l79 460h-52zM46 670q-3 -37 10 -68.5t43.5 -51t78.5 -19.5q49 0 84.5 19.5t58.5 51t33 67.5l-47 1q-8 -23 -24 -45.5t-40.5 -37t-59.5 -13.5q-36 0 -56 14t-28.5 36t-7.5 46h-45z" />
    <glyph glyph-name="Iogonek" unicode="&#x12e;" horiz-adv-x="212" 
d="M172 700l-119 -700h53l121 700h-55zM97 -147q-12 -10 -30.5 -19t-39.5 -7q-26 1 -41.5 15.5t-11.5 41.5q3 26 25 48t51.5 38.5t56.5 29.5l-25 19q-34 -17 -69 -37.5t-61 -47t-31 -61.5q-4 -29 7 -49.5t34.5 -32t55.5 -10.5q30 0 54 11.5t42 26.5z" />
    <glyph glyph-name="iogonek" unicode="&#x12f;" horiz-adv-x="225" 
d="M163 669q-2 -15 6.5 -26t23.5 -11q15 -2 28 10t14 25q2 14 -7 25.5t-23 12.5q-15 1 -28 -11.5t-14 -24.5zM138 460l-77 -460h50l79 460h-52zM102 -147q-12 -10 -30.5 -19t-39.5 -7q-26 1 -41.5 15.5t-11.5 41.5q3 26 25 48t51 38.5t57 29.5l-25 19q-34 -17 -69.5 -37.5
t-61 -47t-30.5 -61.5q-5 -29 6.5 -49.5t35 -32t55.5 -10.5q30 0 54 11.5t42 26.5z" />
    <glyph glyph-name="Idotaccent" unicode="&#x130;" horiz-adv-x="212" 
d="M172 700l-119 -700h53l121 700h-55zM181 810q-2 -15 7 -26t23 -11q14 -2 28 9.5t15 25.5q2 15 -7.5 26.5t-22.5 12.5q-15 1 -28.5 -11.5t-14.5 -25.5z" />
    <glyph glyph-name="dotlessi" unicode="&#x131;" horiz-adv-x="225" 
d="M138 460l-77 -460h50l79 460h-52z" />
    <glyph glyph-name="IJ" unicode="&#x132;" horiz-adv-x="475" 
d="M105 -126l-35 -41q10 -13 26.5 -25t37 -19.5t44.5 -7.5q35 -1 63 10t48 32.5t33 51t19 65.5l130 760h-52l-129 -750q-8 -53 -33.5 -85t-70.5 -33q-28 0 -47.5 12t-33.5 30zM172 700l-119 -700h53l121 700h-55z" />
    <glyph glyph-name="ij" unicode="&#x133;" horiz-adv-x="494" 
d="M406 669q-3 -15 5.5 -26t24.5 -11q14 -2 27 10t15 25q1 14 -7.5 25.5t-22.5 12.5q-15 1 -28 -11.5t-14 -24.5zM153 -134l-34 -42q8 -11 19.5 -21t26 -16t33.5 -6q43 -1 73 19.5t47.5 55t24.5 75.5l90 529h-52l-89 -523q-4 -25 -14 -49.5t-27.5 -40.5t-43.5 -15
q-10 0 -20 6.5t-18 14t-16 13.5zM163 669q-2 -15 6.5 -26t23.5 -11q15 -2 28 10t14 25q2 14 -7 25.5t-23 12.5q-15 1 -28 -11.5t-14 -24.5zM138 460l-77 -460h50l79 460h-52z" />
    <glyph glyph-name="Jcircumflex" unicode="&#x134;" horiz-adv-x="215" 
d="M-138 -126l-34 -41q9 -13 25.5 -25t37.5 -19.5t45 -7.5q35 -1 62.5 10t47.5 32.5t33.5 51t19.5 65.5l129 760h-52l-129 -750q-7 -53 -33 -85t-71 -33q-27 0 -47 12t-34 30zM235 880l104 -110l36 25l-133 141l-179 -138l28 -28z" />
    <glyph glyph-name="jcircumflex" unicode="&#x135;" horiz-adv-x="215" 
d="M-99 -134l-34 -42q8 -11 19.5 -21t26 -16t33.5 -6q42 -1 72.5 19.5t48 55t24.5 75.5l90 529h-52l-89 -523q-4 -26 -14 -50t-27.5 -39.5t-43.5 -15.5q-18 0 -31 10t-23 24zM187 641l104 -110l36 25l-133 141l-179 -138l29 -28z" />
    <glyph glyph-name="uni0136" unicode="&#x136;" horiz-adv-x="504" 
d="M172 700l-119 -700h53l120 700h-54zM505 700l-351 -327l249 -373h66l-250 371l358 329h-72zM270 -61l-135 -255l35 -13l150 247z" />
    <glyph glyph-name="uni0137" unicode="&#x137;" horiz-adv-x="399" 
d="M177 780l-132 -780h50l135 780h-53zM364 460l-241 -188l184 -272h62l-183 269l246 191h-68zM217 -61l-136 -255l35 -13l151 247z" />
    <glyph glyph-name="kgreenlandic" unicode="&#x138;" horiz-adv-x="399" 
d="M123 460l-78 -460h50l80 460h-52zM364 460l-241 -188l184 -272h62l-183 269l246 191h-68z" />
    <glyph glyph-name="Lacute" unicode="&#x139;" horiz-adv-x="428" 
d="M174 700l-120 -700h335l10 52h-281l110 648h-54zM523 920l-43 29l-180 -158l26 -21z" />
    <glyph glyph-name="lacute" unicode="&#x13a;" horiz-adv-x="203" 
d="M182 780l-132 -780h50l134 780h-52zM389 991l-44 29l-180 -158l27 -21z" />
    <glyph glyph-name="uni013B" unicode="&#x13b;" horiz-adv-x="428" 
d="M174 700l-120 -700h335l10 52h-281l110 648h-54zM215 -61l-136 -255l36 -13l150 247z" />
    <glyph glyph-name="uni013C" unicode="&#x13c;" horiz-adv-x="203" 
d="M182 780l-132 -780h50l134 780h-52zM76 -61l-136 -255l36 -13l151 247z" />
    <glyph glyph-name="Lcaron" unicode="&#x13d;" horiz-adv-x="428" 
d="M174 700l-120 -700h335l10 52h-281l110 648h-54zM418 708l-136 -254l35 -14l151 247z" />
    <glyph glyph-name="lcaron" unicode="&#x13e;" horiz-adv-x="223" 
d="M182 780l-132 -780h50l134 780h-52zM400 773l-137 -255l35 -13l151 247z" />
    <glyph glyph-name="Ldot" unicode="&#x13f;" horiz-adv-x="428" 
d="M174 700l-120 -700h335l10 52h-281l110 648h-54zM297 416q-2 -10 1.5 -19t11 -14t17.5 -5q9 -1 18.5 4t16 14.5t7.5 17.5q1 10 -2.5 18.5t-11 13.5t-16.5 6q-9 0 -18.5 -5t-16 -13t-7.5 -18z" />
    <glyph glyph-name="ldot" unicode="&#x140;" horiz-adv-x="359" 
d="M182 780l-132 -780h50l134 780h-52zM257 408q-1 -10 2.5 -18.5t10.5 -13.5t17 -5q9 -1 18.5 4t16.5 14t8 17q1 10 -3 19t-11.5 14t-16.5 6q-9 0 -18.5 -5t-16 -13.5t-7.5 -18.5z" />
    <glyph glyph-name="Lslash" unicode="&#x141;" horiz-adv-x="407" 
d="M33 360l292 168l-9 37l-290 -169zM170 700l-120 -700h321l10 52h-267l111 648h-55z" />
    <glyph glyph-name="lslash" unicode="&#x142;" horiz-adv-x="196" 
d="M34 360l241 148l-8 37l-241 -149zM179 780l-133 -780h50l134 780h-51z" />
    <glyph glyph-name="Nacute" unicode="&#x143;" horiz-adv-x="709" 
d="M675 700l-100 -586l-412 612l-125 -726h55l99 585l412 -611l125 726h-54zM639 906l-43 29l-181 -158l27 -21z" />
    <glyph glyph-name="nacute" unicode="&#x144;" horiz-adv-x="489" 
d="M180 460h-52l-80 -460h52zM386 296l-50 -296h50l52 302q6 46 -3.5 84t-37 61t-76.5 23q-50 0 -90 -27t-66 -70t-36 -92h19q9 36 30.5 68t53.5 52t72 20q38 -1 56.5 -18t24 -45.5t1.5 -61.5zM473 685l-42 29l-180 -158l25 -21z" />
    <glyph glyph-name="uni0145" unicode="&#x145;" horiz-adv-x="709" 
d="M330 -40l-136 -255l36 -13l151 247zM675 700l-100 -586l-412 612l-125 -726h55l99 585l412 -611l125 726h-54z" />
    <glyph glyph-name="uni0146" unicode="&#x146;" horiz-adv-x="489" 
d="M180 460h-52l-80 -460h52zM386 296l-50 -296h50l52 302q6 46 -3.5 84t-37 61t-76.5 23q-50 0 -91 -26.5t-68.5 -69.5t-37.5 -93h24q9 36 30.5 68t53.5 52t72 20q38 -1 56.5 -18t24 -45.5t1.5 -61.5zM216 -53l-135 -255l36 -13l149 247z" />
    <glyph glyph-name="Ncaron" unicode="&#x147;" horiz-adv-x="709" 
d="M480 840l-104 110l-36 -26l133 -141l179 139l-29 28zM675 700l-100 -586l-412 612l-125 -726h55l99 585l412 -611l125 726h-54z" />
    <glyph glyph-name="ncaron" unicode="&#x148;" horiz-adv-x="489" 
d="M180 460h-52l-80 -460h52zM386 296l-50 -296h50l52 302q6 46 -3.5 84t-37 61t-76.5 23q-50 0 -91 -26.5t-68.5 -69.5t-37.5 -93h24q9 36 30.5 68t53.5 52t72 20q38 -1 56.5 -18t24 -45.5t1.5 -61.5zM317 587l-104 110l-37 -26l134 -141l178 139l-28 28z" />
    <glyph glyph-name="napostrophe" unicode="&#x149;" horiz-adv-x="608" 
d="M279 460h-52l-80 -460h52zM485 296l-50 -296h50l52 302q6 46 -3.5 84t-37 61t-76.5 23q-51 0 -92 -26.5t-68 -69.5t-37 -93h24q9 36 31 68t53.5 52t71.5 20q38 -1 56.5 -18t24 -45.5t1.5 -61.5zM234 700l-109 -229h37l136 229h-64z" />
    <glyph glyph-name="Eng" unicode="&#x14a;" horiz-adv-x="755" 
d="M469 -220q42 0 72.5 19.5t50 53.5t26.5 78l128 769h-55l-96 -586l-431 613l-122 -727h55l96 584l390 -555l-15 -92q-6 -30 -15.5 -54t-27 -37.5t-43.5 -13.5q-20 0 -34.5 10.5t-20.5 23.5l-37 -43q11 -18 29.5 -30.5t49.5 -12.5z" />
    <glyph glyph-name="eng" unicode="&#x14b;" horiz-adv-x="505" 
d="M224 -220q60 0 98.5 39t50.5 112l62 371q13 81 -18 124.5t-102 43.5q-50 0 -94 -28.5t-70 -77.5l15 96h-52l-77 -460h52l47 280q7 40 30 72t56.5 50.5t71.5 18.5q53 0 75 -31.5t13 -93.5l-59 -359q-9 -52 -31 -78.5t-55 -26.5q-37 0 -55 34l-37 -43q11 -20 32.5 -31.5
t46.5 -11.5z" />
    <glyph glyph-name="Omacron" unicode="&#x14c;" horiz-adv-x="759" 
d="M132 350q10 63 39.5 117.5t74 96.5t100.5 66t120 24q63 -1 110 -26t75.5 -68t39.5 -97t3 -113q-11 -63 -40.5 -117.5t-73.5 -96.5t-100 -66t-120 -23q-63 0 -110 25t-76 68t-40 97t-2 113zM75 350q-11 -70 3.5 -134t51 -115t93 -80.5t131.5 -29.5t142 28t120.5 78
t88.5 115t47 138q10 70 -4.5 134t-51 115t-93.5 80.5t-130 29.5q-77 0 -143.5 -28t-120 -78t-88.5 -115t-46 -138zM316 778l341 -1l9 49h-341z" />
    <glyph glyph-name="omacron" unicode="&#x14d;" horiz-adv-x="533" 
d="M49 230q-9 -63 11.5 -118t66.5 -88t113 -33q68 0 125 32t95.5 86.5t48.5 120.5q9 64 -11.5 118.5t-67 88t-112.5 33.5q-68 0 -125.5 -32.5t-95.5 -87t-48 -120.5zM102 230q8 53 38 96t75 69t98 26q52 -1 87 -28t49.5 -70t7.5 -93q-8 -52 -38.5 -95.5t-75.5 -69.5t-98 -25
q-52 0 -87 26.5t-49.5 70.5t-6.5 93zM162 539l341 -1l9 49h-341z" />
    <glyph glyph-name="Obreve" unicode="&#x14e;" horiz-adv-x="759" 
d="M132 350q10 63 39.5 117.5t74 96.5t100.5 66t120 24q63 -1 110 -26t75.5 -68t39.5 -97t3 -113q-11 -63 -40.5 -117.5t-73.5 -96.5t-100 -66t-120 -23q-63 0 -110 25t-76 68t-40 97t-2 113zM75 350q-11 -70 3.5 -134t51 -115t93 -80.5t131.5 -29.5t142 28t120.5 78
t88.5 115t47 138q10 70 -4.5 134t-51 115t-93.5 80.5t-130 29.5q-77 0 -143.5 -28t-120 -78t-88.5 -115t-46 -138zM355 909q-3 -37 10 -68.5t43 -51t78 -19.5q49 0 85 19.5t59 51t33 67.5l-47 1q-8 -23 -24 -45.5t-40.5 -37t-59.5 -13.5q-35 0 -56 14t-29.5 36t-6.5 46h-45z
" />
    <glyph glyph-name="obreve" unicode="&#x14f;" horiz-adv-x="533" 
d="M49 230q-9 -63 11.5 -118t66.5 -88t113 -33q68 0 125 32t95.5 86.5t48.5 120.5q9 64 -11.5 118.5t-67 88t-112.5 33.5q-68 0 -125.5 -32.5t-95.5 -87t-48 -120.5zM102 230q8 53 38 96t75 69t98 26q52 -1 87 -28t49.5 -70t7.5 -93q-8 -52 -38.5 -95.5t-75.5 -69.5t-98 -25
q-52 0 -87 26.5t-49.5 70.5t-6.5 93zM200 670q-3 -37 10.5 -68.5t43.5 -51t78 -19.5q49 0 85 19.5t59 51t32 67.5l-46 1q-8 -23 -24 -45.5t-41 -37t-60 -13.5q-35 0 -55 14t-29 36t-7 46h-46z" />
    <glyph glyph-name="Ohungarumlaut" unicode="&#x150;" horiz-adv-x="759" 
d="M414 770l152 197l-56 15l-132 -199zM552 770l153 197l-56 15l-132 -199zM132 350q10 63 39.5 117.5t74 96.5t100.5 66t120 24q63 -1 110 -26t75.5 -68t39.5 -97t3 -113q-11 -63 -40.5 -117.5t-73.5 -96.5t-100 -66t-120 -23q-63 0 -110 25t-76 68t-40 97t-2 113zM75 350
q-11 -70 3.5 -134t51 -115t93 -80.5t131.5 -29.5t142 28t120.5 78t88.5 115t47 138q10 70 -4.5 134t-51 115t-93.5 80.5t-131 29.5q-76 0 -143 -28t-120 -78t-88 -115t-46 -138z" />
    <glyph glyph-name="ohungarumlaut" unicode="&#x151;" horiz-adv-x="533" 
d="M263 530l152 197l-56 15l-132 -199zM401 530l153 197l-56 15l-132 -199zM56 230q-9 -64 12.5 -118.5t68 -87.5t113.5 -33t124 32t94.5 86.5t46.5 120.5q9 64 -13 118.5t-69 88t-112 33.5q-68 0 -125 -32.5t-94 -87t-46 -120.5zM108 230q7 53 36.5 96t74 69t97.5 26
q52 -1 87 -28t51 -70t9 -93q-7 -52 -37 -95.5t-74.5 -69.5t-97.5 -25q-52 0 -87 26.5t-50.5 70.5t-8.5 93z" />
    <glyph glyph-name="OE" unicode="&#x152;" horiz-adv-x="941" 
d="M562 359l324 -1l9 52h-324zM588 680l-112 -659l53 -1l114 660h-55zM854 52h-336h-23h-136q-63 1 -111 25t-78.5 65t-42 94.5t-2.5 113.5q10 63 39.5 117t75 94t102.5 63t122 24h139h16h334l11 52h-495q-77 -1 -144 -27.5t-120 -73.5t-88 -110.5t-46 -138.5
q-11 -72 3.5 -135t52 -111t95 -75.5t132.5 -28.5h491z" />
    <glyph glyph-name="oe" unicode="&#x153;" horiz-adv-x="883" 
d="M808 250l-4 -19l51 -13q1 6 2.5 12t2.5 12q7 59 -10.5 111t-57.5 84t-98 33q-59 0 -107.5 -25.5t-84 -69t-52.5 -96.5q-5 -12 -8 -24t-4 -25q-9 -60 7.5 -114.5t58 -89.5t106.5 -35q48 -1 87 14.5t72 41.5t61 59l-38 28q-32 -39 -75.5 -67t-101.5 -27q-53 0 -84.5 27
t-43.5 70.5t-4 93.5l4 18q10 47 37 86.5t68 64t92 24.5q49 -1 79 -26.5t40.5 -65t4.5 -82.5zM467 218l388 -1l-4 45h-377zM49 230q-9 -64 9.5 -118.5t61 -88t105.5 -32.5q62 0 112 32t83 86.5t43 120.5q8 63 -7 117.5t-53 88t-100 34.5q-64 0 -118 -32t-90 -86.5t-46 -121.5
zM102 230q8 53 36.5 97t71.5 69.5t94 24.5q46 -1 75 -28.5t41 -70.5t6 -92q-8 -52 -36 -95t-68 -69t-86 -26q-50 0 -82.5 26.5t-46 69.5t-5.5 94z" />
    <glyph glyph-name="Racute" unicode="&#x154;" horiz-adv-x="507" 
d="M227 334l170 -334h63l-174 334h-59zM173 700l-118 -700h53l120 700h-55zM192 651h130q49 -2 85 -20t54 -51.5t10 -82.5q-9 -49 -37.5 -83t-72 -52t-94.5 -19h-126l-9 -49h130q65 1 121 25.5t94 69t48 108.5q10 62 -14 107t-72.5 70t-111.5 26h-125zM508 920l-44 29
l-180 -158l26 -21z" />
    <glyph glyph-name="racute" unicode="&#x155;" horiz-adv-x="311" 
d="M180 460h-52l-80 -460h52zM318 400l35 41q-16 13 -33.5 21t-38.5 8q-43 0 -75.5 -28.5t-53.5 -71.5t-29 -89h25q6 33 20 65.5t37 54t58 20.5q16 0 28.5 -6t26.5 -15zM409 681l-44 29l-180 -158l25 -21z" />
    <glyph glyph-name="uni0156" unicode="&#x156;" horiz-adv-x="507" 
d="M227 334l170 -334h63l-174 334h-59zM173 700l-118 -700h53l120 700h-55zM192 651h130q49 -2 85 -20t54 -51.5t10 -82.5q-9 -49 -37.5 -83t-72 -52t-94.5 -19h-126l-9 -49h130q65 1 121 25.5t94 69t48 108.5q10 62 -14 107t-72.5 70t-111.5 26h-125zM248 -61l-136 -255
l35 -13l150 247z" />
    <glyph glyph-name="uni0157" unicode="&#x157;" horiz-adv-x="311" 
d="M180 460h-52l-80 -460h52zM318 400l35 41q-16 13 -33.5 21t-38.5 8q-43 0 -75.5 -28.5t-53.5 -71.5t-29 -89h25q6 33 20 65.5t37 54t58 20.5q16 0 28.5 -6t26.5 -15zM68 -61l-135 -255l36 -13l150 247z" />
    <glyph glyph-name="Rcaron" unicode="&#x158;" horiz-adv-x="507" 
d="M227 334l170 -334h63l-174 334h-59zM173 700l-118 -700h53l120 700h-55zM192 651h130q49 -2 85 -20t54 -51.5t10 -82.5q-9 -49 -37.5 -83t-72 -52t-94.5 -19h-126l-9 -49h130q65 1 121 25.5t94 69t48 108.5q10 62 -14 107t-72.5 70t-111.5 26h-125zM350 826l-105 110
l-36 -26l134 -141l178 139l-29 28z" />
    <glyph glyph-name="rcaron" unicode="&#x159;" horiz-adv-x="311" 
d="M180 460h-52l-80 -460h52zM318 400l35 41q-16 13 -33.5 21t-38.5 8q-43 0 -75.5 -28.5t-53.5 -71.5t-29 -89h25q6 33 20 65.5t37 54t58 20.5q16 0 28.5 -6t26.5 -15zM262 587l-105 110l-36 -26l134 -141l178 139l-29 28z" />
    <glyph glyph-name="Sacute" unicode="&#x15a;" horiz-adv-x="508" 
d="M93 214l-49 -26q11 -51 35 -96t64 -72.5t99 -27.5q63 -1 111.5 24t78.5 69t38 99q5 39 -4 70.5t-29.5 56t-47 43t-56.5 31.5q-27 12 -54 26t-47 31.5t-31 41t-5 53.5q5 35 27.5 62t54.5 42t69 15q42 -1 67.5 -20t40 -48t23.5 -60l49 27q-9 39 -30.5 74t-57 57t-87.5 23
q-52 0 -97.5 -21t-76.5 -59t-39 -87q-5 -39 5.5 -70t32 -55t49.5 -41t57 -30q36 -16 68.5 -37.5t50.5 -52.5t11 -76q-6 -39 -27.5 -70t-56 -49t-80.5 -17q-37 0 -63.5 14.5t-44 39t-29 54.5t-19.5 62zM556 920l-43 29l-180 -158l26 -21z" />
    <glyph glyph-name="sacute" unicode="&#x15b;" horiz-adv-x="391" 
d="M72 155l-47 -23q3 -39 20.5 -71t48 -51t75.5 -19q43 -1 80 15t62 46t31 73q4 33 -10 57.5t-39 42.5t-55 31q-24 10 -49 21t-39.5 28.5t-9.5 44.5q5 34 36 52t65 18q24 0 42 -10t31 -26t22 -34l45 24q-8 28 -26.5 49.5t-46 33.5t-61.5 12q-36 -1 -70 -14.5t-57.5 -39.5
t-29.5 -61q-6 -38 8.5 -63t41 -41t56.5 -29q19 -8 37 -16.5t31.5 -20t20 -27t3.5 -35.5q-6 -39 -38.5 -61t-72.5 -21q-35 0 -57 16t-33.5 42.5t-14.5 56.5zM451 681l-45 29l-180 -158l27 -21z" />
    <glyph glyph-name="Scircumflex" unicode="&#x15c;" horiz-adv-x="508" 
d="M93 214l-49 -26q11 -51 35 -96t64 -72.5t99 -27.5q63 -1 111.5 24t78.5 69t38 99q5 39 -4 70.5t-29.5 56t-47 43t-56.5 31.5q-27 12 -54 26t-47 31.5t-31 41t-5 53.5q5 35 27.5 62t54.5 42t69 15q42 -1 67.5 -20t40 -48t23.5 -60l49 27q-9 39 -30.5 74t-57 57t-87.5 23
q-52 0 -97.5 -21t-76.5 -59t-39 -87q-5 -39 5.5 -70t32 -55t49.5 -41t57 -30q36 -16 68.5 -37.5t50.5 -52.5t11 -76q-6 -39 -27.5 -70t-56 -49t-80.5 -17q-37 0 -63.5 14.5t-44 39t-29 54.5t-19.5 62zM385 880l105 -110l35 25l-133 141l-179 -138l29 -28z" />
    <glyph glyph-name="scircumflex" unicode="&#x15d;" horiz-adv-x="391" 
d="M72 155l-47 -23q3 -39 20.5 -71t48 -51t75.5 -19q43 -1 80 15t62 46t31 73q4 33 -10 57.5t-39 42.5t-55 31q-24 10 -49 21t-39.5 28.5t-9.5 44.5q5 34 36 52t65 18q24 0 42 -10t31 -26t22 -34l45 24q-8 28 -26.5 49.5t-46 33.5t-61.5 12q-36 -1 -70 -14.5t-57.5 -39.5
t-29.5 -61q-6 -38 8.5 -63t41 -41t56.5 -29q19 -8 37 -16.5t31.5 -20t20 -27t3.5 -35.5q-6 -39 -38 -61t-72 -21q-36 0 -58 16t-33.5 42.5t-14.5 56.5zM279 641l105 -110l35 25l-133 141l-179 -138l29 -28z" />
    <glyph glyph-name="Scedilla" unicode="&#x15e;" horiz-adv-x="508" 
d="M93 214l-49 -26q11 -51 35 -96t64 -72.5t99 -27.5q61 0 109.5 25t79.5 68.5t39 98.5q5 39 -4 70.5t-29.5 56t-47 43t-56.5 31.5q-27 12 -54 26t-47 31.5t-31 40.5t-5 54q5 34 26 61t52 42.5t67 15.5q42 -1 69 -19.5t43 -47.5t25 -60l49 26q-10 41 -31.5 75.5t-56.5 56.5
t-87 22q-53 0 -98.5 -22t-76 -60.5t-38.5 -87.5q-6 -41 5 -71.5t32.5 -53t49 -39t57.5 -29.5q36 -16 68.5 -37t50.5 -52.5t11 -76.5q-6 -39 -27.5 -70t-56 -49t-80.5 -17q-37 0 -63.5 14.5t-44 39t-29 54.5t-19.5 62zM251 34l-96 -134q17 8 35.5 14.5t34.5 5.5q14 0 24.5 -6
t16 -16t4.5 -24q-3 -18 -14.5 -31t-28.5 -20.5t-34 -7.5q-20 0 -33 7.5t-28 20.5l-26 -25q19 -18 37.5 -28t45.5 -10t52.5 11t43.5 32t22 49q2 22 -5.5 38t-22 25.5t-31.5 11.5q-10 0 -18 -3t-16 -7l77 97h-40z" />
    <glyph glyph-name="scedilla" unicode="&#x15f;" horiz-adv-x="391" 
d="M70 157l-45 -24q8 -37 26.5 -69.5t48.5 -52t75 -19.5q41 -1 77 15t60 46t30 72q5 35 -9.5 60t-39.5 43t-55 31q-24 10 -49 21t-39.5 28t-9.5 46q5 34 36 51t65 17q36 -1 59 -22t36 -49l45 24q-16 41 -49 68t-85 27q-37 0 -71 -14t-57.5 -40t-28.5 -63q-6 -40 8 -65
t40.5 -40t57.5 -28q26 -10 48 -23t35 -31t9 -45q-6 -38 -37.5 -59.5t-69.5 -20.5q-33 0 -55 17t-35 43.5t-21 55.5zM183 34l-93 -134q17 8 35 14.5t34 5.5q14 0 25 -6t16.5 -16t3.5 -24q-2 -18 -14 -31t-29 -20.5t-35 -7.5q-20 0 -32.5 7.5t-26.5 20.5l-26 -25
q19 -18 37 -28t44 -10q27 -1 53.5 10.5t45 32.5t21.5 49q2 22 -6 38t-22.5 25.5t-32.5 11.5q-10 0 -17 -3t-16 -7l78 97h-43z" />
    <glyph glyph-name="Scaron" unicode="&#x160;" horiz-adv-x="508" 
d="M93 214l-49 -26q11 -51 35 -96t64 -72.5t99 -27.5q63 -1 111.5 24t78.5 69t38 99q5 39 -4 70.5t-29.5 56t-47 43t-56.5 31.5q-27 12 -54 26t-47 31.5t-31 41t-5 53.5q5 35 27.5 62t54.5 42t69 15q42 -1 67.5 -20t40 -48t23.5 -60l49 27q-9 39 -30.5 74t-57 57t-87.5 23
q-52 0 -97.5 -21t-76.5 -59t-39 -87q-5 -39 5.5 -70t32 -55t49.5 -41t57 -30q36 -16 68.5 -37.5t50.5 -52.5t11 -76q-6 -39 -27.5 -70t-56 -49t-80.5 -17q-37 0 -63.5 14.5t-44 39t-29 54.5t-19.5 62zM373 830l-104 110l-36 -26l133 -141l179 139l-29 28z" />
    <glyph glyph-name="scaron" unicode="&#x161;" horiz-adv-x="391" 
d="M72 155l-47 -23q3 -39 20.5 -71t48 -51t75.5 -19q43 -1 80 15t62 46t31 73q4 33 -10 57.5t-39 42.5t-55 31q-24 10 -49 21t-39.5 28.5t-9.5 44.5q5 34 36 52t65 18q24 0 42 -10t31 -26t22 -34l45 24q-8 28 -26.5 49.5t-46 33.5t-61.5 12q-36 -1 -70 -14.5t-57.5 -39.5
t-29.5 -61q-6 -38 8.5 -63t41 -41t56.5 -29q19 -8 37 -16.5t31.5 -20t20 -27t3.5 -35.5q-6 -39 -38 -61t-72 -21q-36 0 -58 16t-33.5 42.5t-14.5 56.5zM267 587l-105 110l-36 -26l134 -141l179 139l-30 28z" />
    <glyph glyph-name="uni0162" unicode="&#x162;" horiz-adv-x="437" 
d="M172 6l-94 -134q17 8 35 14.5t35 5.5q13 0 24.5 -6t17 -16t3.5 -24q-2 -18 -14.5 -31t-29.5 -20.5t-34 -7.5q-20 0 -32.5 7.5t-26.5 20.5l-27 -25q19 -19 37.5 -28.5t44.5 -9.5q27 -1 53 10.5t44.5 32.5t21.5 49q2 22 -6 38t-22 25.5t-32 11.5q-10 0 -17 -3t-16 -7l76 97
h-41zM95 648h180l-111 -648h54l111 648h178l10 52h-411z" />
    <glyph glyph-name="uni0163" unicode="&#x163;" horiz-adv-x="213" 
d="M59 7l-94 -134q17 8 35 14.5t35 5.5q13 0 24.5 -6t17 -16t3.5 -24q-2 -18 -14.5 -31t-29.5 -20.5t-34 -7.5q-20 0 -32.5 7.5t-26.5 20.5l-27 -25q19 -19 37.5 -28.5t44.5 -9.5q27 -1 53 10.5t44.5 32.5t21.5 49q2 22 -6 38t-22 25.5t-32 11.5q-10 0 -17 -3t-16 -7l76 97
h-41zM62 460l-10 -49h197l10 49h-197zM160 620l-105 -620h50l107 620h-52z" />
    <glyph glyph-name="Tcaron" unicode="&#x164;" horiz-adv-x="437" 
d="M95 648h180l-111 -648h54l111 648h178l10 52h-411zM332 826l-106 110l-35 -26l133 -141l179 139l-30 28z" />
    <glyph glyph-name="tcaron" unicode="&#x165;" horiz-adv-x="312" 
d="M60 460l-10 -49h197l10 49h-197zM160 620l-105 -620h50l107 620h-52zM387 795l-136 -255l35 -13l150 247z" />
    <glyph glyph-name="Tbar" unicode="&#x166;" horiz-adv-x="451" 
d="M108.2 407h307.127l14.1758 48h-307.128zM95 648h180l-111 -648h54l111 648h178l10 52h-411z" />
    <glyph glyph-name="tbar" unicode="&#x167;" horiz-adv-x="220" 
d="M36 260h195l9 48h-195zM62 460l-10 -49h197l10 49h-197zM160 620l-105 -620h50l107 620h-52z" />
    <glyph glyph-name="Utilde" unicode="&#x168;" horiz-adv-x="587" 
d="M169 700l-81 -474q-7 -48 1 -90.5t30.5 -75.5t60 -51t89.5 -18t95 17.5t76.5 50t54.5 75.5t30 92l80 474h-55l-81 -474q-10 -52 -35.5 -94t-66.5 -66t-95 -23q-53 0 -84 25t-42 67t-4 91l82 474h-55zM257 793l33 -23q4 10 11 21t19 19.5t30 9.5q21 0 36.5 -11.5t32.5 -23
t40 -11.5q21 -1 39 8t32.5 23.5t24.5 30.5l-27 29q-13 -19 -28.5 -33t-34.5 -14q-18 -1 -30.5 5.5t-24.5 16t-25 16.5t-33 8q-19 0 -40.5 -10t-37.5 -26t-17 -35z" />
    <glyph glyph-name="utilde" unicode="&#x169;" horiz-adv-x="489" 
d="M334 0h53l79 460h-52zM129 168l50 292h-51l-51 -298q-6 -47 3.5 -86t37.5 -62.5t77 -22.5q50 0 89.5 26.5t65 69t35.5 92.5h-19q-9 -36 -31 -68.5t-54 -52t-71 -18.5q-38 1 -57 18.5t-23.5 46.5t-0.5 63zM166 555l34 -24q4 10 11.5 21.5t19.5 19.5t29 9q22 0 37 -11.5
t32.5 -23t39.5 -11.5q22 -1 39.5 8t32 23.5t25.5 31.5l-29 28q-13 -19 -28.5 -33t-34.5 -14q-17 -1 -30 5.5t-24.5 16t-25 16.5t-33.5 8q-22 0 -41 -10t-32.5 -26t-21.5 -34z" />
    <glyph glyph-name="Umacron" unicode="&#x16a;" horiz-adv-x="587" 
d="M169 700l-81 -474q-7 -48 1 -90.5t30.5 -75.5t60 -51t89.5 -18t95 17.5t76.5 50t54.5 75.5t30 92l80 474h-55l-81 -474q-10 -52 -35.5 -94t-66.5 -66t-95 -23q-53 0 -84 25t-42 67t-4 91l82 474h-55zM229 770h341l9 48h-342z" />
    <glyph glyph-name="umacron" unicode="&#x16b;" horiz-adv-x="489" 
d="M334 0h53l79 460h-52zM129 168l50 292h-51l-51 -298q-6 -47 3.5 -86t37.5 -62.5t77 -22.5q50 0 89.5 26.5t65 69t35.5 92.5h-19q-9 -36 -31 -68.5t-54 -52t-71 -18.5q-38 1 -57 18.5t-23.5 46.5t-0.5 63zM139 531h341l9 48h-341z" />
    <glyph glyph-name="Ubreve" unicode="&#x16c;" horiz-adv-x="587" 
d="M169 700l-81 -474q-7 -48 1 -90.5t30.5 -75.5t60 -51t89.5 -18t95 17.5t76.5 50t54.5 75.5t30 92l80 474h-55l-81 -474q-10 -52 -35.5 -94t-66.5 -66t-95 -23q-53 0 -84 25t-42 67t-4 91l82 474h-55zM268 909q-3 -37 10.5 -69t44 -51t78.5 -19q49 0 84.5 19t58.5 50.5
t32 68.5l-47 1q-8 -23 -24 -45.5t-41 -37t-60 -13.5q-35 0 -55 14t-28.5 36t-6.5 46h-46z" />
    <glyph glyph-name="ubreve" unicode="&#x16d;" horiz-adv-x="489" 
d="M334 0h53l79 460h-52zM129 168l50 292h-51l-51 -298q-6 -47 3.5 -86t37.5 -62.5t77 -22.5q50 0 89.5 26.5t65 69t35.5 92.5h-19q-9 -36 -31 -68.5t-54 -52t-71 -18.5q-38 1 -57 18.5t-23.5 46.5t-0.5 63zM177 670q-3 -37 11 -69t44.5 -51t77.5 -19q50 0 85.5 19t58 50.5
t31.5 68.5l-46 1q-8 -23 -24 -45.5t-41.5 -37t-61.5 -13.5q-34 0 -54 14t-28.5 36t-7.5 46h-45z" />
    <glyph glyph-name="Uring" unicode="&#x16e;" horiz-adv-x="587" 
d="M169 700l-81 -474q-6 -47 1.5 -90t30 -75.5t59 -51t89.5 -18.5q52 0 95.5 17.5t76 50t54 75.5t30.5 92l81 474h-54l-82 -474q-9 -52 -34.5 -93.5t-66.5 -66t-95 -23.5q-53 0 -84 25t-42.5 67t-4.5 91l81 474h-54zM316 870q-4 -27 6.5 -50t30.5 -36.5t47 -13.5
q26 -1 51 12.5t42.5 36t21.5 49.5t-6.5 50t-30.5 36.5t-47 14.5q-26 0 -51.5 -13.5t-43 -35.5t-20.5 -50zM350 869q2 18 14.5 33.5t29.5 25.5t34 9q25 -2 40.5 -22t12.5 -45q-2 -18 -14.5 -34t-29.5 -25.5t-34 -8.5q-24 1 -40 21t-13 46z" />
    <glyph glyph-name="uring" unicode="&#x16f;" horiz-adv-x="489" 
d="M335 0h51l80 460h-52zM129 168l50 292h-50l-52 -298q-6 -47 3 -86t36.5 -62t76.5 -23q51 0 90.5 26.5t65.5 69.5t36 92h-19q-8 -36 -30 -68.5t-54 -52t-72 -18.5q-37 0 -56 17.5t-24 47t-1 63.5zM224 631q-3 -27 7.5 -50t30.5 -36.5t47 -13.5q27 -1 52 12.5t42 36
t21 49.5t-6 50t-30.5 36.5t-47.5 14.5q-26 0 -51 -13.5t-42.5 -35.5t-22.5 -50zM259 630q2 18 14.5 33.5t30 25.5t33.5 9q26 -2 41.5 -22t12.5 -45q-3 -18 -15 -34t-29.5 -25.5t-34.5 -8.5q-25 1 -40.5 21t-12.5 46z" />
    <glyph glyph-name="Uhungarumlaut" unicode="&#x170;" horiz-adv-x="587" 
d="M326 770l152 197l-56 15l-132 -199zM464 770l153 197l-56 15l-132 -199zM169 700l-81 -474q-7 -47 1 -89.5t30.5 -75.5t59.5 -51.5t89 -18.5q56 0 100 17.5t76 50t52 75.5t28 92l81 474h-54l-82 -474q-8 -52 -32 -93.5t-65.5 -65.5t-98.5 -24q-54 0 -84.5 25t-42 67
t-4.5 91l81 474h-54z" />
    <glyph glyph-name="uhungarumlaut" unicode="&#x171;" horiz-adv-x="489" 
d="M238 530l152 197l-56 15l-132 -199zM376 530l153 197l-56 15l-132 -199zM129 168l50 292h-50l-52 -298q-7 -46 2 -85t37 -62.5t77 -23.5q53 0 92 27t64 73l-14 -91h51l80 460h-52l-50 -285q-6 -36 -27.5 -67t-54.5 -49.5t-72 -18.5q-37 0 -56 17.5t-24 47t-1 63.5z" />
    <glyph glyph-name="Uogonek" unicode="&#x172;" horiz-adv-x="587" 
d="M288 -158q-13 -10 -30.5 -19t-38.5 -7q-27 1 -42 15.5t-13 41.5q4 26 25 48t50.5 38.5t55.5 29.5l-25 19q-34 -17 -69 -37.5t-60 -47t-30 -61.5q-3 -29 8 -49.5t35 -32t57 -10.5q29 0 53 11.5t41 26.5zM169 700l-81 -474q-7 -47 1 -89.5t30.5 -75.5t59.5 -51.5t89 -18.5
q56 0 100 17.5t76 50t52 75.5t28 92l81 474h-54l-82 -474q-8 -52 -32 -93.5t-65.5 -65.5t-98.5 -24q-54 0 -84.5 25t-42 67t-4.5 91l81 474h-54z" />
    <glyph glyph-name="uogonek" unicode="&#x173;" horiz-adv-x="489" 
d="M220 -174q-13 -10 -30.5 -19t-38.5 -7q-27 1 -42 15.5t-13 41.5q4 26 25 48t50.5 38.5t55.5 29.5l-25 19q-34 -17 -69 -37.5t-60 -47t-30 -61.5q-3 -29 8 -49.5t35 -32t57 -10.5q29 0 53 11.5t41 26.5zM129 168l50 292h-50l-52 -298q-7 -46 2 -85t37 -62.5t77 -23.5
q53 0 92 27t64 73l-14 -91h51l80 460h-52l-50 -285q-6 -36 -27.5 -67t-54.5 -49.5t-72 -18.5q-37 0 -56 17.5t-24 47t-1 63.5z" />
    <glyph glyph-name="Wcircumflex" unicode="&#x174;" horiz-adv-x="944" 
d="M674 118l-104 612l-305 -612l-100 582h-59l130 -729l306 603l110 -603l374 729h-63zM601 897l105 -110l35 27l-134 140l-178 -138l29 -28z" />
    <glyph glyph-name="wcircumflex" unicode="&#x175;" horiz-adv-x="636" 
d="M61 460l89 -489l198 383l74 -383l260 489h-60l-180 -354l-72 383l-193 -382l-60 353h-56zM402 657l104 -110l35 27l-134 140l-177 -138l29 -28z" />
    <glyph glyph-name="Ycircumflex" unicode="&#x176;" horiz-adv-x="523" 
d="M545 700l-256 -360l-128 360h-59l154 -409l-52 -291h55l50 286l301 414h-65zM384 879l105 -110l35 26l-135 141l-177 -138l29 -28z" />
    <glyph glyph-name="ycircumflex" unicode="&#x177;" horiz-adv-x="420" 
d="M471 460h-60l-223 -389l24 -3l-97 392h-59l111 -410l-164 -269h60zM293 640l104 -110l35 26l-134 141l-177 -138l29 -28z" />
    <glyph glyph-name="Ydieresis" unicode="&#x178;" horiz-adv-x="523" 
d="M243 808q-2 -15 7 -26.5t24 -11.5q13 -2 27.5 10t15.5 26q1 15 -8 26t-23 12t-28 -10.5t-15 -25.5zM429 808q-2 -15 7 -26.5t24 -11.5q13 -2 27.5 10t16.5 26q1 15 -8.5 26t-22.5 12q-15 1 -28.5 -10.5t-15.5 -25.5zM546 700l-256 -360l-129 360h-59l154 -411l-51 -289
h54l50 287l300 413h-63z" />
    <glyph glyph-name="Zacute" unicode="&#x179;" horiz-adv-x="524" 
d="M118 648h380l-510 -648h478l10 52l-384 1l510 647h-474zM552 920l-43 29l-181 -158l27 -21z" />
    <glyph glyph-name="zacute" unicode="&#x17a;" horiz-adv-x="434" 
d="M363 411l-375 -411h392l10 49l-298 1l376 410h-375l-10 -49h280zM470 693l-43 29l-181 -158l27 -21z" />
    <glyph glyph-name="Zdotaccent" unicode="&#x17b;" horiz-adv-x="524" 
d="M118 648h380l-510 -648h478l10 52l-384 1l510 647h-474zM347 808q-2 -15 6.5 -26.5t23.5 -11.5q13 -2 26.5 10t16.5 26q1 15 -8.5 26t-22.5 12q-14 1 -27.5 -11t-14.5 -25z" />
    <glyph glyph-name="zdotaccent" unicode="&#x17c;" horiz-adv-x="434" 
d="M363 411l-375 -411h392l10 49l-298 1l376 410h-375l-10 -49h280zM267 598q-2 -15 7 -26t24 -11q12 -2 26 9.5t16 25.5q1 15 -8 26.5t-22 12.5q-15 1 -28 -11.5t-15 -25.5z" />
    <glyph glyph-name="Zcaron" unicode="&#x17d;" horiz-adv-x="524" 
d="M118 648h380l-510 -648h478l10 52l-384 1l510 647h-474zM384 826l-104 110l-36 -26l133 -141l179 139l-29 28z" />
    <glyph glyph-name="zcaron" unicode="&#x17e;" horiz-adv-x="434" 
d="M300 587l-105 110l-36 -26l134 -141l178 139l-28 28zM363 411l-375 -411h392l10 49l-298 1l376 410h-375l-10 -49h280z" />
    <glyph glyph-name="florin" unicode="&#x192;" horiz-adv-x="600" 
d="M138 -200q34 0 62.5 18.5t49 53.5t29.5 80l101 459h80l11 49h-80l39 172q10 48 33 76.5t53 28.5q14 0 25.5 -7t29.5 -26l32 40q-23 23 -42.5 33t-42.5 11q-34 1 -62 -18.5t-48.5 -54t-30.5 -79.5l-38 -176h-74l-11 -49h74l-102 -455q-10 -48 -33 -76.5t-53 -28.5
q-13 0 -25 7t-29 26l-32 -40q22 -23 42 -33t42 -11z" />
    <glyph glyph-name="uni0212" unicode="&#x212;" horiz-adv-x="507" 
d="M227 334l170 -334h63l-174 334h-59zM173 700l-118 -700h53l120 700h-55zM192 651h130q49 -2 85 -20t54 -51.5t10 -81.5q-9 -50 -37.5 -84t-72 -52t-94.5 -19h-126l-9 -49h130q65 1 121 25.5t94 69t48 108.5q10 62 -14 107t-72.5 70t-111.5 26h-125zM210 769
q11 36 34.5 68t60 52t85.5 20q48 -1 77.5 -21t41 -51.5t7.5 -67.5h-40q1 24 -8 46t-29.5 36.5t-55.5 14.5q-36 0 -61 -14.5t-41 -36.5t-23 -45z" />
    <glyph glyph-name="uni0213" unicode="&#x213;" horiz-adv-x="311" 
d="M180 460h-52l-80 -460h52zM318 400l35 41q-16 13 -33.5 21t-38.5 8q-43 0 -75.5 -28.5t-53.5 -71.5t-29 -89h25q6 33 20 65.5t37 54t58 20.5q16 0 28.5 -6t26.5 -15zM100 538q11 36 34.5 68t60.5 52t86 20q48 -1 77 -21t41 -51.5t8 -67.5h-41q2 24 -7 46t-30 36.5
t-56 14.5q-36 0 -61 -14.5t-40.5 -36.5t-22.5 -45z" />
    <glyph glyph-name="uni0218" unicode="&#x218;" horiz-adv-x="508" 
d="M93 214l-49 -26q11 -51 35 -96t64 -72.5t99 -27.5q63 -1 111.5 24t78.5 69t38 99q5 39 -4 70.5t-29.5 56t-47 43t-56.5 31.5q-27 12 -54 26t-47 31.5t-31 41t-5 53.5q5 35 27.5 62t54.5 42t69 15q42 -1 67.5 -20t40 -48t23.5 -60l49 27q-9 39 -30.5 74t-57 57t-87.5 23
q-52 0 -97.5 -21t-76.5 -59t-39 -87q-5 -39 5.5 -70t32 -55t49.5 -41t57 -30q36 -16 68.5 -37.5t50.5 -52.5t11 -76q-6 -39 -27.5 -70t-56 -49t-80.5 -17q-37 0 -63.5 14.5t-44 39t-29 54.5t-19.5 62zM249 -70l-137 -255l36 -13l151 247z" />
    <glyph glyph-name="uni0219" unicode="&#x219;" horiz-adv-x="391" 
d="M72 155l-47 -23q3 -39 20.5 -71t48 -51t75.5 -19q43 -1 80 15t62 46t31 73q4 33 -10 57.5t-39 42.5t-55 31q-24 10 -49 21t-39.5 28.5t-9.5 44.5q5 34 36 52t65 18q24 0 42 -10t31 -26t22 -34l45 24q-8 28 -26.5 49.5t-46 33.5t-61.5 12q-36 -1 -70 -14.5t-57.5 -39.5
t-29.5 -61q-6 -38 8.5 -63t41 -41t56.5 -29q19 -8 37 -16.5t31.5 -20t20 -27t3.5 -35.5q-6 -39 -38.5 -61t-72.5 -21q-35 0 -57 16t-33.5 42.5t-14.5 56.5zM177 -71l-136 -255l36 -13l150 247z" />
    <glyph glyph-name="uni021A" unicode="&#x21a;" horiz-adv-x="437" 
d="M95 648h180l-111 -648h54l111 648h178l10 52h-411zM201 -60l-136 -255l35 -13l150 247z" />
    <glyph glyph-name="uni021B" unicode="&#x21b;" horiz-adv-x="213" 
d="M62 460l-10 -49h197l10 49h-197zM160 620l-105 -620h50l107 620h-52zM89 -60l-136 -255l37 -13l149 247z" />
    <glyph glyph-name="uni0237" unicode="&#x237;" horiz-adv-x="215" 
d="M-99 -134l-34 -42q8 -11 19.5 -21t26 -16t33.5 -6q42 -1 72.5 19.5t48 55t24.5 75.5l90 529h-52l-89 -523q-4 -26 -14 -50t-27.5 -39.5t-43.5 -15.5q-18 0 -31 10t-23 24z" />
    <glyph glyph-name="circumflex" unicode="&#x2c6;" horiz-adv-x="465" 
d="M322 674l105 -110l36 25l-134 141l-178 -138l29 -28z" />
    <glyph glyph-name="caron" unicode="&#x2c7;" horiz-adv-x="465" 
d="M312 627l-105 110l-36 -26l134 -141l178 139l-29 28z" />
    <glyph glyph-name="breve" unicode="&#x2d8;" horiz-adv-x="529" 
d="M225 850q-3 -37 11 -69t44.5 -51t78.5 -19t84 19.5t58.5 51t31.5 67.5l-47 1q-7 -24 -23 -46t-40 -36.5t-60 -13.5q-35 0 -55.5 14t-29.5 36.5t-7 45.5h-46z" />
    <glyph glyph-name="dotaccent" unicode="&#x2d9;" horiz-adv-x="267" 
d="M204 775q-1 -16 9.5 -26.5t26.5 -10.5q14 0 26 10.5t12 26.5t-11.5 27t-25.5 11q-16 0 -26.5 -11.5t-10.5 -26.5z" />
    <glyph glyph-name="ring" unicode="&#x2da;" horiz-adv-x="269" 
d="M142 786q-4 -27 6.5 -50t31 -36.5t46.5 -13.5q27 -1 52 12.5t42.5 36t21.5 49.5q3 27 -7.5 50t-30.5 36.5t-46 14.5q-27 0 -52 -13.5t-42.5 -35.5t-21.5 -50zM176 785q3 18 15 33.5t29.5 25.5t34.5 9q25 -2 40.5 -22t12.5 -45q-3 -18 -15 -34t-29.5 -25.5t-34.5 -8.5
q-24 1 -40 21t-13 46z" />
    <glyph glyph-name="ogonek" unicode="&#x2db;" horiz-adv-x="248" 
d="M155 -147q-13 -10 -30.5 -19t-38.5 -7q-27 1 -42 15.5t-13 41.5q4 26 25 48t50.5 38.5t55.5 29.5l-25 19q-34 -17 -69 -37.5t-60 -47t-30 -61.5q-3 -29 8 -49.5t35 -32t57 -10.5q29 0 53 11.5t41 26.5z" />
    <glyph glyph-name="tilde" unicode="&#x2dc;" horiz-adv-x="514" 
d="M193 637l32 -24q4 10 11 21.5t18.5 19.5t29.5 9q21 0 37 -11.5t33 -23t40 -11.5q22 -1 39.5 8t32 23.5t25.5 31.5l-27 28q-14 -19 -29 -33t-33 -14q-18 -1 -31.5 5.5t-25 16t-25 16.5t-32.5 8q-23 0 -41.5 -10t-32 -26t-21.5 -34z" />
    <glyph glyph-name="hungarumlaut" unicode="&#x2dd;" horiz-adv-x="0" 
d="M54 517l152 197l-56 15l-132 -199zM192 517l153 197l-56 15l-132 -199z" />
    <glyph glyph-name="gravecomb" unicode="&#x300;" horiz-adv-x="0" 
d="M256 541l30 20l-131 160l-50 -27z" />
    <glyph glyph-name="acutecomb" unicode="&#x301;" horiz-adv-x="0" 
d="M130 538l204 153l-52 30l-184 -160z" />
    <glyph glyph-name="uni0302" unicode="&#x302;" horiz-adv-x="0" 
d="M113 560l158 120h-22l115 -119l33 33l-132 134l-177 -134z" />
    <glyph glyph-name="tildecomb" unicode="&#x303;" horiz-adv-x="0" 
d="M126 609q1 11 9 22.5t21.5 20t32.5 8.5q15 0 27.5 -7t25 -16.5t26.5 -16.5t34 -7q22 0 39.5 8.5t32.5 23.5t26 33l-26 30q-18 -24 -34.5 -36t-33.5 -12q-19 0 -31.5 7t-23.5 16.5t-24.5 16.5t-35.5 7q-23 0 -42.5 -9.5t-33.5 -25.5t-20 -37z" />
    <glyph glyph-name="uni0304" unicode="&#x304;" horiz-adv-x="0" 
d="M93 626h350l8 49h-350z" />
    <glyph glyph-name="uni0306" unicode="&#x306;" horiz-adv-x="0" 
d="M243 558q46 0 83.5 17t62 47t31.5 68h-47q-4 -25 -22.5 -45.5t-46 -32t-57.5 -11.5q-32 0 -55.5 11.5t-34 32t-6.5 45.5h-47q-7 -38 9.5 -68t50 -47t79.5 -17z" />
    <glyph glyph-name="uni0307" unicode="&#x307;" horiz-adv-x="0" 
d="M133 604q14 0 26 11t12 26t-12 26t-26 11q-16 0 -26.5 -11t-10.5 -26t10.5 -26t26.5 -11z" />
    <glyph glyph-name="uni0308" unicode="&#x308;" horiz-adv-x="0" 
d="M201 610q16 0 27 11.5t11 26.5q0 16 -11 26.5t-27 10.5q-15 0 -26 -10.5t-11 -26.5q0 -15 11 -26.5t26 -11.5zM268 610q15 0 26.5 11.5t11.5 26.5q0 16 -11.5 26.5t-26.5 10.5q-16 0 -26.5 -10.5t-10.5 -26.5q0 -15 10.5 -26.5t26.5 -11.5z" />
    <glyph glyph-name="uni030A" unicode="&#x30a;" horiz-adv-x="0" 
d="M184 524q30 0 57.5 14t46 38.5t23.5 53.5q5 30 -5.5 54t-33 38t-52.5 14t-57 -14t-45.5 -38t-23.5 -54q-8 -44 18.5 -75t71.5 -31zM190 559q-30 0 -46.5 21t-11.5 50t28.5 50t53.5 21q29 0 46 -21t12 -50t-29 -50t-53 -21z" />
    <glyph glyph-name="uni030B" unicode="&#x30b;" horiz-adv-x="0" 
d="M54 517l152 197l-56 15l-132 -199zM192 517l153 197l-56 15l-132 -199z" />
    <glyph glyph-name="uni030C" unicode="&#x30c;" horiz-adv-x="0" 
d="M237 561l177 135l-26 34l-157 -120h22l-116 118l-32 -32z" />
    <glyph glyph-name="uni0312" unicode="&#x312;" horiz-adv-x="0" 
d="M125 508l138 256l-34 14l-152 -250z" />
    <glyph glyph-name="uni0326" unicode="&#x326;" horiz-adv-x="0" 
d="M-19 -219l130 177l-36 24l-120 -184z" />
    <glyph glyph-name="uni0327" unicode="&#x327;" horiz-adv-x="0" 
d="M40 -220q35 0 62 12t44 33.5t22 48.5q4 30 -14.5 53.5t-50.5 23.5q-19 0 -34 -5.5t-25 -19.5l19 1l82 109h-44l-92 -127q14 6 34 9t35 3q27 0 39 -12t8 -35q-4 -27 -25.5 -42.5t-53.5 -15.5q-22 0 -35.5 6t-30.5 20l-23 -30q17 -16 36.5 -24t46.5 -8z" />
    <glyph glyph-name="uni0328" unicode="&#x328;" horiz-adv-x="0" 
d="M66 -220q32 0 58.5 12.5t40.5 27.5l-16 33q-13 -11 -30.5 -19t-41.5 -8q-26 0 -43 14t-12 44q3 23 23.5 44.5t50 40t60.5 31.5l-28 19q-38 -18 -72.5 -40t-59 -48.5t-29.5 -58.5q-4 -27 6.5 -48t34.5 -32.5t58 -11.5z" />
    <glyph glyph-name="uni0394" unicode="&#x394;" horiz-adv-x="600" 
d="M-17 0l404 770l144 -770h-548zM72 49h392l-102 574z" />
    <glyph glyph-name="uni03A9" unicode="&#x3a9;" horiz-adv-x="600" 
d="M24 0l9 44h119q-28 35 -47 80t-26 94.5t1 96.5q12 70 51 125t97 87t124 32t112.5 -32t67.5 -87t9 -125q-8 -47 -30.5 -96.5t-55.5 -94.5t-74 -80h119l-9 -44h-194l9 48q31 18 60 47t53 65t41 74.5t22 76.5q10 58 -4 100.5t-49 65.5t-88 23t-95.5 -23t-71 -65.5
t-38.5 -100.5q-8 -50 1.5 -101.5t33 -94.5t56.5 -67l-9 -48h-194z" />
    <glyph glyph-name="uni03BC" unicode="&#x3bc;" horiz-adv-x="505" 
d="M180 460h-52l-133 -779l50 -1l61 357q12 -21 32.5 -33.5t54.5 -12.5q52 0 91.5 26t63.5 68l-13 -85h51l80 460h-52l-50 -285q-6 -37 -27.5 -67.5t-54.5 -49t-72 -18.5q-35 -1 -54.5 14.5t-26.5 42.5t-3 61z" />
    <glyph glyph-name="pi" unicode="&#x3c0;" horiz-adv-x="497" 
d="M134 438l-73 -438h50l76 438h-53zM80 460l-9 -49h430l9 49h-430zM377 438l-54 -317q-4 -34 -2 -57.5t11 -38.5t26.5 -23t45.5 -10l9 51q-20 5 -29 14.5t-10 27.5t2 48l53 305h-52z" />
    <glyph glyph-name="uni0400" unicode="&#x400;" horiz-adv-x="533" 
d="M83 0h339l9 52h-339zM193 649h338l10 51h-339zM144 359h318l9 51h-318zM173 700l-118 -700h53l121 700h-56zM242 934l151 -154l30 19l-130 161z" />
    <glyph glyph-name="uni0401" unicode="&#x401;" horiz-adv-x="533" 
d="M83 0h339l9 52h-339zM193 649h338l10 51h-339zM144 359h318l9 51h-318zM173 700l-118 -700h53l121 700h-56zM446 838q-2 -15 7 -26.5t24 -12.5q13 -1 27 10.5t15 26.5q2 15 -8 26t-23 11q-14 1 -27.5 -10.5t-14.5 -24.5zM252 838q-2 -15 7 -26.5t24 -12.5q13 -1 27 10.5
t15 26.5q2 15 -8 26t-23 11q-15 1 -28 -10.5t-14 -24.5z" />
    <glyph glyph-name="uni0403" unicode="&#x403;" horiz-adv-x="422" 
d="M168 700l-117 -700h53l111 648h281l10 52h-338zM523 931l-44 28l-178 -158l25 -21z" />
    <glyph glyph-name="uni040C" unicode="&#x40c;" horiz-adv-x="548" 
d="M171 700l-118 -700h53l121 700h-56zM505 700l-351 -326l250 -374h65l-250 370l359 330h-73zM582 931l-44 29l-180 -158l27 -21z" />
    <glyph glyph-name="uni040D" unicode="&#x40d;" horiz-adv-x="732" 
d="M729 646l24 94l-684 -686l-24 -93zM229 700h-56l-128 -739l70 77zM753 740l-71 -76l-113 -664h55zM329 909l149 -154l30 19l-128 162z" />
    <glyph glyph-name="uni040E" unicode="&#x40e;" horiz-adv-x="515" 
d="M611 700h-64l-289 -467l32 -3l-135 470h-62l147 -483l-133 -217h64zM229 909q-3 -37 11 -69t44.5 -51.5t77.5 -19.5q49 0 85 19.5t58.5 51t31.5 68.5h-47q-7 -23 -23 -45.5t-40.5 -36.5t-59.5 -14t-55.5 14.5t-29 36.5t-7.5 46h-46z" />
    <glyph glyph-name="uni0410" unicode="&#x410;" horiz-adv-x="640" 
d="M149 236l349 -1l-9 52h-315zM385 600l77 -334l2 -13l58 -253h59l-175 729l-427 -729h65l145 257l9 12z" />
    <glyph glyph-name="uni0411" unicode="&#x411;" horiz-adv-x="515" 
d="M141 368h143q50 -1 86 -20.5t53.5 -54.5t9.5 -83q-9 -49 -38.5 -84.5t-73.5 -54t-95 -19.5h-136l-11 -52h144q65 1 122 27t95 72.5t47 110.5q10 62 -14.5 109t-73 73.5t-112.5 27.5h-135zM168 700l-117 -700h53l111 648h295l10 52h-352z" />
    <glyph glyph-name="uni0412" unicode="&#x412;" 
d="M160 377h112q55 0 101.5 17.5t78 51t39.5 85.5q7 40 -3 71t-34 52.5t-59 33t-77 12.5h-145l-120 -700h162q65 1 120.5 24t92 68t45.5 111q7 46 -7 81t-42 58.5t-66 35.5t-78 13h-118l-5 -31l118 -1q33 -1 62 -12t49 -31t29 -47.5t4 -62.5q-9 -50 -37 -85t-70.5 -53
t-94.5 -18l-99 -1l101 602h96q61 -1 96 -34t25 -89q-7 -39 -31.5 -65.5t-60 -40t-75.5 -14.5h-104z" />
    <glyph glyph-name="uni0413" unicode="&#x413;" horiz-adv-x="422" 
d="M168 700l-117 -700h53l111 648h281l10 52h-338z" />
    <glyph glyph-name="uni0414" unicode="&#x414;" horiz-adv-x="771" 
d="M461 608l120 -586h55l-154 715l-400 -715h61zM655 0l-20 -109h48l29 161h-691l-29 -161h49l20 109h594z" />
    <glyph glyph-name="uni0415" unicode="&#x415;" horiz-adv-x="533" 
d="M83 0h339l9 52h-339zM193 649h338l10 51h-339zM144 359h318l9 51h-318zM173 700l-118 -700h53l121 700h-56z" />
    <glyph glyph-name="uni0416" unicode="&#x416;" horiz-adv-x="769" 
d="M177 700h-63l231 -326l-370 -374h72l362 368zM454 700l-118 -700h53l121 700h-56zM773 700l-331 -327l230 -373h64l-235 369l345 331h-73z" />
    <glyph glyph-name="uni0417" unicode="&#x417;" horiz-adv-x="588" 
d="M308 352q51 1 98 12t85.5 32t63.5 53t34 75q8 52 -14.5 94t-69 66.5t-107.5 25.5q-64 0 -115.5 -23t-86 -64t-46.5 -96h53q11 38 37.5 68.5t66.5 47.5t90 17q46 -1 79 -18.5t48.5 -48.5t8.5 -71q-9 -43 -41 -72.5t-78.5 -45t-100.5 -17.5zM279 -9q69 0 127 23t96 66.5
t48 104.5q8 52 -9 88t-52 58t-81.5 32t-96.5 11l-6 -35q40 -2 77 -9.5t65.5 -24.5t42 -44.5t6.5 -69.5q-9 -46 -38 -79.5t-75 -51t-102 -17.5q-55 0 -92.5 17t-56 49t-16.5 76h-54q-5 -44 8 -80t41.5 -61.5t71 -39t96.5 -13.5z" />
    <glyph glyph-name="uni0418" unicode="&#x418;" horiz-adv-x="732" 
d="M729 646l24 94l-684 -686l-24 -93zM229 700h-56l-128 -739l70 77zM753 740l-71 -76l-113 -664h55z" />
    <glyph glyph-name="uni0419" unicode="&#x419;" horiz-adv-x="732" 
d="M729 646l24 94l-684 -686l-24 -93zM229 700h-56l-128 -739l70 77zM753 740l-71 -76l-113 -664h55zM338 906q-2 -37 12 -69t44 -51t78 -19q49 0 85 19.5t58 51t31 67.5l-46 1q-7 -24 -22.5 -46.5t-40.5 -36.5t-60 -13q-35 0 -55.5 13.5t-30 36t-7.5 46.5h-46z" />
    <glyph glyph-name="uni041A" unicode="&#x41a;" horiz-adv-x="548" 
d="M171 700l-118 -700h53l121 700h-56zM505 700l-351 -326l250 -374h64l-249 370l359 330h-73z" />
    <glyph glyph-name="uni041B" unicode="&#x41b;" horiz-adv-x="620" 
d="M637 700h-445l-77 -448q-6 -36 -15.5 -69.5t-24.5 -62.5t-36 -47.5t-48 -24.5l-8 -47q53 6 90 40t60 86t33 113l68 408h338l-110 -648h55z" />
    <glyph glyph-name="uni041C" unicode="&#x41c;" horiz-adv-x="786" 
d="M225 553l159 -473l316 469l-34 -549h55l48 731l-367 -540l-180 537l-204 -728h56z" />
    <glyph glyph-name="uni041D" unicode="&#x41d;" horiz-adv-x="693" 
d="M143 356h460l9 51h-460zM623 700l-118 -700h54l121 700h-57zM173 700l-118 -700h53l121 700h-56z" />
    <glyph glyph-name="uni041E" unicode="&#x41e;" horiz-adv-x="766" 
d="M132 350q11 63 40.5 117.5t73.5 96.5t100.5 66t121.5 24q63 -1 109.5 -26t75 -68t38.5 -97t2 -113q-11 -63 -40 -117.5t-73 -96.5t-100.5 -66t-120.5 -23q-63 0 -109.5 25t-75.5 68t-39.5 97t-2.5 113zM74 350q-10 -70 5 -134.5t51.5 -115t93.5 -80t131 -29.5
q75 0 142.5 28t120.5 78t88 115t46 138q10 70 -4.5 134.5t-51.5 115t-94 80t-131 29.5q-76 0 -142.5 -28t-120 -78t-88.5 -115t-46 -138z" />
    <glyph glyph-name="uni041F" unicode="&#x41f;" horiz-adv-x="664" 
d="M618 649l-111 -649h53l120 700h-511l-120 -700h55l111 648z" />
    <glyph glyph-name="uni0420" unicode="&#x420;" horiz-adv-x="531" 
d="M173 700l-118 -700h53l121 700h-56zM193 648h133q48 -1 82 -20t49.5 -53t8.5 -82q-9 -48 -37 -83t-69.5 -53t-90.5 -19h-127l-10 -52h134q64 1 118.5 26.5t91 71.5t45.5 109q9 61 -13.5 107.5t-69 72.5t-108.5 27h-126z" />
    <glyph glyph-name="uni0421" unicode="&#x421;" horiz-adv-x="664" 
d="M133 350q11 62 40 117t72.5 96.5t99 65t117.5 24.5q43 0 80 -10.5t66.5 -31.5t53.5 -53l12 73q-43 39 -92.5 58.5t-116.5 19.5q-74 0 -140 -28.5t-118 -77t-87 -114t-46 -139.5q-10 -70 4.5 -134.5t50 -115t91.5 -80t129 -29.5q70 0 125.5 20.5t104.5 57.5l12 73
q-32 -28 -68.5 -49.5t-79 -33.5t-90.5 -11q-60 0 -105.5 25t-74 67.5t-38.5 96.5t-2 113z" />
    <glyph glyph-name="uni0422" unicode="&#x422;" horiz-adv-x="451" 
d="M95 648h179l-110 -648h55l110 648h179l10 52h-413z" />
    <glyph glyph-name="uni0423" unicode="&#x423;" horiz-adv-x="515" 
d="M611 700h-64l-289 -467l32 -3l-135 470h-62l147 -483l-133 -217h64z" />
    <glyph glyph-name="uni0424" unicode="&#x424;" horiz-adv-x="738" 
d="M434 700l-118 -700h53l121 700h-56zM680 350q-13 -69 -55 -116t-105 -72.5t-136 -26.5l-41 1q-70 1 -124 26.5t-79.5 72.5t-14.5 115q12 69 54 116t105.5 72.5t136.5 26.5h41q70 -1 123.5 -27t80 -73t14.5 -115zM734 350q10 62 -7 111.5t-54.5 84.5t-90.5 54t-116 20h-41
q-88 -1 -164 -33.5t-126.5 -92.5t-64.5 -144q-9 -62 7.5 -111.5t54 -84.5t91 -54t117.5 -20h40q88 1 163.5 33.5t126.5 92.5t64 144z" />
    <glyph glyph-name="uni0425" unicode="&#x425;" horiz-adv-x="538" 
d="M516 700l-211 -283l-111 283h-63l139 -330l-286 -370h69l236 317l124 -317h63l-152 364l261 336h-69z" />
    <glyph glyph-name="uni0426" unicode="&#x426;" horiz-adv-x="708" 
d="M112 52l111 648h-53l-121 -700h546l-20 -109h49l29 161h-83l111 648h-55l-111 -648h-403z" />
    <glyph glyph-name="uni0427" unicode="&#x427;" horiz-adv-x="567" 
d="M303 281h192l9 48h-193zM528 700l-118 -700h53l121 700h-56zM222 700h-52l-32 -182q-9 -62 6.5 -116.5t55 -87.5t103.5 -33l8 48q-49 0 -78.5 26.5t-40 69.5t-2.5 93z" />
    <glyph glyph-name="uni0428" unicode="&#x428;" horiz-adv-x="925" 
d="M777 52h-304l111 648h-55l-111 -648h-304l111 648h-55l-121 -700h774l120 700h-55z" />
    <glyph glyph-name="uni0429" unicode="&#x429;" horiz-adv-x="970" 
d="M777 52h-304l111 648h-55l-111 -648h-304l111 648h-55l-121 -700h808l-20 -109h49l29 161h-83l111 648h-55z" />
    <glyph glyph-name="uni042A" unicode="&#x42a;" horiz-adv-x="621" 
d="M247 368h143q50 -1 86 -20t53.5 -54.5t9.5 -83.5q-9 -49 -38.5 -84.5t-73.5 -54t-95 -19.5h-136l-11 -52h143q66 0 122.5 26t95 73t47.5 111q9 62 -15 109.5t-72 74t-112 26.5h-136zM269 649l-111 -649h53l120 700h-230l-9 -52z" />
    <glyph glyph-name="uni042B" unicode="&#x42b;" horiz-adv-x="711" 
d="M669 700l-117 -700h53l121 700h-57zM167 700l-118 -700h53l121 700h-56zM138 368h143q50 -1 86 -20t53.5 -54.5t9.5 -83.5q-9 -49 -38.5 -84.5t-73.5 -54t-95 -19.5h-136l-11 -52h144q65 0 121.5 26t95 73t47.5 111q10 62 -14.5 109.5t-72.5 74t-112 26.5h-136z" />
    <glyph glyph-name="uni042C" unicode="&#x42c;" horiz-adv-x="513" 
d="M167 700l-118 -700h53l121 700h-56zM138 368h143q50 -1 86 -20t53.5 -54.5t9.5 -83.5q-9 -49 -38.5 -84.5t-73.5 -54t-95 -19.5h-136l-11 -52h144q65 0 121.5 26t95 73t47.5 111q10 62 -14.5 109.5t-72.5 74t-112 26.5h-136z" />
    <glyph glyph-name="uni042D" unicode="&#x42d;" horiz-adv-x="664" 
d="M168 325h427l9 51h-427zM597 350q-11 -62 -40 -117t-72.5 -96.5t-99 -65t-116.5 -23.5q-44 0 -81 10.5t-66.5 32t-53.5 52.5l-12 -73q43 -40 92.5 -59.5t116.5 -19.5q74 0 140 28.5t118 77t87 114t46 139.5q10 70 -4.5 134.5t-50.5 115t-91.5 80t-128.5 29.5
q-71 0 -126 -20.5t-104 -56.5l-11 -73q30 28 67.5 49.5t80 33t89.5 11.5q61 -1 106.5 -26t73.5 -68t38 -96.5t2 -112.5z" />
    <glyph glyph-name="uni042E" unicode="&#x42e;" horiz-adv-x="996" 
d="M141 355h215l10 51h-216zM169 700l-118 -700h53l121 700h-56zM369 351q11 63 40.5 117.5t73.5 96.5t100.5 66t121.5 24q63 -1 109.5 -26t75 -68t38.5 -97t2 -113q-11 -63 -40 -117.5t-73 -97t-100.5 -66.5t-120.5 -23q-64 0 -110 25.5t-75.5 68.5t-39.5 97t-2 113z
M311 351q-10 -70 4.5 -135t51 -116t93.5 -80.5t132 -29.5t142 28t120.5 78.5t88 116t46.5 138.5q10 70 -4.5 134.5t-51.5 115t-94 80t-131 29.5q-76 0 -142.5 -28t-120 -78t-88.5 -115t-46 -138z" />
    <glyph glyph-name="uni042F" unicode="&#x42f;" horiz-adv-x="507" 
d="M345 334h-65l-290 -334h71zM520 700h-55l-120 -700h54zM482 651l10 49h-132q-65 0 -121.5 -24.5t-94 -69.5t-46.5 -108q-10 -63 14 -108t72.5 -70t112.5 -26h124l10 49l-131 1q-49 0 -86 18.5t-53.5 53t-8.5 81.5q8 50 37.5 84t73 52t94.5 18h125z" />
    <glyph glyph-name="uni0430" unicode="&#x430;" horiz-adv-x="470" 
d="M81 135q5 35 27 59t55.5 36t71.5 13q41 0 72.5 -12.5t58.5 -32.5l6 31q-13 13 -31.5 25.5t-44 20.5t-59.5 9q-50 0 -95 -17.5t-76 -51.5t-38 -81q-6 -45 10 -77t47 -49t73 -17q48 -1 87.5 19t66 54.5t36.5 76.5l-6 31q-10 -39 -33.5 -70t-57.5 -48t-77 -16q-28 0 -51 11
t-35 32.5t-7 53.5zM133 369q19 13 41.5 26t49.5 21t57 7q31 0 52 -12.5t30 -34t5 -50.5l-58 -326h52l56 326q5 32 -2 58.5t-24.5 45t-44.5 29t-61 11.5q-53 0 -95.5 -19t-76.5 -40z" />
    <glyph glyph-name="uni0431" unicode="&#x431;" horiz-adv-x="529" 
d="M312 421q52 0 88.5 -26t53.5 -69t9 -96t-38.5 -96t-75.5 -69t-97 -25q-51 0 -84 24.5t-48 62.5t-15 77l-51 30q0 -62 19 -118t62.5 -91t114.5 -35q67 0 124 32.5t94.5 86.5t47.5 121q8 65 -14 119.5t-69 87.5t-113 33zM80 222l25 -18q0 48 18 88t49 69t67 44.5t73 15.5
l8 49q-47 0 -89 -19.5t-73.5 -53.5t-52 -78.5t-25.5 -96.5zM54 234l46 -28v67q0 52 16.5 104.5t47 99.5t72 82t92.5 54q49 18 87.5 41t66.5 54t44 71l-52 1q-21 -42 -59 -72t-98 -52q-61 -23 -109.5 -64.5t-83 -96.5t-52.5 -122t-18 -139z" />
    <glyph glyph-name="uni0432" unicode="&#x432;" horiz-adv-x="422" 
d="M114 236l-4 -26l131 -1q20 -1 38.5 -5t33.5 -12t22 -23t4 -37q-7 -38 -40 -62t-81 -24h-136l-7 -46l151 1q68 0 111.5 34t51.5 90q6 44 -14 68t-56 33.5t-77 9.5h-128zM113 225h122q40 0 77 11t62.5 35t31.5 64q6 42 -12 70t-51 41.5t-73 13.5h-118l-7 -45l121 -1
q27 -1 48.5 -10t32.5 -27t7 -44q-4 -22 -15.5 -36.5t-29 -23.5t-37 -14t-36.5 -5h-118zM123 460l-77 -460h50l81 460h-54z" />
    <glyph glyph-name="uni0433" unicode="&#x433;" horiz-adv-x="308" 
d="M127 460l-76 -460h50l71 411h175l10 49h-230z" />
    <glyph glyph-name="uni0434" unicode="&#x434;" horiz-adv-x="635" 
d="M355 381l101 -360h54l-137 476l-301 -475h60zM517 0l-17 -90h50l26 139h-555l-26 -139h55l16 90h451z" />
    <glyph glyph-name="uni0435" unicode="&#x435;" horiz-adv-x="497" 
d="M86 217h387q1 6 2.5 12.5t2.5 12.5q7 60 -11.5 112t-59 83.5t-101.5 32.5q-56 0 -103 -24t-81.5 -64.5t-50.5 -90.5q-7 -14 -10 -29t-5 -31q-8 -61 9.5 -115.5t59 -89.5t103.5 -35q53 -1 93 15t71.5 43t57.5 57l-39 29q-20 -25 -45 -46.5t-56.5 -35.5t-71.5 -13
q-51 0 -82 27.5t-42.5 71t-5.5 92.5l4 18q8 50 35 89t67.5 62.5t87.5 23.5q46 -1 75 -24t41.5 -60t6.5 -78h-332z" />
    <glyph glyph-name="uni0436" unicode="&#x436;" horiz-adv-x="568" 
d="M532 460l-217 -187l161 -273h61l-167 262l231 198h-69zM361 460h-49l-78 -460l48 1zM136 460h-60l158 -193l-260 -267h68l251 268z" />
    <glyph glyph-name="uni0437" unicode="&#x437;" horiz-adv-x="460" 
d="M249 236q45 1 83 12t64 33.5t33 59.5q6 37 -11.5 66.5t-50.5 46t-73 16.5q-46 0 -84 -20t-63 -51.5t-34 -68.5l53 -1q7 23 24 44.5t42.5 35.5t59.5 13q26 0 47 -10t31.5 -28t7.5 -41q-7 -39 -42.5 -56t-80.5 -19zM216 -9q46 0 89 17t73 48.5t36 76.5q7 43 -15 70t-61 39
t-86 13l-5 -32q32 -2 60.5 -10.5t45 -27.5t10.5 -52q-5 -31 -27.5 -52.5t-53.5 -33t-63 -10.5q-57 0 -82.5 31.5t-29.5 76.5h-51q1 -67 42.5 -110.5t117.5 -43.5z" />
    <glyph glyph-name="uni0438" unicode="&#x438;" horiz-adv-x="501" 
d="M463 413l22 87l-421 -452l-23 -87zM181 460h-52l-88 -499l67 76zM485 500l-68 -76l-72 -424h52z" />
    <glyph glyph-name="uni0439" unicode="&#x439;" horiz-adv-x="501" 
d="M463 413l22 87l-421 -452l-23 -87zM181 460h-52l-88 -499l67 76zM485 500l-68 -76l-72 -424h52zM182 689q-3 -37 11 -69t44.5 -51t78.5 -19t84 19.5t58 51t32 67.5l-47 1q-8 -24 -23.5 -46.5t-40 -36.5t-60.5 -13q-34 0 -54.5 13.5t-29.5 36t-8 46.5h-45z" />
    <glyph glyph-name="uni043A" unicode="&#x43a;" horiz-adv-x="426" 
d="M122 460l-77 -460h50l81 460h-54zM362 460l-239 -187l184 -273h62l-183 268l247 192h-71z" />
    <glyph glyph-name="uni043B" unicode="&#x43b;" horiz-adv-x="514" 
d="M489 460h-358l-51 -300q-8 -50 -31 -77.5t-58 -34.5l-8 -47q42 4 72.5 23t50 52.5t27.5 83.5l42 251h253l-70 -411h52z" />
    <glyph glyph-name="uni043C" unicode="&#x43c;" horiz-adv-x="589" 
d="M499 0h58l-30 498l-46 -94zM257 48l4 -80l249 412l17 118zM261 -32l31 74l-112 456l-26 -111zM-24 0h61l152 398l-9 100z" />
    <glyph glyph-name="uni043D" unicode="&#x43d;" horiz-adv-x="521" 
d="M113 220h328l8 48h-327zM448 460l-77 -460h50l81 460h-54zM123 460l-77 -460h50l81 460h-54z" />
    <glyph glyph-name="uni043E" unicode="&#x43e;" horiz-adv-x="529" 
d="M49 230q-9 -63 11.5 -118t67 -88t114.5 -33q66 0 123.5 32t95.5 86.5t49 120.5q9 64 -12.5 118.5t-68 88t-112.5 33.5q-68 0 -125.5 -32.5t-95 -87t-47.5 -120.5zM102 230q9 53 39 96t75 69t98 26q52 -1 86.5 -28t49 -70t7.5 -93q-9 -52 -39.5 -95.5t-75.5 -69.5t-98 -25
q-53 0 -87 26.5t-48 70.5t-7 93z" />
    <glyph glyph-name="uni043F" unicode="&#x43f;" horiz-adv-x="482" 
d="M462 460h-338l-80 -460h52l71 411h234l-71 -411h53z" />
    <glyph glyph-name="uni0440" unicode="&#x440;" horiz-adv-x="553" 
d="M59 -219l115 679h-51l-118 -680zM517 230q8 63 -10.5 118.5t-61.5 88.5t-107 33q-46 -1 -85 -20.5t-68.5 -53.5t-48.5 -77t-25 -89q-6 -43 -0.5 -86t23.5 -77.5t50 -55.5t79 -21q64 0 118 31.5t90 86t46 122.5zM465 230q-8 -54 -37.5 -97t-73.5 -69t-95 -24
q-35 0 -60.5 16.5t-41 44t-21.5 61.5t-1 68q6 37 23.5 71t44 61.5t58.5 43t68 15.5q50 0 83 -26.5t46.5 -70t6.5 -94.5z" />
    <glyph glyph-name="uni0441" unicode="&#x441;" horiz-adv-x="463" 
d="M97 230q9 53 39 96t75 68.5t98 26.5q33 0 60.5 -9.5t47.5 -26.5t31 -39l11 65q-25 26 -63 42.5t-84 16.5q-68 -1 -125 -33t-95 -86t-48 -121q-9 -63 11.5 -118t67 -88.5t114.5 -33.5q47 0 89.5 16.5t71.5 42.5l10 64q-18 -19 -44 -36t-57.5 -27t-66.5 -10
q-53 1 -87.5 27.5t-48.5 70t-7 92.5z" />
    <glyph glyph-name="uni0442" unicode="&#x442;" horiz-adv-x="271" 
d="M55 460l-9 -49h264l10 49h-265zM158 446l-74 -446h50l78 446h-54z" />
    <glyph glyph-name="uni0443" unicode="&#x443;" horiz-adv-x="426" 
d="M471 460h-60l-223 -389l24 -3l-96 392h-60l111 -410l-165 -269h61z" />
    <glyph glyph-name="uni0444" unicode="&#x444;" horiz-adv-x="568" 
d="M327 560l-112 -659h50l115 659h-53zM45 230q-10 -67 14 -121t75.5 -86.5t124.5 -32.5q74 0 135.5 31.5t102 86t51.5 122.5q10 67 -14 121t-75.5 86.5t-124.5 32.5q-74 0 -135.5 -31.5t-102 -85.5t-51.5 -123zM98 230q9 54 41.5 97t82 68.5t110.5 25.5q59 -1 99 -27
t56.5 -69.5t7.5 -94.5q-9 -53 -41.5 -96.5t-82 -69t-109.5 -24.5q-60 0 -100 26t-56.5 69.5t-7.5 94.5z" />
    <glyph glyph-name="uni0445" unicode="&#x445;" horiz-adv-x="407" 
d="M370 460l-154 -180l-94 180h-56l116 -220l-208 -240h63l167 195l100 -195h56l-123 235l196 225h-63z" />
    <glyph glyph-name="uni0446" unicode="&#x446;" horiz-adv-x="521" 
d="M391 49l70 411h-50l-71 -411h-234l70 411h-52l-80 -460h371l-15 -89h46l25 138h-80z" />
    <glyph glyph-name="uni0447" unicode="&#x447;" horiz-adv-x="443" 
d="M221 141h134l9 48h-135zM370 460l-76 -460h49l81 460h-54zM152 460h-52l-23 -132q-10 -61 0 -103t44.5 -63t99.5 -21l8 48q-47 0 -71 15.5t-30.5 46.5t0.5 77z" />
    <glyph glyph-name="uni0448" unicode="&#x448;" horiz-adv-x="729" 
d="M371 49l71 411h-51l-70 -411h-215l70 411h-52l-80 -460h586l80 460h-52l-70 -411h-217z" />
    <glyph glyph-name="uni0449" unicode="&#x449;" horiz-adv-x="768" 
d="M371 49l71 411h-51l-70 -411h-215l70 411h-52l-80 -460h619l-16 -89h46l25 138h-78l70 411h-52l-70 -411h-217z" />
    <glyph glyph-name="uni044A" unicode="&#x44a;" horiz-adv-x="535" 
d="M208 241l131 -1q47 -1 74.5 -25.5t20.5 -70.5q-5 -33 -24 -54.5t-46.5 -32.5t-60.5 -11h-128l-7 -46h132q46 0 85.5 16t66 47.5t33.5 79.5q7 47 -10.5 79t-52 48t-79.5 16h-127zM208 412l-70 -412h50l80 460h-213l-9 -49z" />
    <glyph glyph-name="uni044B" unicode="&#x44b;" horiz-adv-x="588" 
d="M516 460l-77 -460h50l80 460h-53zM123 460l-77 -460h50l81 460h-54zM114 241l131 -1q32 -1 55 -12t34 -32.5t6 -51.5q-6 -33 -25 -54.5t-46.5 -32.5t-59.5 -11h-128l-7 -46h131q46 0 85.5 16t66.5 47.5t34 79.5q7 47 -10.5 79t-52 48t-79.5 16h-127z" />
    <glyph glyph-name="uni044C" unicode="&#x44c;" horiz-adv-x="441" 
d="M123 460l-77 -460h50l81 460h-54zM114 241l131 -1q32 -1 55 -12t34 -32.5t6 -51.5q-6 -33 -24.5 -54.5t-46 -32.5t-60.5 -11h-128l-7 -46h132q45 0 84.5 16t66.5 47.5t35 79.5q6 46 -11.5 78.5t-52 48.5t-79.5 16h-127z" />
    <glyph glyph-name="uni044D" unicode="&#x44d;" horiz-adv-x="467" 
d="M149 254l-8 -47h255l50 47h-297zM396 230q-9 -52 -39.5 -95.5t-75.5 -69t-98 -25.5q-33 -1 -60 8.5t-47.5 27t-31.5 38.5l-10 -64q23 -28 62 -44t85 -15q66 0 123.5 32t95.5 86.5t48 120.5q9 64 -12 118.5t-67.5 88t-112.5 33.5q-48 0 -90.5 -17.5t-71.5 -40.5l-10 -65
q18 19 44 36t57.5 27.5t67.5 9.5q52 -1 86.5 -27.5t49 -69.5t7.5 -93z" />
    <glyph glyph-name="uni044E" unicode="&#x44e;" horiz-adv-x="727" 
d="M113 218h166l10 48h-168zM123 460l-77 -460h50l81 460h-54zM243 230q-9 -63 12 -118t67 -88t114 -33q67 0 124.5 32t95 86.5t48.5 120.5q9 64 -12 118.5t-67.5 88t-113.5 33.5q-68 0 -125 -32.5t-95 -87t-48 -120.5zM296 230q9 53 39 96t75 69t98 26q52 -1 86.5 -28
t49 -70t7.5 -93q-9 -52 -39.5 -95.5t-75.5 -69.5t-98 -25q-53 0 -87 26.5t-48 70.5t-7 93z" />
    <glyph glyph-name="uni044F" unicode="&#x44f;" horiz-adv-x="441" 
d="M83 0l192 220h-58l-196 -220h62zM368 0l76 460h-50l-80 -460h54zM376 230l-129 1q-31 0 -54.5 9.5t-35 30t-6.5 51.5q5 32 24 52t46.5 30t59.5 10l126 1l7 45h-129q-46 -1 -85.5 -16t-66.5 -44.5t-33 -76.5q-7 -48 10.5 -78.5t53 -45.5t79.5 -15l126 1z" />
    <glyph glyph-name="uni0450" unicode="&#x450;" horiz-adv-x="497" 
d="M86 217h387q1 6 2.5 12.5t2.5 12.5q7 60 -11.5 112t-59 83.5t-101.5 32.5q-56 0 -103 -24t-81.5 -64.5t-50.5 -90.5q-7 -14 -10 -29t-5 -31q-8 -61 9.5 -115.5t59 -89.5t103.5 -35q53 -1 93 15t71.5 43t57.5 57l-39 29q-20 -25 -45 -46.5t-56.5 -35.5t-71.5 -13
q-51 0 -82 27.5t-42.5 71t-5.5 92.5l4 18q8 50 35 89t67.5 62.5t87.5 23.5q46 -1 75 -24t41.5 -60t6.5 -78h-332zM185 689l150 -153l31 18l-131 161z" />
    <glyph glyph-name="uni0451" unicode="&#x451;" horiz-adv-x="497" 
d="M86 217h387q1 6 2.5 12.5t2.5 12.5q7 60 -11.5 112t-59 83.5t-101.5 32.5q-56 0 -103 -24t-81.5 -64.5t-50.5 -90.5q-7 -14 -10 -29t-5 -31q-8 -61 9.5 -115.5t59 -89.5t103.5 -35q53 -1 93 15t71.5 43t57.5 57l-39 29q-20 -25 -45 -46.5t-56.5 -35.5t-71.5 -13
q-51 0 -82 27.5t-42.5 71t-5.5 92.5l4 18q8 50 35 89t67.5 62.5t87.5 23.5q46 -1 75 -24t41.5 -60t6.5 -78h-332zM378 585q-1 -15 8 -26.5t23 -11.5q13 -2 27.5 10t15.5 26q1 15 -9 26t-23 12q-14 1 -27 -11t-15 -25zM184 585q-1 -15 8 -26.5t23 -11.5q13 -2 27.5 10
t15.5 26q1 15 -9 26t-23 12q-14 1 -27 -11t-15 -25z" />
    <glyph glyph-name="uni0453" unicode="&#x453;" horiz-adv-x="308" 
d="M127 460l-76 -460h50l71 411h175l10 49h-230zM430 681l-45 29l-180 -158l29 -21z" />
    <glyph glyph-name="uni045C" unicode="&#x45c;" horiz-adv-x="426" 
d="M122 460l-77 -460h50l81 460h-54zM362 460l-239 -187l184 -273h62l-183 268l247 192h-71zM485 691l-44 29l-179 -158l28 -21z" />
    <glyph glyph-name="uni045D" unicode="&#x45d;" horiz-adv-x="501" 
d="M463 413l22 86l-421 -452l-23 -86zM181 460h-52l-88 -499l67 76zM485 500l-68 -76l-72 -424h52zM174 703l150 -153l31 18l-131 161z" />
    <glyph glyph-name="uni045E" unicode="&#x45e;" horiz-adv-x="426" 
d="M471 460h-60l-223 -389l24 -3l-96 392h-60l111 -410l-164 -269h60zM147 670q-3 -37 10.5 -69t44 -51t78.5 -19q49 0 84.5 19t58.5 50.5t32 68.5l-48 1q-8 -23 -24 -45.5t-40.5 -37t-60.5 -13.5q-35 0 -55 14t-28 36t-7 46h-45z" />
    <glyph glyph-name="Wgrave" unicode="&#x1e80;" horiz-adv-x="944" 
d="M577 789l30 20l-131 160l-50 -27zM680 120l-112 609l-298 -609l-106 580h-59l138 -728l301 603l115 -603l365 728h-61z" />
    <glyph glyph-name="wgrave" unicode="&#x1e81;" horiz-adv-x="636" 
d="M379 549l30 20l-131 160l-50 -27zM61 460l89 -488l198 383l74 -383l259 488h-58l-181 -355l-72 384l-193 -383l-60 354h-56z" />
    <glyph glyph-name="Wacute" unicode="&#x1e82;" horiz-adv-x="944" 
d="M579 789l204 153l-52 30l-184 -160zM680 120l-112 609l-298 -609l-106 580h-59l138 -728l301 603l115 -603l365 728h-61z" />
    <glyph glyph-name="wacute" unicode="&#x1e83;" horiz-adv-x="636" 
d="M381 549l204 153l-52 30l-184 -160zM61 460l89 -488l198 383l74 -383l259 488h-58l-181 -355l-72 384l-193 -383l-60 354h-56z" />
    <glyph glyph-name="Wdieresis" unicode="&#x1e84;" horiz-adv-x="944" 
d="M646 828q-1 -15 7.5 -26.5t23.5 -11.5q13 -2 27 10t16 26q1 15 -9 26t-23 12q-15 1 -28 -11t-14 -25zM452 828q-1 -15 7.5 -26.5t23.5 -11.5q13 -2 27 10t16 26q1 15 -9 26t-23 12q-15 1 -28 -11t-14 -25zM680 120l-112 609l-298 -609l-106 580h-59l138 -728l301 603
l115 -603l365 728h-61z" />
    <glyph glyph-name="wdieresis" unicode="&#x1e85;" horiz-adv-x="636" 
d="M448 588q-1 -15 7.5 -26.5t23.5 -11.5q13 -2 27 10t16 26q1 15 -9 26t-23 12q-15 1 -28 -11t-14 -25zM254 588q-1 -15 7.5 -26.5t23.5 -11.5q13 -2 27 10t16 26q1 15 -9 26t-23 12q-15 1 -28 -11t-14 -25zM61 460l89 -488l198 383l74 -383l259 488h-58l-181 -355l-72 384
l-193 -383l-60 354h-56z" />
    <glyph glyph-name="uni1E86" unicode="&#x1e86;" horiz-adv-x="944" 
d="M549 826q-1 -16 9.5 -26.5t26.5 -10.5q14 0 26 10.5t12 26.5t-11.5 27t-25.5 11q-16 0 -26.5 -11.5t-10.5 -26.5zM680 120l-112 609l-298 -609l-106 580h-59l138 -728l301 603l115 -603l365 728h-61z" />
    <glyph glyph-name="uni1E87" unicode="&#x1e87;" horiz-adv-x="636" 
d="M351 586q-1 -16 9.5 -26.5t26.5 -10.5q14 0 26 10.5t12 26.5t-11.5 27t-25.5 11q-16 0 -26.5 -11.5t-10.5 -26.5zM61 460l89 -488l198 383l74 -383l259 488h-58l-181 -355l-72 384l-193 -383l-60 354h-56z" />
    <glyph glyph-name="uni1E88" unicode="&#x1e88;" horiz-adv-x="944" 
d="M398 -126q-1 -16 9.5 -26.5t26.5 -10.5q14 0 26 10.5t12 26.5t-11.5 27t-25.5 11q-16 0 -26.5 -11.5t-10.5 -26.5zM680 120l-112 609l-298 -609l-106 580h-59l138 -728l301 603l115 -603l365 728h-61z" />
    <glyph glyph-name="uni1E89" unicode="&#x1e89;" horiz-adv-x="636" 
d="M233 -126q-1 -16 9.5 -26.5t26.5 -10.5q14 0 26 10.5t12 26.5t-11.5 27t-25.5 11q-16 0 -26.5 -11.5t-10.5 -26.5zM61 460l89 -488l198 383l74 -383l259 488h-58l-181 -355l-72 384l-193 -383l-60 354h-56z" />
    <glyph glyph-name="uni1E9E" unicode="&#x1e9e;" horiz-adv-x="696" 
d="M409 -11q-41 0 -74.5 8t-61 23t-52.5 34l27 46q38 -28 77 -42t88 -14q50 0 89.5 15.5t64 44.5t24.5 73q0 37 -16.5 58.5t-40 35t-46.5 24.5t-39 26.5t-16 42.5t17 44.5t42 31t50.5 27t42.5 33.5t17 51q0 27 -15 51t-48 39.5t-87 15.5q-68 0 -126.5 -29t-99 -83.5
t-52.5 -136.5l-68 -409h-56l69 416q11 72 42.5 127.5t77 92.5t100.5 55.5t114 18.5q64 0 110.5 -18t71.5 -51.5t25 -78.5q0 -41 -17 -68t-41 -44t-48 -29t-41 -23.5t-17 -25.5q0 -17 15.5 -27.5t38.5 -20t46 -25t38.5 -43.5t15.5 -74q0 -57 -31.5 -100.5t-85.5 -67.5
t-124 -24z" />
    <glyph glyph-name="Ygrave" unicode="&#x1ef2;" horiz-adv-x="523" 
d="M348 769l30 20l-131 160l-50 -27zM546 700l-256 -360l-129 360h-59l154 -411l-51 -289h54l50 287l300 413h-63z" />
    <glyph glyph-name="ygrave" unicode="&#x1ef3;" horiz-adv-x="420" 
d="M255 530l30 20l-131 160l-50 -27zM471 460h-59l-224 -389l24 -3l-99 392h-57l111 -411l-163 -268h59z" />
    <glyph glyph-name="uni2010" unicode="&#x2010;" horiz-adv-x="203" 
d="M16 227h195l9 48h-195z" />
    <glyph glyph-name="figuredash" unicode="&#x2012;" horiz-adv-x="572" 
d="M79 227l438 -1l9 49h-438z" />
    <glyph glyph-name="endash" unicode="&#x2013;" horiz-adv-x="718" 
d="M79 227l583 -1l9 49h-583z" />
    <glyph glyph-name="emdash" unicode="&#x2014;" horiz-adv-x="863" 
d="M79 227l729 -1l9 49h-729z" />
    <glyph glyph-name="quoteleft" unicode="&#x2018;" horiz-adv-x="247" 
d="M178 471l111 228h-38l-136 -228h63z" />
    <glyph glyph-name="quoteright" unicode="&#x2019;" horiz-adv-x="254" 
d="M223 700l-110 -229h37l136 229h-63z" />
    <glyph glyph-name="quotesinglbase" unicode="&#x201a;" horiz-adv-x="254" 
d="M115 80l-110 -229h37l136 229h-63z" />
    <glyph glyph-name="quotedblleft" unicode="&#x201c;" horiz-adv-x="425" 
d="M186 471l110 228h-37l-136 -228h63zM357 471l110 228h-38l-136 -228h64z" />
    <glyph glyph-name="quotedblright" unicode="&#x201d;" horiz-adv-x="425" 
d="M215 700l-110 -229h37l136 229h-63zM386 700l-111 -229h38l136 229h-63z" />
    <glyph glyph-name="quotedblbase" unicode="&#x201e;" horiz-adv-x="425" 
d="M113 80l-111 -229h37l136 229h-62zM283 80l-110 -229h37l137 229h-64z" />
    <glyph glyph-name="dagger" unicode="&#x2020;" horiz-adv-x="526" 
d="M153 540l-8 -49h352l8 49h-352zM328 700l-130 -849l50 -1l132 850h-52z" />
    <glyph glyph-name="daggerdbl" unicode="&#x2021;" horiz-adv-x="526" 
d="M88 120l-8 -49h352l9 49h-353zM153 540l-8 -49h352l8 49h-352zM328 700l-130 -849l50 -1l132 850h-52z" />
    <glyph glyph-name="bullet" unicode="&#x2022;" horiz-adv-x="291" 
d="M143 400q0 -10 5 -18.5t13.5 -13.5t18.5 -5t18 5t13 13.5t5 18.5q0 11 -5 19.5t-13 13.5t-18 5t-18.5 -5t-13.5 -13.5t-5 -19.5z" />
    <glyph glyph-name="ellipsis" unicode="&#x2026;" horiz-adv-x="838" 
d="M80 25q-2 -10 1.5 -18.5t11 -13.5t16.5 -5q9 -1 18.5 4t17 14t7.5 17q2 10 -2.5 19t-11.5 14t-16 6q-10 0 -19.5 -5t-16 -13.5t-6.5 -18.5zM361 25q-2 -10 1.5 -18.5t11 -13.5t17.5 -5q9 -1 18 4t16.5 14t8.5 17q1 10 -3 19t-11.5 14t-16.5 6q-9 0 -19 -5t-16 -13.5
t-7 -18.5zM642 25q-1 -10 2.5 -18.5t11 -13.5t17.5 -5q8 -1 17.5 4t16.5 14t9 17q0 10 -4 19t-11.5 14t-16.5 6q-9 0 -18.5 -5t-16 -13.5t-7.5 -18.5z" />
    <glyph glyph-name="perthousand" unicode="&#x2030;" horiz-adv-x="1074" 
d="M739 147q-6 -41 7 -76.5t43 -57.5t75 -22t82.5 21t62 56.5t30.5 77.5q6 40 -7 75.5t-43 58t-75 22.5q-46 0 -83 -21.5t-61.5 -56.5t-30.5 -77zM785 146q5 29 22 55t43.5 42t59.5 16q32 -1 51.5 -17.5t27.5 -42t4 -53.5q-5 -29 -22.5 -55t-43.5 -42t-59 -15
q-32 0 -52 16.5t-27.5 42t-3.5 53.5zM101 555q-6 -41 6.5 -76.5t43.5 -57.5t75 -22q46 0 83 21t61.5 56.5t30.5 77.5q6 40 -7 75.5t-43 58t-75 22.5q-46 0 -83.5 -21.5t-61 -56.5t-30.5 -77zM147 554q5 29 22 55t44 42t59 16q31 -1 51.5 -17.5t28 -42t3.5 -53.5
q-5 -29 -22 -55t-43.5 -42t-58.5 -15q-33 0 -53 16.5t-28 42t-3 53.5zM374 147q-6 -41 7 -76.5t43.5 -57.5t75.5 -22t82 21t61.5 56.5t30.5 77.5q6 40 -7 75.5t-43 58t-75 22.5q-46 0 -83 -21.5t-61 -56.5t-31 -77zM420 146q5 29 22 55t43 42t60 16q32 -1 51.5 -17.5
t27.5 -42t4 -53.5q-5 -29 -22 -55t-43.5 -42t-58.5 -15q-34 0 -53.5 16.5t-27 42t-3.5 53.5zM642 700l-559 -700h50l561 700h-52z" />
    <glyph glyph-name="uni2031" unicode="&#x2031;" horiz-adv-x="1439" 
d="M1104 147q-6 -41 7 -76.5t43 -57.5t75 -22t82.5 21t62 56.5t30.5 77.5q6 40 -7.5 75.5t-43 58t-75.5 22.5q-45 0 -82 -21.5t-61.5 -56.5t-30.5 -77zM1150 146q4 29 21.5 55t44 42t58.5 16q32 -1 52 -17.5t28 -42t4 -53.5q-5 -29 -22.5 -55t-43.5 -42t-59 -15
q-32 0 -52 16.5t-27.5 42t-3.5 53.5zM739 147q-6 -41 7 -76.5t43 -57.5t75 -22t82.5 21t62 56.5t30.5 77.5q6 40 -7 75.5t-43 58t-75 22.5q-46 0 -83 -21.5t-61.5 -56.5t-30.5 -77zM785 146q5 29 22 55t43.5 42t59.5 16q32 -1 51.5 -17.5t27.5 -42t4 -53.5q-5 -29 -22.5 -55
t-43.5 -42t-59 -15q-32 0 -52 16.5t-27.5 42t-3.5 53.5zM101 555q-6 -41 6.5 -76.5t43.5 -57.5t75 -22q46 0 83 21t61.5 56.5t30.5 77.5q6 40 -7 75.5t-43 58t-75 22.5q-46 0 -83.5 -21.5t-61 -56.5t-30.5 -77zM147 554q5 29 22 55t44 42t59 16q31 -1 51.5 -17.5t28 -42
t3.5 -53.5q-5 -29 -22 -55t-43.5 -42t-58.5 -15q-33 0 -53 16.5t-28 42t-3 53.5zM374 147q-6 -41 7 -76.5t43.5 -57.5t75.5 -22t82 21t61.5 56.5t30.5 77.5q6 40 -7 75.5t-43 58t-75 22.5q-46 0 -83 -21.5t-61 -56.5t-31 -77zM420 146q5 29 22 55t43 42t60 16
q32 -1 51.5 -17.5t27.5 -42t4 -53.5q-5 -29 -22 -55t-43.5 -42t-58.5 -15q-34 0 -53.5 16.5t-27 42t-3.5 53.5zM642 700l-559 -700h50l561 700h-52z" />
    <glyph glyph-name="guilsinglleft" unicode="&#x2039;" horiz-adv-x="329" 
d="M112 257l202 202l-28 31l-231 -233l153 -237l37 29z" />
    <glyph glyph-name="guilsinglright" unicode="&#x203a;" horiz-adv-x="339" 
d="M261 254l-202 -202l28 -31l231 232l-153 237l-37 -29z" />
    <glyph glyph-name="uni203D" unicode="&#x203d;" horiz-adv-x="540" 
d="M477 508q-9 -46 -40.5 -81.5t-77.5 -56.5t-99 -24l26 -37q35 2 67.5 12t62 27.5t52.5 42t39 54t22 63.5q6 40 -2.5 76.5t-32 65t-58.5 44t-79 16.5q-51 0 -91.5 -15t-72 -41.5t-59.5 -58.5l39 -28q21 26 47 48t57 34t69 12q48 -1 79.5 -21t45 -55t6.5 -77zM273 510
l-45 -339h38l71 339h-64zM186 25q-2 -15 7 -26t23 -11q13 -2 27 9.5t15 25.5q2 15 -7 26.5t-23 12.5t-27 -11.5t-15 -25.5z" />
    <glyph glyph-name="fraction" unicode="&#x2044;" horiz-adv-x="684" 
d="M674 699l-643 -699h44l644 699h-45z" />
    <glyph glyph-name="uni2070" unicode="&#x2070;" horiz-adv-x="341" 
d="M120 490q4 32 16 65t29.5 60.5t42 43.5t55.5 16q30 -1 47.5 -18t24 -45.5t7 -60.5t-2.5 -61q-5 -32 -16.5 -65t-29.5 -60.5t-42.5 -43.5t-54.5 -15q-31 0 -48 17t-24 45.5t-7.5 60.5t3.5 61zM87 490q-5 -36 -2.5 -74t14.5 -70t35 -51.5t60 -19.5q37 -1 67 18t53.5 49.5
t38 69.5t20.5 78q4 36 1.5 74t-14.5 70t-36 51.5t-60 20.5q-37 0 -67 -19t-53 -49.5t-37.5 -69t-19.5 -78.5z" />
    <glyph glyph-name="uni2074" unicode="&#x2074;" horiz-adv-x="368" 
d="M66 365h302l5 28h-78h-7l-191 -1zM102 365l212 255l-40 -238v-4l-18 -97h34l71 419l-13 -1l-282 -333z" />
    <glyph glyph-name="uni2075" unicode="&#x2075;" horiz-adv-x="339" 
d="M349 416q5 35 -5 65.5t-33.5 50.5t-59.5 21q-31 0 -60.5 -13t-48.5 -34l-26 -30q28 20 57 34t64 13q28 -2 47 -16.5t27 -38.5t4 -52q-5 -32 -23 -57.5t-44 -40.5t-59 -14q-39 0 -60.5 22t-33.5 53l-30 -18q16 -38 44.5 -63t77.5 -25q41 0 75 17.5t57.5 50t29.5 75.5z
M228 669l167 1l5 28h-193l-95 -226l52 42z" />
    <glyph glyph-name="uni2076" unicode="&#x2076;" horiz-adv-x="329" 
d="M111 414q4 29 22.5 54t45.5 40t59 15q29 -1 48 -16.5t27.5 -40t4.5 -52.5q-5 -29 -23 -55t-44 -41.5t-57 -14.5q-31 0 -51 16t-28.5 41.5t-3.5 53.5zM291 697l-168 -193q-16 -18 -27.5 -41.5t-15.5 -47.5q-6 -39 5.5 -71t39 -51.5t67.5 -19.5t73.5 18.5t55.5 50.5t28 72
q5 33 -6 63.5t-34.5 50t-58.5 19.5q-25 0 -46.5 -9t-38.5 -23l3 -3l166 185h-43z" />
    <glyph glyph-name="uni2077" unicode="&#x2077;" horiz-adv-x="342" 
d="M118 670l231 -1l-254 -388h36l275 419h-283z" />
    <glyph glyph-name="uni2078" unicode="&#x2078;" horiz-adv-x="304" 
d="M120 602q-4 -30 6.5 -53.5t32.5 -37.5t53 -14q29 -1 56 12.5t45.5 37.5t22.5 54q4 27 -6.5 51t-32.5 38.5t-52 15.5q-31 0 -58 -14.5t-45 -38t-22 -51.5zM150 598q3 22 16.5 39.5t33 28.5t42.5 11q33 -2 49.5 -25t12.5 -53q-3 -21 -18 -40.5t-34.5 -30t-39.5 -9.5
q-19 0 -34.5 11t-23 29.5t-4.5 38.5zM71 394q-5 -32 6 -59t36.5 -43.5t60.5 -16.5q35 -1 65.5 15t50.5 43t25 60q3 24 -3.5 45t-21 37.5t-35.5 25.5t-44 9q-24 0 -47.5 -8.5t-43.5 -24.5t-33 -37.5t-16 -45.5zM103 396q4 25 20 45.5t39.5 33.5t48.5 13q24 -1 41 -14t26 -33
t5 -45q-5 -40 -36.5 -66.5t-70.5 -25.5q-40 0 -59.5 27t-13.5 65z" />
    <glyph glyph-name="uni2079" unicode="&#x2079;" horiz-adv-x="329" 
d="M343 566q-4 -28 -22 -53t-44.5 -40.5t-58.5 -14.5q-30 0 -49.5 15.5t-27.5 40.5t-4 52q4 31 21.5 56t44 40.5t57.5 15.5q31 -1 50.5 -17t28.5 -41t4 -54zM164 283l167 193q15 18 27.5 41.5t16.5 48.5q6 38 -6.5 70t-39.5 52t-67 20q-41 0 -74.5 -19t-55 -51t-27.5 -71
q-5 -34 6 -64.5t35.5 -49.5t58.5 -20q25 0 45.5 9t38.5 24l-4 3l-163 -185z" />
    <glyph glyph-name="uni2080" unicode="&#x2080;" horiz-adv-x="345" 
d="M72 210q5 32 16.5 65t29 60.5t42 43.5t55.5 16q31 -1 48 -18t23.5 -45.5t7 -60.5t-2.5 -61q-5 -32 -16.5 -65t-29.5 -60.5t-42.5 -43.5t-54.5 -15q-31 0 -48 17t-24 45.5t-7.5 60.5t3.5 61zM39 210q-4 -36 -2 -74t14 -70t35 -51.5t61 -19.5q36 -1 66 18t53.5 49.5
t38 69.5t20.5 78q4 36 1.5 74t-14.5 70t-35.5 51.5t-59.5 20.5q-37 0 -67.5 -19t-53 -49.5t-37.5 -69t-20 -78.5z" />
    <glyph glyph-name="uni2081" unicode="&#x2081;" horiz-adv-x="293" 
d="M123 361l97 24l-63 -383h32l74 425l-134 -32z" />
    <glyph glyph-name="uni2082" unicode="&#x2082;" horiz-adv-x="329" 
d="M0 3h278l5 30l-208 1l174 157q25 24 46 52.5t27 63.5q5 29 -4.5 57t-33 46t-62.5 19q-43 0 -74.5 -20.5t-51.5 -55t-29 -74.5h33q7 31 22.5 58.5t40.5 44.5t57 16q27 -1 44 -14.5t23 -33.5t3 -41q-5 -31 -24.5 -54t-41.5 -45z" />
    <glyph glyph-name="uni2083" unicode="&#x2083;" horiz-adv-x="304" 
d="M146 212q34 2 66 14t54 34.5t28 55.5q5 28 -4.5 52.5t-32.5 40.5t-55 17q-52 0 -86.5 -31.5t-45.5 -76.5l32 -1q9 31 34.5 55.5t63.5 23.5q34 -2 50.5 -26t11.5 -54q-5 -25 -22 -43t-41 -27.5t-50 -12.5zM128 -5q35 0 65.5 14.5t51.5 40t26 59.5q4 29 -5 50t-26.5 35
t-41.5 21.5t-50 9.5l-4 -22q25 -2 49 -12.5t37.5 -29t8.5 -48.5q-6 -38 -36.5 -63t-72.5 -24q-43 0 -61.5 24.5t-17.5 60.5h-33q-2 -33 9.5 -59.5t36.5 -41.5t64 -15z" />
    <glyph glyph-name="uni2084" unicode="&#x2084;" horiz-adv-x="368" 
d="M18 85h302l5 28h-78h-7l-190 -1zM54 85l212 255l-40 -238v-4l-17 -98h33l72 420l-14 -1l-282 -333z" />
    <glyph glyph-name="uni2085" unicode="&#x2085;" horiz-adv-x="339" 
d="M302 136q5 35 -5.5 66t-34 50.5t-59.5 20.5q-30 0 -60 -13t-49 -34l-26 -30q28 20 57 34t64 13q28 -2 47 -16.5t27 -38.5t4 -52q-5 -32 -23 -57.5t-44 -40.5t-59 -14q-39 0 -60.5 22t-33.5 53l-30 -18q17 -38 45 -63t77 -25q41 0 75.5 17.5t58 50t29.5 75.5zM181 389
l166 1l5 28h-192l-95 -226l51 42z" />
    <glyph glyph-name="uni2086" unicode="&#x2086;" horiz-adv-x="329" 
d="M63 134q4 29 22 53.5t45 40t59 15.5q29 -1 48 -16.5t28 -40t5 -52.5q-5 -29 -23.5 -55t-44.5 -41.5t-57 -14.5q-31 0 -51 16t-28 41.5t-3 53.5zM243 417l-168 -193q-15 -18 -27.5 -41.5t-16.5 -47.5q-6 -39 6 -71t39 -51.5t67 -19.5t73.5 18.5t55.5 50.5t28 72
q5 33 -6 63.5t-34.5 50t-58.5 19.5q-25 0 -45.5 -9t-38.5 -23l4 -3l164 185h-42z" />
    <glyph glyph-name="uni2087" unicode="&#x2087;" horiz-adv-x="342" 
d="M70 390l231 -1l-254 -389h36l275 420h-283z" />
    <glyph glyph-name="uni2088" unicode="&#x2088;" horiz-adv-x="304" 
d="M72 322q-4 -30 7 -53.5t32.5 -37.5t52.5 -14q29 -1 56 12.5t45.5 37.5t23.5 54q4 27 -7 51t-33 38.5t-52 15.5q-31 0 -58 -14.5t-45 -38t-22 -51.5zM103 318q3 22 16 39.5t32.5 28.5t42.5 11q34 -2 50 -25t13 -53q-4 -21 -19 -40.5t-34.5 -30t-39.5 -9.5q-19 0 -34 11
t-22.5 29.5t-4.5 38.5zM23 114q-5 -32 6.5 -59t36.5 -43.5t60 -16.5q35 -1 65.5 15t50.5 43t25 60q3 24 -3.5 45t-21 37.5t-35.5 25.5t-44 9q-24 0 -47.5 -8.5t-43.5 -24.5t-33 -37.5t-16 -45.5zM55 116q4 25 20 45.5t40 33.5t48 13q24 -1 41.5 -14t26.5 -33t5 -45
q-6 -40 -37.5 -66.5t-70.5 -25.5q-40 0 -59.5 27t-13.5 65z" />
    <glyph glyph-name="uni2089" unicode="&#x2089;" horiz-adv-x="329" 
d="M286 286q-5 -28 -23 -53.5t-44.5 -40.5t-58.5 -14q-30 0 -49 15.5t-27.5 40.5t-4.5 52q4 31 21.5 56t44.5 40.5t58 15.5q30 -1 49.5 -17t28.5 -41t5 -54zM105 3l169 193q15 18 26.5 41.5t15.5 48.5q6 38 -5.5 70t-38.5 52t-67 20q-41 0 -74.5 -19t-55.5 -51t-28 -71
q-4 -33 6.5 -64t34.5 -50t59 -20q25 0 46 9t39 24l-4 3l-164 -185z" />
    <glyph glyph-name="Euro" unicode="&#x20ac;" horiz-adv-x="609" 
d="M83 423h486l6 32h-487zM62 303h461l6 32h-461zM186 350q8 60 32 115t60 99t85 69t106 25q40 0 73.5 -15t61.5 -41l12 67q-33 19 -68 30t-73 11q-70 0 -128 -29.5t-102.5 -80t-74 -115t-39.5 -135.5q-9 -66 -0.5 -129.5t35.5 -115.5t74 -83t116 -31q40 0 78 11t73 29
l12 66q-35 -24 -74.5 -39.5t-83.5 -14.5q-57 0 -94.5 27t-57.5 72t-25.5 99.5t2.5 108.5z" />
    <glyph glyph-name="trademark" unicode="&#x2122;" horiz-adv-x="645" 
d="M121 675l88 -1l-54 -323h27l55 323l91 1l4 25h-207zM637 636l-17 -285l26 -1l26 367zM398 713l-102 -362h28l77 283zM672 716l-185 -270l-89 267l-9 -57l89 -267l180 263z" />
    <glyph glyph-name="uni2150" unicode="&#x2150;" horiz-adv-x="817" 
d="M663 699l-644 -699h45l643 699h-44zM106 634l97 24l-64 -383h33l73 425l-133 -32zM543 390l232 -1l-254 -389h36l275 420h-283z" />
    <glyph glyph-name="uni2151" unicode="&#x2151;" horiz-adv-x="760" 
d="M663 699l-644 -699h45l643 699h-44zM106 634l97 24l-64 -383h33l73 425l-133 -32zM720 286q-4 -28 -22 -53.5t-44.5 -40.5t-58.5 -14q-30 0 -49.5 15.5t-27.5 40.5t-4 52q4 31 21.5 56t44 40.5t57.5 15.5q31 -1 50.5 -17t28.5 -41t4 -54zM541 3l168 193q14 18 26.5 41.5
t16.5 48.5q6 38 -6 70t-39.5 52t-67.5 20t-73.5 -19t-55.5 -51t-27 -71q-5 -33 5.5 -64t35 -50t58.5 -20q25 0 46 9t38 24l-3 3l-164 -185z" />
    <glyph glyph-name="uni2152" unicode="&#x2152;" horiz-adv-x="1048" 
d="M663 699l-644 -699h45l643 699h-44zM106 634l97 24l-64 -383h33l73 425l-133 -32zM487 361l97 24l-65 -383h33l73 425l-133 -32zM759 210q5 32 16.5 65t29 60.5t42 43.5t55.5 16q31 -1 48 -18t23.5 -45.5t7 -60.5t-2.5 -61q-4 -32 -15.5 -65t-29.5 -60.5t-42.5 -43.5
t-54.5 -15q-31 0 -48 17t-24 45.5t-7.5 60.5t2.5 61zM726 210q-4 -36 -2 -74t14 -70t35 -51.5t61 -19.5q36 -1 66 18t53.5 49.5t38 69.5t20.5 78q4 36 1.5 74t-14.5 70t-35.5 51.5t-59.5 20.5q-37 0 -67.5 -19t-53 -49.5t-37.5 -69t-20 -78.5z" />
    <glyph glyph-name="onethird" unicode="&#x2153;" horiz-adv-x="732" 
d="M663 699l-644 -699h45l643 699h-44zM106 634l97 24l-64 -383h33l73 425l-133 -32zM571 212q34 2 66 14t54 34.5t28 55.5q5 28 -4.5 52.5t-32.5 40.5t-55 17q-52 0 -86.5 -31.5t-45.5 -76.5l32 -1q9 31 34.5 55.5t63.5 23.5q34 -2 50.5 -26t11.5 -54q-5 -25 -22 -43
t-41 -27.5t-50 -12.5zM553 -5q35 0 65.5 14.5t51.5 40t26 59.5q4 29 -4.5 50t-26.5 35t-42 21.5t-50 9.5l-4 -22q25 -2 48.5 -12.5t37.5 -29t9 -48.5q-6 -38 -36.5 -63t-72.5 -24q-43 0 -61.5 24.5t-17.5 60.5h-33q-2 -33 9.5 -59.5t36.5 -41.5t64 -15z" />
    <glyph glyph-name="twothirds" unicode="&#x2154;" horiz-adv-x="855" 
d="M786 699l-644 -699h45l644 699h-45zM51 283h279l6 30l-210 1l174 157q26 24 47.5 52.5t27.5 63.5q5 29 -4.5 57t-33.5 46t-62 19q-43 0 -75 -20.5t-52 -55t-29 -74.5h33q6 31 22.5 58.5t41.5 44.5t57 15q27 -1 43.5 -14t22.5 -33t2 -41q-4 -31 -24 -54t-41 -45zM694 212
q34 2 66 14t54 34.5t28 55.5q5 28 -4.5 52.5t-32 40.5t-55.5 17q-52 0 -86.5 -31.5t-45.5 -76.5l33 -1q8 31 33.5 55.5t63.5 23.5q34 -2 51 -26t12 -54q-6 -25 -23 -43t-41 -27.5t-49 -12.5zM676 -5q36 0 66 14.5t51 40t26 59.5q4 29 -4.5 50t-26.5 35t-42 21.5t-50 9.5
l-4 -22q26 -2 49.5 -12.5t37 -29t8.5 -48.5q-6 -38 -36.5 -63t-72.5 -24q-43 0 -61.5 24.5t-17.5 60.5h-33q-2 -33 10 -59.5t37 -41.5t63 -15z" />
    <glyph glyph-name="uni2155" unicode="&#x2155;" horiz-adv-x="722" 
d="M663 699l-644 -699h45l643 699h-44zM106 634l97 24l-64 -383h33l73 425l-133 -32zM678 136q5 35 -5 66t-33.5 50.5t-59.5 20.5q-31 0 -60.5 -13t-48.5 -34l-26 -30q28 20 57 34t63 13q29 -2 47.5 -16.5t27 -38.5t4.5 -52q-5 -32 -23 -57.5t-44.5 -40.5t-58.5 -14
q-39 0 -61 22t-34 53l-29 -18q16 -38 44.5 -63t77.5 -25q41 0 75 17.5t57.5 50t29.5 75.5zM557 389l167 1l5 28h-193l-95 -226l51 42z" />
    <glyph glyph-name="uni2156" unicode="&#x2156;" horiz-adv-x="845" 
d="M786 699l-644 -699h45l644 699h-45zM51 283h279l6 30l-210 1l174 157q26 24 47.5 52.5t27.5 63.5q5 29 -4.5 57t-33.5 46t-62 19q-43 0 -75 -20.5t-52 -55t-29 -74.5h33q6 31 22.5 58.5t41.5 44.5t57 15q27 -1 43.5 -14t22.5 -33t2 -41q-4 -31 -24 -54t-41 -45zM801 136
q5 35 -5 66t-33.5 50.5t-59.5 20.5q-31 0 -60.5 -13t-48.5 -34l-26 -30q28 20 57 34t64 13q28 -2 47 -16.5t27 -38.5t4 -52q-5 -32 -23 -57.5t-44 -40.5t-59 -14q-39 0 -60.5 22t-33.5 53l-30 -18q16 -38 44.5 -63t77.5 -25q41 0 75 17.5t57.5 50t29.5 75.5zM680 389l167 1
l5 28h-193l-95 -226l52 42z" />
    <glyph glyph-name="uni2157" unicode="&#x2157;" horiz-adv-x="806" 
d="M747 699l-643 -699h44l644 699h-45zM198 492q35 2 67 14t54 34.5t28 55.5q4 28 -6 52.5t-32 40.5t-55 17q-52 0 -86 -31.5t-45 -76.5l32 -1q8 31 33.5 55.5t63.5 23.5q35 -2 51.5 -26t11.5 -54q-5 -25 -22.5 -43t-41 -27.5t-49.5 -12.5zM181 275q35 0 65.5 14.5t51.5 40
t26 59.5q4 29 -5 50t-27 35t-42 21.5t-49 9.5l-5 -22q26 -2 49.5 -12.5t37 -29t8.5 -48.5q-6 -38 -36.5 -63t-71.5 -24q-44 0 -62.5 24.5t-16.5 60.5h-34q-2 -33 10 -59.5t37 -41.5t64 -15zM763 136q5 35 -5.5 66t-34 50.5t-59.5 20.5q-30 0 -60 -13t-49 -34l-26 -30
q28 20 57 34t64 13q28 -2 47 -16.5t27 -38.5t4 -52q-5 -32 -23 -57.5t-44 -40.5t-59 -14q-39 0 -60.5 22t-33.5 53l-30 -18q17 -38 45 -63t77 -25q41 0 75.5 17.5t58 50t29.5 75.5zM641 389l167 1l5 28h-192l-95 -226l51 42z" />
    <glyph glyph-name="uni2158" unicode="&#x2158;" horiz-adv-x="840" 
d="M781 699l-643 -699h44l644 699h-45zM66 365h302l5 28h-78h-7l-191 -1zM102 365l212 255l-40 -238v-4l-18 -97h34l71 419l-13 -1l-282 -333zM797 136q5 35 -5.5 66t-34 50.5t-59.5 20.5q-30 0 -60 -13t-49 -34l-26 -30q28 20 57 34t64 13q28 -2 47 -16.5t27 -38.5t4 -52
q-5 -32 -23 -57.5t-44 -40.5t-59 -14q-39 0 -60.5 22t-33.5 53l-30 -18q17 -38 45 -63t77 -25q41 0 75.5 17.5t58 50t29.5 75.5zM675 389l167 1l5 28h-192l-95 -226l51 42z" />
    <glyph glyph-name="uni2159" unicode="&#x2159;" horiz-adv-x="712" 
d="M663 699l-644 -699h45l643 699h-44zM106 634l97 24l-64 -383h33l73 425l-133 -32zM439 134q5 29 22.5 53.5t45 40t59.5 15.5q29 -1 48.5 -16.5t27.5 -40t4 -52.5q-5 -29 -22.5 -55t-44 -41.5t-56.5 -14.5q-31 0 -50.5 16t-28.5 41.5t-5 53.5zM620 417l-168 -193
q-16 -18 -28 -41.5t-15 -47.5q-6 -39 5.5 -71t39 -51.5t67.5 -19.5t73.5 18.5t55.5 50.5t28 72q5 33 -6 63.5t-35 50t-59 19.5q-24 0 -45.5 -9t-38.5 -23l3 -3l166 185h-43z" />
    <glyph glyph-name="uni215A" unicode="&#x215a;" horiz-adv-x="830" 
d="M781 699l-643 -699h44l644 699h-45zM349 416q5 35 -5 65.5t-33.5 50.5t-59.5 21q-31 0 -60.5 -13t-48.5 -34l-26 -30q28 20 57 34t64 13q28 -2 47 -16.5t27 -38.5t4 -52q-5 -32 -23 -57.5t-44 -40.5t-59 -14q-39 0 -60.5 22t-33.5 53l-30 -18q16 -38 44.5 -63t77.5 -25
q41 0 75 17.5t57.5 50t29.5 75.5zM228 669l167 1l5 28h-193l-95 -226l52 42zM558 134q4 29 22.5 53.5t45.5 40t59 15.5q29 -1 48 -16.5t27.5 -40t4.5 -52.5q-5 -29 -23 -55t-44 -41.5t-57 -14.5q-31 0 -51 16t-28.5 41.5t-3.5 53.5zM738 417l-168 -193q-16 -18 -27.5 -41.5
t-15.5 -47.5q-6 -39 6 -71t39 -51.5t67 -19.5t73.5 18.5t55.5 50.5t28 72q5 33 -6 63.5t-34.5 50t-58.5 19.5q-25 0 -46 -9t-39 -23l4 -3l165 185h-43z" />
    <glyph glyph-name="oneeighth" unicode="&#x215b;" horiz-adv-x="737" 
d="M663 699l-644 -699h45l643 699h-44zM106 634l97 24l-64 -383h33l73 425l-133 -32zM497 322q-4 -30 6.5 -53.5t32.5 -37.5t53 -14q29 -1 56 12.5t45.5 37.5t23.5 54q4 27 -7 51t-33 38.5t-52 15.5q-31 0 -58 -14.5t-45 -38t-22 -51.5zM528 318q3 22 16.5 39.5t33 28.5
t42.5 11q33 -2 49 -25t13 -53q-4 -21 -18.5 -40.5t-34.5 -30t-40 -9.5q-19 0 -34 11t-22.5 29.5t-4.5 38.5zM448 114q-5 -32 6.5 -59t36 -43.5t60.5 -16.5q35 -1 65.5 15t50.5 43t25 60q3 24 -3.5 45t-21 37.5t-35.5 25.5t-44 9q-24 0 -47.5 -8.5t-43.5 -24.5t-33 -37.5
t-16 -45.5zM480 116q4 25 20.5 45.5t40 33.5t47.5 13q24 -1 41.5 -14t26.5 -33t5 -45q-6 -40 -37.5 -66.5t-70.5 -25.5q-40 0 -59.5 27t-13.5 65z" />
    <glyph glyph-name="threeeighths" unicode="&#x215c;" horiz-adv-x="821" 
d="M747 699l-643 -699h44l644 699h-45zM198 492q35 2 67 14t54 34.5t28 55.5q4 28 -6 52.5t-32 40.5t-55 17q-52 0 -86 -31.5t-45 -76.5l32 -1q8 31 33.5 55.5t63.5 23.5q35 -2 51.5 -26t11.5 -54q-5 -25 -22.5 -43t-41 -27.5t-49.5 -12.5zM181 275q35 0 65.5 14.5t51.5 40
t26 59.5q4 29 -5 50t-27 35t-42 21.5t-49 9.5l-5 -22q26 -2 49.5 -12.5t37 -29t8.5 -48.5q-6 -38 -36.5 -63t-71.5 -24q-44 0 -62.5 24.5t-16.5 60.5h-34q-2 -33 10 -59.5t37 -41.5t64 -15zM581 322q-4 -30 7 -53.5t33 -37.5t52 -14q30 -1 56.5 12.5t45.5 37.5t23 54
q4 27 -7 51t-33 38.5t-52 15.5q-30 0 -57 -14.5t-45.5 -38t-22.5 -51.5zM612 318q3 22 16.5 39.5t33 28.5t42.5 11q33 -2 49.5 -25t12.5 -53q-4 -21 -18.5 -40.5t-34.5 -30t-39 -9.5q-19 0 -34.5 11t-23 29.5t-4.5 38.5zM532 114q-5 -32 6.5 -59t36.5 -43.5t60 -16.5
q36 -1 66.5 15t50 43t24.5 60q4 24 -2.5 45t-21.5 37.5t-35.5 25.5t-44.5 9t-47.5 -8.5t-43 -24.5t-32.5 -37.5t-17 -45.5zM565 116q3 25 19.5 45.5t40 33.5t47.5 13q25 -1 42 -14t26 -33t5 -45q-6 -40 -37 -66.5t-71 -25.5q-39 0 -59 27t-13 65z" />
    <glyph glyph-name="fiveeighths" unicode="&#x215d;" horiz-adv-x="855" 
d="M781 699l-643 -699h44l644 699h-45zM349 416q5 35 -5 65.5t-33.5 50.5t-59.5 21q-31 0 -60.5 -13t-48.5 -34l-26 -30q28 20 57 34t64 13q28 -2 47 -16.5t27 -38.5t4 -52q-5 -32 -23 -57.5t-44 -40.5t-59 -14q-39 0 -60.5 22t-33.5 53l-30 -18q16 -38 44.5 -63t77.5 -25
q41 0 75 17.5t57.5 50t29.5 75.5zM228 669l167 1l5 28h-193l-95 -226l52 42zM615 322q-4 -30 7 -53.5t33 -37.5t52 -14q30 -1 56.5 12.5t45.5 37.5t23 54q4 27 -7 51t-33 38.5t-52 15.5q-30 0 -57 -14.5t-45.5 -38t-22.5 -51.5zM646 318q3 22 16.5 39.5t33 28.5t42.5 11
q33 -2 49.5 -25t12.5 -53q-4 -21 -18.5 -40.5t-34.5 -30t-39 -9.5q-19 0 -34.5 11t-23 29.5t-4.5 38.5zM566 114q-5 -32 6.5 -59t36.5 -43.5t60 -16.5q36 -1 66.5 15t50 43t24.5 60q4 24 -2.5 45t-21.5 37.5t-35.5 25.5t-44.5 9t-47.5 -8.5t-43 -24.5t-32.5 -37.5t-17 -45.5
zM599 116q3 25 19 45.5t40 33.5t48 13q24 -1 41.5 -14t26.5 -33t5 -45q-6 -40 -37 -66.5t-71 -25.5q-39 0 -59 27t-13 65z" />
    <glyph glyph-name="seveneighths" unicode="&#x215e;" horiz-adv-x="749" 
d="M674 699l-643 -699h44l644 699h-45zM118 670l231 -1l-254 -388h36l275 419h-283zM508 322q-4 -30 7 -53.5t33 -37.5t53 -14q29 -1 56 12.5t45.5 37.5t22.5 54q4 27 -7 51t-32.5 38.5t-51.5 15.5q-31 0 -58 -14.5t-45 -38t-23 -51.5zM539 318q3 22 16.5 39.5t33 28.5
t42.5 11q33 -2 49.5 -25t12.5 -53q-3 -21 -17.5 -40.5t-35 -30t-39.5 -9.5q-19 0 -34.5 11t-23 29.5t-4.5 38.5zM460 114q-5 -32 6 -59t36.5 -43.5t60.5 -16.5q35 -1 65.5 15t50 43t24.5 60q4 24 -2.5 45t-21.5 37.5t-35.5 25.5t-43.5 9q-24 0 -47.5 -8.5t-43.5 -24.5
t-33 -37.5t-16 -45.5zM492 116q3 25 19.5 45.5t40 33.5t48.5 13q24 -1 41 -14t26 -33t5 -45q-5 -40 -36.5 -66.5t-70.5 -25.5q-40 0 -60 27t-13 65z" />
    <glyph glyph-name="partialdiff" unicode="&#x2202;" horiz-adv-x="552" 
d="M249 -10q57 0 105 23t83.5 62t54.5 89t19 104q0 33 -8 66t-23.5 70t-44 82t-70 101t-98.5 128l-32 -36q41 -50 71.5 -89t53.5 -73t40 -68.5t35 -75.5l25 1q-36 38 -76 56.5t-90 18.5q-45 0 -89 -19.5t-80 -54t-57 -80t-21 -99.5q0 -62 24.5 -109t69.5 -72t108 -25z
M250 40q-45 0 -79 19.5t-52.5 54t-18.5 82.5q0 42 17 80t46.5 68t66 47t73.5 17q47 0 81 -19t53 -54t19 -81q0 -40 -16.5 -78.5t-44.5 -68.5t-65.5 -48.5t-79.5 -18.5z" />
    <glyph glyph-name="emptyset" unicode="&#x2205;" horiz-adv-x="600" 
d="M273 28q51 0 94.5 18.5t76.5 50.5t53 73t22 85q3 55 -19.5 100.5t-65 73t-100.5 27.5q-47 0 -90 -18t-77.5 -49t-55.5 -72.5t-23 -87.5q-3 -54 19.5 -100t65.5 -73.5t100 -27.5zM273 69q-46 0 -79 22t-50.5 59t-14.5 79q3 51 33 93t75.5 67.5t96.5 25.5q47 0 79.5 -22
t50 -58t14.5 -80q-3 -46 -30.5 -88.5t-73 -70t-101.5 -27.5zM99 43l432 374l-26 24l-431 -374z" />
    <glyph glyph-name="product" unicode="&#x220f;" horiz-adv-x="600" 
d="M130 0h80l110 630h120l-110 -630h80l110 630h85l10 70h-450l-10 -70h85z" />
    <glyph glyph-name="summation" unicode="&#x2211;" horiz-adv-x="600" 
d="M58 0h400l9 46h-322l198 306l-101 302h325l8 46h-400l114 -345z" />
    <glyph glyph-name="minus" unicode="&#x2212;" horiz-adv-x="572" 
d="M79 227l438 -1l9 49h-438z" />
    <glyph glyph-name="uni2215" unicode="&#x2215;" horiz-adv-x="483" 
d="M510 700l-548 -849h52l550 849h-54z" />
    <glyph glyph-name="uni2219" unicode="&#x2219;" horiz-adv-x="275" 
d="M148 430q-2 -10 1.5 -19t11 -14t16.5 -5q10 -1 19 4t16 14.5t8 17.5q1 10 -3 18.5t-11 13.5t-16 6q-9 0 -19 -5t-16.5 -13t-6.5 -18z" />
    <glyph glyph-name="radical" unicode="&#x221a;" horiz-adv-x="600" 
d="M169 -165l-54 379l44 -18l-119 -28l-2 38l122 28l35 -297l-27 11l248 752h160l-7 -47h-155l51 34z" />
    <glyph glyph-name="infinity" unicode="&#x221e;" horiz-adv-x="780" 
d="M159 58q50 0 105 36t118 106q39 -70 82.5 -106t93.5 -36q45 0 87.5 25.5t72.5 67t39 89.5q8 49 -8.5 89.5t-50.5 65.5t-79 25q-51 0 -105.5 -35t-116.5 -106q-79 141 -177 141q-45 0 -88 -25t-73 -65.5t-38 -89.5q-9 -48 8 -89.5t51 -67t79 -25.5zM174 109
q-31 0 -56 18.5t-37 48.5t-6 64q5 35 26.5 64.5t52.5 47.5t63 18q41 0 78.5 -34t66.5 -96q-50 -62 -98.5 -96.5t-89.5 -34.5zM561 109q-41 0 -79 34.5t-65 96.5q47 62 96.5 96t90.5 34q32 0 56.5 -18t36 -47.5t6.5 -64.5q-6 -34 -28 -64t-52 -48.5t-62 -18.5z" />
    <glyph glyph-name="integral" unicode="&#x222b;" horiz-adv-x="600" 
d="M116 -200q34 0 62.5 18t50.5 52.5t32 81.5l151 680q11 50 34 77.5t53 27.5q14 0 24.5 -7t27.5 -26l35 40q-21 23 -39 33t-41 11q-34 1 -63 -17.5t-50 -53t-32 -81.5l-151 -680q-11 -49 -34 -77t-53 -28q-13 0 -24.5 7t-26.5 26l-35 -40q19 -23 37.5 -33t41.5 -11z" />
    <glyph glyph-name="approxequal" unicode="&#x2248;" horiz-adv-x="600" 
d="M423 352q-28 0 -54.5 14t-55.5 43q-27 27 -48 38.5t-47 11.5q-25 0 -44 -13.5t-28.5 -36.5t-6.5 -52l-47 4q-5 36 13 69.5t49.5 55t69.5 21.5q30 0 59.5 -16t57.5 -44q25 -25 45 -35.5t41 -10.5q34 0 53.5 29t13.5 72l51 -4q1 -39 -14.5 -72t-44 -53.5t-63.5 -20.5z
M385 122q-29 0 -55.5 14t-55.5 43q-27 27 -48 38.5t-47 11.5q-25 0 -44.5 -13.5t-29 -36.5t-5.5 -52l-48 4q-4 36 13.5 69.5t49.5 55t71 21.5q29 0 60.5 -16t59.5 -44q24 -25 42 -35.5t39 -10.5q34 0 54 29t14 72l50 -4q3 -39 -13 -72t-44 -53.5t-63 -20.5z" />
    <glyph glyph-name="notequal" unicode="&#x2260;" horiz-adv-x="600" 
d="M136 36l-38 26l379 416l38 -26zM50 158l8 49h485l-8 -49h-485zM73 298l9 49h485l-9 -49h-485z" />
    <glyph glyph-name="lessequal" unicode="&#x2264;" horiz-adv-x="600" 
d="M8 0l10 52h510l-10 -52h-510zM535 99l-473 216l5 29l547 216l-10 -52l-453 -176l394 -181z" />
    <glyph glyph-name="greaterequal" unicode="&#x2265;" horiz-adv-x="600" 
d="M23 0l10 52h510l-10 -52h-510zM40 99l10 52l453 176l-394 181l10 52l473 -216l-5 -29z" />
    <glyph glyph-name="lozenge" unicode="&#x25ca;" horiz-adv-x="600" 
d="M267 15l-149 341l263 340l137 -340zM284 119l174 237l-97 236l-183 -236z" />
    <glyph glyph-name="uniFF10" unicode="&#xff10;" horiz-adv-x="550" 
d="M125 350q8 55 27.5 109.5t49 99.5t70 72t90.5 27q40 -1 66 -20.5t41.5 -51.5t21 -72t5 -82.5t-4.5 -81.5q-7 -55 -26.5 -109.5t-49.5 -99.5t-70.5 -72t-89.5 -26q-40 0 -66.5 19t-41.5 51.5t-21 72.5t-5.5 82.5t4.5 81.5zM71 350q-6 -47 -5 -98.5t11 -97.5t31.5 -83
t56 -58.5t84.5 -21.5q62 -1 112 30t88.5 82.5t62.5 116t33 130.5q6 47 5 98.5t-11 97.5t-31.5 83t-56 58.5t-83.5 22.5q-61 0 -112 -31t-89.5 -82.5t-62 -116t-33.5 -130.5z" />
    <glyph glyph-name="uniFF11" unicode="&#xff11;" horiz-adv-x="550" 
d="M204 599l164 41l-109 -640h55l122 709l-220 -52z" />
    <glyph glyph-name="uniFF12" unicode="&#xff12;" horiz-adv-x="550" 
d="M5 0h465l10 52l-353 1l292 262q44 40 78.5 87t44.5 105q6 36 -1 71.5t-27 65.5t-54 48t-83 19q-71 0 -124.5 -34.5t-87.5 -91t-47 -124.5h53q11 52 37 98t67.5 73.5t95.5 26.5q35 -1 59.5 -14.5t38.5 -34t18.5 -47t0.5 -52.5q-6 -34 -22 -63t-39 -54t-48 -49z" />
    <glyph glyph-name="uniFF13" unicode="&#xff13;" horiz-adv-x="550" 
d="M286 353q43 1 84.5 13t76 34.5t57.5 54t31 73.5q7 46 -9.5 88t-54 67.5t-93.5 26.5q-57 0 -102 -24t-74.5 -65.5t-40.5 -93.5h52q9 36 31 66.5t54.5 48.5t75.5 18q41 -1 66 -20.5t34.5 -49.5t4.5 -64q-6 -31 -23.5 -55.5t-43.5 -42.5t-57 -28t-63 -12zM256 -9
q60 0 111 24t85 66.5t43 99.5q7 49 -7.5 84.5t-44.5 59t-70.5 36t-82.5 14.5l-7 -36q33 -2 63.5 -12t54 -28.5t35 -46.5t5.5 -65q-7 -42 -32.5 -74.5t-63.5 -51.5t-84 -18q-47 0 -78 18.5t-45 50.5t-11 73h-53q-5 -41 5 -76.5t33.5 -62t59.5 -41t84 -14.5z" />
    <glyph glyph-name="uniFF14" unicode="&#xff14;" horiz-adv-x="550" 
d="M15 141l504 -1l9 49h-130h-11h-319zM75 141l354 428l-66 -398l-1 -9l-29 -162h55l120 700l-22 -1l-471 -558h60z" />
    <glyph glyph-name="uniFF15" unicode="&#xff15;" horiz-adv-x="550" 
d="M512 230q8 59 -9 110.5t-56 84t-99 33.5q-52 0 -100 -22.5t-81 -56.5l-43 -50q31 23 62.5 41.5t65 28.5t71.5 9q48 -2 80 -26.5t45.5 -64.5t7.5 -87q-9 -54 -38 -96.5t-73.5 -67t-97.5 -23.5q-42 0 -73 16.5t-52 45t-34 63.5l-49 -30q16 -44 42.5 -77t66 -51.5
t93.5 -18.5q50 0 96 16.5t82.5 48.5t60.5 76t32 98zM311 651l278 1l9 48h-322l-156 -375l84 69z" />
    <glyph glyph-name="uniFF16" unicode="&#xff16;" horiz-adv-x="550" 
d="M116 226q8 48 37 89.5t73 67t98 25.5q48 -1 80.5 -27.5t47 -67.5t7.5 -87q-8 -51 -37 -93.5t-72.5 -67.5t-95.5 -24q-52 0 -85.5 26t-47 68.5t-5.5 90.5zM416 700l-280 -323q-26 -30 -46 -69t-26 -82q-10 -63 9.5 -116.5t64 -86t111.5 -32.5q68 0 123.5 31.5t92.5 84.5
t46 119q6 42 -3 81.5t-30.5 71t-54.5 50.5t-77 20q-42 0 -77 -14t-64 -41l5 -4l275 310h-69z" />
    <glyph glyph-name="uniFF17" unicode="&#xff17;" horiz-adv-x="550" 
d="M136 648h387l-425 -648h58l461 700h-471z" />
    <glyph glyph-name="uniFF18" unicode="&#xff18;" horiz-adv-x="550" 
d="M160 536q-6 -37 3 -69t30 -56t51 -37t68 -13t73 12.5t63.5 36t47 55.5t24.5 70q5 35 -4 66t-30 55.5t-50.5 38.5t-67.5 15q-52 0 -96.5 -24t-74.5 -63.5t-37 -86.5zM211 529q5 35 27 65.5t54 48.5t71 18q37 -1 62 -19.5t36 -48.5t6 -64q-6 -36 -29.5 -66.5t-56.5 -48.5
t-66 -17q-34 0 -59.5 19t-38 49t-6.5 64zM79 189q-7 -40 2.5 -75.5t32 -63t56.5 -43.5t79 -16q45 -1 84.5 14.5t71 42.5t51.5 63t27 77q6 41 -4.5 77t-34.5 62t-57.5 41t-74.5 15q-42 0 -81 -14.5t-71 -40.5t-53.5 -61.5t-27.5 -77.5zM132 194q6 42 33 76.5t65.5 55.5
t79.5 21q39 -1 69 -22.5t44.5 -56t9.5 -74.5q-8 -44 -33.5 -79t-63.5 -55.5t-82 -19.5q-44 0 -73.5 21t-42.5 56t-6 77z" />
    <glyph glyph-name="uniFF19" unicode="&#xff19;" horiz-adv-x="550" 
d="M501 474q-8 -48 -37.5 -90t-73.5 -67t-97 -24q-49 0 -81.5 26t-46.5 67.5t-7 87.5q8 51 36.5 93.5t72 67.5t96.5 25q52 -1 85 -27.5t46.5 -68.5t6.5 -90zM201 0l280 323q25 30 45 69t28 82q9 63 -10.5 116.5t-64 86.5t-111.5 33q-68 0 -124 -32t-92 -85t-46 -118
q-6 -43 2.5 -82.5t30 -71t55 -50.5t77.5 -19q42 -1 76.5 13t64.5 42l-6 4l-275 -311h70z" />
    <glyph glyph-name="a.alt" 
d="M473 460l-78 -460h48l80 460h-50zM49 230q-9 -64 10 -119t61.5 -88t106.5 -32q46 0 85 19.5t68.5 53.5t49 77t26.5 89q6 43 0 85.5t-24 77.5t-49.5 56t-77.5 21q-64 1 -118.5 -31t-91 -87t-46.5 -122zM102 230q8 53 37 97t72.5 69.5t94.5 24.5q35 -1 61 -17.5t41.5 -44
t21.5 -61.5t2 -68q-7 -37 -24.5 -71t-43.5 -61.5t-58.5 -42.5t-67.5 -15q-50 0 -83 26.5t-47 69.5t-6 94z" />
    <glyph glyph-name="agrave.alt" 
d="M473 460l-78 -460h48l80 460h-50zM49 230q-9 -64 10 -119t61.5 -88t106.5 -32q46 0 85 19.5t68.5 53.5t49 77t26.5 89q6 43 0 85.5t-24 77.5t-49.5 56t-77.5 21q-64 1 -118.5 -31t-91 -87t-46.5 -122zM102 230q8 53 37 97t72.5 69.5t94.5 24.5q35 -1 61 -17.5t41.5 -44
t21.5 -61.5t2 -68q-7 -37 -24.5 -71t-43.5 -61.5t-58.5 -42.5t-67.5 -15q-50 0 -83 26.5t-47 69.5t-6 94zM219 688l148 -154l30 19l-127 161z" />
    <glyph glyph-name="aacute.alt" 
d="M473 460l-78 -460l48 1l80 459h-50zM49 230q-9 -64 10 -119t61.5 -88t106.5 -32q46 0 85 19.5t68.5 53.5t49 77t26.5 89q6 43 0 85.5t-24 77.5t-49.5 56t-77.5 21q-64 1 -118.5 -31t-91 -87t-46.5 -122zM102 230q8 53 37 97t72.5 69.5t94.5 24.5q35 -1 61 -17.5t41.5 -44
t21.5 -61.5t2 -68q-7 -37 -24.5 -71t-43.5 -61.5t-58.5 -42.5t-67.5 -15q-50 0 -83 26.5t-47 69.5t-6 94zM456 685l-43 29l-180 -158l26 -21z" />
    <glyph glyph-name="acircumflex.alt" 
d="M473 460l-78 -460h48l80 460h-50zM49 230q-9 -64 10 -119t61.5 -88t106.5 -32q46 0 85 19.5t68.5 53.5t49 77t26.5 89q6 43 0 85.5t-24 77.5t-49.5 56t-77.5 21q-64 1 -118.5 -31t-91 -87t-46.5 -122zM102 230q8 53 37 97t72.5 69.5t94.5 24.5q35 -1 61 -17.5t41.5 -44
t21.5 -61.5t2 -68q-7 -37 -24.5 -71t-43.5 -61.5t-58.5 -42.5t-67.5 -15q-50 0 -83 26.5t-47 69.5t-6 94zM350 649l105 -110l35 25l-133 141l-178 -138l28 -28z" />
    <glyph glyph-name="atilde.alt" 
d="M473 460l-78 -460h48l80 460h-50zM49 230q-9 -64 10 -119t61.5 -88t106.5 -32q46 0 85 19.5t68.5 53.5t49 77t26.5 89q6 43 0 85.5t-24 77.5t-49.5 56t-77.5 21q-64 1 -118.5 -31t-91 -87t-46.5 -122zM102 230q8 53 37 97t72.5 69.5t94.5 24.5q35 -1 61 -17.5t41.5 -44
t21.5 -61.5t2 -68q-7 -37 -24.5 -71t-43.5 -61.5t-58.5 -42.5t-67.5 -15q-50 0 -83 26.5t-47 69.5t-6 94zM189 563l31 -24q4 10 11.5 21t19 19.5t29.5 9.5q21 0 36.5 -11t32.5 -23t41 -12q20 -1 38.5 8t33 24t25.5 31l-27 28q-13 -19 -28.5 -33t-34.5 -14q-18 -1 -31 6
t-24.5 16t-25 16.5t-31.5 7.5q-22 0 -41.5 -10t-34.5 -26t-20 -34z" />
    <glyph glyph-name="adieresis.alt" 
d="M473 460l-78 -460h48l80 460h-50zM49 230q-9 -64 10 -119t61.5 -88t106.5 -32q46 0 85 19.5t68.5 53.5t49 77t26.5 89q6 43 0 85.5t-24 77.5t-49.5 56t-77.5 21q-64 1 -118.5 -31t-91 -87t-46.5 -122zM102 230q8 53 37 97t72.5 69.5t94.5 24.5q35 -1 61 -17.5t41.5 -44
t21.5 -61.5t2 -68q-7 -37 -24.5 -71t-43.5 -61.5t-58.5 -42.5t-67.5 -15q-50 0 -83 26.5t-47 69.5t-6 94zM403 588q-2 -15 6.5 -26t23.5 -11q13 -2 26.5 9.5t16.5 25.5q1 15 -8 26.5t-23 12.5t-27.5 -11.5t-14.5 -25.5zM209 588q-2 -15 6.5 -26t23.5 -11q13 -2 26.5 9.5
t15.5 25.5q1 15 -7.5 26.5t-22.5 12.5t-27.5 -11.5t-14.5 -25.5z" />
    <glyph glyph-name="aring.alt" 
d="M473 460l-78 -460h48l80 460h-50zM49 230q-9 -64 10 -119t61.5 -88t106.5 -32q46 0 85 19.5t68.5 53.5t49 77t26.5 89q6 43 0 85.5t-24 77.5t-49.5 56t-77.5 21q-64 1 -118.5 -31t-91 -87t-46.5 -122zM102 230q8 53 37 97t72.5 69.5t94.5 24.5q35 -1 61 -17.5t41.5 -44
t21.5 -61.5t2 -68q-7 -37 -24.5 -71t-43.5 -61.5t-58.5 -42.5t-67.5 -15q-50 0 -83 26.5t-47 69.5t-6 94zM228 630q-4 -27 6.5 -49.5t31 -36.5t46.5 -14q27 0 52 13t42.5 35.5t21.5 50.5q3 27 -7.5 49.5t-30.5 36.5t-46 14q-27 0 -52 -13t-42.5 -35.5t-21.5 -50.5zM262 629
q3 19 15 34.5t29 24.5t35 9q25 0 40.5 -20.5t12.5 -46.5q-3 -18 -15 -33.5t-29.5 -25t-34.5 -9.5q-24 0 -40 20.5t-13 46.5z" />
    <glyph glyph-name="amacron.alt" 
d="M473 460l-78 -460h48l80 460h-50zM49 230q-9 -64 10 -119t61.5 -88t106.5 -32q46 0 85 19.5t68.5 53.5t49 77t26.5 89q6 43 0 85.5t-24 77.5t-49.5 56t-77.5 21q-64 1 -118.5 -31t-91 -87t-46.5 -122zM102 230q8 53 37 97t72.5 69.5t94.5 24.5q35 -1 61 -17.5t41.5 -44
t21.5 -61.5t2 -68q-7 -37 -24.5 -71t-43.5 -61.5t-58.5 -42.5t-67.5 -15q-50 0 -83 26.5t-47 69.5t-6 94zM154 545h341l9 49h-341z" />
    <glyph glyph-name="abreve.alt" 
d="M473 460l-78 -460h48l80 460h-50zM49 230q-9 -64 10 -119t61.5 -88t106.5 -32q46 0 85 19.5t68.5 53.5t49 77t26.5 89q6 43 0 85.5t-24 77.5t-49.5 56t-77.5 21q-64 1 -118.5 -31t-91 -87t-46.5 -122zM102 230q8 53 37 97t72.5 69.5t94.5 24.5q35 -1 61 -17.5t41.5 -44
t21.5 -61.5t2 -68q-7 -37 -24.5 -71t-43.5 -61.5t-58.5 -42.5t-67.5 -15q-50 0 -83 26.5t-47 69.5t-6 94zM174 678q-2 -37 11.5 -69t44 -51.5t78.5 -19.5t84 19.5t58.5 51t31.5 68.5h-46q-8 -23 -24 -45.5t-40.5 -36.5t-60.5 -14q-34 0 -54.5 14t-29 36.5t-7.5 45.5z" />
    <glyph glyph-name="aogonek.alt" 
d="M473 460l-78 -460l48 1l80 459h-50zM49 230q-9 -64 10 -119t61.5 -88t106.5 -32q46 0 85 19.5t68.5 53.5t49 77t26.5 89q6 43 0 85.5t-24 77.5t-49.5 56t-77.5 21q-64 1 -118.5 -31t-91 -87t-46.5 -122zM102 230q8 53 37 97t72.5 69.5t94.5 24.5q35 -1 61 -17.5t41.5 -44
t21.5 -61.5t2 -68q-7 -37 -24.5 -71t-43.5 -61.5t-58.5 -42.5t-67.5 -15q-50 0 -83 26.5t-47 69.5t-6 94zM434 -147q-13 -10 -30.5 -19t-38.5 -7q-26 1 -41 15.5t-12 41.5q4 26 25 48t50.5 38.5t55.5 29.5l-24 19q-34 -17 -69 -37.5t-60.5 -47t-31.5 -61.5q-4 -29 7 -49.5
t34.5 -32t56.5 -10.5q29 0 53.5 11.5t41.5 26.5z" />
    </font>
</defs>
</svg>
