<?xml version="1.0" standalone="no"?>
<!DOCTYPE svg PUBLIC "-//W3C//DTD SVG 1.1//EN" "http://www.w3.org/Graphics/SVG/1.1/DTD/svg11.dtd" >
<svg xmlns="http://www.w3.org/2000/svg" xmlns:xlink="http://www.w3.org/1999/xlink" version="1.1">
<metadata>
Created by FontForge 20170731 at Wed May  6 18:12:01 2020
 By Aleksey,,,
Copyright 2020 The Jost Project Authors (https://github.com/indestructible-type)
</metadata>
<defs>
<font id="Jost-BoldItalic" horiz-adv-x="558" >
  <font-face 
    font-family="Jost"
    font-weight="700"
    font-style="italic"
    font-stretch="normal"
    units-per-em="1000"
    panose-1="0 0 0 0 0 0 0 0 0 0"
    ascent="800"
    descent="-200"
    x-height="460"
    cap-height="700"
    bbox="-217 -364 1757.92 1051"
    underline-thickness="50"
    underline-position="-175"
    slope="-12"
    unicode-range="U+000D-FF19"
  />
<missing-glyph horiz-adv-x="500" 
d="M50 -200h400v1000h-400v-1000zM100 -150v900h300v-900h-300z" />
    <glyph glyph-name=".notdef" horiz-adv-x="500" 
d="M50 -200h400v1000h-400v-1000zM100 -150v900h300v-900h-300z" />
    <glyph glyph-name="uni0000" horiz-adv-x="300" 
 />
    <glyph glyph-name="uni0000" horiz-adv-x="300" 
 />
    <glyph glyph-name="uni000D" unicode="&#xd;" horiz-adv-x="300" 
 />
    <glyph glyph-name="space" unicode=" " horiz-adv-x="300" 
 />
    <glyph glyph-name="exclam" unicode="!" horiz-adv-x="333" 
d="M168 700l-49 -469h121l112 469h-184zM57 62q0 -37 26.5 -61.5t67.5 -24.5t67.5 24.5t26.5 61.5q0 39 -26.5 62.5t-67.5 23.5t-67.5 -23.5t-26.5 -62.5z" />
    <glyph glyph-name="quotedbl" unicode="&#x22;" horiz-adv-x="502" 
d="M191 700l-92 -319l101 1l153 318h-162zM396 700l-92 -319l100 1l153 318h-161z" />
    <glyph glyph-name="numbersign" unicode="#" horiz-adv-x="647" 
d="M117 412l143 -1l27 7h197l28 -7l146 1l21 121h-543zM35 172h544l20 121h-126l-31 -6h-222l-31 6h-133zM549 700l-86 -212l-5 -31l-84 -207l-17 -26l-92 -224h132l286 700h-134zM315 700l-284 -700h132l92 226l4 26l84 204l19 32l87 212h-134z" />
    <glyph glyph-name="dollar" unicode="$" horiz-adv-x="601" 
d="M363 818l-23 -180h111l34 180h-122zM252 62l-33 -174h121l22 174h-110zM498 490l132 71q-20 43 -49.5 76t-74.5 53t-107 20q-65 0 -122.5 -24.5t-96 -67t-47.5 -96.5q-5 -44 8 -80t35.5 -62.5t52.5 -45.5t59 -32q32 -14 61 -27.5t47 -33t13 -47.5q-4 -21 -17 -36.5
t-34.5 -23t-46.5 -7.5q-38 -1 -63.5 15t-44.5 44.5t-35 64.5l-128 -83q19 -48 56 -89t87 -64.5t112 -24.5q74 0 135.5 24t102.5 69.5t51 112.5q4 40 -5.5 74t-28 61t-47 48t-63.5 35q-24 9 -50 18.5t-46.5 21.5t-32 28t-7.5 39q4 19 15.5 33t31 23t42.5 9q26 -1 45.5 -14.5
t34 -35t25.5 -46.5z" />
    <glyph glyph-name="percent" unicode="%" horiz-adv-x="891" 
d="M85 534q-7 -49 11.5 -90.5t56.5 -67.5t90 -26q53 0 99 25.5t76 67t38 91.5q6 48 -12.5 90t-56.5 68.5t-91 26.5t-98 -25.5t-75.5 -67t-37.5 -92.5zM206 533q3 16 14 32.5t27.5 26.5t34.5 10q18 -1 30.5 -11.5t17 -25.5t2.5 -30q-3 -17 -13.5 -31.5t-26.5 -25t-32 -9.5
q-21 0 -33 9.5t-17.5 24t-3.5 30.5zM504 166q-7 -48 11.5 -90t55.5 -68t90 -26t99 25t76 67t37 92q7 48 -11 90t-56 68.5t-91 26.5q-54 0 -98.5 -25.5t-75 -67t-37.5 -92.5zM626 166q3 18 13.5 32.5t27 24t35.5 9.5q17 0 28.5 -10t17.5 -24.5t3 -30.5q-3 -18 -14 -33
t-27 -24t-33 -9q-19 0 -31 10t-17.5 24.5t-2.5 30.5zM720 700l-640 -700h158l642 700h-160z" />
    <glyph glyph-name="ampersand" unicode="&#x26;" horiz-adv-x="730" 
d="M259 372l272 -372h164l-297 400q-20 25 -36 47t-26 43t-6 44q3 17 13 31t25.5 23t36.5 9q20 -1 32 -10t18 -23.5t4 -29.5q-3 -24 -23 -44.5t-49 -38t-59 -31.5q-29 -13 -63 -26t-70 -31t-66.5 -41.5t-52 -56t-26.5 -77.5q-9 -63 18.5 -107.5t79 -69t113.5 -24.5
q73 0 138 23.5t121.5 64.5t104.5 90t89 97l-92 79q-31 -40 -69 -80.5t-80.5 -75t-87.5 -53.5t-92 -16q-31 1 -51 11.5t-29 29.5t-5 44q4 31 24.5 51.5t50 35.5t60.5 28t59 28q36 23 69.5 43.5t60.5 44t44 51.5t22 66q6 45 -15 83t-62.5 61.5t-98.5 23.5q-60 0 -111 -23.5
t-84 -62.5t-40 -86q-4 -33 6 -63t27.5 -57t38.5 -53z" />
    <glyph glyph-name="quotesingle" unicode="'" horiz-adv-x="297" 
d="M191 700l-92 -319l101 1l153 318h-162z" />
    <glyph glyph-name="parenleft" unicode="(" horiz-adv-x="330" 
d="M283 780q-74 -111 -122.5 -235t-67.5 -255q-18 -124 -8 -248.5t52 -241.5h135q-36 118 -43 242.5t12 247.5q21 130 68 253t112 236z" />
    <glyph glyph-name="parenright" unicode=")" horiz-adv-x="330" 
d="M103 -199q73 111 121.5 234.5t68.5 254.5q18 124 7.5 248.5t-51.5 242.5h-135q36 -119 44 -243.5t-10 -247.5q-21 -130 -69.5 -253t-113.5 -236h138z" />
    <glyph glyph-name="asterisk" unicode="*" horiz-adv-x="574" 
d="M557 603l-224 -102l13 -72l233 41zM504 314l-135 172l-61 -40l73 -214zM225 234l141 207l-54 44l-187 -166zM104 472l221 -43l34 69l-194 104zM310 700l-6 -236l73 1l73 235h-140z" />
    <glyph glyph-name="plus" unicode="+" horiz-adv-x="654" 
d="M69 197l530 -1l25 146h-531zM316 541l-92 -543h153l94 543h-155z" />
    <glyph glyph-name="comma" unicode="," horiz-adv-x="313" 
d="M105 109l-129 -256l113 -24l164 247z" />
    <glyph glyph-name="hyphen" unicode="-" horiz-adv-x="215" 
d="M6 172h209l23 131h-209z" />
    <glyph glyph-name="period" unicode="." horiz-adv-x="312" 
d="M50 67q0 -37 26 -63.5t67 -26.5t68.5 26.5t27.5 63.5q0 40 -27.5 67t-67.5 27q-42 0 -68 -27t-26 -67z" />
    <glyph glyph-name="slash" unicode="/" horiz-adv-x="590" 
d="M525 700l-565 -849h152l561 849h-148z" />
    <glyph glyph-name="zero" unicode="0" horiz-adv-x="642" 
d="M231 350q5 40 18.5 79t34.5 70.5t49.5 50t62.5 18.5q26 -1 43.5 -14.5t26 -36.5t12 -50.5t2.5 -58t-4 -58.5q-5 -39 -18 -78.5t-34.5 -71t-49.5 -50t-63 -17.5q-27 0 -44 13.5t-26 36.5t-12.5 50.5t-2.5 58t5 58.5zM70 350q-7 -55 -3 -108.5t19.5 -99.5t43.5 -81
t69 -54.5t98 -19.5q70 0 129 28t102.5 78.5t71 116t38.5 139.5q7 57 3 110t-19 99t-42.5 80.5t-69.5 54.5t-98 20q-70 0 -128 -28t-103 -78.5t-72.5 -115.5t-38.5 -141z" />
    <glyph glyph-name="one" unicode="1" horiz-adv-x="494" 
d="M122 497l176 41l-93 -538h162l122 715l-341 -68z" />
    <glyph glyph-name="two" unicode="2" horiz-adv-x="637" 
d="M0 0h580l24 155l-269 1l180 146q48 37 82.5 85t42.5 105q6 43 -8 83t-45 71.5t-75.5 49.5t-101.5 18q-86 0 -150 -37t-104 -99.5t-52 -135.5l164 -1q6 34 22.5 62.5t42 46.5t59.5 18q20 -1 35.5 -8t25 -19.5t13 -28t0.5 -31.5q-4 -30 -22 -56.5t-42.5 -51.5t-49.5 -50z
" />
    <glyph glyph-name="three" unicode="3" horiz-adv-x="602" 
d="M302 341q55 0 108 9t98 29.5t74.5 55t37.5 85.5q8 56 -18.5 100t-78.5 68.5t-119 24.5q-72 0 -128.5 -28.5t-93 -77t-47.5 -111.5h154q7 21 21 40.5t34.5 30.5t47.5 11q23 -1 37.5 -10.5t20.5 -24t4 -34.5q-3 -23 -16 -38.5t-33 -28t-44 -19.5t-49 -8zM293 -15
q76 0 139.5 24.5t105.5 70.5t50 111q7 56 -14 94t-60.5 60.5t-94 34t-110.5 12.5l-12 -86q30 -1 56 -7.5t44 -17.5t25.5 -29t3.5 -44q-5 -27 -21 -47t-41 -30.5t-52 -9.5q-31 1 -50.5 12.5t-29.5 34.5t-8 55h-162q-4 -50 9 -92.5t43.5 -75t75.5 -51.5t103 -19z" />
    <glyph glyph-name="four" unicode="4" horiz-adv-x="678" 
d="M6 124l626 -1l25 145h-145l-21 -21h-241l175 200l-45 -260l-20 -11l-29 -176h173l120 700h-127z" />
    <glyph glyph-name="five" unicode="5" horiz-adv-x="626" 
d="M606 225q8 62 -13 113t-63 82.5t-101 32.5q-33 0 -63 -6t-57 -19l63 126l271 -1l23 147h-396l-155 -403q33 14 68.5 24t68.5 14.5t64 4.5q31 -2 58.5 -12.5t42.5 -32t10 -52.5q-5 -34 -26.5 -56.5t-54 -33.5t-69.5 -10q-28 0 -56 9t-54 26t-49 39l-82 -138
q33 -25 72.5 -46.5t87 -33.5t103.5 -12q53 0 104.5 15.5t94.5 45t71.5 73.5t36.5 104z" />
    <glyph glyph-name="six" unicode="6" horiz-adv-x="649" 
d="M232 247q6 33 25 60t48.5 42.5t62.5 15.5q33 -1 55 -17.5t31.5 -43t5.5 -57.5q-5 -32 -25 -60t-48.5 -43.5t-62.5 -14.5q-32 0 -54.5 16t-32.5 43.5t-5 58.5zM410 697l-234 -256q-39 -42 -69.5 -89.5t-38.5 -104.5q-10 -80 19 -139.5t87.5 -91t136.5 -31.5q77 0 145 31
t113 90t55 141q5 45 -6.5 86t-37 72t-60 49.5t-76.5 19.5q-36 0 -62.5 -11t-54.5 -32l38 15l262 251h-217z" />
    <glyph glyph-name="seven" unicode="7" horiz-adv-x="585" 
d="M94 542h313l-350 -542h184l437 700h-559z" />
    <glyph glyph-name="eight" unicode="8" horiz-adv-x="609" 
d="M137 532q-6 -47 8.5 -81.5t45.5 -59t70 -36.5t81 -12q43 0 86 12t79 36t61 58.5t31 81.5q6 44 -8 78t-43 58t-69 36.5t-83 12.5q-62 0 -118 -21.5t-94.5 -63t-46.5 -99.5zM291 514q3 22 15.5 39.5t32.5 29t44 11.5q21 -1 36 -12.5t20 -28.5t2 -37q-4 -21 -17 -40
t-33 -29.5t-42 -10.5q-21 0 -35.5 11t-20 29.5t-2.5 37.5zM55 191q-7 -49 9 -86.5t48.5 -64.5t76 -41t92.5 -14q50 0 97 13t87 40t66.5 65t34.5 87q6 53 -11.5 91t-51 63.5t-76.5 38.5t-86 13q-46 0 -93 -12.5t-88 -38t-69.5 -64t-35.5 -90.5zM224 216q4 25 20 44.5t40 33
t50 13.5q24 0 41 -13.5t25 -33t5 -43.5q-4 -26 -20 -48t-39.5 -34.5t-50.5 -12.5q-25 0 -42.5 12.5t-25 34.5t-3.5 47z" />
    <glyph glyph-name="nine" unicode="9" horiz-adv-x="649" 
d="M492 454q-5 -32 -25 -59.5t-48.5 -43.5t-61.5 -15q-33 0 -55.5 16.5t-32.5 43.5t-4 57q5 33 24.5 60.5t48.5 43t63 15.5q32 -1 53.5 -17t31.5 -42.5t6 -58.5zM314 4l236 255q37 41 68 89t39 105q9 81 -20 140t-87.5 91t-135.5 32q-78 0 -146.5 -31.5t-113 -90.5
t-53.5 -141q-6 -45 5 -86t36.5 -72t60.5 -49.5t77 -18.5q35 0 62 10.5t55 32.5l-39 -15l-260 -251h216z" />
    <glyph glyph-name="colon" unicode=":" horiz-adv-x="312" 
d="M47 67q0 -37 26 -63.5t67 -26.5t68.5 26.5t27.5 63.5q0 40 -27.5 67t-67.5 27q-42 0 -68 -27t-26 -67zM111 442q0 -38 26 -65.5t67 -27.5t68.5 27.5t27.5 65.5q0 39 -27.5 65.5t-67.5 26.5q-42 0 -68 -26.5t-26 -65.5z" />
    <glyph glyph-name="semicolon" unicode=";" horiz-adv-x="381" 
d="M161 436q0 -38 26 -65t66 -27q42 0 69 26.5t27 64.5q0 39 -27 66t-68 27t-67 -27t-26 -65zM128 109l-130 -256l112 -24l164 247z" />
    <glyph glyph-name="less" unicode="&#x3c;" horiz-adv-x="621" 
d="M292 264l305 112l27 155l-535 -215l-17 -101l461 -215l24 143z" />
    <glyph glyph-name="equal" unicode="=" horiz-adv-x="607" 
d="M42 84h502l22 131h-502zM76 290h503l22 131h-503z" />
    <glyph glyph-name="greater" unicode="&#x3e;" horiz-adv-x="621" 
d="M366 265l-306 -114l-27 -155l535 216l17 101l-460 215l-25 -144z" />
    <glyph glyph-name="question" unicode="?" horiz-adv-x="608" 
d="M466 501q-7 -33 -35 -61t-69.5 -44t-90.5 -17h-30l-9 -178h122l21 85q55 10 107 37.5t88.5 71t46.5 105.5q6 50 -8.5 90t-46 69t-74 44.5t-88.5 15.5q-57 0 -106.5 -16t-92.5 -45.5t-82 -66.5l90 -86q33 36 76.5 61.5t91.5 25.5q32 -1 53.5 -12.5t31 -31.5t4.5 -47z
M172 60q0 -34 27 -58.5t66 -24.5t65.5 24.5t26.5 58.5q0 33 -26.5 57.5t-65.5 24.5t-66 -24.5t-27 -57.5z" />
    <glyph glyph-name="at" unicode="@" horiz-adv-x="747" 
d="M335 320q3 25 17 51.5t34 44.5t40 15q15 -1 22 -10.5t9 -24t0 -31.5q-3 -26 -17.5 -52.5t-35.5 -45t-41 -14.5q-13 1 -20.5 11t-9 24.5t1.5 31.5zM216 314q-6 -43 3.5 -79.5t34 -58t68.5 -20.5q46 -1 85.5 28.5t65.5 78.5t33 107q4 36 -5.5 73t-32 62t-61.5 25
q-47 1 -88 -29t-69 -80t-34 -107zM44 320q-11 -70 2.5 -132.5t49.5 -110.5t93.5 -75.5t138.5 -27.5q68 -1 125.5 13.5t107.5 39.5l-25 91q-44 -20 -90.5 -32t-97.5 -11q-78 0 -124 32.5t-63 88.5t-5 124q10 61 38 116.5t72 96.5t99.5 65.5t121.5 24.5q53 0 90 -20t58 -52.5
t26.5 -74t-1.5 -85.5q-3 -31 -12.5 -58t-22.5 -49.5t-29 -34t-30 -7.5q-9 1 -12 7t-4 14.5t0 17.5q1 7 2.5 14t3.5 13l63 212h-115l-60 -224l8 -30q-5 -33 4 -60t31 -43.5t58 -17.5q41 -2 79.5 16t69 51t50.5 78.5t27 99.5q9 61 -5 120t-49.5 107.5t-91.5 76.5t-131 28
q-86 0 -162.5 -32t-136 -88t-99.5 -128.5t-52 -153.5z" />
    <glyph glyph-name="A" unicode="A" horiz-adv-x="713" 
d="M175 135h361l12 129h-341zM407 442l57 -225l-11 -45l49 -172h185l-230 746l-488 -746h192l114 178v39z" />
    <glyph glyph-name="B" unicode="B" horiz-adv-x="645" 
d="M225 349h135q64 0 121.5 18.5t96.5 57t48 97.5q7 45 -8.5 78t-46 56t-73 33.5t-88.5 10.5h-246l-120 -700h272q74 0 137 20t104.5 63t52.5 113q6 53 -11 90.5t-52 62t-80.5 36t-92.5 11.5h-141l-15 -92h130q21 -1 40 -5.5t32.5 -14.5t19 -25t2.5 -37q-5 -32 -25 -52
t-48 -29t-59 -9l-79 -1l78 438h68q38 -1 58.5 -19.5t15.5 -51.5q-5 -23 -20 -40t-37 -26.5t-50 -9.5h-106z" />
    <glyph glyph-name="C" unicode="C" horiz-adv-x="679" 
d="M247 350q7 45 29 82t55 64.5t73.5 42.5t84.5 16q43 0 76.5 -12t60 -33t47.5 -48l28 184q-42 33 -90 51.5t-114 18.5q-84 0 -156.5 -28t-131 -76.5t-95.5 -115t-49 -146.5q-12 -77 5 -143.5t60 -115.5t106.5 -77.5t145.5 -28.5q68 0 121 19t100 50l27 183
q-30 -24 -63 -45.5t-72.5 -34t-85.5 -11.5q-43 0 -76.5 16t-55 44.5t-30 64.5t-0.5 79z" />
    <glyph glyph-name="D" unicode="D" horiz-adv-x="710" 
d="M164 700l-120 -700h172l121 700h-173zM293 0q81 0 153 25.5t127.5 71.5t91 110t48.5 143q10 77 -6 141t-57.5 110t-104.5 72.5t-143 26.5h-129l-27 -150h135q42 0 75 -13.5t54.5 -39t29 -63t1.5 -84.5q-9 -49 -30.5 -86.5t-54 -63t-71.5 -37.5t-82 -12h-125l-26 -151h141
z" />
    <glyph glyph-name="E" unicode="E" horiz-adv-x="584" 
d="M153 0h345l23 139h-344zM249 561h345l24 139h-345zM204 300h326l23 137h-326zM164 700l-120 -700h160l120 700h-160z" />
    <glyph glyph-name="F" unicode="F" horiz-adv-x="536" 
d="M248 554h306l25 146h-306zM201 281h297l23 136h-297zM164 700l-120 -700h160l120 700h-160z" />
    <glyph glyph-name="G" unicode="G" horiz-adv-x="790" 
d="M424 253h174q-14 -28 -32.5 -50.5t-43 -40t-55 -27t-67.5 -9.5q-47 0 -80.5 18t-54.5 49t-27 71.5t1 85.5q8 47 30 86.5t55.5 69.5t74.5 46t86 17q56 0 89.5 -27.5t52.5 -69.5l158 77q-28 51 -69 88t-95 58t-120 21q-84 0 -157 -27t-132 -76t-97 -116t-50 -147
q-12 -76 5 -143.5t60.5 -119.5t107 -80.5t144.5 -28.5q91 0 162 32t123 89t83 130.5t40 153.5h-344z" />
    <glyph glyph-name="H" unicode="H" horiz-adv-x="762" 
d="M141 293h516l26 152h-517zM620 700l-120 -700h166l120 700h-166zM164 700l-120 -700h166l120 700h-166z" />
    <glyph glyph-name="I" unicode="I" horiz-adv-x="310" 
d="M164 700l-120 -700h169l120 700h-169z" />
    <glyph glyph-name="J" unicode="J" horiz-adv-x="320" 
d="M-113 -63l-104 -118q21 -15 49.5 -28t61 -21.5t68.5 -8.5q46 0 88 11t76.5 34t58.5 57.5t31 82.5l128 754h-180l-124 -715q-5 -37 -28.5 -58.5t-51.5 -22.5q-21 -1 -39.5 9.5t-33.5 23.5z" />
    <glyph glyph-name="K" unicode="K" horiz-adv-x="679" 
d="M164 700l-120 -700h172l121 700h-173zM562 700l-332 -329l227 -371h195l-226 369l337 331h-201z" />
    <glyph glyph-name="L" unicode="L" horiz-adv-x="512" 
d="M164 700l-120 -700h439l26 146h-274l95 554h-166z" />
    <glyph glyph-name="M" unicode="M" horiz-adv-x="865" 
d="M284 356l135 -292l233 286l-20 -350h175l17 740l-368 -429l-216 424l-236 -735h176z" />
    <glyph glyph-name="N" unicode="N" horiz-adv-x="770" 
d="M633 700l-70 -393l-394 426l-125 -733h160l69 393l395 -426l126 733h-161z" />
    <glyph glyph-name="O" unicode="O" horiz-adv-x="796" 
d="M240 350q7 44 27.5 81.5t51.5 66.5t70 46t85 17q44 -1 76 -18.5t50 -47.5t23.5 -67.5t-1.5 -77.5q-8 -43 -28.5 -81t-50.5 -67.5t-68.5 -46t-83.5 -15.5q-45 0 -76.5 18t-50 47.5t-24.5 67.5t0 77zM65 350q-11 -75 5 -142t57 -119t103.5 -81.5t143.5 -29.5t152.5 28
t129.5 79.5t95 119t49 145.5q11 74 -7 141t-59 118t-103.5 79t-141.5 28q-80 0 -152 -27.5t-129 -77t-94 -117t-49 -144.5z" />
    <glyph glyph-name="P" unicode="P" horiz-adv-x="604" 
d="M164 700l-120 -700h166l120 700h-166zM243 562h138q29 -1 50.5 -12t31 -31t4.5 -48q-6 -29 -23 -48.5t-44.5 -30t-57.5 -10.5h-131l-24 -141h141q81 1 145.5 28t105 78t48.5 124q8 71 -18 122t-80.5 78.5t-132.5 28.5h-130z" />
    <glyph glyph-name="Q" unicode="Q" horiz-adv-x="837" 
d="M240 350q7 43 28.5 81t52 67t70 46t84.5 17q49 -1 83 -21t54 -53t26 -73.5t-1 -82.5q-8 -42 -28 -80t-51 -65.5t-70 -43t-85 -14.5q-46 0 -79.5 17.5t-54.5 49.5t-28.5 71.5t-0.5 83.5zM65 350q-11 -75 6 -142t58.5 -119t103.5 -81.5t144 -29.5q80 0 152 28t128 79.5
t93.5 119t49.5 145.5q11 74 -6 140t-58 117.5t-103 80t-140 28.5q-81 0 -153 -27t-130 -77t-95.5 -117t-49.5 -145zM373 300l268 -312h172l-276 312h-164z" />
    <glyph glyph-name="R" unicode="R" horiz-adv-x="628" 
d="M270 317l136 -317h191l-158 317h-169zM164 700l-120 -700h166l120 700h-166zM242 556h138q29 0 50.5 -11.5t31 -31.5t4.5 -47q-6 -31 -23.5 -50.5t-44.5 -30.5t-58 -11h-130l-23 -133h152q80 0 144.5 28.5t106 80t50.5 121.5q8 68 -18 120t-81 80.5t-134 28.5h-141z" />
    <glyph glyph-name="S" unicode="S" horiz-adv-x="607" 
d="M157 246l-125 -83q18 -54 56 -95t91.5 -65.5t116.5 -24.5q53 0 101.5 16t88.5 45.5t65 70.5t31 95q3 40 -7.5 73t-30.5 58.5t-48 44.5t-62 33q-24 9 -49 19t-44 21.5t-30 26.5t-8 34q2 18 13 31.5t28.5 20.5t41.5 7q28 0 50 -10.5t38 -29.5t27 -41l133 69
q-16 41 -47.5 76.5t-77.5 56.5t-109 21q-68 0 -127 -25t-96 -70.5t-43 -107.5q-4 -45 9.5 -78t37.5 -59t52 -44t55 -30q36 -16 64 -29t42 -30t11 -42q-3 -22 -16 -39.5t-35 -27.5t-48 -10q-37 -1 -64.5 15t-48 43.5t-36.5 63.5z" />
    <glyph glyph-name="T" unicode="T" horiz-adv-x="544" 
d="M70 548h186l-95 -548h168l95 548h185l26 152h-539z" />
    <glyph glyph-name="U" unicode="U" horiz-adv-x="680" 
d="M159 700l-79 -470q-9 -60 4.5 -107.5t45.5 -82t78.5 -52t105.5 -17.5q61 0 114.5 17.5t94.5 51.5t68 81.5t37 108.5l80 470h-167l-79 -457q-6 -34 -23 -61t-43.5 -43t-64.5 -15q-37 0 -56.5 16.5t-26.5 43t-2 58.5l79 458h-166z" />
    <glyph glyph-name="V" unicode="V" horiz-adv-x="713" 
d="M382 285l-100 415h-191l244 -745l474 745h-198z" />
    <glyph glyph-name="W" unicode="W" horiz-adv-x="1033" 
d="M730 296l-117 442l-258 -440l-65 402h-194l179 -743l286 421l152 -420l411 742h-201z" />
    <glyph glyph-name="X" unicode="X" horiz-adv-x="665" 
d="M533 700l-139 -200l-73 200h-200l155 -338l-292 -362h209l163 230l87 -230h201l-170 355l269 345h-210z" />
    <glyph glyph-name="Y" unicode="Y" horiz-adv-x="640" 
d="M543 700l-177 -260l-86 260h-187l166 -411l-51 -289h172l47 281l313 419h-197z" />
    <glyph glyph-name="Z" unicode="Z" horiz-adv-x="601" 
d="M121 548h268l-411 -548h550l26 146l-285 1l415 553h-537z" />
    <glyph glyph-name="bracketleft" unicode="[" horiz-adv-x="351" 
d="M320 649h97l20 131h-247l-154 -1000h246l21 131h-98z" />
    <glyph glyph-name="backslash" unicode="\" horiz-adv-x="529" 
d="M107 700l240 -700h140l-238 700h-142z" />
    <glyph glyph-name="bracketright" unicode="]" horiz-adv-x="351" 
d="M85 -89h-98l-20 -131h247l155 1000h-248l-20 -131h99z" />
    <glyph glyph-name="asciicircum" unicode="^" horiz-adv-x="494" 
d="M322 578l53 -130h130l-121 262h-90l-209 -261h138z" />
    <glyph glyph-name="underscore" unicode="_" horiz-adv-x="515" 
d="M-54 -154h517l16 97h-517z" />
    <glyph glyph-name="grave" unicode="`" horiz-adv-x="363" 
d="M136 657l154 -152l87 39l-123 163z" />
    <glyph glyph-name="a" unicode="a" horiz-adv-x="525" 
d="M168 141q2 18 14.5 30.5t32 18.5t42.5 7q33 0 60 -9.5t50 -27.5l10 67q-15 15 -38.5 26.5t-53 18t-61.5 6.5q-55 0 -98.5 -16t-72 -49t-35.5 -79q-6 -45 12 -77t52.5 -49.5t77.5 -16.5q45 0 83.5 16.5t65 47t36.5 72.5l-7 59q-9 -28 -26 -50.5t-40 -35t-53 -11.5
q-15 0 -27.5 6.5t-19 17.5t-4.5 28zM139 318q16 8 40.5 17.5t53 16.5t57.5 5q17 0 30.5 -4.5t22.5 -12.5t12.5 -20.5t1.5 -26.5l-53 -293h144l55 325q6 49 -19.5 81.5t-70.5 49.5t-98 17q-60 0 -113 -16t-98 -35z" />
    <glyph glyph-name="b" unicode="b" horiz-adv-x="598" 
d="M311 780h-150l-133 -780h149zM582 230q8 66 -12 120.5t-63 87t-103 32.5q-46 0 -85 -19t-69 -51.5t-49.5 -76t-26.5 -92.5q-6 -48 1 -91t26 -77t51.5 -53.5t79.5 -19.5q60 0 113.5 31t90 85.5t46.5 123.5zM425 231q-6 -33 -25 -60t-47 -43t-58 -15q-21 0 -37.5 10
t-26.5 26t-14 37t-1 45q4 24 16 45t29.5 37t39 25.5t42.5 9.5q30 -1 50 -17.5t28 -43.5t4 -56z" />
    <glyph glyph-name="c" unicode="c" horiz-adv-x="473" 
d="M196 230q5 33 25 59.5t50 43t65 16.5q26 0 48.5 -8t40.5 -23t31 -36l20 148q-27 19 -62 29.5t-80 10.5q-75 0 -137.5 -30.5t-103.5 -84.5t-51 -124q-9 -70 18 -124.5t81 -85.5t127 -31q47 0 83.5 11.5t66.5 30.5l18 147q-18 -21 -40.5 -35.5t-49 -23t-54.5 -7.5
q-34 0 -57 15.5t-33.5 41.5t-5.5 60z" />
    <glyph glyph-name="d" unicode="d" horiz-adv-x="598" 
d="M500 780l-132 -780h148l135 780h-151zM42 231q-9 -67 10.5 -121.5t62 -86.5t104.5 -32q46 0 85 18.5t69.5 51t49.5 76t26 93.5q6 47 -0.5 90t-26 77t-52.5 53.5t-79 19.5q-62 0 -115.5 -31t-89 -85.5t-44.5 -122.5zM198 230q6 32 24.5 59t46 43t60.5 16q19 -1 35.5 -11
t26.5 -26.5t14.5 -37t1.5 -42.5q-4 -25 -16.5 -46.5t-30 -37.5t-38 -25t-41.5 -9q-32 0 -52 16.5t-28 43t-3 57.5z" />
    <glyph glyph-name="e" unicode="e" horiz-adv-x="556" 
d="M276 -10q88 0 151 35.5t100 100.5l-131 33q-19 -28 -47.5 -44t-66.5 -16q-32 0 -53.5 15.5t-29.5 42.5t-3 63q4 35 14 62.5t25.5 47t37 29.5t48.5 10q25 0 42 -11t24 -30.5t7 -48.5q0 -10 -3.5 -21t-9.5 -22l36 46h-296v-84h417q5 15 7.5 33.5t2.5 34.5q0 64 -25 109.5
t-72 70t-117 24.5q-64 0 -117 -20.5t-92 -57t-60 -86t-21 -106.5q0 -65 29 -112.5t80.5 -72.5t122.5 -25z" />
    <glyph glyph-name="f" unicode="f" horiz-adv-x="333" 
d="M68 460l-21 -125h307l22 125h-308zM393 636l74 109q-13 12 -30 23.5t-39.5 19.5t-51.5 8q-53 0 -94.5 -21t-66 -58.5t-32.5 -85.5l-108 -631h144l103 591q2 20 10 35.5t20.5 24.5t29.5 10q14 -1 23 -7.5t18 -17.5z" />
    <glyph glyph-name="g" unicode="g" horiz-adv-x="591" 
d="M6 -33q0 -63 24 -108.5t74 -71.5t127 -25q73 0 133 28.5t98 84t51 135.5l76 450h-143l-78 -449q-6 -36 -24.5 -66t-47.5 -46t-63 -15q-29 0 -47 9.5t-26.5 28t-10.5 45.5h-143zM43 237q-8 -66 11.5 -119.5t62 -84.5t104.5 -30q45 0 84 17t69 49.5t50.5 74.5t26.5 92
q6 47 -1.5 89t-27 74.5t-52.5 51.5t-79 19q-61 0 -114.5 -29.5t-89 -82.5t-44.5 -121zM199 235q5 32 23.5 57.5t46 40.5t60.5 15q20 -1 36 -9.5t26.5 -23.5t15 -35t1.5 -43q-4 -25 -16.5 -45t-29.5 -35.5t-38 -23.5t-42 -8q-30 1 -50.5 15.5t-29 39t-3.5 55.5z" />
    <glyph glyph-name="h" unicode="h" horiz-adv-x="551" 
d="M313 780h-151l-134 -780h151zM368 280l-49 -280h149l52 302q6 50 -3.5 89.5t-40 63t-85.5 23.5q-58 0 -96.5 -28t-61.5 -73t-33 -96l27 -1q6 23 18.5 42.5t32 31t44.5 9.5q24 -1 34.5 -12.5t12.5 -30.5t-1 -40z" />
    <glyph glyph-name="i" unicode="i" horiz-adv-x="268" 
d="M127 632q0 -36 25 -58t63 -22q37 0 62.5 22t25.5 58t-25.5 59t-62.5 23q-38 0 -63 -23t-25 -59zM113 460l-78 -460h144l79 460h-145z" />
    <glyph glyph-name="j" unicode="j" horiz-adv-x="263" 
d="M123 632q0 -36 25 -58.5t62 -22.5t63 22.5t26 58.5q0 35 -26 58.5t-63 23.5t-62 -23.5t-25 -58.5zM-77 -76l-74 -110q15 -13 31.5 -25t39 -19.5t51.5 -7.5q55 -1 95 20t65 59t33 88l91 531h-145l-86 -493q-2 -18 -9.5 -34t-18.5 -25.5t-29 -8.5q-14 0 -25 7.5t-19 17.5z
" />
    <glyph glyph-name="k" unicode="k" horiz-adv-x="560" 
d="M161 780l-133 -780h143l134 780h-144zM408 460l-219 -186l167 -274h170l-165 265l231 195h-184z" />
    <glyph glyph-name="l" unicode="l" horiz-adv-x="261" 
d="M161 780l-132 -780h150l134 780h-152z" />
    <glyph glyph-name="m" unicode="m" horiz-adv-x="795" 
d="M763 296q6 48 -1 87.5t-34.5 63.5t-80.5 24q-48 0 -87 -21.5t-67 -57.5q-5 24 -19 41.5t-38 27.5t-59 10q-31 0 -55 -9t-44 -25.5t-35 -38.5l10 62h-146l-79 -460h146l49 284q4 24 15 42t28 27.5t39 9.5q20 0 28.5 -11.5t9.5 -31t-1 -39.5l-50 -281h150l48 281
q4 25 15 43t29 28.5t40 10.5q21 0 29.5 -11.5t9.5 -31t-1 -40.5l-51 -280h152z" />
    <glyph glyph-name="n" unicode="n" 
d="M368 280l-49 -280h156l50 296q7 49 -4.5 89t-44 63.5t-87.5 22.5q-47 0 -83 -20.5t-58 -54.5l10 64h-151l-79 -460h151l50 282q3 24 15 43t31 28.5t44 9.5t36.5 -11.5t13.5 -31t-1 -40.5z" />
    <glyph glyph-name="o" unicode="o" horiz-adv-x="571" 
d="M48 231q-9 -70 18.5 -124t81 -85.5t124.5 -31.5q74 0 136 31t103 85t51 124q9 69 -18.5 122.5t-80.5 86t-125 32.5q-73 0 -135.5 -31t-103.5 -85t-51 -124zM201 230q6 33 23.5 58.5t44.5 41.5t58 16q30 -1 49 -17.5t27.5 -42.5t4.5 -54q-5 -33 -23 -59.5t-44.5 -42
t-57.5 -14.5q-30 0 -49.5 16t-28 42.5t-4.5 55.5z" />
    <glyph glyph-name="p" unicode="p" horiz-adv-x="598" 
d="M140 -220l115 680h-148l-117 -680h150zM582 229q8 68 -11.5 124.5t-62 89.5t-103.5 33q-48 -1 -86.5 -20.5t-67.5 -54t-46.5 -78t-24.5 -93.5q-6 -47 -1.5 -90t22.5 -78.5t50 -56t80 -20.5q60 0 114 31.5t90.5 86.5t46.5 126zM425 231q-5 -33 -24.5 -58.5t-47 -40
t-57.5 -13.5q-21 0 -37.5 9t-27 23.5t-14.5 34.5t-1 43q4 24 16 45t29.5 36.5t39 23.5t41.5 8q30 0 50 -15.5t28.5 -40.5t4.5 -55z" />
    <glyph glyph-name="q" unicode="q" horiz-adv-x="598" 
d="M330 -220h149l117 680h-150zM42 230q-9 -68 9.5 -123.5t61 -88.5t105.5 -32q47 0 85.5 19t68 53.5t47.5 78.5t25 93q5 47 0.5 90t-22.5 78.5t-50 56.5t-79 21q-63 0 -116.5 -31.5t-89.5 -87.5t-45 -127zM198 229q5 32 24 58t46.5 41t59.5 14q20 -1 36 -9.5t26.5 -23.5
t15 -35t1.5 -43q-4 -25 -16 -45.5t-29.5 -35.5t-38 -23.5t-41.5 -7.5q-32 0 -52 15t-28.5 40t-3.5 55z" />
    <glyph glyph-name="r" unicode="r" horiz-adv-x="402" 
d="M255 460h-148l-79 -460h147zM363 304l83 128q-13 15 -33.5 27t-44.5 12q-42 0 -78.5 -27.5t-63 -71.5t-34.5 -91l23 -53q4 27 18 50t33.5 37.5t44.5 13.5q17 0 29 -7.5t23 -17.5z" />
    <glyph glyph-name="s" unicode="s" horiz-adv-x="442" 
d="M88 167l-73 -99q29 -24 64 -43.5t76 -31.5t89 -11q51 0 91 17.5t64 50.5t28 82q2 39 -13.5 65.5t-41.5 44.5t-59 30q-25 11 -46 18.5t-33.5 18t-11.5 26.5q2 15 16 23.5t33 8.5q31 0 64 -19t57 -44l61 97q-25 19 -54 35t-62 25t-72 9q-45 -1 -85 -16t-65.5 -44t-28.5 -72
q-3 -41 12 -68.5t42 -45.5t56 -29q25 -9 44 -17.5t29.5 -19.5t9.5 -26q-1 -17 -14.5 -28.5t-33.5 -11.5q-22 -2 -45 7t-47.5 26t-50.5 42z" />
    <glyph glyph-name="t" unicode="t" horiz-adv-x="308" 
d="M56 460l-22 -125h302l21 125h-301zM161 620l-106 -620h144l107 620h-145z" />
    <glyph glyph-name="u" unicode="u" 
d="M215 180l50 280h-157l-51 -295q-7 -51 4.5 -90.5t44 -62.5t87.5 -23q48 0 83 21t59 55l-10 -65h150l79 460h-149l-50 -283q-4 -25 -17.5 -43t-33.5 -27.5t-43 -9.5t-33.5 12t-12.5 30.5t0 40.5z" />
    <glyph glyph-name="v" unicode="v" horiz-adv-x="511" 
d="M51 460l181 -515l340 515h-161l-140 -252l-62 252h-158z" />
    <glyph glyph-name="w" unicode="w" horiz-adv-x="739" 
d="M45 460l148 -491l192 272l100 -272l317 491h-160l-135 -233l-82 271l-175 -269l-51 231h-154z" />
    <glyph glyph-name="x" unicode="x" horiz-adv-x="516" 
d="M395 460l-101 -120l-62 120h-167l135 -216l-221 -244h176l109 136l74 -136h160l-142 232l208 228h-169z" />
    <glyph glyph-name="y" unicode="y" horiz-adv-x="506" 
d="M570 460h-156l-206 -367l77 -2l-82 369h-159l121 -418l-156 -261h153z" />
    <glyph glyph-name="z" unicode="z" horiz-adv-x="506" 
d="M274 322l-290 -322h452l23 138h-190l280 322h-442l-24 -138h191z" />
    <glyph glyph-name="braceleft" unicode="{" horiz-adv-x="386" 
d="M338 610q4 21 18 35.5t36 14.5h33l17 120h-93q-42 -1 -80 -16.5t-62.5 -46.5t-32.5 -76l-28 -185q-7 -48 -24 -73t-51 -38l-16 -110q31 -15 39 -39t3 -71l-28 -185q-7 -45 11 -76t51.5 -47t74.5 -17l86 1l18 120h-36q-15 0 -24 6.5t-12.5 18t-1.5 24.5l20 120q5 34 6 69
t-8 65.5t-34.5 51t-72.5 25.5l-3 -20q49 3 80.5 22t49.5 48.5t28 65.5t17 73z" />
    <glyph glyph-name="bar" unicode="|" horiz-adv-x="341" 
d="M200 785l-154 -1000h152l153 1000h-151z" />
    <glyph glyph-name="braceright" unicode="}" horiz-adv-x="386" 
d="M109 -30q-4 -21 -18.5 -35.5t-36.5 -14.5h-33l-18 -120h95q41 1 78.5 16.5t62.5 46.5t32 77l28 185q7 49 24.5 73.5t51.5 37.5l16 109q-32 16 -40.5 40t-2.5 70l28 185q7 45 -11 76t-51 47t-74 17h-86l-17 -120h36q14 -1 23 -7.5t12.5 -17.5t1.5 -24l-19 -120
q-6 -34 -6.5 -69.5t8 -66t34.5 -51t73 -24.5l3 20q-49 -4 -81 -23t-49.5 -48.5t-28 -65.5t-16.5 -72z" />
    <glyph glyph-name="asciitilde" unicode="~" 
d="M162 163l-2 14t1 16q3 16 16.5 29t33.5 14q13 1 25.5 -3.5t24.5 -12t25 -17.5q29 -21 56 -35.5t57 -14.5q37 0 65.5 14.5t50.5 38.5q18 21 27.5 46t12.5 50q0 7 -0.5 14.5t-0.5 13.5l-117 6q2 -7 2 -16.5t-1 -17.5q-3 -14 -13.5 -26t-26.5 -12q-15 0 -31 10.5t-32 22.5
q-19 14 -38 25t-37 17.5t-40 6.5q-45 0 -77.5 -16t-55.5 -42q-18 -21 -28.5 -45t-13.5 -50q-1 -7 -0.5 -13t1.5 -12z" />
    <glyph glyph-name="uni00A0" unicode="&#xa0;" horiz-adv-x="300" 
 />
    <glyph glyph-name="exclamdown" unicode="&#xa1;" horiz-adv-x="333" 
d="M193 -228l48 466h-121l-112 -466h185zM301 409q5 36 -18.5 61t-61.5 25q-38 1 -68.5 -24t-34.5 -60q-5 -38 18.5 -63t61.5 -26q38 0 68.5 24.5t34.5 62.5z" />
    <glyph glyph-name="cent" unicode="&#xa2;" horiz-adv-x="562" 
d="M208 38l-36 -150h128l18 150h-110zM212 230q5 34 27 60.5t52.5 42.5t63.5 16q42 0 71 -19.5t46 -49.5l22 150q-27 18 -62 29t-77 11q-75 0 -138 -31t-105 -84.5t-52 -123.5q-11 -70 15.5 -124t80 -85.5t127.5 -31.5q43 0 80 11t67 29l21 149q-27 -26 -63.5 -46.5
t-81.5 -19.5q-32 0 -55.5 14.5t-34 41.5t-4.5 61zM292 578l-18 -150h110l35 150h-127z" />
    <glyph glyph-name="sterling" unicode="&#xa3;" horiz-adv-x="592" 
d="M100 370l-18 -100h370l19 100h-371zM475 467l143 50q0 36 -14 71t-41.5 62.5t-67 43.5t-88.5 16q-47 0 -92 -12.5t-81 -37t-60 -59.5t-30 -79q-4 -30 2 -54.5t17 -45.5t21.5 -42.5t17 -44t3.5 -48.5q-10 -56 -35 -103.5t-63 -92t-84 -91.5h474l24 139h-340l-64 -87
q34 9 71.5 29t71 48.5t57.5 64t30 76.5q4 28 -2.5 51.5t-16 45t-18.5 42.5t-14 41.5t0 44.5q5 26 20 43.5t37 27.5t47 10q26 -1 41.5 -10.5t23.5 -26t9.5 -35t0.5 -37.5z" />
    <glyph glyph-name="currency" unicode="&#xa4;" 
d="M80 505l86 -99l66 56l-81 104zM66 35l111 99l-53 63l-112 -96zM486 405l111 96l-51 65l-114 -97zM375 138l85 -103l67 59l-82 103zM72 301q-9 -65 13 -119.5t69.5 -88t114.5 -33.5t124.5 32.5t96 86.5t47.5 121q9 64 -13 118.5t-69 88t-114 33.5q-68 0 -125.5 -32.5
t-95.5 -86.5t-48 -120zM208 299q4 29 21 52t42.5 37t54.5 14q29 -1 47 -15.5t26 -37t4 -48.5q-5 -29 -22.5 -52t-42.5 -37t-54 -13q-29 0 -47.5 14t-26 37t-2.5 49z" />
    <glyph glyph-name="yen" unicode="&#xa5;" horiz-adv-x="649" 
d="M61 266l561 -1l18 100h-562zM36 116l561 -1l17 100h-562zM547 700l-178 -260l-84 260h-189l167 -411l-51 -289h173l48 283l309 417h-195z" />
    <glyph glyph-name="brokenbar" unicode="&#xa6;" horiz-adv-x="341" 
d="M188 695l-46 -265h151l46 265h-151zM266 271h-151l-46 -266h152z" />
    <glyph glyph-name="section" unicode="&#xa7;" horiz-adv-x="559" 
d="M460 550l83 97q-17 23 -44 40.5t-60.5 27t-70.5 9.5q-45 -1 -88.5 -17.5t-75 -48.5t-37.5 -79q-4 -28 3 -51t21.5 -39.5t34 -30t40.5 -22.5q22 -10 47 -21.5t41 -27.5t12 -42q-4 -21 -17.5 -36t-32 -23.5t-37.5 -14.5l-7 -41q39 1 78 10t71.5 25.5t54.5 44.5t29 68
q4 35 -10 62.5t-41 48.5t-62 30q-14 4 -29 8t-29 9.5t-21.5 12.5t-6.5 18q2 10 11 17t22.5 10.5t26.5 3.5q16 0 33 -6.5t32.5 -17t28.5 -24.5zM123 173l-83 -96q23 -30 53 -51.5t69.5 -34.5t89.5 -13q36 0 72 9.5t67 28t51 47.5t26 67q4 36 -9 64t-38 49.5t-56 35.5
q-17 7 -37 14t-37.5 16.5t-28 23.5t-6.5 36q3 20 16.5 34t33.5 22.5t38 16.5l7 37q-40 -1 -80.5 -10t-74.5 -26t-56 -43.5t-27 -64.5q-6 -38 11.5 -65.5t48 -46t64.5 -29.5q20 -6 39.5 -13t33 -16.5t9.5 -25.5q-1 -11 -10.5 -19t-23.5 -12.5t-28 -4.5q-23 -1 -47 7t-45.5 25
t-41.5 38z" />
    <glyph glyph-name="dieresis" unicode="&#xa8;" horiz-adv-x="495" 
d="M360 632q-4 -34 19 -57.5t59 -23.5q34 -1 63.5 22.5t33.5 56.5q3 35 -20 59.5t-58 24.5q-36 1 -65 -23.5t-32 -58.5zM124 632q-4 -34 18.5 -57.5t58.5 -23.5q35 -1 63.5 22.5t32.5 56.5q3 35 -19 59.5t-57 24.5q-37 1 -65.5 -23.5t-31.5 -58.5z" />
    <glyph glyph-name="copyright" unicode="&#xa9;" horiz-adv-x="776" 
d="M318 350q6 36 27 63.5t52 43.5t66 16q39 0 65 -16t45 -40l15 111q-25 20 -54.5 31t-69.5 11q-65 0 -120.5 -28t-91.5 -78t-44 -113q-8 -62 15 -112.5t70 -79.5t112 -28q40 -1 71.5 11t58.5 30l14 111q-25 -21 -57.5 -38.5t-73.5 -16.5q-35 1 -59.5 17t-35 43.5t-5.5 61.5
zM131 350q9 63 39.5 119.5t77.5 99t105.5 67t123.5 24.5q64 -1 113.5 -26.5t81.5 -69t44.5 -99t3.5 -115.5q-10 -63 -40.5 -119.5t-77.5 -99t-105.5 -67t-123.5 -23.5q-64 0 -113.5 25.5t-81.5 69t-44 99t-3 115.5zM74 350q-9 -73 8.5 -137.5t57 -114.5t99.5 -79t135 -29
q77 0 145 27.5t122 77t89.5 115t45.5 140.5q9 73 -8.5 137.5t-57.5 114.5t-99.5 79t-134.5 29q-77 0 -145 -27.5t-122.5 -77t-89.5 -115t-45 -140.5z" />
    <glyph glyph-name="ordfeminine" unicode="&#xaa;" horiz-adv-x="261" 
d="M155 529q2 15 16.5 24t30.5 9q17 0 28.5 -5t25.5 -14l5 35q-12 10 -31.5 17.5t-42.5 7.5q-39 0 -70.5 -19.5t-36.5 -54.5q-5 -31 16 -52t55 -21q36 0 59.5 19t32.5 49l-3 29q-7 -22 -22.5 -35t-37.5 -13q-12 0 -19 6.5t-6 17.5zM143 625q13 5 34 13t43 6q17 -1 23.5 -10
t7.5 -23l-28 -150l72 -1l28 171q3 38 -24.5 56t-68.5 18q-30 0 -56 -8t-49 -17z" />
    <glyph glyph-name="guillemotleft" unicode="&#xab;" horiz-adv-x="524" 
d="M358 257l179 185l-83 67l-214 -249l133 -260l98 62zM161 257l180 185l-85 67l-213 -249l132 -260l100 62z" />
    <glyph glyph-name="logicalnot" unicode="&#xac;" horiz-adv-x="630" 
d="M83 272h403l-20 -97h107l39 228h-508z" />
    <glyph glyph-name="uni00AD" unicode="&#xad;" horiz-adv-x="203" 
d="M13 201h196l13 74h-197z" />
    <glyph glyph-name="registered" unicode="&#xae;" horiz-adv-x="776" 
d="M400 328l63 -178h115l-89 178h-89zM315 570l-65 -420h101l66 420h-102zM365 484h83q24 -2 40 -14.5t13 -36.5q-4 -25 -26 -38t-48 -15h-79l-12 -78h93q71 1 119.5 37.5t56.5 100.5q8 58 -33 93.5t-109 36.5h-85zM131 350q9 63 39.5 119.5t77.5 99t105.5 67t123.5 24.5
q64 -1 113.5 -26.5t81.5 -69t44.5 -99t3.5 -115.5q-10 -63 -40.5 -119.5t-77.5 -99t-105.5 -67t-123.5 -23.5q-64 0 -113.5 25.5t-81.5 69t-44 99t-3 115.5zM74 350q-9 -73 8.5 -137.5t57 -114.5t99.5 -79t135 -29q77 0 145 27.5t122 77t89.5 115t45.5 140.5
q9 73 -8.5 137.5t-57.5 114.5t-99.5 79t-134.5 29q-77 0 -145 -27.5t-122.5 -77t-89.5 -115t-45 -140.5z" />
    <glyph glyph-name="macron" unicode="&#xaf;" horiz-adv-x="515" 
d="M148 571h363l20 132h-363z" />
    <glyph glyph-name="degree" unicode="&#xb0;" horiz-adv-x="287" 
d="M90 597q-4 -33 8.5 -61t40 -44t62.5 -16q37 -1 69 15t52 43.5t25 61.5q5 35 -8 62.5t-40.5 44.5t-63.5 17t-68 -15.5t-52 -43.5t-25 -64zM163 596q2 16 12.5 30t25.5 22t30 8q23 -1 34.5 -19t8.5 -40q-3 -15 -13 -28t-25 -21.5t-30 -7.5q-23 0 -34.5 17t-8.5 39z" />
    <glyph glyph-name="plusminus" unicode="&#xb1;" horiz-adv-x="614" 
d="M46 6h492l20 130h-492zM96 332h492l21 137h-492zM310 620l-67 -439h151l69 439h-153z" />
    <glyph glyph-name="uni00B2" unicode="&#xb2;" horiz-adv-x="395" 
d="M42 283l350 -1l16 94l-161 1l110 85q26 22 48 50t27 62q6 36 -9.5 67t-47.5 50t-78 20q-52 0 -91 -22.5t-63.5 -59.5t-33.5 -81l101 -1q5 20 15 37t26 28.5t36 10.5q16 -1 26.5 -9t14 -19.5t1.5 -24.5q-4 -28 -25.5 -50t-46.5 -44z" />
    <glyph glyph-name="uni00B3" unicode="&#xb3;" horiz-adv-x="353" 
d="M205 484q44 0 86 11t71 34t36 62q5 35 -11.5 60.5t-47 41t-70.5 15.5q-65 0 -108 -37t-55 -92l95 -1q7 19 22 34t39 15q20 -1 30 -12.5t7 -28.5t-16 -29.5t-32 -19t-39 -8.5zM199 270q44 0 82.5 15t63.5 43.5t31 66.5q5 33 -8 55.5t-37 36t-56 20.5t-67 9l-8 -51
q24 -1 42.5 -7.5t29 -19t6.5 -32.5q-4 -26 -25.5 -40.5t-44.5 -12.5q-28 1 -39.5 17.5t-11.5 43.5h-99q-2 -39 13.5 -71.5t47 -52t80.5 -20.5z" />
    <glyph glyph-name="acute" unicode="&#xb4;" horiz-adv-x="363" 
d="M395 652l-110 54l-168 -157l82 -43z" />
    <glyph glyph-name="mu" unicode="&#xb5;" horiz-adv-x="569" 
d="M265 460h-157l-134 -780h146l56 337q14 -12 29 -16.5t33 -4.5q26 0 52 15.5t44 40.5l-9 -52h151l77 460h-145l-47 -256q-5 -27 -17.5 -44.5t-31 -27.5t-41.5 -10q-23 -1 -36.5 9.5t-17.5 28.5t0 41z" />
    <glyph glyph-name="paragraph" unicode="&#xb6;" horiz-adv-x="651" 
d="M297 271l-83 -491h130l142 828h55l-142 -828h132l158 920h-318q-64 0 -119 -25.5t-92 -73.5t-47 -115q-9 -65 13 -111.5t67 -73t104 -30.5z" />
    <glyph glyph-name="periodcentered" unicode="&#xb7;" horiz-adv-x="312" 
d="M83 270q-4 -25 5.5 -46t29.5 -34t45 -13q26 0 48.5 12t38 33t19.5 46q3 23 -7 44.5t-29 35t-45 13.5t-49 -12.5t-38 -34t-18 -44.5z" />
    <glyph glyph-name="cedilla" unicode="&#xb8;" horiz-adv-x="381" 
d="M160 71l-115 -194q25 7 47.5 11.5t37.5 3.5q12 0 23.5 -3t20.5 -9.5t7 -17.5q-1 -12 -11 -20t-23.5 -12.5t-26.5 -4.5q-18 -1 -37 6.5t-35 17.5l-54 -65q31 -22 64 -32.5t74 -9.5q32 1 62.5 13.5t53 36.5t27.5 59q3 29 -6.5 50.5t-29 34t-42.5 13.5q-8 0 -17 -1t-16 -2
l110 122z" />
    <glyph glyph-name="uni00B9" unicode="&#xb9;" horiz-adv-x="468" 
d="M198 572l106 24l-55 -322h97l74 430l-206 -43z" />
    <glyph glyph-name="ordmasculine" unicode="&#xba;" horiz-adv-x="269" 
d="M89 580q-7 -51 25.5 -85t86.5 -34q38 0 69.5 15.5t52 42t25.5 60.5t-8.5 61t-41 43.5t-64.5 16.5q-36 0 -67 -15.5t-52 -42.5t-26 -62zM165 579q3 15 13 29t24.5 22t29.5 8q20 -1 30.5 -18.5t7.5 -38.5q-2 -15 -12.5 -28.5t-24.5 -21.5t-28 -7q-21 0 -32 17t-8 38z" />
    <glyph glyph-name="guillemotright" unicode="&#xbb;" horiz-adv-x="524" 
d="M200 254l-178 -185l83 -67l212 249l-131 260l-99 -63zM398 254l-179 -185l84 -67l213 249l-131 260l-101 -63z" />
    <glyph glyph-name="onequarter" unicode="&#xbc;" horiz-adv-x="798" 
d="M700 700l-623 -700h101l624 700h-102zM94 572l104 24l-55 -322h98l73 430l-205 -43zM378 76l377 -1l15 86h-108l-12 -13l-180 -1zM489 106l141 159l-28 -162l-11 -6l-16 -97h104l72 420h-77l-300 -347z" />
    <glyph glyph-name="onehalf" unicode="&#xbd;" horiz-adv-x="867" 
d="M700 700l-623 -700h101l624 700h-102zM94 572l104 24l-55 -322h98l73 430l-205 -43zM461 3l350 -1l16 94l-160 1l109 85q27 22 48.5 50t26.5 62q6 36 -9.5 67t-48 50t-77.5 20q-53 0 -92 -22.5t-63 -59.5t-32 -81l100 -1q4 20 14 37t26.5 28.5t36.5 10.5q16 -1 26 -9
t13.5 -19.5t2.5 -24.5q-5 -28 -26.5 -50t-46.5 -44z" />
    <glyph glyph-name="threequarters" unicode="&#xbe;" horiz-adv-x="853" 
d="M762 700l-623 -700h100l624 700h-101zM214 484q44 0 85.5 11t70 34t35.5 62q5 35 -10.5 60.5t-46 41t-70.5 15.5q-66 0 -109 -37t-55 -92l95 -1q6 19 21.5 34t40.5 15q19 -1 28.5 -12.5t6.5 -28.5t-16.5 -29t-31.5 -19t-37 -9zM207 270q45 0 82.5 15t63 43.5t30.5 66.5
q5 33 -7.5 55.5t-37 36t-56 20.5t-65.5 9l-8 -51q23 -1 42 -7.5t28.5 -19t5.5 -32.5q-4 -26 -25 -40.5t-44 -12.5q-27 1 -39.5 17.5t-12.5 43.5h-97q-3 -39 12.5 -71.5t47 -52t80.5 -20.5zM433 76l379 -1l15 86h-110l-12 -13l-179 -1zM544 106l142 159l-28 -162l-11 -6
l-16 -97h105l72 420h-78l-300 -347z" />
    <glyph glyph-name="questiondown" unicode="&#xbf;" horiz-adv-x="608" 
d="M208 200q7 34 34.5 61t69.5 43t92 17h30l9 178h-122l-22 -84q-54 -11 -106.5 -38.5t-88.5 -71t-45 -104.5q-7 -50 7.5 -90.5t45.5 -69t73.5 -44.5t88.5 -16q58 0 108 16.5t93 45.5t81 67l-90 86q-33 -37 -77 -62.5t-93 -23.5q-29 0 -51.5 11t-31.5 31t-5 48zM499 640
q5 34 -20.5 58.5t-61.5 25.5q-25 0 -48 -11.5t-38 -30t-17 -40.5q-5 -33 19 -58t62 -25q25 -1 47.5 10.5t38 30t18.5 40.5z" />
    <glyph glyph-name="Agrave" unicode="&#xc0;" horiz-adv-x="713" 
d="M175 135h361l12 129h-341zM410 442l54 -225l-14 -45l52 -172h185l-230 746l-488 -746h192l114 178v39zM336 956l152 -152l87 41l-120 162z" />
    <glyph glyph-name="Aacute" unicode="&#xc1;" horiz-adv-x="713" 
d="M175 135h361l12 129h-341zM410 442l54 -225l-14 -45l52 -172h185l-230 746l-488 -746h192l114 178v39zM648 951l-108 55l-171 -156l81 -45z" />
    <glyph glyph-name="Acircumflex" unicode="&#xc2;" horiz-adv-x="713" 
d="M175 135h361l12 129h-341zM410 442l54 -225l-14 -45l52 -172h185l-230 746l-488 -746h192l114 178v39zM484 875l72 -86l112 70l-171 142l-213 -137l95 -74z" />
    <glyph glyph-name="Atilde" unicode="&#xc3;" horiz-adv-x="713" 
d="M175 135h361l12 129h-341zM410 442l54 -225l-14 -45l52 -172h185l-230 746l-488 -746h192l114 178v39zM285 865l64 -63q4 9 11 20t17.5 20t26.5 10q25 1 44.5 -12t39 -27t44.5 -14q29 -2 56 11.5t49 33t35 38.5l-61 76q-16 -19 -34 -35t-39 -16q-19 -1 -33.5 6t-27.5 17
t-28 18t-35 9q-31 0 -56 -13t-44 -34.5t-29 -44.5z" />
    <glyph glyph-name="Adieresis" unicode="&#xc4;" horiz-adv-x="713" 
d="M175 135h361l12 129h-341zM410 442l54 -225l-14 -45l52 -172h185l-230 746l-488 -746h192l114 178v39zM522 831q-5 -35 17 -58.5t58 -23.5q34 -1 63.5 22t33.5 58q5 33 -17.5 58t-57.5 26q-36 0 -64.5 -24t-32.5 -58zM243 838q-4 -35 18.5 -59t58.5 -24q34 -1 63.5 22.5
t33.5 57.5q5 34 -17.5 58t-57.5 25q-36 0 -65.5 -23t-33.5 -57z" />
    <glyph glyph-name="Aring" unicode="&#xc5;" horiz-adv-x="713" 
d="M175 135h361l12 129h-341zM410 442l54 -225l-14 -45l52 -172h185l-230 746l-488 -746h192l114 178v39zM343 801q-4 -32 8.5 -58.5t38.5 -41.5t60 -15q35 0 64.5 14.5t50 40.5t24.5 58q5 34 -8 60.5t-39 41.5t-59 15q-35 0 -65.5 -15t-50 -40.5t-24.5 -59.5zM422 799
q1 12 10 23t21 18.5t24 7.5q17 -2 27 -15.5t8 -31.5q-2 -13 -10.5 -23.5t-22 -17t-23.5 -5.5q-17 0 -27 14t-7 30z" />
    <glyph glyph-name="AE" unicode="&#xc6;" horiz-adv-x="1053" 
d="M259 151h301l27 156h-295zM521 700l-537 -700h214l474 658zM585 0h374l25 139h-376zM694 561h362l23 139h-558zM637 300l355 -1l23 138h-355zM624 700l-119 -700h178l121 700h-180z" />
    <glyph glyph-name="Ccedilla" unicode="&#xc7;" horiz-adv-x="679" 
d="M247 350q7 45 29 82t55 64.5t73.5 42.5t84.5 16q43 0 76.5 -12t60 -33t47.5 -48l28 184q-42 33 -90 51.5t-114 18.5q-84 0 -156.5 -27.5t-131 -76.5t-95.5 -115.5t-49 -146.5q-12 -77 5 -143.5t60 -115.5t106.5 -77.5t145.5 -28.5q68 0 121 19t100 50l27 183
q-30 -24 -63 -45.5t-72.5 -34t-85.5 -11.5q-43 0 -76.5 16t-55 44.5t-30 64.5t-0.5 79zM326 47l-115 -193q23 8 47 12.5t39 3.5q11 0 23 -3.5t20 -10t6 -17.5q-1 -12 -11 -20t-23.5 -12.5t-26.5 -5.5q-17 0 -36.5 8t-37.5 18l-53 -67q34 -20 66.5 -30.5t72.5 -9.5
q33 1 63.5 13.5t52.5 36.5t27 59q4 27 -6.5 49t-29.5 34t-41 13q-8 0 -17 -0.5t-16 -1.5l109 121z" />
    <glyph glyph-name="Egrave" unicode="&#xc8;" horiz-adv-x="584" 
d="M153 0h345l23 139h-344zM249 561h345l24 139h-345zM204 300l326 -1l23 138h-326zM164 700l-120 -700h160l120 700h-160zM274 934l152 -152l86 41l-120 163z" />
    <glyph glyph-name="Eacute" unicode="&#xc9;" horiz-adv-x="584" 
d="M153 0h345l23 139h-344zM249 561h345l24 139h-345zM204 300l326 -1l23 138h-326zM164 700l-120 -700h160l120 700h-160zM585 930l-109 55l-170 -156l82 -46z" />
    <glyph glyph-name="Ecircumflex" unicode="&#xca;" horiz-adv-x="584" 
d="M153 0h345l23 139h-344zM249 561h345l24 139h-345zM204 300l326 -1l23 138h-326zM164 700l-120 -700h160l120 700h-160zM434 882l88 -94l54 41l-135 142l-179 -138l47 -45z" />
    <glyph glyph-name="Edieresis" unicode="&#xcb;" horiz-adv-x="584" 
d="M153 0h345l23 139h-344zM249 561h345l24 139h-345zM204 300l326 -1l23 138h-326zM164 700l-120 -700h160l120 700h-160zM453 868q-5 -35 17.5 -58.5t58.5 -23.5q35 -1 64.5 22t34.5 57q4 34 -18.5 58t-58.5 25q-36 0 -65 -23.5t-33 -56.5zM217 868q-5 -35 17.5 -58.5
t58.5 -23.5q34 -1 63.5 22t34.5 57q4 34 -19 58t-58 25q-35 0 -63.5 -23.5t-33.5 -56.5z" />
    <glyph glyph-name="Igrave" unicode="&#xcc;" horiz-adv-x="310" 
d="M164 700l-120 -700h169l120 700h-169zM125 934l152 -152l86 41l-121 163z" />
    <glyph glyph-name="Iacute" unicode="&#xcd;" horiz-adv-x="310" 
d="M164 700l-120 -700h169l120 700h-169zM436 930l-107 55l-171 -156l80 -46z" />
    <glyph glyph-name="Icircumflex" unicode="&#xce;" horiz-adv-x="310" 
d="M164 700l-120 -700h169l120 700h-169zM281 872l79 -90l82 56l-154 142l-198 -138l76 -60z" />
    <glyph glyph-name="Idieresis" unicode="&#xcf;" horiz-adv-x="310" 
d="M164 700l-120 -700h169l120 700h-169zM307 860q-4 -35 17.5 -59t57.5 -24q35 -1 64 23t33 57q4 35 -18 58.5t-57 24.5q-35 0 -64 -23t-33 -57zM70 860q-5 -35 17.5 -59t58.5 -24q34 -1 63.5 23t33.5 57q4 35 -18.5 58.5t-57.5 24.5q-36 0 -64.5 -23t-32.5 -57z" />
    <glyph glyph-name="Eth" unicode="&#xd0;" horiz-adv-x="710" 
d="M29 302h343l17 100h-343zM164 700l-120 -700h172l121 700h-173zM293 0q111 1 199.5 44.5t146 122t74.5 183.5q14 102 -20 181t-108.5 123.5t-182.5 45.5h-129l-27 -150l135 -1q42 -1 75 -14.5t54.5 -38.5t29 -62t1.5 -84q-9 -49 -30.5 -86t-54 -62.5t-71.5 -37.5t-82 -13
h-125l-26 -151h141z" />
    <glyph glyph-name="Ntilde" unicode="&#xd1;" horiz-adv-x="770" 
d="M633 700l-70 -393l-394 426l-125 -733h160l69 393l395 -426l126 733h-161zM280 835l64 -63q4 9 11 20t17 20t27 10q24 1 43.5 -11.5t39.5 -26.5t45 -14q29 -2 56 11t48.5 32.5t35.5 38.5l-60 78q-16 -20 -35 -36t-41 -17q-18 -1 -32 6.5t-27 17.5t-27.5 18.5t-35.5 9.5
q-32 0 -56.5 -13.5t-43 -35.5t-29.5 -45z" />
    <glyph glyph-name="Ograve" unicode="&#xd2;" horiz-adv-x="796" 
d="M240 350q7 44 27.5 81.5t51.5 66.5t70 46t85 17q44 -1 76 -18.5t50 -47.5t23.5 -67.5t-1.5 -77.5q-8 -43 -28.5 -81t-50.5 -67.5t-68.5 -46t-83.5 -15.5q-45 0 -76.5 18t-50 47.5t-24.5 67.5t0 77zM65 350q-11 -75 5 -142t57 -119t103.5 -81.5t143.5 -29.5t152.5 28
t129.5 79.5t95 119t49 145.5q11 74 -7 141t-59 118t-103.5 79t-141.5 28q-80 0 -152 -27.5t-129 -77t-94 -117t-49 -144.5zM387 934l152 -152l87 41l-121 163z" />
    <glyph glyph-name="Oacute" unicode="&#xd3;" horiz-adv-x="796" 
d="M240 350q7 44 27.5 81.5t51.5 66.5t70 46t85 17q44 -1 76 -18.5t50 -47.5t23.5 -67.5t-1.5 -77.5q-8 -43 -28.5 -81t-50.5 -67.5t-68.5 -46t-83.5 -15.5q-45 0 -76.5 18t-50 47.5t-24.5 67.5t0 77zM65 350q-11 -75 5 -142t57 -119t103.5 -81.5t143.5 -29.5t152.5 28
t129.5 79.5t95 119t49 145.5q11 74 -7 141t-59 118t-103.5 79t-141.5 28q-80 0 -152 -27.5t-129 -77t-94 -117t-49 -144.5zM691 930l-108 55l-171 -156l81 -46z" />
    <glyph glyph-name="Ocircumflex" unicode="&#xd4;" horiz-adv-x="796" 
d="M240 350q7 44 27.5 81.5t51.5 66.5t70 46t85 17q44 -1 76 -18.5t50 -47.5t23.5 -67.5t-1.5 -77.5q-8 -43 -28.5 -81t-50.5 -67.5t-68.5 -46t-83.5 -15.5q-45 0 -76.5 18t-50 47.5t-24.5 67.5t0 77zM65 350q-11 -75 5 -142t57 -119t103.5 -81.5t143.5 -29.5t152.5 28
t129.5 79.5t95 119t49 145.5q11 74 -7 141t-59 118t-103.5 79t-140.5 28q-81 0 -152.5 -27.5t-129 -77t-94.5 -117t-49 -144.5zM530 882l89 -94l55 41l-137 142l-179 -138l48 -45z" />
    <glyph glyph-name="Otilde" unicode="&#xd5;" horiz-adv-x="796" 
d="M240 350q7 44 27.5 81.5t51.5 66.5t70 46t85 17q44 -1 76 -18.5t50 -47.5t23.5 -67.5t-1.5 -77.5q-8 -43 -28.5 -81t-50.5 -67.5t-68.5 -46t-83.5 -15.5q-45 0 -76.5 18t-50 47.5t-24.5 67.5t0 77zM65 350q-11 -75 5 -142t57 -119t103.5 -81.5t143.5 -29.5t152.5 28
t129.5 79.5t95 119t49 145.5q11 74 -7 141t-59 118t-103.5 79t-140.5 28q-81 0 -152.5 -27.5t-129 -77t-94.5 -117t-49 -144.5zM370 838l49 -39q4 9 11 20.5t18.5 20t30.5 9.5q20 0 36.5 -10.5t32.5 -23.5t40 -13q24 -1 46 10t39 27.5t29 33.5l-43 48q-15 -19 -31 -33
t-33 -15q-19 -1 -31 6t-23.5 16t-25.5 16.5t-33 8.5q-19 0 -45.5 -11.5t-46.5 -30t-20 -40.5z" />
    <glyph glyph-name="Odieresis" unicode="&#xd6;" horiz-adv-x="796" 
d="M240 350q7 44 27.5 81.5t51.5 66.5t70 46t85 17q44 -1 76 -18.5t50 -47.5t23.5 -67.5t-1.5 -77.5q-8 -43 -28.5 -81t-50.5 -67.5t-68.5 -46t-83.5 -15.5q-45 0 -76.5 18t-50 47.5t-24.5 67.5t0 77zM65 350q-11 -75 5 -142t57 -119t103.5 -81.5t143.5 -29.5t152.5 28
t129.5 79.5t95 119t49 145.5q11 74 -7 141t-59 118t-103.5 79t-141.5 28q-80 0 -152 -27.5t-129 -77t-94 -117t-49 -144.5zM550 860q-5 -35 17 -59t58 -24q35 -1 64.5 23t34.5 57q3 35 -19.5 58.5t-57.5 24.5q-36 0 -64.5 -23t-32.5 -57zM314 860q-4 -35 18 -59t58 -24
q34 -1 63 23t33 57q4 35 -18.5 58.5t-56.5 24.5q-36 0 -64.5 -23t-32.5 -57z" />
    <glyph glyph-name="multiply" unicode="&#xd7;" horiz-adv-x="578" 
d="M112 3l182 161l126 -162l103 92l-131 158l185 156l-77 100l-183 -162l-125 162l-103 -91l131 -159l-185 -156z" />
    <glyph glyph-name="Oslash" unicode="&#xd8;" horiz-adv-x="766" 
d="M240 350q7 44 27.5 82.5t51.5 67.5t70 45t84 16q45 -1 76 -18t49 -46.5t24.5 -67.5t-0.5 -79q-8 -45 -28.5 -83t-50.5 -67t-68.5 -45t-83.5 -15q-45 0 -76.5 17t-50 46.5t-24.5 67t0 79.5zM65 350q-11 -75 6 -142t57.5 -119t103 -81.5t142.5 -29.5t152 28t129 79.5
t95 119t50 145.5q11 74 -7 141t-59 117.5t-103.5 79t-140.5 28.5q-81 0 -153.5 -27t-129 -77t-93.5 -117t-49 -145zM775 756l-756 -759l63 -52l758 756z" />
    <glyph glyph-name="Ugrave" unicode="&#xd9;" horiz-adv-x="680" 
d="M159 700l-79 -470q-9 -60 4.5 -108t45.5 -82t78 -51.5t105 -17.5q60 0 113 17.5t94.5 51.5t69.5 81.5t38 108.5l80 470h-167l-79 -457q-7 -33 -24 -60.5t-44 -43.5t-64 -15q-36 0 -55.5 16.5t-26.5 43.5t-2 58l79 458h-166zM315 928l152 -152l87 41l-120 163z" />
    <glyph glyph-name="Uacute" unicode="&#xda;" horiz-adv-x="680" 
d="M159 700l-79 -470q-9 -60 4.5 -108t45.5 -82t78 -51.5t105 -17.5q60 0 113 17.5t94.5 51.5t69.5 81.5t38 108.5l80 470h-167l-79 -457q-7 -33 -24 -60.5t-44 -43.5t-64 -15q-36 0 -55.5 16.5t-26.5 43.5t-2 58l79 458h-166zM629 923l-108 56l-171 -156l81 -46z" />
    <glyph glyph-name="Ucircumflex" unicode="&#xdb;" horiz-adv-x="680" 
d="M159 700l-79 -470q-9 -60 4.5 -108t45.5 -82t78 -51.5t105 -17.5q60 0 113 17.5t94.5 51.5t69.5 81.5t38 108.5l80 470h-167l-79 -457q-7 -34 -24.5 -61t-44 -43t-62.5 -15q-37 0 -56.5 16.5t-26.5 43t-2 58.5l79 458h-166zM464 861l73 -85l113 70l-171 143l-213 -137
l95 -76z" />
    <glyph glyph-name="Udieresis" unicode="&#xdc;" horiz-adv-x="680" 
d="M159 700l-79 -470q-9 -60 4.5 -108t45.5 -82t78 -51.5t105 -17.5q60 0 113 17.5t94.5 51.5t69.5 81.5t38 108.5l80 470h-167l-79 -457q-7 -34 -24.5 -61t-44 -43t-62.5 -15q-37 0 -56.5 16.5t-26.5 43t-2 58.5l79 458h-166zM510 860q-5 -35 17 -59t58 -24q35 -1 64 23
t33 57q5 35 -17.5 58.5t-57.5 24.5q-35 0 -63.5 -23t-33.5 -57zM237 860q-5 -35 17.5 -59t57.5 -24q35 -1 64 23t34 57q4 35 -18.5 58.5t-57.5 24.5q-35 0 -64 -23t-33 -57z" />
    <glyph glyph-name="Yacute" unicode="&#xdd;" horiz-adv-x="640" 
d="M609 923l-108 56l-171 -156l82 -46zM543 700l-177 -260l-86 260h-187l166 -411l-51 -289h172l47 281l313 419h-197z" />
    <glyph glyph-name="Thorn" unicode="&#xde;" horiz-adv-x="593" 
d="M169 700l-119 -700h146l120 700h-147zM216 446h139q34 -2 58 -11.5t34 -29t5 -51.5q-6 -33 -25 -53.5t-48 -29.5t-65 -10h-128l-24 -133h139q81 1 145 27t104 75.5t51 122.5q10 71 -15.5 121t-82 77t-134.5 28h-129z" />
    <glyph glyph-name="germandbls" unicode="&#xdf;" horiz-adv-x="604" 
d="M385 -12q44 0 83 16t69 44t47 65t17 80q0 36 -9.5 61t-23.5 41.5t-30 28t-30.5 22t-23.5 22.5t-9 27q0 17 13.5 33t33.5 34t39.5 39.5t33 50.5t13.5 69q0 54 -28.5 92.5t-76.5 61t-109 22.5q-87 0 -145 -30t-90 -85.5t-44 -129.5l-94 -554h154l92 551q5 38 19.5 63
t37 37.5t55.5 12.5q20 0 36.5 -7.5t26 -23t9.5 -40.5q0 -28 -13.5 -50t-34 -40t-41.5 -35.5t-34.5 -37t-13.5 -46.5q0 -20 9.5 -36.5t24.5 -29.5t30.5 -25t30.5 -25.5t25 -31.5t10 -42q0 -23 -11.5 -42t-30 -29t-44.5 -10q-17 0 -34 4t-33 11.5t-31 18.5l-30 -118
q16 -11 42.5 -20t56.5 -14t56 -5z" />
    <glyph glyph-name="agrave" unicode="&#xe0;" horiz-adv-x="528" 
d="M168 138q3 18 17 31.5t33.5 20.5t42.5 7q33 1 59.5 -9t49.5 -28l10 70q-16 13 -38.5 24t-50 17.5t-58.5 6.5q-53 0 -100 -17.5t-77.5 -51t-37.5 -80.5q-6 -44 10.5 -75t51.5 -47.5t81 -15.5q47 0 85 17t64.5 48t36.5 73l-7 57q-9 -31 -26 -53t-40.5 -33.5t-53.5 -9.5
q-17 0 -29.5 5.5t-18.5 16t-4 26.5zM143 318q18 8 41.5 17.5t52 16.5t58.5 5q22 0 36.5 -8t21.5 -21.5t6 -32.5l-53 -295h145l55 325q6 49 -19 81.5t-70.5 49.5t-98.5 17q-59 0 -112 -16t-98 -35zM192 685l152 -152l85 41l-120 163z" />
    <glyph glyph-name="aacute" unicode="&#xe1;" horiz-adv-x="528" 
d="M168 138q3 18 17 31.5t33.5 20.5t42.5 7q33 1 59.5 -9t49.5 -28l10 70q-16 13 -38.5 24t-50 17.5t-58.5 6.5q-53 0 -100 -17.5t-77.5 -51t-37.5 -80.5q-6 -44 10.5 -75t51.5 -47.5t81 -15.5q47 0 85 17t64.5 48t36.5 73l-7 57q-9 -31 -26 -53t-40.5 -33.5t-53.5 -9.5
q-17 0 -29.5 5.5t-18.5 16t-4 26.5zM143 318q18 8 41.5 17.5t52 16.5t58.5 5q22 0 36.5 -8t21.5 -21.5t6 -32.5l-53 -295h145l55 325q6 49 -19 81.5t-70.5 49.5t-98.5 17q-59 0 -112 -16t-98 -35zM526 681l-108 55l-171 -156l82 -46z" />
    <glyph glyph-name="acircumflex" unicode="&#xe2;" horiz-adv-x="528" 
d="M168 138q3 18 17 31.5t33.5 20.5t42.5 7q33 1 59.5 -9t49.5 -28l10 70q-16 13 -38.5 24t-50 17.5t-58.5 6.5q-53 0 -100 -17.5t-77.5 -51t-37.5 -80.5q-6 -44 10.5 -75t51.5 -47.5t81 -15.5q47 0 85 17t64.5 48t36.5 73l-7 57q-9 -31 -26 -53t-40.5 -33.5t-53.5 -9.5
q-17 0 -29.5 5.5t-18.5 16t-4 26.5zM143 318q18 8 41.5 17.5t52 16.5t58.5 5q22 0 36.5 -8t21.5 -21.5t6 -32.5l-53 -295h145l55 325q6 49 -19 81.5t-70.5 49.5t-98.5 17q-59 0 -112 -16t-98 -35zM350 619l73 -86l114 69l-172 142l-212 -136l94 -74z" />
    <glyph glyph-name="atilde" unicode="&#xe3;" horiz-adv-x="528" 
d="M168 138q3 18 17 31.5t33.5 20.5t42.5 7q33 1 59.5 -9t49.5 -28l10 70q-16 13 -38.5 24t-50 17.5t-58.5 6.5q-53 0 -100 -17.5t-77.5 -51t-37.5 -80.5q-6 -44 10.5 -75t51.5 -47.5t81 -15.5q47 0 85 17t64.5 48t36.5 73l-7 57q-9 -31 -26 -53t-40.5 -33.5t-53.5 -9.5
q-17 0 -29.5 5.5t-18.5 16t-4 26.5zM143 318q18 8 41.5 17.5t52 16.5t58.5 5q22 0 36.5 -8t21.5 -21.5t6 -32.5l-53 -295h145l55 325q6 49 -19 81.5t-70.5 49.5t-98.5 17q-59 0 -112 -16t-98 -35zM152 601l64 -63q4 9 10 20t16.5 20t28.5 10q23 1 42.5 -11.5t39.5 -26
t44 -14.5q29 -2 57 11.5t49.5 32.5t34.5 38l-60 76q-17 -20 -34.5 -36t-38.5 -16q-20 -1 -34 6.5t-27 17.5t-28 18t-35 9q-32 0 -56.5 -13t-43.5 -34t-29 -45z" />
    <glyph glyph-name="adieresis" unicode="&#xe4;" horiz-adv-x="528" 
d="M168 138q3 18 17 31.5t33.5 20.5t42.5 7q33 1 59.5 -9t49.5 -28l10 70q-16 13 -38.5 24t-50 17.5t-58.5 6.5q-53 0 -100 -17.5t-77.5 -51t-37.5 -80.5q-6 -44 10.5 -75t51.5 -47.5t81 -15.5q47 0 85 17t64.5 48t36.5 73l-7 57q-9 -31 -26 -53t-40.5 -33.5t-53.5 -9.5
q-17 0 -29.5 5.5t-18.5 16t-4 26.5zM143 318q18 8 41.5 17.5t52 16.5t58.5 5q22 0 36.5 -8t21.5 -21.5t6 -32.5l-53 -295h145l55 325q6 49 -19 81.5t-70.5 49.5t-98.5 17q-59 0 -112 -16t-98 -35zM378 617q-4 -35 18 -58.5t58 -24.5q35 -1 63 22.5t33 57.5q4 34 -18 58
t-57 25q-35 0 -64 -23.5t-33 -56.5zM142 617q-5 -35 17 -58.5t57 -24.5q36 -1 64.5 22.5t32.5 57.5q5 34 -17 58t-58 25q-35 0 -64 -23.5t-32 -56.5z" />
    <glyph glyph-name="aring" unicode="&#xe5;" horiz-adv-x="528" 
d="M168 138q3 18 17 31.5t33.5 20.5t42.5 7q33 1 59.5 -9t49.5 -28l10 70q-16 13 -38.5 24t-50 17.5t-58.5 6.5q-53 0 -100 -17.5t-77.5 -51t-37.5 -80.5q-6 -44 10.5 -75t51.5 -47.5t81 -15.5q47 0 85 17t64.5 48t36.5 73l-7 57q-9 -31 -26 -53t-40.5 -33.5t-53.5 -9.5
q-17 0 -29.5 5.5t-18.5 16t-4 26.5zM143 318q18 8 41.5 17.5t52 16.5t58.5 5q22 0 36.5 -8t21.5 -21.5t6 -32.5l-53 -295h145l55 325q6 49 -19 81.5t-70.5 49.5t-98.5 17q-59 0 -112 -16t-98 -35zM229 650q-4 -32 8 -59t38.5 -42t61.5 -15q34 0 63.5 14.5t49 41t24.5 58.5
q4 34 -8.5 59.5t-38 41t-59.5 15.5t-64.5 -15t-50.5 -40t-24 -59zM307 649q2 11 10.5 23t21 18.5t24.5 6.5q17 -1 25.5 -15t7.5 -32q-2 -13 -10.5 -24t-20.5 -17.5t-23 -5.5q-18 0 -27.5 14t-7.5 32z" />
    <glyph glyph-name="ae" unicode="&#xe6;" horiz-adv-x="886" 
d="M188 -10q84 0 140.5 28.5t82.5 83.5h-15q17 -57 63.5 -84.5t125.5 -27.5q83 0 150 34t112 102l-133 33q-18 -28 -50 -44t-70 -16q-33 0 -53 14t-26.5 41t-3.5 62l-21 -18h367q2 8 5.5 22.5t4.5 30.5q8 70 -12.5 119t-65 74.5t-112.5 25.5q-50 0 -93.5 -14t-77.5 -40
t-59 -62l17 6q3 57 -33.5 85t-109.5 28q-51 0 -104.5 -13t-111.5 -39l38 -103q20 11 46.5 20t54.5 14.5t50 5.5q37 0 54.5 -18t12.5 -54l-10 -61h70q-61 31 -102.5 42t-86.5 11q-59 0 -106.5 -19t-76.5 -54t-33 -79q-7 -62 37 -99t135 -37zM231 89q-34 0 -48.5 11t-13.5 36
q2 19 12.5 33t31 21t46.5 7q28 0 54.5 -7.5t50.5 -21.5l-19 27l-1 -61l6 53q-12 -49 -42 -73.5t-77 -24.5zM513 236q9 43 25.5 72.5t41.5 45t57 15.5q29 0 46.5 -12t23 -35.5t3.5 -55.5q-1 -5 -1 -7t-3 -9l26 32h-233z" />
    <glyph glyph-name="ccedilla" unicode="&#xe7;" horiz-adv-x="478" 
d="M194 230q6 33 27 60t51.5 43t64.5 16q25 0 47.5 -8t40.5 -23t30 -36l22 148q-27 18 -61.5 29t-78.5 11q-76 0 -139.5 -30.5t-105.5 -84.5t-52 -124t16 -124t80 -85.5t128 -31.5q45 0 82 11.5t67 30.5l21 146q-19 -20 -41.5 -35t-49 -23t-56.5 -7q-33 0 -55.5 15t-32.5 42
t-5 60zM210 60l-114 -193q23 9 47 12.5t38 2.5q11 0 23 -3t20 -9.5t7 -17.5q-1 -12 -11.5 -20t-24 -12.5t-26.5 -4.5q-17 0 -35.5 7t-35.5 17l-53 -66q32 -21 64.5 -31t73.5 -10q30 1 61.5 14t53.5 36.5t27 57.5q3 28 -6.5 50t-28.5 34t-41 14q-10 0 -18.5 -1t-15.5 -2
l108 121z" />
    <glyph glyph-name="egrave" unicode="&#xe8;" horiz-adv-x="556" 
d="M121 199h411q3 10 4 20t2 18q9 69 -12 121t-70 82t-125 30q-70 0 -125.5 -24.5t-95 -67t-57.5 -99.5q-4 -12 -6.5 -24t-4.5 -25q-9 -68 14 -122t75 -86t131 -32q60 0 107 17t84.5 47.5t66.5 69.5l-131 35q-14 -17 -33 -31t-41 -21.5t-47 -6.5q-32 2 -51 18.5t-24.5 45.5
t-0.5 66l7 25q6 30 22.5 56.5t41.5 42.5t57 15q25 -1 39.5 -13.5t20 -30.5t5.5 -42l-251 -1zM213 687l152 -152l87 40l-121 163z" />
    <glyph glyph-name="eacute" unicode="&#xe9;" horiz-adv-x="556" 
d="M121 199h411q3 10 4 20t2 18q9 69 -12 121t-70 82t-125 30q-70 0 -125.5 -24.5t-95 -67t-57.5 -99.5q-4 -12 -6.5 -24t-4.5 -25q-9 -68 14 -122t75 -86t131 -32q60 0 107 17t84.5 47.5t66.5 69.5l-131 35q-14 -17 -33 -31t-41 -21.5t-47 -6.5q-32 2 -51 18.5t-24.5 45.5
t-0.5 66l7 25q6 30 22.5 56.5t41.5 42.5t57 15q25 -1 39.5 -13.5t20 -30.5t5.5 -42l-251 -1zM542 682l-110 55l-169 -156l81 -45z" />
    <glyph glyph-name="ecircumflex" unicode="&#xea;" horiz-adv-x="556" 
d="M121 199h411q3 10 4 20t2 18q9 69 -12 121t-70 82t-125 30q-70 0 -125.5 -24.5t-95 -67t-57.5 -99.5q-4 -12 -6.5 -24t-4.5 -25q-9 -68 14 -122t75 -86t131 -32q60 0 107 17t84.5 47.5t66.5 69.5l-131 35q-14 -17 -33 -31t-41 -21.5t-47 -6.5q-32 2 -51 18.5t-24.5 45.5
t-0.5 66l7 25q6 30 22.5 56.5t41.5 42.5t57 15q25 -1 39.5 -13.5t20 -30.5t5.5 -42l-251 -1zM364 616l73 -85l113 68l-172 143l-211 -137l95 -74z" />
    <glyph glyph-name="edieresis" unicode="&#xeb;" horiz-adv-x="556" 
d="M121 199h411q3 10 4 20t2 18q9 69 -12 121t-70 82t-125 30q-70 0 -125.5 -24.5t-95 -67t-57.5 -99.5q-4 -12 -6.5 -24t-4.5 -25q-9 -68 14 -122t75 -86t131 -32q60 0 107 17t84.5 47.5t66.5 69.5l-131 35q-14 -17 -33 -31t-41 -21.5t-47 -6.5q-32 2 -51 18.5t-24.5 45.5
t-0.5 66l7 25q6 30 22.5 56.5t41.5 42.5t57 15q25 -1 39.5 -13.5t20 -30.5t5.5 -42l-251 -1zM392 613q-5 -35 17.5 -58t58.5 -23q34 -1 63 22t33 57t-18 58.5t-57 25.5q-35 0 -64 -24t-33 -58zM155 613q-4 -35 18 -58t58 -23q34 -1 63 22t33 57q5 34 -17 58.5t-58 25.5
q-35 0 -64 -24t-33 -58z" />
    <glyph glyph-name="igrave" unicode="&#xec;" horiz-adv-x="268" 
d="M113 460l-78 -460h144l79 460h-145zM50 690l152 -152l86 41l-121 163z" />
    <glyph glyph-name="iacute" unicode="&#xed;" horiz-adv-x="268" 
d="M113 460l-78 -460h144l79 460h-145zM393 685l-109 55l-170 -156l82 -45z" />
    <glyph glyph-name="icircumflex" unicode="&#xee;" horiz-adv-x="268" 
d="M113 460l-78 -460h144l79 460h-145zM216 619l74 -85l112 70l-171 142l-213 -136l95 -75z" />
    <glyph glyph-name="idieresis" unicode="&#xef;" horiz-adv-x="268" 
d="M113 460l-78 -460h144l79 460h-145zM245 625q-4 -35 18 -58.5t58 -23.5q35 -1 64 22t33 58q5 34 -17.5 58t-57.5 25q-36 0 -65 -23.5t-33 -57.5zM8 625q-4 -35 18 -58.5t58 -23.5q35 -1 63.5 22t33.5 58q4 34 -18 58t-57 25q-36 0 -64.5 -23.5t-33.5 -57.5z" />
    <glyph glyph-name="eth" unicode="&#xf0;" horiz-adv-x="626" 
d="M294 -15q67 0 123 23.5t96 64.5t62.5 93.5t22.5 113.5q0 47 -10 93t-32 92t-55.5 93t-81.5 97t-110 106l-112 -75q51 -38 92 -75.5t73.5 -78t57.5 -86t45 -101.5l41 -1q-45 65 -94 97.5t-111 32.5q-50 0 -95 -20t-79.5 -55t-54 -81.5t-19.5 -101.5q0 -70 31.5 -122.5
t86 -80.5t123.5 -28zM306 119q-28 0 -49 13.5t-32.5 35.5t-11.5 49t10.5 50.5t28.5 42t41 29t49 10.5q27 0 48 -12.5t32.5 -35.5t11.5 -52q0 -25 -9.5 -47.5t-27 -41.5t-40.5 -30t-51 -11zM213 507l350 112l-17 55l-348 -112z" />
    <glyph glyph-name="ntilde" unicode="&#xf1;" 
d="M258 460h-151l-79 -460h151zM368 280l-49 -280h156l50 296q6 51 -5.5 90.5t-43.5 62.5t-87 22q-57 0 -97 -28t-63 -72t-32 -95l30 5q6 23 18.5 42t31.5 30.5t45 9.5q23 -1 34 -12.5t13 -30.5t-1 -40zM163 598l63 -63q4 9 10.5 20t17 20t27.5 10q24 1 43.5 -11.5t40 -26.5
t44.5 -14q29 -2 56 12t49 33t35 38l-61 76q-16 -20 -33.5 -35.5t-39.5 -15.5q-20 -1 -33.5 6t-27 17t-28.5 18t-35 9q-31 0 -56 -13t-43 -35t-29 -45z" />
    <glyph glyph-name="ograve" unicode="&#xf2;" horiz-adv-x="571" 
d="M42 231q-10 -69 16 -123.5t79.5 -86t124.5 -31.5q75 0 137 31t104 85t53 124q9 69 -17 122.5t-78.5 86t-125.5 32.5t-136 -31t-105 -85t-52 -124zM195 230q6 33 24 58.5t45 41.5t59 16q30 -1 49 -17.5t26.5 -42.5t3.5 -54q-6 -33 -24.5 -59.5t-45 -42t-58.5 -14.5
q-29 0 -48.5 16.5t-27.5 42.5t-3 55zM222 690l152 -152l86 41l-121 163z" />
    <glyph glyph-name="oacute" unicode="&#xf3;" horiz-adv-x="571" 
d="M42 231q-10 -69 16 -123.5t79.5 -86t124.5 -31.5q75 0 137 31t104 85t53 124q9 69 -17 122.5t-78.5 86t-125.5 32.5t-136 -31t-105 -85t-52 -124zM195 230q6 33 24 58.5t45 41.5t59 16q30 -1 49 -17.5t26.5 -42.5t3.5 -54q-6 -33 -24.5 -59.5t-45 -42t-58.5 -14.5
q-29 0 -48.5 16.5t-27.5 42.5t-3 55zM533 685l-109 55l-170 -156l82 -45z" />
    <glyph glyph-name="ocircumflex" unicode="&#xf4;" horiz-adv-x="571" 
d="M42 231q-10 -69 16 -123.5t79.5 -86t124.5 -31.5q75 0 137 31t104 85t53 124q9 69 -17 122.5t-78.5 86t-125.5 32.5t-136 -31t-105 -85t-52 -124zM195 230q6 33 24 58.5t45 41.5t59 16q30 -1 49 -17.5t26.5 -42.5t3.5 -54q-6 -33 -24.5 -59.5t-45 -42t-58.5 -14.5
q-29 0 -48.5 16.5t-27.5 42.5t-3 55zM369 623l74 -85l112 69l-172 142l-212 -136l96 -75z" />
    <glyph glyph-name="otilde" unicode="&#xf5;" horiz-adv-x="571" 
d="M42 231q-10 -69 16 -123.5t79.5 -86t124.5 -31.5q75 0 137 31t104 85t53 124q9 69 -17 123t-78.5 86t-126.5 32q-73 0 -135.5 -31t-104.5 -85t-52 -124zM195 230q6 33 24 59t45.5 41.5t57.5 15.5q31 -1 50 -17t26.5 -42t3.5 -56q-6 -32 -24.5 -58.5t-45 -42t-58.5 -14.5
q-28 0 -48 16.5t-28 42t-3 55.5zM170 598l62 -63q4 9 11.5 20t17.5 20t27 10q24 1 43.5 -11.5t39.5 -26.5t45 -14q29 -2 56.5 12t48.5 33t35 38l-60 76q-16 -20 -34 -35.5t-40 -15.5q-19 -1 -33.5 6t-28 17t-27.5 18t-35 9q-26 0 -55.5 -13t-51 -34.5t-21.5 -45.5z" />
    <glyph glyph-name="odieresis" unicode="&#xf6;" horiz-adv-x="571" 
d="M42 231q-10 -69 16 -123.5t79.5 -86t124.5 -31.5q75 0 137 31t104 85t53 124q9 69 -17 122.5t-78.5 86t-125.5 32.5t-136 -31t-105 -85t-52 -124zM195 230q6 33 24 58.5t45 41.5t59 16q30 -1 49 -17.5t26.5 -42.5t3.5 -54q-6 -33 -24.5 -59.5t-45 -42t-58.5 -14.5
q-29 0 -48.5 16.5t-27.5 42.5t-3 55zM398 625q-4 -35 18 -58.5t58 -23.5q34 -1 63 22.5t34 57.5q4 34 -18.5 58t-57.5 25q-35 0 -64 -23.5t-33 -57.5zM161 625q-5 -35 17 -58.5t58 -23.5q34 -1 63.5 22.5t34.5 57.5q4 34 -18.5 58t-58.5 25q-35 0 -63.5 -23.5t-32.5 -57.5z
" />
    <glyph glyph-name="divide" unicode="&#xf7;" horiz-adv-x="620" 
d="M284 554q-3 -24 6 -44.5t28.5 -34t46.5 -13.5q25 0 48 12.5t38.5 33t18.5 44.5q3 25 -7 46t-29 34.5t-45 13.5t-49 -13t-38 -33.5t-18 -45.5zM207 100q-3 -25 6 -46t28.5 -34t45.5 -13t48.5 12t38 33t19.5 46q3 23 -7 44.5t-29 35t-45 13.5t-49 -12.5t-38 -34t-18 -44.5z
M41 260l572 -1l23 137h-572z" />
    <glyph glyph-name="oslash" unicode="&#xf8;" horiz-adv-x="529" 
d="M42 231q-10 -73 16.5 -126t79.5 -84t124 -31q73 0 135.5 30.5t105 83t53.5 126.5q9 71 -17.5 125t-79.5 84.5t-125 30.5q-73 0 -135 -30t-104.5 -84t-52.5 -125zM183 230q5 33 26 60t51.5 44.5t62.5 17.5q33 -1 55 -19t31 -44.5t4 -57.5q-5 -35 -25.5 -63t-50.5 -43.5
t-64 -14.5q-31 0 -54 16t-32.5 43.5t-3.5 60.5zM499 506l-465 -522l53 -32l466 520z" />
    <glyph glyph-name="ugrave" unicode="&#xf9;" 
d="M325 0h150l79 460h-149zM215 180l50 280h-157l-51 -295q-6 -52 5 -91.5t43 -62t88 -22.5q57 1 96.5 28.5t64 72.5t33.5 95l-30 -5q-6 -23 -19.5 -42t-33 -31t-43.5 -10q-23 1 -33.5 13.5t-12.5 30t0 39.5zM229 690l152 -152l86 41l-120 163z" />
    <glyph glyph-name="uacute" unicode="&#xfa;" 
d="M325 0h150l79 460h-149zM215 180l50 280h-157l-51 -295q-6 -52 5 -91.5t43 -62t88 -22.5q57 1 96.5 28.5t64 72.5t33.5 95l-30 -5q-6 -23 -19.5 -42t-33 -31t-43.5 -10q-23 1 -33.5 13.5t-12.5 30t0 39.5zM511 685l-108 55l-170 -156l81 -45z" />
    <glyph glyph-name="ucircumflex" unicode="&#xfb;" 
d="M325 0h150l79 460h-149zM215 180l50 280h-157l-51 -295q-6 -52 5 -91.5t43 -62t88 -22.5q57 1 96.5 28.5t64 72.5t33.5 95l-30 -5q-6 -23 -19.5 -42t-33 -31t-43.5 -10q-23 1 -33.5 13.5t-12.5 30t0 39.5zM362 623l73 -85l112 69l-171 142l-212 -136l95 -75z" />
    <glyph glyph-name="udieresis" unicode="&#xfc;" 
d="M325 0h150l79 460h-149zM215 180l50 280h-157l-51 -295q-6 -52 5 -91.5t43 -62t88 -22.5q57 1 96.5 28.5t64 72.5t33.5 95l-30 -5q-6 -23 -19.5 -42t-33 -31t-43.5 -10q-23 1 -33.5 13.5t-12.5 30t0 39.5zM391 622q-5 -35 17 -59t58 -24q35 -1 64 22.5t34 58.5
q4 34 -18.5 57.5t-58.5 24.5q-35 0 -63.5 -23t-32.5 -57zM154 622q-5 -35 17 -59t58 -24q35 -1 63.5 22.5t33.5 58.5q4 34 -18.5 57.5t-56.5 24.5q-36 0 -64.5 -23t-32.5 -57z" />
    <glyph glyph-name="yacute" unicode="&#xfd;" horiz-adv-x="506" 
d="M570 460h-156l-206 -367l77 -2l-80 369h-161l121 -418l-156 -261h153zM502 685l-109 55l-170 -156l81 -45z" />
    <glyph glyph-name="thorn" unicode="&#xfe;" horiz-adv-x="598" 
d="M140 -220l170 1000h-149l-171 -1000h150zM582 230q8 66 -12 120.5t-63 87t-103 32.5q-46 0 -85 -19t-69.5 -51.5t-50 -76t-26.5 -92.5q-6 -48 1 -91t26.5 -77t52 -53.5t79.5 -19.5q60 0 113.5 31t90 85.5t46.5 123.5zM425 231q-6 -33 -25 -60t-47 -43t-58 -15
q-21 0 -37.5 10t-27 26t-14.5 37t-1 45q4 24 16 45t30 37t39.5 25.5t42.5 9.5q30 -1 50 -17.5t28 -43.5t4 -56z" />
    <glyph glyph-name="ydieresis" unicode="&#xff;" horiz-adv-x="506" 
d="M570 460h-156l-206 -367l77 -2l-80 369h-161l121 -418l-156 -261h153zM362 613q-5 -35 17.5 -58t58.5 -23q34 -1 63.5 22t33.5 57q5 34 -17.5 58.5t-57.5 25.5q-36 0 -65 -24t-33 -58zM126 613q-5 -35 17.5 -58t58.5 -23q35 -1 63.5 22t32.5 57q5 34 -17.5 58.5
t-57.5 25.5q-35 0 -63.5 -24t-33.5 -58z" />
    <glyph glyph-name="Amacron" unicode="&#x100;" horiz-adv-x="713" 
d="M175 135h361l12 129h-341zM410 442l54 -225l-14 -45l52 -172h185l-230 746l-488 -746h192l114 178v39zM286 804h363l22 132h-363z" />
    <glyph glyph-name="amacron" unicode="&#x101;" horiz-adv-x="528" 
d="M168 138q3 18 17 31.5t33.5 20.5t42.5 7q33 1 59.5 -9t49.5 -28l10 70q-16 13 -38.5 24t-50 17.5t-58.5 6.5q-53 0 -100 -17.5t-77.5 -51t-37.5 -80.5q-6 -44 10.5 -75t51.5 -47.5t81 -15.5q47 0 85 17t64.5 48t36.5 73l-7 57q-9 -31 -26 -53t-40.5 -33.5t-53.5 -9.5
q-17 0 -29.5 5.5t-18.5 16t-4 26.5zM143 318q18 8 41.5 17.5t52 16.5t58.5 5q22 0 36.5 -8t21.5 -21.5t6 -32.5l-53 -295h145l55 325q6 49 -19 81.5t-70.5 49.5t-98.5 17q-59 0 -112 -16t-98 -35zM152 541h363l23 131h-364z" />
    <glyph glyph-name="Abreve" unicode="&#x102;" horiz-adv-x="713" 
d="M175 135h361l12 129h-341zM410 442l54 -225l-14 -45l52 -172h185l-230 746l-488 -746h192l114 178v39zM330 952q-3 -43 13 -76t48 -52.5t81 -18.5q50 0 86.5 19t60 51.5t33.5 75.5l-99 1q-6 -16 -16.5 -30t-25.5 -22.5t-33 -7.5q-19 0 -30.5 8t-16.5 22t-4 30h-97z" />
    <glyph glyph-name="abreve" unicode="&#x103;" horiz-adv-x="528" 
d="M168 138q3 18 17 31.5t33.5 20.5t42.5 7q33 1 59.5 -9t49.5 -28l10 70q-16 13 -38.5 24t-50 17.5t-58.5 6.5q-53 0 -100 -17.5t-77.5 -51t-37.5 -80.5q-6 -44 10.5 -75t51.5 -47.5t81 -15.5q47 0 85 17t64.5 48t36.5 73l-7 57q-9 -31 -26 -53t-40.5 -33.5t-53.5 -9.5
q-17 0 -29.5 5.5t-18.5 16t-4 26.5zM143 318q18 8 41.5 17.5t52 16.5t58.5 5q22 0 36.5 -8t21.5 -21.5t6 -32.5l-53 -295h145l55 325q6 49 -19 81.5t-70.5 49.5t-98.5 17q-59 0 -112 -16t-98 -35zM196 679q-3 -43 12 -75.5t47.5 -51t81.5 -18.5t85.5 19t60.5 51t33 74
l-100 1q-5 -15 -15 -29t-25 -21.5t-34 -6.5q-18 0 -29.5 7.5t-16 21t-4.5 28.5h-96z" />
    <glyph glyph-name="Aogonek" unicode="&#x104;" horiz-adv-x="713" 
d="M175 135h361l12 129h-341zM410 442l54 -225l-14 -45l52 -172h185l-230 746l-488 -746h192l114 178v39zM623 -110q-11 -8 -25 -15t-28 -5q-17 1 -21.5 10.5t-3.5 25.5q4 19 18 35.5t34.5 31t42.5 27.5l-41 25q-33 -16 -66.5 -36t-58.5 -46t-30 -62q-4 -32 8.5 -54
t37.5 -34t54 -13q37 0 60.5 11.5t40.5 27.5z" />
    <glyph glyph-name="aogonek" unicode="&#x105;" horiz-adv-x="528" 
d="M168 138q3 18 17 31.5t33.5 20.5t42.5 7q33 1 59.5 -9t49.5 -28l10 70q-16 13 -38.5 24t-50 17.5t-58.5 6.5q-55 0 -101.5 -16.5t-76.5 -49.5t-37 -80q-6 -45 11.5 -76.5t51.5 -48.5t80 -16q47 0 85 17t64.5 48t36.5 73l-7 57q-9 -31 -26 -53t-40.5 -33.5t-53.5 -9.5
q-15 0 -27.5 5.5t-19.5 16t-5 26.5zM143 318q18 8 41.5 17.5t52 16.5t58.5 5q22 0 36.5 -8t21.5 -21.5t6 -32.5l-53 -295h145l55 325q6 49 -19 81.5t-70.5 49.5t-98.5 17q-59 0 -112 -16t-98 -35zM403 -110q-11 -8 -25 -15t-27 -5q-17 1 -22 10.5t-4 25.5q4 19 17.5 35.5
t34 31t43.5 27.5l-40 25q-34 -16 -68.5 -36t-58.5 -46t-29 -62q-4 -32 8 -54t37 -34t55 -13q36 0 60.5 11.5t41.5 27.5z" />
    <glyph glyph-name="Cacute" unicode="&#x106;" horiz-adv-x="679" 
d="M247 350q7 45 29 82t55 64.5t73.5 42.5t84.5 16q43 0 76.5 -12t60 -33t47.5 -48l28 184q-42 33 -90 51.5t-114 18.5q-84 0 -156.5 -27.5t-131 -76.5t-95.5 -115.5t-49 -146.5q-12 -77 5 -143.5t60 -115.5t106.5 -77.5t145.5 -28.5q68 0 121 19t100 50l27 183
q-30 -24 -63 -45.5t-72.5 -34t-85.5 -11.5q-43 0 -76.5 16t-55 44.5t-30 64.5t-0.5 79zM664 923l-108 56l-171 -156l82 -46z" />
    <glyph glyph-name="cacute" unicode="&#x107;" horiz-adv-x="478" 
d="M194 230q6 33 27 60t51.5 43t64.5 16q25 0 47.5 -8t40.5 -23t30 -36l22 148q-27 18 -61.5 29t-78.5 11q-76 0 -139.5 -30.5t-105.5 -84.5t-52 -124t16 -124t80 -85.5t128 -31.5q45 0 82 11.5t67 30.5l21 146q-19 -20 -41.5 -35t-49 -23t-56.5 -7q-33 0 -55.5 15t-32.5 42
t-5 60zM505 678l-110 54l-170 -156l82 -44z" />
    <glyph glyph-name="Ccircumflex" unicode="&#x108;" horiz-adv-x="679" 
d="M247 350q7 45 29 82t55 64.5t73.5 42.5t84.5 16q43 0 76.5 -12t60 -33t47.5 -48l28 184q-42 33 -90 51.5t-114 18.5q-84 0 -156.5 -27.5t-131 -76.5t-95.5 -115.5t-49 -146.5q-12 -77 5 -143.5t60 -115.5t106.5 -77.5t145.5 -28.5q68 0 121 19t100 50l27 183
q-30 -24 -63 -45.5t-72.5 -34t-85.5 -11.5q-43 0 -76.5 16t-55 44.5t-30 64.5t-0.5 79zM530 861l73 -85l113 70l-172 143l-212 -137l94 -76z" />
    <glyph glyph-name="ccircumflex" unicode="&#x109;" horiz-adv-x="478" 
d="M194 230q6 33 27 60t51.5 43t64.5 16q25 0 47.5 -8t40.5 -23t30 -36l22 148q-27 18 -61.5 29t-78.5 11q-76 0 -139.5 -30.5t-105.5 -84.5t-52 -124t16 -124t80 -85.5t128 -31.5q45 0 82 11.5t67 30.5l21 146q-19 -20 -41.5 -35t-49 -23t-56.5 -7q-33 0 -55.5 15t-32.5 42
t-5 60zM339 616l74 -85l112 68l-173 143l-211 -137l96 -74z" />
    <glyph glyph-name="Cdotaccent" unicode="&#x10a;" horiz-adv-x="679" 
d="M247 350q7 45 29 82t55 64.5t73.5 42.5t84.5 16q43 0 76.5 -12t60 -33t47.5 -48l28 184q-42 33 -90 51.5t-114 18.5q-84 0 -156.5 -27.5t-131 -76.5t-95.5 -115.5t-49 -146.5q-12 -77 5 -143.5t60 -115.5t106.5 -77.5t145.5 -28.5q68 0 121 19t100 50l27 183
q-30 -24 -63 -45.5t-72.5 -34t-85.5 -11.5q-43 0 -76.5 16t-55 44.5t-30 64.5t-0.5 79zM414 860q-4 -35 18 -59t58 -24q35 -1 63.5 23t33.5 57q4 35 -18 58.5t-57 24.5q-35 0 -64 -23t-34 -57z" />
    <glyph glyph-name="cdotaccent" unicode="&#x10b;" horiz-adv-x="478" 
d="M194 230q6 33 27 59.5t51.5 43t64.5 16.5q25 0 47.5 -8t40.5 -23t30 -36l22 148q-27 18 -61.5 29t-79.5 11q-75 0 -138.5 -30.5t-105.5 -84.5t-52 -124t16 -124t80 -85.5t127 -31.5q46 0 83 11.5t67 30.5l21 146q-19 -20 -41.5 -35t-49 -23t-56.5 -7q-33 0 -55.5 15.5
t-32.5 42t-5 59.5zM255 621q-4 -35 18 -58.5t57 -23.5q35 -1 64 22t34 57q4 34 -18 58t-58 25q-35 0 -64 -23.5t-33 -56.5z" />
    <glyph glyph-name="Ccaron" unicode="&#x10c;" horiz-adv-x="679" 
d="M247 350q7 45 29 82t55 64.5t73.5 42.5t84.5 16q43 0 76.5 -12t60 -33t47.5 -48l28 184q-42 33 -90 51.5t-114 18.5q-84 0 -156.5 -27.5t-131 -76.5t-95.5 -115.5t-49 -146.5q-12 -77 5 -143.5t60 -115.5t106.5 -77.5t145.5 -28.5q68 0 121 19t100 50l27 183
q-30 -24 -63 -45.5t-72.5 -34t-85.5 -11.5q-43 0 -76.5 16t-55 44.5t-30 64.5t-0.5 79zM530 904l-74 85l-112 -70l171 -143l213 138l-96 75z" />
    <glyph glyph-name="ccaron" unicode="&#x10d;" horiz-adv-x="478" 
d="M194 230q6 33 27 60t51.5 43t64.5 16q25 0 47.5 -8t40.5 -23t30 -36l22 148q-27 18 -61.5 29t-78.5 11q-76 0 -139.5 -30.5t-105.5 -84.5t-52 -124t16 -124t80 -85.5t128 -31.5q45 0 82 11.5t67 30.5l21 146q-19 -20 -41.5 -35t-49 -23t-56.5 -7q-33 0 -55.5 15t-32.5 42
t-5 60zM339 658l-73 84l-114 -68l173 -143l212 138l-95 73z" />
    <glyph glyph-name="Dcaron" unicode="&#x10e;" horiz-adv-x="710" 
d="M164 700l-120 -700h172l121 700h-173zM293 0q111 1 199.5 44.5t146 122t74.5 183.5q14 102 -20 181t-108.5 123.5t-182.5 45.5h-129l-27 -150l135 -1q42 -1 75 -14.5t54.5 -38.5t29 -62t1.5 -84q-9 -49 -30.5 -86t-54 -62.5t-71.5 -37.5t-82 -13h-125l-26 -151h141z
M487 904l-74 85l-111 -70l172 -143l211 138l-95 75z" />
    <glyph glyph-name="dcaron" unicode="&#x10f;" horiz-adv-x="598" 
d="M500 780l-132 -780h148l135 780h-151zM42 231q-9 -67 10.5 -121.5t62 -86.5t104.5 -32q46 0 85 18.5t70 51t50.5 76t26.5 93.5q6 47 -1 90t-27 77t-53 53.5t-79 19.5q-62 0 -115.5 -31t-89 -85.5t-44.5 -122.5zM198 230q6 32 24.5 59t46 43t60.5 16q19 -1 36 -11
t27 -26.5t14.5 -37t1.5 -42.5q-4 -25 -16.5 -46.5t-30.5 -37.5t-38.5 -25t-41.5 -9q-32 0 -52 16.5t-28 43t-3 57.5zM761 779l-129 -256l113 -24l163 247z" />
    <glyph glyph-name="Dcroat" unicode="&#x110;" horiz-adv-x="710" 
d="M27 298h337l17 100h-336zM164 700l-120 -700h172l121 700h-173zM293 0q111 1 199.5 44.5t146 122t74.5 183.5q14 102 -20 181t-108.5 123.5t-182.5 45.5h-129l-27 -150l135 -1q42 -1 75 -14.5t54.5 -38.5t29 -62t1.5 -84q-9 -49 -30.5 -86t-54 -62.5t-71.5 -37.5t-82 -13
h-125l-26 -151h141z" />
    <glyph glyph-name="dcroat" unicode="&#x111;" horiz-adv-x="598" 
d="M355 566l348 -1l18 100h-349zM500 780l-132 -780h148l135 780h-151zM42 231q-9 -67 10.5 -121.5t62 -86.5t104.5 -32q46 0 85 18.5t70 51t50.5 76t26.5 93.5q5 47 -1.5 90t-26.5 77t-53 53.5t-79 19.5q-62 0 -115.5 -31t-89 -85.5t-44.5 -122.5zM198 230q6 32 24.5 59
t46 43t60.5 16q19 -1 36 -11t27 -26.5t14.5 -37t1.5 -42.5q-4 -25 -16.5 -46.5t-30.5 -37.5t-38.5 -25t-41.5 -9q-32 0 -52 16.5t-28 43t-3 57.5z" />
    <glyph glyph-name="Emacron" unicode="&#x112;" horiz-adv-x="584" 
d="M153 0h345l23 139h-344zM249 561h345l24 139h-345zM204 300l326 -1l23 138h-326zM164 700l-120 -700h160l120 700h-160zM222 776h363l22 132h-362z" />
    <glyph glyph-name="emacron" unicode="&#x113;" horiz-adv-x="556" 
d="M121 199h411q3 10 4 20t2 18q9 69 -12 121t-70 82t-126 30q-69 0 -124.5 -24.5t-95 -67t-57.5 -99.5q-4 -12 -6.5 -24t-4.5 -25q-9 -68 14.5 -122t75 -86t130.5 -32q60 0 107 17t84.5 47.5t66.5 69.5l-131 35q-14 -17 -33 -31t-41 -21.5t-47 -6.5q-32 2 -51 18.5
t-24.5 45.5t-0.5 66l7 25q6 30 22.5 56.5t41.5 42.5t56 15q26 -1 40.5 -13.5t20 -30.5t5.5 -42l-251 -1zM164 531h363l23 131h-364z" />
    <glyph glyph-name="Ebreve" unicode="&#x114;" horiz-adv-x="584" 
d="M153 0h345l23 139h-344zM249 561h345l24 139h-345zM204 300l326 -1l23 138h-326zM164 700l-120 -700h160l120 700h-160zM267 922q-3 -42 11.5 -74.5t47 -52t81.5 -18.5q49 0 86.5 19.5t60.5 51.5t32 73l-99 1q-5 -15 -15.5 -28.5t-25.5 -22t-33 -7.5q-18 0 -29.5 8
t-16.5 21.5t-4 28.5h-96z" />
    <glyph glyph-name="ebreve" unicode="&#x115;" horiz-adv-x="556" 
d="M121 199h411q3 10 4 20t2 18q9 69 -12 121t-70 82t-125 30q-70 0 -125.5 -24.5t-95 -67t-57.5 -99.5q-4 -12 -6.5 -24t-4.5 -25q-9 -68 14 -122t75 -86t131 -32q60 0 107 17t84.5 47.5t66.5 69.5l-131 35q-14 -17 -33 -31t-41 -21.5t-47 -6.5q-32 2 -51 18.5t-24.5 45.5
t-0.5 66l7 25q6 30 22.5 56.5t41.5 42.5t57 15q25 -1 39.5 -13.5t20 -30.5t5.5 -42l-251 -1zM210 678q-3 -43 12 -75.5t47 -52t81 -18.5q50 0 87 19.5t60.5 51t33.5 74.5l-100 1q-5 -16 -15 -29.5t-25 -22t-35 -7.5q-18 0 -29.5 8t-16 21.5t-3.5 29.5h-97z" />
    <glyph glyph-name="Edotaccent" unicode="&#x116;" horiz-adv-x="584" 
d="M153 0h345l23 139h-344zM249 561h345l24 139h-345zM204 300l326 -1l23 138h-326zM164 700l-120 -700h160l120 700h-160zM329 860q-5 -35 18 -59t58 -24q35 -1 64 23t34 57q4 35 -18.5 58.5t-57.5 24.5q-36 0 -64.5 -23t-33.5 -57z" />
    <glyph glyph-name="edotaccent" unicode="&#x117;" horiz-adv-x="556" 
d="M121 199h411q3 10 4 20t2 18q9 69 -12 121t-70 82t-125 30q-70 0 -125.5 -24.5t-95 -67t-57.5 -99.5q-4 -12 -6.5 -24t-4.5 -25q-9 -68 14 -122t75 -86t131 -32q60 0 107 17t84.5 47.5t66.5 69.5l-131 35q-14 -17 -33 -31t-41 -21.5t-47 -6.5q-32 2 -51 18.5t-24.5 45.5
t-0.5 66l7 25q6 30 22.5 56.5t41.5 42.5t57 15q25 -1 39.5 -13.5t20 -30.5t5.5 -42l-251 -1zM274 613q-5 -35 17 -58t58 -23q34 -1 63.5 22t33.5 57t-18 58.5t-58 25.5q-35 0 -63.5 -24t-32.5 -58z" />
    <glyph glyph-name="Eogonek" unicode="&#x118;" horiz-adv-x="584" 
d="M153 0h345l23 139h-344zM249 561h345l24 139h-345zM204 300l326 -1l23 138h-326zM164 700l-120 -700h160l120 700h-160zM340 -110q-11 -8 -25 -15t-27 -5q-17 1 -22 10.5t-4 25.5q4 20 17.5 36t34 30.5t43.5 27.5l-40 25q-34 -16 -68 -36t-58.5 -46t-30.5 -62
q-4 -32 8.5 -54t37.5 -34t55 -13q36 0 60 11.5t42 27.5z" />
    <glyph glyph-name="eogonek" unicode="&#x119;" horiz-adv-x="556" 
d="M121 199h411q3 10 4 20t2 18q9 69 -12 121t-70 82t-125 30q-70 0 -125.5 -24.5t-95 -67t-57.5 -99.5q-4 -12 -6.5 -24t-4.5 -25q-9 -68 14 -122t75 -86t131 -32q60 0 107 17t84.5 47.5t66.5 69.5l-131 35q-14 -17 -33 -31t-41 -21.5t-47 -6.5q-32 2 -51 18.5t-24.5 45.5
t-0.5 66l7 25q6 30 22.5 56.5t41.5 42.5t57 15q25 -1 39.5 -13.5t20 -30.5t5.5 -42l-251 -1zM271 -103q-11 -8 -25.5 -14.5t-27.5 -4.5q-17 1 -21.5 10.5t-2.5 26.5q3 18 16.5 34.5t34.5 31t43 25.5l-40 28q-34 -17 -67.5 -37t-58.5 -46.5t-31 -61.5q-4 -31 9 -53.5t38 -35
t55 -11.5q36 -1 60 10.5t41 27.5z" />
    <glyph glyph-name="Ecaron" unicode="&#x11a;" horiz-adv-x="584" 
d="M153 0h345l23 139h-344zM249 561h345l24 139h-345zM204 300l326 -1l23 138h-326zM164 700l-120 -700h160l120 700h-160zM420 904l-73 85l-113 -70l173 -143l212 138l-95 75z" />
    <glyph glyph-name="ecaron" unicode="&#x11b;" horiz-adv-x="556" 
d="M121 199h411q3 10 4 20t2 18q9 69 -12 121t-70 82t-125 30q-70 0 -125.5 -24.5t-95 -67t-57.5 -99.5q-4 -12 -6.5 -24t-4.5 -25q-9 -68 14 -122t75 -86t131 -32q60 0 107 17t84.5 47.5t66.5 69.5l-131 35q-14 -17 -33 -31t-41 -21.5t-47 -6.5q-32 2 -51 18.5t-24.5 45.5
t-0.5 66l7 25q6 30 22.5 56.5t41.5 42.5t57 15q25 -1 39.5 -13.5t20 -30.5t5.5 -42l-251 -1zM364 658l-74 84l-111 -68l171 -143l213 138l-97 73z" />
    <glyph glyph-name="Gcircumflex" unicode="&#x11c;" horiz-adv-x="790" 
d="M424 253l182 1q-15 -27 -35 -50t-46 -40.5t-57 -28t-68 -9.5q-47 0 -80.5 18t-54.5 49t-27 71.5t1 85.5q8 47 30 87t55.5 70t74.5 45.5t86 16.5q56 -1 89.5 -28t52.5 -69l158 77q-28 51 -69 88t-95 58t-120 21q-84 0 -157 -27t-132 -76t-97 -116t-50 -147
q-12 -76 4.5 -143.5t59 -119.5t106 -80.5t144.5 -28.5q88 0 159.5 32.5t124.5 89t85.5 130t41.5 153.5h-344zM534 861l73 -85l114 70l-173 143l-211 -137l94 -76z" />
    <glyph glyph-name="gcircumflex" unicode="&#x11d;" horiz-adv-x="591" 
d="M6 -33q0 -63 23.5 -108.5t72.5 -71.5t127 -25q72 0 132 28.5t99.5 84t52.5 135.5l76 450h-143l-78 -449q-6 -36 -25 -65.5t-47.5 -46t-62.5 -15.5q-29 0 -47 9.5t-26.5 28t-10.5 45.5h-143zM43 237q-8 -66 11.5 -119.5t62 -84.5t104.5 -30q45 0 84.5 17t69.5 49.5
t50 74.5t27 92q6 47 -1.5 89t-27 74.5t-53 51.5t-79.5 19q-61 0 -114.5 -29.5t-89 -82.5t-44.5 -121zM199 235q5 32 24 58t46.5 41t59.5 14q20 -1 36.5 -10t26.5 -23.5t15 -34.5t2 -43q-4 -25 -16.5 -45t-30 -35.5t-38.5 -23.5t-42 -8q-30 1 -50.5 15.5t-29 39t-3.5 55.5z
M392 616l74 -85l112 68l-172 143l-213 -137l96 -74z" />
    <glyph glyph-name="Gbreve" unicode="&#x11e;" horiz-adv-x="790" 
d="M424 253l182 1q-15 -27 -35 -50t-46 -40.5t-57 -28t-68 -9.5q-47 0 -80.5 18t-54.5 49t-27 71.5t1 85.5q8 47 30 87t55.5 70t74.5 45.5t86 16.5q56 -1 89.5 -28t52.5 -69l158 77q-28 51 -69 88t-95 58t-120 21q-84 0 -157 -27t-132 -76t-97 -116t-50 -147
q-12 -76 4.5 -143.5t59 -119.5t106 -80.5t144.5 -28.5q88 0 159.5 32.5t124.5 89t85.5 130t41.5 153.5h-344zM380 922q-3 -42 12 -74.5t47 -52t81 -18.5q50 0 86.5 19.5t61 51.5t33.5 73l-100 1q-5 -15 -15.5 -28.5t-25.5 -22t-34 -7.5q-18 0 -29.5 8t-16 21.5t-4.5 28.5
h-96z" />
    <glyph glyph-name="gbreve" unicode="&#x11f;" horiz-adv-x="591" 
d="M6 -33q0 -63 23.5 -108.5t72.5 -71.5t127 -25q72 0 132 28.5t99.5 84t52.5 135.5l76 450h-143l-78 -449q-6 -36 -25 -65.5t-47.5 -46t-62.5 -15.5q-29 0 -47 9.5t-26.5 28t-10.5 45.5h-143zM43 237q-8 -66 11.5 -119.5t62 -84.5t104.5 -30q45 0 84.5 17t69.5 49.5
t50 74.5t27 92q6 47 -1.5 89t-27 74.5t-53 51.5t-79.5 19q-61 0 -114.5 -29.5t-89 -82.5t-44.5 -121zM199 235q5 32 24 58t46.5 41t59.5 14q20 -1 36.5 -10t26.5 -23.5t15 -34.5t2 -43q-4 -25 -16.5 -45t-30 -35.5t-38.5 -23.5t-42 -8q-30 1 -50.5 15.5t-29 39t-3.5 55.5z
M238 678q-3 -43 11 -75.5t47 -52t82 -18.5q50 0 86.5 19.5t61 51t33.5 74.5l-100 1q-6 -16 -16.5 -29.5t-25.5 -22t-33 -7.5q-18 0 -29.5 8t-16.5 21.5t-5 29.5h-95z" />
    <glyph glyph-name="Gdotaccent" unicode="&#x120;" horiz-adv-x="790" 
d="M424 253l182 1q-15 -27 -35 -50t-46 -40.5t-57 -28t-68 -9.5q-47 0 -80.5 18t-54.5 49t-27 71.5t1 85.5q8 47 30 87t55.5 70t74.5 45.5t86 16.5q56 -1 89.5 -28t52.5 -69l158 77q-28 51 -69 88t-95 58t-120 21q-84 0 -157 -27t-132 -76t-97 -116t-50 -147
q-12 -76 4.5 -143.5t59 -119.5t106 -80.5t144.5 -28.5q88 0 159.5 32.5t124.5 89t85.5 130t41.5 153.5h-344zM444 860q-4 -35 18 -59t57 -24q35 -1 64 23t33 57q4 35 -18.5 58.5t-57.5 24.5q-35 0 -63.5 -23t-32.5 -57z" />
    <glyph glyph-name="gdotaccent" unicode="&#x121;" horiz-adv-x="591" 
d="M6 -33q0 -63 23.5 -108.5t72.5 -71.5t127 -25q72 0 132 28.5t99.5 84t52.5 135.5l76 450h-143l-78 -449q-6 -36 -25 -65.5t-47.5 -46t-62.5 -15.5q-29 0 -47 9.5t-26.5 28t-10.5 45.5h-143zM43 237q-8 -66 11.5 -119.5t62 -84.5t104.5 -30q45 0 84.5 17t69.5 49.5
t50 74.5t27 92q6 47 -1.5 89t-27 74.5t-53 51.5t-79.5 19q-61 0 -114.5 -29.5t-89 -82.5t-44.5 -121zM199 235q5 32 24 58t46.5 41t59.5 14q20 -1 36.5 -10t26.5 -23.5t15 -34.5t2 -43q-4 -25 -16.5 -45t-30 -35.5t-38.5 -23.5t-42 -8q-30 1 -50.5 15.5t-29 39t-3.5 55.5z
M293 630q-5 -35 17.5 -59t58.5 -24q34 -1 63 22.5t33 57.5q4 35 -18 58.5t-57 23.5q-36 1 -64.5 -22t-32.5 -57z" />
    <glyph glyph-name="uni0122" unicode="&#x122;" horiz-adv-x="790" 
d="M424 253l182 1q-15 -27 -35 -50t-46 -40.5t-57 -28t-68 -9.5q-47 0 -80.5 18t-54.5 49t-27 71.5t1 85.5q8 47 30 87t55.5 70t74.5 45.5t86 16.5q56 -1 89.5 -28t52.5 -69l158 77q-28 51 -69 88t-95 58t-120 21q-84 0 -157 -27t-132 -76t-97 -116t-50 -147
q-12 -76 4.5 -143.5t59 -119.5t106 -80.5t144.5 -28.5q88 0 159.5 32.5t124.5 89t85.5 130t41.5 153.5h-344zM300 -83l-129 -257l111 -24l165 247z" />
    <glyph glyph-name="uni0123" unicode="&#x123;" horiz-adv-x="553" 
d="M-40 -33q1 -63 25 -108.5t73.5 -71.5t127.5 -26q72 1 132.5 29.5t99.5 84t51 135.5l76 450h-145l-77 -450q-7 -35 -26.5 -64.5t-48 -46t-63.5 -16.5q-28 1 -46 10.5t-26.5 28t-9.5 44.5zM-3 236q-8 -66 12.5 -119.5t64 -84t104.5 -29.5q46 0 85 17.5t69 49.5t49.5 74
t25.5 92q6 48 -2 90t-28 74t-53.5 51t-79.5 19q-62 0 -115 -29.5t-88 -82.5t-44 -122zM154 235q5 32 24.5 58t47.5 40.5t59 13.5q21 0 36.5 -9t25.5 -24t14 -35t1 -42q-4 -25 -16.5 -45t-30 -35.5t-38 -23.5t-41.5 -8q-31 1 -50.5 16t-27.5 39t-4 55zM327 542l161 239
l-107 44l-193 -224z" />
    <glyph glyph-name="Hcircumflex" unicode="&#x124;" horiz-adv-x="762" 
d="M141 293h516l26 152h-517zM620 700l-120 -700h166l120 700h-166zM164 700l-120 -700h166l120 700h-166zM506 861l74 -85l111 70l-171 143l-213 -137l96 -76z" />
    <glyph glyph-name="hcircumflex" unicode="&#x125;" horiz-adv-x="551" 
d="M313 780h-151l-134 -780h151zM368 280l-49 -280h149l52 302q6 50 -4 90t-40 63t-85 23q-58 0 -97.5 -28t-63 -73t-33.5 -96h31q5 23 18 42t32 30.5t44 9.5q24 -1 34.5 -12.5t12.5 -30.5t-1 -40zM311 926l73 -86l112 68l-171 143l-213 -137l96 -74z" />
    <glyph glyph-name="Hbar" unicode="&#x126;" horiz-adv-x="762" 
d="M94 293h519l26 152h-518zM574 700l-119 -700h167l120 700h-168zM118 700l-119 -700h166l121 700h-168zM23 537h758l18 106h-758z" />
    <glyph glyph-name="hbar" unicode="&#x127;" horiz-adv-x="551" 
d="M269 780h-153l-134 -780h153zM323 280l-50 -280h150l52 302q6 50 -4.5 90t-41 63t-86.5 23q-57 -1 -95 -28.5t-61 -72.5t-32 -96h29q5 23 18 42t32 30.5t45 9.5q23 -2 33.5 -13t12 -30.5t-1.5 -39.5zM33 598h327l22 131h-327z" />
    <glyph glyph-name="Itilde" unicode="&#x128;" horiz-adv-x="310" 
d="M164 700l-120 -700h169l120 700h-169zM80 844l64 -64q4 9 10.5 20t17.5 20t28 10q24 1 43 -11t38.5 -25.5t44.5 -14.5q30 -1 57.5 11.5t49.5 32.5t35 39l-61 76q-16 -20 -34 -36.5t-39 -16.5q-20 -1 -34 6.5t-27.5 18t-28.5 18t-35 8.5q-33 0 -57.5 -13t-42.5 -34.5
t-29 -44.5z" />
    <glyph glyph-name="itilde" unicode="&#x129;" horiz-adv-x="268" 
d="M113 460l-78 -460h144l79 460h-145zM18 598l63 -63q4 9 10.5 20t16.5 20t28 10q23 1 43 -11.5t39.5 -26.5t43.5 -14q31 -2 58 12t48.5 33t35.5 38l-61 76q-16 -20 -34.5 -35.5t-39.5 -15.5q-19 -1 -33 6t-27.5 17t-27.5 18t-36 9q-31 0 -56 -13t-43 -35t-28 -45z" />
    <glyph glyph-name="Imacron" unicode="&#x12a;" horiz-adv-x="310" 
d="M164 700l-120 -700h169l120 700h-169zM79 776h363l23 132h-363z" />
    <glyph glyph-name="imacron" unicode="&#x12b;" horiz-adv-x="268" 
d="M113 460l-78 -460h144l79 460h-145zM16 531h363l23 131h-364z" />
    <glyph glyph-name="Ibreve" unicode="&#x12c;" horiz-adv-x="310" 
d="M164 700l-120 -700h169l120 700h-169zM125 922q-3 -42 12 -74.5t47.5 -52t81.5 -18.5q49 0 85.5 19.5t60 51.5t33.5 73l-99 1q-5 -15 -15.5 -28.5t-25.5 -22t-34 -7.5q-18 0 -29.5 8t-16.5 21.5t-4 28.5h-96z" />
    <glyph glyph-name="ibreve" unicode="&#x12d;" horiz-adv-x="268" 
d="M113 460l-78 -460h144l79 460h-145zM61 678q-3 -43 12 -75.5t47.5 -52t81.5 -18.5q50 0 87 19.5t60.5 51t32.5 74.5l-100 1q-5 -16 -15 -29.5t-25.5 -22t-33.5 -7.5q-18 0 -29.5 8t-17 21.5t-5.5 29.5h-95z" />
    <glyph glyph-name="Iogonek" unicode="&#x12e;" horiz-adv-x="310" 
d="M164 700l-120 -700h169l120 700h-169zM172 -108q-11 -8 -25.5 -15t-27.5 -5q-17 1 -22 11t-3 25q3 19 17 35t35 31t43 27l-40 26q-34 -17 -68.5 -36.5t-59.5 -46t-30 -61.5q-4 -32 8.5 -54.5t37.5 -34t55 -11.5q36 0 61 11.5t42 26.5z" />
    <glyph glyph-name="iogonek" unicode="&#x12f;" horiz-adv-x="268" 
d="M129 633q-5 -34 17 -57t59 -23q34 -1 63 21.5t34 56.5q4 34 -19 58t-57 25q-37 0 -65 -23.5t-32 -57.5zM113 460l-78 -460h144l79 460h-145zM139 -110q-11 -8 -25.5 -15t-28.5 -5q-16 1 -21.5 10.5t-3.5 25.5q4 19 17.5 35.5t34.5 31t43 27.5l-40 25q-33 -16 -67.5 -36
t-59.5 -46t-30 -62q-4 -32 9 -54t37.5 -34t55.5 -13q35 0 59 11.5t42 27.5z" />
    <glyph glyph-name="Idotaccent" unicode="&#x130;" horiz-adv-x="310" 
d="M164 700l-120 -700h169l120 700h-169zM188 860q-5 -35 17.5 -59t58.5 -24q35 -1 63.5 23t33.5 57q4 35 -18.5 58.5t-56.5 24.5q-36 0 -65 -23t-33 -57z" />
    <glyph glyph-name="dotlessi" unicode="&#x131;" horiz-adv-x="268" 
d="M113 460l-78 -460h144l79 460h-145z" />
    <glyph glyph-name="IJ" unicode="&#x132;" horiz-adv-x="605" 
d="M174 -63l-106 -118q21 -15 49.5 -28t61.5 -21.5t69 -8.5q47 0 88.5 11t76 34t57.5 57.5t31 82.5l129 754h-180l-124 -715q-6 -37 -29 -58.5t-51 -22.5q-22 -1 -40.5 9.5t-31.5 23.5zM164 700l-120 -700h169l120 700h-169z" />
    <glyph glyph-name="ij" unicode="&#x133;" horiz-adv-x="529" 
d="M391 633q-5 -34 17 -57t57 -23q35 -1 64 21.5t34 56.5q4 34 -18.5 58t-57.5 25q-35 0 -64 -23.5t-32 -57.5zM187 -76l-74 -110q14 -13 30.5 -25t38.5 -19.5t51 -7.5q56 -1 96 20.5t65 59t34 86.5l90 532h-142l-87 -493q-3 -18 -11 -35t-20 -25.5t-29 -7.5q-8 0 -16 3.5
t-14 9.5zM129 633q-5 -34 17 -57t59 -23q34 -1 63 21.5t34 56.5q4 34 -19 58t-57 25q-37 0 -65 -23.5t-32 -57.5zM113 460l-78 -460h144l79 460h-145z" />
    <glyph glyph-name="Jcircumflex" unicode="&#x134;" horiz-adv-x="320" 
d="M-113 -63l-104 -118q21 -15 49.5 -28t61 -21.5t68.5 -8.5q46 0 88 11t76.5 34t58 57.5t31.5 82.5l128 754h-180l-124 -715q-6 -37 -29 -58.5t-51 -22.5q-21 -1 -39.5 9.5t-33.5 23.5zM284 861l74 -85l111 70l-170 143l-212 -137l95 -76z" />
    <glyph glyph-name="jcircumflex" unicode="&#x135;" horiz-adv-x="263" 
d="M-77 -76l-74 -110q14 -13 30.5 -25t38 -19.5t51.5 -7.5q55 -1 95.5 20.5t66 59t33.5 86.5l91 532h-145l-86 -493q-3 -18 -11 -35t-20.5 -25.5t-29.5 -7.5q-12 0 -22 6t-18 19zM212 616l74 -85l111 68l-171 143l-212 -137l94 -74z" />
    <glyph glyph-name="uni0136" unicode="&#x136;" horiz-adv-x="679" 
d="M164 700l-120 -700h172l121 700h-173zM562 700l-332 -329l227 -371h195l-226 369l337 331h-201zM280 -61l-129 -256l113 -24l166 247z" />
    <glyph glyph-name="uni0137" unicode="&#x137;" horiz-adv-x="560" 
d="M161 780l-133 -780h143l134 780h-144zM408 460l-219 -186l167 -274h170l-164 267l230 193h-184zM210 -61l-129 -256l112 -24l165 247z" />
    <glyph glyph-name="kgreenlandic" unicode="&#x138;" horiz-adv-x="560" 
d="M106 460l-78 -460h143l79 460h-144zM408 460l-219 -186l167 -274h170l-164 267l230 193h-184z" />
    <glyph glyph-name="Lacute" unicode="&#x139;" horiz-adv-x="512" 
d="M164 700l-120 -700h439l26 146h-274l95 554h-166zM578 923l-107 56l-171 -156l80 -46z" />
    <glyph glyph-name="lacute" unicode="&#x13a;" horiz-adv-x="261" 
d="M161 780l-132 -780h150l134 780h-152zM431 987l-108 55l-170 -157l81 -44z" />
    <glyph glyph-name="uni013B" unicode="&#x13b;" horiz-adv-x="512" 
d="M164 700l-120 -700h439l26 146h-274l95 554h-166zM220 -61l-130 -256l112 -24l165 247z" />
    <glyph glyph-name="uni013C" unicode="&#x13c;" horiz-adv-x="261" 
d="M161 780l-132 -780h150l134 780h-152zM59 -61l-129 -256l114 -24l164 247z" />
    <glyph glyph-name="Lcaron" unicode="&#x13d;" horiz-adv-x="512" 
d="M164 700l-120 -700h439l26 146h-274l95 554h-166zM493 715l-129 -256l113 -24l163 247z" />
    <glyph glyph-name="lcaron" unicode="&#x13e;" horiz-adv-x="261" 
d="M161 780l-132 -780h150l134 780h-152zM443 779l-130 -256l113 -24l165 247z" />
    <glyph glyph-name="Ldot" unicode="&#x13f;" horiz-adv-x="512" 
d="M164 700l-120 -700h439l26 146h-274l95 554h-166zM359 433q-3 -25 6.5 -46.5t29 -34.5t44.5 -13q27 0 49.5 12t37.5 33.5t18 46.5q3 24 -6 44.5t-28 33.5t-45 14q-26 0 -48.5 -13t-38.5 -33t-19 -44z" />
    <glyph glyph-name="ldot" unicode="&#x140;" horiz-adv-x="463" 
d="M161 780l-132 -780h150l134 780h-152zM287 410q-3 -25 6.5 -46t29 -33.5t45.5 -12.5q26 -1 48.5 11t37.5 33.5t18 46.5q3 24 -6 44.5t-28 33.5t-45 14q-26 0 -49 -13t-38.5 -33t-18.5 -45z" />
    <glyph glyph-name="Lslash" unicode="&#x141;" horiz-adv-x="517" 
d="M33 310l394 243l-28 76l-392 -243zM164 700l-120 -700h439l26 146h-274l95 554h-166z" />
    <glyph glyph-name="lslash" unicode="&#x142;" horiz-adv-x="261" 
d="M21 310l357 218l-26 75l-358 -217zM161 780l-132 -780h150l134 780h-152z" />
    <glyph glyph-name="Nacute" unicode="&#x143;" horiz-adv-x="770" 
d="M633 700l-70 -393l-394 426l-125 -733h160l69 393l395 -426l126 733h-161zM662 908l-109 55l-170 -156l81 -45z" />
    <glyph glyph-name="nacute" unicode="&#x144;" 
d="M258 460h-151l-79 -460h151zM368 280l-49 -280h156l50 296q6 51 -5.5 90.5t-43.5 62.5t-87 22q-57 0 -95.5 -28t-62 -72.5t-31.5 -94.5l27 5q6 23 18.5 42t31.5 30.5t45 9.5q23 -1 34 -12.5t13 -30.5t-1 -40zM529 678l-107 54l-171 -156l81 -44z" />
    <glyph glyph-name="uni0145" unicode="&#x145;" horiz-adv-x="770" 
d="M314 -55l-130 -257l114 -23l163 247zM633 700l-70 -393l-394 426l-125 -733h160l69 393l395 -426l126 733h-161z" />
    <glyph glyph-name="uni0146" unicode="&#x146;" 
d="M258 460h-151l-79 -460h151zM368 280l-49 -280h156l50 296q6 51 -5.5 90.5t-43.5 62.5t-87 22q-57 0 -97 -28t-63 -72t-32 -95l30 5q6 23 18.5 42t31.5 30.5t45 9.5q23 -1 34 -12.5t13 -30.5t-1 -40zM207 -61l-129 -256l114 -24l163 247z" />
    <glyph glyph-name="Ncaron" unicode="&#x147;" horiz-adv-x="770" 
d="M488 903l-73 85l-113 -69l172 -143l211 138l-94 74zM633 700l-70 -393l-394 426l-125 -733h160l69 393l395 -426l126 733h-161z" />
    <glyph glyph-name="ncaron" unicode="&#x148;" 
d="M258 460h-151l-79 -460h151zM368 280l-49 -280h156l50 296q6 51 -5.5 90.5t-43.5 62.5t-87 22q-57 0 -97 -28t-63 -72t-32 -95l30 5q6 23 18.5 42t31.5 30.5t45 9.5q23 -1 34 -12.5t13 -30.5t-1 -40zM360 658l-74 84l-112 -68l173 -143l211 138l-95 73z" />
    <glyph glyph-name="napostrophe" unicode="&#x149;" horiz-adv-x="724" 
d="M426 460h-150l-80 -460h151zM536 280l-50 -280h156l50 296q7 51 -5 90.5t-43 62.5t-86 22q-58 0 -97.5 -28t-63.5 -72t-33 -95l31 5q6 23 18.5 42t31 30.5t44.5 9.5q23 -1 34 -12.5t13 -30.5t0 -40zM198 700l-95 -254h110l144 254h-159z" />
    <glyph glyph-name="Eng" unicode="&#x14a;" horiz-adv-x="793" 
d="M465 -215q54 0 96 20t70 57.5t36 88.5l126 749h-164l-66 -392l-410 427l-123 -735h162l66 392l285 -305l-16 -98q-5 -22 -12 -37.5t-19 -23t-29 -7.5q-13 0 -23 6.5t-19 19.5l-79 -110q26 -28 53 -40t66 -12z" />
    <glyph glyph-name="eng" unicode="&#x14b;" horiz-adv-x="575" 
d="M245 -239q90 0 145.5 44t68.5 123l62 368q14 88 -19 131.5t-117 43.5q-47 0 -86 -20.5t-67 -58.5l11 68h-153l-77 -460h153l47 277q5 28 18 47.5t32.5 29.5t44.5 10q34 0 46.5 -20t5.5 -64l-53 -313q-5 -34 -21 -51t-38 -17q-28 0 -43 25l-79 -112q24 -26 53.5 -38.5
t65.5 -12.5z" />
    <glyph glyph-name="Omacron" unicode="&#x14c;" horiz-adv-x="796" 
d="M240 350q7 44 27.5 81.5t51.5 66.5t70 46t85 17q44 -1 76 -18.5t50 -47.5t23.5 -67.5t-1.5 -76.5q-8 -44 -28.5 -82t-50.5 -67.5t-68.5 -46t-83.5 -15.5q-45 0 -76.5 18t-50 47.5t-24.5 67.5t0 77zM65 350q-11 -75 5 -142t57 -119t103.5 -81.5t143.5 -29.5t152.5 28
t129.5 79.5t95 119t49 145.5q11 74 -7 141t-59 118t-103.5 79t-140.5 28q-81 0 -152.5 -27.5t-129 -77t-94.5 -117t-49 -144.5zM322 776h363l23 132h-363z" />
    <glyph glyph-name="omacron" unicode="&#x14d;" horiz-adv-x="571" 
d="M42 231q-10 -69 16 -123.5t79.5 -86t124.5 -31.5q75 0 137 31t104 85t53 124q9 69 -17 122.5t-78.5 86t-125.5 32.5t-136 -31t-105 -85t-52 -124zM195 230q6 33 24 58.5t45 41.5t59 16q30 -1 49 -17.5t26.5 -42.5t3.5 -54q-6 -33 -24.5 -59.5t-45 -42t-58.5 -14.5
q-29 0 -48.5 16.5t-27.5 42.5t-3 55zM169 531h361l23 131h-362z" />
    <glyph glyph-name="Obreve" unicode="&#x14e;" horiz-adv-x="796" 
d="M240 350q7 44 27.5 81.5t51.5 66.5t70 46t85 17q44 -1 76 -18.5t50 -47.5t23.5 -67.5t-1.5 -77.5q-8 -43 -28.5 -81t-50.5 -67.5t-68.5 -46t-83.5 -15.5q-45 0 -76.5 18t-50 47.5t-24.5 67.5t0 77zM65 350q-11 -75 5 -142t57 -119t103.5 -81.5t143.5 -29.5t152.5 28
t129.5 79.5t95 119t49 145.5q11 74 -7 141t-59 118t-103.5 79t-140.5 28q-81 0 -152.5 -27.5t-129 -77t-94.5 -117t-49 -144.5zM367 922q-3 -42 12.5 -74.5t48 -52t81.5 -18.5q50 0 86.5 19.5t60 51.5t32.5 73l-98 1q-6 -15 -16.5 -28.5t-25 -22t-33.5 -7.5q-19 0 -30.5 8
t-15.5 21.5t-4 28.5h-98z" />
    <glyph glyph-name="obreve" unicode="&#x14f;" horiz-adv-x="571" 
d="M42 231q-10 -69 16 -123.5t79.5 -86t124.5 -31.5q75 0 137 31t104 85t53 124q9 69 -17 122.5t-78.5 86t-125.5 32.5t-136 -31t-105 -85t-52 -124zM195 230q6 33 24 58.5t45 41.5t59 16q30 -1 49 -17.5t26.5 -42.5t3.5 -54q-6 -33 -24.5 -59.5t-45 -42t-58.5 -14.5
q-29 0 -48.5 16.5t-27.5 42.5t-3 55zM215 678q-3 -43 11 -75.5t46.5 -52t81.5 -18.5q50 0 87 19.5t60.5 51t32.5 74.5l-99 1q-5 -16 -15.5 -29.5t-25.5 -22t-32 -7.5q-19 0 -30.5 8t-17 21.5t-4.5 29.5h-95z" />
    <glyph glyph-name="Ohungarumlaut" unicode="&#x150;" horiz-adv-x="797" 
d="M403 777l173 184l-125 33l-143 -188zM596 777l173 184l-127 33l-141 -188zM240 350q7 44 27.5 81.5t51.5 66.5t70 46t85 17q44 -1 76 -18.5t50 -47.5t23.5 -67.5t-1.5 -77.5q-8 -43 -28.5 -81t-50.5 -67.5t-68.5 -46t-83.5 -15.5q-45 0 -76.5 18t-50 47.5t-24.5 67.5
t0 77zM65 350q-11 -75 5 -142t57 -119t103.5 -81.5t143.5 -29.5t152.5 28t129.5 79.5t95 119t49 145.5q11 74 -7 141t-59 118t-103.5 79t-141.5 28q-80 0 -152 -27.5t-129 -77t-94 -117t-49 -144.5z" />
    <glyph glyph-name="ohungarumlaut" unicode="&#x151;" horiz-adv-x="571" 
d="M251 531l173 184l-125 33l-143 -188zM444 531l173 184l-127 33l-141 -188zM48 231q-9 -70 18.5 -124t81 -85.5t124.5 -31.5q74 0 136 31t103 85t51 124q9 69 -18.5 122.5t-80.5 86t-125 32.5q-73 0 -135.5 -31t-103.5 -85t-51 -124zM201 230q6 33 23.5 58.5t44.5 41.5
t58 16q30 -1 49 -17.5t27.5 -42.5t4.5 -54q-5 -33 -23 -59.5t-44.5 -42t-57.5 -14.5q-30 0 -49.5 16t-28 42.5t-4.5 55.5z" />
    <glyph glyph-name="OE" unicode="&#x152;" horiz-adv-x="955" 
d="M569 300l359 -1l23 138h-359zM556 670l-110 -640h161l111 640h-162zM918 139h-371l-21 10l-124 1q-48 0 -83 15t-56 40.5t-27.5 63t1.5 81.5q9 47 29 84t51.5 62t72.5 39.5t91 15.5h126l18 10h366l25 139h-550q-77 -1 -144 -27.5t-122 -73t-89.5 -110t-45.5 -139.5
q-10 -73 5.5 -136t55 -110.5t98 -75t133.5 -28.5h539z" />
    <glyph glyph-name="oe" unicode="&#x153;" horiz-adv-x="873" 
d="M701 250l-3 -19l149 -32q2 7 4 17.5t3 17.5q7 62 -10.5 116t-57 87t-99.5 33q-59 0 -109 -25.5t-85.5 -68.5t-52.5 -97q-5 -12 -7.5 -24t-4.5 -25q-8 -61 8.5 -116t57.5 -89.5t106 -34.5q49 0 93 18.5t80.5 49t61.5 66.5l-128 35q-24 -25 -53.5 -44t-68.5 -18
q-33 1 -51 20.5t-22.5 49t0.5 63.5l7 30q6 32 23 56t43 39t54 14q31 -2 45.5 -19.5t17 -43.5t-0.5 -56zM474 199l372 -1l-5 83h-354zM45 231q-9 -66 11.5 -120.5t65.5 -87.5t110 -32q64 0 113.5 32t80.5 86.5t40 120.5q8 64 -6 118.5t-52.5 88t-103.5 33.5t-120.5 -31.5
t-92.5 -85.5t-46 -122zM192 230q6 33 24.5 59t44.5 41t58 15q31 -1 48.5 -17t22.5 -42t1 -55q-5 -32 -21 -58.5t-41.5 -41.5t-56.5 -15t-50 15.5t-26.5 42t-3.5 56.5z" />
    <glyph glyph-name="Racute" unicode="&#x154;" horiz-adv-x="628" 
d="M270 317l136 -317h191l-158 317h-169zM164 700l-120 -700h166l120 700h-166zM242 557l138 -1q29 -1 50.5 -12.5t31 -31t4.5 -46.5q-6 -31 -23.5 -50t-44.5 -30t-58 -12h-130l-23 -133h152q80 1 144 30t105 80t52 120q10 68 -16.5 119.5t-82 80t-134.5 29.5h-141zM588 923
l-108 56l-170 -156l81 -46z" />
    <glyph glyph-name="racute" unicode="&#x155;" horiz-adv-x="399" 
d="M255 460h-148l-79 -460h147zM360 304l83 128q-13 15 -33.5 26.5t-44.5 12.5q-46 1 -82.5 -27t-62 -72t-34.5 -91l29 -53q6 27 18.5 50.5t31 37.5t43.5 13q17 0 29 -7.5t23 -17.5zM473 678l-108 55l-170 -156l80 -45z" />
    <glyph glyph-name="uni0156" unicode="&#x156;" horiz-adv-x="628" 
d="M270 317l136 -317h191l-158 317h-169zM164 700l-120 -700h166l120 700h-166zM242 557l138 -1q29 -1 50.5 -12.5t31 -31t4.5 -46.5q-6 -31 -23.5 -50t-44.5 -30t-58 -12h-130l-23 -133h152q80 1 144 30t105 80t52 120q10 68 -16.5 119.5t-82 80t-134.5 29.5h-141zM278 -61
l-129 -256l112 -24l163 247z" />
    <glyph glyph-name="uni0157" unicode="&#x157;" horiz-adv-x="399" 
d="M255 460h-148l-79 -460h147zM360 304l83 128q-13 15 -33.5 26.5t-44.5 12.5q-46 1 -82.5 -27t-62.5 -72t-34 -91l29 -53q6 27 18.5 50.5t31 37.5t43.5 13q17 0 29 -7.5t23 -17.5zM59 -61l-129 -256l112 -24l164 247z" />
    <glyph glyph-name="Rcaron" unicode="&#x158;" horiz-adv-x="628" 
d="M270 317l136 -317h191l-158 317h-169zM164 700l-120 -700h166l120 700h-166zM242 557l138 -1q29 -1 50.5 -12.5t31 -31t4.5 -46.5q-6 -31 -23.5 -50t-44.5 -30t-58 -12h-130l-23 -133h152q80 1 144 30t105 80t52 120q10 68 -16.5 119.5t-82 80t-134.5 29.5h-141zM428 904
l-74 85l-112 -70l172 -143l212 138l-96 75z" />
    <glyph glyph-name="rcaron" unicode="&#x159;" horiz-adv-x="399" 
d="M255 460h-148l-79 -460h147zM360 304l83 128q-13 15 -33.5 26.5t-44.5 12.5q-46 1 -82.5 -27t-62.5 -72t-34 -91l29 -53q6 27 18.5 50.5t31 37.5t43.5 13q17 0 29 -7.5t23 -17.5zM307 659l-72 83l-114 -68l173 -143l212 138l-95 73z" />
    <glyph glyph-name="Sacute" unicode="&#x15a;" horiz-adv-x="607" 
d="M161 251l-126 -83q15 -58 51 -100t85.5 -66t112.5 -24q75 0 138.5 25t104.5 73.5t51 119.5q5 40 -3.5 73.5t-27.5 61t-48 48t-64 34.5q-21 9 -46.5 18t-46.5 21t-32.5 26.5t-6.5 33.5q4 17 17.5 31.5t32.5 22t41 7.5q26 -1 45 -11.5t32.5 -30t25.5 -41.5l133 71
q-13 43 -42 78t-76 56t-110 21q-67 0 -124.5 -24t-96.5 -68t-48 -105q-6 -43 5.5 -78t35 -61t52.5 -45.5t58 -32.5q31 -15 60.5 -27.5t46 -31t10.5 -50.5q-5 -21 -19 -36.5t-34 -23t-45 -6.5q-28 -1 -48.5 8t-37.5 25.5t-31 40t-25 50.5zM618 923l-107 56l-170 -156l80 -46z
" />
    <glyph glyph-name="sacute" unicode="&#x15b;" horiz-adv-x="442" 
d="M79 174l-74 -98q25 -29 58 -50t72.5 -33t86.5 -11q51 0 93 16t68.5 49t32.5 83q4 36 -9.5 62.5t-38.5 45t-56 31.5q-19 7 -44.5 16t-42.5 20t-14 26q2 16 19 22.5t36 6.5q20 0 42 -7.5t41.5 -20t36.5 -28.5l65 97q-22 20 -51 35.5t-62 24.5t-71 9q-45 -1 -88.5 -15.5
t-72.5 -44t-36 -73.5q-5 -36 7 -62t34.5 -45t50.5 -33q15 -7 33.5 -14t36 -14.5t27.5 -16.5t8 -22q-2 -17 -19 -24.5t-34 -6.5q-21 0 -43 8t-44.5 25t-47.5 42zM483 678l-109 54l-170 -156l82 -44z" />
    <glyph glyph-name="Scircumflex" unicode="&#x15c;" horiz-adv-x="607" 
d="M161 251l-126 -83q15 -58 51 -100t85.5 -66t112.5 -24q75 0 138.5 25t104.5 73.5t51 119.5q5 40 -3.5 73.5t-27.5 61t-48 48t-64 34.5q-21 9 -46.5 18t-46.5 21t-32.5 26.5t-6.5 33.5q4 17 17.5 31.5t32.5 22t41 7.5q26 -1 45 -11.5t32.5 -30t25.5 -41.5l133 71
q-13 43 -42 78t-76 56t-110 21q-67 0 -124.5 -24t-96.5 -68t-48 -105q-6 -43 5.5 -78t35 -61t52.5 -45.5t58 -32.5q31 -15 60.5 -27.5t46 -31t10.5 -50.5q-5 -21 -19 -36.5t-34 -23t-45 -6.5q-28 -1 -48.5 8t-37.5 25.5t-31 40t-25 50.5zM435 861l75 -85l112 70l-173 143
l-211 -137l94 -76z" />
    <glyph glyph-name="scircumflex" unicode="&#x15d;" horiz-adv-x="442" 
d="M79 174l-74 -98q25 -29 58 -50t72.5 -33t86.5 -11q51 0 93 16t68.5 49t32.5 83q4 36 -9.5 62.5t-38.5 45t-56 31.5q-19 7 -44.5 16t-42.5 20t-14 26q2 16 19 22.5t36 6.5q20 0 42 -7.5t41.5 -20t36.5 -28.5l65 97q-22 20 -51 35.5t-62 24.5t-71 9q-45 -1 -88.5 -15.5
t-72.5 -44t-36 -73.5q-5 -36 7 -62t34.5 -45t50.5 -33q15 -7 33.5 -14t36 -14.5t27.5 -16.5t8 -22q-2 -17 -18.5 -24.5t-34.5 -6.5q-21 0 -43 8t-44.5 25t-47.5 42zM312 616l75 -85l111 68l-172 143l-212 -137l95 -74z" />
    <glyph glyph-name="Scedilla" unicode="&#x15e;" horiz-adv-x="607" 
d="M161 251l-126 -83q15 -58 51 -100t85.5 -66t112.5 -24q74 0 137 25t105 73.5t52 119.5q5 40 -3.5 73.5t-27.5 61t-48 48t-64 34.5q-21 9 -46.5 18t-46.5 21t-32.5 26t-6.5 34q3 17 15.5 31.5t31.5 22t41 7.5q25 -1 45 -11.5t34.5 -29.5t26.5 -42l133 71q-13 44 -42 78.5
t-76 55.5t-110 21q-69 0 -127 -24.5t-95.5 -68.5t-46.5 -104q-6 -46 5.5 -80.5t34.5 -60.5t52 -44.5t59 -31.5q31 -15 60.5 -27.5t46 -31t10.5 -50.5q-5 -21 -19 -36.5t-34 -23t-45 -6.5q-28 -1 -48.5 8t-37.5 25.5t-31 40t-25 50.5zM263 60l-116 -192q25 7 48.5 11t37.5 3
q12 0 23.5 -3t20 -9.5t7.5 -17.5q-2 -12 -12 -20t-23 -12.5t-26 -4.5q-18 0 -37.5 7t-35.5 17l-53 -66q32 -21 65 -31t72 -9q32 0 63.5 13t53 36t26.5 58q4 29 -6 51t-29.5 34t-40.5 13q-9 0 -17.5 -1t-16.5 -2l108 122z" />
    <glyph glyph-name="scedilla" unicode="&#x15f;" horiz-adv-x="442" 
d="M80 175l-75 -98q28 -29 62 -50t73.5 -33t85.5 -12q49 0 90.5 16t67.5 49t32 83q5 36 -8.5 63t-39 46t-56.5 32q-20 7 -43.5 15t-39 20t-11.5 29q3 15 19.5 23t37.5 8q30 1 58.5 -18t52.5 -43l65 96q-37 30 -83 49.5t-101 19.5q-45 0 -85.5 -15.5t-67.5 -44t-33 -71.5
q-5 -40 8.5 -67t39 -45.5t58.5 -31.5q20 -7 40 -15t32 -20t9 -29q-3 -18 -18.5 -27t-34.5 -9q-20 -1 -41 8t-44.5 28t-49.5 44zM199 63l-114 -193q24 9 46.5 13t37.5 3q11 0 23 -3.5t21 -10t7 -18.5q-1 -12 -11 -19.5t-24 -12.5t-27 -5q-18 0 -37 7.5t-35 18.5l-52 -66
q31 -20 63.5 -30.5t72.5 -9.5q31 0 63 12.5t54 36.5t27 58q3 28 -7 50t-29.5 34.5t-41.5 13.5q-8 0 -16 -1t-17 -2l109 121z" />
    <glyph glyph-name="Scaron" unicode="&#x160;" horiz-adv-x="607" 
d="M161 251l-126 -83q15 -58 51 -100t85.5 -66t112.5 -24q75 0 138.5 25t104.5 73.5t51 119.5q5 40 -3.5 73.5t-27.5 61t-48 48t-64 34.5q-21 9 -46.5 18t-46.5 21t-32.5 26.5t-6.5 33.5q4 17 17.5 31.5t32.5 22t41 7.5q26 -1 45 -11.5t32.5 -30t25.5 -41.5l133 71
q-13 43 -42 78t-76 56t-110 21q-67 0 -124.5 -24t-96.5 -68t-48 -105q-6 -43 5.5 -78t35 -61t52.5 -45.5t58 -32.5q31 -15 60.5 -27.5t46 -31t10.5 -50.5q-5 -21 -19 -36.5t-34 -23t-45 -6.5q-28 -1 -48.5 8t-37.5 25.5t-31 40t-25 50.5zM435 904l-73 85l-112 -70l171 -143
l213 138l-96 75z" />
    <glyph glyph-name="scaron" unicode="&#x161;" horiz-adv-x="442" 
d="M79 174l-74 -98q25 -29 58 -50t72.5 -33t86.5 -11q51 0 93 16t68.5 49t32.5 83q4 36 -9.5 62.5t-38.5 45t-56 31.5q-19 7 -44.5 16t-42.5 20t-14 26q2 16 19 22.5t36 6.5q20 0 42 -7.5t41.5 -20t36.5 -28.5l65 97q-22 20 -51 35.5t-62 24.5t-71 9q-45 -1 -88.5 -15.5
t-72.5 -44t-36 -73.5q-5 -36 7 -62t34.5 -45t50.5 -33q15 -7 33.5 -14t36 -14.5t27.5 -16.5t8 -22q-2 -17 -18.5 -24.5t-34.5 -6.5q-21 0 -43 8t-44.5 25t-47.5 42zM297 646l-72 84l-114 -69l172 -143l213 138l-95 73z" />
    <glyph glyph-name="uni0162" unicode="&#x162;" horiz-adv-x="544" 
d="M192 15l-115 -194q25 7 47.5 11.5t37.5 3.5q12 0 23.5 -3t20.5 -9.5t7 -17.5q-1 -12 -11 -20t-23.5 -12.5t-26.5 -4.5q-18 -1 -37 6.5t-35 17.5l-54 -65q31 -22 64 -32.5t74 -9.5q32 1 62.5 13.5t53 36.5t27.5 59q3 29 -6.5 50.5t-29 34t-42.5 13.5q-8 0 -17 -1t-16 -2
l110 122zM70 548h186l-95 -548h168l95 548h185l26 152h-539z" />
    <glyph glyph-name="uni0163" unicode="&#x163;" horiz-adv-x="308" 
d="M74 14l-115 -194q25 7 47.5 11.5t37.5 3.5q12 0 23.5 -3t20.5 -9.5t7 -17.5q-1 -12 -11 -20t-23.5 -12.5t-26.5 -4.5q-18 -1 -37 6.5t-35 17.5l-54 -65q31 -22 64 -32.5t74 -9.5q32 1 62.5 13.5t53 36.5t27.5 59q3 29 -6.5 50.5t-29 34t-42.5 13.5q-8 0 -17 -1t-16 -2
l110 122zM56 460l-22 -125h302l21 125h-301zM161 620l-106 -620h144l107 620h-145z" />
    <glyph glyph-name="Tcaron" unicode="&#x164;" horiz-adv-x="544" 
d="M70 548h186l-95 -548h168l95 548h185l26 152h-539zM396 904l-73 85l-114 -70l173 -143l212 138l-95 75z" />
    <glyph glyph-name="tcaron" unicode="&#x165;" horiz-adv-x="469" 
d="M55 460l-21 -125h301l22 125h-302zM161 620l-106 -620h144l107 620h-145zM475 785l-129 -256l111 -24l165 247z" />
    <glyph glyph-name="Tbar" unicode="&#x166;" horiz-adv-x="561" 
d="M108.45 302h329.178l36.2246 131h-329.177zM70 548h186l-95 -548h168l95 548h185l26 152h-539z" />
    <glyph glyph-name="tbar" unicode="&#x167;" horiz-adv-x="318" 
d="M11 134h209l23 131h-209zM56 460l-22 -125h302l21 125h-301zM161 620l-106 -620h144l107 620h-145z" />
    <glyph glyph-name="Utilde" unicode="&#x168;" horiz-adv-x="680" 
d="M159 700l-80 -470q-8 -60 5.5 -108t45.5 -82t78.5 -51.5t105.5 -17.5t112 17.5t95 51.5t69.5 81.5t37.5 108.5l80 470h-167l-79 -457q-7 -32 -24 -60t-44.5 -44t-64.5 -15q-35 0 -55 16.5t-26.5 44t-1.5 57.5l80 458h-167zM265 843l66 -63q4 9 10.5 20t16 19.5t27.5 10.5
q23 1 43.5 -11.5t40 -26t43.5 -13.5q30 -1 57 11.5t48.5 32.5t34.5 39l-61 76q-16 -20 -34.5 -36.5t-39.5 -16.5q-18 -1 -33 6.5t-28 18t-27.5 18t-35.5 8.5q-29 0 -55 -13.5t-46.5 -34.5t-26.5 -45z" />
    <glyph glyph-name="utilde" unicode="&#x169;" 
d="M325 0h150l79 460h-149zM215 180l50 280h-158l-50 -295q-6 -52 5.5 -91.5t43 -62t88.5 -22.5q56 1 95.5 28.5t62.5 72.5t32 95l-28 -5q-5 -23 -19 -42t-33.5 -31t-42.5 -10t-34 14t-12.5 29.5t0.5 39.5zM161 597l65 -62q5 9 11.5 20t17.5 19.5t27 10.5q24 1 43.5 -11.5
t39.5 -26.5t44 -15q30 -1 57 13t49 33t34 38l-63 76q-15 -20 -32.5 -35.5t-39.5 -15.5q-18 -1 -32.5 6t-28 17t-28.5 18t-35 9q-31 0 -56 -13.5t-44 -35t-29 -45.5z" />
    <glyph glyph-name="Umacron" unicode="&#x16a;" horiz-adv-x="680" 
d="M159 700l-80 -470q-8 -60 5.5 -108t45.5 -82t78.5 -51.5t105.5 -17.5t112 17.5t95 51.5t69.5 81.5t37.5 108.5l80 470h-167l-79 -457q-7 -34 -24.5 -61t-44.5 -43t-63 -15q-36 0 -56 16.5t-26.5 43.5t-1.5 58l80 458h-167zM265 776h364l20 132h-363z" />
    <glyph glyph-name="umacron" unicode="&#x16b;" 
d="M325 0h150l79 460h-149zM215 180l50 280h-158l-50 -295q-6 -52 5.5 -91.5t43 -62t88.5 -22.5q56 1 95.5 28.5t62.5 72.5t32 95l-28 -5q-5 -23 -19 -42t-33.5 -31t-42.5 -10t-34 14t-12.5 29.5t0.5 39.5zM162 531h364l21 131h-365z" />
    <glyph glyph-name="Ubreve" unicode="&#x16c;" horiz-adv-x="680" 
d="M159 700l-80 -470q-8 -60 5.5 -108t45.5 -82t78.5 -51.5t105.5 -17.5t112 17.5t95 51.5t69.5 81.5t37.5 108.5l80 470h-167l-79 -457q-7 -33 -24 -60.5t-44.5 -43.5t-64.5 -15q-35 0 -55 16.5t-26.5 44t-1.5 57.5l80 458h-167zM310 922q-2 -42 13 -74.5t47.5 -52
t82.5 -19.5q49 0 85.5 19.5t60.5 51.5t32 74l-99 1q-5 -15 -16 -29t-26 -22.5t-33 -7.5q-19 1 -30.5 9t-16 21t-5.5 29h-95z" />
    <glyph glyph-name="ubreve" unicode="&#x16d;" 
d="M325 0h150l79 460h-149zM215 180l50 280h-158l-50 -295q-6 -52 5.5 -91.5t43 -62t88.5 -22.5q56 1 95.5 28.5t62.5 72.5t32 95l-28 -5q-5 -23 -19 -42t-33.5 -31t-42.5 -10t-34 14t-12.5 29.5t0.5 39.5zM206 678q-2 -44 13.5 -76t48.5 -51.5t82 -19.5q50 0 87 19.5
t59.5 51.5t31.5 75h-100q-4 -16 -14.5 -29.5t-25.5 -22t-34 -7.5t-30 9t-16.5 21t-4.5 30h-97z" />
    <glyph glyph-name="Uring" unicode="&#x16e;" horiz-adv-x="680" 
d="M159 700l-79 -470q-9 -60 4.5 -108t45.5 -82t78 -51.5t105 -17.5q60 0 113 17.5t94.5 51.5t69.5 81.5t38 108.5l80 470h-167l-79 -457q-7 -34 -24.5 -61t-44 -43t-62.5 -15q-37 0 -56.5 16.5t-26.5 43t-2 58.5l79 458h-166zM342 894q-4 -33 8.5 -60.5t38.5 -42t61 -14.5
q34 0 63 14.5t49.5 41t25.5 58.5q5 33 -8.5 60t-39 42t-58.5 16q-35 0 -65.5 -15t-50 -41.5t-24.5 -58.5zM420 891q1 13 10 24t21.5 18.5t24.5 6.5q17 -1 26 -15.5t7 -31.5q-2 -13 -10.5 -23.5t-20.5 -18t-23 -6.5q-17 0 -27 14t-8 32z" />
    <glyph glyph-name="uring" unicode="&#x16f;" 
d="M325 0h150l79 460h-149zM215 180l50 280h-157l-51 -295q-6 -52 5 -91.5t43 -62t87 -22.5q58 1 97 28.5t62.5 72.5t32.5 95l-27 -5q-6 -23 -19.5 -42t-33 -31t-43.5 -10q-23 1 -33.5 13.5t-12.5 30t0 39.5zM238 648q-4 -33 9 -59.5t39.5 -41.5t59.5 -15q34 0 64 14.5
t50 40.5t25 58q5 33 -8.5 59.5t-39.5 41.5t-59 16q-34 0 -64 -15t-50.5 -40.5t-25.5 -58.5zM317 644q2 13 11 24t22 18.5t22 7.5q19 -2 28 -15.5t7 -30.5q-1 -13 -10.5 -24t-21 -18t-24.5 -6q-18 0 -27 14t-7 30z" />
    <glyph glyph-name="Uhungarumlaut" unicode="&#x170;" horiz-adv-x="680" 
d="M350 777l173 184l-125 33l-143 -188zM543 777l173 184l-127 33l-141 -188zM159 700l-79 -470q-9 -60 4.5 -107.5t45.5 -82t78.5 -52t105.5 -17.5q61 0 114.5 17.5t94.5 51.5t68 81.5t37 108.5l80 470h-167l-79 -457q-6 -34 -23 -61t-43.5 -43t-64.5 -15q-37 0 -56.5 16.5
t-26.5 43t-2 58.5l79 458h-166z" />
    <glyph glyph-name="uhungarumlaut" unicode="&#x171;" 
d="M247 531l173 184l-125 33l-143 -188zM440 531l173 184l-127 33l-141 -188zM215 180l50 280h-157l-51 -295q-7 -51 4.5 -90.5t44 -62.5t87.5 -23q48 0 83 21t59 55l-10 -65h150l79 460h-149l-50 -283q-4 -25 -17.5 -43t-33.5 -27.5t-43 -9.5t-33.5 12t-12.5 30.5t0 40.5z
" />
    <glyph glyph-name="Uogonek" unicode="&#x172;" horiz-adv-x="680" 
d="M338 -131q-11 -8 -25 -14.5t-28 -5.5q-16 1 -22 10.5t-4 25.5q3 19 16.5 35.5t34 31t42.5 27.5l-39 25q-34 -16 -68 -36t-58 -46t-28 -62q-4 -32 9 -54t37 -34t55 -13q35 0 59.5 11.5t42.5 27.5zM159 700l-79 -470q-9 -60 4.5 -107.5t45.5 -82t78.5 -52t105.5 -17.5
q61 0 114.5 17.5t94.5 51.5t68 81.5t37 108.5l80 470h-167l-79 -457q-6 -34 -23 -61t-43.5 -43t-64.5 -15q-37 0 -56.5 16.5t-26.5 43t-2 58.5l79 458h-166z" />
    <glyph glyph-name="uogonek" unicode="&#x173;" 
d="M220 -123q-11 -8 -25 -14.5t-28 -5.5q-16 1 -22 10.5t-4 25.5q3 19 16.5 35.5t34 31t42.5 27.5l-39 25q-34 -16 -68 -36t-58 -46t-28 -62q-4 -32 9 -54t37 -34t55 -13q35 0 59.5 11.5t42.5 27.5zM215 180l50 280h-157l-51 -295q-7 -51 4.5 -90.5t44 -62.5t87.5 -23
q48 0 83 21t59 55l-10 -65h150l79 460h-149l-50 -283q-4 -25 -17.5 -43t-33.5 -27.5t-43 -9.5t-33.5 12t-12.5 30.5t0 40.5z" />
    <glyph glyph-name="Wcircumflex" unicode="&#x174;" horiz-adv-x="1033" 
d="M730 288l-116 450l-265 -448l-59 410h-193l173 -743l291 421l148 -420l416 742h-202zM642 882l74 -85l112 69l-173 142l-211 -136l95 -74z" />
    <glyph glyph-name="wcircumflex" unicode="&#x175;" horiz-adv-x="739" 
d="M45 460l148 -491l192 272l100 -272l318 491h-162l-134 -233l-82 271l-175 -269l-51 231h-154zM453 642l74 -85l111 69l-171 142l-212 -137l96 -73z" />
    <glyph glyph-name="Ycircumflex" unicode="&#x176;" horiz-adv-x="640" 
d="M542 700l-176 -259l-86 259h-186l165 -411l-51 -289h172l47 281l313 419h-198zM440 861l74 -85l112 71l-173 142l-211 -137l97 -75z" />
    <glyph glyph-name="ycircumflex" unicode="&#x177;" horiz-adv-x="506" 
d="M571 460h-158l-206 -367l79 -2l-81 369h-161l121 -418l-157 -261h155zM332 616l73 -85l112 69l-173 142l-211 -137l95 -73z" />
    <glyph glyph-name="Ydieresis" unicode="&#x178;" horiz-adv-x="640" 
d="M219 871q-5 -36 16.5 -59t58.5 -24q34 -1 63.5 22.5t33.5 57.5q5 34 -17.5 58.5t-57.5 24.5q-36 1 -64 -23.5t-33 -56.5zM492 871q-5 -36 17.5 -59t57.5 -24t64 22.5t34 57.5q4 34 -18 58.5t-58 24.5q-35 1 -64 -23.5t-33 -56.5zM543 700l-177 -260l-86 260h-187
l166 -411l-51 -289h172l47 281l313 419h-197z" />
    <glyph glyph-name="Zacute" unicode="&#x179;" horiz-adv-x="601" 
d="M121 548h268l-411 -548h550l26 146l-285 1l415 553h-537zM622 923l-110 56l-170 -156l83 -46z" />
    <glyph glyph-name="zacute" unicode="&#x17a;" horiz-adv-x="506" 
d="M274 322l-290 -322h452l23 138l-190 1l280 321h-442l-24 -138h191zM533 685l-108 55l-171 -156l82 -45z" />
    <glyph glyph-name="Zdotaccent" unicode="&#x17b;" horiz-adv-x="601" 
d="M121 548h268l-411 -548h550l26 146l-285 1l415 553h-537zM354 860q-5 -35 17.5 -59t58.5 -24q34 -1 63.5 23t34.5 57q4 35 -18.5 58.5t-57.5 24.5q-36 0 -65 -23t-33 -57z" />
    <glyph glyph-name="zdotaccent" unicode="&#x17c;" horiz-adv-x="506" 
d="M274 322l-290 -322h452l23 138l-190 1l280 321h-442l-24 -138h191zM267 625q-5 -35 17.5 -58.5t58.5 -23.5q34 -1 63.5 22t34.5 58q4 34 -19 58t-57 25q-37 0 -65.5 -23.5t-32.5 -57.5z" />
    <glyph glyph-name="Zcaron" unicode="&#x17d;" horiz-adv-x="601" 
d="M121 548h268l-411 -548h550l26 146l-285 1l415 553h-537zM444 904l-73 85l-112 -70l172 -143l213 138l-97 75z" />
    <glyph glyph-name="zcaron" unicode="&#x17e;" horiz-adv-x="501" 
d="M355 658l-73 83l-112 -68l172 -143l212 138l-95 73zM274 322l-290 -322h452l23 138l-191 1l281 321h-442l-24 -138h191z" />
    <glyph glyph-name="florin" unicode="&#x192;" horiz-adv-x="600" 
d="M128 -200q49 0 88.5 20.5t67 59t37.5 86.5l80 369h91l27 125h-90l32 131q7 31 23 50.5t36 19.5q9 0 19.5 -5.5t24.5 -19.5l72 107q-34 29 -62 41t-60 11q-46 1 -86.5 -20t-68 -58.5t-39.5 -87.5l-36 -169h-67l-28 -125h69l-77 -331q-8 -31 -24 -50.5t-35 -19.5
q-11 0 -20.5 6t-22.5 20l-74 -107q35 -28 63 -40.5t60 -12.5z" />
    <glyph glyph-name="uni0212" unicode="&#x212;" horiz-adv-x="628" 
d="M270 317l136 -317h191l-158 317h-169zM164 700l-120 -700h166l120 700h-166zM242 557l138 -1q29 -1 50.5 -12.5t31 -31t4.5 -46.5q-6 -31 -23.5 -50t-44.5 -30t-58 -12h-130l-23 -133h152q80 1 144 30t105 80t52 120q10 68 -16.5 119.5t-82 80t-134.5 29.5h-141zM263 775
q12 41 37 74t63 53t89 20q49 -1 79 -21t42 -52.5t7 -72.5h-94q0 16 -5.5 29.5t-17.5 22t-32 8.5q-18 0 -33.5 -8.5t-25.5 -22t-14 -29.5z" />
    <glyph glyph-name="uni0213" unicode="&#x213;" horiz-adv-x="399" 
d="M255 460h-148l-79 -460h147zM360 304l83 128q-13 15 -33.5 26.5t-44.5 12.5q-46 1 -82.5 -27t-62.5 -72t-34 -91l29 -53q6 27 18.5 50.5t31 37.5t43.5 13q17 0 29 -7.5t23 -17.5zM130 530q11 41 36 74.5t64 53.5t90 20q49 -1 78.5 -20.5t42 -53t7.5 -73.5h-95
q0 17 -6 30.5t-18 21t-30 8.5q-19 1 -34.5 -7.5t-25.5 -22.5t-14 -30z" />
    <glyph glyph-name="uni0218" unicode="&#x218;" horiz-adv-x="607" 
d="M161 251l-126 -83q15 -58 51 -100t85.5 -66t112.5 -24q75 0 138.5 25t104.5 73.5t51 119.5q5 40 -3.5 73.5t-27.5 61t-48 48t-64 34.5q-21 9 -46.5 18t-46.5 21t-32.5 26.5t-6.5 33.5q4 17 17.5 31.5t32.5 22t41 7.5q26 -1 45 -11.5t32.5 -30t25.5 -41.5l133 71
q-13 43 -42 78t-76 56t-110 21q-67 0 -124.5 -24t-96.5 -68t-48 -105q-6 -43 5.5 -78t35 -61t52.5 -45.5t58 -32.5q31 -15 60.5 -27.5t46 -31t10.5 -50.5q-5 -21 -19 -36.5t-34 -23t-45 -6.5q-28 -1 -48.5 8t-37.5 25.5t-31 40t-25 50.5zM213 -71l-129 -256l112 -24l164 247
z" />
    <glyph glyph-name="uni0219" unicode="&#x219;" horiz-adv-x="442" 
d="M79 174l-74 -98q25 -29 58 -50t72.5 -33t86.5 -11q51 0 93 16t68.5 49t32.5 83q4 36 -9.5 62.5t-38.5 45t-56 31.5q-19 7 -44.5 16t-42.5 20t-14 26q2 16 19 22.5t36 6.5q20 0 42 -7.5t41.5 -20t36.5 -28.5l65 97q-22 20 -51 35.5t-62 24.5t-71 9q-45 -1 -88.5 -15.5
t-72.5 -44t-36 -73.5q-5 -36 7 -62t34.5 -45t50.5 -33q15 -7 33.5 -14t36 -14.5t27.5 -16.5t8 -22q-2 -17 -19 -24.5t-34 -6.5q-21 0 -43 8t-44.5 25t-47.5 42zM151 -68l-129 -256l114 -24l162 247z" />
    <glyph glyph-name="uni021A" unicode="&#x21a;" horiz-adv-x="544" 
d="M70 548h186l-95 -548h168l95 548h185l26 152h-539zM201 -60l-129 -256l112 -24l165 247z" />
    <glyph glyph-name="uni021B" unicode="&#x21b;" horiz-adv-x="308" 
d="M56 460l-22 -125h302l21 125h-301zM161 620l-106 -620h144l107 620h-145zM83 -60l-129 -256l112 -24l165 247z" />
    <glyph glyph-name="uni0237" unicode="&#x237;" horiz-adv-x="263" 
d="M-77 -76l-74 -110q14 -13 30.5 -25t38 -19.5t51.5 -7.5q55 -1 95.5 20.5t66 59t33.5 86.5l91 532h-145l-86 -493q-3 -18 -11 -35t-20.5 -25.5t-29.5 -7.5q-12 0 -22 6t-18 19z" />
    <glyph glyph-name="circumflex" unicode="&#x2c6;" horiz-adv-x="465" 
d="M317 628l73 -84l114 69l-173 142l-213 -136l96 -74z" />
    <glyph glyph-name="caron" unicode="&#x2c7;" horiz-adv-x="465" 
d="M318 678l-73 85l-114 -70l173 -142l213 137l-97 74z" />
    <glyph glyph-name="breve" unicode="&#x2d8;" horiz-adv-x="529" 
d="M219 850q-3 -43 12 -75.5t47.5 -51t82.5 -17.5q49 0 85.5 18.5t59.5 50.5t32 74l-99 1q-5 -16 -15 -29.5t-25 -21t-33 -6.5q-18 0 -30 7.5t-17.5 20.5t-5.5 29h-94z" />
    <glyph glyph-name="dotaccent" unicode="&#x2d9;" horiz-adv-x="291" 
d="M171 815q-4 -36 19 -59.5t59 -23.5t64 23t32 57q3 36 -21 60t-60 24t-63 -23.5t-30 -57.5z" />
    <glyph glyph-name="ring" unicode="&#x2da;" horiz-adv-x="318" 
d="M141 771q-5 -34 8.5 -60t38.5 -41t60 -15q33 0 62.5 14.5t50.5 40t26 58.5q4 33 -9.5 59.5t-39.5 42t-58 15.5q-35 0 -64.5 -15t-50 -41t-24.5 -58zM218 768q2 12 11 23.5t21 18.5t24 7q17 -2 27 -15.5t8 -31.5q-2 -13 -10.5 -24t-22.5 -17.5t-23 -5.5q-18 1 -27.5 15
t-7.5 30z" />
    <glyph glyph-name="ogonek" unicode="&#x2db;" horiz-adv-x="252" 
d="M153 -110q-11 -8 -25 -14.5t-28 -5.5q-16 1 -22 10.5t-4 25.5q3 19 16.5 35.5t34 31t42.5 27.5l-39 25q-34 -16 -68 -36t-58 -46t-28 -62q-4 -32 9 -54t37 -34t55 -13q35 0 59.5 11.5t42.5 27.5z" />
    <glyph glyph-name="tilde" unicode="&#x2dc;" horiz-adv-x="514" 
d="M153 640l65 -64q4 9 10 20t16.5 20t27.5 10q23 1 42.5 -11.5t39.5 -26.5t45 -14q29 -2 57 11.5t50 33.5t35 40l-64 74q-16 -19 -33 -35t-39 -17q-19 -1 -33 6.5t-27.5 17.5t-28.5 18.5t-36 9.5q-31 0 -55.5 -14t-43 -35t-28.5 -44z" />
    <glyph glyph-name="hungarumlaut" unicode="&#x2dd;" horiz-adv-x="0" 
d="M124 519l173 184l-125 33l-143 -188zM317 519l173 184l-127 33l-141 -188z" />
    <glyph glyph-name="gravecomb" unicode="&#x300;" horiz-adv-x="0" 
d="M243 536l85 42l-123 160l-117 -52z" />
    <glyph glyph-name="acutecomb" unicode="&#x301;" horiz-adv-x="0" 
d="M174 535l205 150l-117 56l-177 -160z" />
    <glyph glyph-name="uni0302" unicode="&#x302;" horiz-adv-x="0" 
d="M137 550l139 99h-36l102 -99l80 85l-150 122l-193 -122z" />
    <glyph glyph-name="tildecomb" unicode="&#x303;" horiz-adv-x="0" 
d="M141 574q2 12 11 23.5t24 19t32 7.5q16 0 28.5 -8.5t25.5 -18.5t28 -18t37 -8q30 0 59.5 14t53.5 34.5t36 38.5l-58 75q-21 -24 -41.5 -38.5t-41.5 -14.5q-18 0 -30 8t-22 18t-24 18.5t-40 8.5q-28 0 -57 -14t-50.5 -35t-31.5 -46z" />
    <glyph glyph-name="uni0304" unicode="&#x304;" horiz-adv-x="0" 
d="M68 566h372l18 109h-372z" />
    <glyph glyph-name="uni0306" unicode="&#x306;" horiz-adv-x="0" 
d="M232 546q48 0 87.5 18t64.5 51.5t33 76.5h-116q-3 -17 -11.5 -30.5t-21 -21t-25.5 -7.5q-15 0 -24.5 7.5t-13 21t-0.5 30.5h-116q-8 -43 8 -76.5t50.5 -51.5t84.5 -18z" />
    <glyph glyph-name="uni0307" unicode="&#x307;" horiz-adv-x="0" 
d="M163 531q38 0 63 24.5t25 58.5q0 35 -25 59t-63 24q-37 0 -62.5 -24t-25.5 -59q0 -34 25.5 -58.5t62.5 -24.5z" />
    <glyph glyph-name="uni0308" unicode="&#x308;" horiz-adv-x="0" 
d="M206 550q39 0 63 23t24 58q0 37 -24.5 60t-63.5 23t-63.5 -23t-24.5 -59t25 -59t64 -23zM370 550q38 0 63 23t25 58q0 37 -25 60t-63 23q-40 0 -64.5 -23t-24.5 -59t24.5 -59t64.5 -23z" />
    <glyph glyph-name="uni030A" unicode="&#x30a;" horiz-adv-x="0" 
d="M188 520q37 0 69.5 15.5t54 42.5t26.5 61q6 34 -6.5 61.5t-39.5 43t-63 15.5q-38 0 -69.5 -15.5t-52.5 -43t-27 -60.5q-8 -52 23 -86t85 -34zM201 590q-23 0 -33.5 14t-6.5 35q3 23 18.5 36.5t38.5 13.5q19 0 31 -14t8 -35t-20.5 -35.5t-35.5 -14.5z" />
    <glyph glyph-name="uni030B" unicode="&#x30b;" horiz-adv-x="0" 
d="M124 519l173 184l-125 33l-143 -188zM317 519l173 184l-127 33l-141 -188z" />
    <glyph glyph-name="uni030C" unicode="&#x30c;" horiz-adv-x="0" 
d="M237 550l192 124l-58 83l-140 -99h39l-103 99l-81 -83z" />
    <glyph glyph-name="uni0312" unicode="&#x312;" horiz-adv-x="0" 
d="M209 498l131 258l-109 24l-169 -250z" />
    <glyph glyph-name="uni0326" unicode="&#x326;" horiz-adv-x="0" 
d="M25 -211l145 145l-106 46l-120 -156z" />
    <glyph glyph-name="uni0327" unicode="&#x327;" horiz-adv-x="0" 
d="M60 -216q36 0 65.5 13.5t49 37.5t24.5 54q5 33 -12 57t-49 24q-26 0 -50 -3.5t-42 -9.5l54 -14l83 125l-91 3l-93 -153q15 2 33.5 2h31.5q23 0 33 -7t8 -21q-3 -16 -14.5 -26t-31.5 -10t-40.5 5.5t-36.5 13.5l-40 -62q23 -14 54 -21.5t64 -7.5z" />
    <glyph glyph-name="uni0328" unicode="&#x328;" horiz-adv-x="0" 
d="M54 -220q41 0 66.5 12.5t39.5 27.5l-21 69q-12 -10 -25.5 -15t-28.5 -5q-17 0 -24 9t-4 28q2 16 13.5 32t32 32t49.5 30l-42 25q-38 -18 -71.5 -39t-56.5 -47t-29 -59q-6 -32 7 -54.5t38 -34t56 -11.5z" />
    <glyph glyph-name="uni0394" unicode="&#x394;" horiz-adv-x="600" 
d="M-27 0l416 800l147 -800h-563zM161 115h227l-50 371z" />
    <glyph glyph-name="uni03A9" unicode="&#x3a9;" horiz-adv-x="600" 
d="M21 0l22 130l85 -12q-19 31 -32 63t-18 65.5t0 70.5q9 69 46.5 123.5t95 86.5t123.5 32q65 0 113 -32t71 -86.5t11 -123.5q-6 -36 -21 -69.5t-38.5 -65t-57.5 -64.5l89 12l-21 -130h-209l17 104q20 15 38 34t32.5 41.5t24 46t13.5 46.5q7 38 -2 66t-29 43.5t-52 15.5
q-31 0 -57 -15.5t-43.5 -43.5t-23.5 -66q-6 -30 -1.5 -61.5t17.5 -59t34 -47.5l-17 -104h-210z" />
    <glyph glyph-name="uni03BC" unicode="&#x3bc;" horiz-adv-x="570" 
d="M265 460h-157l-134 -780h146l56 337q14 -12 29 -16.5t33 -4.5q26 0 52 15.5t44 40.5l-9 -52h151l77 460h-145l-47 -256q-5 -27 -17.5 -44.5t-31 -27.5t-41.5 -10q-23 -1 -36.5 9.5t-17.5 28.5t0 41z" />
    <glyph glyph-name="pi" unicode="&#x3c0;" horiz-adv-x="584" 
d="M133 430l-74 -430h140l75 430h-141zM79 460l-21 -125h520l21 125h-520zM375 430l-52 -309q-5 -44 5.5 -69t33.5 -38t57 -17.5t76 -4.5l18 117q-17 4 -27 10t-14 19.5t-1 40.5l45 251h-141z" />
    <glyph glyph-name="uni0400" unicode="&#x400;" horiz-adv-x="560" 
d="M152 0h347l23 139h-346zM249 561h346l24 139h-347zM204 300h327l23 137h-327zM163 700l-119 -700h160l121 700h-162zM257 929l154 -153l86 40l-123 164z" />
    <glyph glyph-name="uni0401" unicode="&#x401;" horiz-adv-x="560" 
d="M152 0h347l23 139h-346zM249 561h346l24 139h-347zM204 300h327l23 137h-327zM163 700l-119 -700h160l121 700h-162zM453 860q-4 -35 18.5 -59t58.5 -24q35 -1 63.5 22.5t32.5 57.5q5 35 -19 58.5t-59 24.5q-35 0 -63.5 -23t-31.5 -57zM216 860q-3 -35 19.5 -59t58.5 -24
q35 -1 63.5 22.5t32.5 57.5q4 35 -19 58.5t-59 24.5q-35 0 -63.5 -23t-32.5 -57z" />
    <glyph glyph-name="uni0403" unicode="&#x403;" horiz-adv-x="490" 
d="M168 700l-119 -700h168l95 548h239l27 152h-410zM580 922l-109 57l-168 -156l82 -46z" />
    <glyph glyph-name="uni040C" unicode="&#x40c;" horiz-adv-x="618" 
d="M163 700l-119 -700h173l121 700h-175zM560 700l-330 -327l228 -373h193l-225 367l339 333h-205zM646 916l-111 57l-169 -155l84 -47z" />
    <glyph glyph-name="uni040D" unicode="&#x40d;" horiz-adv-x="770" 
d="M758 520l47 224l-726 -564l-46 -223zM325 700h-162l-130 -743l193 170zM805 744l-196 -177l-98 -567h163zM359 912l154 -154l83 39l-121 165z" />
    <glyph glyph-name="uni040E" unicode="&#x40e;" horiz-adv-x="586" 
d="M695 700h-175l-252 -414l74 -3l-82 417h-175l133 -481l-134 -219h172zM261 923q-2 -43 14 -75.5t48 -52t81 -19.5q50 0 86.5 19.5t60 51.5t31.5 74l-101 1q-5 -15 -15 -29t-24.5 -22t-35.5 -8q-16 1 -28 9.5t-16.5 21.5t-5.5 28z" />
    <glyph glyph-name="uni0410" unicode="&#x410;" horiz-adv-x="713" 
d="M174 135h363l11 129h-342zM411 443l53 -226l-14 -45l52 -172h184l-229 748l-490 -748h196l114 178l-1 38z" />
    <glyph glyph-name="uni0411" unicode="&#x411;" horiz-adv-x="653" 
d="M148 300l229 -1q29 0 48.5 -9.5t28 -26.5t3.5 -42q-6 -27 -22 -45.5t-40 -27.5t-54 -9h-223l-25 -139h271q65 0 121.5 28t94.5 77.5t47 113.5q8 63 -16.5 111.5t-74 77t-113.5 29.5h-254zM168 700l-119 -700h170l97 561h319l23 139h-490z" />
    <glyph glyph-name="uni0412" unicode="&#x412;" horiz-adv-x="645" 
d="M225 349h138q64 0 121.5 19t96 57t46.5 97q7 45 -9 78t-47 55.5t-74 33t-88 11.5h-245l-120 -700h275q74 1 137.5 21t104.5 62.5t50 112.5q7 53 -11 90.5t-53.5 61.5t-81 35.5t-92.5 12.5h-139l-16 -91l133 -1q21 -1 40 -5.5t31.5 -14.5t18 -25t2.5 -37q-6 -32 -25.5 -52
t-48 -29t-60.5 -9l-77 -1l79 438h69q37 -1 57 -19.5t14 -51.5q-5 -23 -20.5 -40t-38 -26t-49.5 -10h-105z" />
    <glyph glyph-name="uni0413" unicode="&#x413;" horiz-adv-x="490" 
d="M168 700l-119 -700h168l95 548h239l27 152h-410z" />
    <glyph glyph-name="uni0414" unicode="&#x414;" horiz-adv-x="856" 
d="M475 426l71 -396h188l-210 709l-456 -708h200zM622 0l-20 -110h168l45 256h-780l-44 -256h169l20 110h442z" />
    <glyph glyph-name="uni0415" unicode="&#x415;" horiz-adv-x="586" 
d="M153 0h347l24 139h-347zM249 561h347l23 139h-346zM205 300h327l23 137h-327zM163 700l-119 -700h161l121 700h-163z" />
    <glyph glyph-name="uni0416" unicode="&#x416;" horiz-adv-x="1052" 
d="M295 700h-185l223 -322l-366 -378h205l351 365zM534 700l-118 -700h173l120 700h-175zM929 700l-322 -324l226 -376h193l-232 367l346 333h-211z" />
    <glyph glyph-name="uni0417" unicode="&#x417;" horiz-adv-x="648" 
d="M326 340q57 0 113.5 9t104.5 29t80 55t40 87q9 59 -20.5 102.5t-87 67t-130.5 23.5q-80 0 -141 -27.5t-100.5 -75.5t-50.5 -114h156q8 22 25 42t43 30t59 10q28 -1 47 -10.5t28 -26t5 -37.5q-6 -30 -29.5 -49t-57.5 -29t-75 -11zM322 -15q81 0 146 24t107.5 70t51.5 112
q8 57 -14.5 95.5t-66 60.5t-99.5 33.5t-114 12.5l-12 -86q34 -2 62.5 -7.5t48.5 -16.5t29.5 -29t3.5 -46q-6 -30 -27 -49t-50.5 -28.5t-63.5 -9.5q-37 0 -60 11t-35.5 33.5t-12.5 56.5l-162 1q-5 -54 11 -97t50 -74.5t86.5 -49t120.5 -17.5z" />
    <glyph glyph-name="uni0418" unicode="&#x418;" horiz-adv-x="770" 
d="M758 520l47 224l-726 -564l-46 -223zM325 700h-162l-130 -743l193 170zM805 744l-196 -177l-98 -567h163z" />
    <glyph glyph-name="uni0419" unicode="&#x419;" horiz-adv-x="770" 
d="M758 520l47 224l-726 -564l-46 -223zM325 700h-162l-130 -743l193 170zM805 744l-196 -177l-98 -567h163zM363 922q-3 -43 13 -75.5t48 -52t81 -19.5t86 19.5t60.5 52t32.5 74.5h-101q-5 -15 -14.5 -29t-24 -22t-34.5 -7q-18 1 -29.5 8.5t-16.5 21t-5 29.5h-96z" />
    <glyph glyph-name="uni041A" unicode="&#x41a;" horiz-adv-x="681" 
d="M163 700l-119 -700h173l121 700h-175zM560 700l-330 -327l228 -373h193l-225 367l339 333h-205z" />
    <glyph glyph-name="uni041B" unicode="&#x41b;" horiz-adv-x="747" 
d="M764 700h-561l-72 -413q-5 -31 -15.5 -55.5t-26.5 -43t-38 -30.5t-48 -15l-19 -142q96 3 161.5 38t104.5 99t54 158l43 252h221l-94 -548h170z" />
    <glyph glyph-name="uni041C" unicode="&#x41c;" horiz-adv-x="865" 
d="M285 355l135 -292l230 283l-19 -346h176l18 743l-370 -431l-217 424l-235 -736h179z" />
    <glyph glyph-name="uni041D" unicode="&#x41d;" horiz-adv-x="762" 
d="M140 293h518l26 152h-518zM619 700l-119 -700h167l120 700h-168zM163 700l-119 -700h166l121 700h-168z" />
    <glyph glyph-name="uni041E" unicode="&#x41e;" horiz-adv-x="796" 
d="M241 350q8 44 28.5 81.5t51 66.5t70 46t85.5 17q44 -1 75.5 -19t49 -47.5t22.5 -67t-2 -77.5q-8 -43 -28.5 -81t-51 -67t-69 -46t-83.5 -16q-45 0 -76 18t-49.5 48t-23.5 67.5t1 76.5zM64 350q-11 -76 6 -143t58.5 -118.5t104.5 -81t143 -29.5q81 0 152.5 28t129 79.5
t94.5 119t48 145.5q11 75 -7.5 141.5t-60.5 117.5t-104 79t-141 28q-80 0 -152 -27.5t-129 -77t-94 -117t-48 -144.5z" />
    <glyph glyph-name="uni041F" unicode="&#x41f;" horiz-adv-x="748" 
d="M570 548l-95 -548h171l120 700h-598l-120 -700h172l94 548h256z" />
    <glyph glyph-name="uni0420" unicode="&#x420;" horiz-adv-x="607" 
d="M163 700l-119 -700h167l121 700h-169zM244 562l139 -1q30 -1 51 -12t29.5 -30.5t3.5 -47.5q-5 -29 -23 -48.5t-45.5 -30t-58.5 -10.5h-128l-25 -141h144q81 1 144 28.5t103.5 78t50.5 123.5q10 70 -17 121.5t-83 79t-135 28.5h-128z" />
    <glyph glyph-name="uni0421" unicode="&#x421;" horiz-adv-x="678" 
d="M248 350q8 44 30.5 81.5t55 65t73.5 42.5t84 16q43 0 76.5 -12t60 -33t47.5 -48l25 184q-42 33 -90.5 51.5t-115.5 18.5q-83 0 -155.5 -27.5t-131 -76.5t-95 -115.5t-48.5 -146.5q-11 -77 6.5 -143.5t61 -115.5t107 -77.5t145.5 -28.5q69 0 121.5 19t98.5 50l25 184
q-30 -24 -63.5 -45.5t-73 -34.5t-86.5 -12q-42 0 -75 16t-54.5 44.5t-29 64.5t0.5 79z" />
    <glyph glyph-name="uni0422" unicode="&#x422;" horiz-adv-x="546" 
d="M70 548h186l-95 -548h170l94 548h186l27 152h-542z" />
    <glyph glyph-name="uni0423" unicode="&#x423;" horiz-adv-x="599" 
d="M708 700h-183l-249 -414l72 -3l-81 417h-182l139 -481l-136 -219h179z" />
    <glyph glyph-name="uni0424" unicode="&#x424;" horiz-adv-x="905" 
d="M459 700l-119 -700h172l120 700h-173zM731 351q-10 -47 -39.5 -73t-72.5 -37.5t-95 -12.5l-132 1q-48 1 -86.5 12t-57 37t-9.5 72q10 45 39.5 72t74 38t95.5 12h133q47 -1 85 -12.5t56.5 -38t8.5 -70.5zM901 350q9 62 -9 112t-57.5 85t-94.5 54t-118 19h-195
q-88 0 -165 -32.5t-128.5 -92.5t-64.5 -144q-9 -63 9.5 -113t58.5 -85t94.5 -54t117.5 -19h196q88 0 164.5 32.5t128 92.5t63.5 145z" />
    <glyph glyph-name="uni0425" unicode="&#x425;" horiz-adv-x="693" 
d="M541 700l-142 -198l-69 198h-199l149 -335l-300 -365h212l166 229l83 -229h200l-164 353l278 347h-214z" />
    <glyph glyph-name="uni0426" unicode="&#x426;" horiz-adv-x="834" 
d="M238 152l95 548h-170l-120 -700h572l-23 -134h163l48 286h-107l94 548h-171l-95 -548h-286z" />
    <glyph glyph-name="uni0427" unicode="&#x427;" horiz-adv-x="696" 
d="M316 222l207 -1l27 151l-165 -1zM539 700l-119 -700h174l120 700h-175zM333 700h-170l-39 -232q-9 -65 9.5 -121.5t64 -90.5t118.5 -34l69 149q-34 0 -55.5 14.5t-31 41t-4.5 62.5z" />
    <glyph glyph-name="uni0428" unicode="&#x428;" horiz-adv-x="1049" 
d="M803 152h-199l95 548h-163l-95 -548h-198l95 548h-170l-120 -700h900l120 700h-170z" />
    <glyph glyph-name="uni0429" unicode="&#x429;" horiz-adv-x="1116" 
d="M803 152h-199l95 548h-163l-95 -548h-198l95 548h-170l-120 -700h845l-24 -134h163l48 286h-106l94 548h-170z" />
    <glyph glyph-name="uni042A" unicode="&#x42a;" horiz-adv-x="714" 
d="M311 319l140 -1q29 -1 49.5 -11.5t30 -30t3.5 -46.5q-5 -30 -23.5 -50t-45.5 -30.5t-58 -10.5h-127l-25 -139h143q81 1 144.5 28t103.5 78t50 123q10 70 -16.5 122t-83 79.5t-135.5 28.5h-127zM251 549l-95 -549h168l120 700h-344l-26 -151h177z" />
    <glyph glyph-name="uni042B" unicode="&#x42b;" horiz-adv-x="880" 
d="M732 700l-118 -700h171l121 700h-174zM163 700l-119 -700h166l121 700h-168zM201 319l140 -1q29 -1 50 -11.5t30 -30t4 -46.5q-6 -30 -23.5 -50t-45.5 -30.5t-58 -10.5h-129l-25 -139h144q81 1 144.5 28t103.5 78t50 123q10 71 -16.5 122.5t-83 79t-134.5 28.5h-129z" />
    <glyph glyph-name="uni042C" unicode="&#x42c;" horiz-adv-x="604" 
d="M163 700l-119 -700h166l121 700h-168zM201 319l140 -1q29 -1 50 -11.5t30 -30t4 -46.5q-6 -30 -23.5 -50t-45.5 -30.5t-58 -10.5h-129l-25 -139h144q81 1 144.5 28t103.5 78t50 123q10 71 -16.5 122.5t-83 79t-134.5 28.5h-129z" />
    <glyph glyph-name="uni042D" unicode="&#x42d;" horiz-adv-x="679" 
d="M153 282h366l24 137h-367zM517 350q-9 -46 -34 -84t-61.5 -66.5t-80.5 -44t-87 -15.5t-77.5 10.5t-61.5 29t-47 39.5l-23 -164q43 -33 91.5 -51.5t115.5 -18.5q82 0 154.5 27.5t130.5 76t95.5 115t49.5 146.5q10 77 -8 143.5t-61.5 116t-107 78t-143.5 28.5
q-69 0 -121.5 -19t-98.5 -51l-22 -164q27 20 61 37.5t74 29.5t86 11q41 -1 77.5 -17t61.5 -45t34.5 -67t2.5 -81z" />
    <glyph glyph-name="uni042E" unicode="&#x42e;" horiz-adv-x="1108" 
d="M140 293h332l26 152h-332zM163 700l-119 -700h166l121 700h-168zM553 350q8 44 28.5 81.5t51 66.5t70 46t85.5 17q44 -1 75 -19t48.5 -47.5t22.5 -67t-1 -76.5q-8 -44 -29 -82t-51 -67t-69 -46t-83 -16q-46 0 -76.5 18t-48.5 48t-23.5 67.5t0.5 76.5zM375 350
q-11 -76 6.5 -143t58.5 -118.5t104 -81t143 -29.5q82 0 153.5 28t128.5 79.5t94 119t49 145.5q10 75 -7.5 141.5t-59.5 117.5t-105 79t-141 28q-80 0 -151.5 -27.5t-129 -77t-95 -117t-48.5 -144.5z" />
    <glyph glyph-name="uni042F" unicode="&#x42f;" horiz-adv-x="628" 
d="M421 317h-184l-265 -317h202zM653 700h-171l-120 -700h171zM524 557l25 143h-154q-83 -1 -146.5 -29t-102.5 -79t-49 -120q-11 -69 15 -120.5t82.5 -80.5t136.5 -30l139 1l23 132l-141 1q-31 0 -51 11t-29 30.5t-3 48.5q5 28 23.5 48.5t45 31.5t58.5 11z" />
    <glyph glyph-name="uni0430" unicode="&#x430;" horiz-adv-x="528" 
d="M168 138q3 18 17 32t34 20.5t44 7.5q33 0 58.5 -10t48.5 -29l10 71q-16 13 -39 24t-50.5 17.5t-59.5 6.5q-54 0 -100.5 -16.5t-76.5 -49.5t-36 -80q-6 -45 12 -76.5t52.5 -48.5t80.5 -17q47 0 84.5 17t63.5 48t36 74l-8 57q-8 -31 -25.5 -53t-41.5 -33.5t-53 -9.5
q-15 0 -27.5 5.5t-19 16t-4.5 26.5zM144 317q18 9 42 18.5t52 16.5t58 5q23 0 37.5 -8.5t21.5 -22t4 -31.5l-54 -295h146l55 325q6 37 -7.5 64.5t-41.5 46t-65 28t-76 9.5q-58 0 -111.5 -15.5t-96.5 -34.5z" />
    <glyph glyph-name="uni0431" unicode="&#x431;" horiz-adv-x="589" 
d="M337 346q30 0 51 -14.5t30.5 -40.5t4.5 -60q-5 -32 -23.5 -58.5t-45.5 -41.5t-58 -15q-28 0 -47.5 12.5t-28 34t-8.5 46.5l-156 35q0 -66 24 -124t75.5 -94t134.5 -36q74 0 136.5 31.5t102.5 85.5t49 123q8 67 -16 121.5t-74 86t-119 31.5zM149 231l63 -22q0 33 11 59
t28.5 43.5t39.5 26t46 8.5l32 123q-47 0 -85 -17.5t-65 -49.5t-44.5 -75.5t-25.5 -95.5zM56 244l151 -34l-13 112q2 41 17.5 79t41.5 70.5t61.5 58t77.5 42.5q53 21 97.5 51t77 69t47.5 87l-148 1q-21 -41 -61.5 -67t-100.5 -51q-61 -25 -106.5 -66.5t-77.5 -95.5t-48 -119
t-16 -137z" />
    <glyph glyph-name="uni0432" unicode="&#x432;" horiz-adv-x="508" 
d="M169 240l-7 -53l133 -1q12 -1 20.5 -3.5t14.5 -8.5t7.5 -14.5t0.5 -17.5q-5 -20 -23.5 -33.5t-43.5 -13.5h-125l-17 -95h187q68 0 110.5 34.5t49.5 89.5q5 45 -15.5 70t-57 35.5t-78.5 10.5h-156zM168 221h156q40 0 76.5 12t62 37t30.5 64q6 44 -13.5 71.5t-53.5 40.5
t-73 14h-146l-16 -94l126 -1q11 0 19 -5.5t12 -15t2 -21.5q-3 -10 -7.5 -17.5t-13 -13t-17.5 -9t-18 -3.5l-117 -1zM122 460l-78 -460h145l80 460h-147z" />
    <glyph glyph-name="uni0433" unicode="&#x433;" horiz-adv-x="347" 
d="M108 460l-78 -460h149l58 335h141l22 125h-292z" />
    <glyph glyph-name="uni0434" unicode="&#x434;" horiz-adv-x="684" 
d="M364 275l62 -246l144 30l-174 439l-325 -435l145 -32zM475 0l-17 -90h142l37 209h-607l-37 -209h149l17 90h316z" />
    <glyph glyph-name="uni0435" unicode="&#x435;" horiz-adv-x="557" 
d="M124 198h412q2 11 3 21t2 18q8 69 -14 121t-71.5 82t-125.5 30q-69 0 -125 -24.5t-94.5 -67t-55.5 -99.5q-4 -12 -6.5 -24t-4.5 -24q-9 -69 15 -123t77.5 -86t131.5 -32q59 0 106 17t84 47t66 70l-133 36q-15 -17 -33.5 -31.5t-40.5 -22t-47 -6.5q-31 2 -50 19
t-24.5 45.5t-0.5 65.5l7 25q6 30 22 56.5t41 42.5t57 15q25 -1 40 -13.5t20.5 -31t3.5 -41.5l-250 -1z" />
    <glyph glyph-name="uni0436" unicode="&#x436;" horiz-adv-x="855" 
d="M711 460l-220 -184l170 -276h165l-163 261l232 199h-184zM551 460h-143l-79 -460h143zM236 460h-161l156 -188l-264 -272h182l254 265z" />
    <glyph glyph-name="uni0437" unicode="&#x437;" horiz-adv-x="521" 
d="M276 230q53 -1 100 8.5t78 32.5t37 64q6 43 -18.5 73t-66.5 46t-88 16q-56 -1 -99.5 -21.5t-71 -56t-36.5 -83.5l139 -2q4 14 12 25.5t21 19t29 7.5q13 0 22 -5t14 -12.5t4 -18.5q-4 -20 -23.5 -30.5t-43.5 -11.5zM250 -10q53 0 102.5 16.5t83.5 49t40 78.5
q6 45 -21 73.5t-74 41t-100 11.5l-9 -58q20 -1 35 -6t24 -15.5t6 -28.5q-2 -16 -13.5 -28.5t-29 -18.5t-37.5 -6q-30 0 -43.5 16.5t-19.5 42.5h-138q2 -77 52.5 -122.5t141.5 -45.5z" />
    <glyph glyph-name="uni0438" unicode="&#x438;" horiz-adv-x="573" 
d="M541 326l38 178l-520 -370l-40 -177zM256 460h-147l-90 -503l174 145zM579 504l-172 -145l-63 -359h146z" />
    <glyph glyph-name="uni0439" unicode="&#x439;" horiz-adv-x="573" 
d="M541 326l38 178l-520 -370l-40 -177zM256 460h-147l-90 -503l174 145zM579 504l-172 -145l-63 -359h146zM212 694q-3 -43 13 -76t48 -51t81 -18t86 18.5t60.5 51t32.5 74.5l-100 1q-5 -16 -15 -29.5t-24.5 -21.5t-34.5 -7q-18 1 -29.5 8t-16.5 20.5t-5 29.5h-96z" />
    <glyph glyph-name="uni043A" unicode="&#x43a;" horiz-adv-x="555" 
d="M105 460l-78 -460h145l79 460h-146zM405 460l-216 -184l168 -276h168l-163 265l232 195h-189z" />
    <glyph glyph-name="uni043B" unicode="&#x43b;" horiz-adv-x="605" 
d="M582 460h-452l-46 -261q-7 -36 -29 -48t-53 -15l-18 -135q70 2 121 17.5t80.5 49.5t40.5 92l28 162h159l-57 -322h147z" />
    <glyph glyph-name="uni043C" unicode="&#x43c;" horiz-adv-x="638" 
d="M457 0h149l-50 502l-105 -180zM284 139l3 -171l244 318l25 216zM287 -32l55 157l-146 372l-43 -198zM-27 0h157l111 307l-45 190z" />
    <glyph glyph-name="uni043D" unicode="&#x43d;" horiz-adv-x="597" 
d="M106 187h366l19 112h-366zM447 460l-77 -460h144l80 460h-147zM106 460l-78 -460h146l80 460h-148z" />
    <glyph glyph-name="uni043E" unicode="&#x43e;" horiz-adv-x="571" 
d="M41 231q-9 -70 18 -124t81 -85.5t125 -31.5q74 0 136 31t103.5 85t51.5 124q10 69 -17.5 123t-80.5 86t-125 32t-135.5 -31t-105 -85t-51.5 -124zM196 229q5 33 24 59t46 42t59 16q30 -1 48 -17.5t25 -42.5t3 -54q-6 -33 -24.5 -59.5t-45.5 -42t-58 -14.5
q-30 0 -48.5 16.5t-26 42.5t-2.5 54z" />
    <glyph glyph-name="uni043F" unicode="&#x43f;" 
d="M555 460h-449l-79 -460h147l58 329h155l-58 -329h147z" />
    <glyph glyph-name="uni0440" unicode="&#x440;" horiz-adv-x="598" 
d="M141 -220l116 680h-151l-117 -680h152zM583 229q7 68 -13 125t-63.5 90t-103.5 32q-48 0 -86.5 -20t-67 -54.5t-46 -78t-23.5 -92.5q-6 -48 -1 -91.5t23 -78.5t50.5 -55.5t80.5 -20.5q61 0 114.5 31.5t89.5 86t46 126.5zM425 231q-6 -32 -25.5 -58t-47 -41t-58.5 -13
q-20 0 -36.5 9t-26.5 23.5t-13.5 34.5t-0.5 43q4 24 16 45t29.5 36.5t39 23.5t41.5 8q30 0 50 -15.5t28 -40.5t4 -55z" />
    <glyph glyph-name="uni0441" unicode="&#x441;" horiz-adv-x="476" 
d="M195 229q6 34 27.5 60.5t52 43t64.5 16.5q25 0 47.5 -8t40 -23t30.5 -36l20 148q-28 18 -63 29t-81 11q-75 0 -137.5 -30.5t-104.5 -84t-52 -124.5q-9 -70 18 -124.5t81 -85.5t127 -31q47 0 83.5 11t65.5 31l19 147q-19 -21 -42 -36t-49.5 -23t-56.5 -7q-33 1 -55 16.5
t-31.5 41.5t-3.5 58z" />
    <glyph glyph-name="uni0442" unicode="&#x442;" horiz-adv-x="322" 
d="M54 460l-21 -125h318l21 125h-318zM138 440l-75 -440h143l77 440h-145z" />
    <glyph glyph-name="uni0443" unicode="&#x443;" horiz-adv-x="506" 
d="M571 460h-158l-206 -367l79 -2l-81 369h-161l121 -418l-157 -261h155z" />
    <glyph glyph-name="uni0444" unicode="&#x444;" horiz-adv-x="647" 
d="M320 560l-112 -660h142l115 660h-145zM41 231q-10 -75 21.5 -128.5t94.5 -83t146 -29.5q86 0 156 29t115.5 82.5t56.5 128.5q10 74 -21.5 128t-93.5 83.5t-145 29.5q-86 0 -157 -29t-116.5 -83t-56.5 -128zM177 230q8 38 33 64t64.5 39t88.5 13q46 -1 78.5 -14t47 -38.5
t6.5 -62.5q-8 -38 -33 -64t-64 -39t-88 -12q-46 0 -79 13t-47.5 38.5t-6.5 62.5z" />
    <glyph glyph-name="uni0445" unicode="&#x445;" horiz-adv-x="516" 
d="M393 460l-101 -119l-62 119h-165l133 -217l-224 -243h178l110 134l73 -134h158l-141 233l212 227h-171z" />
    <glyph glyph-name="uni0446" unicode="&#x446;" horiz-adv-x="603" 
d="M503 125l57 335h-151l-59 -335h-149l59 335h-153l-80 -460h391l-18 -102h143l39 227h-79z" />
    <glyph glyph-name="uni0447" unicode="&#x447;" horiz-adv-x="530" 
d="M221 116h150l22 125h-117zM369 460l-77 -460h151l79 460h-153zM250 460h-152l-22 -132q-9 -62 0.5 -110t43.5 -75t101 -27l55 125q-22 0 -35.5 7.5t-17.5 24.5t1 43z" />
    <glyph glyph-name="uni0448" unicode="&#x448;" horiz-adv-x="811" 
d="M471 125l59 335h-145l-58 -335h-132l59 335h-147l-80 -460h703l80 460h-147l-58 -335h-134z" />
    <glyph glyph-name="uni0449" unicode="&#x449;" horiz-adv-x="850" 
d="M471 125l59 335h-145l-58 -335h-132l59 335h-147l-80 -460h639l-19 -102h142l39 227h-78l59 335h-147l-58 -335h-133z" />
    <glyph glyph-name="uni044A" unicode="&#x44a;" horiz-adv-x="594" 
d="M255 208l117 -1q21 0 31.5 -12.5t7.5 -31.5q-3 -14 -12.5 -24.5t-22 -16t-28.5 -5.5h-109l-21 -117l149 1q47 0 86.5 20.5t66 56.5t32.5 84q6 47 -12.5 79t-54 48t-80.5 16h-134zM171 335l-58 -335h138l79 460h-276l-21 -125h138z" />
    <glyph glyph-name="uni044B" unicode="&#x44b;" horiz-adv-x="740" 
d="M585 460l-78 -460h151l80 460h-153zM106 460l-78 -460h152l80 460h-154zM181 208l116 -1q14 0 23.5 -6t14.5 -15.5t3 -21.5q-4 -15 -13.5 -25.5t-22.5 -16t-29 -5.5h-109l-20 -117l148 1q47 0 86.5 20.5t66 56.5t32.5 84q6 47 -12.5 79t-54 48t-80.5 16h-133z" />
    <glyph glyph-name="uni044C" unicode="&#x44c;" horiz-adv-x="528" 
d="M113 460l-77 -460h151l79 460h-153zM187 208l116 -1q14 0 23.5 -6t14 -15.5t1.5 -21.5q-3 -15 -12 -25.5t-22 -16t-29 -5.5h-109l-20 -117l148 1q47 0 87 20.5t66.5 56.5t32.5 84q5 47 -13 79t-53.5 48t-80.5 16h-135z" />
    <glyph glyph-name="uni044D" unicode="&#x44d;" horiz-adv-x="478" 
d="M127 280l-17 -99h266l42 99h-291zM310 231q-8 -42 -29 -73t-52.5 -48.5t-66.5 -17.5q-27 0 -49 8t-39 22.5t-29 37.5l-17 -127q27 -21 61.5 -32t80.5 -11q74 0 137 30.5t105.5 84.5t52.5 125q9 70 -18 124t-81.5 85t-127.5 31q-46 0 -82 -11t-65 -29l-16 -129
q18 18 41.5 33.5t51 24.5t54.5 8q33 -1 55.5 -20.5t30 -50t2.5 -65.5z" />
    <glyph glyph-name="uni044E" unicode="&#x44e;" horiz-adv-x="796" 
d="M106 187h267l20 112h-268zM106 460l-78 -460h146l80 460h-148zM266 231q-10 -70 17 -124t81 -85.5t125 -31.5q74 0 136 31t103.5 85t51.5 124q10 69 -17.5 123t-80.5 86t-126 32t-135.5 -31.5t-104 -85t-50.5 -123.5zM420 229q5 33 23.5 59t46.5 42t59 16q30 -1 49 -17.5
t26 -42.5t2 -54q-6 -33 -25 -59.5t-46 -42t-58 -14.5q-30 0 -49 16.5t-26 42.5t-2 54z" />
    <glyph glyph-name="uni044F" unicode="&#x44f;" horiz-adv-x="528" 
d="M170 0l161 209h-143l-182 -209h164zM465 0l78 460h-150l-80 -460h152zM412 266l-122 1q-14 0 -26 3.5t-17.5 11.5t-3.5 21q2 15 12.5 22t26 11t31.5 4l113 1l21 119h-148q-47 -1 -90.5 -15.5t-74 -46.5t-36.5 -81q-7 -51 16 -85t62.5 -50.5t85.5 -16.5l134 1z" />
    <glyph glyph-name="uni0450" unicode="&#x450;" horiz-adv-x="557" 
d="M124 198h412q2 11 3 21t2 18q8 69 -14 121t-71.5 82t-125.5 30q-69 0 -125 -24.5t-94.5 -67t-55.5 -99.5q-4 -12 -6.5 -24t-4.5 -24q-9 -69 15 -123t77.5 -86t131.5 -32q59 0 106 17t84 47t66 70l-133 36q-15 -17 -33.5 -31.5t-40.5 -22t-47 -6.5q-31 2 -50 19
t-24.5 45.5t-0.5 65.5l7 25q6 30 22 56.5t41 42.5t57 15q25 -1 40 -13.5t20.5 -31t3.5 -41.5l-250 -1zM190 683l155 -152l87 39l-123 163z" />
    <glyph glyph-name="uni0451" unicode="&#x451;" horiz-adv-x="557" 
d="M124 198h412q2 11 3 21t2 18q8 69 -14 121t-71.5 82t-125.5 30q-69 0 -125 -24.5t-94.5 -67t-55.5 -99.5q-4 -12 -6.5 -24t-4.5 -24q-9 -69 15 -123t77.5 -86t131.5 -32q59 0 106 17t84 47t66 70l-133 36q-15 -17 -33.5 -31.5t-40.5 -22t-47 -6.5q-31 2 -50 19
t-24.5 45.5t-0.5 65.5l7 25q6 30 22 56.5t41 42.5t57 15q25 -1 40 -13.5t20.5 -31t3.5 -41.5l-250 -1zM386 612q-4 -35 18.5 -58t58.5 -23q35 -1 63 22t32 57t-18 58.5t-57 25.5q-36 0 -65 -24t-32 -58zM149 612q-4 -35 19 -58t58 -23q35 -1 63.5 22t31.5 57q4 34 -18 58.5
t-58 25.5q-35 0 -63.5 -24t-32.5 -58z" />
    <glyph glyph-name="uni0453" unicode="&#x453;" horiz-adv-x="347" 
d="M108 460l-78 -460h149l58 335h141l22 125h-292zM468 677l-112 56l-169 -155l85 -46z" />
    <glyph glyph-name="uni045C" unicode="&#x45c;" horiz-adv-x="426" 
d="M105 460l-78 -460h145l79 460h-146zM405 460l-216 -184l168 -276h168l-163 265l232 195h-189zM561 677l-110 56l-169 -155l84 -46z" />
    <glyph glyph-name="uni045D" unicode="&#x45d;" horiz-adv-x="573" 
d="M541 326l38 178l-520 -370l-40 -177zM256 460h-147l-90 -503l174 145zM579 504l-172 -145l-63 -359h146zM198 698l155 -152l85 40l-123 162z" />
    <glyph glyph-name="uni045E" unicode="&#x45e;" horiz-adv-x="463" 
d="M571 460h-158l-206 -367l79 -2l-81 369h-161l121 -418l-157 -261h155zM171 678q-2 -44 14 -76t48 -51.5t80 -19.5q50 0 87 19.5t60.5 51.5t31.5 75h-100q-5 -16 -14.5 -29.5t-24.5 -22t-36 -7.5q-16 1 -28 9t-16.5 21t-5.5 30h-96z" />
    <glyph glyph-name="Wgrave" unicode="&#x1e80;" horiz-adv-x="1033" 
d="M623 798l85 42l-123 160l-117 -52zM730 296l-117 442l-258 -440l-65 402h-194l179 -743l286 421l152 -420l411 742h-201z" />
    <glyph glyph-name="wgrave" unicode="&#x1e81;" horiz-adv-x="739" 
d="M435 558l85 42l-123 160l-117 -52zM45 460l148 -491l192 272l100 -272l317 491h-160l-135 -233l-82 271l-175 -269l-51 231h-154z" />
    <glyph glyph-name="Wacute" unicode="&#x1e82;" horiz-adv-x="1033" 
d="M623 799l205 150l-117 56l-177 -160zM730 296l-117 442l-258 -440l-65 402h-194l179 -743l286 421l152 -420l411 742h-201z" />
    <glyph glyph-name="wacute" unicode="&#x1e83;" horiz-adv-x="739" 
d="M435 559l205 150l-117 56l-177 -160zM45 460l148 -491l192 272l100 -272l317 491h-160l-135 -233l-82 271l-175 -269l-51 231h-154z" />
    <glyph glyph-name="Wdieresis" unicode="&#x1e84;" horiz-adv-x="1033" 
d="M668 880q-4 -34 19 -57.5t59 -23.5q34 -1 63.5 22.5t33.5 56.5q3 35 -20 59.5t-58 24.5q-36 1 -65 -23.5t-32 -58.5zM432 880q-4 -34 18.5 -57.5t58.5 -23.5q35 -1 63.5 22.5t32.5 56.5q3 35 -19 59.5t-57 24.5q-37 1 -65.5 -23.5t-31.5 -58.5zM730 296l-117 442
l-258 -440l-65 402h-194l179 -743l286 421l152 -420l411 742h-201z" />
    <glyph glyph-name="wdieresis" unicode="&#x1e85;" horiz-adv-x="739" 
d="M480 640q-4 -34 19 -57.5t59 -23.5q34 -1 63.5 22.5t33.5 56.5q3 35 -20 59.5t-58 24.5q-36 1 -65 -23.5t-32 -58.5zM244 640q-4 -34 18.5 -57.5t58.5 -23.5q35 -1 63.5 22.5t32.5 56.5q3 35 -19 59.5t-57 24.5q-37 1 -65.5 -23.5t-31.5 -58.5zM45 460l148 -491l192 272
l100 -272l317 491h-160l-135 -233l-82 271l-175 -269l-51 231h-154z" />
    <glyph glyph-name="uni1E86" unicode="&#x1e86;" horiz-adv-x="1033" 
d="M550 882q-4 -36 19 -59.5t59 -23.5t64 23t32 57q3 36 -21 60t-60 24t-63 -23.5t-30 -57.5zM730 296l-117 442l-258 -440l-65 402h-194l179 -743l286 421l152 -420l411 742h-201z" />
    <glyph glyph-name="uni1E87" unicode="&#x1e87;" horiz-adv-x="739" 
d="M362 641q-4 -36 19 -59.5t59 -23.5t64 23t32 57q3 36 -21 60t-60 24t-63 -23.5t-30 -57.5zM45 460l148 -491l192 272l100 -272l317 491h-160l-135 -233l-82 271l-175 -269l-51 231h-154z" />
    <glyph glyph-name="uni1E88" unicode="&#x1e88;" horiz-adv-x="1033" 
d="M386 -184q-4 -36 19 -59.5t59 -23.5t64 23t32 57q3 36 -21 60t-60 24t-63 -23.5t-30 -57.5zM730 296l-117 442l-258 -440l-65 402h-194l179 -743l286 421l152 -420l411 742h-201z" />
    <glyph glyph-name="uni1E89" unicode="&#x1e89;" horiz-adv-x="739" 
d="M233 -171q-4 -36 19 -59.5t59 -23.5t64 23t32 57q3 36 -21 60t-60 24t-63 -23.5t-30 -57.5zM45 460l148 -491l192 272l100 -272l317 491h-160l-135 -233l-82 271l-175 -269l-51 231h-154z" />
    <glyph glyph-name="uni1E9E" unicode="&#x1e9e;" horiz-adv-x="815" 
d="M547 -12q-43 0 -86 5.5t-83 15.5t-73 25l39 138q43 -20 80 -31t71 -11q27 0 48.5 6t34 19.5t12.5 35.5q0 25 -11 40.5t-26.5 26.5t-32 23.5t-27.5 28.5t-11 43q0 24 11 40t28.5 29t34 24.5t28 25t11.5 30.5q0 18 -12.5 31.5t-34.5 21.5t-55 8q-58 0 -100.5 -26t-69 -73.5
t-37.5 -113.5l-61 -352h-175l62 368q12 76 40.5 140t76.5 111.5t117 73.5t162 26q87 0 148 -22t92 -60.5t31 -86.5q0 -31 -12 -55.5t-29.5 -44t-34 -35t-28.5 -30t-12 -29.5q0 -18 10.5 -31t26.5 -25t32 -28t27 -42t11 -66q0 -53 -28.5 -92.5t-78 -60.5t-116.5 -21z" />
    <glyph glyph-name="Ygrave" unicode="&#x1ef2;" horiz-adv-x="640" 
d="M403 778l85 42l-123 160l-117 -52zM543 700l-177 -260l-86 260h-187l166 -411l-51 -289h172l47 281l313 419h-197z" />
    <glyph glyph-name="ygrave" unicode="&#x1ef3;" horiz-adv-x="506" 
d="M303 531l85 42l-123 160l-117 -52zM570 460h-156l-206 -367l77 -2l-82 369h-159l121 -418l-156 -261h153z" />
    <glyph glyph-name="uni2010" unicode="&#x2010;" horiz-adv-x="215" 
d="M6 172h209l23 131h-209z" />
    <glyph glyph-name="figuredash" unicode="&#x2012;" horiz-adv-x="608" 
d="M69 172l468 -1l22 132h-467z" />
    <glyph glyph-name="endash" unicode="&#x2013;" horiz-adv-x="760" 
d="M69 172l623 -1l22 132h-622z" />
    <glyph glyph-name="emdash" unicode="&#x2014;" horiz-adv-x="912" 
d="M69 172l777 -1l22 132h-776z" />
    <glyph glyph-name="quoteleft" unicode="&#x2018;" horiz-adv-x="321" 
d="M273 446l95 254h-110l-145 -254h160z" />
    <glyph glyph-name="quoteright" unicode="&#x2019;" horiz-adv-x="321" 
d="M192 700l-96 -254h108l146 254h-158z" />
    <glyph glyph-name="quotesinglbase" unicode="&#x201a;" horiz-adv-x="321" 
d="M96 80l-96 -254h108l146 254h-158z" />
    <glyph glyph-name="quotedblleft" unicode="&#x201c;" horiz-adv-x="545" 
d="M273 446l95 254h-110l-145 -254h160zM497 446l95 254h-109l-146 -254h160z" />
    <glyph glyph-name="quotedblright" unicode="&#x201d;" horiz-adv-x="545" 
d="M192 700l-96 -254h108l146 254h-158zM416 700l-97 -254h111l144 254h-158z" />
    <glyph glyph-name="quotedblbase" unicode="&#x201e;" horiz-adv-x="545" 
d="M91 80l-96 -254h108l146 254h-158zM315 80l-97 -254h111l144 254h-158z" />
    <glyph glyph-name="dagger" unicode="&#x2020;" horiz-adv-x="613" 
d="M152 540l-19 -125h441l20 125h-442zM327 700l-130 -850h141l131 850h-142z" />
    <glyph glyph-name="daggerdbl" unicode="&#x2021;" horiz-adv-x="613" 
d="M93 159l-19 -127h441l20 127h-442zM152 540l-19 -125h441l20 125h-442zM327 700l-130 -850h141l131 850h-142z" />
    <glyph glyph-name="bullet" unicode="&#x2022;" horiz-adv-x="301" 
d="M113 445q-3 -25 7 -46t30.5 -34t46.5 -13t48 13t36.5 33t17.5 46q2 24 -8.5 45.5t-30 34t-45.5 12.5q-27 0 -49.5 -12.5t-36.5 -33.5t-16 -45z" />
    <glyph glyph-name="ellipsis" unicode="&#x2026;" horiz-adv-x="898" 
d="M49 70q-4 -25 5.5 -46t29.5 -34t45 -13q26 0 48.5 12t38 33t19.5 46q3 23 -7 44.5t-29 35t-45 13.5t-49 -12.5t-38 -34t-18 -44.5zM340 70q-4 -25 5.5 -46t29.5 -34t45 -13q26 0 48.5 12t38 33t19.5 46q3 23 -7 44.5t-29 35t-45 13.5t-49 -12.5t-38 -34t-18 -44.5z
M631 70q-3 -25 6 -46t29 -34t45 -13q26 0 48.5 12t38 33t19.5 46q3 23 -7 44.5t-29 35t-45 13.5t-49 -12.5t-38 -34t-18 -44.5z" />
    <glyph glyph-name="perthousand" unicode="&#x2030;" horiz-adv-x="1334" 
d="M945 166q-6 -48 12.5 -90t56 -68t89.5 -26q53 0 99.5 25t76.5 67t36 92q7 48 -11 90t-56.5 68.5t-91.5 26.5t-97.5 -25.5t-75 -67t-38.5 -92.5zM1068 165q3 17 14 32.5t27.5 25t35.5 9.5q17 -1 28.5 -11t16.5 -24t3 -30q-3 -17 -14.5 -32t-28 -25t-34.5 -9
q-18 0 -29.5 10t-16 24t-2.5 30zM85 534q-7 -49 11.5 -90.5t56.5 -67.5t90 -26q53 0 99 25.5t76 67t38 91.5q6 48 -12.5 90t-56.5 68.5t-91 26.5t-98 -25.5t-75.5 -67t-37.5 -92.5zM206 533q3 16 15 32.5t29 26.5t35 10q16 -1 28 -11.5t16.5 -25.5t2.5 -30
q-3 -17 -14.5 -31.5t-28 -25t-32.5 -9.5q-19 0 -30.5 9.5t-17 24t-3.5 30.5zM504 166q-7 -48 11.5 -90t55.5 -68t90 -26t99 25t76 67t37 92q7 48 -11 90t-56 68.5t-91 26.5q-54 0 -98.5 -25.5t-75 -67t-37.5 -92.5zM626 166q2 17 13.5 31.5t28 24.5t35.5 10q17 -1 28 -10.5
t16.5 -24t3.5 -30.5q-2 -17 -13.5 -32t-28.5 -25t-34 -9q-18 0 -30 10t-17 24.5t-2 30.5zM720 700l-640 -700h158l642 700h-160z" />
    <glyph glyph-name="uni2031" unicode="&#x2031;" horiz-adv-x="1775" 
d="M1388 166q-7 -48 11 -90t55.5 -68t89.5 -26q53 0 99 25t76 67t37 92q7 48 -11.5 89.5t-56.5 68.5t-91 27t-97.5 -25.5t-74.5 -67t-37 -92.5zM1509 166q3 17 14 31.5t28 24.5t35 10q17 -1 28.5 -10.5t17 -24t3.5 -30.5q-3 -17 -14.5 -32t-28.5 -25t-34 -9q-18 0 -30 10
t-16.5 24.5t-2.5 30.5zM945 166q-6 -48 12.5 -90t56 -68t89.5 -26q53 0 99.5 25t76.5 67t36 92q7 48 -11 90t-56.5 68.5t-91.5 26.5t-97.5 -25.5t-75 -67t-38.5 -92.5zM1068 165q3 17 14 32.5t27.5 25t35.5 9.5q17 -1 28.5 -11t16.5 -24t3 -30q-3 -17 -14.5 -32t-28 -25
t-34.5 -9q-18 0 -29.5 10t-16 24t-2.5 30zM85 534q-7 -49 11.5 -90.5t56.5 -67.5t90 -26q53 0 99 25.5t76 67t38 91.5q6 48 -12.5 90t-56.5 68.5t-91 26.5t-98 -25.5t-75.5 -67t-37.5 -92.5zM206 533q3 16 15 32.5t29 26.5t35 10q16 -1 28 -11.5t16.5 -25.5t2.5 -30
q-3 -17 -14.5 -31.5t-28 -25t-32.5 -9.5q-19 0 -30.5 9.5t-17 24t-3.5 30.5zM504 166q-7 -48 11.5 -90t55.5 -68t90 -26t99 25t76 67t37 92q7 48 -11 90t-56 68.5t-91 26.5q-54 0 -98.5 -25.5t-75 -67t-37.5 -92.5zM626 166q2 17 13.5 31.5t28 24.5t35.5 10q17 -1 28 -10.5
t16.5 -24t3.5 -30.5q-2 -17 -13.5 -32t-28.5 -25t-34 -9q-18 0 -30 10t-17 24.5t-2 30.5zM720 700l-640 -700h158l642 700h-160z" />
    <glyph glyph-name="guilsinglleft" unicode="&#x2039;" horiz-adv-x="339" 
d="M161 257l180 185l-85 67l-213 -249l132 -260l100 62z" />
    <glyph glyph-name="guilsinglright" unicode="&#x203a;" horiz-adv-x="339" 
d="M211 254l-179 -185l86 -67l212 249l-131 260l-101 -63z" />
    <glyph glyph-name="uni203D" unicode="&#x203d;" horiz-adv-x="608" 
d="M477 481q-8 -39 -35.5 -67.5t-65.5 -45t-78 -19.5l9 -71q38 2 78 10.5t78.5 27t71 44.5t54 60.5t28.5 79.5q6 50 -9 89.5t-47 68.5t-74.5 44.5t-88.5 15.5q-60 0 -112 -17t-94 -45.5t-73 -64.5l90 -86q20 26 45 45.5t54.5 30.5t61.5 11q37 -1 63 -14t37.5 -37.5
t6.5 -59.5zM268 505l-27 -304h91l80 304h-144zM175 63q-5 -36 20 -60.5t62 -25.5q38 0 69.5 24t35.5 60q5 37 -19.5 61.5t-62.5 25.5q-38 0 -69 -24.5t-36 -60.5z" />
    <glyph glyph-name="fraction" unicode="&#x2044;" horiz-adv-x="708" 
d="M652 700l-624 -700h124l625 700h-125z" />
    <glyph glyph-name="uni2070" unicode="&#x2070;" horiz-adv-x="379" 
d="M172 491q4 21 12.5 45t21 43.5t30 30t37.5 9.5q19 -1 30 -12.5t15 -31t4.5 -42t-1.5 -42.5q-4 -24 -13 -47.5t-21.5 -43t-29.5 -30t-37 -8.5q-19 0 -30.5 11.5t-15.5 31t-4 41.5t2 45zM76 491q-6 -43 -1 -82t22.5 -69.5t45.5 -49t70 -18.5t77 17.5t61.5 47.5t43 69
t23.5 84q5 42 -0.5 81.5t-22 70t-46 48.5t-71.5 18q-41 0 -75 -17.5t-61.5 -47t-43.5 -69.5t-22 -83z" />
    <glyph glyph-name="uni2074" unicode="&#x2074;" horiz-adv-x="412" 
d="M46 356l378 -1l15 86h-109l-12 -13l-181 -1zM157 386l142 159l-28 -162l-12 -6l-16 -97h104l72 420h-77l-300 -347z" />
    <glyph glyph-name="uni2075" unicode="&#x2075;" horiz-adv-x="375" 
d="M395 412q5 38 -7.5 69t-38 49.5t-59.5 19.5q-32 0 -62 -11t-54 -33l-74 -49q31 12 63 19t61 6q16 -1 32.5 -7.5t25 -18.5t6.5 -31q-2 -20 -16.5 -34t-34.5 -21t-42 -7q-26 0 -49 13t-45 33l-49 -83q29 -25 68 -40.5t90 -14.5q42 0 82 16t68.5 47t34.5 78zM260 610l160 1
l15 87h-238l-103 -247l112 54z" />
    <glyph glyph-name="uni2076" unicode="&#x2076;" horiz-adv-x="371" 
d="M165 424q2 20 14.5 36.5t30.5 27t39 9.5q19 -1 31.5 -11.5t18 -26t3.5 -33.5q-3 -18 -16 -35t-31 -26t-38 -8q-18 0 -31.5 9.5t-18.5 25t-2 32.5zM275 695l-144 -153q-23 -25 -41.5 -54t-23.5 -62q-7 -48 10 -83t53 -54.5t82 -19.5t87 19t68 53.5t34 83.5q4 36 -9 67.5
t-39 50.5t-60 18q-20 0 -35.5 -5t-31.5 -17l24 7l158 149h-132z" />
    <glyph glyph-name="uni2077" unicode="&#x2077;" horiz-adv-x="368" 
d="M97 605h188l-215 -324h112l269 419h-338z" />
    <glyph glyph-name="uni2078" unicode="&#x2078;" horiz-adv-x="350" 
d="M110 600q-4 -36 13.5 -62t47.5 -39t64 -13q33 0 67 13t58 38.5t29 60.5t-11.5 60.5t-46.5 38.5t-66 13t-69.5 -13t-57 -38t-28.5 -59zM202 588q2 14 11 24.5t21 18t25 6.5q19 -1 27.5 -15t6.5 -32q-2 -12 -10.5 -24t-20 -18.5t-24.5 -6.5q-13 1 -21.5 8t-12 17t-2.5 22z
M61 395q-6 -38 13.5 -66.5t52.5 -43t71 -14.5q38 -1 76 14t64 43t31 65q4 31 -6.5 54.5t-31.5 39t-47.5 23.5t-51.5 8q-27 0 -55.5 -8t-53.5 -23.5t-42 -38.5t-20 -53zM164 408q2 15 12 27t25 20.5t29 8.5q15 -1 24.5 -9.5t14 -20t2.5 -24.5q-3 -24 -23.5 -40.5t-43.5 -15.5
q-22 0 -33 16t-7 38z" />
    <glyph glyph-name="uni2079" unicode="&#x2079;" horiz-adv-x="369" 
d="M325 556q-3 -19 -15.5 -36t-31 -27t-38.5 -9q-18 0 -31 10.5t-18 26.5t-2 33q3 20 14.5 36t30 25.5t37.5 8.5q20 -1 32.5 -10t18.5 -24.5t3 -33.5zM215 285l144 153q21 25 41 53.5t25 63.5q6 47 -12 82t-53 55t-82 20q-46 0 -87 -19.5t-68.5 -54t-33.5 -82.5
q-5 -38 8.5 -69t39.5 -49.5t60 -18.5q21 0 36.5 5.5t31.5 17.5l-24 -7l-159 -149z" />
    <glyph glyph-name="uni2080" unicode="&#x2080;" horiz-adv-x="379" 
d="M124 211q4 21 12.5 45t21 43.5t30 30t37.5 9.5t30.5 -12.5t14.5 -31t4.5 -42t-1.5 -42.5q-4 -24 -13 -47.5t-21.5 -43t-29.5 -30t-37 -8.5q-19 0 -30.5 11.5t-15.5 31t-4 41.5t2 45zM28 211q-6 -43 -1 -82t22.5 -69.5t45.5 -49t70 -18.5t77 17.5t61.5 47.5t43.5 69t23 84
q5 42 0 81.5t-21.5 70t-46 48.5t-71.5 18t-76 -17.5t-61.5 -47t-43.5 -69.5t-22 -83z" />
    <glyph glyph-name="uni2081" unicode="&#x2081;" horiz-adv-x="349" 
d="M110 299l104 25l-54 -323h98l74 429l-207 -42z" />
    <glyph glyph-name="uni2082" unicode="&#x2082;" horiz-adv-x="399" 
d="M-2 3l349 -1l16 94l-160 1l110 85q27 22 48.5 50t26.5 62q6 36 -9.5 67t-48.5 50t-77 20q-54 0 -92.5 -22.5t-62.5 -59.5t-33 -81l100 -1q4 20 15 37.5t27.5 28.5t35.5 10q17 -1 27 -9t13.5 -19.5t1.5 -24.5q-4 -28 -26 -50t-47 -44z" />
    <glyph glyph-name="uni2083" unicode="&#x2083;" horiz-adv-x="360" 
d="M162 204q43 0 85 11t71.5 34t35.5 62q6 35 -10.5 60.5t-47.5 41t-71 15.5q-64 0 -107 -37t-56 -92l94 -1q7 19 22.5 34t40.5 15q19 -1 28.5 -12.5t7.5 -28.5q-3 -17 -16.5 -29.5t-32 -19t-38.5 -8.5zM155 -10q45 0 82.5 15t63.5 43.5t31 65.5q5 34 -7 56.5t-37 36
t-56.5 20.5t-66.5 9l-9 -51q24 -1 43 -7.5t29 -19t6 -32.5q-4 -26 -25 -40.5t-45 -12.5q-28 1 -39 17.5t-11 43.5h-99q-2 -39 13 -71.5t47 -52t80 -20.5z" />
    <glyph glyph-name="uni2084" unicode="&#x2084;" horiz-adv-x="418" 
d="M-5 76l380 -1l15 86h-109l-13 -13l-178 -1zM108 106l142 159l-27 -162l-13 -6l-17 -97h106l72 420h-78l-301 -347z" />
    <glyph glyph-name="uni2085" unicode="&#x2085;" horiz-adv-x="383" 
d="M351 132q5 38 -8 69t-38 49.5t-60 19.5q-32 0 -61.5 -11t-55.5 -33l-73 -49q31 12 63.5 19t59.5 6q18 -1 34 -7.5t25 -18.5t7 -31q-2 -20 -17 -34t-35 -21t-43 -7q-25 0 -48 13t-46 33l-49 -83q30 -25 69 -40.5t91 -14.5q41 0 81 16t69 47t35 78zM215 330l161 1l16 87
h-240l-102 -247l111 54z" />
    <glyph glyph-name="uni2086" unicode="&#x2086;" horiz-adv-x="382" 
d="M120 144q3 20 16 36.5t30.5 27t38.5 9.5q18 -1 31 -11.5t18.5 -26t2.5 -33.5q-2 -19 -14.5 -35.5t-31 -25.5t-37.5 -8q-19 0 -32 9.5t-19 24.5t-3 33zM231 415l-145 -153q-22 -25 -40.5 -54t-23.5 -62q-7 -48 10.5 -83t53 -54.5t81.5 -19.5t87 19t68.5 53.5t33.5 83.5
q5 36 -9 67.5t-39.5 50.5t-58.5 18q-21 0 -37 -5t-32 -17l24 7l159 149h-132z" />
    <glyph glyph-name="uni2087" unicode="&#x2087;" horiz-adv-x="372" 
d="M53 325h186l-213 -325h112l270 420h-338z" />
    <glyph glyph-name="uni2088" unicode="&#x2088;" horiz-adv-x="357" 
d="M67 320q-5 -36 12 -62t47.5 -39t64.5 -13q33 0 67 13t58.5 38.5t28.5 60.5q5 35 -11.5 60.5t-46.5 38.5t-66 13q-35 0 -69 -13t-57 -38t-28 -59zM160 308q2 14 10 24.5t19.5 18t25.5 6.5q20 -1 28 -15t7 -32q-3 -12 -11.5 -24t-20.5 -18.5t-25 -6.5q-12 1 -19.5 8
t-11.5 17t-2 22zM18 115q-6 -38 13 -66t52 -43t71 -15q39 -1 76.5 14.5t63 43t30.5 64.5q4 31 -6.5 54.5t-31 39t-47 23.5t-51.5 8q-27 0 -55 -8t-53 -23.5t-42 -38.5t-20 -53zM120 128q2 15 11.5 27t25 20.5t29.5 8.5q15 -1 25 -9.5t14.5 -20t2.5 -24.5q-4 -24 -24.5 -40.5
t-42.5 -15.5q-22 0 -33.5 16t-7.5 38z" />
    <glyph glyph-name="uni2089" unicode="&#x2089;" horiz-adv-x="386" 
d="M279 276q-4 -19 -16.5 -36t-30.5 -27t-38 -9q-19 0 -31.5 10t-18.5 26t-3 34q3 20 15.5 36t31 25.5t38.5 8.5q18 -1 31 -10t18.5 -24.5t3.5 -33.5zM169 5l144 153q21 25 40.5 53.5t24.5 63.5q7 47 -11 82t-53.5 55t-81.5 20t-87.5 -19.5t-68.5 -54t-33 -82.5
q-4 -38 9 -68.5t39 -49.5t60 -19q21 0 36.5 5.5t31.5 17.5l-24 -7l-159 -149z" />
    <glyph glyph-name="Euro" unicode="&#x20ac;" horiz-adv-x="635" 
d="M89 382h480l14 84h-479zM54 250h473l15 84h-474zM276 350q7 46 24 88t43 73.5t61 50t75 18.5t73 -16.5t60 -45.5l24 161q-33 18 -68.5 29.5t-74.5 11.5q-74 0 -136.5 -30t-109 -82.5t-77.5 -119t-41 -138.5q-9 -68 0.5 -134t39 -119t81.5 -84.5t126 -31.5q40 0 78 11.5
t73 29.5l23 159q-34 -25 -75 -43t-84 -17q-40 1 -65.5 20.5t-38.5 52.5t-14.5 73.5t3.5 82.5z" />
    <glyph glyph-name="trademark" unicode="&#x2122;" horiz-adv-x="724" 
d="M108 624h93l-47 -274h85l48 274h91l14 76h-272zM658 596l-14 -246h88l11 374zM449 718l-119 -367h91l69 237zM745 724l-190 -218l-106 211l-18 -110l108 -226l182 218z" />
    <glyph glyph-name="uni2150" unicode="&#x2150;" horiz-adv-x="914" 
d="M678 700l-624 -700h124l624 700h-124zM94 572l104 24l-55 -322h98l73 430l-205 -43zM588 325h186l-213 -325h112l268 420h-337z" />
    <glyph glyph-name="uni2151" unicode="&#x2151;" horiz-adv-x="857" 
d="M670 700l-624 -700h125l623 700h-124zM94 572l104 24l-55 -322h98l73 430l-205 -43zM759 276q-3 -19 -16 -36t-31 -27t-37 -9q-20 0 -32.5 10.5t-18 26.5t-2.5 33q3 20 15 36t30 25.5t38 8.5q19 -1 31.5 -10t18.5 -24.5t4 -33.5zM650 5l142 153q22 25 41.5 53.5
t24.5 63.5q6 47 -12 82t-53.5 55t-79.5 20q-47 0 -88.5 -19.5t-69 -54t-32.5 -82.5q-5 -38 8 -68.5t39 -49.5t61 -19q20 0 35.5 5.5t31.5 17.5l-23 -7l-160 -149z" />
    <glyph glyph-name="uni2152" unicode="&#x2152;" horiz-adv-x="1174" 
d="M670 700l-624 -700h125l623 700h-124zM94 572l104 24l-55 -322h98l73 430l-205 -43zM557 299l106 25l-56 -323h98l75 429l-207 -42zM909 210q3 22 11 46t21 43.5t30 30t37 9.5t31 -12.5t15.5 -31t4.5 -42t-2 -42.5q-4 -24 -12.5 -47.5t-21.5 -43t-30 -30t-37 -8.5
q-19 0 -30.5 11.5t-15.5 31t-4 41.5t3 44zM812 211q-6 -43 -0.5 -82t22 -70t45 -49t70.5 -18t77 17.5t62 47.5t43.5 69t22.5 84q5 42 0 81.5t-21.5 70t-46 48.5t-71.5 18t-76.5 -17.5t-60.5 -47t-43.5 -69.5t-22.5 -83z" />
    <glyph glyph-name="onethird" unicode="&#x2153;" horiz-adv-x="847" 
d="M670 700l-624 -700h125l623 700h-124zM94 572l104 24l-55 -322h98l73 430l-205 -43zM648 204q44 0 85.5 11t70.5 34t35 62q6 35 -10 60.5t-47.5 41t-70.5 15.5q-65 0 -108 -37t-55 -92l94 -1q7 19 23 34t41 15q18 -1 27.5 -12.5t7.5 -28.5q-4 -17 -16.5 -29t-31 -19
t-38.5 -9zM640 -10q44 0 83 15t64 43.5t31 66.5q5 33 -7 55.5t-37 36t-57 20.5t-66 9l-8 -51q24 -1 42.5 -7.5t28 -19t5.5 -32.5q-3 -26 -24 -40.5t-46 -12.5q-27 1 -38.5 17.5t-11.5 43.5h-97q-3 -39 12 -71.5t46.5 -52t79.5 -20.5z" />
    <glyph glyph-name="twothirds" unicode="&#x2154;" horiz-adv-x="977" 
d="M812 700l-624 -700h125l624 700h-125zM47 283l350 -1l16 94l-161 1l110 85q28 22 49 50t26 62q6 36 -10 67t-48 50t-78 20q-52 0 -91 -22.5t-63 -59.5t-33 -81l101 -1q4 20 14.5 37t26 28.5t36.5 10.5q15 -1 25.5 -9t14 -19.5t2.5 -24.5q-4 -28 -26 -50t-47 -44zM777 204
q44 0 86 11t70.5 34t35.5 62q6 35 -10.5 60.5t-47 41t-70.5 15.5q-65 0 -108 -37t-55 -92l95 -1q6 19 21.5 34t39.5 15q19 -1 29 -12.5t8 -28.5q-4 -17 -17.5 -29t-32 -19t-37.5 -9zM770 -10q45 0 83 15t63.5 43.5t31.5 66.5q4 33 -8.5 55.5t-37 36t-56 20.5t-66.5 9l-7 -51
q22 -1 41.5 -7.5t29 -19t5.5 -32.5q-4 -26 -25 -40.5t-44 -12.5q-28 1 -40 17.5t-12 43.5h-97q-2 -39 13 -71.5t46.5 -52t79.5 -20.5z" />
    <glyph glyph-name="uni2155" unicode="&#x2155;" horiz-adv-x="836" 
d="M670 700l-624 -700h125l623 700h-124zM94 572l104 24l-55 -322h98l73 430l-205 -43zM812 132q5 38 -8 69t-38 49.5t-59 19.5q-33 0 -61.5 -11t-54.5 -33l-73 -49q31 12 63 19t59 6q19 -1 34 -7.5t24.5 -18.5t7.5 -31q-3 -20 -17 -34t-34 -21t-42 -7q-27 0 -50.5 13
t-45.5 33l-49 -83q29 -25 68 -40.5t90 -14.5q42 0 82.5 16t69 47t34.5 78zM677 330l161 1l15 87h-240l-102 -247l112 54z" />
    <glyph glyph-name="uni2156" unicode="&#x2156;" horiz-adv-x="975" 
d="M812 700l-624 -700h125l624 700h-125zM47 283l350 -1l16 94l-161 1l110 85q28 22 49 50t26 62q6 36 -10 67t-48 50t-78 20q-52 0 -91 -22.5t-63 -59.5t-33 -81l101 -1q4 20 14.5 37t26 28.5t36.5 10.5q15 -1 25.5 -9t14 -19.5t2.5 -24.5q-4 -28 -26 -50t-47 -44zM941 132
q5 38 -7.5 69t-38 49.5t-60.5 19.5q-31 0 -60.5 -11t-54.5 -33l-73 -49q31 12 62.5 19t59.5 6q18 -1 33.5 -7.5t25 -18.5t6.5 -31q-3 -20 -16.5 -34t-34 -21t-42.5 -7q-25 0 -48.5 13t-45.5 33l-49 -83q29 -25 67 -40.5t90 -14.5q41 0 81.5 16t69.5 47t35 78zM806 330l161 1
l15 87h-239l-102 -247l111 54z" />
    <glyph glyph-name="uni2157" unicode="&#x2157;" horiz-adv-x="903" 
d="M743 700l-624 -700h124l625 700h-125zM210 484q44 0 86 11t71 34t36 62q5 35 -11 60.5t-46.5 41t-71.5 15.5q-64 0 -107.5 -37t-56.5 -92l95 -1q6 19 22 34t40 15q20 -1 29.5 -12.5t7.5 -28.5q-3 -17 -16.5 -29t-32 -19t-38.5 -9zM204 270q45 0 82.5 15t63 43.5
t31.5 66.5q5 33 -8 55.5t-37 36t-55.5 20.5t-67.5 9l-8 -51q24 -1 42.5 -7.5t29 -19t6.5 -32.5q-4 -26 -26 -40.5t-45 -12.5q-27 1 -39 17.5t-12 43.5h-98q-2 -39 13 -71.5t47 -52t81 -20.5zM866 132q5 38 -7.5 69t-37.5 49.5t-61 19.5q-31 0 -60.5 -11t-55.5 -33l-72 -49
q31 12 62.5 19t58.5 6q19 -1 34.5 -7.5t25 -18.5t7.5 -30q-3 -21 -17.5 -35t-35 -21t-42.5 -7q-25 0 -48.5 13t-45.5 33l-50 -83q30 -25 69 -40.5t91 -14.5q41 0 81 16t69 47t35 78zM730 330l162 1l15 87h-240l-101 -247l111 54z" />
    <glyph glyph-name="uni2158" unicode="&#x2158;" horiz-adv-x="986" 
d="M801 699l-623 -699h123l624 699h-124zM51 356l380 -1l15 86h-109l-12 -13l-181 -1zM163 386l141 159l-28 -162l-11 -6l-17 -97h106l72 420h-79l-299 -347zM955 132q4 38 -8 69t-37.5 49t-60.5 19q-32 1 -61.5 -10t-53.5 -33l-73 -49q31 12 62 18.5t60 5.5q18 0 33.5 -6.5
t24.5 -19t7 -30.5q-3 -21 -16.5 -35.5t-34 -21t-41.5 -6.5q-27 0 -50 13t-45 33l-51 -82q29 -25 68.5 -40.5t90.5 -14.5q42 0 82.5 16t68.5 47t35 78zM819 330h161l15 87h-239l-101 -246l110 53z" />
    <glyph glyph-name="uni2159" unicode="&#x2159;" horiz-adv-x="845" 
d="M689 700l-624 -700h125l624 700h-125zM94 572l104 24l-55 -322h98l73 430l-205 -43zM582 144q3 20 16 36.5t31 27t38 9.5q19 -1 31.5 -11.5t17.5 -26t3 -33.5q-4 -19 -16 -35.5t-30 -25.5t-37 -8q-20 0 -32 9.5t-18.5 24.5t-3.5 33zM692 415l-144 -153q-23 -25 -41 -54
t-23 -62q-7 -48 10.5 -83t53 -54.5t82.5 -19.5q45 0 86 19t68.5 53.5t33.5 83.5q5 36 -9 67.5t-39.5 50.5t-58.5 18q-21 0 -36.5 -5t-32.5 -17l24 7l158 149h-132z" />
    <glyph glyph-name="uni215A" unicode="&#x215a;" horiz-adv-x="903" 
d="M764 700l-623 -700h125l624 700h-126zM400 412q5 38 -7 69t-37.5 49.5t-59.5 19.5q-32 0 -61.5 -11t-54.5 -33l-72 -49q30 12 62 19t59 6q18 -1 33.5 -7.5t24.5 -18.5t7 -31q-2 -20 -16.5 -34t-34.5 -21t-42 -7q-26 0 -49 13t-46 33l-48 -83q29 -25 67.5 -40.5
t90.5 -14.5q41 0 81.5 16t68.5 47t34 78zM266 610l162 1l14 87h-239l-102 -247l111 54zM639 144q3 20 16 36.5t31 27t37 9.5q20 -1 32.5 -11.5t17.5 -26t3 -33.5q-3 -19 -15 -35.5t-30 -25.5t-38 -8q-19 0 -32 9.5t-18.5 24.5t-3.5 33zM750 415l-143 -153q-23 -25 -42 -54
t-24 -62q-7 -48 10.5 -83t53 -54.5t81.5 -19.5t87 19t68.5 53.5t33.5 83.5q5 36 -8 67.5t-39 50.5t-60 18q-20 0 -36 -5t-32 -17l25 7l158 149h-133z" />
    <glyph glyph-name="oneeighth" unicode="&#x215b;" horiz-adv-x="864" 
d="M689 700l-624 -700h125l624 700h-125zM94 572l104 24l-55 -322h98l73 429l-205 -42zM571 320q-5 -36 12.5 -62t47.5 -39t64 -13q33 0 67 13t58.5 38.5t29.5 60.5q4 35 -13 60.5t-46.5 38.5t-65.5 13t-69.5 -13t-57 -38t-27.5 -59zM664 308q2 14 10 24.5t20 18t25 6.5
q19 -1 28 -15t8 -32q-3 -12 -11.5 -24t-21 -18.5t-25.5 -6.5q-13 1 -20.5 8t-11 17.5t-1.5 21.5zM522 115q-6 -38 13 -66t51.5 -43t71.5 -15q38 -1 75.5 14.5t64.5 43t32 64.5q3 31 -7.5 54.5t-31.5 39t-47 23.5t-52 8q-27 0 -55.5 -8t-53 -23.5t-41.5 -38.5t-20 -53z
M624 128q2 15 12 27t25 20.5t29 8.5q14 -1 24 -9.5t14.5 -20t3.5 -24.5q-4 -24 -24.5 -40.5t-43.5 -15.5q-22 0 -33 16t-7 38z" />
    <glyph glyph-name="threeeighths" unicode="&#x215c;" horiz-adv-x="925" 
d="M750 700l-624 -700h124l624 700h-124zM210 484q44 0 86 11t71 34t36 62q5 35 -11 60.5t-46.5 41t-71.5 15.5q-64 0 -107.5 -37t-56.5 -92l95 -1q6 19 22 34t40 15q20 -1 29.5 -12.5t7.5 -28.5q-3 -17 -16.5 -29.5t-32 -19t-38.5 -8.5zM204 270q45 0 82.5 15t63 43.5
t31.5 66.5q5 33 -8 55.5t-37 36t-56 20.5t-67 9l-8 -51q24 -1 42.5 -7.5t29 -19t6.5 -32.5q-4 -26 -26 -40.5t-45 -12.5q-27 1 -39 17.5t-12 43.5h-98q-2 -39 13 -71.5t47 -52t81 -20.5zM631 320q-5 -36 12.5 -62t48 -39t63.5 -13q34 0 67.5 13t58.5 38.5t30 60.5t-12 60.5
t-47.5 38.5t-66.5 13t-70 -13t-57 -38t-27 -59zM724 308q1 14 10 24.5t21 18t25 6.5q18 -1 27.5 -15t6.5 -32q-2 -12 -11 -24t-20.5 -18.5t-24.5 -6.5q-12 1 -20 8t-12 17t-2 22zM581 115q-6 -38 13.5 -66t52.5 -43t71 -15q38 -1 76 14.5t64.5 43t31.5 64.5q4 31 -6.5 54.5
t-32.5 39t-47.5 23.5t-51.5 8q-27 0 -55 -8t-53 -23.5t-42 -38.5t-21 -53zM685 128q2 15 12.5 27t24.5 20.5t29 8.5q14 -1 24 -9.5t14 -20t3 -24.5q-4 -24 -24.5 -40.5t-42.5 -15.5q-22 0 -33 16t-7 38z" />
    <glyph glyph-name="fiveeighths" unicode="&#x215d;" horiz-adv-x="940" 
d="M764 700l-623 -700h125l624 700h-126zM395 412q5 38 -7.5 69t-38 49.5t-59.5 19.5q-32 0 -62 -11t-54 -33l-74 -49q31 12 63 19t61 6q16 -1 32.5 -7.5t25 -18.5t6.5 -30q-2 -21 -16.5 -35t-34.5 -21t-42 -7q-26 0 -49 13t-45 33l-49 -83q29 -25 68 -40.5t90 -14.5
q42 0 82 16t68.5 47t34.5 78zM260 610l160 1l15 87h-238l-103 -247l112 54zM647 320q-5 -36 12.5 -62t48 -39t63.5 -13q34 0 67.5 13t57.5 38.5t29 60.5q6 35 -11.5 60.5t-47 38.5t-65.5 13q-35 0 -69.5 -13t-57 -38t-27.5 -59zM739 308q3 14 11.5 24.5t20 18t24.5 6.5
q20 -1 28.5 -15t5.5 -32q-2 -12 -10.5 -24t-20 -18.5t-24.5 -6.5q-12 1 -21 8t-12 17.5t-2 21.5zM597 115q-5 -38 14.5 -66t52 -43t70.5 -15q39 -1 76.5 14.5t63 43t31.5 64.5q4 31 -6.5 54.5t-31.5 39t-47 23.5t-52 8q-28 0 -56 -8t-53 -23.5t-41.5 -38.5t-20.5 -53z
M700 128q2 15 12 27t25.5 20.5t28.5 8.5q16 -1 25 -9.5t14 -20t3 -24.5q-4 -24 -24.5 -40.5t-42.5 -15.5q-22 0 -33.5 16t-7.5 38z" />
    <glyph glyph-name="seveneighths" unicode="&#x215e;" horiz-adv-x="834" 
d="M652 700l-624 -700h124l625 700h-125zM97 605h188l-215 -324h112l269 419h-338zM540 320q-4 -36 13 -62t47.5 -39t63.5 -13q34 0 67.5 13t57.5 38.5t29 60.5q6 35 -11.5 60.5t-46.5 38.5t-65 13q-35 0 -70 -13t-57.5 -38t-27.5 -59zM633 308q2 14 10.5 24.5t20.5 18
t25 6.5q19 -1 27.5 -15t6.5 -32q-3 -12 -11 -24t-20 -18.5t-25 -6.5q-12 1 -21 8t-11.5 17.5t-1.5 21.5zM491 115q-6 -38 13.5 -66t52.5 -43t71 -15q38 -1 75.5 14.5t63 43t31.5 64.5q4 31 -6.5 54.5t-31.5 39t-47 23.5t-51 8q-28 0 -56 -8t-53.5 -23.5t-42 -38.5t-19.5 -53
zM593 128q2 15 12 27t25.5 20.5t28.5 8.5q16 -1 25 -9.5t14 -20t3 -24.5q-3 -24 -23.5 -40.5t-43.5 -15.5q-22 0 -33.5 16t-7.5 38z" />
    <glyph glyph-name="partialdiff" unicode="&#x2202;" horiz-adv-x="621" 
d="M292 -15q66 0 122 23.5t96.5 64.5t63 93.5t22.5 113.5q0 47 -10.5 93t-32 92t-55.5 93t-81.5 97t-110.5 106l-111 -75q50 -38 90.5 -75.5t74 -78t58.5 -86t45 -101.5l42 -1q-46 65 -95.5 97.5t-111.5 32.5q-50 0 -95.5 -20t-79.5 -55t-53.5 -81.5t-19.5 -101.5
q0 -70 31.5 -122.5t86.5 -80.5t124 -28zM304 119q-29 0 -50 13.5t-32.5 35.5t-11.5 49t10.5 50.5t28.5 42t41 29t50 10.5q26 0 46.5 -12.5t32 -35.5t11.5 -52q0 -25 -9 -47.5t-26.5 -41.5t-40 -30t-50.5 -11z" />
    <glyph glyph-name="emptyset" unicode="&#x2205;" horiz-adv-x="600" 
d="M264 23q49 0 93.5 17.5t79.5 49.5t56.5 74t26.5 87q6 58 -16.5 106.5t-67 77.5t-104.5 29q-48 0 -92 -17.5t-79.5 -49t-58 -73t-26.5 -89.5q-6 -58 16.5 -106.5t67 -77t104.5 -28.5zM276 121q-32 0 -56 15.5t-35.5 42t-8.5 57.5q2 35 23 64t53 46.5t67 17.5
q33 0 56.5 -15.5t35.5 -41t10 -56.5q-3 -32 -22.5 -62t-51.5 -49t-71 -19zM99 26l441 380l-47 53l-439 -380z" />
    <glyph glyph-name="product" unicode="&#x220f;" horiz-adv-x="600" 
d="M89 0h124l100 582h96l-100 -582h124l99 582h78l19 118h-499l-18 -118h77z" />
    <glyph glyph-name="summation" unicode="&#x2211;" horiz-adv-x="600" 
d="M55 0h400l20 124h-193l146 228l-72 224h196l20 124h-400l113 -346z" />
    <glyph glyph-name="minus" unicode="&#x2212;" horiz-adv-x="575" 
d="M58 172l467 -1l22 132h-467z" />
    <glyph glyph-name="uni2215" unicode="&#x2215;" horiz-adv-x="590" 
d="M525 700l-565 -849h152l561 849h-148z" />
    <glyph glyph-name="uni2219" unicode="&#x2219;" horiz-adv-x="312" 
d="M113 445q-4 -25 5.5 -46t29.5 -34t45 -13q26 0 48.5 12.5t38 33t19.5 45.5q3 24 -7 45.5t-29 34.5t-45 13t-49 -12.5t-38 -33.5t-18 -45z" />
    <glyph glyph-name="radical" unicode="&#x221a;" horiz-adv-x="600" 
d="M167 -196l-73 400l76 -36l-137 -36l-15 102l159 52l45 -284l-55 42l251 656h177l-19 -120h-158l106 87z" />
    <glyph glyph-name="infinity" unicode="&#x221e;" horiz-adv-x="806" 
d="M168 29q50 0 103 30t114 90q39 -60 81.5 -90t92.5 -30q49 0 96.5 28t80.5 74t42 99q9 54 -9 99.5t-55.5 73t-87.5 27.5t-103 -30.5t-112 -90.5q-79 121 -176 121q-49 0 -96.5 -27.5t-80.5 -73t-42 -99.5q-9 -53 9 -99t56 -74t87 -28zM209 144q-20 0 -36.5 12.5t-24.5 32
t-4 41.5q3 24 17.5 42.5t35.5 30.5t41 12q27 0 50.5 -21.5t42.5 -63.5q-33 -41 -63.5 -63.5t-58.5 -22.5zM557 144q-26 0 -51 22.5t-43 63.5q32 41 64.5 63t58.5 22q21 0 36.5 -11.5t23.5 -30.5t4 -43q-4 -22 -18.5 -41.5t-34 -32t-40.5 -12.5z" />
    <glyph glyph-name="integral" unicode="&#x222b;" horiz-adv-x="600" 
d="M115 -200q48 0 88 20.5t68.5 58t39.5 87.5l139 625q8 32 23.5 51t36.5 19q9 0 18.5 -5.5t23.5 -19.5l74 107q-33 29 -60 41t-59 11q-47 1 -87.5 -19.5t-68.5 -58t-40 -88.5l-140 -625q-8 -31 -24.5 -50.5t-34.5 -19.5q-11 0 -20.5 6t-20.5 20l-77 -107q34 -28 61 -40.5
t60 -12.5z" />
    <glyph glyph-name="approxequal" unicode="&#x2248;" horiz-adv-x="600" 
d="M417 322q-29 0 -60 12.5t-63 37.5q-26 19 -45.5 28.5t-37.5 9.5t-29 -9.5t-15.5 -26.5t0.5 -41l-118 5q-6 44 15.5 84.5t62 66t92.5 25.5q29 0 57.5 -11t64.5 -37q27 -19 45.5 -27.5t31.5 -8.5q25 0 35 21t3 53l120 -5q4 -47 -17.5 -87.5t-58.5 -65t-83 -24.5zM376 72
q-30 0 -61 12.5t-63 37.5q-26 19 -45 28.5t-37 9.5t-29.5 -9.5t-16 -26.5t0.5 -41l-118 5q-5 44 16 84.5t61.5 66t92.5 25.5q29 0 58.5 -11t65.5 -37q27 -19 45 -27.5t30 -8.5q25 0 35 21t3 53l120 -5q4 -47 -17 -87.5t-58 -65t-83 -24.5z" />
    <glyph glyph-name="notequal" unicode="&#x2260;" horiz-adv-x="600" 
d="M212 -5l-115 51l320 502l113 -50zM29 101l21 133h515l-21 -133h-515zM63 309l21 132h515l-21 -132h-515z" />
    <glyph glyph-name="lessequal" unicode="&#x2264;" horiz-adv-x="600" 
d="M13 6l22 130h512l-21 -130h-513zM548 162l-474 214l17 102l546 213l-25 -149l-315 -112l276 -119z" />
    <glyph glyph-name="greaterequal" unicode="&#x2265;" horiz-adv-x="600" 
d="M21 6l22 130h513l-22 -130h-513zM47 162l25 149l312 111l-273 120l24 149l475 -213l-17 -102z" />
    <glyph glyph-name="lozenge" unicode="&#x25ca;" horiz-adv-x="600" 
d="M264 15l-149 341l263 340l137 -340zM298 241l85 115l-46 114l-90 -114z" />
    <glyph glyph-name="uniFF10" unicode="&#xff10;" horiz-adv-x="611" 
d="M214 350q6 40 19.5 78.5t34.5 70t49 50.5t63 19q28 -1 44.5 -14.5t25.5 -36.5t12.5 -50.5t2.5 -58t-4 -58.5q-5 -39 -19 -78.5t-35 -71t-49.5 -50t-61.5 -17.5q-27 0 -44 13.5t-26.5 36.5t-13 50.5t-2.5 58t4 58.5zM53 350q-7 -55 -3 -108.5t19.5 -99.5t43.5 -81
t70 -54.5t98 -19.5q69 0 128 28t103 78.5t72 116t39 139.5q6 57 3 110t-18.5 99t-44 81t-69.5 54.5t-99 19.5q-70 0 -128 -28t-102.5 -78.5t-73 -115.5t-38.5 -141z" />
    <glyph glyph-name="uniFF11" unicode="&#xff11;" horiz-adv-x="611" 
d="M163 497l175 41l-92 -538h161l123 715l-341 -68z" />
    <glyph glyph-name="uniFF12" unicode="&#xff12;" horiz-adv-x="611" 
d="M-17 0h580l27 155l-270 1l183 146q48 36 83 82t44 104q7 44 -5.5 84.5t-42 72.5t-74 50.5t-100.5 18.5q-87 0 -153 -37t-107 -99.5t-54 -135.5l163 -1q8 34 25 62.5t44 47t62 17.5q20 -1 35 -8.5t23.5 -19.5t11 -27.5t0.5 -31.5q-6 -31 -23.5 -57t-42.5 -51t-52 -50z" />
    <glyph glyph-name="uniFF13" unicode="&#xff13;" horiz-adv-x="611" 
d="M297 341q54 0 107.5 9t99 29.5t75 55.5t38.5 85q9 56 -17.5 100t-77.5 68.5t-118 24.5q-73 0 -130 -28.5t-93.5 -77t-49.5 -111.5h155q6 21 21 40.5t36 30.5t46 11q23 -1 38 -10.5t20.5 -24.5t3.5 -34q-4 -23 -17 -38.5t-33 -27.5t-44 -19.5t-49 -8.5zM283 -15
q76 0 140 24.5t105.5 70.5t51.5 110q8 57 -12 95t-61 60.5t-94.5 34t-109.5 12.5l-13 -86q30 -1 55 -7.5t43.5 -17.5t26.5 -29t3 -44q-5 -27 -22.5 -47t-41.5 -30.5t-53 -9.5q-30 1 -49 13t-28 34.5t-8 54.5h-163q-5 -50 8.5 -92.5t43.5 -75t74.5 -51.5t103.5 -19z" />
    <glyph glyph-name="uniFF14" unicode="&#xff14;" horiz-adv-x="611" 
d="M2 124l586 -1l25 145h-165l-22 -21l-270 -1zM171 175l222 272l-47 -277l-20 -11l-28 -159h174l120 700h-128l-465 -579z" />
    <glyph glyph-name="uniFF15" unicode="&#xff15;" horiz-adv-x="611" 
d="M587 225q8 62 -12 113t-61.5 82.5t-100.5 32.5q-55 1 -103 -18t-89 -55l-126 -82q35 13 70 23t69 14.5t64 4.5q32 -2 58.5 -12.5t41 -32t9.5 -52.5q-5 -34 -27 -56.5t-54.5 -33.5t-70.5 -10q-28 0 -55.5 9t-53.5 26t-49 39l-83 -138q33 -25 71.5 -46.5t85.5 -33.5
t104 -12q52 0 104 15.5t95.5 45t73.5 74t39 103.5zM358 553l271 1l25 146h-398l-167 -407l181 85z" />
    <glyph glyph-name="uniFF16" unicode="&#xff16;" horiz-adv-x="611" 
d="M207 247q6 32 26 59.5t49 43t63 15.5q33 -1 54.5 -17.5t30 -43t3.5 -57.5q-6 -32 -25.5 -60t-48.5 -43.5t-63 -14.5q-33 0 -54.5 16t-30.5 43.5t-4 58.5zM392 697l-240 -256q-39 -42 -69.5 -89.5t-39.5 -104.5q-11 -80 17 -139.5t85.5 -91t134.5 -31.5q79 0 147 30.5
t114 89.5t57 142q6 45 -5 86t-35.5 72t-59 49.5t-78.5 19.5q-33 0 -60 -10.5t-55 -32.5l40 15l263 251h-216z" />
    <glyph glyph-name="uniFF17" unicode="&#xff17;" horiz-adv-x="611" 
d="M102 542h311l-357 -542h183l450 700h-560z" />
    <glyph glyph-name="uniFF18" unicode="&#xff18;" horiz-adv-x="611" 
d="M152 532q-7 -47 8 -81.5t45.5 -59t69.5 -36.5t80 -12q44 0 87 12t79 36t60.5 58.5t30.5 81.5q6 44 -8 78t-43 58t-68.5 36.5t-82.5 12.5q-62 0 -117.5 -21.5t-94 -63t-46.5 -99.5zM304 514q3 22 16.5 40t33.5 29t43 11q21 -1 35 -12.5t19.5 -28.5t2.5 -37
q-3 -21 -16.5 -40.5t-33.5 -30t-40 -9.5q-22 1 -37 11.5t-20.5 29t-2.5 37.5zM69 191q-7 -49 8.5 -86.5t48.5 -64.5t76 -41t92 -14q50 0 97.5 13t87 40t66.5 65t34 87q7 53 -10.5 91t-51.5 63.5t-76.5 38.5t-85.5 13q-46 0 -93.5 -12.5t-88 -38t-69 -64t-35.5 -90.5z
M237 216q4 25 21 45.5t41 33t49 12.5q24 -1 41.5 -14.5t25 -33t4.5 -42.5q-5 -26 -21 -48.5t-40 -35t-49 -11.5q-25 0 -42.5 13t-25.5 34.5t-4 46.5z" />
    <glyph glyph-name="uniFF19" unicode="&#xff19;" horiz-adv-x="611" 
d="M469 454q-6 -32 -25.5 -59.5t-49 -43.5t-62.5 -15q-35 0 -55.5 16.5t-29.5 43.5t-4 57q5 33 25.5 60.5t49 43t62.5 15.5q34 -1 55.5 -17t30 -43t3.5 -58zM284 4l241 255q38 41 69 89t40 105q11 80 -18 139.5t-86 91.5t-134 32q-79 0 -147.5 -31t-113.5 -90.5t-56 -140.5
q-6 -46 4 -87t34.5 -72t59.5 -49.5t79 -18.5q35 0 62 10t54 32l-40 -14l-264 -251h216z" />
    <glyph glyph-name="a.alt" horiz-adv-x="598" 
d="M446 460l-78 -460h149l79 460h-150zM42 231q-9 -67 10.5 -121.5t62 -86.5t104.5 -32q46 0 85 18.5t69.5 51t49.5 76t26 93.5q6 47 -0.5 90t-26 77t-52.5 53.5t-79 19.5q-62 0 -115.5 -31t-89 -85.5t-44.5 -122.5zM198 230q6 32 24.5 59t46 43t60.5 16q19 -1 35.5 -11
t26.5 -26.5t14.5 -37t1.5 -42.5q-4 -25 -16.5 -46.5t-30 -37.5t-38 -25t-41.5 -9q-32 0 -52 16.5t-28 43t-3 57.5z" />
    <glyph glyph-name="agrave.alt" horiz-adv-x="598" 
d="M446 460l-78 -460h149l79 460h-150zM42 231q-9 -67 10.5 -121.5t62 -86.5t104.5 -32q46 0 85 18.5t69.5 51t50 76t26.5 93.5q6 47 -1 90t-26.5 77t-52.5 53.5t-79 19.5q-62 0 -115.5 -31t-89 -85.5t-44.5 -122.5zM198 230q6 32 24.5 59t46 43t60.5 16q19 -1 35.5 -11
t26.5 -26.5t14.5 -37t1.5 -42.5q-4 -25 -16.5 -46.5t-30 -37.5t-38 -25t-41.5 -9q-32 0 -52 16.5t-28 43t-3 57.5zM217 683l153 -152l85 40l-120 162z" />
    <glyph glyph-name="aacute.alt" horiz-adv-x="598" 
d="M446 460l-78 -460h149l79 460h-150zM42 231q-9 -67 10.5 -121.5t62 -86.5t104.5 -32q46 0 85 18.5t69.5 51t50 76t26.5 93.5q6 47 -1 90t-26.5 77t-52.5 53.5t-79 19.5q-62 0 -115.5 -31t-89 -85.5t-44.5 -122.5zM198 230q6 32 24.5 59t46 43t60.5 16q19 -1 35.5 -11
t26.5 -26.5t14.5 -37t1.5 -42.5q-4 -25 -16.5 -46.5t-30 -37.5t-38 -25t-41.5 -9q-32 0 -52 16.5t-28 43t-3 57.5zM526 678l-106 54l-171 -156l80 -44z" />
    <glyph glyph-name="acircumflex.alt" horiz-adv-x="598" 
d="M446 460l-78 -460h149l79 460h-150zM42 231q-9 -67 10.5 -121.5t62 -86.5t104.5 -32q46 0 85 18.5t69.5 51t50 76t26.5 93.5q6 47 -1 90t-26.5 77t-52.5 53.5t-79 19.5q-62 0 -115.5 -31t-89 -85.5t-44.5 -122.5zM198 230q6 32 24.5 59t46 43t60.5 16q19 -1 35.5 -11
t26.5 -26.5t14.5 -37t1.5 -42.5q-4 -25 -16.5 -46.5t-30 -37.5t-38 -25t-41.5 -9q-32 0 -52 16.5t-28 43t-3 57.5zM387 616l74 -85l112 68l-173 143l-210 -137l94 -74z" />
    <glyph glyph-name="atilde.alt" horiz-adv-x="598" 
d="M446 460l-78 -460h149l79 460h-150zM42 231q-9 -67 10.5 -121.5t62 -86.5t104.5 -32q46 0 85 18.5t69 51t50 76t27 93.5q6 47 -1.5 90t-26.5 77t-52 53.5t-79 19.5q-62 0 -115.5 -31t-89 -85.5t-44.5 -122.5zM198 230q6 32 24.5 59t46 43t60.5 16q20 -1 36 -11t26 -26.5
t14.5 -37t1.5 -42.5q-4 -25 -16.5 -46.5t-30 -37.5t-38 -25t-42.5 -9q-31 0 -51 16.5t-28 43t-3 57.5zM194 598l64 -63q4 9 11 20t17 20t28 10q23 1 43 -11.5t39.5 -26.5t43.5 -14q31 -2 58 12t48.5 33t34.5 38l-60 76q-17 -20 -35 -35.5t-40 -15.5q-18 -1 -32.5 6t-27.5 17
t-27.5 18.5t-35.5 8.5q-32 0 -56.5 -13t-43.5 -34.5t-29 -45.5z" />
    <glyph glyph-name="adieresis.alt" horiz-adv-x="598" 
d="M446 460l-78 -460h149l79 460h-150zM42 231q-9 -67 10.5 -121.5t62 -86.5t104.5 -32q46 0 85 18.5t69.5 51t49.5 76t26 93.5q6 47 -0.5 90t-26 77t-52.5 53.5t-79 19.5q-62 0 -115.5 -31t-89 -85.5t-44.5 -122.5zM198 230q6 32 24.5 59t46 43t60.5 16q19 -1 35.5 -11
t26.5 -26.5t14.5 -37t1.5 -42.5q-4 -25 -16.5 -46.5t-30 -37.5t-38 -25t-41.5 -9q-32 0 -52 16.5t-28 43t-3 57.5zM409 613q-5 -35 17 -58t57 -23q35 -1 64.5 22t34.5 57q4 34 -19 58.5t-58 25.5q-35 0 -64 -24t-32 -58zM172 613q-5 -35 17.5 -58t56.5 -23q36 -1 65 22
t33 57t-18 58.5t-58 25.5q-35 0 -63.5 -24t-32.5 -58z" />
    <glyph glyph-name="aring.alt" horiz-adv-x="598" 
d="M446 460l-78 -460h149l79 460h-150zM42 231q-9 -67 10.5 -121.5t62 -86.5t104.5 -32q46 0 85 18.5t69.5 51t49.5 76t26 93.5q6 47 -0.5 90t-26 77t-52.5 53.5t-79 19.5q-62 0 -115.5 -31t-89 -85.5t-44.5 -122.5zM198 230q6 32 24.5 59t46 43t60.5 16q19 -1 35.5 -11
t26.5 -26.5t14.5 -37t1.5 -42.5q-4 -25 -16.5 -46.5t-30 -37.5t-38 -25t-41.5 -9q-32 0 -52 16.5t-28 43t-3 57.5zM248 647q-4 -32 9.5 -58.5t38.5 -41.5t60 -15q33 0 62.5 14t50.5 40.5t26 58.5q4 33 -9.5 59.5t-39.5 41.5t-58 15q-35 0 -64.5 -14.5t-50 -40t-25.5 -59.5z
M326 644q2 13 11 24t21 18t24 7q17 0 27 -14t8 -32q-2 -12 -10.5 -23t-22.5 -18t-23 -7q-18 0 -27.5 14t-7.5 31z" />
    <glyph glyph-name="amacron.alt" horiz-adv-x="598" 
d="M446 460l-78 -460h149l79 460h-150zM42 231q-9 -67 10.5 -121.5t62 -86.5t104.5 -32q46 0 85 18.5t69.5 51t49.5 76t26 93.5q6 47 -0.5 90t-26 77t-52.5 53.5t-79 19.5q-62 0 -115.5 -31t-89 -85.5t-44.5 -122.5zM198 230q6 32 24.5 59t46 43t60.5 16q19 -1 35.5 -11
t26.5 -26.5t14.5 -37t1.5 -42.5q-4 -25 -16.5 -46.5t-30 -37.5t-38 -25t-41.5 -9q-32 0 -52 16.5t-28 43t-3 57.5zM183 535h363l23 131h-363z" />
    <glyph glyph-name="abreve.alt" horiz-adv-x="598" 
d="M446 460l-78 -460h149l79 460h-150zM42 231q-9 -67 10.5 -121.5t62 -86.5t104.5 -32q46 0 85 18.5t69.5 51t50 76t26.5 93.5q6 47 -1 90t-26.5 77t-52.5 53.5t-79 19.5q-62 0 -115.5 -31t-89 -85.5t-44.5 -122.5zM198 230q6 32 24.5 59t46 43t60.5 16q19 -1 35.5 -11
t26.5 -26.5t14.5 -37t1.5 -42.5q-4 -25 -16.5 -46.5t-30 -37.5t-38 -25t-41.5 -9q-32 0 -52 16.5t-28 43t-3 57.5zM210 678q-2 -43 13.5 -75.5t47.5 -52t82 -18.5q49 0 85.5 19t60.5 51t33 75h-99q-5 -15 -16 -29t-26 -22t-33 -8q-19 1 -30.5 9t-16 21.5t-5.5 28.5z" />
    <glyph glyph-name="aogonek.alt" horiz-adv-x="598" 
d="M446 460l-78 -460h149l79 460h-150zM42 231q-9 -67 10.5 -121.5t62 -86.5t104.5 -32q46 0 85 18.5t69 51t50 76t27 93.5q6 47 -1.5 90t-26.5 77t-52 53.5t-79 19.5q-62 0 -115.5 -31t-89 -85.5t-44.5 -122.5zM198 230q6 32 24.5 59t46 43t60.5 16q20 -1 36 -11t26 -26.5
t14.5 -37t1.5 -42.5q-4 -25 -16.5 -46.5t-30 -37.5t-38 -25t-42.5 -9q-31 0 -51 16.5t-28 43t-3 57.5zM470 -110q-11 -8 -25.5 -15t-27.5 -5q-17 1 -21.5 10.5t-3.5 25.5q4 19 17.5 35.5t34.5 31t43 27.5l-41 25q-33 -16 -67 -36t-58.5 -46t-30.5 -62q-4 -32 8.5 -54
t37.5 -34t56 -13q35 0 59 11.5t42 27.5z" />
    </font>
</defs>
</svg>
