<?xml version="1.0" standalone="no"?>
<!DOCTYPE svg PUBLIC "-//W3C//DTD SVG 1.1//EN" "http://www.w3.org/Graphics/SVG/1.1/DTD/svg11.dtd" >
<svg xmlns="http://www.w3.org/2000/svg" xmlns:xlink="http://www.w3.org/1999/xlink" version="1.1">
<metadata>
Created by FontForge 20170731 at Wed May  6 18:12:01 2020
 By Aleksey,,,
Copyright 2020 The Jost Project Authors (https://github.com/indestructible-type)
</metadata>
<defs>
<font id="Jost-SemiBoldItalic" horiz-adv-x="584" >
  <font-face 
    font-family="Jost SemiBold"
    font-weight="600"
    font-style="italic"
    font-stretch="normal"
    units-per-em="1000"
    panose-1="0 0 0 0 0 0 0 0 0 0"
    ascent="800"
    descent="-200"
    x-height="460"
    cap-height="700"
    bbox="-201 -359 1661.53 1042"
    underline-thickness="50"
    underline-position="-175"
    slope="-12"
    unicode-range="U+000D-FF19"
  />
<missing-glyph horiz-adv-x="500" 
d="M50 -200h400v1000h-400v-1000zM100 -150v900h300v-900h-300z" />
    <glyph glyph-name=".notdef" horiz-adv-x="500" 
d="M50 -200h400v1000h-400v-1000zM100 -150v900h300v-900h-300z" />
    <glyph glyph-name="uni0000" horiz-adv-x="300" 
 />
    <glyph glyph-name="uni0000" horiz-adv-x="300" 
 />
    <glyph glyph-name="uni000D" unicode="&#xd;" horiz-adv-x="300" 
 />
    <glyph glyph-name="space" unicode=" " horiz-adv-x="300" 
 />
    <glyph glyph-name="exclam" unicode="!" horiz-adv-x="320" 
d="M173 700l-53 -477h103l110 477h-160zM61 56q0 -33 23 -55.5t60 -22.5q35 0 58.5 22.5t23.5 55.5t-23.5 54.5t-58.5 21.5q-37 0 -60 -21.5t-23 -54.5z" />
    <glyph glyph-name="quotedbl" unicode="&#x22;" horiz-adv-x="487" 
d="M199 700l-93 -313h87l148 313h-142zM394 700l-93 -313h87l148 313h-142z" />
    <glyph glyph-name="numbersign" unicode="#" horiz-adv-x="629" 
d="M119 421l140 -1l22 4h194l24 -4h143l17 104h-525zM37 180h525l18 104h-127l-28 -4h-214l-25 4h-132zM544 700l-87 -216l-5 -25l-85 -210l-15 -24l-92 -225h115l286 700h-117zM319 700l-283 -700h114l93 226l3 24l88 209l14 27l88 214h-117z" />
    <glyph glyph-name="dollar" unicode="$" horiz-adv-x="589" 
d="M361 818l-21 -171h99l30 171h-108zM250 58l-32 -169h107l23 169h-98zM495 497l115 64q-17 41 -45.5 74.5t-71.5 53.5t-101 21q-63 0 -117 -24t-91 -65.5t-45 -93.5q-5 -43 7 -78t34.5 -60.5t52 -44t58.5 -31.5q33 -14 63 -30t48 -38t12 -55q-4 -25 -18.5 -43.5t-38 -28
t-53.5 -9.5q-39 0 -66 17.5t-45.5 48.5t-33.5 69l-111 -71q17 -50 51.5 -92t82.5 -66t108 -24q71 -1 129.5 23.5t97 69.5t47.5 110q4 40 -5.5 74t-29.5 60.5t-48 46.5t-61 33q-25 10 -51 20.5t-45.5 24t-31 30.5t-6.5 43q4 22 17 38t34.5 25.5t47.5 9.5q29 -1 50 -16t35 -37
t25 -49z" />
    <glyph glyph-name="percent" unicode="%" horiz-adv-x="842" 
d="M90 540q-7 -47 10 -87t52.5 -65t86.5 -25t94 24t72 64t37 89q6 44 -11.5 84.5t-53 66t-86.5 25.5q-52 0 -94.5 -24.5t-71 -64.5t-35.5 -87zM195 539q3 18 15.5 35.5t30.5 29t39 11.5q20 -1 33 -13t18 -28.5t3 -33.5q-3 -19 -15 -36t-29.5 -28.5t-36.5 -10.5
q-22 0 -36 11.5t-19.5 28t-2.5 34.5zM469 161q-6 -46 10.5 -86t52 -65t86.5 -25t94 24t71.5 64t35.5 88q6 45 -10.5 85.5t-52 66t-86.5 25.5q-52 0 -94.5 -24.5t-70.5 -64.5t-36 -88zM575 161q3 20 15.5 37t30 27.5t38.5 10.5q20 0 32.5 -11.5t18.5 -28.5t3 -35
q-3 -20 -15.5 -36.5t-30 -27t-36.5 -10.5q-22 0 -35 11.5t-18.5 28t-2.5 34.5zM695 700l-615 -700h133l618 700h-136z" />
    <glyph glyph-name="ampersand" unicode="&#x26;" horiz-adv-x="707" 
d="M259 376l271 -376h143l-296 409q-19 22 -35 43.5t-25.5 43t-5.5 44.5q3 19 14.5 34.5t28 25.5t38.5 10q22 -1 35.5 -11t19 -25.5t4.5 -33.5q-5 -25 -25.5 -46.5t-49.5 -40t-60 -34.5q-28 -13 -61 -27t-67 -32t-63.5 -41.5t-49.5 -56t-26 -75.5q-7 -61 20 -105.5
t76.5 -68.5t109.5 -24q72 -1 135.5 23t119 65.5t103.5 91t88 97.5l-81 68q-33 -41 -72 -83t-82.5 -77.5t-90 -55t-94.5 -17.5q-33 0 -56 12.5t-33 34t-6 49.5q5 33 25.5 55.5t50.5 39t62 31t59 30.5q36 20 68 40.5t57.5 44t42 50.5t21.5 63q6 44 -13.5 81.5t-58.5 60
t-93 22.5q-57 0 -105 -22t-78.5 -60t-37.5 -84q-4 -35 7 -65t29 -56.5t37 -51.5z" />
    <glyph glyph-name="quotesingle" unicode="'" horiz-adv-x="290" 
d="M199 700l-93 -313h87l148 313h-142z" />
    <glyph glyph-name="parenleft" unicode="(" horiz-adv-x="321" 
d="M288 779q-73 -110 -121.5 -234t-67.5 -255q-18 -123 -8 -247.5t51 -242.5h116q-35 118 -41.5 242.5t12.5 247.5q21 129 67 252.5t111 236.5h-119z" />
    <glyph glyph-name="parenright" unicode=")" horiz-adv-x="321" 
d="M89 -199q73 110 121 234.5t68 254.5q18 123 8.5 247.5t-50.5 243.5h-116q34 -119 41 -243.5t-11 -247.5q-21 -129 -67.5 -252.5t-112.5 -236.5h119z" />
    <glyph glyph-name="asterisk" unicode="*" horiz-adv-x="574" 
d="M550 602l-215 -93l13 -64l220 45zM492 330l-123 166l-56 -38l74 -197zM229 263l137 191l-49 41l-175 -161zM121 491l207 -46l32 61l-188 95zM321 700l-11 -223h65l65 223h-119z" />
    <glyph glyph-name="plus" unicode="+" horiz-adv-x="636" 
d="M70 203l514 -1l21 126h-514zM315 528l-89 -525l132 -1l92 526h-135z" />
    <glyph glyph-name="comma" unicode="," horiz-adv-x="308" 
d="M114 109l-130 -257l97 -23l160 247z" />
    <glyph glyph-name="hyphen" unicode="-" horiz-adv-x="211" 
d="M8 180h205l20 114h-206z" />
    <glyph glyph-name="period" unicode="." horiz-adv-x="306" 
d="M57 59q0 -32 22.5 -56t58.5 -24t59 24t23 56q0 35 -23 58.5t-59 23.5t-58.5 -23.5t-22.5 -58.5z" />
    <glyph glyph-name="slash" unicode="/" horiz-adv-x="562" 
d="M517 700l-557 -849h131l555 849h-129z" />
    <glyph glyph-name="zero" unicode="0" horiz-adv-x="624" 
d="M209 350q6 43 20.5 85t37.5 76.5t54 54.5t70 20q29 -1 48.5 -15.5t29.5 -39.5t14 -54.5t3 -62.5t-4 -64q-6 -43 -21 -85t-38 -76.5t-54.5 -54.5t-68.5 -19q-31 0 -49.5 14t-29 39.5t-15 55t-3 62.5t5.5 64zM71 350q-8 -54 -4.5 -106.5t18 -99t41.5 -81t67 -54.5t95 -20
q68 -1 125 27.5t100.5 79t70 116t36.5 138.5q7 55 4 107t-17.5 98.5t-41 81t-66.5 54.5t-96 21q-69 0 -125.5 -29t-99.5 -79t-70.5 -115.5t-36.5 -138.5z" />
    <glyph glyph-name="one" unicode="1" horiz-adv-x="476" 
d="M130 516l170 42l-96 -558h138l123 713l-312 -65z" />
    <glyph glyph-name="two" unicode="2" horiz-adv-x="611" 
d="M0 0h551l21 132l-282 1l201 171q47 38 81.5 87t42.5 106q7 42 -6 80.5t-41.5 69t-71.5 48t-98 18.5q-83 0 -144 -36.5t-98 -97t-49 -132.5h139q8 36 25.5 68t45.5 52.5t66 19.5q23 -1 40 -9t28 -22t15.5 -31.5t1.5 -35.5q-5 -31 -21.5 -57.5t-39 -50.5t-48.5 -49z" />
    <glyph glyph-name="three" unicode="3" horiz-adv-x="580" 
d="M296 343q52 0 102 10t91.5 31.5t68.5 54.5t34 82q8 53 -15.5 96.5t-71 68.5t-111.5 26q-68 0 -121 -27t-87 -74t-45 -106h131q6 23 22 43.5t38.5 33t51.5 12.5q25 -1 41.5 -12t23 -29t3.5 -40q-4 -24 -17 -41.5t-33.5 -31t-45 -21t-51.5 -9.5zM283 -13q71 0 131 24t99 70
t48 108q7 54 -12 91t-56 60t-87 34.5t-104 13.5l-11 -76q31 -2 57 -9t44.5 -19.5t26.5 -32t4 -47.5q-5 -30 -23 -52.5t-44.5 -34.5t-57.5 -11q-32 0 -53.5 13t-32.5 37t-9 55h-139q-4 -46 9 -86.5t42 -72t70.5 -48.5t97.5 -17z" />
    <glyph glyph-name="four" unicode="4" horiz-adv-x="643" 
d="M10 130l593 -1l21 123h-144l-20 -16l-236 1l196 228l-48 -278l-15 -11l-31 -176h148l120 700l-101 -1z" />
    <glyph glyph-name="five" unicode="5" horiz-adv-x="601" 
d="M582 227q7 62 -12.5 113.5t-60.5 83.5t-101 33q-31 0 -60 -6.5t-56 -18.5l68 143l266 -1l20 126h-374l-152 -393q34 16 66.5 27t65 16.5t64.5 4.5q35 -2 63 -16t42.5 -40t9.5 -61q-6 -36 -28 -63t-56 -41t-74 -14q-32 0 -60 11.5t-53 31.5t-44 45l-81 -111q29 -30 66 -55
t83 -39t102 -14q53 0 102.5 15.5t90.5 46t68 74.5t35 102z" />
    <glyph glyph-name="six" unicode="6" horiz-adv-x="621" 
d="M206 241q6 36 27.5 66.5t53 48.5t69.5 18q36 -1 60.5 -20t35 -48.5t5.5 -63.5q-6 -37 -27.5 -67t-53 -47.5t-68.5 -16.5q-36 0 -61 18t-35.5 48t-5.5 64zM410 698l-249 -277q-34 -37 -60.5 -81.5t-33.5 -98.5q-9 -75 18 -132.5t82 -89.5t130 -32q74 0 138.5 31t108 88.5
t52.5 134.5q5 46 -5.5 86.5t-35 72t-58.5 50t-78 18.5q-35 0 -61.5 -10t-52.5 -31l28 8l260 263h-183z" />
    <glyph glyph-name="seven" unicode="7" horiz-adv-x="562" 
d="M98 566h324l-360 -566h156l435 700h-534z" />
    <glyph glyph-name="eight" unicode="8" 
d="M139 532q-7 -44 6 -78t41 -58.5t65 -36.5t79 -12t83 12t75 36t57 57.5t30 78.5q6 42 -6.5 75t-40.5 57t-64.5 37.5t-78.5 13.5q-60 0 -113.5 -22.5t-89 -63.5t-43.5 -96zM269 516q4 24 18.5 44.5t36.5 33t49 12.5q25 -1 41 -13.5t22.5 -33t3.5 -41.5q-5 -24 -20 -44.5
t-37 -32.5t-46 -12q-25 0 -41 12.5t-23 33t-4 41.5zM56 191q-7 -46 8 -83t44.5 -64.5t71.5 -42t89 -14.5t93 13.5t84 41t63 64.5t32 84q7 49 -9 87t-47.5 64t-72 39.5t-83.5 13.5q-45 0 -90 -13t-84 -39t-65.5 -64t-33.5 -87zM199 211q5 28 23.5 51.5t45 38.5t55.5 15
q28 -1 47.5 -16t29 -38.5t5.5 -50.5q-5 -30 -23.5 -54.5t-45 -38t-56.5 -13.5q-28 0 -48 14.5t-29 38.5t-4 53z" />
    <glyph glyph-name="nine" unicode="9" horiz-adv-x="621" 
d="M491 459q-6 -36 -27.5 -66.5t-53.5 -48.5t-68 -17q-37 0 -61.5 18.5t-35.5 49t-5 64.5q6 36 27 66t53 47.5t70 17.5q35 -1 59.5 -19t35 -47.5t6.5 -64.5zM288 2l248 277q33 38 60 83t34 97q9 76 -18 133t-82.5 89.5t-128.5 32.5q-75 0 -140 -31.5t-107.5 -89
t-52.5 -134.5q-5 -46 6 -86.5t34.5 -72t59 -49.5t78.5 -18q33 -1 60.5 9.5t53.5 31.5l-29 -8l-261 -264h185z" />
    <glyph glyph-name="colon" unicode=":" horiz-adv-x="306" 
d="M55 59q0 -32 22.5 -56t58.5 -24t59 24t23 56q0 35 -23 58.5t-59 23.5t-58.5 -23.5t-22.5 -58.5zM119 436q0 -33 22.5 -57.5t58.5 -24.5t59 24.5t23 57.5t-23 56.5t-59 23.5t-58.5 -23.5t-22.5 -56.5z" />
    <glyph glyph-name="semicolon" unicode=";" horiz-adv-x="363" 
d="M162 430q0 -32 22.5 -55.5t59.5 -23.5q35 0 58.5 23.5t23.5 55.5q0 34 -23.5 58t-58.5 24q-37 0 -59.5 -24t-22.5 -58zM130 109l-129 -257l94 -23l160 247z" />
    <glyph glyph-name="less" unicode="&#x3c;" horiz-adv-x="621" 
d="M267 263l332 126l24 133l-536 -217l-14 -83l460 -217l21 122z" />
    <glyph glyph-name="equal" unicode="=" horiz-adv-x="603" 
d="M47 101h493l19 114h-493zM78 291l494 -1l19 114h-494z" />
    <glyph glyph-name="greater" unicode="&#x3e;" horiz-adv-x="621" 
d="M390 263l-333 -128l-22 -133l535 217l13 84l-460 216l-20 -123z" />
    <glyph glyph-name="question" unicode="?" horiz-adv-x="588" 
d="M465 500q-7 -35 -36 -64.5t-72 -47.5t-94 -19h-27l-9 -176h103l24 94q54 9 105.5 36.5t88.5 71t46 105.5q7 47 -6.5 86t-42.5 68t-70 45t-87 17q-57 0 -103.5 -15.5t-86 -44t-74.5 -64.5l80 -74q30 37 72.5 62t91.5 25q33 -1 57 -14t34.5 -36.5t5.5 -54.5zM171 54
q0 -30 23 -52.5t59 -22.5q33 0 56.5 22.5t23.5 52.5t-23 52t-57 22q-35 0 -58.5 -22t-23.5 -52z" />
    <glyph glyph-name="at" unicode="@" horiz-adv-x="747" 
d="M320 320q4 28 19.5 56t38.5 46.5t47 17.5q17 -2 27 -11.5t13.5 -26.5t1.5 -35q-4 -31 -21 -59.5t-40.5 -46t-47.5 -14.5q-17 1 -26.5 11.5t-12 26.5t0.5 35zM215 315q-6 -43 3.5 -79t35 -57.5t67.5 -20.5q48 -1 89 27.5t67.5 77.5t33.5 107q4 36 -4 72.5t-31.5 61.5
t-62.5 26q-48 1 -91 -28.5t-72 -79.5t-35 -107zM50 320q-11 -70 1.5 -131.5t48 -108.5t92.5 -73.5t136 -27.5q70 0 127 14.5t108 39.5l-27 81q-45 -22 -92.5 -34t-99.5 -11q-78 1 -125.5 34.5t-65 90.5t-6.5 126q11 63 40 119t74 99t102.5 67.5t124.5 24.5q54 0 92 -20.5
t60.5 -54.5t29 -77t-0.5 -88q-4 -31 -15 -59.5t-25.5 -52t-32 -35.5t-32.5 -8q-12 1 -16 7.5t-5 15t1 18.5q0 6 2 13t4 13l69 218h-103l-65 -231l7 -21q-6 -32 1.5 -59t28.5 -44t55 -18q41 -2 78 15.5t67.5 51t50.5 78t26 98.5q10 60 -3.5 118.5t-47.5 105.5t-89.5 75.5
t-130.5 28.5q-85 0 -161 -31t-134.5 -87t-97.5 -127.5t-51 -152.5z" />
    <glyph glyph-name="A" unicode="A" horiz-adv-x="691" 
d="M168 158h361l3 115h-329zM401 472l60 -242l-6 -38l51 -192h157l-218 744l-474 -744h164l122 198l3 33z" />
    <glyph glyph-name="B" unicode="B" horiz-adv-x="613" 
d="M211 355h127q62 0 117 19t92 55.5t46 93.5q7 44 -6.5 77.5t-42.5 55.5t-69 33t-86 11h-223l-120 -700h246q71 0 132.5 21t102 65.5t50.5 113.5q6 51 -10 87t-49 60t-76.5 35.5t-90.5 11.5h-133l-13 -77l129 -1q23 0 43.5 -6.5t35 -18.5t20 -30t2.5 -43q-6 -35 -27 -58
t-52 -34t-65 -11l-84 -1l82 472h76q41 -1 63.5 -23t16.5 -58q-5 -26 -21.5 -45t-40.5 -29.5t-54 -10.5h-107z" />
    <glyph glyph-name="C" unicode="C" horiz-adv-x="674" 
d="M220 350q8 49 32 90t59.5 71.5t78.5 47t90 17.5q43 0 78 -12t62.5 -33.5t48.5 -50.5l25 162q-42 36 -90.5 54t-114.5 18q-81 0 -152 -28t-128 -76.5t-93.5 -115t-48.5 -144.5q-11 -76 5.5 -141.5t57.5 -115t102.5 -78t140.5 -28.5q69 0 122.5 19t101.5 52l23 161
q-29 -26 -63.5 -47.5t-75.5 -34.5t-88 -12q-46 0 -81.5 17.5t-58.5 49.5t-32 72t-1 86z" />
    <glyph glyph-name="D" unicode="D" horiz-adv-x="695" 
d="M166 700l-119 -700h145l120 700h-146zM283 0q79 0 149.5 25.5t126 72t90.5 110.5t47 142q11 75 -4.5 138.5t-56 111t-102.5 74t-140 26.5h-138l-23 -131h144q47 0 82 -15t59 -43.5t32.5 -69.5t0.5 -91q-9 -52 -32 -92.5t-58.5 -69t-77.5 -43t-90 -14.5h-135l-23 -131h149
z" />
    <glyph glyph-name="E" unicode="E" horiz-adv-x="569" 
d="M136 0h345l21 122h-346zM235 578h345l21 122h-346zM189 313h326l21 118h-327zM166 700l-119 -700h136l121 700h-138z" />
    <glyph glyph-name="F" unicode="F" horiz-adv-x="521" 
d="M234 574h307l21 126h-307zM187 299l297 -1l21 120h-298zM166 700l-119 -700h136l121 700h-138z" />
    <glyph glyph-name="G" unicode="G" horiz-adv-x="778" 
d="M420 260h189q-15 -31 -36 -58t-48 -47.5t-60.5 -32.5t-75.5 -11q-50 0 -85.5 19.5t-58.5 53t-30.5 76t-0.5 90.5q9 51 32.5 93.5t59.5 74.5t80.5 49.5t93.5 18.5q61 0 100 -28.5t61 -75.5l129 71q-27 50 -67.5 86t-93 55.5t-116.5 19.5q-83 0 -154.5 -27t-129 -76
t-94 -115.5t-48.5 -145.5q-11 -75 5.5 -141.5t57.5 -117.5t102.5 -80t141.5 -29q88 0 157.5 31.5t120.5 86.5t82 126t42 148h-336z" />
    <glyph glyph-name="H" unicode="H" horiz-adv-x="741" 
d="M145 307h502l22 131h-502zM622 700l-119 -700h140l122 700h-143zM166 700l-119 -700h140l121 700h-142z" />
    <glyph glyph-name="I" unicode="I" horiz-adv-x="288" 
d="M166 700l-119 -700h142l121 700h-144z" />
    <glyph glyph-name="J" unicode="J" horiz-adv-x="293" 
d="M-112 -76l-89 -100q18 -16 42.5 -29t54 -20.5t61.5 -7.5q43 -1 81.5 10t69 33.5t51.5 56t28 77.5l129 756h-150l-125 -725q-5 -38 -29 -60t-52 -24q-23 -1 -40.5 8.5t-31.5 24.5z" />
    <glyph glyph-name="K" unicode="K" horiz-adv-x="640" 
d="M166 700l-119 -700h145l120 700h-146zM549 700l-336 -328l232 -372h165l-230 369l341 331h-172z" />
    <glyph glyph-name="L" unicode="L" horiz-adv-x="489" 
d="M166 700l-120 -700h413l21 126h-271l99 574h-142z" />
    <glyph glyph-name="M" unicode="M" horiz-adv-x="840" 
d="M269 390l138 -326l250 321l-23 -385h147l25 740l-366 -454l-206 450l-228 -736h149z" />
    <glyph glyph-name="N" unicode="N" horiz-adv-x="764" 
d="M648 700l-76 -432l-401 466l-125 -734h138l76 433l400 -467l125 734h-137z" />
    <glyph glyph-name="O" unicode="O" horiz-adv-x="787" 
d="M216 350q8 47 30.5 88t56.5 73.5t77 50.5t92 18q49 -1 83.5 -20t55 -52t27.5 -74t0 -84q-9 -47 -31.5 -88t-56 -73.5t-76.5 -50.5t-91 -17q-48 0 -83 19t-55.5 52t-28 74t-0.5 84zM67 350q-11 -73 5 -139.5t55.5 -117.5t100.5 -81t141 -30q79 0 150 28.5t127 79t93 118
t49 142.5q10 73 -6.5 139t-57 116.5t-101 79.5t-138.5 29q-80 0 -150.5 -28t-126.5 -77.5t-92.5 -116t-48.5 -142.5z" />
    <glyph glyph-name="P" unicode="P" horiz-adv-x="582" 
d="M166 700l-119 -700h140l121 700h-142zM231 578h139q33 -1 57 -13.5t34.5 -34.5t4.5 -54q-6 -33 -25.5 -55t-49 -33.5t-63.5 -11.5h-133l-21 -122h142q75 0 137.5 26.5t102 75.5t47.5 120q9 68 -16 118.5t-77.5 78t-126.5 27.5h-132z" />
    <glyph glyph-name="Q" unicode="Q" horiz-adv-x="816" 
d="M216 350q8 46 31 87.5t57 74t77.5 50.5t91.5 18q52 -1 88.5 -21.5t58 -55.5t29 -78.5t0.5 -88.5q-9 -46 -31.5 -87t-57 -72t-77.5 -48t-92 -16q-49 0 -85 19t-58 53t-31 76.5t-1 88.5zM67 350q-11 -73 5 -139.5t56.5 -117.5t101.5 -81t142 -30q79 0 149.5 28.5t126 79
t92 118t48.5 142.5q10 73 -6 138.5t-56 116.5t-101 80t-137 29q-80 0 -151 -27.5t-127.5 -77.5t-93.5 -116t-49 -143zM379 300l261 -308h150l-265 308h-146z" />
    <glyph glyph-name="R" unicode="R" horiz-adv-x="602" 
d="M259 326l148 -326h163l-165 326h-146zM166 700l-119 -700h140l121 700h-142zM230 576h140q33 0 57 -13t34 -36t5 -54q-6 -34 -25.5 -56.5t-50 -35.5t-64.5 -13h-132l-20 -114h150q75 0 137.5 27.5t102.5 77t50 117.5q8 66 -17 116.5t-78.5 79t-126.5 28.5h-141z" />
    <glyph glyph-name="S" unicode="S" horiz-adv-x="583" 
d="M142 236l-108 -73q18 -52 54 -92.5t87 -64.5t113 -24q51 0 97.5 16.5t84.5 46t61.5 70.5t26.5 92q2 39 -9.5 71.5t-32 57t-48 42.5t-58.5 31q-27 10 -51.5 21t-43 24t-29 29t-8.5 36q1 20 12.5 36.5t32 25.5t48.5 9q32 0 55.5 -12.5t40 -33t28.5 -43.5l115 61
q-16 40 -46 74.5t-75 56t-106 21.5q-68 0 -123.5 -25t-89 -70t-37.5 -104q-3 -43 11.5 -75.5t38.5 -57t51.5 -41t53.5 -28.5q36 -17 64 -30.5t43 -33t13 -48.5q-1 -26 -15.5 -47t-39.5 -34t-58 -13q-37 0 -65.5 17t-50 46t-37.5 66z" />
    <glyph glyph-name="T" unicode="T" horiz-adv-x="516" 
d="M75 570h184l-99 -570h142l99 570h182l22 130h-507z" />
    <glyph glyph-name="U" unicode="U" horiz-adv-x="658" 
d="M161 700l-79 -470q-9 -57 3.5 -103t42 -80t74 -52t101.5 -18q62 0 113 18t89.5 51t64 79.5t34.5 104.5l80 470h-141l-80 -462q-7 -37 -25 -66.5t-48.5 -47t-73.5 -16.5q-40 0 -62 18t-29.5 47.5t-2.5 64.5l80 462h-141z" />
    <glyph glyph-name="V" unicode="V" horiz-adv-x="691" 
d="M364 248l-110 452h-161l230 -743l462 743h-168z" />
    <glyph glyph-name="W" unicode="W" horiz-adv-x="1011" 
d="M717 262l-115 475l-268 -473l-73 436h-163l170 -741l288 457l142 -456l401 740h-167z" />
    <glyph glyph-name="X" unicode="X" horiz-adv-x="627" 
d="M526 700l-154 -217l-81 217h-168l152 -335l-289 -365h176l179 248l94 -248h169l-167 359l265 341h-176z" />
    <glyph glyph-name="Y" unicode="Y" horiz-adv-x="611" 
d="M542 700l-194 -279l-95 279h-158l163 -407l-51 -293h145l49 287l307 413h-166z" />
    <glyph glyph-name="Z" unicode="Z" horiz-adv-x="579" 
d="M118 570h290l-427 -570h528l22 126l-301 1l431 573h-521z" />
    <glyph glyph-name="bracketleft" unicode="[" horiz-adv-x="333" 
d="M304 666h98l17 114h-225l-155 -1000h226l17 114h-98z" />
    <glyph glyph-name="backslash" unicode="\" horiz-adv-x="520" 
d="M107 701l250 -701h122l-247 700z" />
    <glyph glyph-name="bracketright" unicode="]" horiz-adv-x="333" 
d="M83 -106h-98l-18 -114h226l154 1000h-225l-18 -114h98z" />
    <glyph glyph-name="asciicircum" unicode="^" horiz-adv-x="494" 
d="M325 591l60 -139h113l-121 258h-74l-209 -257h120z" />
    <glyph glyph-name="underscore" unicode="_" horiz-adv-x="505" 
d="M-53 -147h509l13 83h-508z" />
    <glyph glyph-name="grave" unicode="`" horiz-adv-x="363" 
d="M143 658l154 -151l75 36l-123 162z" />
    <glyph glyph-name="a" unicode="a" horiz-adv-x="507" 
d="M149 140q3 22 17 36t36 21t48 7q34 0 63.5 -10t55.5 -29l9 62q-15 15 -38 27.5t-51.5 19t-62.5 7.5q-54 -1 -97.5 -17.5t-72.5 -50t-36 -78.5q-6 -45 11 -77t50.5 -49.5t76.5 -17.5q45 -1 83.5 15.5t65.5 47t37 72.5l-7 58q-9 -31 -27 -54.5t-44 -36.5t-58 -11
q-19 0 -33 7t-21.5 20t-4.5 31zM139 329q16 9 39.5 18.5t50.5 16.5t57 5q19 0 33 -4.5t23.5 -13t13.5 -21.5t2 -28l-55 -302h126l55 327q7 47 -16.5 79.5t-66.5 48.5t-94 17q-58 0 -109.5 -16.5t-93.5 -35.5z" />
    <glyph glyph-name="b" unicode="b" 
d="M294 780h-128l-134 -780h128zM567 230q8 65 -12 120t-63.5 87.5t-104.5 32.5q-46 -1 -84.5 -19.5t-69 -51.5t-49 -76.5t-25.5 -92.5q-6 -46 0 -89t25 -77t51 -54t78 -20q62 0 116.5 31t91 86t46.5 123zM433 230q-6 -36 -27.5 -66t-52.5 -48t-66 -17q-24 0 -42 11t-29 29
t-15.5 42t-0.5 50q4 27 17 50.5t32.5 41.5t43 28.5t47.5 10.5q35 -1 57 -19.5t31.5 -48.5t4.5 -64z" />
    <glyph glyph-name="c" unicode="c" horiz-adv-x="470" 
d="M176 230q6 36 27 66t53.5 48.5t70.5 19.5q27 0 51.5 -9.5t43.5 -26t32 -38.5l18 134q-27 21 -63 33.5t-80 12.5q-73 -1 -134.5 -31.5t-101.5 -84.5t-49 -124q-10 -67 16 -121.5t78.5 -86t123.5 -31.5q46 0 84 12t68 34l18 132q-19 -20 -42.5 -36.5t-52 -26t-58.5 -8.5
q-37 1 -62 18.5t-36 47.5t-5 66z" />
    <glyph glyph-name="d" unicode="d" 
d="M505 780l-133 -780h128l134 780h-129zM43 230q-9 -65 10.5 -120t62.5 -87.5t106 -31.5q46 0 85 18.5t69 51.5t49 76.5t26 92.5q6 46 0 89t-25 77t-51.5 54t-78.5 20q-63 1 -117 -30.5t-90.5 -86t-45.5 -123.5zM176 230q7 36 27.5 66t51.5 48t67 18q23 -1 41.5 -12t30 -29
t16.5 -41.5t2 -48.5q-5 -28 -19 -52t-33.5 -42t-43 -28t-47.5 -10q-35 0 -57.5 18.5t-32 48t-3.5 64.5z" />
    <glyph glyph-name="e" unicode="e" horiz-adv-x="538" 
d="M265 -10q84 0 145 34.5t97 95.5l-110 36q-21 -31 -53.5 -49t-72.5 -18q-35 0 -57.5 16t-32.5 45t-7 65q4 37 14.5 66t28 51.5t41.5 34t55 11.5q30 0 48.5 -11.5t28 -33.5t9.5 -52q0 -11 -4 -23t-10 -23l35 46h-306v-79h406q4 12 8 30.5t4 34.5q0 65 -25 110t-71 69
t-112 24q-62 0 -113 -21t-88.5 -58t-57 -86t-19.5 -105q0 -66 27 -113t76 -72t116 -25z" />
    <glyph glyph-name="f" unicode="f" horiz-adv-x="316" 
d="M74 460l-19 -110h284l19 110h-284zM379 651l68 95q-12 12 -27.5 23t-36 18t-45.5 7q-51 1 -90 -20t-62.5 -58t-30.5 -85l-108 -631h126l103 600q3 20 11 36.5t20.5 27.5t30.5 12q13 0 23 -6.5t18 -18.5z" />
    <glyph glyph-name="g" unicode="g" horiz-adv-x="580" 
d="M7 -31q-3 -62 21.5 -107t74 -71.5t121.5 -25.5q71 0 129 29t95 83.5t49 132.5l77 450h-123l-78 -450q-6 -40 -27.5 -72t-53 -49.5t-68.5 -16.5q-32 0 -53 12t-30.5 33t-8.5 51zM44 235q-9 -67 11 -120.5t63 -85t106 -31.5q45 0 84 18.5t69 51t49.5 75t26.5 91.5
q6 47 -0.5 89t-26 75t-52 52.5t-78.5 19.5q-63 1 -116.5 -29.5t-90 -84t-45.5 -121.5zM177 234q6 36 26.5 65t51 46t67.5 17q23 -1 41.5 -11t30 -27.5t17 -40.5t2.5 -48q-5 -27 -19 -50.5t-34 -41.5t-43 -27t-46 -9q-36 0 -58.5 17.5t-32 45.5t-3.5 64z" />
    <glyph glyph-name="h" unicode="h" horiz-adv-x="538" 
d="M297 780h-130l-133 -780h129zM373 280l-49 -280h127l51 298q7 50 -3.5 90t-40.5 64t-84 23q-55 0 -94.5 -27.5t-63 -72t-32.5 -94.5h27q6 25 21.5 46.5t37 34t48.5 12.5q26 -2 39 -14.5t16 -34t0 -45.5z" />
    <glyph glyph-name="i" unicode="i" horiz-adv-x="263" 
d="M137 638q0 -31 22 -52t55 -21t55.5 21t22.5 52q0 32 -22.5 53t-55.5 21t-55 -21t-22 -53zM120 460l-77 -460h124l79 460h-126z" />
    <glyph glyph-name="j" unicode="j" horiz-adv-x="256" 
d="M129 638q0 -31 22.5 -52t54.5 -21q34 0 56.5 21t22.5 52q0 32 -22.5 52.5t-56.5 20.5q-32 0 -54.5 -20.5t-22.5 -52.5zM-73 -88l-67 -96q12 -13 28 -24t36.5 -18t46.5 -7q52 -1 89 20.5t60 59.5t31 85l90 528h-126l-86 -498q-3 -20 -11 -37.5t-20 -28t-29 -10.5
q-13 0 -24 7.5t-18 18.5z" />
    <glyph glyph-name="k" unicode="k" horiz-adv-x="519" 
d="M165 780l-132 -780h122l135 780h-125zM394 460l-221 -186l167 -274h148l-166 265l231 195h-159z" />
    <glyph glyph-name="l" unicode="l" horiz-adv-x="250" 
d="M167 780l-133 -780h128l135 780h-130z" />
    <glyph glyph-name="m" unicode="m" horiz-adv-x="784" 
d="M746 294q6 48 -2 88t-34.5 64t-79.5 24q-48 0 -86.5 -22t-65.5 -59q-7 25 -20.5 43t-37.5 28t-60 10q-29 0 -53 -9t-44.5 -25.5t-34.5 -38.5l10 63h-125l-80 -460h126l49 285q4 27 17 46.5t32.5 30.5t45.5 11q23 0 33 -13.5t12 -35t-1 -44.5l-49 -280h128l49 282
q4 27 17 47t33.5 32t46.5 12q23 0 33.5 -13.5t12 -35t-0.5 -44.5l-50 -280h130z" />
    <glyph glyph-name="n" unicode="n" horiz-adv-x="543" 
d="M373 280l-49 -280h132l50 294q6 49 -5 89t-42.5 63.5t-84.5 23.5q-48 0 -84 -20.5t-59 -55.5l11 66h-129l-80 -460h130l49 283q4 26 19 46.5t36.5 32.5t48.5 12q28 0 41 -13.5t16 -35t0 -45.5z" />
    <glyph glyph-name="o" unicode="o" horiz-adv-x="558" 
d="M50 230q-9 -67 16 -121.5t77 -86t122 -31.5q71 0 132 30.5t101 85t50 123.5q9 67 -17 121.5t-78 86.5t-122 32q-72 0 -132 -31t-100 -85.5t-49 -123.5zM180 230q5 36 26 65.5t50.5 47t64.5 17.5q35 -1 57.5 -19.5t32.5 -48t5 -62.5q-6 -35 -26.5 -64.5t-50 -47.5
t-65.5 -17q-35 0 -57.5 18.5t-32 48t-4.5 62.5z" />
    <glyph glyph-name="p" unicode="p" 
d="M124 -219l115 679h-127l-118 -680zM567 230q8 67 -11.5 122.5t-62.5 88.5t-106 33q-47 -1 -85.5 -20t-67 -53t-46.5 -78t-25 -93q-6 -46 -1 -89.5t22.5 -78.5t49 -55t79.5 -20q61 0 116 31t91.5 86t46.5 126zM433 230q-6 -36 -27.5 -65t-52.5 -46t-65 -16q-24 0 -42 10.5
t-29.5 28t-16 40t-0.5 48.5q3 28 16.5 50.5t33 40.5t43 27.5t46.5 9.5q34 0 57 -17.5t32.5 -46.5t4.5 -64z" />
    <glyph glyph-name="q" unicode="q" 
d="M334 -220h128l117 680h-128zM43 230q-9 -67 10.5 -122.5t62 -88t106.5 -31.5q46 0 84.5 18.5t68 52.5t48 78t25.5 93q6 46 0.5 89.5t-23.5 78.5t-49.5 55.5t-78.5 20.5q-64 1 -118 -31t-90 -87.5t-46 -125.5zM176 230q6 36 27 65t51.5 46.5t67.5 16.5q22 -1 40.5 -11
t30 -28t17 -40t2.5 -48q-5 -28 -18.5 -51t-33.5 -40.5t-43 -27.5t-47 -9q-35 0 -58 17t-32.5 46t-3.5 64z" />
    <glyph glyph-name="r" unicode="r" horiz-adv-x="380" 
d="M239 460h-126l-80 -460h127zM352 325l73 108q-14 16 -34.5 26.5t-45.5 10.5q-41 -1 -76 -28.5t-60.5 -70.5t-33.5 -90l27 -37q5 27 17.5 51t32.5 39.5t46 14.5q17 0 29.5 -7t24.5 -17z" />
    <glyph glyph-name="s" unicode="s" horiz-adv-x="427" 
d="M90 158l-70 -80q25 -25 56.5 -46.5t71.5 -34.5t88 -13q50 0 88.5 18.5t61 51.5t24.5 79q2 39 -13.5 65.5t-42.5 44t-61 30.5q-24 10 -44.5 18.5t-33 19.5t-10.5 29q0 16 15.5 27t39.5 11q31 0 62 -19t53 -44l61 81q-22 21 -49.5 37.5t-60 26.5t-70.5 10
q-43 0 -80.5 -15.5t-61.5 -44.5t-27 -72q-2 -41 13.5 -67t42.5 -43t56 -27q24 -9 43 -19t31 -22.5t11 -29.5q-1 -19 -16.5 -32.5t-39.5 -14.5q-25 0 -47.5 9t-45 26t-45.5 40z" />
    <glyph glyph-name="t" unicode="t" horiz-adv-x="285" 
d="M57 460l-19 -110h279l19 110h-279zM159 620l-105 -620h123l108 620h-126z" />
    <glyph glyph-name="u" unicode="u" horiz-adv-x="543" 
d="M197 180l48 280h-132l-51 -293q-6 -50 5 -90t42 -63t85 -23q48 0 83.5 19.5t60.5 56.5l-11 -67h129l79 460h-128l-50 -283q-5 -27 -20.5 -47.5t-38 -31.5t-48.5 -11q-27 0 -39.5 13t-15 34.5t1.5 45.5z" />
    <glyph glyph-name="v" unicode="v" horiz-adv-x="485" 
d="M53 460l167 -509l326 509h-140l-151 -273l-66 273h-136z" />
    <glyph glyph-name="w" unicode="w" horiz-adv-x="714" 
d="M49 460l135 -493l191 291l93 -291l307 493h-141l-143 -253l-78 290l-178 -287l-53 250h-133z" />
    <glyph glyph-name="x" unicode="x" horiz-adv-x="483" 
d="M386 460l-109 -131l-70 131h-142l129 -217l-215 -243h152l120 148l77 -148h137l-136 232l202 228h-145z" />
    <glyph glyph-name="y" unicode="y" horiz-adv-x="481" 
d="M544 460h-137l-204 -363l64 -3l-83 366h-138l117 -410l-162 -269h135z" />
    <glyph glyph-name="z" unicode="z" horiz-adv-x="488" 
d="M290 342l-306 -342h437l20 119h-210l298 341h-426l-20 -118h207z" />
    <glyph glyph-name="braceleft" unicode="{" horiz-adv-x="360" 
d="M315 625q3 22 17 36t38 14h32l15 105h-83q-39 0 -73 -17t-57 -48t-29 -74l-30 -192q-6 -48 -23 -72.5t-48 -38.5l-13 -95q28 -16 35.5 -40t2.5 -70l-30 -193q-6 -42 9 -73.5t44 -49t67 -17.5h78l14 106h-34q-15 0 -24.5 6.5t-13 17.5t-1.5 25l23 135q5 34 6 68.5
t-7.5 64.5t-31.5 51t-68 26l-3 -19q47 4 76.5 23t46.5 48.5t27 65t16 72.5z" />
    <glyph glyph-name="bar" unicode="|" horiz-adv-x="318" 
d="M200 785l-154 -999h129l153 999h-128z" />
    <glyph glyph-name="braceright" unicode="}" horiz-adv-x="360" 
d="M109 -45q-4 -22 -18.5 -36t-36.5 -14h-33l-16 -104h84q38 0 72 16.5t57 47.5t30 75l29 193q7 47 23.5 71.5t48.5 38.5l13 95q-29 16 -36.5 40t-1.5 70l29 192q6 42 -9 73.5t-44 49t-67 17.5h-77l-15 -105h35q15 -1 24 -7.5t13 -17.5t2 -24l-22 -136q-6 -33 -7 -68
t6.5 -65t31.5 -51t68 -26l3 20q-46 -5 -75.5 -24t-47 -48.5t-27 -65t-15.5 -72.5z" />
    <glyph glyph-name="asciitilde" unicode="~" horiz-adv-x="558" 
d="M159 168q-1 6 -3 12.5t0 14.5q4 18 18.5 32t37.5 15q12 0 25 -4.5t25.5 -12.5t24.5 -17q28 -21 55 -35t56 -14q35 -1 62.5 13.5t48.5 37.5q16 19 25 42t12 46q0 7 -0.5 14t-0.5 14l-105 6q2 -7 2 -15.5t-1 -16.5q-4 -16 -15.5 -28.5t-28.5 -12.5q-14 -1 -30.5 10
t-32.5 23q-19 14 -37.5 25t-37.5 17t-39 6q-42 0 -72.5 -15.5t-53.5 -40.5q-16 -19 -25.5 -41.5t-12.5 -45.5q-1 -7 -1.5 -13t0.5 -12z" />
    <glyph glyph-name="uni00A0" unicode="&#xa0;" horiz-adv-x="300" 
 />
    <glyph glyph-name="exclamdown" unicode="&#xa1;" horiz-adv-x="320" 
d="M173 -234l53 478h-102l-111 -478h160zM284 411q4 31 -16 53.5t-53 23.5q-35 1 -61.5 -22t-30.5 -53q-4 -33 16 -55.5t55 -22.5q33 -1 60 21.5t30 54.5z" />
    <glyph glyph-name="cent" unicode="&#xa2;" horiz-adv-x="562" 
d="M221 38l-33 -149h108l20 149h-95zM199 230q6 37 29.5 66.5t56.5 48t71 19.5q44 0 75 -20.5t47 -53.5l21 134q-27 21 -63 33.5t-79 12.5q-74 -1 -134.5 -31.5t-102 -84.5t-51.5 -124q-9 -67 15.5 -121.5t75.5 -86t123 -31.5q44 0 83.5 12t68.5 33l20 133
q-27 -29 -66 -50.5t-87 -20.5q-36 1 -61 18.5t-36.5 47.5t-5.5 66zM307 578l-20 -149h96l32 149h-108z" />
    <glyph glyph-name="sterling" unicode="&#xa3;" horiz-adv-x="583" 
d="M101 370l-17 -91h364l17 91h-364zM481 471l121 43q1 36 -11 70.5t-37 63t-62.5 45t-85.5 17.5q-47 0 -90 -13.5t-77 -38t-57.5 -59.5t-29.5 -78q-4 -32 2 -57t17 -48t21.5 -45t16.5 -45.5t2 -50.5q-9 -53 -35 -98t-64.5 -88t-83.5 -89h462l21 122h-345l-44 -71
q33 10 67 30t65 48t53 63.5t28 75.5q3 29 -3 53t-15 46t-18 43.5t-14 43.5t0 49q5 26 21.5 46t41 31t50.5 11q28 -1 45 -12t25.5 -28.5t11 -38t1.5 -41.5z" />
    <glyph glyph-name="currency" unicode="&#xa4;" horiz-adv-x="559" 
d="M84 505l84 -97l63 53l-81 101zM66 39l111 97l-51 59l-111 -94zM484 407l110 94l-49 61l-111 -95zM378 140l82 -101l64 55l-81 101zM74 300q-10 -64 12 -118.5t69 -87.5t114 -33t125 32t96 86.5t48 120.5q9 64 -13 118.5t-68.5 88t-113.5 33.5q-68 0 -126 -32.5t-96 -87
t-47 -120.5zM192 300q6 33 25.5 60.5t48.5 44t65 16.5q32 -1 54 -18t30 -44.5t4 -58.5q-6 -33 -25.5 -60t-48.5 -44t-64 -16q-33 0 -55 17.5t-30.5 44.5t-3.5 58z" />
    <glyph glyph-name="yen" unicode="&#xa5;" horiz-adv-x="623" 
d="M63 273h535l16 92h-535zM37 123h536l15 92h-535zM547 700l-193 -279l-95 279h-159l164 -406l-52 -294h147l49 289l305 411h-166z" />
    <glyph glyph-name="brokenbar" unicode="&#xa6;" horiz-adv-x="318" 
d="M188 695l-44 -256h128l44 256h-128zM242 262h-128l-44 -256h128z" />
    <glyph glyph-name="section" unicode="&#xa7;" horiz-adv-x="510" 
d="M435 559l77 80q-14 24 -39.5 42.5t-58 28.5t-68.5 10q-42 -1 -83.5 -17t-71 -46.5t-35.5 -73.5q-4 -28 3 -50t22 -39t35 -29.5t41 -22.5q21 -11 45 -21.5t39 -27t11 -43.5q-4 -21 -17.5 -37t-33 -26t-39.5 -15l-6 -39q37 1 74 9.5t67.5 24.5t51 43t26.5 66
q4 34 -10.5 60.5t-41 47t-58.5 31.5q-15 5 -30 10.5t-29.5 12t-22 15t-5.5 21.5q2 11 11.5 19t23.5 12t30 4t33 -6.5t32 -17.5t27 -26zM113 169l-78 -78q17 -33 44.5 -57t65 -37.5t85.5 -13.5q35 -1 69.5 8t64 27t48.5 46.5t25 65.5q4 35 -9.5 62t-38.5 47.5t-55 34.5
q-17 7 -36.5 15t-36 18.5t-26 25t-5.5 36.5q4 21 18 35.5t34 24t41 17.5l5 33q-38 -1 -76 -9t-69.5 -24t-51.5 -41.5t-25 -60.5q-5 -38 11.5 -65.5t45.5 -47.5t63 -31q20 -7 40 -16t33 -20t9 -29q-2 -14 -13 -23.5t-26 -15t-33 -4.5q-25 -1 -47.5 9t-41.5 27.5t-34 40.5z
" />
    <glyph glyph-name="dieresis" unicode="&#xa8;" horiz-adv-x="483" 
d="M359 641q-4 -30 16 -52t52 -22q31 -2 57 20.5t29 51.5q3 30 -17 52t-51 23t-57.5 -21.5t-28.5 -51.5zM135 641q-3 -30 16 -52t52 -22q31 -2 56.5 20.5t29.5 51.5q2 30 -17.5 52t-50.5 23q-32 1 -58 -21.5t-28 -51.5z" />
    <glyph glyph-name="copyright" unicode="&#xa9;" horiz-adv-x="776" 
d="M303 350q6 39 28.5 69.5t55.5 48.5t71 18q40 0 67 -16.5t47 -41.5l13 98q-25 21 -54.5 32t-69.5 11q-65 0 -119 -29t-88.5 -78.5t-43.5 -111.5q-8 -60 14 -109.5t67.5 -79.5t109.5 -29q41 -1 72 10.5t60 31.5l12 98q-26 -23 -59.5 -40.5t-75.5 -16.5q-38 0 -64 18.5
t-37 49t-6 67.5zM130 350q10 64 40.5 120t77 98.5t105 67t124.5 24.5q64 -1 113 -26t81 -68.5t45 -99t5 -116.5q-11 -64 -41.5 -120t-77 -98.5t-105 -67t-123.5 -23.5q-65 0 -114 25t-81 68.5t-45 99t-4 116.5zM75 350q-10 -72 7 -137t57 -115t99.5 -79t135.5 -29
t144.5 27.5t122.5 77t89 115t45 140.5q10 72 -7 137t-57 115t-99.5 79t-134.5 29q-77 0 -145.5 -27.5t-122.5 -77t-89 -115t-45 -140.5z" />
    <glyph glyph-name="ordfeminine" unicode="&#xaa;" horiz-adv-x="252" 
d="M145 530q2 16 19 27t35 11q17 0 30.5 -5t26.5 -15l6 31q-13 11 -31 19t-43 8q-37 0 -70 -20.5t-38 -55.5q-4 -32 16.5 -53t53.5 -21q35 -1 60 18.5t34 49.5l-4 28q-8 -23 -25 -37t-40 -13q-14 0 -23 7.5t-7 20.5zM143 632q12 7 33 14t43 6q17 -2 24 -10t9 -23l-29 -158
h62l29 171q3 36 -23 54.5t-64 18.5q-29 0 -54.5 -8.5t-46.5 -17.5z" />
    <glyph glyph-name="guillemotleft" unicode="&#xab;" horiz-adv-x="515" 
d="M341 257l179 186l-72 61l-216 -245l137 -253l85 57zM156 257l180 186l-74 61l-214 -245l134 -253l88 57z" />
    <glyph glyph-name="logicalnot" unicode="&#xac;" horiz-adv-x="622" 
d="M84 280h404l-20 -104h95l38 218h-498z" />
    <glyph glyph-name="uni00AD" unicode="&#xad;" horiz-adv-x="203" 
d="M12 201h197l12 74h-196z" />
    <glyph glyph-name="registered" unicode="&#xae;" horiz-adv-x="776" 
d="M392 337l78 -187h98l-96 187h-80zM322 570l-64 -419h85l65 419h-86zM362 496h84q29 -2 46 -16.5t14 -43.5q-5 -29 -29 -44t-54 -17h-80l-10 -68l91 1q67 1 114 36t56 97q7 56 -32 92t-104 37h-85zM130 350q10 64 40.5 120t77 98.5t105 67t124.5 24.5q64 -1 113 -26
t81 -68.5t45 -99t5 -116.5q-11 -64 -41.5 -120t-77 -98.5t-105 -67t-123.5 -23.5q-65 0 -114 25t-81 68.5t-45 99t-4 116.5zM75 350q-10 -72 7 -137t57 -115t99.5 -79t135.5 -29t144.5 28t122.5 77t89 114.5t45 140.5q10 72 -7 137t-57 115t-99.5 79t-134.5 29
q-77 0 -145.5 -28t-122.5 -77t-89 -114.5t-45 -140.5z" />
    <glyph glyph-name="macron" unicode="&#xaf;" horiz-adv-x="508" 
d="M149 580h358l17 114h-357z" />
    <glyph glyph-name="degree" unicode="&#xb0;" horiz-adv-x="281" 
d="M92 598q-5 -33 7 -60.5t38.5 -43.5t61.5 -16q37 -1 67.5 14.5t50.5 43t25 61.5q4 34 -8 62t-38.5 44t-61.5 17q-36 0 -66.5 -16t-51 -43.5t-24.5 -62.5zM155 598q2 17 13.5 32.5t28 25t34.5 9.5q25 -1 38 -21t9 -45q-3 -18 -14 -33t-27.5 -24.5t-33.5 -8.5q-26 0 -39 20
t-9 45z" />
    <glyph glyph-name="plusminus" unicode="&#xb1;" horiz-adv-x="608" 
d="M47 4h485l18 115h-487zM98 336h485l19 120h-486zM318 620l-68 -447l130 -1l71 448h-133z" />
    <glyph glyph-name="uni00B2" unicode="&#xb2;" horiz-adv-x="377" 
d="M43 283h331l13 79l-167 1l123 100q26 23 48 51t27 63q6 34 -8.5 64t-44.5 49t-74 20q-50 0 -87 -22t-60.5 -58t-32.5 -79h87q4 20 15.5 40t29 32.5t40.5 11.5q17 -1 29 -10t16 -22.5t1 -27.5q-4 -28 -24 -49t-43 -44z" />
    <glyph glyph-name="uni00B3" unicode="&#xb3;" horiz-adv-x="338" 
d="M201 485q42 1 81 12t66.5 34t33.5 61q5 33 -9 58.5t-42.5 41t-66.5 16.5q-62 -1 -102.5 -36.5t-52.5 -87.5l81 -1q7 21 24.5 37.5t43.5 16.5q22 -1 32.5 -15t7.5 -34q-4 -19 -17 -32.5t-32.5 -20.5t-40.5 -9zM192 271q41 0 77.5 15t61 42.5t29.5 65.5q5 33 -7 55
t-34 35.5t-52.5 20.5t-62.5 8l-7 -45q24 -1 43 -8.5t29.5 -21t6.5 -34.5q-4 -28 -26.5 -44.5t-50.5 -15.5q-29 0 -42 17.5t-13 45.5h-84q-2 -38 12.5 -68t44.5 -48.5t75 -19.5z" />
    <glyph glyph-name="acute" unicode="&#xb4;" horiz-adv-x="363" 
d="M390 654l-98 50l-168 -157l70 -39z" />
    <glyph glyph-name="mu" unicode="&#xb5;" horiz-adv-x="550" 
d="M246 460h-134l-132 -779l124 -1l57 335q15 -10 30.5 -15t35.5 -5q32 0 60 16.5t49 43.5l-9 -55h129l78 460h-125l-48 -264q-5 -28 -19.5 -48t-36.5 -31.5t-49 -11.5q-26 -1 -40 10.5t-18.5 31.5t-1.5 45z" />
    <glyph glyph-name="paragraph" unicode="&#xb6;" horiz-adv-x="623" 
d="M298 271l-84 -490h113l142 835h65l-143 -835h113l157 919h-290q-64 0 -119 -25.5t-91.5 -73.5t-47.5 -115q-10 -65 12 -112t67 -73.5t106 -29.5z" />
    <glyph glyph-name="periodcentered" unicode="&#xb7;" horiz-adv-x="306" 
d="M90 261q-3 -21 5 -39.5t25 -30.5t39 -12q23 -1 42.5 10.5t33 30t16.5 39.5t-5.5 39.5t-25 30.5t-38.5 12q-23 0 -43 -11t-33.5 -29.5t-15.5 -39.5z" />
    <glyph glyph-name="cedilla" unicode="&#xb8;" horiz-adv-x="368" 
d="M165 67l-116 -185q22 8 43.5 12.5t35.5 3.5q11 0 23 -3.5t19 -10.5t5 -19q-1 -12 -10.5 -20t-23 -12.5t-26.5 -4.5q-17 0 -33.5 6t-31.5 17l-49 -56q29 -21 57.5 -31t64.5 -9q29 0 59 12t51.5 34.5t25.5 55.5q3 27 -6.5 46.5t-27 31t-39.5 13.5q-5 0 -12.5 -0.5
t-12.5 -1.5l100 120z" />
    <glyph glyph-name="uni00B9" unicode="&#xb9;" horiz-adv-x="464" 
d="M206 584l102 25l-57 -334h85l74 428l-191 -40z" />
    <glyph glyph-name="ordmasculine" unicode="&#xba;" horiz-adv-x="269" 
d="M91 581q-7 -52 23 -86t83 -34q36 -1 67 15t51 42.5t25 61.5q5 33 -8 60t-39 43t-62 17q-36 0 -66 -15.5t-50 -42.5t-24 -61zM155 580q3 18 13.5 33t26.5 24t34 9q24 -1 36 -21t9 -45q-3 -17 -14.5 -31.5t-27.5 -23.5t-32 -8q-24 0 -36.5 19t-8.5 44z" />
    <glyph glyph-name="guillemotright" unicode="&#xbb;" horiz-adv-x="515" 
d="M208 253l-178 -185l72 -61l216 244l-137 254l-86 -58zM394 253l-180 -185l73 -61l217 244l-137 254l-87 -58z" />
    <glyph glyph-name="onequarter" unicode="&#xbc;" horiz-adv-x="777" 
d="M697 699l-624 -699h92l624 699h-92zM98 584l101 25l-57 -334h83l73 428l-187 -40zM376 79h359l12 73h-101l-12 -10l-179 -1zM470 99l153 177l-29 -170l-8 -6l-17 -100h89l72 420l-62 -1l-294 -341z" />
    <glyph glyph-name="onehalf" unicode="&#xbd;" horiz-adv-x="845" 
d="M697 699l-624 -699h92l624 699h-92zM98 584l101 25l-57 -334h83l73 428l-187 -40zM458 3h332l13 79l-167 1l122 100q27 23 48 51t27 63q5 34 -8.5 64t-44 49t-73.5 20q-51 0 -88 -22t-60 -58t-31 -79h84q5 20 16.5 40t29.5 32.5t41 10.5q18 -1 29.5 -9.5t15 -22
t2.5 -27.5q-5 -28 -26 -49l-44 -44z" />
    <glyph glyph-name="threequarters" unicode="&#xbe;" horiz-adv-x="835" 
d="M761 699l-623 -699h88l624 699h-89zM209 485q41 1 80.5 12t66.5 34t33 61q5 33 -9.5 58.5t-42.5 41t-66 16.5q-63 -1 -103 -36.5t-53 -87.5l82 -1q7 21 24 37.5t43 16.5q22 -1 33 -15t8 -34q-4 -19 -17.5 -32t-33 -20.5t-39.5 -9.5zM199 271q42 0 78 15t60 42.5t30 65.5
q5 33 -7 55t-34.5 35.5t-52 20.5t-61.5 8l-8 -45q24 -1 44 -8.5t29.5 -21t5.5 -34.5q-4 -28 -26.5 -44.5t-49.5 -15.5q-29 0 -42.5 17.5t-13.5 45.5h-84q-3 -38 11.5 -68t45 -48.5t75.5 -19.5zM434 79h359l13 73h-102l-12 -10l-178 -1zM528 99l155 177l-30 -170l-8 -6
l-17 -100h88l72 420l-61 -1l-295 -341z" />
    <glyph glyph-name="questiondown" unicode="&#xbf;" horiz-adv-x="588" 
d="M189 200q8 36 36 65t71 47t94 19h29l9 177h-103l-24 -94q-56 -10 -107.5 -37.5t-87.5 -72t-45 -103.5q-7 -47 5.5 -86.5t42.5 -68.5t70.5 -45t86.5 -16q56 -1 103 15t87 44t76 65l-80 73q-32 -36 -74.5 -61t-91.5 -24q-34 0 -57.5 12.5t-34 36t-5.5 54.5zM481 645
q4 30 -18 53t-53 24q-23 0 -43 -10.5t-33 -27.5t-15 -37q-4 -30 16.5 -52t53.5 -22q22 -1 42.5 9t33.5 27t16 36z" />
    <glyph glyph-name="Agrave" unicode="&#xc0;" horiz-adv-x="691" 
d="M168 158h361l3 115h-329zM403 472l58 -242l-8 -38l53 -192h157l-218 744l-474 -744h164l122 198l3 33zM334 954l152 -152l75 36l-120 162z" />
    <glyph glyph-name="Aacute" unicode="&#xc1;" horiz-adv-x="691" 
d="M168 158h361l3 115h-329zM403 472l58 -242l-8 -38l53 -192h157l-218 744l-474 -744h164l122 198l3 33zM628 950l-97 49l-171 -156l70 -40z" />
    <glyph glyph-name="Acircumflex" unicode="&#xc2;" horiz-adv-x="691" 
d="M168 158h361l3 115h-329zM403 472l58 -242l-8 -38l53 -192h157l-218 744l-474 -744h164l122 198l3 33zM470 868l79 -88l94 60l-161 141l-201 -137l79 -64z" />
    <glyph glyph-name="Atilde" unicode="&#xc3;" horiz-adv-x="691" 
d="M168 158h361l3 115h-329zM403 472l58 -242l-8 -38l53 -192h157l-218 744l-474 -744h164l122 198l3 33zM281 850l60 -56q4 9 10.5 20.5t17 20t27.5 9.5q24 1 42 -11.5t37 -26t43 -13.5q28 -1 54 11.5t46.5 31t32.5 36.5l-55 67q-16 -20 -33.5 -34.5t-37.5 -15.5
q-19 -1 -33 6t-26 17t-26.5 17.5t-35.5 8.5q-29 0 -53 -12.5t-42 -32.5t-28 -43z" />
    <glyph glyph-name="Adieresis" unicode="&#xc4;" horiz-adv-x="691" 
d="M168 158h361l3 115h-329zM403 472l58 -242l-8 -38l53 -192h157l-218 744l-474 -744h164l122 198l3 33zM510 837q-4 -30 15 -52t51 -22q30 -1 56 21t30 51q4 30 -15.5 52t-50.5 23q-32 1 -57.5 -21t-28.5 -52zM256 841q-3 -30 17 -51.5t51 -22.5t57 21t30 51q3 30 -16 52
t-51 23q-31 0 -57.5 -21.5t-30.5 -51.5z" />
    <glyph glyph-name="Aring" unicode="&#xc5;" horiz-adv-x="691" 
d="M168 158h361l3 115h-329zM403 472l58 -242l-8 -38l53 -192h157l-218 744l-474 -744h164l122 198l3 33zM340 801q-4 -31 8 -56.5t36 -40t55 -14.5q32 0 60.5 14t47.5 39t24 56q4 31 -8 56.5t-36.5 40t-55.5 14.5q-32 0 -60.5 -14t-47.5 -38.5t-23 -56.5zM408 799
q1 13 11 24.5t22.5 19t24.5 6.5q17 -1 27 -16t8 -32q-1 -13 -10 -24.5t-22 -19t-24 -6.5q-18 1 -28.5 16t-8.5 32z" />
    <glyph glyph-name="AE" unicode="&#xc6;" horiz-adv-x="1016" 
d="M248 169l297 -1l23 133h-294zM520 700l-537 -700h178l482 658zM559 0h365l21 122h-367zM670 578h354l20 122h-524zM612 313l347 -1l20 119h-347zM608 700l-119 -700h149l121 700h-151z" />
    <glyph glyph-name="Ccedilla" unicode="&#xc7;" horiz-adv-x="674" 
d="M220 350q8 49 32 90t59.5 71.5t78.5 47t90 17.5q43 0 78 -12t62.5 -33.5t48.5 -50.5l25 162q-42 36 -90.5 54t-114.5 18q-81 0 -152 -27.5t-128 -76.5t-93.5 -115.5t-48.5 -144.5q-11 -76 5.5 -141.5t57.5 -115t102.5 -78t140.5 -28.5q69 0 122.5 19t101.5 52l23 161
q-29 -26 -63.5 -47.5t-75.5 -34.5t-88 -12q-46 0 -81.5 17.5t-58.5 49.5t-32 72t-1 86zM333 51l-113 -186q20 8 42 13t35 4q12 0 23.5 -3.5t19 -10.5t5.5 -19q-1 -12 -10 -20t-23 -12.5t-27 -4.5q-17 0 -34 6.5t-33 17.5l-48 -58q30 -20 58.5 -30t64.5 -9q29 0 58.5 12
t50 35t25.5 56q3 26 -6.5 45.5t-27 31t-38.5 13.5q-6 0 -13 -0.5t-12 -0.5l101 117z" />
    <glyph glyph-name="Egrave" unicode="&#xc8;" horiz-adv-x="569" 
d="M136 0h345l21 122h-346zM235 579l345 -1l21 122h-346zM189 313l326 -1l21 119h-327zM166 700l-119 -700h136l121 700h-138zM274 930l152 -152l75 39l-120 162z" />
    <glyph glyph-name="Eacute" unicode="&#xc9;" horiz-adv-x="569" 
d="M136 0h345l21 122h-346zM235 579l345 -1l21 122h-346zM189 313l326 -1l21 119h-327zM166 700l-119 -700h136l121 700h-138zM568 925l-96 53l-171 -157l69 -42z" />
    <glyph glyph-name="Ecircumflex" unicode="&#xca;" horiz-adv-x="569" 
d="M136 0h345l21 122h-346zM235 579l345 -1l21 122h-346zM189 313l326 -1l21 119h-327zM166 700l-119 -700h136l121 700h-138zM431 877l89 -94l56 40l-137 142l-181 -138l49 -44z" />
    <glyph glyph-name="Edieresis" unicode="&#xcb;" horiz-adv-x="569" 
d="M136 0h345l21 122h-346zM235 579l345 -1l21 122h-346zM189 313l326 -1l21 119h-327zM166 700l-119 -700h136l121 700h-138zM451 861q-5 -29 14.5 -51t51.5 -22q31 -2 57 20t30 51q4 30 -16 52t-51 23t-57 -21t-29 -52zM226 861q-4 -29 15.5 -51t52.5 -22q30 -2 56 20
t30 51q4 30 -15.5 52t-50.5 23q-32 1 -58 -21t-30 -52z" />
    <glyph glyph-name="Igrave" unicode="&#xcc;" horiz-adv-x="288" 
d="M166 700l-119 -700h142l121 700h-144zM124 930l152 -152l75 39l-121 162z" />
    <glyph glyph-name="Iacute" unicode="&#xcd;" horiz-adv-x="288" 
d="M166 700l-119 -700h142l121 700h-144zM418 925l-95 53l-171 -157l68 -42z" />
    <glyph glyph-name="Icircumflex" unicode="&#xce;" horiz-adv-x="288" 
d="M166 700l-119 -700h142l121 700h-144zM268 870l84 -91l74 50l-150 142l-191 -138l67 -54z" />
    <glyph glyph-name="Idieresis" unicode="&#xcf;" horiz-adv-x="288" 
d="M166 700l-119 -700h142l121 700h-144zM298 849q-4 -29 15 -51t51 -23q31 -1 57 21t29 51q3 30 -16 52t-50 23t-57 -21t-29 -52zM74 849q-4 -29 14.5 -51t51.5 -23q31 -1 57.5 21t29.5 51q3 30 -17 52t-50 23q-32 1 -57.5 -21t-28.5 -52z" />
    <glyph glyph-name="Eth" unicode="&#xd0;" horiz-adv-x="695" 
d="M30 304h327l15 93h-326zM166 700l-119 -700h145l120 700h-146zM283 0q108 2 195 46t144.5 122.5t73.5 181.5q15 99 -18 178t-106 124.5t-179 47.5h-138l-23 -131h144q47 -1 82 -16.5t59 -43.5t32.5 -68.5t0.5 -90.5q-9 -52 -32 -92.5t-58.5 -68.5t-77.5 -42.5t-90 -15.5
h-135l-23 -131h149z" />
    <glyph glyph-name="Ntilde" unicode="&#xd1;" horiz-adv-x="764" 
d="M648 700l-76 -432l-401 466l-125 -734h138l76 433l400 -467l125 734h-137zM291 822l59 -55q4 9 11 20.5t17 20t27 9.5q23 1 41.5 -11.5t37.5 -25.5t43 -13q28 -1 54 11.5t46 31t33 36.5l-54 67q-15 -19 -33 -34.5t-38 -15.5q-19 -1 -32 6t-25.5 17t-27 17.5t-35.5 8.5
q-29 0 -53.5 -13t-42.5 -33.5t-28 -43.5z" />
    <glyph glyph-name="Ograve" unicode="&#xd2;" horiz-adv-x="787" 
d="M216 350q8 47 30.5 88t56.5 73.5t77 50.5t92 18q49 -1 83.5 -20t55 -52t27.5 -74t0 -84q-9 -47 -31.5 -88t-56 -73.5t-76.5 -50.5t-91 -17q-48 0 -83 19t-55.5 52t-28 74t-0.5 84zM67 350q-11 -73 5 -139.5t55.5 -117.5t100.5 -81t141 -30q79 0 150 28.5t127 79t93 118
t49 142.5q10 73 -6.5 139t-57 116.5t-101 79.5t-138.5 29q-80 0 -150.5 -28t-126.5 -77.5t-92.5 -116t-48.5 -142.5zM390 930l152 -152l75 39l-121 162z" />
    <glyph glyph-name="Oacute" unicode="&#xd3;" horiz-adv-x="787" 
d="M216 350q8 47 30.5 88t56.5 73.5t77 50.5t92 18q49 -1 83.5 -20t55 -52t27.5 -74t0 -84q-9 -47 -31.5 -88t-56 -73.5t-76.5 -50.5t-91 -17q-48 0 -83 19t-55.5 52t-28 74t-0.5 84zM67 350q-11 -73 5 -139.5t55.5 -117.5t100.5 -81t141 -30q79 0 150 28.5t127 79t93 118
t49 142.5q10 73 -6.5 139t-57 116.5t-101 79.5t-138.5 29q-80 0 -150.5 -28t-126.5 -77.5t-92.5 -116t-48.5 -142.5zM672 925l-95 53l-171 -157l68 -42z" />
    <glyph glyph-name="Ocircumflex" unicode="&#xd4;" horiz-adv-x="787" 
d="M216 350q8 47 30.5 88t56.5 73.5t77 50.5t92 18q49 -1 83.5 -20t55 -52t27.5 -74t0 -84q-9 -47 -31.5 -88t-56 -73.5t-76.5 -50.5t-91 -17q-48 0 -83 19t-55.5 52t-28 74t-0.5 84zM67 350q-11 -73 5 -139.5t55.5 -117.5t100.5 -81t141 -30q79 0 150 28.5t127 79t93 118
t49 142.5q10 73 -6 139t-57 116.5t-101.5 79.5t-138.5 29q-80 0 -150 -28t-126.5 -77.5t-93 -116t-48.5 -142.5zM525 877l89 -94l55 40l-137 142l-180 -138l50 -44z" />
    <glyph glyph-name="Otilde" unicode="&#xd5;" horiz-adv-x="787" 
d="M216 350q8 47 30.5 88t56.5 73.5t77 50.5t92 18q49 -1 83.5 -20t55 -52t27.5 -74t0 -84q-9 -47 -31.5 -88t-56 -73.5t-76.5 -50.5t-91 -17q-48 0 -83 19t-55.5 52t-28 74t-0.5 84zM67 350q-11 -73 5 -139.5t55.5 -117.5t100.5 -81t141 -30q79 0 150 28.5t127 79t93 118
t49 142.5q10 73 -6 139t-57 116.5t-101.5 79.5t-138.5 29q-80 0 -150 -28t-126.5 -77.5t-93 -116t-48.5 -142.5zM361 824l49 -39q4 9 11.5 20.5t18.5 20t29 9.5q20 0 36.5 -11.5l33 -23t40.5 -11.5q24 -1 46 10t39.5 27.5t28.5 33.5l-41 47q-15 -18 -31.5 -32.5t-32.5 -14.5
q-19 -1 -31.5 6t-24 16.5t-24.5 16t-33 7.5q-19 0 -46 -11.5t-47.5 -30t-20.5 -40.5z" />
    <glyph glyph-name="Odieresis" unicode="&#xd6;" horiz-adv-x="787" 
d="M216 350q8 47 30.5 88t56.5 73.5t77 50.5t92 18q49 -1 83.5 -20t55 -52t27.5 -74t0 -84q-9 -47 -31.5 -88t-56 -73.5t-76.5 -50.5t-91 -17q-48 0 -83 19t-55.5 52t-28 74t-0.5 84zM67 350q-11 -73 5 -139.5t55.5 -117.5t100.5 -81t141 -30q79 0 150 28.5t127 79t93 118
t49 142.5q10 73 -6.5 139t-57 116.5t-101 79.5t-138.5 29q-80 0 -150.5 -28t-126.5 -77.5t-92.5 -116t-48.5 -142.5zM547 850q-3 -30 15.5 -52t50.5 -23t58 21t30 51q3 30 -16.5 52t-51.5 23t-57.5 -21t-28.5 -51zM322 850q-3 -30 16.5 -52t52.5 -23q30 -1 56 21t30 51
q3 30 -16.5 52t-50.5 23q-32 1 -58 -21t-30 -51z" />
    <glyph glyph-name="multiply" unicode="&#xd7;" horiz-adv-x="578" 
d="M107 8l189 169l130 -169l91 81l-136 163l192 162l-68 88l-189 -168l-130 168l-91 -80l136 -164l-192 -162z" />
    <glyph glyph-name="Oslash" unicode="&#xd8;" horiz-adv-x="766" 
d="M216 350q8 48 30.5 89.5t56.5 73.5t76.5 49.5t90.5 17.5q48 -1 83 -19.5t56 -51t28.5 -73.5t0.5 -86q-9 -48 -31.5 -89.5t-56 -73.5t-76.5 -49.5t-91 -16.5q-48 0 -83 18.5t-55.5 51t-28 73.5t-0.5 86zM67 350q-11 -73 5 -139.5t56.5 -117.5t101 -81t139.5 -30t149 28.5
t127 79t94 118t49 142.5q10 73 -6 139t-57 116.5t-101.5 79.5t-138.5 29q-79 0 -150 -27.5t-127 -77.5t-92.5 -116t-48.5 -143zM772 754l-757 -758l62 -49l757 757z" />
    <glyph glyph-name="Ugrave" unicode="&#xd9;" horiz-adv-x="658" 
d="M161 700l-79 -470q-8 -57 4 -103.5t41.5 -80t73.5 -51.5t102 -18t108.5 18t90 51t66 79.5t36.5 104.5l80 470h-141l-80 -462q-7 -37 -26.5 -66.5t-49.5 -47t-71 -16.5q-39 0 -61.5 18t-30 47.5t-2.5 64.5l80 462h-141zM313 926l152 -152l75 38l-120 162z" />
    <glyph glyph-name="Uacute" unicode="&#xda;" horiz-adv-x="658" 
d="M161 700l-79 -470q-8 -57 4 -103.5t41.5 -80t73.5 -51.5t102 -18t108.5 18t90 51t66 79.5t36.5 104.5l80 470h-141l-80 -462q-7 -37 -26.5 -66.5t-49.5 -47t-71 -16.5q-39 0 -61.5 18t-30 47.5t-2.5 64.5l80 462h-141zM610 922l-97 52l-172 -157l70 -42z" />
    <glyph glyph-name="Ucircumflex" unicode="&#xdb;" horiz-adv-x="658" 
d="M161 700l-79 -470q-8 -57 4 -103.5t41.5 -80t73.5 -51.5t102 -18t108.5 18t90 51t66 79.5t36.5 104.5l80 470h-141l-80 -462q-7 -37 -26.5 -66.5t-49.5 -47t-71 -16.5q-39 0 -61.5 18t-30 47.5t-2.5 64.5l80 462h-141zM453 863l78 -88l96 59l-160 142l-204 -137l80 -64z
" />
    <glyph glyph-name="Udieresis" unicode="&#xdc;" horiz-adv-x="658" 
d="M161 700l-79 -470q-8 -57 4 -103.5t41.5 -80t73.5 -51.5t102 -18t108.5 18t90 51t66 79.5t36.5 104.5l80 470h-141l-80 -462q-7 -37 -26.5 -66.5t-49.5 -47t-71 -16.5q-39 0 -61.5 18t-30 47.5t-2.5 64.5l80 462h-141zM496 850q-4 -30 15 -52t52 -23q29 -1 55 21t31 51
q3 30 -16.5 52t-50.5 23q-32 1 -57.5 -21t-28.5 -51zM246 850q-5 -30 14.5 -52t51.5 -23q31 -1 57 21t30 51q3 30 -16.5 52t-50.5 23q-32 1 -57.5 -21t-28.5 -51z" />
    <glyph glyph-name="Yacute" unicode="&#xdd;" horiz-adv-x="611" 
d="M584 922l-95 52l-171 -157l68 -42zM542 700l-194 -279l-95 279h-158l163 -407l-51 -293h145l49 287l307 413h-166z" />
    <glyph glyph-name="Thorn" unicode="&#xde;" horiz-adv-x="575" 
d="M169 700l-119 -700h126l121 700h-128zM205 456h139q37 -2 62.5 -13t37.5 -33.5t6 -57.5t-27.5 -57.5t-52.5 -34t-70 -12.5h-130l-21 -116h140q76 1 137.5 27.5t101.5 74t51 118.5q9 68 -16 118t-79.5 76.5t-127.5 27.5h-131z" />
    <glyph glyph-name="germandbls" unicode="&#xdf;" horiz-adv-x="591" 
d="M372 -12q45 0 82.5 15.5t66 43.5t45 64.5t16.5 78.5q0 36 -9.5 61.5t-24.5 42.5t-32 29.5t-32.5 23.5t-25 23t-9.5 28q0 20 14.5 36t35.5 33.5t42 39t35 51.5t14 72q0 51 -26.5 87.5t-71.5 57.5t-101 21q-83 0 -138 -28.5t-86 -80t-42 -118.5l-95 -571h130l95 564
q7 40 23 66t40 39t58 13q22 0 40.5 -7.5t29 -23.5t10.5 -42q0 -30 -14.5 -52.5t-36.5 -40.5t-44 -36.5t-36.5 -39.5t-14.5 -50q0 -22 10 -40t25.5 -31.5t32.5 -26t32.5 -27t25.5 -33t10 -44.5q0 -25 -11.5 -45.5t-32.5 -32.5t-47 -12q-18 0 -35 5t-33.5 14t-30.5 21
l-37 -100q17 -14 42 -24.5t54.5 -17t56.5 -6.5z" />
    <glyph glyph-name="agrave" unicode="&#xe0;" horiz-adv-x="510" 
d="M149 136q4 22 19.5 38t37.5 23.5t48 8.5q36 0 63.5 -11t52.5 -30l9 63q-13 14 -35.5 26t-50 19.5t-58.5 7.5q-53 -1 -100 -18.5t-77.5 -52t-37.5 -82.5q-6 -43 10.5 -73.5t50.5 -47t79 -16.5q47 -1 85 16t64.5 48.5t36.5 73.5l-7 55q-8 -33 -27 -56.5t-45 -35.5t-58 -11
q-19 0 -34 6t-22 18.5t-4 30.5zM143 328l40.5 18t50.5 17.5t57 5.5q23 0 39 -7.5t24 -21.5t7 -35l-55 -305h126l55 327q6 48 -17 80t-66 48t-94 17q-57 0 -108 -16.5t-92 -35.5zM186 684l152 -152l74 38l-120 162z" />
    <glyph glyph-name="aacute" unicode="&#xe1;" horiz-adv-x="510" 
d="M149 136q4 22 19.5 38t37.5 23.5t48 8.5q36 0 63.5 -11t52.5 -30l9 63q-13 14 -35.5 26t-50 19.5t-58.5 7.5q-53 -1 -100 -18.5t-77.5 -52t-37.5 -82.5q-6 -43 10.5 -73.5t50.5 -47t79 -16.5q47 -1 85 16t64.5 48.5t36.5 73.5l-7 55q-8 -33 -27 -56.5t-45 -35.5t-58 -11
q-19 0 -34 6t-22 18.5t-4 30.5zM143 328l40.5 18t50.5 17.5t57 5.5q23 0 39 -7.5t24 -21.5t7 -35l-55 -305h126l55 327q6 48 -17 80t-66 48t-94 17q-57 0 -108 -16.5t-92 -35.5zM514 679l-96 52l-171 -157l69 -41z" />
    <glyph glyph-name="acircumflex" unicode="&#xe2;" horiz-adv-x="510" 
d="M149 136q4 22 19.5 38t37.5 23.5t48 8.5q36 0 63.5 -11t52.5 -30l9 63q-13 14 -35.5 26t-50 19.5t-58.5 7.5q-53 -1 -100 -18.5t-77.5 -52t-37.5 -82.5q-6 -43 10.5 -73.5t50.5 -47t79 -16.5q47 -1 85 16t64.5 48.5t36.5 73.5l-7 55q-8 -33 -27 -56.5t-45 -35.5t-58 -11
q-19 0 -34 6t-22 18.5t-4 30.5zM143 328l40.5 18t50.5 17.5t57 5.5q23 0 39 -7.5t24 -21.5t7 -35l-55 -305h126l55 327q6 48 -17 80t-66 48t-94 17q-57 0 -108 -16.5t-92 -35.5zM342 621l78 -89l96 61l-161 141l-202 -137l80 -65z" />
    <glyph glyph-name="atilde" unicode="&#xe3;" horiz-adv-x="510" 
d="M149 136q4 22 19.5 38t37.5 23.5t48 8.5q36 0 63.5 -11t52.5 -30l9 63q-13 14 -35.5 26t-50 19.5t-58.5 7.5q-53 -1 -100 -18.5t-77.5 -52t-37.5 -82.5q-6 -43 10.5 -73.5t50.5 -47t79 -16.5q47 -1 85 16t64.5 48.5t36.5 73.5l-7 55q-8 -33 -27 -56.5t-45 -35.5t-58 -11
q-19 0 -34 6t-22 18.5t-4 30.5zM143 328l40.5 18t50.5 17.5t57 5.5q23 0 39 -7.5t24 -21.5t7 -35l-55 -305h126l55 327q6 48 -17 80t-66 48t-94 17q-57 0 -108 -16.5t-92 -35.5zM151 592l59 -56q4 9 10.5 20t17 20t27.5 10q23 1 41.5 -11.5t37 -26t43.5 -13.5q28 -1 54 11.5
t46 31t32 36.5l-53 67q-16 -19 -33.5 -34.5t-37.5 -15.5q-19 -1 -32.5 6t-26 17t-27 17.5t-34.5 8.5q-30 0 -53.5 -12.5t-42 -33t-28.5 -42.5z" />
    <glyph glyph-name="adieresis" unicode="&#xe4;" horiz-adv-x="510" 
d="M149 136q4 22 19.5 38t37.5 23.5t48 8.5q36 0 63.5 -11t52.5 -30l9 63q-13 14 -35.5 26t-50 19.5t-58.5 7.5q-53 -1 -100 -18.5t-77.5 -52t-37.5 -82.5q-6 -43 10.5 -73.5t50.5 -47t79 -16.5q47 -1 85 16t64.5 48.5t36.5 73.5l-7 55q-8 -33 -27 -56.5t-45 -35.5t-58 -11
q-19 0 -34 6t-22 18.5t-4 30.5zM143 328l40.5 18t50.5 17.5t57 5.5q23 0 39 -7.5t24 -21.5t7 -35l-55 -305h126l55 327q6 48 -17 80t-66 48t-94 17q-57 0 -108 -16.5t-92 -35.5zM372 607q-4 -29 15.5 -51.5t50.5 -22.5q31 -1 56.5 21t29.5 51q4 30 -15.5 52t-50.5 23
t-57 -21t-29 -52zM147 607q-4 -29 15.5 -51.5t51.5 -22.5q31 -1 56.5 21t29.5 51q3 30 -16 52t-50 23q-32 1 -57.5 -21t-29.5 -52z" />
    <glyph glyph-name="aring" unicode="&#xe5;" horiz-adv-x="510" 
d="M149 136q4 22 19.5 38t37.5 23.5t48 8.5q36 0 63.5 -11t52.5 -30l9 63q-13 14 -35.5 26t-50 19.5t-58.5 7.5q-53 -1 -100 -18.5t-77.5 -52t-37.5 -82.5q-6 -43 10.5 -73.5t50.5 -47t79 -16.5q47 -1 85 16t64.5 48.5t36.5 73.5l-7 55q-8 -33 -27 -56.5t-45 -35.5t-58 -11
q-19 0 -34 6t-22 18.5t-4 30.5zM143 328l40.5 18t50.5 17.5t57 5.5q23 0 39 -7.5t24 -21.5t7 -35l-55 -305h126l55 327q6 48 -17 80t-66 48t-94 17q-57 0 -108 -16.5t-92 -35.5zM228 645q-4 -30 7.5 -56.5t36 -41t56.5 -14.5q31 -1 59.5 13.5t47.5 40.5t23 56q5 31 -7 56.5
t-36.5 40t-55.5 14.5q-32 0 -60.5 -14t-47.5 -38.5t-23 -56.5zM296 644q1 13 11 24t22.5 18.5t24.5 6.5q17 -1 26.5 -15.5t7.5 -32.5q-1 -13 -10 -25t-21.5 -19t-24.5 -6q-17 1 -28 15.5t-8 33.5z" />
    <glyph glyph-name="ae" unicode="&#xe6;" horiz-adv-x="859" 
d="M187 -10q80 0 135 30t78 84l-15 1q18 -59 63.5 -87t120.5 -28q79 0 142.5 32.5t105.5 97.5l-112 36q-20 -33 -53.5 -50t-74.5 -17q-37 0 -59 16.5t-29 46.5t-3 68l-22 -18h367q4 10 7 24.5t4 30.5q5 68 -16 115.5t-64 72.5t-105 25q-49 0 -91.5 -15t-75.5 -41.5
t-56 -62.5l17 8q4 57 -33 85t-109 28q-48 0 -99.5 -13.5t-103.5 -40.5l38 -90q20 12 45.5 21.5t52.5 15t49 5.5q37 0 56.5 -18.5t14.5 -57.5l-12 -67h61q-58 32 -98 43t-82 11q-61 0 -108 -20.5t-75 -56t-31 -80.5q-5 -60 38 -97t132 -37zM222 80q-40 0 -57 13.5t-16 40.5
q1 23 14 39t36 24.5t51 8.5q30 0 58 -7t52 -22l-15 27v-76l6 61q-14 -55 -46.5 -82t-82.5 -27zM486 237q10 45 28.5 76.5t46 48t64.5 16.5q33 0 51.5 -13t26 -38t5.5 -61q0 -6 -0.5 -8.5t-2.5 -7.5l25 31h-259z" />
    <glyph glyph-name="ccedilla" unicode="&#xe7;" horiz-adv-x="473" 
d="M172 230q7 36 29.5 66t55 48.5t70.5 19.5q27 0 51 -9.5t43 -26t31 -38.5l20 134q-27 21 -63 33.5t-80 12.5q-73 -1 -135 -31.5t-102.5 -84.5t-50.5 -124q-11 -67 14 -121.5t76.5 -86t123.5 -31.5q46 0 84.5 12t68.5 34l20 132q-19 -20 -43 -36.5t-53 -26t-59 -8.5
q-37 1 -61.5 18.5t-35 48t-4.5 65.5zM218 59l-115 -183q21 8 43 11.5t36 2.5q11 0 22.5 -3t18.5 -10t5 -18q-1 -12 -10.5 -20.5t-22.5 -13.5t-26 -6q-17 0 -34 7t-32 18l-48 -56q29 -22 57.5 -32t64.5 -10q28 1 58 13.5t51 35t25 54.5q3 27 -6.5 47t-26.5 32t-38 13
q-6 0 -13.5 -1t-12.5 -2l99 119z" />
    <glyph glyph-name="egrave" unicode="&#xe8;" horiz-adv-x="538" 
d="M113 203h402q2 10 3.5 18t3.5 15q7 67 -12.5 119.5t-66.5 83t-120 31.5q-67 0 -121 -24.5t-91.5 -67.5t-55.5 -99q-4 -12 -7 -24t-5 -25q-9 -66 12.5 -120.5t70.5 -86.5t123 -32q58 -1 103.5 16t81.5 45.5t65 66.5l-109 37q-16 -19 -36 -34.5t-44.5 -24t-51.5 -7.5
q-36 1 -57 19.5t-27.5 50t-1.5 70.5l7 27q7 33 26 61t46.5 44t61.5 16q29 -1 46 -14t23.5 -34.5t7.5 -47.5l-265 -1zM211 688l153 -151l76 36l-121 163z" />
    <glyph glyph-name="eacute" unicode="&#xe9;" horiz-adv-x="538" 
d="M113 203h402q2 10 3.5 18t3.5 15q7 67 -12.5 119.5t-66.5 83t-120 31.5q-67 0 -121 -24.5t-91.5 -67.5t-55.5 -99q-4 -12 -7 -24t-5 -25q-9 -66 12.5 -120.5t70.5 -86.5t123 -32q58 -1 103.5 16t81.5 45.5t65 66.5l-109 37q-16 -19 -36 -34.5t-44.5 -24t-51.5 -7.5
q-36 1 -57 19.5t-27.5 50t-1.5 70.5l7 27q7 33 26 61t46.5 44t61.5 16q29 -1 46 -14t23.5 -34.5t7.5 -47.5l-265 -1zM530 684l-97 51l-171 -157l70 -40z" />
    <glyph glyph-name="ecircumflex" unicode="&#xea;" horiz-adv-x="538" 
d="M113 203h402q2 10 3.5 18t3.5 15q7 67 -12.5 119.5t-66.5 83t-120 31.5q-67 0 -121 -24.5t-91.5 -67.5t-55.5 -99q-4 -12 -7 -24t-5 -25q-9 -66 12.5 -120.5t70.5 -86.5t123 -32q58 -1 103.5 16t81.5 45.5t65 66.5l-109 37q-16 -19 -36 -34.5t-44.5 -24t-51.5 -7.5
q-36 1 -57 19.5t-27.5 50t-1.5 70.5l7 27q7 33 26 61t46.5 44t61.5 16q29 -1 46 -14t23.5 -34.5t7.5 -47.5l-265 -1zM356 618l79 -88l95 60l-161 142l-202 -137l81 -64z" />
    <glyph glyph-name="edieresis" unicode="&#xeb;" horiz-adv-x="538" 
d="M113 203h402q2 10 3.5 18t3.5 15q7 67 -12.5 119.5t-66.5 83t-120 31.5q-67 0 -121 -24.5t-91.5 -67.5t-55.5 -99q-4 -12 -7 -24t-5 -25q-9 -66 12.5 -120.5t70.5 -86.5t123 -32q58 -1 103.5 16t81.5 45.5t65 66.5l-109 37q-16 -19 -36 -34.5t-44.5 -24t-51.5 -7.5
q-36 1 -57 19.5t-27.5 50t-1.5 70.5l7 27q7 33 26 61t46.5 44t61.5 16q29 -1 46 -14t23.5 -34.5t7.5 -47.5l-265 -1zM386 606q-4 -31 15.5 -52.5t50.5 -22.5t57 21t29 51q4 30 -15.5 52t-50.5 23t-57 -21t-29 -51zM161 606q-4 -31 15.5 -52.5t52.5 -22.5q29 -1 56 21t30 51
q4 30 -16 52t-51 23q-32 1 -57.5 -21t-29.5 -51z" />
    <glyph glyph-name="igrave" unicode="&#xec;" horiz-adv-x="263" 
d="M120 460l-77 -460h123l80 460h-126zM55 694l152 -152l73 36l-120 162z" />
    <glyph glyph-name="iacute" unicode="&#xed;" horiz-adv-x="263" 
d="M120 460l-77 -460h123l80 460h-126zM387 690l-97 50l-171 -157l71 -40z" />
    <glyph glyph-name="icircumflex" unicode="&#xee;" horiz-adv-x="263" 
d="M120 460l-77 -460h123l80 460h-126zM215 623l78 -86l95 60l-160 141l-203 -137l80 -64z" />
    <glyph glyph-name="idieresis" unicode="&#xef;" horiz-adv-x="263" 
d="M120 460l-77 -460h123l80 460h-126zM246 623q-4 -30 15.5 -52t51.5 -22q31 -1 56.5 21t29.5 51q3 30 -16 51.5t-51 22.5q-31 1 -56.5 -20.5t-29.5 -51.5zM21 623q-3 -30 16.5 -52t50.5 -22q31 -1 57 21t30 51q3 30 -16.5 51.5t-50.5 22.5t-57 -20.5t-30 -51.5z" />
    <glyph glyph-name="eth" unicode="&#xf0;" horiz-adv-x="611" 
d="M286 -13q65 0 118.5 23.5t91.5 64t59 93t21 110.5q0 45 -9.5 89.5t-31 89t-54 91.5t-79.5 96.5t-108 105.5l-93 -70q49 -37 87 -73.5t68.5 -75t53.5 -80.5t42 -93l41 -2q-45 56 -90 84t-103 28q-48 0 -92.5 -19t-79.5 -54t-55.5 -81.5t-20.5 -101.5q0 -68 30 -119.5
t83 -78.5t121 -27zM293 104q-31 0 -54.5 14t-37 39t-13.5 56t12 57.5t33 47.5t47 32.5t53 11.5q31 0 54 -13t36.5 -38.5t13.5 -59.5q0 -28 -11 -54t-30 -47t-45.5 -33.5t-57.5 -12.5zM216 506l328 110l-16 53l-327 -111z" />
    <glyph glyph-name="ntilde" unicode="&#xf1;" horiz-adv-x="543" 
d="M242 460h-129l-80 -460h130zM373 280l-49 -280h132l50 294q6 50 -5.5 90t-42.5 63t-84 23q-56 0 -96.5 -27t-65.5 -71t-34 -94l33 3q6 25 21.5 46.5t36.5 34t49 12.5q26 -2 39 -14.5t16 -34t0 -45.5zM164 590l58 -56q4 9 11 20.5t17.5 20t28.5 9.5q21 1 40 -11.5
t38 -25.5t43 -14q28 -1 53.5 11.5t46 31t32.5 37.5l-54 67q-16 -20 -34 -35t-38 -16q-18 -1 -31.5 6t-26.5 17t-27 17.5t-35 8.5q-29 0 -52.5 -12.5t-41.5 -32.5t-28 -43z" />
    <glyph glyph-name="ograve" unicode="&#xf2;" horiz-adv-x="558" 
d="M43 230q-10 -67 14.5 -121.5t76 -86t121.5 -31.5q72 0 133 30.5t102 85t52 123.5q9 67 -15.5 121.5t-76 86.5t-122.5 32q-72 0 -132.5 -31t-101.5 -85.5t-51 -123.5zM174 230q6 36 27 65.5t51 47t66 17.5q34 -1 56 -19.5t31.5 -48t4.5 -62.5q-6 -35 -27.5 -64.5
t-51.5 -47.5t-66 -17q-35 0 -57 19t-31 48t-3 62zM215 694l153 -152l75 36l-121 162z" />
    <glyph glyph-name="oacute" unicode="&#xf3;" horiz-adv-x="558" 
d="M43 230q-10 -67 14.5 -121.5t76 -86t121.5 -31.5q72 0 133 30.5t102 85t52 123.5q9 67 -15.5 121.5t-76 86.5t-122.5 32q-72 0 -132.5 -31t-101.5 -85.5t-51 -123.5zM174 230q6 36 27 65.5t51 47t66 17.5q34 -1 56 -19.5t31.5 -48t4.5 -62.5q-6 -35 -27.5 -64.5
t-51.5 -47.5t-66 -17q-35 0 -57 19t-31 48t-3 62zM527 690l-97 50l-171 -157l70 -40z" />
    <glyph glyph-name="ocircumflex" unicode="&#xf4;" horiz-adv-x="558" 
d="M43 230q-10 -67 14.5 -121.5t76 -86t121.5 -31.5q72 0 133 30.5t102 85t52 123.5q9 67 -15.5 121.5t-76 86.5t-122.5 32q-72 0 -132.5 -31t-101.5 -85.5t-51 -123.5zM174 230q6 36 27 65.5t51 47t66 17.5q34 -1 56 -19.5t31.5 -48t4.5 -62.5q-6 -35 -27.5 -64.5
t-51.5 -47.5t-66 -17q-35 0 -57 19t-31 48t-3 62zM363 630l79 -88l94 60l-160 142l-202 -137l81 -64z" />
    <glyph glyph-name="otilde" unicode="&#xf5;" horiz-adv-x="558" 
d="M43 230q-10 -67 14.5 -121.5t76 -86t121.5 -31.5q72 0 133 30.5t102 85t52 123.5q9 67 -15.5 121.5t-76 86.5t-122.5 32q-72 0 -132.5 -31t-101.5 -85.5t-51 -123.5zM174 230q6 36 27 65.5t51.5 47t65.5 17.5q34 -1 56 -19.5t31.5 -47.5t4.5 -63q-6 -35 -27.5 -64.5
t-51.5 -47.5t-66 -17q-34 0 -56.5 19t-31.5 47.5t-3 62.5zM171 590l59 -56q4 9 10.5 20.5t17.5 20t28 9.5q22 1 41 -11.5t38 -25.5t43 -14q28 -1 54 11.5t45.5 31t32.5 37.5l-54 67q-16 -20 -33 -35t-38 -16q-18 -1 -32 6t-26.5 17t-27 17.5t-34.5 8.5q-25 0 -53 -12.5
t-49.5 -32.5t-21.5 -43z" />
    <glyph glyph-name="odieresis" unicode="&#xf6;" horiz-adv-x="558" 
d="M43 230q-10 -67 14.5 -121.5t76 -86t121.5 -31.5q72 0 133 30.5t102 85t52 123.5q9 67 -15.5 121.5t-76 86.5t-122.5 32q-72 0 -132.5 -31t-101.5 -85.5t-51 -123.5zM174 230q6 36 27 65.5t51 47t66 17.5q34 -1 56 -19.5t31.5 -48t4.5 -62.5q-6 -35 -27.5 -64.5
t-51.5 -47.5t-66 -17q-35 0 -57 19t-31 48t-3 62zM394 623q-3 -30 16 -52t52 -22q29 -1 55.5 21.5t30.5 50.5q3 30 -16.5 51.5t-50.5 22.5q-32 1 -57.5 -20.5t-29.5 -51.5zM170 623q-3 -30 15.5 -52t51.5 -22q30 -1 56 21.5t30 50.5q4 30 -16 51.5t-50 22.5
q-32 1 -57.5 -20.5t-29.5 -51.5z" />
    <glyph glyph-name="divide" unicode="&#xf7;" horiz-adv-x="615" 
d="M288 523q-4 -21 4.5 -39.5t25 -30t39.5 -11.5q22 0 42.5 11t34.5 29t16 39q3 21 -5.5 39.5t-26 30.5t-39.5 13q-23 0 -43 -11.5t-33 -30t-15 -39.5zM214 91q-2 -21 6 -39.5t24.5 -30.5t39.5 -12q22 -1 42.5 10.5t34 30t16.5 39.5t-5.5 39.5t-26 30.5t-39.5 12
q-23 0 -43 -11t-33 -29.5t-16 -39.5zM49 250l547 -1l20 119h-547z" />
    <glyph glyph-name="oslash" unicode="&#xf8;" horiz-adv-x="529" 
d="M43 230q-10 -69 15 -123t76 -85t121 -31q71 0 132.5 30.5t102.5 84t52 124.5q9 69 -15.5 123.5t-76.5 85.5t-122 31q-71 0 -131.5 -30.5t-102 -85t-51.5 -124.5zM166 230q7 36 29 66.5t54.5 49.5t68.5 19q37 -1 61.5 -21t34.5 -50t4 -64q-6 -37 -28.5 -68t-55 -48.5
t-70.5 -16.5q-35 0 -59.5 18.5t-34.5 49t-4 65.5zM494 504l-465 -522l50 -28l466 520z" />
    <glyph glyph-name="ugrave" unicode="&#xf9;" horiz-adv-x="543" 
d="M327 0h129l79 460h-128zM197 180l48 280h-132l-51 -293q-6 -51 5 -91t42 -62.5t85 -22.5q55 0 96 26.5t66.5 71.5t35.5 94l-33 -4q-7 -25 -22.5 -46.5t-37.5 -34t-49 -11.5t-39 14t-15 34t1 45zM229 694l153 -152l74 36l-120 162z" />
    <glyph glyph-name="uacute" unicode="&#xfa;" horiz-adv-x="543" 
d="M327 0h129l79 460h-128zM197 180l48 280h-132l-51 -293q-6 -51 5 -91t42 -62.5t85 -22.5q55 0 96 26.5t66.5 71.5t35.5 94l-33 -4q-7 -25 -22.5 -46.5t-37.5 -34t-49 -11.5t-39 14t-15 34t1 45zM497 690l-96 50l-170 -157l68 -40z" />
    <glyph glyph-name="ucircumflex" unicode="&#xfb;" horiz-adv-x="543" 
d="M327 0h129l79 460h-128zM197 180l48 280h-132l-51 -293q-6 -51 5 -91t42 -62.5t85 -22.5q55 0 96 26.5t66.5 71.5t35.5 94l-33 -4q-7 -25 -22.5 -46.5t-37.5 -34t-49 -11.5t-39 14t-15 34t1 45zM356 630l78 -88l95 60l-160 142l-202 -137l80 -64z" />
    <glyph glyph-name="udieresis" unicode="&#xfc;" horiz-adv-x="543" 
d="M327 0h129l79 460h-128zM197 180l48 280h-132l-51 -293q-6 -51 5 -91t42 -62.5t85 -22.5q55 0 96 26.5t66.5 71.5t35.5 94l-33 -4q-7 -25 -22.5 -46.5t-37.5 -34t-49 -11.5t-39 14t-15 34t1 45zM387 618q-5 -31 14 -52.5t51 -22.5q31 -1 57 21t30 51q4 30 -16 52t-50 23
q-32 0 -57.5 -21.5t-28.5 -50.5zM162 618q-4 -31 15 -52.5t51 -22.5q31 -1 57 21t30 51q3 30 -16.5 52t-49.5 23q-32 0 -58 -21.5t-29 -50.5z" />
    <glyph glyph-name="yacute" unicode="&#xfd;" horiz-adv-x="481" 
d="M544 460h-137l-204 -363l64 -3l-81 366h-140l117 -410l-162 -269h135zM480 690l-97 50l-170 -157l69 -40z" />
    <glyph glyph-name="thorn" unicode="&#xfe;" 
d="M124 -219l170 999h-128l-172 -1000zM567 230q8 65 -12 120t-63.5 87.5t-104.5 32.5q-46 -1 -85 -19.5t-69 -51.5t-49 -76.5t-25 -92.5q-6 -46 0 -89t25 -77t51 -54t78 -20q62 0 116.5 31t91 86t46.5 123zM433 230q-6 -36 -27.5 -66t-52.5 -48t-66 -17q-24 0 -42 11
t-29.5 29t-15.5 42t-1 50q4 27 17.5 50.5t33 41.5t43 28.5t47.5 10.5q35 -1 57 -19.5t31.5 -48.5t4.5 -64z" />
    <glyph glyph-name="ydieresis" unicode="&#xff;" horiz-adv-x="481" 
d="M544 460h-137l-204 -363l64 -3l-81 366h-140l117 -410l-162 -269h135zM353 606q-4 -31 15.5 -52.5t50.5 -22.5t57 21t30 51q4 30 -15.5 52t-51.5 23q-31 1 -56.5 -21t-29.5 -51zM128 606q-4 -31 16.5 -52.5t51.5 -22.5t57 21t29 51q4 30 -15.5 52t-50.5 23t-57.5 -21
t-30.5 -51z" />
    <glyph glyph-name="Amacron" unicode="&#x100;" horiz-adv-x="691" 
d="M168 158h361l3 115h-329zM403 472l58 -242l-8 -38l53 -192h157l-218 744l-474 -744h164l122 198l3 33zM278 803l356 -1l19 114h-356z" />
    <glyph glyph-name="amacron" unicode="&#x101;" horiz-adv-x="510" 
d="M149 136q4 22 19.5 38t37.5 23.5t48 8.5q36 0 63.5 -11t52.5 -30l9 63q-13 14 -35.5 26t-50 19.5t-58.5 7.5q-53 -1 -100 -18.5t-77.5 -52t-37.5 -82.5q-6 -43 10.5 -73.5t50.5 -47t79 -16.5q47 -1 85 16t64.5 48.5t36.5 73.5l-7 55q-8 -33 -27 -56.5t-45 -35.5t-58 -11
q-19 0 -34 6t-22 18.5t-4 30.5zM143 328l40.5 18t50.5 17.5t57 5.5q23 0 39 -7.5t24 -21.5t7 -35l-55 -305h126l55 327q6 48 -17 80t-66 48t-94 17q-57 0 -108 -16.5t-92 -35.5zM148 545l356 -1l19 114h-356z" />
    <glyph glyph-name="Abreve" unicode="&#x102;" horiz-adv-x="691" 
d="M168 158h361l3 115h-329zM403 472l58 -242l-8 -38l53 -192h157l-218 744l-474 -744h164l122 198l3 33zM321 946q-3 -41 12 -72.5t46.5 -51t79.5 -19.5q49 0 86 19.5t60.5 51t33.5 71.5l-92 1q-5 -16 -16.5 -30.5t-28 -24t-37.5 -8.5q-22 0 -34.5 9t-17.5 23.5t-4 30.5
h-88z" />
    <glyph glyph-name="abreve" unicode="&#x103;" horiz-adv-x="510" 
d="M149 136q4 22 19.5 38t37.5 23.5t48 8.5q36 0 63.5 -11t52.5 -30l9 63q-13 14 -35.5 26t-50 19.5t-58.5 7.5q-53 -1 -100 -18.5t-77.5 -52t-37.5 -82.5q-6 -43 10.5 -73.5t50.5 -47t79 -16.5q47 -1 85 16t64.5 48.5t36.5 73.5l-7 55q-8 -33 -27 -56.5t-45 -35.5t-58 -11
q-19 0 -34 6t-22 18.5t-4 30.5zM143 328l40.5 18t50.5 17.5t57 5.5q23 0 39 -7.5t24 -21.5t7 -35l-55 -305h126l55 327q6 48 -17 80t-66 48t-94 17q-57 0 -108 -16.5t-92 -35.5zM190 676q-3 -41 11.5 -73t46 -51.5t80.5 -18.5q49 0 85.5 19.5t60 51t32.5 71.5l-91 1
q-6 -15 -16.5 -30t-27 -24.5t-38.5 -8.5q-21 1 -33.5 9.5t-17.5 23t-5 30.5h-87z" />
    <glyph glyph-name="Aogonek" unicode="&#x104;" horiz-adv-x="691" 
d="M168 158h361l3 115h-329zM403 472l58 -242l-8 -38l53 -192h157l-218 744l-474 -744h164l122 198l3 33zM614 -116q-11 -8 -24.5 -14.5t-28.5 -4.5q-18 1 -24 11.5t-5 27.5q4 20 19 37t35.5 32t43.5 27l-39 25q-33 -17 -66.5 -37t-57.5 -46.5t-29 -60.5q-5 -31 7 -53.5
t37 -35t56 -11.5q34 0 57.5 11.5t40.5 26.5z" />
    <glyph glyph-name="aogonek" unicode="&#x105;" horiz-adv-x="510" 
d="M149 136q3 22 19 38t38 23.5t48 8.5q36 0 63.5 -11t52.5 -30l9 63q-13 14 -35.5 26t-50 19t-58.5 8q-54 -1 -100.5 -17.5t-77 -50t-37.5 -80.5q-6 -45 11 -76.5t50.5 -48.5t78.5 -17q47 -1 85 16t64.5 48.5t36.5 73.5l-7 55q-8 -33 -27 -56.5t-45 -35.5t-58 -11
q-18 0 -33 6.5t-22.5 18.5t-4.5 30zM143 328l40.5 18t50.5 17.5t57 5.5q23 0 39 -7.5t24 -21.5t7 -35l-55 -305h126l55 327q6 48 -17 80t-66 48t-94 17q-57 0 -108 -16.5t-92 -35.5zM393 -116q-11 -8 -25 -14.5t-28 -4.5q-18 1 -24 11.5t-5 27.5q4 20 18.5 37t36 32t44.5 27
l-39 25q-34 -17 -68 -37t-58 -46.5t-29 -60.5q-4 -31 8 -53.5t36.5 -35t56.5 -11.5q34 0 58 11.5t41 26.5z" />
    <glyph glyph-name="Cacute" unicode="&#x106;" horiz-adv-x="674" 
d="M220 350q8 49 32 90t59.5 71.5t78.5 47t90 17.5q43 0 78 -12t62.5 -33.5t48.5 -50.5l25 162q-42 36 -90.5 54t-114.5 18q-81 0 -152 -27.5t-128 -76.5t-93.5 -115.5t-48.5 -144.5q-11 -76 5.5 -141.5t57.5 -115t102.5 -78t140.5 -28.5q69 0 122.5 19t101.5 52l23 161
q-29 -26 -63.5 -47.5t-75.5 -34.5t-88 -12q-46 0 -81.5 17.5t-58.5 49.5t-32 72t-1 86zM656 922l-97 52l-171 -157l70 -42z" />
    <glyph glyph-name="cacute" unicode="&#x107;" horiz-adv-x="473" 
d="M172 230q7 36 29.5 66t55 48.5t70.5 19.5q27 0 51 -9.5t43 -26t31 -38.5l20 134q-27 21 -63 33.5t-80 12.5q-73 -1 -135 -31.5t-102.5 -84.5t-50.5 -124q-11 -67 14 -121.5t76.5 -86t123.5 -31.5q46 0 84.5 12t68.5 34l20 132q-19 -20 -43 -36.5t-53 -26t-59 -8.5
q-37 1 -61.5 18.5t-35 48t-4.5 65.5zM496 678l-97 50l-171 -156l70 -41z" />
    <glyph glyph-name="Ccircumflex" unicode="&#x108;" horiz-adv-x="674" 
d="M220 350q8 49 32 90t59.5 71.5t78.5 47t90 17.5q43 0 78 -12t62.5 -33.5t48.5 -50.5l25 162q-42 36 -90.5 54t-114.5 18q-81 0 -152 -27.5t-128 -76.5t-93.5 -115.5t-48.5 -144.5q-11 -76 5.5 -141.5t57.5 -115t102.5 -78t140.5 -28.5q69 0 122.5 19t101.5 52l23 161
q-29 -26 -63.5 -47.5t-75.5 -34.5t-88 -12q-46 0 -81.5 17.5t-58.5 49.5t-32 72t-1 86zM522 863l77 -88l96 59l-160 142l-203 -137l80 -64z" />
    <glyph glyph-name="ccircumflex" unicode="&#x109;" horiz-adv-x="473" 
d="M172 230q7 36 29.5 66t55 48.5t70.5 19.5q27 0 51 -9.5t43 -26t31 -38.5l20 134q-27 21 -63 33.5t-80 12.5q-73 -1 -135 -31.5t-102.5 -84.5t-50.5 -124q-11 -67 14 -121.5t76.5 -86t123.5 -31.5q46 0 84.5 12t68.5 34l20 132q-19 -20 -43 -36.5t-53 -26t-59 -8.5
q-37 1 -61.5 18.5t-35 48t-4.5 65.5zM341 618l77 -88l96 60l-161 142l-202 -137l80 -64z" />
    <glyph glyph-name="Cdotaccent" unicode="&#x10a;" horiz-adv-x="674" 
d="M220 350q8 49 32 90t59.5 71.5t78.5 47t90 17.5q43 0 78 -12t62.5 -33.5t48.5 -50.5l25 162q-42 36 -90.5 54t-114.5 18q-81 0 -152 -27.5t-128 -76.5t-93.5 -115.5t-48.5 -144.5q-11 -76 5.5 -141.5t57.5 -115t102.5 -78t140.5 -28.5q69 0 122.5 19t101.5 52l23 161
q-29 -26 -63.5 -47.5t-75.5 -34.5t-88 -12q-46 0 -81.5 17.5t-58.5 49.5t-32 72t-1 86zM422 849q-5 -29 14.5 -51t51.5 -23q31 -1 57 21t30 51q3 30 -16.5 52t-50.5 23t-57 -21t-29 -52z" />
    <glyph glyph-name="cdotaccent" unicode="&#x10b;" horiz-adv-x="473" 
d="M172 230q7 36 29.5 66t55 48.5t70.5 19.5q27 0 51 -9.5t43 -26t31 -38.5l20 134q-27 21 -63 33.5t-80 12.5q-73 -1 -135 -31.5t-102.5 -84.5t-50.5 -124q-11 -67 14 -121.5t76.5 -86t123.5 -31.5q46 0 84.5 12t68.5 34l20 132q-19 -20 -43 -36.5t-53 -26t-59 -8.5
q-37 1 -61.5 18.5t-35 48t-4.5 65.5zM262 611q-4 -31 15.5 -52.5t51.5 -22.5q30 -1 56 21t31 51q3 30 -16.5 51.5t-51.5 22.5q-31 1 -56.5 -20.5t-29.5 -50.5z" />
    <glyph glyph-name="Ccaron" unicode="&#x10c;" horiz-adv-x="674" 
d="M220 350q8 49 32 90t59.5 71.5t78.5 47t90 17.5q43 0 78 -12t62.5 -33.5t48.5 -50.5l25 162q-42 36 -90.5 54t-114.5 18q-81 0 -152 -27.5t-128 -76.5t-93.5 -115.5t-48.5 -144.5q-11 -76 5.5 -141.5t57.5 -115t102.5 -78t140.5 -28.5q69 0 122.5 19t101.5 52l23 161
q-29 -26 -63.5 -47.5t-75.5 -34.5t-88 -12q-46 0 -81.5 17.5t-58.5 49.5t-32 72t-1 86zM519 890l-78 87l-95 -60l160 -143l203 139l-81 63z" />
    <glyph glyph-name="ccaron" unicode="&#x10d;" horiz-adv-x="473" 
d="M172 230q7 36 29.5 66t55 48.5t70.5 19.5q27 0 51 -9.5t43 -26t31 -38.5l20 134q-27 21 -63 33.5t-80 12.5q-73 -1 -135 -31.5t-102.5 -84.5t-50.5 -124q-11 -67 14 -121.5t76.5 -86t123.5 -31.5q46 0 84.5 12t68.5 34l20 132q-19 -20 -43 -36.5t-53 -26t-59 -8.5
q-37 1 -61.5 18.5t-35 48t-4.5 65.5zM338 645l-79 87l-95 -60l161 -142l202 138l-81 64z" />
    <glyph glyph-name="Dcaron" unicode="&#x10e;" horiz-adv-x="695" 
d="M166 700l-119 -700h145l120 700h-146zM283 0q108 2 195 46t144.5 122.5t73.5 181.5q15 99 -18 178t-106 124.5t-179 47.5h-138l-23 -131h144q47 -1 82 -16.5t59 -43.5t32.5 -68.5t0.5 -90.5q-9 -52 -32 -92.5t-58.5 -68.5t-77.5 -42.5t-90 -15.5h-135l-23 -131h149z
M473 890l-80 87l-93 -60l160 -143l201 139l-79 63z" />
    <glyph glyph-name="dcaron" unicode="&#x10f;" 
d="M505 780l-133 -780h128l134 780h-129zM43 230q-9 -65 10.5 -120t62.5 -87.5t106 -31.5q46 0 85 18.5t69.5 51.5t50 76.5t26.5 92.5q6 46 -1 89t-26 77t-51.5 54t-78.5 20q-63 1 -117 -30.5t-90.5 -86t-45.5 -123.5zM176 230q7 36 27.5 66t51.5 48t67 18q23 -1 41.5 -12
t30 -29t16.5 -41.5t2 -49.5q-5 -27 -18.5 -51t-33.5 -42t-43.5 -28t-47.5 -10q-35 0 -57.5 18.5t-32 48t-3.5 64.5zM744 779l-129 -257l96 -23l159 247z" />
    <glyph glyph-name="Dcroat" unicode="&#x110;" horiz-adv-x="695" 
d="M29 303l324 -1l15 92h-323zM166 700l-119 -700h145l120 700h-146zM283 0q108 2 195 46t144.5 122.5t73.5 181.5q15 99 -18 178t-106 124.5t-179 47.5h-138l-23 -131h144q47 -1 82 -16.5t59 -43.5t32.5 -68.5t0.5 -90.5q-9 -52 -32 -92.5t-58.5 -68.5t-77.5 -42.5
t-90 -15.5h-135l-23 -131h149z" />
    <glyph glyph-name="dcroat" unicode="&#x111;" 
d="M356 573h332l17 92h-332zM505 780l-133 -780h128l134 780h-129zM43 230q-9 -65 10.5 -120t62.5 -87.5t106 -31.5q46 0 85 18.5t69.5 51.5t49.5 76.5t26 92.5q6 46 -0.5 89t-25.5 77t-51.5 54t-78.5 20q-63 1 -117 -30.5t-90.5 -86t-45.5 -123.5zM176 230q7 36 27.5 66
t51.5 48t67 18q23 -1 41.5 -12t30 -29t16.5 -41.5t2 -48.5q-5 -28 -18.5 -52t-33.5 -42t-43.5 -28t-47.5 -10q-35 0 -57.5 18.5t-32 48t-3.5 64.5z" />
    <glyph glyph-name="Emacron" unicode="&#x112;" horiz-adv-x="569" 
d="M136 0h345l21 122h-346zM235 579l345 -1l21 122h-346zM189 313l326 -1l21 119h-327zM166 700l-119 -700h136l121 700h-138zM218 775l356 -1l19 115h-356z" />
    <glyph glyph-name="emacron" unicode="&#x113;" horiz-adv-x="538" 
d="M113 203h402q2 10 3.5 18t3.5 15q7 67 -12.5 119.5t-66.5 83t-121 31.5q-66 0 -120 -24.5t-91.5 -67.5t-55.5 -99q-4 -12 -7 -24t-5 -25q-9 -66 13 -120.5t70.5 -86.5t122.5 -32q58 -1 103.5 16t81.5 45.5t65 66.5l-109 37q-16 -19 -36 -34.5t-44.5 -24t-51.5 -7.5
q-36 1 -57 19.5t-27.5 50t-1.5 70.5l7 27q7 33 26 61t46.5 44t60.5 16q30 -1 47 -14t24 -34.5t7 -47.5l-265 -1zM160 531l357 -1l20 115h-358z" />
    <glyph glyph-name="Ebreve" unicode="&#x114;" horiz-adv-x="569" 
d="M136 0h345l21 122h-346zM235 579l345 -1l21 122h-346zM189 313l326 -1l21 119h-327zM166 700l-119 -700h136l121 700h-138zM260 918q-3 -40 11.5 -72t46.5 -51.5t81 -19.5q48 0 85 19.5t60 51t32 71.5l-90 1q-5 -16 -16.5 -30.5t-28 -24t-37.5 -8.5q-22 1 -34.5 10
t-17.5 23t-4 30h-88z" />
    <glyph glyph-name="ebreve" unicode="&#x115;" horiz-adv-x="538" 
d="M113 203h402q2 10 3.5 18t3.5 15q7 67 -12.5 119.5t-66.5 83t-120 31.5q-67 0 -121 -24.5t-91.5 -67.5t-55.5 -99q-4 -12 -7 -24t-5 -25q-9 -66 12.5 -120.5t70.5 -86.5t123 -32q58 -1 103.5 16t81.5 45.5t65 66.5l-109 37q-16 -19 -36 -34.5t-44.5 -24t-51.5 -7.5
q-36 1 -57 19.5t-27.5 50t-1.5 70.5l7 27q7 33 26 61t46.5 44t61.5 16q29 -1 46 -14t23.5 -34.5t7.5 -47.5l-265 -1zM203 675q-3 -41 11.5 -73.5t46 -51.5t80.5 -19t85.5 19.5t60.5 51.5t34 72l-91 1q-6 -16 -17.5 -30.5t-28 -24t-37.5 -8.5q-22 0 -34 9t-17 23t-4 31h-89z
" />
    <glyph glyph-name="Edotaccent" unicode="&#x116;" horiz-adv-x="569" 
d="M136 0h345l21 122h-346zM235 579l345 -1l21 122h-346zM189 313l326 -1l21 119h-327zM166 700l-119 -700h136l121 700h-138zM330 850q-4 -30 15.5 -52t51.5 -23q31 -1 56.5 21t29.5 51q4 30 -15.5 52t-50.5 23q-32 1 -57.5 -21t-29.5 -51z" />
    <glyph glyph-name="edotaccent" unicode="&#x117;" horiz-adv-x="538" 
d="M113 203h402q2 10 3.5 18t3.5 15q7 67 -12.5 119.5t-66.5 83t-120 31.5q-67 0 -121 -24.5t-91.5 -67.5t-55.5 -99q-4 -12 -7 -24t-5 -25q-9 -66 12.5 -120.5t70.5 -86.5t123 -32q58 -1 103.5 16t81.5 45.5t65 66.5l-109 37q-16 -19 -36 -34.5t-44.5 -24t-51.5 -7.5
q-36 1 -57 19.5t-27.5 50t-1.5 70.5l7 27q7 33 26 61t46.5 44t61.5 16q29 -1 46 -14t23.5 -34.5t7.5 -47.5l-265 -1zM273 606q-3 -31 15.5 -52.5t51.5 -22.5q30 -1 56 21t30 51q4 30 -16 52t-50 23q-32 1 -57.5 -21t-29.5 -51z" />
    <glyph glyph-name="Eogonek" unicode="&#x118;" horiz-adv-x="569" 
d="M136 0h345l21 122h-346zM235 579l345 -1l21 122h-346zM189 313l326 -1l21 119h-327zM166 700l-119 -700h136l121 700h-138zM330 -116q-11 -8 -25 -14.5t-28 -4.5q-18 1 -24 11.5t-5 27.5q4 21 18.5 37.5t36 31.5t44.5 27l-39 25q-34 -17 -68.5 -37t-58.5 -46.5t-29 -60.5
q-4 -31 8.5 -53.5t37.5 -35t57 -11.5q33 0 57 11.5t41 26.5z" />
    <glyph glyph-name="eogonek" unicode="&#x119;" horiz-adv-x="538" 
d="M113 203h402q2 10 3.5 18t3.5 15q7 67 -12.5 119.5t-66.5 83t-120 31.5q-67 0 -121 -24.5t-91.5 -67.5t-55.5 -99q-4 -12 -7 -24t-5 -25q-9 -66 12.5 -120.5t70.5 -86.5t123 -32q58 -1 103.5 16t81.5 45.5t65 66.5l-109 37q-16 -19 -36 -34.5t-44.5 -24t-51.5 -7.5
q-36 1 -57 19.5t-27.5 50t-1.5 70.5l7 27q7 33 26 61t46.5 44t61.5 16q29 -1 46 -14t23.5 -34.5t7.5 -47.5l-265 -1zM262 -111q-11 -8 -25 -14.5t-29 -5.5q-18 1 -23.5 12.5t-3.5 28.5q3 20 17.5 37t36.5 31.5t45 25.5l-41 26q-33 -17 -66.5 -37t-58 -46t-30.5 -60
q-4 -31 9 -53t37.5 -35t56.5 -12q34 0 57.5 11.5t41.5 26.5z" />
    <glyph glyph-name="Ecaron" unicode="&#x11a;" horiz-adv-x="569" 
d="M136 0h345l21 122h-346zM235 579l345 -1l21 122h-346zM189 313l326 -1l21 119h-327zM166 700l-119 -700h136l121 700h-138zM411 890l-78 87l-96 -60l161 -143l203 139l-80 63z" />
    <glyph glyph-name="ecaron" unicode="&#x11b;" horiz-adv-x="538" 
d="M113 203h402q2 10 3.5 18t3.5 15q7 67 -12.5 119.5t-66.5 83t-120 31.5q-67 0 -121 -24.5t-91.5 -67.5t-55.5 -99q-4 -12 -7 -24t-5 -25q-9 -66 12.5 -120.5t70.5 -86.5t123 -32q58 -1 103.5 16t81.5 45.5t65 66.5l-109 37q-16 -19 -36 -34.5t-44.5 -24t-51.5 -7.5
q-36 1 -57 19.5t-27.5 50t-1.5 70.5l7 27q7 33 26 61t46.5 44t61.5 16q29 -1 46 -14t23.5 -34.5t7.5 -47.5l-265 -1zM353 645l-78 87l-95 -60l161 -142l203 138l-81 64z" />
    <glyph glyph-name="Gcircumflex" unicode="&#x11c;" horiz-adv-x="778" 
d="M420 260l196 1q-16 -31 -38 -58t-50.5 -47.5t-62.5 -33t-76 -11.5q-50 0 -85.5 19.5t-58.5 53t-30.5 76t-0.5 90.5q9 51 32.5 93.5t59.5 75t80.5 49.5t93.5 18q61 -1 100 -29t61 -75l129 71q-27 50 -67.5 86t-93 55.5t-116.5 19.5q-83 0 -154.5 -27t-129 -76t-94 -115.5
t-48.5 -145.5q-11 -75 5 -141.5t56.5 -117.5t102 -80t141.5 -29q86 0 156 32t121.5 86.5t83.5 125.5t43 148h-336zM526 863l79 -88l95 59l-161 142l-203 -137l81 -64z" />
    <glyph glyph-name="gcircumflex" unicode="&#x11d;" horiz-adv-x="580" 
d="M7 -31q-3 -62 20.5 -107t72 -71.5t121.5 -25.5q69 0 128 29t97.5 84t50.5 132l77 450h-123l-78 -450q-7 -40 -28 -71.5t-52.5 -49.5t-68.5 -17q-32 0 -53 12t-30.5 33t-8.5 51zM44 235q-9 -67 11 -120.5t63 -85t106 -31.5q45 0 84 18.5t69 51t50 75t27 91.5q6 47 -1 89
t-26 75t-52 52.5t-79 19.5q-63 1 -116.5 -29.5t-90 -84t-45.5 -121.5zM177 234q6 36 27 65t51.5 46.5t66.5 16.5q23 -1 41.5 -11t30.5 -27.5t17 -40.5t2 -48q-5 -27 -19 -50.5t-33.5 -41.5t-43 -27t-46.5 -9q-36 0 -58.5 17.5t-32 45.5t-3.5 64zM376 618l78 -88l96 60
l-161 142l-203 -137l81 -64z" />
    <glyph glyph-name="Gbreve" unicode="&#x11e;" horiz-adv-x="778" 
d="M420 260l196 1q-16 -31 -38 -58t-50.5 -47.5t-62.5 -33t-76 -11.5q-50 0 -85.5 19.5t-58.5 53t-30.5 76t-0.5 90.5q9 51 32.5 93.5t59.5 75t80.5 49.5t93.5 18q61 -1 100 -29t61 -75l129 71q-27 50 -67.5 86t-93 55.5t-116.5 19.5q-83 0 -154.5 -27t-129 -76t-94 -115.5
t-48.5 -145.5q-11 -75 5 -141.5t56.5 -117.5t102 -80t141.5 -29q86 0 156 32t121.5 86.5t83.5 125.5t43 148h-336zM373 918q-3 -40 11.5 -72t46 -51.5t80.5 -19.5t85.5 19.5t60.5 51t34 71.5l-92 1q-5 -16 -16.5 -30.5t-28 -24t-38.5 -8.5q-21 1 -33.5 10t-17 23t-4.5 30
h-88z" />
    <glyph glyph-name="gbreve" unicode="&#x11f;" horiz-adv-x="580" 
d="M7 -31q-3 -62 20.5 -107t72 -71.5t121.5 -25.5q69 0 128 29t97.5 84t50.5 132l77 450h-123l-78 -450q-7 -40 -28 -71.5t-52.5 -49.5t-68.5 -17q-32 0 -53 12t-30.5 33t-8.5 51zM44 235q-9 -67 11 -120.5t63 -85t106 -31.5q45 0 84 18.5t69 51t50 75t27 91.5q6 47 -1 89
t-26 75t-52 52.5t-79 19.5q-63 1 -116.5 -29.5t-90 -84t-45.5 -121.5zM177 234q6 36 27 65t51.5 46.5t66.5 16.5q23 -1 41.5 -11t30.5 -27.5t17 -40.5t2 -48q-5 -27 -19 -50.5t-33.5 -41.5t-43 -27t-46.5 -9q-36 0 -58.5 17.5t-32 45.5t-3.5 64zM223 675q-3 -41 11 -73.5
t46 -51.5t81 -19t85.5 19.5t60 51.5t33.5 72l-91 1q-6 -16 -17 -30.5t-27.5 -24t-37.5 -8.5q-22 0 -34.5 9t-17.5 23t-5 31h-87z" />
    <glyph glyph-name="Gdotaccent" unicode="&#x120;" horiz-adv-x="778" 
d="M420 260l196 1q-16 -31 -38 -58t-50.5 -47.5t-62.5 -33t-76 -11.5q-50 0 -85.5 19.5t-58.5 53t-30.5 76t-0.5 90.5q9 51 32.5 93.5t59.5 75t80.5 49.5t93.5 18q61 -1 100 -29t61 -75l129 71q-27 50 -67.5 86t-93 55.5t-116.5 19.5q-83 0 -154.5 -27t-129 -76t-94 -115.5
t-48.5 -145.5q-11 -75 5 -141.5t56.5 -117.5t102 -80t141.5 -29q86 0 156 32t121.5 86.5t83.5 125.5t43 148h-336zM443 849q-3 -29 15.5 -51t51.5 -23q30 -1 56 21t30 51q3 30 -16.5 52t-50.5 23q-32 1 -57 -21t-29 -52z" />
    <glyph glyph-name="gdotaccent" unicode="&#x121;" horiz-adv-x="580" 
d="M7 -31q-3 -62 20.5 -107t72 -71.5t121.5 -25.5q69 0 128 29t97.5 84t50.5 132l77 450h-123l-78 -450q-7 -40 -28 -71.5t-52.5 -49.5t-68.5 -17q-32 0 -53 12t-30.5 33t-8.5 51zM44 235q-9 -67 11 -120.5t63 -85t106 -31.5q45 0 84 18.5t69 51t50 75t27 91.5q6 47 -1 89
t-26 75t-52 52.5t-79 19.5q-63 1 -116.5 -29.5t-90 -84t-45.5 -121.5zM177 234q6 36 27 65t51.5 46.5t66.5 16.5q23 -1 41.5 -11t30.5 -27.5t17 -40.5t2 -48q-5 -27 -19 -50.5t-33.5 -41.5t-43 -27t-46.5 -9q-36 0 -58.5 17.5t-32 45.5t-3.5 64zM295 628q-4 -29 15 -51
t51 -22q31 -2 57 20t30 51q3 30 -16.5 51.5t-49.5 22.5q-32 1 -58 -20.5t-29 -51.5z" />
    <glyph glyph-name="uni0122" unicode="&#x122;" horiz-adv-x="778" 
d="M420 260l196 1q-16 -31 -38 -58t-50.5 -47.5t-62.5 -33t-76 -11.5q-50 0 -85.5 19.5t-58.5 53t-30.5 76t-0.5 90.5q9 51 32.5 93.5t59.5 75t80.5 49.5t93.5 18q61 -1 100 -29t61 -75l129 71q-27 50 -67.5 86t-93 55.5t-116.5 19.5q-83 0 -154.5 -27t-129 -76t-94 -115.5
t-48.5 -145.5q-11 -75 5 -141.5t56.5 -117.5t102 -80t141.5 -29q86 0 156 32t121.5 86.5t83.5 125.5t43 148h-336zM314 -79l-128 -257l93 -23l161 247z" />
    <glyph glyph-name="uni0123" unicode="&#x123;" horiz-adv-x="553" 
d="M-24 -31q-2 -62 22 -107.5t73 -71.5t122 -25q69 0 128 29t97.5 84t49.5 132l77 450h-125l-78 -450q-7 -40 -28.5 -71.5t-53 -49.5t-68.5 -17q-32 0 -52.5 12t-30 33t-9.5 51zM14 234q-9 -66 11.5 -120t64 -85t105.5 -31q46 0 85 18.5t69 51t49 75t26 91.5q6 48 -1.5 89.5
t-27 74.5t-52.5 52.5t-79 19.5q-63 1 -116.5 -29.5t-89.5 -84t-44 -122.5zM147 234q6 36 27.5 65t52.5 46t67 16q23 0 41 -10t29 -27.5t16 -40.5t1 -48q-5 -27 -19 -50.5t-33.5 -41.5t-42.5 -27t-47 -9q-36 0 -57.5 18t-30.5 46t-4 63zM334 543l161 240l-91 39l-189 -225z
" />
    <glyph glyph-name="Hcircumflex" unicode="&#x124;" horiz-adv-x="741" 
d="M145 307h502l22 131h-502zM622 700l-119 -700h140l122 700h-143zM166 700l-119 -700h140l121 700h-142zM496 863l78 -88l94 59l-160 142l-202 -137l80 -64z" />
    <glyph glyph-name="hcircumflex" unicode="&#x125;" horiz-adv-x="538" 
d="M297 780h-130l-133 -780h129zM373 280l-49 -280h127l51 298q6 50 -4 90t-40 64t-84 23q-55 0 -95.5 -27t-65.5 -71.5t-34 -95.5h32q6 25 21.5 46.5t37 34t48.5 12.5q26 -2 39 -14.5t16 -34t0 -45.5zM293 928l78 -88l94 60l-160 142l-203 -137l81 -64z" />
    <glyph glyph-name="Hbar" unicode="&#x126;" horiz-adv-x="741" 
d="M115 307h503l22 131h-504zM590 700l-118 -700h142l121 700h-145zM134 700l-118 -700h142l121 700h-145zM39 539h736l16 95h-736z" />
    <glyph glyph-name="hbar" unicode="&#x127;" horiz-adv-x="538" 
d="M268 780h-132l-134 -780h131zM343 280l-49 -280h128l50 298q6 51 -4.5 90.5t-41 63.5t-83.5 23q-56 -1 -94.5 -28t-62.5 -71t-33 -94l29 -1q6 25 21.5 46.5t37 34t49.5 11.5q25 -1 38 -14t15 -34.5t0 -44.5zM50 606h320l19 114h-320z" />
    <glyph glyph-name="Itilde" unicode="&#x128;" horiz-adv-x="288" 
d="M166 700l-119 -700h142l121 700h-144zM77 834l59 -56q4 9 11 20t17.5 20t27.5 10q23 0 41.5 -12t37 -24.5t43.5 -13.5q28 -1 53.5 11t46 31t33.5 37l-54 67q-16 -19 -34 -35t-37 -16q-19 -1 -33 6t-27 17t-27 17.5t-35 8.5q-30 0 -53.5 -12.5t-41 -32.5t-28.5 -43z" />
    <glyph glyph-name="itilde" unicode="&#x129;" horiz-adv-x="263" 
d="M120 460l-77 -460h123l80 460h-126zM23 590l58 -56q4 9 11 20.5t17 20t28 9.5q23 1 41.5 -11.5t37 -25.5t42.5 -14q28 -1 54 11.5t46.5 31t32.5 37.5l-53 67q-16 -20 -34 -35t-37 -16t-32.5 6t-26.5 17t-27 17.5t-35 8.5q-29 0 -53 -12.5t-42 -32.5t-28 -43z" />
    <glyph glyph-name="Imacron" unicode="&#x12a;" horiz-adv-x="288" 
d="M166 700l-119 -700h142l121 700h-144zM72 775l357 -1l19 115h-357z" />
    <glyph glyph-name="imacron" unicode="&#x12b;" horiz-adv-x="263" 
d="M120 460l-77 -460h123l80 460h-126zM17 531l357 -1l19 115h-356z" />
    <glyph glyph-name="Ibreve" unicode="&#x12c;" horiz-adv-x="288" 
d="M166 700l-119 -700h142l121 700h-144zM115 918q-3 -40 12 -72t46.5 -51.5t80.5 -19.5t85.5 19.5t59.5 51t33 71.5l-91 1q-5 -16 -16.5 -30.5t-27.5 -24t-38 -8.5q-21 1 -33 10t-17 23t-5 30h-89z" />
    <glyph glyph-name="ibreve" unicode="&#x12d;" horiz-adv-x="263" 
d="M120 460l-77 -460h123l80 460h-126zM59 675q-3 -41 12 -73.5t47.5 -51.5t80.5 -19q50 0 86.5 19.5t60 51.5t32.5 72l-92 1q-6 -16 -16.5 -30.5t-26.5 -24t-38 -8.5q-22 0 -34.5 9t-17.5 23t-5 31h-89z" />
    <glyph glyph-name="Iogonek" unicode="&#x12e;" horiz-adv-x="288" 
d="M166 700l-119 -700h142l121 700h-144zM154 -116q-11 -8 -24.5 -14.5t-28.5 -4.5q-18 1 -23.5 12.5t-3.5 28.5q3 20 17.5 37t36.5 31.5t45 26.5l-41 25q-34 -17 -67.5 -37t-58 -45.5t-29.5 -60.5q-4 -31 8 -53.5t37 -35t57 -12.5q34 0 58 11.5t42 27.5z" />
    <glyph glyph-name="iogonek" unicode="&#x12f;" horiz-adv-x="263" 
d="M138 639q-4 -29 15 -51t52 -22q30 -2 56 20t30 51q3 30 -17 52t-50 23q-32 1 -57 -21.5t-29 -51.5zM120 460l-77 -460h123l80 460h-126zM133 -116q-11 -8 -25 -14.5t-28 -4.5q-18 1 -24 11.5t-4 27.5q3 20 18 37t36 32t44 27l-39 25q-34 -17 -68 -37t-58 -46.5t-29 -60.5
q-5 -31 8 -53.5t37.5 -35t56.5 -11.5q34 0 57.5 11.5t40.5 26.5z" />
    <glyph glyph-name="Idotaccent" unicode="&#x130;" horiz-adv-x="288" 
d="M166 700l-119 -700h142l121 700h-144zM185 849q-3 -29 15.5 -51t50.5 -23q31 -1 57 21t30 51q3 30 -16.5 52t-49.5 23q-32 1 -58 -21t-29 -52z" />
    <glyph glyph-name="dotlessi" unicode="&#x131;" horiz-adv-x="263" 
d="M120 460l-77 -460h123l80 460h-126z" />
    <glyph glyph-name="IJ" unicode="&#x132;" horiz-adv-x="565" 
d="M160 -76l-90 -100q18 -16 44 -29t54.5 -20.5t61.5 -7.5q44 -1 81.5 10t68.5 33.5t51 56t27 77.5l130 756h-150l-125 -725q-7 -38 -30 -60t-51 -24q-23 -1 -41 8.5t-31 24.5zM166 700l-119 -700h142l121 700h-144z" />
    <glyph glyph-name="ij" unicode="&#x133;" horiz-adv-x="518" 
d="M393 639q-4 -29 15 -51t52 -22q30 -2 56 20t30 51q3 30 -16.5 52t-50.5 23q-32 1 -57 -21.5t-29 -51.5zM187 -88l-67 -96q11 -12 26.5 -23.5t35.5 -18.5t46 -7q52 -1 90.5 20t62 59t31.5 86l90 528h-124l-87 -498q-3 -20 -11 -38t-20.5 -28.5t-29.5 -9.5q-8 0 -16 4.5
t-15 10t-12 11.5zM138 639q-4 -29 15 -51t52 -22q30 -2 56 20t30 51q3 30 -17 52t-50 23q-32 1 -57 -21.5t-29 -51.5zM120 460l-77 -460h123l80 460h-126z" />
    <glyph glyph-name="Jcircumflex" unicode="&#x134;" horiz-adv-x="293" 
d="M-112 -76l-89 -100q18 -16 42.5 -29t54 -20.5t61.5 -7.5q43 -1 81.5 10t69 33.5t51.5 56t28 77.5l129 756h-150l-125 -725q-6 -38 -29.5 -60t-51.5 -24q-23 -1 -40.5 8.5t-31.5 24.5zM272 863l77 -88l95 59l-160 142l-201 -137l79 -64z" />
    <glyph glyph-name="jcircumflex" unicode="&#x135;" horiz-adv-x="256" 
d="M-73 -88l-67 -96q11 -12 26.5 -23.5t35 -18.5t46.5 -7q51 -1 89 20t62 59t32 86l90 528h-126l-86 -498q-3 -20 -11.5 -38t-21 -28t-29.5 -10q-13 0 -22 6.5t-18 19.5zM209 618l77 -88l95 60l-159 142l-203 -137l79 -64z" />
    <glyph glyph-name="uni0136" unicode="&#x136;" horiz-adv-x="640" 
d="M166 700l-119 -700h145l120 700h-146zM549 700l-336 -328l232 -372h165l-230 369l341 331h-172zM279 -61l-129 -257l95 -23l162 247z" />
    <glyph glyph-name="uni0137" unicode="&#x137;" horiz-adv-x="519" 
d="M165 780l-132 -780h122l135 780h-125zM394 460l-221 -186l167 -274h148l-164 267l229 193h-159zM211 -61l-129 -257l95 -23l160 247z" />
    <glyph glyph-name="kgreenlandic" unicode="&#x138;" horiz-adv-x="519" 
d="M111 460l-78 -460h122l80 460h-124zM394 460l-221 -186l167 -274h148l-164 267l229 193h-159z" />
    <glyph glyph-name="Lacute" unicode="&#x139;" horiz-adv-x="489" 
d="M166 700l-120 -700h413l21 126h-271l99 574h-142zM558 922l-96 52l-171 -157l68 -42z" />
    <glyph glyph-name="lacute" unicode="&#x13a;" horiz-adv-x="250" 
d="M167 780l-133 -780h128l135 780h-130zM417 988l-97 49l-171 -156l70 -40z" />
    <glyph glyph-name="uni013B" unicode="&#x13b;" horiz-adv-x="489" 
d="M166 700l-120 -700h413l21 126h-271l99 574h-142zM218 -61l-129 -257l97 -23l159 247z" />
    <glyph glyph-name="uni013C" unicode="&#x13c;" horiz-adv-x="250" 
d="M167 780l-133 -780h128l135 780h-130zM65 -61l-129 -257l96 -23l160 247z" />
    <glyph glyph-name="Lcaron" unicode="&#x13d;" horiz-adv-x="489" 
d="M166 700l-120 -700h413l21 126h-271l99 574h-142zM469 713l-129 -256l94 -23l160 247z" />
    <glyph glyph-name="lcaron" unicode="&#x13e;" horiz-adv-x="250" 
d="M167 780l-133 -780h128l135 780h-130zM427 779l-130 -257l96 -23l159 247z" />
    <glyph glyph-name="Ldot" unicode="&#x13f;" horiz-adv-x="489" 
d="M166 700l-120 -700h413l21 126h-271l99 574h-142zM338 427q-3 -21 5.5 -39.5t26 -30.5t40.5 -12q22 0 42 11.5t33 30t16 38.5q3 21 -5.5 39.5t-25 30t-39.5 12.5q-22 0 -42 -11.5t-34.5 -29.5t-16.5 -39z" />
    <glyph glyph-name="ldot" unicode="&#x140;" horiz-adv-x="431" 
d="M167 780l-133 -780h128l135 780h-130zM277 412q-3 -21 5.5 -39.5t25.5 -30t39 -11.5q22 -1 42 10.5t33.5 30t16.5 39.5q2 20 -6 38.5t-25 30t-39 12.5q-22 0 -42 -11t-34 -29.5t-16 -39.5z" />
    <glyph glyph-name="Lslash" unicode="&#x141;" horiz-adv-x="492" 
d="M35 319l363 221l-23 70l-362 -221zM166 700l-120 -700h413l21 126h-271l99 574h-142z" />
    <glyph glyph-name="lslash" unicode="&#x142;" horiz-adv-x="250" 
d="M26 319l331 196l-23 70l-329 -196zM167 780l-133 -780h128l135 780h-130z" />
    <glyph glyph-name="Nacute" unicode="&#x143;" horiz-adv-x="764" 
d="M648 700l-76 -432l-401 466l-125 -734h138l76 433l400 -467l125 734h-137zM665 907l-97 51l-171 -157l70 -41z" />
    <glyph glyph-name="nacute" unicode="&#x144;" horiz-adv-x="543" 
d="M242 460h-129l-80 -460h130zM373 280l-49 -280h132l50 294q6 50 -5.5 90t-42.5 63t-84 23q-56 0 -95 -27.5t-63 -71t-33 -93.5l28 3q6 25 21.5 46.5t36.5 34t49 12.5q26 -2 39 -14.5t16 -34t0 -45.5zM514 678l-96 50l-170 -156l68 -41z" />
    <glyph glyph-name="uni0145" unicode="&#x145;" horiz-adv-x="764" 
d="M325 -49l-129 -258l96 -22l160 247zM648 700l-76 -432l-401 466l-125 -734h138l76 433l400 -467l125 734h-137z" />
    <glyph glyph-name="uni0146" unicode="&#x146;" horiz-adv-x="543" 
d="M242 460h-129l-80 -460h130zM373 280l-49 -280h132l50 294q6 50 -5.5 90t-42.5 63t-84 23q-56 0 -96.5 -27t-65.5 -71t-34 -94l33 3q6 25 21.5 46.5t36.5 34t49 12.5q26 -2 39 -14.5t16 -34t0 -45.5zM211 -61l-129 -257l96 -23l158 247z" />
    <glyph glyph-name="Ncaron" unicode="&#x147;" horiz-adv-x="764" 
d="M494 897l-78 87l-95 -60l160 -142l201 138l-79 64zM648 700l-76 -432l-401 466l-125 -734h138l76 433l400 -467l125 734h-137z" />
    <glyph glyph-name="ncaron" unicode="&#x148;" horiz-adv-x="543" 
d="M242 460h-129l-80 -460h130zM373 280l-49 -280h132l50 294q6 50 -5.5 90t-42.5 63t-84 23q-56 0 -96.5 -27t-65.5 -71t-34 -94l33 3q6 25 21.5 46.5t36.5 34t49 12.5q26 -2 39 -14.5t16 -34t0 -45.5zM352 645l-80 87l-93 -60l160 -142l201 138l-79 64z" />
    <glyph glyph-name="napostrophe" unicode="&#x149;" horiz-adv-x="692" 
d="M391 460h-128l-80 -460h129zM521 280l-49 -280h133l50 294q7 50 -5 90t-43 63t-84 23q-55 0 -95.5 -27t-66 -71t-34.5 -94l33 3q6 25 20.5 46.5t36 34t49.5 12.5q26 -2 39 -14.5t15.5 -34t0.5 -45.5zM203 700l-93 -246h92l143 246h-142z" />
    <glyph glyph-name="Eng" unicode="&#x14a;" horiz-adv-x="787" 
d="M469 -216q52 0 91 20t64.5 56.5t34.5 87.5l125 752h-139l-73 -432l-417 467l-123 -735h139l73 432l309 -357l-16 -97q-5 -25 -13 -42t-20 -25.5t-28 -8.5q-14 0 -24 7t-18 19l-72 -97q23 -25 47.5 -36t59.5 -11z" />
    <glyph glyph-name="eng" unicode="&#x14b;" horiz-adv-x="560" 
d="M242 -234q83 0 134 43.5t64 122.5l61 362q14 87 -19.5 131.5t-113.5 44.5q-46 0 -85 -20t-68 -59l11 69h-130l-77 -460h130l47 278q5 30 20.5 51.5t38 33t49.5 11.5q39 0 53.5 -23t6.5 -71l-53 -319q-7 -37 -22 -56t-39 -19q-29 0 -44 26l-72 -98q20 -24 47.5 -36
t60.5 -12z" />
    <glyph glyph-name="Omacron" unicode="&#x14c;" horiz-adv-x="787" 
d="M216 350q8 47 30.5 88t56.5 73.5t77 50.5t92 18q49 -1 83.5 -20t55 -52t27.5 -74t0 -84q-9 -47 -31.5 -88t-56 -73.5t-76.5 -50.5t-91 -17q-48 0 -83 19t-55.5 52t-28 74t-0.5 84zM67 350q-11 -73 5 -139.5t55.5 -117.5t100.5 -81t141 -30q79 0 150 28.5t127 79t93 118
t49 142.5q10 73 -6 139t-57 116.5t-101.5 79.5t-138.5 29q-80 0 -150 -28t-126.5 -77.5t-93 -116t-48.5 -142.5zM322 775l355 -1l20 115h-355z" />
    <glyph glyph-name="omacron" unicode="&#x14d;" horiz-adv-x="558" 
d="M43 230q-10 -67 14.5 -121.5t76 -86t121.5 -31.5q72 0 133 30.5t102 85t52 123.5q9 67 -15.5 121.5t-76 86.5t-122.5 32q-72 0 -132.5 -31t-101.5 -85.5t-51 -123.5zM174 230q6 36 27 65.5t51 47t66 17.5q34 -1 56 -19.5t31.5 -48t4.5 -62.5q-6 -35 -27.5 -64.5
t-51.5 -47.5t-66 -17q-35 0 -57 19t-31 48t-3 62zM166 531l355 -1l19 115h-355z" />
    <glyph glyph-name="Obreve" unicode="&#x14e;" horiz-adv-x="787" 
d="M216 350q8 47 30.5 88t56.5 73.5t77 50.5t92 18q49 -1 83.5 -20t55 -52t27.5 -74t0 -84q-9 -47 -31.5 -88t-56 -73.5t-76.5 -50.5t-91 -17q-48 0 -83 19t-55.5 52t-28 74t-0.5 84zM67 350q-11 -73 5 -139.5t55.5 -117.5t100.5 -81t141 -30q79 0 150 28.5t127 79t93 118
t49 142.5q10 73 -6 139t-57 116.5t-101.5 79.5t-138.5 29q-80 0 -150 -28t-126.5 -77.5t-93 -116t-48.5 -142.5zM365 918q-3 -40 11.5 -72t46 -51.5t80.5 -19.5q50 0 86 19.5t59.5 51t32.5 71.5l-89 1q-6 -16 -17.5 -30.5t-28 -24t-37.5 -8.5q-22 1 -34.5 10t-17.5 23t-4 30
h-88z" />
    <glyph glyph-name="obreve" unicode="&#x14f;" horiz-adv-x="558" 
d="M43 230q-10 -67 14.5 -121.5t76 -86t121.5 -31.5q72 0 133 30.5t102 85t52 123.5q9 67 -15.5 121.5t-76 86.5t-122.5 32q-72 0 -132.5 -31t-101.5 -85.5t-51 -123.5zM174 230q6 36 27 65.5t51 47t66 17.5q34 -1 56 -19.5t31.5 -48t4.5 -62.5q-6 -35 -27.5 -64.5
t-51.5 -47.5t-66 -17q-35 0 -57 19t-31 48t-3 62zM209 675q-3 -41 11.5 -73.5t46 -51.5t80.5 -19t86 19.5t60 51.5t32 72l-90 1q-6 -16 -16.5 -30.5t-27 -24t-37.5 -8.5q-23 0 -34.5 9t-17 23t-4.5 31h-89z" />
    <glyph glyph-name="Ohungarumlaut" unicode="&#x150;" horiz-adv-x="787" 
d="M402 776l169 185l-113 30l-138 -190zM586 776l169 185l-114 30l-138 -190zM216 350q8 47 30.5 88t56.5 73.5t77 50.5t92 18q49 -1 83.5 -20t55 -52t27.5 -74t0 -84q-9 -47 -31.5 -88t-56 -73.5t-76.5 -50.5t-91 -17q-48 0 -83 19t-55.5 52t-28 74t-0.5 84zM67 350
q-11 -73 5 -139.5t55.5 -117.5t100.5 -81t141 -30q79 0 150 28.5t127 79t93 118t49 142.5q10 73 -6.5 139t-57 116.5t-101 79.5t-138.5 29q-80 0 -150.5 -28t-126.5 -77.5t-92.5 -116t-48.5 -142.5z" />
    <glyph glyph-name="ohungarumlaut" unicode="&#x151;" horiz-adv-x="558" 
d="M249 532l169 185l-113 30l-138 -190zM433 532l169 185l-114 30l-138 -190zM50 230q-9 -67 16 -121.5t77 -86t122 -31.5q71 0 132 30.5t101 85t50 123.5q9 67 -17 121.5t-78 86.5t-122 32q-72 0 -132 -31t-100 -85.5t-49 -123.5zM180 230q5 36 26 65.5t50.5 47t64.5 17.5
q35 -1 57.5 -19.5t32.5 -48t5 -62.5q-6 -35 -26.5 -64.5t-50 -47.5t-65.5 -17q-35 0 -57.5 18.5t-32 48t-4.5 62.5z" />
    <glyph glyph-name="OE" unicode="&#x152;" horiz-adv-x="955" 
d="M571 313l349 -1l21 119h-350zM565 670l-108 -639l136 -1l111 640h-139zM905 122h-360l-23 6h-132q-51 1 -88.5 17.5t-59.5 46.5t-29.5 70t0.5 88q8 50 31 91t56.5 69.5t78 44.5t97.5 17h135l17 6h357l21 122h-539q-77 -1 -144.5 -27.5t-121.5 -73.5t-88.5 -110.5
t-45.5 -138.5q-10 -72 4.5 -135t54 -111t97.5 -75.5t133 -28.5h530z" />
    <glyph glyph-name="oe" unicode="&#x153;" horiz-adv-x="873" 
d="M723 250l-4 -19l130 -28q1 7 2 15.5t3 15.5q7 62 -10 115.5t-57 86.5t-99 34q-60 0 -109.5 -25.5t-85.5 -68.5t-53 -97q-4 -12 -7 -24t-4 -25q-9 -61 8 -116t58.5 -89t105.5 -34q49 -1 91.5 16.5t78 46.5t62.5 65l-109 37q-25 -28 -57 -49t-74 -20q-37 0 -58 21t-27 53
t0 69l7 30q7 34 26 60.5t47 42t61 15.5q35 -2 52 -20t21 -46.5t1 -61.5zM475 203l373 -1l-8 78h-353zM45 230q-9 -65 11 -119.5t65 -87.5t110 -32q64 0 113.5 32t80.5 86.5t41 120.5q8 63 -6 117.5t-52 88t-103 34.5q-65 0 -121 -32t-92.5 -86t-46.5 -122zM172 230
q6 36 26.5 66t50.5 47.5t67 16.5q33 -1 52.5 -19.5t26 -47.5t1.5 -63q-5 -36 -23.5 -65t-46.5 -46.5t-62 -17.5q-36 0 -57.5 17.5t-31 47t-3.5 64.5z" />
    <glyph glyph-name="Racute" unicode="&#x154;" horiz-adv-x="602" 
d="M259 326l148 -326h163l-165 326h-146zM166 700l-119 -700h140l121 700h-142zM230 576h140q33 -2 57 -14.5t34 -35t5 -53.5q-6 -34 -25.5 -56t-50 -35t-64.5 -14h-132l-20 -114h150q75 1 137 28.5t102 77t51 116.5q10 66 -15.5 116t-79.5 78.5t-127 29.5h-141zM569 922
l-96 52l-171 -157l69 -42z" />
    <glyph glyph-name="racute" unicode="&#x155;" horiz-adv-x="378" 
d="M239 460h-126l-80 -460h127zM350 325l73 108q-14 16 -34.5 26.5t-45.5 10.5q-43 0 -79 -27.5t-60.5 -71t-32.5 -90.5l31 -37q6 27 18 51t31 39.5t45 14.5q17 0 29.5 -7t24.5 -17zM455 678l-95 52l-170 -157l68 -42z" />
    <glyph glyph-name="uni0156" unicode="&#x156;" horiz-adv-x="602" 
d="M259 326l148 -326h163l-165 326h-146zM166 700l-119 -700h140l121 700h-142zM230 576h140q33 -2 57 -14.5t34 -35t5 -53.5q-6 -34 -25.5 -56t-50 -35t-64.5 -14h-132l-20 -114h150q75 1 137 28.5t102 77t51 116.5q10 66 -15.5 116t-79.5 78.5t-127 29.5h-141zM275 -61
l-129 -257l96 -23l159 247z" />
    <glyph glyph-name="uni0157" unicode="&#x157;" horiz-adv-x="378" 
d="M239 460h-126l-80 -460h127zM350 325l73 108q-14 16 -34.5 26.5t-45.5 10.5q-43 0 -79 -27.5t-60.5 -71t-32.5 -90.5l31 -37q6 27 18 51t31 39.5t45 14.5q17 0 29.5 -7t24.5 -17zM64 -61l-129 -257l95 -23l161 247z" />
    <glyph glyph-name="Rcaron" unicode="&#x158;" horiz-adv-x="602" 
d="M259 326l148 -326h163l-165 326h-146zM166 700l-119 -700h140l121 700h-142zM230 576h140q33 -2 57 -14.5t34 -35t5 -53.5q-6 -34 -25.5 -56t-50 -35t-64.5 -14h-132l-20 -114h150q75 1 137 28.5t102 77t51 116.5q10 66 -15.5 116t-79.5 78.5t-127 29.5h-141zM409 890
l-79 87l-95 -60l161 -143l202 139l-81 63z" />
    <glyph glyph-name="rcaron" unicode="&#x159;" horiz-adv-x="378" 
d="M239 460h-126l-80 -460h127zM350 325l73 108q-14 16 -34.5 26.5t-45.5 10.5q-43 0 -79 -27.5t-60.5 -71t-32.5 -90.5l31 -37q6 27 18 51t31 39.5t45 14.5q17 0 29.5 -7t24.5 -17zM298 645l-79 87l-95 -60l161 -142l202 138l-79 64z" />
    <glyph glyph-name="Sacute" unicode="&#x15a;" horiz-adv-x="583" 
d="M148 244l-111 -71q16 -57 49 -100t80.5 -66.5t108.5 -23.5q72 -1 132 24t98 72t49 115q5 40 -4 73.5t-29 60.5t-47.5 47t-61.5 33q-22 9 -47.5 19t-47 23.5t-32.5 29.5t-6 37q4 22 19 39t37 25.5t48 8.5q29 -1 49 -13.5t33.5 -34t24.5 -45.5l116 64q-13 41 -40.5 76
t-71.5 56t-104 21q-64 0 -119 -24t-92 -66t-46 -99q-5 -43 6.5 -77t34 -59.5t51 -44t57.5 -31.5q33 -14 63 -29.5t47 -37t11 -56.5q-5 -25 -20.5 -43.5t-39 -28t-51.5 -9.5q-29 0 -51 10.5t-39.5 28.5t-30.5 43t-23 53zM605 922l-95 52l-172 -157l69 -42z" />
    <glyph glyph-name="sacute" unicode="&#x15b;" horiz-adv-x="427" 
d="M83 171l-74 -80q20 -32 49.5 -56t66.5 -37t82 -13q50 -1 91 15t67.5 48.5t32.5 81.5q4 35 -9.5 61t-38 44.5t-54.5 32.5q-20 8 -45 17.5t-41.5 21t-13.5 29.5t23 26t40 8t40 -7t37.5 -20t32.5 -28l66 80q-19 22 -46 39t-59.5 26.5t-68.5 9.5q-44 -1 -84 -16t-68 -43
t-34 -70q-5 -36 7.5 -62.5t36.5 -44.5t52 -32q15 -7 33.5 -14.5t34 -16t24.5 -19t7 -24.5q-4 -21 -23 -30.5t-41 -9.5q-24 0 -45 10t-40.5 28.5t-37.5 44.5zM476 678l-97 50l-170 -156l70 -41z" />
    <glyph glyph-name="Scircumflex" unicode="&#x15c;" horiz-adv-x="583" 
d="M148 244l-111 -71q16 -57 49 -100t80.5 -66.5t108.5 -23.5q72 -1 132 24t98 72t48 115q5 40 -3.5 73.5t-28.5 60.5t-47.5 47t-61.5 33q-22 9 -47.5 19t-47 23.5t-32.5 29.5t-6 37q4 22 19 39t37 25.5t48 8.5q29 -1 49 -13.5t33.5 -34t24.5 -45.5l116 64q-13 41 -40.5 76
t-71.5 56t-104 21q-64 0 -119 -24t-92 -66t-46 -99q-5 -43 6.5 -77t34 -59.5t51 -44t57.5 -31.5q33 -14 63 -29.5t47 -37t11 -56.5q-5 -25 -20.5 -43.5t-39 -28t-51.5 -9.5q-29 0 -51 10.5t-39.5 28.5t-30.5 43t-23 53zM422 863l80 -88l93 59l-160 142l-201 -137l80 -64z
" />
    <glyph glyph-name="scircumflex" unicode="&#x15d;" horiz-adv-x="427" 
d="M83 171l-74 -80q20 -32 49.5 -56t66.5 -37t82 -13q50 -1 91 15t67.5 48.5t32.5 81.5q4 35 -9.5 61t-38 44.5t-54.5 32.5q-20 8 -45 17.5t-41.5 21t-13.5 29.5t23 26t40 8t40 -7t37.5 -20t32.5 -28l66 80q-19 22 -46 39t-59.5 26.5t-68.5 9.5q-44 -1 -84 -16t-68 -43
t-34 -70q-5 -36 7.5 -62.5t36.5 -44.5t52 -32q15 -7 33.5 -14.5t34 -16t24.5 -19t7 -24.5q-4 -21 -22.5 -30.5t-41.5 -9.5q-24 0 -45 10t-40.5 28.5t-37.5 44.5zM303 618l79 -88l94 60l-161 142l-202 -137l80 -64z" />
    <glyph glyph-name="Scedilla" unicode="&#x15e;" horiz-adv-x="583" 
d="M148 244l-111 -71q16 -57 49 -100t80.5 -66.5t108.5 -23.5q70 0 130 24.5t99 72t50 114.5q5 40 -4 73.5t-29 60.5t-47.5 47t-61.5 33q-22 9 -47.5 19t-47 23.5t-32.5 29t-6 37.5q4 21 17.5 38t34.5 26t46 9q29 -1 50.5 -13.5t36.5 -33.5t26 -45l116 63q-13 43 -41 77.5
t-71.5 55t-103.5 20.5q-66 0 -121 -23.5t-91 -66.5t-45 -101q-6 -45 5.5 -78.5t34 -58t51 -42.5t58.5 -31q33 -14 63 -29t47 -37t11 -57q-5 -25 -20.5 -43.5t-39 -28t-51.5 -9.5q-29 0 -51 10.5t-39.5 28.5t-30.5 43t-23 53zM266 59l-114 -183q21 8 43 11.5t36 2.5
q12 0 23 -3t18 -10t6 -18q-1 -12 -10.5 -20.5t-23 -13.5t-26.5 -5q-17 -1 -34.5 6t-32.5 18l-48 -56q30 -22 58.5 -32t63.5 -9q29 0 59 12.5t51 34.5t26 55q3 28 -7 47.5t-27.5 31.5t-37.5 14q-7 0 -14 -1.5t-12 -2.5l99 120z" />
    <glyph glyph-name="scedilla" unicode="&#x15f;" horiz-adv-x="427" 
d="M82 171l-73 -80q24 -31 54.5 -54.5t67.5 -37.5t83 -14q47 -1 87.5 15t65.5 48.5t31 81.5q5 36 -8.5 62.5t-38 45t-55.5 32.5q-20 8 -44 16.5t-39.5 21t-12.5 31.5q3 18 22.5 27.5t41.5 9.5q29 0 56.5 -18t47.5 -42l67 79q-32 34 -76 54.5t-98 20.5q-44 0 -82.5 -15
t-64 -43t-31.5 -69q-6 -40 8 -67t40 -45t58 -30q20 -9 40.5 -17.5t32 -22t8.5 -32.5q-4 -21 -23 -31.5t-40 -10.5q-21 -1 -41.5 10t-41 30.5t-42.5 43.5zM199 62l-113 -185q21 9 42 13.5t35 3.5q11 0 23 -4t19.5 -10.5t6.5 -18.5t-11 -20t-24 -13t-27 -6q-17 0 -33.5 7
t-31.5 18l-47 -57q29 -20 56.5 -30t63.5 -10q28 0 59 12.5t52 35.5t25 55q3 27 -7 46.5t-27.5 31.5t-38.5 13q-6 0 -12.5 -0.5t-11.5 -1.5l100 117z" />
    <glyph glyph-name="Scaron" unicode="&#x160;" horiz-adv-x="583" 
d="M148 244l-111 -71q16 -57 49 -100t80.5 -66.5t108.5 -23.5q72 -1 132 24t98 72t48 115q5 40 -3.5 73.5t-28.5 60.5t-47.5 47t-61.5 33q-22 9 -47.5 19t-47 23.5t-32.5 29.5t-6 37q4 22 19 39t37 25.5t48 8.5q29 -1 49 -13.5t33.5 -34t24.5 -45.5l116 64q-13 41 -40.5 76
t-71.5 56t-104 21q-64 0 -119 -24t-92 -66t-46 -99q-5 -43 6.5 -77t34 -59.5t51 -44t57.5 -31.5q33 -14 63 -29.5t47 -37t11 -56.5q-5 -25 -20.5 -43.5t-39 -28t-51.5 -9.5q-29 0 -51 10.5t-39.5 28.5t-30.5 43t-23 53zM420 890l-78 87l-94 -60l159 -143l202 139l-79 63z
" />
    <glyph glyph-name="scaron" unicode="&#x161;" horiz-adv-x="427" 
d="M83 171l-74 -80q20 -32 49.5 -56t66.5 -37t82 -13q50 -1 91 15t67.5 48.5t32.5 81.5q4 35 -9.5 61t-38 44.5t-54.5 32.5q-20 8 -45 17.5t-41.5 21t-13.5 29.5t23 26t40 8t40 -7t37.5 -20t32.5 -28l66 80q-19 22 -46 39t-59.5 26.5t-68.5 9.5q-44 -1 -84 -16t-68 -43
t-34 -70q-5 -36 7.5 -62.5t36.5 -44.5t52 -32q15 -7 33.5 -14.5t34 -16t24.5 -19t7 -24.5q-4 -21 -22.5 -30.5t-41.5 -9.5q-24 0 -45 10t-40.5 28.5t-37.5 44.5zM289 637l-77 87l-96 -60l160 -142l203 138l-80 64z" />
    <glyph glyph-name="uni0162" unicode="&#x162;" horiz-adv-x="516" 
d="M187 13l-116 -185q22 8 43.5 12.5t35.5 3.5q11 0 23 -3.5t19 -10.5t5 -19q-1 -12 -10.5 -20t-23 -12.5t-26.5 -4.5q-17 0 -33.5 6t-31.5 17l-49 -56q29 -21 57.5 -31t64.5 -9q29 0 59 12t51.5 34.5t25.5 55.5q3 27 -6.5 46.5t-27 31t-39.5 13.5q-5 0 -12.5 -0.5
t-12.5 -1.5l100 120zM75 570h184l-99 -570h142l99 570h182l22 130h-507z" />
    <glyph glyph-name="uni0163" unicode="&#x163;" horiz-adv-x="285" 
d="M71 12l-116 -185q22 8 43.5 12.5t35.5 3.5q11 0 23 -3.5t19 -10.5t5 -19q-1 -12 -10.5 -20t-23 -12.5t-26.5 -4.5q-17 0 -33.5 6t-31.5 17l-49 -56q29 -21 57.5 -31t64.5 -9q29 0 59 12t51.5 34.5t25.5 55.5q3 27 -6.5 46.5t-27 31t-39.5 13.5q-5 0 -12.5 -0.5
t-12.5 -1.5l100 120zM57 460l-19 -110h279l19 110h-279zM159 620l-105 -620h123l108 620h-126z" />
    <glyph glyph-name="Tcaron" unicode="&#x164;" horiz-adv-x="516" 
d="M75 570h184l-99 -570h142l99 570h182l22 130h-507zM379 890l-78 87l-95 -60l160 -143l202 139l-79 63z" />
    <glyph glyph-name="tcaron" unicode="&#x165;" horiz-adv-x="429" 
d="M56 460l-20 -110h280l19 110h-279zM159 620l-105 -620h123l108 620h-126zM452 793l-130 -257l94 -22l161 247z" />
    <glyph glyph-name="Tbar" unicode="&#x166;" horiz-adv-x="532" 
d="M109.6 325h322.878l31.5 114h-324.452zM75 570h184l-99 -570h142l99 570h182l22 130h-507z" />
    <glyph glyph-name="tbar" unicode="&#x167;" horiz-adv-x="294" 
d="M16 155h205l20 114h-206zM57 460l-19 -110h279l19 110h-279zM159 620l-105 -620h123l108 620h-126z" />
    <glyph glyph-name="Utilde" unicode="&#x168;" horiz-adv-x="658" 
d="M161 700l-80 -470q-8 -57 4.5 -103.5t42 -80t74 -51.5t102.5 -18t108.5 18t90.5 51t66 79.5t36 104.5l79 470h-142l-80 -462q-7 -36 -26.5 -66t-49.5 -47.5t-70 -16.5q-40 0 -62.5 18t-29.5 48.5t-2 63.5l81 462h-142zM262 834l59 -56q4 9 11 20t17.5 19.5t27.5 10.5
q23 0 41.5 -12t37.5 -25t43 -13q28 -1 54 11t46 30.5t32 36.5l-54 68q-16 -19 -34 -35t-37 -16q-20 -1 -33 6t-25.5 17t-27 17.5t-35.5 8.5q-26 0 -52.5 -12.5t-46.5 -32.5t-24 -43z" />
    <glyph glyph-name="utilde" unicode="&#x169;" horiz-adv-x="543" 
d="M327 0h129l79 460h-128zM197 180l48 280h-132l-51 -293q-6 -51 5.5 -91t42.5 -63t85 -22q54 0 93.5 27t63.5 71t34 94l-28 -4q-6 -25 -21.5 -46.5t-38 -34t-49.5 -11.5q-26 1 -38.5 14.5t-15 34t1.5 44.5zM161 590l61 -56q5 9 11.5 20.5t17.5 20t27 9.5q23 1 41.5 -12
t38.5 -26t43 -13q28 -1 53 11.5t45.5 31t32.5 36.5l-56 68q-15 -19 -33 -35t-38 -16q-18 -1 -31.5 6t-26.5 17t-27 17.5t-35 7.5q-29 1 -53 -11.5t-42.5 -33t-28.5 -42.5z" />
    <glyph glyph-name="Umacron" unicode="&#x16a;" horiz-adv-x="658" 
d="M161 700l-80 -470q-8 -57 4.5 -103.5t42 -80t74 -51.5t102.5 -18t108.5 18t90.5 51t66 79.5t36 104.5l79 470h-142l-80 -462q-7 -37 -26.5 -66.5t-49.5 -47t-70 -16.5q-40 0 -62.5 18t-29.5 48t-2 64l81 462h-142zM258 775h357l17 114h-357z" />
    <glyph glyph-name="umacron" unicode="&#x16b;" horiz-adv-x="543" 
d="M327 0h129l79 460h-128zM197 180l48 280h-132l-51 -293q-6 -51 5.5 -91t42.5 -63t85 -22q54 0 93.5 27t63.5 71t34 94l-28 -4q-6 -25 -21.5 -46.5t-38 -34t-49.5 -11.5q-26 1 -38.5 14.5t-15 34t1.5 44.5zM158 531h358l18 114h-358z" />
    <glyph glyph-name="Ubreve" unicode="&#x16c;" horiz-adv-x="658" 
d="M161 700l-80 -470q-8 -57 4.5 -103.5t42 -80t74 -51.5t102.5 -18t108.5 18t90.5 51t66 79.5t36 104.5l79 470h-142l-80 -462q-7 -37 -26.5 -66.5t-49.5 -47t-70 -16.5q-40 0 -62.5 18t-29.5 48t-2 64l81 462h-142zM299 918q-2 -41 13.5 -73t47 -51t80.5 -19q50 0 86 19
t60 51t32 72h-92q-5 -15 -16.5 -29.5t-28 -24t-37.5 -8.5q-22 0 -34 9.5t-17 23t-4 30.5h-90z" />
    <glyph glyph-name="ubreve" unicode="&#x16d;" horiz-adv-x="543" 
d="M327 0h129l79 460h-128zM197 180l48 280h-132l-51 -293q-6 -51 5.5 -91t42.5 -63t85 -22q54 0 93.5 27t63.5 71t34 94l-28 -4q-6 -25 -21.5 -46.5t-38 -34t-49.5 -11.5q-26 1 -38.5 14.5t-15 34t1.5 44.5zM201 675q-2 -41 12.5 -73.5t47 -51.5t80.5 -19q50 0 86.5 19
t59 51t30.5 73l-90 1q-6 -16 -16.5 -31t-27.5 -24.5t-38 -8.5q-22 1 -34 10t-17.5 23t-5.5 31h-87z" />
    <glyph glyph-name="Uring" unicode="&#x16e;" horiz-adv-x="658" 
d="M161 700l-79 -470q-8 -57 4 -103.5t41.5 -80t73.5 -51.5t102 -18t108.5 18t90 51t66 79.5t36.5 104.5l80 470h-141l-80 -462q-7 -37 -26.5 -66.5t-49.5 -47t-71 -16.5q-39 0 -61.5 18t-30 47.5t-2.5 64.5l80 462h-141zM338 888q-4 -32 8 -58t36 -40.5t56 -14.5
q31 0 59 14.5t48 39.5t25 57q4 30 -9 55.5t-37 40t-55 14.5q-32 0 -60.5 -14t-47.5 -38.5t-23 -55.5zM407 885q1 13 10.5 24.5t22 19t24.5 6.5q17 -1 26.5 -16t7.5 -32q-1 -13 -10 -24.5t-21.5 -19t-23.5 -6.5q-18 1 -28 15.5t-8 32.5z" />
    <glyph glyph-name="uring" unicode="&#x16f;" horiz-adv-x="543" 
d="M327 0h129l79 460h-128zM197 180l48 280h-132l-51 -293q-6 -51 5 -91t42 -62.5t85 -22.5q55 0 94.5 27t63.5 71.5t34 93.5l-27 -4q-7 -25 -22.5 -46.5t-37.5 -34t-49 -11.5t-39 14t-15 34t1 45zM238 642q-4 -31 8.5 -56.5t37 -40t54.5 -14.5q31 -1 60 13.5t48 39.5t23 55
q5 32 -7 57.5t-36.5 40t-56.5 15.5q-31 0 -59 -14.5t-48 -39.5t-24 -56zM307 640q2 13 11.5 24.5t22.5 19t23 6.5q19 -2 28.5 -16t7.5 -32q-1 -13 -10.5 -24.5t-21 -18.5t-25.5 -6q-18 0 -28 14.5t-8 32.5z" />
    <glyph glyph-name="Uhungarumlaut" unicode="&#x170;" horiz-adv-x="658" 
d="M342 776l169 185l-113 30l-138 -190zM526 776l169 185l-114 30l-138 -190zM161 700l-79 -470q-9 -57 3.5 -103t42 -80t74 -52t101.5 -18q62 0 113 18t89.5 51t64 79.5t34.5 104.5l80 470h-141l-80 -462q-7 -37 -25 -66.5t-48.5 -47t-73.5 -16.5q-40 0 -62 18t-29.5 47.5
t-2.5 64.5l80 462h-141z" />
    <glyph glyph-name="uhungarumlaut" unicode="&#x171;" horiz-adv-x="543" 
d="M243 532l169 185l-113 30l-138 -190zM427 532l169 185l-114 30l-138 -190zM197 180l48 280h-132l-51 -293q-6 -50 5 -90t42 -63t85 -23q48 0 83.5 19.5t60.5 56.5l-11 -67h129l79 460h-128l-50 -283q-5 -27 -20.5 -47.5t-38 -31.5t-48.5 -11q-27 0 -39.5 13t-15 34.5
t1.5 45.5z" />
    <glyph glyph-name="Uogonek" unicode="&#x172;" horiz-adv-x="658" 
d="M327 -135q-11 -8 -25 -14.5t-28 -4.5q-18 1 -25 11.5t-6 27.5q3 20 18 37t36.5 32t43.5 27l-39 25q-33 -17 -66.5 -37t-57.5 -46.5t-28 -60.5q-4 -31 8.5 -53.5t37.5 -35t56 -11.5q34 0 58 11.5t40 26.5zM161 700l-79 -470q-9 -57 3.5 -103t42 -80t74 -52t101.5 -18
q62 0 113 18t89.5 51t64 79.5t34.5 104.5l80 470h-141l-80 -462q-7 -37 -25 -66.5t-48.5 -47t-73.5 -16.5q-40 0 -62 18t-29.5 47.5t-2.5 64.5l80 462h-141z" />
    <glyph glyph-name="uogonek" unicode="&#x173;" horiz-adv-x="543" 
d="M226 -136q-11 -8 -25 -14.5t-28 -4.5q-18 1 -25 11.5t-6 27.5q3 20 18 37t36.5 32t43.5 27l-39 25q-33 -17 -66.5 -37t-57.5 -46.5t-28 -60.5q-4 -31 8.5 -53.5t37.5 -35t56 -11.5q34 0 58 11.5t40 26.5zM197 180l48 280h-132l-51 -293q-6 -50 5 -90t42 -63t85 -23
q48 0 83.5 19.5t60.5 56.5l-11 -67h129l79 460h-128l-50 -283q-5 -27 -20.5 -47.5t-38 -31.5t-48.5 -11q-27 0 -39.5 13t-15 34.5t1.5 45.5z" />
    <glyph glyph-name="Wcircumflex" unicode="&#x174;" horiz-adv-x="1011" 
d="M714 255l-111 484l-274 -483l-67 444h-163l162 -741l294 456l136 -456l410 741h-169zM632 885l79 -89l95 60l-162 142l-202 -138l81 -63z" />
    <glyph glyph-name="wcircumflex" unicode="&#x175;" horiz-adv-x="714" 
d="M49 460l135 -493l191 291l93 -291l307 493h-141l-143 -252l-78 290l-178 -288l-53 250h-133zM442 644l78 -88l94 59l-160 143l-202 -138l80 -63z" />
    <glyph glyph-name="Ycircumflex" unicode="&#x176;" horiz-adv-x="611" 
d="M541 700l-193 -279l-95 279h-157l162 -406l-52 -294h146l49 286l308 414h-168zM428 863l78 -89l95 61l-162 142l-201 -138l80 -64z" />
    <glyph glyph-name="ycircumflex" unicode="&#x177;" horiz-adv-x="481" 
d="M545 460h-138l-205 -363l65 -3l-81 366h-140l117 -409l-163 -270h137zM321 617l79 -87l93 60l-161 142l-201 -137l81 -64z" />
    <glyph glyph-name="Ydieresis" unicode="&#x178;" horiz-adv-x="611" 
d="M224 858q-4 -31 14.5 -52.5t50.5 -22.5q31 -1 58 21.5t30 50.5q4 30 -16 52t-52 23q-31 1 -56 -21.5t-29 -50.5zM473 858q-4 -31 15 -52.5t52 -22.5q31 -1 56.5 21.5t29.5 50.5q4 30 -15.5 52t-50.5 23t-57 -21.5t-30 -50.5zM542 700l-194 -279l-95 279h-158l163 -407
l-51 -293h145l49 287l307 413h-166z" />
    <glyph glyph-name="Zacute" unicode="&#x179;" horiz-adv-x="579" 
d="M118 570h290l-427 -570h528l22 126l-301 1l431 573h-521zM603 922l-98 52l-171 -157l71 -42z" />
    <glyph glyph-name="zacute" unicode="&#x17a;" horiz-adv-x="488" 
d="M290 341l-306 -341h437l20 119l-210 1l298 340h-426l-20 -118zM519 690l-97 50l-170 -157l69 -40z" />
    <glyph glyph-name="Zdotaccent" unicode="&#x17b;" horiz-adv-x="579" 
d="M118 570h290l-427 -570h528l22 126l-301 1l431 573h-521zM348 849q-4 -29 15.5 -51t50.5 -23t57 21t30 51q4 30 -15.5 52t-51.5 23q-31 1 -56.5 -21t-29.5 -52z" />
    <glyph glyph-name="zdotaccent" unicode="&#x17c;" horiz-adv-x="488" 
d="M290 341l-306 -341h437l20 119l-210 1l298 340h-426l-20 -118zM266 623q-4 -30 15 -52t52 -22q30 -1 56 21t31 51q3 30 -17 51.5t-51 22.5q-32 1 -57 -20.5t-29 -51.5z" />
    <glyph glyph-name="Zcaron" unicode="&#x17d;" horiz-adv-x="579" 
d="M118 570h290l-427 -570h528l22 126l-301 1l431 573h-521zM428 890l-79 87l-94 -60l160 -143l202 139l-81 63z" />
    <glyph glyph-name="zcaron" unicode="&#x17e;" horiz-adv-x="484" 
d="M342 645l-78 87l-95 -60l161 -142l203 138l-81 64zM291 341l-307 -341h437l20 119l-210 1l298 340h-426l-20 -118z" />
    <glyph glyph-name="florin" unicode="&#x192;" horiz-adv-x="600" 
d="M138 -200q44 -1 81 19.5t63 58.5t36 87l85 385h87l23 110h-86l34 140q8 34 24 55t37 21q9 0 18.5 -5.5t24.5 -20.5l66 94q-33 27 -58 38t-54 11q-44 1 -81.5 -20t-63.5 -58.5t-37 -86.5l-36 -168h-65l-25 -110h67l-82 -357q-8 -34 -25 -55t-37 -21q-10 0 -19.5 5.5
t-23.5 20.5l-65 -93q32 -27 57 -38.5t55 -11.5z" />
    <glyph glyph-name="uni0212" unicode="&#x212;" horiz-adv-x="602" 
d="M259 326l148 -326h163l-165 326h-146zM166 700l-119 -700h140l121 700h-142zM230 576h140q33 -2 57 -14.5t34 -35t5 -53.5q-6 -34 -25.5 -56t-50 -35t-64.5 -14h-132l-20 -114h150q75 1 137 28.5t102 77t51 116.5q10 66 -15.5 116t-79.5 78.5t-127 29.5h-141zM249 774
q11 38 36 71.5t63 53t88 19.5q49 -1 79 -20.5t41.5 -52.5t6.5 -71h-85q0 16 -5.5 30.5t-18.5 24t-35 9.5t-38.5 -9.5t-27 -24t-15.5 -29.5z" />
    <glyph glyph-name="uni0213" unicode="&#x213;" horiz-adv-x="378" 
d="M239 460h-126l-80 -460h127zM350 325l73 108q-14 16 -34.5 26.5t-45.5 10.5q-43 0 -79 -27.5t-60.5 -71t-32.5 -90.5l31 -37q6 27 18 51t31 39.5t45 14.5q17 0 29.5 -7t24.5 -17zM124 530q11 39 35.5 72.5t63 53.5t88.5 20q49 -1 78 -21t41 -53t8 -72h-84q0 17 -6.5 31.5
t-19.5 23.5t-35 10q-22 0 -38 -9.5t-26.5 -24.5t-15.5 -30z" />
    <glyph glyph-name="uni0218" unicode="&#x218;" horiz-adv-x="583" 
d="M148 244l-111 -71q16 -57 49 -100t80.5 -66.5t108.5 -23.5q72 -1 132 24t98 72t49 115q5 40 -4 73.5t-29 60.5t-47.5 47t-61.5 33q-22 9 -47.5 19t-47 23.5t-32.5 29.5t-6 37q4 22 19 39t37 25.5t48 8.5q29 -1 49 -13.5t33.5 -34t24.5 -45.5l116 64q-13 41 -40.5 76
t-71.5 56t-104 21q-64 0 -119 -24t-92 -66t-46 -99q-5 -43 6.5 -77t34 -59.5t51 -44t57.5 -31.5q33 -14 63 -29.5t47 -37t11 -56.5q-5 -25 -20.5 -43.5t-39 -28t-51.5 -9.5q-29 0 -51 10.5t-39.5 28.5t-30.5 43t-23 53zM223 -71l-129 -257l95 -23l160 247z" />
    <glyph glyph-name="uni0219" unicode="&#x219;" horiz-adv-x="427" 
d="M83 171l-74 -80q20 -32 49.5 -56t66.5 -37t82 -13q50 -1 91 15t67.5 48.5t32.5 81.5q4 35 -9.5 61t-38 44.5t-54.5 32.5q-20 8 -45 17.5t-41.5 21t-13.5 29.5t23 26t40 8t40 -7t37.5 -20t32.5 -28l66 80q-19 22 -46 39t-59.5 26.5t-68.5 9.5q-44 -1 -84 -16t-68 -43
t-34 -70q-5 -36 7.5 -62.5t36.5 -44.5t52 -32q15 -7 33.5 -14.5t34 -16t24.5 -19t7 -24.5q-4 -21 -23 -30.5t-41 -9.5q-24 0 -45 10t-40.5 28.5t-37.5 44.5zM155 -69l-129 -257l95 -23l160 247z" />
    <glyph glyph-name="uni021A" unicode="&#x21a;" horiz-adv-x="516" 
d="M75 570h184l-99 -570h142l99 570h182l22 130h-507zM199 -60l-129 -257l93 -23l161 247z" />
    <glyph glyph-name="uni021B" unicode="&#x21b;" horiz-adv-x="285" 
d="M57 460l-19 -110h279l19 110h-279zM159 620l-105 -620h123l108 620h-126zM83 -60l-129 -257l96 -23l159 247z" />
    <glyph glyph-name="uni0237" unicode="&#x237;" horiz-adv-x="256" 
d="M-73 -88l-67 -96q11 -12 26.5 -23.5t35 -18.5t46.5 -7q51 -1 89 20t62 59t32 86l90 528h-126l-86 -498q-3 -20 -11.5 -38t-21 -28t-29.5 -10q-13 0 -22 6.5t-18 19.5z" />
    <glyph glyph-name="circumflex" unicode="&#x2c6;" horiz-adv-x="465" 
d="M318 633l77 -86l96 60l-161 141l-202 -137l81 -64z" />
    <glyph glyph-name="caron" unicode="&#x2c7;" horiz-adv-x="465" 
d="M317 671l-78 87l-95 -60l160 -142l202 138l-81 64z" />
    <glyph glyph-name="breve" unicode="&#x2d8;" horiz-adv-x="529" 
d="M221 850q-3 -41 12 -73t47 -51t80 -18q49 0 85.5 19t59.5 50.5t32 71.5l-92 1q-5 -17 -15 -31t-26.5 -23.5t-38.5 -8.5q-21 1 -33 9.5t-18 23t-6 30.5h-87z" />
    <glyph glyph-name="dotaccent" unicode="&#x2d9;" horiz-adv-x="291" 
d="M180 808q-2 -31 18 -53t54 -22q31 0 55.5 21.5t26.5 51.5q2 32 -19.5 53.5t-52.5 21.5q-33 0 -56.5 -21t-25.5 -52z" />
    <glyph glyph-name="ring" unicode="&#x2da;" horiz-adv-x="303" 
d="M141 776q-5 -32 7.5 -57t37 -39.5t56.5 -14.5q31 -1 59 13.5t47.5 39t24.5 56.5q4 30 -8.5 55.5t-37 40t-53.5 15.5q-33 0 -61.5 -14.5t-48 -39.5t-23.5 -55zM210 774q2 12 11 24t22.5 19.5t24.5 6.5q18 -2 28 -17t8 -32q-2 -13 -11 -24.5t-22.5 -18.5t-24.5 -6
q-17 1 -27.5 15.5t-8.5 32.5z" />
    <glyph glyph-name="ogonek" unicode="&#x2db;" horiz-adv-x="252" 
d="M153 -116q-11 -8 -25 -14.5t-28 -4.5q-18 1 -25 11.5t-6 27.5q3 20 18 37t36.5 32t43.5 27l-39 25q-33 -17 -66.5 -37t-57.5 -46.5t-28 -60.5q-4 -31 8.5 -53.5t37.5 -35t56 -11.5q34 0 58 11.5t40 26.5z" />
    <glyph glyph-name="tilde" unicode="&#x2dc;" horiz-adv-x="514" 
d="M159 636l61 -55q4 9 9.5 19.5t16.5 19.5t28 10q22 1 41 -11.5t38 -26t43 -13.5q29 -1 54.5 11.5t45.5 31.5t33 39l-57 65q-15 -19 -31.5 -35t-36.5 -16q-19 -1 -32.5 6t-27 17t-27 17.5t-34.5 8.5q-30 0 -53.5 -12.5t-41.5 -33t-29 -42.5z" />
    <glyph glyph-name="hungarumlaut" unicode="&#x2dd;" horiz-adv-x="0" 
d="M102 517l169 185l-113 30l-138 -190zM286 517l169 185l-114 30l-138 -190z" />
    <glyph glyph-name="gravecomb" unicode="&#x300;" horiz-adv-x="0" 
d="M252 538l73 39l-123 160l-104 -49z" />
    <glyph glyph-name="acutecomb" unicode="&#x301;" horiz-adv-x="0" 
d="M171 537l205 150l-105 52l-177 -160z" />
    <glyph glyph-name="uni0302" unicode="&#x302;" horiz-adv-x="0" 
d="M138 548l140 103h-34l102 -102l70 73l-143 126l-187 -126z" />
    <glyph glyph-name="tildecomb" unicode="&#x303;" horiz-adv-x="0" 
d="M145 577q2 10 10.5 21.5t22.5 20t32 8.5q16 0 28.5 -8t26 -18t28.5 -18t35 -8q29 0 57 13t49.5 33t32.5 38l-53 67q-21 -24 -39.5 -38t-38.5 -14q-19 0 -30.5 7.5t-22 17.5t-24.5 17.5t-39 7.5q-27 0 -54 -12.5t-48 -32.5t-30 -45z" />
    <glyph glyph-name="uni0304" unicode="&#x304;" horiz-adv-x="0" 
d="M79 576h366l16 99h-366z" />
    <glyph glyph-name="uni0306" unicode="&#x306;" horiz-adv-x="0" 
d="M239 544q48 0 86 18t63.5 50.5t32.5 75.5h-102q-2 -19 -13.5 -33.5t-26.5 -22.5t-30 -8q-18 0 -30 8t-17 22.5t-2 33.5h-103q-7 -43 9 -75.5t50.5 -50.5t82.5 -18z" />
    <glyph glyph-name="uni0307" unicode="&#x307;" horiz-adv-x="0" 
d="M163 544q33 0 55.5 21.5t22.5 52.5t-22.5 52t-55.5 21t-55.5 -21t-22.5 -52t22.5 -52.5t55.5 -21.5z" />
    <glyph glyph-name="uni0308" unicode="&#x308;" horiz-adv-x="0" 
d="M227 566q34 0 56 20.5t22 53.5q0 32 -22 53t-56 21q-35 0 -56.5 -21t-21.5 -53q0 -33 21.5 -53.5t56.5 -20.5zM338 566q33 0 55.5 20.5t22.5 53.5q0 32 -22.5 53t-55.5 21q-35 0 -56.5 -21t-21.5 -53q0 -33 21.5 -53.5t56.5 -20.5z" />
    <glyph glyph-name="uni030A" unicode="&#x30a;" horiz-adv-x="0" 
d="M191 520q36 0 67 15.5t52 41.5t27 59q5 34 -7 60.5t-38 42t-61 15.5t-65.5 -15.5t-51 -42t-25.5 -59.5q-9 -50 21 -83.5t81 -33.5zM204 584q-24 0 -35 15.5t-7 36.5q4 23 20 37.5t40 14.5q20 0 32 -14.5t9 -35.5q-4 -24 -21.5 -39t-37.5 -15z" />
    <glyph glyph-name="uni030B" unicode="&#x30b;" horiz-adv-x="0" 
d="M102 517l169 185l-113 30l-138 -190zM286 517l169 185l-114 30l-138 -190z" />
    <glyph glyph-name="uni030C" unicode="&#x30c;" horiz-adv-x="0" 
d="M240 549l186 126l-52 74l-141 -103h36l-103 102l-70 -73z" />
    <glyph glyph-name="uni0312" unicode="&#x312;" horiz-adv-x="0" 
d="M195 498l132 259l-93 23l-163 -250z" />
    <glyph glyph-name="uni0326" unicode="&#x326;" horiz-adv-x="0" 
d="M21 -214l144 152l-92 43l-122 -163z" />
    <glyph glyph-name="uni0327" unicode="&#x327;" horiz-adv-x="0" 
d="M58 -217q37 0 66 13t47 36t23 52q5 31 -13 56t-50 25q-24 0 -43.5 -4t-34.5 -13l45 -10l87 128l-83 2l-96 -154q13 2 31.5 2.5t30.5 0.5q24 0 34 -8t7 -23q-3 -17 -15.5 -26.5t-33.5 -9.5q-19 0 -37.5 4t-34.5 14l-38 -56q22 -15 50 -22t58 -7z" />
    <glyph glyph-name="uni0328" unicode="&#x328;" horiz-adv-x="0" 
d="M64 -220q39 0 64 12.5t39 27.5l-22 64q-12 -10 -24.5 -15t-29.5 -5t-25.5 9.5t-5.5 30.5q3 17 15.5 34t34 33t49.5 29l-42 25q-38 -18 -71.5 -39.5t-56 -47.5t-27.5 -58q-5 -31 7.5 -53.5t37.5 -34.5t57 -12z" />
    <glyph glyph-name="uni0394" unicode="&#x394;" horiz-adv-x="600" 
d="M-27 0l416 800l147 -800h-563zM144 104h256l-57 409z" />
    <glyph glyph-name="uni03A9" unicode="&#x3a9;" horiz-adv-x="600" 
d="M21 0l18 112l87 -9q-20 33 -32.5 68t-16.5 72t1 74q10 69 48 123.5t95.5 86.5t123.5 32t113.5 -32t69.5 -86.5t10 -123.5q-6 -37 -22 -74t-40 -72t-58 -68l89 9l-18 -112h-204l15 96q22 15 41 36.5t35 46.5t26.5 52t15.5 53q7 42 -1.5 72t-32 46t-58.5 16q-36 0 -65 -16
t-47.5 -46t-26.5 -72q-6 -34 -1.5 -70t19 -66.5t36.5 -51.5l-16 -96h-204z" />
    <glyph glyph-name="uni03BC" unicode="&#x3bc;" horiz-adv-x="556" 
d="M246 460h-134l-132 -779l124 -1l57 335q15 -10 30.5 -15t35.5 -5q32 0 60 16.5t49 43.5l-9 -55h129l78 460h-125l-48 -264q-5 -28 -19.5 -48t-36.5 -31.5t-49 -11.5q-26 -1 -40 10.5t-18.5 31.5t-1.5 45z" />
    <glyph glyph-name="pi" unicode="&#x3c0;" horiz-adv-x="566" 
d="M132 430l-72 -430h121l75 430h-124zM80 460l-19 -110h501l19 110h-501zM376 430l-53 -309q-5 -41 4 -66t29 -38.5t50.5 -19t68.5 -5.5l17 105q-17 4 -27 10.5t-13 20t0 39.5l47 263h-123z" />
    <glyph glyph-name="uni0400" unicode="&#x400;" horiz-adv-x="553" 
d="M135 0h348l20 122h-348zM235 579h346l21 121h-348zM189 313h327l20 118h-327zM165 700l-119 -700h137l122 700h-140zM251 927l154 -153l73 37l-123 163z" />
    <glyph glyph-name="uni0401" unicode="&#x401;" horiz-adv-x="553" 
d="M135 0h348l20 122h-348zM235 579h346l21 121h-348zM189 313h327l20 118h-327zM165 700l-119 -700h137l122 700h-140zM449 850q-3 -30 16.5 -52.5t52.5 -22.5q30 -1 55.5 20.5t28.5 50.5q4 32 -16 53.5t-51 21.5q-32 1 -57 -20.5t-29 -50.5zM226 850q-4 -30 16 -52.5
t53 -22.5q30 -1 55.5 20.5t29.5 50.5q3 32 -17 53.5t-51 21.5q-32 1 -57.5 -20.5t-28.5 -50.5z" />
    <glyph glyph-name="uni0403" unicode="&#x403;" horiz-adv-x="469" 
d="M167 700l-117 -700h142l99 570h243l23 130h-390zM567 921l-99 52l-168 -156l71 -42z" />
    <glyph glyph-name="uni040C" unicode="&#x40c;" horiz-adv-x="599" 
d="M165 700l-119 -700h146l121 700h-148zM547 700l-334 -326l233 -374h163l-229 367l344 333h-177zM631 917l-99 53l-169 -156l71 -43z" />
    <glyph glyph-name="uni040D" unicode="&#x40d;" horiz-adv-x="764" 
d="M756 545l40 199l-719 -588l-41 -199zM305 700h-140l-129 -743l166 154zM796 744l-168 -158l-101 -586h139zM353 907l154 -153l73 36l-122 163z" />
    <glyph glyph-name="uni040E" unicode="&#x40e;" horiz-adv-x="575" 
d="M680 700h-152l-262 -429l67 -4l-93 433h-153l135 -483l-131 -217h149zM256 918q-2 -40 13 -72.5t47 -52t80 -19.5q50 0 86 19.5t59.5 51.5t31.5 72h-91q-5 -15 -16 -29.5t-27.5 -24t-39.5 -8.5q-20 0 -33 9.5t-18 23.5t-5 30h-87z" />
    <glyph glyph-name="uni0410" unicode="&#x410;" horiz-adv-x="691" 
d="M168 158h362l3 115h-331zM404 472l57 -242l-8 -38l53 -192h157l-218 746l-475 -746h167l122 198l2 32z" />
    <glyph glyph-name="uni0411" unicode="&#x411;" horiz-adv-x="616" 
d="M149 312h205q32 -1 54.5 -12.5t32.5 -32t4 -50.5q-6 -32 -25 -53t-46.5 -31t-61.5 -11h-197l-21 -122h234q65 1 121.5 28t94.5 75.5t47 112.5q8 62 -16.5 110t-73.5 76.5t-113 28.5h-220zM167 700l-117 -700h144l101 578h306l20 122h-454z" />
    <glyph glyph-name="uni0412" unicode="&#x412;" horiz-adv-x="614" 
d="M211 355h130q62 0 116.5 19t91.5 55.5t45 93.5q7 44 -7 77t-43.5 55t-70 33t-86.5 12h-221l-120 -700h249q71 1 132.5 21.5t101.5 65t49 113.5q7 51 -10 87t-50.5 60t-77 35t-90.5 12h-132l-13 -77l131 -1q23 -2 44 -8t34.5 -18t19 -29.5t1.5 -42.5q-6 -34 -27.5 -57
t-52 -34t-65.5 -12l-83 -1l84 472h76q41 -2 63 -23.5t15 -57.5q-5 -26 -22 -45t-41.5 -29t-53.5 -11h-106z" />
    <glyph glyph-name="uni0413" unicode="&#x413;" horiz-adv-x="469" 
d="M167 700l-117 -700h142l99 570h243l23 130h-390z" />
    <glyph glyph-name="uni0414" unicode="&#x414;" horiz-adv-x="830" 
d="M469 462l80 -432h156l-193 709l-439 -708h168zM625 0l-20 -109h139l41 235h-754l-40 -235h141l20 109h473z" />
    <glyph glyph-name="uni0415" unicode="&#x415;" horiz-adv-x="570" 
d="M136 0h347l20 122h-347zM235 579h347l21 121h-348zM190 313h327l20 118h-328zM165 700l-118 -700h137l121 700h-140z" />
    <glyph glyph-name="uni0416" unicode="&#x416;" horiz-adv-x="997" 
d="M271 700h-160l227 -323l-369 -377h176l356 365zM520 700l-117 -700h146l120 700h-149zM901 700l-325 -324l228 -376h165l-236 367l349 333h-181z" />
    <glyph glyph-name="uni0417" unicode="&#x417;" horiz-adv-x="630" 
d="M320 342q55 1 109 10.5t99.5 30.5t75.5 54.5t39 83.5q8 56 -20 99.5t-82 67t-123 24.5q-76 0 -133.5 -26t-95.5 -72.5t-50 -108.5h133q9 24 28 45t47.5 32.5t63.5 11.5q30 -1 51.5 -11.5t31 -29.5t5.5 -44q-7 -31 -31 -53t-60 -33t-80 -13zM309 -13q78 0 141.5 23.5
t104.5 69t50 109.5q8 55 -13 93t-61.5 60.5t-94.5 33.5t-110 12l-11 -75q35 -2 64.5 -8.5t51 -19t31 -32.5t3.5 -49q-7 -32 -29 -54.5t-54 -33t-70 -10.5q-40 0 -66 12t-39 35.5t-12 57.5h-139q-4 -50 11 -91t47 -71t82 -46t113 -16z" />
    <glyph glyph-name="uni0418" unicode="&#x418;" horiz-adv-x="764" 
d="M756 545l40 199l-719 -588l-41 -199zM305 700h-140l-129 -743l166 154zM796 744l-168 -158l-101 -586h139z" />
    <glyph glyph-name="uni0419" unicode="&#x419;" horiz-adv-x="764" 
d="M756 545l40 199l-719 -588l-41 -199zM305 700h-140l-129 -743l166 154zM796 744l-168 -158l-101 -586h139zM361 917q-2 -41 12.5 -73.5t47 -51.5t80.5 -19q49 0 85.5 19.5t59.5 51.5t32 72h-92q-5 -16 -15.5 -30t-26.5 -23.5t-38 -8.5q-21 0 -34 9.5t-18 23.5t-5 30h-88z
" />
    <glyph glyph-name="uni041A" unicode="&#x41a;" horiz-adv-x="641" 
d="M165 700l-119 -700h146l121 700h-148zM547 700l-334 -326l233 -374h163l-229 367l344 333h-177z" />
    <glyph glyph-name="uni041B" unicode="&#x41b;" horiz-adv-x="714" 
d="M731 700h-532l-73 -421q-5 -31 -15.5 -58t-25.5 -48t-37 -34t-48 -17l-16 -121q85 4 144 37.5t94 94t49 146.5l50 291h244l-99 -570h145z" />
    <glyph glyph-name="uni041C" unicode="&#x41c;" horiz-adv-x="840" 
d="M269 390l138 -327l249 319l-23 -382h149l25 742l-368 -455l-207 450l-227 -737h151z" />
    <glyph glyph-name="uni041D" unicode="&#x41d;" horiz-adv-x="741" 
d="M145 307h503l22 131h-503zM621 700l-119 -700h142l121 700h-144zM165 700l-119 -700h142l121 700h-144z" />
    <glyph glyph-name="uni041E" unicode="&#x41e;" horiz-adv-x="786" 
d="M217 350q8 47 31 88t56.5 73.5t76.5 50.5t93 18q49 -1 83 -20.5t54.5 -52t26.5 -73.5t-1 -84q-9 -47 -32 -88t-56.5 -73.5t-76.5 -50.5t-90 -17q-49 0 -83.5 19.5t-55 52t-27 73.5t0.5 84zM66 350q-10 -74 6.5 -140.5t56.5 -117.5t101 -80.5t141 -29.5t150.5 28.5
t126.5 79t92.5 118t47.5 142.5q10 74 -6.5 140t-58 116t-102.5 79t-138 29q-80 0 -150 -28t-126.5 -77.5t-93 -116t-47.5 -142.5z" />
    <glyph glyph-name="uni041F" unicode="&#x41f;" horiz-adv-x="732" 
d="M583 571l-99 -571h145l120 700h-580l-120 -700h145l99 570z" />
    <glyph glyph-name="uni0420" unicode="&#x420;" 
d="M165 700l-118 -700h142l121 700h-145zM231 578h141q33 -2 56.5 -14.5t34 -34t4.5 -53.5q-7 -33 -26.5 -55t-50 -33.5t-64.5 -11.5h-131l-21 -122h144q76 1 137.5 27.5t100.5 75.5t49 119q9 67 -16.5 117.5t-79.5 78t-128 28.5h-130z" />
    <glyph glyph-name="uni0421" unicode="&#x421;" horiz-adv-x="674" 
d="M221 350q9 48 33 89.5t59 72t79 47t90 17.5q44 0 78.5 -12t62 -33.5t48.5 -50.5l22 162q-42 36 -91 54t-115 18q-81 0 -152 -27.5t-127.5 -76.5t-93 -115.5t-48.5 -144.5q-10 -76 7 -142t58 -115t103 -77.5t141 -28.5q69 0 122.5 19t99.5 52l23 161q-30 -25 -65 -46.5
t-76 -35t-88 -12.5q-45 0 -80.5 18t-58.5 49.5t-31 71.5t0 86z" />
    <glyph glyph-name="uni0422" unicode="&#x422;" horiz-adv-x="518" 
d="M75 570h183l-98 -570h143l99 570h183l22 130h-509z" />
    <glyph glyph-name="uni0423" unicode="&#x423;" 
d="M688 700h-157l-259 -429l65 -4l-93 433h-157l140 -483l-133 -217h155z" />
    <glyph glyph-name="uni0424" unicode="&#x424;" horiz-adv-x="861" 
d="M449 700l-118 -700h146l121 700h-149zM713 350q-10 -51 -42 -81t-79.5 -45t-102.5 -15l-112 1q-52 0 -93 14.5t-60 45t-9 80.5q9 50 41 81t79.5 45.5t103.5 14.5h112q51 -1 92 -15t60.5 -45t9.5 -81zM858 350q9 62 -9 111.5t-57 85t-93 54t-117 19.5h-156
q-88 -1 -165 -33t-128 -92.5t-63 -144.5q-9 -62 8.5 -111.5t57 -85t94 -54t117.5 -19.5h156q87 1 163.5 33t127.5 92.5t64 144.5z" />
    <glyph glyph-name="uni0425" unicode="&#x425;" horiz-adv-x="645" 
d="M531 700l-156 -215l-77 215h-168l146 -333l-296 -367h179l182 247l89 -247h169l-161 357l273 343h-180z" />
    <glyph glyph-name="uni0426" unicode="&#x426;" horiz-adv-x="805" 
d="M210 130l99 570h-143l-121 -700h565l-22 -127h136l44 257h-100l99 570h-146l-98 -570h-313z" />
    <glyph glyph-name="uni0427" unicode="&#x427;" horiz-adv-x="666" 
d="M313 239h208l22 127h-179zM534 700l-118 -700h148l120 700h-150zM308 700h-143l-36 -217q-9 -64 8.5 -120.5t61.5 -90t114 -33.5l51 127q-36 0 -58 17t-31.5 46.5t-2.5 68.5z" />
    <glyph glyph-name="uni0428" unicode="&#x428;" horiz-adv-x="1021" 
d="M796 130h-221l99 570h-141l-98 -570h-221l99 570h-144l-120 -700h871l120 700h-146z" />
    <glyph glyph-name="uni0429" unicode="&#x429;" horiz-adv-x="1081" 
d="M796 130h-221l99 570h-141l-98 -570h-221l99 570h-144l-120 -700h834l-22 -127h136l44 257h-100l99 570h-146z" />
    <glyph glyph-name="uni042A" unicode="&#x42a;" horiz-adv-x="691" 
d="M296 325l141 -1q33 -1 56.5 -12.5t34 -33.5t4.5 -54q-6 -33 -26.5 -55t-50.5 -34t-65 -13h-130l-21 -122h143q77 0 138.5 27.5t100.5 77.5t49 119q10 67 -16 117.5t-80 77.5t-129 27h-129zM255 571l-99 -571h143l121 700h-319l-22 -130z" />
    <glyph glyph-name="uni042B" unicode="&#x42b;" horiz-adv-x="839" 
d="M715 700l-118 -700h144l121 700h-147zM165 700l-119 -700h142l121 700h-144zM186 325l142 -1q33 -1 56.5 -12.5t33.5 -33.5t4 -54q-6 -33 -25.5 -55t-50 -34t-64.5 -13h-131l-22 -122h145q76 0 137.5 27.5t100 77.5t48.5 119q10 68 -15.5 118t-79.5 77t-128 27h-131z" />
    <glyph glyph-name="uni042C" unicode="&#x42c;" horiz-adv-x="582" 
d="M165 700l-119 -700h142l121 700h-144zM186 325l142 -1q33 -1 56.5 -12.5t33.5 -33.5t4 -54q-6 -33 -25.5 -55t-50 -34t-64.5 -13h-131l-22 -122h145q76 0 137.5 27.5t100 77.5t48.5 119q10 68 -15.5 118t-79.5 77t-128 27h-131z" />
    <glyph glyph-name="uni042D" unicode="&#x42d;" horiz-adv-x="674" 
d="M155 290h379l21 120h-381zM532 350q-9 -49 -34.5 -90.5t-63.5 -72.5t-84 -48.5t-92 -17.5q-44 0 -79 11t-63 31t-47 44l-21 -148q43 -35 91.5 -53.5t115.5 -18.5q80 0 151 27.5t127.5 76t93 115t48.5 144.5q10 76 -7 142t-58.5 115.5t-103 78t-140.5 28.5q-69 0 -122 -19
t-100 -53l-20 -148q27 22 62 41.5t76 32t88 11.5q46 -1 83 -19.5t62.5 -50t35 -72.5t1.5 -87z" />
    <glyph glyph-name="uni042E" unicode="&#x42e;" horiz-adv-x="1075" 
d="M145 307h297l22 131h-297zM165 700l-119 -700h142l121 700h-144zM506 350q8 47 31 88t56.5 73.5t76.5 50.5t92 18q49 -1 82.5 -20.5t54 -52t26.5 -73.5t-1 -84q-9 -47 -31 -88t-56 -73.5t-77 -50.5t-90 -17q-49 0 -83 19.5t-54.5 52t-27 73.5t0.5 84zM353 350
q-10 -74 7 -140.5t57 -117.5t101.5 -80.5t139.5 -29.5q81 0 151.5 28.5t127 79t92.5 118t48 142.5q10 74 -7 140t-58 116t-102.5 79t-138.5 29q-79 0 -149.5 -28t-126.5 -77.5t-93.5 -116t-48.5 -142.5z" />
    <glyph glyph-name="uni042F" unicode="&#x42f;" horiz-adv-x="602" 
d="M410 326h-159l-277 -326h175zM625 700h-144l-120 -700h144zM518 576l21 124h-151q-77 0 -138.5 -28.5t-100.5 -78t-49 -116.5t15.5 -116.5t80 -77.5t128.5 -29h138l20 114l-143 1q-34 1 -57.5 13.5t-32.5 35t-4 54.5q7 32 26.5 55.5t49.5 36t66 12.5h131z" />
    <glyph glyph-name="uni0430" unicode="&#x430;" horiz-adv-x="510" 
d="M149 136q3 22 19 38t38.5 23.5t48.5 8.5q35 0 62.5 -11t53.5 -30l8 63q-13 14 -36 26t-50 19t-59 8q-54 0 -100.5 -17t-76.5 -50.5t-37 -80.5q-6 -45 11.5 -76.5t51 -48.5t78.5 -17q47 -1 85 16t64.5 48.5t35.5 73.5l-7 55q-9 -33 -27.5 -56.5t-45 -35.5t-57.5 -11
q-19 0 -33.5 6.5t-22 18.5t-4.5 30zM144 327q17 9 40.5 19t51 17.5t57.5 5.5q22 0 39 -8t24.5 -22t4.5 -34l-56 -305h127l55 327q6 35 -6.5 62t-38.5 45.5t-60.5 27.5t-72.5 10q-57 0 -107.5 -16t-91.5 -36z" />
    <glyph glyph-name="uni0431" unicode="&#x431;" horiz-adv-x="571" 
d="M329 360q34 0 58 -16.5t35.5 -46t4.5 -67.5q-6 -35 -26.5 -64.5t-51.5 -47.5t-66 -17q-32 0 -54 15.5t-31.5 39.5t-9.5 52l-133 32q0 -64 23 -121.5t72 -93t128 -35.5q72 0 132.5 31.5t100 85.5t48.5 123q8 66 -15 120.5t-72 87t-118 32.5zM133 231l55 -23q0 37 12.5 65
t32.5 47.5t45 29.5t51 10l25 110q-47 0 -85 -18t-65.5 -50.5t-45.5 -76t-25 -94.5zM55 240l128 -31l-10 104q1 43 16 82.5t43 75.5t64 63t79 44q53 20 97 49t76 66.5t47 85.5l-127 1q-22 -42 -61.5 -69t-99.5 -51q-60 -25 -106.5 -65.5t-79.5 -95.5t-49.5 -120t-16.5 -139z
" />
    <glyph glyph-name="uni0432" unicode="&#x432;" horiz-adv-x="487" 
d="M157 240l-6 -49l133 -1q14 0 24 -3.5t17.5 -10t10 -16t0.5 -20.5q-5 -23 -27 -37.5t-51 -14.5h-126l-15 -88l178 1q68 0 110.5 34t50.5 90q5 44 -15.5 69t-57 35.5t-77.5 10.5h-149zM156 221h147q40 0 76.5 12t62 37t31.5 65q6 42 -13.5 70t-53 41.5t-72.5 13.5h-139
l-14 -86l125 -1q14 -1 24 -7t15.5 -16.5t3.5 -24.5q-3 -12 -9 -21t-15.5 -15t-20.5 -9.5t-22 -3.5l-118 -1zM122 460l-77 -460h125l80 460h-128z" />
    <glyph glyph-name="uni0433" unicode="&#x433;" horiz-adv-x="338" 
d="M113 460l-77 -460h128l61 350h146l19 110h-277z" />
    <glyph glyph-name="uni0434" unicode="&#x434;" horiz-adv-x="669" 
d="M358 289l68 -260l126 22l-164 447l-316 -444l128 -23zM481 0l-17 -90h121l34 196h-591l-34 -196h129l16 90h342z" />
    <glyph glyph-name="uni0435" unicode="&#x435;" horiz-adv-x="540" 
d="M117 203h402q3 9 4.5 17.5t2.5 15.5q7 67 -14 119.5t-68.5 83t-120.5 31.5q-67 0 -120 -24.5t-90.5 -67.5t-54.5 -99q-4 -12 -7 -24t-4 -25q-9 -66 13.5 -120.5t72.5 -86.5t124 -32q57 -1 102 16t81 45.5t64 66.5l-111 38q-16 -19 -35.5 -34.5t-44 -24.5t-50.5 -8
q-36 1 -57 20t-28.5 50t-2.5 70l7 27q7 33 25.5 61t46 44t61.5 16q30 -1 47.5 -14t24 -35t5.5 -47l-263 -1z" />
    <glyph glyph-name="uni0436" unicode="&#x436;" horiz-adv-x="795" 
d="M674 460l-221 -185l169 -275h144l-168 260l236 200h-160zM511 460h-123l-78 -460l122 1zM215 460h-141l160 -190l-267 -270h159l255 265z" />
    <glyph glyph-name="uni0437" unicode="&#x437;" horiz-adv-x="502" 
d="M267 230q51 0 95.5 10.5t74 33t35.5 62.5q6 41 -16 71t-62 46.5t-84 16.5q-54 0 -95 -20.5t-68 -55.5t-36 -80l122 -1q3 14 13.5 27.5t25 22.5t34.5 8q15 0 25 -5t16 -15t4 -22q-4 -23 -26 -35t-49 -14zM240 -9q51 0 98 16t80 49t39 78q7 46 -19 73t-70.5 40t-95.5 13
l-9 -56q22 -1 39.5 -7t27.5 -18t6 -32q-3 -19 -16 -32t-33 -21t-42 -7q-34 0 -49 19.5t-20 47.5h-121q2 -74 50 -118.5t135 -44.5z" />
    <glyph glyph-name="uni0438" unicode="&#x438;" horiz-adv-x="560" 
d="M525 342l35 161l-498 -385l-37 -160zM242 460h-128l-89 -502l152 134zM560 503l-152 -135l-63 -368h126z" />
    <glyph glyph-name="uni0439" unicode="&#x439;" horiz-adv-x="560" 
d="M525 342l35 161l-498 -385l-37 -160zM242 460h-128l-89 -502l152 134zM560 503l-152 -135l-63 -368h126zM208 691q-3 -41 12.5 -73t47 -51t80.5 -18q49 0 85.5 19t59.5 50.5t32 71.5l-91 1q-5 -17 -16 -31t-27.5 -23t-37.5 -8q-22 0 -34 8.5t-18 23t-5 30.5h-88z" />
    <glyph glyph-name="uni043A" unicode="&#x43a;" horiz-adv-x="516" 
d="M110 460l-77 -460h123l80 460h-126zM392 460l-218 -185l167 -275h146l-163 266l231 194h-163z" />
    <glyph glyph-name="uni043B" unicode="&#x43b;" horiz-adv-x="585" 
d="M563 460h-432l-49 -273q-7 -39 -29 -53t-53 -18l-17 -115q66 2 112 18.5t73.5 50.5t38.5 90l31 181h179l-60 -341h127z" />
    <glyph glyph-name="uni043C" unicode="&#x43c;" horiz-adv-x="623" 
d="M461 0h130l-43 502l-94 -165zM274 119l6 -152l245 332l23 203zM280 -33l52 140l-141 391l-41 -187zM-26 0h136l119 323l-38 175z" />
    <glyph glyph-name="uni043D" unicode="&#x43d;" horiz-adv-x="582" 
d="M112 193h356l17 101h-356zM447 460l-77 -460h125l80 460h-128zM111 460l-78 -460h126l80 460h-128z" />
    <glyph glyph-name="uni043E" unicode="&#x43e;" horiz-adv-x="558" 
d="M43 230q-10 -67 15 -121.5t77 -86t122 -31.5q71 0 132.5 30.5t102 85t50.5 123.5q10 67 -15.5 121.5t-77.5 86.5t-123 32t-132 -31t-101.5 -85.5t-49.5 -123.5zM174 230q7 35 28 65t51.5 47.5t66.5 17.5q34 -1 55.5 -19.5t30 -48t3.5 -62.5q-6 -35 -27.5 -64.5t-52 -47.5
t-65.5 -17q-36 0 -57 19t-29.5 48t-3.5 62z" />
    <glyph glyph-name="uni043F" unicode="&#x43f;" horiz-adv-x="543" 
d="M536 460h-424l-80 -460h127l61 346h170l-60 -346h127z" />
    <glyph glyph-name="uni0440" unicode="&#x440;" horiz-adv-x="585" 
d="M125 -219l114 679h-128l-118 -680zM568 230q7 67 -13 123t-64 89t-105 32q-48 0 -86 -19.5t-67 -53.5t-46.5 -78t-23.5 -93q-6 -47 -1 -90.5t23 -78t50 -54.5t80 -20q62 0 116 31t90.5 86t46.5 126zM433 231q-7 -37 -28.5 -66t-52.5 -46.5t-66 -15.5q-23 0 -41 10.5
t-29 28t-15.5 40t0.5 48.5q3 28 16.5 50.5t33 40.5t43 27.5t46.5 9.5q35 0 57 -18t31.5 -46.5t4.5 -62.5z" />
    <glyph glyph-name="uni0441" unicode="&#x441;" horiz-adv-x="472" 
d="M173 230q7 36 29.5 66t55.5 48.5t71 19.5q26 0 50.5 -9.5t43 -26t30.5 -38.5l19 134q-28 21 -64 33.5t-81 12.5q-73 -1 -134.5 -31.5t-102 -84.5t-50.5 -124q-10 -67 15.5 -121.5t78 -86.5t123.5 -32q45 0 83.5 12.5t68.5 34.5l18 132q-19 -20 -43.5 -36.5t-53.5 -25.5
t-59 -9q-37 1 -61 19t-33.5 48t-3.5 65z" />
    <glyph glyph-name="uni0442" unicode="&#x442;" horiz-adv-x="307" 
d="M55 460l-19 -110h302l18 110h-301zM140 440l-74 -440h124l76 440h-126z" />
    <glyph glyph-name="uni0443" unicode="&#x443;" horiz-adv-x="481" 
d="M545 460h-138l-205 -363l65 -3l-81 366h-140l117 -409l-163 -270h137z" />
    <glyph glyph-name="uni0444" unicode="&#x444;" horiz-adv-x="622" 
d="M319 560l-112 -659h122l115 659h-125zM43 230q-11 -71 19 -125t88.5 -84.5t139.5 -30.5q83 0 150.5 29.5t111.5 84t54 126.5q11 71 -18.5 125t-88.5 84.5t-139 30.5q-84 0 -151 -30t-111.5 -83.5t-54.5 -126.5zM162 230q8 40 34 69.5t66.5 45t90.5 15.5q48 -1 81.5 -17
t47 -45t5.5 -68q-8 -40 -33.5 -69t-66.5 -45t-91 -15q-47 0 -80.5 16.5t-47.5 45t-6 67.5z" />
    <glyph glyph-name="uni0445" unicode="&#x445;" horiz-adv-x="483" 
d="M383 460l-111 -130l-66 130h-142l127 -218l-218 -242h152l122 146l76 -146h135l-134 233l207 227h-148z" />
    <glyph glyph-name="uni0446" unicode="&#x446;" horiz-adv-x="586" 
d="M477 110l61 350h-128l-62 -350h-166l61 350h-131l-79 -460h385l-17 -97h120l36 207h-80z" />
    <glyph glyph-name="uni0447" unicode="&#x447;" horiz-adv-x="512" 
d="M221 124h151l19 108h-127zM369 460l-77 -460h128l81 460h-132zM229 460h-130l-22 -132q-10 -61 -0.5 -107.5t44 -71.5t100.5 -25l43 108q-27 0 -42 10t-19.5 29.5t0.5 48.5z" />
    <glyph glyph-name="uni0448" unicode="&#x448;" horiz-adv-x="795" 
d="M450 110l61 350h-124l-62 -350h-148l62 350h-127l-79 -460h675l80 460h-127l-60 -350h-151z" />
    <glyph glyph-name="uni0449" unicode="&#x449;" horiz-adv-x="834" 
d="M450 110l61 350h-124l-62 -350h-148l62 350h-127l-79 -460h633l-17 -97h120l36 207h-78l61 350h-127l-61 -350h-150z" />
    <glyph glyph-name="uni044A" unicode="&#x44a;" horiz-adv-x="582" 
d="M245 211l124 -1q25 -1 38.5 -15.5t9.5 -37.5q-4 -17 -14.5 -29t-26 -18.5t-33.5 -6.5h-118l-17 -103h146q46 0 86 19.5t66.5 54t32.5 82.5q6 47 -12 79t-53.5 48.5t-80.5 16.5h-134zM181 351l-61 -351h121l79 460h-265l-19 -110z" />
    <glyph glyph-name="uni044B" unicode="&#x44b;" horiz-adv-x="705" 
d="M568 460l-78 -460h129l80 460h-131zM111 460l-78 -460h130l81 460h-133zM165 211l124 -1q17 -1 29 -8t17.5 -18.5t3.5 -26.5q-4 -17 -15 -29t-26.5 -18.5t-34.5 -6.5h-118l-17 -103h147q46 0 85.5 19.5t66 54t33.5 82.5q6 47 -12.5 79t-53.5 48.5t-80 16.5h-134z" />
    <glyph glyph-name="uni044C" unicode="&#x44c;" horiz-adv-x="510" 
d="M115 460l-77 -460h129l81 460h-133zM170 211l123 -1q18 -1 29.5 -8t16.5 -18.5t3 -26.5q-4 -17 -15 -29t-26.5 -18.5t-33.5 -6.5h-117l-18 -103h147q46 0 86 19.5t66 54t33 82.5q6 47 -12.5 79t-53.5 48.5t-80 16.5h-134z" />
    <glyph glyph-name="uni044D" unicode="&#x44d;" horiz-adv-x="473" 
d="M135 276l-15 -91h253l55 91h-293zM328 230q-8 -42 -31 -75t-57 -51.5t-72 -18.5q-29 -1 -52.5 7.5t-41.5 24.5t-29 39l-17 -118q27 -24 63.5 -36t82.5 -11q71 0 132.5 30.5t102.5 85t51 123.5q9 67 -16 121.5t-77.5 86.5t-122.5 32q-47 0 -85.5 -13t-67.5 -32l-16 -120
q18 19 43 35.5t53.5 26t57.5 8.5q37 -1 61.5 -21t34 -53.5t3.5 -70.5z" />
    <glyph glyph-name="uni044E" unicode="&#x44e;" horiz-adv-x="774" 
d="M112 193h238l17 101h-238zM111 460l-78 -460h126l80 460h-128zM257 230q-9 -67 16 -121.5t77.5 -86t122.5 -31.5q72 0 133 30.5t101.5 85t50.5 123.5q9 67 -16.5 121.5t-77.5 86.5t-122 32q-72 0 -133.5 -31t-101.5 -85.5t-50 -123.5zM390 230q6 35 27 65t51.5 47.5
t66.5 17.5q35 -1 56.5 -19.5t30 -48t3.5 -62.5q-7 -35 -28 -64.5t-51.5 -47.5t-66.5 -17q-35 0 -56 19t-30 48t-3 62z" />
    <glyph glyph-name="uni044F" unicode="&#x44f;" horiz-adv-x="510" 
d="M153 0l173 217h-126l-190 -217h143zM445 0l77 460h-129l-80 -460h132zM406 262h-128q-17 0 -30.5 5.5t-19.5 15t-3 25.5q2 16 14 26.5t29 15.5t35 5l121 1l17 104h-146q-47 -1 -89 -16t-71.5 -46t-35.5 -79q-7 -50 14.5 -83t59.5 -49.5t84 -16.5l135 1z" />
    <glyph glyph-name="uni0450" unicode="&#x450;" horiz-adv-x="540" 
d="M117 203h402q3 9 4.5 17.5t2.5 15.5q7 67 -14 119.5t-68.5 83t-120.5 31.5q-67 0 -120 -24.5t-90.5 -67.5t-54.5 -99q-4 -12 -7 -24t-4 -25q-9 -66 13.5 -120.5t72.5 -86.5t124 -32q57 -1 102 16t81 45.5t64 66.5l-111 38q-16 -19 -35.5 -34.5t-44 -24.5t-50.5 -8
q-36 1 -57 20t-28.5 50t-2.5 70l7 27q7 33 25.5 61t46 44t61.5 16q30 -1 47.5 -14t24 -35t5.5 -47l-263 -1zM187 681l155 -151l74 36l-123 163z" />
    <glyph glyph-name="uni0451" unicode="&#x451;" horiz-adv-x="540" 
d="M117 203h402q3 9 4.5 17.5t2.5 15.5q7 67 -14 119.5t-68.5 83t-120.5 31.5q-67 0 -120 -24.5t-90.5 -67.5t-54.5 -99q-4 -12 -7 -24t-4 -25q-9 -66 13.5 -120.5t72.5 -86.5t124 -32q57 -1 102 16t81 45.5t64 66.5l-111 38q-16 -19 -35.5 -34.5t-44 -24.5t-50.5 -8
q-36 1 -57 20t-28.5 50t-2.5 70l7 27q7 33 25.5 61t46 44t61.5 16q30 -1 47.5 -14t24 -35t5.5 -47l-263 -1zM381 605q-3 -31 16.5 -52.5t51.5 -22.5q31 -1 56.5 21t28.5 52q3 29 -16.5 51t-50.5 23t-57 -21t-29 -51zM156 605q-2 -31 17.5 -52.5t51.5 -22.5q30 -1 56.5 21
t29.5 52q3 29 -17 51t-51 23q-32 1 -58 -21t-29 -51z" />
    <glyph glyph-name="uni0453" unicode="&#x453;" horiz-adv-x="338" 
d="M113 460l-77 -460h128l61 350h146l19 110h-277zM466 676l-99 53l-170 -156l73 -42z" />
    <glyph glyph-name="uni045C" unicode="&#x45c;" horiz-adv-x="426" 
d="M110 460l-77 -460h123l80 460h-126zM392 460l-218 -185l167 -275h146l-163 266l231 194h-163zM543 676l-97 53l-170 -156l71 -42z" />
    <glyph glyph-name="uni045D" unicode="&#x45d;" horiz-adv-x="560" 
d="M525 342l35 161l-498 -385l-37 -160zM242 460h-128l-89 -502l152 134zM560 503l-152 -135l-63 -368h126zM192 697l155 -151l74 37l-124 161z" />
    <glyph glyph-name="uni045E" unicode="&#x45e;" horiz-adv-x="451" 
d="M545 460h-138l-205 -363l65 -3l-81 366h-140l117 -409l-163 -270h137zM164 675q-2 -41 12.5 -73.5t46.5 -51.5t80 -19q50 0 86.5 19t60 51t31.5 73l-91 1q-6 -16 -17 -31t-27 -24.5t-39 -8.5q-21 1 -33 10t-17.5 23t-4.5 31h-88z" />
    <glyph glyph-name="Wgrave" unicode="&#x1e80;" horiz-adv-x="1011" 
d="M612 796l73 39l-123 160l-104 -49zM717 262l-115 475l-268 -473l-73 436h-163l170 -741l288 457l142 -456l401 740h-167z" />
    <glyph glyph-name="wgrave" unicode="&#x1e81;" horiz-adv-x="714" 
d="M423 556l73 39l-123 160l-104 -49zM49 460l135 -493l191 291l93 -291l307 493h-141l-143 -253l-78 290l-178 -287l-53 250h-133z" />
    <glyph glyph-name="Wacute" unicode="&#x1e82;" horiz-adv-x="1011" 
d="M612 799l205 150l-105 52l-177 -160zM717 262l-115 475l-268 -473l-73 436h-163l170 -741l288 457l142 -456l401 740h-167z" />
    <glyph glyph-name="wacute" unicode="&#x1e83;" horiz-adv-x="714" 
d="M422 559l205 150l-105 52l-177 -160zM49 460l135 -493l191 291l93 -291l307 493h-141l-143 -253l-78 290l-178 -287l-53 250h-133z" />
    <glyph glyph-name="Wdieresis" unicode="&#x1e84;" horiz-adv-x="1011" 
d="M660 872q-4 -30 16 -52t52 -22q31 -2 57 20.5t29 51.5q3 30 -17 52t-51 23t-57.5 -21.5t-28.5 -51.5zM436 872q-3 -30 16 -52t52 -22q31 -2 56.5 20.5t29.5 51.5q2 30 -17.5 52t-50.5 23q-32 1 -58 -21.5t-28 -51.5zM717 262l-115 475l-268 -473l-73 436h-163l170 -741
l288 457l142 -456l401 740h-167z" />
    <glyph glyph-name="wdieresis" unicode="&#x1e85;" horiz-adv-x="714" 
d="M470 631q-4 -30 16 -52t52 -22q31 -2 57 20.5t29 51.5q3 30 -17 52t-51 23t-57.5 -21.5t-28.5 -51.5zM246 631q-3 -30 16 -52t52 -22q31 -2 56.5 20.5t29.5 51.5q2 30 -17.5 52t-50.5 23q-32 1 -58 -21.5t-28 -51.5zM49 460l135 -493l191 291l93 -291l307 493h-141
l-143 -253l-78 290l-178 -287l-53 250h-133z" />
    <glyph glyph-name="uni1E86" unicode="&#x1e86;" horiz-adv-x="1011" 
d="M548 873q-2 -31 18 -53t54 -22q31 0 55.5 21.5t26.5 51.5q2 32 -19.5 53.5t-52.5 21.5q-33 0 -56.5 -21t-25.5 -52zM717 262l-115 475l-268 -473l-73 436h-163l170 -741l288 457l142 -456l401 740h-167z" />
    <glyph glyph-name="uni1E87" unicode="&#x1e87;" horiz-adv-x="714" 
d="M359 633q-2 -31 18 -53t54 -22q31 0 55.5 21.5t26.5 51.5q2 32 -19.5 53.5t-52.5 21.5q-33 0 -56.5 -21t-25.5 -52zM49 460l135 -493l191 291l93 -291l307 493h-141l-143 -253l-78 290l-178 -287l-53 250h-133z" />
    <glyph glyph-name="uni1E88" unicode="&#x1e88;" horiz-adv-x="1011" 
d="M386 -174q-2 -31 18 -53t54 -22q31 0 55.5 21.5t26.5 51.5q2 32 -19.5 53.5t-52.5 21.5q-33 0 -56.5 -21t-25.5 -52zM717 262l-115 475l-268 -473l-73 436h-163l170 -741l288 457l142 -456l401 740h-167z" />
    <glyph glyph-name="uni1E89" unicode="&#x1e89;" horiz-adv-x="714" 
d="M230 -165q-2 -31 18 -53t54 -22q31 0 55.5 21.5t26.5 51.5q2 32 -19.5 53.5t-52.5 21.5q-33 0 -56.5 -21t-25.5 -52zM49 460l135 -493l191 291l93 -291l307 493h-141l-143 -253l-78 290l-178 -287l-53 250h-133z" />
    <glyph glyph-name="uni1E9E" unicode="&#x1e9e;" horiz-adv-x="784" 
d="M510 -12q-43 0 -83.5 6.5t-77 18t-67.5 27.5l40 118q41 -21 77 -33.5t76 -12.5q31 0 56.5 7.5t41.5 24t16 42.5q0 28 -13 43.5t-31 26.5t-37 23t-31.5 29t-12.5 45q0 26 13 43.5t32.5 31t39.5 25.5t33 27t13 34t-12.5 34.5t-36.5 25t-60 9.5q-60 0 -106 -27t-77.5 -76
t-42.5 -120l-62 -362h-148l63 375q13 77 42 139.5t77.5 108t114.5 69.5t150 24q80 0 137 -20t87 -56.5t30 -84.5q0 -35 -13.5 -61t-32.5 -45t-38 -33t-32.5 -28t-13.5 -28q0 -18 12 -29.5t30.5 -23.5t36.5 -27.5t30 -41.5t12 -68q0 -54 -29 -94.5t-81.5 -63t-121.5 -22.5z
" />
    <glyph glyph-name="Ygrave" unicode="&#x1ef2;" horiz-adv-x="611" 
d="M390 774l73 39l-123 160l-104 -49zM542 700l-194 -279l-95 279h-158l163 -407l-51 -293h145l49 287l307 413h-166z" />
    <glyph glyph-name="ygrave" unicode="&#x1ef3;" horiz-adv-x="481" 
d="M289 530l73 39l-123 160l-104 -49zM544 460h-137l-204 -363l64 -3l-83 366h-138l117 -410l-162 -269h135z" />
    <glyph glyph-name="uni2010" unicode="&#x2010;" horiz-adv-x="211" 
d="M8 180h205l20 114h-206z" />
    <glyph glyph-name="figuredash" unicode="&#x2012;" horiz-adv-x="597" 
d="M72 180h458l19 114h-459z" />
    <glyph glyph-name="endash" unicode="&#x2013;" horiz-adv-x="747" 
d="M72 180h609l20 114h-611z" />
    <glyph glyph-name="emdash" unicode="&#x2014;" horiz-adv-x="897" 
d="M72 180h762l19 114h-763z" />
    <glyph glyph-name="quoteleft" unicode="&#x2018;" horiz-adv-x="305" 
d="M255 453l96 246h-94l-142 -245z" />
    <glyph glyph-name="quoteright" unicode="&#x2019;" horiz-adv-x="305" 
d="M194 700l-97 -246h93l143 246h-139z" />
    <glyph glyph-name="quotesinglbase" unicode="&#x201a;" horiz-adv-x="305" 
d="M98 80l-97 -246h93l143 246h-139z" />
    <glyph glyph-name="quotedblleft" unicode="&#x201c;" horiz-adv-x="519" 
d="M255 453l96 246h-94l-142 -245zM471 453l95 246h-93l-143 -245z" />
    <glyph glyph-name="quotedblright" unicode="&#x201d;" horiz-adv-x="519" 
d="M194 700l-97 -246h93l143 246h-139zM410 700l-97 -246h94l142 246h-139z" />
    <glyph glyph-name="quotedblbase" unicode="&#x201e;" horiz-adv-x="519" 
d="M93 80l-97 -246h93l143 246h-139zM309 80l-97 -246h94l142 246h-139z" />
    <glyph glyph-name="dagger" unicode="&#x2020;" horiz-adv-x="595" 
d="M153 540l-17 -110h423l17 110h-423zM327 700l-130 -849l121 -1l133 850h-124z" />
    <glyph glyph-name="daggerdbl" unicode="&#x2021;" horiz-adv-x="595" 
d="M92 146l-18 -110h424l18 110h-424zM153 540l-17 -110h423l17 110h-423zM327 700l-130 -849l121 -1l133 850h-124z" />
    <glyph glyph-name="bullet" unicode="&#x2022;" horiz-adv-x="298" 
d="M119 436q-2 -22 7.5 -40t27.5 -29t41 -11t42 11t30.5 28.5t13.5 39.5t-7.5 40t-26.5 30t-40 12q-24 0 -43 -11.5t-31 -30t-14 -39.5z" />
    <glyph glyph-name="ellipsis" unicode="&#x2026;" horiz-adv-x="890" 
d="M56 61q-3 -21 5 -39.5t25 -30.5t39 -12q23 -1 42.5 10.5t33 30t16.5 39.5t-5.5 39.5t-25 30.5t-38.5 12q-23 0 -43 -11t-33.5 -29.5t-15.5 -39.5zM347 61q-3 -21 5 -39.5t25 -30.5t39 -12q23 -1 42.5 10.5t33 30t16.5 39.5t-5.5 39.5t-25 30.5t-38.5 12q-23 0 -43 -11
t-33.5 -29.5t-15.5 -39.5zM638 61q-3 -21 5 -39.5t25 -30.5t40 -12q22 -1 42 10.5t33 30t16 39.5t-5.5 39.5t-25 30.5t-38.5 12q-23 0 -43 -11t-33.5 -29.5t-15.5 -39.5z" />
    <glyph glyph-name="perthousand" unicode="&#x2030;" horiz-adv-x="1262" 
d="M889 161q-6 -46 11 -86t52.5 -65t86.5 -25q49 0 93 24t72.5 64t35.5 88q6 45 -10.5 85.5t-52.5 66t-87 25.5t-93.5 -24.5t-71.5 -64.5t-36 -88zM995 160q3 19 15 36.5t31 28.5t40 11q19 -1 31.5 -12t18 -28t2.5 -35q-3 -19 -15.5 -35.5t-30.5 -28t-38 -10.5
q-20 0 -33.5 11.5t-18.5 27.5t-2 34zM90 540q-7 -47 10 -87t52.5 -65t86.5 -25t94 24t72 64t37 89q6 44 -11.5 84.5t-53 66t-86.5 25.5q-52 0 -94.5 -24.5t-71 -64.5t-35.5 -87zM195 539q3 18 15.5 35.5t31.5 29t40 11.5q19 -1 31.5 -13t17.5 -28.5t3 -33.5
q-3 -19 -15.5 -36t-30.5 -28.5t-37 -10.5q-22 0 -35 11.5t-18.5 28t-2.5 34.5zM469 161q-6 -46 10.5 -86t52 -65t86.5 -25t94 24t71.5 64t35.5 88q6 45 -10.5 85.5t-52 66t-86.5 25.5q-52 0 -94.5 -24.5t-70.5 -64.5t-36 -88zM575 161q3 19 15.5 36t30.5 28t39 11
q20 -1 32.5 -12t18 -28t2.5 -35q-2 -19 -15 -35.5t-31 -28t-37 -10.5q-21 0 -34.5 11.5t-18.5 28t-2 34.5zM695 700l-615 -700h133l618 700h-136z" />
    <glyph glyph-name="uni2031" unicode="&#x2031;" horiz-adv-x="1682" 
d="M1308 161q-6 -46 11 -86t52.5 -65t86.5 -25q50 0 93.5 24t72.5 64t36 88q6 45 -11.5 85.5t-53 66t-85.5 25.5q-52 0 -94.5 -24.5t-71.5 -64.5t-36 -88zM1414 161q4 19 16.5 36t30.5 28t39 11q20 -1 32.5 -12t18 -28t2.5 -35q-3 -19 -16 -35.5t-30.5 -28t-37.5 -10.5
q-21 0 -34 11.5t-18 28t-3 34.5zM889 161q-6 -46 11 -86t52.5 -65t86.5 -25q49 0 93 24t72.5 64t35.5 88q6 45 -10.5 85.5t-52.5 66t-87 25.5t-93.5 -24.5t-71.5 -64.5t-36 -88zM995 160q3 19 15 36.5t31 28.5t40 11q19 -1 31.5 -12t18 -28t2.5 -35q-3 -19 -15.5 -35.5
t-30.5 -28t-38 -10.5q-20 0 -33.5 11.5t-18.5 27.5t-2 34zM90 540q-7 -47 10 -87t52.5 -65t86.5 -25t94 24t72 64t37 89q6 44 -11.5 84.5t-53 66t-86.5 25.5q-52 0 -94.5 -24.5t-71 -64.5t-35.5 -87zM195 539q3 18 15.5 35.5t31.5 29t40 11.5q19 -1 31.5 -13t17.5 -28.5
t3 -33.5q-3 -19 -15.5 -36t-30.5 -28.5t-37 -10.5q-22 0 -35 11.5t-18.5 28t-2.5 34.5zM469 161q-6 -46 10.5 -86t52 -65t86.5 -25t94 24t71.5 64t35.5 88q6 45 -10.5 85.5t-52 66t-86.5 25.5q-52 0 -94.5 -24.5t-70.5 -64.5t-36 -88zM575 161q3 19 15.5 36t30.5 28t39 11
q20 -1 32.5 -12t18 -28t2.5 -35q-2 -19 -15 -35.5t-31 -28t-37 -10.5q-21 0 -34.5 11.5t-18.5 28t-2 34.5zM695 700l-615 -700h133l618 700h-136z" />
    <glyph glyph-name="guilsinglleft" unicode="&#x2039;" horiz-adv-x="339" 
d="M156 257l180 186l-74 61l-214 -245l134 -253l88 57z" />
    <glyph glyph-name="guilsinglright" unicode="&#x203a;" horiz-adv-x="339" 
d="M216 253l-179 -185l75 -61l213 244l-134 254l-88 -58z" />
    <glyph glyph-name="uni203D" unicode="&#x203d;" horiz-adv-x="588" 
d="M472 486q-8 -40 -36.5 -70.5t-68 -48t-83.5 -20.5l18 -64q37 1 75.5 10t74.5 27t65.5 44t49.5 60t27 76q7 47 -6.5 86t-43.5 68.5t-70.5 45.5t-86.5 16q-57 0 -106 -16.5t-88.5 -44.5t-68.5 -63l80 -73q19 25 43.5 44.5t53 30.5t61.5 11q39 -1 65.5 -15t38 -40.5
t6.5 -63.5zM264 507l-31 -314h82l79 314h-130zM173 57q-4 -32 17 -54.5t55 -23.5q32 -1 60 21.5t32 54.5q3 32 -18 54t-53 23q-34 0 -62 -22t-31 -53z" />
    <glyph glyph-name="fraction" unicode="&#x2044;" horiz-adv-x="701" 
d="M652 699l-623 -699h106l624 699h-107z" />
    <glyph glyph-name="uni2070" unicode="&#x2070;" horiz-adv-x="373" 
d="M161 491q4 24 13.5 49.5t23 46t32.5 33t41 12.5q23 -2 35 -15t17 -34t5.5 -45.5t-2.5 -47.5q-4 -24 -13.5 -50t-23.5 -46.5t-32.5 -33t-40.5 -11.5q-23 1 -35.5 14t-17 34t-5 46t2.5 48zM79 490q-5 -40 -1 -79t20 -70t44 -49.5t68 -18.5q40 -1 74 17.5t60.5 48.5
t42.5 69.5t23 81.5q4 41 -0.5 80t-20.5 70t-44.5 49t-68.5 19q-40 0 -73.5 -18t-60 -48t-42.5 -69.5t-21 -82.5z" />
    <glyph glyph-name="uni2074" unicode="&#x2074;" horiz-adv-x="401" 
d="M51 359h359l12 73h-101l-12 -10l-179 -1zM146 379l152 177l-30 -170l-7 -6l-17 -99h88l72 419l-61 -1l-295 -341z" />
    <glyph glyph-name="uni2075" unicode="&#x2075;" horiz-adv-x="366" 
d="M385 413q5 37 -7 68.5t-36.5 50.5t-60.5 20q-31 0 -59.5 -11.5t-52.5 -32.5l-61 -46q31 13 61 21.5t59 7.5q19 -1 35.5 -9.5t25 -23.5t5.5 -35q-3 -23 -17.5 -39t-36 -25t-44.5 -9q-29 0 -51.5 16.5t-41.5 37.5l-47 -68q25 -27 61.5 -46t88.5 -19q41 0 80 16.5t66 47.5
t33 78zM256 623l159 1l13 74h-226l-100 -242l101 55z" />
    <glyph glyph-name="uni2076" unicode="&#x2076;" horiz-adv-x="360" 
d="M153 422q3 21 17.5 39.5t33.5 29.5t42 11q21 -1 35 -12.5t19.5 -29t2.5 -38.5t-17 -39t-33.5 -28.5t-40.5 -9.5q-21 0 -35.5 11.5t-20.5 28t-3 37.5zM279 696l-153 -166q-21 -22 -36.5 -49.5t-20.5 -57.5q-7 -46 9 -80t50 -53.5t79 -19.5q43 0 82.5 18.5t65.5 52.5t33 81
q4 35 -8.5 66.5t-38 51t-59.5 19.5q-21 0 -36 -5t-30 -17l17 3l159 156h-113z" />
    <glyph glyph-name="uni2077" unicode="&#x2077;" horiz-adv-x="360" 
d="M102 619h194l-221 -338h95l269 419h-323z" />
    <glyph glyph-name="uni2078" unicode="&#x2078;" horiz-adv-x="339" 
d="M113 600q-5 -34 10.5 -59t44 -38.5t61.5 -13.5q33 -1 65 12.5t54.5 38.5t27.5 59q4 32 -11 57t-43 39t-62 14q-36 0 -67.5 -13.5t-53 -39t-26.5 -56.5zM192 589q2 15 11.5 27t23 20.5t28.5 8.5q22 -2 31.5 -18t7.5 -35q-3 -15 -12.5 -28t-22.5 -20.5t-27 -6.5
q-15 0 -24.5 8t-13 19t-2.5 25zM63 395q-6 -36 12 -64t49 -43.5t68 -15.5q37 -1 73 14.5t61 43.5t31 64q3 29 -7 52t-29 38.5t-44 24t-50 8.5q-27 0 -54.5 -8t-51 -24t-39.5 -38.5t-19 -51.5zM150 406q3 16 14.5 30t27.5 23.5t34 9.5q16 -1 27 -10.5t16.5 -23t3.5 -29.5
q-4 -27 -27 -45t-49 -17q-24 0 -37.5 18t-9.5 44z" />
    <glyph glyph-name="uni2079" unicode="&#x2079;" horiz-adv-x="357" 
d="M329 558q-3 -21 -16.5 -39.5t-33 -29.5t-41.5 -10q-21 0 -35.5 11.5t-20.5 29t-3 38.5t17 39t34 28.5t41 10.5q21 -1 35 -11.5t20 -28t3 -38.5zM204 285l152 165q20 23 36.5 49.5t21.5 58.5q5 45 -11 79t-49 54t-77 20q-46 0 -84.5 -19t-65 -53.5t-32.5 -79.5
q-5 -37 7.5 -68t38 -50t60.5 -20q20 0 35.5 5.5t31.5 17.5l-18 -3l-159 -156h113z" />
    <glyph glyph-name="uni2080" unicode="&#x2080;" horiz-adv-x="373" 
d="M113 211q4 24 13.5 49.5t23 46t32.5 33t41 12.5q23 -2 35 -15t17 -34t5.5 -45.5t-2.5 -47.5q-4 -24 -13.5 -50t-23.5 -46.5t-32.5 -33t-40.5 -11.5q-23 1 -35.5 14t-17 34t-5 46t2.5 48zM31 210q-5 -40 -1 -79t20 -70t44 -49.5t68 -18.5q40 -1 74 17.5t60.5 48.5t43 69.5
t22.5 81.5q5 41 0 80t-20.5 70t-44 49t-68.5 19q-40 0 -74 -18t-60 -48t-42.5 -69.5t-21.5 -82.5z" />
    <glyph glyph-name="uni2081" unicode="&#x2081;" horiz-adv-x="336" 
d="M113 310l100 27l-56 -335h83l74 427l-188 -39z" />
    <glyph glyph-name="uni2082" unicode="&#x2082;" horiz-adv-x="379" 
d="M-3 3h332l12 79l-166 1l122 100q26 23 48 51t28 63q5 34 -9 64t-44.5 49t-73.5 20q-51 0 -88 -22t-60.5 -58t-32.5 -79h86q5 20 16.5 40t29.5 32.5t41 11.5q18 -1 30 -10t15 -22.5t2 -27.5q-5 -28 -25 -49t-44 -44z" />
    <glyph glyph-name="uni2083" unicode="&#x2083;" horiz-adv-x="343" 
d="M157 205q41 1 80.5 12t66.5 34t34 61q5 33 -9.5 58.5t-43 41t-67.5 16.5q-62 -1 -102 -36.5t-51 -87.5l80 -1q7 21 24.5 37.5t42.5 16.5q22 -1 32.5 -15t8.5 -34q-4 -19 -17.5 -32.5t-32.5 -20.5t-40 -9zM147 -9q41 0 77.5 15.5t61 42.5t30.5 64q5 34 -6.5 56t-34.5 35.5
t-53 20.5t-62 8l-8 -45q24 -1 43.5 -8.5t29.5 -21t6 -34.5q-4 -28 -26.5 -44.5t-49.5 -15.5q-30 0 -43 17.5t-13 45.5h-83q-2 -38 11.5 -68t43.5 -48.5t76 -19.5z" />
    <glyph glyph-name="uni2084" unicode="&#x2084;" horiz-adv-x="405" 
d="M2 79h359l12 73h-102l-12 -10l-177 -1zM96 99l154 177l-29 -170l-10 -6l-16 -100h89l72 420l-62 -1l-294 -341z" />
    <glyph glyph-name="uni2085" unicode="&#x2085;" horiz-adv-x="372" 
d="M339 133q5 37 -7 68.5t-37 50.5t-59 20q-31 0 -60 -11.5t-53 -32.5l-61 -46q30 13 61 21.5t58 7.5q21 -1 37.5 -9.5t25 -23.5t5.5 -35q-3 -23 -17.5 -39t-36 -25t-45.5 -9q-29 0 -51 16.5t-42 37.5l-47 -68q26 -27 62.5 -46t87.5 -19q42 0 80.5 16.5t65.5 47.5t33 78z
M210 343l159 1l12 74h-225l-99 -242l100 55z" />
    <glyph glyph-name="uni2086" unicode="&#x2086;" horiz-adv-x="367" 
d="M108 142q3 21 17 39.5t33.5 29.5t41.5 11q21 -1 35 -12.5t20 -29t3 -38.5t-17 -39t-33 -28.5t-41 -9.5q-21 0 -35.5 11.5t-20.5 28t-3 37.5zM234 416l-153 -166q-21 -22 -37 -49.5t-21 -57.5q-7 -46 10 -80t50.5 -53.5t77.5 -19.5q45 0 84 18.5t65 52.5t32 81
q5 35 -8 66.5t-38 51t-59 19.5q-21 0 -36.5 -5t-30.5 -17l17 3l158 156h-111z" />
    <glyph glyph-name="uni2087" unicode="&#x2087;" horiz-adv-x="364" 
d="M58 339h192l-219 -339h94l269 420h-323z" />
    <glyph glyph-name="uni2088" unicode="&#x2088;" horiz-adv-x="344" 
d="M68 320q-4 -34 11 -59t43 -38.5t62 -13.5q33 -1 65 12.5t55 38.5t27 59q5 32 -10.5 57t-43.5 39t-61 14q-36 0 -68 -13.5t-53.5 -39t-26.5 -56.5zM148 309q2 15 11 27t22 20.5t28 8.5q23 -2 33 -18t7 -35q-2 -15 -11.5 -28t-23 -20.5t-27.5 -6.5q-15 0 -24 8t-13 19
t-2 25zM19 115q-5 -36 12 -63.5t47.5 -43.5t68.5 -16q38 -1 73.5 15t60 43.5t29.5 63.5q4 29 -6 52t-29 38.5t-43.5 24t-49.5 8.5q-27 0 -53.5 -8t-50 -24t-39.5 -38.5t-20 -51.5zM105 126q3 16 14 30t28 23.5t33 9.5q16 -1 28 -10.5t17.5 -23t3.5 -29.5q-4 -27 -27.5 -45
t-48.5 -17q-25 0 -38.5 18t-9.5 44z" />
    <glyph glyph-name="uni2089" unicode="&#x2089;" horiz-adv-x="370" 
d="M278 278q-4 -21 -17.5 -39.5t-33 -29.5t-41.5 -10q-21 0 -35 11.5t-20.5 29t-3.5 38.5t17 39t34 28.5t42 10.5q21 -1 35 -11.5t20 -28t3 -38.5zM153 5l152 165q19 23 35.5 49.5t21.5 58.5q6 45 -10 79t-49.5 54t-76.5 20q-46 0 -85 -19t-65 -53.5t-32 -79.5
q-5 -36 7.5 -67.5t38 -50.5t59.5 -20q20 0 36.5 5.5t31.5 17.5l-19 -3l-158 -156h113z" />
    <glyph glyph-name="Euro" unicode="&#x20ac;" horiz-adv-x="613" 
d="M80 390h481l12 72h-481zM48 261h471l12 73h-470zM249 350q7 49 25.5 93.5t47 78.5t66 53.5t81.5 19.5q40 0 73 -16.5t60 -45.5l21 143q-33 19 -68 30t-74 11q-73 0 -134.5 -30t-108.5 -82t-77 -117.5t-40 -137.5q-9 -67 0.5 -132t38.5 -118t80 -84t124 -31q40 0 78 10.5
t73 28.5l20 142q-34 -26 -74.5 -43.5t-84.5 -16.5q-44 0 -71.5 21.5t-42 56.5t-17 78.5t3.5 87.5z" />
    <glyph glyph-name="trademark" unicode="&#x2122;" horiz-adv-x="699" 
d="M110 635h92l-48 -284h71l49 284h92l11 65h-256zM647 598l-15 -247l75 -1l15 374zM433 718l-115 -367h77l69 241zM724 724l-189 -230l-102 224l-17 -102l104 -235l182 228z" />
    <glyph glyph-name="uni2150" unicode="&#x2150;" horiz-adv-x="885" 
d="M667 699l-624 -699h108l623 699h-107zM98 584l101 25l-57 -334h83l73 428l-187 -40zM574 339h193l-220 -339h94l269 420h-323z" />
    <glyph glyph-name="uni2151" unicode="&#x2151;" horiz-adv-x="828" 
d="M662 699l-623 -699h106l624 699h-107zM98 584l101 25l-57 -334h83l73 428l-187 -40zM747 278q-3 -21 -17.5 -39.5t-34 -29.5t-40.5 -10q-22 0 -36.5 11.5t-20.5 29t-3 38.5t17 39t34 28.5t41 10.5q22 -1 35.5 -11.5t20.5 -28t4 -38.5zM622 5l150 165q20 23 37 49.5
t22 58.5q5 45 -11 79t-50 54t-77 20q-45 0 -83 -19t-65 -53.5t-32 -79.5q-5 -36 7 -67.5t37.5 -50.5t60.5 -20q20 0 35.5 5.5t31.5 17.5l-18 -3l-158 -156h113z" />
    <glyph glyph-name="uni2152" unicode="&#x2152;" horiz-adv-x="1136" 
d="M662 699l-623 -699h106l624 699h-107zM98 584l101 25l-57 -334h83l73 428l-187 -40zM542 310l102 27l-57 -335h82l74 427l-188 -39zM869 210q4 25 13 50.5t22.5 46t32.5 33t41 12.5q23 -2 35 -15t17 -34t5.5 -45.5t-2.5 -47.5q-3 -24 -12.5 -50t-24 -46.5t-32.5 -33
t-41 -11.5q-22 1 -35 14t-17 34t-4.5 46t2.5 47zM786 210q-5 -40 -1 -79t20 -70.5t44 -49.5t68 -18q40 -1 74 17t60.5 48.5t43 70t22.5 81.5q5 41 0 80t-20.5 70t-44 49t-68.5 19q-40 0 -74 -18t-60 -48t-42.5 -69.5t-21.5 -82.5z" />
    <glyph glyph-name="onethird" unicode="&#x2153;" horiz-adv-x="812" 
d="M662 699l-623 -699h106l624 699h-107zM98 584l101 25l-57 -334h83l73 428l-187 -40zM624 205q42 1 81 12t65.5 34t33.5 61q5 33 -8.5 58.5t-43 41t-67.5 16.5q-61 -1 -101.5 -36.5t-52.5 -87.5l82 -1q7 21 24.5 37.5t43.5 16.5q21 -1 31 -15t7 -34q-3 -19 -16 -32
t-32 -20.5t-40 -9.5zM614 -9q41 0 77.5 15.5t60.5 42.5t29 65q5 33 -5.5 55t-33 35.5t-52.5 20.5t-63 8l-7 -45q24 -1 43.5 -8.5t29 -21t5.5 -34.5q-5 -28 -27.5 -44.5t-49.5 -15.5q-29 0 -42 17.5t-13 45.5h-83q-3 -38 11.5 -68t44.5 -48.5t75 -19.5z" />
    <glyph glyph-name="twothirds" unicode="&#x2154;" horiz-adv-x="940" 
d="M798 699l-624 -699h107l624 699h-107zM48 283h331l13 79l-167 1l124 100q26 23 47 51t26 63q6 34 -8 64t-44 49t-74 20q-50 0 -87 -22t-60.5 -58t-32.5 -79h86q4 20 16 40t30 32.5t41 10.5q17 -1 29 -9.5t16 -22t1 -27.5q-4 -28 -25 -49l-44 -44zM752 205q41 1 80 12
t66 34t34 61q5 33 -9 58.5t-42.5 41t-66.5 16.5q-63 -1 -103 -36.5t-51 -87.5l80 -1q6 21 24.5 37.5t44.5 16.5q21 -1 31.5 -15t7.5 -34q-4 -19 -17.5 -32t-32.5 -20.5t-39 -9.5zM743 -9q41 0 77 15.5t60.5 42.5t29.5 65q5 33 -6.5 55t-34 35.5t-52.5 20.5t-62 8l-7 -45
q24 -1 43.5 -8.5t29 -21t5.5 -34.5q-4 -28 -27 -44.5t-50 -15.5q-29 0 -42 17.5t-13 45.5h-83q-2 -38 12 -68t44 -48.5t76 -19.5z" />
    <glyph glyph-name="uni2155" unicode="&#x2155;" horiz-adv-x="802" 
d="M662 699l-623 -699h106l624 699h-107zM98 584l101 25l-57 -334h83l73 428l-187 -40zM776 133q5 37 -7 68.5t-37 50.5t-61 20q-31 0 -59 -11.5t-51 -32.5l-62 -46q30 13 61 21.5t58 7.5q21 -1 36.5 -9.5t24.5 -23.5t6 -35q-4 -23 -18 -39t-35 -25t-45 -9q-29 0 -51.5 16.5
t-41.5 37.5l-48 -68q26 -27 62 -46t88 -19q41 0 80 16.5t66.5 47.5t33.5 78zM647 343l159 1l13 74h-227l-100 -242l101 55z" />
    <glyph glyph-name="uni2156" unicode="&#x2156;" horiz-adv-x="935" 
d="M798 699l-624 -699h107l624 699h-107zM48 283h331l13 79l-167 1l124 100q26 23 47 51t26 63q6 34 -8 64t-44 49t-74 20q-50 0 -87 -22t-60.5 -58t-32.5 -79h86q4 20 16 40t30 32.5t41 10.5q17 -1 29 -9.5t16 -22t1 -27.5q-4 -28 -25 -49l-44 -44zM903 133q5 37 -7 68.5
t-37 50.5t-60 20q-32 0 -60 -11.5t-51 -32.5l-62 -46q30 13 60.5 21.5t59.5 7.5q20 -1 36 -9.5t25 -23.5t6 -35q-4 -23 -18 -39t-35.5 -25t-44.5 -9q-29 0 -51.5 16.5t-42.5 37.5l-49 -68q27 -27 63 -46t88 -19q41 0 80 16.5t66.5 47.5t33.5 78zM775 343l159 1l12 74h-225
l-101 -242l101 55z" />
    <glyph glyph-name="uni2157" unicode="&#x2157;" horiz-adv-x="874" 
d="M738 699l-623 -699h106l624 699h-107zM206 485q42 1 81 12t66.5 34t33.5 61q5 33 -9 58.5t-42.5 41t-67.5 16.5q-62 -1 -102.5 -36.5t-52.5 -87.5l82 -1q6 21 23.5 37.5t43.5 16.5q22 -1 32.5 -15t8.5 -34q-4 -19 -17.5 -32t-33 -20.5t-39.5 -9.5zM196 271q41 0 78 15
t61.5 42.5t29.5 65.5q5 33 -7 55t-34 35.5t-52 20.5t-63 8l-7 -45q24 -1 43 -8.5t29.5 -21t6.5 -34.5q-4 -28 -27 -44.5t-50 -15.5q-29 0 -42.5 17.5t-13.5 45.5h-84q-2 -38 12.5 -68t44.5 -48.5t75 -19.5zM839 133q5 37 -7 68.5t-37 50.5t-61 20q-30 0 -59 -11.5t-53 -32.5
l-61 -46q30 13 61 21.5t58 7.5q22 -1 38 -9.5t24.5 -23.5t6.5 -34q-4 -24 -18 -40t-36 -25t-46 -9q-29 0 -51 16.5t-42 37.5l-48 -68q27 -27 63 -46t87 -19q42 0 81 16.5t66.5 47.5t33.5 78zM710 343l159 1l12 74h-225l-100 -242l101 55z" />
    <glyph glyph-name="uni2158" unicode="&#x2158;" horiz-adv-x="942" 
d="M789 699l-622 -699h105l624 699h-107zM55 359h359l12 73h-101l-12 -10l-180 -1zM149 379l154 177l-30 -170l-8 -6l-17 -99h88l72 419l-61 -1l-294 -341zM912 133q4 37 -8 68t-37 50.5t-61 20.5q-31 0 -59 -11.5t-51 -32.5l-62 -46q30 13 60.5 21t59.5 7q20 -1 35.5 -9.5
t24.5 -23.5t6 -35q-3 -23 -17 -39t-36 -24.5t-45 -8.5q-29 0 -51 15.5t-41 36.5l-50 -66q27 -27 63 -46t88 -19q41 0 80.5 16.5t66.5 47.5t34 78zM783 343h158l12 75h-225l-100 -242l101 55z" />
    <glyph glyph-name="uni2159" unicode="&#x2159;" horiz-adv-x="805" 
d="M675 699l-624 -699h107l623 699h-106zM98 584l101 25l-57 -334h83l73 428l-187 -40zM545 142q3 21 17 39.5t33.5 29.5t41.5 11q21 -1 34.5 -12.5t19.5 -29t3 -38.5q-4 -21 -17 -39t-33 -28.5t-41 -9.5q-22 0 -35.5 11t-19.5 28t-3 38zM670 416l-153 -166
q-21 -22 -36.5 -49t-20.5 -58q-6 -46 10.5 -80t49.5 -53.5t78 -19.5q44 0 83 18.5t65.5 52.5t32.5 81q5 35 -8 66.5t-38 51t-59 19.5q-21 0 -36.5 -5t-30.5 -17l17 3l158 156h-112z" />
    <glyph glyph-name="uni215A" unicode="&#x215a;" horiz-adv-x="881" 
d="M763 699l-623 -699h107l623 699h-107zM388 413q5 37 -6.5 68.5t-36 50.5t-60.5 20q-31 0 -59.5 -11.5t-51.5 -32.5l-62 -46q30 13 61 21.5t58 7.5q21 -1 37 -9.5t25 -23.5t6 -35q-4 -23 -18 -39t-35.5 -25t-45.5 -9q-28 0 -50.5 16.5t-42.5 37.5l-48 -68q27 -27 63 -46
t88 -19q41 0 79.5 16.5t65.5 47.5t33 78zM261 623l159 1l12 74h-225l-102 -242l103 55zM620 142q3 21 17 39.5t33.5 29.5t40.5 11q23 -1 36.5 -12.5t19.5 -29t3 -38.5t-16.5 -39t-33 -28.5t-41.5 -9.5q-22 0 -36 11t-20 28t-3 38zM746 416l-152 -166q-21 -22 -37 -49
t-21 -58q-7 -46 9.5 -80t50 -53.5t77.5 -19.5t83 18.5t65.5 52.5t32.5 81q5 35 -7.5 66.5t-38 51t-58.5 19.5q-22 0 -37 -5t-31 -17l19 3l157 156h-112z" />
    <glyph glyph-name="oneeighth" unicode="&#x215b;" horiz-adv-x="826" 
d="M675 699l-624 -699h107l623 699h-106zM98 584l101 25l-57 -334h83l73 428l-187 -40zM549 320q-5 -34 10.5 -59t43.5 -38.5t62 -13.5q33 -1 65 12.5t54.5 38.5t26.5 59q4 32 -11 57t-42.5 39t-61.5 14q-36 0 -67.5 -13.5t-53 -39t-26.5 -56.5zM629 309q2 15 11 27.5
t22 20.5t28 8q22 -2 32.5 -18t7.5 -35q-2 -15 -12 -28t-23.5 -20.5t-27.5 -6.5q-15 0 -24.5 8t-13 19.5t-0.5 24.5zM499 115q-6 -36 11.5 -63.5t48.5 -43.5t68 -16q38 -1 73.5 15t61 43.5t30.5 63.5q3 29 -7 52t-28.5 38.5t-43.5 24t-50 8.5q-27 0 -54.5 -8t-51 -24
t-39.5 -38.5t-19 -51.5zM585 126q3 16 14.5 30t28 23.5t33.5 9.5q16 -1 28 -10.5t17.5 -23t2.5 -29.5q-4 -27 -27 -45t-49 -17q-25 0 -38.5 18t-9.5 44z" />
    <glyph glyph-name="threeeighths" unicode="&#x215c;" horiz-adv-x="893" 
d="M742 699l-623 -699h106l623 699h-106zM206 485q42 1 81 12t66.5 34t33.5 61q5 33 -9 58.5t-42.5 41t-67.5 16.5q-62 -1 -102.5 -36.5t-52.5 -87.5l82 -1q6 21 23.5 37.5t43.5 16.5q22 -1 32.5 -15t8.5 -34q-4 -19 -17.5 -32.5t-33 -20.5t-39.5 -9zM196 271q41 0 78 15
t61.5 42.5t29.5 65.5q5 33 -7 55t-34 35.5t-52.5 20.5t-62.5 8l-7 -45q24 -1 43 -8.5t29.5 -21t6.5 -34.5q-4 -28 -27 -44.5t-50 -15.5q-29 0 -42.5 17.5t-13.5 45.5h-84q-2 -38 12.5 -68t44.5 -48.5t75 -19.5zM616 320q-5 -34 11 -59t44 -38.5t61 -13.5q34 -1 65.5 12.5
t54 38.5t27.5 59q5 32 -10.5 57t-43.5 39t-62 14q-35 0 -67 -13.5t-54 -39t-26 -56.5zM695 309q2 15 11.5 27t23.5 20.5t28 8.5q22 -2 32 -18t6 -35q-2 -15 -11 -28t-22.5 -20.5t-26.5 -6.5q-16 0 -25 8t-13.5 19t-2.5 25zM566 115q-6 -36 12 -63.5t49 -43.5t68 -16
q38 -1 74 15t60 43.5t30 63.5q4 29 -6 52t-29 38.5t-43.5 24t-50.5 8.5q-27 0 -54.5 -8t-50.5 -24t-39 -38.5t-20 -51.5zM653 126q3 16 14.5 30t28 23.5t34.5 9.5q15 -1 26.5 -10.5t16.5 -23t3 -29.5q-5 -27 -27 -45t-48 -17q-25 0 -38.5 18t-9.5 44z" />
    <glyph glyph-name="fiveeighths" unicode="&#x215d;" horiz-adv-x="914" 
d="M763 699l-623 -699h107l623 699h-107zM385 413q5 37 -7 68.5t-36.5 50.5t-60.5 20q-31 0 -59.5 -11.5t-52.5 -32.5l-61 -46q31 13 61 21.5t59 7.5q19 -1 35.5 -9.5t25 -23.5t5.5 -34q-3 -24 -17.5 -40t-36 -25t-44.5 -9q-29 0 -51.5 16.5t-41.5 37.5l-47 -68
q25 -27 61.5 -46t88.5 -19q41 0 80 16.5t66 47.5t33 78zM256 623l159 1l13 74h-226l-100 -242l101 55zM638 320q-5 -34 10.5 -59t44 -38.5t61.5 -13.5q33 -1 64.5 12.5t54.5 38.5t28 59q4 32 -11.5 57t-43 39t-62.5 14q-34 0 -66.5 -13.5t-54 -38.5t-25.5 -57zM715 309
q3 15 12.5 27t23.5 20.5t28 8.5q22 -2 32 -18t7 -36q-2 -14 -11.5 -27t-23 -20.5t-27.5 -6.5q-14 0 -24 8t-14.5 19.5t-2.5 24.5zM588 115q-6 -36 12 -63.5t48.5 -43.5t68.5 -16q37 -1 73 15t60.5 43.5t29.5 63.5q4 29 -6 52t-29 38.5t-43.5 24t-50.5 8.5q-27 0 -54.5 -8
t-50.5 -24t-38.5 -38.5t-19.5 -51.5zM674 126q3 16 14.5 30t28 23.5t33.5 9.5q16 -1 28 -10.5t17 -23t3 -29.5q-5 -27 -27.5 -45t-48.5 -17q-25 0 -38.5 18t-9.5 44z" />
    <glyph glyph-name="seveneighths" unicode="&#x215e;" horiz-adv-x="808" 
d="M652 699l-623 -699h106l624 699h-107zM102 619h194l-221 -338h95l269 419h-323zM531 320q-5 -34 11 -59t44 -38.5t61 -13.5q33 -1 65 12.5t54.5 38.5t27.5 59q4 32 -11 57t-43 39t-62 14q-35 0 -67.5 -13.5t-53.5 -38.5t-26 -57zM608 309q3 15 13 27t23.5 20.5t28.5 8.5
q22 -2 31.5 -18t7.5 -36q-3 -14 -12 -27t-23 -20.5t-28 -6.5q-14 0 -24 8t-14 19.5t-3 24.5zM481 115q-5 -36 12.5 -63.5t48.5 -43.5t68 -16q37 -1 73 15t60.5 43.5t29.5 63.5q4 29 -6 52t-29 38.5t-43.5 24t-49.5 8.5q-27 0 -54.5 -8t-51 -24t-39 -38.5t-19.5 -51.5z
M568 126q2 16 14 30t28 23.5t33 9.5q17 -1 28.5 -10.5t16.5 -23t3 -29.5q-4 -27 -27 -45t-49 -17q-24 0 -38 18t-9 44z" />
    <glyph glyph-name="partialdiff" unicode="&#x2202;" horiz-adv-x="603" 
d="M283 -13q64 0 117.5 23.5t92 64t59.5 93t21 110.5q0 45 -10 89.5t-31 89t-53.5 91.5t-79.5 96.5t-108 105.5l-94 -70q48 -37 87 -73.5t68.5 -75t53.5 -80.5t43 -93l41 -2q-45 56 -91 84t-103 28q-49 0 -93.5 -19t-79.5 -54t-54.5 -81.5t-19.5 -101.5q0 -68 29.5 -119.5
t82.5 -78.5t122 -27zM289 104q-32 0 -55 14t-36.5 39t-13.5 56t12 57.5t32.5 47.5t47 32.5t53.5 11.5q30 0 53 -13t36.5 -38.5t13.5 -59.5q0 -28 -10.5 -54t-29.5 -47t-45 -33.5t-58 -12.5z" />
    <glyph glyph-name="emptyset" unicode="&#x2205;" horiz-adv-x="600" 
d="M268 25q51 0 95 18t78 51t55 74t24 86q4 57 -19 104t-66.5 75.5t-101.5 28.5q-49 0 -93.5 -18t-79 -50t-56.5 -74t-25 -90q-4 -56 19 -103t67 -74.5t103 -27.5zM277 112q-35 0 -60 16t-38.5 43.5t-11.5 58.5q2 39 25 72t57.5 52t73.5 19q35 0 59.5 -16t37.5 -43.5
t11 -59.5q-2 -34 -22 -67t-54 -54t-78 -21zM103 30l434 376l-44 48l-434 -376z" />
    <glyph glyph-name="product" unicode="&#x220f;" horiz-adv-x="600" 
d="M102 0h110l103 596h104l-103 -596h110l103 596h81l15 104h-484l-15 -104h79z" />
    <glyph glyph-name="summation" unicode="&#x2211;" horiz-adv-x="600" 
d="M55 0h400l18 108h-219l157 244l-78 240h221l18 108h-400l113 -345z" />
    <glyph glyph-name="minus" unicode="&#x2212;" horiz-adv-x="574" 
d="M64 180h458l19 114h-458z" />
    <glyph glyph-name="uni2215" unicode="&#x2215;" horiz-adv-x="562" 
d="M517 700l-557 -849h131l555 849h-129z" />
    <glyph glyph-name="uni2219" unicode="&#x2219;" horiz-adv-x="306" 
d="M120 435q-3 -21 5 -39t25 -29.5t39 -11.5q23 -1 42.5 10t33 29t16.5 39t-5.5 39.5t-25 31t-38.5 12.5q-23 0 -43 -11.5t-33.5 -30t-15.5 -39.5z" />
    <glyph glyph-name="radical" unicode="&#x221a;" horiz-adv-x="600" 
d="M166 -197l-69 401l73 -33l-134 -35l-13 88l153 46l40 -283l-51 36l252 677h172l-16 -106h-156l96 78z" />
    <glyph glyph-name="infinity" unicode="&#x221e;" horiz-adv-x="789" 
d="M164 34q48 0 101 30t112 90q38 -60 79.5 -90t90.5 -30t94.5 27.5t78.5 72.5t41 96q9 52 -8.5 96t-54.5 71t-86 27q-48 0 -100 -30t-110 -90q-77 120 -173 120q-47 0 -93.5 -27t-79 -71t-40.5 -96q-9 -51 9 -96t55 -72.5t84 -27.5zM199 138q-21 0 -38 13.5t-25.5 34
t-4.5 44.5q4 25 19 44.5t37 32.5t43 13q30 0 55 -23t45 -67q-35 -43 -68 -67.5t-63 -24.5zM548 138q-28 0 -54.5 24.5t-45.5 67.5q34 44 68.5 67t62.5 23q21 0 38 -12.5t24.5 -32.5t4.5 -45q-5 -24 -20 -44.5t-35.5 -34t-42.5 -13.5z" />
    <glyph glyph-name="integral" unicode="&#x222b;" horiz-adv-x="600" 
d="M118 -200q43 -1 81 19t64.5 57.5t38.5 88.5l143 635q8 36 24.5 56t37.5 20q8 0 17 -5.5t23 -20.5l69 94q-31 27 -55 38t-53 11q-44 1 -82 -19t-65 -57.5t-38 -88.5l-141 -635q-10 -36 -26.5 -56t-36.5 -20q-10 0 -19 5.5t-21 20.5l-69 -93q29 -27 53.5 -38.5t54.5 -11.5z
" />
    <glyph glyph-name="approxequal" unicode="&#x2248;" horiz-adv-x="600" 
d="M417 337q-28 0 -57.5 12.5t-61.5 36.5q-25 17 -44 27t-38 10q-20 0 -32 -9.5t-17.5 -27t-0.5 -40.5l-106 5q-5 41 16 79.5t60 63t87 24.5q29 0 57.5 -12t62.5 -36q25 -18 43.5 -26t32.5 -8q25 0 36.5 21.5t5.5 52.5l107 -6q3 -44 -17 -81.5t-55.5 -61.5t-78.5 -24z
M375 87q-28 0 -57.5 12.5t-61.5 36.5q-25 17 -43.5 27t-38.5 10q-19 0 -31.5 -9.5t-18 -27t-0.5 -40.5l-106 5q-4 41 16.5 79.5t59 63t88.5 24.5q28 0 58 -12t64 -36q26 -18 42.5 -26t30.5 -8q26 0 37 21.5t5 52.5l107 -6q4 -44 -16 -81.5t-56 -61.5t-79 -24z" />
    <glyph glyph-name="notequal" unicode="&#x2260;" horiz-adv-x="600" 
d="M202 8l-98 47l318 476l96 -46zM33 114l18 114h506l-18 -114h-506zM64 304l18 114h506l-18 -114h-506z" />
    <glyph glyph-name="lessequal" unicode="&#x2264;" horiz-adv-x="600" 
d="M7 4l20 115h512l-19 -115h-513zM541 148l-474 216l14 84l546 216l-21 -128l-341 -126l297 -134z" />
    <glyph glyph-name="greaterequal" unicode="&#x2265;" horiz-adv-x="600" 
d="M21 4l19 115h512l-19 -115h-512zM44 148l21 128l341 126l-297 134l22 128l473 -216l-14 -84z" />
    <glyph glyph-name="lozenge" unicode="&#x25ca;" horiz-adv-x="600" 
d="M264 15l-149 341l263 340l137 -340zM294 220l101 136l-55 135l-105 -135z" />
    <glyph glyph-name="uniFF10" unicode="&#xff10;" horiz-adv-x="596" 
d="M193 350q6 43 21 85t38.5 76.5t54.5 54.5t69 20q31 -1 50 -15t29 -39.5t14 -55t3 -62.5t-4 -64q-6 -43 -21.5 -85t-38 -76.5t-54 -54.5t-68.5 -19q-31 0 -50 14.5t-29 39.5t-14.5 54.5t-3.5 62.5t4 64zM56 350q-7 -54 -4 -106.5t17.5 -99t41.5 -81t67 -54.5t96 -20
q68 -1 125 27.5t100 79t70 116t37 138.5q6 55 3 107t-17 98.5t-41 81t-67 54.5t-95 21q-69 0 -125.5 -29t-100 -79t-70.5 -115.5t-37 -138.5z" />
    <glyph glyph-name="uniFF11" unicode="&#xff11;" horiz-adv-x="596" 
d="M168 516l170 42l-97 -558h139l122 713l-311 -65z" />
    <glyph glyph-name="uniFF12" unicode="&#xff12;" horiz-adv-x="596" 
d="M-12 0h551l22 132l-282 1l206 171q46 37 80.5 84.5t44.5 103.5q6 42 -4.5 81.5t-38 70.5t-69.5 49.5t-96 19.5q-83 0 -146.5 -36.5t-103 -97t-52.5 -132.5h140q8 36 27.5 68t49 52.5t68.5 19.5q22 -1 38.5 -9t26.5 -22t13 -31.5t1 -35.5q-6 -31 -23 -57.5t-40 -50.5
t-51 -49z" />
    <glyph glyph-name="uniFF13" unicode="&#xff13;" horiz-adv-x="596" 
d="M295 343q53 0 103 10t92 31.5t69.5 55t35.5 81.5q8 53 -15 96.5t-70 68.5t-111 26q-67 0 -121 -27t-89 -74t-46 -106h132q7 23 22.5 43.5t39 33t51.5 12.5q25 -1 41 -12t21.5 -29t2.5 -40q-5 -24 -18 -41.5t-33 -30.5t-44.5 -21t-52.5 -10zM277 -13q72 0 132.5 24
t99.5 70t48 107q9 55 -9 92t-55 60t-87.5 34.5t-104.5 13.5l-11 -76q31 -2 56 -9t43.5 -19.5t26.5 -32t3 -47.5q-6 -30 -24 -52.5t-44.5 -34.5t-57.5 -11q-32 0 -53.5 13.5t-31.5 37t-9 54.5h-138q-4 -46 8 -86.5t40 -72t70 -48.5t98 -17z" />
    <glyph glyph-name="uniFF14" unicode="&#xff14;" horiz-adv-x="596" 
d="M6 130l565 -1l21 123h-159l-19 -16h-276zM151 165l246 300l-50 -289l-15 -11l-29 -165h148l120 700l-101 -1l-466 -572z" />
    <glyph glyph-name="uniFF15" unicode="&#xff15;" horiz-adv-x="596" 
d="M570 227q8 61 -11 113t-60 84t-100 33q-53 1 -100 -18.5t-87 -54.5l-105 -76q34 15 67.5 26t66.5 16.5t64 4.5q35 -2 62.5 -16.5t42 -40t9.5 -60.5q-7 -36 -29.5 -63t-57 -41t-75.5 -14q-31 0 -59 11.5t-53 31.5t-44 45l-81 -111q29 -31 65 -55.5t81 -38.5t102 -14
q52 0 103 15.5t92.5 46t70 75t36.5 101.5zM353 574l267 1l20 125h-374l-165 -398l164 88z" />
    <glyph glyph-name="uniFF16" unicode="&#xff16;" horiz-adv-x="596" 
d="M188 241q6 36 27.5 66.5t53.5 48.5t70 18q37 -1 60 -20t33 -49t5 -63q-7 -37 -29 -67t-53.5 -47.5t-68.5 -16.5q-36 0 -60 18t-34 48t-4 64zM398 698l-253 -277q-36 -37 -62.5 -81.5t-34.5 -98.5q-10 -75 16 -132.5t80 -89.5t128 -32q76 0 141.5 31t109 88t53.5 135
q6 45 -4 85.5t-33.5 72t-58 50.5t-78.5 19q-34 0 -60.5 -9.5t-53.5 -31.5l30 8l263 263h-183z" />
    <glyph glyph-name="uniFF17" unicode="&#xff17;" horiz-adv-x="596" 
d="M112 566h323l-368 -566h155l448 700h-536z" />
    <glyph glyph-name="uniFF18" unicode="&#xff18;" horiz-adv-x="596" 
d="M154 532q-7 -44 6 -78t40.5 -58.5t64.5 -36.5t78 -12q43 0 84 12t75.5 36t57 57.5t29.5 78.5q6 42 -7 75t-40 57t-64 37.5t-80 13.5q-60 0 -112.5 -22.5t-88 -63.5t-43.5 -96zM283 516q4 24 18.5 44.5t37 33t47.5 12.5q25 -1 41.5 -14t23 -32.5t2.5 -41.5
q-4 -24 -19.5 -44.5t-37.5 -33t-45 -11.5q-25 1 -41.5 13.5t-23.5 32.5t-3 41zM71 191q-6 -46 7.5 -83t44 -64.5t71 -42t88.5 -14.5q47 0 93.5 13.5t84 41t62.5 64.5t32 84q7 49 -8.5 87t-47 64t-72 39.5t-83.5 13.5q-45 0 -90 -13t-84 -39t-65 -64t-33 -87zM213 211
q5 28 24 52t45.5 38.5t55.5 14.5q27 -1 47 -16.5t29.5 -39t5.5 -49.5q-5 -30 -24.5 -54.5t-46 -38.5t-55.5 -13q-28 0 -47.5 14.5t-29 38.5t-4.5 53z" />
    <glyph glyph-name="uniFF19" unicode="&#xff19;" horiz-adv-x="596" 
d="M474 459q-6 -36 -27.5 -66.5t-53.5 -48.5t-70 -17q-37 0 -60.5 18.5t-33 49t-3.5 64.5q5 36 27 66t54 47.5t70 17.5q36 -1 59.5 -19t33 -48t4.5 -64zM264 2l254 277q34 38 61 83t35 97q10 75 -16 132.5t-80.5 90t-128.5 32.5q-76 0 -141 -31.5t-108.5 -89t-53.5 -133.5
q-6 -46 3.5 -86.5t33.5 -72t58.5 -50t78.5 -18.5q33 -1 60.5 9t53.5 31l-30 -7l-264 -264h184z" />
    <glyph glyph-name="a.alt" 
d="M452 460l-78 -460h126l80 460h-128zM43 230q-9 -65 10.5 -120t62.5 -87.5t106 -31.5q46 0 85 18.5t69 51.5t49 76.5t26 92.5q6 46 0 89t-25 77t-51.5 54t-78.5 20q-63 1 -117 -30.5t-90.5 -86t-45.5 -123.5zM176 230q7 36 27.5 66t51.5 48t67 18q23 -1 41.5 -12t30 -29
t16.5 -41.5t2 -48.5q-5 -28 -19 -52t-33.5 -42t-43 -28t-47.5 -10q-35 0 -57.5 18.5t-32 48t-3.5 64.5z" />
    <glyph glyph-name="agrave.alt" 
d="M452 460l-78 -460h126l80 460h-128zM43 230q-9 -65 10.5 -120t62.5 -87.5t106 -31.5q46 0 85 18.5t69 51.5t49.5 76.5t26.5 92.5q6 46 -0.5 89t-25.5 77t-51.5 54t-78.5 20q-63 1 -117 -30.5t-90.5 -86t-45.5 -123.5zM176 230q7 36 27.5 66t51.5 48t67 18q23 -1 41.5 -12
t30 -29t16.5 -41.5t2 -49.5q-5 -27 -19 -51t-33.5 -42t-43 -28t-47.5 -10q-35 0 -57.5 18.5t-32 48t-3.5 64.5zM211 682l153 -152l75 37l-120 162z" />
    <glyph glyph-name="aacute.alt" 
d="M452 460l-78 -460l126 1l80 459h-128zM43 230q-9 -65 10.5 -120t62.5 -87.5t106 -31.5q46 0 85 18.5t69 51.5t49.5 76.5t26.5 92.5q6 46 -0.5 89t-25.5 77t-51.5 54t-78.5 20q-63 1 -117 -30.5t-90.5 -86t-45.5 -123.5zM176 230q7 36 27.5 66t51.5 48t67 18
q23 -1 41.5 -12t30 -29t16.5 -41.5t2 -49.5q-5 -27 -19 -51t-33.5 -42t-43 -28t-47.5 -10q-35 0 -57.5 18.5t-32 48t-3.5 64.5zM510 678l-96 50l-171 -156l69 -41z" />
    <glyph glyph-name="acircumflex.alt" 
d="M452 460l-78 -460h126l80 460h-128zM43 230q-9 -65 10.5 -120t62.5 -87.5t106 -31.5q46 0 85 18.5t69 51.5t49.5 76.5t26.5 92.5q6 46 -0.5 89t-25.5 77t-51.5 54t-78.5 20q-63 1 -117 -30.5t-90.5 -86t-45.5 -123.5zM176 230q7 36 27.5 66t51.5 48t67 18q23 -1 41.5 -12
t30 -29t16.5 -41.5t2 -49.5q-5 -27 -19 -51t-33.5 -42t-43 -28t-47.5 -10q-35 0 -57.5 18.5t-32 48t-3.5 64.5zM377 618l80 -88l95 60l-162 142l-200 -137l78 -64z" />
    <glyph glyph-name="atilde.alt" 
d="M452 460l-78 -460h126l80 460h-128zM43 230q-9 -65 10.5 -120t62.5 -87.5t106 -31.5q46 0 85 18.5t69 51.5t49.5 76.5t26.5 92.5q6 46 -0.5 89t-25.5 77t-51.5 54t-78.5 20q-63 1 -117 -30.5t-90.5 -86t-45.5 -123.5zM176 230q7 36 27.5 66t51.5 48t67 18q23 -1 41.5 -12
t30 -29t16.5 -41.5t2 -49.5q-5 -27 -19 -51t-33.5 -42t-43 -28t-47.5 -10q-35 0 -57.5 18.5t-32 48t-3.5 64.5zM191 590l59 -56q4 9 11 20.5t17.5 20t27.5 9.5q23 1 41.5 -11.5t37 -25.5t42.5 -14q28 -1 54 11.5t46.5 31t32.5 37.5l-53 67q-16 -20 -34 -35t-38 -16
q-19 -1 -32 6.5t-25.5 17t-27 17t-34.5 8.5q-30 0 -54 -12.5t-42.5 -32.5t-28.5 -43z" />
    <glyph glyph-name="adieresis.alt" 
d="M452 460l-78 -460h126l80 460h-128zM43 230q-9 -65 10.5 -120t62.5 -87.5t106 -31.5q46 0 85 18.5t69 51.5t49 76.5t26 92.5q6 46 0 89t-25 77t-51.5 54t-78.5 20q-63 1 -117 -30.5t-90.5 -86t-45.5 -123.5zM176 230q7 36 27.5 66t51.5 48t67 18q23 -1 41.5 -12t30 -29
t16.5 -41.5t2 -48.5q-5 -28 -19 -52t-33.5 -42t-43 -28t-47.5 -10q-35 0 -57.5 18.5t-32 48t-3.5 64.5zM404 606q-4 -31 15 -52.5t51 -22.5q30 -1 56 21.5t31 50.5q3 30 -17 52t-50 23q-32 1 -57.5 -21t-28.5 -51zM179 606q-4 -31 15.5 -52.5t50.5 -22.5t57.5 21.5
t29.5 50.5q3 30 -16 52t-51 23q-31 1 -57 -21t-29 -51z" />
    <glyph glyph-name="aring.alt" 
d="M452 460l-78 -460h126l80 460h-128zM43 230q-9 -65 10.5 -120t62.5 -87.5t106 -31.5q46 0 85 18.5t69 51.5t49 76.5t26 92.5q6 46 0 89t-25 77t-51.5 54t-78.5 20q-63 1 -117 -30.5t-90.5 -86t-45.5 -123.5zM176 230q7 36 27.5 66t51.5 48t67 18q23 -1 41.5 -12t30 -29
t16.5 -41.5t2 -48.5q-5 -28 -19 -52t-33.5 -42t-43 -28t-47.5 -10q-35 0 -57.5 18.5t-32 48t-3.5 64.5zM242 642q-5 -31 7.5 -56.5t37 -40.5t56.5 -15q31 0 59 14t47.5 39.5t24.5 55.5q4 32 -8.5 57t-37 40t-53.5 15q-33 0 -62 -14t-48 -39t-23 -56zM311 639q2 14 11 25
t22 18t25 7q18 0 28 -14.5t8 -32.5q-2 -13 -11 -24.5t-22.5 -18.5t-23.5 -7q-18 0 -28.5 14.5t-8.5 32.5z" />
    <glyph glyph-name="amacron.alt" 
d="M452 460l-78 -460h126l80 460h-128zM43 230q-9 -65 10.5 -120t62.5 -87.5t106 -31.5q46 0 85 18.5t69 51.5t49 76.5t26 92.5q6 46 0 89t-25 77t-51.5 54t-78.5 20q-63 1 -117 -30.5t-90.5 -86t-45.5 -123.5zM176 230q7 36 27.5 66t51.5 48t67 18q23 -1 41.5 -12t30 -29
t16.5 -41.5t2 -48.5q-5 -28 -19 -52t-33.5 -42t-43 -28t-47.5 -10q-35 0 -57.5 18.5t-32 48t-3.5 64.5zM177 537l356 -1l19 115h-357z" />
    <glyph glyph-name="abreve.alt" 
d="M452 460l-78 -460h126l80 460h-128zM43 230q-9 -65 10.5 -120t62.5 -87.5t106 -31.5q46 0 85 18.5t69 51.5t49.5 76.5t26.5 92.5q6 46 -0.5 89t-25.5 77t-51.5 54t-78.5 20q-63 1 -117 -30.5t-90.5 -86t-45.5 -123.5zM176 230q7 36 27.5 66t51.5 48t67 18q23 -1 41.5 -12
t30 -29t16.5 -41.5t2 -49.5q-5 -27 -19 -51t-33.5 -42t-43 -28t-47.5 -10q-35 0 -57.5 18.5t-32 48t-3.5 64.5zM197 675q-3 -41 12.5 -73.5t47 -52t80.5 -19.5q50 0 86 19.5t60 51.5t33 73l-91 1q-6 -17 -17 -31.5t-27.5 -23.5t-38.5 -9q-21 1 -33 10t-17.5 23t-5.5 31h-89z
" />
    <glyph glyph-name="aogonek.alt" 
d="M452 460l-78 -460l126 1l80 459h-128zM43 230q-9 -65 10.5 -120t62.5 -87.5t106 -31.5q46 0 85 18.5t69 51.5t49.5 76.5t26.5 92.5q6 46 -0.5 89t-25.5 77t-51.5 54t-78.5 20q-63 1 -117 -30.5t-90.5 -86t-45.5 -123.5zM176 230q7 36 27.5 66t51.5 48t67 18
q23 -1 41.5 -12t30 -29t16.5 -41.5t2 -49.5q-5 -27 -19 -51t-33.5 -42t-43 -28t-47.5 -10q-35 0 -57.5 18.5t-32 48t-3.5 64.5zM460 -116q-11 -8 -24.5 -14.5t-27.5 -4.5q-18 1 -24 11.5t-4 27.5q4 20 18.5 37t36 32t44.5 27l-40 25q-34 -17 -67.5 -37t-58 -46.5
t-30.5 -60.5q-4 -31 8.5 -53.5t37.5 -35t57 -11.5q34 0 57.5 11.5t41.5 26.5z" />
    </font>
</defs>
</svg>
