<svg 
 xmlns="http://www.w3.org/2000/svg"
 xmlns:xlink="http://www.w3.org/1999/xlink"
 width="6px" height="3px">
<path fill-rule="evenodd"  fill="rgb(255, 255, 255)"
 d="M3.234,2.917 L5.904,0.645 C5.965,0.592 6.000,0.522 6.000,0.448 C6.000,0.373 5.965,0.303 5.904,0.250 L5.707,0.082 C5.579,-0.027 5.371,-0.027 5.243,0.082 L3.001,1.991 L0.756,0.080 C0.694,0.028 0.612,-0.001 0.524,-0.001 C0.436,-0.001 0.354,0.028 0.292,0.080 L0.095,0.248 C0.033,0.301 -0.001,0.371 -0.001,0.445 C-0.001,0.521 0.033,0.591 0.095,0.643 L2.767,2.917 C2.830,2.970 2.913,2.999 3.001,2.999 C3.089,2.999 3.172,2.970 3.234,2.917 Z"/>
</svg>