<svg 
 xmlns="http://www.w3.org/2000/svg"
 xmlns:xlink="http://www.w3.org/1999/xlink"
 width="14px" height="7px">
<path fill-rule="evenodd"  fill="rgb(39, 39, 38)"
 d="M7.545,6.805 L13.774,1.502 C13.918,1.380 13.997,1.216 13.997,1.042 C13.997,0.868 13.918,0.704 13.774,0.580 L13.316,0.190 C13.016,-0.065 12.530,-0.065 12.232,0.190 L7.000,4.644 L1.763,0.185 C1.618,0.063 1.427,-0.005 1.221,-0.005 C1.017,-0.005 0.824,0.063 0.680,0.185 L0.222,0.576 C0.078,0.699 -0.003,0.863 -0.003,1.037 C-0.003,1.213 0.078,1.377 0.222,1.497 L6.458,6.805 C6.602,6.927 6.795,6.997 7.000,6.995 C7.206,6.997 7.399,6.927 7.545,6.805 Z"/>
</svg>