<svg 
 xmlns="http://www.w3.org/2000/svg"
 xmlns:xlink="http://www.w3.org/1999/xlink"
 width="10px" height="18px">
<path fill-rule="evenodd"  fill="rgb(164, 164, 164)"
 d="M9.623,0.003 L7.224,-0.001 C4.530,-0.001 2.789,1.738 2.789,4.429 L2.789,6.471 L0.377,6.471 C0.169,6.471 -0.000,6.636 -0.000,6.839 L-0.000,9.798 C-0.000,10.001 0.169,10.165 0.377,10.165 L2.788,10.165 L2.788,17.633 C2.788,17.835 2.957,18.000 3.166,18.000 L6.312,18.000 C6.520,18.000 6.689,17.835 6.689,17.633 L6.689,10.165 L9.509,10.165 C9.717,10.165 9.886,10.001 9.886,9.798 L9.887,6.839 C9.887,6.741 9.847,6.648 9.777,6.579 C9.706,6.510 9.610,6.471 9.510,6.471 L6.689,6.471 L6.689,4.740 C6.689,3.908 6.893,3.485 8.007,3.485 L9.623,3.485 C9.831,3.485 10.000,3.321 10.000,3.118 L10.000,0.370 C10.000,0.167 9.831,0.003 9.623,0.003 Z"/>
</svg>