<svg 
 xmlns="http://www.w3.org/2000/svg"
 xmlns:xlink="http://www.w3.org/1999/xlink"
 width="14px" height="14px">
<path fill-rule="evenodd"  fill="rgb(164, 164, 164)"
 d="M11.433,14.000 L2.566,14.000 C1.151,14.000 -0.000,12.848 -0.000,11.433 L-0.000,2.566 C-0.000,1.151 1.151,-0.001 2.566,-0.001 L11.433,-0.001 C12.848,-0.001 14.000,1.151 14.000,2.566 L14.000,11.433 C14.000,12.848 12.848,14.000 11.433,14.000 ZM7.000,2.391 C4.459,2.391 2.391,4.458 2.391,6.999 C2.391,9.540 4.459,11.608 7.000,11.608 C9.541,11.608 11.609,9.540 11.609,6.999 C11.609,4.458 9.541,2.391 7.000,2.391 ZM11.757,1.162 C11.155,1.162 10.666,1.652 10.666,2.253 C10.666,2.855 11.155,3.343 11.757,3.343 C12.358,3.343 12.847,2.855 12.847,2.253 C12.847,1.652 12.358,1.162 11.757,1.162 ZM7.000,9.660 C5.533,9.660 4.338,8.467 4.338,6.999 C4.338,5.532 5.533,4.338 7.000,4.338 C8.467,4.338 9.661,5.532 9.661,6.999 C9.661,8.467 8.467,9.660 7.000,9.660 Z"/>
</svg>