<svg 
 xmlns="http://www.w3.org/2000/svg"
 xmlns:xlink="http://www.w3.org/1999/xlink"
 width="0.194in" height="0.236in">
<path fill-rule="evenodd"  fill="rgb(34, 190, 203)"
 d="M11.584,15.258 C11.269,15.476 10.418,16.017 8.481,14.800 C6.673,13.665 2.746,10.689 1.573,4.872 C1.240,3.231 1.457,2.364 2.238,1.830 C3.573,0.918 4.859,1.726 5.125,2.205 C6.120,3.981 4.540,4.997 4.130,5.222 C3.867,5.365 3.703,5.629 3.727,5.923 C3.920,8.080 6.341,11.546 8.267,12.431 C8.533,12.551 8.862,12.510 9.062,12.299 C9.346,11.997 11.003,10.890 12.243,12.431 C12.922,13.266 12.565,14.581 11.584,15.258 L11.584,15.258 ZM8.488,10.928 C7.181,10.061 5.601,7.786 5.226,6.232 C5.244,6.221 8.106,4.338 6.302,1.400 C5.780,0.554 4.659,-0.001 3.541,-0.001 C2.788,-0.001 2.053,0.231 1.419,0.668 C-0.196,1.782 -0.126,3.544 0.161,5.104 C1.016,9.753 4.130,13.894 7.759,16.024 C8.572,16.503 9.542,16.999 10.586,16.999 C11.234,16.999 11.847,16.805 12.400,16.423 C14.026,15.302 14.495,12.951 13.423,11.626 C11.248,8.940 8.505,10.915 8.488,10.928 L8.488,10.928 Z"/>
</svg>