<?xml version="1.0" encoding="utf-8"?>
<!-- Generator: Adobe Illustrator 21.0.0, SVG Export Plug-In . SVG Version: 6.00 Build 0)  -->
<svg version="1.1" id="Слой_1" xmlns="http://www.w3.org/2000/svg" xmlns:xlink="http://www.w3.org/1999/xlink" x="0px" y="0px"
	 viewBox="0 0 1269.4 1224.9" style="enable-background:new 0 0 1269.4 1224.9;" xml:space="preserve">
<style type="text/css">
	.st0{fill:#CC8854;}
	.st1{fill:#252321;}
	.st2{fill-rule:evenodd;clip-rule:evenodd;fill:#252321;}
</style>
<g>
	<path class="st0" d="M639.8,16.2L893.9,163l0,0l259.2,149.8v376.7H1116V334.2L875.4,195.1h0L634.7,56L394,195.1h0L153.3,334.2
		v355.4h-37.1V312.9L375.5,163l0,0L634.7,13.2L639.8,16.2L639.8,16.2z M988.8,1007l-94.9,54.8l0,0l-259.2,149.8l-259.2-149.8l0,0
		l-94.9-54.8h74l39.4,22.8h0l240.7,139.1l240.7-139.1h0l39.4-22.8H988.8L988.8,1007z"/>
	<path class="st1" d="M639.9,3l259.9,150.1l0,0l265.2,153.1v383.4h-21V318.3l-254.6-147h0l-254.7-147L390.6,165.2l-10.6,6.1h0
		l-254.6,147v371.3h-21V306.3l265.2-153.1l0,0L634.7,0L639.9,3L639.9,3z M1012,1007l-112.2,64.8l0,0l-265.2,153.1l-265.2-153.1l0,0
		L257.3,1007h41.9l80.7,46.6h0l254.7,147l254.7-147h0l80.7-46.6H1012L1012,1007z"/>
	<path class="st1" d="M639.5,52.4l238.9,137.9l0,0L1122.1,331v358.6h-19.3V342.1L868.8,207h0L634.7,71.9L400.6,207h0l-234,135.1
		v347.5h-19.3V331l243.7-140.7l0,0L634.7,49.6L639.5,52.4L639.5,52.4z M926.1,1007l-47.7,27.6l0,0l-243.7,140.7l-243.7-140.7l0,0
		l-47.7-27.6h38.5l18.9,10.9h0L634.7,1153l234.1-135.1h0l18.9-10.9H926.1L926.1,1007z"/>
	<path class="st1" d="M477.6,960.9l-4.8,4.6c-3.3-3.4-6.9-5.1-11-5.1c-3.4,0-6.3,1.2-8.7,3.5c-2.4,2.3-3.5,5.2-3.5,8.7
		c0,2.4,0.5,4.5,1.6,6.4c1,1.9,2.5,3.3,4.4,4.4c1.9,1.1,4,1.6,6.4,1.6c2,0,3.8-0.4,5.4-1.1c1.7-0.7,3.5-2.1,5.4-4l4.6,4.8
		c-2.7,2.6-5.2,4.4-7.5,5.4c-2.4,1-5.1,1.5-8.1,1.5c-5.6,0-10.2-1.8-13.7-5.3c-3.6-3.5-5.3-8.1-5.3-13.6c0-3.6,0.8-6.8,2.4-9.5
		c1.6-2.8,3.9-5,7-6.7c3-1.7,6.3-2.5,9.8-2.5c3,0,5.8,0.6,8.6,1.9C473.2,956.8,475.6,958.6,477.6,960.9L477.6,960.9z"/>
	<path class="st1" d="M510.6,966.2H504c0.2-3.9,1.4-6.9,3.6-9.2c2.3-2.2,5.1-3.3,8.7-3.3c2.2,0,4.1,0.5,5.8,1.4c1.7,0.9,3,2.2,4,4
		c1,1.7,1.5,3.5,1.5,5.3c0,2.1-0.6,4.4-1.8,6.9c-1.2,2.5-3.4,5.4-6.7,8.7l-4,4.2h12.8v6.3H503v-3.3l11.1-11.3
		c2.7-2.7,4.5-4.9,5.4-6.6c0.9-1.7,1.3-3.1,1.3-4.5c0-1.4-0.5-2.5-1.4-3.4c-0.9-0.9-2.1-1.4-3.6-1.4c-1.5,0-2.7,0.5-3.7,1.6
		C511.2,962.8,510.7,964.3,510.6,966.2L510.6,966.2z"/>
	<path class="st1" d="M552.3,953.7c2.6,0,4.9,0.6,6.8,1.9c1.9,1.3,3.4,3.3,4.4,5.9c1,2.6,1.5,6.3,1.5,11c0,4.8-0.5,8.5-1.6,11.1
		c-1,2.6-2.5,4.6-4.2,5.8c-1.8,1.2-4,1.9-6.7,1.9s-5-0.6-6.8-1.9c-1.8-1.3-3.3-3.2-4.3-5.7c-1-2.5-1.6-6.2-1.6-10.9
		c0-6.6,1-11.4,3.1-14.3C545.1,955.3,548.2,953.7,552.3,953.7L552.3,953.7z M552.5,960.2c-1.2,0-2.2,0.4-3.1,1.1
		c-0.9,0.7-1.6,2-2,3.8c-0.5,1.8-0.7,4.4-0.7,7.9c0,4.5,0.5,7.7,1.6,9.4c1.1,1.7,2.5,2.6,4.2,2.6c1.7,0,3-0.8,3.9-2.5
		c1.2-2,1.8-5.3,1.8-9.9c0-4.7-0.5-7.9-1.6-9.7C555.5,961.1,554.2,960.2,552.5,960.2L552.5,960.2z"/>
	<path class="st1" d="M588.7,953.7c2.6,0,4.9,0.6,6.8,1.9c1.9,1.3,3.4,3.3,4.4,5.9c1,2.6,1.5,6.3,1.5,11c0,4.8-0.5,8.5-1.6,11.1
		c-1,2.6-2.5,4.6-4.2,5.8c-1.8,1.2-4,1.9-6.7,1.9c-2.7,0-5-0.6-6.8-1.9c-1.8-1.3-3.3-3.2-4.3-5.7c-1-2.5-1.6-6.2-1.6-10.9
		c0-6.6,1-11.4,3.1-14.3C581.5,955.3,584.7,953.7,588.7,953.7L588.7,953.7z M588.9,960.2c-1.1,0-2.2,0.4-3.1,1.1
		c-0.9,0.7-1.6,2-2,3.8c-0.5,1.8-0.7,4.4-0.7,7.9c0,4.5,0.5,7.7,1.6,9.4c1.1,1.7,2.5,2.6,4.2,2.6c1.7,0,3-0.8,3.9-2.5
		c1.2-2,1.8-5.3,1.8-9.9c0-4.7-0.5-7.9-1.6-9.7C592,961.1,590.6,960.2,588.9,960.2L588.9,960.2z"/>
	<polygon class="st1" points="614.3,954.6 637.8,954.6 637.8,958.2 621.6,991.4 615.9,988.6 629.3,961 614.3,961 614.3,954.6 	"/>
	<polygon class="st1" points="665.8,954.6 683.6,954.6 683.6,961.3 672.6,961.3 672.6,990.5 665.8,990.5 665.8,954.6 	"/>
	<path class="st1" d="M714.4,953.7c5.1,0,9.4,1.8,13.1,5.5c3.7,3.7,5.5,8.2,5.5,13.4c0,5.2-1.8,9.7-5.4,13.3
		c-3.6,3.6-8,5.4-13.1,5.4c-5.4,0-9.9-1.9-13.4-5.6c-3.6-3.7-5.3-8.1-5.3-13.3c0-3.4,0.8-6.6,2.5-9.5c1.7-2.9,3.9-5.2,6.8-6.8
		C707.9,954.5,711,953.7,714.4,953.7L714.4,953.7z M714.3,960.4c-3.3,0-6.1,1.2-8.3,3.5c-2.3,2.3-3.4,5.2-3.4,8.8
		c0,4,1.4,7.1,4.3,9.4c2.2,1.8,4.7,2.7,7.6,2.7c3.2,0,6-1.2,8.2-3.5c2.3-2.3,3.4-5.2,3.4-8.7c0-3.4-1.1-6.3-3.4-8.7
		C720.3,961.6,717.5,960.4,714.3,960.4L714.3,960.4z"/>
	<path class="st1" d="M759.5,954.6h6.9l11.6,29.5h4v11.8h-6.6v-5.4h-24.8v5.4H744v-11.8h4L759.5,954.6L759.5,954.6z M763.1,964
		l-7.9,20.1h15.8L763.1,964L763.1,964z"/>
	<path class="st1" d="M805.9,954.6h6.9l13.8,35.9h-7.1l-2.8-7.4h-14.7l-2.9,7.4H792L805.9,954.6L805.9,954.6z M809.3,964.1
		l-4.9,12.4h9.7L809.3,964.1L809.3,964.1z"/>
	<path class="st1" d="M1269.4,736.6l-32-18.6c-415.8,0-789.7,0-1205.5,0L0,736.6C437.1,736.6,832.3,736.6,1269.4,736.6L1269.4,736.6
		z"/>
	<path class="st1" d="M81.1,922.2c-19.3,0-34.6-7-46-21.1c-11.3-14-15.2-30.8-11.6-50.2c3.3-19.7,12.4-35.9,27.4-48.5
		s32.6-19,53.1-19c19.1,0,34.3,7.1,45.7,21.2c11.4,14.1,15.3,30.9,11.9,50.3c-3.4,19.7-12.6,35.8-27.5,48.4
		C119.3,915.9,101.6,922.2,81.1,922.2L81.1,922.2z M84.2,896.4c12.5,0,23.5-4.1,33.3-12.2c9.7-8.1,15.7-18.6,18-31.3
		c2.2-12.7-0.1-23.2-6.9-31.6c-6.7-8.3-16.3-12.5-28.6-12.5c-12.3,0-23.2,4.1-32.7,12.3c-9.5,8.2-15.3,18.7-17.6,31.6
		c-2.3,12.7-0.2,23.2,6.4,31.4C62.6,892.3,72,896.4,84.2,896.4L84.2,896.4z"/>
	<path class="st1" d="M229.1,834.6c12.2,0,21.9,4.2,29.1,12.6c7.2,8.4,9.7,18.6,7.5,30.7c-2.2,12.3-7.8,22-16.9,29.1
		c-9.1,7.1-20.6,10.6-34.4,10.6h-51.1l23.5-133.5h83.9l-4.4,25.2h-57.6l-4.6,25.4H229.1L229.1,834.6z M240,876
		c0.9-5.3-0.1-9.5-3.1-12.4c-2.9-2.9-7.1-4.4-12.4-4.4h-24.6L194,893h24.6c5.2,0,9.8-1.5,13.8-4.5C236.4,885.5,239,881.3,240,876
		L240,876z"/>
	<path class="st1" d="M296.6,917.6l18.9-108.3h-31.8l4.4-25.2h58.2l-7.6,43.9h22.9c12.2,0,22.1,4.7,29.7,14
		c7.6,9.3,10.4,20.2,8.2,32.7c-2.3,13.2-8.2,23.7-17.7,31.4s-21.4,11.5-35.7,11.5H296.6L296.6,917.6z M327.1,893h23.3
		c5.7,0,10.7-1.9,15-5.7c4.3-3.8,6.9-8.6,7.9-14.5c1-5.8,0-10.7-3-14.5c-3-3.8-7.3-5.7-13.1-5.7h-23.1L327.1,893L327.1,893z"/>
	<path class="st1" d="M461.1,769.1c-3,2.5-6.3,3.7-9.8,3.7c-3.6,0-6.4-1.2-8.4-3.7c-2-2.5-2.7-5.5-2.1-9.1c0.6-3.6,2.4-6.6,5.3-9.2
		c2.9-2.5,6.2-3.8,9.7-3.8c3.6,0,6.4,1.3,8.5,3.8c2.1,2.5,2.8,5.6,2.2,9.2C465.9,763.6,464.1,766.7,461.1,769.1L461.1,769.1z
		 M497.3,769.1c-3,2.5-6.3,3.7-9.8,3.7c-3.6,0-6.4-1.2-8.4-3.7c-2-2.5-2.7-5.5-2.1-9.1c0.6-3.6,2.4-6.6,5.3-9.2
		c2.9-2.5,6.2-3.8,9.7-3.8c3.6,0,6.4,1.3,8.5,3.8c2.1,2.5,2.8,5.6,2.2,9.2C502.1,763.6,500.3,766.7,497.3,769.1L497.3,769.1z
		 M504.3,807.4H449l-5.1,28.6h50.7l-4.6,24.6h-50.3l-5.3,29.9h56.3l-4.4,25.2h-82.6l23.5-133.5h81.6L504.3,807.4L504.3,807.4z"/>
	<polygon class="st1" points="655.1,784.1 631.7,917.6 605.6,917.6 620.8,830.8 571.6,893 568.6,893 542.8,830.1 527.4,917.6 
		501.1,917.6 524.5,784.1 551.4,784.1 576.6,848 626.1,784.1 655.1,784.1 	"/>
	<polygon class="st1" points="810.4,784.1 806,809.3 769.9,809.3 750.9,917.6 724.6,917.6 743.6,809.3 707.8,809.3 712.2,784.1 
		810.4,784.1 	"/>
	<path class="st1" d="M869.3,784.1c13.5,0,23.9,4.4,31.3,13.3c7.4,8.8,10,19.8,8,32.9c-1.9,12.8-7.7,23.3-17.4,31.4
		c-9.7,8.1-22,12.1-37,12.1h-22.3l-7.6,43.9H798l23.5-133.5H869.3L869.3,784.1z M882.5,828.3c1.1-6,0.3-10.7-2.7-14.3
		c-2.9-3.6-7.8-5.3-14.5-5.3h-21.9l-7.1,40.4h20.6c7,0,12.7-1.9,17.2-5.7C878.5,839.6,881.3,834.6,882.5,828.3L882.5,828.3z"/>
	<polygon class="st1" points="1003.7,807.4 948.4,807.4 943.3,836 994,836 989.4,860.6 939.1,860.6 933.8,890.5 990,890.5 
		985.6,915.7 903.1,915.7 926.5,782.2 1008.1,782.2 1003.7,807.4 	"/>
	<path class="st1" d="M1047,770l3.6-21.4h55.3l-3.6,21.4H1047L1047,770z M998.6,915.7l23.5-133.5h26.3l-14.1,79.7l71.3-79.7h20
		l-23.5,133.5h-26.3l14.1-79.7l-71.3,79.7H998.6L998.6,915.7z"/>
	<path class="st1" d="M1249.4,782.2l-19.1,108.3h14.3l-9,50.7h-26.3l4.6-25.6h-74l-4.4,25.6h-26.3l9-50.7h13
		c9.2-9.9,15.5-25,19.1-45.2l11.1-63.1H1249.4L1249.4,782.2z M1160.3,890.5h43.7l14.9-83.7h-35.7l-6.9,38.9
		C1172.9,865.3,1167.6,880.2,1160.3,890.5L1160.3,890.5z"/>
	<polygon class="st2" points="856.5,961.5 1146.6,961.5 1114.6,980.1 856.5,980.1 856.5,961.5 	"/>
	<polygon class="st2" points="414.3,961.5 124.2,961.5 156.2,980.1 414.3,980.1 414.3,961.5 	"/>
	<g>
		<path class="st1" d="M592.5,239.7c-0.1-0.4-0.5-0.6-0.9-0.6c-27.9,4.5-55.7,10.1-82.5,16.8c-8.7,2.2-15.7,3.9-20.7,5.3
			c-4.4,1.2-7.8,4.5-9,8.6L468.1,309c-0.1,0.4,0.1,0.8,0.5,0.9c0.1,0,0.1,0,0.2,0c0.3,0,0.6-0.2,0.7-0.5
			c11-38.6,47.5-51.2,122.4-68.9C592.3,240.4,592.6,240,592.5,239.7z"/>
		<path class="st1" d="M452.5,502.5l-147.2,3.4c-6.5,0.1-11.8,5-12.1,11.1c-0.4,6.6,5.1,12.3,12.1,12.4l146.8,3.3
			c6.7,0.2,12.4-4.8,12.7-11.1l0.4-6.7C465.7,508,459.8,502.3,452.5,502.5z"/>
	</g>
	<path class="st1" d="M1062.5,516.3l-13.8-2.4c0.1-0.3,0.2-0.7,0.2-1.1V394.2c0-1.2-0.7-2.4-1.8-3l-32-18.7l-5.5,74.8l0.1,56.9
		l-16.9-1.3c9.6-16.8,13.7-39.4,15.5-56.6l-6-81.3L974.8,349c0,0,0,0,0,0c-0.3-0.1-0.5-0.3-0.8-0.3c-0.1,0-0.2,0-0.3-0.1
		c-0.2,0-0.4-0.1-0.6-0.1c-0.1,0-0.2,0-0.3,0c-0.1,0-0.2,0-0.2,0l-24.8,2.1v-15.5c0-1.2-0.7-2.4-1.8-3l-46.6-27.2l-4.4,83.5
		l0.5,110.6l-28.1-3.6c16-27.9,22.7-63.1,25.6-86.5l-5.9-111.2L844.6,273c0,0-0.1,0-0.1,0c-0.3-0.1-0.5-0.3-0.8-0.3c0,0-0.1,0-0.1,0
		c-0.3-0.1-0.5-0.1-0.8-0.1c-0.1,0-0.2,0-0.3,0c-0.1,0-0.3,0-0.4,0l-24.5,3.2v-47.5c0-4.1-3.9-7.2-8.2-6.5l-53.6,8.6
		c-3.1-2.5-6.8-4.5-11-5.6l-36-9.6c-21.8-5.8-44.7-7.6-67.2-5.2c-25.4,2.7-58.1,6.4-73.4,9.2c-18.4,3.4-61,14.4-86.2,21.1
		c-12.3,3.2-21.8,12.3-25.1,24l-4.1,14.5l-30.4,4.9c-5.2,0.8-9.1,5.1-9.1,10.2v35l-102.4,22c-11.5,2.5-20.3,11.4-22,22.5l-6.9,45.3
		l-32,14.4c-6.5,2.9-11,8.7-12.2,15.4l-7.1,42.4l-14.2,0.3c-5.5,0.1-9.8,4.3-9.8,9.5v34.4c0,5.2,4.3,9.3,9.8,9.5l15.5,0.4
		c0.3,53.8,43.3,97.3,96.3,97.3c41.7,0,77.2-27,90.6-64.7l98.4,3.3c11,42.4,51.5,73.9,99.8,73.9c54.2,0,98.5-39.6,102.4-89.8
		c0-0.2,0-0.4,0-0.6c0.1-1.5,0.2-3,0.2-4.5l0,0c0-0.7,0.1-1.4,0.1-2.1c0-32-16.4-60.4-41.8-78.1c0.9,0,1.7,0.1,2.6,0.2l0,0
		c0.1,0,0.2,0,0.3,0l42.5,5.5c13.5,5.8,23.2,21.3,23.2,39.6c0,17.7-9.1,32.8-21.9,39c-0.7,3.3-1.1,6.7-1.1,10.2
		c0,22.6,15.4,40.8,34.3,40.8h67.1c15.9,0,29.2-12.8,33.1-30.3H883c3.2,23.2,12.5,40,23.4,40h67.1c3.9,0,7.7-2.2,10.9-6h30.1
		c0.5,0.1,1,0.1,1.5,0.1c12.2,0,22.1-23.3,22.1-51.9c0-14.8-2.6-28.2-6.9-37.6h31.2V516.3z M765.5,421.4l0.8,20.1
		c0.1,0.9-0.8,1.7-1.8,1.5l-12.1-2.4c-0.7-0.1-1.2-0.7-1.3-1.4l-0.8-20.1c-0.1-0.9,0.8-1.7,1.8-1.5l12.1,2.4
		C765,420.2,765.5,420.7,765.5,421.4z M707.5,239.6c0.2-5.2,5.5-8.9,10.9-7.5l22.4,6c5.8,1.6,10,6.5,10.3,12.2l4.3,74.3
		c0.2,2.9-2.6,5.1-5.6,4.5l-16.7-3.6c-2.4-0.5-4.7,0.8-5.4,3l-2,6.8c-1.1,3.7-5,6-9.1,5.3l-6.7-1.3c-3.8-0.7-6.4-3.9-6.3-7.5
		L707.5,239.6z M471.4,267.8c2-6.8,7.5-12.2,14.7-14.1c5.4-1.4,12.8-3.3,20.9-5.3c41.9-10.4,84.4-18.1,127.4-23
		c10.5-1.2,21-2.4,30.4-3.4c8.8-0.9,16.3,5.7,16,14l-2.4,58.1c0,0-35.8,1.1-111.1,9c-75.3,7.9-111.1,17.8-111.1,17.8L471.4,267.8z
		 M575.1,401.1c-4.1,5.8-7.7,12.3-10.5,19.2l-58.4,3.5c16.4-32,52.8-54.2,95.2-54.2c5.2,0,10.3,0.4,15.3,1
		c-24.7,3.4-46.4,15.1-61.7,32L575.1,401.1z M560.7,432.2c-2.1,7.6-3.1,16.1-3.5,24.5l-60.1,2.2c0.3-8,1.7-15.8,4.2-23.1
		L560.7,432.2z M543.6,344.8c-23.3,3.8-41.9,20.3-47.3,42.1c-5.1,20.8-7.8,42.5-7.8,64.8c0,0-6.2-44.9-0.9-66.7
		c6.2-25.1,27.6-44.1,54.5-48.5c36.2-5.9,112.5-0.4,112.5-0.4C615.8,336.1,578.5,339.1,543.6,344.8z M301.7,375.8
		c0.3-5.3,4.6-9.6,10.2-10.2l149.8-17.1c7.1-0.8,13.3,4.7,12.9,11.5l-0.6,9.6l-172.9,16.6L301.7,375.8z M300.4,397.6L473.3,381
		l-1,16.9l-172.7,13.5L300.4,397.6z M298.9,422.7l172.7-13.5l-1,16.8L298,436.5L298.9,422.7z M296.9,455.1l0.4-7.3l172.6-10.4
		l-0.8,12.6c-0.3,5.6-5.1,10-11,10.3L309,466.6C302.1,466.9,296.5,461.5,296.9,455.1z M246.8,451l33.9-2.3
		c-1.7,6.1-2.8,12.6-3.1,19.3l-34.2,1.5C243.7,463.1,244.9,456.9,246.8,451z M311.1,606l10.3-5.1c16.5,8.8,43.4-1.3,47.2-17.3h7.9
		C372.2,610.7,331.2,625.1,311.1,606z M572.2,542.8c0,2.2-1.9,3.9-4.2,3.8l-351.3-8c-2.2,0-4-1.8-4-3.8v-34.4c0-2.1,1.8-3.8,4-3.8
		l351.3-8c2.3-0.1,4.2,1.7,4.2,3.8V542.8z M576.5,462.9c-1.3,2.3-2.3,4.4-2.9,6.3l0.3,0l-1.5,9.8l-331.4,8.3l2.3-6.1l318.7-11.6
		c3.3-18.5,19.5-31.7,38.4-36.8c22.3-5.5,46-1.2,64.6,17c-20.7-11.1-42.2-15.2-64.7-7.3C592,445.4,582,452.9,576.5,462.9z
		 M638.1,499.1c39.2-3.3,43.9,89.1,5,95.9c-5.1,0.9-13.3-5.4-13.3-5.4s21-3,25.7-38S638.1,499.1,638.1,499.1z M682.2,533.8
		c5.3,10,8.3,21.8,8.3,34.5c0,36-24.6,65.1-55,65.1c-16.8,0-31.9-9-42-23.1c8.7,4.9,18.7,7.7,29.2,7.7c34.3,0,62.1-29.2,62.1-65.1
		C684.9,546.2,684,539.8,682.2,533.8z M674.1,395.7L674.1,395.7c-1.2-1-2.5-2.1-3.8-3.1c-0.1-0.1-0.3-0.2-0.4-0.3
		c-3.9-3-8-5.7-12.4-8.2c-0.3-0.1-0.5-0.3-0.8-0.4c-1.3-0.7-2.6-1.4-3.9-2c-0.2-0.1-0.4-0.2-0.5-0.3c-4.7-2.3-9.6-4.3-14.7-6l0.1-2
		l0.6-15c0.4-10.3,10.4-17.9,21.2-16.1l16.6,2.8l-1.7,39.9c10,10.9,17.3,23.6,21.2,37.3C690.4,412.3,683,403.3,674.1,395.7z
		 M733.4,453.1c0,0-27.4-11.8-31.1-36.2s0-54,0-54s-0.1-6.5,11.4-7c4.8-0.2,47.9,5.6,49.2,13.2l1.9,31.9c0,0-30.8-8.2-30.5,2.1
		C734.6,413.3,733.4,453.1,733.4,453.1z M764.6,564.9H734c11.4-8.5,19-23.4,19-40.3c0-15.4-6.3-29.1-16-37.9l29.3,3.8
		c12.5,5.5,21.4,19.9,21.4,36.9C787.7,545.1,777.9,560.1,764.6,564.9z M793.8,564.9h-17.1c10.4-8.1,17.3-21.9,17.3-37.6
		c0-14.2-5.7-26.9-14.5-35.2l17.2,2.2c0.2,0,0.4,0.1,0.6,0.1l0.4,0v0c14.7,2.2,26,17.1,26,35C823.6,549.1,810.3,564.9,793.8,564.9z
		 M838.9,404.2c0,17.3-8.1,33.5-22.1,44.6c-9.8,7.7-21.8,12.3-34.3,13.2V329.8l28.9-3c3.6-0.4,6.2-3.2,6.2-6.6v-37.4l21.3-2.7V404.2
		z M861.5,288.6l6.2,3.8l0.8,116.3l-6.9-1.8V288.6z M853.8,531.5l1.2-22.9c0,0,29.2,2.1,40,3.2C855.1,512.7,854,532.8,853.8,531.5z
		 M983.8,361.2l4.6,2.8l0.6,85.9l-5.1-1.3V361.2z M920.4,427V322.5l5.4,3.3l0.7,102.7L920.4,427z M964.1,498.3l-19.1-1.7
		c0,0,1.7-20.8,2.6-29c0,0,0,0,0,0V357.6l21.4-1.8v65.8c0,17.6-7.8,34.1-21.4,45.9C948.4,497.3,965.2,498.1,964.1,498.3z
		 M973.6,603.2c-3,0-5.7-1.9-8.1-5.3c7.3-3.1,12.8-18.1,12.8-36.2c0-13.4-3-25-7.5-31.5c0.9-0.4,1.9-0.6,2.8-0.6
		c8.6,0,15.6,16.5,15.6,36.8C989.2,586.7,982.2,603.2,973.6,603.2z M1016.1,599.5c-2.7,0-5.1-1.7-7.3-4.8
		c6.5-2.8,11.5-16.3,11.5-32.5c0-12-2.7-22.5-6.8-28.2c0.8-0.4,1.7-0.6,2.5-0.6c7.7,0,14,14.8,14,33
		C1030.1,584.7,1023.8,599.5,1016.1,599.5z M1028.7,464.8V388l4,2.5l0.5,75.5L1028.7,464.8z"/>
</g>
</svg>
