<svg width="34" height="52" viewBox="0 0 34 52" fill="none" xmlns="http://www.w3.org/2000/svg">
<g filter="url(#filter0_f_1466_544)">
<path d="M23.6193 24.9835L12.0544 10.4815C11.8076 10.174 11.4633 10 11.0983 10H11.2864C10.7802 10 10.3201 10.3364 10.112 10.8585C9.90636 11.3835 9.99117 11.9955 10.3304 12.4189L21.1218 25.9523L10.3304 39.4827C9.99117 39.9091 9.90379 40.5211 10.112 41.0431C10.3201 41.5681 10.7802 41.9045 11.2864 41.9045H11.0983C11.4633 41.9045 11.8076 41.7276 12.0544 41.426L23.6193 26.9239C24.0588 26.3728 24.0588 25.5317 23.6193 24.9835Z" fill="#CA98F8"/>
</g>
<g filter="url(#filter1_f_1466_544)">
<path d="M23.6193 24.9835L12.0544 10.4815C11.8076 10.174 11.4633 10 11.0983 10H11.2864C10.7802 10 10.3201 10.3364 10.112 10.8585C9.90636 11.3835 9.99117 11.9955 10.3304 12.4189L21.1218 25.9523L10.3304 39.4827C9.99117 39.9091 9.90379 40.5211 10.112 41.0431C10.3201 41.5681 10.7802 41.9045 11.2864 41.9045H11.0983C11.4633 41.9045 11.8076 41.7276 12.0544 41.426L23.6193 26.9239C24.0588 26.3728 24.0588 25.5317 23.6193 24.9835Z" fill="#CA98F8"/>
</g>
<path d="M23.6193 24.9835L12.0544 10.4815C11.8076 10.174 11.4633 10 11.0983 10H11.2864C10.7802 10 10.3201 10.3364 10.112 10.8585C9.90636 11.3835 9.99117 11.9955 10.3304 12.4189L21.1218 25.9523L10.3304 39.4827C9.99117 39.9091 9.90379 40.5211 10.112 41.0431C10.3201 41.5681 10.7802 41.9045 11.2864 41.9045H11.0983C11.4633 41.9045 11.8076 41.7276 12.0544 41.426L23.6193 26.9239C24.0588 26.3728 24.0588 25.5317 23.6193 24.9835Z" fill="#CA98F8"/>
<path d="M23.6193 24.9835L12.0544 10.4815C11.8076 10.174 11.4633 10 11.0983 10H11.2864C10.7802 10 10.3201 10.3364 10.112 10.8585C9.90636 11.3835 9.99117 11.9955 10.3304 12.4189L21.1218 25.9523L10.3304 39.4827C9.99117 39.9091 9.90379 40.5211 10.112 41.0431C10.3201 41.5681 10.7802 41.9045 11.2864 41.9045H11.0983C11.4633 41.9045 11.8076 41.7276 12.0544 41.426L23.6193 26.9239C24.0588 26.3728 24.0588 25.5317 23.6193 24.9835Z" fill="#CA98F8"/>
<defs>
<filter id="filter0_f_1466_544" x="0" y="0" width="33.9487" height="51.9045" filterUnits="userSpaceOnUse" color-interpolation-filters="sRGB">
<feFlood flood-opacity="0" result="BackgroundImageFix"/>
<feBlend mode="normal" in="SourceGraphic" in2="BackgroundImageFix" result="shape"/>
<feGaussianBlur stdDeviation="5" result="effect1_foregroundBlur_1466_544"/>
</filter>
<filter id="filter1_f_1466_544" x="0" y="0" width="33.9487" height="51.9045" filterUnits="userSpaceOnUse" color-interpolation-filters="sRGB">
<feFlood flood-opacity="0" result="BackgroundImageFix"/>
<feBlend mode="normal" in="SourceGraphic" in2="BackgroundImageFix" result="shape"/>
<feGaussianBlur stdDeviation="5" result="effect1_foregroundBlur_1466_544"/>
</filter>
</defs>
</svg>
