<svg width="51" height="91" viewBox="0 0 51 91" fill="none" xmlns="http://www.w3.org/2000/svg">
<g filter="url(#filter0_f_1331_340)">
<path d="M40.2675 43.2994L14.5656 11.07C14.0173 10.3868 13.252 10 12.4409 10H12.859C11.7338 10 10.7114 10.7477 10.2488 11.908C9.79188 13.0747 9.98037 14.4348 10.7343 15.3759L34.717 45.4523L10.7343 75.5222C9.98037 76.4698 9.78617 77.8299 10.2488 78.9901C10.7114 80.1568 11.7338 80.9045 12.859 80.9045H12.4409C13.252 80.9045 14.0173 80.5114 14.5656 79.841L40.2675 47.6116C41.2442 46.3869 41.2442 44.5176 40.2675 43.2994Z" fill="#CA98F8"/>
</g>
<g filter="url(#filter1_f_1331_340)">
<path d="M40.2675 43.2994L14.5656 11.07C14.0173 10.3868 13.252 10 12.4409 10H12.859C11.7338 10 10.7114 10.7477 10.2488 11.908C9.79188 13.0747 9.98037 14.4348 10.7343 15.3759L34.717 45.4523L10.7343 75.5222C9.98037 76.4698 9.78617 77.8299 10.2488 78.9901C10.7114 80.1568 11.7338 80.9045 12.859 80.9045H12.4409C13.252 80.9045 14.0173 80.5114 14.5656 79.841L40.2675 47.6116C41.2442 46.3869 41.2442 44.5176 40.2675 43.2994Z" fill="#CA98F8"/>
</g>
<path d="M40.2675 43.2994L14.5656 11.07C14.0173 10.3868 13.252 10 12.4409 10H12.859C11.7338 10 10.7114 10.7477 10.2488 11.908C9.79188 13.0747 9.98037 14.4348 10.7343 15.3759L34.717 45.4523L10.7343 75.5222C9.98037 76.4698 9.78617 77.8299 10.2488 78.9901C10.7114 80.1568 11.7338 80.9045 12.859 80.9045H12.4409C13.252 80.9045 14.0173 80.5114 14.5656 79.841L40.2675 47.6116C41.2442 46.3869 41.2442 44.5176 40.2675 43.2994Z" fill="#CA98F8"/>
<path d="M40.2675 43.2994L14.5656 11.07C14.0173 10.3868 13.252 10 12.4409 10H12.859C11.7338 10 10.7114 10.7477 10.2488 11.908C9.79188 13.0747 9.98037 14.4348 10.7343 15.3759L34.717 45.4523L10.7343 75.5222C9.98037 76.4698 9.78617 77.8299 10.2488 78.9901C10.7114 80.1568 11.7338 80.9045 12.859 80.9045H12.4409C13.252 80.9045 14.0173 80.5114 14.5656 79.841L40.2675 47.6116C41.2442 46.3869 41.2442 44.5176 40.2675 43.2994Z" fill="#CA98F8"/>
<defs>
<filter id="filter0_f_1331_340" x="0" y="0" width="51" height="90.9045" filterUnits="userSpaceOnUse" color-interpolation-filters="sRGB">
<feFlood flood-opacity="0" result="BackgroundImageFix"/>
<feBlend mode="normal" in="SourceGraphic" in2="BackgroundImageFix" result="shape"/>
<feGaussianBlur stdDeviation="5" result="effect1_foregroundBlur_1331_340"/>
</filter>
<filter id="filter1_f_1331_340" x="0" y="0" width="51" height="90.9045" filterUnits="userSpaceOnUse" color-interpolation-filters="sRGB">
<feFlood flood-opacity="0" result="BackgroundImageFix"/>
<feBlend mode="normal" in="SourceGraphic" in2="BackgroundImageFix" result="shape"/>
<feGaussianBlur stdDeviation="5" result="effect1_foregroundBlur_1331_340"/>
</filter>
</defs>
</svg>
