<svg width="75" height="45" viewBox="0 0 75 45" fill="none" xmlns="http://www.w3.org/2000/svg">
<path fill-rule="evenodd" clip-rule="evenodd" d="M33.8734 0.006026C32.2565 0.321811 30.6582 1.01064 29.4611 2.20294C28.2033 3.4073 27.0004 4.66743 25.7975 5.92756C24.9284 6.83799 24.0592 7.74842 23.1695 8.63774C22.9737 8.8239 22.7897 9.02288 22.6047 9.22185C22.2191 9.63712 21.8344 10.0509 21.3558 10.3523C21.0935 9.97325 20.7675 9.65517 20.4406 9.33713C20.229 9.13665 20.0252 8.92717 19.8298 8.70936C18.4615 7.31735 17.1059 5.91401 15.7503 4.50993L13.9591 2.65668C13.0684 1.68747 11.8645 1.07399 10.6312 0.70771C9.76207 0.329371 8.81072 0.376083 7.88085 0.419796C7.64985 0.430347 7.41984 0.442386 7.19276 0.446154C6.97744 0.520767 6.75918 0.585607 6.53994 0.651176C6.06422 0.793619 5.58753 0.936813 5.14513 1.16743C3.96572 1.67013 3.0868 2.63483 2.22543 3.57917C2.04139 3.78115 1.85938 3.98163 1.67435 4.17758C0.452815 5.82132 -0.176495 7.97378 0.0486247 10.0366C0.337353 11.8062 1.10865 13.5034 2.34971 14.7831C4.80063 17.289 7.24167 19.8063 9.68377 22.316C11.6207 24.3207 13.56 26.3104 15.5017 28.3076C16.2006 29.0387 16.9072 29.7773 17.8478 30.1616C20.8164 31.8272 24.7727 31.1263 27.0758 28.6016C27.9754 27.6444 28.8897 26.6948 29.8184 25.7602C31.1006 24.4639 32.3808 23.1601 33.5828 21.7884C34.7832 20.5675 35.9766 19.3315 37.1631 18.0955C37.3266 17.9674 37.494 17.8468 37.6653 17.7337C37.6702 19.8741 37.6702 22.0145 37.6712 24.1549C37.6731 28.4357 37.6751 32.7241 37.7073 37.0049L37.7758 37.3441C38.0137 38.5424 38.2584 39.7708 38.9944 40.7657C39.8783 42.2655 41.3788 43.2528 42.9311 43.9009C43.2688 43.9612 43.6045 44.0366 43.9392 44.112C44.6958 44.2929 45.4527 44.4662 46.2358 44.3908C46.9141 44.4662 47.5638 44.3079 48.2149 44.1421C48.536 44.0667 48.8578 43.9839 49.1826 43.9386C50.7744 43.4638 52.0895 42.3257 53.1311 41.037C53.214 40.8787 53.3006 40.7204 53.3873 40.5622C53.9247 39.5975 54.4884 38.5801 54.4055 37.4421C54.3995 35.9347 54.3987 34.4349 54.4048 32.9351C55.3137 32.9276 56.2233 32.9276 57.133 32.9351C58.4127 32.9351 59.6917 32.9426 60.9699 32.92C61.7982 32.6789 62.6265 32.4 63.3342 31.88C64.7563 31.0208 65.5771 29.408 65.9336 27.7951L65.9479 27.4711C65.9871 26.6571 66.0285 25.8055 65.6509 25.0593C65.4022 24.1851 64.9907 23.356 64.3343 22.738C63.6605 21.7733 62.5647 21.2985 61.5133 20.9142C60.1115 20.7107 58.7021 20.7333 57.2905 20.7484C56.3289 20.7559 55.3657 20.7634 54.4032 20.7107C54.3934 19.3918 54.3927 18.0728 54.456 16.7539C55.6377 16.7313 56.8187 16.7314 58.0005 16.7389C59.4588 16.7464 60.9157 16.7539 62.3717 16.7012C62.9453 16.6936 63.5181 16.6936 64.0916 16.7087C65.9328 16.7313 67.7853 16.754 69.5504 16.1661C72.4181 15.126 74.6542 12.348 74.8667 9.20299C75.1026 8.55258 74.9783 7.90367 74.8532 7.25024C74.7944 6.9435 74.7356 6.6375 74.7145 6.3285C73.9872 3.00032 71.0381 0.385122 67.7589 0H62.1117C52.6992 0 43.2874 -3.31229e-06 33.8734 0.006026ZM13.548 34.5932C12.4478 31.5107 8.97706 29.5813 5.86947 30.3953C5.30649 30.4706 4.76392 30.6666 4.27208 30.953C2.33019 32.0533 0.69949 33.8998 0.176824 36.1457C-0.281253 38.0374 0.176824 40.1024 1.24861 41.6927C2.30276 43.1548 3.89819 44.2702 5.67759 44.4813C7.84264 44.8656 10.1556 44.0894 11.6482 42.4238C12.7895 41.3837 13.6146 39.9668 13.9337 38.4293C13.9356 38.1957 13.9444 37.9545 13.9532 37.7134C13.9924 36.6507 14.0315 35.5654 13.547 34.5932H13.548Z" fill="white"/>
</svg>
