<svg width="156" height="185" viewBox="0 0 156 185" fill="none" xmlns="http://www.w3.org/2000/svg">
<path d="M15.6929 51.0168C13.6929 66.5168 10.1929 85.0168 7.69286 85.0168C7.35952 83.85 5.89286 81.5166 2.69286 81.5166C-1.30714 81.5166 0.192857 91.5166 0.692857 101.017C1.19286 110.517 4.19286 119.017 6.69286 121.017C9.19286 123.017 10.6929 122.517 12.6929 124.517C14.6929 126.517 15.6929 141.517 25.1929 154.517C34.6929 167.517 56.1929 184.017 77.1929 184.517C98.1929 185.017 109.5 173 121.193 162.017C129.531 154.184 137.36 138.183 139.693 130.517C141.193 131.017 144.593 131.717 146.193 130.517C148.193 129.017 152.693 116.017 155.193 105.017C157.693 94.0166 152.193 92.5166 150.193 91.5166C148.193 90.5166 146.193 95.5166 144.193 94.5166C142.193 93.5166 146.693 78.0168 146.193 60.5168C145.693 43.0168 137.693 -0.983234 83.1929 0.0167661C28.6929 1.01677 17.6929 35.5168 15.6929 51.0168Z" fill="#A754C5"/>
</svg>
