<svg width="21" height="21" viewBox="0 0 21 21" fill="none" xmlns="http://www.w3.org/2000/svg">
<path fill-rule="evenodd" clip-rule="evenodd" d="M8.38397 4.35336L7.61988 4.58317C7.21608 4.70494 6.85046 4.92868 6.55826 5.23281C6.26605 5.53694 6.05712 5.91121 5.95159 6.31956C5.48279 8.13516 5.99153 10.2984 7.44179 12.81C8.89008 15.3184 10.5066 16.84 12.3098 17.3435C12.7182 17.4575 13.1492 17.4639 13.5608 17.3618C13.9724 17.2598 14.3505 17.053 14.6584 16.7614L15.2385 16.2114C15.555 15.9116 15.7519 15.507 15.7928 15.0729C15.8336 14.6389 15.7155 14.2047 15.4604 13.8511L14.6217 12.6883C14.4017 12.3835 14.0919 12.1553 13.7356 12.0355C13.3794 11.9158 12.9946 11.9105 12.6352 12.0204L11.3192 12.4231C11.2819 12.4336 11.1948 12.4034 11.0363 12.2627C10.8091 12.0617 10.5414 11.7022 10.2461 11.1909C9.84012 10.487 9.66399 9.98089 9.6928 9.72095C9.69716 9.68211 9.71528 9.64612 9.74387 9.61947L10.7221 8.70741C10.9971 8.451 11.185 8.11493 11.2593 7.74633C11.3336 7.37774 11.2907 6.99512 11.1365 6.65217L10.5459 5.33875C10.3666 4.94002 10.0484 4.62016 9.65055 4.43884C9.25274 4.25752 8.80254 4.22714 8.38397 4.35336ZM7.2665 5.91346C7.44184 5.73113 7.66118 5.59701 7.90338 5.52404L8.66813 5.29357C8.8583 5.23636 9.06279 5.25024 9.24348 5.33264C9.42417 5.41503 9.56874 5.56032 9.65024 5.74142L10.2408 7.05483C10.3109 7.21076 10.3304 7.38471 10.2966 7.55228C10.2628 7.71985 10.1773 7.87262 10.0523 7.98915L9.07407 8.90121C8.87372 9.08847 8.74735 9.33989 8.71658 9.61227C8.6583 10.1367 8.8927 10.8111 9.39555 11.6819C10.142 12.975 10.8373 13.5912 11.6033 13.3633L12.9227 12.9593C13.0861 12.9092 13.2612 12.9116 13.4232 12.9661C13.5853 13.0206 13.7262 13.1245 13.8262 13.2631L14.6643 14.4253C14.7803 14.586 14.834 14.7834 14.8155 14.9808C14.7969 15.1782 14.7074 15.3621 14.5634 15.4984L13.9827 16.0484C13.7981 16.2233 13.5713 16.3474 13.3245 16.4087C13.0777 16.4699 12.8193 16.4663 12.5743 16.398C11.0566 15.9738 9.6234 14.625 8.2923 12.319C6.95924 10.0097 6.50812 8.09195 6.90228 6.56508C6.96573 6.32021 7.09116 6.0958 7.2665 5.91346Z" fill="#033097"/>
<path fill-rule="evenodd" clip-rule="evenodd" d="M21 10.5C21 16.299 16.299 21 10.5 21C4.70101 21 0 16.299 0 10.5C0 4.70101 4.70101 0 10.5 0C16.299 0 21 4.70101 21 10.5ZM19.5 10.5C19.5 15.4706 15.4706 19.5 10.5 19.5C5.52944 19.5 1.5 15.4706 1.5 10.5C1.5 5.52944 5.52944 1.5 10.5 1.5C15.4706 1.5 19.5 5.52944 19.5 10.5Z" fill="#033097"/>
</svg>
