<svg width="24" height="20" viewBox="0 0 24 20" fill="none" xmlns="http://www.w3.org/2000/svg">
<path d="M20.47 3.63005C20.86 4.02005 20.86 4.64005 20.47 5.03005L9.13001 16.37C8.74001 16.76 8.12001 16.76 7.73001 16.37L3.53001 12.17C3.14001 11.78 3.14001 11.16 3.53001 10.77C3.92001 10.38 4.54001 10.38 4.93001 10.77L8.43001 14.27L19.07 3.63005C19.46 3.24005 20.08 3.24005 20.47 3.63005ZM18.36 1.51005L8.43001 11.44L5.64001 8.65005C4.86001 7.87005 3.59001 7.87005 2.81001 8.65005L1.41001 10.05C0.630012 10.83 0.630012 12.1 1.41001 12.88L7.01001 18.48C7.79001 19.26 9.06001 19.26 9.84001 18.48L22.59 5.74005C23.37 4.96005 23.37 3.69005 22.59 2.91005L21.19 1.51005C20.4 0.730049 19.14 0.730049 18.36 1.51005Z" fill="#6688D7"/>
</svg>
