<svg width="37" height="40" viewBox="0 0 37 40" fill="none" xmlns="http://www.w3.org/2000/svg">
<path d="M18.5 10.9787C19.0637 10.9787 19.6043 10.7548 20.0029 10.3562C20.4015 9.95761 20.6254 9.417 20.6254 8.8533C20.6254 8.2896 20.4015 7.74899 20.0029 7.3504C19.6043 6.95181 19.0637 6.72788 18.5 6.72788C17.9363 6.72788 17.3957 6.95181 16.9971 7.3504C16.5985 7.74899 16.3746 8.2896 16.3746 8.8533C16.3746 9.417 16.5985 9.95761 16.9971 10.3562C17.3957 10.7548 17.9363 10.9787 18.5 10.9787ZM33.8 30.017V16.4H34.0346C36.3117 16.4 37.2476 13.4726 35.3861 12.1543L20.4686 1.56668C19.8935 1.1581 19.2055 0.938599 18.5 0.938599C17.7945 0.938599 17.1065 1.1581 16.5314 1.56668L1.6088 12.1543C-0.247601 13.4726 0.683149 16.3975 2.9603 16.3975H3.2V30.0145C1.66745 30.9988 0.649999 32.7175 0.649999 34.6733V38.0725C0.649999 38.4106 0.784329 38.7349 1.02344 38.974C1.26255 39.2131 1.58685 39.3475 1.925 39.3475H35.075C35.4131 39.3475 35.7374 39.2131 35.9766 38.974C36.2157 38.7349 36.35 38.4106 36.35 38.0725V34.6733C36.35 32.7175 35.3351 30.9988 33.8 30.017ZM18.0053 3.64748C18.1488 3.54582 18.3203 3.49122 18.4962 3.49122C18.672 3.49122 18.8435 3.54582 18.987 3.64748L33.3665 13.8475H3.6284L18.0078 3.64748H18.0053ZM31.2449 16.3975V29.1628C31.104 29.1523 30.9628 29.1472 30.8216 29.1475H26.1449V16.4H31.2449V16.3975ZM5.75 29.1628V16.4H10.85V29.15H6.1733C6.0305 29.15 5.8877 29.1551 5.74745 29.1653L5.75 29.1628ZM6.17585 31.6975H30.8267C32.4689 31.6975 33.8 33.0286 33.8 34.6733V36.7975H3.2V34.6733C3.2 33.0286 4.53365 31.6975 6.17585 31.6975ZM17.225 29.1475H13.4V16.4H17.225V29.15V29.1475ZM19.775 29.1475V16.4H23.6V29.15H19.775V29.1475Z" fill="#033097"/>
</svg>
