<svg width="30" height="30" viewBox="0 0 30 30" fill="none" xmlns="http://www.w3.org/2000/svg">
<path d="M1.56479 1.56479C2.24656 0.883016 3.17124 0.5 4.13542 0.5H25.4896C26.4538 0.5 27.3784 0.883017 28.0602 1.56479C28.742 2.24656 29.125 3.17124 29.125 4.13542V14.8125C29.125 15.6409 28.4534 16.3125 27.625 16.3125C26.7966 16.3125 26.125 15.6409 26.125 14.8125V4.13542C26.125 3.9669 26.0581 3.80527 25.9389 3.68611C25.8197 3.56695 25.6581 3.5 25.4896 3.5H4.13542C3.96689 3.5 3.80527 3.56695 3.68611 3.68611C3.56695 3.80527 3.5 3.96689 3.5 4.13542V25.4896C3.5 25.6581 3.56695 25.8197 3.68611 25.9389C3.80527 26.0581 3.9669 26.125 4.13542 26.125H14.8125C15.6409 26.125 16.3125 26.7966 16.3125 27.625C16.3125 28.4534 15.6409 29.125 14.8125 29.125H4.13542C3.17124 29.125 2.24656 28.742 1.56479 28.0602C0.883017 27.3784 0.5 26.4538 0.5 25.4896V4.13542C0.5 3.17124 0.883016 2.24656 1.56479 1.56479Z" fill="#033097"/>
<path fill-rule="evenodd" clip-rule="evenodd" d="M14.7361 20.5069C14.7361 17.3198 17.3198 14.7361 20.5069 14.7361C23.6941 14.7361 26.2778 17.3198 26.2778 20.5069C26.2778 21.3286 26.106 22.1102 25.7965 22.8177L28.5621 25.0302C29.209 25.5477 29.3139 26.4916 28.7964 27.1385C28.2789 27.7854 27.3349 27.8903 26.688 27.3728L23.9215 25.1596C22.9654 25.8625 21.7846 26.2778 20.5069 26.2778C17.3198 26.2778 14.7361 23.6941 14.7361 20.5069ZM20.5069 17.7361C18.9766 17.7361 17.7361 18.9766 17.7361 20.5069C17.7361 22.0372 18.9766 23.2778 20.5069 23.2778C22.0372 23.2778 23.2778 22.0372 23.2778 20.5069C23.2778 18.9766 22.0372 17.7361 20.5069 17.7361Z" fill="#033097"/>
<path d="M6.19446 9.11804C6.19446 8.28961 6.86603 7.61804 7.69446 7.61804H21.9306C22.759 7.61804 23.4306 8.28961 23.4306 9.11804C23.4306 9.94647 22.759 10.618 21.9306 10.618H7.69446C6.86603 10.618 6.19446 9.94647 6.19446 9.11804Z" fill="#033097"/>
<path d="M7.69446 13.3125C6.86603 13.3125 6.19446 13.9841 6.19446 14.8125C6.19446 15.6409 6.86603 16.3125 7.69446 16.3125H13.3889C14.2173 16.3125 14.8889 15.6409 14.8889 14.8125C14.8889 13.9841 14.2173 13.3125 13.3889 13.3125H7.69446Z" fill="#033097"/>
</svg>
