<svg width="33" height="30" viewBox="0 0 33 30" fill="none" xmlns="http://www.w3.org/2000/svg">
<path fill-rule="evenodd" clip-rule="evenodd" d="M10.3699 0.13038C10.543 0.0321049 10.7386 -0.0108173 10.9316 0.00230567C10.9542 0.000776878 10.977 8.52052e-08 11 8.52052e-08C11.2854 8.52052e-08 11.5429 0.119575 11.7251 0.311362L22.1051 5.46785L31.5063 0.13038C31.8158 -0.0453717 32.1955 -0.0433113 32.5031 0.13579C32.8108 0.314891 33 0.644027 33 1V23.4C33 23.7599 32.8067 24.092 32.4937 24.2696L22.6301 29.8696C22.457 29.9679 22.2614 30.0108 22.0684 29.9977C22.0458 29.9992 22.023 30 22 30C21.7146 30 21.4571 29.8804 21.2749 29.6886L10.8949 24.5322L1.49372 29.8696C1.18416 30.0454 0.804506 30.0433 0.49687 29.8642C0.189234 29.6851 0 29.356 0 29V6.6C0 6.24015 0.193345 5.90805 0.50628 5.73038L10.3699 0.13038ZM23 27.3598L31 22.8178V2.71767L23 7.2596V27.3598ZM21 7.15208V27.3189L12 22.8479V2.68111L21 7.15208ZM2 7.18218L10 2.64025V22.7404L2 27.2823V7.18218Z" fill="#033097"/>
</svg>
