<svg width="51" height="39" viewBox="0 0 51 39" fill="none" xmlns="http://www.w3.org/2000/svg">
<path d="M50.6741 5.55999C50.5656 4.87054 50.25 4.23036 49.7693 3.72435C49.2886 3.21834 48.6654 2.87039 47.9825 2.72666L39.6666 0.899159C38.7748 0.704667 37.8517 0.703937 36.9596 0.897018C36.0676 1.0901 35.2273 1.47249 34.4958 2.01833L9.91663 19.925L3.03163 19.6417C2.47816 19.6218 1.93252 19.7769 1.4722 20.0849C1.01189 20.3928 0.660305 20.838 0.467392 21.3571C0.274479 21.8763 0.250043 22.443 0.397556 22.9768C0.545069 23.5106 0.85703 23.9844 1.28913 24.3308L8.37246 29.8983C9.22246 30.9325 9.78913 30.7342 23.8566 23.07L25.1741 36.415C25.196 36.779 25.3208 37.1294 25.534 37.4253C25.7472 37.7212 26.0399 37.9506 26.3783 38.0867C26.6217 38.1829 26.8815 38.231 27.1433 38.2283C27.6702 38.2122 28.1734 38.0059 28.56 37.6475L31.9458 34.5592C32.2829 34.2468 32.5113 33.8348 32.5975 33.3833L35.7 16.525C40.7575 13.6917 45.5458 11.0283 48.96 9.08749C49.5708 8.7439 50.0622 8.22206 50.3685 7.59172C50.6748 6.96138 50.7814 6.25256 50.6741 5.55999ZM47.5575 6.62249C44.0158 8.63416 39.0575 11.4533 33.7308 14.3717L33.15 14.6975L29.8491 32.6467L27.7666 34.545L26.2083 18.5367L24.3241 19.5C14.1666 25.1667 10.7808 26.81 9.61913 27.32L3.52746 22.4892L10.7241 22.8008L36.2241 4.29916C36.6249 3.9995 37.0845 3.78782 37.5727 3.67797C38.061 3.56811 38.5669 3.56255 39.0575 3.66166L47.345 5.44666C47.4727 5.46981 47.5896 5.53315 47.6788 5.62744C47.768 5.72172 47.8248 5.84203 47.8408 5.97083C47.8699 6.09547 47.8581 6.2262 47.8071 6.3436C47.7561 6.461 47.6685 6.5588 47.5575 6.62249Z" fill="#033097"/>
</svg>
