<svg width="40" height="41" viewBox="0 0 40 41" fill="none" xmlns="http://www.w3.org/2000/svg">
<path fill-rule="evenodd" clip-rule="evenodd" d="M12 3.52338C14.0227 3.67732 15.9079 4.60603 17.2626 6.11587L19.5661 3.81131L21.0684 5.31369L18.4759 7.90619C18.9944 8.95806 19.2856 10.1417 19.2856 11.3933C19.2856 13.8604 20.1515 16.1257 21.5965 17.9011L23.9977 15.4988L25.5012 17.0012L23.0989 19.4035C24.9367 20.9013 27.2358 21.7177 29.6067 21.7144C30.3037 21.7144 30.9784 21.8047 31.6212 21.9737L33.3924 18.9062L35.2326 19.9688L33.5996 22.7971C34.7875 23.4933 35.7725 24.4882 36.4568 25.683C37.1411 26.8778 37.5007 28.2309 37.5 29.6077C37.5 30.7627 37.2514 31.8603 36.8051 32.8484L39.5868 34.4549L38.5243 36.2951L35.6778 34.6514C34.9378 35.5438 34.01 36.2617 32.9606 36.7541C31.9111 37.2465 30.7659 37.5012 29.6067 37.5C29.4048 37.5 29.2019 37.4979 29 37.4926V40.6875H26.875V37.3587C23.6858 37.0285 20.5854 36.1099 17.7311 34.6493L16.1076 37.4618L14.2674 36.3993L15.8803 33.6049C13.7873 32.3078 11.8873 30.7226 10.2362 28.8959L7.43869 31.6945L5.93631 30.1911L8.87094 27.2564C7.11181 24.9624 5.74696 22.3914 4.83237 19.6489L1.65019 20.5L1.09981 18.4473L4.24481 17.6047C3.74916 15.5718 3.49911 13.4868 3.5 11.3944C3.5 10.6708 3.59775 9.97062 3.77944 9.30444L0.84375 7.60763L1.90625 5.76737L4.622 7.33562C5.19065 6.38723 5.95202 5.56875 6.85688 4.93311C7.76175 4.29747 8.78995 3.85883 9.875 3.64556V0.3125H12V3.52338ZM11.3933 5.625C9.86346 5.625 8.39627 6.23273 7.3145 7.3145C6.23273 8.39627 5.625 9.86346 5.625 11.3933C5.625 24.6374 16.3626 35.375 29.6067 35.375C31.1228 35.3544 32.5699 34.7377 33.6348 33.6583C34.6997 32.5788 35.2967 31.1235 35.2967 29.6072C35.2967 28.0909 34.6997 26.6356 33.6348 25.5562C32.5699 24.4767 31.1228 23.86 29.6067 23.8394C22.7323 23.8394 17.1606 18.2666 17.1606 11.3933C17.1606 9.86383 16.5531 8.39696 15.4718 7.31525C14.3905 6.23354 12.9239 5.62556 11.3944 5.625H11.3933ZM10.9375 10.9375C10.6557 10.9375 10.3855 11.0494 10.1862 11.2487C9.98694 11.448 9.875 11.7182 9.875 12C9.875 12.2818 9.98694 12.552 10.1862 12.7513C10.3855 12.9506 10.6557 13.0625 10.9375 13.0625C11.2193 13.0625 11.4895 12.9506 11.6888 12.7513C11.8881 12.552 12 12.2818 12 12C12 11.7182 11.8881 11.448 11.6888 11.2487C11.4895 11.0494 11.2193 10.9375 10.9375 10.9375ZM7.75 12C7.75 11.1546 8.08582 10.3439 8.6836 9.7461C9.28137 9.14832 10.0921 8.8125 10.9375 8.8125C11.7829 8.8125 12.5936 9.14832 13.1914 9.7461C13.7892 10.3439 14.125 11.1546 14.125 12C14.125 12.8454 13.7892 13.6561 13.1914 14.2539C12.5936 14.8517 11.7829 15.1875 10.9375 15.1875C10.0921 15.1875 9.28137 14.8517 8.6836 14.2539C8.08582 13.6561 7.75 12.8454 7.75 12ZM19.4375 26.875C19.4375 26.5932 19.5494 26.323 19.7487 26.1237C19.948 25.9244 20.2182 25.8125 20.5 25.8125C20.7818 25.8125 21.052 25.9244 21.2513 26.1237C21.4506 26.323 21.5625 26.5932 21.5625 26.875C21.5625 27.1568 21.4506 27.427 21.2513 27.6263C21.052 27.8256 20.7818 27.9375 20.5 27.9375C20.2182 27.9375 19.948 27.8256 19.7487 27.6263C19.5494 27.427 19.4375 27.1568 19.4375 26.875ZM20.5 23.6875C19.6546 23.6875 18.8439 24.0233 18.2461 24.6211C17.6483 25.2189 17.3125 26.0296 17.3125 26.875C17.3125 27.7204 17.6483 28.5311 18.2461 29.1289C18.8439 29.7267 19.6546 30.0625 20.5 30.0625C21.3454 30.0625 22.1561 29.7267 22.7539 29.1289C23.3517 28.5311 23.6875 27.7204 23.6875 26.875C23.6875 26.0296 23.3517 25.2189 22.7539 24.6211C22.1561 24.0233 21.3454 23.6875 20.5 23.6875ZM15.1875 20.5C15.1875 21.0636 14.9636 21.6041 14.5651 22.0026C14.1666 22.4011 13.6261 22.625 13.0625 22.625C12.4989 22.625 11.9584 22.4011 11.5599 22.0026C11.1614 21.6041 10.9375 21.0636 10.9375 20.5C10.9375 19.9364 11.1614 19.3959 11.5599 18.9974C11.9584 18.5989 12.4989 18.375 13.0625 18.375C13.6261 18.375 14.1666 18.5989 14.5651 18.9974C14.9636 19.3959 15.1875 19.9364 15.1875 20.5ZM29 31.125C29.5636 31.125 30.1041 30.9011 30.5026 30.5026C30.9011 30.1041 31.125 29.5636 31.125 29C31.125 28.4364 30.9011 27.8959 30.5026 27.4974C30.1041 27.0989 29.5636 26.875 29 26.875C28.4364 26.875 27.8959 27.0989 27.4974 27.4974C27.0989 27.8959 26.875 28.4364 26.875 29C26.875 29.5636 27.0989 30.1041 27.4974 30.5026C27.8959 30.9011 28.4364 31.125 29 31.125Z" fill="#033097"/>
</svg>
