<svg width="38" height="26" viewBox="0 0 38 26" fill="none" xmlns="http://www.w3.org/2000/svg">
<path d="M10.8702 21.7867C10.4053 21.7874 9.95653 21.6214 9.6092 21.3205L0 12.9991L10.1428 4.21512C10.5209 3.90004 11.0108 3.74209 11.5071 3.77522C12.0035 3.80835 12.4667 4.02993 12.7971 4.39229C13.1275 4.75466 13.2988 5.22887 13.274 5.71295C13.2493 6.19704 13.0305 6.65233 12.6648 6.98092L5.71614 12.9991L12.1311 18.5529C12.4193 18.802 12.6229 19.1306 12.7149 19.4951C12.8069 19.8596 12.7828 20.2428 12.646 20.5937C12.5092 20.9445 12.2661 21.2466 11.9489 21.4597C11.6317 21.6728 11.2555 21.7868 10.8702 21.7867ZM27.8572 21.783L38 12.9991L28.3908 4.67762C28.0143 4.35183 27.5204 4.18507 27.0177 4.21404C26.515 4.24301 26.0447 4.46533 25.7103 4.8321C25.3759 5.19887 25.2047 5.68004 25.2344 6.16976C25.2642 6.65947 25.4924 7.11763 25.8689 7.44343L32.2839 12.9991L25.3352 19.0154C24.9585 19.3412 24.73 19.7994 24.7001 20.2893C24.6702 20.7792 24.8413 21.2606 25.1757 21.6276C25.5101 21.9946 25.9805 22.2172 26.4834 22.2463C26.9863 22.2755 27.4804 22.1088 27.8572 21.783ZM18.9734 24.4045L22.7715 2.20413C22.8201 1.9615 22.8182 1.71186 22.7661 1.46993C22.714 1.22801 22.6126 0.998719 22.468 0.795603C22.3234 0.592487 22.1384 0.419667 21.9241 0.287349C21.7098 0.155032 21.4704 0.0659008 21.2201 0.0252218C20.9698 -0.0154571 20.7137 -0.00685943 20.4669 0.0505073C20.22 0.107874 19.9875 0.212847 19.7831 0.359223C19.5786 0.5056 19.4063 0.690413 19.2764 0.902746C19.1464 1.11508 19.0615 1.35062 19.0266 1.59547L15.2285 23.7959C15.1799 24.0385 15.1818 24.2881 15.2339 24.5301C15.286 24.772 15.3874 25.0013 15.532 25.2044C15.6766 25.4075 15.8616 25.5803 16.0759 25.7127C16.2903 25.845 16.5296 25.9341 16.7799 25.9748C17.0302 26.0155 17.2863 26.0069 17.5331 25.9495C17.78 25.8921 18.0125 25.7872 18.2169 25.6408C18.4214 25.4944 18.5937 25.3096 18.7236 25.0973C18.8536 24.8849 18.9385 24.6494 18.9734 24.4045Z" fill="#033097"/>
</svg>
