<svg width="43" height="37" viewBox="0 0 43 37" fill="none" xmlns="http://www.w3.org/2000/svg">
<path d="M39.0312 0.96875H3.96875C3.12337 0.96875 2.31262 1.30457 1.71485 1.90235C1.11707 2.50012 0.78125 3.31087 0.78125 4.15625V32.8438C0.78125 33.6891 1.11707 34.4999 1.71485 35.0977C2.31262 35.6954 3.12337 36.0313 3.96875 36.0313H6.63828C6.94007 36.0321 7.23573 35.9462 7.49004 35.7837C7.74436 35.6212 7.94659 35.389 8.07266 35.1148C8.85246 33.4829 10.0782 32.1049 11.6082 31.1403C13.1383 30.1757 14.91 29.6638 16.7188 29.6638C18.5275 29.6638 20.2992 30.1757 21.8293 31.1403C23.3593 32.1049 24.585 33.4829 25.3648 35.1148C25.4909 35.389 25.6931 35.6212 25.9475 35.7837C26.2018 35.9462 26.4974 36.0321 26.7992 36.0313H39.0312C39.8766 36.0313 40.6874 35.6954 41.2852 35.0977C41.8829 34.4999 42.2188 33.6891 42.2188 32.8438V4.15625C42.2188 3.31087 41.8829 2.50012 41.2852 1.90235C40.6874 1.30457 39.8766 0.96875 39.0312 0.96875ZM11.9375 21.6875C11.9375 20.7419 12.2179 19.8175 12.7433 19.0312C13.2687 18.2449 14.0154 17.6321 14.889 17.2702C15.7627 16.9083 16.7241 16.8136 17.6515 16.9981C18.579 17.1826 19.4309 17.638 20.0996 18.3066C20.7683 18.9753 21.2236 19.8273 21.4081 20.7547C21.5926 21.6822 21.4979 22.6435 21.136 23.5172C20.7742 24.3909 20.1613 25.1376 19.3751 25.663C18.5888 26.1883 17.6644 26.4688 16.7188 26.4688C15.4523 26.4635 14.2392 25.9581 13.3437 25.0626C12.4482 24.167 11.9427 22.954 11.9375 21.6875ZM39.0312 32.8438H27.7555C26.4253 30.5553 24.4217 28.7326 22.018 27.6242C23.2244 26.55 24.0759 25.1345 24.4595 23.5653C24.8432 21.9961 24.7408 20.3474 24.1661 18.8377C23.5914 17.328 22.5714 16.0286 21.2414 15.1118C19.9114 14.195 18.3341 13.7041 16.7188 13.7041C15.1034 13.7041 13.5261 14.195 12.1961 15.1118C10.8661 16.0286 9.84611 17.328 9.27139 18.8377C8.69667 20.3474 8.59435 21.9961 8.97798 23.5653C9.36161 25.1345 10.2131 26.55 11.4195 27.6242C9.01577 28.7326 7.01224 30.5553 5.68203 32.8438H3.96875V4.15625H39.0312V32.8438ZM7.15625 12.125V8.9375C7.15625 8.51481 7.32416 8.10944 7.62305 7.81055C7.92194 7.51166 8.32731 7.34375 8.75 7.34375H34.25C34.6727 7.34375 35.0781 7.51166 35.377 7.81055C35.6758 8.10944 35.8438 8.51481 35.8438 8.9375V28.0625C35.8438 28.4852 35.6758 28.8906 35.377 29.1895C35.0781 29.4883 34.6727 29.6563 34.25 29.6563H31.0625C30.6398 29.6563 30.2344 29.4883 29.9355 29.1895C29.6367 28.8906 29.4688 28.4852 29.4688 28.0625C29.4688 27.6398 29.6367 27.2344 29.9355 26.9355C30.2344 26.6367 30.6398 26.4688 31.0625 26.4688H32.6562V10.5313H10.3438V12.125C10.3438 12.5477 10.1758 12.9531 9.87695 13.252C9.57806 13.5508 9.17269 13.7188 8.75 13.7188C8.32731 13.7188 7.92194 13.5508 7.62305 13.252C7.32416 12.9531 7.15625 12.5477 7.15625 12.125Z" fill="#033097"/>
</svg>
