<svg width="39" height="36" viewBox="0 0 39 36" fill="none" xmlns="http://www.w3.org/2000/svg">
<path d="M21.081 19.5C22.3491 19.5 23.5652 20.0037 24.4619 20.9004C25.3585 21.7971 25.8623 23.0132 25.8623 24.2812L25.8591 26.6671C26.1874 32.5209 21.6787 35.4407 13.3162 35.4407C4.98253 35.4407 0.375 32.5592 0.375 26.75V24.2812C0.375 23.0132 0.878738 21.7971 1.7754 20.9004C2.67205 20.0037 3.88818 19.5 5.15625 19.5H21.081ZM33.831 19.5C35.0991 19.5 36.3152 20.0037 37.2119 20.9004C38.1085 21.7971 38.6123 23.0132 38.6123 24.2812V25.9595C38.8991 31.2109 34.9147 33.8438 27.6329 33.8438C26.6448 33.8438 25.7156 33.7959 24.847 33.7003C25.7663 32.8618 26.4713 31.8152 26.903 30.6483L27.6329 30.6562C33.321 30.6562 35.5937 29.1533 35.4263 26.0471V24.2812C35.4263 23.8586 35.2584 23.4532 34.9595 23.1543C34.6607 22.8554 34.2553 22.6875 33.8326 22.6875H27.2552C26.9354 21.4528 26.2525 20.3424 25.2949 19.5H33.8326H33.831ZM21.081 22.6875H5.15625C4.73356 22.6875 4.32819 22.8554 4.0293 23.1543C3.73041 23.4532 3.5625 23.8586 3.5625 24.2812V26.7516C3.5625 30.4028 6.5205 32.2532 13.3162 32.2532C20.0865 32.2532 22.8788 30.4443 22.6748 26.7547V24.2812C22.6748 23.8586 22.5068 23.4532 22.208 23.1543C21.9091 22.8554 21.5037 22.6875 21.081 22.6875ZM13.125 0.375C15.2389 0.375 17.2662 1.21473 18.7609 2.70946C20.2556 4.20419 21.0953 6.23148 21.0953 8.34534C21.0953 10.4592 20.2556 12.4865 18.7609 13.9812C17.2662 15.476 15.2389 16.3157 13.125 16.3157C11.0111 16.3157 8.98385 15.476 7.48912 13.9812C5.99439 12.4865 5.15466 10.4592 5.15466 8.34534C5.15466 6.23148 5.99439 4.20419 7.48912 2.70946C8.98385 1.21473 11.0111 0.375 13.125 0.375ZM29.0625 3.5625C30.7533 3.5625 32.3748 4.23415 33.5703 5.42969C34.7659 6.62524 35.4375 8.24674 35.4375 9.9375C35.4375 11.6283 34.7659 13.2498 33.5703 14.4453C32.3748 15.6409 30.7533 16.3125 29.0625 16.3125C27.3717 16.3125 25.7502 15.6409 24.5547 14.4453C23.3592 13.2498 22.6875 11.6283 22.6875 9.9375C22.6875 8.24674 23.3592 6.62524 24.5547 5.42969C25.7502 4.23415 27.3717 3.5625 29.0625 3.5625ZM13.125 3.5625C12.4969 3.5625 11.875 3.68621 11.2947 3.92657C10.7144 4.16693 10.1871 4.51923 9.74302 4.96336C9.29889 5.40749 8.94659 5.93475 8.70623 6.51503C8.46587 7.09531 8.34216 7.71725 8.34216 8.34534C8.34216 8.97344 8.46587 9.59538 8.70623 10.1757C8.94659 10.7559 9.29889 11.2832 9.74302 11.7273C10.1871 12.1715 10.7144 12.5238 11.2947 12.7641C11.875 13.0045 12.4969 13.1282 13.125 13.1282C14.3935 13.1282 15.61 12.6243 16.507 11.7273C17.4039 10.8304 17.9078 9.61383 17.9078 8.34534C17.9078 7.07686 17.4039 5.86032 16.507 4.96336C15.61 4.06641 14.3935 3.5625 13.125 3.5625ZM29.0625 6.75C28.2171 6.75 27.4064 7.08583 26.8086 7.6836C26.2108 8.28137 25.875 9.09212 25.875 9.9375C25.875 10.7829 26.2108 11.5936 26.8086 12.1914C27.4064 12.7892 28.2171 13.125 29.0625 13.125C29.9079 13.125 30.7186 12.7892 31.3164 12.1914C31.9142 11.5936 32.25 10.7829 32.25 9.9375C32.25 9.09212 31.9142 8.28137 31.3164 7.6836C30.7186 7.08583 29.9079 6.75 29.0625 6.75Z" fill="#033097"/>
</svg>
