<svg width="37" height="37" viewBox="0 0 37 37" fill="none" xmlns="http://www.w3.org/2000/svg">
<path d="M14.675 3.20002C14.3369 3.20002 14.0126 3.33435 13.7735 3.57346C13.5344 3.81257 13.4 4.13687 13.4 4.47502V12.1276C13.4 12.4657 13.2657 12.79 13.0266 13.0291C12.7875 13.2682 12.4632 13.4026 12.125 13.4026H4.47502C4.13687 13.4026 3.81257 13.5369 3.57346 13.776C3.33435 14.0151 3.20002 14.3394 3.20002 14.6776V22.3276C3.20002 22.6657 3.33435 22.99 3.57346 23.2291C3.81257 23.4682 4.13687 23.6026 4.47502 23.6026H12.125C12.4632 23.6026 12.7875 23.7369 13.0266 23.976C13.2657 24.2151 13.4 24.5394 13.4 24.8776V32.5276C13.4 32.8657 13.5344 33.19 13.7735 33.4291C14.0126 33.6682 14.3369 33.8026 14.675 33.8026H22.325C22.6632 33.8026 22.9875 33.6682 23.2266 33.4291C23.4657 33.19 23.6 32.8657 23.6 32.5276V24.8776C23.6 24.5394 23.7344 24.2151 23.9735 23.976C24.2126 23.7369 24.5369 23.6026 24.875 23.6026H32.525C32.8632 23.6026 33.1875 23.4682 33.4266 23.2291C33.6657 22.99 33.8 22.6657 33.8 22.3276V14.6776C33.8 14.3394 33.6657 14.0151 33.4266 13.776C33.1875 13.5369 32.8632 13.4026 32.525 13.4026H24.875C24.5369 13.4026 24.2126 13.2682 23.9735 13.0291C23.7344 12.79 23.6 12.4657 23.6 12.1276V4.47502C23.6 4.13687 23.4657 3.81257 23.2266 3.57346C22.9875 3.33435 22.6632 3.20002 22.325 3.20002H14.675ZM10.85 4.47502C10.85 3.46057 11.253 2.48767 11.9703 1.77034C12.6877 1.05301 13.6606 0.650024 14.675 0.650024H22.325C23.3395 0.650024 24.3124 1.05301 25.0297 1.77034C25.747 2.48767 26.15 3.46057 26.15 4.47502V10.8526H32.525C33.5395 10.8526 34.5124 11.2556 35.2297 11.9729C35.947 12.6902 36.35 13.6631 36.35 14.6776V22.3276C36.35 23.342 35.947 24.3149 35.2297 25.0323C34.5124 25.7496 33.5395 26.1526 32.525 26.1526H26.15V32.5276C26.15 33.542 25.747 34.5149 25.0297 35.2323C24.3124 35.9496 23.3395 36.3526 22.325 36.3526H14.675C13.6606 36.3526 12.6877 35.9496 11.9703 35.2323C11.253 34.5149 10.85 33.542 10.85 32.5276V26.1526H4.47502C3.46057 26.1526 2.48767 25.7496 1.77034 25.0323C1.05301 24.3149 0.650024 23.342 0.650024 22.3276V14.6776C0.650024 13.6631 1.05301 12.6902 1.77034 11.9729C2.48767 11.2556 3.46057 10.8526 4.47502 10.8526H10.85V4.47502Z" fill="#033097"/>
</svg>
