<svg width="39" height="35" viewBox="0 0 39 35" fill="none" xmlns="http://www.w3.org/2000/svg">
<path fill-rule="evenodd" clip-rule="evenodd" d="M21.3281 1.81034C21.3281 1.33021 21.1355 0.869743 20.7927 0.530238C20.4498 0.190732 19.9849 0 19.5 0C19.0151 0 18.5501 0.190732 18.2073 0.530238C17.8645 0.869743 17.6719 1.33021 17.6719 1.81034V4.82759H15.2733C14.5299 4.82759 13.8011 5.02069 13.1551 5.38276L10.0156 7.16172C9.92282 7.21427 9.81775 7.24174 9.71089 7.24138H4.26545C3.78059 7.24138 3.3156 7.43211 2.97275 7.77162C2.62991 8.11112 2.4373 8.57159 2.4373 9.05172C2.4373 9.53186 2.62991 9.99233 2.97275 10.3318C3.3156 10.6713 3.78059 10.8621 4.26545 10.8621H5.30871L0.160649 22.1876C0.00859142 22.5226 -0.036937 22.8956 0.0301105 23.2569C0.0971581 23.6182 0.273609 23.9507 0.536029 24.2103L1.82792 22.931L0.536029 24.2103V24.2128L0.540904 24.2176L0.545779 24.2224L0.560404 24.2369L0.599404 24.2731L0.709093 24.3697C1.22173 24.7951 1.78294 25.1597 2.38124 25.4559C3.91616 26.1969 5.60485 26.5722 7.31236 26.5517C9.45738 26.5517 11.1052 26.0207 12.2435 25.4559C12.8418 25.1597 13.403 24.7951 13.9156 24.3697L14.0253 24.2731L14.0643 24.2369L14.0789 24.2224L14.0838 24.2176L14.0862 24.2128L12.7968 22.931L14.0887 24.2103C14.3511 23.9507 14.5276 23.6182 14.5946 23.2569C14.6617 22.8956 14.6161 22.5226 14.4641 22.1876L9.31601 10.8621H9.71089C10.4543 10.8621 11.1832 10.669 11.8291 10.3069L14.9711 8.52793C15.0631 8.47579 15.1673 8.44833 15.2733 8.44828H17.6719V31.3793H11.578C11.0932 31.3793 10.6282 31.57 10.2853 31.9095C9.94249 32.2491 9.74989 32.7095 9.74989 33.1897C9.74989 33.6698 9.94249 34.1303 10.2853 34.4698C10.6282 34.8093 11.0932 35 11.578 35H27.422C27.9068 35 28.3718 34.8093 28.7147 34.4698C29.0575 34.1303 29.2501 33.6698 29.2501 33.1897C29.2501 32.7095 29.0575 32.2491 28.7147 31.9095C28.3718 31.57 27.9068 31.3793 27.422 31.3793H21.3281V8.44828H23.7267C23.8327 8.44833 23.9369 8.47579 24.0289 8.52793L27.1733 10.3045C27.8168 10.6714 28.5457 10.8621 29.2891 10.8621H29.684L24.5359 22.1876C24.3839 22.5226 24.3383 22.8956 24.4054 23.2569C24.4724 23.6182 24.6489 23.9507 24.9113 24.2103L26.2032 22.931L24.9113 24.2103V24.2128L24.9162 24.2176L24.9211 24.2224L24.9357 24.2369L24.9747 24.2731L25.0844 24.3697C25.5971 24.7951 26.1583 25.1596 26.7565 25.4559C28.2914 26.1969 29.9801 26.5722 31.6876 26.5517C33.8327 26.5517 35.4804 26.0207 36.6188 25.4559C37.2171 25.1597 37.7783 24.7952 38.2909 24.3697L38.4006 24.2731L38.425 24.249L38.4396 24.2369L38.4542 24.2224L38.4591 24.2176L38.4615 24.2128L37.1721 22.931L38.464 24.2103C38.7264 23.9507 38.9028 23.6182 38.9699 23.2569C39.0369 22.8956 38.9914 22.5226 38.8393 22.1876L33.6937 10.8621H34.7346C35.2194 10.8621 35.6844 10.6713 36.0272 10.3318C36.3701 9.99233 36.5627 9.53186 36.5627 9.05172C36.5627 8.57159 36.3701 8.11112 36.0272 7.77162C35.6844 7.43211 35.2194 7.24138 34.7346 7.24138H29.2891C29.1831 7.24132 29.0789 7.21386 28.9869 7.16172L25.8424 5.38517C25.1989 5.0206 24.4705 4.82842 23.7291 4.82759H21.3281V1.81034ZM4.13138 22.2721C4.82608 22.5979 5.88153 22.931 7.31236 22.931C8.74319 22.931 9.79864 22.5979 10.4933 22.2721L7.31236 15.2721L4.13138 22.2721ZM28.5067 22.2721C29.2014 22.5979 30.2568 22.931 31.6876 22.931C33.1185 22.931 34.1739 22.5979 34.8686 22.2721L31.6876 15.2721L28.5067 22.2721Z" fill="#033097"/>
</svg>
