<svg width="29" height="34" viewBox="0 0 29 34" fill="none" xmlns="http://www.w3.org/2000/svg">
<path fill-rule="evenodd" clip-rule="evenodd" d="M7.03734 30.0014L14.5 34L21.9627 30.0014C24.0901 28.8639 25.8692 27.1658 27.109 25.0892C28.3489 23.0126 29.0026 20.636 29 18.2143V2.42857C28.9994 1.78467 28.7445 1.16733 28.2915 0.712022C27.8384 0.256716 27.2241 0.000642936 26.5833 0H2.41667C1.77593 0.000642936 1.16161 0.256716 0.708539 0.712022C0.255465 1.16733 0.000647279 1.78467 7.49478e-06 2.42857V18.2143C-0.00255328 20.636 0.651147 23.0126 1.89095 25.0892C3.13076 27.1658 4.90986 28.8639 7.03734 30.0014ZM2.41667 18.2143V2.42857H26.5833V18.2143C26.5856 20.196 26.0506 22.1408 25.036 23.8401C24.0214 25.5394 22.5655 26.9288 20.8244 27.8594L14.5 31.2472L8.17559 27.8581C6.43471 26.9277 4.97885 25.5384 3.96426 23.8394C2.94967 22.1404 2.41467 20.1958 2.41667 18.2143ZM15 5V28L20.375 25.257C21.7723 24.544 22.9405 23.4823 23.7551 22.1852C24.5697 20.888 24.9999 19.4041 25 17.8918V5H15Z" fill="#033097"/>
</svg>
