<svg width="22" height="18" viewBox="0 0 22 18" fill="none" xmlns="http://www.w3.org/2000/svg">
<path d="M18.6602 0.990013C16.0202 -0.809987 12.7602 0.0300133 11.0002 2.09001C9.24021 0.0300133 5.98021 -0.819987 3.34021 0.990013C1.94021 1.95001 1.06021 3.57001 1.00021 5.28001C0.860213 9.16001 4.30021 12.27 9.55021 17.04L9.65021 17.13C10.4102 17.82 11.5802 17.82 12.3402 17.12L12.4502 17.02C17.7002 12.26 21.1302 9.15001 21.0002 5.27001C20.9402 3.57001 20.0602 1.95001 18.6602 0.990013ZM11.1002 15.55L11.0002 15.65L10.9002 15.55C6.14021 11.24 3.00021 8.39001 3.00021 5.50001C3.00021 3.50001 4.50021 2.00001 6.50021 2.00001C8.04021 2.00001 9.54021 2.99001 10.0702 4.36001H11.9402C12.4602 2.99001 13.9602 2.00001 15.5002 2.00001C17.5002 2.00001 19.0002 3.50001 19.0002 5.50001C19.0002 8.39001 15.8602 11.24 11.1002 15.55Z" fill="#033097"/>
</svg>
