<svg width="154" height="41" viewBox="0 0 154 41" fill="none" xmlns="http://www.w3.org/2000/svg">
<path fill-rule="evenodd" clip-rule="evenodd" d="M32.1637 0.0536962C32.0065 -0.0179039 31.8252 -0.0178985 31.668 0.0537109L0.341632 14.3243C0.133828 14.4189 0.000612208 14.6233 2.10453e-06 14.8485C-0.000608046 15.0736 0.131498 15.2787 0.338786 15.3745L8.24934 19.0286C8.24893 19.0374 8.24872 19.0463 8.24872 19.0553V28.7069C8.24872 28.8424 8.29608 28.9671 8.37544 29.0659C8.42066 29.221 8.53123 29.3569 8.69152 29.4309L31.6652 40.0414C31.824 40.1147 32.0077 40.1147 32.1665 40.0414L40.6426 36.1267L46.0219 39.0788V35.5988H53.0972L47.616 32.906L55.1402 29.4309C55.2972 29.3584 55.4065 29.2265 55.4534 29.0753C55.5374 28.9751 55.5879 28.8468 55.5879 28.7069V19.0553C55.5879 19.0463 55.5877 19.0374 55.5873 19.0286L62.821 15.6871V25.0176C62.821 25.3376 63.0849 25.5971 63.4105 25.5971C63.7361 25.5971 64 25.3376 64 25.0176V14.889C64 14.5883 63.767 14.3411 63.4688 14.3123L32.1637 0.0536962ZM46.2725 32.246L54.4089 28.4882V19.5729L32.4014 29.741V38.6524L39.3756 35.4313L35.7431 33.4378L42.556 30.4201L46.2725 32.246ZM9.4277 28.4904V19.5729L15.5527 22.4022L15.5538 22.4026L31.2224 29.6448V38.5564L9.4277 28.4904ZM47.7795 21.3546L47.7814 21.3538L61.8531 14.8537L31.9159 1.21815L1.98348 14.8537L16.0553 21.3538L16.0569 21.3545L31.9159 28.6847L47.7795 21.3546Z" fill="white"/>
<path d="M75.384 28.192C74.888 28.192 74.504 28.056 74.232 27.784C73.976 27.496 73.848 27.104 73.848 26.608V12.64C73.848 12.128 73.984 11.744 74.256 11.488C74.528 11.216 74.912 11.08 75.408 11.08H81.192C83.048 11.08 84.48 11.528 85.488 12.424C86.496 13.304 87 14.544 87 16.144C87 17.184 86.768 18.08 86.304 18.832C85.856 19.584 85.2 20.16 84.336 20.56C83.472 20.96 82.424 21.16 81.192 21.16L81.408 20.8H82.2C82.856 20.8 83.424 20.96 83.904 21.28C84.4 21.6 84.832 22.104 85.2 22.792L87 26.128C87.192 26.464 87.28 26.792 87.264 27.112C87.248 27.432 87.128 27.696 86.904 27.904C86.68 28.096 86.352 28.192 85.92 28.192C85.488 28.192 85.136 28.104 84.864 27.928C84.592 27.736 84.352 27.448 84.144 27.064L81.72 22.6C81.432 22.056 81.088 21.696 80.688 21.52C80.304 21.328 79.808 21.232 79.2 21.232H76.92V26.608C76.92 27.104 76.792 27.496 76.536 27.784C76.28 28.056 75.896 28.192 75.384 28.192ZM76.92 18.952H80.664C81.768 18.952 82.6 18.728 83.16 18.28C83.736 17.816 84.024 17.128 84.024 16.216C84.024 15.32 83.736 14.648 83.16 14.2C82.6 13.736 81.768 13.504 80.664 13.504H76.92V18.952ZM97.3331 28.24C96.1651 28.24 95.1331 28.088 94.2371 27.784C93.3571 27.48 92.6131 27.032 92.0051 26.44C91.3971 25.832 90.9411 25.08 90.6371 24.184C90.3331 23.288 90.1811 22.248 90.1811 21.064V12.448C90.1811 11.92 90.3091 11.528 90.5651 11.272C90.8371 11.016 91.2211 10.888 91.7171 10.888C92.2131 10.888 92.5891 11.016 92.8451 11.272C93.1171 11.528 93.2531 11.92 93.2531 12.448V21.04C93.2531 22.56 93.5971 23.704 94.2851 24.472C94.9891 25.224 96.0051 25.6 97.3331 25.6C98.6611 25.6 99.6691 25.224 100.357 24.472C101.045 23.704 101.389 22.56 101.389 21.04V12.448C101.389 11.92 101.517 11.528 101.773 11.272C102.045 11.016 102.429 10.888 102.925 10.888C103.405 10.888 103.773 11.016 104.029 11.272C104.301 11.528 104.437 11.92 104.437 12.448V21.064C104.437 22.632 104.165 23.952 103.621 25.024C103.093 26.096 102.301 26.904 101.245 27.448C100.189 27.976 98.8851 28.24 97.3331 28.24Z" fill="white"/>
<path d="M109.652 28C109.124 28 108.716 27.864 108.428 27.592C108.156 27.304 108.02 26.896 108.02 26.368V12.712C108.02 12.184 108.156 11.784 108.428 11.512C108.716 11.224 109.124 11.08 109.652 11.08H115.412C116.596 11.08 117.604 11.256 118.436 11.608C119.268 11.96 119.9 12.464 120.332 13.12C120.78 13.776 121.004 14.56 121.004 15.472C121.004 16.496 120.708 17.36 120.116 18.064C119.524 18.768 118.716 19.24 117.692 19.48V19.12C118.876 19.296 119.796 19.744 120.452 20.464C121.108 21.184 121.436 22.12 121.436 23.272C121.436 24.776 120.924 25.944 119.9 26.776C118.892 27.592 117.484 28 115.676 28H109.652ZM110.972 25.672H115.292C116.38 25.672 117.18 25.464 117.692 25.048C118.204 24.616 118.46 23.976 118.46 23.128C118.46 22.264 118.204 21.624 117.692 21.208C117.18 20.792 116.38 20.584 115.292 20.584H110.972V25.672ZM110.972 18.256H114.884C115.94 18.256 116.724 18.056 117.236 17.656C117.764 17.24 118.028 16.632 118.028 15.832C118.028 15.032 117.764 14.432 117.236 14.032C116.724 13.616 115.94 13.408 114.884 13.408H110.972V18.256ZM128.425 28.192C128.073 28.192 127.769 28.104 127.513 27.928C127.257 27.736 127.097 27.488 127.033 27.184C126.985 26.864 127.065 26.504 127.273 26.104L129.193 22.36V23.32L122.761 12.928C122.553 12.576 122.465 12.248 122.497 11.944C122.545 11.624 122.697 11.368 122.953 11.176C123.209 10.984 123.529 10.888 123.913 10.888C124.313 10.888 124.617 10.984 124.825 11.176C125.049 11.368 125.265 11.64 125.473 11.992L130.681 20.56H130.129L134.473 12.016C134.633 11.712 134.817 11.448 135.025 11.224C135.249 11 135.577 10.888 136.009 10.888C136.377 10.888 136.681 10.976 136.921 11.152C137.177 11.328 137.337 11.576 137.401 11.896C137.465 12.2 137.385 12.56 137.161 12.976L129.985 27.064C129.841 27.352 129.649 27.616 129.409 27.856C129.185 28.08 128.857 28.192 128.425 28.192ZM145.132 28.24C143.964 28.24 142.876 28.112 141.868 27.856C140.876 27.584 140.004 27.2 139.252 26.704C138.948 26.512 138.74 26.288 138.628 26.032C138.532 25.76 138.508 25.504 138.556 25.264C138.62 25.008 138.74 24.792 138.916 24.616C139.092 24.44 139.316 24.336 139.588 24.304C139.86 24.272 140.156 24.352 140.476 24.544C140.892 24.784 141.332 24.984 141.796 25.144C142.26 25.304 142.748 25.424 143.26 25.504C143.788 25.584 144.332 25.624 144.892 25.624C145.788 25.624 146.516 25.528 147.076 25.336C147.652 25.144 148.076 24.856 148.348 24.472C148.636 24.088 148.78 23.6 148.78 23.008C148.78 22.208 148.524 21.616 148.012 21.232C147.5 20.832 146.7 20.632 145.612 20.632H142.612C142.196 20.632 141.876 20.528 141.652 20.32C141.428 20.112 141.316 19.808 141.316 19.408C141.316 19.024 141.428 18.728 141.652 18.52C141.876 18.312 142.196 18.208 142.612 18.208H145.204C146.26 18.208 147.044 18.016 147.556 17.632C148.084 17.248 148.348 16.664 148.348 15.88C148.348 15.384 148.22 14.952 147.964 14.584C147.724 14.216 147.348 13.936 146.836 13.744C146.34 13.536 145.7 13.432 144.916 13.432C144.228 13.432 143.532 13.52 142.828 13.696C142.14 13.856 141.508 14.096 140.932 14.416C140.596 14.608 140.292 14.688 140.02 14.656C139.764 14.608 139.548 14.496 139.372 14.32C139.212 14.128 139.108 13.904 139.06 13.648C139.012 13.392 139.044 13.136 139.156 12.88C139.268 12.624 139.468 12.408 139.756 12.232C140.524 11.768 141.38 11.424 142.324 11.2C143.284 10.96 144.26 10.84 145.252 10.84C146.628 10.84 147.764 11.04 148.66 11.44C149.572 11.824 150.252 12.368 150.7 13.072C151.164 13.76 151.396 14.56 151.396 15.472C151.396 16.496 151.092 17.36 150.484 18.064C149.892 18.768 149.092 19.24 148.084 19.48V19.12C149.252 19.296 150.164 19.744 150.82 20.464C151.476 21.184 151.804 22.12 151.804 23.272C151.804 24.264 151.564 25.136 151.084 25.888C150.604 26.64 149.868 27.224 148.876 27.64C147.9 28.04 146.652 28.24 145.132 28.24Z" fill="black"/>
</svg>
