<svg width="24" height="24" viewBox="0 0 24 24" fill="none" xmlns="http://www.w3.org/2000/svg">
<path d="M11.9999 4.48001C11.2444 4.48001 10.5059 4.70405 9.87766 5.1238C9.24946 5.54354 8.75984 6.14015 8.47071 6.83816C8.18159 7.53617 8.10594 8.30425 8.25333 9.04526C8.40073 9.78626 8.76455 10.4669 9.29879 11.0012C9.83302 11.5354 10.5137 11.8992 11.2547 12.0466C11.9957 12.194 12.7638 12.1184 13.4618 11.8292C14.1598 11.5401 14.7564 11.0505 15.1761 10.4223C15.5959 9.79409 15.8199 9.05554 15.8199 8.30001C15.8199 7.28688 15.4175 6.31525 14.7011 5.59886C13.9847 4.88247 13.0131 4.48001 11.9999 4.48001ZM11.9999 10.7867C11.5081 10.7867 11.0273 10.6408 10.6184 10.3676C10.2095 10.0944 9.89076 9.706 9.70255 9.25162C9.51434 8.79724 9.4651 8.29725 9.56105 7.81489C9.657 7.33252 9.89383 6.88944 10.2416 6.54167C10.5894 6.19391 11.0324 5.95707 11.5148 5.86113C11.9972 5.76518 12.4972 5.81442 12.9515 6.00263C13.4059 6.19084 13.7943 6.50956 14.0675 6.91849C14.3408 7.32742 14.4866 7.8082 14.4866 8.30001C14.4848 8.95836 14.2221 9.58914 13.7559 10.054C13.2898 10.5189 12.6583 10.78 11.9999 10.78V10.7867Z" fill="#033097"/>
<path d="M12.0001 1.33334C9.92353 1.33508 7.93205 2.15847 6.4606 3.62367C4.98915 5.08888 4.1573 7.07683 4.14673 9.15334C4.14673 12.2667 5.8934 14.8733 7.1734 16.7733L7.40673 17.12C8.68025 18.9658 10.0464 20.7458 11.5001 22.4533L12.0067 23.0467L12.5134 22.4533C13.9668 20.7457 15.333 18.9656 16.6067 17.12L16.8401 16.7667C18.1134 14.8667 19.8601 12.2667 19.8601 9.15334C19.8495 7.07568 19.0167 5.08672 17.5438 3.62132C16.0709 2.15593 14.0778 1.33332 12.0001 1.33334ZM15.7267 16L15.4867 16.3533C14.3401 18.0733 12.8201 20 12.0001 20.9533C11.2134 20 9.66006 18.0733 8.5134 16.3533L8.28006 16C7.10006 14.24 5.48006 11.8333 5.48006 9.12668C5.48006 8.27046 5.64871 7.42262 5.97637 6.63158C6.30403 5.84054 6.78429 5.12178 7.38973 4.51634C7.99516 3.9109 8.71392 3.43064 9.50497 3.10298C10.296 2.77532 11.1438 2.60668 12.0001 2.60668C12.8563 2.60668 13.7041 2.77532 14.4952 3.10298C15.2862 3.43064 16.005 3.9109 16.6104 4.51634C17.2158 5.12178 17.6961 5.84054 18.0238 6.63158C18.3514 7.42262 18.5201 8.27046 18.5201 9.12668C18.5201 11.86 16.9067 14.2667 15.7267 16Z" fill="#033097"/>
</svg>
