<svg width="253" height="164" viewBox="0 0 253 164" fill="none" xmlns="http://www.w3.org/2000/svg">
<path d="M225.996 162.566L36.4562 131.254C35.0091 131.015 33.7163 130.211 32.8621 129.019C32.0079 127.827 31.6623 126.344 31.9014 124.897L51.6328 5.45609C51.8719 4.00905 52.676 2.7162 53.8682 1.86202C55.0605 1.00784 56.5432 0.662289 57.9903 0.901338L247.53 32.213C248.977 32.4521 250.27 33.2561 251.124 34.4484C251.978 35.6406 252.324 37.1234 252.085 38.5704L232.353 158.011C232.114 159.458 231.31 160.751 230.118 161.605C228.926 162.459 227.443 162.805 225.996 162.566Z" fill="#FEFCF5"/>
<g opacity="0.5">
<path opacity="0.5" d="M225.996 162.566L36.4562 131.254C35.0091 131.015 33.7163 130.211 32.8621 129.019C32.0079 127.827 31.6623 126.344 31.9014 124.897L247.53 32.2131C248.977 32.4522 250.27 33.2563 251.124 34.4485C251.978 35.6407 252.324 37.1235 252.085 38.5706L232.353 158.011C232.114 159.458 231.31 160.751 230.118 161.605C228.926 162.46 227.443 162.805 225.996 162.566Z" fill="url(#paint0_linear_375_4261)"/>
</g>
<path d="M118.164 98.3773L146.108 102.994L141.492 130.938L113.547 126.322L118.164 98.3773ZM154.933 104.452L182.878 109.068L178.261 137.013L150.317 132.396L154.933 104.452ZM190.73 110.365L218.674 114.982L214.058 142.926L186.113 138.31L190.73 110.365Z" fill="#E3EFF9"/>
<path d="M139.116 43.6076L139.383 43.6882C139.385 43.6764 139.316 43.6527 139.116 43.6076ZM208.221 55.0113C208.245 55.0153 208.268 55.0192 208.282 55.0093C208.245 55.0153 208.233 55.0133 208.221 55.0113ZM149.511 46.7747C149.475 46.7688 149.45 46.7768 149.426 46.7728L149.511 46.7747Z" fill="#E6F1FA"/>
<path d="M135.582 44.3518L143.976 45.909L149.487 46.7708C150.343 46.7537 151.812 47.1548 152.828 47.2008L153.194 47.3465C153.557 47.3579 153.953 47.3988 154.289 47.5031L154.261 47.5229C154.781 47.5478 155.356 47.6794 155.611 47.685L155.607 47.7087L156.224 47.8106L156.1 47.8266C157.001 47.9024 157.914 48.0532 158.717 48.2102L158.665 48.0798C160.377 48.4845 161.053 48.3769 162.573 48.7621L162.546 48.7818C164.56 48.8343 165.634 49.487 167.705 49.5611C167.462 49.5575 167.816 49.6281 167.775 49.6578C168.727 49.7908 169.716 49.9297 169.759 49.7419C170.447 49.8556 170.307 49.8933 170.376 49.9901C170.39 49.907 170.989 49.9694 171.522 50.0576L171.279 50.054L172.827 50.2731L172.558 50.0581C173.357 50.2388 172.726 50.293 173.515 50.3868L173.527 50.2425C174.638 50.4504 175.267 50.7736 176.315 51.0686C180.812 51.8725 185.71 52.3161 189.844 53.2549L190.014 53.4049C190.072 53.5728 191.204 53.3577 191.333 53.5374L191.819 53.5446C191.957 53.5918 192.236 53.6744 191.981 53.6689C192.43 53.7552 192.459 53.7235 192.774 53.7389L193.232 53.9121C195 54.2772 196.538 54.3363 198.404 54.6933C200.626 55.2554 204.878 55.775 207.337 56.0838C210.816 56.4148 214.687 57.688 218.23 58.0051C218.344 58.0484 218.649 58.0499 218.641 58.0243L221.839 58.577C221.839 58.577 237.403 61.2091 225.775 57.9844L225.864 57.9626C224.123 57.5895 223.01 57.3935 221.772 57.3597C221.616 57.1267 220.329 57.0969 219.936 56.971L219.973 56.965C218.88 56.9428 217.787 56.4819 216.733 56.4419C216.771 56.4359 216.804 56.3806 217.041 56.4198C216.29 56.32 215.251 56.197 215.211 56.0686C213.402 55.8063 210.909 55.3336 209.727 55.3333L209.816 55.3115C209.144 55.3223 208.958 55.1941 208.213 55.1319C208.18 55.1142 208.122 55.0925 208.136 55.0826C207.405 55.0836 206.045 54.7615 205.456 54.7129L205.434 54.624L204.006 54.4126L204.54 54.5008C204.315 54.6829 203.496 54.1821 202.429 54.152C201.46 53.9676 200.397 54.2794 199.405 54.0179C198.911 54.0582 199.859 53.9225 199.122 53.886C199.118 53.7634 199.466 53.8696 199.304 53.7454C198.582 53.6871 198.173 53.4367 197.293 53.3767L197.271 53.2878C196.117 53.2677 195.156 52.8164 194.383 52.8472C193.209 52.7263 193.643 52.4569 192.406 52.4231L191.951 52.2261C191.433 52.1162 191.572 52.3097 190.989 52.1524C191.036 52.0871 190.287 51.9755 190.617 51.9691C189.332 51.635 187.944 51.6982 186.258 51.2125C185.879 51.296 185.015 51.068 184.712 51.1277C184.675 51.0606 182.982 50.8298 183.979 50.8482C184.064 50.85 184.218 50.8755 184.214 50.8992L184.346 50.8358C183.389 50.5071 182.551 50.6367 181.585 50.4405C181.865 50.5112 182.245 50.5739 181.986 50.5921L181.087 50.4313L181.288 50.3915L179.956 50.1226L180.13 50.2489C179.485 50.0937 179.274 49.9003 178.517 49.9093C178.173 49.9256 179.114 50.1298 178.42 50.0517C177.552 49.8474 176.251 49.535 175.128 49.3251C175.227 49.4633 174.911 49.3867 174.599 49.3595L174.577 49.2706C173.371 49.1933 174.169 49.0083 172.979 48.9092L173.108 48.8695L172.768 49.0083C171.671 49.0099 172.228 48.7364 171.003 48.7777C171.479 48.8442 171.209 49.0066 170.621 48.8731L170.777 48.8136C170.453 48.7844 170.341 48.8023 170.131 48.7433C170.329 48.7272 170.246 48.6404 169.795 48.5659L170.123 48.4983L169.208 48.5055C168.536 48.297 167.425 48.2353 167.172 48.0717C167.172 48.0717 165.711 47.7694 165.357 47.845C165.667 47.8109 164.866 47.6421 165.107 47.5844C164.712 47.6166 163.574 47.5017 163.139 47.3323L163.224 47.3342C161.583 46.9412 160.353 47.0062 158.881 46.6289C158.932 46.7593 158.161 46.5588 158.329 46.7206C156.768 46.5845 155.551 45.9814 154.925 46.3045C154.21 46.2106 154.111 46.0724 153.759 45.9899L153.929 45.9936C152.618 45.8137 152.227 45.749 151.244 45.5745C150.764 45.5317 150.636 45.7177 149.768 45.5134C150.064 45.4892 149.706 45.4423 149.374 45.3875C149.59 45.4109 149.653 45.3969 149.236 45.2671C149.173 45.281 149.076 45.2772 148.991 45.2753C148.991 45.2753 148.969 45.2596 148.983 45.2497C148.433 45.1833 148.524 45.2226 148.771 45.2756C148.758 45.2855 148.779 45.3013 148.847 45.3368C148.293 45.1479 147.267 45.0881 147.206 44.9439C145.539 44.7051 144.355 44.6436 142.983 44.4657C142.841 44.3691 143.169 44.3746 143.578 44.4056L142.602 44.2686C142.629 44.1757 143.169 44.3014 143.467 44.3385C142.342 43.9943 141.07 44.1009 139.729 43.7332L139.433 43.7573L139.35 43.7436C139.344 43.7792 139.038 43.7895 138.832 43.7799C138.656 43.6655 138.875 43.5921 138.211 43.4824C137.691 43.3112 136.699 43.2691 135.991 43.2009C136.369 43.2755 136.219 43.2994 136.07 43.3115C135.738 43.2567 135.55 43.1403 135.295 43.1347L135.279 43.0102C135.378 43.1484 134.382 42.9839 134.258 42.9998C134.082 42.8855 134.791 43.0149 134.87 42.9792L132.852 42.658C132.126 42.6234 132.951 42.7962 132.605 42.8243C131.973 42.7442 131.332 42.7115 130.618 42.5327L130.84 42.6668C129.64 42.5539 128.93 42.4244 128.142 42.1844C119.136 41.5253 126.085 42.9779 126.085 42.9779C129.533 43.7912 131.383 43.8044 135.546 44.419L135.582 44.3518ZM136.988 56.4887L137.255 56.5693C137.257 56.5575 137.188 56.5339 136.988 56.4887ZM206.093 67.8924C206.117 67.8964 206.14 67.9003 206.154 67.8904C206.117 67.8963 206.105 67.8944 206.093 67.8924ZM147.387 59.6321C147.351 59.6262 147.325 59.6341 147.302 59.6302L147.385 59.6439L147.387 59.6321Z" fill="#E6F1FA"/>
<path d="M133.458 57.2092L141.852 58.7664L147.363 59.6281C148.219 59.6111 149.688 60.0122 150.704 60.0582L151.07 60.2039C151.433 60.2152 151.829 60.2562 152.165 60.3605L152.137 60.3803C152.657 60.4052 153.232 60.5368 153.487 60.5424L153.483 60.5661L154.102 60.6561L153.977 60.6721C154.879 60.7479 155.792 60.8988 156.595 61.0558L156.543 60.9254C158.255 61.3301 158.931 61.2224 160.451 61.6076L160.424 61.6274C162.438 61.6798 163.512 62.3325 165.583 62.4066C165.34 62.403 165.694 62.4736 165.653 62.5033C166.605 62.6364 167.594 62.7753 167.637 62.5874C168.325 62.7011 168.185 62.7389 168.254 62.8356C168.27 62.7407 168.867 62.815 169.4 62.9031L169.157 62.8995L170.705 63.1187L170.436 62.9036C171.235 63.0843 170.604 63.1386 171.393 63.2323L171.405 63.088C172.516 63.296 173.145 63.6192 174.192 63.9141C178.69 64.718 183.588 65.1616 187.722 66.1004L187.892 66.2504C187.95 66.4183 189.082 66.2032 189.211 66.3829L189.697 66.3901C189.835 66.4373 190.114 66.52 189.859 66.5144C190.31 66.5889 190.337 66.569 190.652 66.5844L191.11 66.7577C192.878 67.1228 194.415 67.1818 196.282 67.5389C198.504 68.1009 202.756 68.6206 205.215 68.9293C208.694 69.2603 212.565 70.5335 216.108 70.8506C216.222 70.8939 216.527 70.8955 216.519 70.8698L219.717 71.4225C219.717 71.4225 235.281 74.0546 223.653 70.8299L223.742 70.8081C222.001 70.4351 220.888 70.239 219.65 70.2052C219.494 69.9722 218.207 69.9424 217.814 69.8165L217.849 69.8224C216.756 69.8002 215.663 69.3393 214.609 69.2993C214.647 69.2933 214.68 69.238 214.917 69.2771C214.166 69.1774 213.127 69.0544 213.087 68.926C211.278 68.6637 208.785 68.191 207.603 68.1907L207.692 68.1688C207.02 68.1797 206.834 68.0515 206.089 67.9893C206.056 67.9715 205.998 67.9499 206.012 67.94C205.281 67.941 203.921 67.6188 203.332 67.5703L203.31 67.4814L201.882 67.27L202.414 67.37C202.189 67.5522 201.37 67.0513 200.303 67.0212C199.334 66.8369 198.271 67.1486 197.279 66.8872C196.785 66.9274 197.733 66.7917 196.996 66.7552C196.992 66.6327 197.34 66.7389 197.178 66.6146C196.456 66.5564 196.047 66.3059 195.167 66.2459L195.145 66.157C193.991 66.1369 193.03 65.6857 192.257 65.7165C191.083 65.5956 191.517 65.3262 190.28 65.2924L189.825 65.0954C189.307 64.9855 189.446 65.179 188.863 65.0217C188.91 64.9564 188.161 64.8448 188.491 64.8384C187.206 64.5043 185.818 64.5675 184.132 64.0818C183.753 64.1653 182.889 63.9373 182.586 63.997C182.549 63.9298 180.857 63.699 181.853 63.7174C181.938 63.7192 182.092 63.7447 182.088 63.7684L182.22 63.705C181.263 63.3763 180.425 63.506 179.459 63.3097C179.739 63.3805 180.119 63.4432 179.86 63.4614L178.961 63.3006L179.162 63.2608L177.83 62.9919L178.004 63.1181C177.359 62.9629 177.148 62.7695 176.391 62.7785C176.047 62.7948 176.988 62.999 176.294 62.921C175.426 62.7166 174.125 62.4043 173.002 62.1944C173.101 62.3326 172.785 62.256 172.473 62.2288L172.451 62.1398C171.245 62.0625 172.043 61.8776 170.853 61.7785L170.982 61.7388L170.642 61.8776C169.545 61.8792 170.102 61.6057 168.877 61.6469C169.353 61.7134 169.083 61.8759 168.495 61.7423L168.652 61.6828C168.327 61.6536 168.215 61.6716 168.005 61.6126C168.203 61.5965 168.12 61.5096 167.669 61.4352L167.997 61.3675L167.082 61.3748C166.41 61.1662 165.299 61.1046 165.046 60.9409C165.046 60.9409 163.585 60.6386 163.231 60.7142C163.541 60.6802 162.74 60.5113 162.981 60.4537C162.586 60.4859 161.448 60.3709 161.013 60.2015L161.096 60.2153C159.455 59.8223 158.226 59.8873 156.753 59.51C156.804 59.6404 156.033 59.4399 156.201 59.6017C154.64 59.4656 153.423 58.8625 152.797 59.1856C152.082 59.0917 151.983 58.9535 151.631 58.871L151.801 58.8747C150.49 58.6948 150.099 58.6301 149.116 58.4556C148.636 58.4128 148.508 58.5988 147.64 58.3945C147.936 58.3704 147.579 58.3234 147.246 58.2685C147.462 58.292 147.525 58.278 147.108 58.1482C147.045 58.1621 146.948 58.1583 146.863 58.1565C146.865 58.1446 146.841 58.1407 146.855 58.1308C146.305 58.0644 146.396 58.1038 146.643 58.1568C146.63 58.1667 146.651 58.1824 146.719 58.2179C146.165 58.029 145.139 57.9692 145.078 57.825C143.411 57.5863 142.227 57.5247 140.855 57.3468C140.713 57.2502 141.041 57.2557 141.45 57.2867L140.474 57.1497C140.501 57.0568 141.041 57.1825 141.339 57.2196C140.214 56.8754 138.942 56.982 137.601 56.6143L137.305 56.6384L137.224 56.6128C137.218 56.6484 136.912 56.6587 136.706 56.6492C136.53 56.5348 136.749 56.4613 136.085 56.3516C135.565 56.1804 134.573 56.1384 133.865 56.0702C134.243 56.1448 134.093 56.1687 133.944 56.1808C133.612 56.1259 133.424 56.0096 133.169 56.004L133.153 55.8795C133.252 56.0177 132.256 55.8531 132.132 55.8691C131.956 55.7547 132.665 55.8842 132.744 55.8485L130.726 55.5272C130.001 55.4927 130.825 55.6654 130.479 55.6936C129.847 55.6135 129.206 55.5808 128.492 55.4019L128.714 55.536C127.514 55.4231 126.804 55.2937 126.016 55.0537C117.01 54.3946 123.959 55.8472 123.959 55.8472C127.407 56.6605 129.255 56.6855 133.42 57.2883L133.458 57.2092ZM132.797 81.8595L133.064 81.9401C133.066 81.9283 132.997 81.9046 132.797 81.8595ZM201.904 93.2514C201.927 93.2553 201.951 93.2592 201.965 93.2493C201.929 93.2434 201.916 93.2534 201.904 93.2514ZM143.194 85.0147C143.158 85.0088 143.132 85.0168 143.109 85.0129L143.192 85.0266L143.194 85.0147Z" fill="#E6F1FA"/>
<path d="M129.265 82.5919L137.658 84.1491L143.17 85.0108C144.026 84.9938 145.495 85.3949 146.511 85.4409L146.876 85.5866C147.24 85.5979 147.635 85.6389 147.972 85.7431L147.944 85.7629C148.464 85.7879 149.039 85.9195 149.294 85.9251L149.29 85.9488L149.909 86.0388L149.784 86.0548C150.686 86.1306 151.599 86.2815 152.402 86.4384L152.35 86.308C154.062 86.7127 154.738 86.6051 156.258 86.9902L156.231 87.0101C158.245 87.0625 159.319 87.7152 161.39 87.7893C161.147 87.7857 161.501 87.8563 161.459 87.886C162.412 88.019 163.401 88.158 163.444 87.9702C164.132 88.0838 163.992 88.1216 164.061 88.2183C164.075 88.1353 164.673 88.1976 165.207 88.2858L164.964 88.2822L166.512 88.5014L166.243 88.2863C167.042 88.467 166.411 88.5213 167.2 88.615L167.212 88.4707C168.323 88.6786 168.951 89.0018 169.999 89.2968C174.497 90.1007 179.395 90.5443 183.529 91.4831L183.699 91.6331C183.757 91.801 184.889 91.5859 185.017 91.7656L185.504 91.7728C185.642 91.82 185.921 91.9027 185.666 91.8971C186.115 91.9834 186.144 91.9517 186.458 91.9671L186.917 92.1404C188.685 92.5054 190.222 92.5645 192.089 92.9216C194.311 93.4836 198.563 94.0033 201.022 94.312C204.501 94.643 208.372 95.9162 211.914 96.2333C212.029 96.2766 212.333 96.2781 212.325 96.2525L215.524 96.8053C215.524 96.8053 231.088 99.4373 219.46 96.2126L219.549 96.1908C217.807 95.8177 216.694 95.6217 215.457 95.5879C215.301 95.3549 214.014 95.3251 213.621 95.1992L213.656 95.2051C212.563 95.1829 211.47 94.722 210.416 94.682C210.454 94.676 210.487 94.6206 210.724 94.6598C209.973 94.5601 208.933 94.4371 208.894 94.3087C207.085 94.0464 204.592 93.5737 203.41 93.5734L203.499 93.5515C202.827 93.5624 202.641 93.4342 201.896 93.372C201.862 93.3543 201.805 93.3326 201.819 93.3227C201.088 93.3237 199.727 93.0016 199.138 92.953L199.116 92.8641L197.689 92.6527L198.221 92.7527C197.996 92.9348 197.177 92.434 196.11 92.4039C195.141 92.2195 194.078 92.5313 193.086 92.2699C192.592 92.3101 193.54 92.1744 192.803 92.1379C192.799 92.0154 193.147 92.1216 192.985 91.9973C192.263 91.939 191.854 91.6886 190.974 91.6286L190.952 91.5397C189.798 91.5196 188.837 91.0684 188.064 91.0991C186.89 90.9783 187.324 90.7089 186.087 90.6751L185.632 90.4781C185.114 90.3681 185.253 90.5616 184.67 90.4044C184.717 90.3391 183.968 90.2275 184.298 90.2211C183.013 89.8869 181.625 89.9502 179.939 89.4644C179.559 89.548 178.695 89.3199 178.393 89.3797C178.356 89.3125 176.663 89.0818 177.66 89.1001C177.745 89.102 177.899 89.1274 177.895 89.1511L178.027 89.0877C177.07 88.759 176.232 88.8887 175.266 88.6924C175.546 88.7632 175.926 88.8259 175.667 88.844L174.767 88.6833L174.969 88.6434L173.637 88.3746L173.811 88.5008C173.166 88.3456 172.954 88.1522 172.197 88.1612C171.854 88.1775 172.795 88.3817 172.101 88.3036C171.233 88.0993 169.932 87.787 168.809 87.5771C168.908 87.7153 168.592 87.6387 168.279 87.6114L168.258 87.5225C167.052 87.4452 167.85 87.2603 166.66 87.1612L166.789 87.1214L166.449 87.2603C165.352 87.2618 165.909 86.9883 164.684 87.0296C165.16 87.0961 164.89 87.2586 164.302 87.125L164.458 87.0655C164.134 87.0363 164.022 87.0543 163.812 86.9953C164.01 86.9792 163.926 86.8923 163.476 86.8179L163.804 86.7502L162.889 86.7574C162.216 86.5489 161.106 86.4873 160.852 86.3236C160.852 86.3236 159.391 86.0213 159.038 86.0969C159.348 86.0629 158.547 85.894 158.788 85.8364C158.393 85.8686 157.255 85.7536 156.82 85.5843L156.903 85.598C155.262 85.205 154.032 85.27 152.559 84.8927C152.611 85.023 151.84 84.8225 152.008 84.9844C150.447 84.8482 149.23 84.2452 148.604 84.5683C147.889 84.4744 147.79 84.3362 147.438 84.2537L147.608 84.2574C146.297 84.0775 145.906 84.0128 144.923 83.8383C144.443 83.7955 144.315 83.9815 143.447 83.7772C143.743 83.753 143.385 83.7061 143.053 83.6513C143.269 83.6747 143.332 83.6607 142.915 83.5309C142.852 83.5448 142.755 83.541 142.67 83.5392C142.67 83.5392 142.648 83.5234 142.662 83.5135C142.112 83.4471 142.203 83.4865 142.45 83.5395C142.436 83.5494 142.458 83.5652 142.525 83.6006C141.972 83.4117 140.946 83.3519 140.885 83.2077C139.218 82.969 138.034 82.9074 136.662 82.7295C136.52 82.6329 136.848 82.6383 137.257 82.6694L136.281 82.5324C136.308 82.4395 136.848 82.5652 137.146 82.6023C136.021 82.2581 134.749 82.3646 133.408 81.997L133.112 82.0211L133.031 81.9956C133.025 82.0311 132.718 82.0414 132.513 82.0318C132.337 81.9175 132.556 81.8441 131.892 81.7343C131.372 81.5631 130.38 81.521 129.672 81.4529C130.05 81.5274 129.9 81.5514 129.751 81.5635C129.419 81.5086 129.231 81.3922 128.976 81.3867L128.96 81.2622C129.059 81.4004 128.063 81.2358 127.938 81.2518C127.762 81.1374 128.472 81.2668 128.551 81.2311L126.533 80.9099C125.807 80.8754 126.632 81.0481 126.286 81.0763C125.653 80.9961 125.013 80.9635 124.299 80.7847L124.521 80.9187C123.321 80.8058 122.611 80.6764 121.822 80.4364C112.817 79.7773 119.766 81.2299 119.766 81.2299C123.214 82.0432 125.062 82.0682 129.227 82.671L129.265 82.5919ZM127.954 67.51L128.091 67.5691C128.093 67.5573 128.059 67.5395 127.954 67.51ZM165.083 73.6193C165.095 73.6213 165.107 73.6232 165.121 73.6133C165.097 73.6094 165.095 73.6213 165.083 73.6193ZM133.417 69.8501C133.393 69.8462 133.379 69.8561 133.367 69.8542L133.417 69.8501Z" fill="#E6F1FA"/>
<path d="M125.966 68.4853C127.915 68.856 128.417 69.134 130.445 69.3959L133.418 69.8383C133.895 69.7586 134.664 70.0441 135.217 70.0136L135.405 70.13C135.591 70.1119 135.82 70.1254 136.002 70.2042L135.986 70.226C136.269 70.2117 136.583 70.3002 136.708 70.2842L136.692 70.306L137.024 70.3608L136.959 70.3867C137.445 70.3939 137.943 70.4762 138.366 70.5704L138.35 70.4459C139.256 70.7174 139.635 70.5607 140.456 70.8303L140.452 70.854C141.564 70.7575 142.081 71.3181 143.227 71.2394C143.103 71.2554 143.279 71.2966 143.261 71.3302C143.763 71.3888 144.312 71.4552 144.344 71.2654C144.7 71.3242 144.631 71.3738 144.676 71.4666C144.69 71.3836 145.016 71.4009 145.289 71.4459L145.164 71.4619L146 71.5635L145.862 71.37C146.293 71.4899 145.947 71.5913 146.356 71.6223L146.38 71.48C146.969 71.6017 147.289 71.8739 147.863 72.0905C150.273 72.5495 152.929 72.6228 155.142 73.2442L155.217 73.3785C155.239 73.5405 155.873 73.2431 155.942 73.413L156.215 73.385C156.282 73.4204 156.442 73.4835 156.294 73.4955C156.529 73.5466 156.535 73.511 156.731 73.5068L156.976 73.6448C157.913 73.8727 158.775 73.8201 159.764 74.0321C160.942 74.4217 163.237 74.6181 164.569 74.7407C166.447 74.8072 168.492 75.7786 170.421 75.8292C170.476 75.8627 170.662 75.8447 170.642 75.817L172.358 76.1249C172.358 76.1249 180.71 77.5656 174.574 75.2481L174.628 75.2204C173.692 74.9806 173.101 74.8708 172.422 74.9291C172.336 74.7078 171.654 74.778 171.439 74.6814L171.465 74.6735C170.846 74.7297 170.298 74.3589 169.719 74.3973C169.745 74.3894 169.766 74.332 169.897 74.3536C169.49 74.3107 168.936 74.268 168.92 74.1435C167.965 74.0224 166.611 73.7377 165.963 73.8256L166.016 73.7979C165.641 73.8577 165.562 73.7471 165.149 73.7398C165.127 73.724 165.105 73.7083 165.107 73.6964C164.708 73.7523 163.976 73.534 163.672 73.5324L163.662 73.4455L162.887 73.3418L163.172 73.3888C163.042 73.5867 162.602 73.1485 162.033 73.2007C161.515 73.0908 160.891 73.4751 160.385 73.294C160.104 73.3695 160.65 73.1671 160.245 73.1855C160.252 73.0649 160.434 73.1438 160.355 73.0332C159.966 73.0298 159.758 72.8127 159.293 72.8212L159.283 72.7343C158.663 72.8024 158.152 72.4256 157.736 72.5152C157.095 72.4825 157.364 72.1856 156.684 72.2439L156.466 72.0861C156.185 72.0154 156.241 72.1951 155.942 72.0849C155.978 72.0176 155.561 71.9609 155.748 71.931C155.056 71.6948 154.298 71.8619 153.406 71.5075C153.181 71.6165 152.732 71.457 152.548 71.5364C152.534 71.4731 151.625 71.3717 152.17 71.3155C152.22 71.3115 152.291 71.3233 152.287 71.347L152.36 71.2738C151.866 71.0215 151.395 71.2119 150.879 71.0901C151.03 71.1393 151.231 71.1726 151.103 71.2123L150.63 71.1221L150.737 71.0666L150.033 70.9016L150.113 71.0121C149.765 70.9059 149.671 70.7321 149.247 70.796C149.057 70.8378 149.559 70.9695 149.185 70.9443L147.436 70.4725C147.475 70.6009 147.301 70.5478 147.143 70.546L147.133 70.4591C146.473 70.4719 146.927 70.2301 146.283 70.2211L146.352 70.1716L146.155 70.334C145.556 70.4178 145.876 70.1051 145.196 70.2365C145.435 70.2638 145.283 70.4459 144.981 70.3594L145.078 70.2901C144.908 70.2863 144.831 70.3102 144.716 70.2669C144.842 70.239 144.795 70.1581 144.534 70.115L144.72 70.0238L144.22 70.0996C143.879 69.9459 143.267 69.9665 143.132 69.8225C143.132 69.8225 142.347 69.6319 142.148 69.7329C142.316 69.6754 141.895 69.5693 142.029 69.494C141.812 69.5556 141.195 69.5268 140.95 69.3888L140.999 69.3848C140.129 69.1192 139.434 69.2724 138.661 69.0106C138.677 69.1351 138.261 68.9934 138.346 69.1415C137.497 69.123 136.873 68.6179 136.508 68.984C136.125 68.9451 136.073 68.8147 135.887 68.7597L135.982 68.7753L134.559 68.5402C134.292 68.5327 134.211 68.7265 133.758 68.5907C133.924 68.5451 133.733 68.5255 133.555 68.4962C133.675 68.5039 133.703 68.4841 133.487 68.3876C133.448 68.4054 133.399 68.4094 133.361 68.4154C133.361 68.4154 133.351 68.4016 133.353 68.3897C133.053 68.3645 133.108 68.398 133.225 68.4294C133.211 68.4393 133.221 68.4531 133.264 68.4847C132.972 68.3389 132.408 68.3555 132.394 68.2192C131.511 68.1098 130.849 68.1344 130.105 68.0604C130.034 67.9755 130.22 67.9574 130.439 67.9571L129.917 67.8709C129.933 67.776 130.224 67.8606 130.404 67.8781C129.812 67.622 129.097 67.8207 128.385 67.5569L128.219 67.6026L128.174 67.5829C128.168 67.6184 127.992 67.6503 127.881 67.6564C127.776 67.5538 127.925 67.4686 127.557 67.4078C127.286 67.2778 126.744 67.3102 126.357 67.2949C126.557 67.3401 126.466 67.3738 126.389 67.3976C126.211 67.3683 126.118 67.2676 125.97 67.2797L125.977 67.1591C126.029 67.2895 125.483 67.1993 125.418 67.2251C125.313 67.1225 125.715 67.201 125.758 67.1594L124.689 66.9949C124.284 67.0133 124.74 67.1253 124.537 67.177C124.177 67.1419 123.845 67.1602 123.463 67.0362L123.566 67.1507C122.912 67.1279 122.534 67.0533 122.113 66.8741C117.212 66.8929 120.923 67.8106 120.923 67.8106C122.817 68.3672 123.835 68.2551 126.078 68.5405L125.966 68.4853Z" fill="#E6F1FA"/>
<path d="M65.5068 30.2656L111.136 37.8035L103.598 83.433L57.9689 75.8951L65.5068 30.2656Z" fill="#CEE4D0"/>
<path d="M0.0100098 118.01C0.87001 117.79 77.78 124.91 77.78 124.91L60.98 138.66L0 118.01H0.0100098Z" fill="#FFCFA4"/>
<path d="M61.73 161.38L61 138.68L0.0200195 118.02L18.77 133.93L61.73 161.38Z" fill="#FCAE7A"/>
<g opacity="0.5">
<path opacity="0.5" d="M61.73 161.38L61 138.68L0.0200195 118.02L18.77 133.93L61.73 161.38Z" fill="url(#paint1_linear_375_4261)"/>
</g>
<path d="M50.1299 146.63L61.7299 161.37L43.3799 150.3L50.1299 146.63Z" fill="#FFCFA4"/>
<g opacity="0.5">
<path opacity="0.5" d="M50.1299 146.63L61.7299 161.37L43.3799 150.3L50.1299 146.63Z" fill="url(#paint2_linear_375_4261)"/>
</g>
<path d="M50.13 146.63L31.05 162.47L0.0100098 118L50.13 146.63Z" fill="#FFCFA4"/>
<defs>
<linearGradient id="paint0_linear_375_4261" x1="230.87" y1="-61.201" x2="322.203" y2="382.498" gradientUnits="userSpaceOnUse">
<stop stop-color="#ABC1DA" stop-opacity="0"/>
<stop offset="1" stop-color="#002957"/>
</linearGradient>
<linearGradient id="paint1_linear_375_4261" x1="40.631" y1="129.106" x2="27.897" y2="144.751" gradientUnits="userSpaceOnUse">
<stop stop-color="#E3AD9C" stop-opacity="0"/>
<stop offset="1" stop-color="#FCAE7A"/>
</linearGradient>
<linearGradient id="paint2_linear_375_4261" x1="50.2569" y1="151.923" x2="48.2339" y2="148.455" gradientUnits="userSpaceOnUse">
<stop stop-color="#DAABAB" stop-opacity="0"/>
<stop offset="1" stop-color="#DAAEAB"/>
</linearGradient>
</defs>
</svg>
