<svg width="277" height="205" viewBox="0 0 277 205" fill="none" xmlns="http://www.w3.org/2000/svg">
<path d="M39.0425 61.3424C45.5208 58.883 48.7797 51.6396 46.3213 45.164C43.8628 38.6883 36.6182 35.4325 30.1398 37.8919C23.6614 40.3513 20.4026 47.5947 22.861 54.0703C25.3194 60.546 32.5641 63.8018 39.0425 61.3424Z" fill="url(#paint0_linear_375_4239)"/>
<path d="M119.154 47.0326C124.385 45.0465 127.017 39.1972 125.032 33.9679C123.046 28.7385 117.196 26.1093 111.965 28.0954C106.733 30.0815 104.101 35.9308 106.087 41.1601C108.072 46.3895 113.922 49.0187 119.154 47.0326Z" fill="url(#paint1_linear_375_4239)"/>
<path d="M155.686 116.223C164.562 112.853 169.027 102.93 165.658 94.0579C162.29 85.186 152.365 80.7254 143.489 84.0949C134.614 87.4644 130.149 97.3881 133.517 106.26C136.885 115.132 146.811 119.593 155.686 116.223Z" fill="url(#paint2_linear_375_4239)"/>
<path d="M69.0996 172.851C79.8198 168.781 85.2124 156.795 81.1443 146.079C77.0762 135.363 65.088 129.976 54.3678 134.046C43.6477 138.115 38.2551 150.101 42.3232 160.817C46.3913 171.533 58.3795 176.92 69.0996 172.851Z" fill="url(#paint3_linear_375_4239)"/>
<path d="M55.5107 67.4409L55.6922 67.6382C55.6994 67.6222 55.654 67.5728 55.5107 67.4409ZM99.5881 63.8831L99.6214 63.8305C99.5953 63.867 99.5881 63.8831 99.5881 63.8831ZM62.569 74.5299L62.5646 74.5183L62.5004 74.4894L62.569 74.5299Z" fill="#C0A7C4"/>
<path d="M52.2299 66.6901L58.4226 71.4992L62.5761 74.5138C63.2913 74.8545 64.3148 75.7969 65.1367 76.2434L65.3767 76.525C65.6628 76.6825 65.9783 76.8821 66.2079 77.1011L66.173 77.1143C66.5964 77.3529 67.0041 77.6905 67.21 77.812L67.1751 77.8252L67.6543 78.1756L67.5508 78.1484C68.2503 78.5882 68.9442 79.0833 69.5274 79.5673L69.5414 79.4289C70.7663 80.4811 71.3643 80.6533 72.4491 81.6522L72.4142 81.6654C74.0725 82.5265 74.6345 83.5508 76.3149 84.47C76.0974 84.3529 76.3707 84.5819 76.3358 84.5952C77.0574 85.0931 77.7966 85.6376 77.9475 85.4739C78.4516 85.8548 78.3248 85.8363 78.3413 85.9499C78.3934 85.8768 78.8578 86.1531 79.2683 86.463L79.0669 86.3531L80.2312 87.1755L80.1119 86.8614C80.6951 87.3454 80.1393 87.1438 80.7469 87.552L80.8323 87.4263C81.2152 87.7335 81.5062 88.009 81.7739 88.2933C81.8646 88.3919 82.1512 88.6558 82.388 88.8587L83.23 89.6037L83.4186 89.399L84.6993 87.582L85.606 86.2529L87.3874 83.5803L90.9819 78.5292L91.1681 78.4585C91.3386 78.4869 91.5837 77.449 91.7992 77.4204L92.003 77.0103C92.1017 76.9196 92.2903 76.715 92.1847 76.928C92.4223 76.5717 92.4223 76.5717 92.5522 76.2828L92.8861 75.9697C93.9036 74.6518 94.5455 73.3967 95.5786 71.9797C96.9476 70.3953 99.0555 67.0398 100.269 65.1152C101.89 62.3705 104.557 59.6811 106.209 56.8445C106.289 56.7453 106.35 56.6319 106.389 56.5102L108.124 54.068C108.124 54.068 116.486 42.2161 109.08 50.4843L109.089 50.4012C108.074 51.6914 107.474 52.5313 106.961 53.5646C106.679 53.592 106.179 54.6601 105.883 54.9322L105.893 54.8885C105.442 55.805 104.6 56.4974 104.17 57.3657C104.18 57.322 104.135 57.2726 104.265 57.09C103.892 57.6843 103.373 58.4933 103.242 58.4633L100.471 62.7362L100.479 62.6531C100.235 63.2381 100.037 63.3132 99.7076 63.9175C99.6771 63.9424 99.635 63.9717 99.6306 63.9601C99.365 64.5933 98.5384 65.5725 98.2897 66.0396L98.2022 66.0195L97.4548 67.1018L97.7621 66.719C97.852 66.9909 97.0716 67.4602 96.6467 68.3402C96.1252 69.0705 95.9865 70.108 95.3658 70.8228C95.1941 71.2473 95.4427 70.3943 95.1362 70.9898C95.0239 70.9393 95.2457 70.682 95.08 70.7716C94.7603 71.3321 94.3606 71.577 93.9642 72.2865L93.8723 72.2548C93.4158 73.2267 92.6285 73.8183 92.3602 74.4792C91.784 75.4166 91.7282 74.9187 91.2151 75.952L90.8608 76.2462C90.5651 76.6246 90.7894 76.6193 90.4355 77.0198C90.393 76.9428 89.9962 77.546 90.1173 77.2338C89.3241 78.1604 88.8451 79.3537 87.7557 80.5525C87.6844 80.9256 87.1419 81.5308 87.0906 81.8165C87.0075 81.8081 86.1517 83.1311 86.5593 82.311C86.5999 82.2423 86.6781 82.1328 86.6869 82.156L86.6777 82.0265C86.0188 82.6758 85.7974 83.4253 85.2642 84.1601C85.4528 83.9554 85.6337 83.6605 85.5603 83.888L85.072 84.5658L85.1077 84.3792L84.3571 85.3829L84.5432 85.3122C84.1488 85.7813 83.9 85.8625 83.6156 86.5161C83.5061 86.8239 84.0482 86.1123 83.7079 86.6541L83.1266 87.3672C83.0583 87.433 82.9929 87.4712 82.9508 87.5005C82.8601 87.4018 82.8834 87.393 82.7373 87.2887C82.7465 87.4183 82.5274 87.262 82.269 87.1072L82.3006 87.0153C81.3282 86.4529 82.0951 86.6142 81.1576 86.0386L81.2916 86.0409L80.9449 86.0394C80.0399 85.5845 80.6298 85.5602 79.5952 85.1145C79.9604 85.3751 79.6386 85.4041 79.238 85.0505L79.3998 85.0556C79.1485 84.8848 79.061 84.8648 78.8973 84.714C79.0578 84.7862 79.053 84.6682 78.6922 84.4193L78.9912 84.5054L78.2234 84.1314C77.7831 83.673 76.8881 83.1744 76.7472 82.9084C76.7472 82.9084 75.6877 82.0464 75.3538 81.9735C75.6295 82.0685 75.0347 81.5889 75.2695 81.6462C74.9251 81.5107 74.0358 80.9567 73.762 80.6214L73.8307 80.6619C72.6467 79.6474 71.6077 79.1901 70.577 78.2638C70.563 78.4023 70.0147 77.905 70.0709 78.1233C68.8268 77.3712 68.1264 76.3328 67.4578 76.3604C66.9188 75.9927 66.8919 75.8166 66.639 75.6065L66.7763 75.6875L64.7543 74.2193C64.3542 73.9719 64.1785 74.1052 63.5732 73.563C63.8329 73.6508 63.554 73.4772 63.3099 73.2904C63.4837 73.3974 63.5435 73.4146 63.2481 73.1275C63.1883 73.1103 63.0964 73.0786 63.0394 73.0337C63.0394 73.0337 63.0306 73.0105 63.0422 73.006C62.6172 72.7282 62.6714 72.8008 62.8584 72.9427C62.8468 72.9471 62.844 72.9748 62.8937 73.0358C62.5309 72.6412 61.7074 72.1553 61.733 72.0125L58.4657 69.8592C58.3967 69.7124 58.674 69.8466 58.9822 70.0623L58.2518 69.5411C58.3156 69.4637 58.7001 69.8101 58.9381 69.946C58.1659 69.1745 57.0614 68.7553 56.1315 67.884L55.8718 67.7962L55.8221 67.7353C55.796 67.7718 55.5231 67.6491 55.377 67.5449C55.2831 67.3676 55.5046 67.39 55.0049 67.0207C54.6553 66.661 53.8494 66.2217 53.3032 65.8701C53.5721 66.0874 53.4614 66.0762 53.3125 65.9996C53.0612 65.8288 52.9629 65.6399 52.7337 65.5273L52.7843 65.4149C52.8184 65.575 52.0631 65.0233 51.9319 64.9933C51.8379 64.816 52.3669 65.2274 52.4688 65.2153L50.9538 64.1003C50.3698 63.7896 50.9879 64.2603 50.6685 64.1553C50.1776 63.8093 49.6667 63.5508 49.171 63.0868L49.2826 63.3107C48.3363 62.7117 47.835 62.3031 47.2779 61.7826C40.139 57.5324 45.1855 61.672 45.1855 61.672C47.6326 63.804 49.168 64.5519 52.3294 66.812L52.2299 66.6901ZM71.5636 120.703L71.6924 120.481C71.6647 120.479 71.6314 120.531 71.5636 120.703ZM112.155 93.129C112.183 93.1318 112.195 93.1274 112.222 93.1302C112.171 93.1362 112.155 93.129 112.155 93.129ZM76.089 111.932C76.079 111.975 76.0834 111.987 76.0762 112.003L76.089 111.932Z" fill="#C0A7C4"/>
<path d="M71.8492 124.015L74.4983 116.755L76.0658 111.941C76.1676 111.157 76.763 109.919 76.9109 109.011L77.1151 108.707C77.1693 108.394 77.2611 108.04 77.4188 107.754L77.4437 107.784C77.5307 107.312 77.7473 106.83 77.7886 106.589L77.8135 106.619L77.9804 106.077L77.9808 106.183C78.1729 105.391 78.4392 104.585 78.7148 103.908L78.5896 103.929C79.2307 102.461 79.1933 101.836 79.7854 100.52L79.8103 100.551C80.1222 98.7422 80.9303 97.8897 81.2639 96.033C81.2182 96.2633 81.367 95.9539 81.3759 95.9772C81.6217 95.1518 81.9009 94.2739 81.7083 94.1874C81.904 93.5807 81.9337 93.7291 82.0413 93.6617C81.9494 93.63 82.0974 93.108 82.2442 92.6531L82.1985 92.8834L82.6156 91.5272L82.36 91.7307C82.6312 91.0422 82.6233 91.6175 82.8158 90.9322L82.6685 90.8949C82.8241 90.4632 83.0035 90.1289 83.1828 89.7947L83.3072 89.5612L83.4059 89.4704C83.4552 89.4251 83.5046 89.3797 83.5511 89.3621L83.6563 89.4286L84.0179 89.5043L84.7876 89.6379L86.3503 89.8964L89.4973 90.3653L95.511 91.476L95.6587 91.6196C95.7089 91.7868 96.7438 91.567 96.8654 91.747L97.3185 91.748C97.4425 91.7941 97.6977 91.8702 97.4734 91.8755C97.8743 91.9496 97.8932 91.9291 98.2006 91.9322L98.6251 92.1037C100.228 92.4669 101.632 92.5193 103.304 92.856C105.305 93.4272 109.162 93.9062 111.395 94.1764C114.547 94.4836 118.038 95.7534 121.288 96.0369C121.384 96.0802 121.664 96.0805 121.667 96.0528L124.572 96.5867C124.572 96.5867 138.677 99.1242 128.185 95.9337L128.26 95.9188C126.685 95.5584 125.676 95.3558 124.548 95.3314C124.416 95.0888 123.254 95.0777 122.882 94.9394L122.917 94.9262C121.911 94.9085 120.935 94.4408 119.981 94.4171C120.016 94.4038 120.049 94.3513 120.263 94.3897C119.562 94.2965 118.639 94.181 118.603 94.0486L113.622 93.3442L113.696 93.3294C113.079 93.3509 112.924 93.2234 112.247 93.1607C112.211 93.1346 112.167 93.1246 112.179 93.1202C111.517 93.1317 110.287 92.8005 109.742 92.7678L109.722 92.6819L108.441 92.463L108.913 92.5499C108.725 92.7546 107.959 92.2466 107.001 92.2113C106.126 92.0111 105.148 92.3822 104.254 92.0961C103.803 92.1344 104.667 91.9925 104.005 91.9647C103.995 91.8351 104.315 91.9401 104.176 91.8198C103.527 91.7599 103.155 91.5153 102.345 91.4502L102.333 91.3484C101.269 91.3528 100.422 90.8758 99.7117 90.9326C98.639 90.8075 99.0487 90.5189 97.9182 90.5222L97.5081 90.3186C97.0474 90.2273 97.1457 90.4162 96.6308 90.2524C96.6713 90.1837 95.9775 90.0745 96.2921 90.0615C95.1283 89.7315 93.867 89.811 92.3428 89.3383C91.9804 89.4359 91.222 89.1915 90.9338 89.2743C90.9073 89.2045 89.3623 88.9925 90.2684 88.9946C90.3471 88.9913 90.4783 89.0213 90.4639 89.0534L90.5714 88.986C89.7106 88.6474 88.9449 88.805 88.0701 88.6047C88.3253 88.6809 88.678 88.7333 88.4349 88.759L87.617 88.6037L87.8004 88.5607L86.596 88.2993L86.751 88.4268C86.1618 88.2778 85.9804 88.0805 85.2914 88.0892C84.9812 88.1138 85.8284 88.3112 85.2104 88.2264L84.2669 87.9857L83.9767 87.9229L83.4955 87.8128L82.4822 87.5986L81.9086 89.1738C82.0482 89.1208 81.9443 89.3732 81.877 89.6516L81.7822 89.6477C81.5505 90.7205 81.4601 89.9563 81.2122 91.0219L81.1797 90.9012L81.2684 91.2401C81.1121 92.2311 80.9045 91.6844 80.7923 92.7917C80.9058 92.3892 81.0511 92.6668 80.8433 93.1716L80.7976 93.0159C80.723 93.3104 80.7306 93.4007 80.6395 93.5817C80.6519 93.4039 80.5516 93.4553 80.4265 93.8622L80.4136 93.5476L80.3294 94.3781C80.0374 94.9415 79.8256 95.9269 79.6254 96.136C79.6254 96.136 79.1292 97.389 79.167 97.734C79.195 97.4572 78.8962 98.1429 78.8749 97.9115C78.8545 98.2786 78.5962 99.2816 78.3703 99.6335L78.3831 99.5621C77.7914 100.985 77.6792 102.092 77.1248 103.367C77.25 103.346 76.97 104.011 77.1502 103.89C76.8249 105.278 76.0538 106.262 76.2878 106.879C76.0921 107.485 75.9496 107.566 75.8168 107.883L75.8425 107.74L75.0796 110.079C74.9793 110.516 75.1386 110.656 74.8342 111.397C74.8389 111.129 74.7571 111.439 74.6548 111.731C74.7138 111.536 74.6917 111.477 74.5212 111.835C74.5317 111.897 74.5072 111.973 74.4988 112.056C74.4871 112.061 74.4799 112.077 74.4755 112.065C74.3419 112.555 74.3897 112.47 74.4836 112.262C74.488 112.273 74.5112 112.265 74.5562 112.208C74.2914 112.667 74.0925 113.581 73.944 113.611L72.9184 117.328C72.8009 117.439 72.8478 117.142 72.9396 116.787L72.6793 117.645C72.583 117.601 72.7924 117.136 72.8526 116.874C72.3639 117.831 72.3015 118.999 71.7611 120.136L71.7563 120.404L71.7158 120.473C71.7596 120.483 71.7199 120.764 71.6681 120.943C71.5317 121.075 71.4843 120.88 71.2914 121.459C71.0571 121.894 70.8887 122.783 70.725 123.404C70.8695 123.083 70.8671 123.217 70.8414 123.36C70.7435 123.663 70.6071 123.795 70.5658 124.037L70.4318 124.034C70.5742 123.954 70.2834 124.836 70.2927 124.966C70.1562 125.097 70.3753 124.482 70.3399 124.389L69.7583 126.153C69.6312 126.8 69.9008 126.073 69.8948 126.407C69.7323 126.962 69.6297 127.533 69.3553 128.143L69.5178 127.975C69.2539 129.033 69.0232 129.653 68.6762 130.317C66.8691 138.323 69.2231 132.319 69.2231 132.319C70.4787 129.313 70.7257 127.649 71.868 123.995L71.8492 124.015Z" fill="#C0A7C4"/>
<path d="M95.9345 122.577C114.721 115.445 124.17 94.4411 117.042 75.6629C109.913 56.8848 88.9045 47.4436 70.1185 54.5754C51.3326 61.7073 41.8826 82.7115 49.0115 101.49C56.1404 120.268 77.1486 129.709 95.9345 122.577Z" fill="url(#paint4_linear_375_4239)"/>
<path d="M57.8299 62.6077L60.7398 62.7674L59.8309 60.5838L57.8299 62.6077ZM63.1302 61.9797L62.9102 61.6107L62.5091 62.5881L61.3949 61.5471L61.1347 63.1764L62.5135 62.5997L62.3759 63.1843L63.8017 63.0822L63.1507 61.9985L64.6394 61.6063L63.3391 60.636L63.1302 61.9797ZM101.385 57.7443L100.712 59.1977L102.234 58.7529L101.385 57.7443ZM109.804 67.3645L109.548 68.6195L110.618 68.1068L109.804 67.3645ZM110.515 77.4088L110.287 78.6666L111.348 78.1306L110.515 77.4088ZM107.831 89.1014L107.433 90.2638L108.498 89.9127L107.831 89.1014ZM97.5361 65.1412L97.3749 66.4002L98.4026 65.8104L97.5361 65.1412ZM95.7167 60.3487L95.5644 61.631L96.5876 61.0296L95.7167 60.3487Z" fill="#C590EE"/>
<path d="M104.187 62.6696L104.026 63.9285L105.053 63.3388L104.187 62.6696ZM117.663 84.4902L116.398 84.6644L117.248 85.4997L117.663 84.4902ZM64.3704 60.6172L64.4385 59.3936L63.2211 60.255L64.5394 60.9922L64.8531 62.9759L67.0123 61.1581L64.3704 60.6172ZM69.0973 63.1081L67.0577 61.5933L66.2125 64.1367L69.0973 63.1081ZM92.2594 70.2853L91.2512 69.5235L90.6916 70.9604L92.2594 70.2853ZM86.2497 66.0988L85.2299 65.3414L84.6819 66.7738L86.2497 66.0988ZM73.8219 55.3522L73.6282 53.5093L71.94 54.3232L73.8219 55.3522ZM99.2606 63.1956L99.8651 61.7018L98.5128 62.3482L99.2606 63.1956Z" fill="#C590EE"/>
<path d="M106.8 65.8698L107.404 64.376L106.075 65.0136L106.8 65.8698ZM108.345 64.1521L108.942 62.6744L107.613 63.312L108.345 64.1521ZM78.2055 54.2735L80.0215 52.2533L77.5961 52.6683L78.2055 54.2735ZM62.2931 59.1433L64.0288 59.6822L63.6874 58.0816L62.2931 59.1433ZM67.5369 64.5389L69.7858 65.2023L69.2823 63.1044L67.5369 64.5389ZM80.1183 63.5555L82.4269 63.0783L80.99 61.4678L80.1183 63.5555ZM87.7385 66.0925L90.0471 65.6154L88.6102 64.0048L87.7385 66.0925ZM67.3257 58.6168L64.9515 60.1836L67.5332 61.3728L67.3257 58.6168ZM94.179 71.6593L94.6833 70.9887L93.7503 70.8106L94.179 71.6593ZM89.8703 66.9734L90.3863 66.2984L89.4416 66.1247L89.8703 66.9734ZM74.8024 59.0923L75.324 58.3619L74.3416 58.2291L74.8024 59.0923ZM111.481 67.1536L111.653 66.0635L110.709 66.6617L111.481 67.1536ZM68.6199 72.5122L68.7322 71.4049L67.8213 72.0568L68.6199 72.5122ZM104.184 91.2444L104.318 90.1953L103.429 90.799L104.184 91.2444ZM90.8754 79.5811L90.9411 78.4915L90.064 79.1971L90.8754 79.5811ZM90.2721 59.4745L90.294 58.3748L89.4374 59.0993L90.2721 59.4745ZM68.068 58.0822L66.6513 57.1561L66.7952 58.938L68.068 58.0822ZM60.6359 76.3817L61.4993 75.1489L60.1481 75.3425L60.6359 76.3817ZM56.4003 77.3242L57.2681 76.1031L55.9286 76.2922L56.4003 77.3242ZM53.7989 75.9429L54.6667 74.7217L53.3228 74.8992L53.7989 75.9429ZM70.8026 64.0577L71.5254 64.4887L71.7074 63.3549L70.8026 64.0577ZM68.0527 65.6872L67.8635 67.223L69.1407 66.3788L68.0527 65.6872ZM72.8826 56.5605L72.7604 58.0974L74.0649 57.1497L72.8826 56.5605ZM65.9019 69.2454L65.6485 70.7523L66.971 69.9574L65.9019 69.2454ZM68.4567 59.4917L68.3454 61.5835L70.0303 60.305L68.4567 59.4917ZM85.5951 73.7735L85.4838 75.8653L87.1687 74.5868L85.5951 73.7735ZM81.8461 65.0556L81.7304 67.1357L83.4153 65.8573L81.8461 65.0556ZM106.855 69.8017L106.558 72.1768L108.583 70.8489L106.855 69.8017ZM92.2112 81.0304L91.6999 83.2607L93.7439 82.1919L92.2112 81.0304ZM104.489 77.354L104.366 79.6235L106.196 78.2367L104.489 77.354ZM93.3019 77.9413L95.5841 78.1662L94.2655 76.2712L93.3019 77.9413ZM83.2278 78.9709L85.4984 79.2002L84.1915 77.3008L83.2278 78.9709Z" fill="#C590EE"/>
<path d="M82.8395 70.268L85.11 70.4973L83.8031 68.5979L82.8395 70.268ZM98.7679 81.3626L101.038 81.5919L99.7199 79.6969L98.7679 81.3626ZM85.2806 89.8499L87.5512 90.0792L86.2443 88.1798L85.2806 89.8499ZM90.6384 73.8019L92.7413 74.361L91.794 72.3917L90.6384 73.8019ZM64.0858 66.8471L63.66 69.3378L65.8561 68.0383L64.0858 66.8471ZM60.2207 70.8697L62.7558 71.3047L61.4316 69.0792L60.2207 70.8697ZM98.9216 59.6377L100.224 58.4381L98.3379 58.2756L98.9216 59.6377ZM102.277 61.9174L103.715 60.8657L101.849 60.5094L102.277 61.9174ZM65.9248 73.6551L68.1036 72.0294L65.2723 71.4806L65.9248 73.6551ZM63.3823 71.6924L65.5611 70.0667L62.7298 69.5179L63.3823 71.6924ZM77.7789 74.4384L80.3467 73.5567L77.8006 72.181L77.7789 74.4384ZM54.8767 74.083L56.778 73.7605L55.159 72.5119L54.8767 74.083ZM70.0525 54.5073L68.6453 55.2545L70.056 56.5156L70.0525 54.5073ZM55.6649 74.4758L54.3254 74.6649L55.2477 75.832L55.6649 74.4758ZM70.4791 68.1863L70.2394 66.8533L69.5633 67.9484L70.4791 68.1863ZM67.8116 69.9976L66.8042 69.4484L66.7386 70.538L67.8116 69.9976ZM93.7186 75.0414L93.897 74.1086L93.0479 74.5374L93.7186 75.0414ZM96.3041 69.4018L96.634 66.9742L94.4884 68.1613L96.3041 69.4018ZM95.8148 57.9425L98.2165 57.43L96.3659 55.8168L95.8148 57.9425ZM100.822 65.7303L103.191 65.0971L101.277 63.5614L100.822 65.7303ZM52.6448 69.9928L54.4802 71.4254L55.0678 68.9399L52.6448 69.9928ZM57.823 66.0972L58.0927 65.7553L57.0292 65.7597L57.4817 64.4966L55.8806 64.8383L57.0525 65.7509L56.1628 65.8624L57.0768 67.1125L57.7203 66.2826L58.7647 67.35L59.0028 65.6626L57.823 66.0972Z" fill="#C590EE"/>
<path d="M57.6032 68.3234L59.3781 68.0888L58.6279 66.9895L57.6032 68.3234ZM59.1782 65.0371L58.2883 66.2001L59.9328 66.1481L59.1782 65.0371ZM51.9748 69.9811L53.3906 69.9227L52.7861 68.8213L51.9748 69.9811ZM55.3467 68.3417L55.1086 70.0291L56.5098 69.231L55.3467 68.3417ZM93.9007 84.6744L94.7562 84.0169L93.7012 83.9383L93.9007 84.6744ZM62.88 77.3131L63.8231 77.8335L63.4711 76.8359L62.88 77.3131ZM90.0239 91.2966L90.875 90.6275L89.8244 90.5606L90.0239 91.2966ZM103.231 86.4557L104.087 85.7982L103.032 85.7196L103.231 86.4557ZM56.2929 75.9543L57.3016 74.6132L55.824 74.5087L56.2929 75.9543ZM109.007 79.9245L109.976 80.5146L109.649 79.4412L109.007 79.9245ZM110.129 85.9665L111.101 86.529L110.762 85.46L110.129 85.9665ZM99.213 67.8052L99.9868 68.2301L99.8354 67.1297L99.213 67.8052ZM94.7725 64.0344L95.5246 64.5075L95.4402 63.4083L94.7725 64.0344ZM104.461 76.0872L105.256 75.5858L104.426 75.3286L104.461 76.0872ZM104.335 84.1733L105.135 83.6836L104.312 83.4103L104.335 84.1733ZM92.8317 92.9057L93.5986 93.453L93.5355 92.5853L92.8317 92.9057ZM94.5722 90.9673L95.4301 90.5618L94.6275 90.2011L94.5722 90.9673ZM70.7112 62.3091L71.5177 61.8033L70.6878 61.5461L70.7112 62.3091ZM70.4369 55.5193L71.9746 55.3614L71.0346 54.1479L70.2551 55.6017L68.4012 56.1191L70.0604 57.9646L70.4369 55.5193ZM67.3951 58.87L68.5177 59.828L68.5331 58.1851L67.3951 58.87Z" fill="#C590EE"/>
<path d="M70.7431 55.5894L71.9676 56.5352L71.9172 54.8242L70.7431 55.5894ZM73.9885 55.8612L73.584 56.3741L74.5536 56.5783L74.342 56.1262L75.4595 55.0366L73.5654 54.9571L73.9885 55.8612ZM90.4795 88.5684L90.0413 89.0275L90.9427 89.2975L90.7749 88.8555L91.9542 87.9287L90.1322 87.6888L90.4795 88.5684ZM58.2838 73.2022L57.8573 73.6569L58.7586 73.9269L58.5908 73.4849L59.7701 72.5581L57.9482 72.3181L58.2838 73.2022ZM69.3843 82.8024L68.9462 83.2615L69.8475 83.5316L69.6914 83.0851L70.859 82.1627L69.0604 81.9139L69.3843 82.8024ZM59.2142 74.9517L58.7761 75.4109L59.6819 75.6925L59.5257 75.2461L60.6889 74.312L58.8903 74.0633L59.2142 74.9517ZM73.5915 71.2637L73.1577 71.7344L74.0591 72.0044L73.9029 71.558L75.0661 70.624L73.2675 70.3752L73.5915 71.2637ZM72.2009 60.3062L71.5001 59.1615L70.5299 60.2884L72.2009 60.3062ZM88.4095 61.1265L87.7131 59.9935L86.7429 61.1204L88.4095 61.1265ZM69.2088 57.3696L69.8645 59.6227L71.7487 57.9226L72.2355 57.9773L71.7786 56.6336L70.688 57.5134L69.2088 57.3696ZM83.0588 59.6577L83.7261 61.9064L85.587 60.215L86.0738 60.2698L85.617 58.9261L84.5424 59.8131L83.0588 59.6577ZM67.8007 57.9042L68.3433 55.4756L65.9413 56.6537L67.8007 57.9042ZM65.9113 60.152L65.788 56.5655L63.4358 58.1905L65.9113 60.152ZM53.2416 68.6883L53.3267 68.8423L54.7328 68.5481L55.9383 68.3566L54.7573 65.877L52.7552 68.7399L53.2416 68.6883ZM50.5485 74.3954L50.6469 74.5843L52.6675 75.3476L52.2559 73.6673L53.0783 74.2202L51.7819 70.56L50.0489 74.412L50.5485 74.3954ZM56.3721 66.0625L55.6292 64.9471L55.0491 66.3651L56.3721 66.0625Z" fill="#C590EE"/>
<path d="M60.6659 63.2745L59.2771 63.8949L60.5112 64.6907L60.6659 63.2745ZM52.9993 72.6797L54.6432 73.9587L55.1003 71.6558L52.9993 72.6797ZM60.2688 77.9051L59.7918 78.8581L60.864 78.8769L60.2688 77.9051ZM64.5479 78.41L64.0681 79.3907L65.1315 79.3862L64.5479 78.41ZM58.7176 76.8703L58.229 77.8277L59.3012 77.8465L58.7176 76.8703ZM63.21 73.0621L64.5167 73.8037L64.3259 72.319L63.21 73.0621ZM59.6825 72.5381L60.9776 73.2841L60.81 71.7906L59.6825 72.5381ZM57.5147 75.4904L58.8098 76.2364L58.6422 74.7429L57.5147 75.4904ZM60.9211 65.9458L59.539 65.672L60.3137 67.0814L60.9211 65.9458ZM57.285 68.9233L58.7942 71.1451L59.922 69.3462L57.285 68.9233Z" fill="#C590EE"/>
<path d="M56.596 70.0898L55.2408 72.2013L57.2144 72.4901L56.596 70.0898ZM62.5589 66.788L59.5439 66.5618L61.3629 69.0387L62.5589 66.788ZM63.8415 61.7495L62.4743 59.3406L61.3465 61.1396L61.0369 59.8331L59.2775 61.406L60.6957 61.9855L60.4214 63.3673L61.8315 62.5924L61.4895 62.323L61.3782 61.4336L63.8415 61.7495Z" fill="#C590EE"/>
<path d="M63.1034 60.3662L61.5011 60.7749L62.8773 61.7696L63.1034 60.3662ZM56.7902 74.2483L57.7116 74.4309L57.3062 73.5733L56.7902 74.2483ZM54.9795 76.4929L55.9009 76.6754L55.4954 75.8179L54.9795 76.4929ZM94.624 66.6593L95.823 66.3106L94.6551 65.6893L94.624 66.6593ZM112.314 73.0658L113.566 72.8567L112.471 72.0749L112.314 73.0658ZM59.0674 65.026L57.8154 62.6399L56.3621 64.2829L59.0674 65.026ZM55.7186 67.708L56.8905 68.6206L56.9866 67.1202L55.7186 67.708ZM62.6883 67.8303L64.6307 65.3361L60.7443 64.3228L62.6883 67.8303ZM61.8506 74.1106L63.6423 76.3051L64.0632 73.3105L61.8506 74.1106ZM60.7307 77.9295L62.518 80.1123L62.9433 77.1294L60.7307 77.9295ZM71.7842 84.4599L74.3527 85.6142L73.396 82.7434L71.7842 84.4599ZM111.639 98.6085L111.072 99.5692L112.141 99.2297L111.639 98.6085ZM63.6048 64.1419L65.9874 64.7013L65.0055 62.4656L63.6048 64.1419ZM70.2444 65.148L70.0289 64.7907L69.6277 65.7681L68.5135 64.7271L68.2534 66.3564L69.6321 65.7797L69.4946 66.3643L70.9204 66.2622L70.2693 65.1785L71.7581 64.7863L70.4665 63.8393L70.2444 65.148ZM74.1088 53.5131L75.8669 56.0398L76.7745 52.714L74.1088 53.5131ZM87.1185 58.8484L88.3314 59.7987L88.281 58.0877L87.1185 58.8484Z" fill="#C590EE"/>
<path d="M74.2352 56.0203L74.5202 56.2449L75.3955 56.9373L75.6274 56.6364L76.776 57.5578L76.7492 55.1724L75.4864 55.5986L74.2352 56.0203ZM99.4918 56.4401L99.462 58.115L101.862 57.5632L99.4918 56.4401ZM75.308 65.0888L73.264 63.5624L72.4188 66.1058L75.308 65.0888ZM86.4836 63.7342L84.4396 62.2077L83.5944 64.7511L86.4836 63.7342ZM78.1879 58.3659L77.4113 57.1968L76.6068 58.2342L78.1879 58.3659ZM81.9181 56.3376L82.5271 54.8554L81.1748 55.5019L81.9181 56.3376ZM74.6876 67.7332L76.941 68.4083L76.4374 66.3103L74.6876 67.7332ZM78.1986 78.9105L80.4476 79.5739L79.9645 77.4948L78.1986 78.9105ZM84.8752 80.4349L87.1242 81.0983L86.6412 79.0192L84.8752 80.4349ZM73.4108 60.5122L71.0249 62.0835L73.6111 63.2843L73.4108 60.5122ZM84.8997 55.8445L82.5254 57.4113L85.1072 58.6005L84.8997 55.8445ZM81.9415 62.291L82.4398 61.5695L81.4574 61.4368L81.9415 62.291ZM75.759 75.7109L75.8712 74.6037L74.9487 75.26L75.759 75.7109ZM83.7785 55.9774L83.8076 54.8617L82.951 55.5862L83.7785 55.9774ZM90.067 62.1608L90.0845 61.0496L89.2278 61.7741L90.067 62.1608ZM75.1866 61.2621L73.7699 60.336L73.9227 62.1412L75.1866 61.2621ZM67.7501 79.55L68.6179 78.3288L67.2784 78.5179L67.7501 79.55ZM74.5255 81.3696L75.3933 80.1485L74.0538 80.3376L74.5255 81.3696ZM87.9539 71.6403L88.6811 72.0829L88.8632 70.9491L87.9539 71.6403ZM83.4762 71.7698L84.1802 72.2212L84.3738 71.083L83.4762 71.7698ZM75.1641 68.8832L74.9661 70.3957L76.2477 69.5631L75.1641 68.8832ZM79.9852 59.7332L79.869 61.3211L81.1619 60.3778L79.9852 59.7332ZM98.8114 70.8855L98.6952 72.4734L99.9881 71.5301L98.8114 70.8855ZM87.8544 52.966L87.7383 54.5539L89.0311 53.6106L87.8544 52.966ZM73.0365 72.4325L72.7671 73.9322L74.0985 73.1606L73.0365 72.4325ZM75.6002 62.7021L75.4845 64.7823L77.1622 63.5199L75.6002 62.7021ZM79.373 55.9464L79.206 58.3122L81.1497 56.9088L79.373 55.9464ZM70.136 70.1932L69.7102 72.6838L71.9063 71.3843L70.136 70.1932ZM67.3572 74.0962L69.8879 74.5195L68.552 72.2984L67.3572 74.0962ZM83.4552 54.1438L84.7484 52.9208L82.8598 52.786L83.4552 54.1438ZM86.0435 54.0528L87.3367 52.8299L85.4482 52.6951L86.0435 54.0528ZM94.5466 56.2147L95.8558 54.999L93.944 54.8731L94.5466 56.2147Z" fill="#C590EE"/>
<path d="M92.617 58.2515L91.4434 56.9137L91.2294 58.8049L92.617 58.2515ZM87.679 55.4149L86.5054 54.0771L86.2914 55.9683L87.679 55.4149ZM94.9803 58.3391L93.8067 57.0013L93.5927 58.8926L94.9803 58.3391ZM73.0496 76.8859L75.2284 75.2602L72.3855 74.7158L73.0496 76.8859ZM72.7354 58.067L74.5715 58.9403L74.4399 56.5947L72.7354 58.067ZM74.9907 58.1157L74.8746 59.7036L76.6876 59.1484L74.9907 58.1157ZM79.6022 56.059L78.8255 54.8899L77.879 56.1143L79.6022 56.059ZM77.62 71.4244L77.3802 70.0914L76.7275 71.1777L77.62 71.4244ZM74.9292 73.2445L73.9451 72.6864L73.8794 73.7761L74.9292 73.2445ZM70.0119 80.5279L70.9667 81.0438L70.603 80.0506L70.0119 80.5279ZM77.8314 65.5282L78.638 65.0224L77.8036 64.7536L77.8314 65.5282ZM91.2002 65.111L91.9951 64.6096L91.1652 64.3524L91.2002 65.111ZM79.6816 53.2872L80.3373 55.5403L82.1982 53.849L82.6922 53.8877L82.2398 52.5556L81.1492 53.4354L79.6816 53.2872ZM74.5226 62.0731L75.6452 63.0311L75.6562 61.3766L74.5226 62.0731ZM77.875 58.8041L79.0995 59.75L79.0491 58.039L77.875 58.8041ZM81.1043 59.0688L80.6882 59.586L81.665 59.7742L81.4418 59.3266L82.5709 58.2325L80.6768 58.1531L81.1043 59.0688Z" fill="#C590EE"/>
<path d="M111.219 70.5669L110.815 71.0798L111.784 71.284L111.573 70.832L112.69 69.7423L110.796 69.6629L111.219 70.5669ZM88.7773 57.6065L88.3773 58.131L89.3424 58.3235L89.1309 57.8715L90.2484 56.7818L88.3542 56.7024L88.7773 57.6065ZM97.7624 60.4771L97.3508 61.006L98.3159 61.1986L98.1044 60.7465L99.2218 59.6568L97.3277 59.5774L97.7624 60.4771ZM93.2483 55.776L93.7917 56.1553L93.9481 55.1643L93.5047 55.3992L92.3773 54.3233L92.3804 56.2253L93.2483 55.776ZM92.684 60.8479L92.2796 61.3608L93.2448 61.5533L93.0332 61.1013L94.1507 60.0116L92.2565 59.9322L92.684 60.8479ZM65.4389 76.4082L65.0008 76.8673L65.9021 77.1373L65.7343 76.6953L66.9136 75.7685L65.0917 75.5285L65.4389 76.4082ZM79.6125 54.9638L79.2008 55.4927L80.1659 55.6853L79.9544 55.2332L81.0719 54.1436L79.1777 54.0641L79.6125 54.9638ZM76.2805 58.2516L76.3631 57.7678L74.998 58.0997L75.7747 59.2688L75.4715 60.7148L77.7773 60.2653L76.2805 58.2516ZM79.34 63.5049L78.6392 62.3603L77.6806 63.4827L79.34 63.5049ZM88.0751 63.5425L87.3743 62.3979L86.4041 63.5248L88.0751 63.5425ZM76.1754 79.7185L76.9026 80.1611L77.0846 79.0273L76.1754 79.7185ZM76.1045 77.9887L76.8994 77.4873L76.0695 77.2301L76.1045 77.9887ZM77.597 75.9581L76.8962 74.8135L75.9421 75.9476L77.597 75.9581ZM76.3595 60.564L77.0152 62.8171L78.8762 61.1257L79.3702 61.1645L78.9177 59.8323L77.8271 60.7122L76.3595 60.564ZM81.1783 73.8532L80.4543 76.0845L82.9455 75.7376L83.3328 76.0564L83.7267 74.7091L82.3374 74.8372L81.1783 73.8532ZM86.3496 55.5603L84.7334 57.2652L87.1473 58.0123L87.3588 58.4644L88.2841 57.3944L86.9682 56.9092L86.3496 55.5603Z" fill="#C590EE"/>
<path d="M90.4753 53.7678L88.8591 55.4726L91.2731 56.2198L91.473 56.6762L92.3982 55.6063L91.0939 55.1166L90.4753 53.7678ZM71.9446 70.7842L74.3149 69.3121L72.2978 68.3477L71.9446 70.7842ZM72.2389 79.6958L74.6092 78.2237L72.5921 77.2593L72.2389 79.6958ZM67.4167 81.1272L66.9369 82.1079L68.0092 82.1267L67.4167 81.1272ZM71.7207 81.6626L71.2321 82.62L72.3044 82.6388L71.7207 81.6626ZM65.8699 80.1041L65.4018 81.0803L66.474 81.0991L65.8699 80.1041ZM80.5249 71.0803L80.0567 72.0565L81.129 72.0753L80.5249 71.0803ZM78.9942 70.0643L78.5144 71.045L79.5866 71.0638L78.9942 70.0643ZM80.7165 64.2201L80.2278 65.1775L81.3001 65.1963L80.7165 64.2201ZM70.3551 76.3119L71.6574 77.0418L71.471 75.5688L70.3551 76.3119ZM66.8276 75.7878L68.1183 76.5222L67.9319 75.0492L66.8276 75.7878ZM64.6598 78.7402L65.9549 79.4862L65.7874 77.9927L64.6598 78.7402Z" fill="#C590EE"/>
<path d="M69.6909 70.0029L66.6759 69.7767L68.4833 72.258L69.6909 70.0029ZM66.7704 68.6229L68.7127 66.1287L64.822 65.1038L66.7704 68.6229ZM68.9825 77.3254L70.7742 79.5199L71.1951 76.5253L68.9825 77.3254ZM82.7082 88.7904L82.2817 89.2451L83.1875 89.5267L83.0197 89.0847L84.1945 88.1463L82.3726 87.9063L82.7082 88.7904ZM77.8763 84.4096L77.3965 85.3903L78.4688 85.4091L77.8763 84.4096ZM81.0784 85.5496L81.9463 84.3284L80.6068 84.5176L81.0784 85.5496ZM83.3475 86.5114L84.2863 87.0201L83.9342 86.0226L83.3475 86.5114ZM99.4506 89.7541L100.401 90.2584L100.026 89.2697L99.4506 89.7541ZM96.6328 85.2076L97.5875 85.7235L97.2238 84.7304L96.6328 85.2076ZM88.2179 82.1205L89.1726 82.6364L88.8089 81.6433L88.2179 82.1205ZM79.16 81.1274L78.7218 81.5866L79.6232 81.8566L79.4554 81.4146L80.6347 80.4877L78.8127 80.2478L79.16 81.1274ZM96.1268 93.6245L95.7002 94.0792L96.6016 94.3492L96.4338 93.9072L97.6131 92.9804L95.7911 92.7404L96.1268 93.6245ZM104.407 71.4228L103.969 71.8819L104.875 72.1635L104.707 71.7215L105.882 70.7831L104.06 70.5431L104.407 71.4228ZM88.3796 76.5493L87.9531 77.0041L88.8588 77.2857L88.691 76.8437L89.8659 75.9052L88.0439 75.6653L88.3796 76.5493ZM80.7364 87.1035L80.2566 88.0841L81.32 88.0797L80.7364 87.1035ZM79.194 86.092L78.7142 87.0726L79.7777 87.0682L79.194 86.092Z" fill="#C590EE"/>
<path d="M80.1429 81.7525L81.4496 82.4941L81.2588 81.0094L80.1429 81.7525ZM80.7975 68.8873L82.0882 69.6217L81.8974 68.1371L80.7975 68.8873ZM87.5428 86.7953L88.8379 87.5413L88.6703 86.0478L87.5428 86.7953ZM77.9635 84.7092L79.2702 85.4509L79.0794 83.9662L77.9635 84.7092ZM85.9197 68.9124L87.2148 69.6585L87.0473 68.165L85.9197 68.9124ZM83.2474 82.1443L82.3007 84.8061L85.0727 83.6206L83.2474 82.1443ZM74.4343 83.7599L76.2216 85.9428L76.647 82.9599L74.4343 83.7599ZM77.7498 67.3826L79.5372 69.5654L79.9625 66.5825L77.7498 67.3826ZM70.7572 67.3755L73.1282 67.9394L72.1418 65.692L70.7572 67.3755ZM115.881 87.6157L116.556 88.5173L116.645 87.4188L115.881 87.6157ZM114.028 92.0988L114.703 93.0004L114.815 91.8931L114.028 92.0988ZM98.8757 115.525L98.2632 114.613L98.1069 115.604L98.8757 115.525ZM107.894 108.907L107.262 108.016L107.129 108.998L107.894 108.907ZM108.513 99.4226L109.426 98.9163L108.346 98.701L108.513 99.4226ZM102.473 106.8L102.258 105.777L101.705 106.599L102.473 106.8ZM101.077 101.474L100.878 100.458L100.32 101.269L101.077 101.474ZM47.5889 80.523L50.2855 79.4194L48.5428 77.8452L47.5889 80.523ZM54.4765 81.2354L54.2566 80.8664L53.8554 81.8438L52.7413 80.8028L52.481 82.4321L53.8598 81.8555L53.7223 82.44L55.1437 82.3263L54.4926 81.2426L55.9813 80.8504L54.681 79.8801L54.4765 81.2354ZM93.1462 95.488L92.7487 96.6503L93.8137 96.2993L93.1462 95.488ZM50.6252 77.9995L50.7165 76.7671L49.4874 77.6329L50.8335 78.3729L51.1356 80.361L53.2947 78.5432L50.6252 77.9995ZM60.4436 82.3638L58.3996 80.8374L57.5544 83.3808L60.4436 82.3638ZM83.6057 89.541L82.5859 88.7836L82.0379 90.216L83.6057 89.541ZM53.6394 78.399L55.3663 78.9146L55.0249 77.3141L53.6394 78.399ZM58.8788 83.783L61.1277 84.4464L60.6242 82.3484L58.8788 83.783ZM58.672 77.8726L56.2861 79.4438L58.8911 80.6241L58.672 77.8726ZM61.3732 102.453L61.4854 101.346L60.5629 102.002L61.3732 102.453ZM88.2923 123.735L88.4266 122.686L87.5578 123.309L88.2923 123.735ZM83.6199 109.499L83.6972 108.405L82.804 109.103L83.6199 109.499ZM58.8072 96.7462L59.6751 95.525L58.3356 95.7141L58.8072 96.7462ZM54.5949 97.6799L55.4628 96.4587L54.1233 96.6478L54.5949 97.6799ZM51.9819 96.3029L52.8497 95.0818L51.5102 95.2709L51.9819 96.3029ZM62.1445 83.3018L62.844 83.7416L63.0377 82.6034L62.1445 83.3018ZM61.1357 86.8522L60.9582 88.3836L62.2354 87.5394L61.1357 86.8522ZM58.9805 90.3987L58.7271 91.9056L60.0496 91.1107L58.9805 90.3987ZM59.7986 78.7358L59.6873 80.8276L61.3606 79.5535L59.7986 78.7358ZM78.36 103.71L78.2443 105.79L79.9175 104.516L78.36 103.71ZM77.2757 98.3988L77.16 100.479L78.8332 99.2049L77.2757 98.3988ZM73.1952 84.2836L73.0795 86.3637L74.7688 85.0969L73.1952 84.2836ZM84.2036 113.842L83.7155 116.063L85.7596 114.995L84.2036 113.842ZM95.8383 96.582L95.703 98.856L97.5448 97.4647L95.8383 96.582ZM84.667 97.1765L86.9492 97.4014L85.6307 95.5064L84.667 97.1765ZM76.0015 108.931L78.2633 109.137L76.9563 107.237L76.0015 108.931ZM74.1743 89.5281L76.4449 89.7574L75.138 87.858L74.1743 89.5281ZM88.8153 97.7577L91.0976 97.9825L89.779 96.0876L88.8153 97.7577ZM78.0429 119.814L80.3047 120.02L78.9861 118.125L78.0429 119.814ZM81.9777 93.0736L84.0485 93.6184L83.1128 91.6446L81.9777 93.0736ZM57.1707 88.0514L56.7448 90.5421L58.941 89.2425L57.1707 88.0514ZM53.2851 92.0552L55.8201 92.4902L54.4959 90.2646L53.2851 92.0552Z" fill="#C590EE"/>
<path d="M47.0554 84.1325L51.3378 82.5068L47.7319 80.5486L47.0554 84.1325ZM59.0213 94.8549L61.2002 93.2292L58.3573 92.6848L59.0213 94.8549ZM56.4788 92.8922L58.6576 91.2665L55.8147 90.7221L56.4788 92.8922ZM70.5296 104.407L73.0858 103.53L70.5397 102.154L70.5296 104.407ZM53.0732 94.4779L54.9862 94.1509L53.3467 92.8835L53.0732 94.4779ZM53.8426 94.8912L52.5031 95.0803L53.4415 96.2545L53.8426 94.8912ZM63.2503 98.1736L63.0105 96.8406L62.3622 97.9385L63.2503 98.1736ZM60.9009 91.2134L59.9168 90.6554L59.8395 91.7494L60.9009 91.2134ZM85.0463 94.3175L85.2248 93.3847L84.3757 93.8135L85.0463 94.3175ZM76.3217 96.9377L78.6039 97.1626L77.2853 95.2676L76.3217 96.9377ZM81.0721 98.3682L81.9231 97.6991L80.8725 97.6322L81.0721 98.3682ZM73.7752 95.8415L73.3371 96.3007L74.2429 96.5823L74.0867 96.1359L75.2499 95.2018L73.4513 94.9531L73.7752 95.8415Z" fill="#C590EE"/>
<path d="M74.3796 93.5758L75.3343 94.0917L74.9706 93.0986L74.3796 93.5758ZM74.6537 96.6126L73.6455 95.8508L73.0976 97.2832L74.6537 96.6126ZM73.631 103.283L75.9016 103.512L74.583 101.617L73.631 103.283ZM73.0009 100.115L75.1038 100.674L74.1564 98.7045L73.0009 100.115ZM76.1175 101.38L76.296 100.448L75.4585 100.872L76.1175 101.38ZM49.9712 87.3242L50.2453 86.9939L49.173 86.9751L49.6255 85.7121L48.0011 86.0626L49.1641 86.9519L48.2745 87.0634L49.1884 88.3135L49.8436 87.4791L50.8763 88.551L51.1145 86.8636L49.9712 87.3242ZM50.7023 89.4955L52.4772 89.2608L51.7387 88.1571L50.7023 89.4955ZM52.2773 86.2092L51.3641 87.381L53.0203 87.3245L52.2773 86.2092ZM86.6701 114.622L87.5211 113.953L86.4705 113.886L86.6701 114.622ZM61.0719 97.6963L62.0222 98.2006L61.6585 97.2074L61.0719 97.6963ZM82.7656 121.242L83.6094 120.589L82.5544 120.51L82.7656 121.242ZM95.9773 116.412L96.8283 115.743L95.7777 115.676L95.9773 116.412ZM54.4731 96.3419L55.489 94.9847L54.0114 94.8802L54.4731 96.3419ZM97.0376 114.12L97.8485 113.626L97.0142 113.357L97.0376 114.12ZM85.5412 122.836L86.2893 123.404L86.2262 122.536L85.5412 122.836ZM87.2906 120.921L88.1441 120.504L87.3415 120.143L87.2906 120.921Z" fill="#C590EE"/>
<path d="M62.0414 81.5575L62.8479 81.0516L62.018 80.7944L62.0414 81.5575ZM83.2166 118.502L82.7784 118.961L83.6842 119.243L83.5164 118.801L84.6796 117.867L82.8809 117.618L83.2166 118.502ZM56.4899 93.5533L56.0562 94.0241L56.9576 94.2941L56.8014 93.8477L57.9646 92.9136L56.166 92.6649L56.4899 93.5533ZM62.1491 112.739L61.711 113.198L62.6167 113.479L62.4489 113.037L63.6238 112.099L61.8251 111.85L62.1491 112.739ZM57.406 95.335L56.9678 95.7941L57.8692 96.0641L57.7014 95.6221L58.8807 94.6953L57.0587 94.4553L57.406 95.335ZM66.349 101.216L65.9109 101.675L66.8122 101.945L66.6444 101.503L67.8237 100.576L66.0017 100.336L66.349 101.216ZM55.1311 79.5228L58.1815 77.6328L55.5865 76.4087L55.1311 79.5228ZM47.1528 87.4759L47.3005 87.6194L48.4927 87.0072L49.5224 86.563L47.1166 84.1891L46.6946 87.6366L47.1528 87.4759Z" fill="#C590EE"/>
<path d="M47.1783 91.3656L47.3377 91.5048L49.5111 91.4782L48.5193 90.058L49.4977 90.2855L46.9542 87.3383L46.7406 91.5452L47.1783 91.3656ZM57.4884 85.1358L56.7454 84.0205L56.1654 85.4385L57.4884 85.1358ZM53.7651 84.4466L52.3646 85.0714L53.622 85.8584L53.7651 84.4466ZM58.4607 98.2883L57.9809 99.269L59.0443 99.2646L58.4607 98.2883ZM57.3101 108.374L56.8302 109.355L57.9025 109.373L57.3101 108.374ZM56.9212 97.2492L56.453 98.2254L57.4931 98.2298L56.9212 97.2492ZM61.418 93.4525L62.7131 94.1986L62.5455 92.7051L61.418 93.4525ZM57.8672 92.9373L59.1695 93.6673L58.9787 92.1826L57.8672 92.9373ZM55.711 95.8853L57.0017 96.6197L56.8109 95.135L55.711 95.8853ZM54.0219 87.1572L52.6281 86.8878L53.4261 88.2884L54.0219 87.1572Z" fill="#C590EE"/>
<path d="M50.3902 90.1463L51.8762 92.377L53.0039 90.5781L50.3902 90.1463ZM55.6581 87.9601L52.6199 87.7428L54.4389 90.2197L55.6581 87.9601ZM54.5142 83.7896L53.1559 81.404L52.0281 83.2029L51.7025 81.8892L49.9518 83.4854L51.3657 84.0533L51.0958 85.4467L52.5059 84.6718L52.1639 84.4024L52.0526 83.513L54.5142 83.7896ZM54.4338 79.6146L52.8547 80.0144L54.2193 81.0136L54.4338 79.6146ZM54.9938 94.6271L55.9268 94.8052L55.5098 93.9521L54.9938 94.6271ZM53.1831 96.8717L54.1161 97.0498L53.699 96.1967L53.1831 96.8717ZM50.5739 86.8426L51.4871 85.6708L50.2237 85.2188L50.5739 86.8426ZM48.7828 88.8934L49.9548 89.8059L50.0741 88.2967L48.7828 88.8934Z" fill="#C590EE"/>
<path d="M55.7759 89.0068L57.7183 86.5127L53.8319 85.4993L55.7759 89.0068ZM48.5669 77.663L51.4914 71.1627L54.4022 77.8832L48.5669 77.663ZM48.2189 98.4901L46.9152 91.479L53.148 95.3412L48.2189 98.4901ZM60.0426 94.4938L61.8415 96.6723L62.2552 93.6938L60.0426 94.4938ZM58.9183 98.3011L60.7216 100.491L61.1309 97.501L58.9183 98.3011ZM64.526 114.405L67.0945 115.559L66.1422 112.7L64.526 114.405ZM54.9645 83.4324L57.3354 83.9963L56.3768 81.7517L54.9645 83.4324ZM53.1095 98.5366L52.8895 98.1676L52.4884 99.145L51.3742 98.1041L51.114 99.7334L52.4928 99.1567L52.3436 99.7457L53.7694 99.6436L53.13 98.5555L54.6143 98.1516L53.3228 97.2046L53.1095 98.5366Z" fill="#C590EE"/>
<path d="M51.3566 101.811L49.3783 102.562L52.91 104.149L51.3566 101.811ZM53.6639 92.457L52.3056 90.0713L51.1778 91.8703L50.8521 90.5566L49.1015 92.1528L50.5154 92.7207L50.2455 94.114L51.6555 93.3392L51.3136 93.0697L51.2023 92.1804L53.6639 92.457ZM52.3913 97.0658L50.7889 97.4745L52.1651 98.4692L52.3913 97.0658ZM49.3261 102.249L51.669 100.108L48.0001 98.4401L49.3261 102.249Z" fill="#C590EE"/>
<path d="M49.8986 103.336L50.799 105.602L52.0845 103.517L49.8986 103.336ZM61.6229 84.418L61.403 84.049L61.0018 85.0265L59.8876 83.9855L59.6275 85.6148L61.0062 85.0381L60.857 85.6271L62.2828 85.525L61.6318 84.4413L63.1161 84.0375L61.8246 83.0905L61.6229 84.418ZM66.65 84.3328L64.6059 82.8064L63.7608 85.3499L66.65 84.3328ZM66.0268 87.0049L68.2757 87.6683L67.7839 85.566L66.0268 87.0049ZM70.9491 108.879L73.2025 109.554L72.7106 107.452L70.9491 108.879ZM63.7025 108.729L65.9514 109.392L65.4567 107.317L63.7025 108.729ZM77.6446 110.383L79.898 111.058L79.3945 108.96L77.6446 110.383ZM64.7805 79.759L62.3946 81.3303L64.9807 82.5311L64.7805 79.759ZM68.5124 105.652L68.6246 104.544L67.7181 105.208L68.5124 105.652ZM60.5283 109.521L61.3961 108.3L60.0566 108.489L60.5283 109.521ZM63.3935 106.477L64.2613 105.256L62.9218 105.445L63.3935 106.477ZM67.3021 111.302L68.1699 110.08L66.8304 110.27L67.3021 111.302ZM79.3192 90.8755L80.0464 91.3181L80.2284 90.1842L79.3192 90.8755ZM74.8503 91.0282L75.5499 91.468L75.7319 90.3342L74.8503 91.0282ZM67.9291 98.8195L67.7515 100.351L69.0287 99.5067L67.9291 98.8195ZM57.2395 105.593L56.9861 107.1L58.3175 106.328L57.2395 105.593Z" fill="#C590EE"/>
<path d="M66.9377 81.9345L66.8264 84.0262L68.4997 82.7522L66.9377 81.9345ZM62.8804 100.111L62.4546 102.601L64.6507 101.302L62.8804 100.111ZM60.1016 104.014L62.6323 104.437L61.308 102.211L60.1016 104.014ZM65.8217 106.806L68.0005 105.18L65.1577 104.636L65.8217 106.806ZM70.3805 101.349L70.1407 100.016L69.4647 101.111L70.3805 101.349ZM67.6896 103.169L66.7056 102.611L66.6283 103.705L67.6896 103.169ZM62.7724 110.453L63.7272 110.968L63.3634 109.975L62.7724 110.453ZM69.1689 84.7606L69.9754 84.2548L69.1339 84.002L69.1689 84.7606ZM58.1877 106.337L57.7496 106.796L58.6554 107.078L58.4992 106.632L59.6624 105.698L57.8638 105.449L58.1877 106.337ZM68.9358 109.643L69.6631 110.086L69.8451 108.952L68.9358 109.643ZM68.8533 107.918L69.6526 107.428L68.8183 107.159L68.8533 107.918ZM70.3547 105.91L69.6538 104.766L68.6837 105.893L70.3547 105.91ZM73.9432 103.79L73.2192 106.021L75.7104 105.674L76.0977 105.993L76.4711 104.626L75.0818 104.755L73.9432 103.79ZM64.7124 100.693L67.0827 99.2206L65.0656 98.2563L64.7124 100.693ZM56.5508 103.498L58.9211 102.026L56.904 101.062L56.5508 103.498ZM60.1729 111.04L59.6842 111.998L60.7565 112.016L60.1729 111.04Z" fill="#C590EE"/>
<path d="M64.442 111.589L63.9622 112.569L65.0256 112.565L64.442 111.589ZM58.6233 110.045L58.1347 111.002L59.2069 111.021L58.6233 110.045ZM71.8713 90.3358L71.3943 91.2888L72.4433 91.3164L71.8713 90.3358ZM70.3406 89.3198L69.8519 90.2773L70.9242 90.2961L70.3406 89.3198ZM57.2989 104.066L58.5896 104.801L58.4032 103.327L57.2989 104.066ZM59.5693 105.733L60.8761 106.474L60.6852 104.99L59.5693 105.733ZM57.4248 108.676L58.7199 109.422L58.5291 107.938L57.4248 108.676ZM62.8089 91.1544L59.7706 90.937L61.5897 93.4139L62.8089 91.1544ZM59.8884 89.7744L61.8307 87.2803L57.94 86.2553L59.8884 89.7744ZM52.7518 100.961L54.5435 103.156L54.9688 100.173L52.7518 100.961ZM61.0796 107.116L62.8669 109.299L63.2923 106.316L61.0796 107.116ZM75.4499 118.735L75.0117 119.195L75.9131 119.465L75.7569 119.018L76.9246 118.096L75.1259 117.847L75.4499 118.735ZM70.5991 114.375L70.131 115.351L71.1944 115.347L70.5991 114.375ZM73.8245 115.506L74.6924 114.285L73.3529 114.474L73.8245 115.506ZM76.0776 116.461L77.0279 116.965L76.6758 115.968L76.0776 116.461ZM92.1966 119.711L93.1398 120.231L92.7877 119.234L92.1966 119.711ZM89.3789 115.164L90.3176 115.673L89.9655 114.675L89.3789 115.164ZM80.9639 112.077L81.9143 112.581L81.5506 111.588L80.9639 112.077ZM71.9017 111.072L71.4635 111.532L72.3693 111.813L72.2015 111.371L73.3647 110.437L71.566 110.188L71.9017 111.072ZM80.8092 123.874L80.3827 124.329L81.2884 124.611L81.1206 124.169L82.2955 123.23L80.4736 122.99L80.8092 123.874ZM81.1329 106.49L80.6991 106.961L81.6005 107.231L81.4443 106.784L82.612 105.862L80.8133 105.613L81.1329 106.49ZM73.4664 117.053L72.9982 118.029L74.0617 118.025L73.4664 117.053ZM71.9357 116.037L71.4559 117.018L72.5193 117.013L71.9357 116.037ZM72.8657 111.718L74.1564 112.452L73.9932 110.97L72.8657 111.718ZM72.6659 90.4999L72.5547 92.5917L74.2279 91.3176L72.6659 90.4999ZM70.3102 95.6929L72.5808 95.9222L71.2739 94.0228L70.3102 95.6929ZM63.5358 89.6673L66.1036 88.7857L63.5575 87.4099L63.5358 89.6673ZM64.7784 93.3612L67.0274 94.0246L66.5355 91.9223L64.7784 93.3612ZM69.5242 99.1987L71.7732 99.8621L71.2813 97.7598L69.5242 99.1987ZM63.29 96.4549L64.0172 96.8975L64.1993 95.7637L63.29 96.4549ZM63.2031 94.7179L63.998 94.2165L63.1681 93.9593L63.2031 94.7179ZM64.7044 92.7106L64.008 91.5775L63.0495 92.7L64.7044 92.7106Z" fill="#C590EE"/>
<path d="M67.2461 90.7077L66.4988 92.9478L69.0017 92.5965L69.3846 92.9036L69.7668 91.5607L68.3776 91.6889L67.2461 90.7077ZM66.2399 97.8771L65.8018 98.3363L66.7032 98.6063L66.547 98.1598L67.7146 97.2374L65.916 96.9887L66.2399 97.8771ZM75.4639 93.3107L75.0258 93.7698L75.9316 94.0514L75.7638 93.6094L76.9386 92.671L75.1167 92.431L75.4639 93.3107ZM67.22 98.5298L68.5268 99.2714L68.3359 97.7868L67.22 98.5298ZM72.1236 88.1241L73.4142 88.8585L73.2278 87.3855L72.1236 88.1241ZM80.2802 116.729L81.5753 117.475L81.3844 115.99L80.2802 116.729ZM70.7097 114.666L72.0004 115.4L71.8372 113.919L70.7097 114.666ZM77.2574 88.1448L78.5525 88.8908L78.3617 87.4061L77.2574 88.1448ZM78.4808 111.849L77.5386 114.522L80.3106 113.337L78.4808 111.849ZM78.7455 91.6789L77.7872 94.3451L80.5709 93.1552L78.7455 91.6789ZM67.1805 113.717L68.9722 115.911L69.3932 112.917L67.1805 113.717ZM69.0642 86.6238L70.8632 88.8022L71.2885 85.8193L69.0642 86.6238ZM62.0921 86.6356L64.463 87.1994L63.4811 84.9637L62.0921 86.6356ZM93.2171 107.599L92.214 108.113L93.2726 108.376L93.2171 107.599ZM96.7517 104.354L95.7574 104.891L96.8277 105.15L96.7517 104.354ZM91.5033 102.979L90.9662 101.985L90.7067 103.055L91.5033 102.979Z" fill="#C590EE"/>
<path d="M55.6478 107.608L53.6038 106.081L52.7586 108.625L55.6478 107.608ZM53.7561 109.989L56.005 110.653L55.5103 108.578L53.7561 109.989ZM55.7732 97.5919L53.3873 99.1631L55.969 100.352L55.7732 97.5919ZM55.4965 112.47L56.2237 112.912L56.4057 111.778L55.4965 112.47ZM58.3271 98.3924L58.1882 100.481L59.8775 99.2145L58.3271 98.3924ZM66.2647 113.479L66.1534 115.571L67.8267 114.296L66.2647 113.479ZM82.242 99.9071L82.1111 102.193L83.9529 100.801L82.242 99.9071ZM77.0783 101.175L81.3905 103.065L80.435 100.127L77.0783 101.175ZM68.4225 121.723L72.7347 123.613L71.7836 120.686L68.4225 121.723ZM62.4025 118.631L65.3816 120.096L64.8258 117.299L62.4025 118.631ZM57.2978 114.514L61.0644 117.316L60.7931 114.252L57.2978 114.514ZM67.2643 118.742L69.5349 118.971L68.2163 117.076L67.2643 118.742ZM86.0692 105.148L88.3397 105.378L87.0328 103.478L86.0692 105.148ZM75.0472 122.269L77.118 122.814L76.1706 120.844L75.0472 122.269ZM78.1362 123.532L78.3146 122.599L77.4728 123.012L78.1362 123.532ZM60.5612 101.191L61.3561 100.689L60.5262 100.432L60.5612 101.191Z" fill="#C590EE"/>
<path d="M51.1173 106.16L53.4999 106.72L52.518 104.484L51.1173 106.16ZM57.3237 110.725L57.1081 110.367L56.707 111.345L55.5928 110.304L55.3326 111.933L56.7114 111.356L56.5738 111.941L57.9996 111.839L57.3486 110.755L58.8373 110.363L57.5458 109.416L57.3237 110.725Z" fill="#C590EE"/>
<path d="M60.0656 113.037L58.026 111.522L57.1808 114.066L60.0656 113.037ZM59.3274 114.249L61.3875 115.397L61.3703 113.247L59.3274 114.249ZM72.3902 120.11L73.0941 120.561L73.2878 119.423L72.3902 120.11ZM67.9125 120.239L68.6397 120.682L68.8217 119.548L67.9125 120.239Z" fill="#C590EE"/>
<path d="M60.0205 111.165L59.8816 113.254L61.5664 111.975L60.0205 111.165ZM62.2634 113.986L63.0583 113.485L62.2284 113.228L62.2634 113.986ZM65.2018 117.343L66.5085 118.084L66.3177 116.599L65.2018 117.343ZM70.3356 117.363L71.6424 118.105L71.4515 116.62L70.3356 117.363ZM62.1425 115.842L63.9342 118.037L64.3551 115.042L62.1425 115.842ZM54.1205 105.233L56.5031 105.792L55.5168 103.545L54.1205 105.233ZM94.9239 110.797L93.9295 111.334L94.9998 111.593L94.9239 110.797ZM89.6594 109.415L89.1456 108.412L88.8861 109.482L89.6594 109.415ZM100.409 108.342L99.2908 108.447L100.181 109.107L100.409 108.342ZM88.2024 101.93L87.084 102.035L87.9738 102.695L88.2024 101.93Z" fill="#C590EE"/>
<path d="M103.193 80.9201C107.42 92.0521 101.816 104.507 90.6794 108.735C79.5428 112.963 67.0857 107.364 62.8595 96.2324C61.5524 92.7893 61.1859 89.2286 61.6328 85.8116C62.0798 82.3946 63.3374 79.149 65.2696 76.3127C67.6757 72.8306 71.1288 70.0025 75.3763 68.39C86.5058 64.1782 98.9629 69.7765 103.189 80.9085L103.193 80.9201Z" fill="url(#paint5_linear_375_4239)"/>
<path d="M82.7684 110.061L81.6213 108.793L81.0901 110.06L82.7684 110.061ZM80.2929 108.1L80.2516 108.342L80.8246 108.098L80.8544 109.018L81.6389 108.454L80.8362 108.093L81.14 107.911L80.5026 107.355L80.3161 108.091L79.5335 107.643L79.6858 108.57L80.2929 108.1ZM62.632 93.9499L63.5164 93.6142L62.7061 93.1632L62.632 93.9499ZM63.1124 86.4478L63.7533 86.0315L63.0939 85.8027L63.1124 86.4478ZM67.0064 81.975L67.6151 81.5443L66.9485 81.3316L67.0064 81.975ZM72.9908 78.2391L73.6393 77.9131L73.032 77.6113L72.9908 78.2391ZM67.2908 92.474L67.8863 92.0084L67.2053 91.8278L67.2908 92.474ZM66.0765 95.2374L66.672 94.7718L65.991 94.5912L66.0765 95.2374ZM63.4891 90.7366L64.0845 90.2709L63.4196 90.0975L63.4891 90.7366ZM66.9686 76.0537L67.5618 76.4939L67.5649 75.8007L66.9686 76.0537ZM79.2005 108.169L78.6605 108.64L79.5177 108.793L79.2784 107.953L79.9797 106.994L78.3271 106.85L79.2005 108.169ZM78.2811 105.151L78.4836 106.631L79.8924 105.923L78.2811 105.151ZM71.6265 92.5316L71.7197 93.2681L72.5515 92.8991L71.6265 92.5316ZM72.3715 96.7737L72.4852 97.529L73.3054 97.1644L72.3715 96.7737ZM73.0781 106.42L72.3879 107.268L73.431 107.631L73.0781 106.42ZM65.7543 92.565L64.8831 92.9356L65.6986 93.2249L65.7543 92.565Z" fill="#B377E1"/>
<path d="M63.7564 88.3193L62.8852 88.69L63.7007 88.9793L63.7564 88.3193ZM62.396 88.3833L61.5248 88.7539L62.3403 89.0432L62.396 88.3833ZM70.8233 105.04L69.227 105.114L70.4073 105.944L70.8233 105.04ZM79.48 109.606L78.9927 108.673L78.4671 109.498L79.48 109.606ZM79.5355 105.193L78.8752 103.98L78.2181 105.055L79.5355 105.193ZM73.9022 100.385L72.7367 99.6294L72.6586 100.897L73.9022 100.385ZM71.7675 96.1645L70.602 95.4092L70.5472 96.6677L71.7675 96.1645ZM77.1506 107.749L78.7952 108.083L78.2107 106.508L77.1506 107.749ZM71.4128 91.162L70.9031 91.2224L71.2094 91.6784L71.4128 91.162ZM71.2584 94.8938L70.7576 94.9775L71.0639 95.4335L71.2584 94.8938ZM74.2459 104.447L73.7495 104.542L74.0951 104.996L74.2459 104.447ZM62.3511 85.8451L61.8266 86.2172L62.4828 86.3673L62.3511 85.8451ZM82.3878 101.449L81.8766 101.856L82.5312 101.967L82.3878 101.449ZM75.4071 78.8523L74.9147 79.2388L75.5416 79.3469L75.4071 78.8523ZM76.0656 89.2492L75.5953 89.694L76.2482 89.7655L76.0656 89.2492ZM67.9602 97.8495L67.4899 98.2941L68.1501 98.3496L67.9602 97.8495ZM76.6201 107.684L76.8337 108.668L77.5182 107.876L76.6201 107.684ZM87.3301 103.139L86.4581 103.297L87.0922 103.775L87.3301 103.139ZM89.4829 104.531L88.6064 104.678L89.2406 105.155L89.4829 104.531ZM89.9847 106.204L89.1127 106.362L89.7468 106.84L89.9847 106.204ZM77.9535 104.077L77.835 103.59L77.2756 103.975L77.9535 104.077ZM79.785 104.553L80.5113 104.011L79.6365 103.811L79.785 104.553ZM73.9765 106.332L74.6763 105.72L73.7448 105.582L73.9765 106.332ZM82.1675 103.955L82.9026 103.436L82.0189 103.212L82.1675 103.955ZM77.0381 106.927L77.9542 106.113L76.7181 105.943L77.0381 106.927ZM75.8491 93.8697L76.7652 93.0561L75.5292 92.8865L75.8491 93.8697ZM73.7804 99.0469L74.6965 98.2333L73.4604 98.0638L73.7804 99.0469ZM65.3553 86.6742L66.462 85.8016L65.0798 85.5278L65.3553 86.6742ZM76.1208 88.0971L77.2543 87.4005L75.9649 86.9851L76.1208 88.0971ZM69.4579 84.5045L70.4538 83.6207L69.107 83.44L69.4579 84.5045ZM74.37 88.9214L73.5123 87.8895L73.2713 89.2187L74.37 88.9214ZM78.9911 92.6769L78.1334 91.645L77.8924 92.9742L78.9911 92.6769Z" fill="#B377E1"/>
<path d="M75.5446 96.4341L74.6985 95.3978L74.4459 96.7314L75.5446 96.4341ZM73.5485 85.2141L72.7024 84.1778L72.4614 85.507L73.5485 85.2141ZM82.6819 87.2831L81.8358 86.2468L81.5948 87.576L82.6819 87.2831ZM73.7721 91.7303L73.1444 90.6377L72.7179 91.8643L73.7721 91.7303ZM81.9382 105.665L83.144 104.808L81.6945 104.427L81.9382 105.665ZM85.21 105.621L84.3398 104.381L83.9668 105.853L85.21 105.621ZM64.4584 94.2015L63.4121 94.1461L64.1366 95.0023L64.4584 94.2015ZM64.0033 91.8456L62.9684 91.6795L63.5897 92.6148L64.0033 91.8456ZM84.0016 102.087L82.42 101.849L83.3609 103.275L84.0016 102.087ZM84.2479 103.963L82.6663 103.725L83.626 105.131L84.2479 103.963ZM79.414 96.8417L77.9748 96.137L78.4634 97.7748L79.414 96.8417ZM88.7797 106.502L87.8622 105.838L88.0141 107.045L88.7797 106.502ZM74.3224 108.33L75.2281 108.612L75.1509 107.497L74.3224 108.33ZM88.6131 105.993L89.2472 106.471L89.3458 105.608L88.6131 105.993ZM79.8177 102.464L79.3599 103.117L80.0935 102.945L79.8177 102.464ZM81.6838 102.821L81.8597 103.459L82.3532 103.006L81.6838 102.821ZM73.0251 89.9378L72.5688 90.244L73.0881 90.4195L73.0251 89.9378ZM69.6182 91.2045L68.4606 92.0832L69.852 92.4866L69.6182 91.2045ZM65.0197 96.171L63.79 95.3868L63.8917 96.8121L65.0197 96.171ZM66.1963 90.8533L64.9493 90.1289L65.1225 91.5671L66.1963 90.8533ZM88.012 109.109L87.8465 107.761L86.5472 108.547L88.012 109.109ZM84.2164 108.58L83.9616 108.61L84.3975 109.057L83.6909 109.405L84.5116 109.919L84.3975 109.057L84.8125 109.378L84.9532 108.487L84.3416 108.559L84.3572 107.688L83.5466 108.289L84.2164 108.58Z" fill="#B377E1"/>
<path d="M85.2273 107.77L84.3929 107.116L84.2357 107.894L85.2273 107.77ZM83.2313 108.475L84.0933 108.361L83.3769 107.701L83.2313 108.475ZM88.2814 109.432L87.6673 108.867L87.4487 109.589L88.2814 109.432ZM86.1909 108.695L86.9898 108.099L86.0885 107.829L86.1909 108.695ZM76.9352 85.8581L76.3056 85.7777L76.7181 86.2333L76.9352 85.8581ZM86.7875 101.815L86.6016 101.22L86.3328 101.774L86.7875 101.815ZM81.3244 84.7241L80.6948 84.6438L81.1002 85.1154L81.3244 84.7241ZM73.8228 81.2371L73.1932 81.1567L73.5986 81.6283L73.8228 81.2371ZM88.9682 105.139L87.9854 105.286L88.5518 105.936L88.9682 105.139ZM68.6991 81.5586L68.5393 80.9272L68.2239 81.4994L68.6991 81.5586ZM70.7633 78.579L70.5875 77.9404L70.2998 78.5154L70.7633 78.579ZM67.769 90.6821L67.6185 90.1803L67.2301 90.7004L67.769 90.6821ZM68.0388 94.0932L67.932 93.6014L67.5071 94.0954L68.0388 94.0932ZM69.0319 85.0655L68.4909 84.9382L68.7258 85.3814L69.0319 85.0655ZM72.4657 81.7656L71.932 81.6222L72.1552 82.0698L72.4657 81.7656ZM80.8876 82.907L80.8096 82.351L80.479 82.7427L80.8876 82.907ZM79.3466 82.9863L78.8185 82.7875L79.0039 83.2761L79.3466 82.9863ZM77.3433 104.854L76.8068 104.739L77.0416 105.182L77.3433 104.854ZM74.6233 107.79L73.9262 107.216L73.8132 108.111L74.7474 107.836L75.7314 108.394L75.8059 106.942L74.6233 107.79ZM77.2932 107.668L77.23 106.801L76.5247 107.468L77.2932 107.668Z" fill="#B377E1"/>
<path d="M74.4696 107.596L74.3699 106.702L73.6678 107.448L74.4696 107.596ZM73.2474 106.13L73.6274 106.079L73.3124 105.599L73.2173 105.875L72.3023 105.85L73.0573 106.681L73.2474 106.13ZM79.9922 85.6691L80.3855 85.6529L80.1214 85.1676L80.0058 85.4244L79.127 85.3188L79.7728 86.1783L79.9922 85.6691ZM86.9677 105.446L87.3377 105.439L87.0736 104.953L86.9536 105.199L86.0908 105.1L86.7322 105.948L86.9677 105.446ZM86.3585 96.8271L86.7285 96.8197L86.476 96.33L86.3605 96.5868L85.4816 96.4812L86.1274 97.3407L86.3585 96.8271ZM87.3436 104.332L87.7136 104.324L87.4495 103.839L87.3295 104.084L86.455 103.99L87.1125 104.845L87.3436 104.332ZM79.8178 99.8691L80.1878 99.8618L79.9309 99.3604L79.8153 99.6172L78.9365 99.5117L79.5823 100.371L79.8178 99.8691ZM75.8376 105.027L75.6483 105.791L76.5163 105.727L75.8376 105.027ZM69.4174 97.9351L69.2281 98.699L70.0961 98.6356L69.4174 97.9351ZM75.8444 107.5L76.504 106.291L75.0119 106.219L74.8333 105.994L74.4546 106.75L75.2853 106.833L75.8444 107.5ZM71.0266 100.771L71.6862 99.5625L70.1986 99.5017L70.0199 99.2767L69.6368 100.021L70.4675 100.105L71.0266 100.771ZM76.6471 107.86L75.4264 108.643L76.9085 109.145L76.6471 107.86ZM78.3742 107.71L76.9366 109.254L78.5956 109.556L78.3742 107.71ZM87.1858 109.422L87.2175 109.331L86.5092 108.867L85.9248 108.45L85.3889 109.985L87.4066 109.618L87.1858 109.422ZM90.7034 108.167L90.7379 108.047L90.2177 106.887L89.6821 107.756L89.572 107.186L88.5851 109.25L90.9081 108.355L90.7034 108.167ZM84.79 109.214L84.6445 109.988L85.4807 109.631L84.79 109.214Z" fill="#B377E1"/>
<path d="M81.8651 108.594L82.7011 108.902L82.5083 108.044L81.8651 108.594ZM88.9889 107.86L88.8326 106.641L87.6978 107.405L88.9889 107.86ZM88.1221 102.665L88.7128 102.468L88.2769 102.021L88.1221 102.665ZM86.5628 100.662L87.1534 100.465L86.7176 100.018L86.5628 100.662ZM88.3578 103.707L88.9485 103.51L88.5126 103.063L88.3578 103.707ZM84.8954 103.425L84.6561 102.584L84.1168 103.268L84.8954 103.425ZM86.1505 105.117L85.9228 104.272L85.388 104.968L86.1505 105.117ZM88.2878 104.785L88.0601 103.94L87.5209 104.624L88.2878 104.785ZM82.9047 107.335L83.3663 108.024L83.6366 107.123L82.9047 107.335ZM85.6649 107.591L85.972 106.05L84.7465 106.329L85.6649 107.591Z" fill="#B377E1"/>
<path d="M86.3957 107.447L87.8367 107.139L87.1367 106.207L86.3957 107.447ZM82.5527 106.337L83.7307 107.686L84.0077 105.891L82.5527 106.337ZM79.8987 107.903L79.478 109.461L80.7035 109.182L80.2983 109.868L81.6957 109.936L81.3384 109.1L82.0285 108.639L81.1316 108.38L81.1617 108.635L80.84 109.05L79.8987 107.903Z" fill="#B377E1"/>
<path d="M79.6473 108.784L80.4708 109.27L80.3125 108.292L79.6473 108.784ZM88.0347 105.627L87.7285 105.171L87.5528 105.69L88.0347 105.627ZM89.7254 105.451L89.4147 104.983L89.2157 105.511L89.7254 105.451ZM69.1506 93.0589L68.5096 92.7034L68.7252 93.4467L69.1506 93.0589ZM64.4495 83.0255L63.8446 82.5897L63.9699 83.3407L64.4495 83.0255ZM83.2577 108.545L82.7916 110.053L84.0645 109.969L83.2577 108.545ZM85.7731 108.788L85.659 107.926L84.9897 108.513L85.7731 108.788ZM82.9266 105.849L81.0731 106.087L82.2713 108.121L82.9266 105.849ZM85.9027 103.588L86.071 101.927L84.6534 102.997L85.9027 103.588ZM87.9408 102.468L88.1091 100.807L86.6914 101.878L87.9408 102.468ZM86.0692 95.1535L85.4775 93.5948L84.684 95.187L86.0692 95.1535ZM75.3669 72.679L76.0057 72.5031L75.4306 72.2157L75.3669 72.679ZM81.0198 106.999L80.2604 105.77L79.7325 107.115L81.0198 106.999ZM78.6589 103.796L78.6176 104.038L79.1906 103.794L79.2205 104.714L80.0049 104.15L79.2111 103.813L79.5149 103.631L78.8775 103.074L78.691 103.81L77.9084 103.362L78.0607 104.289L78.6589 103.796ZM72.2093 107.043L72.5417 105.253L70.7669 106.26L72.2093 107.043ZM69.0094 99.4208L68.9098 98.527L68.2076 99.2727L69.0094 99.4208Z" fill="#B377E1"/>
<path d="M73.2017 105.974L73.1731 105.759L73.1036 105.12L72.8881 105.148L72.774 104.287L71.8179 105.275L72.5098 105.625L73.2017 105.974ZM62.8835 95.2785L63.5889 94.6115L62.3636 93.8389L62.8835 95.2785ZM76.5226 101.746L76.7367 103.222L78.1456 102.514L76.5226 101.746ZM71.3043 97.6447L71.5184 99.1205L72.9317 98.4243L71.3043 97.6447ZM72.5343 103.34L72.3699 104.134L73.1344 104.043L72.5343 103.34ZM70.1292 102.616L69.2581 102.986L70.0735 103.276L70.1292 102.616ZM77.8712 100.914L77.2109 99.701L76.5538 100.776L77.8712 100.914ZM81.0667 94.777L80.3947 93.5681L79.7376 94.6427L81.0667 94.777ZM78.9104 91.3767L78.2501 90.1635L77.5929 91.2381L78.9104 91.3767ZM75.3837 104.427L77.0283 104.761L76.4438 103.186L75.3837 104.427ZM68.6611 101.589L70.3057 101.923L69.7212 100.348L68.6611 101.589ZM72.5844 100.14L72.0836 100.224L72.4336 100.69L72.5844 100.14ZM80.738 97.1376L80.2268 97.5446L80.8769 97.6438L80.738 97.1376ZM69.1668 102.01L68.6966 102.454L69.38 102.501L69.1668 102.01ZM69.1436 96.828L68.6733 97.2727L69.3568 97.3194L69.1436 96.828ZM74.9674 103.401L75.1811 104.384L75.8655 103.592L74.9674 103.401ZM85.6774 98.8558L84.801 99.0022L85.4395 99.4917L85.6774 98.8558ZM83.6094 95.3022L82.7374 95.4603L83.3715 95.9382L83.6094 95.3022ZM73.974 93.7698L73.8555 93.2824L73.3122 93.675L73.974 93.7698ZM75.8836 95.5735L75.7652 95.0861L75.2219 95.4787L75.8836 95.5735ZM78.1396 100.253L78.8659 99.7116L77.991 99.5113L78.1396 100.253ZM72.3311 102.033L73.0308 101.421L72.095 101.271L72.3311 102.033ZM69.1413 89.5623L69.8411 88.9506L68.9052 88.8002L69.1413 89.5623ZM66.2457 101.575L66.9455 100.963L66.0096 100.813L66.2457 101.575ZM80.5337 99.6507L81.2688 99.132L80.3851 98.9086L80.5337 99.6507ZM75.4043 102.623L76.3204 101.809L75.0843 101.64L75.4043 102.623ZM71.0243 103.886L72.09 102.976L70.679 102.766L71.0243 103.886ZM80.8057 101.77L82.0114 100.913L80.5619 100.532L80.8057 101.77ZM83.569 101.333L82.6988 100.093L82.3258 101.566L83.569 101.333ZM68.5935 102.919L67.5445 102.892L68.2646 103.736L68.5935 102.919ZM67.4561 101.887L66.4187 101.855L67.1388 102.7L67.4561 101.887ZM64.8397 97.4504L63.798 97.4068L64.5224 98.263L64.8397 97.4504Z" fill="#B377E1"/>
<path d="M66.4798 97.3868L66.4125 98.4371L67.2897 97.7314L66.4798 97.3868ZM67.3331 100.616L67.2614 101.655L68.1385 100.949L67.3331 100.616ZM65.5362 96.3742L65.4645 97.4129L66.33 96.7116L65.5362 96.3742ZM82.3633 97.7716L80.7817 97.5335L81.7182 98.9481L82.3633 97.7716ZM74.6852 105.744L74.2845 104.618L73.3416 105.642L74.6852 105.744ZM73.7432 104.77L74.4474 104.17L73.4722 103.636L73.7432 104.77ZM70.9741 103.719L70.8097 104.513L71.7038 104.414L70.9741 103.719ZM78.2027 98.14L77.7449 98.7929L78.4784 98.6209L78.2027 98.14ZM80.0688 98.4963L80.2446 99.1349L80.7382 98.6813L80.0688 98.4963ZM85.1491 97.4992L84.9632 96.9043L84.6988 97.4705L85.1491 97.4992ZM75.6407 100.51L75.1042 100.394L75.339 100.838L75.6407 100.51ZM69.9118 95.099L69.3592 94.9761L69.594 95.4193L69.9118 95.099ZM69.7824 104.824L70.4375 103.603L68.9499 103.543L68.7713 103.318L68.3926 104.074L69.2233 104.157L69.7824 104.824ZM75.6022 103.319L75.5391 102.452L74.8337 103.119L75.6022 103.319ZM72.8312 103.28L72.7316 102.386L72.0294 103.132L72.8312 103.28ZM71.6091 101.814L71.9891 101.763L71.674 101.284L71.5745 101.548L70.664 101.534L71.4145 102.354L71.6091 101.814Z" fill="#B377E1"/>
<path d="M63.8842 84.5177L64.2687 84.4782L63.9491 83.9873L63.8541 84.2629L62.9158 84.2465L63.6708 85.0778L63.8842 84.5177ZM67.7967 99.2423L68.1811 99.2029L67.8616 98.712L67.7665 98.9876L66.856 98.974L67.6065 99.7936L67.7967 99.2423ZM65.2718 94.3451L65.6518 94.294L65.3323 93.8031L65.2372 94.0787L64.3267 94.0651L65.0772 94.8847L65.2718 94.3451ZM65.1876 98.1567L65.125 97.7812L64.6543 98.1196L64.9256 98.2029L64.9554 99.1232L65.723 98.3394L65.1876 98.1567ZM67.5374 96.2798L67.9174 96.2287L67.6023 95.7494L67.4956 96.0295L66.5806 96.0042L67.3312 96.8239L67.5374 96.2798ZM85.3337 101.142L85.7037 101.135L85.4396 100.649L85.3196 100.895L84.4568 100.796L85.0982 101.644L85.3337 101.142ZM70.5082 104.175L70.8926 104.136L70.5731 103.645L70.478 103.921L69.5631 103.895L70.318 104.727L70.5082 104.175ZM73.2703 104.191L73.0247 104.351L73.7243 104.791L73.8843 103.985L74.6049 103.498L73.4743 102.73L73.2703 104.191ZM74.1803 100.732L73.991 101.496L74.859 101.432L74.1803 100.732ZM70.5677 97.0724L70.3784 97.8363L71.2464 97.773L70.5677 97.0724ZM82.2384 95.3035L82.12 94.8161L81.5767 95.2087L82.2384 95.3035ZM81.564 96.052L81.0158 95.9407L81.2506 96.3839L81.564 96.052ZM80.092 96.2781L79.9027 97.042L80.7824 96.9742L80.092 96.2781ZM74.2032 103.212L74.8583 101.991L73.3707 101.931L73.1921 101.706L72.8134 102.462L73.6441 102.546L74.2032 103.212ZM77.7267 95.6589L78.9538 95.0333L77.779 94.1484L77.7473 93.8544L77.0234 94.2623L77.6519 94.7956L77.7267 95.6589ZM67.9571 101.138L69.3379 101.093L68.6539 99.782L68.7534 99.5179L67.9203 99.568L68.2583 100.318L67.9571 101.138Z" fill="#B377E1"/>
<path d="M65.5057 100.152L66.8866 100.107L66.191 98.8006L66.3021 98.5322L65.469 98.5823L65.807 99.3323L65.5057 100.152ZM80.3122 100.786L78.7053 100.411L79.1501 101.653L80.3122 100.786ZM83.8896 96.9525L82.2827 96.5777L82.7276 97.8196L83.8896 96.9525ZM86.4882 98.3616L87.0789 98.1639L86.643 97.7172L86.4882 98.3616ZM84.9244 96.3467L85.5195 96.1607L85.0837 95.714L84.9244 96.3467ZM86.7328 99.4266L87.3234 99.2289L86.8876 98.7822L86.7328 99.4266ZM76.8669 97.0767L77.4576 96.879L77.0261 96.4439L76.8669 97.0767ZM77.0881 98.1505L77.6788 97.9529L77.243 97.5062L77.0881 98.1505ZM73.9278 99.856L74.5184 99.6584L74.0826 99.2117L73.9278 99.856ZM83.2703 99.144L83.031 98.3032L82.4962 98.9987L83.2703 99.144ZM84.5254 100.837L84.2978 99.9916L83.7629 100.687L84.5254 100.837ZM86.6627 100.505L86.435 99.6594L85.9002 100.355L86.6627 100.505Z" fill="#B377E1"/>
<path d="M80.9145 102.021L82.0925 103.371L82.3739 101.587L80.9145 102.021ZM81.5436 103.819L79.69 104.057L80.8926 106.102L81.5436 103.819ZM84.2689 99.284L84.4372 97.623L83.0196 98.6936L84.2689 99.284ZM83.3115 88.8009L83.6815 88.7935L83.429 88.3038L83.309 88.5489L82.4346 88.455L83.076 89.3028L83.3115 88.8009ZM83.4954 92.6172L84.0861 92.4195L83.6502 91.9728L83.4954 92.6172ZM82.6492 90.809L81.7728 90.9554L82.4069 91.4334L82.6492 90.809ZM82.1065 89.4846L81.9206 88.8897L81.6562 89.4559L82.1065 89.4846ZM76.7576 81.4273L76.5833 80.828L76.3189 81.3941L76.7576 81.4273ZM76.0325 84.4973L75.8582 83.8981L75.5939 84.4642L76.0325 84.4973ZM78.2496 89.2852L78.0753 88.686L77.8065 89.2405L78.2496 89.2852ZM81.5962 93.4713L81.9895 93.4551L81.721 92.9581L81.6054 93.2149L80.7265 93.1094L81.3724 93.9688L81.5962 93.4713ZM79.7344 81.2021L80.1044 81.1948L79.8403 80.7095L79.7247 80.9663L78.8459 80.8607L79.5033 81.7157L79.7344 81.2021ZM67.0554 87.0137L67.4254 87.0063L67.1613 86.521L67.0413 86.7662L66.1669 86.6723L66.8199 87.5157L67.0554 87.0137ZM75.8634 91.522L76.2566 91.5058L75.9881 91.0088L75.8726 91.2656L74.9937 91.1601L75.6395 92.0195L75.8634 91.522ZM83.4369 90.3237L84.0276 90.1261L83.5917 89.6793L83.4369 90.3237ZM83.6654 91.3815L84.2561 91.1839L83.8246 90.7488L83.6654 91.3815Z" fill="#B377E1"/>
<path d="M81.4579 92.7917L81.2302 91.9465L80.6954 92.642L81.4579 92.7917ZM75.8284 97.8834L75.5891 97.0426L75.0543 97.7381L75.8284 97.8834ZM80.4731 87.6025L80.2338 86.7617L79.699 87.4572L80.4731 87.6025ZM83.5835 92.4638L83.3559 91.6186L82.821 92.3141L83.5835 92.4638ZM73.6916 95.7268L73.4639 94.8816L72.9291 95.577L73.6916 95.7268ZM80.3232 91.3459L81.8268 90.642L80.1809 89.9892L80.3232 91.3459ZM84.6529 94.3336L84.8212 92.6727L83.4035 93.7432L84.6529 94.3336ZM76.4696 99.7826L76.6379 98.1217L75.2202 99.1923L76.4696 99.7826ZM79.3858 102.695L78.6264 101.466L78.0985 102.811L79.3858 102.695ZM69.0291 75.4843L69.1285 74.8343L68.6217 75.2529L69.0291 75.4843ZM71.6747 74.3867L71.7741 73.7368L71.2673 74.1554L71.6747 74.3867ZM87.7326 70.9523L87.5966 71.5762L88.079 71.2334L87.7326 70.9523ZM81.2314 69.9601L81.1115 70.5912L81.5778 70.2412L81.2314 69.9601ZM77.0183 73.6623L76.4203 73.4901L76.7808 74.0187L77.0183 73.6623ZM82.581 73.0943L82.248 73.62L82.8186 73.5098L82.581 73.0943ZM80.9778 75.8856L80.6448 76.4113L81.2155 76.3011L80.9778 75.8856ZM94.4946 106.861L92.9113 106.197L92.9794 107.569L94.4946 106.861ZM91.9154 103.714L91.8741 103.956L92.4471 103.712L92.4769 104.632L93.2614 104.068L92.4587 103.707L92.7625 103.526L92.1251 102.969L91.9386 103.705L91.156 103.257L91.3083 104.184L91.9154 103.714ZM81.7596 81.6975L82.4125 81.3831L81.8169 81.0768L81.7596 81.6975ZM92.1658 106.653L91.6257 107.125L92.4829 107.278L92.2348 106.414L92.945 105.479L91.2924 105.335L92.1658 106.653ZM89.9036 100.765L90.1061 102.245L91.5149 101.537L89.9036 100.765ZM83.249 88.1457L83.3422 88.8822L84.1741 88.5132L83.249 88.1457ZM91.072 105.245L90.5847 104.312L90.0708 105.133L91.072 105.245ZM91.1276 100.832L90.4673 99.6191L89.8101 100.694L91.1276 100.832ZM88.7615 103.368L90.4061 103.701L89.8215 102.127L88.7615 103.368ZM97.8729 92.0165L97.3661 92.4351L98.0163 92.5343L97.8729 92.0165ZM95.5348 71.9696L95.0541 72.3517L95.6809 72.4597L95.5348 71.9696ZM91.5667 79.8242L91.0643 80.2545L91.7217 80.3377L91.5667 79.8242ZM96.568 95.4531L95.6916 95.5995L96.3257 96.0774L96.568 95.4531ZM98.7236 96.8174L97.8516 96.9754L98.4857 97.4533L98.7236 96.8174ZM99.2255 98.4901L98.349 98.6365L98.9832 99.1144L99.2255 98.4901ZM89.5949 99.6708L89.4764 99.1834L88.917 99.5688L89.5949 99.6708ZM91.4816 98.6085L92.2079 98.0666L91.3097 97.8752L91.4816 98.6085ZM93.8452 98.0306L94.5803 97.512L93.6966 97.2885L93.8452 98.0306ZM88.6562 102.529L89.5723 101.716L88.3362 101.546L88.6562 102.529ZM91.3342 84.4374L92.2459 83.6123L91.0098 83.4427L91.3342 84.4374ZM89.5761 87.1012L90.4922 86.2876L89.2562 86.118L89.5761 87.1012ZM85.3957 94.6771L86.3118 93.8636L85.0757 93.694L85.3957 94.6771ZM93.103 77.8037L94.2394 77.0795L92.9427 76.6801L93.103 77.8037ZM81.0732 80.1348L82.0691 79.251L80.7223 79.0702L81.0732 80.1348ZM85.9737 84.5561L85.116 83.5242L84.875 84.8534L85.9737 84.5561ZM94.4734 83.2723L93.6157 82.2405L93.3747 83.5696L94.4734 83.2723ZM87.1598 92.0643L86.3138 91.0281L86.0611 92.3617L87.1598 92.0643ZM84.4858 82.5657L83.6397 81.5294L83.3871 82.863L84.4858 82.5657ZM98.1525 77.883L97.2948 76.8511L97.0538 78.1803L98.1525 77.883ZM85.3846 87.3882L84.7568 86.2957L84.3304 87.5222L85.3846 87.3882ZM93.6175 99.7806L94.8349 98.9192L93.3621 98.5467L93.6175 99.7806ZM96.9009 99.7319L96.0307 98.4918L95.6577 99.9643L96.9009 99.7319Z" fill="#B377E1"/>
<path d="M96.2145 105.569L93.7467 104.47L94.4289 106.793L96.2145 105.569ZM95.6938 96.1312L94.1122 95.8931L95.0531 97.3193L95.6938 96.1312ZM95.9284 98.0118L94.3701 97.7649L95.3066 99.1794L95.9284 98.0118ZM94.8815 87.363L93.4467 86.67L93.9309 88.2962L94.8815 87.363ZM98.0073 98.753L97.0898 98.0899L97.2417 99.2966L98.0073 98.753ZM97.8655 98.2745L98.4997 98.7524L98.5938 97.8782L97.8655 98.2745ZM95.3245 92.9841L94.8828 93.6442L95.6119 93.4606L95.3245 92.9841ZM93.392 96.8719L93.5795 97.5061L94.0498 97.0614L93.392 96.8719ZM84.6388 85.5288L84.1826 85.8351L84.7019 86.0106L84.6388 85.5288ZM89.3557 88.0634L88.4979 87.0316L88.257 88.3607L89.3557 88.0634ZM87.9821 85.4973L87.3524 85.4169L87.7578 85.8885L87.9821 85.4973ZM89.9735 89.5856L90.3668 89.5694L90.0982 89.0725L89.9827 89.3292L89.1038 89.2237L89.7496 90.0832L89.9735 89.5856Z" fill="#B377E1"/>
<path d="M88.7685 90.2693L88.5942 89.67L88.3298 90.2361L88.7685 90.2693ZM89.914 88.9028L90.0277 89.6581L90.8479 89.2935L89.914 88.9028ZM93.1461 86.5445L92.3 85.5082L92.0474 86.8418L93.1461 86.5445ZM92.0684 88.1248L91.429 87.0367L91.0026 88.2632L92.0684 88.1248ZM91.3009 86.3134L90.8446 86.6197L91.3756 86.7908L91.3009 86.3134ZM96.3429 103.031L96.0881 103.062L96.5239 103.508L95.8173 103.856L96.638 104.37L96.5239 103.508L96.9389 103.83L97.0796 102.938L96.4681 103.011L96.4836 102.14L95.6731 102.74L96.3429 103.031ZM96.9282 101.838L96.0938 101.183L95.9366 101.961L96.9282 101.838ZM94.9046 102.539L95.7665 102.425L95.0617 101.761L94.9046 102.539ZM92.4391 76.4055L91.8095 76.3251L92.2148 76.7968L92.4391 76.4055ZM96.0281 94.101L95.8539 93.5017L95.5895 94.0679L96.0281 94.101ZM96.8167 75.276L96.1871 75.1956L96.5924 75.6672L96.8167 75.276ZM89.2758 71.7905L88.6506 71.7218L89.0515 72.1818L89.2758 71.7905ZM98.2045 97.4138L97.2173 97.549L97.788 98.2107L98.2045 97.4138ZM87.8894 72.2769L87.3484 72.1496L87.5716 72.5972L87.8894 72.2769ZM96.2923 73.4388L96.2144 72.8828L95.8838 73.2745L96.2923 73.4388ZM94.7746 73.5093L94.2465 73.3105L94.4231 73.7758L94.7746 73.5093Z" fill="#B377E1"/>
<path d="M88.9044 100.412L88.3679 100.296L88.6027 100.74L88.9044 100.412ZM95.4846 76.2208L95.8778 76.2046L95.6137 75.7193L95.4937 75.9645L94.6193 75.8706L95.2607 76.7184L95.4846 76.2208ZM96.2157 97.7163L96.5857 97.7089L96.3171 97.212L96.2016 97.4688L95.3227 97.3632L95.9802 98.2182L96.2157 97.7163ZM101.851 87.3788L102.244 87.3626L101.976 86.8657L101.86 87.1225L100.986 87.0286L101.627 87.8764L101.851 87.3788ZM96.5639 96.5993L96.9571 96.583L96.6886 96.0861L96.573 96.3429L95.6942 96.2374L96.34 97.0968L96.5639 96.5993ZM95.2868 90.4297L95.6801 90.4135L95.4159 89.9282L95.296 90.1734L94.4216 90.0795L95.0629 90.9273L95.2868 90.4297ZM90.9279 104.129L88.8792 103.642L89.4449 105.238L90.9279 104.129ZM97.5389 104.148L97.5413 104.014L96.7828 103.769L96.1584 103.527L96.1807 105.515L97.7869 104.24L97.5389 104.148Z" fill="#B377E1"/>
<path d="M99.1771 102.501L99.1678 102.372L98.2451 101.484L98.0655 102.484L97.746 101.993L97.5713 104.269L99.4179 102.609L99.1771 102.501ZM92.3002 100.8L92.143 101.578L92.9792 101.221L92.3002 100.8ZM93.534 102.647L94.37 102.955L94.1772 102.097L93.534 102.647ZM97.3585 94.9401L97.9403 94.7192L97.5044 94.2725L97.3585 94.9401ZM102.039 91.2068L102.63 91.0092L102.194 90.5625L102.039 91.2068ZM97.5709 95.9907L98.1616 95.7931L97.7301 95.358L97.5709 95.9907ZM94.0968 95.7126L93.8692 94.8674L93.3343 95.5629L94.0968 95.7126ZM95.3752 97.3966L95.1476 96.5514L94.6127 97.2469L95.3752 97.3966ZM97.5169 97.0759L97.2892 96.2307L96.7544 96.9262L97.5169 97.0759ZM94.5824 101.411L95.044 102.1L95.3144 101.199L94.5824 101.411Z" fill="#B377E1"/>
<path d="M97.3193 101.676L97.6381 100.131L96.4126 100.41L97.3193 101.676ZM94.2215 100.39L95.3995 101.739L95.6765 99.9439L94.2215 100.39ZM92.9802 102.591L92.5478 104.153L93.7733 103.874L93.3681 104.56L94.7582 104.644L94.401 103.809L95.1028 103.343L94.2014 103.073L94.2315 103.327L93.9098 103.742L92.9802 102.591ZM91.2609 104.375L92.0844 104.861L91.9262 103.883L91.2609 104.375ZM97.271 97.9013L96.9603 97.4336L96.7658 97.9733L97.271 97.9013ZM98.9572 97.7136L98.651 97.2576L98.452 97.7857L98.9572 97.7136ZM95.8632 102.961L94.9968 103.063L95.3332 103.774L95.8632 102.961ZM97.474 102.855L97.3715 101.989L96.6906 102.58L97.474 102.855Z" fill="#B377E1"/>
<path d="M94.6232 99.9046L92.7812 100.138L93.9561 102.181L94.6232 99.9046ZM92.8907 107.616L88.969 109.105L90.5616 105.093L92.8907 107.616ZM101.709 99.1044L99.3332 102.562L98.3494 98.3569L101.709 99.1044ZM95.1186 95.8437L95.2869 94.1827L93.8692 95.2533L95.1186 95.8437ZM97.1843 94.7267L97.3526 93.0658L95.935 94.1363L97.1843 94.7267ZM101.541 85.6864L100.949 84.1277L100.156 85.7199L101.541 85.6864ZM92.6407 102.574L91.8813 101.345L91.3534 102.69L92.6407 102.574ZM99.6787 97.0537L99.633 97.284L100.21 97.0514L100.24 97.9717L101.025 97.4077L100.231 97.0703L100.523 96.8929L99.9089 96.3275L99.7224 97.0637L98.9354 96.6039L99.0921 97.5426L99.6787 97.0537Z" fill="#B377E1"/>
<path d="M101.78 96.4157L102.904 96.9207L102.1 94.8037L101.78 96.4157ZM96.9447 99.356L96.5123 100.918L97.7378 100.639L97.3326 101.325L98.7183 101.398L98.361 100.562L99.0512 100.1L98.1543 99.8417L98.196 100.092L97.8626 100.511L96.9447 99.356ZM99.3852 97.9637L100.209 98.4495L100.042 97.4483L99.3852 97.9637ZM102.776 97.0756L100.917 96.9829L101.744 99.1975L102.776 97.0756Z" fill="#B377E1"/>
<path d="M103.008 96.3887L103.572 95.0698L102.168 95.4034L103.008 96.3887ZM90.2725 99.3869L90.2312 99.6288L90.8043 99.3847L90.8341 100.305L91.6186 99.741L90.8247 99.4035L91.1285 99.2217L90.4911 98.6651L90.3047 99.4013L89.5221 98.9532L89.6743 99.8802L90.2725 99.3869ZM88.1361 97.3366L88.3502 98.8124L89.7591 98.1046L88.1361 97.3366ZM89.508 96.4964L88.8477 95.2831L88.1906 96.3577L89.508 96.4964ZM96.5821 85.3199L95.9218 84.1066L95.2646 85.1812L96.5821 85.3199ZM99.5325 88.392L98.8722 87.1787L98.215 88.2533L99.5325 88.392ZM94.4375 81.9152L93.7655 80.7063L93.1083 81.781L94.4375 81.9152ZM87.041 100.028L88.6856 100.362L88.0894 98.7917L87.041 100.028ZM96.2578 87.6921L95.7466 88.0991L96.4011 88.21L96.2578 87.6921ZM101.197 89.4103L100.321 89.5567L100.955 90.0346L101.197 89.4103ZM98.7341 89.4803L97.8577 89.6267L98.4962 90.1163L98.7341 89.4803ZM99.1248 85.8451L98.2528 86.0031L98.8986 86.4767L99.1248 85.8451ZM85.6224 89.3475L85.504 88.8601L84.9607 89.2527L85.6224 89.3475ZM87.5321 91.1512L87.4136 90.6638L86.8703 91.0564L87.5321 91.1512ZM93.6462 90.7731L94.3725 90.2312L93.4743 90.0398L93.6462 90.7731ZM100.922 92.4028L101.657 91.8841L100.773 91.6606L100.922 92.4028Z" fill="#B377E1"/>
<path d="M87.0251 98.1976L87.9411 97.384L86.7051 97.2144L87.0251 98.1976ZM96.2746 92.3305L97.4803 91.4735L96.0308 91.0922L96.2746 92.3305ZM99.0639 91.8571L98.1981 90.6287L97.8252 92.1012L99.0639 91.8571ZM97.8555 88.3233L96.2739 88.0853L97.2104 89.4998L97.8555 88.3233ZM93.6905 88.6801L93.2487 89.3402L93.9779 89.1566L93.6905 88.6801ZM95.5566 89.0363L95.7441 89.6705L96.2232 89.2491L95.5566 89.0363ZM100.637 88.0393L100.463 87.44L100.198 88.0062L100.637 88.0393ZM87.2615 96.0849L86.725 95.9692L86.9598 96.4124L87.2615 96.0849ZM100.817 91.6706L101.187 91.6633L100.935 91.1735L100.819 91.4303L99.9403 91.3248L100.586 92.1842L100.817 91.6706ZM97.7175 85.8204L97.599 85.333L97.0557 85.7256L97.7175 85.8204ZM97.043 86.5689L96.502 86.4416L96.7369 86.8848L97.043 86.5689ZM95.5783 86.7789L95.389 87.5428L96.257 87.4795L95.5783 86.7789ZM93.2174 86.1713L94.4444 85.5458L93.2697 84.6609L93.254 84.3741L92.5301 84.782L93.1586 85.3153L93.2174 86.1713ZM95.7724 91.3234L94.1655 90.9485L94.5943 92.1832L95.7724 91.3234ZM100.338 93.5295L98.7355 93.1663L99.1759 94.3965L100.338 93.5295ZM101.972 88.89L102.562 88.6924L102.127 88.2457L101.972 88.89Z" fill="#B377E1"/>
<path d="M100.405 86.9029L100.996 86.7053L100.56 86.2585L100.405 86.9029ZM102.165 89.9611L102.756 89.7635L102.32 89.3167L102.165 89.9611ZM88.4558 92.6371L89.0465 92.4395L88.615 92.0044L88.4558 92.6371ZM88.677 93.711L89.2677 93.5133L88.8319 93.0666L88.677 93.711ZM100.253 92.9896L100.025 92.1444L99.4903 92.8399L100.253 92.9896ZM99.9813 91.3625L99.7536 90.5173L99.2188 91.2128L99.9813 91.3625ZM102.119 91.0302L101.879 90.1895L101.344 90.8849L102.119 91.0302ZM92.5832 96.0742L93.7613 97.4237L94.0427 95.6399L92.5832 96.0742ZM93.224 97.8672L91.3704 98.1051L92.573 100.151L93.224 97.8672ZM100.836 96.175L101.005 94.5141L99.5871 95.5846L100.836 96.175ZM99.9242 90.1598L100.092 88.4989L98.6748 89.5694L99.9242 90.1598ZM98.7993 79.341L99.1926 79.3248L98.9285 78.8395L98.8129 79.0963L97.934 78.9908L98.5799 79.8502L98.7993 79.341ZM98.9877 83.1689L99.5784 82.9713L99.1425 82.5246L98.9877 83.1689ZM98.1298 81.3652L97.2578 81.5233L97.892 82.0012L98.1298 81.3652ZM97.5943 80.0247L97.4201 79.4254L97.1513 79.98L97.5943 80.0247ZM92.2338 71.9718L92.0595 71.3725L91.7907 71.9271L92.2338 71.9718ZM91.5087 75.0419L91.3344 74.4426L91.0656 74.9972L91.5087 75.0419ZM93.7213 79.8182L93.5471 79.2189L93.2827 79.7851L93.7213 79.8182ZM97.0796 83.9998L97.4496 83.9924L97.1855 83.5071L97.0655 83.7523L96.1911 83.6584L96.8485 84.5134L97.0796 83.9998ZM98.7196 74.9927L99.1129 74.9765L98.8443 74.4796L98.7288 74.7364L97.8544 74.6425L98.4958 75.4903L98.7196 74.9927ZM91.3556 82.0738L91.7256 82.0664L91.4615 81.5811L91.3415 81.8262L90.4671 81.7323L91.1201 82.5757L91.3556 82.0738ZM98.9292 80.8755L99.5198 80.6778L99.084 80.2311L98.9292 80.8755ZM99.1344 81.9421L99.7251 81.7445L99.2892 81.2977L99.1344 81.9421ZM96.9503 83.3435L96.7227 82.4983L96.1834 83.1822L96.9503 83.3435ZM88.2153 92.2493L89.1314 91.4357L87.8954 91.2661L88.2153 92.2493ZM91.3662 91.0797L90.504 90.0362L90.2675 91.3771L91.3662 91.0797ZM91.6551 96.4L90.232 95.7025L90.7162 97.3287L91.6551 96.4ZM92.6785 94.3612L92.0182 93.1479L91.361 94.2225L92.6785 94.3612ZM93.1405 89.9669L92.4802 88.7536L91.8231 89.8283L93.1405 89.9669ZM94.5974 93.6992L94.479 93.2119L93.9312 93.5928L94.5974 93.6992ZM93.9229 94.4477L93.3703 94.3248L93.6052 94.768L93.9229 94.4477ZM92.4466 94.6622L92.2573 95.4261L93.1369 95.3583L92.4466 94.6622Z" fill="#B377E1"/>
<path d="M90.5504 94.4371L91.7775 93.8116L90.6028 92.9267L90.5754 92.6443L89.8516 93.0522L90.4801 93.5855L90.5504 94.4371ZM93.9346 91.8481L94.3279 91.8319L94.0637 91.3466L93.9438 91.5918L93.0693 91.4979L93.7107 92.3457L93.9346 91.8481ZM88.199 89.9265L88.5922 89.9103L88.3281 89.425L88.2081 89.6702L87.3337 89.5763L87.9751 90.4241L88.199 89.9265ZM93.8053 91.1919L93.5776 90.3467L93.0428 91.0422L93.8053 91.1919ZM87.4422 93.4744L87.2029 92.6337L86.6681 93.3291L87.4422 93.4744ZM95.9583 78.1704L95.7307 77.3253L95.1958 78.0207L95.9583 78.1704ZM99.0759 83.0157L98.8366 82.1749L98.3018 82.8704L99.0759 83.0157ZM85.3214 91.325L85.0938 90.4799L84.559 91.1753L85.3214 91.325ZM94.6931 80.9399L96.1966 80.236L94.5508 79.5832L94.6931 80.9399ZM86.2004 89.2213L87.7039 88.5174L86.0537 87.853L86.2004 89.2213ZM100.16 84.8534L100.328 83.1925L98.8988 84.2674L100.16 84.8534ZM88.0978 95.3416L88.2661 93.6807L86.8485 94.7512L88.0978 95.3416ZM91.0141 98.2537L90.2547 97.0248L89.7267 98.3698L91.0141 98.2537ZM86.7772 76.572L87.4161 76.782L87.0701 76.2213L86.7772 76.572ZM83.9592 76.444L84.5893 76.6307L84.2521 76.0933L83.9592 76.444ZM85.5652 79.2014L85.3783 79.8314L85.916 79.4942L85.5652 79.2014Z" fill="#B377E1"/>
<path d="M102.412 92.2233L102.614 93.7035L104.023 92.9957L102.412 92.2233ZM104.195 92.0119L103.535 90.7986L102.878 91.8732L104.195 92.0119ZM98.2003 96.3507L99.8449 96.6846L99.2604 95.1099L98.2003 96.3507ZM104.49 90.2631L104.372 89.7757L103.824 90.1566L104.49 90.2631ZM97.4577 94.9558L98.3693 94.1306L97.1449 93.9566L97.4577 94.9558ZM100.421 85.3664L101.337 84.5529L100.113 84.3789L100.421 85.3664ZM88.1364 84.3607L89.1234 83.4536L87.7883 83.2684L88.1364 84.3607ZM90.8028 85.9835L89.8225 83.4011L88.9985 85.0182L90.8028 85.9835ZM102.953 81.0247L101.961 78.4467L101.137 80.0638L102.953 81.0247ZM104.18 84.8176L103.561 82.9765L102.626 84.3698L104.18 84.8176ZM104.597 88.6519L104.198 85.9156L103.038 87.3142L104.597 88.6519ZM102.22 82.7404L101.374 81.7041L101.121 83.0377L102.22 82.7404ZM88.7261 80.5834L87.8756 79.5355L87.6391 80.8763L88.7261 80.5834ZM100.44 78.0526L99.801 76.9645L99.3863 78.1867L100.44 78.0526ZM99.6757 76.2136L99.2079 76.5243L99.7476 76.7186L99.6757 76.2136ZM97.6898 92.8314L97.1488 92.7041L97.3836 93.1473L97.6898 92.8314Z" fill="#B377E1"/>
<path d="M103.699 94.7024L102.944 93.4852L102.412 94.8185L103.699 94.7024ZM103.007 90.214L102.966 90.4559L103.539 90.2117L103.568 91.132L104.353 90.568L103.55 90.2073L103.842 90.0299L103.205 89.4733L103.03 90.2051L102.248 89.7569L102.4 90.684L103.007 90.214Z" fill="#B377E1"/>
<path d="M102.827 88.1263L103.041 89.6021L104.45 88.8942L102.827 88.1263ZM103.653 87.9189L103.284 86.5952L102.403 87.5018L103.653 87.9189ZM100.664 80.0439L100.545 79.5565L100.002 79.9491L100.664 80.0439ZM102.55 81.8564L102.432 81.369L101.884 81.75L102.55 81.8564Z" fill="#B377E1"/>
<path d="M102.068 88.9333L102.991 88.1037L101.755 87.9342L102.068 88.9333ZM102.3 86.809L101.748 86.6861L101.982 87.1293L102.3 86.809ZM102.485 84.2101L102.257 83.365L101.723 84.0604L102.485 84.2101ZM100.36 82.0491L100.121 81.2083L99.5858 81.9038L100.36 82.0491ZM103.134 86.0934L103.302 84.4324L101.884 85.503L103.134 86.0934ZM102.045 93.853L101.286 92.6241L100.753 93.9574L102.045 93.853ZM87.3957 74.5538L88.0301 74.7522L87.6842 74.1914L87.3957 74.5538ZM89.0061 77.3229L88.8192 77.9528L89.3569 77.6156L89.0061 77.3229ZM84.094 73.2919L84.5997 73.7121L84.4953 73.0864L84.094 73.2919ZM86.4989 81.0296L87.009 81.4614L86.9046 80.8356L86.4989 81.0296Z" fill="#B377E1"/>
<path d="M130.091 179.879H136.791V196.179H130.091V179.879Z" fill="url(#paint6_linear_375_4239)"/>
<path d="M200.651 176.879H207.351V196.179H200.651V176.879Z" fill="url(#paint7_linear_375_4239)"/>
<path d="M164.48 149.949H171.18V196.189H164.48V149.949Z" fill="url(#paint8_linear_375_4239)"/>
<path d="M115.031 125.249L115.001 125.489C115.011 125.479 115.031 125.419 115.031 125.249ZM115.041 185.299C115.041 185.319 115.041 185.339 115.051 185.359C115.051 185.319 115.051 185.309 115.041 185.299ZM113.841 134.479C113.841 134.449 113.831 134.429 113.831 134.409L113.841 134.479Z" fill="#B1CBC0"/>
<path d="M112.91 197.119C119.21 197.159 120.89 197.319 127.44 197.259L136.94 197.219C138.39 197.089 140.94 197.219 142.66 197.119L143.32 197.189C143.92 197.149 144.6 197.129 145.2 197.169L145.16 197.189C146.04 197.139 147.04 197.169 147.46 197.139H147.42H148.49L148.31 197.169C149.85 197.109 151.43 197.109 152.83 197.129L152.71 197.029C155.71 197.129 156.79 196.949 159.48 197.059L159.44 197.079C162.84 196.849 164.82 197.239 168.34 197.019C167.9 197.049 168.54 197.059 168.49 197.089C170.11 197.069 171.83 197.049 171.86 196.889C173.04 196.889 172.82 196.939 172.96 197.009C172.95 196.939 173.98 196.909 174.9 196.909L174.48 196.939L177.12 196.909L176.6 196.769C178 196.809 176.96 196.939 178.3 196.909L178.28 196.789C180.21 196.809 181.35 196.989 183.22 197.089L206.59 197.049L206.91 197.149C207.05 197.279 208.91 196.949 209.18 197.079L210.02 197.019C210.26 197.039 210.76 197.069 210.34 197.099C211.12 197.109 211.14 197.079 211.7 197.049L212.54 197.129C215.61 197.189 218.22 197.029 221.44 197.069C225.32 197.229 232.64 197.079 236.84 196.999C242.76 196.799 249.64 197.319 255.7 197.099C255.9 197.119 256.4 197.079 256.4 197.059L261.95 197.079C261.95 197.079 288.85 197.129 268.41 196.059L268.55 196.029C265.51 195.959 263.6 195.949 261.51 196.089C261.18 195.919 259.01 196.069 258.31 196.019L258.38 196.009C256.53 196.139 254.58 195.909 252.78 196.019C252.85 196.009 252.88 195.959 253.3 195.959C252 195.979 250.22 196.019 250.12 195.919C247.02 195.949 242.68 195.899 240.69 196.059L240.83 196.029C239.7 196.129 239.36 196.049 238.09 196.099C238.02 196.089 237.93 196.079 237.95 196.069C236.71 196.169 234.35 196.089 233.35 196.129L233.29 196.059L230.83 196.079H231.75C231.43 196.259 229.89 195.959 228.11 196.079C226.44 196.059 224.71 196.459 222.99 196.379C222.16 196.479 223.72 196.239 222.49 196.309C222.451 196.209 223.07 196.249 222.75 196.169C221.55 196.219 220.75 196.069 219.25 196.139L219.19 196.069C217.24 196.209 215.51 195.969 214.21 196.099C212.21 196.159 212.86 195.879 210.76 196.019L209.94 195.919C209.04 195.899 209.3 196.039 208.3 195.989C208.36 195.929 207.04 195.939 207.63 195.889C205.38 195.789 203.06 196.029 200.09 195.859C199.45 195.979 197.95 195.909 197.47 195.999C197.39 195.949 194.47 195.989 196.15 195.869C196.29 195.859 196.55 195.859 196.53 195.879L196.73 195.809C195.03 195.669 193.66 195.889 191.98 195.859C192.48 195.879 193.14 195.879 192.7 195.929H191.14L191.46 195.869L189.14 195.829L189.46 195.909C188.33 195.869 187.93 195.739 186.66 195.849C186.08 195.909 187.73 195.949 186.54 195.979L180.82 195.829C181 195.929 180.48 195.909 179.94 195.929L179.88 195.859C177.83 195.959 179.13 195.699 177.08 195.779L177.26 195.729L176.72 195.889C174.88 196.039 175.72 195.739 173.69 195.939C174.49 195.929 174.07 196.099 173.09 196.069L173.34 195.999C172.79 196.019 172.61 196.049 172.24 196.029C172.57 195.989 172.41 195.929 171.6 195.929L172.14 195.829L170.61 195.959C169.43 195.879 167.56 195.979 167.07 195.879C167.07 195.879 164.53 195.829 163.95 195.939C164.45 195.869 163.05 195.839 163.45 195.759C162.79 195.839 160.85 195.899 160.07 195.819L160.22 195.809C157.34 195.709 155.3 195.929 152.72 195.819C152.84 195.919 151.47 195.859 151.82 195.969C149.15 196.069 146.95 195.739 145.98 196.089C144.76 196.109 144.54 196.009 143.91 195.989H144.21H139.58C138.74 196.019 138.6 196.189 137.08 196.139C137.58 196.079 136.95 196.089 136.38 196.089C136.74 196.079 136.85 196.059 136.11 196.009C136.01 196.029 135.84 196.039 135.69 196.049C135.68 196.049 135.65 196.039 135.67 196.029C134.73 196.049 134.89 196.069 135.33 196.079C135.31 196.089 135.34 196.099 135.48 196.119C134.5 196.039 132.75 196.129 132.63 196.019L125.4 196.199C125.13 196.139 125.7 196.099 126.37 196.069H124.69C124.7 195.989 125.65 196.019 126.17 196.009C124.17 195.879 122.05 196.139 119.71 196.019L119.21 196.079L119.07 196.069C119.08 196.099 118.55 196.149 118.21 196.169C117.88 196.099 118.23 196.009 117.07 196.009C116.15 195.939 114.47 196.039 113.27 196.079C113.92 196.089 113.71 196.129 113.43 196.159C112.85 196.159 112.53 196.089 112.07 196.119L112.01 196.019C112.24 196.119 110.51 196.119 110.28 196.149C109.95 196.079 111.18 196.089 111.32 196.049L107.82 196.059C106.58 196.129 108.05 196.159 107.45 196.229C106.35 196.249 105.29 196.309 104.03 196.259L104.43 196.339C102.37 196.409 101.13 196.399 99.7605 196.309C84.4405 196.989 96.5305 197.239 96.5305 197.239C102.59 197.439 105.7 197.209 112.88 197.139L112.91 197.119ZM233.53 147.469L233.23 147.699C233.24 147.709 233.33 147.649 233.53 147.469ZM157.95 153.399L157.89 153.469C157.93 153.429 157.95 153.409 157.95 153.399ZM221.81 156.569L221.83 156.559L221.89 156.489L221.81 156.569Z" fill="#B1CBC0"/>
<path d="M236.211 143.549C232.411 146.949 231.311 147.749 227.461 151.349L221.831 156.549C221.051 157.429 219.451 158.729 218.501 159.749L218.061 160.049C217.731 160.399 217.341 160.789 216.961 161.089L216.971 161.049C216.471 161.569 215.871 162.089 215.621 162.349L215.631 162.309L215.001 162.909L215.101 162.789C214.239 163.646 213.348 164.473 212.431 165.269H212.561C210.721 166.819 210.191 167.549 208.501 168.929L208.511 168.889C207.981 169.459 207.491 169.929 207.011 170.359C206.561 170.759 205.931 171.299 205.951 171.259L205.871 171.189L205.831 171.159L205.731 171.089L205.091 170.659C204.613 170.342 204.123 170.045 203.621 169.769C203.921 169.939 203.521 169.649 203.551 169.649C202.451 168.949 201.281 168.179 201.171 168.319C200.371 167.789 200.571 167.849 200.491 167.719C200.451 167.789 199.751 167.349 199.131 166.949L199.431 167.119L197.651 165.959L197.921 166.309C197.001 165.649 197.781 166.009 196.861 165.439L196.811 165.539C195.511 164.659 194.861 163.999 193.651 163.089C188.451 159.569 182.681 156.069 177.931 152.659L177.761 152.439C177.741 152.269 176.311 151.699 176.191 151.479L175.591 151.149C175.441 151.029 175.121 150.779 175.421 150.949C174.901 150.599 174.881 150.609 174.481 150.389L173.961 149.949C171.931 148.519 170.091 147.479 167.941 146.009L167.211 145.479L165.961 144.619L163.661 146.699L161.611 148.599L157.941 152.099C154.541 155.459 150.101 158.829 146.641 162.299C146.511 162.399 146.241 162.699 146.241 162.699L142.941 165.699C142.941 165.699 126.891 180.299 139.781 169.969L139.721 170.069C141.571 168.469 142.721 167.439 143.871 166.189C144.171 166.139 145.371 164.849 145.831 164.489L145.801 164.539C146.801 163.439 148.151 162.539 149.131 161.489C149.101 161.539 149.111 161.589 148.861 161.819C149.621 161.099 150.661 160.099 150.781 160.119C152.611 158.419 155.221 156.079 156.301 154.879L156.241 154.979C156.841 154.279 157.101 154.179 157.821 153.439C157.871 153.409 157.921 153.369 157.921 153.379C158.581 152.629 160.061 151.399 160.621 150.829L160.701 150.839L162.151 149.489L161.591 149.989C161.661 149.689 162.791 149.059 163.761 147.989C164.181 147.619 164.561 147.189 164.931 146.749C165.301 146.309 165.681 145.849 166.031 145.519C166.206 145.622 166.374 145.739 166.531 145.869C167.131 146.169 165.961 145.669 166.831 146.169C166.801 146.269 166.411 145.969 166.581 146.169C167.421 146.669 167.861 147.139 168.901 147.769V147.869C170.301 148.629 171.321 149.599 172.261 150.069C173.661 150.919 173.041 150.869 174.531 151.669L175.031 152.119C175.631 152.539 175.531 152.299 176.171 152.789C176.091 152.819 176.991 153.389 176.571 153.189C178.031 154.289 179.721 155.119 181.621 156.589C182.121 156.789 183.081 157.509 183.461 157.639C183.481 157.719 185.461 158.989 184.261 158.339C184.161 158.279 183.991 158.169 184.011 158.159L183.831 158.129C184.891 158.999 185.931 159.429 187.051 160.209C186.731 159.969 186.281 159.679 186.611 159.829L187.651 160.529L187.401 160.429L188.941 161.499L188.771 161.299C189.511 161.839 189.711 162.129 190.621 162.599C191.041 162.799 189.961 162.029 190.771 162.549L194.531 165.249C194.461 165.099 194.801 165.329 195.171 165.549V165.649C196.611 166.479 195.571 166.119 197.001 166.969L196.851 166.929L197.301 167.029C198.621 167.729 197.881 167.599 199.361 168.349C198.811 167.999 199.201 168.049 199.861 168.509L199.661 168.459C200.041 168.689 200.181 168.759 200.421 168.929C200.181 168.829 200.251 168.939 200.801 169.289L200.401 169.119L201.501 169.689C202.251 170.289 203.561 171.039 203.831 171.339L204.511 171.809L205.111 172.209L206.071 172.809C206.251 172.629 206.391 172.489 206.471 172.389C206.221 172.659 206.451 172.489 206.721 172.269L206.921 172.109C206.981 172.069 206.991 172.059 207.021 172.039C207.071 172.009 207.091 172.019 207.041 172.089C207.381 171.669 208.491 170.569 209.011 170.209L208.931 170.309C210.701 168.809 211.781 167.549 213.391 166.209C213.261 166.209 214.111 165.509 213.831 165.609C215.351 164.079 216.881 163.129 217.231 162.349C217.931 161.669 218.131 161.629 218.531 161.299L218.371 161.469L221.111 158.929C221.591 158.449 221.561 158.259 222.491 157.459C222.241 157.759 222.591 157.429 222.941 157.119C222.741 157.319 222.681 157.399 223.141 157.019C223.191 156.949 223.281 156.849 223.361 156.759C223.371 156.759 223.391 156.749 223.381 156.759C223.931 156.229 223.821 156.299 223.551 156.539C223.561 156.519 223.531 156.529 223.431 156.589C224.071 156.119 225.051 155.089 225.201 155.109C226.881 153.549 228.001 152.359 229.401 151.039C229.601 150.939 229.301 151.269 228.901 151.659L229.901 150.729C229.951 150.799 229.361 151.289 229.061 151.579C230.341 150.579 231.421 149.239 232.901 148.059L233.151 147.759L233.251 147.689C233.221 147.669 233.511 147.349 233.701 147.149C233.941 147.019 233.801 147.279 234.481 146.649C235.081 146.199 236.011 145.209 236.701 144.529C236.301 144.869 236.401 144.729 236.551 144.559C236.891 144.239 237.151 144.109 237.391 143.859L237.491 143.899C237.291 143.959 238.331 142.999 238.431 142.859C238.671 142.729 237.931 143.389 237.881 143.509L239.951 141.609C240.651 140.879 239.751 141.669 240.051 141.279C240.691 140.679 241.281 140.039 242.071 139.399L241.771 139.549C242.951 138.379 243.691 137.719 244.571 137.029C253.241 128.189 245.871 134.579 245.871 134.579C242.191 137.739 240.501 139.609 236.271 143.579L236.211 143.549Z" fill="#B1CBC0"/>
<path d="M133.531 182.239C138.186 182.239 141.961 178.465 141.961 173.809C141.961 169.154 138.186 165.379 133.531 165.379C128.875 165.379 125.101 169.154 125.101 173.809C125.101 178.465 128.875 182.239 133.531 182.239Z" fill="url(#paint9_linear_375_4239)"/>
<path d="M167.491 154.709C172.146 154.709 175.921 150.935 175.921 146.279C175.921 141.624 172.146 137.849 167.491 137.849C162.835 137.849 159.061 141.624 159.061 146.279C159.061 150.935 162.835 154.709 167.491 154.709Z" fill="url(#paint10_linear_375_4239)"/>
<path d="M204.55 180.019C209.206 180.019 212.98 176.245 212.98 171.589C212.98 166.934 209.206 163.159 204.55 163.159C199.895 163.159 196.12 166.934 196.12 171.589C196.12 176.245 199.895 180.019 204.55 180.019Z" fill="url(#paint11_linear_375_4239)"/>
<defs>
<linearGradient id="paint0_linear_375_4239" x1="29.7974" y1="40.0235" x2="40.2834" y2="61.0113" gradientUnits="userSpaceOnUse">
<stop stop-color="#E7CAE4"/>
<stop offset="1" stop-color="#CBA2CC"/>
</linearGradient>
<linearGradient id="paint1_linear_375_4239" x1="120.439" y1="46.7351" x2="110.477" y2="28.0065" gradientUnits="userSpaceOnUse">
<stop offset="0.019" stop-color="#E2AAAA"/>
<stop offset="0.97" stop-color="#E6EDF8"/>
<stop offset="1" stop-color="#D4E8FF"/>
</linearGradient>
<linearGradient id="paint2_linear_375_4239" x1="141.893" y1="84.9975" x2="158.265" y2="117.267" gradientUnits="userSpaceOnUse">
<stop stop-color="#E5CAE7"/>
<stop offset="0.833333" stop-color="#C1A2CC"/>
</linearGradient>
<linearGradient id="paint3_linear_375_4239" x1="70.8863" y1="172.798" x2="53.2171" y2="135.436" gradientUnits="userSpaceOnUse">
<stop offset="0.019" stop-color="#BFAAE2"/>
<stop offset="0.97" stop-color="#E6EDF8"/>
<stop offset="1" stop-color="#D4E8FF"/>
</linearGradient>
<linearGradient id="paint4_linear_375_4239" x1="66.4634" y1="57.3977" x2="100.988" y2="122.404" gradientUnits="userSpaceOnUse">
<stop stop-color="#CAE7D4"/>
<stop offset="0.0208333" stop-color="#E6CACA"/>
<stop offset="1" stop-color="#BCA2CC"/>
</linearGradient>
<linearGradient id="paint5_linear_375_4239" x1="90.7273" y1="103.961" x2="73.6604" y2="69.8582" gradientUnits="userSpaceOnUse">
<stop offset="0.019" stop-color="#C9AAE2"/>
<stop offset="0.97" stop-color="#E6EDF8"/>
<stop offset="1" stop-color="#D4E8FF"/>
</linearGradient>
<linearGradient id="paint6_linear_375_4239" x1="133.439" y1="195.902" x2="133.439" y2="165.711" gradientUnits="userSpaceOnUse">
<stop offset="0.092" stop-color="#FFE6C9"/>
<stop offset="0.328" stop-color="#FFD378"/>
</linearGradient>
<linearGradient id="paint7_linear_375_4239" x1="203.999" y1="195.849" x2="203.999" y2="160.106" gradientUnits="userSpaceOnUse">
<stop offset="0.092" stop-color="#FFE6C9"/>
<stop offset="0.328" stop-color="#FFD378"/>
</linearGradient>
<linearGradient id="paint8_linear_375_4239" x1="167.828" y1="200.126" x2="167.828" y2="158.829" gradientUnits="userSpaceOnUse">
<stop offset="0.092" stop-color="#FFE6C9"/>
<stop offset="0.887" stop-color="#FFD378"/>
</linearGradient>
<linearGradient id="paint9_linear_375_4239" x1="133.529" y1="165.751" x2="133.529" y2="181.595" gradientUnits="userSpaceOnUse">
<stop stop-color="#FFD068"/>
<stop offset="1" stop-color="#EFB078"/>
</linearGradient>
<linearGradient id="paint10_linear_375_4239" x1="167.489" y1="137.798" x2="167.489" y2="154.802" gradientUnits="userSpaceOnUse">
<stop stop-color="#FFD068"/>
<stop offset="1" stop-color="#EFB078"/>
</linearGradient>
<linearGradient id="paint11_linear_375_4239" x1="204.548" y1="165.751" x2="204.548" y2="181.595" gradientUnits="userSpaceOnUse">
<stop stop-color="#FFD068"/>
<stop offset="1" stop-color="#EFB078"/>
</linearGradient>
</defs>
</svg>
