<svg width="125" height="78" viewBox="0 0 125 78" fill="none" xmlns="http://www.w3.org/2000/svg">
<path d="M0 62.801H125V77.9999H0V62.801Z" fill="#FFD593"/>
<path d="M0 70.4004H125V77.9998H0V70.4004Z" fill="url(#paint0_linear_46_641)"/>
<path d="M11.6853 0.279297H26.3216V62.7051H11.6853V0.279297Z" fill="#D3E8EF"/>
<path d="M11.6853 0.279297H26.3216V62.7051H11.6853V0.279297Z" fill="url(#paint1_linear_46_641)"/>
<path d="M26.0227 0.279297H40.659V62.7051H26.0227V0.279297Z" fill="#CEE4D0"/>
<path d="M41.3403 6.00885L54.6946 0L80.1558 56.9576L66.8015 62.9664L41.3403 6.00885Z" fill="#D3E8EF"/>
<path d="M80.2427 56.9756L66.8848 62.9689L41.4355 6.00889L54.7934 0.015625L80.2427 56.9756Z" fill="url(#paint2_linear_46_641)"/>
<path d="M57.7209 42.5916L70.6606 36.3586L74.2689 44.09L61.3292 50.3229L57.7209 42.5916Z" fill="white"/>
<defs>
<linearGradient id="paint0_linear_46_641" x1="62.5609" y1="70.8283" x2="62.1076" y2="95.7087" gradientUnits="userSpaceOnUse">
<stop stop-color="#E39157" stop-opacity="0"/>
<stop offset="1" stop-color="#E39157"/>
</linearGradient>
<linearGradient id="paint1_linear_46_641" x1="10.4726" y1="31.4922" x2="28.9896" y2="31.4922" gradientUnits="userSpaceOnUse">
<stop offset="0.316" stop-color="#A5C2DC" stop-opacity="0"/>
<stop offset="1" stop-color="#A5C2DC" stop-opacity="0.5"/>
</linearGradient>
<linearGradient id="paint2_linear_46_641" x1="56.5044" y1="32.8959" x2="70.1644" y2="28.5033" gradientUnits="userSpaceOnUse">
<stop stop-color="#A5C2DC" stop-opacity="0"/>
<stop offset="1" stop-color="#A5C2DC" stop-opacity="0.5"/>
</linearGradient>
</defs>
</svg>
