<svg width="111" height="63" viewBox="0 0 111 63" fill="none" xmlns="http://www.w3.org/2000/svg">
<path d="M110.986 0.0141568C109.758 -0.297514 7.62939e-06 9.78928 7.62939e-06 9.78928L23.9754 29.2687L111 0.0141568H110.986Z" fill="#E3EFF9"/>
<path d="M22.9051 61.4558L23.9468 29.2971L110.971 0.0283203L84.2133 22.5678L22.9051 61.4558Z" fill="#B5D3E2"/>
<g opacity="0.5">
<path opacity="0.5" d="M22.9051 61.4558L23.9468 29.2971L110.971 0.0283203L84.2133 22.5678L22.9051 61.4558Z" fill="url(#paint0_linear_51_5095)"/>
</g>
<path d="M39.4594 40.5598L22.905 61.4418L49.0923 45.759L39.4594 40.5598Z" fill="#CADDEA"/>
<g opacity="0.5">
<path opacity="0.5" d="M39.4594 40.5598L22.905 61.4418L49.0923 45.759L39.4594 40.5598Z" fill="url(#paint1_linear_51_5095)"/>
</g>
<path d="M39.4594 40.5597L66.6885 63L110.986 0L39.4594 40.5597Z" fill="#E3EFF9"/>
<defs>
<linearGradient id="paint0_linear_51_5095" x1="53.0155" y1="15.7337" x2="71.0283" y2="38.0269" gradientUnits="userSpaceOnUse">
<stop stop-color="#9CAEE3" stop-opacity="0"/>
<stop offset="1" stop-color="#9CAEE3"/>
</linearGradient>
<linearGradient id="paint1_linear_51_5095" x1="39.2781" y1="48.0583" x2="42.1337" y2="43.1271" gradientUnits="userSpaceOnUse">
<stop stop-color="#ABC1DA" stop-opacity="0"/>
<stop offset="1" stop-color="#ABC1DA"/>
</linearGradient>
</defs>
</svg>
