<svg width="22" height="21" viewBox="0 0 22 21" fill="none" xmlns="http://www.w3.org/2000/svg">
<path d="M13 17C16.771 17 18.657 17 19.828 15.828C21 14.657 21 12.771 21 9C21 5.229 21 3.343 19.828 2.172C18.657 1 16.771 1 13 1H9C5.229 1 3.343 1 2.172 2.172C1 3.343 1 5.229 1 9C1 12.771 1 14.657 2.172 15.828C2.825 16.482 3.7 16.771 5 16.898" stroke="#256FFF" stroke-width="2" stroke-linecap="round" stroke-linejoin="round"/>
<path d="M13.0012 17C11.7652 17 10.4032 17.5 9.16022 18.145C7.16222 19.182 6.16322 19.701 5.67122 19.37C5.17922 19.04 5.27222 18.015 5.45922 15.966L5.50122 15.5" stroke="#256FFF" stroke-width="2" stroke-linecap="round"/>
</svg>
