<svg width="20" height="20" viewBox="0 0 20 20" fill="none" xmlns="http://www.w3.org/2000/svg">
<path d="M7.00006 19V11.3154L0.180767 1.5732C0.0761546 1.42329 0.0146108 1.24758 0.00281722 1.06515C-0.00897638 0.882727 0.0294308 0.700557 0.113869 0.538421C0.198307 0.376285 0.325549 0.240378 0.48178 0.145458C0.638011 0.050538 0.81726 0.000231307 1.00007 0H19.0001C19.1829 0.000231307 19.3621 0.050538 19.5183 0.145458C19.6746 0.240378 19.8018 0.376285 19.8863 0.538421C19.9707 0.700557 20.0091 0.882727 19.9973 1.06515C19.9855 1.24758 19.924 1.42329 19.8194 1.5732L13.0001 11.3154V16.5C13 16.6696 12.9568 16.8364 12.8746 16.9847C12.7924 17.1331 12.6738 17.2581 12.5301 17.3481L8.53006 19.8481C8.37862 19.9424 8.20474 19.9945 8.02641 19.999C7.84808 20.0035 7.67178 19.9603 7.51576 19.8738C7.35974 19.7873 7.22967 19.6607 7.139 19.5071C7.04833 19.3535 7.00037 19.1784 7.00006 19ZM2.92096 2L8.81936 10.4268C8.93682 10.5949 8.99989 10.7949 9.00006 11V17.1958L11.0001 15.9458V11C11.0002 10.7949 11.0633 10.5949 11.1808 10.4268L17.0792 2H2.92096Z" fill="white"/>
</svg>
