<svg width="24" height="22" viewBox="0 0 24 22" fill="none" xmlns="http://www.w3.org/2000/svg">
<path d="M18.75 5.65V1.1875C18.7497 0.938947 18.6509 0.700656 18.4751 0.524902C18.2993 0.349149 18.0611 0.250285 17.8125 0.25H6.1875C5.93895 0.250285 5.70066 0.349149 5.5249 0.524902C5.34915 0.700656 5.25029 0.938947 5.25 1.1875V5.65L0.75 8.86403V21.25H23.25V8.86403L18.75 5.65ZM21.2662 9.29064L18.75 10.9356V7.49312L21.2662 9.29064ZM6.75 1.75H17.25V11.9164L14.5703 13.6685L12.387 12.5364L10.0074 13.6851L6.75 11.7074V1.75ZM12.363 14.2136L21.75 19.081V19.75H2.25V19.0958L12.363 14.2136ZM2.25 10.7301L8.39738 14.4625L2.25 17.4301V10.7301ZM16.099 14.4613L21.75 10.7663V17.3913L16.099 14.4613ZM5.25 7.49312V10.7969L2.74997 9.27883L5.25 7.49312Z" fill="#256FFF"/>
</svg>
