<svg width="22" height="23" viewBox="0 0 22 23" fill="none" xmlns="http://www.w3.org/2000/svg">
<path d="M12.4458 6.23905L15.8288 2.33405C16.2188 1.88405 16.9338 1.88605 17.3868 2.34005L20.1688 5.12705C20.9968 5.95605 21.2338 7.18705 20.7548 8.17405C17.8931 14.099 13.1147 18.8841 7.19377 21.7541C6.20777 22.2331 4.97777 21.9961 4.14977 21.1671L1.34177 18.3541C0.886766 17.8991 0.885767 17.1801 1.33977 16.7901L5.25977 13.4251C5.66977 13.0731 6.30677 13.1191 6.71777 13.5311L8.08177 14.8971C8.1516 14.9702 8.24352 15.0185 8.34342 15.0344C8.44331 15.0503 8.54567 15.0329 8.63477 14.9851C10.8643 13.7012 12.7138 11.8493 13.9948 9.61805C14.0427 9.5288 14.0601 9.42628 14.0442 9.32621C14.0283 9.22614 13.98 9.13404 13.9068 9.06405L12.5468 7.70305C12.1348 7.28905 12.0898 6.64905 12.4458 6.23805V6.23905Z" stroke="#256FFF" stroke-width="2" stroke-linecap="round" stroke-linejoin="round"/>
</svg>
