<svg width="256" height="218" viewBox="0 0 256 218" fill="none" xmlns="http://www.w3.org/2000/svg">
<path fill-rule="evenodd" clip-rule="evenodd" d="M130.069 112.895C131.192 115.319 130.954 118.14 131.08 120.808C131.397 127.532 131.753 134.589 131.753 142.192C131.753 143.604 131.469 145.386 131.753 146.57C131.983 147.527 133.766 149.219 135.121 150.778C141.174 157.744 146.242 164.338 151.622 172.162C152.485 173.42 153.738 175.128 154.651 176.708C155.747 178.6 157.515 182.957 154.147 183.443C151.352 183.847 148.62 179.246 147.411 177.718C141.883 170.723 136.823 163.662 131.922 156.335C132.178 163.537 132.073 170.982 131.753 178.56C131.656 180.922 131.828 183.642 129.397 183.779C124.975 184.029 125.692 175.559 125.692 170.983C125.692 165.22 125.36 160.293 125.355 154.988C124.838 154.934 124.14 155.915 123.672 156.503C118.113 163.476 112.811 170.54 106.497 177.381C105.596 178.359 104.6 179.584 103.13 180.918C101.572 182.331 98.6697 184.601 97.2372 182.432C96.2357 180.92 98.0497 178.175 99.0882 176.539C104.571 167.919 110.775 161.138 117.441 153.641C118.365 152.601 119.953 150.738 121.314 149.263C122.359 148.13 124.917 145.861 125.186 144.885C125.708 142.989 125.117 139.935 125.017 137.645C124.789 132.43 125.108 128.468 125.186 123.334C125.221 121.064 124.922 118.102 125.523 116.43C125.804 115.645 125.847 115.364 127.206 115.084C126.709 112.903 128.576 112.056 130.069 112.895Z" fill="#568EAF"/>
<path fill-rule="evenodd" clip-rule="evenodd" d="M131.585 2.78069C145.762 2.10519 159.638 2.72619 173.678 3.11719C179.965 3.29219 187.012 3.82419 194.218 3.45469C201.518 3.08069 210.26 2.60369 212.57 6.65369C213.268 7.87669 213.087 10.6192 213.243 12.5467C213.751 18.8557 214.279 25.2822 214.423 32.0787C214.644 42.5862 214.417 51.7162 214.085 59.0172C213.465 72.6637 214.085 85.5652 214.085 99.7627C214.085 104.601 214.542 109.975 213.412 112.896C212.817 114.431 210.928 116.726 209.035 117.442C206.955 118.23 203.181 118.294 199.773 118.451C196.479 118.605 192.77 118.416 189.839 118.284C183.008 117.974 176.002 118.01 169.972 117.947C156.394 117.805 143.602 117.105 130.404 117.105C117.305 117.105 104.074 117.274 90.4999 117.274C84.4534 117.274 77.5144 117.417 70.7994 117.105C62.1979 116.704 54.4549 117.009 51.6074 111.718C50.0924 108.905 50.2589 103.853 50.2589 99.0897C50.2589 86.2612 49.1519 72.7972 48.4074 59.6907C47.8159 49.3037 47.9029 31.6822 47.9029 18.6077C47.9029 15.6567 47.0869 7.27419 48.5754 5.30669C49.8714 3.59219 53.9544 3.77919 57.6679 3.62269C67.8939 3.19169 79.0104 3.11769 88.9844 3.11769C96.2939 3.11919 103.252 2.58769 110.199 2.78119C117.169 2.97419 124.215 3.13169 131.585 2.78069Z" fill="#ACD9E8"/>
<path fill-rule="evenodd" clip-rule="evenodd" d="M41.0275 1.72808C44.6115 -0.438417 50.72 0.495082 56.3495 0.885582C73.399 2.06858 91.93 0.626583 109.724 1.22408C116.469 1.44908 124.035 1.13358 130.938 1.39058C137.461 1.63508 145.683 1.62658 151.311 1.72808C158.595 1.85908 166.257 1.59608 172.862 1.89658C182.147 2.31858 194.434 2.72258 205.19 2.23308C208.391 2.08858 213.8 1.39808 215.461 3.07508C217.144 4.77558 216.699 10.9621 215.292 11.9991C213.713 13.1636 207.781 12.2206 205.19 11.9991C173.768 9.30858 140.153 9.45508 106.187 9.81058C98.838 9.88658 91.387 9.80208 83.9615 10.1471C73.6605 10.6266 62.2 11.1386 51.13 10.6521C48.412 10.5326 42.658 10.9566 41.195 9.30558C39.7675 7.69308 40.6245 4.05958 41.0275 1.72808ZM212.43 5.93708C211.918 6.04208 210.98 5.72108 210.747 6.10508C211.257 5.99908 212.197 6.32158 212.43 5.93708Z" fill="#568EAF"/>
<path fill-rule="evenodd" clip-rule="evenodd" d="M48.7432 108.519C51.5572 108.282 54.5707 109.159 57.3312 109.36C60.6232 109.6 64.0267 109.217 67.4327 109.36C76.9692 109.763 87.0867 109.024 97.0672 109.023C110.116 109.023 123.358 109.865 136.633 109.865C149.346 109.865 164.246 109.528 176.369 109.528C185.882 109.528 195.631 108.855 206.003 108.855C208.753 108.855 214.387 108.403 215.264 109.36C216.566 110.782 215.386 115.391 214.253 116.431C212.834 117.736 207.523 118.004 204.993 118.115C197.683 118.436 190.868 118.447 183.611 118.621C166.096 119.04 149.163 119.293 129.899 119.293C114.919 119.293 101.969 118.422 87.8072 117.778C77.4442 117.307 66.3457 118.095 55.3102 117.609C51.6087 117.447 47.9947 116.773 46.8922 115.253C46.0272 114.063 45.5002 109.728 46.7242 108.855C47.3232 108.427 47.8992 108.59 48.7432 108.519Z" fill="#568EAF"/>
<path d="M181.416 85.1825H181.415L178.217 85.2885C177.136 72.62 176.657 59.861 176.793 47.362C176.798 46.869 176.809 46.377 176.821 45.883L176.838 45.072L177.5 44.429C177.812 44.1275 177.905 43.7185 177.749 43.335C177.602 42.9705 177.262 42.702 176.886 42.638C176.958 39.491 177.049 36.651 177.166 33.9695C177.179 33.6775 177.089 33.422 176.905 33.231C176.716 33.0325 176.434 32.918 176.132 32.918C175.608 32.918 175.061 33.271 175.031 33.945C174.888 37.183 174.784 40.5255 174.717 44.153L130.607 86.8585L126.313 87.002C125.625 87.0245 125.273 87.5785 125.281 88.115C125.29 88.6225 125.637 89.1365 126.328 89.1365C126.329 89.1365 126.329 89.1365 126.329 89.1365C126.994 89.1135 127.658 89.0905 128.325 89.0695L125.823 91.491C125.51 91.7935 125.417 92.206 125.575 92.5955C125.744 93.017 126.17 93.3105 126.606 93.3105C126.871 93.3105 127.12 93.206 127.326 93.0065L131.498 88.9645L176.265 87.488C176.481 89.857 176.701 92.0685 176.935 94.2365C177.005 94.895 177.568 95.24 178.087 95.24C178.39 95.24 178.668 95.1245 178.85 94.923C178.97 94.7885 179.108 94.5495 179.067 94.179C178.853 92.2065 178.641 90.053 178.402 87.4175L181.431 87.3175C182.119 87.296 182.471 86.741 182.461 86.2055C182.453 85.6965 182.106 85.1825 181.416 85.1825ZM170.843 83.21L175.827 83.3345C175.857 83.3345 175.888 83.3325 175.918 83.3295C175.973 84.0055 176.029 84.6815 176.087 85.358L170.843 85.53V83.21ZM168.744 82.363C168.724 82.435 168.708 82.512 168.708 82.599V85.6005L133.784 86.752L174.669 47.1695C174.543 58.463 174.895 69.799 175.718 80.874C175.724 80.982 175.733 81.09 175.742 81.1975L169.755 81.0465C169.196 81.0465 168.704 81.5445 168.704 82.1125C168.704 82.2055 168.721 82.2875 168.744 82.363Z" fill="#F8FAFF"/>
<path d="M196.211 65.0954C195.707 63.8689 195.205 62.5084 194.68 60.9434C194.934 60.6634 195.035 60.2709 194.925 59.9279C194.801 59.5429 194.493 59.2709 194.112 59.1954C193.588 57.4954 193.136 55.8044 192.766 54.1629C192.655 53.6809 192.287 53.3809 191.804 53.3809C191.357 53.3809 190.84 53.6659 190.708 54.1954C190.608 54.2989 190.533 54.4154 190.48 54.5469C189.726 56.4254 189.087 58.4169 188.582 60.4694L188.504 60.4889C188.231 60.5579 187.994 60.7479 187.848 61.0104C187.706 61.2654 187.675 61.5584 187.757 61.8139C187.827 62.0389 187.967 62.2279 188.156 62.3649C187.731 64.4679 187.448 66.5919 187.319 68.6814C187.301 68.9739 187.388 69.2304 187.569 69.4224C187.757 69.6219 188.038 69.7354 188.34 69.7364C188.863 69.7364 189.414 69.3859 189.455 68.7144C189.588 66.5609 189.891 64.3774 190.361 62.2209C191.129 62.0269 191.897 61.8339 192.666 61.6374C193.18 63.1699 193.676 64.5099 194.173 65.7244C194.398 66.2859 194.931 66.5849 195.472 66.4414C195.755 66.3659 196.02 66.1414 196.163 65.8549C196.289 65.6009 196.307 65.3319 196.211 65.0954ZM192.004 59.6029L190.936 59.8739C191.111 59.2354 191.307 58.5859 191.521 57.9324C191.677 58.4974 191.838 59.0564 192.004 59.6029Z" fill="#F8FAFF"/>
<path d="M159.77 97.7313C160.096 96.8808 160.142 95.9358 159.895 95.0943C159.441 93.5508 158.041 92.4813 156.323 92.3713C155.447 92.3133 154.538 92.5723 153.873 93.0563C153.484 93.3408 153.305 93.8038 153.41 94.2213C153.315 94.4348 153.282 94.6818 153.321 94.9293L154.726 104.052C154.805 104.559 155.325 104.864 155.785 104.864C155.791 104.864 155.796 104.864 155.802 104.864C155.971 105.245 156.343 105.475 156.809 105.475C156.881 105.475 156.954 105.469 157.028 105.457C159.145 105.122 160.744 104.018 161.416 102.429C162.123 100.765 161.701 98.5548 159.77 97.7313ZM155.506 94.5963C155.614 94.5608 155.727 94.5368 155.837 94.5138C155.837 94.5138 155.838 94.5138 155.84 94.5138L155.909 94.5083C155.954 94.5053 155.997 94.5018 156.079 94.5003C156.181 94.5003 156.283 94.5063 156.386 94.5133C156.408 94.5173 156.423 94.5188 156.425 94.5213L156.623 94.5653C156.675 94.5778 156.726 94.5918 156.815 94.6218L156.872 94.6423C156.897 94.6528 156.929 94.6668 156.971 94.6843C157.037 94.7183 157.099 94.7543 157.189 94.8088L157.319 94.8943C157.406 94.9768 157.493 95.0568 157.593 95.1733C157.602 95.1868 157.609 95.1993 157.615 95.2078C157.636 95.2393 157.658 95.2713 157.688 95.3248C157.712 95.3613 157.733 95.4023 157.772 95.4793L157.794 95.5393C157.828 95.6448 157.862 95.7483 157.88 95.8298C157.882 95.8473 157.896 95.9098 157.902 95.9288L157.913 96.0733C157.918 96.1873 157.918 96.2983 157.909 96.4363C157.905 96.4723 157.902 96.5093 157.899 96.5408L157.879 96.6333C157.846 96.7688 157.805 96.9008 157.759 97.0353C157.749 97.0523 157.74 97.0698 157.734 97.0848C157.703 97.1453 157.67 97.2038 157.643 97.2543L157.587 97.3338C157.56 97.3713 157.535 97.4093 157.497 97.4643C157.404 97.5673 157.297 97.6683 157.216 97.7388C157.199 97.7498 157.178 97.7633 157.161 97.7808C157.083 97.8213 157.006 97.8653 156.93 97.9173C156.434 98.2553 156.277 98.8788 156.563 99.3673C156.844 99.8503 157.595 100.045 158.036 99.7433C158.084 99.7113 158.134 99.6813 158.184 99.6548C158.208 99.6478 158.233 99.6373 158.268 99.6253L158.59 99.5903L158.677 99.3283V99.6068C158.74 99.6203 158.8 99.6373 158.842 99.6498L158.941 99.6848C158.973 99.7063 159.008 99.7248 159.042 99.7433C159.069 99.7583 159.097 99.7733 159.121 99.7883C159.151 99.8078 159.18 99.8268 159.206 99.8453C159.273 99.9088 159.339 99.9738 159.401 100.038L159.402 100.039C159.403 100.041 159.403 100.043 159.404 100.045L159.46 100.139C159.479 100.173 159.501 100.206 159.519 100.241C159.532 100.293 159.554 100.356 159.582 100.437C159.593 100.485 159.607 100.536 159.617 100.596C159.615 100.637 159.619 100.686 159.623 100.748L159.626 100.806C159.626 100.889 159.623 100.975 159.612 101.056C159.607 101.103 159.597 101.148 159.589 101.189C159.568 101.276 159.544 101.362 159.516 101.448C159.484 101.502 159.467 101.56 159.459 101.602C159.42 101.688 159.375 101.775 159.33 101.853C159.174 102.121 158.951 102.368 158.687 102.57C158.204 102.937 157.598 103.183 156.768 103.342L155.422 94.6223L155.506 94.5963Z" fill="#F8FAFF"/>
<path d="M144.306 63.354C144.157 62.8035 143.555 62.4535 142.99 62.609C142.92 62.629 142.842 62.6435 142.814 62.6525C142.784 62.6525 142.681 62.6625 142.593 62.668C142.513 62.668 142.436 62.6645 142.339 62.6575C142.302 62.651 142.263 62.6435 142.209 62.631C142.121 62.6135 142.035 62.5865 141.951 62.56C141.912 62.5465 141.875 62.534 141.837 62.52C141.834 62.5185 141.83 62.516 141.828 62.514C141.665 62.4345 141.5 62.339 141.373 62.2585C141.359 62.2455 141.31 62.2025 141.294 62.1935L141.237 62.1445C141.168 62.082 141.102 62.018 141.033 61.943C141.001 61.9105 140.971 61.878 140.936 61.833C140.913 61.799 140.89 61.765 140.863 61.7255L140.826 61.671C140.788 61.6155 140.758 61.555 140.725 61.4965L140.702 61.456C140.685 61.412 140.676 61.3955 140.676 61.3955V61.396C140.665 61.373 140.658 61.3505 140.645 61.3085C140.615 61.2275 140.593 61.1445 140.575 61.0615L140.554 60.686C140.563 60.624 140.564 60.5895 140.566 60.5895C140.566 60.5895 140.566 60.59 140.566 60.591L140.575 60.534C140.594 60.443 140.618 60.3555 140.651 60.259C140.66 60.2345 140.668 60.209 140.694 60.1485C140.891 59.783 140.956 59.676 141.263 59.4035L141.327 59.342C141.332 59.339 141.372 59.312 141.376 59.3085C141.454 59.254 141.536 59.202 141.627 59.1505C141.686 59.115 141.749 59.0815 141.813 59.051C141.838 59.0425 141.874 59.029 141.926 59.0105L142.007 58.9795C142.314 58.886 142.578 58.8655 142.821 58.9145C143.406 59.031 143.969 58.699 144.115 58.1625C144.191 57.8845 144.14 57.562 143.981 57.301C143.832 57.0595 143.608 56.899 143.351 56.846C143.096 56.7945 142.836 56.7695 142.578 56.7695C140.9 56.7695 139.337 57.843 138.685 59.444C137.985 61.161 138.769 63.219 140.504 64.2285C141.141 64.6005 141.857 64.7985 142.572 64.7985C142.91 64.7985 143.242 64.7545 143.563 64.6675C144.117 64.515 144.46 63.9135 144.306 63.354Z" fill="#F8FAFF"/>
<path d="M129.252 36.5402L127.544 36.5313L127.527 36.3062C127.497 35.8502 127.15 35.5312 126.686 35.5312C126.424 35.5312 126.179 35.6353 126.012 35.8153C125.852 35.9873 125.776 36.2097 125.793 36.4587L125.797 36.5222L123.537 36.5127C123.326 36.5127 123.127 36.6042 122.972 36.7722C122.8 36.9607 122.708 37.2182 122.73 37.4632C122.773 37.9213 123.153 38.2448 123.652 38.2483L125.922 38.2593L126.372 44.5083C126.404 44.9658 126.75 45.2833 127.214 45.2833C127.473 45.2833 127.72 45.1813 127.887 44.9993C128.048 44.8283 128.121 44.6043 128.104 44.3558L127.667 38.2688L129.363 38.2767C129.576 38.2767 129.779 38.1833 129.934 38.0113C130.108 37.8213 130.198 37.5652 130.175 37.3242C130.131 36.8647 129.751 36.5427 129.252 36.5402Z" fill="#FF4E4D"/>
<path d="M139.542 39.0114C139.508 38.7659 139.396 38.5579 139.221 38.4249C139.054 38.2994 138.863 38.2344 138.671 38.2344C138.663 38.2344 138.601 38.2374 138.593 38.2379L137.316 38.3609C137.092 38.3814 136.873 38.4974 136.731 38.6689C136.579 38.8474 136.502 39.1049 136.535 39.3224C136.568 39.5674 136.682 39.7744 136.852 39.9049C137.017 40.0294 137.206 40.0969 137.4 40.0969C137.425 40.0969 137.455 40.0954 137.482 40.0934L138.758 39.9704C138.981 39.9499 139.201 39.8349 139.35 39.6584C139.498 39.4759 139.573 39.2204 139.542 39.0114Z" fill="#FF4E4D"/>
<path d="M140.153 41.5289C140.086 41.0509 139.679 40.7129 139.206 40.7579L136.65 41.0014C136.418 41.0239 136.198 41.1464 136.046 41.3374C135.9 41.5204 135.837 41.7419 135.866 41.9629C135.93 42.4124 136.297 42.7399 136.735 42.7399C136.761 42.7399 136.788 42.7384 136.816 42.7349L139.369 42.4899C139.602 42.4689 139.824 42.3464 139.976 42.1529C140.121 41.9704 140.185 41.7484 140.153 41.5289Z" fill="#FF4E4D"/>
<path d="M149.73 40.3642C149.318 39.8012 148.723 39.4197 148.006 39.2607C147.717 39.1967 147.417 39.1822 147.127 39.1702C146.714 39.1522 146.325 39.1347 145.993 38.9777C145.672 38.8257 145.413 38.5137 145.281 38.1217C145.152 37.7317 145.171 37.3292 145.335 37.0177C145.545 36.6212 146.033 36.3642 146.581 36.3642C146.994 36.3642 147.362 36.5137 147.591 36.7722C147.91 37.1302 148.426 37.2117 148.79 36.9482C148.987 36.8082 149.12 36.5717 149.149 36.3152C149.175 36.0842 149.112 35.8717 148.971 35.7117C148.111 34.7412 146.664 34.3837 145.411 34.8322C144.142 35.2837 143.363 36.5037 143.471 37.8652C143.576 39.2117 144.468 40.3567 145.693 40.7152C146.052 40.8202 146.419 40.8392 146.776 40.8577C147.161 40.8782 147.524 40.8962 147.852 41.0207C148.192 41.1487 148.458 41.4777 148.544 41.8842C148.641 42.3337 148.476 42.7547 148.106 42.9802C147.727 43.2152 147.173 43.2407 146.85 43.0247C146.451 42.7577 145.932 42.8092 145.644 43.1582C145.49 43.3452 145.421 43.6092 145.459 43.8652C145.494 44.0927 145.608 44.2827 145.785 44.4007C146.276 44.7292 146.852 44.9037 147.446 44.9037C148.238 44.9037 148.982 44.5992 149.543 44.0457C150.48 43.1197 150.562 41.5027 149.73 40.3642Z" fill="#FF4E4D"/>
<path d="M155.52 34.3234C155.342 34.0759 155.049 33.9219 154.759 33.9219C154.423 33.9219 154.155 34.1259 154.045 34.4669L150.75 44.7134C150.657 44.9974 150.703 45.2869 150.879 45.5259C151.059 45.7739 151.35 45.9284 151.64 45.9284C151.978 45.9284 152.244 45.7239 152.354 45.3824L155.65 35.1384C155.742 34.8519 155.697 34.5629 155.52 34.3234Z" fill="#FF4E4D"/>
<path d="M163.989 35.5911C163.855 35.3721 163.622 35.2086 163.384 35.1641C162.915 35.0766 162.52 35.3641 162.379 35.8401L160.497 42.2476L158.414 37.5651C158.269 37.2386 157.971 37.0436 157.617 37.0436C157.301 37.0436 157.004 37.1986 156.842 37.4461C156.695 37.6736 156.679 37.9461 156.799 38.2126L159.852 45.0826C160.001 45.4196 160.296 45.6196 160.636 45.6196C161.042 45.6196 161.391 45.3471 161.51 44.9411C162.369 42.0276 163.224 39.1146 164.08 36.2026C164.139 36.0006 164.106 35.7841 163.989 35.5911Z" fill="#FF4E4D"/>
<path fill-rule="evenodd" clip-rule="evenodd" d="M68.5445 38.1748C68.5445 35.5193 73.388 33.8398 71.618 31.0173C70.089 30.7398 69.803 32.9153 68.2305 32.5468C69.0125 28.1088 75.1665 29.0858 73 34.1128C72.6615 34.9023 71.6495 35.8118 70.99 36.5748C70.2305 37.4573 69.673 39.0183 68.5445 38.1748Z" fill="#F8FAFF"/>
<path fill-rule="evenodd" clip-rule="evenodd" d="M86.0108 88.8266C87.9478 82.6231 91.1333 75.8451 93.4333 69.1686C85.9138 70.2716 77.3303 72.3646 69.3478 73.7451C65.3228 67.1871 69.3978 52.7126 76.2393 48.3896C75.6563 46.0671 73.1093 43.8591 73.9693 41.3976C75.1323 41.8826 75.4823 43.2781 75.9308 44.2021C76.4273 45.2261 76.8763 46.2566 77.3173 47.3001C84.6713 41.0066 100.969 40.7376 110.881 49.6821C111.613 50.3436 112.723 51.3226 112.407 52.3456C110.75 52.4941 109.37 50.5976 107.63 49.3336C98.6478 42.8126 85.0228 42.6521 78.3318 48.5956C78.4918 50.1696 79.2988 51.7066 79.9403 53.2071C80.5173 54.5586 82.0093 56.1501 81.1138 57.6766C79.2753 57.1256 79.3188 55.0066 78.7903 53.7911C78.1593 52.3416 77.4483 51.0786 76.7523 49.7581C70.9898 53.9591 67.8533 65.5686 69.9188 72.0101C74.2163 71.1511 78.4488 70.5761 82.6823 69.7211C86.8228 68.8806 90.9853 67.4436 95.4433 67.4276C95.6663 68.8931 94.6063 70.2461 94.0188 71.7631C92.0863 76.7661 89.9048 82.7606 87.8113 87.7376C88.8663 88.9341 90.4168 89.5601 92.0773 90.0991C104.385 94.1081 115.825 86.5886 119.359 75.0451C123.053 62.9881 117.494 50.0356 107.896 44.1376C106.795 43.4621 104.997 43.2326 104.352 41.7731C104.494 41.2186 104.908 41.2041 105.288 41.1191C117.06 46.5661 124.632 59.9431 121.303 73.5226C117.254 90.0186 102.08 97.7206 86.0108 88.8266Z" fill="#F8FAFF"/>
<path fill-rule="evenodd" clip-rule="evenodd" d="M68.5545 40.3418C69.3565 40.7843 68.9735 42.5668 68.348 43.1538L67.4825 42.8698C67.4415 41.8983 67.482 40.4553 68.5545 40.3418Z" fill="#F8FAFF"/>
<path fill-rule="evenodd" clip-rule="evenodd" d="M88.906 74.1648C89.2635 76.1218 87.814 77.8378 86.907 79.5128C84.297 84.3168 81.617 89.8833 78.964 94.9163C70.1625 92.6698 65.4945 86.7823 62.957 80.7713C66.4375 78.8948 70.887 78.4868 75.1365 77.3263C79.2415 76.2053 83.42 74.8958 87.2445 74.0988C87.5855 74.0273 88.0785 73.6723 88.906 74.1648ZM64.621 81.5573C67.657 86.1223 71.503 91.2008 78.3065 93.2583C80.9265 87.1178 84.557 81.0613 86.962 75.6883C79.624 77.8633 71.9245 79.3183 64.621 81.5573Z" fill="#F8FAFF"/>
<path fill-rule="evenodd" clip-rule="evenodd" d="M84.9366 17.8862C89.1991 17.7407 94.7956 17.9657 99.7366 18.1067C104.658 18.2467 109.727 18.1462 114.692 17.9957C136.946 17.3252 158.677 18.5487 181.293 18.5487C186.457 18.5487 190.086 18.4117 195.939 18.2177C198.948 18.1167 201.924 18.1092 202.878 18.5487C203.886 19.0127 204.02 20.0782 204.419 21.3067C204.812 22.5162 205.137 23.6642 204.419 24.3952C203.711 25.1182 200.217 25.2657 197.328 25.1677C189.679 24.9072 181.16 25.0587 173.431 25.0577C161.699 25.0557 153.255 24.8357 141.363 24.8367C130.133 24.8372 120.507 25.0582 109.295 25.0577C104.186 25.0577 99.1266 25.1242 93.4156 25.2782C88.7046 25.4047 80.6276 25.8667 78.9231 24.2852C78.2366 23.6482 77.6386 19.3767 78.4616 18.5487C79.3756 17.6262 82.5551 17.9672 84.9366 17.8862Z" fill="#F8FAFF"/>
<path fill-rule="evenodd" clip-rule="evenodd" d="M197.705 133.295C197.848 133.264 197.865 133.361 197.873 133.464C198.951 139.739 200.244 145.799 201.916 151.48C198.235 159.163 194.602 166.692 189.793 173.873C188.567 175.701 186.422 179.666 183.899 179.43C181.628 179.217 181.009 175.026 180.532 172.021C179.471 165.343 179.525 159.335 180.364 152.49C180.734 149.457 181.164 146.485 182.383 144.409C183.761 142.06 186.891 140.231 189.455 138.515C192.524 136.46 195.141 135.011 197.705 133.295Z" fill="#3D7487"/>
<path fill-rule="evenodd" clip-rule="evenodd" d="M238.029 133.295C237.887 133.264 237.871 133.361 237.862 133.464C236.785 139.739 235.491 145.799 233.82 151.48C237.501 159.163 241.134 166.692 245.944 173.873C247.168 175.701 249.313 179.666 251.836 179.43C254.107 179.217 254.728 175.026 255.204 172.021C256.265 165.343 256.21 159.335 255.373 152.49C255.002 149.457 254.571 146.485 253.353 144.409C251.974 142.06 248.843 140.231 246.28 138.515C243.209 136.46 240.595 135.011 238.029 133.295Z" fill="#3D7487"/>
<path fill-rule="evenodd" clip-rule="evenodd" d="M226.832 190.373C226.618 198.325 227.02 206.5 224.811 213.104C224.252 214.774 223.183 217.559 221.275 217.65C217.912 217.809 216.587 211.112 216.055 208.389C215.2 204.009 215.074 199.527 215.215 195.088C214.055 196.098 213.445 198.828 211.005 198.792C206.256 198.724 206.749 187.333 206.962 182.459C207.116 179.007 207.294 175.711 207.805 172.863C208.343 169.851 208.919 166.795 210.162 164.949C214.096 163.897 218.652 164.019 222.283 163.77C225.552 163.547 226.829 163.786 228.851 165.959C229.687 166.859 230.82 167.794 231.039 168.316C231.406 169.192 231.518 171.434 231.713 173.031C232.263 177.51 232.892 183.312 232.555 188.015C232.398 190.184 231.641 192.339 230.366 192.561C228.394 192.908 227.937 191.215 226.832 190.373Z" fill="#FF4E4D"/>
<path fill-rule="evenodd" clip-rule="evenodd" d="M215.751 184.006C213.852 184.625 213.642 181.238 213.49 180.047C213.396 179.306 213.336 178.546 213.355 177.838C213.372 177.057 213.754 173.907 215.346 174.767C216.572 175.431 216.578 177.968 216.584 179.186C216.596 180.931 216.66 182.26 215.751 184.006Z" fill="#F8FAFF"/>
<path fill-rule="evenodd" clip-rule="evenodd" d="M218.762 182.343C218.914 182.07 219.335 181.346 220.125 181.732C220.784 182.055 220.889 183.203 220.914 183.865C220.946 184.656 220.695 186.898 219.433 186.519C218.296 186.179 218.366 183.632 218.506 182.925C218.523 182.836 218.699 182.457 218.762 182.343Z" fill="#F8FAFF"/>
<path fill-rule="evenodd" clip-rule="evenodd" d="M217.151 192.27C216.816 192.267 216.499 192.443 216.185 192.268C215.562 191.921 215.059 189.096 215.344 188.354C215.592 187.71 216.251 187.385 216.761 187.657C217.421 188.001 217.41 189.241 217.494 189.877C217.619 190.798 217.832 191.371 217.151 192.27Z" fill="#F8FAFF"/>
<path fill-rule="evenodd" clip-rule="evenodd" d="M234.915 168.653C224.42 168.653 213.925 168.653 203.428 168.653C201.82 166.325 201.096 163.446 200.062 160.74C193.029 142.329 187.305 119.972 188.276 94.0645C188.932 76.5775 193.666 61.487 201.581 50.0265C204.567 45.7025 208.23 43.4685 212.073 40.2445C214.117 38.5295 216.097 36.7835 218.505 36.6225C220.597 36.4825 224.966 38.401 226.707 39.842C230.604 43.0675 233.438 45.1865 236.348 49.26C241.25 56.121 244.811 64.25 247.207 73.8605C248.724 79.95 249.783 86.788 250.069 93.559C251.185 120.053 245.403 141.783 238.282 160.74C237.264 163.449 236.54 166.318 234.915 168.653Z" fill="#78B7CD"/>
<path fill-rule="evenodd" clip-rule="evenodd" d="M194.901 85.2862C195.169 84.7182 195.67 83.2272 196.887 83.8887C198.049 84.5197 197.477 86.3957 197.172 88.0052C196.948 89.1847 196.574 92.6007 194.839 91.7422C194.021 91.3377 193.978 89.2842 194.031 88.6387C194.102 87.8022 194.286 86.5812 194.901 85.2862Z" fill="#F8FAFF"/>
<path fill-rule="evenodd" clip-rule="evenodd" d="M192.536 92.4785C192.718 92.635 192.811 92.332 192.955 92.303C194.735 91.9625 195.033 96.62 193.171 96.0725C192.451 95.8605 192.252 94.779 192.191 94.365C192.112 93.82 191.977 93.2935 192.536 92.4785Z" fill="#F8FAFF"/>
<path fill-rule="evenodd" clip-rule="evenodd" d="M192.863 100.4C192.969 100.063 193.385 98.9792 194.255 99.2122C195.647 99.5817 195.437 101.609 195.588 102.664C195.734 103.713 196.398 105.546 195.697 106.364C195.404 106.705 194.633 106.802 194.406 106.716C193.411 106.331 193.301 104.481 193.181 103.786C193.027 102.891 192.606 101.201 192.863 100.4Z" fill="#F8FAFF"/>
<path d="M236.35 49.2597C233.44 45.1872 230.058 41.5592 226.161 38.3342C224.421 36.8927 220.127 33.3612 218.416 34.1242C216.212 35.1072 213.893 36.9562 211.849 38.6712C208.006 41.8967 204.569 45.7077 201.582 50.0342C205.653 53.0057 210.503 55.3507 216.901 55.3387C224.226 55.3262 231.385 52.9722 236.35 49.2597Z" fill="#F8FAFF"/>
<path fill-rule="evenodd" clip-rule="evenodd" d="M237.299 105.124C237.299 115.281 229.066 123.515 218.91 123.515C208.754 123.515 200.52 115.281 200.52 105.124C200.52 94.9689 208.754 86.7344 218.91 86.7344C229.066 86.7349 237.299 94.9694 237.299 105.124Z" fill="#3D7487"/>
<path fill-rule="evenodd" clip-rule="evenodd" d="M233.22 105.125C233.22 113.03 226.812 119.438 218.908 119.438C211.003 119.438 204.594 113.03 204.594 105.125C204.594 97.2205 211.003 90.8125 218.908 90.8125C226.812 90.8125 233.22 97.221 233.22 105.125Z" fill="#F8FAFF"/>
<path opacity="0.36" d="M238.281 160.74C245.401 141.783 251.184 120.053 250.068 93.5589C249.782 86.7879 248.723 79.9499 247.205 73.8604C243.387 58.5444 236.619 46.9929 226.158 38.3344C224.444 36.9159 220.267 33.4834 218.504 34.1009C218.65 34.1394 218.79 34.1884 218.918 34.2929C219.235 34.5489 219.44 35.0459 219.76 35.4719C225.744 43.4324 228.985 54.5394 231.546 66.1154C232.83 71.9199 233.879 77.9884 234.578 84.2994C235.29 90.7439 235.905 97.6654 235.755 104.335C235.457 117.708 233.661 130.41 231.378 142.388C229.639 151.509 227.861 160.162 225.485 168.317C225.451 168.43 225.414 168.541 225.379 168.654C228.556 168.654 231.734 168.654 234.913 168.654C236.538 166.319 237.263 163.45 238.281 160.74Z" fill="#568EAF"/>
<path fill-rule="evenodd" clip-rule="evenodd" d="M243.792 115.532C243.64 114.923 243.443 113.363 242.12 113.773C240.857 114.163 241.049 116.114 241.033 117.755C241.021 118.955 240.719 122.377 242.589 121.875C243.47 121.639 243.915 119.634 243.987 118.99C244.082 118.156 244.142 116.922 243.792 115.532Z" fill="#ACD9E8"/>
<path fill-rule="evenodd" clip-rule="evenodd" d="M244.702 123.049C244.494 123.168 244.46 122.852 244.325 122.795C242.649 122.113 241.44 126.62 243.375 126.449C244.123 126.383 244.53 125.361 244.671 124.967C244.855 124.449 245.089 123.958 244.702 123.049Z" fill="#ACD9E8"/>
<path fill-rule="evenodd" clip-rule="evenodd" d="M242.828 130.754C242.789 130.402 242.594 129.259 241.697 129.314C240.258 129.405 240.067 131.433 239.713 132.44C239.363 133.439 238.353 135.106 238.88 136.046C239.101 136.438 239.836 136.684 240.075 136.645C241.128 136.462 241.6 134.67 241.852 134.011C242.178 133.163 242.922 131.589 242.828 130.754Z" fill="#ACD9E8"/>
<path fill-rule="evenodd" clip-rule="evenodd" d="M87.7739 136.634C84.3929 136.189 83.7179 134.943 81.2429 135.375C78.8334 135.796 77.5924 137.822 77.2849 140.659C77.0089 143.211 78.6874 145.764 77.5574 147.96C76.3394 150.326 71.1559 150.078 68.4924 150.39C67.5934 150.496 66.1244 151.1 65.0659 150.469C63.7259 149.67 64.1149 146.11 63.7314 145.058C62.2709 141.052 56.6229 139.856 52.7674 141.737C50.9229 142.638 49.4524 145.307 47.5539 145.034C45.9834 144.808 43.6064 141.027 42.7469 139.905C42.2334 139.235 41.4874 138.237 40.6139 137.082C40.1354 136.45 38.8299 134.836 38.9334 134.149C39.1544 132.689 42.8034 131.632 43.5654 129.655C44.5829 127.019 43.7814 124.121 42.2994 122.984C40.3189 121.46 38.7049 122.333 35.5014 121.025C34.5269 119.893 35.3994 118.322 35.8514 116.632C36.7529 113.266 37.2129 108.722 38.6309 106.186C43.0364 105.219 46.3144 108.425 48.9719 106.599C51.0189 105.192 51.2524 102.272 51.2234 99.4402C51.2114 98.2612 50.9154 96.8202 51.4369 95.6557C51.9139 94.5887 53.8464 93.8432 56.0179 93.2812C57.8034 92.8182 59.7989 92.3182 61.1799 92.1017C61.5759 92.0387 62.0999 91.9972 62.8469 92.2632C67.3409 93.8652 64.4359 101.6 71.2924 102.045C74.5504 102.256 76.2044 98.2837 79.5699 98.3732C82.1664 98.4432 83.7949 100.174 85.5539 102.065C86.8009 103.403 89.4109 105.971 89.3024 107.166C89.1769 108.536 87.7284 109.374 86.8579 110.45C84.7669 113.032 83.7229 117.344 86.2689 119.685C87.9599 121.241 91.0954 121.052 91.8459 123.284C92.4424 125.057 91.2504 128.371 90.6084 130.671C89.9549 133.008 89.2374 135.369 87.7739 136.634Z" fill="#3D7487"/>
<path fill-rule="evenodd" clip-rule="evenodd" d="M50.2338 115.188C46.5268 121.865 48.9578 129.618 53.1763 133.312C61.8933 140.942 72.5398 134.39 76.4233 127.476C80.1063 120.918 77.6308 114.248 74.0173 110.75C71.8478 108.652 68.8398 107.063 64.9018 106.781C58.4763 106.32 52.9773 110.24 50.2338 115.188Z" fill="#F8FAFF"/>
<path fill-rule="evenodd" clip-rule="evenodd" d="M65.7394 112.506C71.7674 112.81 74.6859 119.715 72.1459 125.66C70.5179 129.469 65.2034 133.658 59.5589 130.491C53.5539 127.121 56.2274 116.454 61.0269 113.574C62.0864 112.938 63.2659 112.382 65.7394 112.506Z" fill="#3D7487"/>
<path fill-rule="evenodd" clip-rule="evenodd" d="M43.137 102.754C41.668 102.536 41.324 101.199 40.114 100.881C38.4 100.429 36.5115 101.987 35.918 103.961C35.53 105.255 36.548 106.617 36.1 107.488C35.3255 108.996 32.532 108.623 30.9285 108.734C29.4755 108.838 26.559 109.67 25.256 108.601C24.2915 107.809 25.122 105.706 24.2335 104.91C22.495 103.356 20.585 104.557 18.814 103.747C17.3285 104.247 16.461 106.458 14.9935 107.006C12.47 105.485 8.21349 103.342 7.12149 100.794C7.75599 99.3203 8.34549 98.3567 7.95499 97.0557C7.32949 94.9662 4.55049 93.9343 2.20049 93.6718C1.21549 92.3318 0.819989 90.9518 0.511489 89.4403C0.269989 88.2483 -0.306011 86.0243 0.204989 84.7083C1.19199 82.1688 4.43349 81.7503 5.18349 79.4708C5.89099 77.3223 3.87799 76.1513 2.45549 74.5213C2.53649 72.0373 4.89199 67.2643 6.58349 65.2153C8.38149 65.0608 8.76199 66.4253 10.435 66.7898C11.8475 67.0978 13.6375 66.2193 14.391 65.2023C15.4625 63.7578 15.053 61.5263 16.118 60.0463C16.896 58.9663 18.493 59.1058 20.362 58.8228C21.569 58.6413 23.561 57.8388 24.716 58.3403C26.144 58.9583 26.1645 60.6648 27.5855 61.5188C28.8375 62.2703 29.7645 62.2883 31.0355 61.9883C34.36 61.2053 34.482 57.7183 39.2705 60.5693C41.114 61.6673 44.543 64.5388 44.5205 66.0113C44.5 67.4293 43.082 68.2738 42.9355 69.3968C42.788 70.5133 43.392 71.8263 44.499 72.4248C45.6455 73.0448 47.8815 72.1318 49.6305 73.2223C50.786 73.9438 51.278 75.7543 51.518 78.0073C51.7105 79.8193 52.1455 82.0088 51.3725 83.2143C50.4335 84.6768 48.9325 84.0348 47.8935 85.2548C46.544 86.8398 46.511 89.9803 46.8305 90.9508C47.415 92.7198 49.144 92.8787 49.059 94.5173C48.991 95.8172 47.338 97.2863 46.2915 98.9553C45.259 100.604 44.505 102.652 43.137 102.754Z" fill="#78B7CD"/>
<path fill-rule="evenodd" clip-rule="evenodd" d="M21.6749 70.2195C18.9044 71.2825 14.8074 74.1026 12.6004 78.8151C9.07938 86.334 11.9774 93.2395 17.2299 96.3535C25.0319 100.977 35.1374 96.9825 38.9664 88.643C42.4254 81.104 39.6334 73.0231 31.9899 70.2341C27.7169 68.6751 24.7334 69.0445 21.6749 70.2195Z" fill="#F8FAFF"/>
<path fill-rule="evenodd" clip-rule="evenodd" d="M29.2101 74.2081C36.9601 76.1626 36.2601 87.0461 30.5886 91.8286C26.1631 95.5637 17.4636 94.5242 15.5471 88.6827C13.1106 81.2621 22.3601 72.4816 29.2101 74.2081Z" fill="#78B7CD"/>
</svg>
