<svg width="256" height="256" viewBox="0 0 256 256" fill="none" xmlns="http://www.w3.org/2000/svg">
<g clip-path="url(#clip0_416_20120)">
<path d="M28.8463 199.361C28.8463 199.361 20.5913 211.014 22.4102 231.629C24.2291 252.244 39.0392 256.001 39.0392 256.001H185.531L250.963 228.141V225.377L37.1821 227.002V199.143L28.8463 199.361Z" fill="#CC3333"/>
<path d="M40.5816 197.016C34.6071 199.757 31.5716 206.546 30.4571 213.024C29.3609 219.668 29.7187 226.47 31.5059 232.963C33.293 239.455 36.467 245.483 40.8089 250.63H187.915L237.734 228.612C232.135 220.196 229.235 210.915 229.575 200.812C229.942 190.632 233.457 180.817 239.636 172.719L184.027 196.934L40.5816 197.016Z" fill="#D3D9F0"/>
<path d="M229.575 200.812C229.943 190.632 233.458 180.817 239.637 172.719L185.63 196.236C181.574 200.612 173.657 210.918 174.925 223.6C176.618 240.532 187.915 250.63 187.915 250.63L237.734 228.612C232.136 220.196 229.236 210.915 229.575 200.812Z" fill="#A8B2E0"/>
<path d="M28.8477 199.36V202.754L183.683 201.348C183.683 201.348 228.354 182.413 250.724 172.169L250.706 169.691H96.2431L28.8477 199.36Z" fill="#CC3333"/>
<path d="M176.545 194.014H8.80078V191.585L23.5323 187.625H183.68L176.545 194.014Z" fill="#4F30BD"/>
<path d="M13.4414 158.957C13.4414 158.957 22.9137 163.95 22.9137 174.384C22.9137 184.818 18.4894 191.254 18.4894 191.254H180.97L184.031 155.104L13.4414 158.957Z" fill="#D3D9F0"/>
<path d="M180.97 191.254L184.031 155.104L13.4414 158.957C14.4012 159.502 15.3084 160.135 16.1513 160.847L173.692 167.828C173.692 167.828 180.389 175.136 178.444 191.254H180.97Z" fill="#A8B2E0"/>
<path d="M5.03906 159.781H177.78C182.968 170.165 182.496 184.048 176.546 194.016C200.229 183.531 225.217 174.064 248.9 163.579C252.638 154.41 251.182 142.88 245.457 134.801H66.4862L5.62078 157.021L5.03906 159.781Z" fill="#4F30BD"/>
<path d="M55.6152 141.676C61.1857 138.417 62.5016 130.306 58.5543 123.56C54.6069 116.814 46.8912 113.989 41.3207 117.248C35.7502 120.508 34.4343 128.619 38.3816 135.364C42.329 142.11 50.0447 144.936 55.6152 141.676Z" fill="#A8B2E0"/>
<path d="M84.267 142.097C98.579 133.722 103.846 116.108 96.0321 102.754C88.2178 89.3996 70.2809 85.3633 55.9689 93.7382C41.6569 102.113 36.3895 119.728 44.2038 133.082C52.0181 146.436 69.955 150.472 84.267 142.097Z" fill="#CC3333"/>
<path d="M180.376 140.598C217.042 119.142 229.749 72.6699 208.759 36.7988C187.768 0.927802 141.028 -10.7581 104.362 10.6977C67.6963 32.1535 54.9889 78.6261 75.9795 114.497C96.97 150.368 143.71 162.054 180.376 140.598Z" fill="#D3D9F0"/>
<path d="M203.574 53.3619C207.52 47.0691 196.367 32.9709 178.664 21.8728C160.962 10.7747 143.413 6.87926 139.467 13.1721C135.522 19.465 146.675 33.5632 164.378 44.6613C182.08 55.7594 199.629 59.6548 203.574 53.3619Z" fill="white"/>
<path d="M109.079 144.364C122.677 136.407 124.461 114.167 113.063 94.6899C101.666 75.2125 81.403 65.8735 67.805 73.8306C54.207 81.7878 52.4231 104.028 63.8207 123.505C75.2182 142.983 95.4811 152.322 109.079 144.364Z" fill="#D3D9F0"/>
<path d="M98.9882 139.505C106.473 135.125 105.402 119.375 96.5957 104.327C87.7898 89.2782 74.5836 80.6294 67.099 85.0092C59.6144 89.389 60.6855 105.139 69.4915 120.187C78.2975 135.236 91.5036 143.885 98.9882 139.505Z" fill="#A8B2E0"/>
<path d="M91.8016 119.689C91.4373 119.47 91.1614 119.13 91.0219 118.729C90.8825 118.327 90.8883 117.89 91.0385 117.492C91.1886 117.095 91.4735 116.762 91.8435 116.553C92.2135 116.344 92.6451 116.272 93.0631 116.348C104.102 118.376 117.512 116.855 128.06 112.382C134.053 109.838 138.101 106.544 140.091 102.592C141.458 99.8784 141.74 97.0015 140.885 94.4925C140.366 92.978 139.439 91.6364 138.205 90.6158C137.461 94.123 135.86 97.3914 133.545 100.129C131.288 102.751 128.45 104.291 125.553 104.465C124.265 104.526 122.981 104.288 121.8 103.769C120.62 103.251 119.576 102.465 118.75 101.475C117.925 100.484 117.34 99.3156 117.042 98.061C116.745 96.8064 116.742 95.4998 117.034 94.244C117.88 90.9036 120.399 88.1018 124.129 86.3545C127.497 84.7618 131.289 84.2969 134.942 85.0287C134.726 82.7764 133.96 80.6115 132.713 78.7239C131.465 76.8363 129.773 75.2836 127.786 74.2018C127.177 73.8878 126.543 73.6262 125.89 73.4198C125.746 74.9965 125.271 76.525 124.495 77.9052C122.728 81.1698 118.828 86.6794 112.561 86.9069C111.562 86.9733 110.564 86.767 109.673 86.31C108.783 85.853 108.033 85.1624 107.504 84.3122C106.826 83.1388 106.45 81.8151 106.41 80.4602C106.37 79.1054 106.668 77.7619 107.277 76.5508C108.87 73.4445 111.708 71.1669 115.482 69.9634C117.202 69.4219 118.991 69.1282 120.794 69.0911C120.197 68.4349 119.511 67.8649 118.756 67.3974C116.501 65.9571 113.4 65.3433 110.111 65.7037C100.244 66.783 87.1784 76.7401 82.8317 101.251C82.7475 101.724 82.4786 102.145 82.0841 102.421C81.6897 102.696 81.2019 102.804 80.7282 102.72C80.2544 102.636 79.8334 102.367 79.5578 101.973C79.2821 101.578 79.1744 101.091 79.2582 100.617C82.1942 84.0629 91.9331 64.0416 109.717 62.097C113.823 61.6482 117.748 62.4671 120.702 64.3348C122.741 65.5327 124.348 67.3437 125.296 69.5094C126.743 69.812 128.144 70.3075 129.46 70.9825C132.082 72.3973 134.299 74.459 135.901 76.9717C137.502 79.4844 138.435 82.3647 138.611 85.3393C138.636 85.7243 138.649 86.1128 138.649 86.5047C141.311 88.0051 143.329 90.4311 144.319 93.3217C145.492 96.7617 145.141 100.633 143.332 104.224C140.945 108.965 136.284 112.833 129.477 115.722C118.142 120.53 104.284 122.098 92.4084 119.918C92.194 119.879 91.9884 119.801 91.8016 119.689ZM134.861 88.7556C132.179 87.9314 128.644 88.2478 125.668 89.6411C122.943 90.9175 121.125 92.8685 120.553 95.1343C120.385 95.8291 120.385 96.5539 120.553 97.2487C120.721 97.9435 121.052 98.5882 121.519 99.1295C121.974 99.6975 122.557 100.149 123.221 100.447C123.885 100.745 124.61 100.88 125.336 100.842C127.217 100.729 129.207 99.6066 130.795 97.7619C132.965 95.1984 134.373 92.0785 134.861 88.7556ZM122.276 72.7531C120.353 72.6236 118.424 72.8498 116.583 73.4202C114.608 74.0508 111.95 75.3923 110.507 78.2066C110.188 78.8552 110.027 79.57 110.037 80.2927C110.048 81.0154 110.229 81.7254 110.566 82.3645C110.757 82.6794 111.034 82.9331 111.364 83.0955C111.694 83.2579 112.064 83.3222 112.43 83.2808C116.893 83.1186 119.906 78.7612 121.305 76.1787C121.912 75.1368 122.245 73.9585 122.276 72.7531L122.276 72.7531Z" fill="#CC3333"/>
</g>
<defs>
<clipPath id="clip0_416_20120">
<rect width="256" height="256" fill="white"/>
</clipPath>
</defs>
</svg>
