<svg width="256" height="256" viewBox="0 0 256 256" fill="none" xmlns="http://www.w3.org/2000/svg">
<g clip-path="url(#clip0_416_20138)">
<path d="M255.81 132.023C254.438 121.458 246.983 112.692 237.075 109.438C234.08 98.0654 228.481 87.1944 220.603 77.3229L223.713 78.7584C224.564 79.1509 225.474 79.3444 226.381 79.3444C227.63 79.3444 228.872 78.9769 229.941 78.2564C231.787 77.0124 232.848 74.8939 232.741 72.6709L231.297 42.6854C231.188 40.4199 229.881 38.3834 227.867 37.3394C226.946 36.8609 225.941 36.6244 224.936 36.6244C223.748 36.6244 222.561 36.9574 221.523 37.6169L195.179 54.3489C184.783 47.5284 173.245 42.3289 161.474 39.2784C161.005 39.1559 160.534 39.0379 160.065 38.9229C158.499 38.5394 156.911 38.1874 155.346 37.8759C154.164 37.6399 152.935 37.4234 151.546 37.2059L129.09 24.4534C128.115 23.8999 127.035 23.6289 125.958 23.6289C124.552 23.6289 123.152 24.0899 122.002 24.9909C115.43 30.1339 108.858 35.2774 102.276 40.4204C95.9402 42.2004 89.6972 44.4984 83.6822 47.2514L78.1862 43.1384L74.6117 33.6044C73.7952 31.4249 71.8537 29.8644 69.5502 29.5354C69.2487 29.4924 68.9482 29.4719 68.6487 29.4719C66.6602 29.4719 64.7632 30.4049 63.5507 32.0249L57.4527 40.1769L47.9182 43.7494C45.7387 44.5664 44.1782 46.5069 43.8492 48.8114C43.5197 51.1159 44.4742 53.4159 46.3377 54.8104L54.4897 60.9104L55.9042 64.6824C54.7872 65.6119 53.7082 66.5459 52.6737 67.4774C50.7327 69.2264 48.8152 71.0869 46.9427 73.0394L32.9802 65.7204C32.0402 65.2274 31.0287 64.9924 30.0287 64.9924C27.9447 64.9924 25.9152 66.0164 24.7007 67.8679C24.3027 68.4749 23.9287 69.1129 23.5597 69.8179C18.3262 79.8064 19.7447 91.6209 26.6292 99.9834C22.6547 103.344 18.7727 106.766 14.8417 110.375C11.3522 113.579 9.85673 119.082 10.2702 127.198C10.6907 135.441 12.2132 140.597 14.7817 142.513C15.4157 142.988 16.2017 143.558 17.1552 144.234C17.2452 146.55 17.4392 148.833 17.7367 151.06L2.95373 160.449C0.986235 161.699 -0.141265 163.923 0.0142352 166.248C0.169735 168.574 1.58324 170.628 3.69923 171.605L17.0432 177.764L14.7662 179.818C13.0642 180.646 11.7452 182.193 11.2312 184.14C10.3327 187.66 12.4592 191.275 15.9912 192.203L43.7677 199.417L50.2812 222.215C50.8172 224.089 52.1817 225.616 53.9852 226.356C54.5832 226.602 68.8437 232.373 86.8307 232.373C97.5997 232.373 107.501 230.31 116.258 226.241C126.567 221.451 136.868 214.671 146.896 206.079C147.416 205.913 147.957 205.742 148.515 205.567C148.553 206.091 148.655 206.614 148.825 207.126C149.559 209.335 151.44 210.967 153.73 211.383L163.748 213.2L171.202 220.135C172.398 221.248 173.955 221.841 175.54 221.841C176.213 221.841 176.891 221.734 177.548 221.515C179.757 220.781 181.388 218.9 181.804 216.61L183.622 206.592L184.998 205.113L185.976 210.473C186.377 212.678 187.97 214.532 190.068 215.318C190.068 215.318 190.535 215.492 191.333 215.715C193.128 216.236 196.86 217.109 201.692 217.109C202.16 217.109 202.635 217.102 203.121 217.084C209.616 216.853 215.73 215.074 221.287 211.798C224.804 209.73 228.093 207.048 231.061 203.825C231.075 203.809 231.089 203.794 231.103 203.779C231.245 203.625 231.389 203.456 231.505 203.306C232.671 201.796 233.099 199.843 232.67 197.984L227.59 175.952C231.314 173.081 234.464 169.127 236.986 164.154C238.244 161.673 237.745 158.663 235.756 156.719C235.408 156.379 235.053 156.039 234.668 155.671C236.23 151.676 237.419 147.58 238.216 143.441C238.285 143.081 238.352 142.717 238.416 142.351L250.454 140.788C253.701 140.366 256.098 137.551 255.998 134.279C255.975 133.555 255.914 132.815 255.81 132.023Z" fill="white"/>
<path d="M24.757 124.822C22.7855 133.687 22.302 142.789 23.7295 151.764C27.28 174.087 42.019 193.035 62.133 203.092C76.2565 210.154 92.2215 212.168 107.783 210.05C123.93 207.852 138.955 201.152 154.601 196.997C168.005 193.437 182.275 193.138 195.241 187.925C214.1 180.343 227.624 161.946 231.417 142.238C240.327 95.955 201.469 56.36 159.332 45.4395C158.891 45.325 158.449 45.2135 158.006 45.105C156.531 44.744 155.049 44.4145 153.56 44.118C119.684 37.3755 81.939 49.195 56.393 72.206C41.464 85.6535 29.249 104.623 24.757 124.822Z" fill="#FF8C9D"/>
<path d="M213.199 79.8458V100.614L99.2122 191.116C99.2122 191.116 29.5317 146.024 18.0597 137.417C16.9772 136.611 13.8137 119.464 18.6052 115.065C26.8692 107.478 34.2857 101.282 42.7542 94.6498C49.3022 89.5238 55.8602 84.3983 62.4187 79.2618C76.4802 68.2673 90.5412 57.2623 104.603 46.2573C111.543 40.8343 118.473 35.4113 125.403 29.9883L213.199 79.8458Z" fill="#BD6EEB"/>
<path d="M114.027 59.0683L167.676 92.4863L183.391 79.6608L129.02 47.5078L114.027 59.0683Z" fill="#FFE9DC"/>
<path d="M213.198 81.8398V97.7583L212.371 98.6708L211.744 99.3498L98.67 188.759L21.1785 137.151L21.115 135.623L21.104 135.294L20.966 131.898L20.9555 131.58L20.8175 128.003L20.807 127.696L20.6905 124.671L20.669 124.353L20.5525 121.169L20.531 120.84L20.457 118.856L99.1225 169.526L213.198 81.8398Z" fill="#FFE9DC"/>
<path d="M213.198 84.7695V85.1195L99.2132 172.507L99.1367 172.438L20.5527 121.17L20.5312 120.841L99.2112 172.162L213.198 84.7695Z" fill="#FFB289"/>
<path d="M213.197 88.3457V88.6852L99.2205 175.919L99.1355 175.865L20.6895 124.672L20.668 124.353L99.21 175.6L213.197 88.3457Z" fill="#FFB289"/>
<path d="M213.2 91.6035V91.943L99.2231 179.177L99.1381 179.123L20.8191 128.004L20.8086 127.696L99.2126 178.848L213.2 91.6035Z" fill="#FFB289"/>
<path d="M213.2 95.3926V95.7321L99.223 182.966L99.138 182.913L20.9675 131.899L20.957 131.581L99.2125 182.637L213.2 95.3926Z" fill="#FFB289"/>
<path d="M213.199 97.6836V97.7581L212.372 98.6706L98.8625 186.764L98.7775 186.711L21.1165 135.623L21.1055 135.294L98.8515 186.435L213.199 97.6836Z" fill="#FFB289"/>
<path d="M98.7574 188.762L98.5859 188.758L99.0389 169.254L99.2104 169.258L98.7574 188.762Z" fill="#FFB289"/>
<path d="M202.763 98.9694L202.8 99.1174L225.923 199.413C225.895 199.45 225.863 199.474 225.836 199.51C223.127 202.45 220.318 204.662 217.517 206.308C212.109 209.495 206.756 210.562 202.353 210.719C197.726 210.884 194.138 210.054 192.565 209.598C192.003 209.441 191.698 209.331 191.698 209.331L173.453 109.253L173.662 108.607L179.843 89.8744L183.218 79.6289L191.337 87.6594L202.763 98.9694Z" fill="#FFB289"/>
<path d="M202.8 99.1172L225.923 199.413C225.895 199.45 225.863 199.474 225.835 199.51C224.966 199.511 224.065 199.616 223.271 199.684C222.322 199.766 221.365 199.863 220.42 199.996C220.211 200.013 219.995 200.047 219.791 200.076C216.708 200.493 213.666 201.111 210.665 201.929C210.457 201.987 210.248 202.044 210.052 202.097C206.447 203.106 202.924 204.396 199.518 205.954C199.322 206.047 199.126 206.14 198.93 206.233C196.76 207.251 194.626 208.377 192.565 209.598C192.003 209.441 191.698 209.331 191.698 209.331L173.453 109.253L173.662 108.607C175.555 108.861 177.483 108.902 179.394 108.776C179.602 108.759 179.81 108.741 180.019 108.724C182.486 108.502 184.928 108.008 187.3 107.27C187.508 107.212 187.712 107.143 187.916 107.074C188.7 106.821 189.476 106.544 190.244 106.244C192.024 105.533 193.766 104.714 195.449 103.795L195.461 103.791C195.652 103.686 195.844 103.58 196.036 103.475C198.376 102.171 200.621 100.7 202.8 99.1172Z" fill="#F7607D"/>
<path d="M180.02 108.723L199.519 205.953C199.323 206.046 199.127 206.139 198.931 206.232L179.395 108.774C179.603 108.757 179.811 108.74 180.02 108.723Z" fill="#512651"/>
<path d="M187.917 107.074L210.665 201.93C210.457 201.988 210.249 202.045 210.053 202.098L187.301 107.27C187.509 107.213 187.713 107.144 187.917 107.074Z" fill="#512651"/>
<path d="M196.036 103.475L220.421 199.997C220.212 200.014 219.996 200.047 219.792 200.076L195.449 103.794L195.461 103.79C195.653 103.685 195.845 103.58 196.036 103.475Z" fill="#512651"/>
<path d="M191.337 87.6594C189.974 91.1334 182.905 91.9934 179.844 89.8744L183.218 79.6289L191.337 87.6594Z" fill="#512651"/>
<path d="M217.516 206.309C212.107 209.496 206.755 210.563 202.352 210.72C202.935 206.801 210.747 205.488 213.816 205.303C215.125 205.22 216.673 205.404 217.516 206.309Z" fill="#512651"/>
<path d="M17.1133 185.783L94.3348 116.148L186.73 145.14L109.237 209.627L17.1133 185.783Z" fill="#512651"/>
<path d="M47.1875 190.119L55.858 220.466C55.858 220.466 86.205 232.93 113.029 220.466C139.854 208.002 158.82 184.7 158.82 184.7L146.085 151.373L47.1875 190.119Z" fill="#512651"/>
<path d="M107.883 209.527C107.868 209.527 107.854 209.525 107.84 209.522L17.0695 185.949C16.978 185.925 16.923 185.832 16.947 185.74C16.9705 185.648 17.063 185.592 17.156 185.617L107.842 209.168L186.622 145.007C186.695 144.947 186.804 144.958 186.863 145.032C186.923 145.106 186.912 145.213 186.838 145.273L107.991 209.489C107.96 209.514 107.922 209.527 107.883 209.527Z" fill="#FFA9DD"/>
<path d="M202.862 173.521C199.348 173.521 195.528 172.8 191.439 171.36C187.961 170.134 184.581 168.524 181.311 166.965C179.318 166.015 177.258 165.032 175.198 164.149C162.817 158.837 148.656 156.067 129.282 155.168C119.576 154.718 109.41 154.884 100.816 159.13C100.688 159.192 100.535 159.141 100.472 159.014C100.409 158.886 100.461 158.732 100.588 158.669C109.287 154.373 119.532 154.198 129.306 154.655C148.744 155.557 162.96 158.34 175.401 163.677C177.47 164.565 179.535 165.549 181.532 166.501C184.789 168.054 188.157 169.659 191.61 170.875C198.124 173.17 203.934 173.615 208.877 172.199C214.867 170.485 219.513 165.553 220.178 160.205C220.196 160.063 220.322 159.966 220.465 159.981C220.606 159.998 220.706 160.127 220.688 160.267C219.988 165.902 215.298 170.895 209.018 172.693C207.091 173.245 205.034 173.521 202.862 173.521Z" fill="#FFA9DD"/>
<path d="M230.759 161.274C228.456 165.816 225.177 170.008 220.741 172.512C216.305 175.006 210.659 175.505 206.17 173.107C206.16 173.085 206.149 173.054 206.138 173.032C204.387 168.787 205.502 163.768 207.932 159.852C210.373 155.914 213.981 152.869 217.536 149.887C218.183 150.46 218.841 151.022 219.51 151.595C215.965 155.002 213.015 159.024 210.829 163.417C213.758 159.374 217.048 155.872 220.847 152.72C223.203 154.662 225.622 156.604 227.904 158.62C225.474 161.952 222.853 165.221 219.319 167.301C223.182 166.091 226.291 163.279 229.061 160.329C229.167 160.212 229.284 160.085 229.4 159.968C229.857 160.404 230.313 160.839 230.759 161.274Z" fill="#FFA9DD"/>
<path d="M72.3339 47.1179L81.9789 54.3349L70.6989 58.5624L63.4819 68.2079L59.2544 56.9274L49.6094 49.7109L60.8894 45.4829L68.1064 35.8379L72.3339 47.1179Z" fill="#FFB289"/>
<path d="M173.5 192.651L185.353 194.801L177.147 203.621L174.997 215.474L166.177 207.268L154.324 205.118L162.53 196.298L164.68 184.445L173.5 192.651Z" fill="#FFB289"/>
<path d="M197.66 59.9702L224.394 42.9902L225.84 72.9757L197.66 59.9702Z" fill="#7182FF"/>
<path d="M5.82422 165.824L32.5587 148.844L34.0037 178.829L5.82422 165.824Z" fill="#7182FF"/>
<path d="M225.275 114.612C236.852 113.108 247.446 121.267 248.95 132.843C249.021 133.391 249.07 133.93 249.087 134.474L207.318 139.9C207.195 139.37 207.105 138.836 207.034 138.289C205.53 126.712 213.699 116.116 225.275 114.612Z" fill="#FFA9DD"/>
<path d="M37.5616 101.295C27.2221 95.8769 23.2356 83.1124 28.6546 72.7724C28.9106 72.2839 29.1811 71.8139 29.4791 71.3594L66.7866 90.9109C66.5826 91.4149 66.3501 91.9044 66.0936 92.3929C60.6751 102.733 47.9016 106.714 37.5616 101.295Z" fill="#FFA9DD"/>
</g>
<defs>
<clipPath id="clip0_416_20138">
<rect width="256" height="256" fill="white"/>
</clipPath>
</defs>
</svg>
