<svg width="18" height="18" viewBox="0 0 18 18" fill="none" xmlns="http://www.w3.org/2000/svg">
<path d="M6.375 4.44577H8.10703V12.3747C8.10703 12.4778 8.19141 12.5622 8.29453 12.5622H9.70078C9.80391 12.5622 9.88828 12.4778 9.88828 12.3747V4.44577H11.625C11.782 4.44577 11.8687 4.2653 11.7727 4.14342L9.14766 0.819988C9.13012 0.797578 9.10771 0.779453 9.08212 0.766989C9.05654 0.754525 9.02846 0.748047 9 0.748047C8.97154 0.748047 8.94346 0.754525 8.91788 0.766989C8.89229 0.779453 8.86988 0.797578 8.85234 0.819988L6.22734 4.14108C6.13125 4.2653 6.21797 4.44577 6.375 4.44577ZM17.5781 11.6715H16.1719C16.0688 11.6715 15.9844 11.7559 15.9844 11.859V15.4684H2.01562V11.859C2.01562 11.7559 1.93125 11.6715 1.82812 11.6715H0.421875C0.31875 11.6715 0.234375 11.7559 0.234375 11.859V16.4997C0.234375 16.9145 0.569531 17.2497 0.984375 17.2497H17.0156C17.4305 17.2497 17.7656 16.9145 17.7656 16.4997V11.859C17.7656 11.7559 17.6812 11.6715 17.5781 11.6715Z" fill="#256FFF"/>
</svg>
