<svg xmlns="http://www.w3.org/2000/svg" width="270" height="70" viewBox="0 0 270 70"><defs><clipPath id="vy2ea"><path fill="#fff" d="M0 0h69v69H0z"/></clipPath></defs><g><g><g opacity="-1"><path fill="#009f43" d="M95.757 24.726c.157 0 .297-.027.42-.081a.622.622 0 0 0 .285-.246 2.39 2.39 0 0 0 .168-.321c.045-.106.077-.246.096-.421a6.246 6.246 0 0 0 .039-.86V13.22c0-.226-.002-.403-.006-.532a3.26 3.26 0 0 0-.061-.49c-.038-.2-.09-.356-.157-.469a.937.937 0 0 0-.297-.298.87.87 0 0 0-.487-.128.875.875 0 0 0-.482.128.864.864 0 0 0-.297.298 1.572 1.572 0 0 0-.15.468 3.264 3.264 0 0 0-.062.497c-.004.133-.006.308-.006.526v9.578c0 .28.007.503.022.667.015.163.05.358.107.585.056.226.157.395.302.508.146.113.334.17.566.17zm2.537 2.819c-.699.311-1.544.468-2.537.468-.993 0-1.837-.157-2.531-.468a3.719 3.719 0 0 1-1.636-1.38 6.23 6.23 0 0 1-.85-2.093c-.173-.788-.258-1.712-.258-2.772v-1.637h-1.96v8.046h-4.536V8.319h4.536v7.871h1.96v-1.462c0-1.06.085-1.984.257-2.772a6.232 6.232 0 0 1 .851-2.093 3.718 3.718 0 0 1 1.636-1.38c.694-.312 1.538-.468 2.53-.468.994 0 1.84.156 2.538.468a3.712 3.712 0 0 1 1.64 1.38c.396.608.68 1.306.852 2.093.171.788.257 1.712.257 2.772V21.3c0 1.06-.086 1.984-.257 2.772a6.244 6.244 0 0 1-.852 2.093 3.713 3.713 0 0 1-1.64 1.38zm9.592-6.443h1.67l-.84-7.24zm-5.208 6.607l3.372-19.39h5.286l3.338 19.39h-4.156l-.582-3.871h-2.408l-.56 3.87zm13.978 0V8.319h4.536v7.672h2.318V8.319h4.548v19.39h-4.548v-8.315h-2.318v8.315zm18.581-6.607h1.669l-.84-7.24zm-5.208 6.607l3.371-19.39h5.286l3.338 19.39h-4.155l-.583-3.871h-2.408l-.56 3.87zm33.895.304c-1.06 0-1.965-.146-2.716-.439-.75-.292-1.344-.727-1.78-1.304a5.629 5.629 0 0 1-.953-2.023c-.198-.771-.296-1.68-.296-2.725v-7.005c0-1.052.098-1.964.296-2.736a5.63 5.63 0 0 1 .952-2.023c.437-.577 1.03-1.012 1.781-1.304.75-.293 1.656-.439 2.716-.439.844 0 1.587.092 2.229.275.642.184 1.17.437 1.585.76.414.324.752.725 1.014 1.205.261.48.446.992.554 1.538.108.546.162 1.153.162 1.824v1.742H165v-2.128c0-.28-.007-.505-.022-.672a3.223 3.223 0 0 0-.117-.585.902.902 0 0 0-.33-.503c-.158-.113-.36-.17-.606-.17a1.01 1.01 0 0 0-.52.13.965.965 0 0 0-.33.303 1.413 1.413 0 0 0-.174.468 3.987 3.987 0 0 0-.079.515 7.16 7.16 0 0 0-.017.526v9.542c0 .203.006.38.017.533.011.151.04.323.084.514.045.191.105.347.18.468.074.12.184.222.33.304.146.082.315.122.51.122.246 0 .447-.056.604-.17a.902.902 0 0 0 .33-.507c.064-.227.103-.424.118-.591a7.93 7.93 0 0 0 .022-.673v-2.222h4.47v1.731a9.54 9.54 0 0 1-.163 1.842 5.613 5.613 0 0 1-.554 1.561c-.262.491-.6.903-1.014 1.234-.415.331-.943.595-1.585.79-.642.194-1.385.292-2.229.292zm7.706-.304V8.319h11.402v19.39h-4.458V11.71h-2.486V27.71zm22.316-.123c-.75.284-1.656.427-2.716.427-1.06 0-1.964-.143-2.71-.427-.747-.285-1.34-.71-1.781-1.275a5.336 5.336 0 0 1-.952-2c-.195-.768-.291-1.674-.291-2.719v-7.156c0-1.045.096-1.952.29-2.72.195-.767.512-1.434.953-2 .44-.564 1.034-.99 1.78-1.274.747-.284 1.65-.427 2.71-.427 1.061 0 1.967.143 2.717.427.75.285 1.348.71 1.792 1.275.444.565.766 1.232.963 2 .198.767.297 1.674.297 2.719v7.156c0 1.045-.099 1.951-.297 2.72a5.351 5.351 0 0 1-.963 2c-.444.564-1.042.99-1.792 1.274zm-2.716-2.86c.246 0 .448-.056.605-.17a.923.923 0 0 0 .336-.496c.067-.218.11-.417.129-.596.018-.18.028-.402.028-.667V13.22c0-.265-.01-.487-.028-.666a3.053 3.053 0 0 0-.13-.591.924.924 0 0 0-.335-.491c-.157-.113-.359-.17-.605-.17a.977.977 0 0 0-.515.13.944.944 0 0 0-.32.297 1.36 1.36 0 0 0-.162.468 3.2 3.2 0 0 0-.061.491c-.004.129-.006.306-.006.532v9.578c0 .218.002.394.006.526.003.133.023.299.061.497.038.2.092.355.163.468a.99.99 0 0 0 .319.304c.141.09.314.134.515.134zm12.78-8.314h1.444c.612 0 1.008-.193 1.187-.579.18-.386.27-1.027.27-1.924 0-.257-.008-.475-.023-.655a3.706 3.706 0 0 0-.107-.596 1.471 1.471 0 0 0-.24-.532 1.23 1.23 0 0 0-.443-.345c-.19-.094-.42-.14-.689-.14h-1.4zm-4.548 11.297V8.319h6.72c1.65 0 2.893.488 3.73 1.462.836.975 1.254 2.386 1.254 4.233 0 .952-.103 1.774-.308 2.468-.205.694-.47 1.244-.795 1.649-.325.405-.742.73-1.249.97a5.454 5.454 0 0 1-1.518.48c-.504.078-1.088.117-1.752.117h-1.535v8.01zm15.288 0V11.828h-2.71V8.319h9.956v3.509h-2.699v15.88z"/></g><g opacity="-1"><g><text dominant-baseline="text-before-edge" style="line-height:16px" fill="#6f6f6f" font-family="'Montserrat','Montserrat-Regular'" font-size="12" font-style="none" font-weight="400" transform="translate(83 42)"><tspan style="font-kerning:normal">Центр спортивной экипировки и оборудования</tspan></text></g></g><g opacity="-1"><path fill="#009f43" d="M149.484 15.156c1.942 0 3.516 1.595 3.516 3.563 0 1.967-1.574 3.562-3.516 3.562-1.941 0-3.515-1.595-3.515-3.562 0-1.968 1.574-3.563 3.515-3.563z"/></g><g opacity="-1"><path fill="#009f43" d="M53.58 50.878c-.559 4.317-4.51 7.667-9.323 7.667-4.813 0-8.764-3.35-9.323-7.667h-.086V39.661L23 57.15h-7.667l7.082-10.454h-.113L11.848 35.545h7.667l6.069 6.474 4.385-6.474h11.152v15.333h-.04c.02.114.04.23.04.35 0 1.346 1.404 2.438 3.136 2.438 1.732 0 3.137-1.092 3.137-2.439 0-.12.018-.235.04-.349h-.04V35.545h6.272v15.333zM23 28.575c0-2.292.902-6.006 3.484-6.272 2.568-.266 2.993-.255 4.023-.697.445-.19.856-1.394.856-1.394s-.026 1.874 0 2.787c.013.458.013.63.01.688.187-.198 3.196-3.378 4.172-4.172a14.547 14.547 0 0 1 2.09-1.394s-.393 1.432.698.696c1.09-.734 1.378-1.527 2.788-3.484 1.41-1.958 8.901-3.856 11.151-4.182 2.25-.326 4.879-1.394 4.879-1.394s-1.944 1.36-3.485 2.091c-1.54.731-3.974.37-3.485 2.09.49 1.723 2.299 3.715 1.394 4.88-.904 1.165-5.912 2.056-7.666 2.788-1.755.73-5.907 2.689-6.97 4.879-1.063 2.189-1.588 4.02-.697 3.484.89-.535 2.465-2.906 4.879-2.787 2.413.118 3.931 1.14 2.09 2.09-1.84.95-9.385 2.612-11.151 2.788-1.766.176-2.788 0-2.788 0l4.182-4.182s-.32-.425-.536-.612c.273.008.868-.123 1.93-.781 1.754-1.089 3.708-3.222 2.788-3.485-.92-.264-6.447 2.32-9.06 4.182-2.614 1.862-4.183 3.232-4.88 4.181C23 32.312 23 32.757 23 32.757v-4.182zm9.918-1.309c-.178-.005-.218-.07-.16-.084.034-.01.092.025.16.084zM46 25.787s2.152-1.16 2.787-.697c.635.464.357 1.306-.697 1.395-1.054.088-2.215-.722-2.09-.698zm1.394-16.03s.86-1.424 3.484-1.394c2.625.03 3.485 0 3.485 0s-1.704 1.284-4.182 1.394c-2.477.11-2.787 0-2.787 0zM32.757 18.12s1.485-1.064 2.091-1.394c.606-.33 1.394-1.394 1.394-1.394s.411 2.733-.697 2.788c-1.108.055-2.788 0-2.788 0z"/></g><g opacity="-1"><path fill="none" stroke="#009f43" stroke-miterlimit="20" stroke-width="4" d="M0 0v0h69v69H0v0z" clip-path="url(&quot;#vy2ea&quot;)"/></g></g></g></svg>