<svg xmlns="http://www.w3.org/2000/svg" width="44" height="44" viewBox="0 0 44 44"><g><g opacity="-1"><path fill="#b1457b" d="M40.758 41.466c-.48 1.034-1.25 2.327-2.966 2.327H24.6c.674-.002 1.298-.005 1.812-.01 2.008-2.789 2.788-6.18 3.071-8.233.37-9.137-2.473-14.76-3.886-17.206a21.297 21.297 0 0 0-2.915-3.639c.687-.999 1.374-1.778 1.957-2.355.956-.945.8-1.4 2.475-1.407.853-.003 6.572.024 7.148.023 1.76-.007 1.27.426 2.118 1.374 5.402 5.338 7.194 8.214 7.227 15.058.038 7.497-2.327 12.944-2.848 14.068zm-5.229-25c-1.528.397-1.721 4.538-1.135 8.81.586 4.272 2.694 6.332 4.777 6.205 2.365-.143 2.327-4.54 1.592-8.218-.814-4.075-3.706-7.195-5.234-6.797zm-1.432-8.245h-6.783a1.362 1.362 0 0 1-1.356-1.368c0-.756.607-1.368 1.356-1.368h6.783c.749 0 1.356.612 1.356 1.368 0 .756-.607 1.368-1.356 1.368zm-6.571-4.104c.014-.054.026-.121.041-.171.363-1.205.518-2.565 2.67-2.565h.874c2.151 0 2.257 1.378 2.673 2.571.017.048.027.113.042.165zM16.47 43.793h-2.707c-6.381-.016-9.892-2.96-9.514-9.477.623-5.872 8.737-6.234 6.846-13.818-.364-1.67.66-4.076 2.99-4.077.55.013 1.323-.019 2.018.018 1.242.026 2.679.981 3.74 2.118a15.56 15.56 0 0 1 2.119 2.862c.96 1.817 2.893 6 2.642 12.79-.365 2.896-1.946 9.37-8.134 9.584zm3.483-20.636c-.38-.72-.884-1.506-1.554-2.288-.777-.908-1.828-1.671-2.737-1.695-.066 0-.595-.016-.595-.016-1.455.002-1.443 1.07-1.177 2.408.593 2.59-.464 4.877-1.944 6.715a27.165 27.165 0 0 1-1.607 1.787c-1.588 1.65-3.108 3.106-3.249 4.819-.39 3.668 1.993 5.99 6.364 6.16.705-.009 1.134-.609 1.164-1.401.027-.844-.716-1.3-1.157-1.35-2.55-.202-3.664-1.607-3.502-3.578.075-1.08 1.356-2.424 2.616-3.733 2.107.583 5.47.946 9.219-.865-.32-3.527-1.292-5.828-1.841-6.963zm-4.17-12.2c1.124 0 2.035.92 2.035 2.053a2.044 2.044 0 0 1-2.035 2.052h-1.356a2.044 2.044 0 0 1-2.035-2.052c0-1.133.91-2.053 2.035-2.053zm5.217-6.276c-.502.223-1.04.314-1.512.471-3.245 1.061-1.749 4.393-4.08 4.435-.433.001-.987.017-1.36.019-3.45-.308-1.716-4.47-9.11-4.975a15.795 15.795 0 0 1-.685-.061V.028c.073-.002.143-.013.217-.011C9.361.039 15.321.43 19.57 1.1c2.446.482 3.011 3.223 1.431 3.58zM5.921 6.835c1.594.36 2.495.935 3.12 1.546-1.488 2.671-3.78 4.92-6.092 6.594C1.229 16.23-.2 15.841.3 14.823 3.505 12.01 4.082 11.328 4.898 9.9c.648-1.135.873-2.15 1.023-3.065zm-4.397-3.84c.035-.153.016-.362.025-.78C1.574 1.372 2.1.7 2.898.33v3.992c-.904-.268-1.338-.695-1.374-1.326z"/></g></g></svg>