<svg width="18" height="14" viewBox="0 0 18 14" fill="none" xmlns="http://www.w3.org/2000/svg">
<path d="M16.7687 3.37483L16.7725 3.37003C17.0963 3.00801 17.2572 2.53729 17.2195 2.06144C17.1819 1.58558 16.9489 1.14357 16.5718 0.832628C16.3851 0.678666 16.1686 0.561519 15.9347 0.487875C15.7009 0.41423 15.4542 0.385531 15.2087 0.403416C14.713 0.439535 14.2526 0.663208 13.9287 1.02523L6.49745 9.15763L4.17495 6.92683C4.00087 6.75971 3.7942 6.62714 3.56675 6.5367C3.3393 6.44625 3.09552 6.3997 2.84933 6.3997C2.60314 6.3997 2.35935 6.44625 2.1319 6.5367C1.90445 6.62714 1.69779 6.75971 1.5237 6.92683C1.34962 7.09395 1.21153 7.29235 1.11731 7.5107C1.0231 7.72905 0.974609 7.96308 0.974609 8.19943C0.974609 8.43577 1.0231 8.6698 1.11731 8.88815C1.21153 9.10651 1.34962 9.30491 1.5237 9.47203L5.27245 13.072C5.6337 13.42 6.1162 13.6 6.64745 13.5988H6.6712C6.92901 13.5892 7.18197 13.5286 7.41426 13.4208C7.64656 13.313 7.85318 13.1604 8.0212 12.9724L16.7687 3.37483Z" fill="white"/>
</svg>
