<svg width="195" height="23" viewBox="0 0 195 23" fill="none" xmlns="http://www.w3.org/2000/svg">
<path d="M21.9626 12.9804C21.9738 11.4147 22.4251 9.88764 23.2596 8.5916C24.094 7.29556 25.2743 6.28856 26.6515 5.69759C28.0288 5.10663 29.5415 4.95812 30.9988 5.27081C32.4562 5.58349 33.7929 6.34336 34.8406 7.45463C35.8883 8.56589 36.6001 9.97883 36.8861 11.5153C37.1722 13.0517 37.0197 14.643 36.448 16.0883C35.8763 17.5337 34.9109 18.7686 33.6735 19.6372C32.4361 20.5059 30.9821 20.9694 29.4948 20.9695C28.495 20.9915 27.5015 20.7995 26.5744 20.4051C25.6473 20.0106 24.806 19.422 24.1016 18.6749C23.3972 17.9277 22.8444 17.0377 22.4767 16.0588C22.109 15.0799 21.9341 14.0326 21.9626 12.9804ZM20.6914 12.9804C20.6858 14.8145 21.1973 16.6092 22.1612 18.1372C23.1251 19.6651 24.498 20.8576 26.1061 21.5636C27.7142 22.2696 29.4852 22.4575 31.1947 22.1033C32.9043 21.7491 34.4755 20.8688 35.7096 19.5739C36.9436 18.2791 37.7848 16.6278 38.1268 14.8293C38.4688 13.0308 38.2962 11.1659 37.6307 9.4708C36.9653 7.77566 35.8369 6.32653 34.3886 5.30689C32.9403 4.28725 31.2371 3.74296 29.4948 3.74295C28.3333 3.71298 27.1782 3.93118 26.0991 4.38441C25.02 4.83764 24.0395 5.51649 23.2166 6.37989C22.3938 7.2433 21.7458 8.27334 21.3117 9.40781C20.8777 10.5423 20.6667 11.7576 20.6914 12.9804Z" fill="white"/>
<path d="M85.0569 10.5533C85.0873 9.6446 84.9399 8.73899 84.6237 7.8928C84.3076 7.0466 83.8295 6.27789 83.2191 5.63446C82.6088 4.99103 81.8793 4.48661 81.0759 4.15256C80.2726 3.81851 79.4125 3.66199 78.5492 3.69268C77.3116 3.645 76.0905 4.00393 75.0553 4.71969C74.0201 5.43546 73.2221 6.47258 72.772 7.68723C72.274 6.46518 71.4369 5.42997 70.3705 4.71719C69.3041 4.00442 68.0581 3.64732 66.7956 3.69268C65.756 3.65909 64.7257 3.90901 63.8049 4.41819C62.8841 4.92737 62.1039 5.67849 61.5402 6.59869V4.15205H60.3164V22.1275H61.5402V10.5533C61.5402 9.08337 62.0948 7.67364 63.0822 6.63423C64.0696 5.59482 65.4088 5.01086 66.8051 5.01086C68.2015 5.01086 69.5406 5.59482 70.528 6.63423C71.5154 7.67364 72.0701 9.08337 72.0701 10.5533V22.1675H73.3128V10.5533C73.3128 9.08337 73.8675 7.67364 74.8548 6.63423C75.8422 5.59482 77.1813 5.01086 78.5777 5.01086C79.9741 5.01086 81.3132 5.59482 82.3006 6.63423C83.288 7.67364 83.8427 9.08337 83.8427 10.5533V22.1675H85.0664L85.0569 10.5533Z" fill="white"/>
<path d="M56.1042 16.755C55.943 13.1999 52.7271 12.2412 49.2456 11.7019C45.5459 11.1527 43.7909 10.5036 43.7625 8.48632C43.734 6.46907 45.8779 4.89122 48.8946 4.89122C51.9113 4.89122 53.7991 6.25936 54.4821 8.61615H55.7153C54.9944 5.44048 52.5563 3.69287 48.8566 3.69287C44.6731 3.69287 42.5292 6.08959 42.5292 8.48632C42.5956 11.9716 46.1625 12.4809 49.0558 12.9303C53.1445 13.5394 54.8046 14.6379 54.871 16.795C54.9065 17.2373 54.8521 17.6824 54.7114 18.1009C54.5707 18.5193 54.3471 18.9014 54.0552 19.2217C52.7762 20.4307 51.0952 21.0588 49.3784 20.9693C45.84 20.9693 43.4399 19.4614 42.8518 16.6252H41.647C42.1972 20.2103 45.1949 22.1677 49.4163 22.1677C51.4428 22.2783 53.4283 21.5385 54.9374 20.1105C55.7323 19.1983 56.1518 17.9919 56.1042 16.755Z" fill="white"/>
<path d="M0.959643 8.88595C0.429389 9.96161 0.111235 11.1391 0.0243502 12.3475C-0.0625345 13.5559 0.0836427 14.7703 0.454057 15.9177C0.824472 17.0652 1.41148 18.1219 2.1798 19.0243C2.94813 19.9268 3.8819 20.6564 4.92494 21.1692C6.76269 22.0931 8.84887 22.3136 10.8244 21.793C12.8 21.2723 14.5414 20.043 15.7489 18.3167C16.9564 16.5903 17.5545 14.4748 17.4402 12.3343C17.3259 10.1938 16.5064 8.16218 15.1228 6.58909L14.9236 6.37939L14.326 7.6776L14.4303 7.77747C15.4266 8.92982 16.0613 10.3774 16.248 11.9231C16.4347 13.4688 16.1644 15.0375 15.4738 16.4157C14.7934 17.7977 13.7443 18.9404 12.4554 19.7033C11.1665 20.4662 9.69394 20.816 8.21872 20.71C6.74349 20.6039 5.32983 20.0465 4.15145 19.1061C2.97307 18.1658 2.08133 16.8836 1.58575 15.417C1.27715 14.437 1.15842 13.4017 1.23664 12.3726C1.31485 11.3434 1.58839 10.3411 2.04108 9.42522C2.67579 7.99559 3.71959 6.81089 5.02613 6.03723C6.33266 5.26357 7.83643 4.93973 9.32661 5.11109H9.46893L10.0665 3.82284H9.79146C7.99551 3.57741 6.17192 3.93954 4.58432 4.85686C2.99671 5.77418 1.72734 7.19919 0.959643 8.9259" fill="white"/>
<path d="M89.6764 12.9804C89.6877 11.4147 90.139 9.88764 90.9734 8.5916C91.8079 7.29556 92.9881 6.28856 94.3654 5.69759C95.7427 5.10663 97.2553 4.95812 98.7127 5.27081C100.17 5.58349 101.507 6.34336 102.554 7.45463C103.602 8.56589 104.314 9.97883 104.6 11.5153C104.886 13.0517 104.734 14.643 104.162 16.0883C103.59 17.5337 102.625 18.7686 101.387 19.6372C100.15 20.5059 98.6959 20.9694 97.2086 20.9695C96.2089 20.9915 95.2153 20.7995 94.2883 20.4051C93.3612 20.0106 92.5199 19.422 91.8155 18.6749C91.1111 17.9277 90.5583 17.0377 90.1906 16.0588C89.8229 15.0799 89.6479 14.0326 89.6764 12.9804ZM88.4053 12.9804C88.3996 14.8145 88.9111 16.6092 89.875 18.1372C90.8389 19.6651 92.2119 20.8576 93.82 21.5636C95.4281 22.2696 97.199 22.4575 98.9086 22.1033C100.618 21.7491 102.189 20.8688 103.423 19.5739C104.657 18.2791 105.499 16.6278 105.841 14.8293C106.183 13.0308 106.01 11.1659 105.345 9.4708C104.679 7.77566 103.551 6.32653 102.102 5.30689C100.654 4.28725 98.951 3.74296 97.2086 3.74295C96.0472 3.71298 94.892 3.93118 93.813 4.38441C92.7339 4.83764 91.7533 5.51649 90.9305 6.37989C90.1076 7.2433 89.4596 8.27334 89.0256 9.40781C88.5916 10.5423 88.3806 11.7576 88.4053 12.9804Z" fill="white"/>
<path d="M156.793 12.98C156.83 15.1441 157.587 17.226 158.93 18.8646C160.273 20.5032 162.119 21.5951 164.147 21.951C166.175 22.3068 168.258 21.9041 170.033 20.8127C171.809 19.7213 173.166 18.0102 173.868 15.976L173.954 15.6963H172.606L172.559 15.8361C172.043 17.3497 171.087 18.6536 169.827 19.5626C168.566 20.4715 167.066 20.9392 165.539 20.8992C164.144 20.9166 162.771 20.5287 161.571 19.7781C160.372 19.0275 159.392 17.9433 158.74 16.6447C158.088 15.346 157.788 13.8833 157.875 12.4171C157.961 10.951 158.429 9.53824 159.229 8.33419C160.028 7.13015 161.127 6.18141 162.406 5.59227C163.684 5.00313 165.092 4.79639 166.474 4.99478C167.857 5.19318 169.161 5.78904 170.243 6.71683C171.324 7.64462 172.142 8.86842 172.606 10.2538V10.4036H173.944L173.868 10.124C173.431 8.59321 172.61 7.21482 171.492 6.13398C170.373 5.05313 168.998 4.3098 167.512 3.98231C166.848 3.83033 166.171 3.75335 165.492 3.75264C164.338 3.72925 163.191 3.95245 162.121 4.40879C161.051 4.86513 160.08 5.54511 159.267 6.40762C158.454 7.27013 157.816 8.29728 157.39 9.42694C156.965 10.5566 156.762 11.7653 156.793 12.98Z" fill="white"/>
<path d="M193.04 12.9801C193.037 14.5436 192.593 16.0708 191.765 17.3688C190.937 18.6668 189.762 19.6775 188.389 20.273C187.016 20.8686 185.506 21.0224 184.05 20.7149C182.594 20.4075 181.257 19.6527 180.208 18.5458C179.159 17.4388 178.445 16.0295 178.157 14.4958C177.868 12.9621 178.018 11.3729 178.588 9.92884C179.157 8.48478 180.12 7.25069 181.355 6.3825C182.59 5.5143 184.042 5.05094 185.527 5.05094C186.521 5.03049 187.508 5.22176 188.429 5.61325C189.351 6.00475 190.188 6.58837 190.89 7.32905C191.592 8.06973 192.144 8.95219 192.513 9.92332C192.883 10.8945 193.062 11.9342 193.04 12.9801ZM194.302 12.9801C194.257 10.8193 193.473 8.74791 192.096 7.14562C190.718 5.54333 188.837 4.51745 186.799 4.25597C184.761 3.9945 182.702 4.51494 180.999 5.72193C179.295 6.92892 178.062 8.74162 177.526 10.8278C176.989 12.914 177.184 15.134 178.076 17.0809C178.967 19.0278 180.496 20.5713 182.38 21.4285C184.265 22.2856 186.38 22.399 188.338 21.748C190.296 21.0969 191.965 19.7249 193.04 17.8834C193.052 17.8481 193.068 17.8146 193.088 17.7836V22.1976H194.283C194.283 22.1976 194.283 13.6293 194.283 13.4295C194.283 13.2298 194.283 13.1299 194.283 12.9801" fill="white"/>
<path d="M145.409 4.99092C147.251 4.97141 149.032 5.67805 150.403 6.97177C151.774 8.26549 152.636 10.0526 152.818 11.9814H137.981C138.149 10.0411 139.01 8.24023 140.391 6.94264C141.772 5.64504 143.569 4.94747 145.419 4.99092H145.409ZM136.615 12.98C136.645 15.0951 137.359 17.1362 138.64 18.7664C139.92 20.3967 141.69 21.5185 143.658 21.9468C145.626 22.3751 147.674 22.0841 149.463 21.1221C151.253 20.16 152.677 18.5842 153.501 16.655L153.625 16.3554H152.23L152.183 16.4753C151.586 17.8235 150.627 18.9587 149.426 19.7411C148.224 20.5236 146.831 20.9192 145.419 20.8793C143.471 20.8982 141.594 20.1097 140.193 18.684C138.793 17.2583 137.981 15.3099 137.934 13.2596H154.118L154.165 12.5706C154.14 11.3575 153.887 10.1616 153.423 9.05118C152.958 7.94073 152.291 6.93749 151.458 6.09872C149.776 4.40477 147.523 3.48362 145.196 3.53792C142.869 3.59221 140.657 4.6175 139.048 6.38825C137.439 8.15899 136.564 10.5301 136.615 12.98Z" fill="white"/>
<path d="M134.452 11.9113C134.269 10.5561 133.809 9.25873 133.105 8.1082C132.4 6.95768 131.468 5.98125 130.371 5.24598C129.274 4.51072 128.039 4.03401 126.751 3.8486C125.462 3.66318 124.151 3.77345 122.907 4.17183C120.758 4.93466 118.969 6.53588 117.908 8.64574V0.197266H116.684V11.9113H118.192C118.3 11.0734 118.531 10.2582 118.875 9.49459C119.326 8.53411 119.954 7.678 120.723 6.9766C121.492 6.27519 122.386 5.74264 123.353 5.41016C124.406 5.07497 125.515 4.98139 126.605 5.13575C127.696 5.29011 128.742 5.68881 129.673 6.30496C130.605 6.92112 131.4 7.74039 132.005 8.70751C132.61 9.67463 133.011 10.7671 133.181 11.9113H134.452Z" fill="white"/>
<path d="M112.776 22.1573V0.197266H111.533V6.27897H107.075V7.58719H111.533V22.1573H112.776Z" fill="white"/>
</svg>
