<svg width="211" height="24" viewBox="0 0 211 24" fill="none" xmlns="http://www.w3.org/2000/svg">
<path d="M22.3678 13.7914C22.3678 19.1967 26.4592 23.2758 31.8799 23.2758C37.3057 23.2758 41.3951 19.1967 41.3951 13.7914C41.3951 8.38916 37.3057 4.30903 31.8799 4.30903C26.4592 4.30903 22.3678 8.38916 22.3678 13.7914ZM23.736 13.7914C23.736 9.13175 27.2377 5.61471 31.8799 5.61471C36.5252 5.61471 40.0268 9.13175 40.0268 13.7914C40.0268 18.4541 36.5252 21.9722 31.8799 21.9722C27.2377 21.9722 23.736 18.4541 23.736 13.7914Z" fill="#231F20"/>
<path d="M91.9621 11.3495C91.9621 7.29394 89.0163 4.30922 84.9239 4.30922C81.9423 4.30922 79.6437 5.92876 78.6755 8.40577C77.6334 5.92876 75.2272 4.30922 72.2096 4.30922C69.6967 4.30922 67.6864 5.46311 66.5356 7.29393V4.77898H65.2074V23.276H66.5356V11.3495C66.5356 8.04575 68.9439 5.67645 72.2096 5.67645C75.5123 5.67645 77.9206 8.04575 77.9206 11.3495V23.276H79.2478V11.3495C79.2478 8.04575 81.6561 5.67645 84.9239 5.67645C88.2266 5.67645 90.6349 8.04575 90.6349 11.3495V23.276H91.9621V11.3495Z" fill="#231F20"/>
<path d="M60.6531 17.7259C60.4777 14.0734 57.0006 13.0888 53.2426 12.5278C49.2393 11.9677 47.3439 11.299 47.309 9.22816C47.2731 7.12143 49.5932 5.53984 52.8569 5.53984C56.0878 5.53984 58.1617 6.94604 58.8961 9.36663H60.2315C59.4592 6.10396 56.8242 4.30903 52.822 4.30903C48.2927 4.30903 45.9736 6.77167 45.9736 9.22816C46.0444 12.8108 49.9071 13.336 53.0323 13.7914C57.4571 14.4242 59.2469 15.5484 59.3176 17.7597C59.3884 18.7105 59.0715 19.5875 58.4407 20.2511C57.3883 21.3445 55.5606 22.046 53.3851 22.046C49.5563 22.046 46.9572 20.4972 46.3264 17.5843H45.0259C45.6218 21.2737 48.8557 23.2758 53.419 23.2758C55.9483 23.2758 58.0889 22.5004 59.3884 21.168C60.2684 20.2511 60.6869 18.9895 60.6531 17.7259Z" fill="#231F20"/>
<path d="M1.03001 9.63752C-0.117717 11.9668 -0.313621 14.53 0.479225 16.8562C1.27105 19.1896 2.99213 21.1107 5.32143 22.2574C10.097 24.6113 15.5095 22.761 17.8849 17.9383C19.6881 14.1248 19.0993 10.0386 16.3505 7.27744L16.1351 7.06L15.4807 8.39337L15.5915 8.5021C17.3618 10.2375 18.4706 13.7505 16.7249 17.368C15.7495 19.3476 14.1012 20.8174 12.0796 21.5025C10.0908 22.1825 7.89382 22.0113 5.89171 21.0266C3.87933 20.0327 2.23518 18.2009 1.71003 16.3608C1.05258 13.9905 1.18694 12.3104 2.20544 10.177C3.41265 7.64053 6.31531 5.29071 10.0765 5.74713L10.2293 5.76662L10.8806 4.44145L10.5831 4.39735C5.75837 3.74912 2.42083 6.81384 1.03001 9.63752Z" fill="#231F20"/>
<path d="M95.5818 13.7914C95.5818 19.1967 99.6742 23.2758 105.096 23.2758C110.522 23.2758 114.612 19.1967 114.612 13.7914C114.612 8.38916 110.522 4.30903 105.096 4.30903C99.6742 4.30903 95.5818 8.38916 95.5818 13.7914ZM96.9511 13.7914C96.9511 9.13175 100.454 5.61471 105.096 5.61471C109.741 5.61471 113.244 9.13175 113.244 13.7914C113.244 18.4541 109.741 21.9722 105.096 21.9722C100.454 21.9722 96.9511 18.4541 96.9511 13.7914Z" fill="#231F20"/>
<path d="M169.547 13.824C169.547 19.216 173.629 23.2817 179.038 23.2817C183.256 23.2817 186.792 20.7842 188.045 16.9164L188.138 16.6333H186.677L186.624 16.7748C185.451 19.9883 182.544 21.9822 179.038 21.9822C174.407 21.9822 170.915 18.4744 170.915 13.824C170.915 9.17563 174.407 5.66782 179.038 5.66782C182.57 5.66782 185.572 7.77969 186.681 11.0465L186.733 11.1952H188.175L188.09 10.9141C187.102 7.68532 184.533 5.32422 181.223 4.60009C180.514 4.44727 179.78 4.36624 179.038 4.36624C173.629 4.36624 169.547 8.43406 169.547 13.824Z" fill="#231F20"/>
<path d="M210.072 13.8179C210.072 8.43004 205.995 4.36632 200.591 4.36632C195.187 4.36632 191.111 8.43004 191.111 13.8179C191.111 19.2027 195.187 23.2623 200.591 23.2623C204.116 23.2623 207.072 21.5371 208.706 18.8447C208.724 18.8119 208.767 18.7442 208.767 18.7442L208.762 23.2818H210.057C210.057 23.2818 210.072 14.4784 210.057 14.2774C210.068 14.1205 210.072 13.9707 210.072 13.8179ZM208.706 13.8179C208.706 18.4622 205.218 21.9638 200.591 21.9638C195.964 21.9638 192.475 18.4622 192.475 13.8179C192.475 9.1675 195.964 5.66585 200.591 5.66585C205.218 5.66585 208.706 9.1675 208.706 13.8179Z" fill="#231F20"/>
<path d="M147.708 13.846C147.708 19.1959 151.787 23.2576 157.189 23.2576C161.134 23.2966 164.41 21.1847 165.962 17.6144L166.093 17.3077H164.59L164.53 17.4359C163.207 20.2688 160.479 21.9581 157.223 21.9581C153.938 21.9878 149.315 19.5734 149.127 14.1312H166.627L166.675 13.4224C166.42 7.46633 161.73 4.35956 157.223 4.35956C151.8 4.35956 147.708 8.43765 147.708 13.846ZM157.223 5.66217C161.244 5.50319 164.916 8.8274 165.237 12.8224H149.181C149.547 8.72996 152.952 5.66217 157.223 5.66217Z" fill="#231F20"/>
<path d="M145.361 12.7422C144.904 9.23234 142.562 6.68764 140.248 5.49683C137.888 4.28346 135.273 4.03627 132.88 4.80143C130.581 5.53991 128.699 7.1892 127.475 9.3944V0.718217H126.155V12.7422H127.782C127.934 11.9032 128.108 11.0601 128.518 10.2611C129.57 8.22513 131.47 6.57482 133.367 6.07018C135.801 5.44247 137.51 5.60761 139.677 6.68969C141.755 7.72049 143.605 9.92057 143.987 12.7422H145.361Z" fill="#231F20"/>
<path d="M121.927 23.2779V0.718201H120.578V6.96251H115.762V8.31127H120.578V23.2779H121.927Z" fill="#231F20"/>
</svg>
