<svg 
 xmlns="http://www.w3.org/2000/svg"
 xmlns:xlink="http://www.w3.org/1999/xlink"
 width="23px" height="25px">
<path fill-rule="evenodd"  fill="rgb(41, 49, 51)"
 d="M22.500,24.999 L0.500,24.999 C0.224,24.999 -0.000,24.766 -0.000,24.478 L-0.000,19.270 C-0.000,18.983 0.224,18.749 0.500,18.749 C0.776,18.749 1.000,18.983 1.000,19.270 L1.000,23.958 L22.000,23.958 L22.000,19.270 C22.000,18.983 22.224,18.749 22.500,18.749 C22.776,18.749 23.000,18.983 23.000,19.270 L23.000,24.478 C23.000,24.766 22.776,24.999 22.500,24.999 ZM11.854,19.637 C11.763,19.732 11.638,19.791 11.500,19.791 C11.362,19.791 11.238,19.733 11.148,19.640 C11.147,19.639 11.146,19.639 11.146,19.639 L5.146,13.389 C4.951,13.186 4.951,12.855 5.146,12.653 C5.341,12.449 5.658,12.449 5.853,12.653 L11.000,18.013 L11.000,0.520 C11.000,0.232 11.224,-0.001 11.500,-0.001 C11.776,-0.001 12.000,0.232 12.000,0.520 L12.000,18.013 L17.146,12.653 C17.341,12.449 17.658,12.449 17.853,12.653 C18.048,12.855 18.048,13.186 17.853,13.389 L11.854,19.637 Z"/>
</svg>