<svg xmlns="http://www.w3.org/2000/svg" width="23" height="25" viewBox="0 0 23 25"><g><g><path fill="#fff" d="M11 .52a.51.51 0 0 1 .5-.52c.276 0 .5.232.5.52v17.493l5.146-5.36a.486.486 0 0 1 .707 0 .536.536 0 0 1 0 .736l-5.997 6.247a.524.524 0 0 1-.144.106.481.481 0 0 1-.566-.103l-6-6.25a.536.536 0 0 1 0-.737.486.486 0 0 1 .707 0L11 18.013zM.5 25a.511.511 0 0 1-.5-.522V19.27a.51.51 0 0 1 .5-.52c.276 0 .5.233.5.52v4.688h21V19.27c0-.287.224-.52.5-.52s.5.233.5.52v5.208a.511.511 0 0 1-.5.521z"/></g></g></svg>