<svg 
 xmlns="http://www.w3.org/2000/svg"
 xmlns:xlink="http://www.w3.org/1999/xlink"
 width="24px" height="40px">
<path fill-rule="evenodd"  fill="rgb(41, 49, 51)"
 d="M0.642,21.277 L18.310,38.831 C18.719,39.237 19.264,39.461 19.846,39.461 C20.428,39.461 20.973,39.237 21.382,38.831 L22.683,37.539 C23.529,36.696 23.529,35.328 22.683,34.488 L7.846,19.746 L22.699,4.989 C23.108,4.583 23.334,4.042 23.334,3.464 C23.334,2.886 23.108,2.343 22.699,1.937 L21.398,0.645 C20.989,0.239 20.444,0.016 19.862,0.016 C19.281,0.016 18.735,0.239 18.326,0.645 L0.642,18.215 C0.232,18.622 0.007,19.167 0.009,19.746 C0.007,20.326 0.232,20.870 0.642,21.277 Z"/>
</svg>