<svg 
 xmlns="http://www.w3.org/2000/svg"
 xmlns:xlink="http://www.w3.org/1999/xlink"
 width="24px" height="41px">
<path fill-rule="evenodd"  fill="rgb(41, 49, 51)"
 d="M23.361,18.791 L5.769,1.169 C5.362,0.762 4.819,0.537 4.240,0.537 C3.660,0.537 3.117,0.762 2.710,1.169 L1.415,2.467 C0.572,3.313 0.572,4.686 1.415,5.531 L16.187,20.327 L1.398,35.141 C0.992,35.549 0.767,36.092 0.767,36.673 C0.767,37.253 0.992,37.797 1.398,38.205 L2.694,39.502 C3.101,39.910 3.644,40.134 4.223,40.134 C4.802,40.134 5.345,39.910 5.752,39.502 L23.361,21.865 C23.768,21.455 23.993,20.909 23.991,20.328 C23.993,19.746 23.768,19.199 23.361,18.791 Z"/>
</svg>