<svg xmlns="http://www.w3.org/2000/svg" width="19" height="22" viewBox="0 0 19 22"><g><g><path fill="#a61a17" d="M.949 21.997c-.526 0-.95-.41-.95-.916V.915c0-.507.424-.917.95-.917h12.349c.251 0 .494.096.67.268L18.72 4.85a.9.9 0 0 1 .278.648V21.08c0 .506-.425.916-.95.916zm.95-20.165v1.833h3.8c.524 0 .95.41.95.916 0 .507-.426.917-.95.917h-3.8v14.667h15.198V5.878l-4.193-4.046zm4.078 12.184a.976.976 0 0 1 1.344 0l1.228 1.186V8.248c0-.505.425-.917.95-.917.523 0 .95.412.95.917v6.954l1.227-1.187a.974.974 0 0 1 1.343 0 .893.893 0 0 1 0 1.297l-2.849 2.75c-.015.013-.03.023-.044.036l-.051.04a.955.955 0 0 1-.206.119l-.008.004h-.002a.898.898 0 0 1-.178.052.976.976 0 0 1-.365 0c-.015-.001-.028-.008-.043-.012a.921.921 0 0 1-.134-.037c-.017-.007-.03-.017-.046-.025a1.022 1.022 0 0 1-.12-.06.995.995 0 0 1-.146-.116l-2.85-2.75a.894.894 0 0 1 0-1.297z"/></g></g></svg>