<svg 
 xmlns="http://www.w3.org/2000/svg"
 xmlns:xlink="http://www.w3.org/1999/xlink"
 width="29px" height="29px">
<path fill-rule="evenodd"  fill="rgb(87, 117, 184)"
 d="M14.500,29.000 C6.505,29.000 -0.000,22.495 -0.000,14.500 C-0.000,6.505 6.505,-0.000 14.500,-0.000 C22.495,-0.000 29.000,6.505 29.000,14.500 C29.000,22.495 22.495,29.000 14.500,29.000 ZM14.500,2.071 C7.647,2.071 2.071,7.647 2.071,14.500 C2.071,21.353 7.647,26.928 14.500,26.928 C21.353,26.928 26.929,21.353 26.929,14.500 C26.929,7.647 21.353,2.071 14.500,2.071 ZM20.411,20.411 C20.208,20.613 19.944,20.714 19.679,20.714 C19.414,20.714 19.148,20.613 18.946,20.411 L14.500,15.964 L10.054,20.411 C9.851,20.613 9.586,20.714 9.321,20.714 C9.056,20.714 8.791,20.613 8.589,20.411 C8.184,20.006 8.184,19.351 8.589,18.946 L13.035,14.500 L8.589,10.054 C8.184,9.649 8.184,8.994 8.589,8.589 C8.994,8.185 9.649,8.184 10.054,8.589 L14.500,13.035 L18.946,8.589 C19.351,8.184 20.006,8.184 20.411,8.589 C20.815,8.994 20.815,9.649 20.411,10.054 L15.964,14.500 L20.411,18.946 C20.815,19.351 20.815,20.006 20.411,20.411 Z"/>
</svg>