<svg xmlns="http://www.w3.org/2000/svg" width="34" height="25" viewBox="0 0 34 25"><g><g><path fill="#1d3a78" d="M32.408 3.885c.481 2.688.733 5.46.733 8.292 0 .114 0 .23-.002.325.002.107.002.21.002.315 0 2.83-.252 5.6-.691 8.011l-.006.028a4.265 4.265 0 0 1-2.883 2.973c-2.615.723-12.996.723-12.996.723s-10.412 0-12.997-.723l-.03-.006c-1.375-.41-2.457-1.537-2.859-2.995l.045.28C-.294 15.562-.286 9.34.679 4.162l.009-.029a4.264 4.264 0 0 1 2.879-2.973C6.18.426 16.564.441 16.564.441s10.41 0 12.995.72l.03.006c1.376.412 2.457 1.536 2.859 2.996zM21.906 12.51l-8.663-5.18v10.344z"/></g></g></svg>