<svg xmlns="http://www.w3.org/2000/svg" width="33" height="31" viewBox="0 0 33 31"><g><g><path fill="#1d3a78" d="M31.426 4.345c.261.668.573 1.668.658 3.512.093 1.993.112 2.59.112 7.64 0 5.047-.019 5.645-.112 7.64-.085 1.842-.397 2.843-.658 3.51a6.295 6.295 0 0 1-3.635 3.586c-.675.261-1.69.569-3.557.653-2.017.091-2.623.11-7.738.11s-5.719-.019-7.739-.11c-1.866-.084-2.88-.392-3.556-.653a5.931 5.931 0 0 1-2.2-1.414 5.823 5.823 0 0 1-1.434-2.172c-.262-.667-.574-1.668-.66-3.51-.092-1.995-.11-2.593-.11-7.64 0-5.05.018-5.647.11-7.64.086-1.844.398-2.844.66-3.512A5.822 5.822 0 0 1 3 2.171 5.942 5.942 0 0 1 5.204.757C5.878.5 6.89.191 8.757.106c2.02-.092 2.624-.111 7.74-.111 5.111 0 5.72.02 7.737.111 1.867.085 2.882.393 3.557.651a5.94 5.94 0 0 1 2.202 1.414 5.84 5.84 0 0 1 1.433 2.174zm-14.93 20.859c5.43 0 9.834-4.346 9.834-9.709 0-5.361-4.403-9.708-9.834-9.708-5.43 0-9.834 4.347-9.834 9.708 0 5.363 4.404 9.709 9.834 9.709zM26.718 7.67c1.27 0 2.3-1.015 2.3-2.269 0-1.252-1.03-2.267-2.3-2.267-1.269 0-2.297 1.015-2.297 2.267 0 1.254 1.028 2.27 2.297 2.27zM16.496 21.797c-3.524 0-6.383-2.821-6.383-6.302 0-3.48 2.859-6.3 6.383-6.3s6.384 2.82 6.384 6.3-2.86 6.302-6.384 6.302z"/></g></g></svg>