<svg xmlns="http://www.w3.org/2000/svg" width="37" height="21" viewBox="0 0 37 21"><g><g><path fill="#1d3a78" d="M18.286 20.742h2.191s.662-.072.997-.433c.312-.33.3-.95.3-.95s-.043-2.905 1.321-3.332c1.345-.42 3.072 2.808 4.9 4.051 1.384.94 2.435.733 2.435.733l4.892-.069s2.561-.155 1.348-2.147c-.1-.162-.71-1.47-3.64-4.16-3.068-2.816-2.655-2.36 1.041-7.228 2.25-2.968 3.15-4.778 2.869-5.553-.269-.737-1.924-.544-1.924-.544l-5.504.033s-.408-.054-.713.125c-.295.176-.484.584-.484.584s-.874 2.295-2.037 4.247c-2.45 4.119-3.434 4.336-3.835 4.08-.93-.595-.698-2.396-.698-3.673 0-3.991.612-5.655-1.193-6.084-.602-.144-1.04-.24-2.57-.254-1.965-.02-3.63.007-4.573.461-.627.303-1.11.98-.813 1.019.364.046 1.187.219 1.625.81.565.757.546 2.464.546 2.464s.324 4.698-.76 5.281c-.744.402-1.762-.415-3.947-4.154-1.122-1.913-1.968-4.03-1.968-4.03s-.163-.393-.454-.604c-.352-.256-.846-.337-.846-.337l-5.236.031s-.785.023-1.073.36c-.257.301-.021.921-.021.921S4.56 11.87 9.2 16.65c4.256 4.381 9.086 4.093 9.086 4.093z"/></g></g></svg>