<svg 
 xmlns="http://www.w3.org/2000/svg"
 xmlns:xlink="http://www.w3.org/1999/xlink"
 width="20px" height="20px">
<path fill-rule="evenodd"  fill="#83b735"
 d="M19.905,15.834 L16.510,19.258 C16.447,19.322 16.365,19.354 16.266,19.354 C16.174,19.354 16.095,19.321 16.027,19.252 C15.960,19.185 15.927,19.105 15.927,19.012 L15.927,16.958 L1.330,16.958 C1.238,16.958 1.158,16.924 1.091,16.856 C1.024,16.788 0.990,16.708 0.990,16.615 L0.990,14.561 C0.990,14.468 1.024,14.388 1.091,14.320 C1.158,14.252 1.238,14.219 1.330,14.219 L15.927,14.219 L15.927,12.164 C15.927,12.065 15.958,11.983 16.022,11.918 C16.085,11.854 16.167,11.822 16.266,11.822 C16.351,11.822 16.436,11.857 16.521,11.929 L19.904,15.341 C19.968,15.406 20.000,15.488 20.000,15.589 C20.000,15.688 19.968,15.770 19.905,15.834 ZM18.660,5.372 L4.064,5.372 L4.064,7.426 C4.064,7.519 4.030,7.599 3.963,7.667 C3.896,7.735 3.816,7.769 3.724,7.769 C3.639,7.769 3.555,7.733 3.470,7.661 L0.086,4.238 C0.022,4.174 -0.010,4.095 -0.010,4.004 C-0.010,3.903 0.022,3.821 0.086,3.757 L3.480,0.333 C3.544,0.269 3.625,0.237 3.724,0.237 C3.816,0.237 3.896,0.271 3.963,0.338 C4.030,0.407 4.064,0.486 4.064,0.579 L4.064,2.634 L18.660,2.634 C18.753,2.634 18.832,2.668 18.899,2.735 C18.966,2.803 19.000,2.883 19.000,2.976 L19.000,5.030 C19.000,5.123 18.966,5.203 18.899,5.271 C18.832,5.339 18.753,5.372 18.660,5.372 Z"/>
</svg>