<svg 
 xmlns="http://www.w3.org/2000/svg"
 xmlns:xlink="http://www.w3.org/1999/xlink"
 width="28px" height="25px">
<path fill-rule="evenodd"  fill="rgb(255, 255, 255)"
 d="M27.308,5.969 L9.453,5.969 L8.753,4.157 L28.009,4.157 L27.308,5.969 ZM24.507,15.033 L24.507,16.846 L9.932,16.846 L3.804,2.344 L-0.000,2.344 L-0.000,0.532 L4.949,0.532 L11.077,15.033 L24.507,15.033 ZM13.129,18.659 C14.578,18.659 15.754,19.876 15.754,21.377 C15.754,22.879 14.578,24.096 13.129,24.096 C11.679,24.096 10.503,22.879 10.503,21.377 C10.503,19.876 11.679,18.659 13.129,18.659 ZM21.882,18.659 C23.331,18.659 24.507,19.876 24.507,21.377 C24.507,22.879 23.331,24.096 21.882,24.096 C20.432,24.096 19.256,22.879 19.256,21.377 C19.256,19.876 20.432,18.659 21.882,18.659 ZM12.253,13.220 L11.553,11.408 L25.208,11.408 L24.507,13.220 L12.253,13.220 ZM10.153,7.782 L26.608,7.782 L25.907,9.595 L10.853,9.595 L10.153,7.782 Z"/>
</svg>