<svg 
 xmlns="http://www.w3.org/2000/svg"
 xmlns:xlink="http://www.w3.org/1999/xlink"
 width="19px" height="20px">
<path fill-rule="evenodd"  fill="rgb(255, 255, 255)"
 d="M18.000,18.791 L18.000,20.000 L-0.000,20.000 L-0.000,18.179 L-0.000,18.000 L-0.000,13.332 L2.425,13.332 L2.425,17.968 L15.764,17.968 L15.764,13.332 L18.189,13.332 L18.189,18.179 C18.189,18.408 18.109,18.609 18.000,18.791 ZM9.551,14.337 C9.435,14.467 9.269,14.544 9.095,14.544 C8.920,14.544 8.754,14.468 8.639,14.337 L4.395,9.488 C4.238,9.309 4.199,9.056 4.299,8.839 C4.397,8.623 4.613,8.483 4.850,8.483 L7.276,8.483 L7.276,0.605 C7.276,0.271 7.547,-0.001 7.882,-0.001 L10.307,-0.001 C10.642,-0.001 10.914,0.271 10.914,0.605 L10.914,8.483 L13.339,8.483 C13.577,8.483 13.792,8.622 13.891,8.839 C13.989,9.056 13.952,9.310 13.795,9.488 L9.551,14.337 Z"/>
</svg>