<svg 
 xmlns="http://www.w3.org/2000/svg"
 xmlns:xlink="http://www.w3.org/1999/xlink"
 width="7px" height="16px">
<path fill-rule="evenodd"  fill="rgb(255, 255, 255)"
 d="M1.512,3.354 C1.512,3.736 1.512,5.442 1.512,5.442 L-0.000,5.442 L-0.000,7.996 L1.512,7.996 L1.512,15.585 L4.619,15.585 L4.619,7.996 L6.703,7.996 C6.703,7.996 6.899,6.772 6.993,5.433 C6.722,5.433 4.630,5.433 4.630,5.433 C4.630,5.433 4.630,3.947 4.630,3.687 C4.630,3.426 4.969,3.075 5.304,3.075 C5.638,3.075 6.343,3.075 6.997,3.075 C6.997,2.726 6.997,1.526 6.997,0.415 C6.124,0.415 5.133,0.415 4.695,0.415 C1.435,0.415 1.512,2.972 1.512,3.354 Z"/>
</svg>