<svg xmlns="http://www.w3.org/2000/svg" width="44" height="39" viewBox="0 0 44 39"><g><g><path fill="#82be38" d="M43.188 4.513v6.099c0 .38-.29.723-.669.723h-6.973v21.127a5.807 5.807 0 0 1-5.772 5.838h-.016c-.118 0-.222-.038-.394-.045v.045H6.266v-.04C3.26 38.12.77 35.575.77 32.463v-3.324c0-.38.29-.715.67-.715h5.352L6.97 4.27c0-2.351 1.937-4.27 4.317-4.27h27.43a4.505 4.505 0 0 1 4.472 4.514zM26.013 36.925c-.124-.17-.245-.23-.361-.348a5.816 5.816 0 0 1-1.698-4.126v-2.653H2.144v2.664c0 2.444 1.974 4.463 4.418 4.463zm8.16-32.394c0-1.213.516-2.3 1.3-3.158H11.285c-1.623 0-2.943 1.303-2.943 2.9l-.177 24.151h16.475c.385.013.69.33.687.715v3.313a4.463 4.463 0 0 0 4.431 4.473h.014c2.445 0 4.4-2.02 4.4-4.463zm7.642-.012a3.132 3.132 0 0 0-3.1-3.146h-.02c-1.718 0-3.149 1.437-3.149 3.157V9.96h6.269zm-27.048 8.32V7.934a.67.67 0 0 1 .365-.617l5.383-2.646a.675.675 0 0 1 .6 0l5.393 2.653c.23.118.373.358.366.617v4.9c0 1.483-.906 3.233-2.133 4.07l-3.53 2.42a.677.677 0 0 1-.769 0l-3.541-2.421c-1.226-.836-2.134-2.586-2.134-4.07zm1.373 0c0 1.035.675 2.351 1.53 2.936l3.142 2.156 3.154-2.157c.856-.583 1.534-1.9 1.534-2.934V8.367l-4.68-2.315-4.68 2.31zm2.135-.36a.688.688 0 0 1 .976-.968l.898.907 2.244-2.245a.688.688 0 0 1 .972.973l-2.733 2.733a.687.687 0 0 1-.486.204h-.001a.686.686 0 0 1-.487-.206zm11.776 9.505c0 .379-.308.687-.687.687H12.877a.687.687 0 1 1 0-1.375h16.487c.38 0 .687.308.687.688zm0 3.177c0 .38-.308.687-.687.687H12.877a.687.687 0 0 1 0-1.374h16.487c.38 0 .687.307.687.687z"/></g></g></svg>