<svg xmlns="http://www.w3.org/2000/svg" width="46" height="29" viewBox="0 0 46 29"><g><g><path fill="#82be38" d="M45.716 15.992v7.638c0 .396-.32.716-.716.716h-2.34l.002.048a4.54 4.54 0 0 1-4.534 4.535 4.54 4.54 0 0 1-4.533-4.535l.001-.048H17.464l.002.048a4.54 4.54 0 0 1-4.534 4.535A4.54 4.54 0 0 1 8.4 24.394l.001-.048H4.533c-.815 0-1.479-.664-1.479-1.48V21.29H.716a.716.716 0 1 1 0-1.432h6.871a.716.716 0 1 1 0 1.432H4.486v1.576c0 .026.021.047.047.047h4.115a4.54 4.54 0 0 1 4.284-3.055 4.54 4.54 0 0 1 4.285 3.055h14.85V17.52a.716.716 0 1 1 1.433 0v5.394h.344a4.54 4.54 0 0 1 4.284-3.056 4.54 4.54 0 0 1 4.285 3.056h1.871v-3.15h-.81a2.246 2.246 0 0 1-2.244-2.244v-1.528c0-.396.32-.716.716-.716h2.226a2.343 2.343 0 0 0-2.224-1.624H33.5v.812a.716.716 0 1 1-1.432 0V1.48a.048.048 0 0 0-.048-.048H4.533a.048.048 0 0 0-.047.048v12.985a.716.716 0 0 1-1.432 0V1.48c0-.816.664-1.48 1.48-1.48H32.02c.816 0 1.48.664 1.48 1.48v1.576h5.392A3.01 3.01 0 0 1 41.9 6.062v.764a.716.716 0 0 1-.567.7l1.184 4.737a3.777 3.777 0 0 1 3.2 3.73zM33.5 6.11h6.967v-.048c0-.869-.707-1.575-1.575-1.575H33.5zm0 6.11h7.53l-1.17-4.678H33.5zM16.034 24.394a3.106 3.106 0 0 0-3.102-3.104 3.106 3.106 0 0 0-3.102 3.104 3.106 3.106 0 0 0 3.102 3.103 3.106 3.106 0 0 0 3.102-3.103zm25.196 0a3.106 3.106 0 0 0-3.101-3.104 3.106 3.106 0 0 0-3.102 3.104 3.106 3.106 0 0 0 3.102 3.103 3.106 3.106 0 0 0 3.101-3.103zm3.055-6.063v-1.623h-1.623v.812c0 .447.364.81.811.81zm-29.873 6.063c0 .816-.664 1.48-1.48 1.48a1.481 1.481 0 0 1 0-2.96c.816 0 1.48.664 1.48 1.48zm25.196 0c0 .816-.664 1.48-1.48 1.48a1.481 1.481 0 0 1 0-2.96c.816 0 1.48.664 1.48 1.48zm-9.162-3.82c0 .396-.32.716-.716.716H19.04a.715.715 0 1 1 0-1.431h10.69c.395 0 .716.32.716.716zM12.12 17.52c0 .395-.32.716-.716.716H2.243a.716.716 0 0 1 0-1.433h9.162c.396 0 .716.32.716.717zm12.77-9.424L18.02 14.97a.713.713 0 0 1-1.012 0l-3.817-3.819a.716.716 0 0 1 1.012-1.013l3.311 3.314 6.366-6.368a.715.715 0 1 1 1.012 1.012z"/></g></g></svg>