<svg xmlns="http://www.w3.org/2000/svg" width="36" height="36" viewBox="0 0 36 36"><g><g><path fill="#82be38" d="M.036 22.045v-8.342c0-.658.534-1.19 1.192-1.192h11.916c.658.001 1.191.534 1.192 1.192v8.342c0 .658-.534 1.19-1.192 1.191H1.228c-.658 0-1.191-.533-1.192-1.19zm1.192 0h11.917v-8.342H1.227zM.036 34.557v-8.341c0-.658.534-1.191 1.192-1.192h4.766a1.193 1.193 0 0 1 1.192 1.192v8.341c0 .658-.534 1.191-1.192 1.192H1.228a1.193 1.193 0 0 1-1.192-1.192zm1.192 0h4.767v-8.341H1.227zM35.786 1.19v33.367c0 .658-.534 1.191-1.192 1.192H10.165a1.193 1.193 0 0 1-1.192-1.192v-8.341c.001-.658.534-1.191 1.192-1.192h8.316c-.02-.336-.036-.667-.04-.981-.003-.266.013-.537.021-.807h-1.147c-.658 0-1.19-.533-1.192-1.19v-8.343c.001-.658.534-1.19 1.192-1.192h1.181a12.126 12.126 0 0 0-.862-1.787H1.228c-.658 0-1.191-.534-1.192-1.192V1.19C.036.533.57 0 1.228 0h33.366c.658 0 1.191.534 1.192 1.191zM1.228 9.532h15.615a10.119 10.119 0 0 0-2.523-2.379l-.192-.123c-1.178-.762-2.513-1.627-2.843-3.337-.093-.83-.12-1.667-.081-2.503H1.228zm16.087 12.513h1.207c.039-.455.09-.907.167-1.343.073-.417.162-.822.25-1.224.234-.89.361-1.806.378-2.726a12.419 12.419 0 0 0-.439-3.049h-1.563zm-7.15 12.512h11.778a16.424 16.424 0 0 1-3.344-8.341h-8.434zM34.595 1.19H12.388c-.025.765-.002 1.531.068 2.293.231 1.196 1.199 1.821 2.318 2.546l.195.126a11.563 11.563 0 0 1 3.514 3.66 13.507 13.507 0 0 1 2.025 6.919 12.69 12.69 0 0 1-.405 3c-.085.386-.17.775-.242 1.175-.1.582-.166 1.17-.193 1.76-.03.46-.042.914-.036 1.358a19.8 19.8 0 0 0 .081 1.54 14.975 14.975 0 0 0 3.81 8.99h11.07zM13.63 3.246a12.04 12.04 0 0 1-.018-.228.596.596 0 0 1 1.19-.08l.009.121c.37.382.793.709 1.258.969l.204.131a13.897 13.897 0 0 1 4.23 4.392 15.967 15.967 0 0 1 1.678 3.679.595.595 0 0 1-1.137.358 14.757 14.757 0 0 0-1.553-3.408 12.704 12.704 0 0 0-3.868-4.021l-.202-.132c-.981-.634-1.592-1.055-1.77-1.674a.635.635 0 0 1-.021-.107zm8.237 13.042a.595.595 0 0 1 .418-.182h.01c.325 0 .59.261.596.586a14.796 14.796 0 0 1-.46 3.554c-.084.38-.16.724-.223 1.077-.085.496-.14.996-.162 1.499-.026.398-.036.79-.03 1.176.005.426.028.878.07 1.344a13.067 13.067 0 0 0 2.697 7.049.595.595 0 1 1-.918.759A14.068 14.068 0 0 1 20.9 25.45c-.046-.5-.071-.982-.077-1.438-.005-.416.006-.84.033-1.258a13 13 0 0 1 .18-1.64c.064-.37.143-.73.223-1.088.279-1.084.426-2.196.44-3.314a.597.597 0 0 1 .168-.425z"/></g></g></svg>