<svg xmlns="http://www.w3.org/2000/svg" width="39" height="37" viewBox="0 0 39 37"><g><g><path fill="#82be38" d="M0 15.31v-3.828c0-.352.281-.638.629-.638h3.489c.206-.755.503-1.48.885-2.161l-2.47-2.504a.644.644 0 0 1 0-.903l2.669-2.707c.25-.24.64-.24.89 0L8.56 5.075a9.29 9.29 0 0 1 2.13-.899V.636c0-.351.281-.637.629-.637h3.773c.347 0 .629.286.629.638v3.539a9.29 9.29 0 0 1 2.13.899l2.47-2.506a.623.623 0 0 1 .889 0l2.667 2.707a.644.644 0 0 1 0 .903L21.41 8.683c.382.68.68 1.406.886 2.16h3.489c.347 0 .628.287.628.64v3.826a.634.634 0 0 1-.628.639h-3.49a9.565 9.565 0 0 1-.885 2.161l2.47 2.504a.643.643 0 0 1 0 .902l-2.668 2.707a.64.64 0 0 1-.89 0l-2.47-2.505a9.299 9.299 0 0 1-2.13.898v3.54a.633.633 0 0 1-.628.638H11.32a.633.633 0 0 1-.63-.638v-3.54a9.299 9.299 0 0 1-2.13-.898l-2.469 2.505a.622.622 0 0 1-.89 0l-2.667-2.707a.643.643 0 0 1 0-.902l2.47-2.504a9.565 9.565 0 0 1-.886-2.161H.628A.634.634 0 0 1 0 15.309zm1.258-.639H4.61a.63.63 0 0 1 .614.501c.206.956.58 1.866 1.102 2.69a.645.645 0 0 1-.085.796l-2.373 2.406 1.779 1.805 2.372-2.407a.622.622 0 0 1 .785-.087c.81.53 1.708.909 2.65 1.117a.637.637 0 0 1 .494.624v3.4h2.516v-3.4c0-.3.206-.559.495-.624a8.003 8.003 0 0 0 2.65-1.117.622.622 0 0 1 .784.087l2.373 2.407 1.779-1.805-2.373-2.407a.646.646 0 0 1-.085-.796 8.262 8.262 0 0 0 1.1-2.687.632.632 0 0 1 .615-.502h3.353V12.12h-3.353a.63.63 0 0 1-.614-.501 8.273 8.273 0 0 0-1.101-2.689.645.645 0 0 1 .085-.796l2.372-2.407-1.778-1.805-2.373 2.408a.623.623 0 0 1-.785.086 8.035 8.035 0 0 0-2.65-1.118.636.636 0 0 1-.494-.623v-3.4h-2.516v3.4c0 .3-.205.56-.494.623-.942.21-1.839.589-2.65 1.118a.623.623 0 0 1-.785-.086L5.647 3.922l-1.78 1.805 2.374 2.408c.209.212.244.543.085.795a8.27 8.27 0 0 0-1.102 2.689.63.63 0 0 1-.614.5H1.258zm5.03-1.275c0-3.876 3.098-7.018 6.918-7.018 3.82 0 6.918 3.142 6.918 7.018 0 3.875-3.097 7.017-6.918 7.017-3.818-.005-6.913-3.144-6.917-7.017zm1.258 0c0 3.171 2.534 5.74 5.66 5.74 3.126 0 5.66-2.569 5.66-5.74 0-3.171-2.534-5.742-5.66-5.742-3.124.004-5.656 2.573-5.66 5.742zM38.99 32.534v1.275c-.002 1.762-1.409 3.188-3.145 3.19h-32.7C1.408 36.998.001 35.572 0 33.81v-1.275c.002-1.761 1.409-3.188 3.144-3.19h20.124v-5.103c0-.353.282-.639.629-.639h3.144V18.5c0-.353.282-.639.63-.639h5.659c.347 0 .629.286.629.639v5.102h1.258c.347 0 .628.286.628.639v5.103c1.736.002 3.143 1.429 3.145 3.19zm-4.402-7.656h-4.402v4.466h4.402zm-6.289-1.276h4.402v-4.465H28.3zm-3.773 5.742h4.402v-4.466h-4.402zm13.206 3.19c0-1.057-.845-1.914-1.887-1.914h-32.7c-1.042 0-1.887.857-1.887 1.914v1.275c0 1.058.845 1.914 1.886 1.914h32.701c1.042 0 1.887-.856 1.887-1.914zm-16.35.638c0 1.057-.845 1.914-1.887 1.914s-1.887-.857-1.887-1.914.845-1.914 1.887-1.914 1.886.857 1.886 1.914zm-1.258 0a.634.634 0 0 0-.63-.638.634.634 0 0 0-.628.638c0 .352.281.637.629.637a.633.633 0 0 0 .629-.637zm-5.031 0c0 1.057-.845 1.914-1.887 1.914s-1.886-.857-1.886-1.914.844-1.914 1.886-1.914c1.042 0 1.887.857 1.887 1.914zm-1.258 0a.634.634 0 0 0-.629-.638.634.634 0 0 0-.629.638c0 .352.282.637.63.637a.633.633 0 0 0 .628-.637zm13.835 0c0 1.057-.845 1.914-1.886 1.914-1.042 0-1.887-.857-1.887-1.914s.845-1.914 1.887-1.914c1.041 0 1.886.857 1.886 1.914zm-1.258 0a.634.634 0 0 0-.628-.638.634.634 0 0 0-.63.638c0 .352.282.637.63.637a.633.633 0 0 0 .628-.637zm-17.608 0c0 1.057-.845 1.914-1.886 1.914-1.042 0-1.887-.857-1.887-1.914s.845-1.914 1.887-1.914c1.041 0 1.886.857 1.886 1.914zm-1.258 0a.634.634 0 0 0-.628-.638.634.634 0 0 0-.63.638c0 .352.282.637.63.637a.633.633 0 0 0 .628-.637zm26.413 0c0 1.057-.845 1.914-1.887 1.914s-1.886-.857-1.886-1.914.844-1.914 1.886-1.914c1.042 0 1.887.857 1.887 1.914zm-1.258 0a.634.634 0 0 0-.629-.638.634.634 0 0 0-.629.638c0 .352.282.637.63.637a.633.633 0 0 0 .628-.637z"/></g></g></svg>