<svg 
 xmlns="http://www.w3.org/2000/svg"
 xmlns:xlink="http://www.w3.org/1999/xlink"
 width="13px" height="13px">
<path fill-rule="evenodd"  fill="rgb(255, 255, 255)"
 d="M1.668,-0.001 L11.332,-0.001 C12.249,-0.001 13.000,0.678 13.000,1.667 L13.000,11.331 C13.000,12.320 12.249,12.999 11.332,12.999 L1.668,12.999 C0.750,12.999 -0.001,12.320 -0.001,11.331 L-0.001,1.667 C-0.001,0.678 0.750,-0.001 1.668,-0.001 L1.668,-0.001 ZM9.470,1.443 C9.148,1.443 8.885,1.706 8.885,2.028 L8.885,3.429 C8.885,3.751 9.148,4.014 9.470,4.014 L10.939,4.014 C11.261,4.014 11.525,3.751 11.525,3.429 L11.525,2.028 C11.525,1.706 11.261,1.443 10.939,1.443 L9.470,1.443 L9.470,1.443 ZM11.531,5.496 L10.387,5.496 C10.495,5.850 10.553,6.224 10.553,6.611 C10.553,8.774 8.744,10.527 6.512,10.527 C4.281,10.527 2.471,8.774 2.471,6.611 C2.471,6.224 2.530,5.850 2.638,5.496 L1.444,5.496 L1.444,10.988 C1.444,11.272 1.677,11.505 1.961,11.505 L11.014,11.505 C11.299,11.505 11.531,11.272 11.531,10.988 L11.531,5.496 L11.531,5.496 ZM6.512,3.941 C5.070,3.941 3.901,5.073 3.901,6.470 C3.901,7.868 5.070,9.001 6.512,9.001 C7.954,9.001 9.123,7.868 9.123,6.470 C9.123,5.073 7.954,3.941 6.512,3.941 Z"/>
</svg>