<svg 
 xmlns="http://www.w3.org/2000/svg"
 xmlns:xlink="http://www.w3.org/1999/xlink"
 width="13px" height="17px">
<path fill-rule="evenodd"  fill="rgb(255, 255, 255)"
 d="M11.306,1.741 C10.170,0.618 8.597,-0.001 6.877,-0.001 C4.250,-0.001 2.634,1.107 1.741,2.037 C0.641,3.184 0.010,4.706 0.010,6.214 C0.010,8.107 0.779,9.560 2.067,10.100 C2.153,10.137 2.240,10.155 2.325,10.155 C2.597,10.155 2.812,9.972 2.887,9.679 C2.930,9.510 3.031,9.094 3.075,8.914 C3.168,8.558 3.093,8.386 2.888,8.138 C2.516,7.685 2.342,7.148 2.342,6.450 C2.342,4.376 3.842,2.171 6.622,2.171 C8.828,2.171 10.198,3.462 10.198,5.540 C10.198,6.851 9.924,8.066 9.426,8.960 C9.080,9.580 8.471,10.322 7.536,10.322 C7.132,10.322 6.769,10.150 6.540,9.852 C6.323,9.570 6.252,9.206 6.339,8.827 C6.437,8.399 6.572,7.952 6.701,7.520 C6.938,6.730 7.162,5.984 7.162,5.390 C7.162,4.372 6.554,3.689 5.650,3.689 C4.501,3.689 3.601,4.890 3.601,6.424 C3.601,7.176 3.796,7.739 3.883,7.955 C3.739,8.586 2.879,12.340 2.715,13.048 C2.621,13.462 2.053,16.725 2.993,16.985 C4.050,17.277 4.995,14.099 5.091,13.740 C5.169,13.447 5.442,12.343 5.609,11.663 C6.119,12.170 6.940,12.512 7.740,12.512 C9.246,12.512 10.601,11.814 11.555,10.546 C12.480,9.317 12.990,7.603 12.990,5.721 C12.990,4.250 12.376,2.799 11.306,1.741 Z"/>
</svg>