<svg xmlns="http://www.w3.org/2000/svg" width="731" height="95" viewBox="0 0 731 95"><g><g clip-path="url(#clip-1563)"><path fill="#82be38" d="M26.988 94.457c-8.688 0-15.156-2.304-19.408-6.912C3.33 82.937 1.038 75.583.706 65.485l17.337-2.644c.074 5.728.764 9.887 2.07 12.476 1.307 2.589 3.267 3.883 5.881 3.883 3.423 0 5.135-2.203 5.135-6.61 0-2.46-.442-4.728-1.325-6.802-.884-2.075-1.97-3.847-3.258-5.316-1.289-1.468-3.092-3.195-5.41-5.178L13.018 48.3c-1.952-1.688-3.57-3.231-4.859-4.627-1.289-1.395-2.55-3.057-3.782-4.985-1.234-1.928-2.145-4.066-2.733-6.417-.59-2.35-.883-4.938-.883-7.766 0-7.601 2.281-13.476 6.846-17.626C12.172 2.728 18.43.635 26.381.598c2.723 0 5.198.295 7.426.882 2.226.588 4.104 1.359 5.631 2.313a16.003 16.003 0 0 1 4.031 3.608c1.16 1.45 2.08 2.901 2.76 4.351.681 1.451 1.252 3.085 1.712 4.903.46 1.817.773 3.48.939 4.984a73.29 73.29 0 0 1 .359 4.848l-17.503 2.258a129.802 129.802 0 0 0-.138-3.828 44.221 44.221 0 0 0-.303-3.222c-.148-1.138-.35-2.057-.608-2.755a8.658 8.658 0 0 0-1.021-1.955c-.424-.606-.958-1.037-1.601-1.294-.645-.257-1.408-.367-2.292-.33-1.767.036-3.12.78-4.058 2.23-.939 1.451-1.408 3.076-1.408 4.875 0 1.726.211 3.296.635 4.71.423 1.413 1.16 2.78 2.209 4.103 1.049 1.322 1.904 2.313 2.567 2.974.662.661 1.767 1.69 3.313 3.085l7.785 6.83c2.134 1.91 3.975 3.737 5.521 5.48 1.546 1.745 3.018 3.728 4.417 5.95s2.457 4.663 3.175 7.325c.718 2.663 1.077 5.518 1.077 8.565 0 6.61-2.209 12.09-6.626 16.442s-10.214 6.527-17.392 6.527zM105.31 61.74h9.773l-4.914-35.362zM81.293 93.19L98.63 1.865h22.859l17.226 91.325h-18.662l-3.147-19.388h-13.362l-3.092 19.388zm91.465 0V1.865h14.245L205.83 45.71V1.865h16.785V93.19h-13.693L190.04 45.93v47.26zm88.15 0V1.865h23.025c5.999 0 10.978.533 14.935 1.598 3.956 1.065 7.113 2.809 9.469 5.232 2.355 2.424 4.012 5.39 4.97 8.896.956 3.507 1.435 7.904 1.435 13.192v32.939c0 5.325-.489 9.777-1.463 13.357-.976 3.58-2.633 6.61-4.97 9.089-2.338 2.478-5.466 4.269-9.386 5.37-3.92 1.102-8.825 1.652-14.714 1.652zm20.209-13.99h3.092c1.546 0 2.861-.1 3.948-.303 1.085-.202 1.987-.56 2.705-1.074s1.288-1.055 1.712-1.625c.422-.569.735-1.395.938-2.479a24.42 24.42 0 0 0 .387-3.084c.055-.973.083-2.286.083-3.939V27.423c0-2.313-.093-4.094-.277-5.343a8.536 8.536 0 0 0-1.27-3.415c-.662-1.028-1.647-1.735-2.953-2.12-1.307-.386-3.084-.579-5.328-.579h-3.037zm94.998 15.257c-8.688 0-15.156-2.304-19.408-6.912-4.251-4.608-6.543-11.962-6.874-22.06l17.337-2.644c.073 5.728.764 9.887 2.07 12.476 1.307 2.589 3.267 3.883 5.88 3.883 3.424 0 5.136-2.203 5.136-6.61 0-2.46-.442-4.728-1.325-6.802-.884-2.075-1.97-3.847-3.258-5.316-1.289-1.468-3.092-3.195-5.411-5.178l-8.116-6.995c-1.952-1.688-3.571-3.231-4.86-4.627-1.288-1.395-2.548-3.057-3.781-4.985-1.234-1.928-2.145-4.066-2.733-6.417-.59-2.35-.884-4.938-.884-7.766 0-7.601 2.282-13.476 6.847-17.626 4.563-4.15 10.822-6.243 18.772-6.28 2.724 0 5.199.295 7.426.882 2.227.588 4.104 1.359 5.632 2.313a16.003 16.003 0 0 1 4.03 3.608c1.16 1.45 2.08 2.901 2.761 4.351.681 1.451 1.251 3.085 1.712 4.903.46 1.817.773 3.48.939 4.984a73.29 73.29 0 0 1 .359 4.848l-17.503 2.258a129.802 129.802 0 0 0-.138-3.828 44.221 44.221 0 0 0-.304-3.222c-.147-1.138-.35-2.057-.607-2.755a8.656 8.656 0 0 0-1.022-1.955c-.423-.606-.957-1.037-1.6-1.294-.645-.257-1.409-.367-2.292-.33-1.767.036-3.12.78-4.058 2.23-.939 1.451-1.408 3.076-1.408 4.875 0 1.726.211 3.296.635 4.71.422 1.413 1.16 2.78 2.208 4.103 1.05 1.322 1.905 2.313 2.568 2.974.662.661 1.767 1.69 3.312 3.085l7.786 6.83c2.134 1.91 3.975 3.737 5.52 5.48 1.547 1.745 3.019 3.728 4.418 5.95 1.398 2.222 2.457 4.663 3.175 7.325.718 2.663 1.076 5.518 1.076 8.565 0 6.61-2.208 12.09-6.625 16.442s-10.215 6.527-17.392 6.527zm67.115-1.267V16.792h-14.08V1.865h48.257v14.927h-13.914V93.19zm93.175 1.267c-5.08 0-9.414-.67-13.002-2.01-3.59-1.34-6.442-3.341-8.558-6.004-2.118-2.662-3.645-5.792-4.583-9.391-.939-3.599-1.408-7.84-1.408-12.724v-33.71c0-4.92.47-9.171 1.408-12.752.938-3.58 2.465-6.692 4.583-9.336 2.116-2.644 4.969-4.627 8.558-5.949C526.99 1.26 531.326.598 536.405.598c9.902 0 16.997 2.525 21.285 7.574 4.288 5.05 6.432 12.531 6.432 22.446v33.71c0 9.914-2.144 17.415-6.432 22.5-4.288 5.087-11.383 7.63-21.285 7.63zm-3.12-14.927c.865.441 1.906.661 3.12.661 1.215 0 2.264-.21 3.148-.633.883-.422 1.564-.955 2.042-1.597.478-.643.856-1.478 1.132-2.507.276-1.027.45-1.991.525-2.892.073-.899.11-1.973.11-3.222V25.55c0-1.211-.037-2.267-.11-3.167-.074-.9-.249-1.854-.525-2.864-.276-1.01-.654-1.826-1.132-2.451-.478-.624-1.16-1.148-2.042-1.57-.884-.422-1.933-.633-3.148-.633-1.214 0-2.255.211-3.12.633-.865.422-1.537.936-2.014 1.542-.48.606-.848 1.432-1.105 2.479-.258 1.046-.414 1.992-.47 2.837-.054.845-.082 1.91-.082 3.194v43.79c0 1.286.028 2.36.083 3.222.055.864.211 1.818.47 2.865.256 1.046.625 1.882 1.104 2.506.477.625 1.15 1.157 2.015 1.597zm67.861 13.66V1.865h14.245L634.22 45.71V1.865h16.785V93.19H637.31l-18.883-47.26v47.26zm88.152 0V1.865h41.133v13.77h-20.925V38.22h15.956v14.046h-15.956V79.53h21.146v13.66z"/></g></g></svg>