<svg xmlns="http://www.w3.org/2000/svg" width="15" height="15" viewBox="0 0 15 15"><g><g><path fill="#1b1a1f" d="M14.782 13.7c0 .292-.107.546-.322.76a1.039 1.039 0 0 1-.76.32c-.305 0-.558-.106-.76-.32l-2.9-2.89a5.788 5.788 0 0 1-3.372 1.048 5.85 5.85 0 0 1-2.311-.469 5.953 5.953 0 0 1-1.902-1.268 5.947 5.947 0 0 1-1.268-1.902 5.846 5.846 0 0 1-.469-2.311c0-.806.156-1.576.47-2.312a5.95 5.95 0 0 1 1.267-1.901 5.95 5.95 0 0 1 1.902-1.268A5.849 5.849 0 0 1 6.668.718c.806 0 1.576.156 2.312.469a5.951 5.951 0 0 1 1.901 1.268 5.945 5.945 0 0 1 1.268 1.901c.313.736.47 1.506.47 2.312 0 1.24-.35 2.363-1.049 3.372l2.899 2.9c.209.208.313.46.313.76zm-4.327-7.032c0-1.043-.37-1.934-1.112-2.675-.74-.74-1.633-1.111-2.675-1.111-1.042 0-1.934.37-2.675 1.11-.74.742-1.111 1.633-1.111 2.676 0 1.042.37 1.934 1.111 2.675.741.74 1.633 1.111 2.675 1.111 1.043 0 1.934-.37 2.675-1.111.741-.741 1.112-1.633 1.112-2.675z"/></g></g></svg>