<svg 
 xmlns="http://www.w3.org/2000/svg"
 xmlns:xlink="http://www.w3.org/1999/xlink"
 width="62px" height="62px">
<path fill-rule="evenodd"  fill="rgb(254, 160, 47)"
 d="M60.975,26.679 L25.223,26.679 C24.659,26.679 24.200,26.216 24.200,25.637 C24.200,25.056 24.659,24.586 25.223,24.586 L60.975,24.586 C61.539,24.586 61.998,25.056 61.998,25.637 C61.998,26.216 61.539,26.679 60.975,26.679 ZM25.223,10.183 L48.325,10.183 C48.890,10.183 49.341,10.653 49.341,11.234 C49.341,11.813 48.890,12.277 48.325,12.277 L25.223,12.277 C24.659,12.277 24.200,11.813 24.200,11.234 C24.200,10.653 24.659,10.183 25.223,10.183 ZM60.975,3.814 L25.223,3.814 C24.659,3.814 24.200,3.349 24.200,2.763 C24.200,2.184 24.659,1.719 25.223,1.719 L60.975,1.719 C61.539,1.719 61.998,2.184 61.998,2.763 C61.998,3.349 61.539,3.814 60.975,3.814 ZM14.741,9.303 C12.973,9.303 11.546,7.838 11.546,6.022 C11.546,4.555 12.429,3.368 13.721,2.949 L13.721,2.111 L2.026,2.111 L2.026,14.123 L13.721,14.123 L13.721,11.608 C13.721,11.050 14.197,10.561 14.809,10.561 C15.353,10.561 15.829,11.050 15.829,11.608 L15.829,15.170 C15.829,15.798 15.353,16.217 14.809,16.217 L1.006,16.217 C0.462,16.217 -0.014,15.798 -0.014,15.170 L-0.014,1.063 C-0.014,0.505 0.462,0.016 1.006,0.016 L14.809,0.016 C15.353,0.016 15.829,0.505 15.829,1.063 L15.829,3.018 C17.053,3.438 17.937,4.625 17.937,6.022 C17.937,7.838 16.509,9.303 14.741,9.303 ZM1.026,22.901 L14.778,22.901 C15.343,22.901 15.800,23.365 15.800,23.951 L15.800,38.068 C15.800,38.648 15.343,39.118 14.778,39.118 L1.026,39.118 C0.461,39.118 0.010,38.648 0.010,38.068 L0.010,23.951 C0.010,23.365 0.461,22.901 1.026,22.901 ZM2.048,37.024 L13.755,37.024 L13.755,24.995 L2.048,24.995 L2.048,37.024 ZM1.026,45.774 L14.778,45.774 C15.343,45.774 15.800,46.238 15.800,46.818 L15.800,60.948 C15.800,61.521 15.343,61.991 14.778,61.991 L1.026,61.991 C0.461,61.991 0.010,61.521 0.010,60.948 L0.010,46.818 C0.010,46.238 0.461,45.774 1.026,45.774 ZM2.048,59.898 L13.755,59.898 L13.755,47.868 L2.048,47.868 L2.048,59.898 ZM25.223,33.062 L48.325,33.062 C48.890,33.062 49.341,33.526 49.341,34.106 C49.341,34.685 48.890,35.156 48.325,35.156 L25.223,35.156 C24.659,35.156 24.200,34.685 24.200,34.106 C24.200,33.526 24.659,33.062 25.223,33.062 ZM25.223,47.472 L60.975,47.472 C61.539,47.472 61.998,47.936 61.998,48.516 C61.998,49.095 61.539,49.566 60.975,49.566 L25.223,49.566 C24.659,49.566 24.200,49.095 24.200,48.516 C24.200,47.936 24.659,47.472 25.223,47.472 ZM25.223,55.943 L48.325,55.943 C48.890,55.943 49.341,56.413 49.341,56.993 C49.341,57.565 48.890,58.036 48.325,58.036 L25.223,58.036 C24.659,58.036 24.200,57.565 24.200,56.993 C24.200,56.413 24.659,55.943 25.223,55.943 Z"/>
</svg>