<svg 
 xmlns="http://www.w3.org/2000/svg"
 xmlns:xlink="http://www.w3.org/1999/xlink"
 width="63px" height="63px">
<path fill-rule="evenodd"  fill="rgb(254, 160, 47)"
 d="M31.611,55.927 C31.465,55.996 31.314,56.029 31.162,56.029 C31.004,56.029 30.852,55.996 30.713,55.927 C13.317,47.454 8.404,29.789 7.031,20.012 C6.992,19.734 7.071,19.455 7.256,19.239 C7.427,19.025 7.691,18.891 7.975,18.874 C18.579,18.275 26.065,13.402 30.475,9.417 C30.865,9.070 31.459,9.070 31.849,9.417 C36.266,13.405 43.752,18.281 54.368,18.880 C54.645,18.897 54.910,19.027 55.088,19.242 C55.266,19.457 55.352,19.738 55.313,20.015 C53.998,29.763 49.166,47.395 31.611,55.927 ZM31.162,11.500 C26.600,15.432 19.291,19.944 9.197,20.797 C10.702,30.258 15.568,46.059 31.162,53.907 C46.908,46.007 51.701,30.239 53.147,20.803 C43.039,19.953 35.724,15.436 31.162,11.500 ZM62.998,23.960 C62.998,25.695 61.578,27.097 59.821,27.097 C58.063,27.097 56.643,25.695 56.643,23.960 C56.643,22.292 57.928,20.957 59.618,20.890 C60.023,18.086 60.159,15.884 60.226,14.682 C43.731,15.950 33.995,6.005 31.156,2.601 C28.384,6.005 18.513,15.950 2.085,14.682 C2.356,20.690 5.060,49.791 31.156,60.938 C46.976,54.197 54.074,40.847 57.319,30.835 C57.455,30.301 58.063,30.034 58.604,30.234 C59.077,30.368 59.415,30.902 59.212,31.435 C55.900,41.982 48.395,55.933 31.562,62.940 C31.426,63.007 31.291,63.007 31.156,63.007 C31.021,63.007 30.885,63.007 30.750,62.940 C0.057,50.192 -0.010,13.948 -0.010,13.614 C-0.010,13.347 0.125,13.080 0.328,12.880 C0.598,12.680 0.868,12.613 1.139,12.613 C20.271,14.615 30.209,0.532 30.345,0.398 C30.480,0.132 30.818,-0.002 31.156,-0.002 C31.494,-0.002 31.832,0.132 31.967,0.398 C32.102,0.532 42.108,14.615 61.173,12.613 C61.443,12.546 61.714,12.680 61.984,12.880 C62.187,13.080 62.322,13.347 62.322,13.614 C62.322,13.748 62.322,16.752 61.578,21.424 C62.457,21.891 62.998,22.892 62.998,23.960 Z"/>
</svg>