<svg 
 xmlns="http://www.w3.org/2000/svg"
 xmlns:xlink="http://www.w3.org/1999/xlink"
 width="62px" height="62px">
<path fill-rule="evenodd"  fill="rgb(254, 160, 47)"
 d="M17.538,30.572 C17.538,23.526 23.396,17.796 30.606,17.796 C37.815,17.796 43.680,23.526 43.680,30.572 C43.680,37.614 37.815,43.340 30.606,43.340 C23.396,43.340 17.538,37.614 17.538,30.572 ZM41.618,30.572 C41.618,24.639 36.673,19.813 30.606,19.813 C24.539,19.813 19.601,24.639 19.601,30.572 C19.601,36.501 24.539,41.325 30.606,41.325 C36.673,41.325 41.618,36.501 41.618,30.572 ZM61.511,21.119 L54.425,25.356 C54.975,27.373 55.250,29.188 55.250,31.004 C55.250,32.819 54.975,34.634 54.425,36.652 L61.511,40.888 C61.993,41.224 62.130,41.830 61.855,42.300 L56.695,50.436 C56.558,50.705 56.351,50.839 56.076,50.907 C56.007,50.974 55.939,50.974 55.801,50.974 C55.663,50.974 55.457,50.907 55.319,50.772 L48.783,46.872 C45.550,50.369 41.491,52.857 36.881,53.933 L36.881,60.993 C36.881,61.598 36.468,62.001 35.849,62.001 L26.080,62.001 C25.529,62.001 25.048,61.598 25.048,60.993 L25.048,53.933 C20.507,52.857 16.379,50.369 13.214,46.872 L13.145,46.872 L6.678,50.772 C6.541,50.907 6.334,50.974 6.128,50.974 C6.059,50.974 5.990,50.974 5.922,50.907 C5.646,50.839 5.371,50.705 5.234,50.436 L0.142,42.300 C-0.133,41.830 0.005,41.224 0.486,40.888 L7.573,36.585 C7.022,34.567 6.747,32.819 6.747,31.004 C6.747,29.256 7.022,27.440 7.573,25.423 L0.486,21.119 C0.005,20.851 -0.133,20.178 0.142,19.707 L5.234,11.571 C5.371,11.370 5.646,11.168 5.922,11.100 C6.197,11.033 6.472,11.100 6.678,11.235 L13.145,15.135 C16.448,11.638 20.507,9.151 25.048,8.075 L25.048,1.014 C25.048,0.476 25.529,0.006 26.080,0.006 L35.849,0.006 C36.468,0.006 36.881,0.476 36.881,1.014 L36.881,8.075 C37.225,8.142 37.638,8.276 37.982,8.411 C38.463,7.537 39.495,6.999 40.596,6.999 C42.385,6.999 43.830,8.411 43.830,10.159 C43.830,11.907 42.385,13.319 40.596,13.319 C38.876,13.319 37.500,12.041 37.432,10.361 C36.950,10.159 36.399,10.024 35.849,9.890 C35.780,9.890 35.712,9.890 35.643,9.823 C35.437,9.823 35.230,9.689 35.161,9.554 C35.092,9.554 35.092,9.486 35.092,9.419 C34.955,9.352 34.886,9.151 34.886,9.016 C34.886,8.949 34.886,8.949 34.886,8.881 L34.886,2.022 L27.112,2.022 L27.112,8.881 C27.112,8.949 27.112,9.083 27.043,9.151 C27.043,9.217 26.974,9.285 26.974,9.352 C26.905,9.486 26.768,9.621 26.630,9.689 C26.493,9.756 26.424,9.823 26.286,9.823 C26.217,9.890 26.148,9.890 26.080,9.890 C21.539,10.899 17.480,13.319 14.246,16.950 C13.902,17.421 13.283,17.555 12.801,17.286 L12.664,17.219 L6.472,13.453 L2.481,19.909 L9.293,24.010 C9.293,24.010 9.293,24.078 9.362,24.078 C9.430,24.145 9.499,24.212 9.568,24.347 C9.705,24.481 9.774,24.683 9.774,24.884 L9.774,25.154 C9.086,27.373 8.811,29.188 8.811,31.004 C8.811,32.819 9.086,34.702 9.774,36.853 L9.774,37.122 C9.774,37.257 9.705,37.459 9.637,37.594 C9.568,37.795 9.430,37.929 9.293,37.997 L9.018,38.131 L2.481,42.098 L6.472,48.554 L12.664,44.855 L12.801,44.721 C12.870,44.721 12.870,44.654 12.939,44.654 C13.077,44.586 13.214,44.586 13.352,44.586 C13.558,44.586 13.696,44.654 13.834,44.721 C13.971,44.788 14.109,44.923 14.246,45.057 C17.549,48.756 21.677,51.176 26.286,52.185 L26.355,52.252 C26.424,52.252 26.493,52.318 26.561,52.318 C26.699,52.386 26.836,52.521 26.905,52.655 C27.043,52.789 27.112,52.991 27.112,53.193 L27.112,59.984 L34.886,59.984 L34.886,53.193 C34.886,53.126 34.886,53.126 34.886,53.058 C34.886,52.857 34.955,52.722 35.092,52.588 C35.230,52.386 35.368,52.318 35.574,52.252 L35.643,52.185 C40.321,51.176 44.449,48.756 47.751,45.057 C47.751,44.990 47.751,44.990 47.820,44.923 C47.839,44.904 47.868,44.886 47.894,44.868 C47.955,44.808 48.025,44.755 48.095,44.721 C48.439,44.519 48.783,44.519 49.128,44.721 L49.265,44.855 L55.526,48.554 L59.516,42.098 L52.911,38.131 L52.636,37.997 C52.498,37.929 52.430,37.862 52.361,37.728 C52.223,37.526 52.155,37.325 52.155,37.122 C52.155,36.988 52.155,36.921 52.223,36.853 C52.842,34.702 53.118,32.819 53.118,31.004 C53.118,29.188 52.842,27.373 52.223,25.154 C52.086,24.750 52.223,24.347 52.636,24.078 L52.636,24.010 L59.516,19.909 L55.526,13.453 L49.334,17.152 L49.128,17.286 C48.921,17.421 48.714,17.421 48.508,17.421 C48.371,17.421 48.233,17.354 48.095,17.286 C47.958,17.219 47.820,17.085 47.751,16.950 C46.995,16.144 46.169,15.337 45.412,14.664 C44.999,14.328 44.931,13.655 45.344,13.252 C45.687,12.849 46.375,12.781 46.788,13.184 C47.476,13.790 48.164,14.462 48.783,15.202 L48.852,15.202 L55.319,11.235 C55.526,11.100 55.801,11.033 56.076,11.100 C56.351,11.168 56.558,11.370 56.695,11.571 L61.855,19.707 C62.130,20.178 61.993,20.851 61.511,21.119 Z"/>
</svg>