<svg 
 xmlns="http://www.w3.org/2000/svg"
 xmlns:xlink="http://www.w3.org/1999/xlink"
 width="56px" height="62px">
<path fill-rule="evenodd"  fill="rgb(254, 160, 47)"
 d="M55.939,59.848 L55.939,60.828 C55.939,61.351 55.436,61.808 54.861,61.808 L1.084,61.808 C0.437,61.808 0.006,61.351 0.006,60.828 L0.006,59.848 C-0.066,54.622 -0.138,44.824 4.966,40.774 C8.777,37.834 14.025,36.332 17.476,35.352 C18.626,35.026 19.705,34.698 20.352,34.437 C20.639,34.306 21.071,33.196 21.358,31.955 C15.175,29.473 11.077,23.398 11.077,16.670 C11.077,7.785 18.842,0.208 27.973,0.208 C37.103,0.208 44.796,7.785 44.796,16.670 C44.796,23.398 40.698,29.473 34.587,31.955 C34.802,33.196 35.234,34.306 35.593,34.437 C36.169,34.698 37.247,35.026 38.397,35.352 C39.260,35.613 40.195,35.875 41.201,36.202 C41.704,35.549 42.639,35.091 43.717,35.091 C45.587,35.091 47.096,36.463 47.096,38.161 C47.096,39.859 45.587,41.231 43.717,41.231 C41.848,41.231 40.338,39.859 40.338,38.161 C40.338,38.096 40.338,38.031 40.410,37.965 C39.476,37.704 38.541,37.442 37.750,37.246 C36.456,36.855 35.449,36.528 34.659,36.267 C32.861,35.483 32.430,32.347 32.286,31.433 C32.286,30.975 32.574,30.583 33.005,30.453 C38.757,28.428 42.639,22.875 42.639,16.670 C42.639,8.831 35.881,2.167 27.973,2.167 C19.992,2.167 13.234,8.831 13.234,16.670 C13.234,22.875 17.117,28.428 22.868,30.453 C23.371,30.583 23.659,30.975 23.587,31.433 C23.515,32.347 23.012,35.483 21.214,36.267 C20.495,36.528 19.417,36.855 18.123,37.246 C14.816,38.161 9.855,39.598 6.404,42.276 C2.091,45.738 2.091,54.884 2.163,59.848 L53.783,59.848 C53.783,54.884 53.855,45.738 49.469,42.276 C49.038,41.949 48.966,41.296 49.397,40.905 C49.757,40.513 50.475,40.448 50.907,40.774 C56.011,44.824 55.939,54.622 55.939,59.848 Z"/>
</svg>