<svg 
 xmlns="http://www.w3.org/2000/svg"
 xmlns:xlink="http://www.w3.org/1999/xlink"
 width="15px" height="12px">
<path fill-rule="evenodd"  fill="rgb(255, 255, 255)"
 d="M12.732,0.281 C12.307,0.140 9.690,-0.001 7.073,-0.001 C4.456,-0.001 1.839,0.140 1.415,0.281 C0.283,0.635 -0.000,3.111 -0.000,5.658 C-0.000,8.204 0.283,10.679 1.415,11.033 C1.839,11.175 4.456,11.316 7.073,11.316 C9.690,11.316 12.307,11.175 12.732,11.033 C13.863,10.679 14.146,8.204 14.146,5.658 C14.146,3.111 13.863,0.635 12.732,0.281 ZM5.658,8.841 L5.658,2.475 L9.902,5.658 L5.658,8.841 Z"/>
</svg>