<svg width="50" height="50" viewBox="0 0 50 50" fill="none" xmlns="http://www.w3.org/2000/svg">
<g clip-path="url(#clip0_201_2174)">
<path d="M10.484 49.1936C7.37113 49.1936 4.83887 46.6614 4.83887 43.5485C4.83887 40.4356 7.37113 37.9033 10.484 37.9033C13.5969 37.9033 16.1292 40.4356 16.1292 43.5485C16.1292 46.6614 13.5969 49.1936 10.484 49.1936ZM10.484 41.9356C9.59451 41.9356 8.87113 42.659 8.87113 43.5485C8.87113 44.438 9.59451 45.1614 10.484 45.1614C11.3735 45.1614 12.0969 44.438 12.0969 43.5485C12.0969 42.659 11.3735 41.9356 10.484 41.9356Z" fill="#FD9C12"/>
<path d="M25.0001 49.1936C21.8872 49.1936 19.355 46.6614 19.355 43.5485C19.355 40.4356 21.8872 37.9033 25.0001 37.9033C28.113 37.9033 30.6453 40.4356 30.6453 43.5485C30.6453 46.6614 28.113 49.1936 25.0001 49.1936ZM25.0001 41.9356C24.1106 41.9356 23.3872 42.659 23.3872 43.5485C23.3872 44.438 24.1106 45.1614 25.0001 45.1614C25.8897 45.1614 26.613 44.438 26.613 43.5485C26.613 42.659 25.8897 41.9356 25.0001 41.9356Z" fill="#FD9C12"/>
<path d="M39.5163 49.1936C36.4034 49.1936 33.8711 46.6614 33.8711 43.5485C33.8711 40.4356 36.4034 37.9033 39.5163 37.9033C42.6292 37.9033 45.1614 40.4356 45.1614 43.5485C45.1614 46.6614 42.6292 49.1936 39.5163 49.1936ZM39.5163 41.9356C38.6267 41.9356 37.9034 42.659 37.9034 43.5485C37.9034 44.438 38.6267 45.1614 39.5163 45.1614C40.4058 45.1614 41.1292 44.438 41.1292 43.5485C41.1292 42.659 40.4058 41.9356 39.5163 41.9356Z" fill="#FD9C12"/>
<path d="M10.4838 41.1289C9.14994 41.1289 8.06445 42.2144 8.06445 43.5483C8.06445 44.8821 9.14994 45.9676 10.4838 45.9676C11.8177 45.9676 12.9032 44.8821 12.9032 43.5483C12.9032 42.2144 11.8177 41.1289 10.4838 41.1289ZM10.4838 44.3547C10.0395 44.3547 9.67736 43.9926 9.67736 43.5483C9.67736 43.1039 10.0395 42.7418 10.4838 42.7418C10.9282 42.7418 11.2903 43.1039 11.2903 43.5483C11.2903 43.9926 10.9282 44.3547 10.4838 44.3547Z" fill="#23272B"/>
<path d="M24.9999 41.1289C23.6661 41.1289 22.5806 42.2144 22.5806 43.5483C22.5806 44.8821 23.6661 45.9676 24.9999 45.9676C26.3338 45.9676 27.4193 44.8821 27.4193 43.5483C27.4193 42.2144 26.3338 41.1289 24.9999 41.1289ZM24.9999 44.3547C24.5556 44.3547 24.1935 43.9926 24.1935 43.5483C24.1935 43.1039 24.5556 42.7418 24.9999 42.7418C25.4443 42.7418 25.8064 43.1039 25.8064 43.5483C25.8064 43.9926 25.4443 44.3547 24.9999 44.3547Z" fill="#23272B"/>
<path d="M39.516 41.1289C38.1822 41.1289 37.0967 42.2144 37.0967 43.5483C37.0967 44.8821 38.1822 45.9676 39.516 45.9676C40.8499 45.9676 41.9354 44.8821 41.9354 43.5483C41.9354 42.2144 40.8499 41.1289 39.516 41.1289ZM39.516 44.3547C39.0717 44.3547 38.7096 43.9926 38.7096 43.5483C38.7096 43.1039 39.0717 42.7418 39.516 42.7418C39.9604 42.7418 40.3225 43.1039 40.3225 43.5483C40.3225 43.9926 39.9604 44.3547 39.516 44.3547Z" fill="#23272B"/>
<path d="M45.1613 37.1613V27.4194H43.5484V25.8065H44.3548C45.6887 25.8065 46.7742 24.721 46.7742 23.3871C46.7742 21.9782 46.3565 20.604 45.5952 19.4323L48.3871 17.3387V11.2903H45.1613V8.06452H45.9677C47.3016 8.06452 48.3871 6.97903 48.3871 5.64516V2.41935C48.3871 1.08548 47.3016 0 45.9677 0H33.0645C32.0145 0 31.1274 0.676613 30.7935 1.6129H0V3.22581H30.6452V4.83871H0V6.45161H30.7935C31.1274 7.3879 32.0145 8.06452 33.0645 8.06452H33.871V11.2903H30.6452V17.3387L33.4371 19.4323C32.6758 20.604 32.2581 21.9782 32.2581 23.3871C32.2581 24.721 33.3435 25.8065 34.6774 25.8065H35.4839V27.4194H33.871V37.0968H30.6452V27.4194H19.3548V37.0968H16.129V27.4194H4.83871V37.1613C2.10726 37.5548 0 39.904 0 42.7419V44.3548C0 47.4677 2.53226 50 5.64516 50H44.3548C47.4677 50 50 47.4677 50 44.3548V42.7419C50 39.904 47.8927 37.5548 45.1613 37.1613ZM38.7097 29.0323H40.3226V30.6452H38.7097V29.0323ZM45.1613 23.3871C45.1613 23.8315 44.7992 24.1935 44.3548 24.1935H43.5484V23.3871C43.5484 22.6677 43.2266 22.0274 42.7266 21.5839L44.2944 20.4081C44.8492 21.2992 45.1613 22.3274 45.1613 23.3871ZM32.2581 5.64516V2.41935C32.2581 1.975 32.6202 1.6129 33.0645 1.6129H45.9677C46.4121 1.6129 46.7742 1.975 46.7742 2.41935V5.64516C46.7742 6.08952 46.4121 6.45161 45.9677 6.45161H33.0645C32.6202 6.45161 32.2581 6.08952 32.2581 5.64516ZM35.4839 8.06452H43.5484V11.2903H35.4839V8.06452ZM32.2581 12.9032H46.7742V16.5323L41.075 20.8065C40.9363 20.9105 40.7645 20.9677 40.5911 20.9677H38.4403C38.2669 20.9677 38.0952 20.9105 37.9565 20.8065L32.2581 16.5323V12.9032ZM34.6774 24.1935C34.2331 24.1935 33.871 23.8315 33.871 23.3871C33.871 22.3274 34.1831 21.2992 34.7379 20.4081L36.3056 21.5839C35.8056 22.0274 35.4839 22.6677 35.4839 23.3871V24.1935H34.6774ZM37.0968 23.3871C37.0968 22.9427 37.4589 22.5806 37.9032 22.5806H38.4411H40.5919H41.129C41.5734 22.5806 41.9355 22.9427 41.9355 23.3871V27.4194H37.0968V23.3871ZM35.4839 29.0323H37.0968V32.2581H41.9355V29.0323H43.5484V37.0968H35.4839V29.0323ZM24.1935 29.0323H25.8065V30.6452H24.1935V29.0323ZM20.9677 29.0323H22.5806V32.2581H27.4194V29.0323H29.0323V37.0968H20.9677V29.0323ZM9.67742 29.0323H11.2903V30.6452H9.67742V29.0323ZM8.06452 29.0323V32.2581H12.9032V29.0323H14.5161V37.0968H6.45161V29.0323H8.06452ZM48.3871 44.3548C48.3871 46.5782 46.5782 48.3871 44.3548 48.3871H5.64516C3.42177 48.3871 1.6129 46.5782 1.6129 44.3548V42.7419C1.6129 40.5185 3.42177 38.7097 5.64516 38.7097H44.3548C46.5782 38.7097 48.3871 40.5185 48.3871 42.7419V44.3548Z" fill="#23272B"/>
<path d="M41.9354 16.936C41.9354 15.6021 40.8499 14.5166 39.516 14.5166C38.1822 14.5166 37.0967 15.6021 37.0967 16.936C37.0967 18.2698 38.1822 19.3553 39.516 19.3553C40.8499 19.3553 41.9354 18.2698 41.9354 16.936ZM38.7096 16.936C38.7096 16.4916 39.0717 16.1295 39.516 16.1295C39.9604 16.1295 40.3225 16.4916 40.3225 16.936C40.3225 17.3803 39.9604 17.7424 39.516 17.7424C39.0717 17.7424 38.7096 17.3803 38.7096 16.936Z" fill="#23272B"/>
</g>
<defs>
<clipPath id="clip0_201_2174">
<rect width="50" height="50" fill="white"/>
</clipPath>
</defs>
</svg>
