<svg width="50" height="50" viewBox="0 0 50 50" fill="none" xmlns="http://www.w3.org/2000/svg">
<path d="M12.0966 12.9032C10.7627 12.9032 9.67725 11.8177 9.67725 10.4838C9.67725 9.14994 10.7627 8.06445 12.0966 8.06445C13.4305 8.06445 14.516 9.14994 14.516 10.4838C14.516 11.8177 13.4305 12.9032 12.0966 12.9032Z" fill="#FD9C12"/>
<path d="M44.3549 33.8709C43.021 33.8709 41.9355 32.7855 41.9355 31.4516C41.9355 30.1177 43.021 29.0322 44.3549 29.0322C45.6888 29.0322 46.7743 30.1177 46.7743 31.4516C46.7743 32.7855 45.6888 33.8709 44.3549 33.8709Z" fill="#FD9C12"/>
<path d="M33.871 16.1288C30.3138 16.1288 27.4194 13.2345 27.4194 9.6772C27.4194 6.11994 30.3138 3.22559 33.871 3.22559C37.4283 3.22559 40.3227 6.11994 40.3227 9.6772C40.3227 13.2345 37.4283 16.1288 33.871 16.1288Z" fill="#FD9C12"/>
<path d="M29.8385 50.0003C26.7256 50.0003 24.1934 47.4672 24.1934 44.3551C24.1934 41.243 26.7256 38.71 29.8385 38.71C32.9514 38.71 35.4837 41.243 35.4837 44.3551C35.4837 47.4672 32.9514 50.0003 29.8385 50.0003ZM29.8385 42.7422C28.949 42.7422 28.2256 43.4656 28.2256 44.3551C28.2256 45.2446 28.949 45.968 29.8385 45.968C30.728 45.968 31.4514 45.2446 31.4514 44.3551C31.4514 43.4656 30.728 42.7422 29.8385 42.7422Z" fill="#FD9C12"/>
<path d="M10.484 50.0003C7.37113 50.0003 4.83887 47.4672 4.83887 44.3551C4.83887 41.243 7.37113 38.71 10.484 38.71C13.5969 38.71 16.1292 41.243 16.1292 44.3551C16.1292 47.4672 13.5969 50.0003 10.484 50.0003ZM10.484 42.7422C9.59451 42.7422 8.87113 43.4656 8.87113 44.3551C8.87113 45.2446 9.59451 45.968 10.484 45.968C11.3735 45.968 12.0969 45.2446 12.0969 44.3551C12.0969 43.4656 11.3735 42.7422 10.484 42.7422Z" fill="#FD9C12"/>
<path d="M16.0646 45.1611C15.9823 45.7305 15.8162 46.2724 15.5767 46.774H24.746C24.5065 46.2724 24.3404 45.7305 24.2581 45.1611H16.0646Z" fill="white"/>
<path d="M45.1258 25.8653C45.1379 25.5766 45.1613 25.2879 45.1613 25C45.1613 21.3242 44.1581 17.7508 42.2742 14.621C43.0992 13.1694 43.5484 11.5137 43.5484 9.83548V9.67742C43.5484 4.34113 39.2073 0 33.871 0C30.2919 0 27.1669 1.95806 25.4927 4.85484C22.3661 4.78306 19.1919 5.45 16.3581 6.79274C15.3218 5.59839 13.7976 4.83871 12.0968 4.83871C8.98387 4.83871 6.45161 7.37177 6.45161 10.4839C6.45161 11.6984 6.85323 12.9008 7.58064 13.8702L7.91452 14.3153C6.05081 17.2903 5.00726 20.6766 4.86855 24.1935H3.22581C2.33629 24.1935 1.6129 24.9169 1.6129 25.8064V41.9355C0.723387 41.9355 0 42.6589 0 43.5484V45.1613C0 46.0508 0.723387 46.7742 1.6129 46.7742H5.39113C5.15161 46.2726 4.98548 45.7306 4.90323 45.1613H1.6129V43.5484H4.90323C4.98548 42.979 5.15161 42.4371 5.39113 41.9355H3.22581V25.8064H9.67742V31.95L13.7097 29.9339L17.7419 31.95V25.8064H24.1935V41.9355H15.5766C15.8161 42.4371 15.9823 42.979 16.0645 43.5484H24.2581C24.3379 42.9919 24.5016 42.4645 24.7315 41.9726C25.0024 41.3935 25.3637 40.8637 25.8065 40.4113V30.6452H33.4177C33.7879 30.6452 34.1105 30.8968 34.2 31.2556L34.4508 32.2581H30.6452C29.7556 32.2581 29.0323 32.9814 29.0323 33.871V35.4839C29.0323 36.3734 29.7556 37.0968 30.6452 37.0968H35.6605L36.8702 41.9355H34.9315C35.171 42.4371 35.3371 42.979 35.4194 43.5484H37.0968V45.1613H35.4194C35.3371 45.7306 35.171 46.2726 34.9315 46.7742H37.0968C37.9863 46.7742 38.7097 46.0508 38.7097 45.1613V42.9403C38.7097 42.7435 38.6855 42.5468 38.6379 42.3532L38.1218 40.2887C39.3234 39.2573 40.3952 38.0944 41.3218 36.8153L44.3548 40.8605L48.871 34.8387C49.5992 33.8685 50 32.6653 50 31.4516C50 28.6016 47.8742 26.2435 45.1258 25.8653ZM33.871 1.6129C38.3177 1.6129 41.9355 5.23064 41.9355 9.67742V9.83468C41.9355 11.6331 41.3234 13.4032 40.2121 14.8169L33.871 22.8887L27.5298 14.8169C26.4185 13.4032 25.8065 11.6339 25.8065 9.83468V9.67742C25.8065 5.23064 29.4242 1.6129 33.871 1.6129ZM12.0968 6.45161C14.3202 6.45161 16.129 8.26048 16.129 10.4839C16.129 11.3508 15.8427 12.2105 15.3226 12.9024L12.0968 17.204L8.87097 12.9024C8.35081 12.2105 8.06452 11.3508 8.06452 10.4839C8.06452 8.26048 9.87339 6.45161 12.0968 6.45161ZM16.129 29.3403L13.7097 28.1306L11.2903 29.3403V25.8064H16.129V29.3403ZM30.6452 35.4839V33.871H34.854L35.2573 35.4839H30.6452ZM37.6815 38.5282L35.7653 30.8645C35.4952 29.7863 34.5298 29.0323 33.4177 29.0323H25.8065V25.8064C25.8065 24.9169 25.0831 24.1935 24.1935 24.1935H6.48065C6.60968 21.1887 7.45161 18.2887 8.95403 15.7024L12.0968 19.8927L16.6129 13.871C17.3411 12.9008 17.7419 11.6976 17.7419 10.4839C17.7419 9.65403 17.5573 8.86774 17.2339 8.15726C19.5968 7.0629 22.121 6.49193 24.7548 6.45887C24.3984 7.46774 24.1935 8.54758 24.1935 9.67742V9.83468C24.1935 11.9935 24.9282 14.1177 26.2613 15.8137L33.871 25.4984L41.2661 16.0863C42.7605 18.8089 43.5484 21.8653 43.5484 25C43.5484 25.2911 43.5258 25.5839 43.5129 25.8766C40.7992 26.2855 38.7097 28.6258 38.7097 31.4516C38.7097 32.6661 39.1113 33.8685 39.8387 34.8379L40.304 35.4589C39.5403 36.5742 38.6669 37.6048 37.6815 38.5282ZM47.5806 33.8702L44.3548 38.1718L41.129 33.8702C40.6089 33.1782 40.3226 32.3185 40.3226 31.4516C40.3226 29.2282 42.1315 27.4194 44.3548 27.4194C46.5782 27.4194 48.3871 29.2282 48.3871 31.4516C48.3871 32.3185 48.1008 33.1782 47.5806 33.8702Z" fill="white"/>
<path d="M19.355 20.9678H20.9679V22.5807H19.355V20.9678Z" fill="white"/>
<path d="M22.5806 20.9678H24.1935V22.5807H22.5806V20.9678Z" fill="white"/>
<path d="M25.8066 20.9678H27.4195V22.5807H25.8066V20.9678Z" fill="white"/>
<path d="M29.8388 41.9355C28.5049 41.9355 27.4194 43.021 27.4194 44.3549C27.4194 45.6888 28.5049 46.7743 29.8388 46.7743C31.1727 46.7743 32.2581 45.6888 32.2581 44.3549C32.2581 43.021 31.1727 41.9355 29.8388 41.9355ZM29.8388 45.1614C29.3944 45.1614 29.0323 44.8001 29.0323 44.3549C29.0323 43.9097 29.3944 43.5484 29.8388 43.5484C30.2831 43.5484 30.6452 43.9097 30.6452 44.3549C30.6452 44.8001 30.2831 45.1614 29.8388 45.1614Z" fill="white"/>
<path d="M10.4838 41.9355C9.14994 41.9355 8.06445 43.021 8.06445 44.3549C8.06445 45.6888 9.14994 46.7743 10.4838 46.7743C11.8177 46.7743 12.9032 45.6888 12.9032 44.3549C12.9032 43.021 11.8177 41.9355 10.4838 41.9355ZM10.4838 45.1614C10.0395 45.1614 9.67736 44.8001 9.67736 44.3549C9.67736 43.9097 10.0395 43.5484 10.4838 43.5484C10.9282 43.5484 11.2903 43.9097 11.2903 44.3549C11.2903 44.8001 10.9282 45.1614 10.4838 45.1614Z" fill="white"/>
</svg>
