<svg width="50" height="50" viewBox="0 0 50 50" fill="none" xmlns="http://www.w3.org/2000/svg">
<g clip-path="url(#clip0_201_2244)">
<path d="M38.7094 28.2263C38.7094 26.244 37.5134 24.5126 35.7481 23.7739C36.4739 22.0037 36.0949 19.9327 34.6941 18.5319C33.2933 17.1311 31.2231 16.7513 29.4521 17.4779C28.7134 15.7126 26.9812 14.5166 24.9997 14.5166C23.0183 14.5166 21.286 15.7126 20.5473 17.4779C18.7771 16.7553 16.707 17.1319 15.3054 18.5327C13.9046 19.9335 13.5247 22.0045 14.2513 23.7747C12.486 24.5126 11.29 26.244 11.29 28.2263C11.29 30.2077 12.486 31.9392 14.2513 32.6787C13.5255 34.4489 13.9046 36.5198 15.3054 37.9206C16.7062 39.3214 18.7771 39.7005 20.5473 38.9747C21.2852 40.74 23.0183 41.936 24.9997 41.936C26.9812 41.936 28.7134 40.74 29.4521 38.9747C31.2231 39.6989 33.2933 39.3214 34.6941 37.9198C36.0949 36.519 36.4747 34.4481 35.7481 32.6779C37.5134 31.9392 38.7094 30.2077 38.7094 28.2263ZM24.9997 37.9037C19.6554 37.9037 15.3223 33.5706 15.3223 28.2263C15.3223 22.8819 19.6554 18.5489 24.9997 18.5489C30.3441 18.5489 34.6771 22.8819 34.6771 28.2263C34.6771 33.5706 30.3441 37.9037 24.9997 37.9037Z" fill="#FD9C12"/>
<path d="M29.0327 25.8069H28.2262V25.177C28.2262 23.7456 27.0617 22.5811 25.6303 22.5811C24.8892 22.5811 24.2456 23.0835 24.0658 23.8036L23.7174 25.1964C23.6271 25.5552 23.3053 25.8069 22.9343 25.8069H20.1617C19.2722 25.8069 18.5488 26.5302 18.5488 27.4198V32.2585C18.5488 33.148 19.2722 33.8714 20.1617 33.8714H21.7746C22.3061 33.8714 22.7787 33.6133 23.073 33.2149C23.6819 33.6359 24.415 33.8714 25.1908 33.8714H29.0327C30.3666 33.8714 31.4521 32.7859 31.4521 31.452V28.2262C31.4521 26.8923 30.3666 25.8069 29.0327 25.8069ZM21.7746 32.2585H20.1617V27.4198H21.7746V32.2585ZM29.8391 31.452C29.8391 31.8972 29.4771 32.2585 29.0327 32.2585H25.1908C24.4448 32.2585 23.769 31.8746 23.3875 31.2456V27.377C24.3012 27.2044 25.0496 26.5165 25.2819 25.5867L25.6303 24.194C26.1722 24.194 26.6133 24.6351 26.6133 25.177V27.4198H29.0327C29.4771 27.4198 29.8391 27.7811 29.8391 28.2262V31.452Z" fill="white"/>
<path d="M46.1524 28.2258L49.85 23.0492C50.025 22.8032 50.0492 22.4806 49.9105 22.2113C49.7726 21.9427 49.4952 21.7742 49.1936 21.7742H42.0121L40.6815 11.5758C40.421 9.57339 38.7024 8.06452 36.6839 8.06452H32.2581V7.25806C32.2581 3.25565 29.0016 0 25 0C20.9984 0 17.742 3.25565 17.742 7.25806V8.06452H13.3161C11.2976 8.06452 9.57905 9.57339 9.31776 11.5758L7.98793 21.7742H0.806474C0.504054 21.7742 0.227442 21.9427 0.0895383 22.2113C-0.048365 22.4806 -0.0249778 22.8032 0.150022 23.0492L3.8476 28.2258L0.150022 33.4024C-0.0249778 33.6484 -0.0491714 33.971 0.0895383 34.2403C0.227442 34.5089 0.504054 34.6774 0.806474 34.6774H6.30486L4.78631 46.3137L5.14115 46.5984C7.8847 48.7919 11.3299 50 14.8412 50H35.1581C38.6694 50 42.1145 48.7919 44.8581 46.5976L45.2129 46.3129L43.6952 34.6774H49.1936C49.496 34.6774 49.7726 34.5089 49.9105 34.2403C50.0484 33.971 50.025 33.6484 49.85 33.4024L46.1524 28.2258ZM19.3549 7.25806C19.3549 4.14597 21.8871 1.6129 25 1.6129C28.1129 1.6129 30.6452 4.14597 30.6452 7.25806V8.06452H19.3549V7.25806ZM35.8742 33.0645C36.0395 33.5911 36.1202 34.1355 36.1016 34.6774H42.0694L43.496 45.6137C41.0984 47.4048 38.1557 48.3871 35.1589 48.3871H14.8412C11.8444 48.3871 8.90164 47.4048 6.50486 45.6137L7.93147 34.6774H13.8992C13.8807 34.1355 13.9605 33.5911 14.1266 33.0645H2.37341L5.49518 28.6944C5.69518 28.4137 5.69518 28.0379 5.49518 27.7573L2.37341 23.3871H14.1258C13.9605 22.8605 13.8799 22.3161 13.8984 21.7742H9.61454L10.9178 11.7831C11.0734 10.5831 12.1049 9.67742 13.3161 9.67742H17.742V11.4387C16.8057 11.7726 16.1291 12.6597 16.1291 13.7097C16.1291 15.0435 17.2145 16.129 18.5484 16.129C19.8823 16.129 20.9678 15.0435 20.9678 13.7097C20.9678 12.6597 20.2912 11.7726 19.3549 11.4387V9.67742H30.6452V11.4387C29.7089 11.7726 29.0323 12.6597 29.0323 13.7097C29.0323 15.0435 30.1178 16.129 31.4516 16.129C32.7855 16.129 33.871 15.0435 33.871 13.7097C33.871 12.6597 33.1944 11.7726 32.2581 11.4387V9.67742H36.6839C37.8952 9.67742 38.9266 10.5831 39.0831 11.7831L40.3855 21.7742H36.1016C36.1202 22.3161 36.0403 22.8605 35.8742 23.3871H47.6266L44.5049 27.7573C44.3049 28.0379 44.3049 28.4137 44.5049 28.6944L47.6266 33.0645H35.8742ZM19.3549 13.7097C19.3549 14.1548 18.9928 14.5161 18.5484 14.5161C18.1041 14.5161 17.742 14.1548 17.742 13.7097C17.742 13.2645 18.1041 12.9032 18.5484 12.9032C18.9928 12.9032 19.3549 13.2645 19.3549 13.7097ZM32.2581 13.7097C32.2581 14.1548 31.896 14.5161 31.4516 14.5161C31.0073 14.5161 30.6452 14.1548 30.6452 13.7097C30.6452 13.2645 31.0073 12.9032 31.4516 12.9032C31.896 12.9032 32.2581 13.2645 32.2581 13.7097Z" fill="white"/>
<path d="M25.0005 17.7422C19.2198 17.7422 14.5166 22.4454 14.5166 28.2261C14.5166 34.0067 19.2198 38.7099 25.0005 38.7099C30.7811 38.7099 35.4843 34.0067 35.4843 28.2261C35.4843 22.4454 30.7811 17.7422 25.0005 17.7422ZM25.0005 37.097C20.1093 37.097 16.1295 33.1172 16.1295 28.2261C16.1295 23.3349 20.1093 19.3551 25.0005 19.3551C29.8916 19.3551 33.8714 23.3349 33.8714 28.2261C33.8714 33.1172 29.8916 37.097 25.0005 37.097Z" fill="white"/>
<path d="M9.96981 43.9843L10.7497 38.0069L9.15046 37.7988L8.22949 44.8585L8.69723 45.1279C10.5682 46.2045 12.6932 46.7738 14.8408 46.7738H16.9351V45.1609H14.8408C13.1521 45.1609 11.4787 44.7553 9.96981 43.9843Z" fill="white"/>
<path d="M18.5488 45.1611H20.1617V46.774H18.5488V45.1611Z" fill="white"/>
</g>
<defs>
<clipPath id="clip0_201_2244">
<rect width="50" height="50" fill="white"/>
</clipPath>
</defs>
</svg>
