<svg width="50" height="50" viewBox="0 0 50 50" fill="none" xmlns="http://www.w3.org/2000/svg">
<g clip-path="url(#clip0_201_2215)">
<path d="M2.39548 24.8731H3.99246V23.2586C3.99246 22.3004 4.56338 21.434 5.44412 21.0571L8.51512 19.7412C9.68891 20.9557 11.3258 21.6799 13.0825 21.6799H20.7608C22.0839 21.6799 23.1563 22.7523 23.1563 24.0754V24.8739H24.7533C25.0367 24.8739 25.2986 24.9538 25.5294 25.0831L26.3311 23.0805C26.8733 21.7231 27.1487 20.2938 27.1487 18.807C27.1487 15.3136 25.5845 12.0589 22.8568 9.87663L22.4009 9.51172L21.9154 9.83591C20.4789 10.7933 18.8085 11.2987 17.0837 11.2987H8.16379C3.66189 11.2987 0 14.9606 0 19.4625C0 20.5054 0.196429 21.525 0.583698 22.4944L1.61934 25.0823C1.85011 24.953 2.11201 24.8731 2.39548 24.8731Z" fill="#FD9C12"/>
<path d="M17.3256 32.325L17.7911 30.4629H9.35742L9.82294 32.325C10.2541 34.0497 11.7968 35.2538 13.5743 35.2538C15.3517 35.2538 16.8944 34.0497 17.3256 32.325ZM11.4064 32.0599H15.7422C15.4491 33.0069 14.5756 33.6569 13.5743 33.6569C12.573 33.6569 11.6994 33.0069 11.4064 32.0599Z" fill="white"/>
<path d="M9.58166 27.2692H11.1786V26.4707C11.1786 25.15 10.1039 24.0752 8.78317 24.0752C7.46247 24.0752 6.3877 25.15 6.3877 26.4707V27.2692H7.98468V26.4707C7.98468 26.0299 8.3432 25.6722 8.78317 25.6722C9.22314 25.6722 9.58166 26.0299 9.58166 26.4707V27.2692Z" fill="white"/>
<path d="M17.5667 26.4707C17.5667 26.0299 17.9252 25.6722 18.3652 25.6722C18.8052 25.6722 19.1637 26.0299 19.1637 26.4707V27.2692H20.7607V26.4707C20.7607 25.15 19.6859 24.0752 18.3652 24.0752C17.0445 24.0752 15.9697 25.15 15.9697 26.4707V27.2692H17.5667V26.4707Z" fill="white"/>
<path d="M42.6251 14.493H50L48.0038 10.5005L50 6.50806H42.6251L41.0281 9.70203H35.1337C35.1337 4.4184 30.8354 0.120117 25.5518 0.120117C21.6264 0.120117 18.2479 2.49563 16.7691 5.88284C13.4019 6.92727 10.3269 8.79574 7.83401 11.3158C7.9442 11.311 8.052 11.299 8.16379 11.299H10.1983C11.9702 9.78507 13.9912 8.59132 16.1647 7.77526C16.0369 8.39809 15.9698 9.04247 15.9698 9.70203C15.9698 10.2394 16.0202 10.7728 16.108 11.299H17.0829C17.3033 11.299 17.5221 11.2902 17.7401 11.2743C17.6371 10.7576 17.5668 10.2338 17.5668 9.70203C17.5668 5.29914 21.1489 1.7171 25.5518 1.7171C29.9546 1.7171 33.5367 5.29914 33.5367 9.70203H31.9397C31.9397 6.17988 29.0739 3.31409 25.5518 3.31409C22.0296 3.31409 19.1638 6.17988 19.1638 9.70203C19.1638 10.1436 19.2237 10.5772 19.3123 11.0044C19.8306 10.867 20.3368 10.6866 20.8231 10.455C20.7848 10.2075 20.7608 9.95595 20.7608 9.70203C20.7608 7.05981 22.9095 4.91107 25.5518 4.91107C28.194 4.91107 30.3427 7.05981 30.3427 9.70203H28.7457C28.7457 7.94055 27.3132 6.50806 25.5518 6.50806C23.7903 6.50806 22.3578 7.94055 22.3578 9.70203C22.3578 11.4635 23.7903 12.896 25.5518 12.896C26.7287 12.896 27.7476 12.2492 28.3018 11.299H30.064C29.4867 12.9431 28.0502 14.1744 26.2688 14.4379C26.474 14.9337 26.6481 15.4424 26.7814 15.9662C29.2168 15.4967 31.1332 13.6673 31.7377 11.2998H33.3746C32.7446 14.4515 30.2868 16.93 27.0785 17.5416C27.124 17.9584 27.1487 18.3808 27.1487 18.8072C27.1487 18.9214 27.136 19.0332 27.1328 19.1474C31.2123 18.4775 34.3344 15.313 34.9979 11.299H36.1166C39.063 13.8199 41.2278 17.1831 42.3089 20.8809H32.7382C31.4175 20.8809 30.3427 21.9557 30.3427 23.2764V29.6643C30.3427 30.985 31.4175 32.0598 32.7382 32.0598H36.9055L37.3591 33.8748C37.5627 34.6869 38.2893 35.2538 39.1261 35.2538C39.9629 35.2538 40.6896 34.6869 40.8932 33.874L41.3467 32.0598H42.3201C41.5488 34.7028 40.2209 37.1774 38.4418 39.2966C38.2717 39.2726 38.1025 39.2462 37.9284 39.2462C36.943 39.2462 36.0168 39.6295 35.3189 40.3274L35.1337 40.5127L34.9484 40.3274C34.2505 39.6295 33.3243 39.2462 32.3389 39.2462C31.3536 39.2462 30.4273 39.6295 29.7295 40.3274C29.0947 40.9614 28.7457 41.8046 28.7457 42.7772C28.7457 43.7258 29.1394 44.6161 29.8077 45.2789C28.087 45.8881 26.2967 46.2522 24.461 46.3712C23.736 42.6893 21.0131 39.6671 17.3912 38.5899L17.1309 37.8082C20.8662 36.4395 23.5986 32.9909 23.9148 28.8666H24.7533C26.074 28.8666 27.1487 27.7919 27.1487 26.4712C27.1487 25.1505 26.074 24.0757 24.7533 24.0757H23.9548C23.9548 22.3142 22.5223 20.8817 20.7608 20.8817H13.0833C10.7996 20.8817 8.77543 19.5115 7.92743 17.3907L6.44463 17.984C6.65144 18.5014 6.91335 18.9845 7.22156 19.4269L5.12951 20.3236C3.95413 20.8274 3.19397 21.9796 3.19397 23.2588V24.0749H2.39548C1.07477 24.0749 0 25.1497 0 26.4704C0 27.7911 1.07477 28.8658 2.39548 28.8658H3.23469C3.5509 32.9901 6.28334 36.4387 10.0187 37.8074L9.75838 38.5891C5.83059 39.7573 2.95442 43.2108 2.5432 47.3158L2.31164 49.6266H24.8371L24.6718 47.9746C26.914 47.8189 29.0939 47.3174 31.1715 46.4838L35.1337 49.8798L40.3486 45.409C41.0944 44.7702 41.5216 43.8408 41.5216 42.8594V42.7021C41.5216 41.8046 41.1719 40.9614 40.5379 40.3266C40.3758 40.1653 40.1993 40.024 40.0156 39.897C41.8578 37.5846 43.2096 34.9048 43.9738 32.059H45.5141C46.8348 32.059 47.9095 30.9842 47.9095 29.6635V23.2756C47.9095 21.9549 46.8348 20.8801 45.5141 20.8801H43.9658C42.9988 17.2813 41.0856 13.9572 38.4562 11.2982H41.0281L42.6251 14.493ZM23.9548 9.70203C23.9548 8.82129 24.671 8.10504 25.5518 8.10504C26.4325 8.10504 27.1487 8.82129 27.1487 9.70203H25.5518V11.299C24.671 11.299 23.9548 10.5828 23.9548 9.70203ZM24.7533 25.6719C25.1932 25.6719 25.5518 26.0296 25.5518 26.4704C25.5518 26.9111 25.1932 27.2689 24.7533 27.2689H23.9548V25.6719H24.7533ZM1.59698 26.4704C1.59698 26.0296 1.95551 25.6719 2.39548 25.6719H3.19397V27.2689H2.39548C1.95551 27.2689 1.59698 26.9111 1.59698 26.4704ZM10.3021 40.0998L12.6705 41.284L11.4328 42.1096L10.2383 40.119C10.2598 40.1126 10.2806 40.1062 10.3021 40.0998ZM13.4522 44.8357H13.6965L14.2291 48.0297H12.9196L13.4522 44.8357ZM13.8794 43.2387H13.2693L13.1065 42.9137L13.5744 42.6015L14.0423 42.9129L13.8794 43.2387ZM15.7159 42.1096L14.4783 41.284L16.8466 40.0998C16.8682 40.1062 16.8897 40.1126 16.9105 40.1182L15.7159 42.1096ZM4.79095 28.0674V23.2588C4.79095 22.6192 5.17104 22.0435 5.75873 21.7912L8.33786 20.6861C9.61545 21.8199 11.2867 22.4787 13.0825 22.4787H20.7608C21.6415 22.4787 22.3578 23.195 22.3578 24.0757V28.0682C22.3578 32.911 18.4172 36.8516 13.5744 36.8516C8.73151 36.8516 4.79095 32.9102 4.79095 28.0674ZM13.5744 38.4478C14.2659 38.4478 14.9398 38.3767 15.5938 38.2473L15.7918 38.8414L13.5744 39.9505L11.357 38.8414L11.555 38.2473C12.2089 38.3767 12.8829 38.4478 13.5744 38.4478ZM4.1322 47.4747C4.42445 44.5546 6.1971 42.0258 8.73391 40.7163L10.925 44.3686L11.7674 43.8072L11.9454 44.1634L11.3011 48.0297H7.98492V45.9648C7.98492 45.0233 7.61842 44.1386 6.95327 43.4727L5.82341 44.6017C6.18752 44.9658 6.38794 45.4505 6.38794 45.9648V48.0297H4.0763L4.1322 47.4747ZM20.7608 48.0297V45.9648C20.7608 45.4497 20.9612 44.9658 21.3261 44.6017L20.1963 43.4727C19.5303 44.1386 19.1638 45.0233 19.1638 45.9648V48.0297H15.8477L15.2033 44.1626L15.3814 43.8064L16.2238 44.3678L18.4148 40.7155C20.9516 42.025 22.7251 44.5538 23.0165 47.4739L23.0724 48.0297H20.7608ZM39.9246 42.8594C39.9246 43.3745 39.7002 43.8623 39.309 44.1977L35.1337 47.7765L31.0214 44.252C30.5902 43.8823 30.3427 43.3441 30.3427 42.7029C30.3427 42.2326 30.5256 41.7894 30.8585 41.4565C31.2546 41.0604 31.78 40.8432 32.3389 40.8432C32.8979 40.8432 33.4233 41.0604 33.8193 41.4565L35.1337 42.7708L36.448 41.4565C37.2393 40.666 38.6167 40.666 39.408 41.4565C39.7418 41.7894 39.9246 42.2318 39.9246 42.7021V42.8594ZM46.3126 23.2764V29.6643C46.3126 30.1051 45.954 30.4628 45.5141 30.4628H40.0995L39.3433 33.4867C39.293 33.6863 38.9584 33.6855 38.9081 33.4875L38.1528 30.4628H32.7382C32.2982 30.4628 31.9397 30.1051 31.9397 29.6643V23.2764C31.9397 22.8364 32.2982 22.4779 32.7382 22.4779H45.5141C45.954 22.4779 46.3126 22.8364 46.3126 23.2764ZM43.6121 12.896L42.8136 11.299H46.6176L47.4161 12.896H43.6121ZM43.6121 8.10504H47.4161L46.6176 9.70203H42.8136L43.6121 8.10504Z" fill="white"/>
<path d="M35.1338 25.6719H36.7308V27.2689H35.1338V25.6719Z" fill="white"/>
<path d="M38.3276 25.6719H39.9246V27.2689H38.3276V25.6719Z" fill="white"/>
<path d="M41.5215 25.6719H43.1185V27.2689H41.5215V25.6719Z" fill="white"/>
</g>
<defs>
<clipPath id="clip0_201_2215">
<rect width="50" height="50" fill="white"/>
</clipPath>
</defs>
</svg>
