<svg width="50" height="50" viewBox="0 0 50 50" fill="none" xmlns="http://www.w3.org/2000/svg">
<g clip-path="url(#clip0_201_2254)">
<path d="M24.9999 0C23.6662 0 22.5806 1.08564 22.5806 2.41935C22.5806 3.46916 23.2571 4.35634 24.1935 4.69026V9.67742H25.8064V4.69026C26.7428 4.35634 27.4193 3.46916 27.4193 2.41935C27.4193 1.08564 26.3336 0 24.9999 0ZM24.9999 3.22581C24.5557 3.22581 24.1935 2.86353 24.1935 2.41935C24.1935 1.97518 24.5557 1.6129 24.9999 1.6129C25.4441 1.6129 25.8064 1.97518 25.8064 2.41935C25.8064 2.86353 25.4441 3.22581 24.9999 3.22581Z" fill="white"/>
<path d="M9.03312 11.4514C9.3887 11.4514 9.74112 11.364 10.0684 11.2084L13.0225 14.1625L14.1628 13.0222L11.2087 10.0681C11.6356 9.16985 11.4863 8.06413 10.7433 7.32226C9.79901 6.37877 8.26525 6.38035 7.32177 7.32226C6.37907 8.26574 6.37907 9.80029 7.32177 10.7442C7.7943 11.2151 8.41371 11.4514 9.03312 11.4514ZM8.46293 8.46263C8.62005 8.30512 8.82638 8.22715 9.03312 8.22715C9.23945 8.22715 9.44658 8.30512 9.60409 8.46263C9.91832 8.77686 9.91832 9.28838 9.60409 9.60379C9.28946 9.91724 8.77795 9.91802 8.46372 9.60379C8.14909 9.28917 8.1483 8.77686 8.46293 8.46263Z" fill="white"/>
<path d="M9.67742 25.8069V24.194H4.69026C4.35634 23.2576 3.46916 22.5811 2.41935 22.5811C1.08564 22.5811 0 23.6667 0 25.0004C0 26.3341 1.08564 27.4198 2.41935 27.4198C3.46916 27.4198 4.35634 26.7433 4.69026 25.8069H9.67742ZM2.41935 25.8069C1.97518 25.8069 1.6129 25.4446 1.6129 25.0004C1.6129 24.5562 1.97518 24.194 2.41935 24.194C2.86353 24.194 3.22581 24.5562 3.22581 25.0004C3.22581 25.4446 2.86353 25.8069 2.41935 25.8069Z" fill="white"/>
<path d="M13.5952 35.2646L10.0685 38.7913C9.17034 38.3644 8.06462 38.5129 7.32275 39.2567C6.38005 40.2002 6.38005 41.7348 7.32275 42.6783C7.79449 43.1492 8.4139 43.3847 9.03331 43.3847C9.6535 43.3847 10.2725 43.1492 10.7447 42.6775C11.4873 41.9356 11.6358 40.8299 11.2097 39.9317L14.7364 36.405L13.5952 35.2646ZM9.60349 41.5371C9.28965 41.8517 8.77656 41.8525 8.46312 41.5371C8.14849 41.2229 8.14849 40.7113 8.46312 40.3959C8.77735 40.0817 9.28887 40.0817 9.60428 40.3959C9.91772 40.7113 9.91772 41.2229 9.60349 41.5371Z" fill="white"/>
<path d="M25.8064 45.3094V40.3223H24.1935V45.3094C23.2571 45.6433 22.5806 46.5305 22.5806 47.5803C22.5806 48.914 23.6662 49.9997 24.9999 49.9997C26.3336 49.9997 27.4193 48.914 27.4193 47.5803C27.4193 46.5305 26.7428 45.6433 25.8064 45.3094ZM24.9999 48.3868C24.5557 48.3868 24.1935 48.0245 24.1935 47.5803C24.1935 47.1362 24.5557 46.7739 24.9999 46.7739C25.4441 46.7739 25.8064 47.1362 25.8064 47.5803C25.8064 48.0245 25.4441 48.3868 24.9999 48.3868Z" fill="white"/>
<path d="M39.9317 38.7913L36.405 35.2646L35.2646 36.405L38.7913 39.9317C38.3644 40.8299 38.5137 41.9356 39.2567 42.6775C39.7285 43.1484 40.3475 43.3839 40.9669 43.3839C41.5871 43.3839 42.2065 43.1484 42.6783 42.6767C43.621 41.7332 43.621 40.1987 42.6783 39.2548C41.9348 38.5129 40.8291 38.3644 39.9317 38.7913ZM41.5371 41.5371C41.2221 41.8525 40.7098 41.8509 40.3959 41.5371C40.0817 41.2229 40.0817 40.7113 40.3959 40.3959C40.7106 40.0817 41.2221 40.0817 41.5363 40.3959C41.8517 40.7113 41.8517 41.2229 41.5371 41.5371Z" fill="white"/>
<path d="M36.9776 14.1625L39.9317 11.2084C40.2589 11.364 40.6113 11.4514 40.9669 11.4514C41.5863 11.4514 42.2057 11.2159 42.6775 10.7442C43.6202 9.80029 43.6202 8.26574 42.6775 7.32226C41.7332 6.37877 40.1987 6.38035 39.2556 7.32226C38.5129 8.06413 38.3645 9.16985 38.7905 10.0681L35.8364 13.0222L36.9776 14.1625ZM40.3967 8.46263C40.5542 8.30512 40.7606 8.22715 40.9677 8.22715C41.1744 8.22715 41.3808 8.30512 41.5379 8.46263C41.8525 8.77686 41.8525 9.28838 41.5379 9.60379C41.2237 9.91724 40.7122 9.91802 40.3967 9.60379C40.0825 9.28838 40.0825 8.77686 40.3967 8.46263Z" fill="white"/>
<path d="M47.5808 22.5811C46.531 22.5811 45.6438 23.2576 45.3099 24.194H40.3228V25.8069H45.3099C45.6438 26.7433 46.531 27.4198 47.5808 27.4198C48.9145 27.4198 50.0002 26.3341 50.0002 25.0004C50.0002 23.6667 48.9145 22.5811 47.5808 22.5811ZM47.5808 25.8069C47.1366 25.8069 46.7744 25.4446 46.7744 25.0004C46.7744 24.5562 47.1366 24.194 47.5808 24.194C48.025 24.194 48.3873 24.5562 48.3873 25.0004C48.3873 25.4446 48.025 25.8069 47.5808 25.8069Z" fill="white"/>
<path d="M25.0002 41.2745L21.0656 38.8146C14.9444 34.989 11.2905 28.396 11.2905 21.1785C11.2905 18.2485 11.8938 15.4074 13.0834 12.7309L14.7995 8.87109H18.5486V10.484C18.5486 11.3735 19.272 12.0969 20.1615 12.0969C21.051 12.0969 21.7744 11.3735 21.7744 10.484V8.87109H28.226V10.484C28.226 11.3735 28.9494 12.0969 29.8389 12.0969C30.7285 12.0969 31.4518 11.3735 31.4518 10.484V8.87109H35.201L36.917 12.7309C38.1066 15.4066 38.7099 18.2485 38.7099 21.1785C38.7099 28.396 35.056 34.989 28.9348 38.8146L25.0002 41.2745Z" fill="#FD9C12"/>
<path d="M27.1944 33.8708H22.8062L22.1466 31.8902L20.2797 32.8242L17.1763 29.7208L18.1104 27.854L16.1289 27.1944V22.8062L18.1096 22.1466L17.1756 20.2797L20.2789 17.1763L22.1458 18.1104L22.8054 16.1289H27.1936L27.8532 18.1096L29.7201 17.1756L32.8234 20.2789L31.8894 22.1458L33.8708 22.8054V27.1936L31.8902 27.8532L32.8242 29.7201L29.7208 32.8234L27.854 31.8894L27.1944 33.8708ZM23.9686 32.2579H26.032L26.6498 30.4064L27.0081 30.2709C27.1105 30.232 27.2121 30.1918 27.3113 30.1465L27.6602 29.9902L29.4039 30.862L30.8628 29.4031L29.991 27.6594L30.1473 27.3105C30.1926 27.2105 30.232 27.1089 30.2717 27.0069L30.4072 26.649L32.2579 26.0312V23.9678L30.4064 23.35L30.2709 22.9916C30.232 22.8892 30.1918 22.7876 30.1465 22.6884L29.9902 22.3395L30.862 20.5959L29.4031 19.137L27.6594 20.0088L27.3105 19.8524C27.2105 19.8072 27.1089 19.7678 27.0069 19.728L26.649 19.5926L26.0312 17.7418H23.9678L23.35 19.5933L22.9916 19.7288C22.8892 19.7678 22.7876 19.8079 22.6884 19.8532L22.3395 20.0096L20.5959 19.1377L19.137 20.5967L20.0088 22.3403L19.8524 22.6892C19.8072 22.7892 19.7678 22.8908 19.728 22.9928L19.5926 23.3507L17.7418 23.9686V26.032L19.5933 26.6498L19.7288 27.0081C19.7678 27.1105 19.8079 27.2121 19.8532 27.3113L20.0096 27.6602L19.1377 29.4039L20.5967 30.8628L22.3403 29.991L22.6892 30.1473C22.7892 30.1926 22.8908 30.232 22.9928 30.2717L23.3507 30.4072L23.9686 32.2579Z" fill="white"/>
<path d="M25 29.0323C22.7768 29.0323 20.9678 27.2233 20.9678 25C20.9678 22.7768 22.7768 20.9678 25 20.9678C27.2233 20.9678 29.0323 22.7768 29.0323 25C29.0323 27.2233 27.2233 29.0323 25 29.0323ZM25 22.5807C23.6663 22.5807 22.5807 23.6663 22.5807 25C22.5807 26.3337 23.6663 27.4194 25 27.4194C26.3337 27.4194 27.4194 26.3337 27.4194 25C27.4194 23.6663 26.3337 22.5807 25 22.5807Z" fill="white"/>
</g>
<defs>
<clipPath id="clip0_201_2254">
<rect width="50" height="50" fill="white"/>
</clipPath>
</defs>
</svg>
