<svg width="50" height="50" viewBox="0 0 50 50" fill="none" xmlns="http://www.w3.org/2000/svg">
<g clip-path="url(#clip0_13_2424)">
<path d="M44.5312 39.8438H38.2812V35.9375H44.5312V39.8438Z" fill="#FD9C12"/>
<path d="M11.7188 5.46875H5.46875V1.5625H11.7188V5.46875Z" fill="#FD9C12"/>
<path d="M17.1875 39.0625H9.375V35.1562H17.1875V39.0625Z" fill="#FD9C12"/>
<path d="M41.5609 14.557L44.0484 19.5312H47.6562V10.9937C48.2117 10.3773 48.7031 9.70391 49.1156 8.98125L49.2188 8.80156V7.03125H47.6562V0.78125H44.0766L40.525 7.03125H20.3125C18.7828 7.03125 17.4 7.66406 16.4062 8.68047V3.125C16.4062 1.83281 15.3547 0.78125 14.0625 0.78125H3.125C1.83281 0.78125 0.78125 1.83281 0.78125 3.125V12.5C0.78125 13.7922 1.83281 14.8438 3.125 14.8438H11.1375C8.98516 17.7789 7.8125 21.3258 7.8125 25C7.8125 27.4266 8.33359 29.832 9.31875 32.0312H6.25V38.2812H0.78125V40.0461L3.95078 45.7516C3.73672 45.9422 3.53906 46.1375 3.35391 46.3227C2.60938 47.068 2.02031 47.6562 0.78125 47.6562V49.2188C2.66797 49.2188 3.66172 48.2258 4.45938 47.4273C5.20469 46.682 5.79375 46.0938 7.03281 46.0938C8.27187 46.0938 8.86094 46.682 9.60625 47.4273C10.4039 48.2258 11.3977 49.2188 13.2844 49.2188C15.1703 49.2188 16.1633 48.2258 16.9609 47.4273C17.7055 46.682 18.2937 46.0938 19.532 46.0938C20.7703 46.0938 21.3586 46.682 22.1039 47.4273C22.9016 48.2258 23.8953 49.2188 25.7812 49.2188V47.6562C24.5422 47.6562 23.9539 47.068 23.2086 46.3227C23.1602 46.2742 23.1078 46.2234 23.0578 46.1742C24.3484 45.1711 25.2383 43.75 25.5953 42.1656C28.4297 42.0687 31.1594 41.293 33.5938 39.8828V46.875C33.5938 48.1672 34.6453 49.2188 35.9375 49.2188H46.875C48.1672 49.2188 49.2188 48.1672 49.2188 46.875V37.5C49.2188 36.2078 48.1672 35.1562 46.875 35.1562H38.8617C41.0148 32.2219 42.1875 28.6742 42.1875 25C42.1875 21.3258 41.0148 17.7789 38.8625 14.8438H39.0141C39.8719 14.8438 40.7258 14.7445 41.5609 14.557ZM39.0141 13.2812H35.9375V11.7188H26.8609L27.6422 13.2812H17.1875C16.7563 13.2812 16.4062 12.9312 16.4062 12.5C16.4062 12.2328 16.4336 11.9711 16.4852 11.7188H23.4375C24.7297 11.7188 25.7812 10.6672 25.7812 9.375V8.59375H47.5258C47.1695 9.15781 46.7484 9.675 46.2891 10.1562H39.3609L40.8375 13.1094C40.2359 13.2203 39.6266 13.2812 39.0141 13.2812ZM40.5891 24.2188H31.2336C31.2109 22.7672 31.1242 21.3359 30.9789 19.9547L32.3297 22.6562H35.9375V17.9688H38.9477C39.9234 19.9023 40.4797 22.0281 40.5891 24.2188ZM25.7812 40.3508V38.2812H21.5766L19.2328 33.5938H28.8437C28.0969 37.1063 26.9484 39.568 25.7812 40.3508ZM20.8594 32.0312C20.5445 30.0844 20.3641 27.9562 20.3289 25.7812H29.6742C29.6367 28.0492 29.443 30.1562 29.1352 32.0312H20.8594ZM9.41094 24.2188C9.52031 22.0281 10.0773 19.9023 11.0523 17.9688H19.2727C18.9695 19.9234 18.7969 22.0414 18.7625 24.2188H9.41094ZM20.85 17.9688H29.1406C29.4555 19.9156 29.6359 22.0445 29.6711 24.2188H20.3242C20.3594 22.0312 20.5367 19.907 20.85 17.9688ZM28.4234 14.8438L29.2047 16.4062H21.1422C21.2563 15.8641 21.3836 15.3445 21.5203 14.8438H28.4234ZM29.3891 13.2812H34.375V21.0938H33.2953L29.3891 13.2812ZM31.2437 25.7812H40.5891C40.4797 27.9727 39.9227 30.0977 38.9477 32.0312H30.7234C31.0336 30.0352 31.2094 27.9008 31.2437 25.7812ZM46.0938 17.9688H45.0141L41.8891 11.7188H46.0938V17.9688ZM44.9859 2.34375H46.0938V7.03125H42.3219L44.9859 2.34375ZM20.3125 8.59375H24.2188V9.375C24.2188 9.80625 23.8687 10.1562 23.4375 10.1562H17.2078C17.9211 9.21328 19.0414 8.59375 20.3125 8.59375ZM2.34375 12.5V3.125C2.34375 2.69375 2.69375 2.34375 3.125 2.34375H14.0625C14.4937 2.34375 14.8438 2.69375 14.8438 3.125V12.5C14.8438 12.9312 14.4937 13.2812 14.0625 13.2812H3.125C2.69375 13.2812 2.34375 12.9312 2.34375 12.5ZM14.0625 14.8438C14.6648 14.8438 15.2094 14.6086 15.625 14.2344C16.0406 14.6094 16.5852 14.8438 17.1875 14.8438H19.9016C19.7734 15.3469 19.6531 15.8672 19.5453 16.4062H11.9672C12.325 15.8641 12.7141 15.3414 13.1406 14.8438H14.0625ZM9.39922 25.7812H18.7664C18.8008 27.9469 18.975 30.0711 19.2789 32.0312H18.4523H17.2398H11.0516C10.0742 30.0953 9.50859 27.9586 9.39922 25.7812ZM7.8125 33.5938H17.2391H17.4852L19.8289 38.2812H7.8125V33.5938ZM24.2188 39.8438V40.625C24.2188 40.8891 24.1969 41.1492 24.1594 41.4062H3.32422L2.45625 39.8438H24.2188ZM21.8062 45.1469C21.218 44.7891 20.4914 44.5312 19.532 44.5312C17.6469 44.5312 16.6539 45.5242 15.8562 46.3227C15.1117 47.068 14.5227 47.6562 13.2844 47.6562C12.0453 47.6562 11.4563 47.068 10.7109 46.3227C9.9125 45.5242 8.91953 44.5312 7.03281 44.5312C6.32812 44.5312 5.74844 44.6703 5.25703 44.8852L4.19219 42.9688H23.6789C23.2641 43.8398 22.6234 44.593 21.8062 45.1469ZM47.6562 37.5V46.875C47.6562 47.3063 47.3063 47.6562 46.875 47.6562H35.9375C35.5062 47.6562 35.1562 47.3063 35.1562 46.875V37.5C35.1562 37.0687 35.5062 36.7188 35.9375 36.7188H46.875C47.3063 36.7188 47.6562 37.0687 47.6562 37.5ZM35.9375 35.1562C34.6453 35.1562 33.5938 36.2078 33.5938 37.5V38.0391C31.8672 39.1805 29.9539 39.9547 27.9422 40.3375C29.05 38.7859 29.8898 36.3805 30.4461 33.5938H38.032C37.6742 34.1359 37.2852 34.6586 36.8586 35.1562H35.9375ZM38.032 16.4062H35.9375V14.8438H36.8594C37.2859 15.3414 37.675 15.8641 38.032 16.4062Z" fill="#23272B"/>
<path d="M44.5312 44.5312H46.0938V46.0938H44.5312V44.5312Z" fill="#23272B"/>
<path d="M41.4062 44.5312H42.9688V46.0938H41.4062V44.5312Z" fill="#23272B"/>
<path d="M11.7188 10.1562H13.2812V11.7188H11.7188V10.1562Z" fill="#23272B"/>
<path d="M8.59375 10.1562H10.1562V11.7188H8.59375V10.1562Z" fill="#23272B"/>
</g>
<defs>
<clipPath id="clip0_13_2424">
<rect width="50" height="50" fill="white"/>
</clipPath>
</defs>
</svg>
