<svg width="872" height="244" viewBox="0 0 872 244" fill="none" xmlns="http://www.w3.org/2000/svg">
<mask id="mask0_15_228" style="mask-type:alpha" maskUnits="userSpaceOnUse" x="403" y="0" width="469" height="194">
<path d="M403.69 100.163L864.303 0.00537109L871.458 90.2569L403.69 193.716V100.163Z" fill="#C4C4C4"/>
</mask>
<g mask="url(#mask0_15_228)">
<mask id="mask1_15_228" style="mask-type:alpha" maskUnits="userSpaceOnUse" x="414" y="-82" width="445" height="258">
<path d="M414.146 11.9634L858.237 -81.441V81.601L414.146 175.005V11.9634Z" fill="#C4C4C4"/>
</mask>
<g mask="url(#mask1_15_228)">
<path d="M830.537 -86.8022C847.812 -80.2496 883.256 -67.1443 886.83 -67.1443M810.879 -82.3345C825.176 -76.0797 857.522 -62.8553 872.534 -59.996C887.545 -57.1367 905.595 -55.2304 912.743 -54.6347M762.628 -71.612C788.243 -68.0379 843.404 -59.6386 859.13 -54.6347C874.857 -49.6309 897.851 -43.6144 907.382 -41.2316M745.651 -67.1443C783.775 -58.5068 861.275 -41.2316 866.279 -41.2316C871.283 -41.2316 886.235 -35.2747 893.085 -32.2962M700.974 -54.6347C737.609 -49.5713 812.845 -38.7297 820.708 -35.8704C828.571 -33.011 854.365 -29.3177 866.279 -27.8285M872.534 -17.106C819.219 -20.6802 708.837 -27.8285 693.825 -27.8285C678.814 -27.8285 657.786 -41.5295 649.148 -48.38M872.534 -1.02225L618.768 -32.2962M553.539 -17.106L859.13 13.2744M866.279 28.4646L688.464 4.33899C633.362 0.466981 522.086 -7.09834 517.797 -6.3835C513.508 -5.66867 446.91 11.7852 414.147 20.4227M414.147 37.4L517.797 13.2744C572.899 15.6572 684.175 20.4227 688.464 20.4227C693.825 20.4227 842.153 41.8677 848.408 42.7613C853.412 43.4761 857.641 43.0591 859.13 42.7613M859.13 61.5257C857.343 62.1213 851.982 63.134 844.834 62.4192C837.685 61.7044 737.609 39.485 688.464 28.4646L517.797 32.9323L408.785 50.8032M414.147 62.4192L688.464 42.7613C729.269 52.2924 812.845 71.5333 820.708 72.2482C828.571 72.963 835.898 75.5245 838.579 76.7159H859.13M838.579 94.5867L688.464 56.1644C645.574 61.5257 558.543 72.2482 553.539 72.2482C548.535 72.2482 458.526 75.2266 414.147 76.7159M414.147 87.4384L520.478 91.9061L688.464 67.7804L866.279 118.712M774.244 108.883L688.464 81.1836L517.797 113.351L390.915 94.5867M414.147 113.351L524.052 132.115L688.464 94.5867L793.008 132.115M722.419 132.115L683.103 113.351L517.797 154.454L399.85 132.115M399.85 160.709L529.414 179.473" stroke="#D844EB" stroke-width="3"/>
</g>
</g>
<path d="M-18 123.66L242.823 59.3542V141.86L-18 206.165V123.66Z" fill="#DD0ED6"/>
<path d="M150.676 161.143L411.5 96.838V179.343L150.676 243.649V161.143Z" fill="#FDE565"/>
</svg>
