<svg width="60" height="54" viewBox="0 0 60 54" fill="none" xmlns="http://www.w3.org/2000/svg">
<path d="M38.9933 31.001C39.5582 33.8899 37.513 36.8958 34.1727 37.5512C30.8324 38.2066 27.8063 36.1957 27.2414 33.3068C26.6765 30.4179 28.7217 27.4119 32.062 26.7565C35.4023 26.1012 38.4284 28.1121 38.9933 31.001Z" stroke="#FDE565" stroke-width="3"/>
<path d="M35.186 21.6679C37.2316 14.5151 42.2187 0.615588 45.8017 2.24015C50.2804 4.27086 49.2273 12.2638 51.2137 13.7775C53.2 15.2911 57.6856 16.3218 57.6616 19.8217C57.6475 21.8833 57.1214 25.8182 55.1214 26.3045C53.5213 26.6936 43.7946 28.0603 39.1313 28.6951" stroke="#FDE565" stroke-width="3" stroke-linecap="round"/>
<path d="M22.543 45.582C18.6541 51.9214 15.5377 53.5424 12.5222 51.0134C8.75279 47.8522 14.1015 42.5063 12.5941 40.5138C11.0867 38.5213 4.43597 36.7222 4.50566 34.6618C4.57535 32.6014 6.63427 29.0311 8.69121 29.1009C10.3368 29.1567 22.0449 29.9668 26.7071 30.6103" stroke="#FDE565" stroke-width="3" stroke-linecap="round"/>
</svg>
