<svg width="236" height="110" viewBox="0 0 236 110" fill="none" xmlns="http://www.w3.org/2000/svg">
<path d="M144.106 27.5C146.602 30.8333 154.788 38.1 167.567 40.5" stroke="#FDE565" stroke-width="3" stroke-linecap="round"/>
<path d="M208.499 2C233.956 2 215.687 20.4 208.499 28C201.311 35.6 197.517 38.5 196.519 39C202.841 38.5 217.384 34.7 224.971 23.5C232.558 12.3 234.122 13.1667 233.956 15" stroke="#FDE565" stroke-width="3" stroke-linecap="round"/>
<path d="M193.022 43.5C193.022 47.849 189.295 51.5 184.539 51.5C179.782 51.5 176.055 47.849 176.055 43.5C176.055 39.151 179.782 35.5 184.539 35.5C189.295 35.5 193.022 39.151 193.022 43.5Z" stroke="#FDE565" stroke-width="3"/>
<path d="M149.428 8.96623C136.119 14.9722 102.914 27.4873 76.5588 29.4992C50.2037 31.5111 27.9724 27.6878 20.1512 25.5247C16.8251 29.3595 13.0693 39.5279 24.6545 49.5226" stroke="#FDE565" stroke-width="3" stroke-linecap="round"/>
<path d="M58.2469 54.0075C58.2469 54.0075 51.695 56.3055 40.7777 57.6655C17.8173 60.5257 11.4209 58.0681 3.31615 57.6825C0.91439 62.1566 -0.514794 72.9036 12.9826 80.0989" stroke="#FDE565" stroke-width="3" stroke-linecap="round"/>
<path d="M94.6882 58.491C81.7155 70.9968 72.2458 73.4004 62.2511 78.0056C43.7858 86.514 30.6476 84.8578 22.7568 86.7503C21.6953 91.7177 23.3134 102.438 38.2781 105.579" stroke="#FDE565" stroke-width="3" stroke-linecap="round"/>
</svg>
