<svg width="100" height="54" viewBox="0 0 100 54" fill="none" xmlns="http://www.w3.org/2000/svg">
<ellipse rx="3.77688" ry="3.78316" transform="matrix(0.999091 -0.0426307 0.042489 0.999097 33.8063 15.1563)" fill="white" fill-opacity="0.7"/>
<ellipse rx="3.77688" ry="3.78316" transform="matrix(0.999091 -0.0426307 0.042489 0.999097 4.83458 19.6383)" fill="white" fill-opacity="0.7"/>
<ellipse rx="3.77688" ry="3.78316" transform="matrix(0.999091 -0.0426307 0.042489 0.999097 36.17 45.3483)" fill="white" fill-opacity="0.7"/>
<ellipse rx="3.77688" ry="3.78316" transform="matrix(0.999091 -0.0426307 0.042489 0.999097 7.19835 49.8301)" fill="white" fill-opacity="0.7"/>
<ellipse rx="3.77688" ry="3.78316" transform="matrix(0.999091 -0.0426307 0.042489 0.999097 63.8097 9.54854)" fill="white" fill-opacity="0.7"/>
<ellipse rx="3.77688" ry="3.78316" transform="matrix(0.999091 -0.0426307 0.042489 0.999097 66.1739 39.7405)" fill="white" fill-opacity="0.7"/>
<ellipse rx="3.77688" ry="3.78316" transform="matrix(0.999091 -0.0426307 0.042489 0.999097 92.7355 3.98674)" fill="white" fill-opacity="0.7"/>
<ellipse rx="3.77688" ry="3.78316" transform="matrix(0.999091 -0.0426307 0.042489 0.999097 95.0997 34.1787)" fill="white" fill-opacity="0.7"/>
</svg>
