<svg width="70" height="72" viewBox="0 0 70 72" fill="none" xmlns="http://www.w3.org/2000/svg">
<path d="M46.4949 43.4798C38.8909 41.0261 27.363 44.2758 21.5499 46.7601L17.5431 22.3458L31.5199 23.4798L38.5147 11.8115L50.7613 22.3458L61.6015 18.8395L64.4649 51.4798C64.4649 52.9798 53.3912 45.7052 46.4949 43.4798ZM46.4949 43.4798C38.8984 43.2837 25.5692 42.0889 17.5432 48.9798C14.049 51.9798 11.0108 56.7386 10.5549 60.9798C10.1901 64.3728 6.33723 66.8472 3.06737 67.4798C5.30001 70.1131 12.3662 70.7966 19.0407 69.9798C25.7152 69.1631 33.5321 62.4132 34.9657 57.5874" stroke="#FDE565" stroke-width="3" stroke-linecap="round"/>
<circle cx="37.5" cy="6.5" r="4.5" stroke="#FDE565" stroke-width="4"/>
<circle cx="13.5" cy="17.5" r="4.5" stroke="#FDE565" stroke-width="4"/>
<circle cx="63.5" cy="13.5" r="4.5" stroke="#FDE565" stroke-width="4"/>
</svg>
