<svg width="445" height="176" viewBox="0 0 445 176" fill="none" xmlns="http://www.w3.org/2000/svg">
<path d="M416.537 -86.8022C433.812 -80.2496 469.256 -67.1443 472.83 -67.1443M396.879 -82.3345C411.176 -76.0797 443.522 -62.8553 458.534 -59.996C473.545 -57.1367 491.595 -55.2304 498.743 -54.6347M348.628 -71.612C374.243 -68.0379 429.404 -59.6386 445.13 -54.6347C460.857 -49.6309 483.851 -43.6144 493.382 -41.2316M331.651 -67.1443C369.775 -58.5068 447.275 -41.2316 452.279 -41.2316C457.283 -41.2316 472.235 -35.2747 479.085 -32.2962M286.974 -54.6347C323.609 -49.5713 398.845 -38.7297 406.708 -35.8704C414.571 -33.011 440.365 -29.3177 452.279 -27.8285M458.534 -17.106C405.219 -20.6802 294.837 -27.8285 279.825 -27.8285C264.814 -27.8285 243.786 -41.5295 235.148 -48.38M458.534 -1.02225L204.768 -32.2962M139.539 -17.106L445.13 13.2744M452.279 28.4646L274.464 4.33899C219.362 0.466981 108.086 -7.09834 103.797 -6.3835C99.5085 -5.66867 32.9098 11.7852 0.146636 20.4227M0.146636 37.4L103.797 13.2744C158.899 15.6572 270.175 20.4227 274.464 20.4227C279.825 20.4227 428.153 41.8677 434.408 42.7613C439.412 43.4761 443.641 43.0591 445.13 42.7613M445.13 61.5257C443.343 62.1213 437.982 63.134 430.834 62.4192C423.685 61.7044 323.609 39.485 274.464 28.4646L103.797 32.9323L-5.21461 50.8032M0.146636 62.4192L274.464 42.7613C315.269 52.2924 398.845 71.5333 406.708 72.2482C414.571 72.963 421.898 75.5245 424.579 76.7159H445.13M424.579 94.5867L274.464 56.1644C231.574 61.5257 144.543 72.2482 139.539 72.2482C134.535 72.2482 44.5259 75.2266 0.146636 76.7159M0.146636 87.4384L106.478 91.9061L274.464 67.7804L452.279 118.712M360.244 108.883L274.464 81.1836L103.797 113.351L-23.0854 94.5867M0.146636 113.351L110.052 132.115L274.464 94.5867L379.008 132.115M308.419 132.115L269.103 113.351L103.797 154.454L-14.15 132.115M-14.15 160.709L115.414 179.473" stroke="#D844EB" stroke-width="3"/>
</svg>
