<svg width="165" height="81" viewBox="0 0 165 81" fill="#FF00FD" xmlns="http://www.w3.org/2000/svg">
<path d="M162 -30L-6 6.5" stroke="#4C15A0" stroke-width="2"/>
<path d="M162 -24L-6 12.5" stroke="#4C15A0" stroke-width="2"/>
<path d="M162 -17L-6 19.5" stroke="#4C15A0" stroke-width="2"/>
<path d="M162 -10L-6 26.5" stroke="#4C15A0" stroke-width="2"/>
<path d="M163 -3L-5 33.5" stroke="#4C15A0" stroke-width="2"/>
<path d="M163 4L-5 40.5" stroke="#4C15A0" stroke-width="2"/>
<path d="M163 11L-5 47.5" stroke="#4C15A0" stroke-width="2"/>
<path d="M163 18L-5 54.5" stroke="#4C15A0" stroke-width="2"/>
<path d="M164 25L-4 61.5" stroke="#4C15A0" stroke-width="2"/>
<path d="M164 32L-4 68.5" stroke="#4C15A0" stroke-width="2"/>
<path d="M164 40L-4 76.5" stroke="#4C15A0" stroke-width="2"/>
<path d="M164 47L-4 83.5" stroke="#4C15A0" stroke-width="2"/>
<path d="M164 54L-4 90.5" stroke="#4C15A0" stroke-width="2"/>
<path d="M164 61L-4 97.5" stroke="#4C15A0" stroke-width="2"/>
<path d="M164 68L-4 104.5" stroke="#4C15A0" stroke-width="2"/>
<path d="M163 76L-5 112.5" stroke="#4C15A0" stroke-width="2"/>
</svg>
