<svg width="34" height="25" viewBox="0 0 34 25" fill="none" xmlns="http://www.w3.org/2000/svg">
<rect x="1.17242" y="1.11987" width="14.069" height="8.2069" fill="#FFDE17"/>
<path d="M31.4493 14.8818L29.3671 6.55259C29.344 6.46008 29.3163 6.3697 29.2851 6.28125H30.0156V0.304688H27.0273C25.3796 0.304688 24.0391 1.64523 24.0391 3.29297C24.0391 3.64213 24.0998 3.97729 24.2104 4.28906H22.0469V6.28125H24.0391V18.2344H19.8088L18.297 10.6757C18.0614 9.49724 17.1418 8.59259 16.0039 8.3427V0.304688H0V10.265H6.7231C3.90416 12.2502 2.05859 15.5287 2.05859 19.2305V20.2266H6.14318C6.60589 22.4971 8.61827 24.2109 11.0234 24.2109C13.4286 24.2109 15.4409 22.4971 15.9037 20.2266H24.1393C24.602 22.4971 26.6143 24.2109 29.0195 24.2109C31.4248 24.2109 33.437 22.4971 33.8998 20.2266H34V19.2305C34 17.4115 33.014 15.7555 31.4493 14.8818ZM16.3436 11.0664L16.5818 12.2578H7.38776C8.92746 11.0126 10.8858 10.2656 13.0156 10.2656H15.3668C15.8399 10.2656 16.2507 10.6024 16.3436 11.0664ZM1.99219 2.29688H14.0117V4.28906H1.99219V2.29688ZM1.99219 8.27344V6.28125H14.0117V8.27344C13.319 8.27344 2.71582 8.27344 1.99219 8.27344ZM11.0234 22.2188C9.72486 22.2188 8.61767 21.3859 8.20648 20.2259H13.8403C13.4292 21.3859 12.322 22.2188 11.0234 22.2188ZM4.10577 18.2344C4.2682 16.7721 4.78391 15.4149 5.56518 14.25H16.9803L17.7772 18.2344H4.10577ZM27.0273 2.29688H28.0234V4.28906H27.0273C26.4781 4.28906 26.0312 3.84221 26.0312 3.29297C26.0312 2.74372 26.4781 2.29688 27.0273 2.29688ZM29.0195 22.2188C27.721 22.2188 26.6138 21.3859 26.2026 20.2259H31.8364C31.4253 21.3859 30.3181 22.2188 29.0195 22.2188ZM26.0312 18.2344V6.28125H26.468C26.9259 6.28125 27.3233 6.5915 27.4343 7.03576L29.7477 16.2893C29.9296 16.4067 31.3001 16.7123 31.8374 18.2344H26.0312Z" fill="black"/>
</svg>
