<svg width="21" height="15" viewBox="0 0 21 15" fill="none" xmlns="http://www.w3.org/2000/svg">
<rect x="0.724243" y="0.503418" width="8.68966" height="5.06897" fill="#FFDE17"/>
<path d="M19.4246 9.0035L18.1385 3.859C18.1242 3.80186 18.1071 3.74604 18.0878 3.69141H18.5391V0H16.6934C15.6756 0 14.8477 0.827982 14.8477 1.8457C14.8477 2.06136 14.8852 2.26837 14.9535 2.46094H13.6172V3.69141H14.8477V11.0742H12.2348L11.3011 6.40562C11.1556 5.67775 10.5876 5.119 9.88477 4.96465V0H0V6.15193H4.1525C2.41139 7.3781 1.27148 9.40304 1.27148 11.6895V12.3047H3.79431C4.08011 13.7071 5.32305 14.7656 6.80859 14.7656C8.29414 14.7656 9.53703 13.7071 9.82287 12.3047H14.9095C15.1953 13.7071 16.4382 14.7656 17.9238 14.7656C19.4094 14.7656 20.6523 13.7071 20.9381 12.3047H21V11.6895C21 10.566 20.391 9.54315 19.4246 9.0035ZM10.0946 6.64691L10.2417 7.38281H4.56303C5.51402 6.61373 6.72361 6.15234 8.03906 6.15234H9.49126C9.7835 6.15234 10.0372 6.36033 10.0946 6.64691ZM1.23047 1.23047H8.6543V2.46094H1.23047V1.23047ZM1.23047 4.92188V3.69141H8.6543V4.92188C8.22642 4.92188 1.67742 4.92188 1.23047 4.92188ZM6.80859 13.5352C6.00653 13.5352 5.32268 13.0207 5.06871 12.3043H8.54844C8.29451 13.0207 7.61065 13.5352 6.80859 13.5352ZM2.53591 11.0742C2.63624 10.1711 2.95477 9.33278 3.43731 8.61328H10.4879L10.98 11.0742H2.53591ZM16.6934 1.23047H17.3086V2.46094H16.6934C16.3541 2.46094 16.0781 2.18494 16.0781 1.8457C16.0781 1.50646 16.3541 1.23047 16.6934 1.23047ZM17.9238 13.5352C17.1218 13.5352 16.4379 13.0207 16.1839 12.3043H19.6637C19.4097 13.0207 18.7259 13.5352 17.9238 13.5352ZM16.0781 11.0742V3.69141H16.3479C16.6307 3.69141 16.8762 3.88303 16.9447 4.15743L18.3736 9.87283C18.4859 9.94535 19.3324 10.1341 19.6643 11.0742H16.0781Z" fill="white"/>
</svg>
