<svg width="29" height="29" viewBox="0 0 29 29" fill="none" xmlns="http://www.w3.org/2000/svg">
<path d="M1 1H14V14H10.75L7.5 15.5L4.25 14H1V1Z" fill="#FFDE17"/>
<path d="M6.55103 21.8582C5.5688 22.8404 5.56704 24.4375 6.54587 25.4218C8.75205 27.6994 8.18363 27.1173 8.30362 27.2362C9.90411 28.8367 12.2811 29.4171 14.4442 28.6896C21.5178 26.3105 26.3106 21.5177 28.6896 14.4442C29.4251 12.2576 28.8188 9.886 27.2362 8.30358C27.1258 8.19215 27.7594 8.81025 25.4219 6.54589C24.4348 5.56434 22.8423 5.56678 21.8582 6.55099L18.8599 9.54934C17.8735 10.5357 17.8738 12.132 18.8599 13.1181L19.7796 14.0378C20.012 14.2702 20.0851 14.6155 19.9658 14.9177C19.0048 17.3535 17.3535 19.0048 14.9178 19.9658C14.6156 20.0851 14.2702 20.0119 14.0378 19.7796L13.1181 18.8599C12.1318 17.8735 10.5355 17.8737 9.54932 18.8599L6.55103 21.8582ZM7.75271 23.0599L10.751 20.0616C11.0731 19.7395 11.5943 19.7396 11.9164 20.0616L12.8361 20.9813C13.5474 21.6926 14.6093 21.9147 15.5415 21.5466C18.3988 20.4193 20.4193 18.3989 21.5467 15.5414C21.9145 14.6092 21.6925 13.5473 20.9813 12.836L20.0616 11.9163C19.7395 11.5942 19.7396 11.073 20.0616 10.751L23.0599 7.75262C23.3582 7.45436 23.8616 7.40463 24.235 7.76208L26.0392 9.50985C27.1827 10.6569 27.5908 12.3803 27.0789 13.9024C24.8784 20.4451 20.4452 24.8783 13.9025 27.0788C12.3803 27.5909 10.6569 27.1826 9.50978 26.039C7.31227 23.7705 7.86935 24.3429 7.75277 24.2253C7.4314 23.904 7.4314 23.3812 7.75271 23.0599Z" fill="black"/>
<path d="M0 0.849727V14.0488C0 14.5181 0.380451 14.8986 0.849727 14.8986H5.14017L7.17334 16.5251C7.48372 16.7734 7.92467 16.7734 8.23499 16.5251L10.2682 14.8986H14.502C14.9713 14.8986 15.3517 14.5181 15.3517 14.0488V0.849727C15.3517 0.380451 14.9713 0 14.502 0H0.849727C0.380451 0 0 0.380395 0 0.849727ZM1.69945 1.69945H13.6523V13.1991H9.97013C9.77719 13.1991 9.58996 13.2648 9.43928 13.3853L7.70419 14.7734L5.96911 13.3853C5.81842 13.2648 5.63126 13.1991 5.43825 13.1991H1.69945V1.69945Z" fill="black"/>
<path fill-rule="evenodd" clip-rule="evenodd" d="M12 5.06216C11.5033 4.84022 11.0191 4.65307 10.5434 4.50069C8.45956 3.8331 6.54044 3.8331 4.45658 4.50069C3.98094 4.65307 3.49672 4.84022 3 5.06216L7.5 11L12 5.06216ZM9.57413 5.77968C8.85187 5.58953 8.16873 5.5 7.5 5.5C6.83127 5.5 6.14813 5.58953 5.42587 5.77968L7.5 8.51654L9.57413 5.77968Z" fill="black"/>
</svg>
