<svg width="24" height="20" viewBox="0 0 24 20" fill="none" xmlns="http://www.w3.org/2000/svg">
<path fill-rule="evenodd" clip-rule="evenodd" d="M12.4578 2.98661C12.4578 3.41731 12.0696 3.76648 11.5907 3.76648C11.1118 3.76648 10.7236 3.41731 10.7236 2.98657V0.779871C10.7236 0.349175 11.1118 0 11.5907 0C12.0696 0 12.4578 0.349175 12.4578 0.779871V2.98661ZM19.841 4.9427L23.1304 13.1773C23.1637 13.2604 23.1814 13.3513 23.1814 13.4409V18.4157C23.1814 18.8464 22.7932 19.1956 22.3143 19.1956H0.86713C0.388243 19.1956 0 18.8464 0 18.4157V13.4409C0 13.3494 0.0183821 13.2592 0.0510263 13.1773L3.34048 4.9427C3.46426 4.63307 3.7907 4.4265 4.15658 4.4265H6.77626V1.80331C6.77626 1.37261 7.1645 1.02344 7.64339 1.02344C8.12228 1.02344 8.51052 1.37261 8.51052 1.80331V4.4265H14.6709V1.80331C14.6709 1.37261 15.0592 1.02344 15.5381 1.02344C16.017 1.02344 16.4052 1.37261 16.4052 1.80331V4.4265H19.0249C19.3908 4.4265 19.7173 4.63303 19.841 4.9427ZM6.77626 5.98624H4.76645L2.10005 12.661H21.0813L18.4149 5.98624H16.4051V7.60177C16.4051 8.03246 16.0169 8.38164 15.538 8.38164C15.0591 8.38164 14.6708 8.03246 14.6708 7.60177V5.98624H8.51052V7.60177C8.51052 8.03246 8.12228 8.38164 7.64339 8.38164C7.1645 8.38164 6.77626 8.03246 6.77626 7.60177V5.98624ZM13.7225 14.2208C12.8366 15.7911 10.3447 15.7908 9.45883 14.2208H13.7225ZM1.73426 14.2208V17.6358H21.4472V14.2208H15.5703C15.0934 15.8043 13.4794 16.9602 11.5907 16.9602C9.70196 16.9602 8.08796 15.8042 7.61115 14.2208H1.73426Z" fill="black"/>
</svg>
