<svg width="29" height="24" viewBox="0 0 29 24" fill="none" xmlns="http://www.w3.org/2000/svg">
<path d="M28.0159 16.1625L24.1631 5.43855C24.0183 5.03526 23.6358 4.76629 23.2073 4.76629H20.139V1.3501C20.139 0.789204 19.6842 0.334473 19.1233 0.334473C18.5624 0.334473 18.1077 0.789204 18.1077 1.3501V4.76629H10.8923V1.3501C10.8923 0.789204 10.4376 0.334473 9.87667 0.334473C9.31577 0.334473 8.86104 0.789204 8.86104 1.3501V4.76629H5.79273C5.36419 4.76629 4.98185 5.03531 4.83686 5.43855L0.984081 16.1625C0.945847 16.2691 0.924316 16.3866 0.924316 16.5058V22.9845C0.924316 23.5454 1.37905 24.0001 1.93995 24.0001H27.06C27.6209 24.0001 28.0756 23.5454 28.0756 22.9845V16.5058C28.0756 16.3891 28.0549 16.2708 28.0159 16.1625ZM6.50704 6.79755H8.86104V8.90146C8.86104 9.46236 9.31577 9.91709 9.87667 9.91709C10.4376 9.91709 10.8923 9.46236 10.8923 8.90146V6.79755H18.1076V8.90146C18.1076 9.46236 18.5623 9.91709 19.1232 9.91709C19.6841 9.91709 20.1389 9.46236 20.1389 8.90146V6.79755H22.4929L25.6159 15.4902C24.7323 15.4902 4.05976 15.4902 3.384 15.4902L6.50704 6.79755ZM16.9969 17.5214C15.9592 19.5665 13.0405 19.566 12.003 17.5214H16.9969ZM26.0444 21.9689H2.95557V17.5214H9.83891C10.3974 19.5835 12.2878 21.089 14.5 21.089C16.7122 21.089 18.6025 19.5836 19.161 17.5214H26.0444V21.9689Z" fill="url(#paint0_linear)"/>
<defs>
<linearGradient id="paint0_linear" x1="8.68183" y1="38.449" x2="1.6587" y2="-31.7091" gradientUnits="userSpaceOnUse">
<stop/>
<stop offset="1" stop-color="#EAB314"/>
</linearGradient>
</defs>
</svg>
