<svg width="15" height="15" viewBox="0 0 15 15" fill="none" xmlns="http://www.w3.org/2000/svg">
<path d="M6.40622 7.03124H0.468745C0.209997 7.03124 0 6.82124 0 6.56249C0 6.30375 0.209997 6.09375 0.468745 6.09375H6.40622C6.66496 6.09375 6.87496 6.30375 6.87496 6.56249C6.87496 6.82124 6.66496 7.03124 6.40622 7.03124Z" fill="#989898"/>
<path d="M4.0625 9.37466C3.94246 9.37466 3.82252 9.329 3.7312 9.23722C3.5481 9.054 3.5481 8.75715 3.7312 8.57404L5.74374 6.56162L3.7312 4.54977C3.5481 4.36655 3.5481 4.0697 3.7312 3.8866C3.9143 3.70349 4.21116 3.70349 4.39438 3.8866L6.7381 6.23032C6.9212 6.41342 6.9212 6.71028 6.7381 6.8935L4.39438 9.23722C4.30248 9.329 4.18244 9.37466 4.0625 9.37466Z" fill="#989898"/>
<path d="M9.99985 14.9998C9.31046 14.9998 8.74994 14.4392 8.74994 13.7498V2.49995C8.74994 1.96563 9.08994 1.48876 9.59611 1.31309L13.3511 0.0612388C14.1911 -0.19625 14.9998 0.426873 14.9998 1.25004V12.4999C14.9998 13.0337 14.6598 13.5098 14.1542 13.6861L10.398 14.9386C10.2611 14.9811 10.1343 14.9998 9.99985 14.9998ZM13.7498 0.937503C13.7092 0.937503 13.6748 0.942538 13.638 0.953754L9.89868 2.20057C9.77612 2.24314 9.68743 2.36685 9.68743 2.49995V13.7498C9.68743 13.963 9.9186 14.1068 10.1118 14.0461L13.8511 12.7993C13.973 12.7567 14.0623 12.633 14.0623 12.4999V1.25004C14.0623 1.07815 13.9224 0.937503 13.7498 0.937503Z" fill="#989898"/>
<path d="M5.46874 3.125C5.21 3.125 5 2.91501 5 2.65626V1.71877C5 0.770636 5.77052 0 6.71865 0H13.7498C14.0086 0 14.2186 0.209997 14.2186 0.468745C14.2186 0.727493 14.0086 0.93749 13.7498 0.93749H6.71865C6.28802 0.93749 5.93749 1.28813 5.93749 1.71877V2.65626C5.93749 2.91501 5.72749 3.125 5.46874 3.125Z" fill="#989898"/>
<path d="M9.2187 13.1245H6.71865C5.77052 13.1245 5 12.3539 5 11.4057V10.4683C5 10.2095 5.21 9.99951 5.46874 9.99951C5.72749 9.99951 5.93749 10.2095 5.93749 10.4683V11.4057C5.93749 11.8364 6.28802 12.187 6.71865 12.187H9.2187C9.47745 12.187 9.68745 12.397 9.68745 12.6558C9.68745 12.9145 9.47745 13.1245 9.2187 13.1245Z" fill="#989898"/>
</svg>
