<svg width="16" height="23" viewBox="0 0 16 23" fill="none" xmlns="http://www.w3.org/2000/svg">
<path d="M4.73438 6L7.73438 4.5L10.7344 6V11H4.73438V6Z" fill="#FFDE17"/>
<path d="M12.3432 6.57671C11.9546 6.33843 8.51325 4.22792 8.12442 3.98946C7.88822 3.84466 7.58058 3.84466 7.34438 3.98946C6.95574 4.22783 3.51409 6.33851 3.12563 6.57671C2.80248 6.7749 2.7152 7.17648 2.93063 7.47367C3.14607 7.77095 3.58271 7.85124 3.90568 7.6531L4.2188 7.46108V11.0389C4.2188 11.3961 4.53362 11.6857 4.92193 11.6857H10.5469C10.9352 11.6857 11.25 11.3961 11.25 11.0389V7.46108L11.5632 7.6531C11.8858 7.85085 12.3224 7.77142 12.5382 7.47367C12.7536 7.17648 12.6663 6.7749 12.3432 6.57671ZM9.84379 10.3921H5.62505V6.59866L7.73442 5.30503L9.84379 6.59866V10.3921Z" fill="white"/>
<path d="M7.73438 0C3.46964 0 0 3.19177 0 7.11496C0 11.2253 4.27762 16.5422 7.23389 19.2982C7.36603 19.4213 7.54627 19.4907 7.73438 19.4907C7.92248 19.4907 8.10272 19.4213 8.23486 19.2982C11.2341 16.5022 15.4688 11.2046 15.4688 7.11496C15.4688 3.19177 11.9991 0 7.73438 0ZM7.73419 17.8984C6.15797 16.3101 1.40625 11.1836 1.40625 7.11496C1.40625 3.90508 4.24505 1.29363 7.73438 1.29363C11.2237 1.29363 14.0625 3.90508 14.0625 7.11496C14.0625 11.179 9.30994 16.3093 7.73419 17.8984Z" fill="white"/>
<path d="M3.51562 20.7842C3.12731 20.7842 2.8125 21.0738 2.8125 21.431C2.8125 21.7882 3.12731 22.0778 3.51562 22.0778H11.9531C12.3414 22.0778 12.6562 21.7882 12.6562 21.431C12.6562 21.0738 12.3414 20.7842 11.9531 20.7842H3.51562Z" fill="white"/>
</svg>
