<svg width="9" height="9" viewBox="0 0 9 9" fill="none" xmlns="http://www.w3.org/2000/svg">
<path d="M8.94507 8.41481L6.33064 5.80037C6.82652 5.18818 7.12501 4.40989 7.12501 3.56251C7.12501 1.59815 5.52686 0 3.5625 0C1.59814 0 0 1.59815 0 3.56251C0 5.52688 1.59815 7.12503 3.56251 7.12503C4.40989 7.12503 5.18818 6.82652 5.80037 6.33065L8.41481 8.94509C8.48806 9.0183 8.60675 9.0183 8.67999 8.94509L8.94509 8.67998C9.0183 8.60675 9.0183 8.48802 8.94507 8.41481ZM3.56251 6.37502C2.01161 6.37502 0.750008 5.11342 0.750008 3.56251C0.750008 2.01161 2.01161 0.750008 3.56251 0.750008C5.11342 0.750008 6.37502 2.01161 6.37502 3.56251C6.37502 5.11342 5.11342 6.37502 3.56251 6.37502Z" fill="#FAD317"/>
</svg>
