<svg width="18" height="20" viewBox="0 0 18 20" fill="none" xmlns="http://www.w3.org/2000/svg">
<path d="M16 16L0.5 12.5L1.5 15L17 19L16 16Z" fill="white"/>
<path fill-rule="evenodd" clip-rule="evenodd" d="M3.85192 3.85199C2.71541 4.9885 1.8083 6.29787 1.15579 7.7437C0.504646 9.18654 0.124372 10.7266 0.0255928 12.3211L-4.00543e-05 12.7348L15.3803 16.5936C16.1132 16.7775 16.7775 16.1133 16.5936 15.3803L12.7347 0L12.3211 0.0256328C10.7266 0.124412 9.18647 0.504687 7.74363 1.15583C6.2978 1.80838 4.98843 2.71545 3.85192 3.85199ZM12.3211 0.0256328L12.3211 0.025681L12.3211 0.0256328ZM11.9688 1.05634L15.6237 15.6237L1.0563 11.9688C1.18325 10.6418 1.52281 9.36149 2.06727 8.15504C2.66942 6.82081 3.50679 5.61134 4.55903 4.5591L4.55904 4.55909C5.61126 3.50684 6.82074 2.66949 8.15499 2.0673C9.36142 1.52285 10.6418 1.18329 11.9688 1.05634Z" fill="black"/>
<path d="M0.5 13L1.5 15L17 19L16 16" stroke="black" stroke-linecap="round" stroke-linejoin="round"/>
<path d="M10.4999 10.5L12.9999 13" stroke="black" stroke-linecap="round" stroke-linejoin="round"/>
<path d="M3.16586 13.0001C4.00889 7.97509 7.97493 4.00905 12.9999 3.16602" stroke="black"/>
<path d="M3.85483 10.5415C2.62465 9.98025 1.88042 8.69121 2.00946 7.34521" stroke="black" stroke-linecap="round" stroke-linejoin="round"/>
<path d="M5.25256 7.85623C4.15325 7.3547 3.4882 6.2028 3.60352 5" stroke="black" stroke-linecap="round" stroke-linejoin="round"/>
<path d="M7.25262 5.85623C6.15331 5.3547 5.48826 4.2028 5.60358 3" stroke="black" stroke-linecap="round" stroke-linejoin="round"/>
<path d="M9.98316 4.0627C8.99449 3.61163 8.39636 2.57565 8.50006 1.4939" stroke="black" stroke-linecap="round" stroke-linejoin="round"/>
</svg>
