<svg width="35" height="35" viewBox="0 0 35 35" fill="none" xmlns="http://www.w3.org/2000/svg">
<path d="M33.9746 16.4746H31.7051V13.1067C31.7051 10.7205 29.7745 8.78644 27.3848 8.78644H26.2136V3.22198C26.2136 1.44539 24.7681 0 22.9915 0H20.7949H9.81183H7.61523C5.85006 0 4.39325 1.42652 4.39325 3.22198V10.983H3.22205C1.45428 10.9831 0 12.4118 0 14.2051C0 15.3694 0.620908 16.3914 1.54889 16.9576C1.26308 17.4385 1.09826 17.9994 1.09826 18.5983C1.09826 19.7619 1.71835 20.7832 2.64523 21.3497C2.35286 21.8414 2.19659 22.4043 2.19659 22.9916C2.19659 24.2264 2.87321 25.2133 3.74466 25.7454C3.45933 26.2261 3.29485 26.7865 3.29485 27.3848C3.29485 28.3484 3.7206 29.2139 4.39312 29.8048V31.778C4.39325 33.5546 5.83864 35 7.61523 35H22.9915C23.8527 35 24.6619 34.6646 25.2692 34.0565C25.8781 33.4482 26.2135 32.6391 26.2135 31.7779V30.6067H27.3848C29.4139 30.6067 31.1206 29.2007 31.5822 27.3118H33.9746C34.5409 27.3118 35 26.8527 35 26.2864V17.5C35 16.9337 34.5409 16.4746 33.9746 16.4746ZM10.8372 2.05078H19.7695V3.22198C19.7695 3.86025 19.2535 4.39318 18.5983 4.39318H12.0085C11.3688 4.39318 10.8372 3.87591 10.8372 3.22198V2.05078ZM2.05078 14.2051C2.05078 13.5667 2.56703 13.0339 3.22205 13.0339H4.39325V15.3763H3.22205C2.57626 15.3763 2.05078 14.8509 2.05078 14.2051ZM3.14904 18.5983C3.14904 17.9525 3.67452 17.4271 4.32031 17.4271H7.61523C8.26103 17.4271 8.78644 17.9525 8.78644 18.5983C8.78644 19.2441 8.26103 19.7695 7.61523 19.7695H4.32031C3.67452 19.7695 3.14904 19.2441 3.14904 18.5983ZM4.24744 22.9915C4.24744 22.3531 4.76362 21.8203 5.41864 21.8203H7.61523C8.25494 21.8203 8.78644 22.3376 8.78644 22.9915C8.78644 23.6312 8.2693 24.1627 7.61523 24.1627H5.41864C4.77894 24.1628 4.24744 23.6455 4.24744 22.9915ZM5.3457 27.3848C5.3457 26.739 5.87111 26.2136 6.5169 26.2136C7.1627 26.2136 7.68817 26.739 7.68817 27.3848C7.68817 28.0306 7.1627 28.556 6.5169 28.556C5.87111 28.556 5.3457 28.0306 5.3457 27.3848ZM24.1628 31.778C24.1628 32.4163 23.6467 32.9492 22.9915 32.9492H7.61523C6.96944 32.9492 6.44396 32.4238 6.44396 31.778V30.605C6.4683 30.6055 6.49243 30.6068 6.51684 30.6068C8.29343 30.6068 9.73889 29.1614 9.73889 27.3848C9.73889 26.7866 9.57441 26.2262 9.28915 25.7456C9.91607 25.3628 10.8372 24.461 10.8372 22.9916C10.8372 22.1675 10.5294 21.3915 9.97015 20.7941C10.5075 20.2182 10.8372 19.4463 10.8372 18.5984C10.8372 16.8217 9.39183 15.3763 7.61523 15.3763H6.44403V12.0085V3.22198C6.44403 2.58392 6.95987 2.05078 7.61523 2.05078H8.78644V3.22198C8.78644 4.99358 10.2188 6.44396 12.0085 6.44396H18.5983C20.3699 6.44396 21.8203 5.0117 21.8203 3.22198V2.05078H22.9915C23.6373 2.05078 24.1628 2.57619 24.1628 3.22198V8.78644H18.5983C18.032 8.78644 17.5729 9.24554 17.5729 9.81183C17.5729 13.4053 20.4965 16.3287 24.0899 16.3287H24.1628V31.778ZM32.9492 25.261H30.6797C30.1134 25.261 29.6543 25.7201 29.6543 26.2864C29.6543 27.5379 28.6362 28.556 27.3848 28.556H26.2136V15.3034C26.2136 14.7371 25.7545 14.278 25.1882 14.278H24.0898C21.98 14.278 20.207 12.8073 19.7424 10.8373H27.3848C28.6392 10.8373 29.6543 11.8518 29.6543 13.1068V17.5C29.6543 18.0663 30.1134 18.5254 30.6797 18.5254H32.9492V25.261Z" fill="#FFDE17"/>
</svg>
