<svg width="29" height="29" viewBox="0 0 29 29" fill="none" xmlns="http://www.w3.org/2000/svg">
<path d="M6.55096 21.8582C5.56874 22.8404 5.56698 24.4375 6.54581 25.4218C8.75198 27.6994 8.18357 27.1173 8.30356 27.2362C9.90404 28.8367 12.281 29.4171 14.4441 28.6896C21.5177 26.3105 26.3106 21.5177 28.6896 14.4442C29.425 12.2576 28.8187 9.886 27.2362 8.30358C27.1257 8.19215 27.7593 8.81025 25.4218 6.54589C24.4348 5.56434 22.8423 5.56678 21.8581 6.55099L18.8598 9.54934C17.8735 10.5357 17.8737 12.132 18.8598 13.1181L19.7795 14.0378C20.0119 14.2702 20.085 14.6155 19.9658 14.9177C19.0047 17.3535 17.3535 19.0048 14.9177 19.9658C14.6156 20.0851 14.2701 20.0119 14.0377 19.7796L13.1181 18.8599C12.1317 17.8735 10.5354 17.8737 9.54926 18.8599L6.55096 21.8582ZM7.75265 23.0599L10.7509 20.0616C11.073 19.7395 11.5942 19.7396 11.9164 20.0616L12.8361 20.9813C13.5473 21.6926 14.6092 21.9147 15.5414 21.5466C18.3988 20.4193 20.4192 18.3989 21.5466 15.5414C21.9144 14.6092 21.6925 13.5473 20.9812 12.836L20.0616 11.9163C19.7394 11.5942 19.7396 11.073 20.0616 10.751L23.0599 7.75262C23.3581 7.45436 23.8615 7.40463 24.2349 7.76208L26.0391 9.50985C27.1826 10.6569 27.5908 12.3803 27.0788 13.9024C24.8783 20.4451 20.4451 24.8783 13.9024 27.0788C12.3803 27.5909 10.6568 27.1826 9.50971 26.039C7.31221 23.7705 7.86929 24.3429 7.75271 24.2253C7.43134 23.904 7.43134 23.3812 7.75265 23.0599Z" fill="white"/>
<path d="M0 0.849727V14.0488C0 14.5181 0.380451 14.8986 0.849727 14.8986H5.14017L7.17334 16.5251C7.48372 16.7734 7.92467 16.7734 8.23499 16.5251L10.2682 14.8986H14.502C14.9713 14.8986 15.3517 14.5181 15.3517 14.0488V0.849727C15.3517 0.380451 14.9713 0 14.502 0H0.849727C0.380451 0 0 0.380395 0 0.849727ZM1.69945 1.69945H13.6523V13.1991H9.97013C9.77719 13.1991 9.58996 13.2648 9.43928 13.3853L7.70419 14.7734L5.96911 13.3853C5.81842 13.2648 5.63126 13.1991 5.43825 13.1991H1.69945V1.69945Z" fill="white"/>
</svg>
