<svg width="21" height="21" viewBox="0 0 21 21" fill="none" xmlns="http://www.w3.org/2000/svg">
<rect x="4" y="16" width="13" height="3" fill="#FFDE17"/>
<path d="M4.29091 11.0294L4.29097 11.0294C4.3495 11.0663 4.39751 11.1143 4.43415 11.1693L4.4342 11.1693C4.47318 11.228 4.50003 11.2957 4.51039 11.3688L4.46089 11.3758M4.29091 11.0294L4.45962 15.6318H4.50962M4.29091 11.0294C4.26725 11.0146 4.24212 11.0015 4.21599 10.9907C2.8171 10.3787 1.91362 9.00097 1.91362 7.47728C1.91362 5.3618 3.63456 3.64091 5.74999 3.64091C5.80651 3.64091 5.86564 3.64572 5.92704 3.65108L4.29091 11.0294ZM4.46089 11.3758L4.51037 11.3687C4.51415 11.3947 4.51552 11.4214 4.5151 11.4471L4.5151 11.4467L4.4651 11.4467L4.51509 11.4475L4.50962 15.6318M4.46089 11.3758C4.45162 11.3104 4.42757 11.2497 4.39255 11.197L4.46089 11.3758ZM4.50962 15.6318L4.50955 15.6818H16.4954V15.6318M4.50962 15.6318H16.4954M16.4954 15.6318H16.5454V11.4408M16.4954 15.6318V11.4412M16.4954 11.4412C16.4954 11.4414 16.4954 11.4415 16.4954 11.4416L16.5454 11.4408M16.4954 11.4412V11.4408H16.5454M16.4954 11.4412C16.495 11.4147 16.4964 11.388 16.5007 11.3607M16.5454 11.4408C16.545 11.4164 16.5463 11.3923 16.5501 11.3683M16.5501 11.3683L16.5007 11.3604C16.5007 11.3605 16.5007 11.3606 16.5007 11.3607M16.5501 11.3683C16.5594 11.305 16.5821 11.246 16.6159 11.195M16.5501 11.3683L16.6159 11.195M16.5501 11.3683L16.5006 11.361C16.5006 11.3609 16.5006 11.3608 16.5007 11.3607M16.5501 11.3683L16.6159 11.195M16.5007 11.3607C16.511 11.2904 16.5364 11.2245 16.5742 11.1674L16.6159 11.195M16.6159 11.195L16.5739 11.1678C16.611 11.1104 16.6609 11.0605 16.7216 11.0228M16.6159 11.195C16.6492 11.1435 16.6939 11.0988 16.7483 11.0651M16.7216 11.0228C16.7214 11.0229 16.7213 11.023 16.7212 11.0231L16.7483 11.0651M16.7216 11.0228C16.7443 11.0081 16.7683 10.9959 16.7933 10.9857M16.7216 11.0228C16.7217 11.0227 16.7218 11.0227 16.7219 11.0226L16.7483 11.0651M16.7483 11.0651L16.7933 10.9857M16.7933 10.9857C16.7935 10.9856 16.7937 10.9855 16.794 10.9854L16.8128 11.0318L16.7927 10.986C16.7929 10.9859 16.7931 10.9858 16.7933 10.9857ZM15.046 3.60324C15.0277 3.60485 15.0093 3.60643 14.9911 3.60787C15.0002 3.6238 15.0093 3.63978 15.0183 3.65581C15.0319 3.65467 15.0455 3.65348 15.059 3.65229L15.0591 3.65228C15.0638 3.65188 15.0684 3.65148 15.073 3.65108C15.0675 3.64123 15.062 3.6314 15.0564 3.6216C15.053 3.61547 15.0495 3.60935 15.046 3.60324ZM7.41807 12.3532L7.418 12.3531C7.18824 12.0731 6.89054 11.6526 6.65056 11.2248C6.53059 11.0109 6.42554 10.7961 6.3506 10.5968C6.2754 10.3968 6.23178 10.2156 6.23178 10.0681C6.23178 9.80176 6.01625 9.58623 5.74995 9.58623C5.48365 9.58623 5.26812 9.80176 5.26812 10.0681C5.26812 10.6497 5.58746 11.3327 5.9184 11.8861C6.25071 12.4419 6.60076 12.8768 6.67273 12.9647L6.67286 12.9649C6.76834 13.0806 6.90666 13.1408 7.04581 13.1408C7.1531 13.1408 7.26137 13.105 7.35111 13.0317L7.35122 13.0316C7.55687 12.8626 7.58641 12.5592 7.41807 12.3532ZM14.3271 12.9649L14.3272 12.9647C14.3992 12.8768 14.7493 12.4419 15.0816 11.8862C15.4125 11.3327 15.7318 10.6498 15.7318 10.0681C15.7318 9.80176 15.5163 9.58623 15.25 9.58623C14.9837 9.58623 14.7682 9.80176 14.7682 10.0681C14.7682 10.2151 14.7246 10.3959 14.6494 10.5958C14.5744 10.7949 14.4694 11.0097 14.3494 11.2237C14.1094 11.6518 13.8117 12.073 13.5819 12.3536C13.4134 12.5593 13.4436 12.8627 13.6492 13.0316L13.6809 12.9929L13.6492 13.0316C13.7386 13.105 13.8469 13.1408 13.9546 13.1408C14.0938 13.1408 14.2317 13.0806 14.3271 12.9649ZM15.25 2.67729C14.9929 2.67729 14.7256 2.71016 14.45 2.76029C13.4902 1.65368 12.0769 0.95 10.5 0.95C8.9231 0.95 7.50976 1.65368 6.55002 2.76026C6.2744 2.71016 6.00712 2.67725 5.75003 2.67725C3.10321 2.67729 0.95 4.83049 0.95 7.47728C0.95 9.28063 1.96114 10.9209 3.55099 11.7408L3.54261 18.236C3.54219 18.7203 3.73043 19.1758 4.07254 19.5183C4.41505 19.8613 4.87013 20.05 5.35447 20.05H15.6473C16.6465 20.05 17.4591 19.2373 17.4591 18.2381V11.7344C19.0431 10.9124 20.05 9.27474 20.05 7.47728C20.05 4.83049 17.8968 2.67729 15.25 2.67729ZM16.4955 18.2382C16.4955 18.7056 16.1147 19.0864 15.6472 19.0864H5.35443C5.12779 19.0864 4.91488 18.9981 4.75428 18.8375C4.59409 18.6769 4.50581 18.464 4.50619 18.237L4.50839 16.5955H16.4955V18.2382ZM10.5 9.58623C10.2337 9.58623 10.0182 9.80176 10.0182 10.0681V12.659C10.0182 12.9253 10.2337 13.1408 10.5 13.1408C10.7663 13.1408 10.9818 12.9253 10.9818 12.659V10.0681C10.9818 9.80176 10.7663 9.58623 10.5 9.58623Z" fill="black" stroke="black" stroke-width="0.1"/>
</svg>
