<svg width="20" height="21" viewBox="0 0 20 21" fill="none" xmlns="http://www.w3.org/2000/svg">
<rect x="3.11877" y="16" width="13" height="3" fill="white"/>
<path d="M6.16458 13.0908C6.03978 13.0908 5.91582 13.0368 5.83019 12.9331L6.16458 13.0908ZM6.16458 13.0908C6.26073 13.0908 6.35773 13.0587 6.43825 12.9929M6.16458 13.0908L6.43825 12.9929M6.43825 12.9929C6.62253 12.8415 6.64909 12.5696 6.49812 12.3849L6.43825 12.9929ZM5.7915 12.9647L5.79163 12.9649C5.88711 13.0806 6.02543 13.1408 6.16458 13.1408C6.27188 13.1408 6.38014 13.105 6.46988 13.0317L6.46999 13.0316C6.67564 12.8626 6.70518 12.5592 6.53684 12.3532L6.53678 12.3531C6.30702 12.0731 6.00932 11.6526 5.76934 11.2248C5.64937 11.0109 5.54431 10.7961 5.46937 10.5968C5.39418 10.3968 5.35055 10.2156 5.35055 10.0681C5.35055 9.80176 5.13502 9.58623 4.86872 9.58623C4.60242 9.58623 4.38689 9.80176 4.38689 10.0681C4.38689 10.6497 4.70624 11.3327 5.03718 11.8861C5.36948 12.4419 5.71953 12.8768 5.7915 12.9647Z" fill="black" stroke="black" stroke-width="0.1"/>
<path d="M12.7007 12.3536C12.5322 12.5593 12.5623 12.8627 12.7679 13.0316L12.7679 13.0316C12.8574 13.105 12.9657 13.1408 13.0733 13.1408C13.2125 13.1408 13.3504 13.0806 13.4459 12.9649L13.446 12.9647C13.518 12.8768 13.868 12.4419 14.2003 11.8862C14.5313 11.3327 14.8506 10.6498 14.8506 10.0681C14.8506 9.80176 14.6351 9.58623 14.3688 9.58623C14.1025 9.58623 13.887 9.80176 13.887 10.0681C13.887 10.2151 13.8434 10.3959 13.7681 10.5958C13.6932 10.7949 13.5881 11.0097 13.4682 11.2237C13.2282 11.6518 12.9305 12.0729 12.7007 12.3536ZM12.7007 12.3536L12.7394 12.3853L12.7007 12.3536C12.7007 12.3536 12.7007 12.3536 12.7007 12.3536Z" fill="black" stroke="black" stroke-width="0.1"/>
<path d="M10.1006 10.0681V10.0681C10.1006 9.80176 9.88505 9.58623 9.61878 9.58623C9.35248 9.58623 9.13695 9.80176 9.13695 10.0681V12.659C9.13695 12.9253 9.35248 13.1408 9.61878 13.1408C9.88508 13.1408 10.1006 12.9253 10.1006 12.659V10.0681Z" fill="black" stroke="black" stroke-width="0.1"/>
<path d="M3.55293 11.1693L3.55298 11.1693C3.59195 11.228 3.61881 11.2957 3.62917 11.3688L3.57966 11.3758L3.62915 11.3687C3.63293 11.3947 3.6343 11.4214 3.63387 11.4471L3.63387 11.4467L3.58387 11.4467L3.63387 11.4475L3.62839 15.6318H15.6142V11.4412V11.4408H15.6642C15.6638 11.4164 15.665 11.3923 15.6689 11.3683L3.55293 11.1693ZM3.55293 11.1693C3.51628 11.1143 3.46827 11.0663 3.40975 11.0294L3.40968 11.0294C3.38603 11.0146 3.36089 11.0015 3.33477 10.9907C1.93587 10.3787 1.0324 9.00097 1.0324 7.47728C1.0324 5.3618 2.75333 3.64091 4.86876 3.64091C4.92592 3.64091 4.9848 3.64576 5.04581 3.65108C4.62841 4.40178 4.38693 5.26335 4.38693 6.18182C4.38693 6.44812 4.60246 6.66365 4.86876 6.66365C5.13507 6.66365 5.3506 6.44812 5.3506 6.18182C5.3506 3.82851 7.26548 1.91362 9.61879 1.91362C11.9721 1.91362 13.887 3.82851 13.887 6.18182C13.887 6.44812 14.1025 6.66365 14.3688 6.66365C14.6351 6.66365 14.8506 6.44812 14.8506 6.18182C14.8506 5.26335 14.6091 4.40181 14.1917 3.65108L3.55293 11.1693ZM14.3688 2.67729C14.1117 2.67729 13.8444 2.71016 13.5688 2.76029C12.609 1.65368 11.1957 0.95 9.61879 0.95C8.04188 0.95 6.62853 1.65368 5.66879 2.76026C5.39317 2.71016 5.12589 2.67725 4.8688 2.67725C2.22198 2.67729 0.0687744 4.83049 0.0687744 7.47728C0.0687744 9.28063 1.07991 10.9209 2.66977 11.7408L2.66139 18.236C2.66097 18.7203 2.84921 19.1758 3.19132 19.5183C3.53382 19.8613 3.98891 20.05 4.47325 20.05H14.766C15.7652 20.05 16.5779 19.2373 16.5779 18.2381V11.7344C18.1619 10.9124 19.1688 9.27474 19.1688 7.47728C19.1688 4.83049 17.0156 2.67729 14.3688 2.67729ZM15.6142 18.2382C15.6142 18.7056 15.2335 19.0864 14.766 19.0864H4.4732C4.24656 19.0864 4.03365 18.9981 3.87305 18.8375C3.71287 18.6769 3.62459 18.464 3.62497 18.237L3.62717 16.5955H15.6142V18.2382Z" fill="black" stroke="black" stroke-width="0.1"/>
</svg>
