<svg width="17" height="17" viewBox="0 0 17 17" fill="none" xmlns="http://www.w3.org/2000/svg">
<path d="M4.16 3.92C1.56 6.16 0.846667 10.26 0.5 12.5L3.5 13L3 11L4.68 8.96L5.72 6.16L8.32 5.04C8.84 4.48 9.72057 3.808 10.1366 3.36C10.5526 2.912 12.3067 2.98667 13 3.36L12.48 0C9.36 0.559932 6.76 1.68 4.16 3.92Z" fill="#FFDE17"/>
<path fill-rule="evenodd" clip-rule="evenodd" d="M0 12.7348L0.0256348 12.3211C0.12442 10.7266 0.5047 9.18654 1.15582 7.7437C1.80835 6.29787 2.71545 4.9885 3.85196 3.85199C4.98846 2.71545 6.29782 1.80838 7.74365 1.15583C9.18649 0.504688 10.7266 0.124412 12.3211 0.0256328L12.7348 0L17 17L0 12.7348ZM11.9709 1.0536C9.17596 1.32281 6.55685 2.5575 4.55716 4.5572C2.55746 6.55692 1.32281 9.17598 1.05359 11.9709L3.09253 12.4825C3.05923 12.368 3.0217 12.2505 2.98343 12.1309C2.8013 11.5615 2.61301 10.9727 2.77426 10.3714C2.94171 9.74691 3.43091 9.30587 3.86252 8.91677C4.1405 8.66615 4.40308 8.42944 4.54553 8.18354C4.69232 7.93027 4.76855 7.57954 4.84924 7.2082C4.97153 6.64557 5.11014 6.00787 5.55902 5.55897C6.00797 5.11006 6.64563 4.97147 7.20825 4.84922C7.57959 4.76853 7.9303 4.6923 8.18359 4.54551C8.4295 4.40303 8.66623 4.14046 8.91684 3.86249C9.30594 3.43088 9.74698 2.9417 10.3714 2.77425C10.5319 2.73122 10.6915 2.71309 10.85 2.71309C11.2856 2.71309 11.7135 2.84992 12.1309 2.98343L12.1319 2.98376L12.1323 2.98386C12.2514 3.02197 12.3685 3.05939 12.4825 3.09254L11.9709 1.0536ZM13.95 8.94183C13.4569 9.1877 13.1778 9.75382 13.3118 10.3084C13.3876 10.6224 13.5812 10.8881 13.8569 11.0565C14.0608 11.1811 14.2916 11.2413 14.525 11.2335L13.95 8.94183ZM14.7708 12.213C14.6749 12.2256 14.5789 12.2321 14.4833 12.2321C14.0823 12.2321 13.6879 12.122 13.337 11.9076C12.8339 11.6003 12.4807 11.1156 12.3423 10.5426C12.2055 9.97624 12.2953 9.38925 12.595 8.88974C12.853 8.45982 13.2415 8.13689 13.7042 7.96214L12.7546 4.17738C12.4367 4.12808 12.1282 4.0297 11.8271 3.93337C11.375 3.78878 10.9478 3.65221 10.6296 3.73758C10.2901 3.82862 9.98279 4.16948 9.65747 4.53033C9.36627 4.85333 9.06516 5.18732 8.68359 5.40846C8.29495 5.63371 7.85016 5.73036 7.42001 5.82383C6.94992 5.92596 6.50592 6.02248 6.26416 6.26423C6.02243 6.50602 5.9259 6.95001 5.82376 7.42007C5.73029 7.85021 5.63361 8.295 5.40839 8.68365C5.18726 9.06522 4.85327 9.36634 4.53027 9.65753C4.1694 9.98285 3.82855 10.2901 3.73752 10.6297C3.65219 10.948 3.7887 11.375 3.93332 11.8271C4.02963 12.1283 4.12802 12.4368 4.17731 12.7547L7.73059 13.6462C7.94308 13.205 8.28067 12.836 8.71182 12.5814C9.28796 12.241 9.96216 12.1455 10.6102 12.3122C11.2532 12.4776 11.7949 12.8825 12.1355 13.4522C12.3894 13.8768 12.5098 14.3565 12.4892 14.8401L15.6274 15.6275L14.7708 12.213ZM8.73334 13.8977L11.4852 14.5882C11.4225 13.9775 10.9872 13.4389 10.3618 13.278C9.97165 13.1776 9.56592 13.2351 9.21912 13.44C9.02182 13.5565 8.85721 13.7129 8.73334 13.8977ZM9.0397 11.4807C7.69373 11.4807 6.59866 10.3857 6.59866 9.03969C6.59866 7.6937 7.69373 6.59863 9.0397 6.59863C10.3857 6.59863 11.4808 7.6937 11.4808 9.03969C11.4808 10.3857 10.3857 11.4807 9.0397 11.4807ZM9.0397 7.59592C8.24359 7.59592 7.59595 8.24358 7.59595 9.03969C7.59595 9.8358 8.24359 10.4835 9.0397 10.4835C9.83582 10.4835 10.4835 9.8358 10.4835 9.03969C10.4835 8.24358 9.83578 7.59592 9.0397 7.59592ZM11.1084 5.47241H12.0614V6.4697H11.1084V5.47241ZM6.63477 11.2734H5.68179V12.2707H6.63477V11.2734ZM13.1663 13.144H14.1193V14.1413H13.1663V13.144Z" fill="black"/>
</svg>
