<svg width="18" height="17" viewBox="0 0 18 17" fill="none" xmlns="http://www.w3.org/2000/svg">
<path d="M4.27877 3.92C1.67877 6.16 0.965441 10.26 0.618774 12.5L3.61877 13L3.11877 11L4.79877 8.96L5.83877 6.16L8.43877 5.04C8.95877 4.48 9.83934 3.808 10.2553 3.36C10.6713 2.912 12.4254 2.98667 13.1188 3.36L12.5988 0C9.47877 0.559932 6.87877 1.68 4.27877 3.92Z" fill="white"/>
<path fill-rule="evenodd" clip-rule="evenodd" d="M0.118774 12.7348L0.144407 12.3211C0.243187 10.7266 0.623463 9.18654 1.27461 7.7437C1.92712 6.29787 2.83423 4.9885 3.97074 3.85199C5.10725 2.71545 6.41661 1.80838 7.86244 1.15583C9.30528 0.504687 10.8454 0.124412 12.4399 0.0256328L12.8535 0L17.1188 17L0.118774 12.7348ZM12.0897 1.0536C9.29472 1.32281 6.67563 2.5575 4.67594 4.5572C2.67624 6.55692 1.44159 9.17598 1.17238 11.9709L3.21131 12.4825C3.17806 12.3681 3.14056 12.2509 3.10237 12.1314L3.10237 12.1314L3.10221 12.1309C2.92009 11.5615 2.73179 10.9727 2.89303 10.3714C3.06047 9.74692 3.54967 9.30588 3.98128 8.91678L3.98129 8.91677L3.98144 8.91663C4.25936 8.66606 4.52187 8.4294 4.66432 8.18354C4.81111 7.93027 4.88734 7.57954 4.96802 7.2082L4.96804 7.20813L4.96804 7.20812C5.09032 6.64552 5.22892 6.00785 5.67781 5.55897C6.12675 5.11006 6.76441 4.97147 7.32704 4.84922C7.69835 4.76853 8.04908 4.6923 8.30238 4.54551C8.54824 4.40306 8.7849 4.14056 9.03547 3.86264L9.03561 3.86249C9.42471 3.43088 9.86575 2.9417 10.4902 2.77425C10.6507 2.73122 10.8102 2.71309 10.9688 2.71309C11.4044 2.71309 11.8322 2.84992 12.2497 2.98343L12.2513 2.98396L12.2514 2.98396C12.3704 3.02203 12.4873 3.05942 12.6013 3.09254L12.0897 1.0536ZM14.0688 8.94183C13.5757 9.1877 13.2966 9.75382 13.4305 10.3084C13.5064 10.6224 13.7 10.8881 13.9757 11.0565C14.1796 11.1811 14.4104 11.2413 14.6438 11.2335L14.0688 8.94183ZM14.8895 12.213C14.7937 12.2256 14.6977 12.2321 14.6021 12.2321C14.2011 12.2321 13.8066 12.122 13.4557 11.9076C12.9527 11.6003 12.5995 11.1156 12.4611 10.5426C12.3243 9.97624 12.4141 9.38925 12.7138 8.88974C12.9718 8.45982 13.3603 8.13689 13.823 7.96214L12.8734 4.17738C12.5555 4.12808 12.247 4.0297 11.9458 3.93337C11.4937 3.78878 11.0666 3.65221 10.7484 3.73758C10.4089 3.82862 10.1016 4.16946 9.77627 4.53029L9.77627 4.5303L9.77624 4.53033C9.48504 4.85333 9.18393 5.18732 8.80235 5.40846C8.41371 5.63371 7.96892 5.73036 7.53878 5.82383C7.06869 5.92596 6.62469 6.02248 6.38294 6.26423C6.14119 6.50602 6.04467 6.95001 5.94254 7.42007C5.84907 7.85022 5.75238 8.295 5.52717 8.68365C5.30603 9.06522 4.97204 9.36634 4.64904 9.65753L4.649 9.65756C4.28817 9.98287 3.94732 10.2902 3.85628 10.6297C3.77095 10.948 3.90748 11.375 4.05208 11.8271C4.14841 12.1283 4.24679 12.4368 4.29609 12.7547L7.84936 13.6462C8.06186 13.205 8.39943 12.836 8.83061 12.5814C9.40675 12.241 10.0809 12.1455 10.729 12.3122C11.3719 12.4776 11.9137 12.8825 12.2543 13.4522C12.5082 13.8768 12.6285 14.3565 12.6079 14.8401L15.7462 15.6275L14.8895 12.213ZM8.85213 13.8977L11.604 14.5882C11.5412 13.9775 11.1059 13.4389 10.4805 13.278C10.0904 13.1776 9.68469 13.2351 9.33789 13.44C9.14059 13.5565 8.97597 13.7129 8.85213 13.8977ZM9.15849 11.4807C7.8125 11.4807 6.71743 10.3857 6.71743 9.03969C6.71743 7.6937 7.8125 6.59863 9.15849 6.59863C10.5045 6.59863 11.5995 7.6937 11.5995 9.03969C11.5995 10.3857 10.5045 11.4807 9.15849 11.4807ZM9.15849 7.59592C8.36238 7.59592 7.71472 8.24358 7.71472 9.03969C7.71472 9.8358 8.36238 10.4835 9.15849 10.4835C9.9546 10.4835 10.6023 9.8358 10.6023 9.03969C10.6023 8.24358 9.95457 7.59592 9.15849 7.59592ZM11.2272 5.47241H12.1802V6.4697H11.2272V5.47241ZM6.75354 11.2734H5.80058V12.2707H6.75354V11.2734ZM13.2851 13.144H14.238V14.1413H13.2851V13.144Z" fill="black"/>
</svg>
