<svg width="18" height="20" viewBox="0 0 18 20" fill="none" xmlns="http://www.w3.org/2000/svg">
<path d="M6.99994 6C4.99994 7.6 3.49994 11.3333 2.99994 13L0.499939 12C0.833272 10.3333 2.09994 6.4 4.49994 4C6.89994 1.6 10.4999 0.666667 11.9999 0.5L12.9999 3C11.8333 3.33333 8.99994 4.4 6.99994 6Z" fill="#FFDE17"/>
<path fill-rule="evenodd" clip-rule="evenodd" d="M3.85192 3.85199C2.71541 4.9885 1.8083 6.29787 1.15579 7.7437C0.504646 9.18654 0.124372 10.7266 0.0255928 12.3211L-4.00543e-05 12.7348L15.3803 16.5936C16.1132 16.7775 16.7775 16.1133 16.5936 15.3803L12.7347 0L12.3211 0.0256328C10.7266 0.124412 9.18647 0.504687 7.74363 1.15583C6.2978 1.80838 4.98843 2.71545 3.85192 3.85199ZM12.3211 0.0256328L12.3211 0.025681L12.3211 0.0256328ZM11.9688 1.05634L15.6237 15.6237L1.0563 11.9688C1.18325 10.6418 1.52281 9.36149 2.06727 8.15504C2.66942 6.82081 3.50679 5.61134 4.55903 4.5591L4.55904 4.55909C5.61126 3.50684 6.82074 2.66949 8.15499 2.0673C9.36142 1.52285 10.6418 1.18329 11.9688 1.05634Z" fill="black"/>
<path d="M0.499939 13L1.49994 15L16.9999 19L15.9999 16" stroke="black" stroke-linecap="round" stroke-linejoin="round"/>
<path d="M3.16586 13.0001C4.00889 7.97509 7.97493 4.00905 12.9999 3.16602" stroke="black"/>
<path d="M8.41211 8.41211L11.7103 9.76494L12.9999 13.0001L9.70171 11.6472L8.41211 8.41211Z" stroke="black" stroke-linecap="round" stroke-linejoin="round"/>
</svg>
