<svg width="18" height="20" viewBox="0 0 18 20" fill="none" xmlns="http://www.w3.org/2000/svg">
<path d="M7.11865 6C5.11865 7.6 3.61865 11.3333 3.11865 13L0.618652 12C0.951986 10.3333 2.21865 6.4 4.61865 4C7.01865 1.6 10.6187 0.666667 12.1187 0.5L13.1187 3C11.952 3.33333 9.11865 4.4 7.11865 6Z" fill="white"/>
<path fill-rule="evenodd" clip-rule="evenodd" d="M3.97063 3.85199C2.83412 4.9885 1.92701 6.29787 1.27451 7.7437C0.62336 9.18654 0.243086 10.7266 0.144306 12.3211L0.118673 12.7348L15.499 16.5936C16.232 16.7775 16.8962 16.1133 16.7123 15.3803L12.8534 0L12.4398 0.0256328C10.8453 0.124412 9.30518 0.504687 7.86234 1.15583C6.41651 1.80838 5.10714 2.71545 3.97063 3.85199ZM12.4398 0.0256328L12.4398 0.025681L12.4398 0.0256328ZM12.0875 1.05634L15.7424 15.6237L1.17501 11.9688C1.30196 10.6418 1.64152 9.36149 2.18599 8.15504C2.78813 6.82081 3.62551 5.61134 4.67774 4.5591L4.67775 4.55909C5.72997 3.50684 6.93946 2.66949 8.27371 2.0673C9.48013 1.52285 10.7605 1.18329 12.0875 1.05634Z" fill="black"/>
<path d="M0.618652 13L1.61865 15L17.1187 19L16.1187 16" stroke="black" stroke-linecap="round" stroke-linejoin="round"/>
<path d="M3.28457 13.0001C4.12761 7.97509 8.09364 4.00905 13.1187 3.16602" stroke="black"/>
<path d="M8.53082 8.41211L11.829 9.76494L13.1186 13.0001L9.82042 11.6472L8.53082 8.41211Z" stroke="black" stroke-linecap="round" stroke-linejoin="round"/>
</svg>
