<svg width="18" height="18" viewBox="0 0 18 18" fill="none" xmlns="http://www.w3.org/2000/svg">
<path d="M6.00002 7.50003H2.50002C1.00002 6.00006 2.00002 4 3.00002 3.50003C3.80002 1.50003 5.33335 1.33336 6.00002 1.50003V7.50003Z" fill="#FFDE17"/>
<path d="M17.4375 7.3125H16.6781C16.8041 6.9525 16.875 6.57225 16.875 6.1875C16.875 4.419 15.5081 2.96438 13.7756 2.82375C13.1333 2.09812 12.2276 1.6875 11.25 1.6875C10.2724 1.6875 9.36675 2.09812 8.72437 2.82375C7.965 2.88562 7.28438 3.20963 6.75 3.69225V1.125C6.75 0.8145 6.498 0.5625 6.1875 0.5625C4.54388 0.5625 3.10162 1.60088 2.529 3.07575C2.52225 3.07575 2.5155 3.07125 2.50875 3.07125C2.33775 3.09825 2.21513 3.132 2.10938 3.23887C1.01587 4.3425 0.85275 6.02213 1.593 7.3125H0.5625C0.252 7.3125 0 7.5645 0 7.875C0 11.3197 2.24437 14.4146 5.625 15.6971V16.875C5.625 17.1855 5.877 17.4375 6.1875 17.4375H11.8125C12.123 17.4375 12.375 17.1855 12.375 16.875V15.6971C15.7556 14.4146 18 11.3186 18 7.875C18 7.5645 17.748 7.3125 17.4375 7.3125ZM9 3.9375C9.17663 3.9375 9.34313 3.85538 9.44888 3.71363C10.3118 2.56838 12.1883 2.56838 13.05 3.71363C13.1569 3.85538 13.3234 3.9375 13.5 3.9375C14.7409 3.9375 15.75 4.94662 15.75 6.1875C15.75 6.58913 15.6184 6.97162 15.4181 7.3125H12.9375L13.8375 6.6375C14.0861 6.45075 14.1367 6.09862 13.95 5.85C13.7632 5.60137 13.4111 5.5485 13.1625 5.73637L11.8125 6.74888V5.62388C11.8125 5.3145 11.5605 5.0625 11.25 5.0625C10.9395 5.0625 10.6875 5.3145 10.6875 5.625V6.75L9.3375 5.7375C9.08887 5.55188 8.73675 5.6025 8.55 5.85C8.36325 6.09862 8.41387 6.45075 8.6625 6.6375L9.5625 7.3125H7.08187C6.88163 6.97162 6.75 6.58913 6.75 6.1875C6.75 4.94662 7.75912 3.9375 9 3.9375ZM5.625 1.74487V5.95463L3.474 3.80363C3.73275 2.763 4.57875 1.95975 5.625 1.74487ZM2.56163 4.482L5.39213 7.3125H3.01725C2.98125 7.28212 2.94412 7.25625 2.90812 7.22025C2.17462 6.47888 2.05875 5.34713 2.56163 4.482ZM11.6359 14.7656C11.4064 14.841 11.25 15.057 11.25 15.3V16.3125H6.75V15.3C6.75 15.057 6.59363 14.8421 6.36413 14.7656C3.42225 13.7948 1.386 11.295 1.14863 8.4375H16.8514C16.614 11.295 14.5778 13.7948 11.6359 14.7656Z" fill="black"/>
</svg>
