<svg width="19" height="18" viewBox="0 0 19 18" fill="none" xmlns="http://www.w3.org/2000/svg">
<path d="M6.11879 7.50003H2.61879C1.11879 6.00006 2.11879 4 3.11879 3.50003C3.91879 1.50003 5.45213 1.33336 6.11879 1.50003V7.50003Z" fill="white"/>
<path d="M17.5563 7.3125H16.7969C16.9229 6.9525 16.9938 6.57225 16.9938 6.1875C16.9938 4.419 15.6269 2.96438 13.8944 2.82375C13.252 2.09812 12.3464 1.6875 11.3688 1.6875C10.3911 1.6875 9.48552 2.09812 8.84315 2.82375C8.08377 2.88563 7.40315 3.20963 6.86877 3.69225V1.125C6.86877 0.8145 6.61677 0.5625 6.30627 0.5625C4.66265 0.5625 3.2204 1.60087 2.64777 3.07575C2.64102 3.07575 2.63427 3.07125 2.62752 3.07125C2.45652 3.09825 2.3339 3.132 2.22815 3.23887C1.13465 4.3425 0.971524 6.02213 1.71177 7.3125H0.681274C0.370774 7.3125 0.118774 7.5645 0.118774 7.875C0.118774 11.3197 2.36315 14.4146 5.74377 15.6971V16.875C5.74377 17.1855 5.99577 17.4375 6.30627 17.4375H11.9313C12.2418 17.4375 12.4938 17.1855 12.4938 16.875V15.6971C15.8744 14.4146 18.1188 11.3186 18.1188 7.875C18.1188 7.5645 17.8668 7.3125 17.5563 7.3125ZM9.11877 3.9375C9.2954 3.9375 9.4619 3.85538 9.56765 3.71363C10.4305 2.56838 12.307 2.56838 13.1688 3.71363C13.2757 3.85538 13.4421 3.9375 13.6188 3.9375C14.8596 3.9375 15.8688 4.94662 15.8688 6.1875C15.8688 6.58913 15.7371 6.97162 15.5369 7.3125H13.0563L13.9563 6.6375C14.2049 6.45075 14.2555 6.09862 14.0688 5.85C13.882 5.60138 13.5299 5.5485 13.2813 5.73637L11.9313 6.74888V5.62388C11.9313 5.3145 11.6793 5.0625 11.3688 5.0625C11.0583 5.0625 10.8063 5.3145 10.8063 5.625V6.75L9.45627 5.7375C9.20765 5.55187 8.85553 5.6025 8.66877 5.85C8.48202 6.09862 8.53265 6.45075 8.78127 6.6375L9.68127 7.3125H7.20065C7.0004 6.97162 6.86877 6.58913 6.86877 6.1875C6.86877 4.94662 7.8779 3.9375 9.11877 3.9375ZM5.74377 1.74487V5.95463L3.59277 3.80363C3.85152 2.763 4.69752 1.95975 5.74377 1.74487ZM2.6804 4.482L5.5109 7.3125H3.13602C3.10002 7.28212 3.0629 7.25625 3.0269 7.22025C2.2934 6.47888 2.17752 5.34713 2.6804 4.482ZM11.7547 14.7656C11.5252 14.841 11.3688 15.057 11.3688 15.3V16.3125H6.86877V15.3C6.86877 15.057 6.7124 14.8421 6.4829 14.7656C3.54102 13.7948 1.50477 11.295 1.2674 8.4375H16.9701C16.7328 11.295 14.6965 13.7948 11.7547 14.7656Z" fill="black"/>
</svg>
