<svg width="26" height="26" viewBox="0 0 26 26" fill="none" xmlns="http://www.w3.org/2000/svg">
<path d="M9.5 8.5L11 4.5L11.5 4L9 1.5L8 2.5L8.5 4H7.5L6 7L7 8L6 9L6.5 12L7.5 12.5L7 13.5L8.5 16.5L10 16V17.5L12.5 19.5L13.5 18.5L14 20H17.5L18 19L19 20L22 19V17.5L23 18L24.5 17L22.5 14.5L19 16.5H15L12 15L10 12L9.5 8.5Z" fill="#FFDE17"/>
<path d="M25.0769 17.3271L25.0766 17.3274C25.0588 17.3469 24.6999 17.7394 24.1079 18.13L24.1077 18.1301C23.6239 18.4484 23.1657 18.5499 22.7076 18.4091C22.6362 18.8838 22.3457 19.253 21.8488 19.5507L21.8487 19.5508C21.2998 19.8795 20.8323 20.0366 20.7266 20.0701C20.6234 20.1099 20.1596 20.2789 19.5253 20.3637C19.1628 20.4128 18.6074 20.4333 18.1442 20.0061C17.8741 20.4045 17.4521 20.6122 16.8741 20.6649L16.8741 20.6649C16.2364 20.723 15.7469 20.6613 15.6376 20.6457C15.5272 20.6367 15.0369 20.5878 14.4282 20.3895L14.4281 20.3895C14.1213 20.2892 13.8767 20.1582 13.689 19.9852C13.5317 19.8402 13.4174 19.6686 13.3392 19.4674C12.9231 19.709 12.4527 19.7129 11.9086 19.5094M25.0769 17.3271L11.9437 19.4158M25.0769 17.3271C25.2445 17.1421 25.2373 16.8583 25.061 16.682L9.45084 1.07193C9.27444 0.895531 8.99041 0.888738 8.8055 1.0563L8.8055 1.0563L8.80517 1.0566C8.78548 1.0746 8.38869 1.43822 7.99803 2.03126L7.998 2.03129C7.67998 2.5145 7.57853 2.97252 7.72152 3.43252M25.0769 17.3271L7.72152 3.43252M11.9086 19.5094L11.9437 19.4158M11.9086 19.5094C11.9086 19.5094 11.9086 19.5094 11.9086 19.5094L11.9437 19.4158M11.9086 19.5094C11.3095 19.2854 10.8949 19.0175 10.8031 18.9559M11.9437 19.4158C11.3481 19.1931 10.9383 18.9264 10.8562 18.8711M10.8031 18.9559C10.8041 18.9565 10.805 18.957 10.8059 18.9576L10.8562 18.8711M10.8031 18.9559C10.7074 18.9001 10.2872 18.643 9.82482 18.2005L9.82399 18.1997L9.77833 18.155L9.77758 18.1542C9.39385 17.7705 9.21196 17.3554 9.24627 16.8926M10.8031 18.9559C10.8021 18.9553 10.8012 18.9546 10.8003 18.9541L10.8562 18.8711M10.8562 18.8711L9.24627 16.8926M9.24627 16.8926C9.27975 16.8901 9.31349 16.8864 9.34748 16.8816C9.30954 17.3176 9.47585 17.7111 9.8483 18.0835L9.89396 18.1283L9.24627 16.8926ZM9.24627 16.8926C9.24875 16.8591 9.25236 16.8254 9.25712 16.7914M9.24627 16.8926L9.25712 16.7914M8.0088 16.2455C7.56911 15.7865 7.31561 15.3691 7.26547 15.2832C7.20969 15.2006 6.94347 14.7913 6.72104 14.1955M8.0088 16.2455L8.08153 2.08627C7.77142 2.55746 7.68249 2.98978 7.82271 3.4207C7.78846 3.42357 7.75473 3.42751 7.72152 3.43252M8.0088 16.2455L8.05352 16.2911M8.0088 16.2455L8.05352 16.2911M6.72104 14.1955C6.52279 13.6656 6.53284 13.2231 6.76461 12.835C6.73183 12.8246 6.69978 12.8134 6.66843 12.8012M6.72104 14.1955L6.62738 14.2306C6.62737 14.2306 6.62736 14.2305 6.62735 14.2305M6.72104 14.1955L6.62735 14.2305M6.66843 12.8012C6.68527 12.7722 6.70328 12.7433 6.72245 12.7148C6.29739 12.5568 6.02014 12.2351 5.83977 11.6817C5.64276 11.077 5.59568 10.5912 5.58815 10.4919M6.66843 12.8012C6.46674 12.7233 6.29454 12.6091 6.1492 12.4518C5.97577 12.2641 5.84469 12.0195 5.7447 11.7127L5.74469 11.7127C5.54671 11.105 5.49745 10.615 5.48872 10.5031M6.66843 12.8012C6.42763 13.2171 6.42415 13.6873 6.62735 14.2305M5.58815 10.4919C5.57332 10.3928 5.51095 9.9086 5.56885 9.2759M5.58815 10.4919L5.48844 10.4994C5.48853 10.5006 5.48862 10.5018 5.48872 10.5031M5.58815 10.4919L5.48925 10.5067C5.48908 10.5055 5.4889 10.5043 5.48872 10.5031M5.56885 9.2759C5.62005 8.71269 5.82096 8.31871 6.19767 8.06938C6.17251 8.04559 6.14866 8.02144 6.12607 7.997M5.56885 9.2759L5.46927 9.26679M5.56885 9.2759L5.46926 9.26685C5.46926 9.26683 5.46927 9.26681 5.46927 9.26679M6.12607 7.997C6.15381 7.97811 6.18249 7.95996 6.21211 7.94255C5.80782 7.51644 5.8176 6.98686 5.86567 6.62813C5.95017 5.99802 6.1187 5.53951 6.15495 5.44677C6.18437 5.35191 6.33854 4.88798 6.66525 4.34284C6.95579 3.85803 7.30795 3.59019 7.75499 3.52874C7.74264 3.49665 7.73149 3.46458 7.72152 3.43252M6.12607 7.997C5.70346 7.53988 5.71788 6.9781 5.76655 6.61485L5.76655 6.61484C5.85149 5.98149 6.01992 5.51821 6.0605 5.41371C6.09387 5.30696 6.25109 4.83938 6.57948 4.29144C6.87738 3.79433 7.24714 3.50414 7.72152 3.43252M6.12607 7.997C5.72895 8.26734 5.52179 8.68919 5.46927 9.26679M7.72152 3.43252L7.18076 15.3365C7.11862 15.2441 6.85115 14.8299 6.62735 14.2305M5.46927 9.26679C5.41107 9.90271 5.47227 10.3915 5.48872 10.5031M8.05352 16.2911C8.42625 16.6638 8.82024 16.8302 9.25712 16.7914M8.05352 16.2911L9.25712 16.7914M20.393 19.1956L20.3947 19.1949C20.4096 19.1886 20.4246 19.1836 20.4386 19.1797C20.4814 19.1662 20.8884 19.0347 21.3673 18.7481L21.4175 18.8319L21.3673 18.7481C21.5784 18.6218 21.7037 18.5067 21.7569 18.3528C21.8108 18.1969 21.7989 17.9774 21.673 17.6234C21.5994 17.4168 21.6797 17.187 21.8648 17.0706C21.8648 17.0706 21.8649 17.0706 21.8649 17.0705L21.9181 17.1552L20.393 19.1956ZM20.393 19.1956C20.3931 19.1956 20.3927 19.1957 20.3916 19.1961C20.3654 19.2062 19.9632 19.361 19.4002 19.436L19.4001 19.436M20.393 19.1956L19.4001 19.436M19.4001 19.436C19.0637 19.4814 18.8926 19.4326 18.7608 19.3008C18.6539 19.1939 18.5507 19.0118 18.4599 18.7487M19.4001 19.436L17.965 18.4363M17.965 18.4363L17.965 18.4363C18.1826 18.4118 18.3887 18.5409 18.4599 18.7487M17.965 18.4363C17.7476 18.4609 17.5762 18.633 17.5522 18.8508L17.5522 18.8509M17.965 18.4363L17.5522 18.8509M18.4599 18.7487C18.4599 18.7487 18.4599 18.7488 18.4599 18.7488L18.3653 18.7812L18.4598 18.7486C18.4598 18.7486 18.4599 18.7487 18.4599 18.7487ZM17.5522 18.8509C17.5117 19.2246 17.427 19.4277 17.3107 19.545C17.1959 19.6607 17.0332 19.7101 16.7886 19.7323C16.2301 19.7831 15.8059 19.7242 15.7641 19.7181C15.7499 19.7158 15.7348 19.714 15.7194 19.713L15.7185 19.713M17.5522 18.8509L15.7185 19.713M15.7185 19.713L15.7183 19.713C15.7064 19.7121 15.2755 19.6811 14.718 19.4993C14.5209 19.435 14.3923 19.3626 14.3136 19.2839C14.2706 19.2409 14.2204 19.1766 14.1871 19.0575C14.1532 18.9358 14.136 18.7527 14.1689 18.4718L14.1689 18.4717M15.7185 19.713L14.1689 18.4717M14.1689 18.4717C14.1944 18.2543 14.0656 18.0474 13.8586 17.9754C13.6519 17.9031 13.4226 17.9843 13.3068 18.17L13.3068 18.17M14.1689 18.4717L13.3068 18.17M12.2014 18.7263C12.6731 18.9029 12.9866 18.8732 13.3917 18.2229L12.2014 18.7263ZM12.2014 18.7263C11.6388 18.5159 11.2658 18.2596 11.2627 18.2575M12.2014 18.7263L11.2627 18.2575M13.3068 18.17C13.1081 18.489 12.9437 18.6353 12.7881 18.6904C12.6345 18.7449 12.4666 18.7188 12.2364 18.6327L12.2364 18.6327M13.3068 18.17L12.2364 18.6327M12.2364 18.6327C11.6843 18.4261 11.3187 18.1746 11.3196 18.1753L11.2627 18.2575M12.2364 18.6327L11.2829 18.152M11.2829 18.152L11.2829 18.1521C11.2952 18.1591 11.3079 18.1671 11.32 18.1756L11.2627 18.2575M11.2829 18.152L11.2801 18.1505M11.2829 18.152L11.2801 18.1505M11.2801 18.1505C11.2802 18.1506 11.2799 18.1504 11.2792 18.15C11.2586 18.1379 10.8849 17.9194 10.4726 17.5246C10.4725 17.5245 10.4724 17.5244 10.4723 17.5243L10.4392 17.4922C10.439 17.492 10.4389 17.4918 10.4387 17.4917C10.297 17.3499 10.2018 17.2302 10.1801 17.0744C10.1583 16.9178 10.2081 16.7002 10.4238 16.36C10.5411 16.1749 10.5142 15.9331 10.3594 15.7784C10.2044 15.6233 9.96279 15.5967 9.77779 15.714L9.83135 15.7985M11.2801 18.1505L9.83135 15.7985M7.50413 13.9023L7.50415 13.9024C7.70421 14.4384 7.94685 14.7979 7.95948 14.8166C7.95974 14.817 7.9599 14.8172 7.95997 14.8173C7.96 14.8174 7.96001 14.8174 7.95998 14.8174L7.50413 13.9023ZM7.50413 13.9023C7.41578 13.6661 7.38918 13.4991 7.44314 13.3476C7.49788 13.194 7.64415 13.0323 7.96537 12.8324L7.96542 12.8324M7.50413 13.9023L7.96542 12.8324M9.83135 15.7985L9.77779 15.714C9.46547 15.9121 9.25788 15.9745 9.09783 15.9616C8.9412 15.9489 8.80743 15.8622 8.64515 15.7M9.83135 15.7985L8.64515 15.7M8.64515 15.7C8.64499 15.6998 8.64483 15.6997 8.64466 15.6995L8.61275 15.6667C8.61265 15.6666 8.61254 15.6665 8.61244 15.6664C8.23858 15.2759 8.02419 14.922 7.98632 14.859L8.64515 15.7ZM7.96542 12.8324C8.15118 12.7166 8.23238 12.4876 8.15993 12.2805L8.15989 12.2804L7.96542 12.8324ZM6.41727 10.3794L6.41682 10.3794C6.41695 10.3805 6.41709 10.3815 6.41724 10.3827C6.4185 10.3927 6.42033 10.4072 6.42118 10.421L6.42113 10.421C6.42583 10.477 6.46349 10.8975 6.63462 11.4221C6.69875 11.6186 6.77091 11.7469 6.84942 11.8254C6.89254 11.8685 6.95704 11.9189 7.07646 11.9521C7.19842 11.986 7.38193 12.0032 7.66364 11.9703C7.66365 11.9703 7.66365 11.9703 7.66366 11.9703L7.67527 12.0696L6.41727 10.3794ZM6.41727 10.3794L6.41521 10.3701M6.41727 10.3794L6.41521 10.3701M6.41521 10.3701C6.41531 10.3706 6.41513 10.3693 6.41474 10.3664C6.40873 10.3226 6.35121 9.90355 6.40188 9.35142L6.40189 9.35124M6.41521 10.3701L6.40189 9.35124M6.40189 9.35124C6.4245 9.10007 6.47292 8.93819 6.58723 8.82522C6.70323 8.71059 6.90532 8.62837 7.28168 8.58751L7.28181 8.58749M6.40189 9.35124L7.28181 8.58749M7.28181 8.58749C7.49962 8.56356 7.67149 8.39231 7.69602 8.17446C7.72055 7.95672 7.59128 7.75128 7.38386 7.67969C7.12001 7.58837 6.9375 7.4851 6.83059 7.37819L6.83048 7.37808M7.28181 8.58749L6.83048 7.37808M6.83048 7.37808C6.6983 7.24628 6.64951 7.07481 6.69469 6.73866L6.6947 6.73861M6.83048 7.37808L6.6947 6.73861M6.6947 6.73861C6.77046 6.17242 6.92712 5.76744 6.93527 5.74638C6.93552 5.74572 6.93563 5.74544 6.93559 5.74555L6.9356 5.74555M6.6947 6.73861L6.9356 5.74555M6.9356 5.74555L6.93623 5.74402M6.9356 5.74555L6.93623 5.74402M6.93623 5.74402C6.94183 5.73033 6.94673 5.71608 6.95071 5.70361L6.95083 5.70365M6.93623 5.74402L6.95083 5.70365M6.95083 5.70365L6.95215 5.69865M6.95083 5.70365L6.95215 5.69865M6.95215 5.69865C6.95211 5.69879 6.95224 5.69837 6.95255 5.69739C6.96073 5.67152 7.09095 5.25941 7.38303 4.77203L7.38303 4.77202M6.95215 5.69865L7.38303 4.77202M7.38303 4.77202C7.51269 4.55562 7.62669 4.43065 7.77878 4.37836C7.93304 4.32532 8.1507 4.33882 8.50733 4.46533L8.50734 4.46534M7.38303 4.77202L8.50734 4.46534M8.50734 4.46534C8.71638 4.53947 8.93969 4.4513 9.05466 4.26911C9.1726 4.08223 9.13791 3.83633 8.98479 3.68322C8.72265 3.42108 8.61912 3.23007 8.60108 3.06742C8.58324 2.90664 8.64615 2.74946 8.78078 2.54522L8.78091 2.54502M8.50734 4.46534L8.78091 2.54502M8.78091 2.54502C8.90187 2.36057 9.02478 2.202 9.13098 2.07576L10.925 3.86977C8.11897 7.01992 8.2251 11.8669 11.2457 14.8874C14.2664 17.9082 19.113 18.0143 22.2634 15.2081L24.057 17.0016M8.78091 2.54502L24.057 17.0016M24.057 17.0016C23.9324 17.1063 23.7757 17.2273 23.5923 17.3485L24.057 17.0016ZM21.6009 14.5456C18.8169 16.9874 14.5627 16.8807 11.9075 14.2256C9.25231 11.5704 9.14539 7.316 11.5875 4.53226L21.6009 14.5456Z" fill="black" stroke="black" stroke-width="0.2"/>
</svg>
