<svg width="25" height="26" viewBox="0 0 25 26" fill="none" xmlns="http://www.w3.org/2000/svg">
<path d="M8.61877 8.5L10.1188 4.5L10.6188 4L8.11877 1.5L7.11877 2.5L7.61877 4H6.61877L5.11877 7L6.11877 8L5.11877 9L5.61877 12L6.61877 12.5L6.11877 13.5L7.61877 16.5L9.11877 16V17.5L11.6188 19.5L12.6188 18.5L13.1188 20H16.6188L17.1188 19L18.1188 20L21.1188 19V17.5L22.1188 18L23.6188 17L21.6188 14.5L18.1188 16.5H14.1188L11.1188 15L9.11877 12L8.61877 8.5Z" fill="white"/>
<path d="M24.1956 17.3271L24.1953 17.3274C24.1775 17.3469 23.8186 17.7394 23.2266 18.13L23.2265 18.1301C22.7426 18.4484 22.2844 18.5499 21.8263 18.4091C21.7549 18.8838 21.4644 19.253 20.9675 19.5507L20.9675 19.5508C20.4185 19.8795 19.951 20.0366 19.8453 20.0701C19.7422 20.1099 19.2783 20.2789 18.644 20.3637C18.2815 20.4128 17.7261 20.4333 17.2629 20.0061C16.9928 20.4045 16.5708 20.6122 15.9928 20.6649L15.9928 20.6649C15.3551 20.723 14.8656 20.6613 14.7563 20.6457C14.6459 20.6367 14.1556 20.5878 13.5469 20.3895L13.5468 20.3895C13.24 20.2892 12.9954 20.1582 12.8077 19.9852C12.6504 19.8402 12.5361 19.6686 12.4579 19.4674C12.0418 19.709 11.5714 19.7129 11.0273 19.5094M24.1956 17.3271L11.0624 19.4158M24.1956 17.3271C24.3632 17.1421 24.356 16.8583 24.1797 16.682L8.56955 1.07193C8.39315 0.895531 8.10913 0.888738 7.92421 1.0563L7.92421 1.0563L7.92388 1.0566C7.90419 1.0746 7.5074 1.43822 7.11674 2.03126L7.11672 2.03129C6.79869 2.5145 6.69725 2.97252 6.84024 3.43252M24.1956 17.3271L6.84024 3.43252M11.0273 19.5094L11.0624 19.4158M11.0273 19.5094C11.0273 19.5094 11.0273 19.5094 11.0273 19.5094L11.0624 19.4158M11.0273 19.5094C10.4282 19.2854 10.0136 19.0175 9.9218 18.9559M11.0624 19.4158C10.4669 19.1931 10.0571 18.9264 9.97491 18.8711M9.9218 18.9559C9.92278 18.9565 9.92374 18.957 9.92466 18.9576L9.97491 18.8711M9.9218 18.9559C9.82615 18.9001 9.40591 18.643 8.94354 18.2005L8.9427 18.1997L8.89704 18.155L8.8963 18.1542C8.51257 17.7705 8.33067 17.3554 8.36498 16.8926M9.9218 18.9559C9.92085 18.9553 9.91994 18.9546 9.91906 18.9541L9.97491 18.8711M9.97491 18.8711L8.36498 16.8926M8.36498 16.8926C8.39847 16.8901 8.4322 16.8864 8.4662 16.8816C8.42826 17.3176 8.59457 17.7111 8.96701 18.0835L9.01268 18.1283L8.36498 16.8926ZM8.36498 16.8926C8.36746 16.8591 8.37108 16.8254 8.37583 16.7914M8.36498 16.8926L8.37583 16.7914M7.12752 16.2455C6.68783 15.7865 6.43432 15.3691 6.38419 15.2832C6.3284 15.2006 6.06219 14.7913 5.83975 14.1955M7.12752 16.2455L7.20025 2.08627C6.89013 2.55746 6.80121 2.98978 6.94142 3.4207C6.90717 3.42357 6.87345 3.42751 6.84024 3.43252M7.12752 16.2455L7.17224 16.2911M7.12752 16.2455L7.17224 16.2911M5.83975 14.1955C5.64151 13.6656 5.65155 13.2231 5.88332 12.835C5.85054 12.8246 5.81849 12.8134 5.78715 12.8012M5.83975 14.1955L5.74609 14.2306C5.74608 14.2306 5.74607 14.2305 5.74607 14.2305M5.83975 14.1955L5.74607 14.2305M5.78715 12.8012C5.80399 12.7722 5.82199 12.7433 5.84116 12.7148C5.4161 12.5568 5.13885 12.2351 4.95849 11.6817C4.76147 11.077 4.7144 10.5912 4.70687 10.4919M5.78715 12.8012C5.58545 12.7233 5.41325 12.6091 5.26792 12.4518C5.09448 12.2641 4.96341 12.0195 4.86341 11.7127L4.86341 11.7127C4.66542 11.105 4.61617 10.615 4.60743 10.5031M5.78715 12.8012C5.54635 13.2171 5.54286 13.6873 5.74607 14.2305M4.70687 10.4919C4.69204 10.3928 4.62966 9.9086 4.68757 9.2759M4.70687 10.4919L4.60715 10.4994C4.60724 10.5006 4.60733 10.5018 4.60743 10.5031M4.70687 10.4919L4.60797 10.5067C4.60779 10.5055 4.60762 10.5043 4.60743 10.5031M4.68757 9.2759C4.73877 8.71269 4.93967 8.31871 5.31638 8.06938C5.29122 8.04559 5.26738 8.02144 5.24478 7.997M4.68757 9.2759L4.58798 9.26679M4.68757 9.2759L4.58798 9.26685C4.58798 9.26683 4.58798 9.26681 4.58798 9.26679M5.24478 7.997C5.27253 7.97811 5.3012 7.95996 5.33082 7.94255C4.92653 7.51644 4.93631 6.98686 4.98438 6.62813C5.06888 5.99802 5.23741 5.53951 5.27366 5.44677C5.30308 5.35191 5.45726 4.88798 5.78397 4.34284C6.07451 3.85803 6.42666 3.59019 6.8737 3.52874C6.86135 3.49665 6.8502 3.46458 6.84024 3.43252M5.24478 7.997C4.82218 7.53988 4.83659 6.9781 4.88526 6.61485L4.88527 6.61484C4.9702 5.98149 5.13863 5.51821 5.17922 5.41371C5.21258 5.30696 5.3698 4.83938 5.69819 4.29144C5.99609 3.79433 6.36586 3.50414 6.84024 3.43252M5.24478 7.997C4.84766 8.26734 4.6405 8.68919 4.58798 9.26679M6.84024 3.43252L6.29947 15.3365C6.23734 15.2441 5.96987 14.8299 5.74607 14.2305M4.58798 9.26679C4.52978 9.90271 4.59098 10.3915 4.60743 10.5031M7.17224 16.2911C7.54496 16.6638 7.93896 16.8302 8.37583 16.7914M7.17224 16.2911L8.37583 16.7914M19.5117 19.1956L19.5134 19.1949C19.5283 19.1886 19.5433 19.1836 19.5573 19.1797C19.6001 19.1662 20.0072 19.0347 20.486 18.7481L20.5362 18.8319L20.486 18.7481C20.6971 18.6218 20.8224 18.5067 20.8756 18.3528C20.9295 18.1969 20.9176 17.9774 20.7917 17.6234C20.7181 17.4168 20.7984 17.187 20.9835 17.0706C20.9835 17.0706 20.9836 17.0706 20.9836 17.0705L21.0368 17.1552L19.5117 19.1956ZM19.5117 19.1956C19.5118 19.1956 19.5114 19.1957 19.5104 19.1961C19.4841 19.2062 19.0819 19.361 18.5189 19.436L18.5188 19.436M19.5117 19.1956L18.5188 19.436M18.5188 19.436C18.1824 19.4814 18.0114 19.4326 17.8795 19.3008C17.7726 19.1939 17.6694 19.0118 17.5786 18.7487M18.5188 19.436L17.0837 18.4363M17.0837 18.4363L17.0837 18.4363C17.3013 18.4118 17.5075 18.5409 17.5786 18.7487M17.0837 18.4363C16.8663 18.4609 16.6949 18.633 16.6709 18.8508L16.6709 18.8509M17.0837 18.4363L16.6709 18.8509M17.5786 18.7487C17.5786 18.7487 17.5786 18.7488 17.5786 18.7488L17.484 18.7812L17.5785 18.7486C17.5786 18.7486 17.5786 18.7487 17.5786 18.7487ZM16.6709 18.8509C16.6304 19.2246 16.5457 19.4277 16.4294 19.545C16.3146 19.6607 16.1519 19.7101 15.9073 19.7323C15.3488 19.7831 14.9247 19.7242 14.8828 19.7181C14.8686 19.7158 14.8535 19.714 14.8381 19.713L14.8372 19.713M16.6709 18.8509L14.8372 19.713M14.8372 19.713L14.837 19.713C14.8251 19.7121 14.3942 19.6811 13.8367 19.4993C13.6396 19.435 13.511 19.3626 13.4323 19.2839C13.3894 19.2409 13.3391 19.1766 13.3059 19.0575C13.272 18.9358 13.2547 18.7527 13.2876 18.4718L13.2876 18.4717M14.8372 19.713L13.2876 18.4717M13.2876 18.4717C13.3131 18.2543 13.1843 18.0474 12.9773 17.9754C12.7706 17.9031 12.5413 17.9843 12.4256 18.17L12.4255 18.17M13.2876 18.4717L12.4255 18.17M11.3201 18.7263C11.7918 18.9029 12.1053 18.8732 12.5104 18.2229L11.3201 18.7263ZM11.3201 18.7263C10.7576 18.5159 10.3845 18.2596 10.3814 18.2575M11.3201 18.7263L10.3814 18.2575M12.4255 18.17C12.2268 18.489 12.0625 18.6353 11.9068 18.6904C11.7532 18.7449 11.5853 18.7188 11.3552 18.6327L11.3551 18.6327M12.4255 18.17L11.3551 18.6327M11.3551 18.6327C10.803 18.4261 10.4374 18.1746 10.4383 18.1753L10.3814 18.2575M11.3551 18.6327L10.4016 18.152M10.4016 18.152L10.4016 18.1521C10.4139 18.1591 10.4266 18.1671 10.4388 18.1756L10.3814 18.2575M10.4016 18.152L10.3988 18.1505M10.4016 18.152L10.3988 18.1505M10.3988 18.1505C10.3989 18.1506 10.3986 18.1504 10.3979 18.15C10.3773 18.1379 10.0037 17.9194 9.59129 17.5246C9.59118 17.5245 9.59108 17.5244 9.59097 17.5243L9.55791 17.4922C9.55775 17.492 9.55759 17.4918 9.55743 17.4917C9.41574 17.3499 9.32051 17.2302 9.29882 17.0744C9.27703 16.9178 9.32677 16.7002 9.54247 16.36C9.65984 16.1749 9.63287 15.9331 9.47812 15.7784C9.32309 15.6233 9.0815 15.5967 8.8965 15.714L8.95007 15.7985M10.3988 18.1505L8.95007 15.7985M6.62284 13.9023L6.62287 13.9024C6.82292 14.4384 7.06556 14.7979 7.0782 14.8166C7.07845 14.817 7.07862 14.8172 7.07868 14.8173C7.07871 14.8174 7.07872 14.8174 7.0787 14.8174L6.62284 13.9023ZM6.62284 13.9023C6.53449 13.6661 6.5079 13.4991 6.56186 13.3476C6.61659 13.194 6.76287 13.0323 7.08408 12.8324L7.08414 12.8324M6.62284 13.9023L7.08414 12.8324M8.95007 15.7985L8.8965 15.714C8.58419 15.9121 8.3766 15.9745 8.21654 15.9616C8.05991 15.9489 7.92614 15.8622 7.76387 15.7M8.95007 15.7985L7.76387 15.7M7.76387 15.7C7.7637 15.6998 7.76354 15.6997 7.76338 15.6995L7.73146 15.6667C7.73136 15.6666 7.73126 15.6665 7.73115 15.6664C7.3573 15.2759 7.14291 14.922 7.10503 14.859L7.76387 15.7ZM7.08414 12.8324C7.2699 12.7166 7.35109 12.4876 7.27864 12.2805L7.2786 12.2804L7.08414 12.8324ZM5.53598 10.3794L5.53554 10.3794C5.53567 10.3805 5.5358 10.3815 5.53595 10.3827C5.53721 10.3927 5.53904 10.4072 5.53989 10.421L5.53984 10.421C5.54455 10.477 5.58221 10.8975 5.75334 11.4221C5.81746 11.6186 5.88962 11.7469 5.96813 11.8254C6.01125 11.8685 6.07576 11.9189 6.19517 11.9521C6.31713 11.986 6.50064 12.0032 6.78236 11.9703C6.78236 11.9703 6.78237 11.9703 6.78237 11.9703L6.79398 12.0696L5.53598 10.3794ZM5.53598 10.3794L5.53393 10.3701M5.53598 10.3794L5.53393 10.3701M5.53393 10.3701C5.53402 10.3706 5.53385 10.3693 5.53345 10.3664C5.52744 10.3226 5.46992 9.90355 5.52059 9.35142L5.52061 9.35124M5.53393 10.3701L5.52061 9.35124M5.52061 9.35124C5.54321 9.10007 5.59163 8.93819 5.70594 8.82522C5.82194 8.71059 6.02403 8.62837 6.40039 8.58751L6.40052 8.58749M5.52061 9.35124L6.40052 8.58749M6.40052 8.58749C6.61833 8.56356 6.7902 8.39231 6.81474 8.17446C6.83926 7.95672 6.71 7.75128 6.50257 7.67969C6.23873 7.58837 6.05621 7.4851 5.9493 7.37819L5.9492 7.37808M6.40052 8.58749L5.9492 7.37808M5.9492 7.37808C5.81702 7.24628 5.76822 7.07481 5.8134 6.73866L5.81341 6.73861M5.9492 7.37808L5.81341 6.73861M5.81341 6.73861C5.88917 6.17242 6.04583 5.76744 6.05398 5.74638C6.05424 5.74572 6.05435 5.74544 6.0543 5.74555L6.05431 5.74555M5.81341 6.73861L6.05431 5.74555M6.05431 5.74555L6.05494 5.74402M6.05431 5.74555L6.05494 5.74402M6.05494 5.74402C6.06054 5.73033 6.06544 5.71608 6.06942 5.70361L6.06955 5.70365M6.05494 5.74402L6.06955 5.70365M6.06955 5.70365L6.07086 5.69865M6.06955 5.70365L6.07086 5.69865M6.07086 5.69865C6.07082 5.69879 6.07096 5.69837 6.07127 5.69739C6.07944 5.67152 6.20967 5.25941 6.50174 4.77203L6.50174 4.77202M6.07086 5.69865L6.50174 4.77202M6.50174 4.77202C6.6314 4.55562 6.7454 4.43065 6.89749 4.37836C7.05176 4.32532 7.26941 4.33882 7.62604 4.46533L7.62605 4.46534M6.50174 4.77202L7.62605 4.46534M7.62605 4.46534C7.83509 4.53947 8.0584 4.4513 8.17338 4.26911C8.29131 4.08223 8.25662 3.83633 8.1035 3.68322C7.84136 3.42108 7.73784 3.23007 7.71979 3.06742C7.70195 2.90664 7.76487 2.74946 7.8995 2.54522L7.89963 2.54502M7.62605 4.46534L7.89963 2.54502M7.89963 2.54502C8.02059 2.36057 8.14349 2.202 8.2497 2.07576L10.0437 3.86977C7.23768 7.01992 7.34381 11.8669 10.3644 14.8874C13.3852 17.9082 18.2317 18.0143 21.3821 15.2081L23.1757 17.0016M7.89963 2.54502L23.1757 17.0016M23.1757 17.0016C23.0512 17.1063 22.8944 17.2273 22.711 17.3485L23.1757 17.0016ZM20.7196 14.5456C17.9356 16.9874 13.6814 16.8807 11.0262 14.2256C8.37103 11.5704 8.2641 7.316 10.7062 4.53226L20.7196 14.5456Z" fill="black" stroke="black" stroke-width="0.2"/>
</svg>
