<svg width="20" height="20" viewBox="0 0 20 20" fill="none" xmlns="http://www.w3.org/2000/svg">
<path d="M7.5 16.5L5 13L4.5 14.5L5 16L7.5 16.5Z" fill="#FFDE17"/>
<path d="M8 11.5L7 9.5L9 8.5L10 10.5L8 11.5Z" fill="#FFDE17"/>
<path d="M13 11.5L10 15L12.5 15.5L13.5 14L13 11.5Z" fill="#FFDE17"/>
<path d="M5.56208 12.2905C5.4711 12.1543 5.32724 12.0624 5.16548 12.0371C5.00368 12.0118 4.83864 12.0553 4.71044 12.1572C4.13649 12.6131 3.75681 13.2641 3.64138 13.9902C3.52524 14.7206 3.68774 15.4617 4.0988 16.077C4.50985 16.6922 5.13235 17.126 5.85161 17.2983C6.07849 17.3526 6.30853 17.3795 6.53743 17.3795C7.02981 17.3795 7.51669 17.2551 7.95427 17.0123C8.09747 16.9328 8.20087 16.797 8.23942 16.6378C8.27794 16.4786 8.24814 16.3106 8.15716 16.1744L5.56208 12.2905ZM5.07317 15.426C4.69528 14.8604 4.69091 14.1387 5.01106 13.5752L6.75927 16.1918C6.11614 16.2719 5.45103 15.9915 5.07317 15.426Z" fill="black"/>
<path d="M12.8012 11.1386L9.49811 14.4416C9.38229 14.5574 9.32022 14.7164 9.32698 14.8801C9.33373 15.0437 9.40866 15.1971 9.53358 15.303C10.0636 15.7522 10.7313 15.996 11.4251 15.996C11.4633 15.996 11.5017 15.9953 11.54 15.9938C12.279 15.9652 12.9742 15.6612 13.4974 15.138C14.0207 14.6147 14.3246 13.9196 14.3532 13.1805C14.3817 12.4459 14.1364 11.7333 13.6624 11.1741C13.5565 11.0492 13.4031 10.9742 13.2395 10.9675C13.0766 10.9609 12.9169 11.0228 12.8012 11.1386ZM12.6688 14.3093C12.1878 14.7903 11.4807 14.9354 10.8657 14.7314L13.0909 12.5062C13.2949 13.1213 13.1498 13.8283 12.6688 14.3093Z" fill="black"/>
<path d="M16.7773 3.51562H13.3789V0.585938C13.3789 0.262344 13.1166 0 12.793 0H3.26172C3.03996 0 2.83727 0.125156 2.73789 0.323398C2.63855 0.521641 2.65961 0.758945 2.7923 0.936602L4.23828 2.87227V5.59625C4.23828 6.43152 3.93098 7.1466 3.32492 7.7216C2.54832 8.45836 1.9373 9.32691 1.50871 10.3031C1.06488 11.3141 0.839844 12.3909 0.839844 13.5034C0.839844 15.8485 1.86648 18.0643 3.65652 19.5828C3.98293 19.8596 4.36551 20 4.79359 20H12.8235C13.2516 20 13.6342 19.8596 13.9606 19.5828C15.4151 18.349 16.3656 16.6547 16.6708 14.8047H16.7773C18.0912 14.8047 19.1601 13.7358 19.1601 12.4219V5.89844C19.1602 4.58453 18.0912 3.51562 16.7773 3.51562ZM12.207 1.17188V3.12504H5.41016V2.67758C5.41016 2.55117 5.36926 2.42816 5.29367 2.32691L4.43082 1.17188H12.207ZM13.2027 18.689C13.0877 18.7865 12.9743 18.8281 12.8236 18.8281H4.79363C4.64289 18.8281 4.52945 18.7865 4.41457 18.6891C2.88754 17.3937 2.01172 15.5036 2.01172 13.5034C2.01172 11.62 2.76453 9.86863 4.13152 8.5718C4.98 7.76684 5.41016 6.7657 5.41016 5.59629V4.29695H12.207V5.59629C12.207 6.76574 12.6373 7.76684 13.4857 8.5718C14.8526 9.86863 15.6055 11.6201 15.6055 13.5034C15.6055 15.5036 14.7296 17.3937 13.2027 18.689ZM17.9883 12.4219C17.9883 13.0896 17.4451 13.6328 16.7773 13.6328H16.7756C16.7763 13.5897 16.7773 13.5466 16.7773 13.5034C16.7773 12.3909 16.5523 11.3141 16.1085 10.3031C15.6799 9.32688 15.0689 8.45832 14.2923 7.7216C13.6862 7.1466 13.3789 6.43156 13.3789 5.59625V4.6875H16.7773C17.4451 4.6875 17.9883 5.2307 17.9883 5.89844V12.4219Z" fill="black"/>
<path d="M10.536 10.1367L9.36414 8.10695C9.28645 7.97238 9.15848 7.87417 9.0084 7.83394C8.85828 7.79371 8.69832 7.81476 8.56375 7.8925L6.53399 9.06437C6.39942 9.14207 6.30121 9.27004 6.26098 9.42015C6.22078 9.57027 6.24184 9.73019 6.31953 9.86476L7.49141 11.8945C7.59992 12.0825 7.79688 12.1875 7.99938 12.1875C8.09879 12.1875 8.19953 12.1622 8.2918 12.1089L10.3215 10.9371C10.6017 10.7753 10.6978 10.417 10.536 10.1367ZM8.21328 10.8011L7.62735 9.78625L8.64223 9.20031L9.22813 10.2152L8.21328 10.8011Z" fill="black"/>
</svg>
