<svg width="20" height="20" viewBox="0 0 20 20" fill="none" xmlns="http://www.w3.org/2000/svg">
<path d="M7.61877 16.5L5.11877 13L4.61877 14.5L5.11877 16L7.61877 16.5Z" fill="white"/>
<path d="M8.11877 11.5L7.11877 9.5L9.11877 8.5L10.1188 10.5L8.11877 11.5Z" fill="white"/>
<path d="M13.1188 11.5L10.1188 15L12.6188 15.5L13.6188 14L13.1188 11.5Z" fill="white"/>
<path d="M5.68092 12.2905C5.58994 12.1543 5.44607 12.0624 5.28431 12.0371C5.12252 12.0118 4.95748 12.0553 4.82927 12.1572C4.25533 12.6131 3.87564 13.2641 3.76021 13.9902C3.64408 14.7206 3.80658 15.4617 4.21763 16.077C4.62869 16.6922 5.25119 17.126 5.97045 17.2983C6.19732 17.3526 6.42736 17.3795 6.65627 17.3795C7.14865 17.3795 7.63553 17.2551 8.0731 17.0123C8.21631 16.9328 8.31971 16.797 8.35826 16.6378C8.39678 16.4786 8.36697 16.3106 8.27599 16.1744L5.68092 12.2905ZM5.19201 15.426C4.81412 14.8604 4.80974 14.1387 5.1299 13.5752L6.8781 16.1918C6.23498 16.2719 5.56986 15.9915 5.19201 15.426Z" fill="black"/>
<path d="M12.9199 11.1386L9.61688 14.4416C9.50106 14.5574 9.43899 14.7164 9.44575 14.8801C9.45251 15.0437 9.52743 15.1971 9.65235 15.303C10.1824 15.7522 10.8501 15.996 11.5439 15.996C11.5821 15.996 11.6204 15.9953 11.6588 15.9938C12.3978 15.9652 13.0929 15.6612 13.6162 15.138C14.1395 14.6147 14.4434 13.9196 14.472 13.1805C14.5005 12.4459 14.2551 11.7333 13.7811 11.1741C13.6753 11.0492 13.5219 10.9742 13.3583 10.9675C13.1954 10.9609 13.0357 11.0228 12.9199 11.1386ZM12.7876 14.3093C12.3066 14.7903 11.5995 14.9354 10.9845 14.7314L13.2097 12.5062C13.4137 13.1213 13.2686 13.8283 12.7876 14.3093Z" fill="black"/>
<path d="M16.8961 3.51562H13.4977V0.585938C13.4977 0.262344 13.2353 0 12.9117 0H3.38049C3.15874 0 2.95604 0.125156 2.85666 0.323398C2.75733 0.521641 2.77838 0.758945 2.91108 0.936602L4.35706 2.87227V5.59625C4.35706 6.43152 4.04975 7.1466 3.4437 7.7216C2.66709 8.45836 2.05608 9.32691 1.62749 10.3031C1.18366 11.3141 0.958618 12.3909 0.958618 13.5034C0.958618 15.8485 1.98526 18.0643 3.7753 19.5828C4.1017 19.8596 4.48428 20 4.91237 20H12.9423C13.3704 20 13.753 19.8596 14.0794 19.5828C15.5339 18.349 16.4844 16.6547 16.7896 14.8047H16.8961C18.21 14.8047 19.2789 13.7358 19.2789 12.4219V5.89844C19.2789 4.58453 18.21 3.51562 16.8961 3.51562ZM12.3258 1.17188V3.12504H5.52893V2.67758C5.52893 2.55117 5.48803 2.42816 5.41245 2.32691L4.54959 1.17188H12.3258ZM13.3214 18.689C13.2065 18.7865 13.0931 18.8281 12.9423 18.8281H4.91241C4.76167 18.8281 4.64823 18.7865 4.53334 18.6891C3.00631 17.3937 2.13049 15.5036 2.13049 13.5034C2.13049 11.62 2.88331 9.86863 4.2503 8.5718C5.09877 7.76684 5.52893 6.7657 5.52893 5.59629V4.29695H12.3258V5.59629C12.3258 6.76574 12.756 7.76684 13.6044 8.5718C14.9714 9.86863 15.7242 11.6201 15.7242 13.5034C15.7242 15.5036 14.8484 17.3937 13.3214 18.689ZM18.1071 12.4219C18.1071 13.0896 17.5639 13.6328 16.8961 13.6328H16.8944C16.8951 13.5897 16.8961 13.5466 16.8961 13.5034C16.8961 12.3909 16.6711 11.3141 16.2273 10.3031C15.7987 9.32688 15.1876 8.45832 14.411 7.7216C13.805 7.1466 13.4977 6.43156 13.4977 5.59625V4.6875H16.8961C17.5639 4.6875 18.1071 5.2307 18.1071 5.89844V12.4219Z" fill="black"/>
<path d="M10.6548 10.1367L9.48292 8.10695C9.40522 7.97238 9.27726 7.87417 9.12718 7.83394C8.97706 7.79371 8.8171 7.81476 8.68253 7.8925L6.65276 9.06437C6.51819 9.14207 6.41999 9.27004 6.37975 9.42015C6.33956 9.57027 6.36061 9.73019 6.43831 9.86476L7.61018 11.8945C7.7187 12.0825 7.91565 12.1875 8.11815 12.1875C8.21757 12.1875 8.31831 12.1622 8.41057 12.1089L10.4403 10.9371C10.7205 10.7753 10.8166 10.417 10.6548 10.1367ZM8.33206 10.8011L7.74612 9.78625L8.761 9.20031L9.3469 10.2152L8.33206 10.8011Z" fill="black"/>
</svg>
