<svg width="22" height="14" viewBox="0 0 22 14" fill="none" xmlns="http://www.w3.org/2000/svg">
<path d="M11.5 10L9 12.5L14 13L11.5 10Z" fill="#FFDE17"/>
<path d="M17.6838 3.15637C17.6838 2.37948 18.3159 1.69444 19.0928 1.69444C19.8696 1.69444 20.5017 2.32652 20.5017 3.10341C20.5017 3.8803 19.8696 4.51237 19.0928 4.51237C18.6791 4.51237 18.3436 4.8477 18.3436 5.26148C18.3436 5.67511 18.6791 6.01059 19.0928 6.01059C20.6958 6.01059 21.9999 4.70652 21.9999 3.10333C21.9999 1.5003 20.6958 0.196222 19.0928 0.196222C17.6336 0.196222 16.4225 1.27681 16.2168 2.6797C15.2591 3.01985 14.3811 3.18622 13.5445 3.18622C13.5444 3.18622 13.5442 3.18622 13.5439 3.18622C11.7702 3.18593 10.448 2.43156 9.04839 1.63311C8.21224 1.156 7.34772 0.662741 6.38121 0.340593C5.70328 0.114593 5.01654 0 4.34009 0C1.84869 0 0.28476 1.53533 0.219353 1.60052C0.0412789 1.77859 -0.0353137 2.03422 0.0152048 2.28096C0.0657974 2.52763 0.237057 2.73237 0.470834 2.82578C2.72239 3.72637 3.96313 5.23985 5.16291 6.70341C6.35491 8.15726 7.57995 9.64941 9.69083 10.2053C8.9858 10.8484 8.30313 11.7938 8.30313 13.0456C8.30313 13.4592 8.63854 13.7945 9.05224 13.7945H13.9964C13.997 13.7945 13.9975 13.7945 13.9979 13.7945C14.4116 13.7945 14.747 13.4592 14.747 13.0456C14.747 13.0273 14.7464 13.0093 14.7451 12.9913C14.7248 11.703 13.981 10.7439 13.2495 10.1093C15.8452 9.11052 17.6838 5.92111 17.6838 3.15637ZM9.96024 12.2966C10.2964 11.5156 11.0851 10.967 11.5234 10.7102C11.9604 10.9679 12.7494 11.5185 13.0869 12.2966H9.96024ZM14.7648 7.102C13.8389 8.2837 12.6935 8.93459 11.5395 8.93459C8.92935 8.93459 7.77861 7.53082 6.32165 5.75363C5.27232 4.4737 4.10624 3.05141 2.23498 2.00881C2.75632 1.74363 3.47298 1.49837 4.34017 1.49837C4.8552 1.49837 5.38246 1.58704 5.90743 1.76215C6.73372 2.03748 7.49743 2.47326 8.30595 2.93444C9.81365 3.79467 11.3728 4.6843 13.5439 4.68444C13.5442 4.68444 13.5444 4.68444 13.5447 4.68444C14.3574 4.68444 15.1913 4.55874 16.0701 4.30193C15.8683 5.28311 15.4112 6.27689 14.7648 7.102Z" fill="black"/>
</svg>
