<svg width="23" height="14" viewBox="0 0 23 14" fill="none" xmlns="http://www.w3.org/2000/svg">
<path d="M11.6187 10L9.11871 12.5L14.1187 13L11.6187 10Z" fill="white"/>
<path d="M17.8025 3.15637C17.8025 2.37948 18.4346 1.69444 19.2115 1.69444C19.9884 1.69444 20.6204 2.32652 20.6204 3.10341C20.6204 3.8803 19.9884 4.51237 19.2115 4.51237C18.7978 4.51237 18.4624 4.8477 18.4624 5.26148C18.4624 5.67511 18.7978 6.01059 19.2115 6.01059C20.8145 6.01059 22.1187 4.70652 22.1187 3.10333C22.1187 1.5003 20.8145 0.196222 19.2115 0.196222C17.7524 0.196222 16.5412 1.27681 16.3355 2.6797C15.3778 3.01985 14.4998 3.18622 13.6633 3.18622C13.6631 3.18622 13.6629 3.18622 13.6627 3.18622C11.8889 3.18593 10.5667 2.43156 9.1671 1.63311C8.33096 1.156 7.46644 0.662741 6.49992 0.340593C5.82199 0.114593 5.13525 0 4.45881 0C1.9674 0 0.403474 1.53533 0.338066 1.60052C0.159992 1.77859 0.0833996 2.03422 0.133918 2.28096C0.184511 2.52763 0.35577 2.73237 0.589548 2.82578C2.8411 3.72637 4.08184 5.23985 5.28162 6.70341C6.47362 8.15726 7.69866 9.64941 9.80955 10.2053C9.10451 10.8484 8.42184 11.7938 8.42184 13.0456C8.42184 13.4592 8.75725 13.7945 9.17096 13.7945H14.1151C14.1157 13.7945 14.1162 13.7945 14.1166 13.7945C14.5304 13.7945 14.8657 13.4592 14.8657 13.0456C14.8657 13.0273 14.8651 13.0093 14.8638 12.9913C14.8435 11.703 14.0997 10.7439 13.3682 10.1093C15.9639 9.11052 17.8025 5.92111 17.8025 3.15637ZM10.079 12.2966C10.4151 11.5156 11.2038 10.967 11.6421 10.7102C12.0791 10.9679 12.8681 11.5185 13.2056 12.2966H10.079ZM14.8835 7.102C13.9576 8.2837 12.8122 8.93459 11.6582 8.93459C9.04807 8.93459 7.89733 7.53082 6.44036 5.75363C5.39103 4.4737 4.22496 3.05141 2.3537 2.00881C2.87503 1.74363 3.5917 1.49837 4.45888 1.49837C4.97392 1.49837 5.50118 1.58704 6.02614 1.76215C6.85244 2.03748 7.61614 2.47326 8.42466 2.93444C9.93236 3.79467 11.4915 4.6843 13.6626 4.68444C13.6629 4.68444 13.6631 4.68444 13.6634 4.68444C14.4761 4.68444 15.31 4.55874 16.1888 4.30193C15.987 5.28311 15.5299 6.27689 14.8835 7.102Z" fill="black"/>
</svg>
