<svg width="18" height="18" viewBox="0 0 18 18" fill="none" xmlns="http://www.w3.org/2000/svg">
<path fill-rule="evenodd" clip-rule="evenodd" d="M6.74994 0.625C7.02608 0.625 7.24994 0.848858 7.24994 1.125C7.24994 1.43546 7.30752 1.60697 7.36467 1.71175C7.4235 1.81961 7.50391 1.89933 7.63253 2.00651C7.64744 2.01894 7.66405 2.03247 7.68201 2.04711C7.79883 2.1423 7.9727 2.28397 8.10492 2.46761C8.27748 2.70727 8.37494 2.99931 8.37494 3.375C8.37494 3.74986 8.27694 4.04295 8.0708 4.27198C7.97798 4.37512 7.87756 4.44879 7.79633 4.50294C7.75757 4.52878 7.71851 4.55317 7.686 4.57346L7.68216 4.57586C7.64681 4.59793 7.6178 4.6161 7.58979 4.63478C7.48937 4.70172 7.42523 4.75965 7.37293 4.86423C7.31419 4.98171 7.24994 5.2016 7.24994 5.625C7.24994 5.90114 7.02608 6.125 6.74994 6.125C6.4738 6.125 6.24994 5.90114 6.24994 5.625C6.24994 5.1109 6.32631 4.72141 6.47851 4.41702C6.63715 4.09973 6.85426 3.92328 7.03509 3.80272C7.07702 3.77477 7.11797 3.7492 7.15167 3.72816L7.15256 3.72761C7.18852 3.70516 7.21602 3.68796 7.24163 3.67089C7.29224 3.63715 7.31486 3.61707 7.32751 3.60302C7.32772 3.60278 7.32801 3.60248 7.32837 3.60212C7.33602 3.59426 7.37494 3.5543 7.37494 3.375C7.37494 3.18819 7.33178 3.10523 7.29339 3.05192C7.24365 2.98283 7.18311 2.93274 7.06152 2.83212C7.04039 2.81464 7.01742 2.79563 6.99235 2.77474C6.83972 2.64755 6.63888 2.46946 6.48677 2.1906C6.33299 1.90866 6.24994 1.56454 6.24994 1.125C6.24994 0.848858 6.4738 0.625 6.74994 0.625Z" fill="black"/>
<path fill-rule="evenodd" clip-rule="evenodd" d="M8.99994 0.625C9.27608 0.625 9.49994 0.848858 9.49994 1.125C9.49994 1.43546 9.55752 1.60697 9.61467 1.71175C9.6735 1.81961 9.75391 1.89933 9.88253 2.00651C9.89744 2.01894 9.91405 2.03247 9.93201 2.04711C10.0488 2.1423 10.2227 2.28397 10.3549 2.46761C10.5275 2.70727 10.6249 2.99931 10.6249 3.375C10.6249 3.74986 10.5269 4.04295 10.3208 4.27198C10.228 4.37512 10.1276 4.44879 10.0463 4.50294C10.0076 4.52878 9.96851 4.55317 9.936 4.57346L9.93216 4.57586C9.89681 4.59793 9.8678 4.6161 9.83979 4.63478C9.73937 4.70172 9.67523 4.75965 9.62293 4.86423C9.56419 4.98171 9.49994 5.2016 9.49994 5.625C9.49994 5.90114 9.27608 6.125 8.99994 6.125C8.7238 6.125 8.49994 5.90114 8.49994 5.625C8.49994 5.1109 8.57631 4.72141 8.72851 4.41702C8.88715 4.09973 9.10426 3.92328 9.28509 3.80272C9.32702 3.77477 9.36797 3.7492 9.40167 3.72816L9.40256 3.72761C9.43852 3.70516 9.46602 3.68796 9.49163 3.67089C9.54224 3.63715 9.56486 3.61707 9.57751 3.60302C9.57772 3.60278 9.57801 3.60248 9.57837 3.60212C9.58602 3.59426 9.62494 3.5543 9.62494 3.375C9.62494 3.18819 9.58178 3.10523 9.54339 3.05192C9.49365 2.98283 9.43311 2.93274 9.31152 2.83212C9.29039 2.81464 9.26742 2.79563 9.24235 2.77474C9.08972 2.64755 8.88888 2.46946 8.73677 2.1906C8.58299 1.90866 8.49994 1.56454 8.49994 1.125C8.49994 0.848858 8.7238 0.625 8.99994 0.625Z" fill="black"/>
<path fill-rule="evenodd" clip-rule="evenodd" d="M11.2499 0.625C11.5261 0.625 11.7499 0.848858 11.7499 1.125C11.7499 1.43546 11.8075 1.60697 11.8647 1.71175C11.9235 1.81961 12.0039 1.89933 12.1325 2.00651C12.1474 2.01894 12.164 2.03247 12.182 2.04711C12.2988 2.1423 12.4727 2.28397 12.6049 2.46761C12.7775 2.70727 12.8749 2.99931 12.8749 3.375C12.8749 3.74986 12.7769 4.04295 12.5708 4.27198C12.478 4.37512 12.3776 4.44879 12.2963 4.50294C12.2576 4.52878 12.2185 4.55317 12.186 4.57346L12.1822 4.57586C12.1468 4.59793 12.1178 4.6161 12.0898 4.63478C11.9894 4.70172 11.9252 4.75965 11.8729 4.86423C11.8142 4.98171 11.7499 5.2016 11.7499 5.625C11.7499 5.90114 11.5261 6.125 11.2499 6.125C10.9738 6.125 10.7499 5.90114 10.7499 5.625C10.7499 5.1109 10.8263 4.72141 10.9785 4.41702C11.1372 4.09973 11.3543 3.92328 11.5351 3.80272C11.577 3.77477 11.618 3.7492 11.6517 3.72816L11.6526 3.72761C11.6885 3.70516 11.716 3.68796 11.7416 3.67089C11.7922 3.63715 11.8149 3.61707 11.8275 3.60302C11.8277 3.60278 11.828 3.60248 11.8284 3.60212C11.836 3.59426 11.8749 3.5543 11.8749 3.375C11.8749 3.18819 11.8318 3.10523 11.7934 3.05192C11.7436 2.98283 11.6831 2.93274 11.5615 2.83212C11.5404 2.81464 11.5174 2.79563 11.4923 2.77474C11.3397 2.64755 11.1389 2.46946 10.9868 2.1906C10.833 1.90866 10.7499 1.56454 10.7499 1.125C10.7499 0.848858 10.9738 0.625 11.2499 0.625Z" fill="black"/>
<path fill-rule="evenodd" clip-rule="evenodd" d="M16.9999 7.75H0.999939V10.25H16.9999V7.75ZM0.999939 6.75C0.447654 6.75 -6.10352e-05 7.19772 -6.10352e-05 7.75V10.25C-6.10352e-05 10.8023 0.447655 11.25 0.999939 11.25H16.9999C17.5522 11.25 17.9999 10.8023 17.9999 10.25V7.75C17.9999 7.19772 17.5522 6.75 16.9999 6.75H0.999939Z" fill="black"/>
<path d="M8.99994 9C10.2426 9 11.2499 7.99264 11.2499 6.75H6.74994C6.74994 7.99264 7.7573 9 8.99994 9Z" fill="black"/>
<path d="M0.999939 11H16.9999V14H0.999939V11Z" fill="#FFDE17"/>
<path fill-rule="evenodd" clip-rule="evenodd" d="M16.9999 11.125H0.999939V13.625H16.9999V11.125ZM0.999939 10.125C0.447654 10.125 -6.10352e-05 10.5727 -6.10352e-05 11.125V13.625C-6.10352e-05 14.1773 0.447655 14.625 0.999939 14.625H16.9999C17.5522 14.625 17.9999 14.1773 17.9999 13.625V11.125C17.9999 10.5727 17.5522 10.125 16.9999 10.125H0.999939Z" fill="black"/>
<path d="M8.99994 12.375C10.2426 12.375 11.2499 11.3676 11.2499 10.125H6.74994C6.74994 11.3676 7.7573 12.375 8.99994 12.375Z" fill="black"/>
<path fill-rule="evenodd" clip-rule="evenodd" d="M16.9999 14.5H0.999939V17H16.9999V14.5ZM0.999939 13.5C0.447654 13.5 -6.10352e-05 13.9477 -6.10352e-05 14.5V17C-6.10352e-05 17.5523 0.447655 18 0.999939 18H16.9999C17.5522 18 17.9999 17.5523 17.9999 17V14.5C17.9999 13.9477 17.5522 13.5 16.9999 13.5H0.999939Z" fill="black"/>
<path d="M8.99994 15.75C10.2426 15.75 11.2499 14.7426 11.2499 13.5H6.74994C6.74994 14.7426 7.7573 15.75 8.99994 15.75Z" fill="black"/>
</svg>
