<svg width="18" height="18" viewBox="0 0 18 18" fill="none" xmlns="http://www.w3.org/2000/svg">
<path fill-rule="evenodd" clip-rule="evenodd" d="M6.75 0.625C7.02614 0.625 7.25 0.848858 7.25 1.125C7.25 1.43546 7.30758 1.60697 7.36473 1.71175C7.42356 1.81961 7.50397 1.89933 7.63259 2.00651C7.6475 2.01894 7.66411 2.03247 7.68207 2.04711C7.79889 2.1423 7.97276 2.28397 8.10499 2.46761C8.27754 2.70727 8.375 2.99931 8.375 3.375C8.375 3.74986 8.277 4.04295 8.07087 4.27198C7.97804 4.37512 7.87762 4.44879 7.79639 4.50294C7.75763 4.52878 7.71857 4.55317 7.68606 4.57346L7.68222 4.57586C7.64687 4.59793 7.61786 4.6161 7.58985 4.63478C7.48943 4.70172 7.42529 4.75965 7.37299 4.86423C7.31426 4.98171 7.25 5.2016 7.25 5.625C7.25 5.90114 7.02614 6.125 6.75 6.125C6.47386 6.125 6.25 5.90114 6.25 5.625C6.25 5.1109 6.32637 4.72141 6.47857 4.41702C6.63721 4.09973 6.85432 3.92328 7.03515 3.80272C7.07708 3.77477 7.11803 3.7492 7.15173 3.72816L7.15262 3.72761C7.18858 3.70516 7.21608 3.68796 7.24169 3.67089C7.2923 3.63715 7.31492 3.61707 7.32757 3.60302C7.32779 3.60278 7.32807 3.60248 7.32843 3.60212C7.33608 3.59426 7.375 3.5543 7.375 3.375C7.375 3.18819 7.33184 3.10523 7.29345 3.05192C7.24371 2.98283 7.18317 2.93274 7.06158 2.83212C7.04045 2.81464 7.01748 2.79563 6.99241 2.77474C6.83978 2.64755 6.63894 2.46946 6.48683 2.1906C6.33305 1.90866 6.25 1.56454 6.25 1.125C6.25 0.848858 6.47386 0.625 6.75 0.625Z" fill="black"/>
<path fill-rule="evenodd" clip-rule="evenodd" d="M9 0.625C9.27614 0.625 9.5 0.848858 9.5 1.125C9.5 1.43546 9.55758 1.60697 9.61473 1.71175C9.67356 1.81961 9.75397 1.89933 9.88259 2.00651C9.8975 2.01894 9.91411 2.03247 9.93207 2.04711C10.0489 2.1423 10.2228 2.28397 10.355 2.46761C10.5275 2.70727 10.625 2.99931 10.625 3.375C10.625 3.74986 10.527 4.04295 10.3209 4.27198C10.228 4.37512 10.1276 4.44879 10.0464 4.50294C10.0076 4.52878 9.96857 4.55317 9.93606 4.57346L9.93222 4.57586C9.89687 4.59793 9.86786 4.6161 9.83985 4.63478C9.73943 4.70172 9.67529 4.75965 9.62299 4.86423C9.56426 4.98171 9.5 5.2016 9.5 5.625C9.5 5.90114 9.27614 6.125 9 6.125C8.72386 6.125 8.5 5.90114 8.5 5.625C8.5 5.1109 8.57637 4.72141 8.72857 4.41702C8.88721 4.09973 9.10432 3.92328 9.28515 3.80272C9.32708 3.77477 9.36803 3.7492 9.40173 3.72816L9.40262 3.72761C9.43858 3.70516 9.46608 3.68796 9.49169 3.67089C9.5423 3.63715 9.56492 3.61707 9.57757 3.60302C9.57779 3.60278 9.57807 3.60248 9.57843 3.60212C9.58608 3.59426 9.625 3.5543 9.625 3.375C9.625 3.18819 9.58184 3.10523 9.54345 3.05192C9.49371 2.98283 9.43317 2.93274 9.31158 2.83212C9.29045 2.81464 9.26748 2.79563 9.24241 2.77474C9.08978 2.64755 8.88894 2.46946 8.73683 2.1906C8.58305 1.90866 8.5 1.56454 8.5 1.125C8.5 0.848858 8.72386 0.625 9 0.625Z" fill="black"/>
<path fill-rule="evenodd" clip-rule="evenodd" d="M11.25 0.625C11.5261 0.625 11.75 0.848858 11.75 1.125C11.75 1.43546 11.8076 1.60697 11.8647 1.71175C11.9236 1.81961 12.004 1.89933 12.1326 2.00651C12.1475 2.01894 12.1641 2.03247 12.1821 2.04711C12.2989 2.1423 12.4728 2.28397 12.605 2.46761C12.7775 2.70727 12.875 2.99931 12.875 3.375C12.875 3.74986 12.777 4.04295 12.5709 4.27198C12.478 4.37512 12.3776 4.44879 12.2964 4.50294C12.2576 4.52878 12.2186 4.55317 12.1861 4.57346L12.1822 4.57586C12.1469 4.59793 12.1179 4.6161 12.0899 4.63478C11.9894 4.70172 11.9253 4.75965 11.873 4.86423C11.8143 4.98171 11.75 5.2016 11.75 5.625C11.75 5.90114 11.5261 6.125 11.25 6.125C10.9739 6.125 10.75 5.90114 10.75 5.625C10.75 5.1109 10.8264 4.72141 10.9786 4.41702C11.1372 4.09973 11.3543 3.92328 11.5351 3.80272C11.5771 3.77477 11.618 3.7492 11.6517 3.72816L11.6526 3.72761C11.6886 3.70516 11.7161 3.68796 11.7417 3.67089C11.7923 3.63715 11.8149 3.61707 11.8276 3.60302C11.8278 3.60278 11.8281 3.60248 11.8284 3.60212C11.8361 3.59426 11.875 3.5543 11.875 3.375C11.875 3.18819 11.8318 3.10523 11.7935 3.05192C11.7437 2.98283 11.6832 2.93274 11.5616 2.83212C11.5405 2.81464 11.5175 2.79563 11.4924 2.77474C11.3398 2.64755 11.1389 2.46946 10.9868 2.1906C10.833 1.90866 10.75 1.56454 10.75 1.125C10.75 0.848858 10.9739 0.625 11.25 0.625Z" fill="black"/>
<path fill-rule="evenodd" clip-rule="evenodd" d="M17 7.75H1V10.25H17V7.75ZM1 6.75C0.447715 6.75 0 7.19772 0 7.75V10.25C0 10.8023 0.447716 11.25 1 11.25H17C17.5523 11.25 18 10.8023 18 10.25V7.75C18 7.19772 17.5523 6.75 17 6.75H1Z" fill="black"/>
<path d="M9 9C10.2426 9 11.25 7.99264 11.25 6.75H6.75C6.75 7.99264 7.75736 9 9 9Z" fill="black"/>
<path d="M1 11H17V14H1V11Z" fill="white"/>
<path fill-rule="evenodd" clip-rule="evenodd" d="M17 11.125H1V13.625H17V11.125ZM1 10.125C0.447715 10.125 0 10.5727 0 11.125V13.625C0 14.1773 0.447716 14.625 1 14.625H17C17.5523 14.625 18 14.1773 18 13.625V11.125C18 10.5727 17.5523 10.125 17 10.125H1Z" fill="black"/>
<path d="M9 12.375C10.2426 12.375 11.25 11.3676 11.25 10.125H6.75C6.75 11.3676 7.75736 12.375 9 12.375Z" fill="black"/>
<path fill-rule="evenodd" clip-rule="evenodd" d="M17 14.5H1V17H17V14.5ZM1 13.5C0.447715 13.5 0 13.9477 0 14.5V17C0 17.5523 0.447716 18 1 18H17C17.5523 18 18 17.5523 18 17V14.5C18 13.9477 17.5523 13.5 17 13.5H1Z" fill="black"/>
<path d="M9 15.75C10.2426 15.75 11.25 14.7426 11.25 13.5H6.75C6.75 14.7426 7.75736 15.75 9 15.75Z" fill="black"/>
</svg>
