<svg width="150" height="149" viewBox="0 0 150 149" fill="none" xmlns="http://www.w3.org/2000/svg">
<path d="M-13.6459 13.204L-11.1139 7.29061L3.23384 -9.8159L7.87577 -12.9838L26.8655 -19.9531L29.6084 -20.7979H36.7823L56.827 -17.4188L61.891 -14.6733L79.1927 -0.523478L82.9906 5.38988L89.7425 27.1426L90.1645 29.8881L85.1006 55.4422L83.8346 57.9765L68.6429 75.9278L63.3679 79.0957L43.9562 86.4874L35.7274 87.1209L15.0497 83.1083L7.45378 79.7292L-6.05003 66.6354L-9.84797 60.9332L-18.0768 39.6029L-17.6548 33.056L-14.7009 14.6823L-13.6459 13.204Z" fill="url(#paint0_linear)"/>
<path d="M80.6696 2.01039C80.6696 2.01039 76.6607 -1.79107 80.4586 -5.59251C84.2566 -9.18276 98.6043 -15.7297 104.09 -36.4264C104.09 -36.4264 106.2 -44.0293 113.163 -49.3091C113.163 -49.3091 115.906 -51.8434 114.851 -53.5329C113.163 -56.0672 108.31 -52.8994 108.31 -52.8994C108.31 -52.8994 99.6593 -47.6196 95.6504 -45.93C88.8985 -42.9734 76.4497 -36.0041 66.7438 -16.1521C66.1108 -15.0961 61.2579 -14.4625 58.726 -16.1521" fill="url(#paint1_linear)"/>
<path d="M80.6696 2.01061C80.6696 2.01061 78.7707 0.109882 78.7707 -2.00203C78.7707 -3.26918 79.4037 -4.32513 80.4586 -5.38109C81.0916 -6.01466 82.1466 -6.85943 83.6236 -7.91539C89.3205 -11.928 99.6594 -19.5309 104.09 -36.215C104.09 -36.215 104.723 -38.1158 105.989 -40.65C107.255 -42.9732 109.576 -46.3522 112.952 -49.0977C112.952 -49.0977 115.695 -51.632 114.64 -53.3215C114.429 -53.7439 113.796 -54.1663 113.374 -54.1663C111.264 -54.5887 108.31 -52.688 108.31 -52.688C108.31 -52.688 99.6594 -47.4082 95.6504 -45.7186C83.6236 -40.65 73.9177 -30.5129 66.7438 -15.9407C66.5328 -15.5183 65.8999 -15.3071 65.0559 -15.0959C64.0009 -14.8847 62.9459 -14.8847 61.8909 -14.8847C61.0469 -14.8847 59.7809 -15.3071 58.726 -15.9407C60.4139 -14.6735 63.1569 -14.6735 65.0559 -15.0959C65.8999 -15.3071 66.5328 -15.5183 66.5328 -15.9407C70.7528 -24.8107 76.0277 -31.9912 82.1466 -37.271C86.1556 -40.8612 90.5865 -43.6067 95.4394 -45.7186C99.4484 -47.4082 108.099 -52.4768 108.099 -52.688C108.099 -52.688 111.264 -54.5887 113.163 -54.1663C113.796 -53.9551 114.218 -53.7439 114.429 -53.3215C114.851 -52.688 114.64 -51.632 114.007 -50.576C113.374 -49.7313 112.741 -49.0977 112.741 -49.0977C109.154 -46.3522 107.044 -42.9732 105.778 -40.65C104.301 -38.1158 103.879 -36.215 103.879 -36.215C102.824 -32.2024 101.347 -28.6121 99.6594 -25.2331C98.1824 -22.2764 96.2834 -19.7421 94.1734 -17.2078C90.3755 -12.7728 86.3666 -9.81611 83.4126 -7.7042C82.1466 -6.64824 80.8806 -6.01466 80.2476 -5.1699C79.1927 -4.11395 78.5597 -3.05798 78.5597 -1.79083C78.9817 0.10989 80.6696 2.01061 80.6696 2.01061Z" fill="url(#paint2_linear)"/>
<path d="M5.76637 -11.7166C5.76637 -11.7166 1.54643 -7.49282 -2.04052 -11.2943C-5.62746 -15.0957 -10.9024 -30.0903 -31.5801 -35.7925C-31.5801 -35.7925 -39.809 -37.9044 -45.2949 -44.8737C-45.2949 -44.8737 -48.0379 -47.8304 -49.5148 -46.5632C-50.5698 -45.9296 -47.8269 -40.4387 -47.8269 -40.4387C-47.8269 -40.4387 -42.9739 -31.3574 -41.286 -27.3448C-38.332 -20.5867 -32.6351 -7.49281 -12.5904 2.43318C-11.5354 3.06675 -10.9024 7.92414 -12.5904 10.2472" fill="url(#paint3_linear)"/>
<path d="M-12.591 10.2473C-11.536 8.55782 -11.325 5.81233 -11.747 4.1228C-11.958 3.27803 -12.169 2.64446 -12.591 2.64446C-17.2329 0.321354 -21.4529 -2.21294 -25.0398 -5.16962C-28.2048 -7.70392 -30.9477 -10.4494 -33.2687 -13.4061C-37.6996 -18.8971 -39.8096 -23.9657 -41.2866 -27.1335C-42.9745 -31.1462 -47.6165 -40.0162 -47.8275 -40.2274C-48.0385 -40.4386 -50.5704 -45.7184 -49.5155 -46.352C-48.8825 -46.7743 -47.8275 -46.7743 -46.7725 -45.9296C-45.9285 -45.296 -45.2955 -44.6624 -45.2955 -44.6624C-42.5526 -41.0722 -38.9656 -38.9603 -36.4336 -37.6931C-33.6907 -36.2148 -31.5807 -35.7924 -31.5807 -35.7924C-27.7828 -34.7364 -24.1958 -33.2581 -21.0309 -31.5686C-18.2879 -30.0902 -15.7559 -28.1895 -13.435 -26.0776C-9.21503 -22.2761 -6.47208 -18.0523 -4.5731 -15.0956C-3.51812 -13.4061 -2.67413 -12.1389 -2.04114 -11.5054C-0.986153 -10.4494 0.0688286 -10.027 1.33481 -10.027C3.65578 -10.027 5.76575 -11.9277 5.76575 -12.1389C5.76575 -12.1389 3.65578 -10.027 1.33481 -10.027C0.0688286 -10.027 -0.986153 -10.6606 -2.04114 -11.5054C-2.88512 -12.3501 -3.51812 -13.6173 -4.5731 -15.0956C-8.58205 -21.2202 -15.123 -31.5686 -31.5807 -35.7924C-31.5807 -35.7924 -33.6907 -36.426 -36.4336 -37.6931C-38.9656 -38.9603 -42.5526 -41.2834 -45.2955 -44.6624C-45.2955 -44.6624 -48.0385 -47.4079 -49.5155 -46.352C-50.5704 -45.7184 -47.8275 -40.4386 -47.8275 -40.2274C-47.8275 -40.2274 -42.9745 -31.1462 -41.2866 -27.1335C-38.5436 -20.7978 -32.8467 -7.49273 -12.591 2.64446C-12.169 2.85565 -11.958 3.48922 -11.747 4.33399C-11.325 5.81233 -11.536 8.55782 -12.591 10.2473Z" fill="url(#paint4_linear)"/>
<path d="M-7.94899 63.8896C-7.94899 63.8896 -3.94006 67.6911 -7.738 71.4925C-11.5359 75.0828 -25.8837 81.6297 -31.3696 102.326C-31.3696 102.326 -33.4796 109.929 -40.4425 115.209C-40.4425 115.209 -43.1855 117.743 -42.1305 119.433C-40.4425 121.967 -35.5896 118.799 -35.5896 118.799C-35.5896 118.799 -26.9387 113.52 -22.9298 111.83C-16.1779 108.873 -3.72906 101.904 5.9768 82.0521C6.60979 80.9962 9.98574 79.9402 12.3067 81.6297" fill="url(#paint5_linear)"/>
<path d="M-40.2316 120.489C-40.4426 120.489 -40.6536 120.489 -40.8646 120.489C-41.4976 120.278 -41.9196 120.067 -42.1306 119.644C-42.5525 119.011 -42.3415 117.955 -41.7086 116.899C-41.0756 116.054 -40.4426 115.421 -40.4426 115.421C-36.8556 112.675 -34.7457 109.296 -33.4797 106.973C-32.0027 104.439 -31.5807 102.538 -31.5807 102.538C-30.5257 98.5253 -29.0487 94.935 -27.3608 91.556C-25.8838 88.5993 -23.9848 86.065 -21.8749 83.5307C-18.0769 79.0957 -14.068 76.139 -11.114 74.0271C-9.84803 72.9711 -8.58204 72.3375 -7.94905 71.4928C-6.89407 70.4368 -6.26108 69.3809 -6.26108 68.1137C-6.26108 65.7906 -7.94906 64.1011 -8.16006 64.1011C-8.16006 64.1011 -6.26108 66.0018 -6.26108 68.1137C-6.26108 69.3809 -6.89407 70.4368 -7.94905 71.4928C-8.58204 72.1263 -9.63703 72.9711 -11.114 74.0271C-16.8109 78.0397 -27.1498 85.6426 -31.5807 102.327C-31.5807 102.327 -32.2137 104.227 -33.4797 106.762C-34.7457 109.085 -37.0666 112.464 -40.4426 115.209C-40.4426 115.209 -43.1855 117.744 -42.1306 119.433C-41.9196 119.856 -41.2866 120.278 -40.8646 120.278C-38.7546 120.7 -35.8006 118.8 -35.8006 118.8C-35.8006 118.8 -27.1498 113.52 -23.1408 111.83C-11.114 106.762 -1.40815 96.6246 5.76575 82.0523C5.97674 81.63 6.82073 80.9964 7.87571 80.7852C9.35269 80.3628 11.0407 80.7852 12.3066 81.63C11.0407 80.7852 9.56369 80.574 7.87571 80.7852C6.82073 80.9964 6.18774 81.4188 5.97674 82.0523C1.7568 90.9224 -3.51812 98.1029 -9.63703 103.383C-13.646 106.973 -18.0769 109.718 -22.9298 111.83C-26.9388 113.52 -35.5896 118.588 -35.5896 118.8C-35.8006 118.8 -38.3326 120.489 -40.2316 120.489Z" fill="url(#paint6_linear)"/>
<path d="M12.0956 81.6299C12.0956 81.6299 18.6365 83.5306 17.1596 88.388C15.6826 93.4566 6.39873 106.128 12.0956 126.825C12.0956 126.825 13.9946 134.428 10.8297 142.453C10.8297 142.453 9.77468 146.043 11.4627 146.888C14.2056 148.366 16.7376 143.087 16.7376 143.087C16.7376 143.087 21.5905 134.217 24.3335 130.837C28.7644 124.924 35.9383 112.675 34.4613 90.4999C34.4613 89.2328 38.0483 86.2761 41.0022 86.4873" fill="url(#paint7_linear)"/>
<path d="M12.3067 147.522C11.8847 147.522 11.6737 147.522 11.4627 147.31C10.8297 146.888 10.4077 146.043 10.4077 144.776C10.4077 143.72 10.8297 142.875 10.8297 142.875C12.5177 138.652 12.7287 134.639 12.7287 132.105C12.7287 129.148 12.0957 127.247 12.0957 127.247C11.0407 123.235 10.4077 119.433 10.4077 115.632C10.4077 112.464 10.6187 109.085 11.2517 105.917C12.3067 100.215 14.4167 95.5685 15.8936 92.4006C16.5266 90.9223 17.1596 89.6551 17.3706 88.8104C17.7926 87.5432 17.5816 86.4873 16.9486 85.4313C15.6826 83.1082 12.3067 82.0522 12.0957 82.0522C12.0957 82.0522 15.4716 83.1082 16.9486 85.4313C17.5816 86.4873 17.5816 87.7544 17.3706 89.0216C17.1596 90.0775 16.5266 91.1335 15.8936 92.823C13.1507 99.1587 7.66475 110.774 12.3067 127.67C12.3067 127.67 12.7287 129.57 12.9397 132.527C12.9397 135.272 12.7287 139.285 11.0407 143.509C11.0407 143.509 9.98572 147.099 11.6737 147.944C12.0957 148.155 12.7287 148.155 13.3617 148.155C15.2606 147.522 16.9486 144.354 16.9486 144.354C16.9486 144.354 22.0125 135.484 24.5445 132.105C32.3514 121.545 35.7273 108.029 34.6724 91.767C34.6724 91.3447 35.0944 90.7111 35.7273 90.0775C36.9933 88.8104 39.3143 87.5432 41.2133 87.7544C39.3143 87.5432 36.9933 88.8104 35.7273 90.0775C35.0944 90.7111 34.6724 91.3447 34.6724 91.767C35.3054 101.482 34.4614 110.352 31.9294 117.955C30.2414 123.235 27.9205 127.67 24.5445 132.105C22.0125 135.484 17.1596 144.354 16.9486 144.354C16.9486 144.354 15.2606 147.522 13.3617 148.155C12.7287 147.31 12.5177 147.522 12.3067 147.522Z" fill="url(#paint8_linear)"/>
<path d="M41.0022 86.6982C41.0022 86.6982 46.2771 85.431 47.5431 90.4996C48.8091 95.5682 51.974 111.196 66.9548 126.402C66.9548 126.402 72.4407 132.104 73.7067 140.763C73.7067 140.763 74.5507 144.565 76.4497 144.353C79.4036 144.142 79.1926 138.44 79.1926 138.44C79.1926 138.44 78.9816 128.303 79.6146 124.079C80.4586 116.687 76.0277 102.538 63.5789 83.9527C62.9459 82.8967 63.7899 78.6729 66.5328 77.4058" fill="url(#paint9_linear)"/>
<path d="M76.4497 144.353C75.6057 144.353 74.9727 143.72 74.3397 142.664C73.9177 141.819 73.7067 140.763 73.7067 140.763C73.0738 136.328 71.1748 132.738 69.9088 130.415C68.4318 127.88 66.9548 126.402 66.9548 126.402C60.8359 120.278 55.983 113.308 52.396 105.705C49.4421 99.3697 48.3871 94.3011 47.5431 91.3444C47.5431 90.922 47.3321 90.7108 47.3321 90.4996C46.6991 87.9653 45.0111 86.9094 43.5342 86.6982C42.0572 86.487 40.7912 86.6982 40.7912 86.6982C40.7912 86.6982 42.0572 86.2758 43.5342 86.6982C44.3781 86.9094 45.2221 87.3318 45.6441 87.7541C46.4881 88.3877 46.9101 89.4437 47.1211 90.4996C47.1211 90.7108 47.3321 91.1332 47.3321 91.3444C48.5981 97.0466 52.185 112.041 66.5328 126.402C66.5328 126.402 68.0098 127.88 69.4868 130.415C70.9638 132.738 72.6517 136.328 73.2847 140.763C73.7067 140.763 74.5507 144.353 76.4497 144.353C77.0827 144.353 77.5047 144.142 77.9267 143.509C79.4037 142.03 79.1927 138.44 79.1927 138.229C79.1927 138.229 78.9817 128.092 79.6147 123.868C80.0366 120.066 78.9817 114.575 76.6607 108.029C73.9177 100.637 69.4868 92.6115 63.5789 83.9527C63.1569 83.5303 63.3679 82.2632 63.5789 81.2072C64.0009 79.3065 65.2669 78.0393 66.5328 77.4058C65.2669 78.0393 64.2119 79.3065 63.5789 81.2072C63.1569 82.4743 63.1569 83.5303 63.5789 83.9527C69.4868 92.6115 73.9177 100.848 76.6607 108.24C79.1927 114.787 80.2476 120.278 79.6147 124.079C79.1927 128.303 79.1927 138.44 79.1927 138.44C79.1927 138.44 79.4037 142.03 77.9267 143.72C77.7157 144.142 77.0827 144.353 76.4497 144.353Z" fill="url(#paint10_linear)"/>
<path d="M66.5328 77.406C66.5328 77.406 71.1748 73.3934 74.9727 77.1948C78.5597 80.9962 90.3755 88.8103 109.576 97.8915C113.585 99.7923 119.915 105.072 123.924 107.818C123.924 107.818 129.199 110.141 130.254 108.451C131.098 106.762 127.511 102.96 127.511 102.96C127.511 102.96 120.97 93.4565 119.282 89.4439C116.328 82.6858 105.567 73.1822 85.5226 63.4674C84.4676 62.8338 82.7796 58.8212 84.6786 56.498" fill="url(#paint11_linear)"/>
<path d="M128.566 109.085C127.933 109.085 127.3 108.874 126.456 108.663C124.979 108.24 123.713 107.607 123.713 107.607C122.236 106.762 120.759 105.495 118.86 104.016C115.695 101.693 111.897 98.9477 109.365 97.6806C90.7975 89.0218 78.5597 80.9965 74.7617 76.9838C72.8627 75.0831 70.7528 75.0831 69.2758 75.7167C67.5878 76.1391 66.5328 77.195 66.5328 77.195C66.5328 77.195 67.7988 76.1391 69.2758 75.7167C70.3308 75.5055 71.1748 75.2943 72.0188 75.5055C73.0737 75.7167 74.1287 76.1391 74.7617 76.9838C78.7707 80.9965 91.0085 89.0218 109.365 97.6806C111.897 98.9477 115.695 101.693 118.86 104.016C120.548 105.283 122.236 106.551 123.713 107.607C123.713 107.607 128.988 109.93 130.043 108.24C130.887 106.551 127.511 102.96 127.3 102.749C127.3 102.749 120.759 93.0344 119.071 89.2329C117.594 86.0651 114.007 81.8412 108.732 77.6174C102.824 72.9712 95.0174 68.1138 85.5226 63.4676C84.8896 63.2564 84.2566 61.9893 84.0456 60.7221C83.6236 59.0326 83.8346 57.3431 84.6786 56.2871C83.8346 57.3431 83.6236 59.0326 84.0456 60.7221C84.2566 61.9893 84.8896 63.0452 85.5226 63.2564C95.0174 67.9026 102.824 72.76 108.732 77.4062C114.007 81.6301 117.805 85.8539 119.282 89.2329C120.97 93.2456 127.511 102.749 127.511 102.749C127.722 102.96 131.098 106.551 130.254 108.24C129.832 108.874 129.41 109.085 128.566 109.085Z" fill="url(#paint12_linear)"/>
<path d="M84.4677 56.4986C84.4677 56.4986 86.7886 50.374 91.8525 52.0636C99.6594 54.8091 109.576 52.6971 129.41 53.9643C129.41 53.9643 137.639 53.9643 145.657 57.1322C145.657 57.1322 148.611 58.8217 149.666 57.1322C151.143 54.3867 146.712 52.486 146.712 52.486C146.712 52.486 138.272 45.7278 134.896 43.1935C128.988 38.7585 117.172 31.578 94.1735 34.7459C92.9075 34.9571 89.5316 31.7892 89.9536 28.8325" fill="url(#paint13_linear)"/>
<path d="M148.189 58.1879C146.923 58.1879 145.657 57.3431 145.657 57.3431C137.639 54.1753 129.621 54.1753 129.41 54.1753C120.97 53.5417 114.218 53.5417 108.943 53.7529C101.558 53.7529 96.2834 53.7529 91.8525 52.2745C89.3205 51.4298 87.4216 52.6969 86.3666 53.9641C85.1006 55.02 84.4676 56.4984 84.4676 56.4984C84.4676 56.4984 85.1006 55.02 86.3666 53.5417C86.9996 52.6969 87.8435 52.2745 88.6875 51.8521C89.7425 51.4298 90.7975 51.4298 91.8525 51.8521C96.2834 53.3305 101.558 53.3305 108.943 53.3305C114.429 53.3305 120.97 53.3305 129.41 53.7529C129.41 53.7529 137.639 53.9641 145.657 56.9207C145.657 56.9207 147.556 57.9767 148.822 57.5543C149.244 57.3431 149.455 57.1319 149.666 56.9207C149.877 56.2872 150.088 55.6536 149.877 55.2312C149.244 53.5417 146.923 52.4857 146.923 52.2745C146.923 52.2745 138.483 45.5164 135.107 42.9821C129.621 38.7583 120.759 33.6897 105.567 33.6897C102.191 33.6897 98.3934 33.9009 94.3844 34.5344C93.7514 34.5344 92.9075 34.1121 92.0635 33.2673C91.0085 32.2113 89.7425 30.3106 89.9535 28.6211C89.7425 30.3106 90.7975 32.2113 92.0635 33.2673C92.9075 34.1121 93.7515 34.5344 94.1734 34.5344C104.301 33.0561 113.374 33.4785 120.97 35.8016C127.722 37.7023 132.153 40.8702 134.896 42.9821C138.272 45.5164 146.501 52.0633 146.712 52.2745C146.712 52.2745 149.244 53.5417 149.666 55.2312C149.877 55.8648 149.877 56.4984 149.455 57.1319C149.244 57.5543 149.033 57.7655 148.611 57.7655C148.611 57.9767 148.4 58.1879 148.189 58.1879Z" fill="url(#paint14_linear)"/>
<path d="M89.7426 29.043C89.7426 29.043 88.6876 22.9184 93.7515 21.6513C98.8154 20.3841 110.209 16.7939 127.933 4.75596C131.309 2.43285 135.318 1.37689 143.969 0.109741C143.969 0.109741 147.767 -0.735023 147.556 -2.63575C147.345 -5.59243 140.804 -5.59243 140.804 -5.59243C140.804 -5.59243 130.465 -7.28196 126.245 -7.70435C118.86 -8.54911 105.778 -6.64839 87.2106 5.81191C86.1556 6.44549 81.7247 4.75596 80.6697 2.01047" fill="url(#paint15_linear)"/>
<path d="M89.7425 29.0432C89.7425 29.0432 89.5315 27.5648 89.9535 25.8753C90.1645 24.8194 90.5865 23.9746 91.2195 23.341C91.8525 22.4963 92.9075 21.8627 93.9625 21.6515C100.714 19.962 111.897 15.7381 128.144 4.7562C129.832 3.48905 131.731 2.85548 134.263 2.01071C136.584 1.37714 139.327 0.954751 144.18 0.109985C144.18 0.109985 147.767 -0.734778 147.767 -2.6355C147.767 -4.11384 145.868 -4.95861 144.391 -5.1698C142.703 -5.59218 141.226 -5.59218 141.015 -5.59218C140.804 -5.59218 130.676 -7.28171 126.456 -7.70409C120.548 -8.33767 107.466 -7.70409 87.4216 5.81215C86.9996 6.02334 86.3666 6.02334 85.5226 5.81215C83.8346 5.38977 81.5137 3.91143 80.6697 2.01071C81.5137 3.70024 83.6236 5.17858 85.5226 5.81215C86.3666 6.02334 86.9996 6.02334 87.2106 5.81215C95.6505 0.109987 103.457 -3.69145 110.842 -6.01456C118.016 -8.12647 123.08 -8.12648 126.245 -7.70409C130.465 -7.28171 140.804 -5.59218 140.804 -5.59218C140.804 -5.59218 142.492 -5.59218 144.18 -5.1698C146.29 -4.74741 147.556 -3.69146 147.556 -2.42431C147.556 -1.57955 146.923 -0.945972 145.868 -0.312398C145.024 0.109984 143.969 0.321181 143.969 0.321181C135.74 1.58833 131.52 2.43309 127.933 4.96738C111.897 15.9493 100.503 20.3843 93.7515 21.8627C91.2195 22.4963 90.1645 24.397 89.7425 25.8753C89.5316 27.5648 89.7425 29.0432 89.7425 29.0432Z" fill="url(#paint16_linear)"/>
<path d="M63.7899 24.8192C63.7899 24.8192 54.2951 18.2723 44.1672 27.7759C50.7081 30.099 48.5982 30.7326 58.726 30.099C62.524 29.8878 63.7899 24.8192 63.7899 24.8192Z" fill="white"/>
<path d="M9.14172 24.8195C9.14172 24.8195 18.4256 18.9062 28.3425 27.565C22.0125 29.6769 24.1225 30.3105 14.2057 29.6769C10.6187 29.4657 9.14172 24.8195 9.14172 24.8195Z" fill="white"/>
<path d="M74.5508 58.1875C73.7068 60.0882 76.0277 62.8337 74.1288 64.3121L74.5508 58.1875Z" fill="url(#paint17_linear)"/>
<path d="M74.3398 58.1877C73.4958 60.0884 75.6058 62.6227 74.1288 64.1011C73.9178 64.3123 74.1288 64.5234 74.3398 64.3123C76.2388 62.6227 73.9178 60.0884 74.7618 58.1877C74.9728 57.9765 74.5508 57.7653 74.3398 58.1877Z" fill="#8B5A20"/>
<path d="M74.1288 64.5233C74.3398 63.6785 73.4958 63.0449 73.0738 62.4113C72.8628 61.7778 72.6519 60.5106 72.8628 59.877C73.0738 59.0323 74.1288 58.8211 74.3398 58.1875" fill="url(#paint18_linear)"/>
<path d="M74.3399 64.5233C74.3399 63.4674 73.7069 63.045 73.2849 62.2002C73.0739 61.5666 72.8629 60.5107 73.2849 59.8771C73.4959 59.2435 74.3399 59.0323 74.7619 58.3988C74.9729 58.1876 74.5509 57.7652 74.5509 58.1876C73.9179 59.0323 72.8629 59.4547 72.8629 60.7219C72.8629 61.3554 73.0739 62.2002 73.2849 62.6226C73.4959 63.2562 74.3399 63.6785 74.3399 64.7345C73.9179 64.7345 74.3399 64.7345 74.3399 64.5233Z" fill="#8B5A20"/>
<path d="M71.8079 61.9893C70.7529 63.89 72.8629 66.8467 70.7529 68.1138L71.8079 61.9893Z" fill="url(#paint19_linear)"/>
<path d="M71.5969 61.9888C70.7529 63.6784 72.4409 66.6351 70.7529 67.9022C70.5419 68.1134 70.7529 68.5358 70.9639 68.3246C73.0739 66.8462 70.9639 64.1008 72.0189 62.2C72.2299 61.9888 71.8079 61.7777 71.5969 61.9888Z" fill="#8B5A20"/>
<path d="M70.7529 68.3247C70.9639 67.48 70.1199 66.8464 70.1199 66.2128C69.9089 65.5793 69.6979 64.3121 70.1199 63.6785C70.5419 63.045 71.3858 62.6226 71.8078 62.2002" fill="url(#paint20_linear)"/>
<path d="M70.9633 68.3246C71.1743 67.2686 70.3303 66.6351 70.1193 65.7903C69.9083 64.9455 69.9083 63.8896 70.5413 63.256C70.9633 62.8336 71.5963 62.6224 72.0183 62.2C72.2293 61.9888 71.8073 61.7777 71.8073 61.9888C71.1743 62.8336 69.9083 63.0448 69.9083 64.312C69.9083 64.9455 69.9083 65.5791 70.1193 66.0015C70.3303 66.8463 71.1743 67.4798 70.9633 68.3246C70.9633 68.5358 70.5413 68.5358 70.9633 68.3246Z" fill="#8B5A20"/>
<path d="M68.643 65.5791C67.377 67.2686 69.0649 70.4365 66.955 71.4924L68.643 65.5791Z" fill="url(#paint21_linear)"/>
<path d="M68.432 65.5794C67.377 67.269 68.8539 70.2256 66.9549 71.4928C66.744 71.7039 66.955 71.9151 67.166 71.9151C69.276 70.648 67.5879 67.6913 68.8539 66.0018C69.0649 65.5794 68.643 65.3682 68.432 65.5794Z" fill="#8B5A20"/>
<path d="M66.9549 71.7036C67.3769 70.8589 66.5329 70.2253 66.5329 69.3805C66.3219 68.7469 66.3219 67.4798 66.7439 66.8462C67.1659 66.2127 68.2209 66.0015 68.6429 65.5791" fill="url(#paint22_linear)"/>
<path d="M67.166 71.7035C67.377 70.6475 66.533 69.5916 66.533 68.5356C66.533 67.6908 66.744 66.8461 67.377 66.4237C67.799 66.2125 68.221 66.0013 68.643 65.579C68.854 65.3678 68.643 65.1566 68.432 65.3677C67.588 66.2125 66.533 66.2125 66.322 67.4797C66.111 67.902 66.322 68.5356 66.322 68.958C66.322 69.8028 67.166 70.4363 66.955 71.2811C66.744 71.9147 67.166 72.1258 67.166 71.7035Z" fill="#8B5A20"/>
<path d="M65.0559 68.7476C63.579 70.2259 65.0559 73.605 62.735 74.4497L65.0559 68.7476Z" fill="url(#paint23_linear)"/>
<path d="M65.056 68.7474C63.79 70.2257 64.845 73.6048 62.946 74.4496C62.735 74.6607 62.946 74.8719 63.157 74.8719C65.4779 73.816 64.001 70.8593 65.4779 69.1698C65.4779 68.7474 65.2669 68.5362 65.056 68.7474Z" fill="#8B5A20"/>
<path d="M62.946 74.6604C63.368 74.0269 62.735 73.1821 62.735 72.3373C62.735 71.7038 62.735 70.4366 63.157 69.803C63.579 69.1695 64.634 69.1695 65.2669 68.7471" fill="url(#paint24_linear)"/>
<path d="M63.157 74.8718C63.579 73.8159 62.946 72.9711 62.946 71.9151C62.946 71.0704 63.157 70.2256 63.79 69.8032C64.212 69.3809 64.845 69.3808 65.267 68.9585C65.478 68.7473 65.267 68.3249 65.056 68.5361C64.212 69.1696 63.157 69.1697 62.735 70.2256C62.524 70.8592 62.524 71.4928 62.524 72.1263C62.524 72.9711 63.157 73.6047 62.735 74.6606C62.524 74.8718 62.946 75.083 63.157 74.8718Z" fill="#8B5A20"/>
<path d="M61.258 71.7036C59.57 73.182 60.625 76.561 58.515 77.1946L61.258 71.7036Z" fill="url(#paint25_linear)"/>
<path d="M61.258 71.4927C59.781 72.9711 60.625 76.1389 58.5151 76.7725C58.3041 76.7725 58.3041 77.1949 58.7261 77.1949C61.258 76.5613 59.992 73.1823 61.68 71.7039C61.68 71.7039 61.469 71.2815 61.258 71.4927Z" fill="#8B5A20"/>
<path d="M58.515 77.1951C58.937 76.5615 58.515 75.7167 58.515 74.872C58.515 74.2384 58.726 72.9713 59.359 72.5489C59.992 71.9153 60.836 71.9153 61.469 71.7041" fill="url(#paint26_linear)"/>
<path d="M58.515 77.406C59.148 76.3501 58.304 75.2941 58.515 74.2382C58.726 73.3934 58.937 72.7598 59.781 72.3374C60.203 72.1263 60.836 72.1263 61.258 71.9151C61.469 71.7039 61.258 71.4927 61.047 71.4927C59.992 72.1263 58.937 71.9151 58.515 73.1822C58.304 73.6046 58.304 74.027 58.093 74.4494C58.093 75.2941 58.515 76.3501 58.093 77.1949C58.093 77.4061 58.515 77.6172 58.515 77.406Z" fill="#8B5A20"/>
<path d="M57.249 74.0273C55.5611 75.2945 56.1941 78.8847 53.8731 79.0959L57.249 74.0273Z" fill="url(#paint27_linear)"/>
<path d="M57.0381 73.8154C56.4051 74.449 55.9831 75.0826 55.7721 75.9273C55.3501 76.9833 55.1391 78.4616 53.8731 78.884C53.6621 78.884 53.6621 79.3064 54.0841 79.3064C56.6161 78.884 55.7721 75.505 57.4601 74.2378C57.4601 74.0266 57.2491 73.8154 57.0381 73.8154Z" fill="#8B5A20"/>
<path d="M53.662 79.3071C54.295 78.6735 53.873 77.8288 53.873 76.984C53.873 76.3504 54.295 75.0833 54.928 74.6609C55.561 74.0273 56.6159 74.2385 57.0379 74.0273" fill="url(#paint28_linear)"/>
<path d="M53.873 79.5179C54.506 78.6732 54.084 77.406 54.295 76.5613C54.506 75.7165 54.928 75.0829 55.772 74.8717C56.194 74.6605 56.827 74.6606 57.249 74.4494C57.46 74.4494 57.46 73.8158 57.038 74.027C55.983 74.4494 54.928 74.2382 54.295 75.2941C54.084 75.7165 53.873 76.3501 53.6621 76.7725C53.4511 77.6172 53.873 78.462 53.451 79.3068C53.451 79.5179 53.873 79.7291 53.873 79.5179Z" fill="#8B5A20"/>
<path d="M52.8181 76.1387C50.9191 77.1946 51.3411 80.7849 49.0201 80.7849L52.8181 76.1387Z" fill="url(#paint29_linear)"/>
<path d="M52.8181 75.9277C51.9741 76.3501 51.5521 77.1948 51.3411 78.0396C50.9191 79.0956 50.4971 80.5739 49.0201 80.7851C48.8091 80.7851 48.8091 81.2075 49.0201 81.2075C51.5521 80.9963 51.1301 77.6172 53.0291 76.3501C53.2401 76.1389 53.0291 75.7165 52.8181 75.9277Z" fill="#8B5A20"/>
<path d="M48.8091 80.9961C49.4421 80.3625 49.0201 79.5177 49.2311 78.673C49.4421 78.0394 49.8641 76.7722 50.4971 76.561C51.13 76.1387 52.185 76.3499 52.818 76.1387" fill="url(#paint30_linear)"/>
<path d="M49.0201 80.9961C49.6531 80.1513 49.4421 79.0954 49.6531 78.2506C49.8641 77.617 50.2861 76.7723 51.1301 76.3499C51.7631 76.1387 52.3961 76.3499 52.8181 76.1387C53.0291 76.1387 53.0291 75.7163 52.6071 75.7163C51.5521 75.9275 50.4971 75.7163 49.6531 76.7723C49.4421 77.1946 49.0201 77.8282 49.0201 78.2506C48.8091 79.0954 49.2311 79.9401 48.5981 80.5737C48.5981 80.9961 48.8091 81.2073 49.0201 80.9961Z" fill="#8B5A20"/>
<path d="M48.3872 77.6167C46.4883 78.4615 46.2773 82.0517 43.9563 81.8405L48.3872 77.6167Z" fill="url(#paint31_linear)"/>
<path d="M48.1762 77.4057C47.3322 77.8281 46.6992 78.6728 46.2772 79.5176C45.6443 80.5736 45.2223 81.6295 43.9563 81.6295C43.7453 81.6295 43.7453 82.0519 43.9563 82.0519C46.4882 82.0519 46.4882 78.6728 48.3872 77.8281C48.8092 77.6169 48.5982 77.1945 48.1762 77.4057Z" fill="#8B5A20"/>
<path d="M43.9563 82.0517C44.5893 81.6293 44.3783 80.5734 44.5893 79.9398C44.8003 79.3062 45.4333 78.2503 46.0663 77.8279C46.6993 77.4055 47.7542 77.8279 48.3872 77.6167" fill="url(#paint32_linear)"/>
<path d="M43.9563 82.2629C44.8003 81.6293 44.3783 80.5734 44.8003 79.7286C45.0113 79.095 45.4333 78.4615 46.0663 78.2503C46.6992 77.8279 47.5432 78.2503 48.3872 78.0391C48.5982 78.0391 48.5982 77.6167 48.1762 77.6167C46.9102 77.8279 45.8553 77.4055 45.0113 78.4615C44.5893 78.8839 44.3783 79.5174 44.1673 79.9398C43.9563 80.5734 44.1673 81.4181 43.5343 82.0517C43.5343 82.0517 43.7453 82.2629 43.9563 82.2629Z" fill="#8B5A20"/>
<path d="M43.7452 78.6733C41.6352 79.3069 41.2132 82.8972 38.8923 82.4748L43.7452 78.6733Z" fill="url(#paint33_linear)"/>
<path d="M43.7452 78.4619C42.9012 78.673 42.2682 79.5178 41.8462 80.1514C41.2132 80.9961 40.5802 82.4745 39.1033 82.2633C38.8923 82.2633 38.6813 82.6857 38.8923 82.6857C41.4242 83.1081 41.6352 79.5178 43.7452 78.8842C43.9562 78.673 43.9562 78.2507 43.7452 78.4619Z" fill="#8B5A20"/>
<path d="M38.6813 82.4748C39.5253 82.0525 39.3143 80.9965 39.5253 80.3629C39.7363 79.7294 40.5803 78.6734 41.2132 78.4622C41.8462 78.0398 42.9012 78.6734 43.5342 78.4622" fill="url(#paint34_linear)"/>
<path d="M38.8923 82.6859C39.7363 82.0523 39.5253 81.2075 39.9473 80.3628C40.1583 79.7292 40.7913 79.3068 41.2133 78.8844C41.8463 78.462 42.9013 78.8844 43.5342 78.8844C43.7452 78.8844 43.7452 78.462 43.5342 78.462C42.9013 78.462 42.2683 78.2508 41.4243 78.462C41.0023 78.462 40.5803 78.8844 40.1583 79.3068C39.7363 79.7292 39.5253 80.1516 39.3143 80.5739C39.1033 81.2075 39.1033 82.0523 38.4703 82.6859C38.4703 82.4747 38.6813 82.897 38.8923 82.6859Z" fill="#8B5A20"/>
<path d="M38.8922 79.0957C36.7823 79.5181 35.9383 83.1084 33.8283 82.4748L38.8922 79.0957Z" fill="url(#paint35_linear)"/>
<path d="M38.8923 78.8843C36.9933 79.3067 35.9383 82.6857 33.8284 82.2633C33.6174 82.2633 33.4064 82.6857 33.6174 82.6857C36.1493 83.3193 36.7823 79.9402 38.8923 79.3067C39.3143 79.3067 39.1033 78.8843 38.8923 78.8843Z" fill="#8B5A20"/>
<path d="M33.6174 82.4741C34.4614 82.0517 34.4614 80.9958 34.6724 80.5734C35.0944 79.9398 35.9384 79.095 36.5714 78.8838C37.4154 78.6726 38.2593 79.095 38.8923 79.095" fill="url(#paint36_linear)"/>
<path d="M33.8284 82.6855C34.6723 82.2631 34.6723 81.2072 35.0943 80.3624C35.5163 79.7288 36.1493 79.0953 36.7823 78.8841C37.4153 78.6729 38.2593 79.0953 39.1033 79.0953C39.3143 79.0953 39.3143 78.6729 39.1033 78.6729C37.8373 78.6729 36.9933 78.0393 35.7273 79.0953C35.3053 79.5176 34.8833 79.94 34.6724 80.3624C34.2504 80.996 34.4614 81.8408 33.6174 82.2631C33.4064 82.4743 33.6174 82.8967 33.8284 82.6855Z" fill="#8B5A20"/>
<path d="M34.2505 79.0957C32.1405 79.3069 30.8745 82.686 28.7645 81.8412L34.2505 79.0957Z" fill="url(#paint37_linear)"/>
<path d="M34.2505 78.8843C32.1405 79.0955 31.0855 82.2634 28.9755 81.6298C28.7645 81.6298 28.5535 82.0522 28.7645 82.0522C31.0855 82.8969 32.1405 79.5179 34.2505 79.3067C34.4614 79.3067 34.4614 78.8843 34.2505 78.8843Z" fill="#8B5A20"/>
<path d="M28.5535 82.0521C29.3975 81.8409 29.3975 80.7849 29.8194 80.1513C30.2414 79.5177 31.0854 78.673 31.9294 78.673C32.7734 78.4618 33.6174 79.0954 34.2504 79.0954" fill="url(#paint38_linear)"/>
<path d="M28.7644 82.2633C29.6084 81.8409 29.8194 80.7849 30.2414 80.1513C30.6634 79.729 31.0854 79.3066 31.5074 79.0954C32.3514 78.673 33.1954 79.3066 34.0394 79.5178C34.2504 79.5178 34.4614 79.0954 34.2504 79.0954C32.7734 78.8842 32.1404 78.2506 30.8744 79.0954C30.4524 79.3066 30.0304 79.729 29.8194 80.1513C29.3974 80.7849 29.3974 81.6297 28.5534 82.0521C28.1315 81.8409 28.3424 82.2633 28.7644 82.2633Z" fill="#8B5A20"/>
<path d="M29.3974 78.6733C27.2874 78.6733 25.8105 81.8412 23.7005 80.7853L29.3974 78.6733Z" fill="url(#paint39_linear)"/>
<path d="M29.3975 78.4619C27.4985 78.4619 25.8105 81.6298 23.7006 80.5738C23.4896 80.3626 23.2786 80.785 23.4896 80.9962C25.8105 82.0522 27.0765 78.8843 29.3975 78.8843C29.8195 78.8843 29.8195 78.4619 29.3975 78.4619Z" fill="#8B5A20"/>
<path d="M23.4895 80.9963C24.3335 80.7851 24.5445 79.7291 24.9665 79.3067C25.3885 78.8843 26.4435 78.0396 27.0764 78.0396C27.9204 78.0396 28.5534 78.6731 29.1864 78.6731" fill="url(#paint40_linear)"/>
<path d="M23.7005 81.2074C24.5445 80.9962 24.7555 80.1514 25.3885 79.5179C25.8105 78.8843 26.4435 78.4619 27.2875 78.2507C28.1315 78.0395 28.9754 78.6731 29.6084 78.8843C29.8194 78.8843 30.0304 78.4619 29.8194 78.4619C28.5534 78.0395 27.9205 77.4059 26.6545 78.0395C26.0215 78.2507 25.5995 78.6731 25.1775 79.0955C24.7555 79.729 24.5445 80.5738 23.7005 80.785C23.2785 80.785 23.2785 81.2074 23.7005 81.2074Z" fill="#8B5A20"/>
<path d="M24.7556 77.8285C22.6456 77.6173 20.7466 80.7852 18.8477 79.3069L24.7556 77.8285Z" fill="url(#paint41_linear)"/>
<path d="M24.7555 77.6173C22.6455 77.4061 20.9576 80.3628 19.0586 79.0956C18.8476 78.8844 18.6366 79.3068 18.8476 79.518C20.9576 80.7852 22.6455 77.8285 24.9665 78.0397C25.1775 78.0397 25.1775 77.6173 24.7555 77.6173Z" fill="#8B5A20"/>
<path d="M18.6366 79.3068C19.4806 79.3068 19.6916 78.2508 20.3246 77.8284C20.7466 77.406 22.0125 76.7725 22.6455 76.7725C23.4895 76.7725 24.1225 77.6172 24.7555 77.6172" fill="url(#paint42_linear)"/>
<path d="M18.8476 79.518C19.6916 79.3068 20.1136 78.462 20.5356 77.8285C21.1685 77.1949 22.0125 76.9837 22.6455 76.7725C23.2785 76.7725 24.1225 77.4061 24.7555 77.6173C24.9665 77.6173 25.1775 77.1949 24.9665 77.1949C23.7005 76.7725 23.0675 75.9277 21.8015 76.5613C21.3795 76.7725 20.7465 76.9837 20.3245 77.4061C19.6916 77.8285 19.4806 78.6732 18.6366 78.8844C18.4256 79.3068 18.4256 79.7292 18.8476 79.518Z" fill="#8B5A20"/>
<path d="M20.3246 76.3494C18.2147 75.9271 16.1047 78.8837 14.2057 77.1942L20.3246 76.3494Z" fill="url(#paint43_linear)"/>
<path d="M20.3246 76.1385C18.2146 75.7161 16.1047 78.4616 14.4167 76.9832C14.2057 76.772 13.9947 77.1944 14.2057 77.4056C16.3157 78.884 18.2146 76.1385 20.3246 76.5609C20.5356 76.5609 20.5356 76.1385 20.3246 76.1385Z" fill="#8B5A20"/>
<path d="M13.9947 77.1942C14.8387 77.1942 15.2607 76.1382 15.8937 75.7159C16.5267 75.2935 17.5816 74.8711 18.2146 74.8711C19.0586 74.8711 19.6916 75.7159 20.1136 76.1382" fill="url(#paint44_linear)"/>
<path d="M13.9947 77.4058C14.8387 77.1946 15.2607 76.7722 15.6827 76.1387C16.3157 75.5051 17.1597 75.2939 17.7926 75.2939C18.6366 75.2939 19.2696 76.1387 19.9026 76.3498C20.1136 76.561 20.3246 76.1386 20.1136 75.9275C19.0586 75.2939 18.4256 74.4491 16.9487 74.8715C16.3157 75.0827 15.8937 75.2939 15.4717 75.5051C14.8387 75.9275 14.6277 76.7722 13.7837 76.7722C13.7837 77.1946 13.7837 77.617 13.9947 77.4058Z" fill="#8B5A20"/>
<path d="M15.8937 74.4489C13.7837 73.8153 11.4628 76.3496 9.77478 74.6601L15.8937 74.4489Z" fill="url(#paint45_linear)"/>
<path d="M15.8936 74.2376C13.9947 73.604 11.4627 76.1383 9.98572 74.66C9.77472 74.4488 9.56372 74.8712 9.77471 74.8712C11.6737 76.5607 13.7837 74.0264 15.8936 74.66C16.1046 74.66 16.3156 74.2376 15.8936 74.2376Z" fill="#8B5A20"/>
<path d="M9.56372 74.6605C10.4077 74.6605 10.8297 73.8157 11.4627 73.3933C12.0957 72.971 13.3617 72.7598 13.9946 72.7598C14.8386 72.971 15.2606 73.8157 15.8936 74.0269" fill="url(#paint46_linear)"/>
<path d="M9.56378 74.8714C10.6188 74.8714 11.0407 74.0267 11.8847 73.6043C12.7287 73.1819 13.5727 72.9707 14.4167 73.3931C14.8387 73.6043 15.2607 74.2379 15.6827 74.4491C15.8937 74.6603 16.1047 74.2379 15.8937 74.0267C14.8387 73.3931 14.4167 72.5483 12.9397 72.5483C12.5177 72.5483 11.8847 72.7595 11.4627 72.9707C10.6188 73.3931 10.1968 74.2379 9.35278 74.2379C9.35278 74.4491 9.35278 74.8714 9.56378 74.8714Z" fill="#8B5A20"/>
<path d="M11.6738 72.1265C9.77482 71.2817 7.03185 73.6048 5.55487 71.7041L11.6738 72.1265Z" fill="url(#paint47_linear)"/>
<path d="M11.8848 71.9154C9.9858 71.0706 7.45384 73.1825 5.97686 71.7042C5.76586 71.493 5.55487 71.7042 5.76587 71.9154C7.45384 73.8161 9.9858 71.493 11.8848 72.3377C11.8848 72.3377 12.0958 71.9154 11.8848 71.9154Z" fill="#8B5A20"/>
<path d="M5.55487 71.7037C6.39886 71.9149 7.03185 71.0702 7.66484 70.6478C8.29783 70.4366 9.56382 70.2254 10.1968 70.4366C11.0408 70.6478 11.2518 71.7037 11.8848 71.9149" fill="url(#paint48_linear)"/>
<path d="M5.55479 71.9154C6.60978 71.9154 7.03177 71.2818 7.87576 70.8594C8.50875 70.6482 9.56374 70.437 10.1967 70.8594C10.8297 71.0706 11.0407 71.9154 11.6737 72.3377C11.8847 72.5489 12.3067 72.1266 11.8847 72.1266C11.0407 71.493 10.6187 70.437 9.35274 70.437C8.71975 70.437 7.87576 70.6482 7.45377 70.8594C6.82078 71.0706 6.39878 71.9154 5.3438 71.9154C5.1328 71.493 5.1328 71.9154 5.55479 71.9154Z" fill="#8B5A20"/>
<path d="M7.87588 69.3812C5.9769 68.3252 3.02294 70.4371 1.75696 68.3252L7.87588 69.3812Z" fill="url(#paint49_linear)"/>
<path d="M8.08682 69.1695C6.39884 68.3248 3.44489 70.0143 2.1789 68.3248C1.96791 68.1136 1.54591 68.3248 1.75691 68.536C3.23389 70.6479 5.97685 68.536 7.87582 69.5919C8.08682 69.5919 8.29781 69.1695 8.08682 69.1695Z" fill="#8B5A20"/>
<path d="M1.7569 68.325C2.60089 68.5362 3.23388 67.6914 3.86687 67.4802C4.49986 67.269 5.76584 67.0578 6.39884 67.4802C7.03183 67.9026 7.45382 68.7474 7.87582 69.1697" fill="url(#paint50_linear)"/>
<path d="M1.54586 68.5359C2.60085 68.7471 3.23384 67.9024 4.07782 67.6912C4.92181 67.48 5.97679 67.48 6.60978 68.1136C7.03177 68.5359 7.24277 69.1695 7.66476 69.5919C7.87576 69.8031 8.08676 69.3807 7.87576 69.3807C7.03178 68.7471 6.82077 67.48 5.55479 67.48C4.9218 67.48 4.28882 67.48 3.86682 67.6912C3.02284 67.9024 2.38985 68.7471 1.54586 68.5359C1.33487 68.5359 1.54586 68.1136 1.54586 68.5359Z" fill="#8B5A20"/>
<path d="M4.28883 66.213C2.60086 64.9458 -0.564095 66.6354 -1.61908 64.5234L4.28883 66.213Z" fill="url(#paint51_linear)"/>
<path d="M4.49982 66.0018C2.81185 64.9459 -0.142104 66.4242 -1.40808 64.5235C-1.61908 64.3123 -1.83008 64.5235 -1.83008 64.7347C-0.564099 66.8466 2.38986 65.1571 4.07783 66.4242C4.49983 66.4242 4.71081 66.213 4.49982 66.0018Z" fill="#8B5A20"/>
<path d="M-1.83008 64.5235C-0.98609 64.9459 -0.353093 64.1011 0.490895 64.1011C1.12389 63.8899 2.38987 63.8899 3.02286 64.3123C3.65585 64.7347 3.86685 65.7907 4.28884 66.213" fill="url(#paint52_linear)"/>
<path d="M-1.83005 64.7345C-0.775059 64.9457 0.279927 64.101 1.33491 64.101C2.1789 64.101 3.02289 64.3121 3.44489 64.9457C3.65588 65.3681 3.86688 65.7905 4.28888 66.2129C4.49988 66.4241 4.71087 66.2129 4.49987 66.0017C3.65588 65.1569 3.65588 64.101 2.3899 63.8898C1.96791 63.6786 1.33492 63.8898 0.912926 63.8898C0.0689366 63.8898 -0.56406 64.7345 -1.40805 64.5233C-2.04104 64.101 -2.04104 64.5233 -1.83005 64.7345Z" fill="#8B5A20"/>
<path d="M1.12386 62.6229C-0.353121 61.1446 -3.72907 62.6229 -4.57306 60.2998L1.12386 62.6229Z" fill="url(#paint53_linear)"/>
<path d="M1.33485 62.4113C-0.142132 61.1442 -3.51808 62.2001 -4.36206 60.2994C-4.57306 60.0882 -4.78406 60.2994 -4.78406 60.5106C-3.72907 62.8337 -0.775116 61.3554 0.912858 62.8337C1.12386 63.0449 1.54584 62.6225 1.33485 62.4113Z" fill="#8B5A20"/>
<path d="M-4.78406 60.2996C-4.15107 60.722 -3.30708 60.0884 -2.4631 60.0884C-1.83011 60.0884 -0.564122 60.0884 0.0688682 60.5108C0.701859 60.9332 0.701859 61.9891 1.12385 62.4115" fill="url(#paint54_linear)"/>
<path d="M-4.78401 60.5105C-3.72903 60.9329 -2.88504 60.2993 -1.83006 60.2993C-0.986071 60.2993 -0.142083 60.5105 0.279912 61.1441C0.701905 61.5665 0.701909 62.2001 1.1239 62.6224C1.3349 62.8336 1.7569 62.6224 1.5459 62.4112C0.912907 61.5665 0.912909 60.5105 -0.142076 60.0881C-0.775067 59.8769 -1.40806 59.877 -2.04105 59.877C-2.88504 59.877 -3.51803 60.5105 -4.57302 60.0881C-4.99501 60.0881 -4.99501 60.5105 -4.78401 60.5105Z" fill="#8B5A20"/>
<path d="M0.701843 5.38968C1.75683 3.48896 -0.353144 0.532285 1.75683 -0.734863L0.701843 5.38968Z" fill="url(#paint55_linear)"/>
<path d="M0.912914 5.38938C1.75691 3.69986 0.0689172 0.743182 1.7569 -0.523964C1.9679 -0.735155 1.7569 -1.15754 1.54591 -0.946348C-0.564073 0.53199 1.54591 3.27748 0.490916 5.1782C0.279918 5.38939 0.701916 5.60057 0.912914 5.38938Z" fill="#8B5A20"/>
<path d="M1.75689 -0.946289C1.5459 -0.101525 2.38989 0.532049 2.38989 1.16562C2.60089 1.7992 2.81188 3.06634 2.38989 3.69992C1.96789 4.33349 1.1239 4.75587 0.701904 5.17826" fill="url(#paint56_linear)"/>
<path d="M1.54589 -0.946099C1.3349 0.109856 2.17888 0.74343 2.38988 1.58819C2.60088 2.43296 2.60088 3.48891 1.96789 4.12249C1.54589 4.54487 0.912899 4.75606 0.490903 5.17844C0.279906 5.38963 0.701898 5.60082 0.701898 5.38963C1.33489 4.54486 2.60088 4.33368 2.60088 3.06653C2.60088 2.43296 2.60088 1.79939 2.38988 1.37701C2.17888 0.532242 1.3349 -0.101335 1.54589 -0.946099C1.54589 -1.15729 1.96789 -1.15729 1.54589 -0.946099Z" fill="#8B5A20"/>
<path d="M3.86676 1.79959C5.13275 0.110057 3.44476 -3.05781 5.55475 -4.11377L3.86676 1.79959Z" fill="url(#paint57_linear)"/>
<path d="M4.07777 1.80156C5.13275 0.11203 3.65577 -2.84465 5.55473 -4.1118C5.76573 -4.32299 5.55473 -4.53418 5.34374 -4.53418C3.23378 -3.26703 4.92175 -0.310347 3.65577 1.37918C3.44478 1.80157 3.86677 2.01275 4.07777 1.80156Z" fill="#8B5A20"/>
<path d="M5.5548 -4.3252C5.13281 -3.48043 5.9768 -2.84686 5.9768 -2.00209C6.1878 -1.36852 6.1878 -0.101369 5.7658 0.532205C5.34381 1.16578 4.28882 1.37697 3.86682 1.79935" fill="url(#paint58_linear)"/>
<path d="M5.34373 -4.32517C5.13274 -3.26922 5.97672 -2.21326 5.97672 -1.1573C5.97672 -0.312539 5.76573 0.532226 5.13274 0.954608C4.71075 1.1658 4.28875 1.37699 3.86675 1.79937C3.65576 2.01056 3.86676 2.22176 4.07776 2.01056C4.92174 1.1658 5.97673 1.1658 6.18772 -0.101348C6.39872 -0.523731 6.18772 -1.15731 6.18772 -1.57969C6.18772 -2.42445 5.34373 -3.05802 5.55473 -3.90279C5.76572 -4.53636 5.34373 -4.74756 5.34373 -4.32517Z" fill="#8B5A20"/>
<path d="M70.7528 -0.945999C69.9089 -1.15719 69.2759 -0.312428 68.6429 -0.312428C68.0099 -0.101237 66.7439 0.109954 66.1109 -0.312428C65.4779 -0.73481 65.0559 -1.57957 64.6339 -2.00195" fill="url(#paint59_linear)"/>
<path d="M68.2209 1.16602C69.9089 2.43316 73.0738 0.743633 74.1288 2.85554L68.2209 1.16602Z" fill="url(#paint60_linear)"/>
<path d="M68.0113 1.37697C69.6993 2.43293 72.6532 0.954585 73.9192 2.8553C74.1302 3.06649 74.3412 2.8553 74.3412 2.64411C73.0752 0.532207 70.1213 2.22173 68.4333 0.95459C68.0113 0.95459 67.8003 1.16578 68.0113 1.37697Z" fill="#8B5A20"/>
<path d="M74.1289 2.85554C73.2849 2.43316 72.6519 3.27792 71.8079 3.27792C71.1749 3.48911 69.9089 3.48911 69.2759 3.06673C68.643 2.64435 68.4319 1.5884 68.0099 1.16602" fill="url(#paint61_linear)"/>
<path d="M74.3398 2.64394C73.2848 2.43275 72.2298 3.27751 71.1748 3.27751C70.3309 3.27751 69.4869 3.06633 69.0649 2.43275C68.8539 2.01037 68.6429 1.58798 68.2209 1.1656C68.0099 0.954411 67.7989 1.16561 68.0099 1.3768C68.8539 2.43275 68.8539 3.27752 70.1199 3.48871C70.5419 3.6999 71.1749 3.48871 71.5968 3.48871C72.4408 3.48871 73.0738 2.64394 73.9178 2.85513C74.3398 3.27751 74.5508 2.85513 74.3398 2.64394Z" fill="#8B5A20"/>
<path d="M71.3858 4.75586C72.8628 6.2342 76.2387 4.75586 77.0827 7.07896L71.3858 4.75586Z" fill="url(#paint62_linear)"/>
<path d="M71.1748 4.96724C72.6518 6.2344 76.0278 5.17844 76.8717 7.07917C77.0827 7.29036 77.2937 7.07917 77.2937 6.86798C76.2387 4.54486 73.2848 6.02321 71.5968 4.54486C71.3858 4.33367 70.9638 4.75605 71.1748 4.96724Z" fill="#8B5A20"/>
<path d="M77.2937 7.07896C76.6607 6.65658 75.8168 7.29015 74.9728 7.29015C74.3398 7.29015 73.0738 7.29015 72.4408 6.86777C71.8078 6.44539 71.8078 5.38943 71.3858 4.75586" fill="url(#paint63_linear)"/>
<path d="M77.2938 6.86833C76.2388 6.44595 75.3948 7.07952 74.3398 7.07952C73.4958 7.07952 72.6518 6.86834 72.2298 6.23476C71.8079 5.81238 71.8079 5.17881 71.3859 4.75642C71.1749 4.54523 70.7529 4.75642 70.9639 4.96761C71.5969 5.81238 71.5969 6.86834 72.6519 7.29072C73.2848 7.50191 73.9178 7.50191 74.5508 7.50191C75.3948 7.50191 76.0278 6.86834 77.0828 7.29072C77.5048 7.29072 77.5048 6.86833 77.2938 6.86833Z" fill="#8B5A20"/>
<path d="M74.1288 8.55762C75.6058 10.2472 78.9818 9.19119 79.6148 11.3031L74.1288 8.55762Z" fill="url(#paint64_linear)"/>
<path d="M74.1288 8.76852C75.6058 10.2469 78.7707 9.40209 79.4037 11.514C79.4037 11.7252 79.8257 11.7252 79.8257 11.3028C79.1927 8.76851 75.8168 10.0357 74.3398 8.34613C74.1288 8.13494 73.9178 8.55733 74.1288 8.76852Z" fill="#8B5A20"/>
<path d="M79.8257 11.5143C79.1928 11.0919 78.3488 11.5143 77.5048 11.5143C76.8718 11.5143 75.6058 11.3031 75.1838 10.6695C74.5508 10.036 74.5508 9.19119 74.3398 8.55762" fill="url(#paint65_linear)"/>
<path d="M79.8257 11.3032C78.7707 10.8808 77.7157 11.3032 76.6608 11.3032C75.8168 11.092 75.1838 10.8808 74.7618 10.036C74.5508 9.61365 74.5508 8.98008 74.3398 8.55769C74.1288 8.3465 73.9178 8.5577 73.9178 8.76889C74.5508 9.82485 74.3398 10.8808 75.6058 11.3032C76.0278 11.5144 76.4498 11.5144 76.8717 11.7256C77.7157 11.7256 78.7707 11.3032 79.6147 11.7256C79.8257 11.7256 80.0367 11.5144 79.8257 11.3032Z" fill="#8B5A20"/>
<path d="M76.6608 12.7812C77.9267 14.4708 81.5137 13.8372 81.7247 16.1603L76.6608 12.7812Z" fill="url(#paint66_linear)"/>
<path d="M76.4498 12.7813C77.0828 13.4148 77.7158 13.8372 78.5597 14.0484C79.6147 14.4708 81.0917 14.682 81.5137 15.9491C81.5137 16.1603 81.9357 16.1603 81.9357 15.7379C81.5137 13.2037 78.1378 14.0484 76.8718 12.3589C76.6608 12.3589 76.2388 12.5701 76.4498 12.7813Z" fill="#8B5A20"/>
<path d="M81.9357 16.1608C81.3027 15.5272 80.4587 15.9496 79.6147 15.9496C78.9817 15.9496 77.7157 15.5272 77.2937 14.8937C76.6608 14.2601 76.8718 13.2041 76.6608 12.7817" fill="url(#paint67_linear)"/>
<path d="M81.9357 15.9494C81.0917 15.3158 79.8258 15.7382 78.9818 15.527C78.1378 15.3158 77.5048 14.8935 77.0828 14.0487C76.8718 13.6263 76.8718 12.9927 76.6608 12.5704C76.6608 12.3592 76.0278 12.3592 76.2388 12.7816C76.6608 13.8375 76.4498 14.8935 77.5048 15.527C77.9268 15.7382 78.5598 15.9494 78.9818 16.1606C79.8258 16.3718 80.6697 15.9494 81.5137 16.3718C81.9357 16.583 82.1467 16.1606 81.9357 15.9494Z" fill="#8B5A20"/>
<path d="M78.5597 17.0054C79.6147 18.9061 83.2017 18.4837 83.2017 20.8068L78.5597 17.0054Z" fill="url(#paint68_linear)"/>
<path d="M78.3487 17.2163C78.7707 18.0611 79.6147 18.4835 80.4587 18.6947C81.5137 19.117 82.9907 19.5394 83.2017 21.0178C83.2017 21.229 83.6236 21.229 83.6236 21.0178C83.4126 18.4835 80.0367 18.9059 78.7707 17.0051C78.5597 16.5828 78.1377 16.7939 78.3487 17.2163Z" fill="#8B5A20"/>
<path d="M83.4126 21.0175C82.7796 20.384 81.9356 20.8063 81.0916 20.5951C80.4586 20.384 79.1926 19.9616 78.9816 19.328C78.5596 18.6944 78.7706 17.6385 78.5596 17.0049" fill="url(#paint69_linear)"/>
<path d="M83.6236 20.8064C82.7796 20.1728 81.7246 20.384 80.8806 20.1728C80.2476 19.9616 79.4036 19.5392 78.9816 18.6945C78.7706 18.0609 78.9816 17.4273 78.7706 17.0049C78.7706 16.7937 78.3486 16.7937 78.3486 17.2161C78.5596 18.2721 78.3486 19.328 79.4036 20.1728C79.8256 20.384 80.4586 20.8064 80.8806 20.8064C81.7246 21.0176 82.5686 20.5952 83.2016 21.2288C83.4126 21.4399 83.8346 21.0176 83.6236 20.8064Z" fill="#8B5A20"/>
<path d="M80.0367 21.6514C80.8807 23.5521 84.4677 23.7633 84.2567 26.0864L80.0367 21.6514Z" fill="url(#paint70_linear)"/>
<path d="M79.8258 21.6512C80.2478 22.496 81.0918 23.1295 81.9358 23.5519C82.9908 24.1855 84.0457 24.6079 84.0457 25.875C84.0457 26.0862 84.4677 26.0862 84.4677 25.875C84.4677 23.3407 81.0918 23.3407 80.2478 21.44C80.2478 21.2288 79.8258 21.44 79.8258 21.6512Z" fill="#8B5A20"/>
<path d="M84.4677 26.0864C84.0457 25.4528 82.9907 25.664 82.3577 25.4528C81.7247 25.2416 80.6697 24.6081 80.2477 23.9745C79.8257 23.3409 80.2477 22.2849 80.0367 21.6514" fill="url(#paint71_linear)"/>
<path d="M84.6796 25.8755C84.0467 25.0307 82.9917 25.4531 82.1477 25.0307C81.5147 24.8195 80.8817 24.3972 80.6707 23.7636C80.2487 23.13 80.6707 22.2852 80.4597 21.4405C80.4597 21.2293 80.0377 21.2293 80.0377 21.6517C80.2487 22.9188 79.8267 23.9748 80.8817 24.8195C81.3037 25.2419 81.9367 25.4531 82.3587 25.6643C82.9917 25.8755 83.8357 25.6643 84.4687 26.2979C84.4687 26.5091 84.8906 26.0867 84.6796 25.8755Z" fill="#8B5A20"/>
<path d="M81.0917 26.2979C81.7247 28.4098 85.3116 28.8321 84.8896 31.1552L81.0917 26.2979Z" fill="url(#paint72_linear)"/>
<path d="M80.8807 26.2976C81.0917 27.1423 81.9357 27.7759 82.5687 28.1983C83.4127 28.8319 84.8897 29.4655 84.6787 30.9438C84.6787 31.155 85.1007 31.3662 85.1007 31.155C85.5227 28.6207 81.9357 28.4095 81.3027 26.2976C81.3027 25.8752 80.8807 26.0864 80.8807 26.2976Z" fill="#8B5A20"/>
<path d="M85.1007 31.1552C84.6787 30.3105 83.6237 30.5217 82.9907 30.3105C82.3577 30.0993 81.3028 29.2545 81.0918 28.6209C80.6698 27.9874 81.3028 26.9314 81.0918 26.2979" fill="url(#paint73_linear)"/>
<path d="M85.3117 30.9438C84.6788 30.099 83.8348 30.3102 82.9908 29.8878C82.3578 29.6766 81.9358 29.043 81.5138 28.6207C81.0918 27.9871 81.5138 26.9311 81.5138 26.2976C81.5138 26.0864 81.0918 26.0864 81.0918 26.2976C81.0918 26.9311 80.8808 27.5647 81.0918 28.4095C81.0918 28.8318 81.5138 29.2542 81.9358 29.6766C82.3578 30.099 82.7798 30.3102 83.2018 30.5214C83.8348 30.7326 84.6788 30.7326 85.3117 31.3661C85.1007 31.5773 85.3117 31.1549 85.3117 30.9438Z" fill="#8B5A20"/>
<path d="M81.7247 30.9438C82.1467 33.0558 85.7336 33.9005 85.1007 36.0124L81.7247 30.9438Z" fill="url(#paint74_linear)"/>
<path d="M81.5137 30.9441C81.9357 32.8448 85.3117 33.9007 84.8897 36.0126C84.8897 36.2238 85.3117 36.435 85.3117 36.2238C85.9447 33.6895 82.5687 33.056 81.9357 30.9441C81.7247 30.5217 81.3027 30.7329 81.5137 30.9441Z" fill="#8B5A20"/>
<path d="M85.1007 36.2236C84.6787 35.3789 83.6237 35.3789 83.2017 35.1677C82.5687 34.7453 81.7247 33.9005 81.5137 33.267C81.3027 32.4222 81.7247 31.5774 81.7247 30.9438" fill="url(#paint75_linear)"/>
<path d="M85.3117 36.2238C84.8897 35.3791 83.8347 35.3791 82.9907 34.9567C82.3577 34.5343 81.7247 33.9007 81.5137 33.2671C81.3027 32.6336 81.7247 31.7888 81.7247 30.944C81.7247 30.7328 81.3027 30.7328 81.3027 30.944C81.3027 32.2112 80.6697 33.056 81.7247 34.3231C82.1467 34.7455 82.5687 35.1679 82.9907 35.3791C83.6237 35.8015 84.4677 35.5903 84.8897 36.435C84.8897 36.6462 85.3117 36.435 85.3117 36.2238Z" fill="#8B5A20"/>
<path d="M81.7247 35.8013C81.9357 37.9132 85.3117 39.1803 84.4677 41.2922L81.7247 35.8013Z" fill="url(#paint76_linear)"/>
<path d="M81.5138 35.8015C81.7248 37.9134 84.8897 38.9694 84.2568 41.0813C84.2568 41.2925 84.6787 41.5037 84.6787 41.2925C85.5227 38.9694 82.1468 37.9134 81.9358 35.8015C81.9358 35.3791 81.5138 35.5903 81.5138 35.8015Z" fill="#8B5A20"/>
<path d="M84.4677 41.2915C84.2567 40.4468 83.2017 40.4468 82.5687 40.0244C81.9357 39.602 81.0918 38.7572 81.0918 37.9125C80.8808 37.0677 81.5138 36.2229 81.5138 35.5894" fill="url(#paint77_linear)"/>
<path d="M84.6787 41.2923C84.2567 40.4476 83.2017 40.2364 82.5687 39.814C82.1468 39.3916 81.7248 38.9692 81.5138 38.5468C81.0918 37.7021 81.7248 36.8573 81.9358 36.0125C81.9358 35.8013 81.5138 35.5902 81.5138 35.8013C81.3028 37.2797 80.6698 37.9133 81.5138 39.1804C81.7248 39.6028 82.1468 40.0252 82.5687 40.2364C83.2017 40.6588 84.0457 40.6588 84.4677 41.5035C84.4677 41.7147 84.8897 41.5035 84.6787 41.2923Z" fill="#8B5A20"/>
<path d="M81.3027 40.4473C81.3027 42.5592 84.4677 44.0375 83.4127 46.1494L81.3027 40.4473Z" fill="url(#paint78_linear)"/>
<path d="M81.0917 40.4475C81.0917 42.3482 84.2567 44.0377 83.2017 46.1496C82.9907 46.3608 83.4127 46.572 83.6237 46.3608C84.6787 44.0377 81.5137 42.7706 81.5137 40.4475C81.5137 40.2363 81.0917 40.2363 81.0917 40.4475Z" fill="#8B5A20"/>
<path d="M83.4126 46.3609C83.2016 45.5161 82.1466 45.3049 81.7246 44.8825C81.3026 44.4601 80.4586 43.4042 80.4586 42.7706C80.4586 41.9258 81.0916 41.2923 81.0916 40.6587" fill="url(#paint79_linear)"/>
<path d="M83.6237 46.3609C83.4127 45.5162 82.5687 45.305 81.9357 44.6714C81.3027 44.249 80.8807 43.6155 80.6697 42.7707C80.4587 41.9259 81.0917 41.0812 81.3027 40.4476C81.3027 40.2364 80.8807 40.0252 80.8807 40.2364C80.4587 41.5035 79.8257 42.1371 80.4587 43.4043C80.6697 44.0378 81.0917 44.4602 81.5137 44.8826C82.1467 45.305 82.9907 45.5162 83.2017 46.3609C83.4127 46.7833 83.8346 46.5721 83.6237 46.3609Z" fill="#8B5A20"/>
<path d="M80.2478 45.0942C80.0368 47.2061 83.2017 49.1069 81.7248 51.0076L80.2478 45.0942Z" fill="url(#paint80_linear)"/>
<path d="M80.0368 45.094C79.8258 47.2059 82.7797 48.8955 81.5137 50.7962C81.3027 51.0074 81.7247 51.2186 81.9357 51.0074C83.2017 48.8955 80.2478 47.2059 80.4588 44.8828C80.4588 44.8828 80.0368 44.8828 80.0368 45.094Z" fill="#8B5A20"/>
<path d="M81.9358 51.2183C81.9358 50.3735 80.8808 50.1623 80.4588 49.5288C80.0368 49.1064 79.4038 47.8392 79.4038 47.2057C79.4038 46.3609 80.2478 45.7273 80.2478 45.0938" fill="url(#paint81_linear)"/>
<path d="M82.1467 51.2184C81.9357 50.3736 81.0917 49.9512 80.4587 49.5288C80.0368 48.8953 79.6148 48.0505 79.4038 47.4169C79.4038 46.7834 80.0368 45.9386 80.2478 45.305C80.2478 45.0938 79.8258 44.8826 79.8258 45.0938C79.4038 46.361 78.5598 46.9945 79.1928 48.2617C79.4038 48.6841 79.6148 49.3176 80.0368 49.74C80.4588 50.3736 81.3027 50.5848 81.5137 51.4296C81.7247 51.6408 82.1467 51.4296 82.1467 51.2184Z" fill="#8B5A20"/>
<path d="M78.7707 49.7397C78.3487 51.8517 81.3026 53.9636 79.6147 55.8643L78.7707 49.7397Z" fill="url(#paint82_linear)"/>
<path d="M78.5597 49.5284C78.1377 51.6403 80.8807 53.7523 79.4037 55.4418C79.1927 55.653 79.6147 55.8642 79.8257 55.653C81.3027 53.5411 78.5597 51.6403 78.9817 49.5284C79.1927 49.5284 78.7707 49.3172 78.5597 49.5284Z" fill="#8B5A20"/>
<path d="M79.8258 55.8643C79.8258 55.0195 78.7708 54.5971 78.3488 53.9636C77.9268 53.33 77.5048 52.274 77.5048 51.6405C77.5048 50.7957 78.3488 50.1621 78.7708 49.7397" fill="url(#paint83_linear)"/>
<path d="M80.0367 55.8644C79.8257 55.0196 79.4037 54.5972 78.7708 54.1748C78.1378 53.7525 77.9268 52.6965 77.9268 52.0629C77.9268 51.2182 78.7707 50.5846 78.9817 49.951C79.1927 49.7398 78.7707 49.5286 78.5597 49.7398C77.9268 51.007 77.0828 51.4294 77.5048 52.9077C77.7158 53.5413 77.9268 53.9637 78.1378 54.386C78.5597 55.0196 79.4037 55.2308 79.4037 56.0756C79.6147 56.0756 80.0367 56.2868 80.0367 55.8644Z" fill="#8B5A20"/>
<path d="M76.8717 53.9634C76.2388 56.0753 78.7707 58.3984 77.0827 60.0879L76.8717 53.9634Z" fill="url(#paint84_linear)"/>
<path d="M76.6607 53.9636C76.0277 55.8643 78.5597 58.3986 77.0827 59.877C76.8717 60.0881 77.2937 60.2993 77.2937 60.0881C78.9817 58.1874 76.4497 56.0755 77.0827 53.9636C77.2937 53.7524 76.8717 53.7524 76.6607 53.9636Z" fill="#8B5A20"/>
<path d="M77.2937 60.2996C77.2937 59.4549 76.4498 59.0325 76.0278 58.3989C75.6058 57.7653 75.3948 56.4982 75.3948 55.8646C75.6058 55.0198 76.4498 54.5974 76.6608 53.9639" fill="url(#paint85_linear)"/>
<path d="M77.5047 60.2997C77.5047 59.2437 76.6607 58.8213 76.2388 57.9766C75.8168 57.1318 75.6058 56.287 76.0278 55.4423C76.2388 55.0199 76.8717 54.5975 77.0827 54.1751C77.2937 53.9639 76.8717 53.7528 76.6608 53.9639C76.0278 55.0199 75.1838 55.4423 75.1838 56.9206C75.1838 57.343 75.3948 57.9766 75.6058 58.399C76.0278 59.2437 76.8717 59.6661 76.8717 60.5109C77.0827 60.7221 77.5047 60.7221 77.5047 60.2997Z" fill="#8B5A20"/>
<path d="M31.0854 45.516C31.0854 45.516 33.1954 45.516 34.6724 46.5719C35.5164 47.2055 37.2044 47.4167 37.4154 47.4167C38.2593 47.4167 38.2593 46.9943 39.3143 45.9384C40.3693 44.8824 41.6353 43.1929 41.6353 43.1929C41.6353 43.1929 39.5253 45.0936 39.1033 45.516C38.4703 45.9384 38.0483 46.5719 37.6264 46.5719C37.2044 46.5719 36.3604 46.5719 35.0944 45.9384C33.6174 45.516 31.9294 45.516 31.0854 45.516Z" fill="#C26E27"/>
<path d="M40.7913 33.9004C40.7913 33.9004 39.9473 26.9311 41.6352 24.8192C41.6352 24.608 38.8923 26.5087 40.7913 33.9004Z" fill="#C26E27"/>
<path d="M9.14176 24.1859C9.14176 24.1859 6.8208 23.7635 6.18781 22.2852C6.18781 22.2852 7.03179 23.7635 9.35276 23.5523" fill="#964F21"/>
<path d="M8.50875 25.0306C8.50875 25.0306 5.7658 25.0306 4.71082 23.5522C4.71082 23.5522 5.97679 25.0306 8.50875 24.397" fill="#964F21"/>
<path d="M8.29771 26.2974C8.29771 26.2974 5.76574 26.5086 4.49976 25.0303C4.49976 25.0303 5.76574 26.2974 8.29771 25.4527" fill="#964F21"/>
<path d="M9.77477 23.7633C9.77477 23.7633 7.6648 22.4962 7.87579 20.8066C7.87579 20.8066 8.08679 22.4962 10.4078 23.1298" fill="#964F21"/>
<path d="M11.2517 22.9186C11.2517 22.9186 9.3527 21.2291 9.77469 19.5396C9.77469 19.5396 9.77469 21.2291 11.8847 22.4962" fill="#964F21"/>
<path d="M21.8015 26.509C21.8015 28.8321 19.9025 30.7328 17.5816 30.7328C15.2606 30.7328 13.3616 28.8321 13.3616 26.509C13.3616 24.1859 15.2606 22.2852 17.5816 22.2852C19.9025 22.2852 21.8015 24.1859 21.8015 26.509Z" fill="#F7BE76"/>
<path d="M17.5816 30.7328C15.2606 30.7328 13.3616 28.8321 13.3616 26.509C13.3616 24.1859 15.2606 22.2852 17.5816 22.2852C19.9025 22.2852 21.8015 24.1859 21.8015 26.509C21.8015 28.8321 19.9025 30.7328 17.5816 30.7328ZM17.5816 22.2852C15.2606 22.2852 13.3616 24.1859 13.3616 26.509C13.3616 28.8321 15.2606 30.7328 17.5816 30.7328C19.9025 30.7328 21.8015 28.8321 21.8015 26.509C21.8015 24.1859 19.9025 22.2852 17.5816 22.2852Z" fill="#C7852A"/>
<path d="M20.1135 25.4528C20.1135 26.9311 19.0585 27.987 17.5815 27.987C16.1045 27.987 15.0496 26.9311 15.0496 25.4528C15.0496 23.9744 16.1045 22.9185 17.5815 22.9185C18.8475 22.9185 20.1135 23.9744 20.1135 25.4528Z" fill="black"/>
<path d="M5.76575 12.9925C5.76575 12.9925 10.4077 11.5141 14.2056 13.8372C18.2146 16.1603 21.5905 17.6387 24.3335 18.4835C26.0215 19.117 28.1314 19.117 28.9754 19.117C30.2414 19.117 30.2414 17.2163 29.1864 17.0051C28.3424 16.7939 27.7094 17.0051 26.6545 16.7939C23.2785 16.1604 22.4345 15.738 20.7465 15.1044C18.8476 14.4708 16.1046 13.2037 14.6276 12.7813C12.3067 12.1477 11.6737 11.9365 10.1967 11.9365C8.9307 11.9365 5.76575 12.9925 5.76575 12.9925Z" fill="#C26E27"/>
<path d="M25.1774 29.043C25.1774 29.043 18.8475 30.3102 15.4716 29.8878C13.5726 29.6766 11.6736 28.1983 10.6186 27.1423C9.77465 26.2976 9.35265 25.2416 9.35265 25.2416C9.35265 24.8192 11.4626 23.5521 14.8386 23.3409C19.0585 23.3409 20.7465 23.3409 23.9114 24.608C26.8654 25.8752 28.1314 27.5647 28.5534 27.9871C28.5534 27.9871 26.2324 24.8192 24.1224 23.7633C20.9575 22.2849 16.9485 22.0737 15.0496 22.0737C13.1506 22.0737 9.14165 22.2849 7.66467 25.0304C7.66467 25.2416 7.87567 26.0864 8.50866 27.3535C9.35265 28.6207 10.8296 30.099 15.0496 30.7326C19.4805 31.3661 25.1774 29.043 25.1774 29.043Z" fill="#964F21"/>
<path d="M14.4166 27.7757C15.4716 29.6765 18.4255 29.8877 19.9025 28.4093C20.1135 28.1981 19.6915 27.5645 19.4805 27.9869C18.2146 29.2541 15.8936 29.0429 15.0496 27.3534C14.8386 27.1422 14.2056 27.3534 14.4166 27.7757Z" fill="white"/>
<path d="M13.5727 22.7077C13.5727 22.7077 11.6737 20.807 12.0957 18.9062C12.0957 18.9062 11.8847 20.807 14.2057 22.2853" fill="#964F21"/>
<path d="M63.5789 24.3968C63.5789 24.3968 65.8999 23.9744 66.5329 22.4961C66.5329 22.4961 65.6889 23.9744 63.3679 23.7632" fill="#964F21"/>
<path d="M64.212 25.242C64.212 25.242 66.9549 25.242 68.0099 23.7637C68.0099 23.7637 66.7439 25.242 64.212 24.6084" fill="#964F21"/>
<path d="M64.212 26.5088C64.212 26.5088 66.7439 26.72 68.0099 25.2417C68.0099 25.2417 66.7439 26.5088 64.212 25.6641" fill="#964F21"/>
<path d="M62.9459 23.9747C62.9459 23.9747 65.0559 22.7076 64.8449 21.0181C64.8449 21.0181 64.6339 22.7076 62.3129 23.3412" fill="#964F21"/>
<path d="M61.4689 23.341C61.4689 23.341 63.3679 21.6514 62.9459 19.9619C62.9459 19.9619 62.9459 21.6514 60.8359 22.9186" fill="#964F21"/>
<path d="M50.9191 26.7199C50.9191 29.043 52.818 30.9438 55.139 30.9438C57.46 30.9438 59.3589 29.043 59.3589 26.7199C59.3589 24.3968 57.46 22.4961 55.139 22.4961C52.818 22.4961 50.9191 24.3968 50.9191 26.7199Z" fill="#F7BE76"/>
<path d="M55.139 30.9438C52.818 30.9438 50.9191 29.043 50.9191 26.7199C50.9191 24.3968 52.818 22.4961 55.139 22.4961C57.46 22.4961 59.3589 24.3968 59.3589 26.7199C59.3589 29.043 57.46 30.9438 55.139 30.9438ZM55.139 22.4961C52.818 22.4961 50.9191 24.3968 50.9191 26.7199C50.9191 29.043 52.818 30.9438 55.139 30.9438C57.46 30.9438 59.3589 29.043 59.3589 26.7199C59.148 24.3968 57.46 22.4961 55.139 22.4961Z" fill="#C7852A"/>
<path d="M52.6071 25.6642C52.6071 27.1425 53.6621 28.1985 55.1391 28.1985C56.6161 28.1985 57.6711 27.1425 57.6711 25.6642C57.6711 24.1858 56.6161 23.1299 55.1391 23.1299C53.6621 23.1299 52.6071 24.1858 52.6071 25.6642Z" fill="black"/>
<path d="M66.9549 13.2039C66.9549 13.2039 62.313 11.7256 58.515 14.0487C54.5061 16.3718 51.1301 17.8501 48.3872 18.6949C46.6992 19.3285 44.5892 19.3285 43.7452 19.3285C42.4793 19.3285 42.4793 17.4277 43.5342 17.2165C44.3782 17.0054 45.0112 17.2165 46.0662 17.0054C49.4422 16.3718 50.2861 15.9494 51.9741 15.3158C53.8731 14.6822 56.616 13.4151 58.093 12.9927C60.414 12.3591 61.047 12.1479 62.524 12.1479C63.7899 12.1479 66.9549 13.2039 66.9549 13.2039Z" fill="#C26E27"/>
<path d="M47.3321 29.2545C47.3321 29.2545 53.662 30.5216 57.038 30.0992C58.937 29.888 60.8359 28.4097 61.8909 27.3537C62.7349 26.509 63.1569 25.453 63.1569 25.453C63.1569 25.0306 61.0469 23.7635 57.671 23.5523C53.451 23.5523 51.7631 23.5523 48.5981 24.8195C45.6442 26.0866 44.3782 27.7761 43.9562 28.1985C43.9562 28.1985 46.2771 25.0306 48.3871 23.9747C51.5521 22.4963 55.561 22.2852 57.46 22.2852C59.3589 22.2852 63.3679 22.4964 64.8449 25.2418C64.8449 25.453 64.6339 26.2978 64.0009 27.5649C63.1569 28.8321 61.6799 30.3104 57.46 30.944C53.24 31.5776 47.3321 29.2545 47.3321 29.2545Z" fill="#964F21"/>
<path d="M57.671 27.7759C56.8271 29.2542 54.5061 29.4654 53.2401 28.4095C53.0291 28.1983 52.3961 28.6207 52.8181 28.8319C54.2951 30.3102 57.249 30.099 58.304 28.1983C58.304 27.5647 57.671 27.3535 57.671 27.7759Z" fill="white"/>
<path d="M58.937 22.9186C58.937 22.9186 60.8359 21.0179 60.4139 19.1172C60.4139 19.1172 60.6249 21.0179 58.304 22.4963" fill="#964F21"/>
<path d="M20.1136 24.6082C20.1136 25.2418 19.6916 25.6642 19.0586 25.6642C18.4256 25.6642 18.0036 25.2418 18.0036 24.6082C18.0036 23.9746 18.4256 23.5522 19.0586 23.5522C19.6916 23.5522 20.1136 23.9746 20.1136 24.6082Z" fill="white"/>
<path d="M57.671 24.6082C57.671 25.2418 57.249 25.6642 56.616 25.6642C55.983 25.6642 55.561 25.2418 55.561 24.6082C55.561 23.9746 55.983 23.5522 56.616 23.5522C57.038 23.5522 57.671 23.9746 57.671 24.6082Z" fill="white"/>
<path d="M18.4257 55.8645C18.4257 55.8645 22.2236 57.554 25.5996 56.0757C28.9755 54.5973 31.9295 53.5413 34.0394 54.5973C36.3604 55.6533 37.6264 55.2309 38.4704 54.8085C39.3144 54.3861 42.2683 53.5414 44.8003 55.0197C47.1212 56.7092 50.0752 57.3428 52.8182 55.6533C52.8182 55.6533 49.6532 57.1316 48.8092 59.6659C47.9652 61.989 44.5893 65.3681 40.1583 66.8464C35.7274 68.1136 32.5625 67.2688 30.0305 66.2128C27.4985 64.9457 23.9116 60.9331 23.2786 59.6659C22.8566 58.6099 21.1686 56.9204 18.4257 55.8645Z" fill="#C07628"/>
<path d="M35.9383 67.6912C33.6174 67.6912 31.7184 67.0576 30.2414 66.4241C27.7095 65.1569 24.1225 60.9331 23.4895 59.8771C23.0675 59.0324 21.5906 57.554 19.4806 56.2869C19.0586 56.0757 18.6366 56.0757 18.6366 56.0757C18.6366 56.0757 18.8476 56.0757 19.0586 56.2869C18.8476 56.2869 18.6366 56.0757 18.4256 56.0757C18.6366 56.2869 19.0586 56.2869 19.2696 56.4981C20.5356 56.9205 23.2785 57.554 25.5995 56.4981C28.7644 55.2309 31.9294 53.9638 34.2504 55.0198C36.5713 56.0757 37.8373 55.6533 38.6813 55.2309C39.5253 54.8086 42.4793 53.9638 45.0112 55.4421C47.7542 57.3428 50.2861 57.554 52.8181 56.2869C53.0291 56.2869 53.0291 56.0757 53.0291 56.0757L52.8181 56.2869C51.9741 56.7093 49.8641 58.1876 49.0202 60.0883C48.5982 61.3555 47.5432 62.8338 46.0662 64.101C44.8002 64.9457 42.9012 66.2129 40.1583 67.0577C38.6813 67.48 37.2043 67.6912 35.9383 67.6912ZM19.6916 56.2869C21.8015 57.554 23.0675 58.8212 23.4895 59.8771C24.1225 60.9331 27.7095 65.1569 30.2414 66.4241C32.5624 67.48 35.7273 68.536 40.3693 67.0577C42.9012 66.2129 44.8002 64.9457 46.0662 63.8898C47.5432 62.6226 48.5982 61.1443 49.0202 59.8771C49.6532 58.1876 51.3411 56.9205 52.1851 56.2869C51.3411 56.7093 50.4971 56.7093 49.6532 56.7093C48.1762 56.7093 46.4882 56.0757 44.8002 55.0198C42.4793 53.3302 39.5253 54.3862 38.6813 54.8085C37.8373 55.2309 36.5713 55.6533 34.2504 54.5974C31.9294 53.5414 28.9754 54.8086 25.8105 56.0757C23.4895 57.1317 20.9576 56.7093 19.6916 56.2869Z" fill="#774319"/>
<path d="M35.9384 60.0883C33.8284 60.0883 31.5074 59.8771 29.3975 59.4547C23.9115 58.61 20.5356 56.498 20.5356 56.498C20.5356 56.498 24.1225 58.3988 29.6084 59.4547C34.6724 60.2995 42.4793 60.7218 51.1301 56.7092C47.3322 58.3988 43.3232 59.4547 39.3143 59.8771C38.0483 60.0883 36.9933 60.0883 35.9384 60.0883Z" fill="#7B3C18"/>
<path d="M46.6992 62.4112C46.6992 62.4112 34.2503 69.3805 25.3885 61.5664C25.3885 61.5664 34.2503 73.8155 46.6992 62.4112Z" fill="#A25E25"/>
<path d="M49.4421 57.7651C49.4421 57.7651 36.7823 63.8897 22.8565 57.7651C22.8565 57.9763 34.6723 66.6352 49.4421 57.7651Z" fill="#F09130"/>
<path d="M45.8551 56.4981C45.8551 56.4981 43.5342 54.175 39.3142 55.231C35.7273 56.0758 35.9383 55.8646 34.2503 55.4422C32.5623 55.0198 32.5623 53.9638 26.6544 56.287C26.6544 56.287 29.8194 55.4422 31.5074 55.8646C33.1953 56.2869 35.0943 56.4981 36.5713 56.4981C38.2592 56.4981 39.5252 55.6534 42.6902 56.0758C44.5892 56.287 45.8551 56.4981 45.8551 56.4981Z" fill="#F09130"/>
<defs>
<linearGradient id="paint0_linear" x1="36.0531" y1="-75.0631" x2="36.0531" y2="132.825" gradientUnits="userSpaceOnUse">
<stop stop-color="#FFDE17"/>
<stop offset="1" stop-color="#E3A612"/>
</linearGradient>
<linearGradient id="paint1_linear" x1="87.1088" y1="-75.0639" x2="87.1088" y2="132.825" gradientUnits="userSpaceOnUse">
<stop stop-color="#FFDE17"/>
<stop offset="1" stop-color="#E3A612"/>
</linearGradient>
<linearGradient id="paint2_linear" x1="58.9853" y1="-26.2297" x2="115.24" y2="-26.2297" gradientUnits="userSpaceOnUse">
<stop stop-color="#FFDE17"/>
<stop offset="1" stop-color="#E3A612"/>
</linearGradient>
<linearGradient id="paint3_linear" x1="-22.001" y1="-75.0631" x2="-22.001" y2="132.825" gradientUnits="userSpaceOnUse">
<stop stop-color="#FFDE17"/>
<stop offset="1" stop-color="#E3A612"/>
</linearGradient>
<linearGradient id="paint4_linear" x1="-49.7646" y1="-18.2588" x2="5.75499" y2="-18.2588" gradientUnits="userSpaceOnUse">
<stop stop-color="#FFDE17"/>
<stop offset="1" stop-color="#E3A612"/>
</linearGradient>
<linearGradient id="paint5_linear" x1="-15.1624" y1="-75.0634" x2="-15.1624" y2="132.824" gradientUnits="userSpaceOnUse">
<stop stop-color="#FFDE17"/>
<stop offset="1" stop-color="#E3A612"/>
</linearGradient>
<linearGradient id="paint6_linear" x1="-42.5251" y1="92.183" x2="12.1925" y2="92.183" gradientUnits="userSpaceOnUse">
<stop stop-color="#FFDE17"/>
<stop offset="1" stop-color="#E3A612"/>
</linearGradient>
<linearGradient id="paint7_linear" x1="25.6786" y1="-75.0628" x2="25.6786" y2="132.824" gradientUnits="userSpaceOnUse">
<stop stop-color="#FFDE17"/>
<stop offset="1" stop-color="#E3A612"/>
</linearGradient>
<linearGradient id="paint8_linear" x1="10.3548" y1="114.506" x2="40.9799" y2="114.506" gradientUnits="userSpaceOnUse">
<stop stop-color="#FFDE17"/>
<stop offset="1" stop-color="#E3A612"/>
</linearGradient>
<linearGradient id="paint9_linear" x1="60.3394" y1="-75.064" x2="60.3394" y2="132.824" gradientUnits="userSpaceOnUse">
<stop stop-color="#FFDE17"/>
<stop offset="1" stop-color="#E3A612"/>
</linearGradient>
<linearGradient id="paint10_linear" x1="40.971" y1="110.886" x2="79.7282" y2="110.886" gradientUnits="userSpaceOnUse">
<stop stop-color="#FFDE17"/>
<stop offset="1" stop-color="#E3A612"/>
</linearGradient>
<linearGradient id="paint11_linear" x1="98.3242" y1="-75.0628" x2="98.3242" y2="132.824" gradientUnits="userSpaceOnUse">
<stop stop-color="#FFDE17"/>
<stop offset="1" stop-color="#E3A612"/>
</linearGradient>
<linearGradient id="paint12_linear" x1="66.4695" y1="82.8567" x2="130.189" y2="82.8567" gradientUnits="userSpaceOnUse">
<stop stop-color="#FFDE17"/>
<stop offset="1" stop-color="#E3A612"/>
</linearGradient>
<linearGradient id="paint13_linear" x1="117.153" y1="-75.0644" x2="117.153" y2="132.826" gradientUnits="userSpaceOnUse">
<stop stop-color="#FFDE17"/>
<stop offset="1" stop-color="#E3A612"/>
</linearGradient>
<linearGradient id="paint14_linear" x1="84.4277" y1="43.5823" x2="149.879" y2="43.5823" gradientUnits="userSpaceOnUse">
<stop stop-color="#FFDE17"/>
<stop offset="1" stop-color="#E3A612"/>
</linearGradient>
<linearGradient id="paint15_linear" x1="114.188" y1="-75.0626" x2="114.188" y2="132.823" gradientUnits="userSpaceOnUse">
<stop stop-color="#FFDE17"/>
<stop offset="1" stop-color="#E3A612"/>
</linearGradient>
<linearGradient id="paint16_linear" x1="80.7247" y1="10.5792" x2="147.654" y2="10.5792" gradientUnits="userSpaceOnUse">
<stop stop-color="#FFDE17"/>
<stop offset="1" stop-color="#E3A612"/>
</linearGradient>
<linearGradient id="paint17_linear" x1="74.5862" y1="58.1837" x2="74.5862" y2="64.2859" gradientUnits="userSpaceOnUse">
<stop stop-color="#FAA336"/>
<stop offset="1" stop-color="#A95C1C"/>
</linearGradient>
<linearGradient id="paint18_linear" x1="73.6956" y1="58.1788" x2="73.6956" y2="64.4791" gradientUnits="userSpaceOnUse">
<stop stop-color="#FAA336"/>
<stop offset="1" stop-color="#A95C1C"/>
</linearGradient>
<linearGradient id="paint19_linear" x1="71.3197" y1="62.0628" x2="71.3197" y2="68.0942" gradientUnits="userSpaceOnUse">
<stop stop-color="#FAA336"/>
<stop offset="1" stop-color="#A95C1C"/>
</linearGradient>
<linearGradient id="paint20_linear" x1="70.7974" y1="62.0522" x2="70.7974" y2="68.284" gradientUnits="userSpaceOnUse">
<stop stop-color="#FAA336"/>
<stop offset="1" stop-color="#A95C1C"/>
</linearGradient>
<linearGradient id="paint21_linear" x1="67.8494" y1="65.6311" x2="67.8494" y2="71.5239" gradientUnits="userSpaceOnUse">
<stop stop-color="#FAA336"/>
<stop offset="1" stop-color="#A95C1C"/>
</linearGradient>
<linearGradient id="paint22_linear" x1="67.4945" y1="65.6137" x2="67.4945" y2="71.7106" gradientUnits="userSpaceOnUse">
<stop stop-color="#FAA336"/>
<stop offset="1" stop-color="#A95C1C"/>
</linearGradient>
<linearGradient id="paint23_linear" x1="64.033" y1="68.8472" x2="64.033" y2="74.5401" gradientUnits="userSpaceOnUse">
<stop stop-color="#FAA336"/>
<stop offset="1" stop-color="#A95C1C"/>
</linearGradient>
<linearGradient id="paint24_linear" x1="63.8208" y1="68.8248" x2="63.8208" y2="74.7194" gradientUnits="userSpaceOnUse">
<stop stop-color="#FAA336"/>
<stop offset="1" stop-color="#A95C1C"/>
</linearGradient>
<linearGradient id="paint25_linear" x1="59.9116" y1="71.681" x2="59.9116" y2="77.1089" gradientUnits="userSpaceOnUse">
<stop stop-color="#FAA336"/>
<stop offset="1" stop-color="#A95C1C"/>
</linearGradient>
<linearGradient id="paint26_linear" x1="59.8228" y1="71.6526" x2="59.8228" y2="77.2787" gradientUnits="userSpaceOnUse">
<stop stop-color="#FAA336"/>
<stop offset="1" stop-color="#A95C1C"/>
</linearGradient>
<linearGradient id="paint27_linear" x1="55.5309" y1="74.0989" x2="55.5309" y2="79.2006" gradientUnits="userSpaceOnUse">
<stop stop-color="#FAA336"/>
<stop offset="1" stop-color="#A95C1C"/>
</linearGradient>
<linearGradient id="paint28_linear" x1="55.4498" y1="74.0626" x2="55.4498" y2="79.3637" gradientUnits="userSpaceOnUse">
<stop stop-color="#FAA336"/>
<stop offset="1" stop-color="#A95C1C"/>
</linearGradient>
<linearGradient id="paint29_linear" x1="50.9396" y1="76.0732" x2="50.9396" y2="80.7958" gradientUnits="userSpaceOnUse">
<stop stop-color="#FAA336"/>
<stop offset="1" stop-color="#A95C1C"/>
</linearGradient>
<linearGradient id="paint30_linear" x1="50.8519" y1="76.0305" x2="50.8519" y2="80.9443" gradientUnits="userSpaceOnUse">
<stop stop-color="#FAA336"/>
<stop offset="1" stop-color="#A95C1C"/>
</linearGradient>
<linearGradient id="paint31_linear" x1="46.187" y1="77.5806" x2="46.187" y2="81.8802" gradientUnits="userSpaceOnUse">
<stop stop-color="#FAA336"/>
<stop offset="1" stop-color="#A95C1C"/>
</linearGradient>
<linearGradient id="paint32_linear" x1="46.0941" y1="77.5345" x2="46.0941" y2="82.0086" gradientUnits="userSpaceOnUse">
<stop stop-color="#FAA336"/>
<stop offset="1" stop-color="#A95C1C"/>
</linearGradient>
<linearGradient id="paint33_linear" x1="41.3236" y1="78.6102" x2="41.3236" y2="82.4579" gradientUnits="userSpaceOnUse">
<stop stop-color="#FAA336"/>
<stop offset="1" stop-color="#A95C1C"/>
</linearGradient>
<linearGradient id="paint34_linear" x1="41.2274" y1="78.4295" x2="41.2274" y2="82.5433" gradientUnits="userSpaceOnUse">
<stop stop-color="#FAA336"/>
<stop offset="1" stop-color="#A95C1C"/>
</linearGradient>
<linearGradient id="paint35_linear" x1="36.4059" y1="79.1474" x2="36.4059" y2="82.5225" gradientUnits="userSpaceOnUse">
<stop stop-color="#FAA336"/>
<stop offset="1" stop-color="#A95C1C"/>
</linearGradient>
<linearGradient id="paint36_linear" x1="36.3057" y1="78.777" x2="36.3057" y2="82.5425" gradientUnits="userSpaceOnUse">
<stop stop-color="#FAA336"/>
<stop offset="1" stop-color="#A95C1C"/>
</linearGradient>
<linearGradient id="paint37_linear" x1="31.4864" y1="79.1852" x2="31.4864" y2="82.0714" gradientUnits="userSpaceOnUse">
<stop stop-color="#FAA336"/>
<stop offset="1" stop-color="#A95C1C"/>
</linearGradient>
<linearGradient id="paint38_linear" x1="31.3838" y1="78.61" x2="31.3838" y2="82.0077" gradientUnits="userSpaceOnUse">
<stop stop-color="#FAA336"/>
<stop offset="1" stop-color="#A95C1C"/>
</linearGradient>
<linearGradient id="paint39_linear" x1="26.618" y1="78.7261" x2="26.618" y2="81.1063" gradientUnits="userSpaceOnUse">
<stop stop-color="#FAA336"/>
<stop offset="1" stop-color="#A95C1C"/>
</linearGradient>
<linearGradient id="paint40_linear" x1="26.515" y1="77.9354" x2="26.515" y2="80.9426" gradientUnits="userSpaceOnUse">
<stop stop-color="#FAA336"/>
<stop offset="1" stop-color="#A95C1C"/>
</linearGradient>
<linearGradient id="paint41_linear" x1="21.8558" y1="77.755" x2="21.8558" y2="79.6406" gradientUnits="userSpaceOnUse">
<stop stop-color="#FAA336"/>
<stop offset="1" stop-color="#A95C1C"/>
</linearGradient>
<linearGradient id="paint42_linear" x1="21.7528" y1="76.7604" x2="21.7528" y2="79.36" gradientUnits="userSpaceOnUse">
<stop stop-color="#FAA336"/>
<stop offset="1" stop-color="#A95C1C"/>
</linearGradient>
<linearGradient id="paint43_linear" x1="17.2494" y1="76.2787" x2="17.2494" y2="77.693" gradientUnits="userSpaceOnUse">
<stop stop-color="#FAA336"/>
<stop offset="1" stop-color="#A95C1C"/>
</linearGradient>
<linearGradient id="paint44_linear" x1="17.1485" y1="75.0937" x2="17.1485" y2="77.2764" gradientUnits="userSpaceOnUse">
<stop stop-color="#FAA336"/>
<stop offset="1" stop-color="#A95C1C"/>
</linearGradient>
<linearGradient id="paint45_linear" x1="12.852" y1="74.3099" x2="12.852" y2="75.2843" gradientUnits="userSpaceOnUse">
<stop stop-color="#FAA336"/>
<stop offset="1" stop-color="#A95C1C"/>
</linearGradient>
<linearGradient id="paint46_linear" x1="12.7538" y1="72.957" x2="12.7538" y2="74.7234" gradientUnits="userSpaceOnUse">
<stop stop-color="#FAA336"/>
<stop offset="1" stop-color="#A95C1C"/>
</linearGradient>
<linearGradient id="paint47_linear" x1="8.71033" y1="71.7214" x2="8.71033" y2="72.446" gradientUnits="userSpaceOnUse">
<stop stop-color="#FAA336"/>
<stop offset="1" stop-color="#A95C1C"/>
</linearGradient>
<linearGradient id="paint48_linear" x1="8.61644" y1="70.3642" x2="8.61644" y2="72.0169" gradientUnits="userSpaceOnUse">
<stop stop-color="#FAA336"/>
<stop offset="1" stop-color="#A95C1C"/>
</linearGradient>
<linearGradient id="paint49_linear" x1="4.87107" y1="68.3153" x2="4.87107" y2="69.3112" gradientUnits="userSpaceOnUse">
<stop stop-color="#FAA336"/>
<stop offset="1" stop-color="#A95C1C"/>
</linearGradient>
<linearGradient id="paint50_linear" x1="4.7807" y1="67.3321" x2="4.7807" y2="69.2477" gradientUnits="userSpaceOnUse">
<stop stop-color="#FAA336"/>
<stop offset="1" stop-color="#A95C1C"/>
</linearGradient>
<linearGradient id="paint51_linear" x1="1.37539" y1="64.5289" x2="1.37539" y2="66.1496" gradientUnits="userSpaceOnUse">
<stop stop-color="#FAA336"/>
<stop offset="1" stop-color="#A95C1C"/>
</linearGradient>
<linearGradient id="paint52_linear" x1="1.29057" y1="63.8811" x2="1.29057" y2="66.0882" gradientUnits="userSpaceOnUse">
<stop stop-color="#FAA336"/>
<stop offset="1" stop-color="#A95C1C"/>
</linearGradient>
<linearGradient id="paint53_linear" x1="-1.73874" y1="60.4039" x2="-1.73874" y2="62.6341" gradientUnits="userSpaceOnUse">
<stop stop-color="#FAA336"/>
<stop offset="1" stop-color="#A95C1C"/>
</linearGradient>
<linearGradient id="paint54_linear" x1="-1.81639" y1="60.0409" x2="-1.81639" y2="62.5726" gradientUnits="userSpaceOnUse">
<stop stop-color="#FAA336"/>
<stop offset="1" stop-color="#A95C1C"/>
</linearGradient>
<linearGradient id="paint55_linear" x1="1.14093" y1="-0.713322" x2="1.14093" y2="5.31619" gradientUnits="userSpaceOnUse">
<stop stop-color="#FAA336"/>
<stop offset="1" stop-color="#A95C1C"/>
</linearGradient>
<linearGradient id="paint56_linear" x1="1.66321" y1="-0.902361" x2="1.66321" y2="5.3263" gradientUnits="userSpaceOnUse">
<stop stop-color="#FAA336"/>
<stop offset="1" stop-color="#A95C1C"/>
</linearGradient>
<linearGradient id="paint57_linear" x1="4.61095" y1="-4.14376" x2="4.61095" y2="1.74827" gradientUnits="userSpaceOnUse">
<stop stop-color="#FAA336"/>
<stop offset="1" stop-color="#A95C1C"/>
</linearGradient>
<linearGradient id="paint58_linear" x1="4.96528" y1="-4.329" x2="4.96528" y2="1.76514" gradientUnits="userSpaceOnUse">
<stop stop-color="#FAA336"/>
<stop offset="1" stop-color="#A95C1C"/>
</linearGradient>
<linearGradient id="paint59_linear" x1="67.6792" y1="-1.8651" x2="67.6792" y2="0.0482859" gradientUnits="userSpaceOnUse">
<stop stop-color="#FAA336"/>
<stop offset="1" stop-color="#A95C1C"/>
</linearGradient>
<linearGradient id="paint60_linear" x1="71.0862" y1="1.23148" x2="71.0862" y2="2.85448" gradientUnits="userSpaceOnUse">
<stop stop-color="#FAA336"/>
<stop offset="1" stop-color="#A95C1C"/>
</linearGradient>
<linearGradient id="paint61_linear" x1="71.17" y1="1.29273" x2="71.17" y2="3.49967" gradientUnits="userSpaceOnUse">
<stop stop-color="#FAA336"/>
<stop offset="1" stop-color="#A95C1C"/>
</linearGradient>
<linearGradient id="paint62_linear" x1="74.2003" y1="4.74762" x2="74.2003" y2="6.9778" gradientUnits="userSpaceOnUse">
<stop stop-color="#FAA336"/>
<stop offset="1" stop-color="#A95C1C"/>
</linearGradient>
<linearGradient id="paint63_linear" x1="74.2773" y1="4.80739" x2="74.2773" y2="7.33936" gradientUnits="userSpaceOnUse">
<stop stop-color="#FAA336"/>
<stop offset="1" stop-color="#A95C1C"/>
</linearGradient>
<linearGradient id="paint64_linear" x1="76.8988" y1="8.58021" x2="76.8988" y2="11.3944" gradientUnits="userSpaceOnUse">
<stop stop-color="#FAA336"/>
<stop offset="1" stop-color="#A95C1C"/>
</linearGradient>
<linearGradient id="paint65_linear" x1="76.9684" y1="8.6404" x2="76.9684" y2="11.5145" gradientUnits="userSpaceOnUse">
<stop stop-color="#FAA336"/>
<stop offset="1" stop-color="#A95C1C"/>
</linearGradient>
<linearGradient id="paint66_linear" x1="79.1509" y1="12.6913" x2="79.1509" y2="16.0547" gradientUnits="userSpaceOnUse">
<stop stop-color="#FAA336"/>
<stop offset="1" stop-color="#A95C1C"/>
</linearGradient>
<linearGradient id="paint67_linear" x1="79.2121" y1="12.7448" x2="79.2121" y2="16.1627" gradientUnits="userSpaceOnUse">
<stop stop-color="#FAA336"/>
<stop offset="1" stop-color="#A95C1C"/>
</linearGradient>
<linearGradient id="paint68_linear" x1="80.9324" y1="17.0288" x2="80.9324" y2="20.909" gradientUnits="userSpaceOnUse">
<stop stop-color="#FAA336"/>
<stop offset="1" stop-color="#A95C1C"/>
</linearGradient>
<linearGradient id="paint69_linear" x1="80.9863" y1="17.0799" x2="80.9863" y2="21.0319" gradientUnits="userSpaceOnUse">
<stop stop-color="#FAA336"/>
<stop offset="1" stop-color="#A95C1C"/>
</linearGradient>
<linearGradient id="paint70_linear" x1="82.2288" y1="21.5508" x2="82.2288" y2="25.9014" gradientUnits="userSpaceOnUse">
<stop stop-color="#FAA336"/>
<stop offset="1" stop-color="#A95C1C"/>
</linearGradient>
<linearGradient id="paint71_linear" x1="82.2691" y1="21.5971" x2="82.2691" y2="26.0416" gradientUnits="userSpaceOnUse">
<stop stop-color="#FAA336"/>
<stop offset="1" stop-color="#A95C1C"/>
</linearGradient>
<linearGradient id="paint72_linear" x1="83.0309" y1="26.2064" x2="83.0309" y2="30.9818" gradientUnits="userSpaceOnUse">
<stop stop-color="#FAA336"/>
<stop offset="1" stop-color="#A95C1C"/>
</linearGradient>
<linearGradient id="paint73_linear" x1="82.9817" y1="26.2457" x2="82.9817" y2="31.1339" gradientUnits="userSpaceOnUse">
<stop stop-color="#FAA336"/>
<stop offset="1" stop-color="#A95C1C"/>
</linearGradient>
<linearGradient id="paint74_linear" x1="83.3318" y1="30.9424" x2="83.3318" y2="36.0908" gradientUnits="userSpaceOnUse">
<stop stop-color="#FAA336"/>
<stop offset="1" stop-color="#A95C1C"/>
</linearGradient>
<linearGradient id="paint75_linear" x1="83.1555" y1="30.9762" x2="83.1555" y2="36.2549" gradientUnits="userSpaceOnUse">
<stop stop-color="#FAA336"/>
<stop offset="1" stop-color="#A95C1C"/>
</linearGradient>
<linearGradient id="paint76_linear" x1="83.1245" y1="35.7071" x2="83.1245" y2="41.1721" gradientUnits="userSpaceOnUse">
<stop stop-color="#FAA336"/>
<stop offset="1" stop-color="#A95C1C"/>
</linearGradient>
<linearGradient id="paint77_linear" x1="82.805" y1="35.7372" x2="82.805" y2="41.3462" gradientUnits="userSpaceOnUse">
<stop stop-color="#FAA336"/>
<stop offset="1" stop-color="#A95C1C"/>
</linearGradient>
<linearGradient id="paint78_linear" x1="82.4126" y1="40.4534" x2="82.4126" y2="46.1737" gradientUnits="userSpaceOnUse">
<stop stop-color="#FAA336"/>
<stop offset="1" stop-color="#A95C1C"/>
</linearGradient>
<linearGradient id="paint79_linear" x1="81.9352" y1="40.4758" x2="81.9352" y2="46.355" gradientUnits="userSpaceOnUse">
<stop stop-color="#FAA336"/>
<stop offset="1" stop-color="#A95C1C"/>
</linearGradient>
<linearGradient id="paint80_linear" x1="81.1971" y1="45.1232" x2="81.1971" y2="51.0386" gradientUnits="userSpaceOnUse">
<stop stop-color="#FAA336"/>
<stop offset="1" stop-color="#A95C1C"/>
</linearGradient>
<linearGradient id="paint81_linear" x1="80.5578" y1="45.1398" x2="80.5578" y2="51.2248" gradientUnits="userSpaceOnUse">
<stop stop-color="#FAA336"/>
<stop offset="1" stop-color="#A95C1C"/>
</linearGradient>
<linearGradient id="paint82_linear" x1="79.4854" y1="49.6688" x2="79.4854" y2="55.7103" gradientUnits="userSpaceOnUse">
<stop stop-color="#FAA336"/>
<stop offset="1" stop-color="#A95C1C"/>
</linearGradient>
<linearGradient id="paint83_linear" x1="78.6855" y1="49.6789" x2="78.6855" y2="55.9023" gradientUnits="userSpaceOnUse">
<stop stop-color="#FAA336"/>
<stop offset="1" stop-color="#A95C1C"/>
</linearGradient>
<linearGradient id="paint84_linear" x1="77.2982" y1="54.0381" x2="77.2982" y2="60.1433" gradientUnits="userSpaceOnUse">
<stop stop-color="#FAA336"/>
<stop offset="1" stop-color="#A95C1C"/>
</linearGradient>
<linearGradient id="paint85_linear" x1="76.3426" y1="54.042" x2="76.3426" y2="60.337" gradientUnits="userSpaceOnUse">
<stop stop-color="#FAA336"/>
<stop offset="1" stop-color="#A95C1C"/>
</linearGradient>
</defs>
</svg>
