<svg width="40" height="40" viewBox="0 0 40 40" fill="none" xmlns="http://www.w3.org/2000/svg">
<circle cx="11.5" cy="18.5" r="2.5" fill="white"/>
<circle cx="24.5" cy="18.5" r="2.5" fill="white"/>
<path d="M15.9028 26.9536L21.4271 10.3807C21.6317 9.76668 21.2999 9.10301 20.6859 8.89832C20.072 8.69371 19.4082 9.02551 19.2036 9.63949L13.6793 26.2124C13.4747 26.8264 13.8065 27.4901 14.4205 27.6947C14.5434 27.7357 14.6684 27.7551 14.7912 27.7551C15.2818 27.7552 15.7391 27.4447 15.9028 26.9536Z" fill="black"/>
<path d="M24.1823 21.8125C26.1208 21.8125 27.6979 20.2354 27.6979 18.2969C27.6979 16.3584 26.1208 14.7812 24.1823 14.7812C22.2437 14.7812 20.6666 16.3584 20.6666 18.2969C20.6666 20.2354 22.2437 21.8125 24.1823 21.8125ZM24.1823 17.125C24.8284 17.125 25.3541 17.6507 25.3541 18.2969C25.3541 18.943 24.8284 19.4688 24.1823 19.4688C23.5361 19.4688 23.0104 18.943 23.0104 18.2969C23.0104 17.6507 23.5361 17.125 24.1823 17.125Z" fill="black"/>
<path d="M10.924 14.7812C8.98549 14.7812 7.40839 16.3584 7.40839 18.2969C7.40839 20.2354 8.98549 21.8125 10.924 21.8125C12.8625 21.8125 14.4396 20.2354 14.4396 18.2969C14.4396 16.3584 12.8626 14.7812 10.924 14.7812ZM10.924 19.4688C10.2778 19.4688 9.75213 18.943 9.75213 18.2969C9.75213 17.6507 10.2778 17.125 10.924 17.125C11.5702 17.125 12.0959 17.6507 12.0959 18.2969C12.0959 18.943 11.5703 19.4688 10.924 19.4688Z" fill="black"/>
<path d="M39.7659 14.5312L35.6794 9.08256L35.8388 7.9667C35.8909 7.60154 35.7682 7.23311 35.5073 6.97232L33.0214 4.48639L35.5073 2.00045C35.9649 1.54287 35.9649 0.80084 35.5073 0.343184C35.0497 -0.114395 34.3077 -0.114395 33.85 0.343184L31.3641 2.82912L28.8782 0.343184C28.6174 0.0823242 28.249 -0.0400195 27.8838 0.0116992L16.2828 1.66896C16.0318 1.70482 15.7992 1.82115 15.6199 2.00045L1.25679 16.3636C-0.418604 18.0389 -0.418604 20.765 1.25679 22.4403L13.4101 34.5937C13.6587 34.8423 13.9309 35.0532 14.219 35.228V35.7031C14.219 38.0724 16.1466 40 18.5159 40H35.7034C38.0727 40 40.0002 38.0724 40.0002 35.7031V15.2344C40.0002 14.9808 39.918 14.734 39.7659 14.5312ZM2.91405 20.783C2.15249 20.0215 2.15249 18.7824 2.91405 18.0208L17.0009 3.93396L27.6351 2.41482L29.7068 4.48646L28.0495 6.14373L27.2209 5.31506C26.7633 4.85748 26.0212 4.85748 25.5636 5.31506C25.1059 5.77264 25.1059 6.51467 25.5636 6.97232L28.8782 10.2869C29.107 10.5158 29.4069 10.6302 29.7068 10.6302C30.0066 10.6302 30.3066 10.5158 30.5354 10.2869C30.993 9.82936 30.993 9.08732 30.5354 8.62967L29.7067 7.801L31.364 6.14373L33.4356 8.21537L31.9164 18.8496L17.8296 32.9365C17.4607 33.3054 16.9702 33.5085 16.4485 33.5085C15.9268 33.5085 15.4363 33.3053 15.0674 32.9365L2.91405 20.783ZM37.6565 35.7031C37.6565 36.7801 36.7803 37.6562 35.7034 37.6562H18.5159C17.4874 37.6562 16.6427 36.8572 16.5686 35.8473C17.6285 35.818 18.6797 35.4009 19.4868 34.5937L33.8499 20.2306C34.0292 20.0513 34.1455 19.8187 34.1814 19.5677L35.2105 12.3638L37.6565 15.625V35.7031Z" fill="black"/>
</svg>
