<svg width="46" height="46" viewBox="0 0 46 46" fill="none" xmlns="http://www.w3.org/2000/svg">
<rect width="4" height="5" transform="matrix(0.707125 -0.707088 0.707125 0.707088 20 22.8284)" fill="white"/>
<rect width="4" height="5" transform="matrix(0.707125 -0.707088 0.707125 0.707088 33 8.82837)" fill="white"/>
<rect width="4" height="5" transform="matrix(0.707125 -0.707088 0.707125 0.707088 6 35.8284)" fill="white"/>
<path d="M45.9752 5.05301C46.0269 3.70302 45.5086 2.38077 44.5533 1.42537C43.5979 0.470144 42.2767 -0.0481933 40.9257 0.00353264C39.5757 0.0551688 38.297 0.673096 37.4176 1.69855L32.7953 7.08846L29.4813 3.7745L19.4722 13.6882L17.793 12.009C18.1767 9.07363 16.9275 5.80205 14.4207 3.29523C12.0936 0.968096 8.94934 0.315505 7.28217 0.133566C5.21331 -0.0921065 2.55553 0.113899 1.30045 1.36906C0.0655858 2.60393 -0.139073 5.25812 0.0812114 7.33039C0.259558 9.00762 0.905234 12.1679 3.22662 14.4892C5.43494 16.6975 8.23604 17.93 10.8786 17.9298C11.2359 17.9298 11.5906 17.9073 11.9403 17.8615L13.6628 19.584L3.76004 29.4868L7.15725 32.884L1.71264 37.4256L1.69855 37.4374C0.673007 38.3169 0.0551688 39.5956 0.00353263 40.9456C-0.0481933 42.2956 0.470144 43.6179 1.42546 44.5731C2.33722 45.4849 3.58304 45.9986 4.86856 45.9985C4.92989 45.9985 4.9915 45.9973 5.05292 45.9949C6.40291 45.9433 7.6816 45.3254 8.56104 44.2999L13.1833 38.91L16.5019 42.2285L26.4046 32.3258L38.8666 44.7879C39.6482 45.5695 40.6875 46 41.7929 46C42.8983 46 43.9375 45.5695 44.7192 44.7879C45.5008 44.0062 45.9313 42.967 45.9313 41.8616C45.9313 40.7561 45.5008 39.7169 44.7192 38.9353L32.2572 26.4731L42.2187 16.5117L38.8902 13.1833L44.2801 8.56112C45.3056 7.68169 45.9234 6.403 45.9752 5.05301ZM36.1574 7.32275L38.6559 9.82132L36.9721 11.2653L34.7134 9.00654L36.1574 7.32275ZM12.0875 15.0894C9.90537 15.6022 7.17808 14.616 5.13895 12.577C3.87777 11.3157 3.0154 9.30702 2.77294 7.06583C2.54673 4.97506 2.95497 3.54784 3.21288 3.2814C3.47815 3.01603 4.90142 2.59441 6.98878 2.82215C9.2244 3.06605 11.2362 3.93551 12.5083 5.20756C14.5473 7.2466 15.5335 9.97407 15.0207 12.1561L14.8483 12.8891L20.809 18.8497L18.7811 20.8776L12.8205 14.917L12.0875 15.0894ZM20.6936 22.7901L22.7215 20.7623L24.8659 22.9067L22.8381 24.9345L20.6936 22.7901ZM11.2653 36.9919L9.85032 38.6419L7.40717 36.1974L9.07749 34.8041L11.2653 36.9919ZM4.94947 43.2923C4.34124 43.3159 3.76848 43.0913 3.33779 42.6607C2.90719 42.23 2.68278 41.6577 2.70612 41.0491C2.72929 40.4432 2.99439 39.892 3.45292 39.4958L5.32188 37.9369L8.08446 40.7011L6.50807 42.5393C6.1116 43.0015 5.55806 43.2691 4.94947 43.2923ZM16.5019 38.4037L7.58498 29.4868L15.5753 21.4965L24.4923 30.4135L16.5019 38.4037ZM43.2269 41.8616C43.2269 42.2446 43.0777 42.6046 42.8069 42.8755C42.536 43.1463 42.176 43.2955 41.793 43.2955C41.41 43.2955 41.05 43.1463 40.7791 42.8755L24.7505 26.8469L26.7783 24.8191L42.8069 40.8476C43.0777 41.1185 43.2269 41.4786 43.2269 41.8616ZM30.3448 24.5608L21.3846 15.6006L29.4722 7.59028L38.3936 16.5117L30.3448 24.5608ZM43.2726 4.94947C43.2493 5.55806 42.9818 6.1116 42.5195 6.50807L40.715 8.05563L37.9231 5.26378L39.4707 3.4592C39.8672 2.9969 40.4207 2.72938 41.0292 2.70612C41.6378 2.68242 42.2102 2.90719 42.6409 3.33788C43.0715 3.76857 43.2959 4.34088 43.2726 4.94947Z" fill="black"/>
</svg>
