<svg width="45" height="45" viewBox="0 0 45 45" fill="none" xmlns="http://www.w3.org/2000/svg">
<path d="M5.27344 21.1816H10.5469V23.8184H5.27344V21.1816Z" fill="black"/>
<path d="M2.63672 26.4551H7.91016V29.0918H2.63672V26.4551Z" fill="black"/>
<path d="M0 31.7285H5.27344V34.3652H0V31.7285Z" fill="black"/>
<path d="M42.3633 11.9531V10.6348H37.0898V4.87424C37.0003 4.79514 34.4512 -0.000175776 27.7734 4.83258e-09C21.083 0.000175786 18.5335 4.80674 18.457 4.87424V10.6348H13.1836V11.9531C13.1836 17.096 12.5556 20.2358 11.8908 23.5598C11.23 26.8634 10.5469 30.2796 10.5469 35.6836V45H45V35.6836C45 30.2796 44.3168 26.8634 43.6561 23.5598C42.9913 20.2358 42.3633 17.096 42.3633 11.9531ZM21.0938 5.69241C22.5391 3.77218 25.0051 2.63681 27.7734 2.63672C30.5417 2.63663 33.0076 3.772 34.4531 5.69241V10.6348H21.0938V5.69241ZM42.3633 42.3633H13.1836V35.6836C13.1836 30.5407 13.8116 27.401 14.4764 24.0769C15.0817 21.0503 15.7059 17.9289 15.8063 13.2715H18.457V15.9082H21.0938V13.2715H34.4531V15.9082H37.0898V13.2715H39.7405C39.841 17.9289 40.4652 21.0503 41.0705 24.0769C41.7353 27.401 42.3633 30.5407 42.3633 35.6836V42.3633Z" fill="black"/>
<path d="M35.5 35.5H20C19.6667 32 20.7 25 27.5 25C34.3 25 35.6667 32 35.5 35.5Z" fill="white"/>
<path d="M37.0898 33.0469C37.0898 28.4015 33.6067 24.5475 29.0918 23.9112V21.1816H26.4551V23.9112C21.9401 24.5475 18.457 28.4015 18.457 33.0469V34.3652H15.8203V37.002H39.7266V34.3652H37.0898V33.0469ZM34.4531 34.3652H21.0938V33.0469C21.0938 29.4122 24.0902 26.4551 27.7734 26.4551C31.4567 26.4551 34.4531 29.4122 34.4531 33.0469V34.3652Z" fill="black"/>
</svg>
