<svg width="31" height="42" viewBox="0 0 31 42" fill="none" xmlns="http://www.w3.org/2000/svg">
<rect x="5" y="7" width="7" height="4" fill="white"/>
<rect x="1" y="36" width="28" height="4" fill="white"/>
<path d="M29.6166 18.7709C29.5918 18.1089 29.048 17.585 28.3855 17.585H27.1536V5.26642C27.1536 2.36247 24.7912 0 21.8872 0C18.9833 0 16.6208 2.36247 16.6208 5.26642V17.585H14.9783V17.3778C14.9783 15.7724 14.2336 14.2525 12.9961 13.2599V12.6722C13.4164 12.476 13.7085 12.0508 13.7085 11.5564V7.45002C13.7085 6.76967 13.1569 6.21811 12.4766 6.21811H5.78673C5.10639 6.21811 4.55482 6.76967 4.55482 7.45002V11.5564C4.55482 12.0509 4.84678 12.476 5.26719 12.6722V13.2599C4.02978 14.2525 3.28505 15.7724 3.28505 17.3778V17.585H2.05314C1.3907 17.585 0.846853 18.1089 0.822132 18.7709L0.000858974 40.7221C-0.0116244 41.0565 0.112388 41.3817 0.344726 41.6228C0.5769 41.8639 0.897279 42.0001 1.23195 42.0001H29.2069C29.5416 42.0001 29.862 41.8639 30.0941 41.6228C30.3264 41.3817 30.4505 41.0565 30.438 40.7221L29.6166 18.7709ZM19.0846 5.26642C19.0846 3.72111 20.3419 2.46382 21.8872 2.46382C23.2708 2.46382 24.4227 3.47193 24.6488 4.79213L21.9422 5.60856C21.2907 5.80501 20.922 6.49233 21.1184 7.14368C21.2792 7.67644 21.7682 8.02014 22.2974 8.02014C22.4152 8.02014 22.535 8.00306 22.6536 7.96734L24.6898 7.35319V8.8861L21.9422 9.71484C21.2907 9.91129 20.922 10.5986 21.1184 11.25C21.2792 11.7827 21.7682 12.1264 22.2974 12.1264C22.4152 12.1264 22.535 12.1093 22.6536 12.0736L24.6898 11.4595V12.9924L21.9422 13.8211C21.2907 14.0176 20.922 14.7049 21.1184 15.3563C21.2792 15.889 21.7682 16.2327 22.2974 16.2327C22.4152 16.2327 22.535 16.2156 22.6536 16.1799L24.6898 15.5658V17.5635H19.0846V5.26642ZM7.12762 14.961C7.50171 14.7391 7.73101 14.3364 7.73101 13.9014V12.7882H10.5323V13.9014C10.5323 14.3364 10.7616 14.7391 11.1357 14.961C11.9991 15.4731 12.5144 16.3766 12.5144 17.3777V17.5637H5.74887V17.3777C5.74887 16.3766 6.2643 15.4731 7.12762 14.961ZM7.01864 8.68184H11.2447V10.3244H7.01864V8.68184ZM27.1989 20.0488L27.7436 34.6086H2.69505L3.2398 20.0488H27.1989ZM2.51075 39.5362L2.6029 37.0724H27.8358L27.928 39.5362H2.51075Z" fill="black"/>
</svg>
