<svg width="13" height="13" viewBox="0 0 13 13" fill="none" xmlns="http://www.w3.org/2000/svg">
<path fill-rule="evenodd" clip-rule="evenodd" d="M6.5 0C8.23621 0 9.8685 0.676127 11.0962 1.90379C12.3239 3.1315 13 4.76379 13 6.5C13 7.78299 12.6192 9.03078 11.8987 10.1084C11.7429 10.3416 11.4275 10.4042 11.1943 10.2483C10.9612 10.0924 10.8985 9.77707 11.0544 9.54393C11.6628 8.63393 11.9844 7.58136 11.9844 6.5C11.9844 3.4759 9.5241 1.01562 6.5 1.01562C3.4759 1.01562 1.01562 3.4759 1.01562 6.5C1.01562 9.5241 3.4759 11.9844 6.5 11.9844C7.50306 11.9844 8.48413 11.7113 9.33707 11.1946C9.57696 11.0493 9.88919 11.1259 10.0345 11.3658C10.1798 11.6057 10.1032 11.9179 9.86329 12.0633C8.8516 12.6761 7.68861 13 6.5 13C4.76379 13 3.1315 12.3239 1.90379 11.0962C0.676127 9.8685 0 8.23621 0 6.5C0 4.76379 0.676127 3.1315 1.90379 1.90379C3.1315 0.676127 4.76379 0 6.5 0ZM5.17445 9.54705C5.0929 9.54705 5.0102 9.52737 4.93342 9.48586C4.6867 9.35251 4.59481 9.04439 4.72819 8.79767L7.47312 3.71955C7.60642 3.47285 7.91453 3.38094 8.1613 3.51432C8.40802 3.64764 8.49991 3.95576 8.36654 4.2025L5.62161 9.28063C5.52977 9.45054 5.35496 9.54705 5.17445 9.54705ZM5.66211 4.72266C5.66211 4.02264 5.0926 3.45312 4.39258 3.45312C3.69256 3.45312 3.12305 4.02264 3.12305 4.72266C3.12305 5.42268 3.69256 5.99219 4.39258 5.99219C5.0926 5.99219 5.66211 5.42268 5.66211 4.72266ZM4.39258 4.97656C4.25257 4.97656 4.13867 4.86266 4.13867 4.72266C4.13867 4.58265 4.25257 4.46875 4.39258 4.46875C4.53258 4.46875 4.64648 4.58265 4.64648 4.72266C4.64648 4.86266 4.53258 4.97656 4.39258 4.97656ZM9.85156 8.27734C9.85156 8.97736 9.28205 9.54688 8.58203 9.54688C7.88201 9.54688 7.3125 8.97736 7.3125 8.27734C7.3125 7.57732 7.88201 7.00781 8.58203 7.00781C9.28205 7.00781 9.85156 7.57732 9.85156 8.27734ZM8.83594 8.27734C8.83594 8.13734 8.72204 8.02344 8.58203 8.02344C8.44203 8.02344 8.32812 8.13734 8.32812 8.27734C8.32812 8.41735 8.44203 8.53125 8.58203 8.53125C8.72204 8.53125 8.83594 8.41735 8.83594 8.27734Z" fill="#FAA336"/>
</svg>
