<svg width="12" height="12" viewBox="0 0 12 12" fill="none" xmlns="http://www.w3.org/2000/svg">
<path fill-rule="evenodd" clip-rule="evenodd" d="M11.0282 1.72728L11.2635 2.33906C13.1904 7.34906 10.0236 9.8295 8.98092 10.6462L8.98059 10.6465L8.86953 10.7337C7.86183 11.5245 6.62512 11.9677 5.34446 11.997C4.5074 12.0337 3.69057 11.7333 3.07667 11.1631C2.89937 10.9845 2.74643 10.7833 2.62182 10.5646C2.33041 10.6001 2.03715 10.6185 1.74358 10.6196C1.15278 10.632 0.563869 10.5481 0 10.3713L0.2604 9.65869C0.740762 9.80278 1.24064 9.87119 1.74207 9.86148C1.92476 9.86148 2.11997 9.85238 2.32427 9.83457C2.22994 9.4674 2.19663 9.0872 2.22572 8.7092C2.16936 8.69413 2.11383 8.67615 2.05932 8.65538C1.50256 8.42276 1.0615 7.97777 0.833888 7.41895C0.508648 6.60434 0.517366 5.69443 0.858146 4.8862C1.19549 4.03109 1.89558 3.28741 2.99479 2.61462C3.98295 2.01172 4.381 0.683767 4.39678 0.631101C4.39703 0.630294 4.39718 0.629786 4.39724 0.629585L4.57539 0L5.03289 0.466977C6.19086 1.65299 6.73592 2.92695 6.65518 4.2623C6.94932 4.19446 7.25369 4.13381 7.57966 4.08719C9.29709 3.84195 10.6025 2.25263 10.6154 2.23634L11.0282 1.72728ZM2.34701 7.95301L2.35308 7.95529C2.57603 7.13919 3.01083 6.39656 3.61339 5.80272C4.24913 5.19012 5.02076 4.73658 5.86526 4.47911C5.98753 3.37585 5.63346 2.27277 4.89189 1.4468C4.57762 2.18486 4.05528 2.81546 3.38862 3.26164C2.43306 3.84536 1.83645 4.46812 1.56127 5.16593C1.2943 5.78744 1.2826 6.48904 1.52867 7.11913C1.67716 7.49651 1.97248 7.79747 2.34701 7.95301ZM8.40104 10.1378L8.51475 10.048C9.4995 9.277 12.0444 7.28401 10.7572 3.18924C9.92435 4.03703 8.85368 4.6119 7.68693 4.83769C6.08776 5.06587 4.93017 5.55672 4.14897 6.3383C3.51443 6.95112 3.10616 7.76075 2.99062 8.63529C2.9459 9.00161 2.97648 9.37321 3.08046 9.7273C4.53862 9.43355 6.36446 8.59511 8.26345 6.54337L8.81988 7.05848C6.87768 9.15647 4.98665 10.07 3.43524 10.4232C3.49008 10.495 3.54959 10.5632 3.61339 10.6271C4.57804 11.5918 6.85948 11.3587 8.40104 10.1378ZM9.33236 6.47701L8.75281 5.98842C8.90746 5.8042 9.06286 5.61241 9.21789 5.41113L9.81829 5.87395C9.65606 6.08368 9.49409 6.28471 9.33236 6.47701Z" fill="#14FF00"/>
</svg>
