<svg width="30" height="31" viewBox="0 0 30 31" fill="none" xmlns="http://www.w3.org/2000/svg">
<path d="M28.4506 15.8559C28.0382 14.9029 27.6477 14.0005 27.4481 13.1359L27.4467 10.7997L27.4308 10.7045C27.2236 9.45988 26.1571 8.55653 24.895 8.55653H20.6291C21.8645 7.23589 22.622 5.46311 22.622 3.51638C22.622 1.57745 21.0446 0 19.1057 0C17.1667 0 15.5893 1.57745 15.5893 3.51638C15.5893 5.37033 17.0318 6.89275 18.8532 7.02268C17.9366 7.96759 16.655 8.55653 15.2376 8.55653H14.7688C13.3515 8.55653 12.0699 7.96759 11.1532 7.02268C12.9746 6.89269 14.4172 5.37033 14.4172 3.51638C14.4172 1.57745 12.8397 0 10.9008 0C8.96185 0 7.3844 1.57745 7.3844 3.51638C7.3844 5.46311 8.14194 7.23589 9.37731 8.55653H5.10514C3.84305 8.55653 2.77659 9.45988 2.5693 10.7044L2.55342 10.7997L2.55207 13.1358C2.35246 14.0004 1.96196 14.9028 1.54961 15.8558C0.823243 17.5343 0 19.4366 0 21.6843C0 25.0884 1.61144 27.4559 4.7896 28.7212C7.6323 29.853 11.544 30.0062 14.9967 30.0064C14.9968 30.0064 14.9968 30.0064 14.9969 30.0064C14.9978 30.0064 14.9987 30.0064 14.9995 30.0064C15.0008 30.0064 15.002 30.0064 15.0032 30.0064C15.0033 30.0064 15.0034 30.0064 15.0035 30.0064C19.662 30.0061 24.3635 29.7188 27.2033 27.6404C27.7257 27.2582 27.8393 26.5247 27.457 26.0023C27.0746 25.48 26.3411 25.3665 25.8188 25.7487C23.5217 27.4299 19.2621 27.6621 15.0006 27.6622C5.65633 27.6619 2.34425 26.0975 2.34425 21.6843C2.34425 19.9221 3.03399 18.3282 3.70093 16.7869C3.87153 16.3927 4.04425 15.9935 4.20624 15.5893H21.7888C22.4362 15.5893 22.961 15.0645 22.961 14.4172C22.961 13.7698 22.4362 13.245 21.7888 13.245H4.89621L4.8975 11.036C4.93272 10.9552 5.01301 10.9008 5.10508 10.9008H24.8949C24.987 10.9008 25.0673 10.9552 25.1025 11.036L25.1039 13.3873L25.1293 13.5071C25.3684 14.6362 25.8415 15.7296 26.2991 16.787C26.9661 18.3283 27.6557 19.9221 27.6557 21.6843C27.6557 22.3317 28.1805 22.8565 28.8279 22.8565C29.4752 22.8565 30 22.3317 30 21.6843C30.0001 19.4366 29.1769 17.5343 28.4506 15.8559ZM9.72865 3.51638C9.72865 2.87007 10.2545 2.34425 10.9008 2.34425C11.5471 2.34425 12.0729 2.87007 12.0729 3.51638C12.0729 4.16269 11.5471 4.68851 10.9008 4.68851C10.2545 4.68851 9.72865 4.16269 9.72865 3.51638ZM19.1057 4.68851C18.4594 4.68851 17.9335 4.16269 17.9335 3.51638C17.9335 2.87007 18.4594 2.34425 19.1057 2.34425C19.752 2.34425 20.2778 2.87007 20.2778 3.51638C20.2778 4.16269 19.752 4.68851 19.1057 4.68851Z" fill="black"/>
</svg>
