<svg width="20" height="20" viewBox="0 0 20 20" fill="none" xmlns="http://www.w3.org/2000/svg">
<ellipse cx="6.92453" cy="2.30775" rx="1.53879" ry="1.53846" fill="#FFDE17"/>
<ellipse cx="13.0798" cy="2.30775" rx="1.53879" ry="1.53846" fill="#FFDE17"/>
<path d="M18.967 10.5684C18.6921 9.93314 18.4318 9.33166 18.2987 8.75541L18.2978 7.1983L18.2872 7.13482C18.1491 6.30525 17.4381 5.70314 16.5967 5.70314H13.7528C14.5763 4.8229 15.0814 3.6413 15.0814 2.34375C15.0814 1.05141 14.0297 0 12.7371 0C11.4445 0 10.3929 1.05141 10.3929 2.34375C10.3929 3.57946 11.3545 4.59419 12.5688 4.68079C11.9577 5.3106 11.1033 5.70314 10.1584 5.70314H9.84587C8.90101 5.70314 8.04657 5.3106 7.43546 4.68079C8.64975 4.59415 9.61144 3.57946 9.61144 2.34375C9.61144 1.05141 8.55981 0 7.26719 0C5.97456 0 4.92293 1.05141 4.92293 2.34375C4.92293 3.6413 5.42796 4.8229 6.25154 5.70314H3.40343C2.56203 5.70314 1.85106 6.30525 1.71287 7.13478L1.70228 7.19826L1.70138 8.75537C1.56831 9.33162 1.30798 9.93311 1.03307 10.5683C0.548829 11.6871 0 12.9549 0 14.4532C0 16.722 1.07429 18.3 3.19307 19.1434C5.0882 19.8978 7.69599 19.9999 9.99781 20C9.99785 20 9.99789 20 9.99793 20C9.99852 20 9.9991 20 9.99969 20C10.0005 20 10.0013 20 10.0021 20C10.0022 20 10.0023 20 10.0023 20C13.108 19.9998 16.2423 19.8083 18.1355 18.423C18.4838 18.1682 18.5595 17.6794 18.3046 17.3312C18.0497 16.983 17.5608 16.9074 17.2126 17.1621C15.6811 18.2827 12.8414 18.4375 10.0004 18.4375C3.77089 18.4373 1.56284 17.3946 1.56284 14.4532C1.56284 13.2786 2.02266 12.2162 2.46729 11.1889C2.58102 10.9262 2.69617 10.6601 2.80416 10.3906H14.5259C14.9575 10.3906 15.3073 10.0409 15.3073 9.60939C15.3073 9.17791 14.9575 8.82814 14.5259 8.82814H3.26414L3.265 7.35576C3.28848 7.30193 3.34201 7.26564 3.40339 7.26564H16.5966C16.658 7.26564 16.7115 7.30189 16.735 7.35576L16.7359 8.92299L16.7529 9.00279C16.9123 9.75541 17.2277 10.4842 17.5327 11.1889C17.9774 12.2163 18.4372 13.2786 18.4372 14.4532C18.4372 14.8846 18.787 15.2344 19.2186 15.2344C19.6501 15.2344 20 14.8846 20 14.4532C20.0001 12.955 19.4512 11.6871 18.967 10.5684ZM6.48577 2.34375C6.48577 1.91297 6.83631 1.5625 7.26719 1.5625C7.69806 1.5625 8.0486 1.91297 8.0486 2.34375C8.0486 2.77454 7.69806 3.12501 7.26719 3.12501C6.83631 3.12501 6.48577 2.77454 6.48577 2.34375ZM12.7371 3.12501C12.3062 3.12501 11.9557 2.77454 11.9557 2.34375C11.9557 1.91297 12.3062 1.5625 12.7371 1.5625C13.168 1.5625 13.5185 1.91297 13.5185 2.34375C13.5185 2.77454 13.168 3.12501 12.7371 3.12501Z" fill="white"/>
</svg>
