<svg width="13" height="16" viewBox="0 0 13 16" fill="none" xmlns="http://www.w3.org/2000/svg">
<path fill-rule="evenodd" clip-rule="evenodd" d="M12.2896 7.70312L11.2276 8.74869L11.0712 10.2303L10.2886 10.4972L11.6301 14.6903L9.33347 14.564L7.53665 16L6.39787 12.4407L6.14481 12.6022L5.89175 12.4407L4.75298 16L2.95612 14.564L0.659485 14.6903L2.00104 10.4972L1.21832 10.2303L1.06207 8.74866L0 7.70312L0.504456 6.30109L0 4.89906L1.06207 3.8535L1.21835 2.37194L2.62811 1.89116L3.40985 0.622625L4.8894 0.80125L6.14481 0L7.40022 0.80125L8.87981 0.622625L9.66156 1.89119L11.0713 2.37197L11.2276 3.8535L12.2896 4.89906L11.7852 6.30109L12.2896 7.70312ZM3.26218 13.6075L4.27444 14.4164L5.07359 11.9185L4.88937 11.8009L3.40979 11.9796L2.81879 11.0205L1.96835 13.6786L3.26218 13.6075ZM8.01518 14.4164L9.02744 13.6075L10.3212 13.6786L9.47081 11.0205L8.87978 11.9796L7.40022 11.8009L7.216 11.9185L8.01518 14.4164ZM9.03957 9.93175L10.201 9.53566L10.3297 8.31594L11.2034 7.45578L10.7879 6.30113L11.2034 5.14647L10.3297 4.28634L10.201 3.06656L9.0396 2.67047L8.39606 1.62619L7.17888 1.77313L6.14481 1.11316L5.11072 1.77309L3.89355 1.62616L3.25003 2.67041L2.08859 3.0665L1.95993 4.28628L1.08621 5.14644L1.50168 6.30109L1.08621 7.45575L1.95993 8.31588L2.08859 9.53566L3.25003 9.93175L3.89355 10.976L5.11075 10.8291L6.14481 11.4891L7.17888 10.8291L8.39603 10.976L9.03957 9.93175ZM2.49341 6.30083C2.49341 4.28742 4.13141 2.64941 6.14478 2.64941C8.15816 2.64941 9.79616 4.28742 9.79616 6.3008C9.79616 8.31418 8.15816 9.95218 6.14478 9.95218C4.13141 9.95218 2.49341 8.31424 2.49341 6.30083ZM3.43173 6.3008C3.43173 7.79677 4.64882 9.01386 6.14478 9.01386C7.64075 9.01386 8.85785 7.7968 8.85785 6.3008C8.85785 4.80482 7.64075 3.58773 6.14478 3.58773C4.64882 3.58773 3.43173 4.80479 3.43173 6.3008Z" fill="#FF0000"/>
</svg>
