<svg width="115" height="115" viewBox="0 0 115 115" fill="none" xmlns="http://www.w3.org/2000/svg">
<path d="M112.426 61.6016C115.844 60.0764 115.877 54.9437 112.411 53.3948C102.616 49.0168 98.7663 36.5865 104.227 27.026L104.242 26.9998C106.15 23.6437 103.281 19.4969 99.6322 20.3755C89.2428 22.8679 79.1414 15.1703 78.1992 4.06673C77.8686 0.171902 73.2135 -1.42846 70.7492 1.53307C63.7522 9.93661 51.266 9.94314 44.261 1.54525C41.7958 -1.43856 37.132 0.167444 36.8008 4.06673C35.8586 15.1703 25.7629 22.8587 15.382 20.3788C13.7339 19.9773 12.0121 20.6349 11.0003 22.0603C9.23356 24.5482 10.7815 27.0607 10.7735 27.026C16.2232 36.5684 12.4088 49.0061 2.57369 53.4013C-0.843654 54.9265 -0.877143 60.0592 2.58874 61.6082C7.2574 63.6946 10.8351 67.7906 12.404 72.8452C15.0551 81.3863 10.7491 88.0329 10.7585 88.0031C8.8507 91.3584 11.7183 95.5064 15.3678 94.6274C25.7566 92.1357 35.8583 99.8314 36.8008 110.936C37.1323 114.844 41.7936 116.423 44.2508 113.47C51.2478 105.066 63.734 105.06 70.739 113.458C73.1843 116.418 77.8654 114.866 78.1992 110.936C79.1412 99.8341 89.2377 92.1422 99.618 94.6242C103.265 95.5129 106.158 91.3723 104.242 88.0031C104.205 87.8885 99.9691 81.3087 102.596 72.8452C105.281 64.1941 112.387 61.6307 112.426 61.6016Z" fill="#FFDE17"/>
</svg>
