<?xml version="1.0" encoding="utf-8"?>
<!-- Generator: Adobe Illustrator 21.0.0, SVG Export Plug-In . SVG Version: 6.00 Build 0)  -->
<svg version="1.1" id="Слой_1" xmlns="http://www.w3.org/2000/svg" xmlns:xlink="http://www.w3.org/1999/xlink" x="0px" y="0px"
	 viewBox="0 0 26 24" style="enable-background:new 0 0 26 24;" xml:space="preserve">
<style type="text/css">
	.st0{fill:#ffffff;}
</style>
<path class="st0" d="M25.7,7.7c-0.2-0.3-0.4-0.5-0.7-0.6c0,0,0,0,0,0l-7.6-6.6c-0.4-0.4-1-0.3-1.4,0.1C15.6,1,15.6,1.6,16,2l5.6,4.8
	H4.4L10,2c0.4-0.4,0.5-1,0.1-1.4c-0.4-0.4-1-0.5-1.4-0.1L1.1,7c0,0,0,0,0,0C0.8,7.2,0.5,7.4,0.3,7.7C0,8.3-0.1,9,0.1,9.6l2.4,5.8
	c0,0,0,0,0,0l2.6,6.5c0.4,0.9,1.3,1.4,2.3,1.4H9h0h9.6c1,0,1.8-0.5,2.3-1.5l5-12.3C26.1,9,26,8.3,25.7,7.7z M10.1,14.1
	c0-2.7,0-4.3,0-5.2l5.9,0v5.2H10.1z M16,16.1v5.3h-5.9c0-2,0-3.8,0-5.3H16z M8.1,8.8c0,1.1,0,3,0,5.3H4.1L2,8.8L8.1,8.8z M7,21.1
	l-2-5h3.1c0,1.8,0,3.6,0,5.3H7.4C7.2,21.3,7,21.2,7,21.1z M19.1,21c-0.1,0.2-0.3,0.3-0.5,0.3H18v-5.3h3.1L19.1,21z M21.9,14.1H18
	V8.8l6,0L21.9,14.1z"/>
</svg>
