<?xml version="1.0" encoding="utf-8"?>
<!-- Generator: Adobe Illustrator 21.0.0, SVG Export Plug-In . SVG Version: 6.00 Build 0)  -->
<svg version="1.1" id="Слой_1" xmlns="http://www.w3.org/2000/svg" xmlns:xlink="http://www.w3.org/1999/xlink" x="0px" y="0px"
	 viewBox="0 0 26 24" style="enable-background:new 0 0 26 24;" xml:space="preserve">
<style type="text/css">
	.st0{fill:#ffffff;}
</style>
<path class="st0" d="M12.8,0c-6.6,0-12,5.4-12,12s5.4,12,12,12c6.6,0,12-5.4,12-12S19.4,0,12.8,0z M21.4,7h-1.9
	c-0.4-1.3-0.9-2.5-1.5-3.5C19.5,4.4,20.6,5.6,21.4,7z M18.2,12c0,1-0.1,2-0.3,3h-4.2V9H18C18.1,10,18.2,11,18.2,12z M7.4,12
	c0-1,0.1-2,0.3-3h4.2v6H7.6C7.5,14,7.4,13,7.4,12z M11.8,2.2V7H8.1C8.9,4.6,10.3,2.7,11.8,2.2z M11.8,17v4.8
	c-1.5-0.6-2.9-2.4-3.7-4.8H11.8z M13.8,21.8V17h3.7C16.7,19.4,15.3,21.3,13.8,21.8z M13.8,7V2.2c1.5,0.6,2.9,2.4,3.7,4.8H13.8z
	 M7.5,3.5C6.9,4.5,6.4,5.7,6,7H4.2C5,5.6,6.1,4.4,7.5,3.5z M3.3,9h2.4c-0.1,1-0.2,2-0.2,3s0.1,2,0.2,3H3.3c-0.3-0.9-0.5-2-0.5-3
	S3,9.9,3.3,9z M4.2,17H6c0.4,1.3,0.9,2.5,1.5,3.5C6.1,19.6,5,18.4,4.2,17z M18.1,20.5c0.6-1,1.1-2.2,1.5-3.5h1.9
	C20.6,18.4,19.5,19.6,18.1,20.5z M22.3,15H20c0.1-1,0.2-2,0.2-3s-0.1-2-0.2-3h2.4c0.3,0.9,0.5,2,0.5,3S22.6,14.1,22.3,15z"/>
</svg>
