<svg width="310" height="394" viewBox="0 0 310 394" fill="none" xmlns="http://www.w3.org/2000/svg">
<path d="M21.5851 492.933C47.5825 473.259 79.974 461.589 115.091 461.589C200.744 461.589 270.179 531.016 270.179 616.659C270.179 632.064 267.933 646.945 263.75 660.991C374.033 661.892 489.274 597.91 558.949 485.155C565.135 475.143 570.817 464.982 576 454.709C541.091 479.348 499.365 497.211 453.137 505.408C303.458 531.952 163.257 447.132 139.989 315.956C116.721 184.781 219.198 56.9253 368.877 30.381C404.785 24.0133 440.148 24.0543 473.481 29.608C336.644 -42.2314 154.241 20.544 58.2757 175.845C-5.51769 279.083 -15.6509 398.18 21.5851 492.933Z" fill="url(#paint0_linear)" fill-opacity="0.14"/>
<defs>
<linearGradient id="paint0_linear" x1="75.5" y1="387.5" x2="244.5" y2="45.5" gradientUnits="userSpaceOnUse">
<stop stop-color="#222E2E"/>
<stop offset="1" stop-color="#222E2E" stop-opacity="0.21"/>
</linearGradient>
</defs>
</svg>
