<svg xmlns="http://www.w3.org/2000/svg" width="32" height="32" viewBox="0 0 32 32"><g><g><path fill="#e67cb7" d="M0 16C0 7.177 7.177 0 16 0c8.822 0 16 7.177 16 16 0 8.822-7.178 16-16 16-8.823 0-16-7.178-16-16zm2.286 0c0 7.562 6.152 13.714 13.714 13.714S29.714 23.562 29.714 16 23.562 2.285 16 2.285 2.286 8.438 2.286 16zm18.62 6.522L16 17.616l-4.906 4.906a1.139 1.139 0 0 1-1.616 0 1.142 1.142 0 0 1 0-1.616L14.384 16l-4.906-4.906a1.142 1.142 0 1 1 1.616-1.616L16 14.384l4.906-4.906a1.142 1.142 0 1 1 1.616 1.616L17.616 16l4.906 4.906a1.142 1.142 0 1 1-1.616 1.616z"/></g></g></svg>