<svg 
 xmlns="http://www.w3.org/2000/svg"
 xmlns:xlink="http://www.w3.org/1999/xlink"
 width="55px" height="55px">
<path fill-rule="evenodd"  fill="rgb(99, 45, 86)"
 d="M27.499,54.990 C12.344,54.990 0.011,42.658 0.011,27.503 C0.011,12.348 12.344,0.015 27.499,0.015 C42.654,0.015 54.986,12.348 54.986,27.503 C54.986,42.658 42.654,54.990 27.499,54.990 ZM27.499,0.706 C12.732,0.706 0.701,12.724 0.701,27.503 C0.701,42.281 12.720,54.300 27.499,54.300 C42.277,54.300 54.296,42.281 54.296,27.503 C54.296,12.724 42.277,0.706 27.499,0.706 ZM27.499,53.836 C13.096,53.836 1.379,42.118 1.379,27.716 C1.379,13.301 13.096,1.583 27.499,1.583 C41.901,1.583 53.631,13.301 53.631,27.716 C53.631,42.118 41.913,53.836 27.499,53.836 ZM27.499,2.274 C13.473,2.274 2.069,13.690 2.069,27.716 C2.069,33.866 4.265,39.511 7.912,43.912 C8.793,42.627 8.752,41.248 8.342,37.878 C7.639,32.120 8.316,24.856 8.316,22.083 C8.316,16.199 17.412,14.756 17.801,15.283 L17.813,15.283 C11.729,17.554 12.155,21.694 12.155,21.694 C12.155,21.694 12.155,35.758 12.105,39.208 C12.057,42.503 9.381,43.793 8.014,44.024 C12.684,49.594 19.684,53.146 27.499,53.146 C41.524,53.146 52.928,41.742 52.928,27.716 C52.928,13.690 41.524,2.274 27.499,2.274 ZM42.754,37.840 C37.246,37.865 36.030,34.503 35.628,33.337 C35.227,32.169 34.900,22.573 34.900,22.573 C34.900,22.573 34.010,24.943 31.915,24.981 C30.948,24.931 29.518,23.764 29.518,23.764 L29.669,35.708 C30.083,35.758 37.673,36.222 37.773,43.448 C37.861,50.661 28.740,51.904 27.775,52.029 C26.809,52.142 13.636,52.193 13.899,32.508 C14.326,24.592 17.650,19.976 20.711,17.391 C20.561,16.952 20.398,16.513 20.197,16.048 C15.455,8.697 7.451,14.894 6.585,22.371 C6.322,22.836 5.782,22.447 5.632,21.945 C5.481,21.443 6.560,11.532 16.019,11.658 C19.432,11.909 21.527,13.653 22.631,15.973 C24.550,14.756 26.018,14.355 26.018,14.355 C26.018,14.355 26.457,7.505 35.151,6.652 C36.770,6.652 37.535,6.652 38.827,7.054 C44.912,8.973 41.725,13.527 41.487,13.866 C41.248,14.204 40.885,14.305 40.947,13.941 C40.998,13.565 41.964,11.758 41.487,10.253 C40.872,8.308 38.238,7.831 38.238,7.831 C38.238,7.831 37.058,28.657 38.225,32.960 C38.601,34.453 39.994,36.460 44.084,35.670 C48.173,34.880 49.252,31.655 47.421,28.594 C45.049,25.081 40.671,28.469 40.671,28.469 C40.671,28.469 39.505,29.083 39.429,28.168 C40.383,26.060 49.077,24.166 49.365,31.756 L49.378,31.794 C49.453,33.537 49.202,37.815 42.754,37.840 ZM34.097,20.904 C35.628,16.111 29.518,15.183 29.518,15.183 C29.606,15.271 29.506,21.795 29.518,21.795 C29.531,21.795 32.868,25.219 34.097,20.904 ZM25.792,42.507 C25.454,42.558 26.595,37.928 26.043,38.066 C25.491,38.204 22.593,40.952 24.738,45.154 C26.043,47.161 30.133,49.207 30.948,42.683 C34.511,45.506 27.674,54.074 22.242,45.932 C21.702,44.928 18.591,39.597 25.780,36.034 C25.792,31.304 25.780,15.183 25.780,15.183 C25.780,15.183 24.563,15.635 22.944,16.764 C24.764,21.820 22.455,28.883 18.842,29.761 C17.763,30.112 17.186,29.698 17.675,29.008 C18.115,28.394 22.606,24.931 20.975,18.357 C18.240,20.929 15.279,25.282 14.965,32.295 C14.803,34.403 15.016,49.256 26.470,50.411 C27.323,50.586 35.076,50.272 34.624,43.624 C34.179,37.075 29.680,36.892 29.543,36.887 C29.547,37.029 29.637,41.852 25.792,42.507 ZM34.963,7.844 C30.798,8.346 29.732,9.838 29.543,10.993 C29.355,12.134 29.531,12.549 29.518,14.255 C32.492,14.142 34.963,17.228 34.963,17.228 L34.963,7.844 Z"/>
</svg>