<svg 
 xmlns="http://www.w3.org/2000/svg"
 xmlns:xlink="http://www.w3.org/1999/xlink"
 width="52px" height="58px">
<path fill-rule="evenodd"  fill="rgb(99, 45, 86)"
 d="M26.872,27.056 C26.873,27.554 26.461,27.958 25.952,27.958 C25.443,27.959 25.030,27.556 25.029,27.058 L25.029,27.056 C25.030,26.558 25.443,26.155 25.952,26.155 C26.460,26.156 26.872,26.559 26.872,27.056 ZM23.800,27.056 C23.800,28.301 24.832,29.311 26.104,29.311 C27.377,29.311 28.409,28.301 28.409,27.056 C28.409,25.811 27.377,24.802 26.104,24.802 C24.832,24.802 23.800,25.811 23.800,27.056 ZM26.104,43.587 C26.104,42.836 26.258,42.385 26.565,42.385 C26.565,42.385 26.872,42.836 26.872,43.587 L26.872,53.957 C26.872,54.107 26.872,55.009 26.565,55.009 C26.258,55.009 26.104,54.408 26.104,53.957 L26.104,43.437 L26.104,43.587 ZM26.565,56.362 C27.026,56.362 28.409,56.211 28.409,53.957 L28.409,43.437 C28.409,41.183 27.026,41.033 26.565,41.033 C25.644,41.033 25.029,42.085 24.876,43.587 L24.876,53.957 C24.876,56.061 26.104,56.362 26.719,56.362 L26.565,56.362 ZM37.472,43.587 C37.472,42.836 37.779,42.385 37.933,42.385 L38.394,43.587 L38.394,53.957 C38.394,54.107 38.394,55.009 37.933,55.009 C37.626,55.009 37.626,54.408 37.472,53.957 L37.472,43.437 L37.472,43.587 ZM37.933,56.362 C38.394,56.362 39.776,56.211 39.776,53.957 L39.776,43.437 C39.776,41.333 38.240,41.183 37.933,41.183 C36.857,41.033 36.243,42.085 36.089,43.587 L36.089,53.957 C36.089,56.061 37.472,56.362 37.933,56.362 ZM15.197,42.836 C15.351,43.287 15.812,43.587 15.812,44.790 L15.812,49.298 C15.812,50.050 15.505,50.651 15.351,50.801 L15.351,42.986 L15.197,42.836 ZM17.195,49.298 L17.195,44.790 C17.195,41.633 15.351,41.333 14.430,41.333 L13.815,41.333 L13.815,52.605 L14.583,52.605 C16.734,52.303 16.888,50.050 17.195,49.298 ZM11.511,41.033 L16.273,41.033 C18.577,41.183 19.960,43.137 19.960,46.743 C19.960,49.449 18.270,52.755 14.583,52.755 L13.815,53.055 L13.815,56.512 L11.511,56.512 L11.511,41.033 ZM26.719,40.732 C29.484,40.732 31.020,44.640 31.020,48.547 C31.020,51.703 30.098,54.558 28.716,55.760 C28.196,56.304 27.479,56.628 26.719,56.662 C23.646,56.662 22.264,52.605 22.264,48.547 C22.264,44.640 23.800,40.732 26.719,40.732 ZM37.933,40.732 C40.698,40.732 42.234,44.640 42.234,48.547 C42.234,51.703 41.466,54.558 40.083,55.760 C39.526,56.341 38.747,56.668 37.933,56.662 C35.014,56.662 33.785,52.605 33.785,48.547 C33.785,44.640 35.321,40.732 38.086,40.732 L37.933,40.732 ZM46.075,19.241 L41.466,15.785 C35.782,11.276 32.710,9.022 26.719,0.756 L25.951,0.005 L25.490,0.756 C19.345,9.022 16.273,11.276 10.436,15.785 L5.827,19.241 C1.615,22.310 -0.561,27.375 0.143,32.466 C1.032,37.653 4.653,41.995 9.667,43.888 L10.128,42.986 L10.128,57.714 L15.351,57.714 L15.351,54.107 C18.577,53.657 20.420,51.101 20.882,48.547 C20.882,54.107 23.186,58.014 26.565,58.014 C27.712,58.031 28.818,57.598 29.637,56.812 C31.231,55.010 32.152,52.731 32.249,50.351 C32.710,54.859 34.860,57.864 37.933,58.014 C39.080,58.031 40.186,57.598 41.005,56.812 C42.695,55.159 43.617,52.154 43.617,48.547 C43.617,43.137 41.466,39.379 37.933,39.379 C34.860,39.379 32.710,42.385 32.249,47.044 C31.942,42.536 29.637,39.229 26.719,39.379 C23.800,39.379 21.803,41.934 21.189,45.992 C21.035,42.235 19.345,39.981 16.273,39.680 L10.128,39.680 L10.128,42.686 C5.552,40.925 2.277,36.920 1.526,32.165 C0.974,27.580 2.965,23.054 6.749,20.293 L11.357,16.837 C16.915,12.908 21.747,8.080 25.644,2.559 L25.336,4.813 L21.496,21.045 L20.574,19.542 L19.345,17.137 L19.345,34.119 L17.502,32.165 L16.273,30.663 L16.273,39.379 L17.809,39.379 L17.809,34.420 L19.345,36.674 L20.728,38.177 L20.728,22.247 L21.189,23.299 L22.110,24.802 L22.571,22.998 L25.951,7.970 L29.330,22.998 L29.791,24.652 L30.713,23.148 L31.174,22.247 L31.174,38.177 L32.403,36.674 L34.246,34.420 L34.246,39.229 L35.629,39.229 L35.629,30.513 L34.400,32.015 L32.556,34.270 L32.556,17.288 L31.327,19.391 L30.406,21.045 L26.565,4.813 L26.104,2.409 C30.079,8.008 35.017,12.890 40.698,16.837 L45.306,20.293 C49.147,23.299 50.990,27.657 50.529,32.015 C49.867,36.668 46.785,40.650 42.388,42.536 L43.002,43.587 C47.797,41.552 51.171,37.228 51.912,32.165 C52.434,27.152 50.216,22.239 46.075,19.241 Z"/>
</svg>