<svg 
 xmlns="http://www.w3.org/2000/svg"
 xmlns:xlink="http://www.w3.org/1999/xlink"
 width="9px" height="5px">
<path fill-rule="evenodd"  fill="rgb(242, 242, 242)"
 d="M4.851,4.863 L8.856,1.075 C8.949,0.988 9.000,0.871 9.000,0.747 C9.000,0.622 8.949,0.505 8.856,0.417 L8.561,0.138 C8.369,-0.044 8.057,-0.044 7.865,0.138 L4.502,3.318 L1.135,0.135 C1.042,0.048 0.918,-0.001 0.787,-0.001 C0.655,-0.001 0.531,0.048 0.438,0.135 L0.143,0.414 C0.051,0.501 -0.000,0.618 -0.000,0.743 C-0.000,0.868 0.051,0.984 0.143,1.072 L4.152,4.863 C4.245,4.951 4.369,4.999 4.501,4.999 C4.634,4.999 4.758,4.951 4.851,4.863 Z"/>
</svg>