<svg 
 xmlns="http://www.w3.org/2000/svg"
 xmlns:xlink="http://www.w3.org/1999/xlink"
 width="11px" height="10px">
<path fill-rule="evenodd"  fill="rgb(232, 232, 232)"
 d="M6.548,5.000 L9.939,1.609 C10.020,1.528 10.020,1.396 9.939,1.315 L8.686,0.062 C8.647,0.022 8.594,0.001 8.538,0.001 C8.483,0.001 8.430,0.022 8.391,0.062 L5.000,3.452 L1.609,0.062 C1.530,-0.017 1.392,-0.017 1.314,0.062 L0.061,1.315 C-0.021,1.396 -0.021,1.528 0.061,1.609 L3.452,5.000 L0.061,8.390 C-0.021,8.472 -0.021,8.603 0.061,8.685 L1.314,9.938 C1.353,9.977 1.406,9.999 1.461,9.999 C1.516,9.999 1.569,9.977 1.609,9.938 L5.000,6.547 L8.391,9.938 C8.430,9.977 8.483,9.999 8.538,9.999 C8.594,9.999 8.647,9.977 8.686,9.938 L9.939,8.685 C10.020,8.604 10.020,8.472 9.939,8.390 L6.548,5.000 Z"/>
</svg>