<svg 
 xmlns="http://www.w3.org/2000/svg"
 xmlns:xlink="http://www.w3.org/1999/xlink"
 width="11px" height="20px">
<path fill-rule="evenodd"  fill="rgb(59, 89, 152)"
 d="M10.584,0.002 L7.946,-0.001 C4.982,-0.001 3.067,1.930 3.067,4.920 L3.067,7.190 L0.414,7.190 C0.185,7.190 -0.001,7.372 -0.001,7.598 L-0.001,10.886 C-0.001,11.112 0.185,11.293 0.414,11.293 L3.067,11.293 L3.067,19.591 C3.067,19.816 3.252,19.999 3.482,19.999 L6.943,19.999 C7.172,19.999 7.357,19.816 7.357,19.591 L7.357,11.293 L10.459,11.293 C10.688,11.293 10.874,11.112 10.874,10.886 L10.875,7.598 C10.875,7.490 10.831,7.386 10.754,7.309 C10.676,7.233 10.571,7.190 10.460,7.190 L7.358,7.190 L7.358,5.266 C7.358,4.341 7.582,3.872 8.807,3.872 L10.584,3.871 C10.813,3.871 10.999,3.689 10.999,3.463 L10.999,0.410 C10.999,0.185 10.814,0.002 10.584,0.002 Z"/>
</svg>