<svg 
 xmlns="http://www.w3.org/2000/svg"
 xmlns:xlink="http://www.w3.org/1999/xlink"
 width="16px" height="16px">
<defs>
<linearGradient id="PSgrad_0" x1="0%" x2="70.711%" y1="70.711%" y2="0%">
  <stop offset="0%" stop-color="rgb(246,203,0)" stop-opacity="1" />
  <stop offset="36%" stop-color="rgb(247,6,16)" stop-opacity="1" />
  <stop offset="82%" stop-color="rgb(151,77,198)" stop-opacity="1" />
  <stop offset="100%" stop-color="rgb(124,57,176)" stop-opacity="1" />
</linearGradient>

</defs>
<path fill-rule="evenodd"  fill="url(#PSgrad_0)"
 d="M13.066,15.998 L2.933,15.998 C1.315,15.998 -0.000,14.682 -0.000,13.066 L-0.000,2.932 C-0.000,1.314 1.315,-0.002 2.933,-0.002 L13.066,-0.002 C14.683,-0.002 15.999,1.314 15.999,2.932 L15.999,13.066 C15.999,14.682 14.683,15.998 13.066,15.998 ZM7.999,2.731 C5.095,2.731 2.732,5.095 2.732,7.998 C2.732,10.902 5.095,13.266 7.999,13.266 C10.903,13.266 13.266,10.902 13.266,7.998 C13.266,5.095 10.903,2.731 7.999,2.731 ZM13.436,1.327 C12.748,1.327 12.189,1.887 12.189,2.575 C12.189,3.261 12.748,3.820 13.436,3.820 C14.123,3.820 14.682,3.261 14.682,2.575 C14.682,1.887 14.123,1.327 13.436,1.327 ZM7.999,11.041 C6.322,11.041 4.957,9.676 4.957,7.998 C4.957,6.322 6.322,4.957 7.999,4.957 C9.676,4.957 11.040,6.322 11.040,7.998 C11.040,9.676 9.676,11.041 7.999,11.041 Z"/>
</svg>