<svg 
 xmlns="http://www.w3.org/2000/svg"
 xmlns:xlink="http://www.w3.org/1999/xlink"
 width="27px" height="17px">
<path fill-rule="evenodd"  fill="rgb(99, 45, 86)"
 d="M25.258,15.799 C24.817,16.560 24.053,17.000 23.224,17.000 C21.680,17.000 20.969,15.903 20.848,14.849 C20.753,14.024 20.526,13.233 20.173,12.497 C19.492,11.076 17.998,11.040 17.935,11.039 C15.961,11.039 14.352,9.394 14.352,7.372 L14.352,3.665 C14.352,1.643 15.961,-0.003 17.938,-0.003 L20.968,-0.003 C23.463,-0.003 25.665,1.706 26.322,4.155 C27.809,9.685 26.564,13.540 25.258,15.799 ZM24.467,4.676 C24.039,3.079 22.599,1.964 20.968,1.964 L17.938,1.964 C17.022,1.964 16.276,2.727 16.276,3.665 L16.276,7.372 C16.276,8.309 17.021,9.071 17.938,9.071 C17.939,9.071 17.941,9.071 17.942,9.071 C18.103,9.071 20.693,9.113 21.900,11.630 C22.350,12.566 22.638,13.572 22.759,14.620 C22.791,14.907 22.994,14.994 23.112,15.019 C23.208,15.041 23.449,15.060 23.602,14.798 C25.226,11.988 25.517,8.582 24.467,4.676 ZM8.871,17.000 C7.238,17.000 6.616,15.903 6.495,14.849 C6.401,14.024 6.173,13.233 5.821,12.497 C5.129,11.053 3.618,11.039 3.591,11.039 L3.590,11.039 C1.608,11.039 -0.000,9.394 -0.000,7.372 L-0.000,3.665 C-0.000,1.643 1.608,-0.003 3.585,-0.003 L6.615,-0.003 C9.110,-0.003 11.312,1.706 11.970,4.155 C13.455,9.685 12.211,13.540 10.905,15.799 C10.464,16.560 9.700,17.000 8.871,17.000 ZM10.115,4.676 C9.686,3.079 8.246,1.964 6.615,1.964 L3.585,1.964 C2.669,1.964 1.923,2.727 1.923,3.665 L1.923,7.372 C1.923,8.309 2.669,9.071 3.585,9.071 C3.587,9.071 3.588,9.071 3.589,9.071 C3.750,9.071 6.341,9.113 7.547,11.630 C7.997,12.567 8.285,13.572 8.405,14.620 C8.438,14.907 8.642,14.994 8.760,15.019 C8.856,15.041 9.096,15.060 9.249,14.798 C10.873,11.988 11.164,8.582 10.115,4.676 Z"/>
</svg>