<svg 
 xmlns="http://www.w3.org/2000/svg"
 xmlns:xlink="http://www.w3.org/1999/xlink"
 width="16px" height="16px">
<path fill-rule="evenodd"  fill="rgb(52, 52, 61)"
 d="M2.649,0.470 C4.359,0.019 6.147,0.125 7.897,0.094 C7.793,1.747 7.891,3.453 7.344,5.041 C6.922,6.254 5.870,7.194 4.621,7.487 C3.137,7.841 1.600,7.870 0.082,7.880 C0.131,6.033 -0.001,4.125 0.579,2.341 C0.866,1.390 1.702,0.703 2.649,0.470 L2.649,0.470 ZM8.117,0.098 C9.941,0.127 11.820,-0.000 13.586,0.545 C14.489,0.809 15.206,1.535 15.466,2.438 C15.998,4.197 15.890,6.064 15.911,7.880 C14.392,7.870 12.852,7.844 11.371,7.482 C10.092,7.177 9.012,6.189 8.615,4.934 C8.122,3.371 8.207,1.713 8.117,0.098 L8.117,0.098 ZM0.082,8.118 C1.433,8.125 2.790,8.190 4.124,8.407 C5.441,8.609 6.717,9.418 7.239,10.679 C7.931,12.332 7.758,14.161 7.902,15.906 C6.323,15.888 4.725,15.943 3.164,15.654 C2.276,15.484 1.336,15.095 0.870,14.274 C0.266,13.208 0.198,11.950 0.128,10.753 C0.118,9.874 0.062,8.997 0.082,8.118 L0.082,8.118 ZM11.598,8.464 C13.016,8.181 14.469,8.135 15.911,8.120 C15.890,9.936 16.000,11.803 15.466,13.562 C15.205,14.462 14.490,15.185 13.592,15.453 C11.822,15.996 9.941,15.872 8.113,15.902 C8.198,14.248 8.113,12.542 8.654,10.954 C9.091,9.666 10.275,8.720 11.598,8.464 Z"/>
</svg>