<svg 
 xmlns="http://www.w3.org/2000/svg"
 xmlns:xlink="http://www.w3.org/1999/xlink"
 width="22px" height="10px">
<path fill-rule="evenodd"  fill="rgb(101, 45, 83)"
 d="M21.344,4.058 L3.313,4.058 L5.838,1.520 C5.961,1.397 6.029,1.229 6.029,1.052 C6.029,0.876 5.961,0.709 5.838,0.585 L5.445,0.191 C5.321,0.067 5.157,-0.001 4.982,-0.001 C4.806,-0.001 4.641,0.066 4.518,0.191 L0.191,4.532 C0.066,4.656 -0.001,4.822 -0.001,4.998 C-0.001,5.176 0.066,5.341 0.191,5.465 L4.518,9.807 C4.641,9.931 4.806,9.998 4.982,9.998 C5.157,9.998 5.321,9.930 5.445,9.807 L5.838,9.412 C5.961,9.289 6.029,9.123 6.029,8.947 C6.029,8.771 5.961,8.615 5.838,8.491 L3.285,5.938 L21.334,5.938 C21.696,5.938 21.999,5.626 21.999,5.263 L21.999,4.706 C21.999,4.343 21.687,4.054 21.325,4.054 "/>
</svg>