<svg 
 xmlns="http://www.w3.org/2000/svg"
 xmlns:xlink="http://www.w3.org/1999/xlink"
 width="6px" height="11px">
<path fill-rule="evenodd"  fill="rgb(255, 255, 255)"
 d="M5.837,5.070 L1.292,0.175 C1.187,0.062 1.046,-0.000 0.897,-0.000 C0.747,-0.000 0.607,0.062 0.501,0.175 L0.167,0.536 C-0.051,0.771 -0.051,1.152 0.167,1.387 L3.983,5.497 L0.163,9.613 C0.057,9.726 -0.000,9.877 -0.000,10.038 C-0.000,10.199 0.057,10.350 0.163,10.464 L0.497,10.824 C0.602,10.937 0.743,11.000 0.892,11.000 C1.042,11.000 1.182,10.937 1.287,10.824 L5.837,5.924 C5.942,5.811 6.000,5.659 5.999,5.498 C6.000,5.336 5.942,5.184 5.837,5.070 Z"/>
</svg>