<svg 
 xmlns="http://www.w3.org/2000/svg"
 xmlns:xlink="http://www.w3.org/1999/xlink"
 width="23px" height="23px">
<path fill-rule="evenodd"  fill="rgb(96, 96, 96)"
 d="M22.680,7.307 L11.898,0.119 C11.657,-0.042 11.342,-0.042 11.101,0.119 L0.320,7.307 C0.120,7.440 -0.000,7.664 -0.000,7.905 L-0.000,20.842 C-0.000,22.031 0.967,22.998 2.156,22.998 L20.843,22.998 C22.032,22.998 23.000,22.031 23.000,20.842 L23.000,7.905 C23.000,7.664 22.880,7.440 22.680,7.307 L22.680,7.307 ZM11.500,1.581 L20.985,7.905 L11.500,14.228 L2.014,7.905 L11.500,1.581 L11.500,1.581 ZM20.843,21.561 L2.156,21.561 C1.760,21.561 1.437,21.238 1.437,20.842 L1.437,9.247 L11.101,15.690 C11.222,15.771 11.361,15.811 11.500,15.811 C11.639,15.811 11.778,15.771 11.898,15.690 L21.562,9.247 L21.562,20.842 C21.562,21.238 21.240,21.561 20.843,21.561 L20.843,21.561 Z"/>
</svg>