<svg xmlns="http://www.w3.org/2000/svg" width="44" height="44" viewBox="0 0 44 44"><g><g opacity=".56"><path fill="#fff" d="M1.356 36.107l11.232-11.23 2.265 2.265 2.525-2.524 1.061-1.065c4.178 5.213 11.684 6.29 17.16 2.464 5.476-3.828 7.04-11.247 3.577-16.959S28.41 1.302 22.483 4.385c-5.927 3.083-8.444 10.235-5.752 16.349l-2.124 2.122c-3.743-7.09-1.494-15.861 5.198-20.277C26.497-1.838 35.448-.46 40.499 5.767c5.051 6.226 4.554 15.268-1.15 20.902-5.704 5.635-14.754 6.023-20.92.899l-1.578 1.577 2.265 2.265L7.884 42.642a4.617 4.617 0 0 1-6.529-6.527zm2.001 4.528a1.789 1.789 0 0 0 2.525 0l9.231-9.234-2.525-2.524-9.23 9.233a1.783 1.783 0 0 0 0 2.523z"/></g></g></svg>