<svg xmlns="http://www.w3.org/2000/svg" width="42" height="52" viewBox="0 0 42 52"><g><g opacity=".56"><path fill="#e8e8e8" d="M21 6.877a7 7 0 0 1 6.488 4.352 6.984 6.984 0 0 1-1.591 7.641v8.438l-4.898-2.053-4.897 2.052V18.87a6.984 6.984 0 0 1-1.592-7.641A7 7 0 0 1 21 6.877zm1.537 13.82a6.836 6.836 0 0 1-3.075 0v1.564L21 21.617l1.538.645zm-1.538-3.179a3.652 3.652 0 0 0 3.65-3.645 3.646 3.646 0 0 0-3.65-3.642 3.646 3.646 0 0 0-3.649 3.642A3.648 3.648 0 0 0 21 17.518zM9.09 31.598h23.82v3.356H9.089zm32.91-31.6v52H0V34.955h3.36v13.69h35.28V3.354H3.36v28.245H0v-31.6zM9.09 40.09h23.82v3.355H9.089z"/></g></g></svg>