<svg 
 xmlns="http://www.w3.org/2000/svg"
 xmlns:xlink="http://www.w3.org/1999/xlink"
 width="14px" height="14px">
<path fill-rule="evenodd"  fill="rgb(32, 108, 125)"
 d="M13.828,13.005 L10.462,9.639 C11.297,8.621 11.799,7.318 11.799,5.899 C11.799,2.642 9.156,-0.001 5.900,-0.001 C2.640,-0.001 -0.000,2.642 -0.000,5.899 C-0.000,9.156 2.640,11.798 5.900,11.798 C7.320,11.798 8.619,11.299 9.636,10.465 L13.002,13.827 C13.231,14.056 13.599,14.056 13.828,13.827 C14.057,13.602 14.057,13.230 13.828,13.005 ZM5.900,10.624 C3.291,10.624 1.171,8.505 1.171,5.899 C1.171,3.293 3.291,1.171 5.900,1.171 C8.505,1.171 10.628,3.293 10.628,5.899 C10.628,8.505 8.505,10.624 5.900,10.624 Z"/>
</svg>