<svg 
 xmlns="http://www.w3.org/2000/svg"
 xmlns:xlink="http://www.w3.org/1999/xlink"
 width="21px" height="21px">
<path fill-rule="evenodd"  fill="rgb(96, 96, 96)"
 d="M20.679,7.965 C20.480,7.848 20.233,7.844 20.029,7.954 L15.750,10.288 L15.750,8.530 C15.750,8.167 15.456,7.873 15.093,7.873 L14.361,7.873 C15.215,7.039 15.750,5.879 15.750,4.592 C15.750,2.060 13.689,-0.002 11.156,-0.002 C9.279,-0.002 7.667,1.132 6.955,2.749 C6.232,1.879 5.155,1.311 3.937,1.311 C1.766,1.311 -0.000,3.077 -0.000,5.249 C-0.000,6.342 0.449,7.331 1.171,8.045 C0.483,8.353 -0.000,9.041 -0.000,9.843 L-0.000,19.029 C-0.000,20.115 0.883,20.999 1.968,20.999 L15.093,20.999 C15.456,20.999 15.750,20.705 15.750,20.342 L15.750,18.585 L20.029,20.918 C20.128,20.972 20.235,20.999 20.343,20.999 C20.460,20.999 20.575,20.968 20.679,20.907 C20.877,20.788 21.000,20.574 21.000,20.342 L21.000,8.530 C21.000,8.299 20.877,8.084 20.679,7.965 L20.679,7.965 ZM11.156,1.311 C12.965,1.311 14.437,2.784 14.437,4.592 C14.437,6.401 12.965,7.873 11.156,7.873 C9.347,7.873 7.874,6.401 7.874,4.592 C7.874,2.784 9.347,1.311 11.156,1.311 L11.156,1.311 ZM7.951,7.873 L6.851,7.873 C7.045,7.659 7.211,7.421 7.354,7.167 C7.529,7.423 7.730,7.659 7.951,7.873 L7.951,7.873 ZM3.937,2.624 C5.385,2.624 6.562,3.801 6.562,5.249 C6.562,6.696 5.385,7.873 3.937,7.873 C2.490,7.873 1.312,6.696 1.312,5.249 C1.312,3.801 2.490,2.624 3.937,2.624 L3.937,2.624 ZM19.687,19.237 L15.408,16.903 C15.204,16.793 14.957,16.796 14.758,16.914 C14.560,17.033 14.437,17.248 14.437,17.479 L14.437,19.686 L1.968,19.686 C1.607,19.686 1.312,19.392 1.312,19.029 L1.312,9.843 C1.312,9.480 1.607,9.187 1.968,9.187 L14.437,9.187 L14.437,11.393 C14.437,11.624 14.560,11.839 14.758,11.958 C14.958,12.075 15.205,12.080 15.408,11.969 L19.687,9.635 L19.687,19.237 Z"/>
</svg>