<svg 
 xmlns="http://www.w3.org/2000/svg"
 xmlns:xlink="http://www.w3.org/1999/xlink"
 width="20px" height="11px">
<path fill-rule="evenodd"  fill="rgb(74, 118, 168)"
 d="M19.820,9.810 C19.767,9.723 19.434,9.027 17.834,7.595 C16.159,6.096 16.384,6.340 18.401,3.747 C19.630,2.169 20.122,1.205 19.968,0.792 C19.821,0.400 18.918,0.503 18.918,0.503 L15.912,0.520 C15.912,0.520 15.690,0.491 15.524,0.587 C15.362,0.680 15.259,0.898 15.259,0.898 C15.259,0.898 14.782,2.119 14.148,3.158 C12.808,5.350 12.272,5.466 12.054,5.330 C11.545,5.013 11.673,4.055 11.673,3.375 C11.673,1.251 12.007,0.365 11.021,0.136 C10.694,0.060 10.454,0.009 9.618,0.000 C8.545,-0.010 7.636,0.005 7.122,0.247 C6.780,0.409 6.516,0.769 6.677,0.789 C6.876,0.814 7.326,0.906 7.565,1.219 C7.874,1.623 7.863,2.532 7.863,2.532 C7.863,2.532 8.040,5.032 7.449,5.342 C7.042,5.556 6.486,5.121 5.292,3.132 C4.681,2.114 4.218,0.987 4.218,0.987 C4.218,0.987 4.130,0.777 3.971,0.665 C3.778,0.529 3.508,0.485 3.508,0.485 L0.651,0.502 C0.651,0.502 0.222,0.514 0.065,0.694 C-0.075,0.854 0.054,1.185 0.054,1.185 C0.054,1.185 2.291,6.230 4.823,8.773 C7.147,11.105 9.785,10.952 9.785,10.952 L10.980,10.952 C10.980,10.952 11.341,10.914 11.525,10.722 C11.695,10.547 11.689,10.217 11.689,10.217 C11.689,10.217 11.665,8.670 12.410,8.443 C13.144,8.218 14.086,9.937 15.085,10.598 C15.840,11.098 16.414,10.988 16.414,10.988 L19.085,10.952 C19.085,10.952 20.483,10.870 19.820,9.810 Z"/>
</svg>