<svg 
 xmlns="http://www.w3.org/2000/svg"
 xmlns:xlink="http://www.w3.org/1999/xlink"
 width="18px" height="13px">
<path fill-rule="evenodd"  fill="rgb(255, 0, 0)"
 d="M17.298,1.114 C16.648,0.322 15.448,-0.001 13.157,-0.001 L4.841,-0.001 C2.497,-0.001 1.278,0.343 0.630,1.187 C-0.001,2.009 -0.001,3.222 -0.001,4.899 L-0.001,8.098 C-0.001,11.348 0.748,12.999 4.841,12.999 L13.157,12.999 C15.144,12.999 16.245,12.713 16.957,12.014 C17.688,11.296 18.000,10.125 18.000,8.098 L18.000,4.899 C18.000,3.130 17.950,1.910 17.298,1.114 ZM11.555,6.940 L7.779,8.966 C7.694,9.011 7.602,9.033 7.510,9.033 C7.405,9.033 7.301,9.005 7.209,8.947 C7.035,8.839 6.929,8.646 6.929,8.438 L6.929,4.399 C6.929,4.191 7.035,3.998 7.209,3.890 C7.382,3.782 7.598,3.774 7.778,3.870 L11.554,5.883 C11.746,5.985 11.867,6.189 11.867,6.411 C11.867,6.633 11.747,6.837 11.555,6.940 Z"/>
</svg>