<svg width="416" height="419" viewBox="0 0 416 419" fill="none" xmlns="http://www.w3.org/2000/svg">
<g clip-path="url(#clip0_1911_6479)">
<path d="M461.85 482.265C608.811 482.265 727.947 363.129 727.947 216.168C727.947 69.2062 608.811 -49.9297 461.85 -49.9297C314.888 -49.9297 195.752 69.2062 195.752 216.168C195.752 363.129 314.888 482.265 461.85 482.265Z" fill="url(#paint0_linear_1911_6479)"/>
<path d="M369.647 219.004H268.153V373.439H369.647V219.004Z" fill="url(#paint1_linear_1911_6479)" stroke="#264F85" stroke-width="0.41593" stroke-miterlimit="10"/>
<path d="M292.871 278.086C305.706 274.045 293.552 261.198 286.924 270.569C289.667 264.778 288.927 258.801 283.742 258.074C283.5 258.039 283.269 258.016 283.05 257.993C276.029 257.404 274.7 263.756 276.242 269.945C264.377 252.335 253.955 281.609 271.45 281.834C254.093 286.291 264.198 306.592 277.328 292.839C276.294 297.244 279.776 302.204 284.089 302.47C289.106 303.336 295.129 294.236 289.857 291.164C301.763 296.165 306.336 274.824 292.871 278.086Z" fill="url(#paint2_linear_1911_6479)"/>
<path d="M289.828 152.124C289.88 160.312 289.794 168.505 289.568 176.687C289.378 183.546 289.06 190.533 286.676 196.965C284.291 203.397 282.051 206.382 275.48 208.339C275.48 208.339 287.946 264.422 317.272 262.851C345.252 261.35 344.311 209.188 344.311 209.188C344.311 209.188 327.128 203.813 332.717 116.453C330.044 118.359 327.982 122.146 327.982 122.146L323.871 128.792C314.939 138.325 304.257 146.05 292.403 151.547L289.597 152.846" fill="#FEE2CC"/>
<path d="M290.105 152.124C290.088 161.322 290.267 174.054 289.915 183.113C289.655 188.315 288.771 193.552 286.733 198.373C285.746 200.77 284.516 203.206 282.547 205.054C280.613 206.901 278.072 207.9 275.555 208.599L275.745 208.276C280.03 225.095 287.669 246.332 301.595 257.389C309.61 263.763 321.388 264.733 329.322 257.706C333.698 253.919 336.533 248.67 338.572 243.318C342.561 232.451 343.936 220.713 344.034 209.188L344.224 209.448C343.924 209.344 343.739 209.188 343.503 209.055C342.896 208.639 342.296 208.05 341.811 207.49C339.83 205.215 338.589 202.363 337.469 199.592C335.465 193.968 334.183 188.021 333.375 182.114C332.238 174.469 331.753 165.999 331.47 158.268C331.245 149.491 331.395 140.137 331.672 131.361C331.793 129.017 332.307 118.895 332.434 116.436L332.867 116.678C331.868 117.406 331.002 118.324 330.223 119.305C328.75 121.176 325.459 126.823 324.102 128.936C314.489 139.277 302.629 147.442 289.713 153.1L289.482 152.603C302.277 147.043 314.263 138.711 323.634 128.653L327.647 122.169C328.941 119.952 330.459 117.792 332.555 116.239L333.017 115.904L332.988 116.482C332.855 118.936 332.336 129.254 332.226 131.396C331.828 144.185 331.654 157.425 332.648 170.185C333.248 178.003 334.212 186.161 336.227 193.731C337.203 197.553 338.531 201.335 340.517 204.759C341.135 205.804 341.874 206.809 342.717 207.681C343.237 208.218 343.884 208.772 344.582 209.009C344.501 220.695 343.127 232.515 339.086 243.537C337.013 248.97 334.137 254.294 329.68 258.151C321.533 265.339 309.5 264.392 301.261 257.851C287.201 246.695 279.527 225.378 275.203 208.42L275.145 208.178L275.393 208.091C277.818 207.3 280.168 206.203 281.924 204.43C289.678 195.463 288.806 178.944 289.222 167.61L289.551 152.141H290.099L290.105 152.124Z" fill="#C69024"/>
<path d="M359.97 406.824C362.904 424.741 371.692 440.319 373.025 458.397C489.024 448.414 516.906 420.249 472.014 341.048C466.488 331.301 452.007 303.194 446.637 291.138C400.717 205.811 426.007 207.075 332.717 200.406C332.717 200.406 354.012 213.432 346.003 262.008C337.995 310.584 326.857 423.309 326.857 423.309L359.976 406.819L359.97 406.824Z" fill="url(#paint3_linear_1911_6479)"/>
<path d="M286.52 315.663L279.435 319.457L291.393 340.786L279.435 375.221C230.928 454.942 178.634 471.092 163.489 415.639C155.457 386.238 170.308 370.29 195.482 316.096C201.112 303.983 218.093 255.458 222.371 247.49C232.539 228.569 230.299 208.921 268.626 205.3C275.896 204.613 282.028 199.417 286.676 196.818C281.543 206.83 278.69 217.714 278.321 228.789C277.743 246.139 276.716 260.418 280.197 280.015L286.52 315.657V315.663Z" fill="url(#paint4_linear_1911_6479)"/>
<path d="M277.783 201.779C265.191 211.693 249.561 227.71 241.05 241.29C240.599 242.012 240.137 242.895 240.484 243.675C240.732 244.223 241.31 244.535 241.841 244.818C247.851 248 253.065 252.665 256.888 258.289C257.234 258.797 257.581 259.357 257.546 259.969C257.494 260.847 256.709 261.47 255.993 261.99C250.178 266.222 245.045 271.396 240.853 277.239C253.441 291.171 261.27 306.53 268.153 323.598" stroke="#0088C7" stroke-width="0.41593" stroke-miterlimit="10"/>
<path d="M236.633 263.734C236.633 263.734 233.388 281.772 233.198 345.28" stroke="#0088C7" stroke-width="0.41593" stroke-miterlimit="10"/>
<path d="M193.836 367.259L279.435 319.457" stroke="#0088C3" stroke-width="0.402795" stroke-miterlimit="10"/>
<path d="M343.018 190.75C362.032 203.401 378.476 219.891 391.08 238.933C391.941 240.233 392.818 241.699 392.587 243.241C392.408 244.453 391.565 245.452 390.763 246.382C386.374 251.428 381.986 256.475 377.592 261.521C381.923 264.853 385.855 268.71 389.273 272.971C389.943 273.808 390.618 274.709 390.774 275.771C390.971 277.116 390.289 278.421 389.631 279.617C376.905 302.545 361.905 324.78 355.524 350.214" fill="white"/>
<path d="M343.018 190.75C362.032 203.401 378.476 219.891 391.08 238.933C391.941 240.233 392.818 241.699 392.587 243.241C392.408 244.453 391.565 245.452 390.763 246.382C386.374 251.428 381.986 256.475 377.592 261.521C381.923 264.853 385.855 268.71 389.273 272.971C389.943 273.808 390.618 274.709 390.774 275.771C390.971 277.116 390.289 278.421 389.631 279.617C376.905 302.545 361.905 324.78 355.524 350.214" stroke="#009EDE" stroke-width="0.402795" stroke-miterlimit="10"/>
<path d="M393.834 330.301L394.462 331.194C394.995 331.953 396.044 332.136 396.803 331.602L577.34 204.624C578.099 204.09 578.282 203.042 577.748 202.283L577.12 201.39C576.586 200.631 575.538 200.448 574.779 200.982L394.242 327.961C393.483 328.494 393.3 329.542 393.834 330.301Z" fill="url(#paint5_linear_1911_6479)" stroke="white" stroke-width="0.41593" stroke-miterlimit="10"/>
<path d="M400.74 341.723L454.663 303.805C466.707 294.873 477.828 280.069 473.774 274.306C469.721 268.544 451.654 274.988 439.991 282.944L386.068 320.862L400.74 341.723Z" fill="url(#paint6_linear_1911_6479)" stroke="white" stroke-width="0.41593" stroke-miterlimit="10"/>
<path d="M230.305 370.904L300.967 471.382L437.67 375.246L437.63 375.189C437.861 375.079 438.086 374.952 438.299 374.808C445.869 369.484 473.971 319.84 451.071 287.275C426.573 252.435 375.214 269.006 367.644 274.33C367.436 274.48 367.24 274.647 367.055 274.826L367.015 274.768L230.311 370.904H230.305Z" fill="url(#paint7_linear_1911_6479)" stroke="white" stroke-width="0.41593" stroke-miterlimit="10"/>
<path d="M230.305 370.904L300.967 471.382L437.67 375.246L437.63 375.189C437.861 375.079 438.086 374.952 438.299 374.808C444.824 370.217 465.83 331.769 457.371 301.098L324.212 304.868L230.305 370.904Z" fill="url(#paint8_linear_1911_6479)" stroke="white" stroke-width="0.41593" stroke-miterlimit="10"/>
<path d="M300.585 471.331L310.857 464.108L310.736 463.941C316.377 456.949 306.723 431.405 288.148 404.995C269.573 378.585 248.799 360.859 240.311 363.803L230.074 371.079L300.579 471.331H300.585Z" fill="#0088C3" stroke="white" stroke-width="0.41593" stroke-miterlimit="10"/>
<path d="M300.982 471.345C308.551 466.021 298.868 439.214 279.355 411.469C259.841 383.724 237.886 365.548 230.316 370.872C222.747 376.196 232.43 403.003 251.944 430.748C271.457 458.493 293.413 476.668 300.982 471.345Z" fill="url(#paint9_linear_1911_6479)"/>
<path d="M446.446 352.392C447.041 344.995 446.342 336.352 442.907 327.512L292.652 433.175C296.85 441.125 299.904 448.435 301.613 454.521L446.446 352.392Z" fill="url(#paint10_linear_1911_6479)" stroke="white" stroke-width="0.41593" stroke-miterlimit="10"/>
<path d="M389.659 273.232C396.819 275.172 404.862 278.77 412.755 284.636L262.5 390.299C256.437 383.659 250.588 378.312 245.444 374.652L389.659 273.232Z" fill="#BEF5FF" stroke="white" stroke-width="0.41593" stroke-miterlimit="10"/>
<path d="M264.839 388.337L386.64 303.004L345.091 304.528L251.836 369.843L264.839 388.337Z" fill="url(#paint11_linear_1911_6479)" stroke="white" stroke-width="0.41593" stroke-miterlimit="10"/>
<path d="M254.371 368.082C259.51 371.783 265.336 377.141 271.364 383.776L262.362 390.104C256.3 383.464 250.451 378.117 245.306 374.456L254.371 368.082Z" fill="#6DD2F2" stroke="white" stroke-width="0.41593" stroke-miterlimit="10"/>
<path d="M353.844 347.174C357.228 347.174 359.971 344.431 359.971 341.048C359.971 337.665 357.228 334.922 353.844 334.922C350.461 334.922 347.718 337.665 347.718 341.048C347.718 344.431 350.461 347.174 353.844 347.174Z" fill="#F5CCFF" stroke="white" stroke-width="0.41593" stroke-miterlimit="10"/>
<path d="M396.999 350.488C401.154 350.488 404.522 347.12 404.522 342.965C404.522 338.81 401.154 335.441 396.999 335.441C392.843 335.441 389.475 338.81 389.475 342.965C389.475 347.12 392.843 350.488 396.999 350.488Z" fill="#F5CCFF" stroke="white" stroke-width="0.41593" stroke-miterlimit="10"/>
<path d="M323.098 401.12C326.545 401.12 329.339 398.325 329.339 394.878C329.339 391.431 326.545 388.637 323.098 388.637C319.65 388.637 316.856 391.431 316.856 394.878C316.856 398.325 319.65 401.12 323.098 401.12Z" fill="#DE97FF" stroke="white" stroke-width="0.41593" stroke-miterlimit="10"/>
<path d="M437.508 375.068C437.739 374.958 437.965 374.831 438.178 374.687C445.748 369.363 473.85 319.719 450.95 287.154C426.451 252.314 375.092 268.885 367.523 274.209C367.315 274.359 367.118 274.526 366.934 274.705L366.893 274.647L365.323 275.75C384.053 265.917 412.669 278.002 431.134 304.262C450.644 332.006 451.435 365.073 432.895 378.11" fill="#8FEAFF"/>
<path d="M437.508 375.068C437.739 374.958 437.965 374.831 438.178 374.687C445.748 369.363 473.85 319.719 450.95 287.154C426.451 252.314 375.092 268.885 367.523 274.209C367.315 274.359 367.118 274.526 366.934 274.705L366.893 274.647L365.323 275.75C384.053 265.917 412.669 278.002 431.134 304.262C450.644 332.006 451.435 365.073 432.895 378.11" stroke="white" stroke-width="0.41593" stroke-miterlimit="10"/>
<path d="M442.919 277.743L442.896 277.72C414.979 260.069 389.475 273.048 389.475 273.048L390.278 273.447C397.709 275.271 405.365 279.013 412.605 284.429C423.264 276.963 442.693 277.737 442.919 277.743Z" fill="#E9FCFF" stroke="white" stroke-width="0.41593" stroke-miterlimit="10"/>
<path d="M231.217 460.937L269.897 433.736C271.467 432.634 269.458 427.062 265.404 421.305C261.351 415.543 256.795 411.772 255.225 412.875L216.545 440.076L231.217 460.937Z" fill="#6DD2F2" stroke="white" stroke-width="0.41593" stroke-miterlimit="10"/>
<path d="M245.352 510.165L255.503 502.769C261.144 495.777 251.49 470.233 232.915 443.823C214.34 417.413 193.566 399.687 185.078 402.632L174.685 409.687L245.346 510.165H245.352Z" fill="#0088C3" stroke="white" stroke-width="0.41593" stroke-miterlimit="10"/>
<path d="M245.377 510.136C252.947 504.812 243.264 478.005 223.75 450.26C204.236 422.515 182.281 404.339 174.712 409.663C167.143 414.987 176.825 441.794 196.339 469.539C215.853 497.284 237.808 515.459 245.377 510.136Z" fill="#00A8E1" stroke="white" stroke-width="0.41593" stroke-miterlimit="10"/>
<path d="M201.222 409.484C206.361 413.185 212.187 418.544 218.214 425.178L209.213 431.506C203.15 424.866 197.301 419.519 192.157 415.859L201.222 409.484Z" fill="#6DD2F2" stroke="white" stroke-width="0.41593" stroke-miterlimit="10"/>
<path d="M290.025 152.843L290.256 152.733C290.256 152.531 290.256 152.323 290.256 152.121L290.025 152.843Z" fill="#F9CCA7"/>
<path d="M333.139 116.451C330.466 118.357 328.404 122.144 328.404 122.144L324.293 128.79C315.361 138.323 304.679 146.048 292.825 151.545L290.256 152.74C290.296 159.513 290.181 174.595 290.025 181.367C291.976 181.056 308.675 175.738 317.024 164.04C325.708 151.874 330.339 136.158 332.371 131.371C332.55 125.759 332.723 122.935 333.139 116.451Z" fill="url(#paint12_linear_1911_6479)"/>
<path d="M364.37 415.893C352.926 419.109 340.212 417.492 329.935 411.522C326.528 409.541 323.3 407.07 319.478 406.094C315.373 405.049 311.06 405.846 306.827 405.933C301.227 406.042 289.044 404.818 284.442 401.625C284.084 401.377 283.68 401.106 283.252 401.192C282.865 401.267 282.6 401.614 282.404 401.949C280.816 404.662 281.612 408.277 283.558 410.742C285.504 413.208 294.869 414.628 297.67 416.043C307.555 421.043 299.714 431.251 296.983 433.954L296.965 433.971C291.734 439.144 286.798 442.274 279.875 441.517C271.525 440.605 264.187 438.925 255.659 440.195C258.771 439.733 258.338 444.837 263.448 445.172C263.448 446.835 263.39 446.974 264.106 448.769C264.366 449.422 265.134 450.334 266.964 451.645C269.274 453.296 271.866 454.52 274.591 455.323C282.825 457.748 283.876 459.37 288.611 459.422C296.013 459.503 303.455 457.557 310.494 455.692C312.024 455.288 313.565 454.872 314.957 454.116C316.135 453.475 317.168 452.609 318.237 451.795C325.24 446.431 333.705 443.157 342.389 441.61C351.073 440.062 359.994 440.207 368.753 441.211L364.376 415.887L364.37 415.893Z" fill="#BEF5FF"/>
<path d="M231.217 460.683L269.897 433.482C271.467 432.38 269.458 426.808 265.404 421.051C261.351 415.289 256.795 411.518 255.225 412.621L216.545 439.822L231.217 460.683Z" fill="url(#paint13_linear_1911_6479)"/>
<path d="M245.352 509.911L255.503 502.515C261.144 495.523 251.49 469.979 232.915 443.569C214.34 417.159 193.566 399.433 185.078 402.378L174.685 409.433L245.346 509.911H245.352Z" fill="#0088C3"/>
<path d="M245.376 509.88C252.945 504.556 243.262 477.749 223.748 450.004C204.234 422.259 182.279 404.084 174.71 409.407C167.141 414.731 176.823 441.538 196.337 469.283C215.851 497.028 237.806 515.204 245.376 509.88Z" fill="url(#paint14_linear_1911_6479)"/>
<path d="M201.222 409.23C206.361 412.932 212.187 418.29 218.214 424.924L209.213 431.252C203.15 424.612 197.301 419.266 192.157 415.605L201.222 409.23Z" fill="#6DD2F2"/>
<path d="M279.435 319.321C279.435 319.321 300.1 308.997 312.017 293.748C312.017 293.748 317.023 291.127 337.994 284.215C358.965 277.304 365.022 274.001 371.57 270.641C371.57 270.641 374.693 273.25 369.214 277.777C369.214 277.777 376.639 276.247 378.51 274.919C378.51 274.919 382.084 280.399 368.261 286.121C368.261 286.121 344.669 297.795 337.521 302.328C337.521 302.328 344.669 303.76 348.243 303.76C351.817 303.76 354.675 306.145 360.16 307.571C365.646 308.997 360.876 313.05 354.681 312.334C348.485 311.618 343.48 309.234 338 309.713C332.521 310.192 323.49 315.908 319.304 318.056C315.118 320.198 299.811 323.79 285.798 331.602L279.441 319.321H279.435Z" fill="url(#paint15_linear_1911_6479)"/>
<path d="M279.435 319.319C279.435 319.319 303.131 305.357 311.382 294.612C311.821 294.046 312.398 293.607 313.068 293.359C316.954 291.921 329.969 286.321 341.21 282.989C342.475 282.614 343.716 282.181 344.94 281.696C356.598 277.048 366.823 273.572 371.564 270.645" stroke="#0088C7" stroke-width="0.41593" stroke-miterlimit="10"/>
<path d="M373.019 458.397L362.424 408.534C362.424 408.534 408.622 381.54 446.631 373.445" fill="url(#paint16_linear_1911_6479)"/>
<path d="M363.267 412.424C351.823 415.641 342.868 415.641 329.929 411.518C326.17 410.323 323.294 407.066 319.472 406.09C315.367 405.045 311.054 405.842 306.821 405.929C301.221 406.038 289.038 404.814 284.436 401.621C284.078 401.373 283.674 401.102 283.246 401.188C282.86 401.263 282.594 401.61 282.398 401.945C280.81 404.658 281.607 408.273 283.552 410.738C285.498 413.204 294.864 414.624 297.664 416.039C307.549 421.039 299.708 431.247 296.977 433.95L296.96 433.967C291.728 439.14 286.792 442.27 279.869 441.513C273.165 440.78 267.108 439.556 260.572 439.758C258.54 439.822 257.674 442.385 259.244 443.673C260.174 444.435 261.427 445.036 263.442 445.168C263.442 446.831 263.384 446.97 264.1 448.766C264.377 449.464 265.243 450.469 267.38 451.935C269.591 453.454 272.045 454.568 274.614 455.325C282.825 457.75 283.882 459.361 288.605 459.418C296.007 459.499 303.449 457.553 310.488 455.688C312.018 455.284 313.56 454.869 314.951 454.112C316.129 453.471 317.163 452.605 318.231 451.791C325.234 446.427 333.699 443.153 342.383 441.606C351.067 440.058 360.883 440.567 369.648 441.571L363.273 412.413L363.267 412.424Z" fill="url(#paint17_linear_1911_6479)"/>
<path d="M362.181 297.423C354.063 296.286 346.719 290.668 343.497 283.127C340.275 275.586 341.291 266.394 346.078 259.743C347.897 257.214 350.195 255.06 352.008 252.525C353.815 249.99 355.143 246.878 354.612 243.807C354.069 240.689 351.673 238.154 348.907 236.612C346.147 235.065 343.012 234.343 339.952 233.54C331.158 231.231 322.047 227.72 316.689 220.376C313.288 215.716 311.74 209.902 311.44 204.14C310.724 190.386 317.191 176.454 328.156 168.128C328.693 164.831 331.585 163.353 334.859 162.689C338.133 162.025 341.517 162.723 344.785 163.445C347.204 163.982 349.64 164.542 351.881 165.604C353.428 166.338 354.866 167.314 356.125 168.474C359.889 171.956 361.922 177.077 362.141 182.199C362.36 187.32 360.876 192.419 358.446 196.934C357.562 198.574 356.546 200.173 356.067 201.98C355.588 203.787 355.755 205.883 357.02 207.252C358.648 209.013 361.373 208.967 363.763 209.192C374.584 210.22 383.424 219.914 385.162 230.642C386.9 241.37 382.379 252.491 374.93 260.401C370.369 265.239 364.705 269.131 361.148 274.749C359.433 277.457 358.261 280.5 357.724 283.658C357.349 285.852 357.285 288.145 357.955 290.269C358.919 293.33 359.104 296.505 362.176 297.423H362.181Z" fill="#FFD066"/>
<path d="M362.447 297.482C361.731 297.557 360.807 297.638 360.102 297.436C358.971 297.24 357.839 296.986 356.759 296.605C347.74 293.706 340.858 285.195 340.119 275.68C339.634 269.958 341.014 263.982 344.27 259.201C347.533 254.068 355.062 249.149 352.25 242.405C349.975 237.895 344.576 236.585 339.969 235.366C331.135 232.976 321.729 229.5 315.961 221.919C303.616 205.082 312.265 178.395 327.884 168.077C328.352 164.832 331.579 163.065 334.53 162.534C339.478 161.564 344.519 163.204 349.276 164.451C357.262 166.714 362.187 174.648 362.227 182.72C362.302 186.715 361.35 190.682 359.762 194.331C358.653 197.091 356.661 199.487 355.997 202.414C355.275 205.729 357.019 208.408 360.414 208.835C362.377 209.153 364.392 209.124 366.327 209.609C374.174 211.364 380.502 217.565 383.562 224.858C388.233 236.128 384.376 249.281 376.835 258.375C373.065 263.041 368.134 266.54 364.173 271.009C360.224 275.385 357.597 281.165 357.677 287.112C357.695 289.104 358.468 290.969 358.948 292.869C359.219 293.816 359.531 294.751 360.062 295.536C360.38 296.039 360.818 296.426 361.303 296.743L361.615 296.899C361.748 296.968 361.904 297.026 362.048 297.113C362.233 297.228 362.36 297.384 362.458 297.476L362.447 297.482ZM361.91 297.367C361.777 297.378 361.673 297.448 361.621 297.476C361.534 297.517 361.459 297.43 361.367 297.396C360.663 297.043 360.033 296.495 359.617 295.831C359.04 294.953 358.734 293.966 358.468 293.007C357.995 291.062 357.233 289.156 357.239 287.13C357.175 278.769 362.164 271.898 368.198 266.615C371.113 263.913 374.168 261.337 376.668 258.248C384.203 249.218 388.089 236.134 383.47 224.898C380.438 217.606 374.145 211.404 366.315 209.626C363.474 208.812 360.189 209.522 357.631 207.813C354.017 204.99 356.505 200.105 358.37 196.981C362.643 189.261 363.798 179.094 358.601 171.535C355.016 166.131 349.484 164.422 343.41 163.308C340.517 162.719 337.521 162.286 334.616 162.961C331.851 163.515 328.819 165.115 328.421 168.169C317.422 177.35 311.22 191.917 312.883 205.896C314.142 217.317 320.314 224.511 330.823 228.749C334.045 230.072 337.411 231.082 340.858 231.942C346.401 233.247 352.746 235.205 355.524 240.811C357.539 244.674 356.315 249.443 354.046 252.809C351.014 257.29 346.747 260.494 344.905 265.616C339.796 278.255 346.776 292.216 359.658 296.449L360.882 296.83C361.24 296.945 361.506 297.251 361.915 297.367H361.91Z" fill="#E5AE4C"/>
<path d="M324.472 170.455C325.893 170.502 327.244 169.924 328.543 169.353C331.407 168.1 334.276 166.847 336.95 165.236C337.925 164.647 338.901 163.983 339.519 163.024C340.72 161.154 340.247 158.711 339.733 156.546L338.624 151.869C334.126 152.966 329.49 154.935 325.581 157.418C325.448 157.504 325.321 157.73 325.471 157.782C325.09 162.124 324.847 166.113 324.472 170.45V170.455Z" fill="#264F85" stroke="#264F85" stroke-width="0.41593" stroke-miterlimit="10"/>
<path d="M333.751 180.596L331.666 192.831C330.084 201.076 328.329 213.028 337.856 216.914C340.691 218.098 343.717 218.508 346.754 219.102C350.882 219.801 355.016 221.383 358.226 224.16C368.729 232.775 368.625 248.769 358.302 257.459L357.949 257.037C369.613 246.748 366.662 227.971 352.389 221.868C346.679 219.42 339.813 220.205 334.582 216.406C327.301 210.828 329.236 200.435 330.783 192.664L333.214 180.492L333.757 180.59L333.751 180.596Z" fill="#E5AE4C"/>
<path d="M268.401 89.8586C269.314 93.092 268.857 96.9028 266.912 99.6397C266.109 100.771 264.966 101.62 264.111 102.717C261.836 105.621 261.946 109.669 262.16 113.347C262.783 123.971 263.401 134.595 264.025 145.213C264.244 149.007 266.779 152.292 270.411 153.407C275.578 154.994 280.954 156.184 286.22 156.299C289.216 156.363 292.219 156.224 295.192 155.855C307.572 154.301 322.884 145.167 330.731 135.467C333 136.703 338.635 138.521 346.442 130.594C349.71 127.274 351.586 122.429 350.414 117.62C349.796 115.085 348.03 112.92 345.529 112.163C341.673 110.997 338.376 113.705 335.673 116.28C338.468 113.139 340.818 109.092 342.527 105.252C346.719 95.8289 345.229 84.4658 340.033 75.5508C334.842 66.6359 326.32 60.0074 316.995 55.5961C311.18 52.8419 299.09 49.1582 292.715 50.0069C285.203 51.0058 264.619 76.4284 268.401 89.8644V89.8586Z" fill="#FEE2CC"/>
<path d="M269.082 115.99C268.678 115.528 268.626 114.858 268.955 114.338C270.826 111.428 276.854 102.202 278.222 101.745C279.851 101.203 282.01 101.538 281.346 109.69C281.098 112.756 280.919 114.927 280.798 116.44C280.653 118.207 279.071 119.5 277.304 119.287L274.775 118.986C272.57 118.721 270.543 117.653 269.077 115.984L269.082 115.99Z" fill="#F9CCA7"/>
<path d="M262.084 109.084C262.009 110.504 262.079 111.954 262.159 113.351C262.362 116.792 262.564 120.239 262.766 123.68C263.678 122.514 264.371 120.817 264.66 118.773C265.214 114.835 264.094 110.88 262.084 109.084Z" fill="#F9CCA7"/>
<path d="M286.844 92.4145L287.15 91.1442C287.271 90.6419 287.75 90.3185 288.264 90.3936C291.434 90.8555 301.977 92.4434 303.484 93.2806C306.446 94.9319 310.846 99.9495 310.846 99.9495L303.877 97.126C301.279 96.2426 290.938 94.2564 287.623 93.627C287.063 93.5231 286.711 92.9688 286.844 92.4145Z" fill="#C99239"/>
<path d="M268.402 88.702C268.402 88.702 273.298 90.8037 275.296 92.5936L275.001 89.1754C275.001 89.1754 271.162 85.4743 268.667 85.8785L268.402 88.702Z" fill="#C99239"/>
<path d="M305.886 132.516C310.663 132.516 314.536 128.643 314.536 123.866C314.536 119.089 310.663 115.217 305.886 115.217C301.109 115.217 297.237 119.089 297.237 123.866C297.237 128.643 301.109 132.516 305.886 132.516Z" fill="#F9CCA7"/>
<path d="M334.143 125.788C335.679 120.101 344.282 115.464 348.699 120.747L348.295 121.117C343.531 117.416 337.353 121.712 334.645 126.019L334.143 125.788Z" fill="#F9CCA7"/>
<path d="M262.772 114.88C262.772 114.88 261.842 146.96 264.25 151.683C266.663 156.406 268.245 159.108 277.08 159.276C281.86 159.368 289.967 159.478 298.651 157.318C306.007 155.488 313.784 152.024 320.309 145.534L337.856 114.562C337.856 114.562 307.191 121.786 299.765 122.473C296.711 122.756 293.639 122.744 290.579 122.565C279.655 121.936 262.772 114.88 262.772 114.88Z" fill="url(#paint18_linear_1911_6479)"/>
<path d="M327.775 26.4999L234.249 36.0327L236.957 24.8082L330.483 15.2754L327.775 26.4999Z" fill="url(#paint19_linear_1911_6479)"/>
<path d="M275.296 92.5938C275.296 92.5938 279.419 98.4658 276.653 103.241L268.812 114.558" fill="#FEE2CC"/>
<path d="M275.296 92.5938C275.296 92.5938 279.419 98.4658 276.653 103.241L268.812 114.558" stroke="#C69024" stroke-width="0.41593" stroke-linecap="round" stroke-linejoin="round"/>
<path d="M331.326 128.844C329.126 134.502 326.967 138.55 323.179 143.296C314.697 153.926 311.158 166.08 314.01 179.377C310.298 176.461 309.541 171.432 309.397 166.715C308.814 147.979 322.429 134.652 323.306 121.32C323.462 118.936 326.014 106.874 320.737 102.682C313.427 96.8792 304.991 92.5199 298.236 86.082C291.48 79.6498 286.792 69.4993 290.597 60.9827C283.2 63.7657 276.924 69.251 272.9 76.0296C270.989 79.2514 269.072 83.247 268.667 87.0289C268.275 90.7185 270.186 94.6101 268.494 98.1726C267.276 100.73 265.082 102.792 263.615 105.217C260.821 109.836 264.031 115.396 262.501 120.575C261.029 125.558 254.995 128.567 251.808 132.666C247.772 137.857 245.774 144.266 248.049 150.438C243.747 146.085 244.579 138.781 247.142 133.22C249.706 127.66 253.69 122.677 255.07 116.713C257.241 107.307 252.506 97.6529 252.887 88.0105C253.199 80.2041 256.825 72.9636 260.376 66.0002C263.8 59.2909 267.738 52.0793 274.667 49.1173C284.5 44.9139 294.465 44.4115 305.136 45.0813C318.71 45.9358 330.801 57.0507 342.337 64.2565C353.873 71.4566 364.376 75.7236 362.869 89.2403C362.869 89.2403 376.501 128.295 339.733 156.541L325.05 159.884L325.073 158.978C325.206 153.643 326.239 148.371 328.122 143.382L331.234 135.143C331.234 135.143 339.56 140.992 349.162 126.84C349.162 126.84 353.4 118.924 346.916 113.346C346.5 112.989 345.882 112.74 345.23 112.555C337.002 110.205 332.568 125.628 331.32 128.838L331.326 128.844Z" fill="#FFD066"/>
<path d="M409.539 84.2796L327.595 26.7309L330.482 15.2754L412.247 73.0551L409.539 84.2796Z" fill="#0B1F43"/>
<path d="M409.539 84.2797L299.171 60.6182L234.249 36.0328L327.775 26.5L409.539 84.2797Z" fill="#030917"/>
<path d="M318.26 44.7114C297.618 39.7285 277.9 41.0392 264.187 47.1191L259.487 66.5946C273.2 60.5146 292.918 59.204 313.56 64.1869C337.169 69.8857 355.952 82.3574 364.168 96.1109L368.868 76.6354C360.646 62.8819 341.869 50.4103 318.26 44.7114Z" fill="url(#paint20_linear_1911_6479)"/>
<path d="M331.667 97.1562C335.547 99.2637 339.738 103.271 338.947 108.086C338.474 103.421 334.94 100.188 331.667 97.1562Z" fill="#E5AE4C"/>
<path d="M294.529 65.1562C297.41 73.1011 303.784 78.927 310.245 84.0542C310.315 84.1062 310.24 84.2275 310.165 84.1755C303.167 80.2608 295.938 73.078 294.535 65.1504L294.529 65.1562Z" fill="#E5AE4C"/>
<path d="M304.72 66.7571C308.097 70.5852 312.128 73.7262 316.556 76.2437C325.373 81.3594 335.87 84.7949 342.371 93.219C345.611 97.2954 347.787 102.642 346.962 107.879C346.95 107.989 346.765 107.977 346.771 107.862C346.633 97.3359 337.827 89.7489 329.265 85.0374C320.315 80.1526 310.343 75.8049 304.287 67.0978C304.2 66.9765 304.223 66.8033 304.35 66.7109C304.465 66.6301 304.621 66.6474 304.714 66.7513L304.72 66.7571Z" fill="#E5AE4C"/>
<path d="M335.627 169.115C340.402 174.624 342.833 182.118 342.18 189.416C341.147 199.117 338.837 207.766 350.963 210.514C352.689 210.936 354.456 211.236 356.234 211.617C361.569 212.755 366.887 214.793 371.131 218.326C375.178 221.808 378.903 227.161 378.325 232.732L377.777 232.75C376.53 225.33 372.65 219.851 365.986 216.306C362.874 214.631 359.468 213.505 355.992 212.749C352.452 211.969 348.728 211.525 345.506 209.642C338.069 205.306 340.57 196.287 341.28 189.341C342.019 182.28 339.79 174.947 335.206 169.473L335.621 169.115H335.627Z" fill="#E5AE4C"/>
<path d="M362.568 262.931C358.757 268.41 352.839 274.675 351.078 281.176C349.871 285.946 353.416 290.68 357.031 293.446C357.25 293.602 357.296 293.914 357.135 294.127C356.973 294.341 356.667 294.387 356.453 294.225C355.183 293.278 354.069 292.158 353.099 290.923C351.187 288.446 349.669 285.374 350.044 282.141C350.899 277.516 353.815 273.566 356.557 269.911L362.129 262.596C362.337 262.33 362.787 262.625 362.568 262.925V262.931Z" fill="#E5AE4C"/>
<path d="M165.008 263.809L59.7896 324.516V202.299L165.008 141.598V263.809Z" fill="url(#paint21_linear_1911_6479)"/>
<path d="M150.296 259.404L139.147 255.275L127.922 272.308L132.264 241.984L146.26 235.078L150.296 259.404Z" fill="url(#paint22_linear_1911_6479)"/>
<path d="M165.008 263.809L176.343 271.095V148.879L165.008 141.598V263.809Z" fill="#6DD2F2" stroke="#F0F4F8" stroke-width="0.437821" stroke-miterlimit="10"/>
<path d="M165.008 263L59.7896 324.515L71.1238 332.091L176.342 271.095L165.008 263Z" fill="#4FBAD3" stroke="#F0F4F8" stroke-width="0.437821" stroke-miterlimit="10"/>
<path d="M105.923 191.778L69.5015 212.01V209.585L105.923 189.348V191.778Z" fill="#019DD8"/>
<path d="M106.328 201.489L69.9058 221.721V219.296L106.328 199.059V201.489Z" fill="#019DD8"/>
<path d="M106.732 211.202L70.3101 231.434V229.009L106.732 208.771V211.202Z" fill="#019DD8"/>
<path d="M107.142 220.913L70.7202 241.145V238.72L107.142 218.482V220.913Z" fill="#019DD8"/>
<path d="M106.732 258.952L70.3101 279.19V276.759L106.732 256.527V258.952Z" fill="#019DD8"/>
<path d="M107.142 268.669L70.7202 288.901V286.47L107.142 266.238V268.669Z" fill="#019DD8"/>
<path d="M153.679 166.685L117.257 186.922V184.492L153.679 164.26V166.685Z" fill="#019DD8"/>
<path d="M154.084 176.396L117.662 196.633V194.203L154.084 173.971V176.396Z" fill="#019DD8"/>
<path d="M154.488 186.109L118.066 206.346V203.915L154.488 183.684V186.109Z" fill="#019DD8"/>
<path d="M154.892 195.82L118.47 216.057V213.626L154.892 193.395V195.82Z" fill="#019DD8"/>
<path d="M151.277 237.859C154.333 228.254 150.64 218.503 143.028 216.081C135.416 213.659 126.767 219.483 123.711 229.088C120.655 238.694 124.348 248.444 131.96 250.866C139.572 253.288 148.221 247.465 151.277 237.859Z" fill="url(#paint23_linear_1911_6479)"/>
<path d="M116.657 155.709C96.4189 188.187 90.8356 203.113 87.1056 211.82C86.8573 212.397 86.2857 212.738 85.7256 212.461L81.6839 212.005L81.6723 191.721C78.3292 185.589 74.2817 179.492 69.5933 174.682C74.7667 165.553 78.6641 157.845 81.6435 151.28L81.6204 112.283L91.2166 115.101C91.2166 115.101 97.5044 132.122 116.662 155.715L116.657 155.709Z" fill="#A37624" stroke="#F0F4F8" stroke-width="0.437821" stroke-miterlimit="10"/>
<path d="M109.347 155.969C97.1464 173.158 87.1979 194.1 81.678 212.01C80.0498 205.879 71.9143 182.263 58.7671 168.77C77.44 135.829 79.5417 121.279 81.6145 112.809C85.9623 125.748 99.2654 147.735 109.347 155.969Z" fill="#FFD066" stroke="#F0F4F8" stroke-width="0.437821" stroke-miterlimit="10"/>
<path d="M236.356 36.582V77.6578" stroke="#0F1F42" stroke-width="0.836238" stroke-miterlimit="10"/>
<path d="M236.771 83.9919C238.671 83.9919 240.212 82.4512 240.212 80.5507C240.212 78.6501 238.671 77.1094 236.771 77.1094C234.87 77.1094 233.33 78.6501 233.33 80.5507C233.33 82.4512 234.87 83.9919 236.771 83.9919Z" fill="url(#paint24_linear_1911_6479)"/>
<path d="M245.132 105.512H228.411L231.627 87.8321C232.042 85.5398 234.04 83.877 236.367 83.877C238.619 83.877 240.565 85.4359 241.067 87.63L245.132 105.518V105.512Z" fill="url(#paint25_linear_1911_6479)"/>
<path d="M378.505 274.924L358.186 281.552" stroke="#0088C7" stroke-width="0.41593" stroke-miterlimit="10" stroke-linecap="round"/>
<path d="M270.111 95.9368C269.441 95.6943 267.997 95.1573 268.817 96.4161C268.817 96.4161 267.293 99.5686 268.402 101.001C269.51 102.432 274.522 102.259 274.522 102.259L275.094 102.721C275.417 102.848 275.74 102.542 275.631 102.213L275.111 100.885C274.008 98.5928 272.507 96.8202 270.116 95.9426L270.111 95.9368Z" fill="#F0F4F8"/>
<path d="M291.122 103.219C291.122 103.219 292.438 99.9451 304.789 110.771C304.789 110.771 298.056 111.453 292.606 109.767C291.763 109.507 291.162 108.589 289.707 108.167C289.534 108.115 289.084 107.665 289.465 107.099C289.673 106.793 290.342 107.024 290.239 106.042C290.025 103.958 291.122 103.219 291.122 103.219Z" fill="#F0F4F8"/>
<path d="M296.229 106.6C296.958 104.755 296.251 102.747 294.649 102.114C293.048 101.481 291.158 102.464 290.43 104.308C289.701 106.153 290.408 108.161 292.01 108.794C293.611 109.427 295.5 108.445 296.229 106.6Z" fill="#E5AE4C"/>
<path d="M309.229 111.203C309.644 111.255 305.897 111.63 304.783 110.764L299.453 106.474C291.901 100.256 290.44 104.315 290.44 104.315C290.44 104.315 288.494 102.369 288.546 99.5225C288.546 99.5225 296.076 99.0606 304.523 109.662C304.523 109.662 306.319 110.857 309.234 111.197L309.229 111.203Z" fill="#E5AE4C"/>
<path d="M305.995 107.947C298.414 97.5483 291.907 98.143 291.907 98.143" stroke="#F9CCA7" stroke-width="0.437821" stroke-linecap="round" stroke-linejoin="round"/>
<path d="M269.423 95.4349C268.753 95.1924 267.31 94.6554 268.13 95.9141C268.13 95.9141 266.605 99.0667 267.714 100.499C267.928 100.77 268.28 100.984 268.713 101.151C270.133 101.313 271.611 100.366 272.235 98.7838C272.403 98.3565 272.489 97.9234 272.512 97.5019C271.675 96.607 270.67 95.8968 269.417 95.4349H269.423Z" fill="#E5AE4C"/>
<path d="M275.624 102.207C275.624 102.207 272.865 95.885 268.124 95.9139C268.124 95.9139 266.38 94.3376 266.38 93.1309C266.38 93.1309 274.279 95.4347 275.624 102.213V102.207Z" fill="#E5AE4C"/>
<path d="M269.117 93.1309C269.117 93.1309 273.84 93.7545 275.624 98.1426" stroke="#F9CCA7" stroke-width="0.437821" stroke-linecap="round" stroke-linejoin="round"/>
<path d="M309.229 111.204C309.644 111.256 305.897 111.631 304.783 110.765L301.93 107.838C300.342 106.209 298.477 104.853 296.393 103.934C291.318 101.694 290.434 104.321 290.434 104.321C290.434 104.321 289.199 104.165 289.245 101.319C289.245 101.319 298.148 98.3395 303.997 107.364C305.175 109.183 307.144 110.447 309.136 111.192C309.165 111.204 309.194 111.198 309.223 111.204H309.229Z" fill="#E5AE4C"/>
<path d="M305.995 107.947C298.414 97.5483 291.907 98.143 291.907 98.143" stroke="#F9CCA7" stroke-width="0.437821" stroke-linecap="round" stroke-linejoin="round"/>
<path d="M275.624 102.208C275.624 102.208 274.412 96.1111 268.396 96.5557C268.396 96.5557 267.374 95.9033 267.374 94.6965C267.374 94.6965 275.474 93.1318 275.624 102.214V102.208Z" fill="#E5AE4C"/>
<path d="M269.118 93.1309C269.118 93.1309 273.841 93.7545 275.625 98.1426" stroke="#F9CCA7" stroke-width="0.437821" stroke-linecap="round" stroke-linejoin="round"/>
</g>
<defs>
<linearGradient id="paint0_linear_1911_6479" x1="387.995" y1="-54.8433" x2="574.811" y2="630.661" gradientUnits="userSpaceOnUse">
<stop stop-color="#0088C3"/>
<stop offset="1" stop-color="#0F1F42"/>
</linearGradient>
<linearGradient id="paint1_linear_1911_6479" x1="292.484" y1="188.367" x2="346.938" y2="410.721" gradientUnits="userSpaceOnUse">
<stop stop-color="#C5C3FF"/>
<stop offset="0.51" stop-color="#833CF6"/>
<stop offset="1" stop-color="#6B00F8"/>
</linearGradient>
<linearGradient id="paint2_linear_1911_6479" x1="316.335" y1="251.851" x2="258.996" y2="329.365" gradientUnits="userSpaceOnUse">
<stop offset="0.18" stop-color="#F0F4F8"/>
<stop offset="0.48" stop-color="#BEF5FF"/>
<stop offset="1" stop-color="#0088C3"/>
</linearGradient>
<linearGradient id="paint3_linear_1911_6479" x1="325.234" y1="271.997" x2="766.53" y2="774.739" gradientUnits="userSpaceOnUse">
<stop offset="0.2" stop-color="#BEF5FF"/>
<stop offset="0.76" stop-color="#39C7DF"/>
</linearGradient>
<linearGradient id="paint4_linear_1911_6479" x1="189.373" y1="270.546" x2="531.109" y2="659.374" gradientUnits="userSpaceOnUse">
<stop offset="0.15" stop-color="#F0F4F8"/>
<stop offset="0.39" stop-color="#F0F4F8"/>
</linearGradient>
<linearGradient id="paint5_linear_1911_6479" x1="470.484" y1="217.732" x2="485.144" y2="264.333" gradientUnits="userSpaceOnUse">
<stop stop-color="#BEF5FF"/>
<stop offset="1" stop-color="#0088C3"/>
</linearGradient>
<linearGradient id="paint6_linear_1911_6479" x1="425.447" y1="257.683" x2="430.678" y2="301.663" gradientUnits="userSpaceOnUse">
<stop stop-color="#BEF5FF"/>
<stop offset="1" stop-color="#0088C3"/>
</linearGradient>
<linearGradient id="paint7_linear_1911_6479" x1="338.07" y1="229.795" x2="345.922" y2="356.504" gradientUnits="userSpaceOnUse">
<stop offset="0.3" stop-color="#BEF5FF"/>
<stop offset="0.47" stop-color="#8CD8EF"/>
<stop offset="0.84" stop-color="#289FCF"/>
<stop offset="1" stop-color="#0088C3"/>
</linearGradient>
<linearGradient id="paint8_linear_1911_6479" x1="344.825" y1="233.727" x2="344.825" y2="529.035" gradientUnits="userSpaceOnUse">
<stop offset="0.25" stop-color="#DE97FF"/>
<stop offset="1" stop-color="#A827D8"/>
</linearGradient>
<linearGradient id="paint9_linear_1911_6479" x1="298.147" y1="351.405" x2="261.102" y2="430.802" gradientUnits="userSpaceOnUse">
<stop stop-color="#0088C3"/>
<stop offset="1" stop-color="#0F1F42"/>
</linearGradient>
<linearGradient id="paint10_linear_1911_6479" x1="365.536" y1="269.12" x2="369.67" y2="390.765" gradientUnits="userSpaceOnUse">
<stop offset="0.47" stop-color="#DE97FF"/>
<stop offset="0.53" stop-color="#B940DD"/>
<stop offset="1" stop-color="#8C00BC"/>
</linearGradient>
<linearGradient id="paint11_linear_1911_6479" x1="319.236" y1="233.728" x2="319.236" y2="529.036" gradientUnits="userSpaceOnUse">
<stop offset="0.14" stop-color="#F0F4F8"/>
<stop offset="0.44" stop-color="#DE97FF"/>
<stop offset="0.83" stop-color="#A827D8"/>
</linearGradient>
<linearGradient id="paint12_linear_1911_6479" x1="329.588" y1="193.244" x2="308.727" y2="141.874" gradientUnits="userSpaceOnUse">
<stop offset="0.52" stop-color="#FFE2C7"/>
<stop offset="0.74" stop-color="#D3B091"/>
<stop offset="0.91" stop-color="#B68F6D"/>
<stop offset="1" stop-color="#AB8360"/>
</linearGradient>
<linearGradient id="paint13_linear_1911_6479" x1="231.24" y1="392.99" x2="276.456" y2="549.96" gradientUnits="userSpaceOnUse">
<stop offset="0.2" stop-color="#0088C3"/>
<stop offset="0.24" stop-color="#0372A8"/>
<stop offset="0.33" stop-color="#094571"/>
<stop offset="0.4" stop-color="#0D294E"/>
<stop offset="0.44" stop-color="#0F1F42"/>
</linearGradient>
<linearGradient id="paint14_linear_1911_6479" x1="197.377" y1="369.02" x2="217.666" y2="514.575" gradientUnits="userSpaceOnUse">
<stop stop-color="#0088C3"/>
<stop offset="1" stop-color="#0F1F42"/>
</linearGradient>
<linearGradient id="paint15_linear_1911_6479" x1="320.95" y1="235.223" x2="335.067" y2="342.67" gradientUnits="userSpaceOnUse">
<stop offset="0.2" stop-color="#BEF5FF"/>
<stop offset="0.76" stop-color="#39C7DF"/>
</linearGradient>
<linearGradient id="paint16_linear_1911_6479" x1="364.642" y1="374.958" x2="565.355" y2="556.9" gradientUnits="userSpaceOnUse">
<stop offset="0.2" stop-color="#BEF5FF"/>
<stop offset="0.6" stop-color="#39C7DF"/>
</linearGradient>
<linearGradient id="paint17_linear_1911_6479" x1="258.436" y1="430.306" x2="369.642" y2="430.306" gradientUnits="userSpaceOnUse">
<stop offset="0.2" stop-color="#BEF5FF"/>
<stop offset="0.76" stop-color="#39C7DF"/>
</linearGradient>
<linearGradient id="paint18_linear_1911_6479" x1="277.588" y1="101.987" x2="365.392" y2="219.948" gradientUnits="userSpaceOnUse">
<stop offset="0.09" stop-color="#BEF5FF"/>
<stop offset="0.47" stop-color="#6DD2F2"/>
</linearGradient>
<linearGradient id="paint19_linear_1911_6479" x1="234.249" y1="25.6512" x2="330.483" y2="25.6512" gradientUnits="userSpaceOnUse">
<stop stop-color="#BEF5FF"/>
<stop offset="1" stop-color="#0088C3"/>
</linearGradient>
<linearGradient id="paint20_linear_1911_6479" x1="263.904" y1="42.9446" x2="334.467" y2="75.5615" gradientUnits="userSpaceOnUse">
<stop stop-color="#0088C3"/>
<stop offset="1" stop-color="#0F1F42"/>
</linearGradient>
<linearGradient id="paint21_linear_1911_6479" x1="55.4245" y1="177.309" x2="185.684" y2="304.757" gradientUnits="userSpaceOnUse">
<stop stop-color="#F0F4F8"/>
<stop offset="0.54" stop-color="#BEF5FF"/>
<stop offset="0.96" stop-color="#39C7DF"/>
</linearGradient>
<linearGradient id="paint22_linear_1911_6479" x1="110.832" y1="222.075" x2="150.677" y2="270.051" gradientUnits="userSpaceOnUse">
<stop offset="0.06" stop-color="white"/>
<stop offset="0.46" stop-color="#FFCE4E"/>
<stop offset="0.94" stop-color="#C69024"/>
</linearGradient>
<linearGradient id="paint23_linear_1911_6479" x1="121.027" y1="213.629" x2="160.873" y2="261.599" gradientUnits="userSpaceOnUse">
<stop offset="0.06" stop-color="white"/>
<stop offset="0.46" stop-color="#FFCE4E"/>
<stop offset="0.94" stop-color="#C69024"/>
</linearGradient>
<linearGradient id="paint24_linear_1911_6479" x1="226.655" y1="64.4991" x2="252.078" y2="104.847" gradientUnits="userSpaceOnUse">
<stop offset="0.28" stop-color="#0088C3"/>
<stop offset="1" stop-color="#0F1F42"/>
</linearGradient>
<linearGradient id="paint25_linear_1911_6479" x1="218.093" y1="69.8925" x2="243.515" y2="110.246" gradientUnits="userSpaceOnUse">
<stop offset="0.32" stop-color="#0088C3"/>
<stop offset="1" stop-color="#0F1F42"/>
</linearGradient>
<clipPath id="clip0_1911_6479">
<rect width="645" height="645" fill="white" transform="translate(0.317871 -101.316)"/>
</clipPath>
</defs>
</svg>
