<?xml version="1.0" encoding="utf-8"?>
<!-- Generator: Adobe Illustrator 21.0.0, SVG Export Plug-In . SVG Version: 6.00 Build 0)  -->
<svg version="1.1" id="Слой_1" xmlns="http://www.w3.org/2000/svg" xmlns:xlink="http://www.w3.org/1999/xlink" x="0px" y="0px"
	 viewBox="0 0 26 24" style="enable-background:new 0 0 26 24;" xml:space="preserve">
<style type="text/css">
	.st0{fill:#747575;}
</style>
<g>
	<polygon class="st0" points="23.7,2.5 19.7,2.5 19.7,0.5 17.7,0.5 17.7,6.5 19.7,6.5 19.7,4.5 21.7,4.5 21.7,20.5 3.7,20.5 
		3.7,4.5 4.7,4.5 4.7,2.5 1.7,2.5 1.7,22.5 23.7,22.5 	"/>
	<polygon class="st0" points="7.7,0.5 5.7,0.5 5.7,6.5 7.7,6.5 7.7,4.5 16.7,4.5 16.7,2.5 7.7,2.5 	"/>
	<rect x="9.7" y="8.5" class="st0" width="2" height="2"/>
	<rect x="13.7" y="8.5" class="st0" width="2" height="2"/>
	<rect x="17.7" y="8.5" class="st0" width="2" height="2"/>
	<rect x="5.7" y="12.5" class="st0" width="2" height="2"/>
	<rect x="9.7" y="12.5" class="st0" width="2" height="2"/>
	<rect x="13.7" y="12.5" class="st0" width="2" height="2"/>
	<rect x="17.7" y="12.5" class="st0" width="2" height="2"/>
	<rect x="5.7" y="16.5" class="st0" width="2" height="2"/>
	<rect x="9.7" y="16.5" class="st0" width="2" height="2"/>
	<rect x="13.7" y="16.5" class="st0" width="2" height="2"/>
	<rect x="17.7" y="16.5" class="st0" width="2" height="2"/>
</g>
</svg>
