<?xml version="1.0" encoding="utf-8"?>
<!-- Generator: Adobe Illustrator 21.0.0, SVG Export Plug-In . SVG Version: 6.00 Build 0)  -->
<svg version="1.1" id="Слой_1" xmlns="http://www.w3.org/2000/svg" xmlns:xlink="http://www.w3.org/1999/xlink" x="0px" y="0px"
	 viewBox="0 0 26 24" style="enable-background:new 0 0 26 24;" xml:space="preserve">
<style type="text/css">
	.st0{fill:#ffffff;}
</style>
<path class="st0" d="M25.9,6.9L23,1.2c-0.1-0.4-0.5-0.9-1.6-0.9H5.1c-1,0-1.4,0.5-1.5,0.9L0.1,6.7C0,7,0,7.3,0.1,7.6
	C-0.1,8,0,8.5,0.3,8.9L11.4,23c0.4,0.5,1,0.8,1.7,0.8c0.6,0,1.1-0.2,1.4-0.7L25.7,8.9C26,8.5,26,8,25.9,7.6C26,7.4,26,7.1,25.9,6.9z
	 M23.5,6.5h-5l1-4.2c0,0,0-0.1,0-0.1h1.8L23.5,6.5z M10,6.5L9.1,2.2h8.4l-1,4.3H10z M16,8.5l-2.8,12.1L10.5,8.5H16z M5.3,2.2h1.8
	c0,0,0,0,0,0.1L8,6.5H2.6L5.3,2.2z M8.4,8.5l2.3,10.3L2.6,8.5H8.4z M15.7,18.3L18,8.5h5.3L15.7,18.3z"/>
</svg>
