<svg xmlns="http://www.w3.org/2000/svg" width="35" height="35" viewBox="0 0 35 35"><g><g opacity=".61"><path fill="#a9a9a9" d="M35 17.5C35 27.173 27.17 35 17.5 35 7.825 35 0 27.172 0 17.5 0 7.827 7.828 0 17.5 0 27.172 0 35 7.827 35 17.5zm-2.334 0c0-8.363-6.804-15.167-15.167-15.167S2.333 9.137 2.333 17.5c0 8.362 6.803 15.166 15.166 15.166S32.666 25.862 32.666 17.5zm-8.049-5.468L19.15 17.5l5.467 5.467a1.166 1.166 0 1 1-1.65 1.65L17.5 19.15l-5.467 5.468a1.166 1.166 0 1 1-1.65-1.65L15.85 17.5l-5.468-5.468a1.166 1.166 0 1 1 1.65-1.65l5.467 5.468 5.468-5.468a1.166 1.166 0 1 1 1.65 1.65z"/></g></g></svg>