<svg xmlns="http://www.w3.org/2000/svg" width="25" height="25" viewBox="0 0 25 25"><g><g><path fill="#f1a606" d="M23.047 16.21V5.86a1.955 1.955 0 0 0-1.954-1.954h-1.269v.976a.977.977 0 0 1-1.953 0v-.976h-4.443v.976a.977.977 0 0 1-1.954 0v-.976H7.08v.976a.977.977 0 0 1-1.953 0v-.976h-1.22A1.955 1.955 0 0 0 1.952 5.86v15.235c0 1.076.876 1.953 1.953 1.953h17.187a1.956 1.956 0 0 0 1.954-1.953.976.976 0 1 1 1.952 0A3.91 3.91 0 0 1 21.093 25H3.906A3.91 3.91 0 0 1 0 21.094V5.859a3.91 3.91 0 0 1 3.907-3.906h1.22V.976a.977.977 0 1 1 1.954 0v.977h4.394V.976a.977.977 0 1 1 1.954 0v.977h4.443V.976a.977.977 0 1 1 1.953 0v.977h1.27a3.91 3.91 0 0 1 3.905 3.906v10.352a.977.977 0 0 1-1.952 0zM7.08 10.255a.977.977 0 1 1-1.954-.002.977.977 0 0 1 1.954.002zm7.52.976a.976.976 0 1 1 0-1.953.976.976 0 0 1 0 1.953zm5.224-.976a.976.976 0 1 1-1.953 0 .976.976 0 0 1 1.953 0zM7.08 14.502a.977.977 0 1 1-1.954-.001.977.977 0 0 1 1.954 0zm0 4.248a.977.977 0 1 1-1.955-.001.977.977 0 0 1 1.955 0zm4.248-8.496a.976.976 0 1 1-1.953 0 .976.976 0 0 1 1.953 0zm0 4.248a.976.976 0 1 1-1.953 0 .976.976 0 0 1 1.953 0zm0 4.248a.977.977 0 1 1-1.953 0 .977.977 0 0 1 1.953 0zm2.295-3.272c0-1.077.876-1.953 1.953-1.953h2.295c1.077 0 1.953.876 1.953 1.953v2.295a1.956 1.956 0 0 1-1.953 1.954h-2.295a1.955 1.955 0 0 1-1.953-1.954zm1.953 2.295h2.296l-.001-2.295h-2.295z"/></g></g></svg>