<svg 
 xmlns="http://www.w3.org/2000/svg"
 xmlns:xlink="http://www.w3.org/1999/xlink"
 width="16px" height="15px">
<path fill-rule="evenodd"  fill="rgb(255, 255, 255)"
 d="M14.962,14.117 L1.654,14.117 C1.196,14.117 0.823,13.744 0.823,13.286 L0.823,11.624 C0.823,11.166 1.196,10.793 1.654,10.793 L14.962,10.793 C15.420,10.793 15.793,11.166 15.793,11.624 L15.793,13.286 C15.793,13.744 15.420,14.117 14.962,14.117 ZM14.962,9.131 L1.654,9.131 C1.196,9.131 0.823,8.758 0.823,8.300 L0.823,6.639 C0.823,6.180 1.196,5.807 1.654,5.807 L14.962,5.807 C15.420,5.807 15.793,6.180 15.793,6.639 L15.793,8.300 C15.793,8.758 15.420,9.131 14.962,9.131 ZM14.962,4.146 L1.654,4.146 C1.196,4.146 0.823,3.773 0.823,3.315 L0.823,1.653 C0.823,1.195 1.196,0.822 1.654,0.822 L14.962,0.822 C15.420,0.822 15.793,1.195 15.793,1.653 L15.793,3.315 C15.793,3.773 15.420,4.146 14.962,4.146 Z"/>
</svg>