<svg 
 xmlns="http://www.w3.org/2000/svg"
 xmlns:xlink="http://www.w3.org/1999/xlink"
 width="11px" height="11px">
<path fill-rule="evenodd"  fill="rgb(255, 255, 255)"
 d="M5.495,-0.000 C2.460,-0.000 -0.009,2.469 -0.009,5.505 C-0.009,8.540 2.460,11.009 5.495,11.009 C8.531,11.009 11.000,8.540 11.000,5.505 C11.000,2.469 8.531,-0.000 5.495,-0.000 ZM8.113,8.352 C8.024,8.441 7.906,8.486 7.789,8.486 C7.671,8.486 7.554,8.441 7.465,8.352 L5.171,6.058 C5.085,5.972 5.037,5.856 5.037,5.734 L5.037,2.752 C5.037,2.499 5.242,2.294 5.495,2.294 C5.748,2.294 5.954,2.499 5.954,2.752 L5.954,5.544 L8.113,7.703 C8.293,7.883 8.293,8.173 8.113,8.352 Z"/>
</svg>