<svg 
 xmlns="http://www.w3.org/2000/svg"
 xmlns:xlink="http://www.w3.org/1999/xlink"
 width="18px" height="18px">
<path fill-rule="evenodd"  fill="rgb(116, 46, 83)"
 d="M11.305,8.500 L16.564,3.241 C17.145,2.660 17.145,1.718 16.564,1.138 L15.863,0.437 C15.282,-0.145 14.340,-0.145 13.759,0.437 L8.500,5.695 L3.241,0.435 C2.660,-0.145 1.718,-0.145 1.138,0.435 L0.436,1.137 C-0.145,1.718 -0.145,2.660 0.436,3.240 L5.696,8.500 L0.437,13.759 C-0.144,14.340 -0.144,15.282 0.437,15.862 L1.138,16.564 C1.719,17.145 2.661,17.145 3.241,16.564 L8.500,11.304 L13.759,16.564 C14.341,17.145 15.283,17.145 15.863,16.564 L16.564,15.862 C17.145,15.281 17.145,14.339 16.564,13.759 L11.305,8.500 Z"/>
</svg>