<svg 
 xmlns="http://www.w3.org/2000/svg"
 xmlns:xlink="http://www.w3.org/1999/xlink"
 width="10px" height="18px">
<path fill-rule="evenodd"  fill="#fff"
 d="M7.122,4.556 C7.146,4.529 7.258,4.441 7.700,4.441 L9.150,4.440 C9.621,4.440 10.005,4.057 10.005,3.586 L10.005,1.057 C10.005,0.587 9.622,0.203 9.151,0.203 L6.998,0.199 C5.670,0.199 4.540,0.637 3.732,1.465 C2.927,2.290 2.502,3.441 2.502,4.794 L2.502,6.158 L0.855,6.158 C0.383,6.158 -0.000,6.541 -0.000,7.011 L-0.000,9.736 C-0.000,10.207 0.383,10.590 0.855,10.590 L2.502,10.590 L2.502,16.948 C2.502,17.419 2.885,17.802 3.357,17.802 L6.180,17.802 C6.651,17.802 7.035,17.419 7.035,16.948 L7.035,10.590 L9.048,10.590 C9.519,10.590 9.903,10.207 9.903,9.736 L9.904,7.012 C9.904,6.702 9.735,6.416 9.464,6.265 C9.338,6.195 9.192,6.158 9.041,6.158 L7.035,6.158 L7.035,5.080 C7.035,4.729 7.082,4.601 7.122,4.556 Z"/>
</svg>