<svg 
 xmlns="http://www.w3.org/2000/svg"
 xmlns:xlink="http://www.w3.org/1999/xlink"
 width="11px" height="18px">
<path fill-rule="evenodd"  fill="rgb(208, 117, 165)"
 d="M2.183,17.627 L9.875,9.644 C10.053,9.460 10.151,9.214 10.151,8.946 C10.151,8.684 10.053,8.437 9.875,8.253 L2.190,0.278 C2.012,0.093 1.775,-0.008 1.522,-0.008 C1.269,-0.008 1.032,0.093 0.854,0.278 L0.288,0.865 C0.110,1.050 0.012,1.296 0.012,1.558 C0.012,1.821 0.110,2.067 0.288,2.251 L6.742,8.949 L0.281,15.654 C0.103,15.838 0.005,16.084 0.005,16.347 C0.005,16.610 0.103,16.855 0.281,17.040 L0.847,17.627 C1.215,18.009 1.815,18.009 2.183,17.627 Z"/>
</svg>