<svg 
 xmlns="http://www.w3.org/2000/svg"
 xmlns:xlink="http://www.w3.org/1999/xlink"
 width="17px" height="17px">
<path fill-rule="evenodd"  fill="#fff"
 d="M15.303,-0.000 L1.703,-0.000 C0.768,-0.000 0.003,0.765 0.003,1.700 L0.003,15.300 C0.003,16.235 0.768,17.000 1.703,17.000 L15.303,17.000 C16.238,17.000 17.003,16.235 17.003,15.300 L17.003,1.700 C17.003,0.765 16.238,-0.000 15.303,-0.000 ZM8.503,5.100 C10.373,5.100 11.903,6.629 11.903,8.500 C11.903,10.370 10.373,11.900 8.503,11.900 C6.633,11.900 5.103,10.370 5.103,8.500 C5.103,6.629 6.633,5.100 8.503,5.100 ZM2.128,15.300 C1.873,15.300 1.703,15.130 1.703,14.875 L1.703,7.650 L3.488,7.650 C3.403,7.905 3.403,8.245 3.403,8.500 C3.403,11.305 5.698,13.600 8.503,13.600 C11.308,13.600 13.603,11.305 13.603,8.500 C13.603,8.245 13.603,7.905 13.518,7.650 L15.303,7.650 L15.303,14.875 C15.303,15.130 15.133,15.300 14.878,15.300 L2.128,15.300 ZM15.303,3.824 C15.303,4.080 15.133,4.250 14.878,4.250 L13.178,4.250 C12.923,4.250 12.753,4.080 12.753,3.824 L12.753,2.125 C12.753,1.870 12.923,1.700 13.178,1.700 L14.878,1.700 C15.133,1.700 15.303,1.870 15.303,2.125 L15.303,3.824 Z"/>
</svg>