<svg 
 xmlns="http://www.w3.org/2000/svg"
 xmlns:xlink="http://www.w3.org/1999/xlink"
 width="113px" height="9px">
<path fill-rule="evenodd"  fill="rgb(122, 192, 212)"
 d="M104.476,6.070 C102.780,4.837 101.440,3.863 98.525,3.863 C95.610,3.863 94.271,4.837 92.575,6.070 C90.676,7.450 88.523,9.015 84.351,9.015 C80.179,9.015 78.026,7.450 76.126,6.070 C74.430,4.837 73.091,3.863 70.175,3.863 C67.260,3.863 65.920,4.837 64.224,6.070 C62.434,7.371 60.418,8.834 56.700,8.999 L56.700,9.015 C56.579,9.015 56.467,9.009 56.350,9.007 C56.233,9.009 56.120,9.015 56.000,9.015 L56.000,8.999 C52.282,8.834 50.265,7.371 48.476,6.070 C46.780,4.837 45.440,3.863 42.525,3.863 C39.610,3.863 38.271,4.837 36.575,6.070 C34.676,7.450 32.523,9.015 28.351,9.015 C24.178,9.015 22.026,7.450 20.126,6.070 C18.430,4.837 17.091,3.863 14.175,3.863 C11.260,3.863 9.920,4.837 8.224,6.070 C6.325,7.450 4.172,9.015 -0.000,9.015 L-0.000,5.151 C2.915,5.151 4.255,4.178 5.951,2.945 C7.850,1.565 10.003,-0.000 14.175,-0.000 C18.348,-0.000 20.500,1.565 22.400,2.945 C24.096,4.178 25.435,5.151 28.351,5.151 C31.266,5.151 32.605,4.178 34.301,2.945 C36.200,1.565 38.353,-0.000 42.525,-0.000 C46.698,-0.000 48.850,1.565 50.749,2.945 C52.375,4.127 53.677,5.068 56.350,5.144 C59.023,5.068 60.325,4.127 61.951,2.945 C63.850,1.565 66.003,-0.000 70.175,-0.000 C74.348,-0.000 76.500,1.565 78.400,2.945 C80.096,4.178 81.435,5.151 84.351,5.151 C87.266,5.151 88.605,4.178 90.301,2.945 C92.200,1.565 94.353,-0.000 98.525,-0.000 C102.698,-0.000 104.850,1.565 106.749,2.945 C108.445,4.178 109.785,5.151 112.700,5.151 L112.700,9.015 C108.527,9.015 106.375,7.450 104.476,6.070 Z"/>
</svg>