<svg 
 xmlns="http://www.w3.org/2000/svg"
 xmlns:xlink="http://www.w3.org/1999/xlink"
 width="19px" height="19px">
<path fill-rule="evenodd"  fill="rgb(255, 255, 255)"
 d="M17.596,14.405 L14.703,11.509 C15.229,10.456 15.579,9.227 15.579,7.999 C15.579,3.874 12.247,0.539 8.126,0.539 C4.005,0.539 0.673,3.874 0.673,7.999 C0.673,12.123 4.005,15.458 8.126,15.458 C9.354,15.458 10.581,15.107 11.633,14.580 L14.527,17.477 C15.404,18.354 16.719,18.354 17.596,17.477 C18.385,16.599 18.385,15.283 17.596,14.405 ZM8.126,13.703 C4.969,13.703 2.426,11.158 2.426,7.999 C2.426,4.839 4.969,2.294 8.126,2.294 C11.283,2.294 13.826,4.839 13.826,7.999 C13.826,11.158 11.283,13.703 8.126,13.703 Z"/>
</svg>