<svg 
 xmlns="http://www.w3.org/2000/svg"
 xmlns:xlink="http://www.w3.org/1999/xlink"
 width="17px" height="12px">
<path fill-rule="evenodd"  fill="rgb(255, 255, 255)"
 d="M10.775,5.671 L16.255,2.060 L16.255,9.135 L10.775,5.671 ZM0.030,0.864 C0.107,0.378 0.509,-0.000 1.016,-0.000 L15.239,-0.000 C15.746,-0.000 16.148,0.378 16.224,0.864 L8.127,6.199 L0.030,0.864 ZM-0.000,9.135 L-0.000,2.060 L5.480,5.671 L-0.000,9.135 ZM7.848,7.231 C7.933,7.287 8.030,7.314 8.127,7.314 C8.225,7.314 8.321,7.287 8.407,7.231 L9.844,6.284 L16.222,10.317 C16.144,10.800 15.744,11.175 15.239,11.175 L1.016,11.175 C0.511,11.175 0.111,10.800 0.032,10.317 L6.410,6.283 L7.848,7.231 Z"/>
</svg>