<svg 
 xmlns="http://www.w3.org/2000/svg"
 xmlns:xlink="http://www.w3.org/1999/xlink"
 width="17px" height="30px">
<path fill-rule="evenodd"  fill="rgb(122, 192, 212)"
 d="M3.656,29.520 L16.538,16.151 C16.835,15.842 16.999,15.430 16.999,14.982 C16.999,14.542 16.835,14.130 16.538,13.822 L3.668,0.465 C3.370,0.156 2.973,-0.014 2.549,-0.014 C2.125,-0.014 1.728,0.156 1.430,0.465 L0.482,1.449 C0.185,1.758 0.020,2.170 0.020,2.610 C0.020,3.050 0.185,3.462 0.482,3.771 L11.290,14.987 L0.470,26.214 C0.173,26.523 0.008,26.936 0.008,27.375 C0.008,27.815 0.173,28.227 0.470,28.536 L1.418,29.520 C2.035,30.160 3.039,30.160 3.656,29.520 Z"/>
</svg>