<svg 
 xmlns="http://www.w3.org/2000/svg"
 xmlns:xlink="http://www.w3.org/1999/xlink"
 width="14px" height="14px">
<path fill-rule="evenodd"  fill="rgb(255, 255, 255)"
 d="M12.702,10.053 L10.887,8.240 C10.238,7.592 9.136,7.851 8.877,8.693 C8.683,9.276 8.034,9.600 7.451,9.470 C6.154,9.146 4.404,7.462 4.080,6.103 C3.885,5.520 4.274,4.872 4.858,4.678 C5.700,4.419 5.960,3.318 5.311,2.670 L3.496,0.857 C2.978,0.404 2.200,0.404 1.746,0.857 L0.514,2.087 C-0.718,3.382 0.644,6.815 3.691,9.859 C6.738,12.903 10.174,14.327 11.470,13.032 L12.702,11.802 C13.156,11.284 13.156,10.507 12.702,10.053 Z"/>
</svg>