<svg 
 xmlns="http://www.w3.org/2000/svg"
 xmlns:xlink="http://www.w3.org/1999/xlink"
 width="8px" height="12px">
<path fill-rule="evenodd"  fill="rgb(255, 255, 255)"
 d="M4.004,0.460 C1.796,0.460 -0.000,2.257 -0.000,4.464 C-0.000,7.204 3.583,11.226 3.736,11.396 C3.879,11.556 4.129,11.556 4.273,11.396 C4.425,11.226 8.008,7.204 8.008,4.464 C8.008,2.257 6.212,0.460 4.004,0.460 ZM4.004,6.478 C2.893,6.478 1.990,5.575 1.990,4.464 C1.990,3.353 2.893,2.449 4.004,2.449 C5.115,2.449 6.019,3.353 6.019,4.464 C6.019,5.575 5.115,6.478 4.004,6.478 Z"/>
</svg>