<svg 
 xmlns="http://www.w3.org/2000/svg"
 xmlns:xlink="http://www.w3.org/1999/xlink"
 width="18px" height="30px">
<path fill-rule="evenodd"  fill="rgb(122, 192, 212)"
 d="M13.882,0.473 L0.692,13.675 C0.387,13.980 0.220,14.387 0.220,14.830 C0.220,15.264 0.387,15.671 0.692,15.976 L13.869,29.165 C14.175,29.470 14.581,29.638 15.015,29.638 C15.449,29.638 15.856,29.470 16.160,29.165 L17.131,28.194 C17.436,27.888 17.604,27.481 17.604,27.047 C17.604,26.613 17.436,26.206 17.131,25.901 L6.065,14.826 L17.144,3.738 C17.448,3.433 17.616,3.026 17.616,2.592 C17.616,2.157 17.448,1.750 17.144,1.445 L16.173,0.473 C15.541,-0.158 14.514,-0.158 13.882,0.473 Z"/>
</svg>