<svg 
 xmlns="http://www.w3.org/2000/svg"
 xmlns:xlink="http://www.w3.org/1999/xlink"
 width="44px" height="44px">
<path fill-rule="evenodd"  fill="rgb(177, 69, 123)"
 d="M37.391,44.000 C36.659,44.000 35.621,44.000 35.197,44.000 C30.022,43.988 27.176,41.768 27.483,36.856 C27.988,32.430 34.567,32.158 33.033,26.441 C32.739,25.181 33.568,23.369 35.457,23.368 C35.903,23.377 36.530,23.355 37.094,23.381 C38.101,23.400 39.265,24.121 40.127,24.978 C40.867,25.715 41.424,26.456 41.844,27.135 C42.623,28.505 44.190,31.657 43.986,36.776 C43.691,38.959 42.408,43.838 37.391,44.000 ZM40.214,28.445 C39.907,27.903 39.497,27.311 38.955,26.721 C38.324,26.035 37.470,25.457 36.732,25.442 C36.838,25.448 36.254,25.432 36.254,25.432 C35.073,25.432 35.084,26.237 35.300,27.246 C35.780,29.197 34.923,30.922 33.723,32.308 C33.244,32.861 32.718,33.369 32.209,33.859 C32.223,33.846 32.237,33.833 32.251,33.820 C31.026,34.996 29.896,36.052 29.786,37.286 C29.471,40.052 31.403,41.802 34.946,41.929 C35.518,41.924 35.866,41.471 35.890,40.874 C35.911,40.237 35.310,39.895 34.951,39.856 C32.884,39.704 31.981,38.645 32.111,37.160 C32.173,36.346 33.211,35.333 34.233,34.346 C35.941,34.785 38.668,35.058 41.708,33.694 C41.450,31.035 40.660,29.301 40.214,28.445 ZM36.933,19.250 C37.782,19.250 38.470,19.943 38.470,20.797 C38.470,21.650 37.782,22.344 36.933,22.344 L35.907,22.344 C35.057,22.344 34.368,21.650 34.368,20.797 C34.368,19.943 35.057,19.250 35.907,19.250 L36.933,19.250 ZM41.105,14.519 C40.710,14.687 40.286,14.755 39.914,14.873 C37.358,15.674 38.537,18.185 36.701,18.217 C36.361,18.217 35.923,18.229 35.629,18.231 C32.979,18.005 34.194,15.023 28.857,14.522 L28.857,11.013 C32.552,11.062 36.850,11.347 39.978,11.819 C41.903,12.183 42.349,14.248 41.105,14.519 ZM12.427,19.215 L13.766,19.937 L12.427,20.660 L11.706,21.999 L10.985,20.660 L9.645,19.937 L10.985,19.215 L11.706,17.875 L12.427,19.215 ZM7.586,15.124 L5.903,11.996 L2.778,10.312 L5.903,8.628 L7.586,5.500 L9.268,8.628 L12.392,10.312 L9.268,11.996 L7.586,15.124 ZM35.742,6.875 C35.742,4.596 33.897,2.750 31.621,2.750 L20.633,2.750 L20.633,35.750 L23.675,35.750 C23.496,36.398 23.380,37.085 23.380,37.812 C23.380,38.048 23.414,38.271 23.434,38.500 L4.151,38.500 C1.875,38.500 0.031,36.653 0.031,34.375 L0.031,12.558 C1.090,13.129 2.119,13.675 2.778,14.023 L2.778,31.625 C2.778,33.903 4.622,35.750 6.898,35.750 L17.886,35.750 L17.886,2.750 L9.802,2.750 C9.278,1.777 8.740,0.777 8.324,0.004 L6.840,0.005 C6.366,0.886 5.734,2.061 5.146,3.155 C3.834,3.775 2.914,5.063 2.807,6.585 C2.149,6.933 1.105,7.488 0.031,8.066 L0.031,4.125 C0.031,1.846 1.875,-0.000 4.151,-0.000 L34.368,-0.000 C36.644,-0.000 38.489,1.846 38.489,4.125 C38.489,4.650 38.489,5.659 38.489,7.495 C37.620,7.390 36.698,7.296 35.742,7.217 C35.742,7.100 35.742,6.978 35.742,6.875 ZM27.489,11.081 L27.489,14.372 C26.458,14.193 26.145,13.840 26.110,13.248 C26.137,13.132 26.122,12.975 26.129,12.660 C26.154,11.840 26.622,11.257 27.489,11.081 ZM29.840,17.593 C30.072,17.203 30.225,16.836 30.346,16.482 C31.282,16.857 31.779,17.350 32.160,17.821 C31.062,19.234 29.693,20.457 28.305,21.420 C26.950,22.363 25.825,22.072 26.219,21.304 C28.743,19.184 29.197,18.670 29.840,17.593 Z"/>
</svg>