<svg 
 xmlns="http://www.w3.org/2000/svg"
 xmlns:xlink="http://www.w3.org/1999/xlink"
 width="38px" height="43px">
<path fill-rule="evenodd"  fill="rgb(177, 69, 123)"
 d="M37.847,9.747 L37.264,10.721 L35.249,9.596 L35.831,8.621 C36.152,8.083 36.864,7.900 37.420,8.211 C37.977,8.520 38.168,9.209 37.847,9.747 ZM36.431,11.122 C37.048,11.466 37.201,12.327 36.773,13.045 L35.609,14.994 L34.445,16.942 C34.445,16.942 32.907,19.507 31.332,22.132 L27.990,20.266 L27.602,20.916 L30.943,22.781 C30.678,23.224 30.419,23.656 30.165,24.078 L26.826,22.215 L26.438,22.865 L29.776,24.727 C28.794,26.365 28.033,27.634 27.992,27.703 C27.760,28.103 26.967,29.261 26.487,29.792 C26.309,29.987 26.105,30.175 25.910,30.365 L23.331,28.925 C23.402,28.667 23.466,28.402 23.551,28.157 C23.781,27.491 24.415,26.250 24.650,25.846 C24.638,25.867 31.093,15.071 31.093,15.071 L32.256,13.122 L33.420,11.173 C33.849,10.456 34.696,10.154 35.313,10.498 L36.431,11.122 ZM31.496,12.448 C31.106,12.231 30.531,12.487 30.212,13.021 L29.119,14.840 L28.231,16.324 C28.231,16.324 27.727,17.240 27.877,17.785 C27.928,17.971 27.895,18.202 27.770,18.412 C27.555,18.770 27.152,18.933 26.869,18.775 C26.585,18.617 26.529,18.198 26.743,17.839 L31.124,10.511 C31.492,9.897 32.186,9.617 32.674,9.889 L33.116,10.134 L31.687,12.554 C31.594,12.503 31.496,12.448 31.496,12.448 ZM28.395,9.406 C28.395,7.922 27.167,6.719 25.653,6.719 L25.653,4.031 L28.395,4.031 C29.675,4.031 30.741,4.895 31.042,6.058 L28.395,10.212 L28.395,9.406 ZM25.352,30.919 C25.503,30.774 23.072,32.245 23.072,32.245 C23.072,32.245 23.173,29.479 23.118,29.672 L25.352,30.919 ZM20.171,8.062 L11.948,8.062 C10.434,8.062 9.207,6.859 9.207,5.375 C9.207,3.891 10.434,2.687 11.948,2.687 L12.200,2.687 C12.766,1.125 14.272,-0.000 16.060,-0.000 C17.847,-0.000 19.353,1.125 19.919,2.687 L20.171,2.687 C21.685,2.687 22.912,3.891 22.912,5.375 C22.912,6.859 21.685,8.062 20.171,8.062 ZM16.060,1.344 C15.303,1.344 14.689,1.946 14.689,2.687 C14.689,3.430 15.303,4.031 16.060,4.031 C16.816,4.031 17.430,3.430 17.430,2.687 C17.430,1.946 16.816,1.344 16.060,1.344 ZM10.577,21.500 L14.689,21.500 C15.446,21.500 16.060,22.101 16.060,22.844 C16.060,23.585 15.446,24.187 14.689,24.187 L10.577,24.187 C9.821,24.187 9.207,23.585 9.207,22.844 C9.207,22.101 9.821,21.500 10.577,21.500 ZM10.577,14.781 L20.171,14.781 C20.928,14.781 21.542,15.382 21.542,16.125 C21.542,16.866 20.928,17.469 20.171,17.469 L10.577,17.469 C9.821,17.469 9.207,16.866 9.207,16.125 C9.207,15.382 9.821,14.781 10.577,14.781 ZM3.725,9.406 C3.725,9.406 3.725,23.000 3.725,30.906 L10.577,30.906 C12.091,30.906 13.318,32.109 13.318,33.593 L13.318,40.312 C18.683,40.312 25.653,40.312 25.653,40.312 C27.167,40.312 28.395,39.109 28.395,37.625 L28.395,31.712 L31.136,27.412 L31.136,40.312 C31.136,41.796 29.908,43.000 28.395,43.000 L17.259,43.000 L14.689,43.000 L3.725,43.000 C2.211,43.000 0.983,41.796 0.983,40.312 L0.983,30.906 L0.983,28.218 L0.983,6.719 C0.983,5.234 2.211,4.031 3.725,4.031 L6.466,4.031 L6.466,6.719 C4.952,6.719 3.725,7.922 3.725,9.406 ZM10.577,38.968 L10.577,36.281 C10.577,34.797 9.350,33.593 7.836,33.593 L5.095,33.593 L10.577,38.968 Z"/>
</svg>