<svg 
 xmlns="http://www.w3.org/2000/svg"
 xmlns:xlink="http://www.w3.org/1999/xlink"
 width="44px" height="43px">
<path fill-rule="evenodd"  fill="rgb(177, 69, 123)"
 d="M42.009,28.284 C40.892,25.654 39.412,23.019 39.412,23.019 L34.949,15.347 C33.742,13.625 31.373,13.988 30.367,14.527 C29.566,14.958 29.420,15.074 29.420,15.074 L28.430,13.652 C27.058,11.717 25.239,12.187 24.101,12.834 C23.316,13.282 23.056,13.694 23.056,13.694 L22.464,13.147 C21.331,12.102 19.271,12.569 18.418,13.137 C17.507,13.742 16.796,14.992 17.248,16.405 L17.379,16.691 C17.379,16.691 16.162,16.680 14.870,17.570 C13.275,18.668 13.567,20.983 14.100,22.150 L15.535,24.635 L17.357,27.768 C17.357,27.768 17.490,28.067 18.320,29.503 C16.086,29.378 14.457,29.851 13.547,31.405 C12.612,33.002 12.965,36.057 15.686,36.858 C12.981,37.841 10.426,38.127 9.562,36.411 C7.355,32.628 4.770,28.174 1.838,23.159 C0.057,20.253 1.167,15.507 4.043,14.121 C11.644,10.437 17.689,11.964 26.644,7.318 C30.114,5.499 34.222,4.374 35.384,6.757 C37.537,10.468 40.142,14.899 43.139,19.951 C44.676,22.362 44.063,26.289 42.009,28.284 ZM17.814,6.744 L17.165,4.054 L14.452,3.382 L17.165,2.709 L17.814,0.020 L18.510,2.709 L21.175,3.382 L18.510,4.054 L17.814,6.744 ZM5.700,9.433 L4.389,6.037 L0.993,4.727 L4.389,3.416 L5.700,0.020 L7.011,3.416 L10.406,4.727 L7.011,6.037 L5.700,9.433 ZM16.494,32.286 C17.524,31.595 19.036,31.545 20.889,32.577 C22.735,33.607 22.922,34.353 23.291,34.124 C23.494,33.570 19.670,27.152 19.670,27.152 L17.987,24.244 L16.585,21.820 C16.120,21.017 16.396,19.990 17.200,19.525 C18.006,19.062 19.035,19.337 19.500,20.140 L20.902,22.564 L22.571,25.464 L23.972,27.884 C24.126,28.152 24.469,28.242 24.737,28.088 C25.006,27.934 25.098,27.591 24.943,27.325 L23.543,24.903 L20.191,19.096 L19.349,17.642 C18.884,16.838 19.161,15.812 19.965,15.348 C20.771,14.884 21.799,15.159 22.264,15.962 L23.106,17.416 L26.458,23.225 L27.858,25.645 C28.013,25.913 28.356,26.003 28.624,25.849 C28.893,25.695 28.985,25.352 28.830,25.086 L27.430,22.665 L25.761,19.765 L24.358,17.341 C23.893,16.539 24.169,15.512 24.974,15.047 C25.779,14.584 26.808,14.859 27.273,15.663 L28.676,18.086 L30.904,21.952 L32.305,24.374 C32.459,24.640 32.802,24.732 33.071,24.577 C33.340,24.424 33.431,24.081 33.277,23.814 L31.876,21.393 L30.489,18.980 C30.024,18.178 30.300,17.151 31.105,16.688 C31.910,16.224 32.939,16.498 33.404,17.302 L37.033,23.588 C37.033,23.588 38.657,26.555 39.713,29.223 C40.715,31.755 41.121,33.781 41.303,35.338 C41.402,36.949 41.203,39.301 37.135,41.634 C33.623,43.652 31.491,43.166 28.907,42.072 C22.481,39.352 21.283,35.949 17.202,34.992 C15.899,34.686 15.054,33.252 16.494,32.286 Z"/>
</svg>