<svg 
 xmlns="http://www.w3.org/2000/svg"
 xmlns:xlink="http://www.w3.org/1999/xlink"
 width="31px" height="43px">
<path fill-rule="evenodd"  fill="rgb(177, 69, 123)"
 d="M28.048,42.999 L2.952,42.999 L-0.000,29.320 C-0.000,25.279 3.901,24.418 9.461,24.240 C9.727,25.105 12.913,35.441 13.478,36.285 C14.236,37.629 16.848,37.629 17.522,36.285 C17.804,35.799 19.238,31.418 20.317,28.066 C21.480,27.862 22.479,27.426 23.179,26.834 C25.008,26.702 26.539,26.079 27.638,25.058 C29.741,25.759 31.000,27.026 31.000,29.320 L28.048,42.999 ZM27.407,18.545 L27.407,20.325 C27.407,22.721 25.394,24.662 22.913,24.662 L20.977,24.662 C20.668,25.167 19.845,25.530 18.869,25.530 C17.630,25.530 16.624,24.948 16.624,24.228 C16.624,23.510 17.630,22.928 18.869,22.928 C19.846,22.928 20.668,23.291 20.977,23.795 L22.705,23.795 C24.806,23.795 26.506,22.131 26.506,20.078 L26.506,18.806 C26.007,18.787 25.609,18.565 25.609,18.308 C25.609,17.300 25.801,16.534 25.801,14.763 C25.801,13.001 25.597,12.237 25.609,11.243 C25.609,10.975 26.040,10.739 26.572,10.739 C26.640,10.739 26.700,10.752 26.764,10.759 C26.764,10.756 26.764,10.739 26.764,10.739 C26.805,10.739 26.839,10.767 26.880,10.772 C26.966,10.787 27.040,10.811 27.114,10.838 C27.790,11.064 28.304,11.876 28.304,12.892 L28.304,16.660 C28.304,17.519 27.928,18.208 27.407,18.545 ZM6.659,11.396 C6.745,10.988 6.768,10.728 6.739,10.726 C6.192,5.725 15.468,1.904 17.522,5.394 C20.204,4.310 24.111,6.767 24.261,10.726 C24.261,10.743 24.277,10.826 24.299,10.938 C24.378,11.926 24.550,12.936 24.550,14.756 C24.550,17.117 24.261,18.139 24.261,19.485 C24.261,19.522 24.295,19.555 24.308,19.592 C22.260,20.054 20.217,20.170 20.217,20.170 C20.217,20.170 20.336,20.029 20.521,19.583 C19.200,20.777 17.440,21.512 15.500,21.512 C13.513,21.512 11.713,20.743 10.382,19.498 C10.622,19.987 10.783,20.170 10.783,20.170 C10.783,20.170 8.760,19.998 6.723,19.521 C6.724,19.509 6.739,19.497 6.739,19.485 C6.739,18.139 6.450,17.117 6.450,14.756 C6.450,13.213 6.574,12.255 6.659,11.396 ZM22.803,10.037 C22.822,9.929 22.830,9.863 22.824,9.858 C22.804,9.843 22.787,9.833 22.767,9.819 C22.781,9.890 22.791,9.964 22.803,10.037 ZM9.435,14.125 C9.435,17.462 12.150,20.170 15.500,20.170 C18.850,20.170 21.565,17.462 21.565,14.125 L21.565,11.439 C21.565,10.715 21.418,10.030 21.184,9.388 C20.922,9.393 20.609,9.408 20.217,9.424 C19.072,9.048 17.572,8.080 17.522,8.080 C16.534,8.357 16.841,10.341 9.435,11.854 L9.435,14.125 ZM25.685,6.673 C25.909,6.763 25.428,6.684 25.111,6.041 C24.661,5.229 22.329,1.270 15.463,1.293 C8.644,1.315 6.385,5.168 5.876,6.030 C5.842,6.097 5.529,6.795 4.929,6.708 C4.832,6.673 3.955,6.418 4.160,5.836 C5.902,2.442 10.571,-0.044 15.503,-0.002 C20.436,-0.032 25.085,2.460 26.817,5.843 C27.033,6.453 26.001,6.800 25.685,6.673 ZM2.696,17.482 C2.701,17.479 2.705,17.476 2.711,17.473 C2.711,17.485 2.713,17.496 2.714,17.509 C2.709,17.500 2.700,17.492 2.696,17.482 ZM4.236,10.759 C4.300,10.752 4.360,10.739 4.428,10.739 C4.960,10.739 5.391,10.991 5.391,11.243 C5.391,12.253 5.199,13.001 5.199,14.763 C5.199,16.534 5.391,17.300 5.391,18.308 C5.391,18.577 4.960,18.814 4.428,18.814 C4.360,18.814 4.300,18.800 4.235,18.793 C4.235,18.796 4.236,18.814 4.236,18.814 C4.195,18.814 4.160,18.785 4.120,18.781 C4.034,18.766 3.960,18.742 3.887,18.715 C3.210,18.489 2.696,17.677 2.696,16.660 L2.696,12.892 C2.696,11.876 3.209,11.064 3.886,10.838 C3.960,10.811 4.034,10.787 4.120,10.772 C4.160,10.767 4.195,10.739 4.236,10.739 C4.236,10.739 4.236,10.756 4.236,10.759 Z"/>
</svg>