<svg 
 xmlns="http://www.w3.org/2000/svg"
 xmlns:xlink="http://www.w3.org/1999/xlink"
 width="53px" height="33px">
<path fill-rule="evenodd"  fill="rgb(177, 69, 123)"
 d="M51.344,14.858 C50.429,14.858 49.687,14.121 49.687,13.211 L49.687,3.328 C49.687,2.418 50.429,1.682 51.344,1.682 C52.258,1.682 53.000,2.418 53.000,3.328 L53.000,13.211 C53.000,14.121 52.258,14.858 51.344,14.858 ZM42.024,17.669 L41.868,17.806 L43.947,20.172 C45.061,21.438 44.969,23.384 43.740,24.515 C42.512,25.648 40.612,25.538 39.498,24.271 L38.153,22.741 C38.153,22.741 38.153,22.741 38.153,22.741 L37.319,21.793 L37.319,21.793 L38.153,22.741 C39.267,24.009 39.174,25.955 37.946,27.085 C36.717,28.219 34.818,28.108 33.703,26.841 L32.771,25.780 L32.723,25.822 C33.430,27.059 33.224,28.667 32.151,29.656 C31.041,30.679 29.390,30.678 28.258,29.736 L27.269,30.604 C27.141,31.209 26.841,31.781 26.358,32.226 C25.128,33.358 23.230,33.249 22.115,31.981 L18.559,27.938 C17.464,28.670 16.015,28.590 15.011,27.624 C13.811,26.468 13.708,24.503 14.759,23.196 C14.758,23.194 14.757,23.192 14.755,23.191 L13.472,24.715 C12.373,26.022 10.496,26.131 9.281,24.959 C8.065,23.788 7.971,21.781 9.070,20.475 L10.853,18.356 C10.399,17.800 10.040,17.359 9.938,17.232 C9.590,16.798 7.693,15.503 6.601,15.069 C6.652,14.417 6.281,1.622 7.801,1.709 C9.320,1.798 11.277,1.738 12.545,1.682 C13.813,1.625 17.269,0.119 18.838,0.041 C20.451,0.083 23.161,1.223 25.945,2.862 C28.034,1.252 29.465,0.214 30.727,0.080 C31.379,-0.376 35.089,1.466 39.498,1.961 C41.088,1.965 43.708,1.919 45.254,1.603 C47.698,1.719 45.506,14.736 45.556,14.790 C43.721,15.384 42.024,17.669 42.024,17.669 ZM26.650,28.001 L26.660,27.990 L26.660,27.990 L26.650,28.001 C26.650,28.001 26.650,28.001 26.650,28.001 ZM39.257,17.723 L34.142,12.356 C32.099,12.231 30.091,11.361 28.876,9.172 C28.879,9.243 27.003,9.343 26.951,9.285 C26.145,11.469 24.321,13.845 23.513,13.805 C21.331,13.692 21.228,12.093 21.279,11.762 C21.803,8.357 21.725,6.052 22.161,5.733 C22.907,5.189 23.572,4.685 24.204,4.201 C21.841,2.995 19.874,2.473 18.736,2.349 C16.484,3.049 12.613,4.308 10.153,4.067 C9.161,3.971 8.749,12.674 8.897,13.053 C9.046,13.433 14.703,19.489 15.943,21.110 C18.031,23.841 19.949,26.275 20.263,26.629 L22.973,29.853 C23.721,30.698 24.662,31.077 25.074,30.700 C25.487,30.323 25.214,29.332 24.466,28.486 L21.756,25.425 C21.498,25.136 20.270,23.370 21.419,22.188 C21.879,21.715 23.378,20.425 25.302,23.014 L26.097,24.224 L28.806,27.285 C29.555,28.129 30.496,28.509 30.908,28.132 C31.321,27.755 31.048,26.763 30.300,25.919 L27.590,22.859 L26.713,21.687 C26.632,21.580 25.559,18.960 27.489,18.246 C27.770,18.141 28.799,17.758 29.444,18.358 L31.930,21.657 L34.640,24.716 C35.389,25.562 36.330,25.942 36.742,25.564 C37.154,25.187 36.882,24.197 36.133,23.350 L33.423,20.291 L31.207,17.387 C30.556,16.819 30.219,14.842 31.604,14.189 C33.111,13.478 36.147,17.251 35.413,16.556 L37.765,19.089 L40.475,22.149 C41.223,22.995 42.163,23.375 42.576,22.997 C42.988,22.619 42.715,21.629 41.968,20.784 L39.257,17.723 ZM22.586,23.358 L22.586,23.357 L22.586,23.357 L22.586,23.358 L22.586,23.358 ZM1.656,14.858 C0.742,14.858 -0.000,14.121 -0.000,13.211 L-0.000,3.328 C-0.000,2.418 0.742,1.682 1.656,1.682 C2.571,1.682 3.312,2.418 3.312,3.328 L3.312,13.211 C3.312,14.121 2.571,14.858 1.656,14.858 Z"/>
</svg>