<svg 
 xmlns="http://www.w3.org/2000/svg"
 xmlns:xlink="http://www.w3.org/1999/xlink"
 width="39px" height="46px">
<path fill-rule="evenodd"  fill="rgb(177, 69, 123)"
 d="M38.047,8.213 C37.568,17.583 36.190,29.186 36.190,29.186 C35.499,36.778 30.819,41.444 22.901,44.816 C21.605,45.377 20.425,45.905 19.235,45.894 C18.103,45.884 16.963,45.362 15.706,44.816 C7.634,41.456 3.104,36.752 2.413,29.186 C2.413,29.186 1.063,17.526 0.560,8.213 C0.440,7.800 0.369,5.720 2.528,5.122 C2.458,5.109 8.737,4.546 11.933,3.108 C15.559,1.436 17.429,0.281 19.300,0.283 C21.170,0.285 23.040,1.446 26.666,3.108 C29.708,4.629 36.102,5.161 36.078,5.160 C38.160,5.711 38.092,7.795 38.047,8.213 ZM32.349,8.246 C32.368,8.248 27.395,7.871 25.029,6.627 C22.208,5.266 20.754,4.259 19.300,4.256 C17.845,4.255 16.390,5.258 13.569,6.627 C11.084,7.803 6.200,8.205 6.255,8.217 C4.575,8.704 4.632,10.406 4.725,10.744 C5.116,18.365 6.165,28.265 6.165,28.265 C6.703,34.456 10.226,38.306 16.505,41.054 C17.482,41.501 18.368,41.927 19.250,41.935 C20.174,41.945 21.093,41.512 22.100,41.054 C28.259,38.296 31.899,34.477 32.437,28.265 C32.437,28.265 33.508,18.410 33.881,10.744 C33.916,10.403 33.969,8.698 32.349,8.246 ZM29.601,15.500 L9.863,26.756 C9.687,24.786 9.123,18.279 8.889,13.314 C8.822,13.053 8.782,11.732 9.982,11.352 C9.943,11.344 13.432,11.103 15.206,10.191 C17.221,9.129 18.260,8.275 19.300,8.277 C20.339,8.279 21.377,9.135 23.392,10.191 C25.082,11.156 28.634,11.377 28.621,11.375 C29.778,11.727 29.740,13.050 29.715,13.314 C29.683,14.019 29.644,14.753 29.601,15.500 ZM29.270,20.393 C28.982,24.210 28.684,27.363 28.684,27.363 C28.299,32.187 25.699,35.151 21.300,37.294 C20.580,37.649 19.924,37.985 19.263,37.977 C18.635,37.971 18.001,37.639 17.303,37.294 C14.064,35.752 11.869,33.753 10.745,30.957 C14.638,28.737 23.714,23.562 29.270,20.393 Z"/>
</svg>