<svg 
 xmlns="http://www.w3.org/2000/svg"
 xmlns:xlink="http://www.w3.org/1999/xlink"
 width="46px" height="43px">
<path fill-rule="evenodd"  fill="rgb(177, 69, 123)"
 d="M41.676,12.892 C41.676,12.892 32.319,9.434 22.993,9.434 C13.638,9.434 4.311,12.892 4.311,12.892 C1.931,12.892 0.045,12.847 -0.000,11.458 C-0.000,11.458 0.521,11.137 1.409,10.603 C5.740,8.170 20.119,-0.047 22.993,-0.015 C25.889,-0.027 40.181,8.125 44.505,10.560 C45.437,11.120 45.987,11.458 45.987,11.458 C45.942,12.847 44.056,12.892 41.676,12.892 ZM16.503,27.693 C15.775,29.020 15.225,30.373 14.823,31.705 C13.733,30.639 13.056,29.280 12.951,27.772 C12.490,21.106 17.296,17.572 23.476,16.183 C29.949,14.889 35.969,17.009 35.927,17.040 C27.423,22.982 30.938,31.623 24.592,33.465 C21.955,34.231 19.559,34.118 17.628,33.425 C17.283,34.917 17.147,36.117 17.099,36.762 C17.119,37.279 16.987,37.263 16.708,37.141 C16.507,37.014 16.336,36.955 16.117,36.769 C15.992,36.673 15.992,36.446 16.027,36.212 C16.068,35.676 16.139,35.126 16.240,34.566 C16.585,32.658 17.286,30.647 18.344,28.696 C21.313,23.228 26.698,20.046 27.760,19.491 C27.852,19.439 27.936,19.383 28.029,19.333 C28.037,19.279 19.910,21.484 16.503,27.693 ZM21.307,25.193 C21.321,25.172 21.338,25.153 21.353,25.132 C21.338,25.153 21.321,25.172 21.307,25.193 ZM22.161,24.111 C22.276,23.975 22.393,23.839 22.514,23.703 C22.394,23.839 22.276,23.974 22.161,24.111 ZM23.183,22.990 C23.317,22.854 23.443,22.716 23.583,22.582 C23.444,22.716 23.317,22.854 23.183,22.990 ZM26.167,20.489 C26.234,20.443 26.301,20.396 26.370,20.350 C26.301,20.396 26.235,20.443 26.167,20.489 ZM24.680,21.604 C24.802,21.503 24.934,21.405 25.060,21.305 C24.933,21.405 24.803,21.503 24.680,21.604 ZM5.748,21.496 C6.543,21.496 7.185,22.138 7.185,22.931 L7.185,40.140 L38.801,40.140 L38.801,22.931 C38.801,22.138 39.444,21.496 40.239,21.496 C41.033,21.496 41.676,22.138 41.676,22.931 L41.676,41.573 C41.676,42.365 41.033,43.007 40.239,43.007 L5.748,43.007 C4.954,43.007 4.311,42.365 4.311,41.573 L4.311,22.931 C4.311,22.138 4.954,21.496 5.748,21.496 Z"/>
</svg>