<svg 
 xmlns="http://www.w3.org/2000/svg"
 xmlns:xlink="http://www.w3.org/1999/xlink"
 width="33px" height="46px">
<path fill-rule="evenodd"  fill="rgb(177, 69, 123)"
 d="M32.853,33.011 C32.550,34.427 31.546,41.108 29.209,45.329 C29.051,45.540 28.882,45.667 28.701,45.758 C28.792,44.969 29.158,42.056 30.108,37.312 C30.875,33.481 27.286,27.366 25.429,24.527 C25.429,24.527 25.433,24.528 25.433,24.528 C30.648,26.533 33.717,27.531 32.853,33.011 ZM26.969,18.956 C24.401,19.853 21.842,18.549 21.476,18.351 C20.115,19.439 18.380,20.094 16.488,20.094 C14.587,20.094 12.844,19.434 11.480,18.336 C11.228,18.472 8.549,19.861 5.909,18.933 C4.430,18.502 3.339,16.483 5.416,12.973 C6.925,10.421 7.225,7.169 7.130,7.162 C7.358,5.325 8.182,3.311 9.972,2.007 C12.916,-0.139 17.258,-0.841 18.620,1.474 C21.478,0.318 25.642,2.939 25.801,7.162 C25.807,7.284 26.041,10.623 27.483,12.946 C29.618,16.383 28.456,18.513 26.969,18.956 ZM22.956,12.087 L22.956,9.458 C22.956,8.726 22.811,8.035 22.594,7.376 C22.222,7.381 21.847,7.368 21.492,7.205 C20.272,6.806 18.672,5.773 18.620,5.773 C17.567,6.067 17.895,8.182 10.019,9.795 L10.019,12.087 C10.019,15.717 12.915,18.660 16.488,18.660 C20.061,18.660 22.956,15.717 22.956,12.087 ZM8.580,10.099 L8.580,10.070 C8.575,10.070 8.571,10.071 8.566,10.072 C8.567,10.072 8.576,10.092 8.580,10.099 ZM2.868,37.312 C3.815,42.047 4.182,44.957 4.274,45.753 C4.088,45.669 3.922,45.556 3.792,45.370 C1.372,41.156 0.389,34.428 0.123,32.953 C-0.719,27.528 2.311,26.527 7.543,24.533 C5.685,27.374 2.101,33.484 2.868,37.312 ZM11.140,23.489 C11.234,23.791 11.332,24.095 11.439,24.401 C12.430,27.246 13.371,29.740 14.310,30.618 C15.208,31.848 17.543,31.893 18.619,30.618 C19.674,29.511 20.479,27.270 21.492,24.401 C21.599,24.098 21.697,23.797 21.791,23.498 C22.378,23.695 23.002,23.882 23.568,24.041 C24.817,26.720 26.400,33.203 22.475,34.067 C20.181,34.571 12.677,34.564 10.495,34.103 C6.547,33.267 8.119,26.713 9.396,24.029 C9.951,23.869 10.563,23.683 11.140,23.489 Z"/>
</svg>