<svg 
 xmlns="http://www.w3.org/2000/svg"
 xmlns:xlink="http://www.w3.org/1999/xlink"
 width="42px" height="49px">
<path fill-rule="evenodd"  fill="rgb(177, 69, 123)"
 d="M41.815,11.107 L41.155,12.217 L38.870,10.935 L39.530,9.824 C39.894,9.211 40.700,9.002 41.332,9.356 C41.963,9.709 42.179,10.494 41.815,11.107 ZM40.210,12.674 C40.910,13.066 41.083,14.047 40.597,14.865 L39.278,17.086 L37.958,19.307 C37.958,19.307 36.214,22.229 34.429,25.220 L30.639,23.094 L30.199,23.834 L33.988,25.960 C33.687,26.464 33.393,26.957 33.106,27.439 L29.320,25.315 L28.880,26.055 L32.665,28.178 C31.551,30.044 30.689,31.489 30.642,31.568 C30.378,32.024 29.480,33.343 28.935,33.949 C28.733,34.173 28.517,34.392 28.296,34.610 L25.357,32.961 C25.438,32.667 25.510,32.365 25.606,32.086 C25.867,31.327 26.586,29.913 26.852,29.452 C26.838,29.476 34.158,17.174 34.158,17.174 L35.476,14.954 L36.796,12.733 C37.282,11.915 38.243,11.571 38.942,11.963 L40.210,12.674 ZM34.615,14.185 C34.173,13.938 33.521,14.229 33.159,14.838 L31.920,16.911 L30.913,18.602 C30.913,18.602 30.341,19.646 30.511,20.266 C30.569,20.479 30.532,20.742 30.390,20.981 C30.147,21.389 29.689,21.575 29.368,21.395 C29.046,21.214 28.983,20.737 29.225,20.327 L34.193,11.977 C34.611,11.278 35.397,10.959 35.951,11.269 L36.451,11.549 L34.831,14.306 C34.726,14.248 34.615,14.185 34.615,14.185 ZM31.098,10.718 C31.098,9.027 29.707,7.656 27.990,7.656 L27.990,4.594 L31.098,4.594 C32.550,4.594 33.759,5.578 34.100,6.904 L31.098,11.637 L31.098,10.718 ZM27.649,35.234 C27.819,35.068 25.063,36.744 25.063,36.744 C25.063,36.744 25.178,33.592 25.116,33.813 L27.649,35.234 ZM21.774,9.187 L12.451,9.187 C10.734,9.187 9.343,7.816 9.343,6.124 C9.343,4.434 10.734,3.062 12.451,3.062 L12.736,3.062 C13.379,1.282 15.086,-0.000 17.113,-0.000 C19.139,-0.000 20.847,1.282 21.489,3.062 L21.774,3.062 C23.491,3.062 24.882,4.434 24.882,6.124 C24.882,7.816 23.491,9.187 21.774,9.187 ZM17.113,1.531 C16.254,1.531 15.559,2.218 15.559,3.062 C15.559,3.908 16.254,4.594 17.113,4.594 C17.971,4.594 18.666,3.908 18.666,3.062 C18.666,2.218 17.971,1.531 17.113,1.531 ZM10.897,24.500 L15.559,24.500 C16.417,24.500 17.113,25.185 17.113,26.031 C17.113,26.876 16.417,27.562 15.559,27.562 L10.897,27.562 C10.039,27.562 9.343,26.876 9.343,26.031 C9.343,25.185 10.039,24.500 10.897,24.500 ZM10.897,16.844 L21.774,16.844 C22.633,16.844 23.328,17.528 23.328,18.375 C23.328,19.220 22.633,19.906 21.774,19.906 L10.897,19.906 C10.039,19.906 9.343,19.220 9.343,18.375 C9.343,17.528 10.039,16.844 10.897,16.844 ZM3.127,10.718 C3.127,10.718 3.127,26.209 3.127,35.218 L10.897,35.218 C12.613,35.218 14.005,36.589 14.005,38.281 L14.005,45.937 C20.086,45.937 27.990,45.937 27.990,45.937 C29.707,45.937 31.098,44.566 31.098,42.875 L31.098,36.137 L34.206,31.237 L34.206,45.937 C34.206,47.628 32.815,49.000 31.098,49.000 L18.472,49.000 L15.559,49.000 L3.127,49.000 C1.410,49.000 0.019,47.628 0.019,45.937 L0.019,35.218 L0.019,32.156 L0.019,7.656 C0.019,5.965 1.410,4.594 3.127,4.594 L6.235,4.594 L6.235,7.656 C4.518,7.656 3.127,9.027 3.127,10.718 ZM10.897,44.406 L10.897,41.344 C10.897,39.652 9.505,38.281 7.789,38.281 L4.681,38.281 L10.897,44.406 Z"/>
</svg>