<svg 
 xmlns="http://www.w3.org/2000/svg"
 xmlns:xlink="http://www.w3.org/1999/xlink"
 width="51px" height="44px">
<path fill-rule="evenodd"  fill="rgb(177, 69, 123)"
 d="M50.525,15.851 L35.138,42.197 C34.157,43.875 32.028,44.474 30.381,43.535 L29.258,42.894 L48.189,10.480 L44.085,8.138 L27.114,37.194 L27.114,6.012 L28.657,3.369 C29.638,1.691 31.768,1.093 33.414,2.031 L49.319,11.109 C50.965,12.049 51.506,14.172 50.525,15.851 ZM28.570,12.916 L28.141,13.649 C27.756,14.308 27.928,15.118 28.523,15.456 L29.395,15.955 L30.519,14.028 L28.570,12.916 ZM29.117,11.980 L31.066,13.093 L31.664,12.069 L29.714,10.955 L29.117,11.980 ZM32.468,8.702 C31.873,8.361 31.079,8.620 30.694,9.278 L30.260,10.021 L32.211,11.133 L33.341,9.199 L32.468,8.702 ZM37.142,11.368 L35.519,10.442 L35.292,10.313 L35.292,10.313 L34.318,9.757 L30.372,16.512 L33.197,18.124 C33.792,18.463 34.586,18.206 34.971,17.547 L35.400,16.814 L33.456,15.705 L34.003,14.769 L35.946,15.878 L36.544,14.853 L34.601,13.746 L35.148,12.810 L37.090,13.918 L37.524,13.177 C37.909,12.517 37.737,11.709 37.142,11.368 ZM33.450,15.696 L32.474,15.139 L35.292,10.313 L35.519,10.442 L36.269,10.871 L33.450,15.696 ZM20.735,43.990 L1.600,43.990 C0.719,43.990 0.005,43.287 0.005,42.419 L0.005,1.576 C0.005,0.708 0.719,0.005 1.600,0.005 L20.735,0.005 C21.616,0.005 22.330,0.708 22.330,1.576 L22.330,14.203 L22.330,38.940 L22.330,42.419 C22.330,43.287 21.616,43.990 20.735,43.990 ZM20.735,21.998 L20.735,6.288 C18.094,6.288 15.952,4.179 15.952,1.576 L6.384,1.576 C6.384,4.179 4.242,6.288 1.600,6.288 L1.600,21.998 L1.600,37.707 C4.242,37.707 6.384,39.816 6.384,42.419 L15.952,42.419 C15.952,39.816 18.094,37.707 20.735,37.707 L20.735,21.998 ZM11.169,29.852 C5.883,29.852 1.600,26.336 1.600,21.998 C1.600,17.659 5.883,14.143 11.169,14.143 C16.452,14.143 20.735,17.659 20.735,21.998 C20.735,26.336 16.452,29.852 11.169,29.852 ZM19.142,21.261 L17.485,21.261 C17.439,20.819 17.369,20.411 17.254,20.071 C17.061,19.501 16.786,18.991 16.428,18.539 C16.103,18.136 15.707,17.823 15.239,17.601 C14.771,17.377 14.299,17.267 13.819,17.267 C13.054,17.267 12.410,17.489 11.887,17.935 C11.365,18.382 10.974,19.089 10.715,20.057 C10.630,20.381 10.536,20.793 10.436,21.261 L6.430,21.261 C6.493,20.690 6.601,20.100 6.765,19.670 C7.263,18.370 8.035,17.293 8.035,17.293 L6.078,17.293 C5.825,17.890 5.248,19.059 5.109,19.759 C5.016,20.238 4.927,20.744 4.868,21.261 L3.195,21.261 L3.195,22.832 L4.857,22.832 C4.971,23.832 5.285,24.686 5.816,25.382 C6.490,26.268 7.324,26.712 8.320,26.712 C8.800,26.712 9.222,26.632 9.588,26.471 C9.955,26.311 10.272,26.086 10.541,25.798 C10.817,25.501 11.040,25.163 11.211,24.779 C11.381,24.395 11.522,23.963 11.631,23.478 C11.684,23.243 11.730,23.033 11.773,22.832 L15.924,22.832 C15.861,23.430 15.745,24.084 15.565,24.590 C15.002,26.168 14.388,26.667 14.388,26.667 L16.436,26.667 C16.705,26.040 16.933,25.515 17.116,24.802 C17.262,24.242 17.438,23.582 17.508,22.832 L19.142,22.832 L19.142,21.261 ZM12.193,20.648 C12.341,20.045 12.520,19.703 12.829,19.427 C13.136,19.150 13.585,18.816 14.075,18.816 C14.692,18.816 15.189,19.080 15.565,19.607 C15.853,20.011 15.943,20.564 15.970,21.261 L12.070,21.261 C12.108,21.041 12.149,20.823 12.193,20.648 ZM10.071,23.325 C9.928,23.922 9.702,24.377 9.394,24.692 C9.086,25.006 8.671,25.163 8.148,25.163 C7.570,25.163 7.252,24.896 6.897,24.362 C6.628,23.957 6.495,23.427 6.430,22.832 L10.162,22.832 C10.131,23.025 10.100,23.202 10.071,23.325 Z"/>
</svg>