<svg 
 xmlns="http://www.w3.org/2000/svg"
 xmlns:xlink="http://www.w3.org/1999/xlink"
 width="56px" height="43px">
<path fill-rule="evenodd"  fill="rgb(177, 69, 123)"
 d="M54.156,42.603 C49.209,40.571 44.466,39.067 39.817,38.100 C40.632,37.750 41.541,37.551 42.557,37.522 C43.300,37.502 43.930,37.387 44.451,37.180 C45.264,37.593 46.235,38.006 46.990,37.985 C49.031,37.930 49.707,36.578 49.880,35.183 C50.133,33.133 50.514,22.380 50.651,18.326 C52.402,18.918 54.170,19.577 55.962,20.304 C50.629,26.724 53.353,38.771 54.156,42.603 ZM48.325,33.193 C48.230,33.853 48.064,33.903 47.581,33.696 C46.840,33.450 45.366,33.031 43.818,32.711 C39.957,31.912 35.985,31.257 27.998,31.147 L27.943,31.147 C19.957,31.257 15.985,31.912 12.124,32.711 C10.575,33.031 9.101,33.450 8.360,33.696 C7.877,33.903 7.711,33.853 7.616,33.193 C7.392,31.652 6.967,15.953 6.967,15.953 C6.967,15.953 6.594,13.966 8.700,13.349 C10.804,12.734 16.364,11.049 27.971,10.867 C39.577,11.049 45.136,12.734 47.241,13.349 C49.347,13.966 48.974,15.953 48.974,15.953 C48.974,15.953 48.549,31.652 48.325,33.193 ZM16.748,15.881 C16.748,15.431 16.654,15.078 16.470,14.823 C16.285,14.567 16.039,14.439 15.732,14.439 C15.460,14.439 15.276,14.494 15.177,14.608 C15.080,14.720 14.868,15.020 14.544,15.507 C14.221,15.993 13.848,16.434 13.430,16.826 C13.010,17.219 12.450,17.595 11.752,17.949 C11.282,18.187 10.956,18.380 10.771,18.530 C10.585,18.680 10.493,18.914 10.493,19.233 C10.493,19.508 10.587,19.749 10.775,19.960 C10.962,20.168 11.178,20.273 11.422,20.273 C11.931,20.273 12.920,19.663 14.388,18.447 L14.388,26.968 C14.388,27.468 14.494,27.845 14.709,28.100 C14.923,28.357 15.206,28.484 15.559,28.484 C16.352,28.484 16.748,27.857 16.748,26.603 L16.748,15.881 ZM27.364,17.155 C27.113,16.561 26.806,16.060 26.442,15.657 C26.079,15.252 25.658,14.945 25.177,14.736 C24.697,14.525 24.163,14.420 23.573,14.420 C22.682,14.420 21.914,14.656 21.270,15.130 C20.628,15.604 20.138,16.291 19.799,17.193 C19.605,17.739 19.462,18.390 19.371,19.148 C19.279,19.906 19.234,20.759 19.234,21.706 C19.234,22.438 19.275,23.121 19.357,23.751 C19.441,24.379 19.571,24.955 19.748,25.475 C20.097,26.428 20.616,27.173 21.304,27.712 C21.994,28.252 22.773,28.520 23.642,28.520 C24.397,28.520 25.083,28.320 25.701,27.919 C26.318,27.518 26.821,26.948 27.211,26.209 C27.518,25.608 27.730,24.936 27.844,24.197 C27.959,23.458 28.017,22.574 28.017,21.546 C28.017,19.653 27.798,18.191 27.364,17.155 ZM37.803,17.155 C37.550,16.561 37.243,16.060 36.881,15.657 C36.517,15.252 36.096,14.945 35.616,14.736 C35.136,14.525 34.600,14.420 34.012,14.420 C33.119,14.420 32.352,14.656 31.709,15.130 C31.065,15.604 30.575,16.291 30.238,17.193 C30.044,17.739 29.900,18.390 29.810,19.148 C29.717,19.906 29.671,20.759 29.671,21.706 C29.671,22.438 29.712,23.121 29.796,23.751 C29.878,24.379 30.009,24.955 30.187,25.475 C30.535,26.428 31.055,27.173 31.743,27.712 C32.433,28.252 33.211,28.520 34.080,28.520 C34.835,28.520 35.522,28.320 36.138,27.919 C36.756,27.518 37.260,26.948 37.648,26.209 C37.957,25.608 38.168,24.936 38.283,24.197 C38.397,23.458 38.454,22.574 38.454,21.546 C38.454,19.653 38.237,18.191 37.803,17.155 ZM42.779,17.465 C42.723,17.195 42.636,16.964 42.521,16.776 C42.405,16.587 42.263,16.448 42.098,16.356 C41.931,16.265 41.737,16.218 41.517,16.218 C41.213,16.218 40.962,16.305 40.766,16.477 C40.570,16.647 40.428,16.899 40.341,17.231 C40.254,17.562 40.209,17.977 40.209,18.471 C40.209,18.933 40.266,19.324 40.378,19.644 C40.491,19.965 40.648,20.201 40.851,20.351 C41.053,20.502 41.280,20.576 41.534,20.576 C41.946,20.576 42.270,20.400 42.508,20.046 C42.745,19.691 42.863,19.148 42.863,18.421 C42.863,18.055 42.836,17.736 42.779,17.465 ZM45.766,16.249 C45.713,16.184 45.645,16.150 45.559,16.150 C45.472,16.150 45.406,16.185 45.359,16.256 C45.312,16.327 45.259,16.432 45.196,16.573 L41.649,24.317 C41.592,24.433 41.563,24.530 41.563,24.611 C41.563,24.717 41.596,24.803 41.661,24.871 C41.726,24.936 41.790,24.970 41.855,24.970 C41.968,24.970 42.071,24.865 42.161,24.655 L45.687,16.973 C45.791,16.749 45.843,16.596 45.843,16.516 C45.843,16.406 45.817,16.317 45.766,16.249 ZM47.113,21.598 C47.057,21.325 46.970,21.098 46.854,20.914 C46.736,20.731 46.594,20.593 46.430,20.502 C46.264,20.411 46.072,20.366 45.851,20.366 C45.395,20.366 45.060,20.554 44.850,20.930 C44.640,21.305 44.535,21.865 44.535,22.607 C44.535,23.072 44.593,23.463 44.707,23.780 C44.822,24.097 44.979,24.331 45.182,24.485 C45.383,24.636 45.612,24.712 45.868,24.712 C46.282,24.712 46.606,24.534 46.842,24.182 C47.079,23.827 47.199,23.284 47.199,22.555 C47.199,22.190 47.169,21.872 47.113,21.598 ZM45.868,23.997 C45.665,23.997 45.523,23.880 45.443,23.642 C45.363,23.406 45.323,23.033 45.323,22.523 C45.323,22.190 45.339,21.920 45.371,21.713 C45.404,21.504 45.460,21.348 45.539,21.241 C45.617,21.134 45.728,21.081 45.868,21.081 C46.070,21.081 46.208,21.195 46.288,21.420 C46.367,21.648 46.406,22.008 46.406,22.498 C46.406,23.014 46.369,23.392 46.292,23.634 C46.217,23.877 46.075,23.997 45.868,23.997 ZM41.534,19.862 C41.396,19.862 41.287,19.808 41.208,19.700 C41.130,19.591 41.075,19.429 41.046,19.215 C41.015,19.002 41.001,18.727 41.001,18.387 C41.001,18.058 41.015,17.789 41.046,17.577 C41.075,17.366 41.130,17.205 41.210,17.097 C41.290,16.988 41.399,16.934 41.534,16.934 C41.734,16.934 41.874,17.047 41.953,17.274 C42.033,17.502 42.072,17.863 42.072,18.363 C42.072,18.881 42.035,19.262 41.959,19.501 C41.884,19.742 41.743,19.862 41.534,19.862 ZM35.298,26.010 C35.001,26.412 34.589,26.614 34.063,26.614 C33.555,26.614 33.152,26.421 32.854,26.035 C32.556,25.649 32.346,25.081 32.219,24.328 C32.093,23.577 32.030,22.611 32.030,21.432 C32.030,19.698 32.178,18.413 32.472,17.579 C32.766,16.745 33.292,16.329 34.046,16.329 C34.572,16.329 34.984,16.515 35.281,16.888 C35.578,17.261 35.790,17.812 35.916,18.542 C36.041,19.272 36.104,20.211 36.104,21.358 C36.104,22.568 36.044,23.546 35.925,24.291 C35.803,25.037 35.595,25.609 35.298,26.010 ZM24.859,26.010 C24.562,26.412 24.151,26.614 23.625,26.614 C23.116,26.614 22.713,26.421 22.416,26.035 C22.118,25.649 21.907,25.081 21.780,24.328 C21.656,23.577 21.593,22.611 21.593,21.432 C21.593,19.698 21.739,18.413 22.033,17.579 C22.328,16.745 22.853,16.329 23.608,16.329 C24.134,16.329 24.545,16.515 24.842,16.888 C25.139,17.261 25.351,17.812 25.477,18.542 C25.604,19.272 25.667,20.211 25.667,21.358 C25.667,22.568 25.606,23.546 25.486,24.291 C25.366,25.037 25.156,25.609 24.859,26.010 ZM27.971,5.576 C23.844,5.576 20.100,7.190 17.294,9.811 C14.635,10.151 12.635,10.559 11.159,10.918 C11.159,10.916 11.159,10.916 11.159,10.915 C10.648,8.128 11.758,6.695 14.484,6.619 C17.211,6.543 19.156,5.222 20.319,2.654 C21.482,0.088 23.187,-0.393 25.436,1.214 C27.685,2.820 30.004,2.940 32.395,1.574 C34.787,0.208 36.439,0.862 37.351,3.537 C38.262,6.212 40.071,7.728 42.777,8.086 C44.933,8.372 45.966,9.420 45.912,11.207 C44.393,10.795 42.062,10.248 38.648,9.811 C35.841,7.190 32.097,5.576 27.971,5.576 ZM8.951,37.985 C10.003,38.015 11.478,37.202 12.353,36.721 C12.644,36.561 12.946,36.394 13.261,36.224 C14.428,36.574 15.405,37.171 16.187,38.020 C11.585,38.967 6.892,40.477 2.001,42.581 C2.703,38.762 5.216,26.719 -0.000,20.302 C1.784,19.578 3.546,18.922 5.290,18.332 C5.427,22.390 5.808,33.134 6.062,35.183 C6.234,36.578 6.910,37.930 8.951,37.985 ZM23.774,33.031 C25.036,32.973 26.415,32.932 27.943,32.911 L27.998,32.911 C29.526,32.932 30.905,32.973 32.167,33.031 C30.857,33.517 29.449,33.796 27.971,33.796 C26.493,33.796 25.084,33.517 23.774,33.031 ZM11.911,34.521 C11.982,34.506 12.052,34.490 12.124,34.475 C13.862,34.115 15.626,33.785 17.765,33.521 C20.513,35.888 24.073,37.324 27.971,37.324 C31.868,37.324 35.428,35.888 38.176,33.521 C40.315,33.785 42.080,34.115 43.818,34.475 C44.079,34.529 44.336,34.586 44.590,34.645 C44.126,35.687 43.078,36.239 41.425,36.285 C38.700,36.363 36.755,37.684 35.592,40.250 C34.429,42.819 32.723,43.297 30.474,41.692 C28.225,40.087 25.906,39.966 23.514,41.330 C21.123,42.696 19.472,42.042 18.560,39.367 C17.648,36.693 15.840,35.176 13.133,34.819 C12.669,34.758 12.271,34.652 11.911,34.521 Z"/>
</svg>