<svg 
 xmlns="http://www.w3.org/2000/svg"
 xmlns:xlink="http://www.w3.org/1999/xlink"
 width="58px" height="38px">
<path fill-rule="evenodd"  fill="rgb(177, 69, 123)"
 d="M57.094,10.000 L51.656,10.000 C51.155,10.000 50.750,9.552 50.750,9.000 C50.750,8.447 51.155,8.000 51.656,8.000 L57.094,8.000 C57.594,8.000 58.000,8.447 58.000,9.000 C58.000,9.552 57.594,10.000 57.094,10.000 ZM51.656,6.000 L44.406,6.000 C43.905,6.000 43.500,5.553 43.500,5.000 C43.500,4.447 43.905,4.000 44.406,4.000 L51.656,4.000 C52.156,4.000 52.562,4.447 52.562,5.000 C52.562,5.553 52.156,6.000 51.656,6.000 ZM41.687,18.125 C46.161,20.150 52.537,18.904 52.562,21.000 C52.572,21.781 52.156,22.000 51.656,22.000 L47.125,22.000 L43.500,22.000 L27.187,22.000 C25.186,22.000 23.562,20.209 23.562,18.000 L23.562,4.000 C23.562,1.791 25.186,-0.000 27.187,-0.000 L30.812,-0.000 L32.625,-0.000 L38.969,-0.000 C39.469,-0.000 39.875,0.187 39.875,1.000 C39.875,2.437 31.635,1.543 32.625,5.437 C33.022,7.500 41.627,6.654 41.687,11.125 C41.711,12.890 37.541,16.246 41.687,18.125 ZM8.156,26.000 C4.961,26.000 2.325,28.609 1.885,32.000 L1.812,32.000 C1.528,32.062 0.057,31.875 -0.000,30.000 L-0.000,28.000 C-0.000,28.000 2.719,27.312 3.625,26.000 C4.531,24.687 3.557,24.215 3.625,24.000 C0.145,24.086 -0.000,26.000 -0.000,26.000 C0.057,23.687 2.378,22.625 5.437,22.000 C5.437,22.000 7.330,21.576 7.953,20.900 C10.168,18.494 14.073,11.970 17.332,12.000 C18.975,12.062 16.943,12.061 19.937,12.000 C21.310,12.045 21.618,12.107 21.750,15.999 C21.722,16.139 21.750,24.000 21.750,24.000 L21.750,32.000 L14.428,32.000 C13.987,28.609 11.351,26.000 8.156,26.000 ZM19.970,16.060 C19.857,14.060 19.878,14.039 18.220,14.000 C17.798,13.987 17.599,13.981 17.531,13.979 C17.736,13.985 19.161,14.034 16.751,14.000 C16.036,14.000 13.480,16.037 9.742,22.000 C9.757,22.000 19.937,22.000 19.937,22.000 L19.970,16.060 ZM16.312,10.000 C18.352,7.018 19.961,6.000 20.352,6.000 C20.624,6.003 20.789,6.005 20.893,6.006 C21.659,6.026 21.678,6.084 21.737,7.031 L21.719,10.000 C21.719,10.000 16.320,10.000 16.312,10.000 ZM20.893,6.006 C20.850,6.005 20.830,6.001 20.783,6.000 C19.719,5.970 21.491,6.009 20.893,6.006 ZM8.156,28.000 C10.659,28.000 12.687,30.238 12.687,32.999 C12.687,35.761 10.659,38.000 8.156,38.000 C5.653,38.000 3.625,35.761 3.625,32.999 C3.625,30.238 5.653,28.000 8.156,28.000 ZM8.156,36.000 C9.658,36.000 10.875,34.658 10.875,32.999 C10.875,31.343 9.658,30.000 8.156,30.000 C6.654,30.000 5.437,31.343 5.437,32.999 C5.437,34.658 6.654,36.000 8.156,36.000 ZM48.031,15.999 C47.530,15.999 47.125,15.552 47.125,15.000 C47.125,14.447 47.530,14.000 48.031,14.000 L53.469,14.000 C53.969,14.000 54.375,14.447 54.375,15.000 C54.375,15.552 53.969,15.999 53.469,15.999 L48.031,15.999 ZM54.375,24.000 L54.375,26.000 C53.374,26.000 52.562,26.597 52.562,27.334 L52.562,28.666 C52.562,29.266 53.108,29.753 53.846,29.921 C53.364,30.910 52.432,31.612 50.661,31.878 C50.173,28.547 47.563,26.000 44.406,26.000 C41.211,26.000 38.575,28.609 38.135,32.000 L23.562,32.000 L23.562,24.003 C30.045,24.015 51.918,24.051 54.375,24.000 ZM44.406,28.000 C46.908,28.000 48.937,30.238 48.937,32.999 C48.937,35.761 46.908,38.000 44.406,38.000 C41.903,38.000 39.875,35.761 39.875,32.999 C39.875,30.238 41.903,28.000 44.406,28.000 ZM44.406,36.000 C45.907,36.000 47.125,34.658 47.125,32.999 C47.125,31.343 45.907,30.000 44.406,30.000 C42.904,30.000 41.687,31.343 41.687,32.999 C41.687,34.658 42.904,36.000 44.406,36.000 Z"/>
</svg>