<svg 
 xmlns="http://www.w3.org/2000/svg"
 xmlns:xlink="http://www.w3.org/1999/xlink"
 width="44px" height="44px">
<path fill-rule="evenodd"  fill="rgb(177, 69, 123)"
 d="M40.758,41.466 C40.278,42.500 39.508,43.793 37.792,43.793 L24.599,43.793 C25.273,43.791 25.897,43.788 26.411,43.784 C28.419,40.994 29.199,37.603 29.482,35.550 C29.852,26.413 27.009,20.790 25.596,18.344 C24.874,17.198 23.919,15.950 22.681,14.705 C23.368,13.706 24.055,12.927 24.638,12.350 C25.594,11.405 25.438,10.949 27.113,10.943 C27.966,10.940 33.685,10.967 34.261,10.966 C36.020,10.959 35.532,11.392 36.379,12.340 C41.781,17.678 43.573,20.554 43.606,27.398 C43.644,34.895 41.279,40.342 40.758,41.466 ZM35.529,16.466 C34.001,16.863 33.808,21.004 34.394,25.277 C34.980,29.548 37.088,31.608 39.171,31.481 C41.536,31.338 41.498,26.941 40.763,23.263 C39.949,19.188 37.057,16.068 35.529,16.466 ZM34.097,8.221 L27.314,8.221 C26.565,8.221 25.958,7.609 25.958,6.853 C25.958,6.097 26.565,5.485 27.314,5.485 L34.097,5.485 C34.846,5.485 35.453,6.097 35.453,6.853 C35.453,7.609 34.846,8.221 34.097,8.221 ZM27.526,4.117 C27.540,4.063 27.552,3.996 27.567,3.946 C27.930,2.741 28.085,1.381 30.237,1.381 L31.111,1.381 C33.262,1.381 33.368,2.759 33.784,3.952 C33.801,4.000 33.811,4.065 33.826,4.117 L27.526,4.117 ZM16.471,43.793 C15.567,43.793 14.288,43.793 13.764,43.793 C7.383,43.777 3.872,40.832 4.250,34.316 C4.873,28.444 12.987,28.082 11.096,20.498 C10.732,18.827 11.756,16.422 14.086,16.421 C14.635,16.434 15.409,16.402 16.104,16.439 C17.346,16.465 18.783,17.420 19.845,18.557 C20.757,19.535 21.445,20.519 21.963,21.419 C22.924,23.236 24.856,27.418 24.605,34.210 C24.240,37.105 22.659,43.580 16.471,43.793 ZM19.954,23.157 C19.574,22.437 19.070,21.650 18.400,20.869 C17.623,19.961 16.572,19.198 15.663,19.174 C15.597,19.174 15.068,19.158 15.068,19.158 C13.613,19.160 13.625,20.229 13.891,21.566 C14.484,24.155 13.427,26.443 11.947,28.281 C11.438,28.913 10.885,29.501 10.340,30.068 C8.752,31.717 7.232,33.174 7.091,34.887 C6.701,38.555 9.084,40.876 13.455,41.046 C14.160,41.038 14.589,40.438 14.619,39.646 C14.646,38.802 13.903,38.346 13.462,38.295 C10.912,38.094 9.798,36.689 9.960,34.718 C10.035,33.639 11.316,32.294 12.576,30.985 C14.683,31.568 18.046,31.931 21.795,30.120 C21.476,26.593 20.503,24.292 19.954,23.157 ZM15.784,10.957 C16.908,10.957 17.819,11.877 17.819,13.010 C17.819,14.143 16.908,15.062 15.784,15.062 L14.428,15.062 C13.304,15.062 12.393,14.143 12.393,13.010 C12.393,11.877 13.304,10.957 14.428,10.957 L15.784,10.957 ZM21.001,4.681 C20.499,4.904 19.961,4.995 19.489,5.152 C16.244,6.213 17.740,9.545 15.409,9.587 C14.976,9.588 14.422,9.604 14.048,9.606 C10.598,9.298 12.333,5.136 4.939,4.631 C4.694,4.615 4.471,4.593 4.254,4.570 L4.254,0.028 C4.327,0.026 4.397,0.015 4.471,0.017 C9.361,0.039 15.321,0.430 19.570,1.100 C22.016,1.582 22.581,4.323 21.001,4.681 ZM5.921,6.835 C7.515,7.194 8.416,7.770 9.041,8.381 C7.553,11.052 5.261,13.300 2.949,14.975 C1.229,16.230 -0.200,15.841 0.300,14.823 C3.505,12.010 4.082,11.328 4.898,9.900 C5.546,8.765 5.771,7.750 5.921,6.835 ZM1.524,2.995 C1.559,2.842 1.540,2.633 1.549,2.216 C1.574,1.371 2.100,0.699 2.898,0.329 L2.898,4.321 C1.994,4.053 1.560,3.626 1.524,2.995 Z"/>
</svg>