<svg 
 xmlns="http://www.w3.org/2000/svg"
 xmlns:xlink="http://www.w3.org/1999/xlink"
 width="22px" height="13px">
<path fill-rule="evenodd"  fill="rgb(86, 91, 94)"
 d="M19.026,5.429 C19.331,5.035 19.574,4.718 19.752,4.480 C21.041,2.767 21.600,1.673 21.428,1.196 L21.361,1.084 C21.317,1.018 21.201,0.956 21.015,0.900 C20.829,0.845 20.590,0.835 20.300,0.872 L17.082,0.895 C17.008,0.888 16.933,0.889 16.859,0.900 C16.784,0.912 16.736,0.923 16.713,0.934 C16.691,0.945 16.673,0.954 16.658,0.961 L16.613,0.995 C16.576,1.017 16.535,1.057 16.490,1.113 C16.446,1.169 16.408,1.234 16.378,1.308 C16.028,2.209 15.630,3.047 15.183,3.821 C14.907,4.283 14.654,4.683 14.423,5.022 C14.192,5.361 13.999,5.610 13.842,5.770 C13.686,5.930 13.544,6.059 13.418,6.155 C13.291,6.253 13.194,6.293 13.127,6.278 C13.060,6.264 12.997,6.249 12.937,6.233 C12.833,6.167 12.749,6.076 12.686,5.960 C12.623,5.845 12.580,5.699 12.558,5.524 C12.535,5.349 12.522,5.199 12.519,5.072 C12.515,4.945 12.517,4.767 12.524,4.536 C12.532,4.305 12.535,4.149 12.535,4.067 C12.535,3.784 12.541,3.476 12.552,3.145 C12.563,2.814 12.573,2.551 12.580,2.358 C12.587,2.164 12.591,1.959 12.591,1.743 C12.591,1.528 12.578,1.358 12.552,1.235 C12.526,1.113 12.486,0.993 12.435,0.878 C12.382,0.762 12.306,0.673 12.206,0.610 C12.105,0.546 11.980,0.497 11.831,0.459 C11.436,0.369 10.934,0.321 10.323,0.314 C8.938,0.299 8.047,0.388 7.653,0.582 C7.496,0.664 7.355,0.775 7.228,0.917 C7.094,1.081 7.075,1.171 7.172,1.185 C7.619,1.252 7.936,1.413 8.122,1.665 L8.189,1.799 C8.241,1.896 8.293,2.067 8.345,2.313 C8.398,2.559 8.431,2.831 8.446,3.128 C8.483,3.672 8.483,4.137 8.446,4.525 C8.409,4.912 8.374,5.214 8.340,5.429 C8.306,5.645 8.256,5.820 8.189,5.954 C8.122,6.088 8.078,6.171 8.055,6.200 C8.033,6.230 8.014,6.248 7.999,6.256 C7.902,6.293 7.802,6.312 7.698,6.312 C7.593,6.312 7.467,6.260 7.318,6.155 C7.169,6.051 7.014,5.908 6.854,5.725 C6.694,5.543 6.513,5.288 6.312,4.960 C6.111,4.633 5.902,4.245 5.687,3.798 L5.508,3.474 C5.396,3.266 5.244,2.963 5.050,2.564 C4.856,2.166 4.685,1.781 4.536,1.408 C4.476,1.252 4.387,1.133 4.268,1.051 L4.212,1.017 C4.175,0.987 4.115,0.956 4.033,0.922 C3.951,0.889 3.866,0.865 3.776,0.850 L0.715,0.872 C0.402,0.872 0.190,0.943 0.078,1.084 L0.033,1.151 C0.011,1.189 -0.000,1.248 -0.000,1.330 C-0.000,1.413 0.022,1.513 0.067,1.632 C0.514,2.682 1.000,3.694 1.525,4.669 C2.050,5.645 2.506,6.431 2.894,7.027 C3.281,7.623 3.676,8.185 4.078,8.713 C4.480,9.242 4.747,9.581 4.877,9.730 C5.007,9.879 5.110,9.990 5.184,10.065 L5.463,10.333 C5.642,10.511 5.905,10.725 6.251,10.975 C6.597,11.225 6.981,11.470 7.402,11.712 C7.822,11.954 8.312,12.151 8.871,12.304 C9.429,12.457 9.973,12.519 10.502,12.489 L11.787,12.489 C12.048,12.466 12.245,12.385 12.379,12.243 L12.424,12.187 C12.453,12.143 12.481,12.074 12.507,11.981 C12.533,11.888 12.547,11.785 12.547,11.673 C12.539,11.354 12.564,11.064 12.619,10.808 C12.675,10.551 12.738,10.358 12.809,10.227 C12.880,10.097 12.960,9.987 13.050,9.897 C13.139,9.808 13.202,9.755 13.239,9.735 C13.277,9.717 13.307,9.704 13.329,9.696 C13.507,9.637 13.718,9.695 13.960,9.870 C14.202,10.045 14.429,10.260 14.642,10.518 C14.854,10.774 15.109,11.063 15.407,11.383 C15.705,11.703 15.965,11.941 16.189,12.098 L16.412,12.232 C16.562,12.321 16.755,12.403 16.993,12.478 C17.232,12.552 17.440,12.571 17.619,12.533 L20.479,12.489 C20.762,12.489 20.982,12.442 21.138,12.349 C21.295,12.256 21.388,12.154 21.418,12.042 C21.447,11.930 21.449,11.805 21.423,11.662 C21.397,11.521 21.371,11.422 21.345,11.367 C21.319,11.311 21.295,11.264 21.272,11.227 C20.900,10.557 20.189,9.734 19.138,8.759 L19.116,8.736 L19.105,8.725 L19.094,8.714 L19.083,8.714 C18.606,8.260 18.304,7.955 18.178,7.798 C17.947,7.501 17.895,7.199 18.021,6.894 C18.110,6.662 18.445,6.174 19.026,5.429 Z"/>
</svg>