<svg 
 xmlns="http://www.w3.org/2000/svg"
 xmlns:xlink="http://www.w3.org/1999/xlink"
 width="45px" height="43px">
<path fill-rule="evenodd"  fill="rgb(177, 69, 123)"
 d="M33.985,20.276 C33.985,20.276 33.298,19.400 32.412,18.892 C31.652,18.456 30.742,18.308 30.535,18.279 C30.534,18.254 30.532,18.230 30.531,18.206 L41.502,0.677 C41.872,0.038 42.696,-0.181 43.339,0.188 C43.983,0.557 44.203,1.374 43.832,2.013 L33.985,20.276 ZM34.476,27.484 L29.539,24.655 C29.993,23.379 30.318,22.043 30.464,20.650 C30.727,20.749 30.982,20.868 31.229,21.009 C33.245,22.164 34.327,24.527 34.476,27.484 ZM33.936,30.989 C33.224,35.075 31.423,38.178 32.072,36.864 C31.693,37.631 31.168,38.506 30.415,39.358 C28.871,41.064 26.340,42.867 22.195,42.981 C19.860,42.994 17.333,42.190 14.566,40.708 C13.874,40.343 13.167,39.940 12.445,39.504 C11.721,39.067 10.982,38.598 10.231,38.083 C8.999,37.226 7.724,36.265 6.466,34.974 C8.507,35.810 10.736,36.282 13.080,36.282 C14.164,36.282 15.220,36.170 16.250,35.981 C15.370,36.731 14.453,37.209 13.726,37.429 C14.353,37.880 14.845,38.175 14.966,38.249 C15.399,38.511 15.818,38.742 16.237,38.971 C20.541,38.253 23.212,33.340 23.195,33.489 C23.195,33.489 21.733,38.988 18.844,40.174 C19.675,40.480 20.477,40.688 21.257,40.798 C26.542,37.770 28.089,33.028 28.089,33.028 C27.795,34.478 27.028,38.720 25.054,40.449 C26.810,39.903 28.058,38.935 28.924,37.992 C29.523,37.326 29.946,36.643 30.261,36.039 C30.246,36.070 30.229,36.109 30.218,36.132 C30.237,36.093 30.246,36.073 30.282,36.003 C30.276,36.014 30.267,36.028 30.261,36.039 C30.511,35.506 31.243,33.831 31.720,31.736 C31.775,31.284 31.931,30.663 30.835,30.035 C30.049,29.583 28.925,28.939 27.763,28.273 C28.115,27.728 28.433,27.160 28.724,26.576 C30.310,27.485 31.848,28.367 32.872,28.953 C34.009,29.606 34.067,30.223 33.936,30.989 ZM24.626,9.424 L22.413,7.214 C21.803,6.602 21.803,5.613 22.413,5.002 C23.025,4.392 24.015,4.392 24.626,5.002 L26.837,7.214 C27.448,7.824 27.448,8.813 26.837,9.424 C26.227,10.034 25.236,10.034 24.626,9.424 ZM13.083,30.908 C6.399,30.908 0.980,25.493 0.980,18.815 C0.980,12.135 6.399,6.721 13.083,6.721 C19.767,6.721 25.185,12.135 25.185,18.815 C25.185,25.493 19.767,30.908 13.083,30.908 ZM13.101,8.748 C7.534,8.748 3.021,13.254 3.021,18.815 C3.021,24.374 7.534,28.881 13.101,28.881 C18.669,28.881 23.182,24.374 23.182,18.815 C23.182,13.254 18.669,8.748 13.101,8.748 ZM14.099,16.146 L19.071,12.842 L15.739,17.830 C15.606,16.973 14.946,16.295 14.099,16.146 ZM14.974,18.522 C14.974,19.409 14.251,20.127 13.359,20.130 C13.370,20.133 13.379,20.139 13.389,20.141 C13.163,20.145 12.939,20.095 12.727,20.006 C12.690,19.991 12.664,19.960 12.628,19.942 C12.485,19.869 12.340,19.797 12.219,19.678 C12.214,19.673 12.213,19.666 12.208,19.661 C12.049,19.503 11.932,19.310 11.850,19.098 C11.849,19.094 11.849,19.090 11.848,19.087 C11.781,18.910 11.733,18.722 11.733,18.522 C11.733,17.632 12.458,16.912 13.353,16.912 C14.248,16.912 14.974,17.632 14.974,18.522 ZM15.107,4.039 L11.074,4.039 C9.961,4.039 9.058,3.136 9.058,2.024 C9.058,0.911 9.961,0.009 11.074,0.009 L15.107,0.009 C16.220,0.009 17.123,0.911 17.123,2.024 C17.123,3.136 16.220,4.039 15.107,4.039 ZM35.941,40.312 C36.684,40.312 37.285,40.914 37.285,41.656 C37.285,42.397 36.684,42.999 35.941,42.999 C35.198,42.999 34.597,42.397 34.597,41.656 C34.597,40.914 35.198,40.312 35.941,40.312 ZM35.941,42.118 C36.196,42.118 36.403,41.910 36.403,41.656 C36.403,41.401 36.196,41.194 35.941,41.194 C35.687,41.194 35.479,41.401 35.479,41.656 C35.479,41.910 35.687,42.118 35.941,42.118 ZM40.646,32.252 C41.759,32.252 42.662,33.154 42.662,34.267 C42.662,35.379 41.759,36.282 40.646,36.282 C39.533,36.282 38.630,35.379 38.630,34.267 C38.630,33.154 39.533,32.252 40.646,32.252 ZM40.646,34.938 C41.016,34.938 41.318,34.638 41.318,34.267 C41.318,33.896 41.016,33.595 40.646,33.595 C40.274,33.595 39.974,33.896 39.974,34.267 C39.974,34.638 40.274,34.938 40.646,34.938 ZM42.662,38.969 C43.405,38.969 44.006,39.570 44.006,40.312 C44.006,41.054 43.405,41.656 42.662,41.656 C41.919,41.656 41.318,41.054 41.318,40.312 C41.318,39.570 41.919,38.969 42.662,38.969 ZM42.662,40.760 C42.909,40.760 43.111,40.559 43.111,40.312 C43.111,40.064 42.909,39.865 42.662,39.865 C42.415,39.865 42.213,40.064 42.213,40.312 C42.213,40.559 42.415,40.760 42.662,40.760 Z"/>
</svg>