<svg 
 xmlns="http://www.w3.org/2000/svg"
 xmlns:xlink="http://www.w3.org/1999/xlink"
 width="43px" height="43px">
<path fill-rule="evenodd"  fill="rgb(177, 69, 123)"
 d="M42.899,18.326 C42.739,19.111 42.209,22.819 40.974,25.161 C40.890,25.279 40.801,25.349 40.705,25.400 C40.752,24.976 40.945,23.361 41.449,20.713 C41.854,18.587 39.959,15.194 38.978,13.619 C38.978,13.619 38.981,13.619 38.981,13.619 C41.734,14.731 43.355,15.285 42.899,18.326 ZM39.792,10.526 C38.390,11.042 36.991,10.249 36.875,10.180 C36.157,10.783 35.254,11.159 34.258,11.159 C33.256,11.159 32.350,10.779 31.630,10.173 C31.585,10.199 30.112,11.046 28.672,10.515 C27.892,10.274 27.316,9.154 28.412,7.207 C29.209,5.790 29.366,3.986 29.316,3.981 C29.437,2.963 29.873,1.845 30.816,1.122 C32.372,-0.069 34.664,-0.459 35.383,0.827 C36.892,0.184 39.091,1.639 39.175,3.981 C39.178,4.049 39.301,5.903 40.063,7.192 C41.191,9.099 40.578,10.281 39.792,10.526 ZM30.083,5.596 C30.080,5.596 30.078,5.597 30.075,5.597 C30.076,5.597 30.080,5.609 30.083,5.613 L30.083,5.596 ZM37.673,5.256 C37.673,4.850 37.596,4.466 37.482,4.101 C37.285,4.103 37.088,4.096 36.900,4.006 C36.256,3.785 35.411,3.211 35.383,3.211 C34.828,3.375 35.001,4.548 30.842,5.443 L30.842,6.715 C30.842,8.729 32.371,10.362 34.258,10.362 C36.144,10.362 37.673,8.729 37.673,6.715 L37.673,5.256 ZM21.490,16.688 C19.222,16.688 17.173,17.267 15.695,18.199 L15.695,16.704 C15.695,13.565 18.817,11.808 21.494,11.808 C24.138,11.808 27.293,13.565 27.293,16.704 L27.293,18.204 C25.815,17.269 23.762,16.688 21.490,16.688 ZM20.557,11.352 C20.728,11.004 21.079,10.759 21.494,10.759 C21.910,10.759 22.262,11.004 22.433,11.354 C22.117,11.312 21.802,11.283 21.494,11.283 C21.186,11.283 20.872,11.311 20.557,11.352 ZM14.265,10.526 C12.863,11.042 11.464,10.249 11.348,10.180 C10.630,10.783 9.727,11.159 8.730,11.159 C7.729,11.159 6.823,10.779 6.103,10.172 C6.059,10.198 4.586,11.047 3.145,10.515 C2.364,10.274 1.788,9.154 2.885,7.207 C3.681,5.790 3.839,3.986 3.789,3.981 C3.910,2.963 4.345,1.845 5.289,1.122 C6.845,-0.069 9.137,-0.459 9.856,0.827 C11.365,0.184 13.564,1.639 13.648,3.981 C13.650,4.049 13.775,5.903 14.536,7.192 C15.663,9.099 15.050,10.281 14.265,10.526 ZM4.555,5.596 C4.552,5.596 4.550,5.597 4.547,5.597 C4.548,5.597 4.553,5.609 4.555,5.613 L4.555,5.596 ZM12.147,5.256 C12.147,4.850 12.070,4.466 11.955,4.101 C11.759,4.103 11.561,4.096 11.373,4.006 C10.729,3.785 9.885,3.211 9.856,3.211 C9.301,3.375 9.474,4.548 5.315,5.443 L5.315,6.715 C5.315,8.729 6.843,10.362 8.730,10.362 C10.617,10.362 12.147,8.729 12.147,6.715 L12.147,5.256 ZM1.539,20.713 C2.042,23.357 2.235,24.970 2.282,25.397 C2.184,25.351 2.096,25.288 2.027,25.185 C0.749,22.845 0.231,19.112 0.090,18.294 C-0.354,15.283 1.246,14.728 4.008,13.621 C3.027,15.198 1.134,18.589 1.539,20.713 ZM5.911,13.040 C5.961,13.210 6.007,13.377 6.064,13.548 C6.588,15.128 7.085,16.511 7.581,16.998 C8.055,17.680 9.288,17.705 9.856,16.998 C10.412,16.384 10.839,15.140 11.373,13.548 C11.430,13.378 11.475,13.213 11.526,13.045 C11.837,13.155 12.169,13.260 12.469,13.348 C12.579,13.596 12.690,13.915 12.796,14.256 C12.347,15.641 12.089,17.183 12.089,18.816 C12.019,18.843 11.971,18.893 11.892,18.911 C10.681,19.191 6.718,19.189 5.566,18.931 C3.480,18.468 4.312,14.831 4.986,13.342 C5.281,13.252 5.606,13.149 5.911,13.040 ZM10.610,34.930 C11.353,33.223 12.513,31.709 14.274,30.904 C14.598,30.756 14.907,30.617 15.206,30.483 C14.252,32.484 13.112,35.243 12.556,37.986 C12.126,40.117 11.999,41.370 11.977,42.093 C10.294,41.572 9.411,40.861 9.411,40.055 C9.411,39.781 9.382,39.480 9.432,39.150 C9.661,37.628 9.809,36.775 10.610,34.930 ZM24.535,20.862 C24.064,20.535 22.794,19.678 21.494,19.678 C20.131,19.678 18.930,20.555 18.458,20.857 C17.990,21.155 16.292,21.998 15.846,19.711 C17.076,18.741 19.146,18.104 21.494,18.104 C23.843,18.104 25.914,18.742 27.144,19.712 C26.695,21.997 24.964,21.159 24.535,20.862 ZM17.511,23.096 C17.735,23.292 17.879,23.706 17.879,23.706 C18.223,25.899 19.711,27.548 21.494,27.548 C23.278,27.548 24.766,25.899 25.110,23.706 C25.110,23.706 25.241,23.302 25.462,23.113 C25.629,22.943 25.777,22.688 25.904,22.413 C26.388,22.410 26.873,22.304 27.277,22.018 C27.277,22.134 27.277,22.202 27.277,22.202 C27.277,23.072 26.642,24.399 26.061,24.399 L26.017,24.634 C25.408,26.932 23.613,28.597 21.494,28.597 C19.375,28.597 17.580,26.932 16.971,24.634 L16.927,24.399 C16.347,24.399 15.712,23.072 15.712,22.202 C15.712,22.202 15.705,22.127 15.698,22.010 C16.105,22.305 16.596,22.412 17.086,22.416 C17.208,22.682 17.350,22.927 17.511,23.096 ZM16.821,29.735 C18.044,30.973 19.681,31.744 21.494,31.744 C23.306,31.744 24.941,30.973 26.164,29.737 C26.168,29.739 26.171,29.741 26.174,29.743 C26.961,32.254 27.448,36.004 25.097,36.599 C23.251,37.066 19.685,37.061 17.854,36.625 C15.488,36.062 15.982,32.283 16.786,29.753 C16.798,29.747 16.809,29.741 16.821,29.735 ZM32.338,34.924 C33.877,38.438 33.595,41.077 33.586,40.055 C33.568,40.882 32.669,41.602 30.986,42.124 C30.978,41.404 30.868,40.148 30.432,37.986 C29.881,35.260 28.740,32.499 27.784,30.494 C28.075,30.624 28.374,30.758 28.688,30.899 C30.438,31.717 31.594,33.225 32.338,34.924 ZM30.898,18.838 C30.898,18.831 30.899,18.824 30.899,18.817 C30.899,17.176 30.638,15.628 30.186,14.237 C30.292,13.900 30.403,13.586 30.514,13.341 C30.809,13.252 31.133,13.149 31.439,13.040 C31.489,13.210 31.535,13.377 31.592,13.548 C32.115,15.128 32.612,16.511 33.108,16.998 C33.582,17.680 34.814,17.705 35.383,16.998 C35.940,16.384 36.365,15.140 36.900,13.548 C36.957,13.378 37.003,13.213 37.053,13.045 C37.364,13.155 37.695,13.259 37.995,13.348 C38.655,14.835 39.493,18.433 37.420,18.911 C36.207,19.191 32.245,19.189 31.093,18.931 C31.015,18.914 30.968,18.864 30.898,18.838 Z"/>
</svg>