<svg 
 xmlns="http://www.w3.org/2000/svg"
 xmlns:xlink="http://www.w3.org/1999/xlink"
 width="48px" height="42px">
<path fill-rule="evenodd"  fill="rgb(177, 69, 123)"
 d="M47.538,15.141 L33.062,40.295 C32.139,41.897 30.135,42.469 28.586,41.572 L27.530,40.961 L45.340,10.013 L41.479,7.776 L25.513,35.519 L25.513,5.747 L26.964,3.224 C27.887,1.621 29.891,1.050 31.440,1.946 L46.403,10.613 C47.952,11.511 48.460,13.538 47.538,15.141 ZM26.882,12.338 L26.479,13.038 C26.117,13.667 26.278,14.440 26.838,14.764 L27.659,15.240 L28.717,13.401 L26.882,12.338 ZM27.397,11.445 L29.231,12.507 L29.793,11.530 L27.958,10.467 L27.397,11.445 ZM30.550,8.315 C29.990,7.990 29.242,8.237 28.881,8.866 L28.473,9.575 L30.308,10.637 L31.371,8.789 L30.550,8.315 ZM34.947,10.861 L33.420,9.977 L33.206,9.853 L33.206,9.853 L32.290,9.323 L28.577,15.772 L31.235,17.311 C31.795,17.635 32.542,17.389 32.904,16.761 L33.308,16.060 L31.480,15.002 L31.994,14.108 L33.822,15.167 L34.384,14.188 L32.556,13.131 L33.071,12.238 L34.898,13.295 L35.306,12.588 C35.668,11.958 35.507,11.186 34.947,10.861 ZM31.474,14.992 L30.555,14.461 L33.206,9.853 L33.420,9.977 L34.126,10.386 L31.474,14.992 ZM19.512,42.007 L1.509,42.007 C0.681,42.007 0.009,41.336 0.009,40.508 L0.009,1.512 C0.009,0.683 0.681,0.012 1.509,0.012 L19.512,0.012 C20.340,0.012 21.012,0.683 21.012,1.512 L21.012,13.567 L21.012,37.185 L21.012,40.508 C21.012,41.336 20.340,42.007 19.512,42.007 ZM19.512,21.010 L19.512,6.011 C17.026,6.011 15.011,3.997 15.011,1.512 L6.010,1.512 C6.010,3.997 3.994,6.011 1.509,6.011 L1.509,21.010 L1.509,36.008 C3.994,36.008 6.010,38.022 6.010,40.508 L15.011,40.508 C15.011,38.022 17.026,36.008 19.512,36.008 L19.512,21.010 ZM10.511,28.509 C5.539,28.509 1.509,25.152 1.509,21.010 C1.509,16.868 5.539,13.511 10.511,13.511 C15.482,13.511 19.512,16.868 19.512,21.010 C19.512,25.152 15.482,28.509 10.511,28.509 ZM18.012,20.306 L16.453,20.306 C16.410,19.884 16.345,19.495 16.236,19.170 C16.055,18.627 15.796,18.139 15.459,17.707 C15.154,17.323 14.781,17.024 14.341,16.812 C13.900,16.598 13.456,16.493 13.005,16.493 C12.285,16.493 11.679,16.705 11.187,17.131 C10.695,17.557 10.328,18.232 10.085,19.157 C10.005,19.466 9.916,19.859 9.822,20.306 L6.053,20.306 C6.112,19.761 6.214,19.198 6.369,18.788 C6.837,17.545 7.563,16.518 7.563,16.518 L5.722,16.518 C5.484,17.087 4.941,18.203 4.810,18.873 C4.722,19.329 4.639,19.812 4.583,20.306 L3.010,20.306 L3.010,21.806 L4.573,21.806 C4.680,22.761 4.976,23.576 5.475,24.241 C6.109,25.087 6.894,25.511 7.831,25.511 C8.283,25.511 8.680,25.435 9.024,25.281 C9.369,25.128 9.667,24.913 9.921,24.637 C10.180,24.355 10.390,24.031 10.551,23.665 C10.711,23.299 10.844,22.886 10.946,22.423 C10.996,22.198 11.039,21.998 11.080,21.806 L14.985,21.806 C14.925,22.377 14.817,23.001 14.647,23.485 C14.118,24.991 13.540,25.468 13.540,25.468 L15.467,25.468 C15.720,24.869 15.934,24.368 16.107,23.687 C16.243,23.152 16.409,22.522 16.476,21.806 L18.012,21.806 L18.012,20.306 ZM11.475,19.721 C11.614,19.145 11.783,18.818 12.073,18.555 C12.362,18.291 12.785,17.972 13.245,17.972 C13.826,17.972 14.293,18.224 14.648,18.727 C14.918,19.113 15.003,19.641 15.028,20.306 L11.359,20.306 C11.395,20.096 11.433,19.888 11.475,19.721 ZM9.478,22.276 C9.344,22.846 9.132,23.281 8.842,23.582 C8.552,23.882 8.161,24.031 7.669,24.031 C7.125,24.031 6.826,23.776 6.492,23.267 C6.240,22.880 6.114,22.374 6.053,21.806 L9.564,21.806 C9.535,21.990 9.506,22.159 9.478,22.276 Z"/>
</svg>