<svg 
 xmlns="http://www.w3.org/2000/svg"
 xmlns:xlink="http://www.w3.org/1999/xlink"
 width="49px" height="38px">
<path fill-rule="evenodd"  fill="rgb(177, 69, 123)"
 d="M47.418,37.995 C43.079,36.215 38.921,34.910 34.843,34.064 C35.562,33.753 36.365,33.576 37.263,33.551 C37.914,33.533 38.467,33.432 38.923,33.251 C39.635,33.612 40.483,33.974 41.145,33.956 C42.931,33.908 43.523,32.725 43.674,31.505 C43.896,29.714 44.229,20.336 44.349,16.777 C45.884,17.296 47.429,17.853 49.000,18.490 C44.331,24.106 46.715,34.643 47.418,37.995 ZM42.314,29.765 C42.230,30.342 42.085,30.386 41.662,30.205 C41.013,29.989 39.722,29.623 38.366,29.343 C34.986,28.644 31.508,28.071 24.515,27.975 L24.467,27.975 C17.474,28.071 13.996,28.644 10.616,29.343 C9.259,29.623 7.969,29.989 7.320,30.205 C6.897,30.386 6.752,30.342 6.668,29.765 C6.472,28.416 6.100,14.685 6.100,14.685 C6.100,14.685 5.774,12.945 7.618,12.406 C9.460,11.868 14.328,10.395 24.491,10.235 C34.654,10.395 39.521,11.868 41.364,12.406 C43.208,12.945 42.882,14.685 42.882,14.685 C42.882,14.685 42.509,28.416 42.314,29.765 ZM14.664,14.621 C14.664,14.228 14.582,13.919 14.421,13.696 C14.259,13.472 14.044,13.360 13.775,13.360 C13.537,13.360 13.376,13.408 13.289,13.508 C13.204,13.606 13.018,13.868 12.734,14.294 C12.452,14.719 12.126,15.105 11.759,15.448 C11.392,15.792 10.901,16.120 10.290,16.431 C9.878,16.639 9.593,16.808 9.431,16.938 C9.268,17.069 9.188,17.274 9.188,17.553 C9.188,17.794 9.270,18.005 9.434,18.189 C9.599,18.371 9.787,18.463 10.001,18.463 C10.446,18.463 11.312,17.930 12.598,16.866 L12.598,24.319 C12.598,24.756 12.691,25.087 12.879,25.309 C13.066,25.534 13.314,25.646 13.624,25.646 C14.318,25.646 14.664,25.097 14.664,24.000 L14.664,14.621 ZM23.960,15.736 C23.740,15.216 23.471,14.778 23.153,14.425 C22.834,14.071 22.466,13.803 22.045,13.619 C21.625,13.435 21.157,13.343 20.641,13.343 C19.860,13.343 19.187,13.550 18.624,13.964 C18.062,14.378 17.632,14.980 17.336,15.769 C17.166,16.247 17.040,16.816 16.961,17.479 C16.880,18.142 16.842,18.888 16.842,19.717 C16.842,20.357 16.877,20.954 16.949,21.505 C17.022,22.055 17.136,22.558 17.292,23.013 C17.597,23.847 18.051,24.499 18.654,24.971 C19.258,25.442 19.939,25.677 20.701,25.677 C21.361,25.677 21.963,25.502 22.504,25.151 C23.044,24.800 23.485,24.301 23.826,23.655 C24.095,23.130 24.280,22.542 24.380,21.895 C24.480,21.249 24.531,20.476 24.531,19.576 C24.531,17.921 24.340,16.641 23.960,15.736 ZM33.100,15.736 C32.879,15.216 32.610,14.778 32.293,14.425 C31.974,14.071 31.605,13.803 31.185,13.619 C30.765,13.435 30.295,13.343 29.781,13.343 C28.999,13.343 28.328,13.550 27.764,13.964 C27.200,14.378 26.771,14.980 26.477,15.769 C26.306,16.247 26.180,16.816 26.101,17.479 C26.021,18.142 25.980,18.888 25.980,19.717 C25.980,20.357 26.016,20.954 26.089,21.505 C26.161,22.055 26.276,22.558 26.432,23.013 C26.737,23.847 27.191,24.499 27.794,24.971 C28.398,25.442 29.080,25.677 29.841,25.677 C30.502,25.677 31.103,25.502 31.642,25.151 C32.184,24.800 32.625,24.301 32.964,23.655 C33.235,23.130 33.420,22.542 33.520,21.895 C33.621,21.249 33.670,20.476 33.670,19.576 C33.670,17.921 33.480,16.641 33.100,15.736 ZM37.457,16.007 C37.408,15.771 37.332,15.569 37.231,15.405 C37.130,15.239 37.006,15.117 36.861,15.037 C36.714,14.957 36.545,14.916 36.352,14.916 C36.086,14.916 35.866,14.992 35.694,15.142 C35.522,15.292 35.398,15.512 35.322,15.803 C35.246,16.091 35.207,16.455 35.207,16.887 C35.207,17.291 35.256,17.633 35.355,17.913 C35.454,18.194 35.591,18.400 35.769,18.531 C35.946,18.664 36.144,18.729 36.367,18.729 C36.728,18.729 37.012,18.575 37.219,18.264 C37.427,17.954 37.530,17.479 37.530,16.843 C37.530,16.523 37.507,16.244 37.457,16.007 ZM40.072,14.944 C40.026,14.886 39.966,14.856 39.891,14.856 C39.815,14.856 39.757,14.888 39.716,14.950 C39.675,15.011 39.628,15.104 39.573,15.227 L36.467,22.001 C36.418,22.102 36.393,22.186 36.393,22.257 C36.393,22.350 36.421,22.426 36.478,22.485 C36.535,22.542 36.591,22.572 36.648,22.572 C36.747,22.572 36.837,22.480 36.916,22.296 L40.003,15.576 C40.095,15.381 40.140,15.246 40.140,15.177 C40.140,15.081 40.117,15.002 40.072,14.944 ZM41.252,19.622 C41.203,19.383 41.126,19.185 41.025,19.024 C40.922,18.864 40.797,18.744 40.654,18.664 C40.509,18.584 40.340,18.544 40.147,18.544 C39.748,18.544 39.455,18.709 39.271,19.037 C39.087,19.366 38.994,19.856 38.994,20.505 C38.994,20.911 39.045,21.253 39.145,21.531 C39.245,21.808 39.383,22.013 39.561,22.147 C39.737,22.280 39.938,22.346 40.162,22.346 C40.524,22.346 40.808,22.191 41.014,21.882 C41.222,21.571 41.327,21.097 41.327,20.459 C41.327,20.140 41.301,19.861 41.252,19.622 ZM40.162,21.721 C39.984,21.721 39.860,21.618 39.790,21.411 C39.719,21.204 39.685,20.877 39.685,20.431 C39.685,20.140 39.698,19.904 39.727,19.723 C39.755,19.540 39.805,19.403 39.873,19.310 C39.942,19.217 40.039,19.170 40.162,19.170 C40.338,19.170 40.460,19.269 40.530,19.467 C40.599,19.665 40.633,19.980 40.633,20.410 C40.633,20.860 40.600,21.192 40.533,21.403 C40.467,21.615 40.343,21.721 40.162,21.721 ZM36.367,18.103 C36.246,18.103 36.150,18.056 36.082,17.961 C36.013,17.866 35.965,17.725 35.940,17.538 C35.913,17.351 35.901,17.110 35.901,16.813 C35.901,16.526 35.913,16.291 35.940,16.105 C35.965,15.920 36.013,15.780 36.083,15.685 C36.153,15.590 36.249,15.542 36.367,15.542 C36.542,15.542 36.665,15.641 36.734,15.840 C36.804,16.039 36.838,16.355 36.838,16.792 C36.838,17.246 36.805,17.579 36.739,17.788 C36.674,17.999 36.550,18.103 36.367,18.103 ZM30.907,23.482 C30.647,23.833 30.286,24.009 29.826,24.009 C29.380,24.009 29.027,23.840 28.767,23.503 C28.506,23.166 28.322,22.668 28.211,22.010 C28.100,21.353 28.045,20.508 28.045,19.477 C28.045,17.960 28.175,16.836 28.432,16.107 C28.689,15.377 29.150,15.013 29.811,15.013 C30.271,15.013 30.632,15.175 30.892,15.503 C31.152,15.828 31.337,16.310 31.448,16.949 C31.557,17.588 31.613,18.409 31.613,19.412 C31.613,20.470 31.560,21.326 31.455,21.978 C31.349,22.631 31.167,23.131 30.907,23.482 ZM21.767,23.482 C21.506,23.833 21.146,24.009 20.686,24.009 C20.240,24.009 19.887,23.840 19.627,23.503 C19.367,23.166 19.181,22.668 19.071,22.010 C18.962,21.353 18.906,20.508 18.906,19.477 C18.906,17.960 19.035,16.836 19.292,16.107 C19.551,15.377 20.010,15.013 20.671,15.013 C21.131,15.013 21.492,15.175 21.752,15.503 C22.012,15.828 22.197,16.310 22.308,16.949 C22.419,17.588 22.474,18.409 22.474,19.412 C22.474,20.470 22.420,21.326 22.315,21.978 C22.211,22.631 22.027,23.131 21.767,23.482 ZM24.491,5.607 C20.878,5.607 17.600,7.019 15.142,9.312 C12.814,9.609 11.063,9.966 9.771,10.279 C9.771,10.279 9.771,10.278 9.771,10.277 C9.324,7.839 10.296,6.586 12.682,6.520 C15.070,6.454 16.773,5.298 17.791,3.051 C18.809,0.807 20.303,0.386 22.272,1.792 C24.241,3.196 26.272,3.302 28.365,2.107 C30.460,0.912 31.906,1.485 32.704,3.824 C33.502,6.164 35.086,7.490 37.456,7.803 C39.343,8.053 40.247,8.970 40.200,10.534 C38.870,10.173 36.829,9.694 33.840,9.312 C31.382,7.019 28.104,5.607 24.491,5.607 ZM7.837,33.956 C8.759,33.982 10.050,33.271 10.816,32.851 C11.071,32.710 11.336,32.564 11.611,32.415 C12.638,32.723 13.497,33.248 14.183,33.996 C10.149,34.824 6.039,36.134 1.752,37.976 C2.367,34.636 4.568,24.101 -0.000,18.489 C1.564,17.854 3.104,17.299 4.633,16.782 C4.753,20.344 5.086,29.715 5.308,31.505 C5.459,32.725 6.051,33.908 7.837,33.956 ZM20.830,29.628 C21.940,29.577 23.122,29.536 24.467,29.518 L24.515,29.518 C25.860,29.536 27.042,29.577 28.152,29.628 C27.009,30.050 25.780,30.292 24.491,30.292 C23.202,30.292 21.973,30.050 20.830,29.628 ZM10.432,30.927 C10.494,30.914 10.553,30.899 10.616,30.886 C12.139,30.570 13.700,30.284 15.575,30.053 C17.979,32.117 21.084,33.378 24.491,33.378 C27.898,33.378 31.003,32.117 33.407,30.053 C35.282,30.284 36.843,30.570 38.366,30.886 C38.596,30.933 38.818,30.986 39.042,31.037 C38.635,31.947 37.717,32.429 36.271,32.469 C33.885,32.537 32.182,33.693 31.164,35.937 C30.146,38.184 28.652,38.603 26.683,37.199 C24.714,35.794 22.683,35.689 20.588,36.882 C18.495,38.077 17.049,37.505 16.251,35.165 C15.452,32.826 13.869,31.499 11.499,31.187 C11.094,31.134 10.746,31.042 10.432,30.927 Z"/>
</svg>