<svg width="139" height="140" viewBox="0 0 139 140" fill="none" xmlns="http://www.w3.org/2000/svg">
<path d="M89.25 96.6562H96.6562V101.594H89.25V96.6562Z" fill="#FD9C12"/>
<path d="M89.25 74.4375H96.6562V79.375H89.25V74.4375Z" fill="#FD9C12"/>
<path d="M60.8594 42.3438H68.2656V47.2812H60.8594V42.3438Z" fill="#FD9C12"/>
<path d="M38.6406 42.3438H46.0469V47.2812H38.6406V42.3438Z" fill="#FD9C12"/>
<path d="M67.0312 96.6562H74.4375V101.594H67.0312V96.6562Z" fill="#FD9C12"/>
<path d="M54.6875 48.5156H50.3326C46.7085 48.5156 43.4263 50.3993 41.5994 53.4778C35.8188 53.8629 31.2344 58.6869 31.2344 64.5625V66.2079C31.2344 68.3088 31.8256 70.3579 32.9477 72.1342L33.0983 72.3724C33.7624 71.3849 34.8918 70.7344 36.1719 70.7344H37.4062V68.2656L41.1094 64.5625H44.315C49.4315 64.5625 54.395 62.8208 58.3882 59.6225L64.56 65.7944L64.5613 70.7344H65.7969C67.0226 70.7344 68.1015 71.3367 68.7754 72.2551L68.947 71.9231C70.116 69.6568 70.7344 67.1115 70.7344 64.5625C70.7344 55.7145 63.5355 48.5156 54.6875 48.5156Z" fill="#FD9C12"/>
<path d="M107.766 34.9375C107.766 32.8958 106.104 31.2344 104.062 31.2344H81.8438C79.8021 31.2344 78.1406 32.8958 78.1406 34.9375V39.875C78.1406 40.8267 78.5122 41.6871 79.1034 42.3438C78.7813 42.7005 78.5319 43.1165 78.3677 43.5781H73.2031V36.1719H55.9219V43.5781H50.9844V36.1719H33.7031V53.4531H41.6155C42.182 52.5039 42.8992 51.6843 43.7114 50.9844H36.1719V38.6406H48.5156V48.6958C49.1094 48.5897 49.713 48.5156 50.3326 48.5156H50.9844V46.0469H55.9219V48.5786C56.765 48.6428 57.5883 48.7736 58.3906 48.9649V38.6406H70.7344V50.9844H63.1997C64.3119 51.6843 65.3327 52.5101 66.24 53.4531H73.2031V46.0469H78.1406V49.75C78.1406 50.7017 78.5122 51.5621 79.1034 52.2188C78.5109 52.8754 78.1406 53.7358 78.1406 54.6875V59.625C78.1406 61.6667 79.8021 63.3281 81.8438 63.3281H91.7188V68.2656H84.3125V85.5469H91.7188V90.4844H84.3125V97.8906H79.375V90.4844H62.0938V93.063C60.7791 91.5694 59.172 90.3474 57.3599 89.4784C59.009 88.8044 60.5236 87.8045 61.821 86.5072C63.7922 84.5347 65.0748 82.061 65.566 79.375H65.7969C68.5199 79.375 70.7344 77.1605 70.7344 74.4375C70.7344 71.7145 68.5199 69.5 65.7969 69.5L65.7944 65.2834L58.4795 57.9685L57.6167 58.6597C53.8568 61.6704 49.1328 63.3281 44.315 63.3281H40.5983L36.1719 67.7546V69.5C33.4488 69.5 31.2344 71.7145 31.2344 74.4375C31.2344 77.1605 33.4488 79.375 36.1719 79.375H36.4076C37.2544 83.9619 40.4082 87.7453 44.6224 89.4722C39.6343 91.8582 36.1719 96.9402 36.1719 102.828V107.766H64.5625H65.7969H79.375V100.359H84.3125V107.766H101.594V90.4844H94.1875V85.5469H101.594V68.2656H94.1875V63.3281H104.062C106.104 63.3281 107.766 61.6667 107.766 59.625V54.6875C107.766 53.7358 107.394 52.8754 106.803 52.2188C107.395 51.5621 107.766 50.7017 107.766 49.75V44.8125C107.766 43.8608 107.394 43.0004 106.803 42.3438C107.394 41.6871 107.766 40.8267 107.766 39.875V34.9375ZM46.7159 94.2418L46.037 91.5274C47.3973 90.93 48.8847 90.5794 50.4462 90.5115L46.7159 94.2418ZM50.8214 99.125H51.1485L52.0299 105.297H49.9401L50.8214 99.125ZM51.3288 96.6562H50.6388L49.9265 94.5208L50.9844 93.4642L52.041 94.5208L51.3288 96.6562ZM51.5226 90.5115C53.084 90.5794 54.5715 90.9288 55.9317 91.5274L55.2528 94.2418L51.5226 90.5115ZM65.7969 71.9688C67.1584 71.9688 68.2656 73.076 68.2656 74.4375C68.2656 75.799 67.1584 76.9062 65.7969 76.9062V71.9688ZM33.7031 74.4375C33.7031 73.076 34.8104 71.9688 36.1719 71.9688V76.9062C34.8104 76.9062 33.7031 75.799 33.7031 74.4375ZM49.75 88.0156C43.6238 88.0156 38.6406 83.0312 38.6406 76.9062V68.7767L41.6204 65.7969H44.315C49.3217 65.7969 54.237 64.1922 58.2795 61.2593L63.3269 66.3067L63.3281 76.905C63.3281 79.8725 62.1728 82.6634 60.0743 84.7618C57.9771 86.859 55.1862 88.0156 52.2188 88.0156H49.75ZM38.6406 102.828C38.6406 98.6979 40.6872 95.0442 43.8114 92.8025L45.3778 99.0707L47.9762 96.4723L48.486 98.003L47.4442 105.297H38.6406V102.828ZM63.3281 105.297H54.5246L53.4827 98.003L53.9925 96.4723L56.5909 99.0707L58.1573 92.8025C61.2815 95.0442 63.3281 98.6979 63.3281 102.828V105.297ZM76.9062 105.297H65.7969V102.828C65.7969 100.73 65.3525 98.7362 64.5625 96.9253V92.9531H76.9062V105.297ZM99.125 105.297H86.7812V92.9531H99.125V105.297ZM99.125 83.0781H86.7812V70.7344H99.125V83.0781ZM80.6094 34.9375C80.6094 34.2574 81.1624 33.7031 81.8438 33.7031H104.062C104.744 33.7031 105.297 34.2574 105.297 34.9375V39.875C105.297 40.5551 104.744 41.1094 104.062 41.1094H81.8438C81.1624 41.1094 80.6094 40.5551 80.6094 39.875V34.9375ZM105.297 44.8125V49.75C105.297 50.4301 104.744 50.9844 104.062 50.9844H81.8438C81.1624 50.9844 80.6094 50.4301 80.6094 49.75V44.8125C80.6094 44.1324 81.1624 43.5781 81.8438 43.5781H104.062C104.744 43.5781 105.297 44.1324 105.297 44.8125ZM105.297 59.625C105.297 60.3051 104.744 60.8594 104.062 60.8594H81.8438C81.1624 60.8594 80.6094 60.3051 80.6094 59.625V54.6875C80.6094 54.0074 81.1624 53.4531 81.8438 53.4531H104.062C104.744 53.4531 105.297 54.0074 105.297 54.6875V59.625Z" fill="black"/>
<path d="M89.25 73.2031H96.6562V75.6719H89.25V73.2031Z" fill="black"/>
<path d="M89.25 78.1406H96.6562V80.6094H89.25V78.1406Z" fill="black"/>
<path d="M89.25 95.4219H96.6562V97.8906H89.25V95.4219Z" fill="black"/>
<path d="M89.25 100.359H96.6562V102.828H89.25V100.359Z" fill="black"/>
<path d="M67.0312 95.4219H74.4375V97.8906H67.0312V95.4219Z" fill="black"/>
<path d="M67.0312 100.359H74.4375V102.828H67.0312V100.359Z" fill="black"/>
<path d="M60.8594 41.1094H68.2656V43.5781H60.8594V41.1094Z" fill="black"/>
<path d="M60.8594 46.0469H68.2656V48.5156H60.8594V46.0469Z" fill="black"/>
<path d="M38.6406 41.1094H46.0469V43.5781H38.6406V41.1094Z" fill="black"/>
<path d="M38.6406 46.0469H46.0469V48.5156H38.6406V46.0469Z" fill="black"/>
<path d="M83.0781 36.1719H85.5469V38.6406H83.0781V36.1719Z" fill="black"/>
<path d="M88.0156 36.1719H90.4844V38.6406H88.0156V36.1719Z" fill="black"/>
<path d="M83.0781 55.9219H85.5469V58.3906H83.0781V55.9219Z" fill="black"/>
<path d="M88.0156 55.9219H90.4844V58.3906H88.0156V55.9219Z" fill="black"/>
<path d="M100.359 46.0469H102.828V48.5156H100.359V46.0469Z" fill="black"/>
<path d="M95.4219 46.0469H97.8906V48.5156H95.4219V46.0469Z" fill="black"/>
<path d="M57.1562 79.375V78.1406H44.8125V79.375C44.8125 82.7782 47.5812 85.5469 50.9844 85.5469C54.3875 85.5469 57.1562 82.7782 57.1562 79.375ZM50.9844 83.0781C49.3748 83.0781 48.0021 82.0462 47.4923 80.6094H54.4764C53.9666 82.0462 52.594 83.0781 50.9844 83.0781Z" fill="black"/>
<path d="M47.2812 73.2031H49.75C49.75 70.4801 47.5355 68.2656 44.8125 68.2656C42.0895 68.2656 39.875 70.4801 39.875 73.2031H42.3438C42.3438 71.8416 43.451 70.7344 44.8125 70.7344C46.174 70.7344 47.2812 71.8416 47.2812 73.2031Z" fill="black"/>
<path d="M57.1562 70.7344C58.5178 70.7344 59.625 71.8416 59.625 73.2031H62.0938C62.0938 70.4801 59.8793 68.2656 57.1562 68.2656C54.4332 68.2656 52.2188 70.4801 52.2188 73.2031H54.6875C54.6875 71.8416 55.7947 70.7344 57.1562 70.7344Z" fill="black"/>
<path d="M113.002 16.03L113.002 16.0301C127.266 27.7057 136.158 44.262 138.027 62.6501C139.897 81.0383 134.509 99.054 122.877 113.37C111.244 127.701 94.7479 136.612 76.4258 138.488L76.4242 138.488C74.0488 138.724 71.6858 138.849 69.3217 138.85L113.002 16.03ZM113.002 16.03C83.5439 -8.07392 40.029 -3.62544 16.0141 25.9408M113.002 16.03L69.3079 138.85C53.5095 138.847 38.3067 133.439 25.8886 123.281C11.6106 111.606 2.73282 95.0491 0.863385 76.6612C-1.00609 58.2729 4.38149 40.2571 16.0141 25.9408M16.0141 25.9408L16.4021 26.2561L16.0141 25.9408ZM69.5142 2.86908H70.0142V2.85716C84.6285 2.96682 99.3192 7.8857 111.503 17.8526C125.287 29.1395 133.87 45.1226 135.671 62.8753C137.473 80.6281 132.274 98.022 121.042 111.857C109.81 125.692 93.8863 134.306 76.2003 136.114C58.5006 137.922 41.1854 132.704 27.4016 121.431C13.6179 110.158 5.03468 94.1749 3.23316 76.4221C1.43164 58.6694 6.63075 41.2754 17.8627 27.4406L17.8627 27.4406C31.0039 11.2516 50.1759 2.86908 69.5142 2.86908Z" stroke="#FD9C12"/>
</svg>
