<svg width="29" height="18" viewBox="0 0 29 18" fill="none" xmlns="http://www.w3.org/2000/svg">
<path d="M0.334772 8.15935L7.89855 0.345477C8.11446 0.12243 8.40223 0 8.70907 0C9.01626 0 9.30386 0.122606 9.51977 0.345477L10.2065 1.05508C10.4222 1.27777 10.5411 1.57523 10.5411 1.89239C10.5411 2.20937 10.4222 2.51685 10.2065 2.73954L5.79391 7.30797H27.8685C28.5006 7.30797 29 7.81915 29 8.47229V9.47547C29 10.1286 28.5006 10.6913 27.8685 10.6913H5.74384L10.2063 15.2853C10.4221 15.5083 10.5409 15.7977 10.5409 16.1148C10.5409 16.4316 10.4221 16.7252 10.2063 16.9481L9.5196 17.6554C9.30369 17.8785 9.01609 18 8.7089 18C8.40206 18 8.11429 17.8769 7.89838 17.6538L0.3346 9.84012C0.118176 9.61637 -0.000846863 9.31769 5.72205e-06 9.00018C-0.000675201 8.68161 0.118177 8.38275 0.334772 8.15935Z" fill="#326973"/>
</svg>
