<svg width="382" height="372" viewBox="0 0 382 372" fill="none" xmlns="http://www.w3.org/2000/svg">
<path d="M0.0642144 374.332C24.3062 362.158 51.3132 372.045 75.1786 380.07C133.387 399.643 157.375 479.434 128.756 558.287C123.608 572.472 117.109 585.659 109.573 597.635C184.219 623.667 283.916 591.092 368.946 503.198C376.496 495.393 383.752 487.336 390.708 479.062C358.75 493.77 324.424 500.682 290.269 497.665C179.678 487.9 112.743 377.766 140.764 251.672C168.786 125.579 281.153 31.277 391.744 41.0414C418.275 43.3842 442.293 51.503 463.09 64.2337C394.103 -33.1803 249.166 -17.0641 132.053 103.996C54.2009 184.471 10.7532 296.861 0.0642144 374.332Z" fill="url(#paint0_linear)" fill-opacity="0.08"/>
<defs>
<linearGradient id="paint0_linear" x1="75.3367" y1="235.182" x2="338.726" y2="110.066" gradientUnits="userSpaceOnUse">
<stop stop-color="#3E5356"/>
<stop offset="1" stop-color="#3E5356" stop-opacity="0.58"/>
</linearGradient>
</defs>
</svg>
