<svg width="286" height="410" viewBox="0 0 286 410" fill="none" xmlns="http://www.w3.org/2000/svg">
<path d="M103.154 405.056C84.5518 385.312 86.2963 356.605 87.1558 331.441C89.2521 270.065 158.84 224.246 242.586 229.102C257.65 229.975 272.146 232.429 285.779 236.223C289.359 157.248 229.615 71.0437 121.063 14.7239C111.425 9.72331 101.628 5.076 91.709 0.779521C114.948 27.1914 131.394 58.1031 138.278 91.6937C160.57 200.453 74.198 296.108 -54.6414 305.344C-183.48 314.579 -305.995 233.899 -328.288 125.139C-333.636 99.0478 -332.73 73.7103 -326.484 50.1396C-400.081 144.119 -343.16 278.383 -193.648 355.953C-94.2593 407.518 25.8638 416.985 103.154 405.056Z" fill="url(#paint0_linear)" fill-opacity="0.08"/>
<defs>
<linearGradient id="paint0_linear" x1="-51.7179" y1="372.754" x2="-246.978" y2="156.187" gradientUnits="userSpaceOnUse">
<stop stop-color="#72BC80"/>
<stop offset="1" stop-color="#326973"/>
</linearGradient>
</defs>
</svg>
