<svg width="44" height="44" viewBox="0 0 44 44" fill="none" xmlns="http://www.w3.org/2000/svg">
<g clip-path="url(#clip0)">
<path d="M11.9137 20.36C13.6208 30.2993 27.7607 31.2438 31.5807 22.7V25.1935C31.5807 26.1718 30.7847 26.9677 29.8065 26.9677C29.0225 26.9677 28.3871 27.6033 28.3871 28.3871C28.3871 29.1709 29.0225 29.8064 29.8065 29.8064C32.35 29.8064 34.4194 27.7371 34.4194 25.1935V19.8399C35.6712 19.2912 36.5484 18.0408 36.5484 16.5887V15.0128C36.5484 13.1453 35.0979 11.6112 33.2645 11.4753C33.2501 11.0027 33.2837 12.0355 33.2433 10.8071C33.2802 10.6017 33.2713 10.4143 33.2239 10.2197L33.1744 8.71581C33.0144 3.85683 29.1238 0 24.364 0H19.5547C14.9576 0 11.1993 3.72448 11.0448 8.41739C10.8396 14.648 10.8562 14.2022 11.9137 20.36ZM29.5029 19.8501C28.1833 27.536 16.0545 27.7006 14.7115 19.8796C14.0923 16.2739 13.773 14.8575 13.7717 12.3255C15.292 12.0981 16.7464 11.4702 17.9778 10.4788C21.7954 12.2496 26.0084 12.8629 30.4382 12.241C30.4458 14.8252 30.1119 16.304 29.5029 19.8501ZM33.7097 15.0128V16.5887C33.7097 16.98 33.3913 17.2984 33 17.2984H32.8214C32.9188 16.7314 33.0961 15.7571 33.2017 14.3327C33.495 14.4199 33.7097 14.6916 33.7097 15.0128ZM19.5548 2.83871H24.3641C27.6034 2.83871 30.227 5.46123 30.3373 8.80923L30.3563 9.38486C25.9117 10.0718 21.8623 9.32986 18.3981 7.52373C17.8291 7.22709 17.1516 7.3559 16.727 7.79013C15.9408 8.59437 14.9523 9.15599 13.8521 9.41946L13.882 8.51081C13.9868 5.33021 16.4785 2.83871 19.5548 2.83871ZM19.0407 16.4264C18.3178 16.5683 17.5506 16.1404 17.3711 15.3113C17.1463 14.1592 18.3478 13.2166 19.4319 13.7828C20.5868 14.4106 20.3673 16.1405 19.0407 16.4264ZM25.6336 16.4264C24.9877 16.5532 24.3146 16.2223 24.0457 15.5774C23.7472 14.862 24.0834 14.0274 24.813 13.7234C25.7234 13.3707 26.5891 13.9445 26.7477 14.7569C26.8908 15.4968 26.4494 16.2505 25.6336 16.4264ZM27.6774 30.3387C27.5064 30.3387 16.3885 30.3373 16.2741 30.3412C9.89521 30.4367 4.79033 35.6378 4.79033 41.9996V42.5806C4.79033 43.3645 5.42575 44 6.20968 44C6.99361 44 7.62904 43.3645 7.62904 42.5806V41.9996C7.62904 37.691 10.762 33.9632 15.0706 33.2857C15.7715 36.4669 18.6114 38.8548 22 38.8548C25.3886 38.8548 28.2285 36.4669 28.9294 33.2858C33.2382 33.9632 36.371 37.6911 36.371 41.9996V42.5806C36.371 43.3645 37.0064 44 37.7903 44C38.5743 44 39.2097 43.3645 39.2097 42.5806V41.9996C39.2097 35.5579 33.9353 30.3387 27.6774 30.3387ZM22 36.0161C20.1497 36.0161 18.572 34.8295 17.9861 33.1774H26.0139C25.428 34.8295 23.8503 36.0161 22 36.0161Z" fill="#F0EADD"/>
</g>
<defs>
<clipPath id="clip0">
<rect width="44" height="44" fill="white"/>
</clipPath>
</defs>
</svg>
