<svg width="44" height="44" viewBox="0 0 44 44" fill="none" xmlns="http://www.w3.org/2000/svg">
<path d="M40.1328 10.3984H31.0234V9.02344C31.0234 4.04791 26.9755 0 22 0C17.0245 0 12.9766 4.04791 12.9766 9.02344V10.3984H3.86719C1.73482 10.3984 0 12.1333 0 14.2656V40.1328C0 42.2652 1.73482 44 3.86719 44H40.1328C42.2652 44 44 42.2652 44 40.1328V14.2656C44 12.1333 42.2652 10.3984 40.1328 10.3984ZM15.5547 9.02344C15.5547 5.46949 18.4461 2.57812 22 2.57812C25.5539 2.57812 28.4453 5.46949 28.4453 9.02344V10.3984H25.8672V9.02344C25.8672 6.89107 24.1324 5.15625 22 5.15625C19.8676 5.15625 18.1328 6.89107 18.1328 9.02344V10.3984H15.5547V9.02344ZM23.2891 9.02344V10.3984H20.7109V9.02344C20.7109 8.31265 21.2892 7.73438 22 7.73438C22.7108 7.73438 23.2891 8.31265 23.2891 9.02344ZM10.3984 41.4219H3.86719C3.1564 41.4219 2.57812 40.8436 2.57812 40.1328V29.7309C3.65613 30.5419 4.99546 31.0234 6.44531 31.0234H8.04203C8.43107 32.1203 9.30153 32.9908 10.3984 33.3798V41.4219ZM11.6875 31.0234C10.9767 31.0234 10.3984 30.4452 10.3984 29.7344V25.8672H12.9766V29.7344C12.9766 30.4452 12.3983 31.0234 11.6875 31.0234ZM31.0234 41.4219H12.9766V33.3798C14.0735 32.9908 14.9439 32.1203 15.333 31.0234H28.667C29.0561 32.1203 29.9265 32.9908 31.0234 33.3798V41.4219ZM32.3125 31.0234C31.6017 31.0234 31.0234 30.4452 31.0234 29.7344V25.8672H33.6016V29.7344C33.6016 30.4452 33.0233 31.0234 32.3125 31.0234ZM41.4219 40.1328C41.4219 40.8436 40.8436 41.4219 40.1328 41.4219H33.6016V33.3798C34.6985 32.9908 35.5689 32.1203 35.958 31.0234H37.5547C39.0045 31.0234 40.3439 30.5419 41.4219 29.7309V40.1328ZM41.4219 24.5781C41.4219 26.7105 39.6871 28.4453 37.5547 28.4453H36.1797V25.8672H37.4688C38.1807 25.8672 38.7578 25.29 38.7578 24.5781C38.7578 23.8662 38.1807 23.2891 37.4688 23.2891C36.378 23.2891 28.2543 23.2891 27.1562 23.2891C26.4443 23.2891 25.8672 23.8662 25.8672 24.5781C25.8672 25.29 26.4443 25.8672 27.1562 25.8672H28.4453V28.4453H15.5547V25.8672H16.8438C17.5557 25.8672 18.1328 25.29 18.1328 24.5781C18.1328 23.8662 17.5557 23.2891 16.8438 23.2891C15.753 23.2891 7.62927 23.2891 6.53125 23.2891C5.81934 23.2891 5.24219 23.8662 5.24219 24.5781C5.24219 25.29 5.81934 25.8672 6.53125 25.8672H7.82031V28.4453H6.44531C4.31295 28.4453 2.57812 26.7105 2.57812 24.5781V14.2656C2.57812 13.5548 3.1564 12.9766 3.86719 12.9766C15.803 12.9766 29.1631 12.9766 40.1328 12.9766C40.8436 12.9766 41.4219 13.5548 41.4219 14.2656V24.5781Z" fill="#F0EADD"/>
</svg>
