<svg width="43" height="43" viewBox="0 0 43 43" fill="none" xmlns="http://www.w3.org/2000/svg">
<path d="M29.4758 2.67137C31.7132 0.00478719 35.6827 -0.343076 38.3498 1.89494L40.2798 3.51449C42.9404 5.74704 43.2887 9.72789 41.0562 12.3884C40.6083 12.9223 39.8132 12.9901 39.2814 12.5437L35.4212 9.3047C35.1155 9.66734 34.6458 10.2344 34.557 10.3277C38.2231 13.8619 40.3965 18.7043 40.3965 24.0195C40.3965 29.099 38.3943 34.0103 34.5602 37.7081L37.264 40.9304C37.7112 41.4633 37.6418 42.2579 37.1087 42.7051C36.5779 43.1506 35.7829 43.085 35.334 42.5498L32.6364 39.3349C29.4171 41.7142 25.5534 42.9999 21.5001 42.9999C17.4468 42.9999 13.5831 41.7142 10.3638 39.335L7.66621 42.5498C7.22034 43.0812 6.42593 43.1537 5.89146 42.7051C5.35841 42.2579 5.28896 41.4633 5.73617 40.9303L8.43996 37.7081C4.75356 34.152 2.60364 29.3039 2.60364 24.0195C2.60364 18.9488 4.60028 14.0316 8.44315 10.3277C8.34103 10.2204 8.53914 10.4441 7.57887 9.3047L3.7187 12.5437C3.18784 12.9892 2.39284 12.9236 1.94395 12.3884C-0.288609 9.72781 0.0596771 5.74696 2.7203 3.51449L4.65034 1.89494C7.31096 -0.337533 11.2917 0.0107498 13.5243 2.67129C13.7391 2.92727 13.8434 3.258 13.8143 3.59083C13.7851 3.92366 13.625 4.23129 13.369 4.44612L9.50882 7.68514C10.4626 8.82582 10.2807 8.59923 10.3608 8.70597C13.2455 6.57344 16.6477 5.3199 20.2403 5.08188V2.51953H17.7208C17.0251 2.51953 16.461 1.95549 16.461 1.25976C16.461 0.564038 17.0251 0 17.7208 0H25.2794C25.9751 0 26.5391 0.564038 26.5391 1.25976C26.5391 1.95549 25.9751 2.51953 25.2794 2.51953H22.7599V5.08188C26.3524 5.3199 29.7546 6.57344 32.6393 8.70597C32.7133 8.60721 32.6004 8.75057 33.4913 7.68514L29.6312 4.44612C29.0981 3.99891 29.0286 3.20433 29.4758 2.67137ZM6.26989 3.82506L4.33985 5.44461C3.08176 6.50029 2.68536 8.20761 3.22966 9.66516C3.99955 9.01915 9.84619 4.11321 10.6192 3.4646C9.27812 2.6754 7.52797 2.76946 6.26989 3.82506ZM5.12317 24.0195C5.12317 33.0961 12.4699 40.4804 21.5001 40.4804C30.5303 40.4804 37.877 33.0961 37.877 24.0195C37.877 14.9429 30.5303 7.55858 21.5001 7.55858C12.4699 7.55858 5.12317 14.9429 5.12317 24.0195ZM39.7705 9.66516C40.3148 8.20761 39.9185 6.50029 38.6603 5.44461L36.7303 3.82506C35.4354 2.73856 33.6791 2.69547 32.3797 3.46342L39.7705 9.66516Z" fill="#F0EADD"/>
<path d="M21.5 15.1172C22.1957 15.1172 22.7598 15.6812 22.7598 16.377V23.5038L27.4372 28.2591C27.9251 28.7551 27.9185 29.5527 27.4224 30.0406C26.9272 30.5278 26.1296 30.5226 25.6409 30.0259L20.6018 24.9029C20.3702 24.6673 20.2403 24.3501 20.2403 24.0195V16.377C20.2403 15.6812 20.8043 15.1172 21.5 15.1172Z" fill="#F0EADD"/>
<path d="M21.5 12.5977C20.8043 12.5977 20.2402 12.0336 20.2402 11.3379C20.2402 10.6421 20.8043 10.0781 21.5 10.0781C22.1957 10.0781 22.7598 10.6421 22.7598 11.3379C22.7598 12.0336 22.1957 12.5977 21.5 12.5977Z" fill="#F0EADD"/>
<path d="M21.5 37.9609C20.8043 37.9609 20.2402 37.3969 20.2402 36.7012C20.2402 36.0054 20.8043 35.4414 21.5 35.4414C22.1957 35.4414 22.7598 36.0054 22.7598 36.7012C22.7598 37.3969 22.1957 37.9609 21.5 37.9609Z" fill="#F0EADD"/>
<path d="M30.4079 16.2871C29.7122 16.2871 29.1482 15.7231 29.1482 15.0273C29.1482 14.3316 29.7122 13.7676 30.4079 13.7676C31.1037 13.7676 31.6677 14.3316 31.6677 15.0273C31.6677 15.7231 31.1037 16.2871 30.4079 16.2871Z" fill="#F0EADD"/>
<path d="M12.5921 34.2715C11.8964 34.2715 11.3324 33.7075 11.3324 33.0117C11.3324 32.316 11.8964 31.752 12.5921 31.752C13.2879 31.752 13.8519 32.316 13.8519 33.0117C13.8519 33.7075 13.2879 34.2715 12.5921 34.2715Z" fill="#F0EADD"/>
<path d="M34.0977 25.2793C33.4019 25.2793 32.8379 24.7153 32.8379 24.0195C32.8379 23.3238 33.4019 22.7598 34.0977 22.7598C34.7934 22.7598 35.3574 23.3238 35.3574 24.0195C35.3574 24.7153 34.7934 25.2793 34.0977 25.2793Z" fill="#F0EADD"/>
<path d="M8.90234 25.2793C8.20659 25.2793 7.64258 24.7153 7.64258 24.0195C7.64258 23.3238 8.20659 22.7598 8.90234 22.7598C9.59809 22.7598 10.1621 23.3238 10.1621 24.0195C10.1621 24.7153 9.59809 25.2793 8.90234 25.2793Z" fill="#F0EADD"/>
<path d="M30.4079 34.2715C29.7122 34.2715 29.1482 33.7075 29.1482 33.0117C29.1482 32.316 29.7122 31.752 30.4079 31.752C31.1037 31.752 31.6677 32.316 31.6677 33.0117C31.6677 33.7075 31.1037 34.2715 30.4079 34.2715Z" fill="#F0EADD"/>
<path d="M12.5921 16.2871C11.8964 16.2871 11.3324 15.7231 11.3324 15.0273C11.3324 14.3316 11.8964 13.7676 12.5921 13.7676C13.2879 13.7676 13.8519 14.3316 13.8519 15.0273C13.8519 15.7231 13.2879 16.2871 12.5921 16.2871Z" fill="#F0EADD"/>
</svg>
