<svg width="190" height="18" viewBox="0 0 190 18" fill="none" xmlns="http://www.w3.org/2000/svg">
<path d="M0 0.254395H5.83431V5.88135H9.55619V0.254395H15.3905V16.9673H9.55619V11.1556H5.83431V16.9673H0V0.254395Z" fill="#005596"/>
<path d="M32.9939 0.27002V10.1641C32.9939 15.0356 29.9426 17.2529 25.2651 17.2529C20.5876 17.2529 17.5364 15.0356 17.5364 10.1641V0.27002H23.6054V9.57618C23.6054 10.8864 23.6557 12.0455 25.2651 12.0455C26.8746 12.0455 26.9249 10.8864 26.9249 9.57618V0.27002H32.9939Z" fill="#005596"/>
<path d="M40.7394 12.9866H41.4268C42.4159 12.9866 43.8578 12.9699 43.8578 11.5925C43.8578 10.1983 42.3154 10.2151 41.343 10.2151H40.7394V12.9866ZM41.2927 6.68771C42.1812 6.68771 43.1704 6.60372 43.1704 5.44472C43.1704 4.20173 42.0471 4.28572 41.1585 4.28572H40.7394V6.68771H41.2927ZM35.123 0.254395H42.1812C45.4169 0.254395 48.7029 1.02706 48.7029 4.89041C48.7029 6.35177 47.9652 7.79632 46.5067 8.26664V8.40102C48.3173 9.03931 49.4741 10.3663 49.4741 12.3652C49.4741 15.8086 46.2887 16.9844 43.3716 16.9844H35.123V0.254395Z" fill="#005596"/>
<path d="M51.2009 0.254395H62.4168V4.82314H57.3034V6.41885H61.9809V10.7524H57.3034V12.3985H62.6012V16.9673H51.2009V0.254395Z" fill="#005596"/>
<path d="M70.7156 7.66182H71.1347C72.1239 7.66182 73.1298 7.51064 73.1298 6.26768C73.1298 4.99111 72.2245 4.82314 71.185 4.82314H70.7156V7.66182ZM64.7808 0.254395H72.1071C75.8625 0.254395 79.0479 1.8501 79.0479 6.06611C79.0479 8.58564 78.0755 9.66064 75.8122 10.4165V10.5509C76.114 10.8028 76.4996 11.0548 76.8349 11.5419L80.4729 16.9673H73.4818L70.833 11.6091H70.7156V16.9673H64.7808C64.7808 16.9673 64.7808 0.254395 64.7808 0.254395Z" fill="#005596"/>
<path d="M92.7451 11.0023L93.0469 11.2543C94.1366 12.0942 95.4443 12.7829 96.8358 12.7829C97.4393 12.7829 98.3782 12.5477 98.3782 11.7918C98.3782 11.0359 97.5734 10.9687 97.0202 10.8679L95.7963 10.6496C93.4325 10.2296 91.4374 8.83546 91.4374 6.21505C91.4542 2.21726 95.0587 0 98.6967 0C100.608 0 102.352 0.470328 103.994 1.46138L102.352 5.74473C101.312 5.03923 100.139 4.48492 98.8308 4.48492C98.2943 4.48492 97.5231 4.68649 97.5231 5.37518C97.5231 5.99669 98.2776 6.08068 98.747 6.19826L100.122 6.50061C102.687 7.07172 104.548 8.44911 104.548 11.2879C104.548 15.2857 100.91 17.251 97.3052 17.251C95.2096 17.251 92.7618 16.6799 90.8842 15.7224C90.8842 15.7224 92.7451 11.0023 92.7451 11.0023Z" fill="#005596"/>
<path d="M121.766 0.27002V10.1641C121.766 15.0356 118.714 17.2529 114.037 17.2529C109.359 17.2529 106.308 15.0356 106.308 10.1641V0.27002H112.377V9.57618C112.377 10.8864 112.427 12.0455 114.037 12.0455C115.646 12.0455 115.697 10.8864 115.697 9.57618V0.27002H121.766Z" fill="#005596"/>
<path d="M123.979 0.27002H129.83V5.8973H133.552V0.27002H139.403V16.9839H133.552V11.1718H129.83V16.9839H123.979V0.27002Z" fill="#005596"/>
<path d="M141.8 0.27002H147.618L153.066 9.54244H153.251C152.999 8.14821 152.748 6.7036 152.748 5.27578V0.27002H158.548V16.9839H152.731L147.4 8.19861H147.215C147.416 9.35766 147.584 10.4327 147.584 11.5414V16.9671H141.783C141.8 16.9839 141.8 0.27002 141.8 0.27002Z" fill="#005596"/>
<path d="M160.946 0.27002H172.162V4.83898H167.048V6.43476H171.726V10.7854H167.048V12.4315H172.346V17.0005H160.946V0.27002Z" fill="#005596"/>
<path d="M180.243 7.67788H180.662C181.651 7.67788 182.657 7.52669 182.657 6.28365C182.657 4.99022 181.752 4.83904 180.712 4.83904H180.243V7.67788ZM174.308 0.27002H181.634C185.39 0.27002 188.575 1.86582 188.575 6.08208C188.575 8.60176 187.603 9.67682 185.339 10.4327V10.5671C185.658 10.8191 186.027 11.071 186.362 11.5582L190 16.9839H183.009L180.36 11.6254H180.243V16.9839H174.308V0.27002Z" fill="#005596"/>
<path d="M84.0943 4.36768H86.7264V7.55905H89.9117V10.1961H86.7264V13.4043H84.0943V10.1961H80.9089V7.55905H84.0943V4.36768Z" fill="#005596"/>
</svg>
