<svg width="44" height="44" viewBox="0 0 44 44" fill="none" xmlns="http://www.w3.org/2000/svg">
<path d="M15.6406 24.5781C15.6406 32.3968 22.0017 38.7578 29.8203 38.7578C37.6389 38.7578 44 32.3968 44 24.5781C44 17.1939 38.3261 11.1111 31.1094 10.4575V7.82031H33.6875V5.24219H25.9531V7.82031H28.5312V10.4575C21.3145 11.1111 15.6406 17.1939 15.6406 24.5781ZM41.4219 24.5781C41.4219 30.9751 36.2173 36.1797 29.8203 36.1797C23.4233 36.1797 18.2188 30.9751 18.2188 24.5781C18.2188 18.1812 23.4233 12.9766 29.8203 12.9766C36.2173 12.9766 41.4219 18.1812 41.4219 24.5781Z" fill="#39403A"/>
<path d="M28.5312 15.5547V25.8672H38.8438V23.2891H31.1094V15.5547H28.5312Z" fill="#39403A"/>
<path d="M0 24.5781C0 23.8662 0.577133 23.2891 1.28906 23.2891H9.19531C9.90724 23.2891 10.4844 23.8662 10.4844 24.5781C10.4844 25.2901 9.90724 25.8672 9.19531 25.8672H1.28906C0.577133 25.8672 0 25.2901 0 24.5781Z" fill="#39403A"/>
<path d="M2.57812 16.8438C2.57812 16.1318 3.15526 15.5547 3.86719 15.5547H11.7734C12.4854 15.5547 13.0625 16.1318 13.0625 16.8438C13.0625 17.5557 12.4854 18.1328 11.7734 18.1328H3.86719C3.15526 18.1328 2.57812 17.5557 2.57812 16.8438Z" fill="#39403A"/>
<path d="M2.57812 32.3125C2.57812 31.6006 3.15526 31.0234 3.86719 31.0234H11.7734C12.4854 31.0234 13.0625 31.6006 13.0625 32.3125C13.0625 33.0244 12.4854 33.6016 11.7734 33.6016H3.86719C3.15526 33.6016 2.57812 33.0244 2.57812 32.3125Z" fill="#39403A"/>
</svg>
