<svg width="39" height="39" viewBox="0 0 39 39" fill="none" xmlns="http://www.w3.org/2000/svg">
<g clip-path="url(#clip0)">
<ellipse cx="19.8242" cy="20.6172" rx="16.6523" ry="14.2734" fill="white"/>
<path d="M19.0313 0C8.52219 0 0 8.52219 0 19.0313C0 29.5403 8.52219 38.0625 19.0313 38.0625C29.5403 38.0625 38.0625 29.5403 38.0625 19.0313C38.0625 8.52219 29.5403 0 19.0313 0ZM19.4346 30.1118C19.4349 30.1118 19.4343 30.1118 19.4346 30.1118H19.43C17.5235 30.1109 15.6502 29.633 13.9865 28.7258L7.94837 30.3093L9.56441 24.4085C8.56749 22.6818 8.04304 20.7228 8.04391 18.7159C8.04652 12.4376 13.1563 7.32983 19.4346 7.32983C22.4814 7.33099 25.3415 8.51696 27.4919 10.6691C29.6425 12.8215 30.8262 15.6824 30.825 18.7249C30.8224 25.0035 25.7121 30.1118 19.4346 30.1118Z" fill="#58E076"/>
<path d="M19.4384 9.25311C14.2163 9.25311 9.96924 13.4984 9.96692 18.7168C9.96634 20.505 10.467 22.2465 11.4145 23.7533L11.6396 24.1114L10.683 27.604L14.2662 26.6643L14.6121 26.8693C16.0655 27.7317 17.7318 28.188 19.4306 28.1885H19.4343C24.6524 28.1885 28.8994 23.943 28.9018 18.7243C28.9026 16.1953 27.9188 13.8175 26.1314 12.0287C24.344 10.2399 21.9669 9.25398 19.4384 9.25311ZM25.007 22.7858C24.7697 23.4502 23.6329 24.0568 23.086 24.1387C22.5956 24.2119 21.9753 24.2424 21.2934 24.026C20.8799 23.8948 20.35 23.7197 19.6707 23.4267C16.8159 22.1942 14.9512 19.3205 14.8089 19.1306C14.6667 18.9407 13.6468 17.5877 13.6468 16.1871C13.6468 14.7869 14.3821 14.0983 14.6428 13.8137C14.9039 13.5289 15.2123 13.4577 15.4019 13.4577C15.5916 13.4577 15.7815 13.4595 15.9473 13.4676C16.1221 13.4763 16.3567 13.4011 16.5876 13.956C16.8249 14.5258 17.394 15.9261 17.4652 16.0684C17.5363 16.2109 17.5837 16.3771 17.489 16.567C17.394 16.7569 17.0787 17.1666 16.7775 17.5401C16.6512 17.6966 16.4866 17.836 16.6527 18.1209C16.8185 18.4055 17.39 19.3373 18.2359 20.0918C19.3231 21.0611 20.2402 21.3614 20.5248 21.504C20.8091 21.6463 20.9752 21.6224 21.1413 21.4328C21.3071 21.2429 21.8527 20.602 22.0424 20.3171C22.232 20.0322 22.4219 20.0799 22.6827 20.1748C22.9437 20.2695 24.3429 20.958 24.6275 21.1003C24.912 21.2429 25.1017 21.314 25.1728 21.4328C25.2442 21.5516 25.2442 22.121 25.007 22.7858Z" fill="#58E076"/>
</g>
<defs>
<clipPath id="clip0">
<rect width="38.0625" height="38.0625" fill="white"/>
</clipPath>
</defs>
</svg>
