<svg width="364" height="386" viewBox="0 0 364 386" fill="none" xmlns="http://www.w3.org/2000/svg">
<path d="M-106.259 1.25125C-92.8883 28.7038 -91.1972 59.4544 -104.11 89.3901C-135.604 162.405 -242.053 202.924 -341.87 179.891C-359.826 175.748 -376.343 169.831 -391.175 162.488C-432.777 256.257 -400.579 371.7 -294.782 461.419C-285.388 469.385 -275.635 476.961 -265.567 484.142C-281.447 447.757 -286.924 407.384 -279.48 365.772C-255.38 231.04 -104.971 134.337 56.4712 149.78C217.912 165.223 329.248 286.964 305.149 421.697C299.367 454.019 286.316 484.153 267.587 511.074C401.631 413.748 395.535 241.375 249.817 117.804C152.95 35.6592 17.8668 -5.00833 -106.259 1.25125Z" fill="url(#paint0_linear)" fill-opacity="0.17"/>
<defs>
<linearGradient id="paint0_linear" x1="-3.20122" y1="75.5656" x2="234.318" y2="387.052" gradientUnits="userSpaceOnUse">
<stop stop-color="#222E2E"/>
<stop offset="1" stop-color="#222E2E" stop-opacity="0.21"/>
</linearGradient>
</defs>
</svg>
