<svg width="471" height="209" viewBox="0 0 471 209" fill="none" xmlns="http://www.w3.org/2000/svg">
<path d="M483.061 195.99C462.844 177.902 462.137 149.151 460.849 124.005C457.709 62.674 523.141 11.0931 606.996 8.7964C622.08 8.38327 636.732 9.59285 650.638 12.2117C647.477 -66.7808 580.607 -147.582 467.651 -194.449C457.622 -198.611 447.465 -202.406 437.216 -205.842C462.62 -181.506 481.64 -152.108 491.361 -119.226C522.837 -12.7607 444.928 89.904 317.344 110.083C189.761 130.261 60.8176 60.3119 29.34 -46.1533C21.7889 -71.6944 20.5326 -97.0169 24.7483 -121.034C-40.5746 -21.1259 27.5772 107.8 183.155 172.351C286.575 215.261 407.068 214.46 483.061 195.99Z" fill="url(#paint0_linear)" fill-opacity="0.2"/>
<defs>
<linearGradient id="paint0_linear" x1="326" y1="176.999" x2="113" y2="-22.1461" gradientUnits="userSpaceOnUse">
<stop stop-color="#3E5356"/>
<stop offset="1" stop-color="#3E5356" stop-opacity="0.58"/>
</linearGradient>
</defs>
</svg>
