<svg 
 xmlns="http://www.w3.org/2000/svg"
 xmlns:xlink="http://www.w3.org/1999/xlink"
 width="202px" height="726px">
<path fill-rule="evenodd"  fill="rgb(255, 255, 255)"
 d="M22.000,531.000 L37.000,531.000 C40.314,531.000 43.000,533.686 43.000,537.000 L43.000,552.000 C43.000,555.314 40.314,558.000 37.000,558.000 L22.000,558.000 C18.686,558.000 16.000,555.314 16.000,552.000 L16.000,537.000 C16.000,533.686 18.686,531.000 22.000,531.000 Z"/>
<path fill-rule="evenodd"  fill="rgb(87, 88, 91)"
 d="M6.000,695.000 L25.000,695.000 C28.314,695.000 31.000,697.686 31.000,701.000 L31.000,720.000 C31.000,723.314 28.314,726.000 25.000,726.000 L6.000,726.000 C2.686,726.000 -0.000,723.314 -0.000,720.000 L-0.000,701.000 C-0.000,697.686 2.686,695.000 6.000,695.000 Z"/>
<path fill-rule="evenodd"  fill="rgb(87, 88, 91)"
 d="M159.000,193.000 L196.000,193.000 C199.314,193.000 202.000,195.686 202.000,199.000 L202.000,236.000 C202.000,239.313 199.314,242.000 196.000,242.000 L159.000,242.000 C155.686,242.000 153.000,239.313 153.000,236.000 L153.000,199.000 C153.000,195.686 155.686,193.000 159.000,193.000 Z"/>
<path fill-rule="evenodd"  fill="rgb(232, 170, 0)"
 d="M107.000,636.000 L117.000,636.000 C120.314,636.000 123.000,638.686 123.000,642.000 L123.000,652.000 C123.000,655.314 120.314,658.000 117.000,658.000 L107.000,658.000 C103.686,658.000 101.000,655.314 101.000,652.000 L101.000,642.000 C101.000,638.686 103.686,636.000 107.000,636.000 Z"/>
<path fill-rule="evenodd"  fill="rgb(232, 170, 0)"
 d="M147.000,-0.000 L159.000,-0.000 C162.314,-0.000 165.000,2.686 165.000,6.000 L165.000,18.000 C165.000,21.313 162.314,24.000 159.000,24.000 L147.000,24.000 C143.686,24.000 141.000,21.313 141.000,18.000 L141.000,6.000 C141.000,2.686 143.686,-0.000 147.000,-0.000 Z"/>
</svg>