<svg 
 xmlns="http://www.w3.org/2000/svg"
 xmlns:xlink="http://www.w3.org/1999/xlink"
 width="57px" height="558px">
<path fill-rule="evenodd"  fill="rgb(255, 255, 255)"
 d="M6.000,531.000 L21.000,531.000 C24.314,531.000 27.000,533.686 27.000,537.000 L27.000,551.999 C27.000,555.313 24.314,557.999 21.000,557.999 L6.000,557.999 C2.686,557.999 -0.000,555.313 -0.000,551.999 L-0.000,537.000 C-0.000,533.686 2.686,531.000 6.000,531.000 Z"/>
<path fill-rule="evenodd"  fill="rgb(232, 170, 0)"
 d="M39.000,-0.000 L51.000,-0.000 C54.314,-0.000 57.000,2.686 57.000,6.000 L57.000,18.000 C57.000,21.313 54.314,23.999 51.000,23.999 L39.000,23.999 C35.686,23.999 33.000,21.313 33.000,18.000 L33.000,6.000 C33.000,2.686 35.686,-0.000 39.000,-0.000 Z"/>
</svg>