<svg width="50" height="50" viewBox="0 0 50 50" fill="none" xmlns="http://www.w3.org/2000/svg">
<path d="M23.3934 9.73438H17.7694C15.3777 9.73438 13.2904 11.0504 12.1841 12.9938C12.1696 13.2461 12.1455 13.4952 12.1455 13.7515V18.7118H12.1712C12.4163 18.6274 12.675 18.572 12.9489 18.572H15.3592C15.3592 17.9791 15.6846 17.4665 16.1626 17.1877V16.1617C16.1626 15.2756 16.8833 14.5549 17.7694 14.5549H23.3934V9.73438Z" fill="#FD9C12"/>
<path d="M37.8175 12.9938C36.7104 11.0504 34.6231 9.73438 32.2314 9.73438H26.6074V14.5549H32.2314C33.1175 14.5549 33.8382 15.2756 33.8382 16.1617V17.1877C34.3162 17.4657 34.6416 17.9783 34.6416 18.572H37.0519C37.3258 18.572 37.5845 18.6274 37.8296 18.7118H37.8553V13.7515C37.8553 13.496 37.832 13.2461 37.8175 12.9938Z" fill="#FD9C12"/>
<path d="M20.1794 20.9828C20.6231 20.9828 20.9828 20.6231 20.9828 20.1794C20.9828 19.7357 20.6231 19.376 20.1794 19.376C19.7357 19.376 19.376 19.7357 19.376 20.1794C19.376 20.6231 19.7357 20.9828 20.1794 20.9828Z" fill="white"/>
<path d="M29.821 20.9828C30.2647 20.9828 30.6244 20.6231 30.6244 20.1794C30.6244 19.7357 30.2647 19.376 29.821 19.376C29.3773 19.376 29.0176 19.7357 29.0176 20.1794C29.0176 20.6231 29.3773 20.9828 29.821 20.9828Z" fill="white"/>
<path d="M28.782 27.1741L27.6459 26.0381C26.7614 26.9227 25.586 27.4095 24.335 27.4095H22.5908V29.0164H24.335C26.015 29.0164 27.5945 28.3624 28.782 27.1741Z" fill="white"/>
<path d="M22.5898 3.30762H27.4104V4.91446H22.5898V3.30762Z" fill="white"/>
<path d="M30.624 6.52148H33.8377V8.12832H30.624V6.52148Z" fill="white"/>
<path d="M50 49.9058L49.5493 45.8549C49.2576 43.2293 47.4154 41.0874 44.9023 40.3909L44.6476 39.6252C46.8032 38.5864 48.2984 36.3858 48.2984 33.8374V33.6895C49.2311 33.3569 49.9052 32.4732 49.9052 31.4271V28.2134C49.9052 24.2269 46.661 20.9827 42.6744 20.9827H41.0676C40.7952 20.9827 40.5269 21.0116 40.2585 21.0413C40.2585 21.0212 40.2642 21.0027 40.2642 20.9827C40.2642 19.7984 39.6134 18.7733 38.6573 18.2157V13.7519C38.6573 6.22063 32.5305 0.09375 24.9992 0.09375C17.4679 0.09375 11.3411 6.22063 11.3411 13.7519V18.2157C10.385 18.7733 9.73423 19.7984 9.73423 20.9827C9.73423 21.0027 9.73985 21.0212 9.73985 21.0413C9.47232 21.0116 9.20397 20.9827 8.93161 20.9827H7.32478C3.33821 20.9827 0.0940001 24.2269 0.0940001 28.2134V31.4271C0.0940001 32.4732 0.768069 33.3569 1.70084 33.6895V33.8374C1.70084 36.3866 3.196 38.5864 5.35238 39.6252L5.09689 40.3909C2.5846 41.0874 0.741556 43.2293 0.449915 45.8549L0 49.9058H16.2564L15.8057 45.8549C15.7928 45.7416 15.7615 45.6348 15.743 45.5231C16.4709 46.2446 17.4704 46.6921 18.5726 46.6921H19.3761V49.9058H30.6239V48.2989C31.5101 48.2989 32.2308 47.5782 32.2308 46.6921C32.9651 46.6921 33.6335 46.435 34.1759 46.0196L33.7436 49.9058H50ZM24.1966 40.2647V38.6595L27.4103 38.874V41.7454L26.9154 41.7832C26.3473 40.8753 25.3455 40.2647 24.1966 40.2647ZM24.1966 17.769H25.8034H33.0342C33.4769 17.769 33.8376 18.1297 33.8376 18.5724V21.7861C33.8376 22.2288 33.4769 22.5895 33.0342 22.5895H27.4103C27.2207 22.5895 27.0511 22.4842 26.966 22.3147L26.8816 22.146C26.5233 21.4286 25.8026 20.9827 25 20.9827C24.1974 20.9827 23.4767 21.4286 23.1184 22.1452L23.034 22.3147C22.9489 22.4842 22.7794 22.5895 22.5897 22.5895H16.9658C16.5231 22.5895 16.1624 22.2288 16.1624 21.7861V18.5724C16.1624 18.1297 16.5231 17.769 16.9658 17.769H24.1966ZM24.1966 16.1621V9.73478H25.8034L25.8042 16.1621H24.1966ZM35.4445 19.3758H37.0513C37.9375 19.3758 38.6581 20.0965 38.6581 20.9827C38.6581 21.8688 37.9375 22.5895 37.0513 22.5895H35.4445V21.7861V19.3758ZM46.6923 33.8374H44.2821C44.0925 33.8374 43.9229 33.7321 43.8378 33.5626L43.7534 33.3939C43.3951 32.6764 42.6744 32.2305 41.8718 32.2305C41.0692 32.2305 40.3485 32.6764 39.9902 33.3931L39.9058 33.5626C39.8207 33.7321 39.6512 33.8374 39.4616 33.8374H37.0513V30.6237H46.6923V33.8374ZM38.8405 40.3909C38.1905 40.5708 37.5888 40.8512 37.0433 41.2079C37.0449 41.1806 37.0513 41.1549 37.0513 41.1276V39.4099C37.0513 38.5663 36.3925 37.8625 35.5513 37.8071L33.8553 37.6946C32.6542 35.9062 30.9027 34.6014 28.8403 33.9812L28.5776 33.1938C30.7678 32.3912 32.6124 30.8808 33.8376 28.9349V31.4271C33.8376 32.4732 34.5117 33.3569 35.4445 33.6895V33.8374C35.4445 36.3858 36.9396 38.5864 39.0952 39.6252L38.8405 40.3909ZM29.0171 35.7519C30.031 36.1568 30.9373 36.7666 31.6877 37.55L29.0171 37.3724V35.7519ZM27.4103 37.2647L26.1642 37.182L27.4103 36.2476V37.2647ZM16.9658 24.1963H22.5897C23.3924 24.1963 24.113 23.7504 24.4714 23.0338L24.5557 22.8643C24.7252 22.526 25.2748 22.526 25.4435 22.8643L25.5279 23.033C25.887 23.7504 26.6084 24.1963 27.4103 24.1963H33.0342C33.305 24.1963 33.5604 24.1417 33.8039 24.0589C33.4616 28.6208 29.6486 32.2305 25 32.2305C20.3514 32.2305 16.5384 28.6208 16.1961 24.0589C16.4396 24.1417 16.6951 24.1963 16.9658 24.1963ZM25 33.8374C25.6958 33.8374 26.3739 33.7659 27.0319 33.6357L27.2689 34.3459L25.0008 36.0468L22.7328 34.3459L22.9698 33.6357C23.6262 33.7659 24.305 33.8374 25 33.8374ZM23.6615 37.051H22.5905V36.2476L23.6615 37.051ZM21.7863 38.6579L22.5897 38.6571V40.2647H20.9829V39.4613C20.9829 39.0186 21.3436 38.6579 21.7863 38.6579ZM24.1966 41.8716C25.0828 41.8716 25.8034 42.5922 25.8034 43.4784C25.8034 44.3646 25.0828 45.0852 24.1966 45.0852H22.5897V41.8716H24.1966ZM29.0171 38.9809L30.6239 39.0877V41.498L29.0171 41.6217V38.9809ZM32.2308 39.1954L35.4445 39.4099V41.1276L32.2308 41.375V39.1954ZM47.9537 46.0317L48.2052 48.2989H35.5385L35.7899 46.0317C35.9932 44.2031 37.2007 42.6886 38.8823 42.0652L38.9337 42.2717C39.3298 43.8552 40.1485 45.3022 41.303 46.4567L41.871 47.0247L42.439 46.4567C43.5935 45.3022 44.413 43.8552 44.8083 42.2725L44.8597 42.066C46.5421 42.6886 47.7504 44.2031 47.9537 46.0317ZM43.4457 41.1003L43.2505 41.8828C42.995 42.9064 42.5234 43.8608 41.8718 44.6827C41.2202 43.8608 40.7494 42.9064 40.4931 41.882L40.2979 41.0995L40.6177 40.1394C41.0234 40.2197 41.4428 40.2639 41.8718 40.2639C42.3008 40.2639 42.7202 40.2197 43.1259 40.1394L43.4457 41.1003ZM41.8718 38.6579C39.7773 38.6579 37.9961 37.3138 37.3325 35.4442H39.4616C40.2642 35.4442 40.9848 34.9983 41.3432 34.2817L41.4275 34.1121C41.597 33.7739 42.1466 33.7739 42.3153 34.1121L42.3997 34.2808C42.7588 34.9983 43.4803 35.4442 44.2821 35.4442H46.4111C45.7475 37.3138 43.9663 38.6579 41.8718 38.6579ZM41.0684 22.5895H42.6752C44.2033 22.5895 45.5892 23.2041 46.604 24.1963H41.8718V25.8032H47.7488C48.0983 26.5351 48.2992 27.3498 48.2992 28.2134V30.6237C48.2992 29.7375 47.5785 29.0168 46.6923 29.0168H37.0513C36.1651 29.0168 35.4445 29.7375 35.4445 30.6237V28.2134C35.4445 27.9427 35.471 27.6751 35.5095 27.41H38.6581V25.8032H35.9932C36.2784 25.2038 36.6713 24.6567 37.1549 24.1859C38.2235 24.1513 39.1635 23.6002 39.7219 22.7662C40.1621 22.6578 40.6112 22.5895 41.0684 22.5895ZM12.9487 13.7519C12.9487 11.0371 13.8614 8.53769 15.3823 6.5211H19.3761V4.91427H16.8349C18.9848 2.92661 21.8482 1.70059 25 1.70059C31.6451 1.70059 37.0513 7.1068 37.0513 13.7519V17.769H35.2966C34.964 16.8362 34.0802 16.1621 33.0342 16.1621H27.4103V9.73478C27.4103 8.84861 26.6896 8.12794 25.8034 8.12794H24.1966C23.3104 8.12794 22.5897 8.84861 22.5897 9.73478V16.1621H16.9658C15.9198 16.1621 15.036 16.8362 14.7034 17.769H12.9487V13.7519ZM12.9487 19.3758H14.5556V21.7861V22.5895H12.9487C12.0625 22.5895 11.3419 21.8688 11.3419 20.9827C11.3419 20.0965 12.0625 19.3758 12.9487 19.3758ZM7.32478 22.5895H8.93161C9.38956 22.5895 9.83868 22.6578 10.2781 22.7654C10.8365 23.5994 11.7765 24.1505 12.8459 24.1859C12.8491 24.1891 12.8531 24.1931 12.8563 24.1963H8.129V25.8032H14.0076C14.3619 26.5487 14.5564 27.3698 14.5564 28.2134V30.6237C14.5564 29.7375 13.8357 29.0168 12.9495 29.0168H3.30848C2.42231 29.0168 1.70164 29.7375 1.70164 30.6237V28.2134C1.70164 27.9403 1.72816 27.6735 1.76592 27.41H4.91532V25.8032H2.25118C3.15583 23.9063 5.08725 22.5895 7.32478 22.5895ZM12.9487 33.8374H10.5385C10.3488 33.8374 10.1793 33.7321 10.0942 33.5626L10.0098 33.3939C9.65148 32.6764 8.93081 32.2305 8.12819 32.2305C7.32558 32.2305 6.60491 32.6764 6.24659 33.3931L6.16223 33.5634C6.07706 33.7321 5.90754 33.8374 5.71794 33.8374H3.30768V30.6237H12.9487V33.8374ZM3.58887 35.4442H5.71794C6.52055 35.4442 7.24122 34.9983 7.59954 34.2817L7.6839 34.1121C7.85343 33.7739 8.40296 33.7739 8.57168 34.1121L8.65604 34.2808C9.01517 34.9983 9.73664 35.4442 10.5385 35.4442H12.6675C12.0039 37.3138 10.2227 38.6579 8.12819 38.6579C6.03368 38.6579 4.2533 37.3138 3.58887 35.4442ZM8.12819 40.2647C8.55722 40.2647 8.97661 40.2205 9.38233 40.1402L9.70209 41.1003L9.50686 41.8828C9.25138 42.9064 8.77977 43.8608 8.12819 44.6827C7.47662 43.8608 7.00582 42.9064 6.74953 41.882L6.5543 41.1003L6.87406 40.1402C7.28059 40.2205 7.69917 40.2647 8.12819 40.2647ZM1.79484 48.2989L2.04631 46.0317C2.24957 44.2031 3.45711 42.6886 5.13867 42.0652L5.19009 42.2717C5.58618 43.8552 6.40486 45.3022 7.55937 46.4567L8.12739 47.0247L8.69541 46.4567C9.84992 45.3022 10.6694 43.8552 11.0647 42.2725L11.1161 42.066C12.7977 42.6894 14.0052 44.2039 14.2085 46.0325L14.4616 48.2989H1.79484ZM11.1595 40.3909L10.904 39.6252C13.0604 38.5864 14.5556 36.3858 14.5556 33.8374V33.6895C15.4883 33.3569 16.1624 32.4732 16.1624 31.4271V28.9341C17.3868 30.88 19.2323 32.3904 21.4224 33.193L21.146 34.023L20.3434 34.3242C16.8814 35.6226 14.5564 38.9784 14.5564 42.6758C14.5564 42.6959 14.562 42.7151 14.5628 42.7352C13.7304 41.6209 12.555 40.7773 11.1595 40.3909ZM16.1624 42.675C16.1624 39.6445 18.0689 36.8928 20.9066 35.829L20.9829 35.8001V37.1989C20.0501 37.5315 19.3761 38.4152 19.3761 39.4613V40.2969C18.5558 40.3732 17.7909 40.713 17.2012 41.3035L18.3372 42.4396C18.698 42.0788 19.1985 41.8716 19.7087 41.8716H20.9829V45.0852H18.5726C17.2438 45.0852 16.1624 44.0038 16.1624 42.675ZM20.9829 48.2989V46.6921H24.1966C25.9689 46.6921 27.4103 45.2507 27.4103 43.4784C27.4103 43.4374 27.3998 43.3989 27.3982 43.3579L27.4103 43.3571V43.4784V46.6921C27.4103 47.5782 28.1309 48.2989 29.0171 48.2989H20.9829ZM29.0171 46.6921V43.2334L30.6239 43.1096V46.6921H29.0171ZM33.8376 43.4784C33.8376 44.3646 33.117 45.0852 32.2308 45.0852V42.9859L33.8368 42.8622C33.8368 42.8654 33.8376 42.8686 33.8376 42.8726V43.4784Z" fill="white"/>
</svg>
