<svg width="50" height="50" viewBox="0 0 50 50" fill="none" xmlns="http://www.w3.org/2000/svg">
<g clip-path="url(#clip0_13_1933)">
<path d="M43.75 44.5312H26.5625V33.5938H43.75V44.5312Z" fill="#FD9C12"/>
<path d="M14.8438 31.25V34.375H10.1562V40.625H19.5312V31.25H14.8438Z" fill="#FD9C12"/>
<path d="M29.6875 36.7188H31.25V38.2812H29.6875V36.7188Z" fill="white"/>
<path d="M32.8125 39.8438H34.375V41.4062H32.8125V39.8438Z" fill="white"/>
<path d="M39.0625 38.2812H40.625V39.8438H39.0625V38.2812Z" fill="white"/>
<path d="M35.9375 36.7188H37.5V38.2812H35.9375V36.7188Z" fill="white"/>
<path d="M33.5938 22.6562H35.1562V24.2188H33.5938V22.6562Z" fill="white"/>
<path d="M36.7188 21.0938H38.2812V22.6562H36.7188V21.0938Z" fill="white"/>
<path d="M47.6562 25.7812H47.382C47.0211 24.9734 46.5914 24.2133 46.0938 23.5109V16.4062C46.0938 13.8211 43.9914 11.7188 41.4062 11.7188V2.34375C41.4062 1.48203 40.7055 0.78125 39.8438 0.78125H38.2812C37.4195 0.78125 36.7188 1.48203 36.7188 2.34375V11.7188H35.1562C34.2945 11.7188 33.5938 12.4195 33.5938 13.2812V18.0484C31.6906 18.2453 29.8914 18.8383 28.2953 19.7719C26.9078 16.5211 24.8773 13.5453 22.3555 11.0695C22.543 10.8117 22.6562 10.4977 22.6562 10.1562V8.59375C22.6562 7.73203 21.9555 7.03125 21.0938 7.03125V3.125C21.0938 1.83281 20.0422 0.78125 18.75 0.78125H12.5C11.2078 0.78125 10.1562 1.83281 10.1562 3.125V7.03125C9.29453 7.03125 8.59375 7.73203 8.59375 8.59375V10.1562C8.59375 10.4969 8.70625 10.8102 8.89219 11.0672C3.72891 16.1336 0.78125 23.1055 0.78125 30.3641V44.5312C0.78125 47.1164 2.88359 49.2188 5.46875 49.2188H45.3125C47.4664 49.2188 49.2188 47.4664 49.2188 45.3125V27.3438C49.2188 26.482 48.518 25.7812 47.6562 25.7812ZM47.6562 30.4688H22.6562V27.3438H47.6562V30.4688ZM21.0938 27.3438V42.9688H7.8125C7.38125 42.9688 7.03125 42.6187 7.03125 42.1875V32.4047C7.03125 32.0602 7.25313 31.7594 7.58281 31.6578L9.46641 31.0781C14.0844 29.657 17.1875 25.4555 17.1875 20.6234V18.75C17.1875 18.3188 17.5375 17.9688 17.9688 17.9688H20.5461C20.7234 17.9688 20.8953 18.0297 21.0336 18.1398L21.4617 18.4828C23.0266 19.7344 24.0016 21.575 24.1805 23.5625C23.6984 24.25 23.2828 24.9938 22.9305 25.7805H22.6562C21.7945 25.7813 21.0938 26.482 21.0938 27.3438ZM39.8438 25C39.8438 24.5688 40.1938 24.2188 40.625 24.2188C41.0562 24.2188 41.4062 24.5688 41.4062 25C41.4062 25.4312 41.0562 25.7812 40.625 25.7812C40.1938 25.7812 39.8438 25.4312 39.8438 25ZM42.825 25.7812C42.9125 25.5359 42.9688 25.275 42.9688 25C42.9688 23.7078 41.9172 22.6562 40.625 22.6562C39.3328 22.6562 38.2812 23.7078 38.2812 25C38.2812 25.275 38.3375 25.5359 38.425 25.7812H24.6625C25.3578 24.4469 26.2867 23.2859 27.3906 22.3367C27.6055 23.4086 28.5531 24.2188 29.6875 24.2188C30.9797 24.2188 32.0312 23.1672 32.0312 21.875C32.0312 21.1859 31.7266 20.5719 31.2516 20.1422C32.4289 19.7477 33.682 19.5312 34.9773 19.5312H35.3359C39.7281 19.5312 43.6555 21.9516 45.65 25.7812H42.825ZM30.4688 21.875C30.4688 22.3062 30.1187 22.6562 29.6875 22.6562C29.2563 22.6562 28.9062 22.3062 28.9062 21.875C28.9062 21.4438 29.2563 21.0938 29.6875 21.0938C30.1187 21.0938 30.4688 21.4438 30.4688 21.875ZM44.5312 16.4062V21.6914C43.6047 20.7898 42.5523 20.0336 41.4062 19.4422V13.2812C43.1297 13.2812 44.5312 14.6828 44.5312 16.4062ZM38.2812 2.34375H39.8438V11.7188H38.2812V2.34375ZM39.8438 13.2812V18.7609C38.4273 18.25 36.9086 17.9688 35.3352 17.9688H35.1562V13.2812H39.8438ZM19.5312 3.125V7.03125H17.9688V2.34375H18.75C19.1812 2.34375 19.5312 2.69375 19.5312 3.125ZM14.8438 7.03125V2.34375H16.4062V7.03125H14.8438ZM11.7188 3.125C11.7188 2.69375 12.0688 2.34375 12.5 2.34375H13.2812V7.03125H11.7188V3.125ZM10.1562 8.59375H21.0938L21.0953 10.1562H10.1562V8.59375ZM5.46875 47.6562C3.74531 47.6562 2.34375 46.2547 2.34375 44.5312V30.3641C2.34375 23.3016 5.30469 16.525 10.4703 11.7188H20.7789C23.4539 14.2078 25.5805 17.2828 26.9742 20.6609C26.4484 21.0617 25.9523 21.5008 25.4906 21.9789C25.0102 20.1344 23.9492 18.4719 22.4383 17.2633L22.0102 16.9211C21.5969 16.5883 21.0773 16.4062 20.5461 16.4062H17.9688C16.6766 16.4062 15.625 17.4578 15.625 18.75V20.6234C15.625 24.7656 12.9656 28.3656 9.00703 29.5836L7.12266 30.1633C6.13359 30.4688 5.46875 31.3688 5.46875 32.4047V42.1875C5.46875 43.4797 6.52031 44.5312 7.8125 44.5312H21.0938V45.3125C21.0938 46.1914 21.3852 47.0031 21.8766 47.6562H5.46875ZM45.3125 47.6562H25C23.7078 47.6562 22.6562 46.6047 22.6562 45.3125V32.0312H47.6562V45.3125C47.6562 46.6047 46.6047 47.6562 45.3125 47.6562Z" fill="white"/>
<path d="M7.8125 27.3438C11.2586 27.3438 14.0625 24.5398 14.0625 21.0938V17.8344C14.0625 16.1859 12.7203 14.8438 11.0719 14.8438C10.2578 14.8438 9.49219 15.2023 8.97109 15.8281L8.65078 16.2117C6.59844 18.6734 5.46875 21.7945 5.46875 25C5.46875 26.2922 6.52031 27.3438 7.8125 27.3438ZM9.85 17.2117L10.1695 16.8289C10.3945 16.5602 10.7234 16.4062 11.0719 16.4062C11.8594 16.4062 12.5 17.0469 12.5 17.8344V21.0938C12.5 23.6789 10.3977 25.7812 7.8125 25.7812C7.38125 25.7812 7.03125 25.4312 7.03125 25C7.03125 22.1602 8.03281 19.3938 9.85 17.2117Z" fill="white"/>
<path d="M10.1562 39.8438H19.5312V41.4062H10.1562V39.8438Z" fill="white"/>
<path d="M10.1562 36.7188H19.5312V38.2812H10.1562V36.7188Z" fill="white"/>
<path d="M10.1562 33.5938H19.5312V35.1562H10.1562V33.5938Z" fill="white"/>
<path d="M14.8438 30.4688H19.5312V32.0312H14.8438V30.4688Z" fill="white"/>
</g>
<defs>
<clipPath id="clip0_13_1933">
<rect width="50" height="50" fill="white"/>
</clipPath>
</defs>
</svg>
