<svg width="50" height="50" viewBox="0 0 50 50" fill="none" xmlns="http://www.w3.org/2000/svg">
<g clip-path="url(#clip0_13_2013)">
<path d="M12.5 36.7188C7.76172 36.7188 3.90625 32.8633 3.90625 28.125C3.90625 23.3867 7.76172 19.5312 12.5 19.5312C17.2383 19.5312 21.0938 23.3867 21.0938 28.125C21.0938 32.8633 17.2383 36.7188 12.5 36.7188Z" fill="#FD9C12"/>
<path d="M31.25 42.5111L37.1766 48.4377H43.2922L31.25 36.3955V42.5111Z" fill="#FD9C12"/>
<path d="M19.5312 38.2812H5.46875C4.60703 38.2812 3.90625 38.982 3.90625 39.8438V44.5312C3.90625 45.393 4.60703 46.0938 5.46875 46.0938H19.5312C20.393 46.0938 21.0938 45.393 21.0938 44.5312V39.8438C21.0938 38.982 20.393 38.2812 19.5312 38.2812ZM19.5312 44.5312H5.46875V39.8438H19.5312V44.5312Z" fill="white"/>
<path d="M11.7188 30.4688C11.2883 30.4688 10.9375 30.1188 10.9375 29.6875H9.375C9.375 30.9797 10.4266 32.0312 11.7188 32.0312V33.5938H13.2812V32.0312H15.625V29.6875C15.625 28.3953 14.5734 27.3438 13.2812 27.3438H11.7188C11.2883 27.3438 10.9375 26.9938 10.9375 26.5625V25.7812H13.2812C13.7117 25.7812 14.0625 26.1312 14.0625 26.5625H15.625C15.625 25.2703 14.5734 24.2188 13.2812 24.2188V22.6562H11.7188V24.2188H9.375V26.5625C9.375 27.8547 10.4266 28.9062 11.7188 28.9062H13.2812C13.7117 28.9062 14.0625 29.2562 14.0625 29.6875V30.4688H11.7188Z" fill="white"/>
<path d="M49.2188 31.9969C49.2188 29.8063 47.9172 27.8328 45.9039 26.9703L43.1289 25.7812H40.5922C40.6117 25.5266 40.625 25.2672 40.625 25C40.625 22.3594 39.6594 20.2742 38.2812 19.6969V4.6875C38.2812 2.53359 36.5289 0.78125 34.375 0.78125C32.2211 0.78125 30.4688 2.53359 30.4688 4.6875V20.3125C30.4688 21.6047 29.4172 22.6562 28.125 22.6562H24.2188V14.8438C24.2188 12.6898 22.4664 10.9375 20.3125 10.9375H19.5312V4.6875C19.5312 2.53359 17.7789 0.78125 15.625 0.78125C13.4711 0.78125 11.7188 2.53359 11.7188 4.6875V5.52344C8.89688 5.87813 6.65234 8.11562 6.29844 10.9375H4.6875C2.53359 10.9375 0.78125 12.6898 0.78125 14.8438V45.3125C0.78125 47.4664 2.53359 49.2188 4.6875 49.2188H20.3125C22.4664 49.2188 24.2188 47.4664 24.2188 45.3125V24.2188H28.125C30.2789 24.2188 32.0312 22.4664 32.0312 20.3125V4.6875C32.0312 3.39531 33.0828 2.34375 34.375 2.34375C35.6672 2.34375 36.7188 3.39531 36.7188 4.6875V19.6969C35.3406 20.2742 34.375 22.3594 34.375 25C34.375 25.2633 34.3883 25.5234 34.4078 25.7812H31.8711L29.0961 26.9703C27.0828 27.8328 25.7812 29.8063 25.7812 31.9969V36.7188H30.4688V49.2188H44.5312V36.7188H49.2188V31.9969ZM15.625 2.34375C16.9172 2.34375 17.9688 3.39531 17.9688 4.6875V8.70313C17.0227 6.99453 15.3008 5.77734 13.2812 5.52344V4.6875C13.2812 3.39531 14.3328 2.34375 15.625 2.34375ZM12.5 10.1562C13.3617 10.1562 14.0625 10.857 14.0625 11.7188C14.0625 12.5805 13.3617 13.2812 12.5 13.2812C11.6383 13.2812 10.9375 12.5805 10.9375 11.7188C10.9375 10.857 11.6383 10.1562 12.5 10.1562ZM4.6875 12.5H7.8125V11.7188C7.8125 9.40078 9.50547 7.47578 11.7188 7.10156V8.70469C10.375 9.05391 9.375 10.2664 9.375 11.7188C9.375 13.4422 10.7766 14.8438 12.5 14.8438C14.2234 14.8438 15.625 13.4422 15.625 11.7188C15.625 10.2664 14.625 9.05391 13.2812 8.70469V7.10156C15.4945 7.475 17.1875 9.4 17.1875 11.7188V12.5H20.3125C21.6047 12.5 22.6562 13.5516 22.6562 14.8438V16.4062H2.34375V14.8438C2.34375 13.5516 3.39531 12.5 4.6875 12.5ZM20.3125 47.6562H4.6875C3.39531 47.6562 2.34375 46.6047 2.34375 45.3125V17.9688H22.6562V45.3125C22.6562 46.6047 21.6047 47.6562 20.3125 47.6562ZM41.468 27.3438L37.5 33.0125L33.532 27.3438H38.7133C38.3859 28.332 37.8898 28.9062 37.5 28.9062V30.4688C38.7961 30.4688 39.857 29.2219 40.3406 27.3438H41.468ZM35.9375 25C35.9375 22.6156 36.8633 21.0938 37.5 21.0938C38.1367 21.0938 39.0625 22.6156 39.0625 25C39.0625 25.2734 39.0477 25.532 39.025 25.7812H35.975C35.9516 25.525 35.9375 25.2648 35.9375 25ZM47.6562 35.1562H44.5312V32.0312H42.9688V47.6562H32.0312V32.0312H30.4688V35.1562H27.3438V31.9969C27.3438 30.432 28.2727 29.0227 29.7117 28.4062L31.7555 27.5305L37.5 35.7375L43.2445 27.5305L45.2883 28.4062C46.7273 29.0227 47.6562 30.432 47.6562 31.9969V35.1562Z" fill="white"/>
<path d="M39.8438 35.1562H41.4062V36.7188H39.8438V35.1562Z" fill="white"/>
</g>
<defs>
<clipPath id="clip0_13_2013">
<rect width="50" height="50" fill="white"/>
</clipPath>
</defs>
</svg>
