<svg width="50" height="50" viewBox="0 0 50 50" fill="none" xmlns="http://www.w3.org/2000/svg">
<path d="M7.25803 22.5811C5.94039 22.5811 4.76852 23.2164 4.03223 24.1968V42.7423C4.03223 43.6332 4.7543 44.3552 5.64513 44.3552H21.7742C22.665 44.3552 23.3871 43.6332 23.3871 42.7423V34.6778C23.3871 34.5643 23.3851 34.4512 23.3827 34.3382C21.1896 27.525 14.7908 22.5811 7.25803 22.5811Z" fill="#FD9C12"/>
<path d="M10.3988 34.3167L9.67756 32.874L8.95629 34.3167C8.51375 35.2016 7.7826 35.9328 6.89752 36.3754L5.45508 37.0967L6.89752 37.818C7.7826 38.2606 8.51375 38.9918 8.95629 39.8767L9.67756 41.3194L10.3988 39.8767C10.8414 38.9918 11.5725 38.2606 12.4576 37.818L13.9 37.0967L12.4576 36.3754C11.5725 35.9328 10.8414 35.2016 10.3988 34.3167ZM9.67756 38.0355C9.39883 37.6906 9.08361 37.3753 8.73865 37.0967C9.08361 36.818 9.39883 36.5028 9.67756 36.1579C9.95629 36.5029 10.2715 36.8181 10.6165 37.0967C10.2715 37.3754 9.95629 37.6907 9.67756 38.0355Z" fill="white"/>
<path d="M15.2377 29.4778L14.5164 28.0352L13.7952 29.4778C13.3526 30.3628 12.6215 31.0939 11.7364 31.5366L10.2939 32.2578L11.7364 32.9791C12.6215 33.4217 13.3526 34.1529 13.7952 35.0379L14.5164 36.4805L15.2377 35.0379C15.6802 34.1529 16.4114 33.4217 17.2965 32.9791L18.7389 32.2578L17.2965 31.5366C16.4114 31.0939 15.6802 30.3628 15.2377 29.4778ZM14.5164 33.1966C14.2377 32.8517 13.9225 32.5365 13.5775 32.2578C13.9225 31.9791 14.2377 31.6639 14.5164 31.319C14.7952 31.664 15.1104 31.9792 15.4553 32.2578C15.1104 32.5366 14.7952 32.8518 14.5164 33.1966Z" fill="white"/>
<path d="M7.25784 17.7422C5.03446 17.7422 3.22559 19.5511 3.22559 21.7744V42.7422C3.22559 44.0762 4.31097 45.1615 5.64494 45.1615H21.774C23.1079 45.1615 24.1933 44.0762 24.1933 42.7422V34.6777C24.1933 25.3394 16.5961 17.7422 7.25784 17.7422ZM22.5804 42.7422C22.5804 43.1868 22.2186 43.5486 21.774 43.5486H5.64494C5.20028 43.5486 4.83849 43.1868 4.83849 42.7422V21.7744C4.83849 20.4405 5.92387 19.3551 7.25784 19.3551C15.7067 19.3551 22.5804 26.2288 22.5804 34.6777V42.7422Z" fill="white"/>
<path d="M27.4198 25.1843C27.4198 19.3022 22.6342 14.5166 16.7521 14.5166C15.5194 14.5166 14.5166 15.5194 14.5166 16.7521C14.5166 17.6788 15.0996 18.52 15.9672 18.8452C19.2598 20.08 21.8565 22.6767 23.0912 25.9694C23.4166 26.837 24.2577 27.4199 25.1843 27.4199C26.417 27.4198 27.4198 26.417 27.4198 25.1843ZM25.1843 25.8069C24.9263 25.8069 24.692 25.6446 24.6014 25.403C23.203 21.6741 20.2624 18.7333 16.5333 17.3349C16.2918 17.2444 16.1295 17.0101 16.1295 16.7521C16.1295 16.4088 16.4088 16.1295 16.7521 16.1295C21.7449 16.1295 25.8069 20.1915 25.8069 25.1843C25.8069 25.5276 25.5276 25.8069 25.1843 25.8069Z" fill="white"/>
<path d="M48.3871 32.2581H48.3287C48.3668 31.9921 48.3871 31.7231 48.3871 31.4516C48.3871 29.0885 46.9548 27.0227 44.7812 26.1865C43.9451 24.0129 41.8792 22.5806 39.5161 22.5806C37.9985 22.5806 36.5616 23.1853 35.5041 24.2547C35.2297 24.2141 34.9531 24.1935 34.6774 24.1935C33.099 24.1935 31.6706 24.8455 30.6452 25.8933V25C30.6452 23.4975 30.4014 22.051 29.9527 20.6971C32.2424 19.9595 33.871 17.7992 33.871 15.3226C33.871 12.2098 31.3385 9.67742 28.2258 9.67742C26.0787 9.67742 24.1234 10.9212 23.1785 12.7962C21.5307 11.9498 19.6902 11.4283 17.7419 11.3147V3.22581C17.7419 1.44708 16.2949 0 14.5161 0H6.45161C4.67288 0 3.22581 1.44708 3.22581 3.22581V11.7701C1.14315 13.9727 0 16.8406 0 19.8846V44.9656C0 45.8273 0.335585 46.6374 0.944859 47.2467L2.75343 49.0552C3.3627 49.6645 4.17278 50 5.03438 50H44.3548C46.5782 50 48.3871 48.1911 48.3871 45.9677V37.0968C49.2764 37.0968 50 36.3732 50 35.4839V33.871C50 32.9817 49.2764 32.2581 48.3871 32.2581ZM34.6774 25.8065C34.9892 25.8065 35.3031 25.8433 35.6106 25.9162L36.0966 26.0315L36.4162 25.6477C37.1858 24.7236 38.3157 24.1935 39.5161 24.1935C41.2778 24.1935 42.8647 25.3701 43.3751 27.0547L43.5002 27.4675L43.9131 27.5926C45.5977 28.103 46.7742 29.6899 46.7742 31.4516C46.7742 31.7246 46.7465 31.9942 46.6929 32.2581H43.5484V33.0645C43.5484 34.3985 42.463 35.4839 41.129 35.4839C40.7046 35.4839 40.2866 35.3718 39.9201 35.1597L39.5161 34.9259L39.1122 35.1597C38.7457 35.3718 38.3276 35.4839 37.9032 35.4839C36.5693 35.4839 35.4839 34.3985 35.4839 33.0645C35.4839 32.3708 35.7825 31.7094 36.3031 31.2498L35.2359 30.0405C34.5734 30.6253 34.1275 31.4066 33.9535 32.2581H30.6452V29.8387C30.6452 27.6153 32.454 25.8065 34.6774 25.8065ZM30.6452 33.871H33.9523C34.0737 34.4665 34.3264 35.0148 34.6793 35.4839H30.6452V33.871ZM28.2258 11.2903C30.4492 11.2903 32.2581 13.0992 32.2581 15.3226C32.2581 17.1301 31.0443 18.7018 29.3533 19.1944C28.291 16.9312 26.6285 15.0036 24.5712 13.619C25.2254 12.2236 26.6536 11.2903 28.2258 11.2903ZM4.83871 9.67742H16.129V11.2903H4.83871V9.67742ZM8.06452 8.06452V4.83871H10.0523L12.2028 8.06452H8.06452ZM6.45161 1.6129H14.5161C15.4054 1.6129 16.129 2.33649 16.129 3.22581V8.06452H14.1412L11.3943 3.94405C11.0945 3.49425 10.5927 3.22581 10.0523 3.22581H8.06452C7.1752 3.22581 6.45161 3.9494 6.45161 4.83871V8.06452H4.83871V3.22581C4.83871 2.33649 5.5623 1.6129 6.45161 1.6129ZM5.03438 48.3871C4.60363 48.3871 4.19849 48.2194 3.89395 47.9146L2.08538 46.106C1.78065 45.8015 1.6129 45.3965 1.6129 44.9656V19.8846C1.6129 17.2678 2.59143 14.8018 4.3745 12.9032H16.9355C23.6056 12.9032 29.0323 18.3298 29.0323 25V44.9656C29.0323 45.3965 28.8645 45.8015 28.5599 46.106L26.7513 47.9146C26.4467 48.2193 26.0416 48.3871 25.6109 48.3871H5.03438ZM46.7742 45.9677C46.7742 47.3017 45.6888 48.3871 44.3548 48.3871H28.5599L29.7003 47.2467C30.3096 46.6374 30.6452 45.8273 30.6452 44.9656V37.0968H46.7742V45.9677ZM48.3871 35.4839H44.3529C44.7057 35.0149 44.9589 34.4664 45.0802 33.871H48.3871V35.4839Z" fill="white"/>
<path d="M39.516 30.6453C40.8501 30.6453 41.9354 29.56 41.9354 28.226C41.9354 26.892 40.8501 25.8066 39.516 25.8066C38.182 25.8066 37.0967 26.892 37.0967 28.226C37.0967 29.56 38.182 30.6453 39.516 30.6453ZM39.516 27.4195C39.9607 27.4195 40.3225 27.7813 40.3225 28.226C40.3225 28.6707 39.9607 29.0324 39.516 29.0324C39.0714 29.0324 38.7096 28.6707 38.7096 28.226C38.7096 27.7813 39.0714 27.4195 39.516 27.4195Z" fill="white"/>
<path d="M37.9034 9.6778C40.1267 9.6778 41.9356 7.86893 41.9356 5.64554C41.9356 3.42215 40.1267 1.61328 37.9034 1.61328C35.68 1.61328 33.8711 3.42215 33.8711 5.64554C33.8711 7.86893 35.68 9.6778 37.9034 9.6778ZM37.9034 3.22618C39.2373 3.22618 40.3227 4.31157 40.3227 5.64554C40.3227 6.97951 39.2373 8.06489 37.9034 8.06489C36.5694 8.06489 35.484 6.97951 35.484 5.64554C35.484 4.31157 36.5694 3.22618 37.9034 3.22618Z" fill="white"/>
<path d="M45.9682 19.3553C47.3023 19.3553 48.3875 18.2699 48.3875 16.936C48.3875 15.602 47.3023 14.5166 45.9682 14.5166C44.6341 14.5166 43.5488 15.602 43.5488 16.936C43.5488 18.2699 44.6341 19.3553 45.9682 19.3553ZM45.9682 16.1295C46.4128 16.1295 46.7746 16.4913 46.7746 16.936C46.7746 17.3806 46.4128 17.7424 45.9682 17.7424C45.5235 17.7424 45.1617 17.3806 45.1617 16.936C45.1617 16.4913 45.5235 16.1295 45.9682 16.1295Z" fill="white"/>
</svg>
