<svg width="50" height="50" viewBox="0 0 50 50" fill="none" xmlns="http://www.w3.org/2000/svg">
<g clip-path="url(#clip0_13_2057)">
<path d="M25 41.4062C15.9531 41.4062 8.59375 34.0461 8.59375 25C8.59375 15.9539 15.9531 8.59375 25 8.59375C34.0469 8.59375 41.4062 15.9539 41.4062 25C41.4062 34.0461 34.0469 41.4062 25 41.4062ZM25 14.0625C18.9688 14.0625 14.0625 18.9688 14.0625 25C14.0625 31.0312 18.9688 35.9375 25 35.9375C31.0312 35.9375 35.9375 31.0312 35.9375 25C35.9375 18.9688 31.0312 14.0625 25 14.0625Z" fill="#FD9C12"/>
<path d="M21.0938 25C21.0938 27.1539 22.8461 28.9062 25 28.9062C27.1539 28.9062 28.9062 27.1539 28.9062 25C28.9062 22.8461 27.1539 21.0938 25 21.0938C22.8461 21.0938 21.0938 22.8461 21.0938 25ZM27.3438 25C27.3438 26.2922 26.2922 27.3438 25 27.3438C23.7078 27.3438 22.6562 26.2922 22.6562 25C22.6562 23.7078 23.7078 22.6562 25 22.6562C26.2922 22.6562 27.3438 23.7078 27.3438 25Z" fill="white"/>
<path d="M25 13.2812C18.5383 13.2812 13.2812 18.5383 13.2812 25C13.2812 31.4617 18.5383 36.7188 25 36.7188C31.4617 36.7188 36.7188 31.4617 36.7188 25C36.7188 18.5383 31.4617 13.2812 25 13.2812ZM33.6602 19.7211L30.575 20.7234C29.7453 19.6422 28.6266 18.8289 27.3438 18.3766V15.1273C30.0109 15.7609 32.268 17.4453 33.6602 19.7211ZM25.7812 14.8836V19.5594L26.3672 19.7102C27.7094 20.057 28.8609 20.8937 29.6094 22.0656L29.9344 22.575L34.3859 21.1281C34.5836 21.6063 34.7391 22.1047 34.8625 22.6164L30.4148 24.0617L30.4578 24.7648C30.4633 24.8438 30.4688 24.9203 30.4688 25C30.4688 26.268 30.025 27.5039 29.2188 28.4797L28.8328 28.9469L31.5773 32.7242C31.1812 33.0625 30.7563 33.3656 30.3109 33.6398L27.5656 29.8609L27.0023 30.0836C25.7117 30.593 24.2867 30.593 22.9961 30.0836L22.4328 29.8609L19.6875 33.6398C19.2422 33.3648 18.818 33.0617 18.4211 32.7242L21.1656 28.9469L20.7813 28.4797C19.975 27.5039 19.5312 26.268 19.5312 25C19.5312 24.9203 19.5367 24.8438 19.5422 24.7656L19.5852 24.0625L15.1375 22.6172C15.2609 22.1063 15.4164 21.607 15.6141 21.1289L20.0656 22.5758L20.3906 22.0664C21.1391 20.8945 22.2906 20.0586 23.6328 19.7109L24.2188 19.5594V14.8836C24.4773 14.8633 24.7359 14.8438 25 14.8438C25.2641 14.8438 25.5227 14.8633 25.7812 14.8836ZM22.6562 15.1273V18.3766C21.3727 18.8289 20.2539 19.6422 19.425 20.7234L16.3398 19.7211C17.732 17.4453 19.9891 15.7609 22.6562 15.1273ZM14.8438 25C14.8438 24.7227 14.8633 24.45 14.8852 24.1781L17.9711 25.1805C18.0063 26.5422 18.4391 27.868 19.2078 28.9852L17.3031 31.6063C15.7742 29.8289 14.8438 27.5227 14.8438 25ZM21.0891 34.3711L23.0016 31.7383C24.3031 32.1273 25.6969 32.1273 26.9984 31.7383L28.9109 34.3711C27.7063 34.8758 26.3859 35.1562 25 35.1562C23.6141 35.1562 22.2937 34.8758 21.0891 34.3711ZM32.6977 31.607L30.793 28.9859C31.5609 27.8688 31.9938 26.543 32.0297 25.1812L35.1156 24.1789C35.1367 24.45 35.1562 24.7227 35.1562 25C35.1562 27.5227 34.2258 29.8289 32.6977 31.607Z" fill="white"/>
<path d="M25 0.78125C11.6461 0.78125 0.78125 11.6453 0.78125 25C0.78125 38.3547 11.6461 49.2188 25 49.2188C38.3539 49.2188 49.2188 38.3547 49.2188 25C49.2188 11.6453 38.3539 0.78125 25 0.78125ZM47.6562 25C47.6562 25.4453 47.6398 25.8867 47.6141 26.3258L44.5312 25.8852V24.1148L47.6141 23.6742C47.6398 24.1133 47.6562 24.5547 47.6562 25ZM27.2398 42.9688H22.7602L22.118 47.4664C18.025 46.9437 14.2711 45.3273 11.1578 42.9172L13.8781 39.2898L10.7102 36.1219L7.08281 38.8422C4.67266 35.7297 3.05625 31.9758 2.53359 27.8828L7.03125 27.2398V22.7602L2.53359 22.1172C3.05625 18.0242 4.67266 14.2711 7.08281 11.1578L10.7102 13.8781L13.8781 10.7102L11.1578 7.08281C14.2711 4.67188 18.025 3.05547 22.118 2.53359L22.7602 7.03125H27.2398L27.882 2.53359C31.975 3.05625 35.7289 4.67266 38.8422 7.08281L36.1219 10.7102L39.2898 13.8781L42.9172 11.1578C45.3273 14.2703 46.9437 18.0242 47.4664 22.1172L42.9688 22.7602V27.2398L47.4664 27.8828C46.9437 31.9758 45.3273 35.7289 42.9172 38.8422L39.2898 36.1219L36.1219 39.2898L38.8422 42.9172C35.7289 45.3281 31.975 46.9445 27.882 47.4664L27.2398 42.9688ZM2.34375 25C2.34375 24.5547 2.36016 24.1133 2.38594 23.6742L5.46875 24.1148V25.8852L2.38594 26.3258C2.36016 25.8867 2.34375 25.4453 2.34375 25ZM41.9187 9.95312L39.4367 11.8148L38.1852 10.5633L40.0469 8.08047C40.7062 8.66875 41.3312 9.29375 41.9187 9.95312ZM26.3258 2.38594L25.8852 5.46875H24.1148L23.6742 2.38594C24.1133 2.36016 24.5547 2.34375 25 2.34375C25.4453 2.34375 25.8867 2.36016 26.3258 2.38594ZM9.95391 8.08125L11.8156 10.5641L10.5641 11.8156L8.08203 9.95391C8.66875 9.29375 9.29375 8.66875 9.95391 8.08125ZM8.08125 40.0469L10.5633 38.1852L11.8148 39.4367L9.95312 41.9195C9.29375 41.3313 8.66875 40.7062 8.08125 40.0469ZM23.6742 47.6141L24.1148 44.5312H25.8852L26.3258 47.6141C25.8867 47.6398 25.4453 47.6562 25 47.6562C24.5547 47.6562 24.1133 47.6398 23.6742 47.6141ZM40.0461 41.9187L38.1844 39.4359L39.4359 38.1844L41.918 40.0461C41.3312 40.7062 40.7062 41.3312 40.0461 41.9187Z" fill="white"/>
</g>
<defs>
<clipPath id="clip0_13_2057">
<rect width="50" height="50" fill="white"/>
</clipPath>
</defs>
</svg>
